<svg width="1920" height="1485" viewBox="0 0 1920 1485" fill="none" xmlns="http://www.w3.org/2000/svg">
<g clip-path="url(#clip0_194_23473)">
<rect width="1920" height="1485" fill="#D9E7FE"/>
<rect width="3156" height="1565.57" transform="translate(500 130)" fill="white"/>
<path d="M781.129 546.501V705.64H755.487L680.502 597.242H679.181V705.64H650.353V546.501H676.15L751.058 654.977H752.456V546.501H781.129ZM864.137 707.971C852.171 707.971 841.836 705.485 833.133 700.512C824.482 695.487 817.825 688.39 813.163 679.22C808.501 670 806.17 659.147 806.17 646.662C806.17 634.385 808.501 623.61 813.163 614.337C817.877 605.013 824.456 597.76 832.9 592.58C841.344 587.348 851.264 584.732 862.661 584.732C870.017 584.732 876.958 585.923 883.486 588.306C890.065 590.637 895.867 594.263 900.891 599.185C905.968 604.106 909.957 610.374 912.858 617.989C915.759 625.553 917.209 634.566 917.209 645.03V653.656H819.379V634.696H890.246C890.194 629.308 889.029 624.516 886.749 620.32C884.47 616.073 881.284 612.731 877.192 610.297C873.151 607.862 868.437 606.644 863.049 606.644C857.299 606.644 852.248 608.043 847.897 610.84C843.545 613.586 840.152 617.212 837.718 621.719C835.335 626.174 834.117 631.07 834.066 636.405V652.956C834.066 659.898 835.335 665.855 837.873 670.828C840.411 675.75 843.96 679.531 848.519 682.173C853.077 684.763 858.413 686.058 864.526 686.058C868.618 686.058 872.322 685.489 875.637 684.349C878.953 683.157 881.828 681.422 884.263 679.143C886.697 676.863 888.536 674.04 889.78 670.673L916.044 673.626C914.386 680.567 911.226 686.628 906.564 691.809C901.953 696.937 896.048 700.926 888.847 703.775C881.647 706.572 873.41 707.971 864.137 707.971ZM961.443 586.286L985.531 630.344L1010.01 586.286H1039.77L1003.79 645.963L1040.39 705.64H1010.79L985.531 662.669L960.51 705.64H930.672L967.037 645.963L931.604 586.286H961.443ZM1121.13 586.286V608.043H1052.51V586.286H1121.13ZM1069.45 557.691H1097.58V669.741C1097.58 673.522 1098.15 676.423 1099.29 678.443C1100.48 680.412 1102.04 681.759 1103.95 682.484C1105.87 683.209 1107.99 683.572 1110.32 683.572C1112.09 683.572 1113.69 683.442 1115.14 683.183C1116.64 682.924 1117.78 682.691 1118.56 682.484L1123.3 704.474C1121.8 704.992 1119.65 705.562 1116.85 706.184C1114.11 706.806 1110.74 707.168 1106.75 707.272C1099.71 707.479 1093.36 706.417 1087.71 704.086C1082.07 701.703 1077.59 698.025 1074.27 693.052C1071.01 688.079 1069.4 681.862 1069.45 674.403V557.691ZM1198.93 750.398V586.286H1226.59V606.023H1228.22C1229.67 603.122 1231.72 600.04 1234.36 596.776C1237 593.461 1240.58 590.637 1245.08 588.306C1249.59 585.923 1255.34 584.732 1262.33 584.732C1271.56 584.732 1279.87 587.089 1287.28 591.803C1294.74 596.465 1300.64 603.381 1304.99 612.55C1309.4 621.667 1311.6 632.857 1311.6 646.118C1311.6 659.224 1309.45 670.362 1305.15 679.531C1300.85 688.7 1295 695.694 1287.59 700.512C1280.18 705.329 1271.79 707.738 1262.41 707.738C1255.57 707.738 1249.9 706.598 1245.39 704.319C1240.89 702.04 1237.26 699.294 1234.52 696.082C1231.82 692.819 1229.72 689.736 1228.22 686.836H1227.06V750.398H1198.93ZM1226.51 645.963C1226.51 653.682 1227.6 660.442 1229.78 666.244C1232 672.046 1235.19 676.579 1239.33 679.842C1243.53 683.054 1248.61 684.66 1254.56 684.66C1260.78 684.66 1265.99 683.002 1270.18 679.687C1274.38 676.319 1277.54 671.735 1279.66 665.933C1281.84 660.079 1282.93 653.423 1282.93 645.963C1282.93 638.555 1281.86 631.976 1279.74 626.226C1277.62 620.476 1274.46 615.969 1270.26 612.705C1266.06 609.442 1260.83 607.81 1254.56 607.81C1248.55 607.81 1243.45 609.39 1239.26 612.55C1235.06 615.71 1231.87 620.139 1229.7 625.837C1227.57 631.536 1226.51 638.244 1226.51 645.963ZM1370.03 708.049C1362.47 708.049 1355.66 706.702 1349.6 704.008C1343.59 701.263 1338.82 697.222 1335.3 691.886C1331.83 686.551 1330.09 679.972 1330.09 672.149C1330.09 665.415 1331.34 659.846 1333.82 655.443C1336.31 651.04 1339.7 647.517 1344 644.875C1348.3 642.233 1353.14 640.239 1358.53 638.892C1363.97 637.493 1369.59 636.483 1375.39 635.861C1382.39 635.136 1388.06 634.489 1392.41 633.919C1396.76 633.297 1399.92 632.365 1401.89 631.121C1403.91 629.826 1404.92 627.832 1404.92 625.138V624.672C1404.92 618.818 1403.19 614.285 1399.72 611.074C1396.24 607.862 1391.25 606.256 1384.72 606.256C1377.83 606.256 1372.36 607.758 1368.32 610.763C1364.33 613.767 1361.64 617.316 1360.24 621.408L1333.98 617.678C1336.05 610.426 1339.47 604.365 1344.23 599.496C1349 594.574 1354.83 590.896 1361.72 588.462C1368.61 585.975 1376.22 584.732 1384.56 584.732C1390.31 584.732 1396.04 585.405 1401.74 586.752C1407.43 588.099 1412.64 590.326 1417.35 593.435C1422.07 596.491 1425.85 600.661 1428.7 605.945C1431.6 611.229 1433.05 617.834 1433.05 625.76V705.64H1406.01V689.244H1405.08C1403.37 692.56 1400.96 695.668 1397.85 698.569C1394.79 701.418 1390.94 703.723 1386.27 705.485C1381.66 707.194 1376.25 708.049 1370.03 708.049ZM1377.34 687.379C1382.98 687.379 1387.88 686.266 1392.02 684.038C1396.17 681.759 1399.35 678.754 1401.58 675.024C1403.86 671.295 1405 667.228 1405 662.825V648.76C1404.12 649.486 1402.62 650.159 1400.49 650.781C1398.42 651.402 1396.09 651.946 1393.5 652.412C1390.91 652.879 1388.35 653.293 1385.81 653.656C1383.27 654.018 1381.07 654.329 1379.2 654.588C1375.01 655.158 1371.25 656.09 1367.93 657.385C1364.62 658.681 1362 660.494 1360.09 662.825C1358.17 665.104 1357.21 668.057 1357.21 671.683C1357.21 676.863 1359.1 680.775 1362.88 683.417C1366.67 686.058 1371.48 687.379 1377.34 687.379ZM1513.24 752.884C1503.14 752.884 1494.46 751.512 1487.21 748.766C1479.96 746.072 1474.13 742.446 1469.73 737.887C1465.32 733.329 1462.27 728.278 1460.56 722.735L1485.89 716.596C1487.03 718.927 1488.69 721.233 1490.86 723.512C1493.04 725.843 1495.97 727.76 1499.64 729.262C1503.37 730.816 1508.06 731.593 1513.71 731.593C1521.69 731.593 1528.29 729.651 1533.52 725.765C1538.76 721.932 1541.37 715.612 1541.37 706.806V684.194H1539.97C1538.52 687.095 1536.4 690.073 1533.6 693.13C1530.86 696.186 1527.2 698.75 1522.64 700.822C1518.14 702.894 1512.47 703.931 1505.63 703.931C1496.46 703.931 1488.14 701.781 1480.68 697.481C1473.28 693.13 1467.37 686.654 1462.97 678.055C1458.62 669.404 1456.44 658.577 1456.44 645.574C1456.44 632.468 1458.62 621.408 1462.97 612.395C1467.37 603.329 1473.3 596.465 1480.76 591.803C1488.22 587.089 1496.54 584.732 1505.7 584.732C1512.7 584.732 1518.45 585.923 1522.96 588.306C1527.51 590.637 1531.14 593.461 1533.83 596.776C1536.53 600.04 1538.57 603.122 1539.97 606.023H1541.53V586.286H1569.27V707.583C1569.27 717.788 1566.83 726.232 1561.96 732.914C1557.09 739.597 1550.44 744.596 1541.99 747.911C1533.55 751.227 1523.97 752.884 1513.24 752.884ZM1513.48 681.862C1519.43 681.862 1524.51 680.412 1528.71 677.511C1532.9 674.61 1536.09 670.44 1538.26 665.001C1540.44 659.561 1541.53 653.034 1541.53 645.419C1541.53 637.908 1540.44 631.329 1538.26 625.682C1536.14 620.035 1532.98 615.658 1528.78 612.55C1524.64 609.39 1519.54 607.81 1513.48 607.81C1507.21 607.81 1501.97 609.442 1497.78 612.705C1493.58 615.969 1490.42 620.45 1488.3 626.148C1486.18 631.795 1485.11 638.218 1485.11 645.419C1485.11 652.723 1486.18 659.121 1488.3 664.612C1490.47 670.051 1493.66 674.299 1497.86 677.356C1502.1 680.36 1507.31 681.862 1513.48 681.862ZM1650.93 707.971C1638.97 707.971 1628.63 705.485 1619.93 700.512C1611.28 695.487 1604.62 688.39 1599.96 679.22C1595.3 670 1592.97 659.147 1592.97 646.662C1592.97 634.385 1595.3 623.61 1599.96 614.337C1604.67 605.013 1611.25 597.76 1619.7 592.58C1628.14 587.348 1638.06 584.732 1649.46 584.732C1656.81 584.732 1663.76 585.923 1670.28 588.306C1676.86 590.637 1682.66 594.263 1687.69 599.185C1692.77 604.106 1696.75 610.374 1699.66 617.989C1702.56 625.553 1704.01 634.566 1704.01 645.03V653.656H1606.18V634.696H1677.04C1676.99 629.308 1675.83 624.516 1673.55 620.32C1671.27 616.073 1668.08 612.731 1663.99 610.297C1659.95 607.862 1655.23 606.644 1649.85 606.644C1644.1 606.644 1639.05 608.043 1634.69 610.84C1630.34 613.586 1626.95 617.212 1624.52 621.719C1622.13 626.174 1620.91 631.07 1620.86 636.405V652.956C1620.86 659.898 1622.13 665.855 1624.67 670.828C1627.21 675.75 1630.76 679.531 1635.32 682.173C1639.87 684.763 1645.21 686.058 1651.32 686.058C1655.42 686.058 1659.12 685.489 1662.43 684.349C1665.75 683.157 1668.63 681.422 1671.06 679.143C1673.49 676.863 1675.33 674.04 1676.58 670.673L1702.84 673.626C1701.18 680.567 1698.02 686.628 1693.36 691.809C1688.75 696.937 1682.85 700.926 1675.64 703.775C1668.44 706.572 1660.21 707.971 1650.93 707.971Z" fill="#0B5CD5"/>
<path d="M741.957 1072.78H830.325" stroke="#0B5CD5" stroke-width="6.312" stroke-linecap="round" stroke-linejoin="round"/>
<path d="M741.957 1072.78L779.829 1110.66" stroke="#0B5CD5" stroke-width="6.312" stroke-linecap="round" stroke-linejoin="round"/>
<path d="M741.957 1072.78L779.829 1034.91" stroke="#0B5CD5" stroke-width="6.312" stroke-linecap="round" stroke-linejoin="round"/>
<path d="M1145.92 1072.78H1234.29" stroke="#0B5CD5" stroke-width="6.312" stroke-linecap="round" stroke-linejoin="round"/>
<path d="M1196.42 1110.66L1234.29 1072.78" stroke="#0B5CD5" stroke-width="6.312" stroke-linecap="round" stroke-linejoin="round"/>
<path d="M1196.42 1034.91L1234.29 1072.78" stroke="#0B5CD5" stroke-width="6.312" stroke-linecap="round" stroke-linejoin="round"/>
<rect x="726.684" y="1017.01" width="114.631" height="114.631" rx="16.0666" fill="#FF6060" fill-opacity="0.15"/>
<rect x="726.684" y="1017.01" width="114.631" height="114.631" rx="16.0666" stroke="#FF6060" stroke-width="10.7111"/>
<path d="M623.399 1029.11V1074.3H615.212V1037.07H614.947L604.376 1043.83V1036.32L615.609 1029.11H623.399ZM651.425 1074.92C649.262 1074.9 647.151 1074.53 645.092 1073.79C643.032 1073.04 641.178 1071.83 639.53 1070.15C637.883 1068.46 636.573 1066.22 635.602 1063.42C634.631 1060.61 634.153 1057.13 634.168 1052.98C634.168 1049.11 634.58 1045.66 635.404 1042.63C636.228 1039.6 637.412 1037.04 638.957 1034.95C640.501 1032.85 642.363 1031.25 644.54 1030.14C646.732 1029.04 649.182 1028.49 651.889 1028.49C654.728 1028.49 657.244 1029.05 659.436 1030.17C661.643 1031.28 663.423 1032.81 664.776 1034.76C666.13 1036.68 666.968 1038.86 667.292 1041.29H659.237C658.825 1039.55 657.979 1038.17 656.699 1037.14C655.434 1036.09 653.83 1035.57 651.889 1035.57C648.755 1035.57 646.342 1036.93 644.65 1039.65C642.973 1042.38 642.127 1046.11 642.112 1050.87H642.421C643.142 1049.57 644.076 1048.46 645.224 1047.53C646.372 1046.61 647.666 1045.89 649.108 1045.39C650.564 1044.88 652.102 1044.62 653.72 1044.62C656.368 1044.62 658.744 1045.25 660.848 1046.52C662.967 1047.78 664.644 1049.53 665.88 1051.75C667.115 1053.95 667.726 1056.49 667.711 1059.34C667.726 1062.31 667.049 1064.98 665.681 1067.35C664.313 1069.7 662.408 1071.56 659.965 1072.91C657.523 1074.26 654.676 1074.93 651.425 1074.92ZM651.381 1068.3C652.985 1068.3 654.419 1067.91 655.684 1067.13C656.949 1066.35 657.95 1065.3 658.685 1063.97C659.421 1062.65 659.781 1061.16 659.767 1059.52C659.781 1057.9 659.428 1056.43 658.707 1055.12C658.001 1053.82 657.023 1052.78 655.772 1052.01C654.522 1051.25 653.095 1050.87 651.491 1050.87C650.3 1050.87 649.189 1051.09 648.159 1051.55C647.129 1052.01 646.232 1052.64 645.467 1053.45C644.702 1054.24 644.099 1055.17 643.657 1056.23C643.231 1057.27 643.01 1058.39 642.995 1059.58C643.01 1061.16 643.378 1062.61 644.099 1063.93C644.819 1065.25 645.812 1066.31 647.078 1067.11C648.343 1067.9 649.777 1068.3 651.381 1068.3Z" fill="#FF6060"/>
<path d="M772.137 918.805V964H763.95V926.772H763.685L753.115 933.524V926.021L764.347 918.805H772.137ZM800.163 964.618C798.001 964.603 795.89 964.228 793.83 963.492C791.77 962.742 789.917 961.528 788.269 959.851C786.621 958.159 785.312 955.916 784.341 953.121C783.37 950.311 782.892 946.831 782.906 942.682C782.906 938.813 783.318 935.363 784.142 932.333C784.966 929.302 786.15 926.742 787.695 924.653C789.24 922.549 791.101 920.946 793.278 919.842C795.47 918.739 797.92 918.187 800.627 918.187C803.466 918.187 805.982 918.746 808.174 919.864C810.381 920.982 812.161 922.512 813.514 924.454C814.868 926.382 815.706 928.559 816.03 930.986H807.975C807.563 929.25 806.718 927.868 805.438 926.838C804.172 925.793 802.569 925.271 800.627 925.271C797.493 925.271 795.08 926.632 793.389 929.353C791.711 932.075 790.865 935.812 790.851 940.564H791.16C791.881 939.269 792.815 938.159 793.962 937.232C795.11 936.305 796.404 935.591 797.846 935.091C799.303 934.576 800.84 934.319 802.458 934.319C805.107 934.319 807.483 934.951 809.586 936.217C811.705 937.482 813.382 939.225 814.618 941.447C815.854 943.653 816.464 946.184 816.449 949.038C816.464 952.01 815.787 954.68 814.419 957.049C813.051 959.403 811.146 961.256 808.704 962.61C806.261 963.963 803.415 964.633 800.163 964.618ZM800.119 957.998C801.723 957.998 803.157 957.608 804.422 956.828C805.688 956.048 806.688 954.996 807.424 953.672C808.159 952.348 808.52 950.862 808.505 949.215C808.52 947.596 808.167 946.132 807.446 944.823C806.74 943.514 805.761 942.476 804.511 941.711C803.26 940.946 801.833 940.564 800.23 940.564C799.038 940.564 797.927 940.792 796.897 941.248C795.867 941.704 794.97 942.337 794.205 943.146C793.44 943.94 792.837 944.867 792.395 945.926C791.969 946.971 791.748 948.089 791.733 949.281C791.748 950.855 792.116 952.304 792.837 953.628C793.558 954.952 794.551 956.011 795.816 956.806C797.081 957.6 798.516 957.998 800.119 957.998Z" fill="#FF6060"/>
<rect x="1133.68" y="1017.01" width="114.631" height="114.631" rx="16.0666" fill="#FF6060" fill-opacity="0.15"/>
<rect x="1133.68" y="1017.01" width="114.631" height="114.631" rx="16.0666" stroke="#FF6060" stroke-width="10.7111"/>
<path d="M1030.4 1029.11V1074.3H1022.21V1037.07H1021.95L1011.38 1043.83V1036.32L1022.61 1029.11H1030.4ZM1058.43 1074.92C1056.26 1074.9 1054.15 1074.53 1052.09 1073.79C1050.03 1073.04 1048.18 1071.83 1046.53 1070.15C1044.88 1068.46 1043.57 1066.22 1042.6 1063.42C1041.63 1060.61 1041.15 1057.13 1041.17 1052.98C1041.17 1049.11 1041.58 1045.66 1042.4 1042.63C1043.23 1039.6 1044.41 1037.04 1045.96 1034.95C1047.5 1032.85 1049.36 1031.25 1051.54 1030.14C1053.73 1029.04 1056.18 1028.49 1058.89 1028.49C1061.73 1028.49 1064.24 1029.05 1066.44 1030.17C1068.64 1031.28 1070.42 1032.81 1071.78 1034.76C1073.13 1036.68 1073.97 1038.86 1074.29 1041.29H1066.24C1065.83 1039.55 1064.98 1038.17 1063.7 1037.14C1062.43 1036.09 1060.83 1035.57 1058.89 1035.57C1055.75 1035.57 1053.34 1036.93 1051.65 1039.65C1049.97 1042.38 1049.13 1046.11 1049.11 1050.87H1049.42C1050.14 1049.57 1051.08 1048.46 1052.22 1047.53C1053.37 1046.61 1054.67 1045.89 1056.11 1045.39C1057.56 1044.88 1059.1 1044.62 1060.72 1044.62C1063.37 1044.62 1065.74 1045.25 1067.85 1046.52C1069.97 1047.78 1071.64 1049.53 1072.88 1051.75C1074.12 1053.95 1074.73 1056.49 1074.71 1059.34C1074.73 1062.31 1074.05 1064.98 1072.68 1067.35C1071.31 1069.7 1069.41 1071.56 1066.97 1072.91C1064.52 1074.26 1061.68 1074.93 1058.43 1074.92ZM1058.38 1068.3C1059.98 1068.3 1061.42 1067.91 1062.68 1067.13C1063.95 1066.35 1064.95 1065.3 1065.69 1063.97C1066.42 1062.65 1066.78 1061.16 1066.77 1059.52C1066.78 1057.9 1066.43 1056.43 1065.71 1055.12C1065 1053.82 1064.02 1052.78 1062.77 1052.01C1061.52 1051.25 1060.09 1050.87 1058.49 1050.87C1057.3 1050.87 1056.19 1051.09 1055.16 1051.55C1054.13 1052.01 1053.23 1052.64 1052.47 1053.45C1051.7 1054.24 1051.1 1055.17 1050.66 1056.23C1050.23 1057.27 1050.01 1058.39 1050 1059.58C1050.01 1061.16 1050.38 1062.61 1051.1 1063.93C1051.82 1065.25 1052.81 1066.31 1054.08 1067.11C1055.34 1067.9 1056.78 1068.3 1058.38 1068.3Z" fill="#FF6060"/>
<path d="M1179.14 918.805V964H1170.95V926.772H1170.69L1160.11 933.524V926.021L1171.35 918.805H1179.14ZM1207.16 964.618C1205 964.603 1202.89 964.228 1200.83 963.492C1198.77 962.742 1196.92 961.528 1195.27 959.851C1193.62 958.159 1192.31 955.916 1191.34 953.121C1190.37 950.311 1189.89 946.831 1189.91 942.682C1189.91 938.813 1190.32 935.363 1191.14 932.333C1191.97 929.302 1193.15 926.742 1194.7 924.653C1196.24 922.549 1198.1 920.946 1200.28 919.842C1202.47 918.739 1204.92 918.187 1207.63 918.187C1210.47 918.187 1212.98 918.746 1215.17 919.864C1217.38 920.982 1219.16 922.512 1220.51 924.454C1221.87 926.382 1222.71 928.559 1223.03 930.986H1214.98C1214.56 929.25 1213.72 927.868 1212.44 926.838C1211.17 925.793 1209.57 925.271 1207.63 925.271C1204.49 925.271 1202.08 926.632 1200.39 929.353C1198.71 932.075 1197.87 935.812 1197.85 940.564H1198.16C1198.88 939.269 1199.81 938.159 1200.96 937.232C1202.11 936.305 1203.4 935.591 1204.85 935.091C1206.3 934.576 1207.84 934.319 1209.46 934.319C1212.11 934.319 1214.48 934.951 1216.59 936.217C1218.7 937.482 1220.38 939.225 1221.62 941.447C1222.85 943.653 1223.46 946.184 1223.45 949.038C1223.46 952.01 1222.79 954.68 1221.42 957.049C1220.05 959.403 1218.15 961.256 1215.7 962.61C1213.26 963.963 1210.41 964.633 1207.16 964.618ZM1207.12 957.998C1208.72 957.998 1210.16 957.608 1211.42 956.828C1212.69 956.048 1213.69 954.996 1214.42 953.672C1215.16 952.348 1215.52 950.862 1215.51 949.215C1215.52 947.596 1215.17 946.132 1214.45 944.823C1213.74 943.514 1212.76 942.476 1211.51 941.711C1210.26 940.946 1208.83 940.564 1207.23 940.564C1206.04 940.564 1204.93 940.792 1203.9 941.248C1202.87 941.704 1201.97 942.337 1201.21 943.146C1200.44 943.94 1199.84 944.867 1199.4 945.926C1198.97 946.971 1198.75 948.089 1198.73 949.281C1198.75 950.855 1199.12 952.304 1199.84 953.628C1200.56 954.952 1201.55 956.011 1202.82 956.806C1204.08 957.6 1205.52 957.998 1207.12 957.998Z" fill="#FF6060"/>
<g filter="url(#filter0_d_194_23473)">
<path d="M976.064 1375.81C979.374 1383.75 976.193 1413.84 958.641 1420.82C941.088 1427.79 918.663 1420.82 918.663 1420.82L877.97 1339.43L807.641 1409.76V1092.12L1023.08 1307.57H942.814C946.754 1315.12 971.858 1365.72 976.064 1375.81Z" fill="white"/>
<path fill-rule="evenodd" clip-rule="evenodd" d="M826.516 1137.69V1364.19L883.141 1307.57L930.328 1401.94C930.328 1401.94 943.093 1406.02 949.203 1401.94C955.313 1397.87 961.39 1389.67 958.641 1383.07C945.661 1351.92 911.453 1288.69 911.453 1288.69H977.516L826.516 1137.69Z" fill="black"/>
</g>
</g>
<defs>
<filter id="filter0_d_194_23473" x="773.666" y="1077.02" width="283.391" height="399.743" filterUnits="userSpaceOnUse" color-interpolation-filters="sRGB">
<feFlood flood-opacity="0" result="BackgroundImageFix"/>
<feColorMatrix in="SourceAlpha" type="matrix" values="0 0 0 0 0 0 0 0 0 0 0 0 0 0 0 0 0 0 127 0" result="hardAlpha"/>
<feOffset dy="18.875"/>
<feGaussianBlur stdDeviation="16.9875"/>
<feColorMatrix type="matrix" values="0 0 0 0 0 0 0 0 0 0 0 0 0 0 0 0 0 0 0.65 0"/>
<feBlend mode="normal" in2="BackgroundImageFix" result="effect1_dropShadow_194_23473"/>
<feBlend mode="normal" in="SourceGraphic" in2="effect1_dropShadow_194_23473" result="shape"/>
</filter>
<clipPath id="clip0_194_23473">
<rect width="1920" height="1485" fill="white"/>
</clipPath>
</defs>
</svg>
