<svg width="48" height="48" viewBox="0 0 48 48" fill="none" xmlns="http://www.w3.org/2000/svg">
<g filter="url(#filter0_d_212_28915)">
<rect x="4.33789" y="4.125" width="39.325" height="39.75" rx="11.7" fill="#005797"/>
<rect x="4.82539" y="4.6125" width="38.35" height="38.775" rx="11.2125" stroke="white" stroke-width="0.975"/>
<path d="M24.0229 32.2285C20.7437 32.2285 18.0472 30.9031 18.0472 28.7665C18.0472 27.3383 19.0526 26.3328 20.4352 26.3328C21.0064 26.3328 21.5892 26.3899 22.1376 26.5271C22.8917 26.7099 23.6344 26.9384 23.9657 27.0755C24.1257 27.144 24.4228 27.3269 24.6855 27.3269C24.9826 27.3269 25.234 27.0869 25.234 26.7784C25.234 26.5499 25.1197 26.3671 24.8341 26.2186C24.4685 26.0243 23.4973 25.7044 22.5375 25.4416C22.1262 25.3273 21.5777 25.2474 20.1952 25.2474C19.2469 24.299 18.4471 22.9394 18.4471 20.9513C18.4471 18.0263 20.378 15.3184 24.2171 15.3184C27.8276 15.3184 29.8957 16.838 29.8957 18.6204C29.8957 20.0372 28.9131 20.9627 27.5306 20.9627C26.9593 20.9627 26.3766 20.9056 25.8281 20.7685C25.074 20.5856 24.3313 20.3571 24 20.22C23.8286 20.1515 23.543 19.9687 23.2802 19.9687C22.9831 19.9687 22.7317 20.2086 22.7317 20.5171C22.7317 20.7456 22.846 20.9284 23.1316 21.077C23.5315 21.2826 24.4799 21.5911 25.4282 21.8539C25.8396 21.9682 26.2052 22.0596 27.7591 22.0596C28.6731 22.8022 29.8271 24.4818 29.8271 26.5956C29.8271 29.5663 27.9762 32.2285 24.0229 32.2285Z" fill="white"/>
</g>
<defs>
<filter id="filter0_d_212_28915" x="4.33789" y="4.125" width="43.2242" height="43.65" filterUnits="userSpaceOnUse" color-interpolation-filters="sRGB">
<feFlood flood-opacity="0" result="BackgroundImageFix"/>
<feColorMatrix in="SourceAlpha" type="matrix" values="0 0 0 0 0 0 0 0 0 0 0 0 0 0 0 0 0 0 127 0" result="hardAlpha"/>
<feOffset dx="3.9" dy="3.9"/>
<feColorMatrix type="matrix" values="0 0 0 0 0.0352941 0 0 0 0 0.0431373 0 0 0 0 0.215686 0 0 0 1 0"/>
<feBlend mode="normal" in2="BackgroundImageFix" result="effect1_dropShadow_212_28915"/>
<feBlend mode="normal" in="SourceGraphic" in2="effect1_dropShadow_212_28915" result="shape"/>
</filter>
</defs>
</svg>
