<svg width="232" height="232" viewBox="0 0 232 232" fill="none" xmlns="http://www.w3.org/2000/svg">
<path d="M116.917 173.998C116.768 177.721 116.632 183.558 113.5 190C112.771 191.5 107.371 201.486 96.7817 208.071C81.8667 217.377 58.4502 218.236 43.2369 206.067C29.5151 195.043 28.3219 177.864 28.0236 171.565C27.427 161.829 29.5151 152.953 32.7964 139.925C36.6743 124.177 40.7014 116.447 36.2269 108.859C34.1388 105.28 32.3489 105.566 27.427 99.4101C21.9084 92.6814 18.9254 85.9527 17.7322 83.0894C12.6611 69.2026 20.5661 51.8798 28.6202 41.8583C43.2369 23.6765 65.9077 20.5269 83.6565 18.0932C99.3173 15.9457 129.147 11.794 147.344 28.2578C155.994 36.1318 163.004 49.446 163.899 51.0208C169.418 61.9012 167.926 64.335 173.147 72.6385C179.858 83.2326 184.929 83.0894 195.072 94.5425C199.546 99.5532 207.153 108.286 211.478 121.171C217.146 138.064 213.715 152.667 212.224 158.68C209.987 167.699 207.749 176.575 199.695 184.306C189.404 193.898 176.428 195.187 171.357 195.759C142.273 198.622 120.497 177.434 116.917 173.998Z" fill="#2C0B8E"/>
<path d="M37.8672 76.9337C40.5519 72.0661 44.579 66.0532 50.3958 60.1835C63.2227 47.1556 77.8394 41.7154 86.0427 39.4248C86.0427 45.1513 86.9376 54.0275 91.1138 63.7626C92.9036 68.0575 95.5883 74.4999 101.405 80.0833C113.188 91.5364 129.744 92.109 135.113 92.109C136.008 90.5342 138.096 87.3846 141.974 86.0962C148.686 83.9487 155.397 89.2458 158.53 93.2543C163.153 99.4104 164.197 109.432 158.231 116.017C153.309 121.458 146.299 121.887 144.659 121.887C139.14 133.197 137.35 142.789 136.754 149.088C136.306 153.383 135.859 158.251 137.052 164.407C138.991 175.287 144.36 183.018 147.94 187.17C146.448 188.744 143.764 191.035 139.737 192.61C132.876 195.33 126.611 194.042 124.374 193.469C120.944 188.172 117.513 182.875 114.232 177.578C110.951 178.866 106.178 180.441 100.212 181.014C97.3781 181.3 85.8935 182.302 73.5141 176.862C55.4669 168.845 48.3077 152.524 46.0704 147.37C44.1315 142.932 42.4909 137.778 40.4028 111.579C38.7621 97.2629 38.1655 85.2372 37.8672 76.9337Z" fill="white"/>
<path d="M123.032 173.283C123.032 173.283 122.585 173.712 121.69 174.428C121.242 174.714 120.646 175.144 119.9 175.573C119.154 176.003 118.409 176.432 117.364 177.005C113.636 179.009 107.67 181.3 99.9139 182.159C92.3073 183.161 82.6125 182.445 73.2161 178.437C63.8196 174.428 54.5723 167.27 48.7555 157.248C45.7725 152.238 43.8335 146.94 42.4912 141.787C41.1488 136.633 40.4031 131.479 39.9556 126.611C39.0607 116.876 38.7624 108.143 38.4641 100.842C38.1658 93.5405 37.8675 87.5276 37.8675 83.519C37.7183 79.3673 37.7184 77.2198 38.0167 77.0767C38.1658 77.0767 38.4641 79.3673 38.9116 83.3759C39.359 87.5276 39.8065 93.3973 40.4031 100.699C40.9997 108 41.4471 116.733 42.4912 126.325C43.6844 135.774 45.6233 146.368 51.291 155.96C56.8096 165.552 65.6094 172.424 74.5584 176.289C83.5074 180.298 92.7547 181.013 100.212 180.298C107.67 179.582 113.487 177.578 117.364 175.86C120.944 174.428 122.883 173.139 123.032 173.283Z" fill="#2C0B8E" stroke="#2C0B8E" stroke-width="0.5" stroke-miterlimit="10"/>
<path d="M124.078 193.612C123.63 194.041 120.2 191.178 117.515 186.597C114.83 182.015 114.084 177.72 114.681 177.577C115.278 177.434 117.067 181.156 119.603 185.451C122.139 189.889 124.525 193.182 124.078 193.612Z" fill="#2C0B8E" stroke="#2C0B8E" stroke-width="0.5" stroke-miterlimit="10"/>
<path d="M107.073 139.925C107.371 139.925 107.52 142.073 106.178 145.222C104.985 148.229 102.002 152.381 97.2291 154.814C92.4563 157.248 87.2361 157.391 83.9548 156.675C80.5243 155.96 78.7345 154.671 78.8836 154.385C79.0328 154.098 80.9717 154.671 84.1039 154.957C87.236 155.244 91.7105 154.814 96.0359 152.667C100.212 150.519 103.046 147.083 104.537 144.363C106.178 141.786 106.626 139.925 107.073 139.925Z" fill="#2C0B8E" stroke="#2C0B8E" stroke-width="0.5" stroke-miterlimit="10"/>
<path d="M83.0595 143.791C83.0595 143.934 82.1646 144.077 80.6731 144.077C79.1816 144.077 76.7952 144.077 74.1105 142.789C72.7682 142.073 71.4258 141.214 70.3818 139.639C69.9343 138.923 69.636 137.921 69.4869 137.062C69.3377 136.06 69.3377 135.201 69.4869 134.342C69.7852 130.906 70.3818 127.041 70.9784 123.032C73.6631 107.141 78.4359 94.8288 79.0325 94.9719C79.7782 95.1151 76.0495 107.713 73.3648 123.461C72.619 127.327 72.1716 131.192 71.7241 134.628C71.4258 136.346 71.5749 137.635 72.1715 138.78C72.7681 139.925 73.8122 140.784 74.8563 141.5C76.9444 142.789 79.1816 143.075 80.6731 143.218C82.3138 143.361 83.0595 143.504 83.0595 143.791Z" fill="#2C0B8E" stroke="#2C0B8E" stroke-width="0.5" stroke-miterlimit="10"/>
<path d="M61.7293 122.603C61.1327 122.889 59.0446 119.74 57.404 115.445C55.7633 111.15 55.3159 107.571 55.9125 107.284C56.5091 107.141 58.0006 110.434 59.6412 114.586C61.2819 118.881 62.3259 122.316 61.7293 122.603Z" fill="#2C0B8E" stroke="#2C0B8E" stroke-width="0.5" stroke-miterlimit="10"/>
<path d="M99.4656 119.739C98.869 120.169 96.4826 117.735 94.8419 114.013C93.2013 110.29 93.0521 106.998 93.6487 106.855C94.3945 106.711 95.4385 109.718 97.0792 113.154C98.5707 116.446 100.062 119.31 99.4656 119.739Z" fill="#2C0B8E" stroke="#2C0B8E" stroke-width="0.5" stroke-miterlimit="10"/>
<path d="M65.6101 91.9657C65.3118 92.1088 64.2677 91.1067 62.6271 89.6751C60.9864 88.2434 58.6 86.2391 55.4679 85.237C52.4849 84.378 49.3527 85.0938 47.5629 86.096C45.7731 87.0981 45.0274 88.3866 44.7291 88.2434C44.5799 88.2434 44.5799 87.8139 44.7291 87.0981C44.8782 86.3823 45.4748 85.5233 46.5189 84.6643C48.4578 82.9464 52.1866 81.8011 56.0645 82.9464C59.9424 84.0917 62.3288 86.6686 63.8203 88.5297C65.4609 90.534 65.9084 91.8225 65.6101 91.9657Z" fill="#2C0B8E" stroke="#2C0B8E" stroke-width="0.5" stroke-miterlimit="10"/>
<path d="M110.801 94.8289C110.503 95.4016 105.879 93.3973 99.9129 92.9678C93.9469 92.3952 89.0249 93.5405 88.8758 92.8246C88.7266 92.5383 89.9198 91.8225 92.0079 91.2498C94.096 90.6772 96.9299 90.2477 100.211 90.534C103.493 90.8203 106.326 91.6793 108.116 92.6815C110.055 93.6836 110.95 94.5426 110.801 94.8289Z" fill="#2C0B8E" stroke="#2C0B8E" stroke-width="0.5" stroke-miterlimit="10"/>
<path d="M144.656 122.03C144.656 121.887 145.7 121.887 147.489 121.743C149.13 121.457 151.666 120.741 154.052 119.023C156.438 117.305 158.676 114.299 159.571 110.434C160.465 106.711 160.465 102.13 158.974 97.8351C157.482 93.5402 154.798 89.9611 151.218 88.1C147.788 86.2389 143.91 86.382 140.927 87.241C137.944 88.1 136.005 89.6748 134.662 90.8201C133.469 91.9654 132.873 92.8244 132.724 92.8244C132.574 92.8244 132.873 91.8222 133.917 90.2474C134.961 88.8158 137.049 86.8115 140.33 85.6662C141.971 85.0935 143.761 84.6641 145.849 84.6641C147.937 84.6641 150.174 85.0936 152.262 86.0957C156.438 88.1 159.72 92.2517 161.211 96.9761C162.852 101.701 162.852 106.568 161.659 110.863C161.062 113.01 160.167 114.872 158.974 116.446C157.781 118.021 156.438 119.31 154.947 120.169C152.113 122.03 149.279 122.602 147.34 122.459C145.55 122.602 144.506 122.173 144.656 122.03Z" fill="#2C0B8E" stroke="#2C0B8E" stroke-width="0.5" stroke-miterlimit="10"/>
<path d="M156.741 191.035C156.741 191.178 155.548 191.321 153.46 190.748C151.372 190.319 148.538 189.03 145.704 186.597C142.87 184.163 140.335 180.298 138.545 175.859C136.755 171.278 135.86 166.124 135.413 160.684C134.965 155.244 135.413 149.947 136.159 145.222C137.054 140.498 138.247 136.489 139.738 133.054C142.423 126.325 145.257 122.746 145.555 122.889C145.853 123.032 143.616 126.897 141.379 133.626C140.186 136.919 139.142 140.928 138.396 145.509C137.65 150.09 137.501 155.101 137.799 160.398C138.247 165.695 139.142 170.706 140.633 175C142.125 179.295 144.362 182.874 146.897 185.308C149.433 187.742 151.969 189.174 153.758 189.889C155.548 190.748 156.741 190.892 156.741 191.035Z" fill="#2C0B8E" stroke="#2C0B8E" stroke-width="0.5" stroke-miterlimit="10"/>
<path d="M86.6393 39.5678C86.7885 39.9972 83.0597 40.9994 77.5412 43.29C76.1988 43.8627 74.7073 44.5785 73.0667 45.2943C71.426 46.0101 69.7854 47.0123 68.1447 48.0144C64.7143 50.0187 61.1347 52.4525 57.5551 55.3158C54.1246 58.179 50.9925 61.1854 48.3078 64.0487C47.1146 65.4804 45.7722 66.912 44.7282 68.3436C43.6841 69.6321 42.6401 71.0638 41.8943 72.2091C38.613 77.0766 36.9724 80.3694 36.5249 80.2262C36.2266 80.0831 37.4198 76.504 40.4028 71.3501C41.1486 70.0616 42.0435 68.63 43.0875 67.1983C44.1316 65.7667 45.3248 64.1919 46.518 62.6171C49.2027 59.6106 52.1857 56.3179 55.9144 53.4546C59.494 50.4482 63.3719 48.0144 66.9515 46.1533C68.7413 45.1511 70.5311 44.2921 72.1718 43.5763C73.8124 42.8605 75.4531 42.2879 76.9446 41.7152C82.7614 39.8541 86.4902 39.2814 86.6393 39.5678Z" fill="#2C0B8E" stroke="#2C0B8E" stroke-width="0.5" stroke-miterlimit="10"/>
<path d="M134.813 92.2516C134.813 92.3948 133.769 92.8242 131.681 93.1106C129.593 93.3969 126.46 93.5401 122.583 92.9674C118.705 92.3948 114.379 90.9631 109.905 88.3862C105.43 85.9524 101.105 82.3733 97.5253 77.7921C93.9457 73.2108 91.4102 68.3433 89.7695 63.762C88.1289 59.1808 87.0848 54.8859 86.4882 51.3068C85.4442 44.0055 85.5933 39.5674 85.8916 39.5674C86.3391 39.5674 86.6374 44.0055 88.1289 51.0205C88.8746 54.4564 90.0678 58.6081 91.7085 63.0462C93.4983 67.4843 95.8847 72.0655 99.3151 76.3604C102.746 80.6553 106.773 84.0913 110.949 86.5251C115.125 88.9588 119.918 89.2838 123.498 89.9996C130.956 91.5744 135.498 90.9996 134.813 92.2516Z" fill="#2C0B8E" stroke="#2C0B8E" stroke-width="0.5" stroke-miterlimit="10"/>
<path d="M181.2 193.039C181.051 192.752 186.57 191.035 194.326 184.449C198.054 181.156 202.23 176.575 205.959 170.562C207.749 167.556 209.39 164.12 210.732 160.398C212.074 156.675 213.118 152.524 213.566 148.229C214.61 139.496 213.566 129.76 209.986 120.025C206.407 110.29 200.142 100.698 191.641 92.6811C187.315 88.6725 182.394 84.9503 177.919 80.3691C173.295 75.7878 170.014 70.0613 167.628 64.0484C165.092 58.0355 163.153 51.8795 160.468 45.8666C157.784 39.9969 154.055 34.4135 148.536 30.405C143.167 26.2532 136.754 23.6763 130.34 21.9583C127.059 21.0993 123.778 20.5267 120.496 19.954C117.215 19.5245 113.934 19.2382 110.652 18.9519C97.5271 18.0929 84.7002 18.3792 72.7682 20.5267C60.8362 22.531 49.9483 26.6827 41.1484 32.5524C36.6739 35.4157 32.796 38.8516 29.5147 42.4307C26.2334 46.0098 23.6979 49.8752 21.7589 53.8838C17.881 61.7578 16.837 69.9181 17.4336 76.79C18.1793 83.6618 20.4166 89.3884 23.2504 93.5401C25.9351 97.6918 28.9181 100.269 31.0062 102.13C33.0943 103.848 34.1383 104.707 34.1383 104.707C34.1383 104.707 33.8401 104.564 33.2435 104.277C32.6469 103.848 31.752 103.418 30.7079 102.559C28.6198 100.985 25.4877 98.4077 22.5047 94.1128C19.5217 89.961 16.9861 84.0913 16.2403 76.9331C15.4946 69.7749 16.3895 61.4715 20.2674 53.168C22.2064 49.0162 24.891 45.0076 28.1723 41.2854C31.4536 37.5631 35.4807 34.1272 39.9552 31.1208C48.9042 24.9647 60.0905 20.6698 72.3208 18.5224C84.4019 16.3749 97.5272 16.0886 110.802 16.8044C114.083 17.0907 117.513 17.3771 120.944 17.8066C124.374 18.236 127.655 18.9519 131.086 19.8108C137.798 21.5288 144.509 24.2489 150.177 28.687C153.011 30.8344 155.547 33.4114 157.635 36.1315C159.723 38.9948 161.363 42.0012 162.855 45.0076C165.689 51.1637 167.628 57.4629 170.014 63.3326C172.4 69.2023 175.533 74.6425 179.858 78.9374C184.183 83.3755 189.105 87.0977 193.431 91.2495C202.23 99.6961 208.495 109.574 212.074 119.453C215.803 129.474 216.698 139.496 215.505 148.372C214.908 152.81 213.864 156.962 212.373 160.827C210.881 164.692 209.091 167.985 207.302 171.135C203.424 177.291 199.098 181.872 195.071 185.022C191.044 188.314 187.614 190.176 185.078 191.464C183.885 192.037 182.841 192.466 182.244 192.609C181.648 192.896 181.349 193.039 181.2 193.039Z" fill="#2C0B8E" stroke="#2C0B8E" stroke-width="0.5" stroke-miterlimit="10"/>
<path d="M112.891 190.033C113.04 190.033 112.742 190.748 112.295 191.894C111.847 193.039 110.952 194.757 109.61 196.761C106.925 200.77 102.152 206.21 94.2475 210.505C90.3696 212.652 85.7459 214.37 80.5256 215.229C75.3054 216.231 69.6377 216.231 63.8209 215.373C58.004 214.37 52.038 212.509 46.3703 209.36C40.8517 206.21 35.4823 202.058 31.9027 196.189C28.3231 190.319 27.1299 183.733 26.9808 177.72C26.6825 171.564 27.2791 165.695 28.0249 160.111C29.6655 148.945 32.2011 139.209 33.9909 131.049C34.8858 126.897 35.7807 123.175 36.2281 119.882C36.6756 116.59 36.8247 113.726 36.5264 111.436C35.9298 106.854 33.8417 104.707 34.14 104.707C34.14 104.707 34.7366 105.137 35.4824 106.139C36.2281 107.141 36.9739 108.859 37.5705 111.293C38.0179 113.726 38.1671 116.59 37.7196 120.026C37.2722 123.461 36.5264 127.184 35.7806 131.335C34.14 139.639 31.7536 149.374 30.2621 160.398C29.5164 165.838 29.0689 171.708 29.3672 177.577C29.6655 183.447 30.8587 189.746 34.14 195.043C37.4213 200.34 42.4924 204.492 47.7126 207.355C53.082 210.362 58.7497 212.223 64.2683 213.225C69.936 214.227 75.3054 214.084 80.3765 213.368C85.2984 212.509 89.773 210.934 93.6509 209.073C101.258 205.208 106.179 200.054 109.013 196.332C111.698 192.466 112.742 190.033 112.891 190.033Z" fill="#2C0B8E" stroke="#2C0B8E" stroke-width="0.5" stroke-miterlimit="10"/>
<path d="M145.497 189.395C145.646 189.682 144.751 190.684 143.11 191.972C141.47 193.261 138.934 194.979 135.653 195.981C132.371 196.983 129.09 196.697 127.002 195.981C124.914 195.122 122.592 192.865 122.741 192.579C122.89 192.292 124.741 193.579 127.449 194.406C129.388 194.693 132.073 194.693 134.907 193.834C137.741 192.975 140.276 191.686 142.066 190.684C144.005 189.539 145.347 189.109 145.497 189.395Z" fill="#2C0B8E" stroke="#2C0B8E" stroke-width="0.5" stroke-miterlimit="10"/>
</svg>
