<svg width="61" height="60" viewBox="0 0 61 60" fill="none" xmlns="http://www.w3.org/2000/svg">
<g filter="url(#filter0_d_212_28915)">
<rect x="10" y="10" width="40.325" height="39.75" rx="11.7" fill="#005797"/>
<rect x="10.4875" y="10.4875" width="39.35" height="38.775" rx="11.2125" stroke="white" stroke-width="0.975"/>
<path d="M30.1192 38.1558C29.1208 38.1558 28.1224 37.9686 27.124 37.5942C26.1412 37.2198 25.2598 36.6738 24.4798 35.9562L26.4454 33.5928C26.9914 34.0608 27.5998 34.443 28.2706 34.7394C28.9414 35.0358 29.5888 35.184 30.2128 35.184C30.9304 35.184 31.4608 35.0514 31.804 34.7862C32.1628 34.521 32.3422 34.1622 32.3422 33.7098C32.3422 33.2262 32.1394 32.8752 31.7338 32.6568C31.3438 32.4228 30.8134 32.1654 30.1426 31.8846L28.1536 31.0422C27.6388 30.8238 27.1474 30.5352 26.6794 30.1764C26.2114 29.802 25.8292 29.3418 25.5328 28.7958C25.2364 28.2498 25.0882 27.6102 25.0882 26.877C25.0882 26.0346 25.3144 25.2702 25.7668 24.5838C26.2348 23.8974 26.8744 23.3514 27.6856 22.9458C28.5124 22.5402 29.4562 22.3374 30.517 22.3374C31.3906 22.3374 32.2642 22.509 33.1378 22.8522C34.0114 23.1954 34.7758 23.6946 35.431 24.3498L33.676 26.526C33.1768 26.136 32.6776 25.8396 32.1784 25.6368C31.6792 25.4184 31.1254 25.3092 30.517 25.3092C29.9242 25.3092 29.4484 25.434 29.0896 25.6836C28.7464 25.9176 28.5748 26.253 28.5748 26.6898C28.5748 27.1578 28.7932 27.5088 29.23 27.7428C29.6824 27.9768 30.2362 28.2264 30.8914 28.4916L32.857 29.2872C33.7774 29.6616 34.5106 30.1764 35.0566 30.8316C35.6026 31.4868 35.8756 32.3526 35.8756 33.429C35.8756 34.2714 35.6494 35.0514 35.197 35.769C34.7446 36.4866 34.0894 37.0638 33.2314 37.5006C32.3734 37.9374 31.336 38.1558 30.1192 38.1558Z" fill="white"/>
</g>
<defs>
<filter id="filter0_d_212_28915" x="10" y="10" width="44.2242" height="43.65" filterUnits="userSpaceOnUse" color-interpolation-filters="sRGB">
<feFlood flood-opacity="0" result="BackgroundImageFix"/>
<feColorMatrix in="SourceAlpha" type="matrix" values="0 0 0 0 0 0 0 0 0 0 0 0 0 0 0 0 0 0 127 0" result="hardAlpha"/>
<feOffset dx="3.9" dy="3.9"/>
<feColorMatrix type="matrix" values="0 0 0 0 0.0352941 0 0 0 0 0.0431373 0 0 0 0 0.215686 0 0 0 1 0"/>
<feBlend mode="normal" in2="BackgroundImageFix" result="effect1_dropShadow_212_28915"/>
<feBlend mode="normal" in="SourceGraphic" in2="effect1_dropShadow_212_28915" result="shape"/>
</filter>
</defs>
</svg>
