<svg width="1920" height="1080" viewBox="0 0 1920 1080" fill="none" xmlns="http://www.w3.org/2000/svg">
<rect width="1920" height="1080" fill="#D9E7FE"/>
<rect x="340" y="80" width="1239" height="919.748" rx="22.8037" fill="white"/>
<path d="M438.081 178.721C437.817 176.246 436.702 174.318 434.737 172.939C432.79 171.56 430.259 170.87 427.141 170.87C424.949 170.87 423.069 171.201 421.501 171.862C419.932 172.523 418.733 173.421 417.901 174.555C417.07 175.688 416.645 176.983 416.626 178.438C416.626 179.647 416.9 180.696 417.448 181.584C418.015 182.472 418.78 183.227 419.743 183.851C420.707 184.456 421.775 184.966 422.946 185.382C424.118 185.797 425.299 186.147 426.489 186.43L431.931 187.791C434.123 188.301 436.229 188.99 438.251 189.86C440.292 190.729 442.115 191.825 443.721 193.147C445.346 194.47 446.631 196.067 447.576 197.937C448.521 199.808 448.993 202 448.993 204.513C448.993 207.914 448.124 210.909 446.386 213.497C444.647 216.067 442.134 218.079 438.846 219.534C435.578 220.97 431.619 221.688 426.971 221.688C422.455 221.688 418.534 220.989 415.209 219.591C411.902 218.193 409.313 216.152 407.443 213.469C405.591 210.786 404.59 207.517 404.438 203.663H414.783C414.935 205.684 415.558 207.366 416.654 208.708C417.75 210.049 419.177 211.05 420.934 211.712C422.71 212.373 424.694 212.704 426.886 212.704C429.172 212.704 431.175 212.364 432.894 211.683C434.633 210.984 435.993 210.021 436.976 208.793C437.958 207.545 438.459 206.091 438.478 204.428C438.459 202.916 438.015 201.669 437.146 200.687C436.277 199.685 435.058 198.854 433.49 198.192C431.94 197.512 430.126 196.908 428.048 196.378L421.444 194.678C416.664 193.45 412.885 191.589 410.107 189.094C407.348 186.581 405.969 183.246 405.969 179.089C405.969 175.669 406.895 172.675 408.746 170.105C410.617 167.535 413.158 165.542 416.371 164.125C419.583 162.688 423.22 161.97 427.283 161.97C431.402 161.97 435.011 162.688 438.109 164.125C441.227 165.542 443.674 167.516 445.45 170.048C447.226 172.561 448.143 175.452 448.199 178.721H438.081ZM457.154 220.81V177.276H467.414V220.81H457.154ZM462.312 171.097C460.687 171.097 459.289 170.558 458.117 169.481C456.946 168.385 456.36 167.072 456.36 165.542C456.36 163.992 456.946 162.679 458.117 161.602C459.289 160.506 460.687 159.958 462.312 159.958C463.956 159.958 465.354 160.506 466.507 161.602C467.678 162.679 468.264 163.992 468.264 165.542C468.264 167.072 467.678 168.385 466.507 169.481C465.354 170.558 463.956 171.097 462.312 171.097ZM496.137 238.042C492.453 238.042 489.288 237.541 486.642 236.54C483.997 235.557 481.871 234.235 480.265 232.572C478.659 230.909 477.544 229.067 476.921 227.045L486.161 224.806C486.576 225.656 487.181 226.497 487.974 227.329C488.768 228.179 489.836 228.878 491.177 229.426C492.538 229.993 494.248 230.276 496.307 230.276C499.217 230.276 501.626 229.568 503.535 228.151C505.443 226.752 506.397 224.447 506.397 221.235V212.987H505.887C505.358 214.045 504.583 215.132 503.563 216.247C502.561 217.361 501.229 218.297 499.567 219.053C497.923 219.808 495.854 220.186 493.36 220.186C490.015 220.186 486.982 219.402 484.262 217.834C481.56 216.247 479.406 213.885 477.799 210.748C476.212 207.593 475.419 203.644 475.419 198.901C475.419 194.12 476.212 190.086 477.799 186.799C479.406 183.492 481.569 180.988 484.29 179.288C487.011 177.568 490.043 176.709 493.388 176.709C495.939 176.709 498.036 177.143 499.68 178.012C501.343 178.863 502.665 179.892 503.648 181.102C504.63 182.292 505.377 183.416 505.887 184.475H506.454V177.276H516.572V221.518C516.572 225.241 515.684 228.321 513.908 230.758C512.132 233.196 509.704 235.019 506.624 236.228C503.544 237.437 500.048 238.042 496.137 238.042ZM496.222 212.137C498.395 212.137 500.247 211.608 501.777 210.55C503.308 209.492 504.47 207.971 505.263 205.987C506.057 204.003 506.454 201.622 506.454 198.844C506.454 196.104 506.057 193.705 505.263 191.645C504.489 189.586 503.336 187.989 501.806 186.855C500.294 185.703 498.433 185.126 496.222 185.126C493.936 185.126 492.027 185.722 490.497 186.912C488.966 188.102 487.814 189.737 487.039 191.815C486.264 193.875 485.877 196.218 485.877 198.844C485.877 201.508 486.264 203.842 487.039 205.845C487.833 207.829 488.995 209.378 490.525 210.493C492.075 211.589 493.974 212.137 496.222 212.137ZM536.587 195.301V220.81H526.327V177.276H536.134V184.673H536.644C537.645 182.235 539.242 180.299 541.434 178.863C543.645 177.427 546.375 176.709 549.625 176.709C552.629 176.709 555.246 177.351 557.476 178.636C559.724 179.921 561.463 181.782 562.691 184.219C563.938 186.657 564.552 189.614 564.533 193.091V220.81H554.273V194.678C554.273 191.768 553.517 189.491 552.006 187.847C550.513 186.203 548.444 185.382 545.799 185.382C544.004 185.382 542.407 185.778 541.009 186.572C539.629 187.347 538.543 188.471 537.749 189.945C536.975 191.418 536.587 193.204 536.587 195.301ZM593.24 220.81V177.276H603.5V220.81H593.24ZM598.399 171.097C596.774 171.097 595.375 170.558 594.204 169.481C593.032 168.385 592.447 167.072 592.447 165.542C592.447 163.992 593.032 162.679 594.204 161.602C595.375 160.506 596.774 159.958 598.399 159.958C600.042 159.958 601.441 160.506 602.593 161.602C603.765 162.679 604.351 163.992 604.351 165.542C604.351 167.072 603.765 168.385 602.593 169.481C601.441 170.558 600.042 171.097 598.399 171.097ZM623.551 195.301V220.81H613.291V177.276H623.097V184.673H623.607C624.609 182.235 626.205 180.299 628.397 178.863C630.608 177.427 633.338 176.709 636.588 176.709C639.593 176.709 642.21 177.351 644.439 178.636C646.688 179.921 648.426 181.782 649.654 184.219C650.901 186.657 651.515 189.614 651.497 193.091V220.81H641.237V194.678C641.237 191.768 640.481 189.491 638.969 187.847C637.476 186.203 635.407 185.382 632.762 185.382C630.967 185.382 629.37 185.778 627.972 186.572C626.593 187.347 625.506 188.471 624.713 189.945C623.938 191.418 623.551 193.204 623.551 195.301Z" fill="#0B5CD5"/>
<path d="M410.312 325.417H403.488V303.305H410.614C412.759 303.305 414.595 303.747 416.121 304.633C417.647 305.511 418.817 306.774 419.63 308.422C420.443 310.064 420.85 312.029 420.85 314.318C420.85 316.621 420.44 318.604 419.619 320.267C418.799 321.922 417.604 323.197 416.035 324.089C414.465 324.974 412.558 325.417 410.312 325.417ZM406.166 323.042H410.139C411.968 323.042 413.483 322.689 414.685 321.984C415.887 321.278 416.783 320.274 417.373 318.971C417.964 317.668 418.259 316.117 418.259 314.318C418.259 312.533 417.967 310.996 417.384 309.707C416.801 308.412 415.93 307.418 414.771 306.727C413.612 306.029 412.169 305.68 410.442 305.68H406.166V323.042ZM431.734 325.763C430.237 325.763 428.923 325.406 427.793 324.694C426.67 323.981 425.792 322.984 425.158 321.703C424.532 320.422 424.219 318.924 424.219 317.211C424.219 315.484 424.532 313.976 425.158 312.687C425.792 311.399 426.67 310.398 427.793 309.686C428.923 308.973 430.237 308.617 431.734 308.617C433.231 308.617 434.541 308.973 435.664 309.686C436.794 310.398 437.672 311.399 438.298 312.687C438.932 313.976 439.249 315.484 439.249 317.211C439.249 318.924 438.932 320.422 438.298 321.703C437.672 322.984 436.794 323.981 435.664 324.694C434.541 325.406 433.231 325.763 431.734 325.763ZM431.734 323.474C432.871 323.474 433.807 323.182 434.541 322.599C435.275 322.016 435.819 321.249 436.171 320.299C436.524 319.349 436.7 318.32 436.7 317.211C436.7 316.103 436.524 315.07 436.171 314.113C435.819 313.155 435.275 312.381 434.541 311.791C433.807 311.201 432.871 310.906 431.734 310.906C430.596 310.906 429.661 311.201 428.926 311.791C428.192 312.381 427.649 313.155 427.296 314.113C426.943 315.07 426.767 316.103 426.767 317.211C426.767 318.32 426.943 319.349 427.296 320.299C427.649 321.249 428.192 322.016 428.926 322.599C429.661 323.182 430.596 323.474 431.734 323.474ZM445.686 315.441V325.417H443.138V308.833H445.6V311.424H445.816C446.205 310.582 446.795 309.905 447.587 309.394C448.378 308.876 449.401 308.617 450.653 308.617C451.776 308.617 452.759 308.847 453.601 309.308C454.443 309.761 455.098 310.452 455.566 311.381C456.034 312.302 456.268 313.468 456.268 314.879V325.417H453.72V315.052C453.72 313.749 453.381 312.734 452.705 312.007C452.028 311.273 451.099 310.906 449.919 310.906C449.106 310.906 448.378 311.082 447.738 311.435C447.104 311.788 446.604 312.302 446.237 312.979C445.87 313.655 445.686 314.476 445.686 315.441ZM463.17 303.305V305.248C463.17 305.838 463.062 306.468 462.846 307.138C462.637 307.8 462.328 308.444 461.917 309.07C461.514 309.689 461.025 310.229 460.449 310.69L459.067 309.567C459.52 308.919 459.913 308.246 460.244 307.548C460.582 306.842 460.751 306.09 460.751 305.291V303.305H463.17ZM474.194 308.833V310.992H465.599V308.833H474.194ZM468.104 304.859H470.652V320.666C470.652 321.386 470.757 321.926 470.965 322.286C471.181 322.639 471.455 322.876 471.786 322.999C472.124 323.114 472.481 323.171 472.855 323.171C473.136 323.171 473.366 323.157 473.546 323.128C473.726 323.092 473.87 323.063 473.978 323.042L474.496 325.331C474.323 325.396 474.082 325.46 473.773 325.525C473.463 325.597 473.071 325.633 472.596 325.633C471.876 325.633 471.17 325.478 470.479 325.169C469.796 324.859 469.227 324.388 468.774 323.754C468.327 323.121 468.104 322.322 468.104 321.357V304.859ZM489.126 315.441V325.417H486.578V303.305H489.126V311.424H489.342C489.731 310.567 490.314 309.887 491.091 309.383C491.876 308.872 492.92 308.617 494.222 308.617C495.353 308.617 496.342 308.843 497.192 309.297C498.041 309.743 498.7 310.431 499.168 311.359C499.643 312.281 499.88 313.454 499.88 314.879V325.417H497.332V315.052C497.332 313.735 496.99 312.716 496.306 311.996C495.63 311.269 494.69 310.906 493.488 310.906C492.653 310.906 491.905 311.082 491.242 311.435C490.587 311.788 490.069 312.302 489.688 312.979C489.313 313.655 489.126 314.476 489.126 315.441ZM509.422 325.806C508.371 325.806 507.418 325.608 506.561 325.212C505.704 324.809 505.024 324.229 504.52 323.474C504.016 322.711 503.765 321.789 503.765 320.71C503.765 319.759 503.952 318.989 504.326 318.399C504.7 317.802 505.201 317.334 505.827 316.995C506.453 316.657 507.144 316.405 507.9 316.24C508.663 316.067 509.429 315.93 510.2 315.829C511.207 315.7 512.024 315.603 512.651 315.538C513.284 315.466 513.745 315.347 514.033 315.181C514.328 315.016 514.475 314.728 514.475 314.318V314.231C514.475 313.166 514.184 312.338 513.601 311.748C513.025 311.158 512.15 310.863 510.977 310.863C509.761 310.863 508.807 311.129 508.116 311.662C507.425 312.194 506.939 312.763 506.658 313.368L504.24 312.504C504.671 311.496 505.247 310.711 505.967 310.15C506.694 309.581 507.486 309.185 508.343 308.962C509.206 308.732 510.056 308.617 510.891 308.617C511.423 308.617 512.035 308.682 512.726 308.811C513.424 308.933 514.097 309.189 514.745 309.578C515.4 309.966 515.944 310.553 516.376 311.338C516.808 312.122 517.023 313.173 517.023 314.49V325.417H514.475V323.171H514.346C514.173 323.531 513.885 323.916 513.482 324.327C513.079 324.737 512.543 325.086 511.873 325.374C511.204 325.662 510.387 325.806 509.422 325.806ZM509.811 323.517C510.819 323.517 511.668 323.319 512.359 322.923C513.057 322.527 513.583 322.016 513.935 321.39C514.295 320.764 514.475 320.105 514.475 319.414V317.082C514.367 317.211 514.13 317.33 513.763 317.438C513.403 317.539 512.985 317.629 512.51 317.708C512.042 317.78 511.585 317.845 511.139 317.902C510.7 317.953 510.344 317.996 510.07 318.032C509.408 318.118 508.789 318.259 508.213 318.453C507.644 318.64 507.184 318.924 506.831 319.306C506.485 319.68 506.313 320.191 506.313 320.839C506.313 321.725 506.64 322.394 507.295 322.847C507.957 323.294 508.796 323.517 509.811 323.517ZM534.642 308.833L528.509 325.417H525.918L519.785 308.833H522.549L527.127 322.048H527.3L531.878 308.833H534.642ZM544.365 325.763C542.767 325.763 541.388 325.41 540.229 324.705C539.078 323.992 538.189 322.999 537.562 321.725C536.943 320.443 536.634 318.953 536.634 317.254C536.634 315.556 536.943 314.059 537.562 312.763C538.189 311.46 539.06 310.445 540.175 309.718C541.298 308.984 542.608 308.617 544.106 308.617C544.969 308.617 545.822 308.761 546.664 309.049C547.507 309.337 548.273 309.804 548.964 310.452C549.655 311.093 550.206 311.942 550.616 313C551.027 314.059 551.232 315.361 551.232 316.909V317.989H538.448V315.786H548.64C548.64 314.85 548.453 314.015 548.079 313.281C547.712 312.547 547.186 311.967 546.503 311.543C545.826 311.118 545.027 310.906 544.106 310.906C543.091 310.906 542.212 311.158 541.471 311.662C540.737 312.158 540.172 312.806 539.776 313.605C539.38 314.404 539.182 315.261 539.182 316.175V317.643C539.182 318.896 539.398 319.957 539.83 320.828C540.269 321.692 540.877 322.351 541.655 322.804C542.432 323.251 543.335 323.474 544.365 323.474C545.034 323.474 545.639 323.38 546.179 323.193C546.726 322.999 547.197 322.711 547.593 322.329C547.989 321.94 548.295 321.458 548.511 320.882L550.973 321.573C550.713 322.408 550.278 323.143 549.666 323.776C549.054 324.402 548.298 324.892 547.399 325.244C546.499 325.59 545.488 325.763 544.365 325.763ZM568.54 325.806C567.489 325.806 566.535 325.608 565.678 325.212C564.822 324.809 564.142 324.229 563.638 323.474C563.134 322.711 562.882 321.789 562.882 320.71C562.882 319.759 563.069 318.989 563.443 318.399C563.818 317.802 564.318 317.334 564.944 316.995C565.57 316.657 566.261 316.405 567.017 316.24C567.78 316.067 568.547 315.93 569.317 315.829C570.325 315.7 571.142 315.603 571.768 315.538C572.401 315.466 572.862 315.347 573.15 315.181C573.445 315.016 573.593 314.728 573.593 314.318V314.231C573.593 313.166 573.301 312.338 572.718 311.748C572.142 311.158 571.268 310.863 570.094 310.863C568.878 310.863 567.924 311.129 567.233 311.662C566.542 312.194 566.056 312.763 565.776 313.368L563.357 312.504C563.789 311.496 564.365 310.711 565.084 310.15C565.812 309.581 566.603 309.185 567.46 308.962C568.324 308.732 569.173 308.617 570.008 308.617C570.541 308.617 571.153 308.682 571.844 308.811C572.542 308.933 573.215 309.189 573.863 309.578C574.518 309.966 575.061 310.553 575.493 311.338C575.925 312.122 576.141 313.173 576.141 314.49V325.417H573.593V323.171H573.463C573.29 323.531 573.002 323.916 572.599 324.327C572.196 324.737 571.66 325.086 570.991 325.374C570.321 325.662 569.504 325.806 568.54 325.806ZM568.928 323.517C569.936 323.517 570.785 323.319 571.476 322.923C572.175 322.527 572.7 322.016 573.053 321.39C573.413 320.764 573.593 320.105 573.593 319.414V317.082C573.485 317.211 573.247 317.33 572.88 317.438C572.52 317.539 572.103 317.629 571.628 317.708C571.16 317.78 570.703 317.845 570.256 317.902C569.817 317.953 569.461 317.996 569.187 318.032C568.525 318.118 567.906 318.259 567.33 318.453C566.762 318.64 566.301 318.924 565.948 319.306C565.603 319.68 565.43 320.191 565.43 320.839C565.43 321.725 565.758 322.394 566.413 322.847C567.075 323.294 567.913 323.517 568.928 323.517ZM583.34 315.441V325.417H580.792V308.833H583.253V311.424H583.469C583.858 310.582 584.448 309.905 585.24 309.394C586.032 308.876 587.054 308.617 588.307 308.617C589.429 308.617 590.412 308.847 591.254 309.308C592.096 309.761 592.751 310.452 593.219 311.381C593.687 312.302 593.921 313.468 593.921 314.879V325.417H591.373V315.052C591.373 313.749 591.035 312.734 590.358 312.007C589.681 311.273 588.753 310.906 587.572 310.906C586.759 310.906 586.032 311.082 585.391 311.435C584.758 311.788 584.258 312.302 583.891 312.979C583.523 313.655 583.34 314.476 583.34 315.441ZM612.009 325.806C610.958 325.806 610.004 325.608 609.148 325.212C608.291 324.809 607.611 324.229 607.107 323.474C606.603 322.711 606.351 321.789 606.351 320.71C606.351 319.759 606.539 318.989 606.913 318.399C607.287 317.802 607.787 317.334 608.414 316.995C609.04 316.657 609.731 316.405 610.487 316.24C611.25 316.067 612.016 315.93 612.787 315.829C613.794 315.7 614.611 315.603 615.237 315.538C615.871 315.466 616.332 315.347 616.62 315.181C616.915 315.016 617.062 314.728 617.062 314.318V314.231C617.062 313.166 616.771 312.338 616.188 311.748C615.612 311.158 614.737 310.863 613.564 310.863C612.347 310.863 611.394 311.129 610.703 311.662C610.012 312.194 609.526 312.763 609.245 313.368L606.826 312.504C607.258 311.496 607.834 310.711 608.554 310.15C609.281 309.581 610.073 309.185 610.929 308.962C611.793 308.732 612.643 308.617 613.478 308.617C614.01 308.617 614.622 308.682 615.313 308.811C616.011 308.933 616.684 309.189 617.332 309.578C617.987 309.966 618.531 310.553 618.963 311.338C619.394 312.122 619.61 313.173 619.61 314.49V325.417H617.062V323.171H616.933C616.76 323.531 616.472 323.916 616.069 324.327C615.666 324.737 615.13 325.086 614.46 325.374C613.791 325.662 612.974 325.806 612.009 325.806ZM612.398 323.517C613.406 323.517 614.255 323.319 614.946 322.923C615.644 322.527 616.17 322.016 616.522 321.39C616.882 320.764 617.062 320.105 617.062 319.414V317.082C616.954 317.211 616.717 317.33 616.35 317.438C615.99 317.539 615.572 317.629 615.097 317.708C614.629 317.78 614.172 317.845 613.726 317.902C613.287 317.953 612.93 317.996 612.657 318.032C611.995 318.118 611.376 318.259 610.8 318.453C610.231 318.64 609.77 318.924 609.418 319.306C609.072 319.68 608.9 320.191 608.9 320.839C608.9 321.725 609.227 322.394 609.882 322.847C610.544 323.294 611.383 323.517 612.398 323.517ZM630.999 325.763C629.444 325.763 628.105 325.396 626.982 324.661C625.859 323.927 624.995 322.916 624.391 321.627C623.786 320.339 623.484 318.867 623.484 317.211C623.484 315.527 623.793 314.041 624.412 312.752C625.039 311.456 625.91 310.445 627.025 309.718C628.148 308.984 629.458 308.617 630.956 308.617C632.122 308.617 633.173 308.833 634.108 309.265C635.044 309.696 635.811 310.301 636.408 311.078C637.006 311.856 637.376 312.763 637.52 313.799H634.972C634.778 313.044 634.346 312.374 633.676 311.791C633.014 311.201 632.122 310.906 630.999 310.906C630.005 310.906 629.134 311.165 628.386 311.683C627.644 312.194 627.065 312.918 626.647 313.853C626.237 314.782 626.032 315.872 626.032 317.125C626.032 318.406 626.234 319.522 626.637 320.472C627.047 321.422 627.623 322.16 628.364 322.685C629.113 323.211 629.991 323.474 630.999 323.474C631.661 323.474 632.262 323.359 632.802 323.128C633.342 322.898 633.799 322.567 634.173 322.135C634.547 321.703 634.814 321.185 634.972 320.58H637.52C637.376 321.559 637.02 322.441 636.451 323.225C635.89 324.003 635.145 324.622 634.216 325.082C633.295 325.536 632.222 325.763 630.999 325.763ZM647.983 325.763C646.428 325.763 645.089 325.396 643.966 324.661C642.843 323.927 641.979 322.916 641.375 321.627C640.77 320.339 640.468 318.867 640.468 317.211C640.468 315.527 640.777 314.041 641.396 312.752C642.023 311.456 642.894 310.445 644.009 309.718C645.132 308.984 646.442 308.617 647.939 308.617C649.106 308.617 650.157 308.833 651.092 309.265C652.028 309.696 652.795 310.301 653.392 311.078C653.99 311.856 654.36 312.763 654.504 313.799H651.956C651.762 313.044 651.33 312.374 650.66 311.791C649.998 311.201 649.106 310.906 647.983 310.906C646.989 310.906 646.118 311.165 645.37 311.683C644.628 312.194 644.049 312.918 643.631 313.853C643.221 314.782 643.016 315.872 643.016 317.125C643.016 318.406 643.218 319.522 643.621 320.472C644.031 321.422 644.607 322.16 645.348 322.685C646.097 323.211 646.975 323.474 647.983 323.474C648.645 323.474 649.246 323.359 649.786 323.128C650.326 322.898 650.783 322.567 651.157 322.135C651.531 321.703 651.798 321.185 651.956 320.58H654.504C654.36 321.559 654.004 322.441 653.435 323.225C652.874 324.003 652.129 324.622 651.2 325.082C650.279 325.536 649.206 325.763 647.983 325.763ZM664.967 325.763C663.469 325.763 662.156 325.406 661.026 324.694C659.903 323.981 659.025 322.984 658.391 321.703C657.765 320.422 657.452 318.924 657.452 317.211C657.452 315.484 657.765 313.976 658.391 312.687C659.025 311.399 659.903 310.398 661.026 309.686C662.156 308.973 663.469 308.617 664.967 308.617C666.464 308.617 667.774 308.973 668.897 309.686C670.027 310.398 670.905 311.399 671.531 312.687C672.165 313.976 672.482 315.484 672.482 317.211C672.482 318.924 672.165 320.422 671.531 321.703C670.905 322.984 670.027 323.981 668.897 324.694C667.774 325.406 666.464 325.763 664.967 325.763ZM664.967 323.474C666.104 323.474 667.04 323.182 667.774 322.599C668.508 322.016 669.052 321.249 669.404 320.299C669.757 319.349 669.933 318.32 669.933 317.211C669.933 316.103 669.757 315.07 669.404 314.113C669.052 313.155 668.508 312.381 667.774 311.791C667.04 311.201 666.104 310.906 664.967 310.906C663.829 310.906 662.894 311.201 662.159 311.791C661.425 312.381 660.882 313.155 660.529 314.113C660.176 315.07 660 316.103 660 317.211C660 318.32 660.176 319.349 660.529 320.299C660.882 321.249 661.425 322.016 662.159 322.599C662.894 323.182 663.829 323.474 664.967 323.474ZM686.823 318.637V308.833H689.371V325.417H686.823V322.61H686.65C686.261 323.452 685.657 324.168 684.836 324.759C684.016 325.342 682.979 325.633 681.727 325.633C680.69 325.633 679.769 325.406 678.963 324.953C678.156 324.492 677.523 323.801 677.062 322.88C676.602 321.951 676.371 320.782 676.371 319.371V308.833H678.919V319.198C678.919 320.407 679.258 321.372 679.934 322.092C680.618 322.811 681.489 323.171 682.547 323.171C683.181 323.171 683.825 323.009 684.48 322.685C685.142 322.362 685.696 321.865 686.143 321.195C686.596 320.526 686.823 319.673 686.823 318.637ZM701.251 308.833V310.992H692.656V308.833H701.251ZM695.161 304.859H697.709V320.666C697.709 321.386 697.814 321.926 698.022 322.286C698.238 322.639 698.512 322.876 698.843 322.999C699.181 323.114 699.538 323.171 699.912 323.171C700.193 323.171 700.423 323.157 700.603 323.128C700.783 323.092 700.927 323.063 701.035 323.042L701.553 325.331C701.38 325.396 701.139 325.46 700.83 325.525C700.52 325.597 700.128 325.633 699.653 325.633C698.933 325.633 698.227 325.478 697.536 325.169C696.853 324.859 696.284 324.388 695.83 323.754C695.384 323.121 695.161 322.322 695.161 321.357V304.859ZM715.276 331.636C714.844 331.636 714.459 331.6 714.121 331.528C713.783 331.464 713.549 331.399 713.419 331.334L714.067 329.088C714.686 329.247 715.233 329.304 715.708 329.261C716.183 329.218 716.604 329.005 716.971 328.624C717.346 328.25 717.688 327.641 717.997 326.799L718.472 325.504L712.339 308.833H715.103L719.681 322.048H719.854L724.432 308.833H727.196L720.157 327.836C719.84 328.692 719.448 329.401 718.98 329.963C718.512 330.531 717.968 330.953 717.349 331.226C716.737 331.5 716.046 331.636 715.276 331.636ZM736.919 325.763C735.321 325.763 733.943 325.41 732.784 324.705C731.632 323.992 730.743 322.999 730.117 321.725C729.498 320.443 729.188 318.953 729.188 317.254C729.188 315.556 729.498 314.059 730.117 312.763C730.743 311.46 731.614 310.445 732.73 309.718C733.853 308.984 735.163 308.617 736.66 308.617C737.524 308.617 738.377 308.761 739.219 309.049C740.061 309.337 740.828 309.804 741.519 310.452C742.21 311.093 742.76 311.942 743.171 313C743.581 314.059 743.786 315.361 743.786 316.909V317.989H731.002V315.786H741.195C741.195 314.85 741.008 314.015 740.633 313.281C740.266 312.547 739.741 311.967 739.057 311.543C738.38 311.118 737.581 310.906 736.66 310.906C735.645 310.906 734.767 311.158 734.026 311.662C733.291 312.158 732.726 312.806 732.33 313.605C731.934 314.404 731.737 315.261 731.737 316.175V317.643C731.737 318.896 731.952 319.957 732.384 320.828C732.823 321.692 733.432 322.351 734.209 322.804C734.986 323.251 735.89 323.474 736.919 323.474C737.589 323.474 738.193 323.38 738.733 323.193C739.28 322.999 739.752 322.711 740.148 322.329C740.543 321.94 740.849 321.458 741.065 320.882L743.527 321.573C743.268 322.408 742.832 323.143 742.221 323.776C741.609 324.402 740.853 324.892 739.953 325.244C739.053 325.59 738.042 325.763 736.919 325.763ZM754.875 308.833V310.992H746.28V308.833H754.875ZM748.785 304.859H751.333V320.666C751.333 321.386 751.438 321.926 751.647 322.286C751.863 322.639 752.136 322.876 752.467 322.999C752.805 323.114 753.162 323.171 753.536 323.171C753.817 323.171 754.047 323.157 754.227 323.128C754.407 323.092 754.551 323.063 754.659 323.042L755.177 325.331C755.004 325.396 754.763 325.46 754.454 325.525C754.144 325.597 753.752 325.633 753.277 325.633C752.557 325.633 751.852 325.478 751.161 325.169C750.477 324.859 749.908 324.388 749.455 323.754C749.008 323.121 748.785 322.322 748.785 321.357V304.859ZM762.033 319.198V319.068C762.048 317.694 762.192 316.599 762.465 315.786C762.739 314.973 763.128 314.314 763.631 313.81C764.135 313.306 764.74 312.842 765.445 312.417C765.87 312.158 766.252 311.852 766.59 311.5C766.928 311.14 767.195 310.726 767.389 310.258C767.59 309.79 767.691 309.272 767.691 308.703C767.691 307.998 767.526 307.386 767.195 306.868C766.863 306.349 766.421 305.95 765.866 305.669C765.312 305.388 764.697 305.248 764.02 305.248C763.43 305.248 762.861 305.37 762.314 305.615C761.767 305.86 761.31 306.245 760.943 306.77C760.576 307.296 760.363 307.983 760.306 308.833H757.585C757.643 307.609 757.959 306.562 758.535 305.691C759.118 304.82 759.885 304.154 760.835 303.693C761.792 303.233 762.854 303.002 764.02 303.002C765.287 303.002 766.388 303.254 767.324 303.758C768.267 304.262 768.994 304.953 769.505 305.831C770.023 306.709 770.283 307.71 770.283 308.833C770.283 309.624 770.16 310.341 769.915 310.981C769.678 311.622 769.332 312.194 768.879 312.698C768.433 313.202 767.893 313.648 767.259 314.037C766.626 314.433 766.118 314.85 765.737 315.289C765.355 315.721 765.078 316.236 764.906 316.833C764.733 317.431 764.639 318.176 764.625 319.068V319.198H762.033ZM763.416 325.59C762.883 325.59 762.426 325.399 762.044 325.018C761.663 324.636 761.472 324.179 761.472 323.646C761.472 323.114 761.663 322.657 762.044 322.275C762.426 321.894 762.883 321.703 763.416 321.703C763.948 321.703 764.405 321.894 764.787 322.275C765.168 322.657 765.359 323.114 765.359 323.646C765.359 323.999 765.269 324.323 765.089 324.618C764.916 324.913 764.682 325.151 764.387 325.331C764.099 325.504 763.775 325.59 763.416 325.59ZM794.536 309.383C794.435 308.44 794.01 307.706 793.262 307.181C792.52 306.655 791.556 306.393 790.368 306.393C789.533 306.393 788.817 306.518 788.219 306.77C787.622 307.022 787.165 307.364 786.848 307.796C786.531 308.228 786.369 308.721 786.362 309.275C786.362 309.736 786.467 310.136 786.675 310.474C786.891 310.812 787.183 311.1 787.55 311.338C787.917 311.568 788.324 311.762 788.77 311.921C789.216 312.079 789.666 312.212 790.12 312.32L792.193 312.838C793.028 313.033 793.83 313.296 794.601 313.627C795.378 313.958 796.073 314.375 796.684 314.879C797.303 315.383 797.793 315.991 798.153 316.704C798.513 317.416 798.693 318.251 798.693 319.209C798.693 320.504 798.362 321.645 797.699 322.631C797.037 323.61 796.08 324.377 794.827 324.931C793.582 325.478 792.074 325.752 790.303 325.752C788.583 325.752 787.089 325.486 785.822 324.953C784.563 324.42 783.577 323.643 782.864 322.621C782.159 321.599 781.777 320.353 781.719 318.885H785.66C785.718 319.655 785.956 320.296 786.373 320.807C786.791 321.318 787.334 321.699 788.003 321.951C788.68 322.203 789.436 322.329 790.271 322.329C791.142 322.329 791.905 322.2 792.56 321.94C793.222 321.674 793.74 321.307 794.115 320.839C794.489 320.364 794.68 319.81 794.687 319.176C794.68 318.601 794.511 318.125 794.179 317.751C793.848 317.37 793.384 317.053 792.787 316.801C792.196 316.542 791.505 316.312 790.714 316.11L788.198 315.462C786.377 314.994 784.937 314.285 783.879 313.335C782.828 312.378 782.303 311.107 782.303 309.524C782.303 308.221 782.655 307.08 783.361 306.101C784.073 305.122 785.041 304.363 786.265 303.823C787.489 303.276 788.874 303.002 790.422 303.002C791.991 303.002 793.366 303.276 794.547 303.823C795.734 304.363 796.666 305.115 797.343 306.079C798.02 307.037 798.369 308.138 798.39 309.383H794.536ZM802.091 325.417V308.833H806V325.417H802.091ZM804.056 306.479C803.437 306.479 802.904 306.274 802.458 305.863C802.012 305.446 801.789 304.946 801.789 304.363C801.789 303.772 802.012 303.272 802.458 302.862C802.904 302.444 803.437 302.236 804.056 302.236C804.682 302.236 805.215 302.444 805.654 302.862C806.1 303.272 806.324 303.772 806.324 304.363C806.324 304.946 806.1 305.446 805.654 305.863C805.215 306.274 804.682 306.479 804.056 306.479ZM817.231 331.982C815.828 331.982 814.622 331.791 813.614 331.41C812.607 331.035 811.797 330.531 811.185 329.898C810.573 329.265 810.148 328.563 809.911 327.793L813.431 326.94C813.589 327.263 813.82 327.584 814.122 327.901C814.424 328.224 814.831 328.491 815.342 328.7C815.86 328.915 816.512 329.023 817.296 329.023C818.405 329.023 819.323 328.754 820.05 328.214C820.777 327.681 821.14 326.803 821.14 325.579V322.437H820.946C820.744 322.84 820.449 323.254 820.06 323.679C819.679 324.104 819.171 324.46 818.538 324.748C817.912 325.036 817.123 325.18 816.173 325.18C814.899 325.18 813.744 324.881 812.707 324.283C811.678 323.679 810.858 322.779 810.246 321.584C809.641 320.382 809.339 318.878 809.339 317.071C809.339 315.25 809.641 313.713 810.246 312.461C810.858 311.201 811.682 310.247 812.718 309.599C813.755 308.944 814.91 308.617 816.184 308.617C817.156 308.617 817.955 308.782 818.581 309.113C819.215 309.437 819.718 309.83 820.093 310.29C820.467 310.744 820.751 311.172 820.946 311.575H821.162V308.833H825.016V325.687C825.016 327.105 824.678 328.278 824.001 329.207C823.325 330.136 822.4 330.83 821.226 331.291C820.053 331.752 818.721 331.982 817.231 331.982ZM817.264 322.113C818.092 322.113 818.797 321.912 819.38 321.509C819.963 321.105 820.406 320.526 820.708 319.77C821.01 319.014 821.162 318.107 821.162 317.049C821.162 316.006 821.01 315.091 820.708 314.307C820.413 313.522 819.974 312.914 819.391 312.482C818.815 312.043 818.106 311.824 817.264 311.824C816.393 311.824 815.666 312.05 815.083 312.504C814.5 312.957 814.061 313.58 813.766 314.372C813.47 315.156 813.323 316.049 813.323 317.049C813.323 318.064 813.47 318.953 813.766 319.716C814.068 320.472 814.511 321.062 815.094 321.487C815.684 321.904 816.407 322.113 817.264 322.113ZM832.931 315.7V325.417H829.022V308.833H832.758V311.651H832.952C833.334 310.722 833.942 309.984 834.777 309.437C835.619 308.89 836.659 308.617 837.897 308.617C839.042 308.617 840.039 308.861 840.888 309.351C841.745 309.84 842.407 310.549 842.875 311.478C843.35 312.407 843.584 313.533 843.577 314.858V325.417H839.668V315.462C839.668 314.354 839.38 313.486 838.804 312.86C838.236 312.234 837.447 311.921 836.44 311.921C835.756 311.921 835.148 312.072 834.615 312.374C834.089 312.669 833.676 313.098 833.373 313.659C833.078 314.22 832.931 314.901 832.931 315.7ZM865.662 318.442V308.833H869.571V325.417H865.781V322.47H865.608C865.234 323.398 864.619 324.158 863.762 324.748C862.913 325.338 861.865 325.633 860.62 325.633C859.533 325.633 858.572 325.392 857.737 324.91C856.909 324.42 856.262 323.711 855.794 322.783C855.326 321.847 855.092 320.717 855.092 319.392V308.833H859V318.788C859 319.839 859.288 320.674 859.864 321.293C860.44 321.912 861.196 322.221 862.132 322.221C862.707 322.221 863.265 322.081 863.805 321.8C864.345 321.519 864.788 321.102 865.133 320.548C865.486 319.986 865.662 319.284 865.662 318.442ZM873.59 331.636V308.833H877.434V311.575H877.661C877.862 311.172 878.147 310.744 878.514 310.29C878.881 309.83 879.377 309.437 880.004 309.113C880.63 308.782 881.429 308.617 882.401 308.617C883.682 308.617 884.837 308.944 885.867 309.599C886.903 310.247 887.724 311.208 888.328 312.482C888.94 313.749 889.246 315.304 889.246 317.147C889.246 318.968 888.947 320.515 888.35 321.789C887.752 323.063 886.939 324.035 885.91 324.705C884.88 325.374 883.714 325.709 882.411 325.709C881.461 325.709 880.673 325.55 880.047 325.234C879.421 324.917 878.917 324.535 878.535 324.089C878.161 323.636 877.869 323.207 877.661 322.804H877.499V331.636H873.59ZM877.423 317.125C877.423 318.197 877.574 319.137 877.877 319.943C878.186 320.749 878.629 321.379 879.205 321.833C879.788 322.279 880.493 322.502 881.321 322.502C882.185 322.502 882.908 322.272 883.491 321.811C884.074 321.343 884.513 320.706 884.808 319.9C885.111 319.086 885.262 318.161 885.262 317.125C885.262 316.096 885.114 315.181 884.819 314.382C884.524 313.583 884.085 312.957 883.502 312.504C882.919 312.05 882.192 311.824 881.321 311.824C880.486 311.824 879.777 312.043 879.194 312.482C878.611 312.921 878.168 313.537 877.866 314.328C877.571 315.12 877.423 316.052 877.423 317.125Z" fill="#0B5CD5"/>
<mask id="path-4-inside-1_178_39477" fill="white">
<path d="M400.811 400.227H1518.19V499.043H400.811V400.227Z"/>
</mask>
<path d="M1518.19 497.143H400.811V500.943H1518.19V497.143Z" fill="#0B5CD5" mask="url(#path-4-inside-1_178_39477)"/>
<path d="M401.588 438.522H404.654L410.787 448.844H411.046L417.179 438.522H420.246L412.256 451.522V460.635H409.578V451.522L401.588 438.522ZM427.755 460.98C426.258 460.98 424.944 460.624 423.814 459.912C422.691 459.199 421.813 458.202 421.179 456.921C420.553 455.639 420.24 454.142 420.24 452.429C420.24 450.702 420.553 449.194 421.179 447.905C421.813 446.617 422.691 445.616 423.814 444.903C424.944 444.191 426.258 443.835 427.755 443.835C429.252 443.835 430.562 444.191 431.685 444.903C432.815 445.616 433.693 446.617 434.32 447.905C434.953 449.194 435.27 450.702 435.27 452.429C435.27 454.142 434.953 455.639 434.32 456.921C433.693 458.202 432.815 459.199 431.685 459.912C430.562 460.624 429.252 460.98 427.755 460.98ZM427.755 458.691C428.892 458.691 429.828 458.4 430.562 457.817C431.296 457.234 431.84 456.467 432.193 455.517C432.545 454.567 432.722 453.538 432.722 452.429C432.722 451.321 432.545 450.288 432.193 449.33C431.84 448.373 431.296 447.599 430.562 447.009C429.828 446.419 428.892 446.124 427.755 446.124C426.618 446.124 425.682 446.419 424.948 447.009C424.213 447.599 423.67 448.373 423.317 449.33C422.965 450.288 422.788 451.321 422.788 452.429C422.788 453.538 422.965 454.567 423.317 455.517C423.67 456.467 424.213 457.234 424.948 457.817C425.682 458.4 426.618 458.691 427.755 458.691ZM449.611 453.854V444.05H452.159V460.635H449.611V457.828H449.438C449.05 458.67 448.445 459.386 447.624 459.976C446.804 460.559 445.767 460.851 444.515 460.851C443.478 460.851 442.557 460.624 441.751 460.171C440.945 459.71 440.311 459.019 439.851 458.098C439.39 457.169 439.159 455.999 439.159 454.589V444.05H441.708V454.416C441.708 455.625 442.046 456.59 442.723 457.309C443.406 458.029 444.277 458.389 445.335 458.389C445.969 458.389 446.613 458.227 447.268 457.903C447.93 457.579 448.485 457.083 448.931 456.413C449.384 455.744 449.611 454.891 449.611 453.854ZM456.826 460.635V444.05H459.288V446.555H459.461C459.763 445.735 460.31 445.069 461.102 444.558C461.894 444.047 462.786 443.791 463.78 443.791C463.967 443.791 464.201 443.795 464.482 443.802C464.762 443.809 464.975 443.82 465.119 443.835V446.426C465.032 446.404 464.834 446.372 464.525 446.329C464.222 446.278 463.902 446.253 463.564 446.253C462.758 446.253 462.038 446.422 461.404 446.761C460.778 447.092 460.282 447.552 459.914 448.143C459.554 448.726 459.375 449.391 459.375 450.14V460.635H456.826ZM487.142 453.854V444.05H489.69V460.635H487.142V457.828H486.969C486.581 458.67 485.976 459.386 485.156 459.976C484.335 460.559 483.298 460.851 482.046 460.851C481.009 460.851 480.088 460.624 479.282 460.171C478.476 459.71 477.842 459.019 477.382 458.098C476.921 457.169 476.691 455.999 476.691 454.589V444.05H479.239V454.416C479.239 455.625 479.577 456.59 480.254 457.309C480.937 458.029 481.808 458.389 482.867 458.389C483.5 458.389 484.144 458.227 484.799 457.903C485.461 457.579 486.016 457.083 486.462 456.413C486.915 455.744 487.142 454.891 487.142 453.854ZM506.105 447.765L503.816 448.413C503.672 448.031 503.46 447.66 503.179 447.3C502.905 446.933 502.531 446.631 502.056 446.393C501.581 446.156 500.973 446.037 500.231 446.037C499.216 446.037 498.37 446.271 497.694 446.739C497.024 447.2 496.69 447.786 496.69 448.499C496.69 449.132 496.92 449.633 497.381 450C497.841 450.367 498.561 450.673 499.54 450.917L502.002 451.522C503.485 451.882 504.59 452.433 505.317 453.174C506.044 453.908 506.407 454.855 506.407 456.014C506.407 456.964 506.134 457.813 505.587 458.562C505.047 459.31 504.291 459.901 503.319 460.333C502.347 460.765 501.217 460.98 499.929 460.98C498.237 460.98 496.837 460.613 495.729 459.879C494.62 459.145 493.918 458.072 493.623 456.662L496.042 456.057C496.272 456.95 496.708 457.619 497.348 458.065C497.996 458.511 498.842 458.735 499.886 458.735C501.073 458.735 502.016 458.483 502.714 457.979C503.42 457.468 503.773 456.856 503.773 456.143C503.773 455.567 503.571 455.085 503.168 454.696C502.765 454.301 502.146 454.005 501.311 453.811L498.547 453.163C497.028 452.803 495.912 452.246 495.2 451.49C494.494 450.727 494.142 449.773 494.142 448.628C494.142 447.693 494.404 446.865 494.93 446.145C495.462 445.425 496.186 444.86 497.1 444.45C498.021 444.04 499.065 443.835 500.231 443.835C501.872 443.835 503.161 444.194 504.097 444.914C505.039 445.634 505.709 446.584 506.105 447.765ZM517.196 460.98C515.598 460.98 514.22 460.628 513.061 459.922C511.909 459.21 511.02 458.216 510.394 456.942C509.775 455.661 509.465 454.171 509.465 452.472C509.465 450.774 509.775 449.276 510.394 447.981C511.02 446.678 511.891 445.663 513.007 444.936C514.13 444.202 515.44 443.835 516.937 443.835C517.801 443.835 518.654 443.978 519.496 444.266C520.338 444.554 521.105 445.022 521.796 445.67C522.487 446.311 523.038 447.16 523.448 448.218C523.858 449.276 524.063 450.579 524.063 452.127V453.206H511.279V451.004H521.472C521.472 450.068 521.285 449.233 520.91 448.499C520.543 447.765 520.018 447.185 519.334 446.761C518.657 446.336 517.858 446.124 516.937 446.124C515.922 446.124 515.044 446.375 514.303 446.879C513.568 447.376 513.003 448.024 512.607 448.823C512.212 449.622 512.014 450.478 512.014 451.393V452.861C512.014 454.113 512.23 455.175 512.661 456.046C513.1 456.91 513.709 457.569 514.486 458.022C515.264 458.468 516.167 458.691 517.196 458.691C517.866 458.691 518.47 458.598 519.01 458.411C519.557 458.216 520.029 457.928 520.425 457.547C520.82 457.158 521.126 456.676 521.342 456.1L523.804 456.791C523.545 457.626 523.109 458.36 522.498 458.994C521.886 459.62 521.13 460.109 520.23 460.462C519.33 460.808 518.319 460.98 517.196 460.98ZM527.939 460.635V444.05H530.401V446.555H530.574C530.876 445.735 531.423 445.069 532.215 444.558C533.007 444.047 533.9 443.791 534.893 443.791C535.08 443.791 535.314 443.795 535.595 443.802C535.875 443.809 536.088 443.82 536.232 443.835V446.426C536.145 446.404 535.947 446.372 535.638 446.329C535.336 446.278 535.015 446.253 534.677 446.253C533.871 446.253 533.151 446.422 532.517 446.761C531.891 447.092 531.395 447.552 531.027 448.143C530.668 448.726 530.488 449.391 530.488 450.14V460.635H527.939ZM541.8 450.658V460.635H539.252V444.05H541.714V446.642H541.93C542.319 445.8 542.909 445.123 543.701 444.612C544.492 444.094 545.515 443.835 546.767 443.835C547.89 443.835 548.873 444.065 549.715 444.526C550.557 444.979 551.212 445.67 551.68 446.599C552.148 447.52 552.382 448.686 552.382 450.097V460.635H549.833V450.27C549.833 448.967 549.495 447.952 548.819 447.225C548.142 446.491 547.213 446.124 546.033 446.124C545.219 446.124 544.492 446.3 543.852 446.653C543.218 447.005 542.718 447.52 542.351 448.197C541.984 448.873 541.8 449.694 541.8 450.658ZM561.918 461.024C560.867 461.024 559.914 460.826 559.057 460.43C558.2 460.027 557.52 459.447 557.016 458.691C556.512 457.928 556.26 457.007 556.26 455.927C556.26 454.977 556.448 454.207 556.822 453.617C557.196 453.019 557.697 452.551 558.323 452.213C558.949 451.875 559.64 451.623 560.396 451.457C561.159 451.285 561.925 451.148 562.696 451.047C563.703 450.917 564.52 450.82 565.147 450.756C565.78 450.684 566.241 450.565 566.529 450.399C566.824 450.234 566.971 449.946 566.971 449.535V449.449C566.971 448.384 566.68 447.556 566.097 446.966C565.521 446.375 564.646 446.08 563.473 446.08C562.257 446.08 561.303 446.347 560.612 446.879C559.921 447.412 559.435 447.981 559.154 448.585L556.736 447.722C557.167 446.714 557.743 445.929 558.463 445.368C559.19 444.799 559.982 444.403 560.838 444.18C561.702 443.95 562.552 443.835 563.387 443.835C563.919 443.835 564.531 443.899 565.222 444.029C565.92 444.151 566.593 444.407 567.241 444.795C567.896 445.184 568.44 445.771 568.872 446.555C569.303 447.34 569.519 448.391 569.519 449.708V460.635H566.971V458.389H566.842C566.669 458.749 566.381 459.134 565.978 459.544C565.575 459.955 565.039 460.304 564.369 460.592C563.7 460.88 562.883 461.024 561.918 461.024ZM562.307 458.735C563.315 458.735 564.164 458.537 564.855 458.141C565.553 457.745 566.079 457.234 566.431 456.608C566.791 455.981 566.971 455.323 566.971 454.632V452.3C566.863 452.429 566.626 452.548 566.259 452.656C565.899 452.757 565.481 452.847 565.006 452.926C564.538 452.998 564.081 453.063 563.635 453.12C563.196 453.17 562.84 453.214 562.566 453.25C561.904 453.336 561.285 453.476 560.709 453.671C560.14 453.858 559.68 454.142 559.327 454.524C558.981 454.898 558.809 455.409 558.809 456.057C558.809 456.942 559.136 457.612 559.791 458.065C560.453 458.511 561.292 458.735 562.307 458.735ZM574.17 460.635V444.05H576.632V446.642H576.848C577.194 445.756 577.751 445.069 578.522 444.58C579.292 444.083 580.217 443.835 581.296 443.835C582.391 443.835 583.301 444.083 584.028 444.58C584.762 445.069 585.335 445.756 585.745 446.642H585.918C586.342 445.785 586.979 445.105 587.829 444.601C588.678 444.09 589.697 443.835 590.884 443.835C592.367 443.835 593.58 444.299 594.523 445.227C595.466 446.149 595.937 447.585 595.937 449.535V460.635H593.389V449.535C593.389 448.312 593.055 447.437 592.385 446.912C591.716 446.386 590.928 446.124 590.021 446.124C588.855 446.124 587.951 446.476 587.311 447.182C586.67 447.88 586.35 448.765 586.35 449.838V460.635H583.758V449.276C583.758 448.333 583.452 447.574 582.84 446.998C582.229 446.415 581.44 446.124 580.476 446.124C579.814 446.124 579.195 446.3 578.619 446.653C578.05 447.005 577.589 447.495 577.237 448.121C576.891 448.74 576.718 449.456 576.718 450.27V460.635H574.17ZM607.55 460.98C605.952 460.98 604.573 460.628 603.415 459.922C602.263 459.21 601.374 458.216 600.748 456.942C600.129 455.661 599.819 454.171 599.819 452.472C599.819 450.774 600.129 449.276 600.748 447.981C601.374 446.678 602.245 445.663 603.361 444.936C604.483 444.202 605.794 443.835 607.291 443.835C608.155 443.835 609.007 443.978 609.85 444.266C610.692 444.554 611.458 445.022 612.149 445.67C612.84 446.311 613.391 447.16 613.801 448.218C614.212 449.276 614.417 450.579 614.417 452.127V453.206H601.633V451.004H611.826C611.826 450.068 611.638 449.233 611.264 448.499C610.897 447.765 610.372 447.185 609.688 446.761C609.011 446.336 608.212 446.124 607.291 446.124C606.276 446.124 605.398 446.375 604.656 446.879C603.922 447.376 603.357 448.024 602.961 448.823C602.565 449.622 602.367 450.478 602.367 451.393V452.861C602.367 454.113 602.583 455.175 603.015 456.046C603.454 456.91 604.062 457.569 604.84 458.022C605.617 458.468 606.521 458.691 607.55 458.691C608.219 458.691 608.824 458.598 609.364 458.411C609.911 458.216 610.382 457.928 610.778 457.547C611.174 457.158 611.48 456.676 611.696 456.1L614.158 456.791C613.899 457.626 613.463 458.36 612.851 458.994C612.239 459.62 611.484 460.109 610.584 460.462C609.684 460.808 608.673 460.98 607.55 460.98ZM633.582 460.98C632.085 460.98 630.771 460.624 629.641 459.912C628.518 459.199 627.64 458.202 627.006 456.921C626.38 455.639 626.067 454.142 626.067 452.429C626.067 450.702 626.38 449.194 627.006 447.905C627.64 446.617 628.518 445.616 629.641 444.903C630.771 444.191 632.085 443.835 633.582 443.835C635.079 443.835 636.389 444.191 637.512 444.903C638.642 445.616 639.52 446.617 640.147 447.905C640.78 449.194 641.097 450.702 641.097 452.429C641.097 454.142 640.78 455.639 640.147 456.921C639.52 458.202 638.642 459.199 637.512 459.912C636.389 460.624 635.079 460.98 633.582 460.98ZM633.582 458.691C634.719 458.691 635.655 458.4 636.389 457.817C637.123 457.234 637.667 456.467 638.02 455.517C638.372 454.567 638.549 453.538 638.549 452.429C638.549 451.321 638.372 450.288 638.02 449.33C637.667 448.373 637.123 447.599 636.389 447.009C635.655 446.419 634.719 446.124 633.582 446.124C632.445 446.124 631.509 446.419 630.775 447.009C630.04 447.599 629.497 448.373 629.144 449.33C628.792 450.288 628.615 451.321 628.615 452.429C628.615 453.538 628.792 454.567 629.144 455.517C629.497 456.467 630.04 457.234 630.775 457.817C631.509 458.4 632.445 458.691 633.582 458.691ZM644.986 460.635V444.05H647.448V446.555H647.621C647.923 445.735 648.47 445.069 649.262 444.558C650.054 444.047 650.947 443.791 651.94 443.791C652.127 443.791 652.361 443.795 652.642 443.802C652.922 443.809 653.135 443.82 653.279 443.835V446.426C653.192 446.404 652.994 446.372 652.685 446.329C652.383 446.278 652.062 446.253 651.724 446.253C650.918 446.253 650.198 446.422 649.564 446.761C648.938 447.092 648.442 447.552 648.074 448.143C647.715 448.726 647.535 449.391 647.535 450.14V460.635H644.986ZM671.804 460.98C670.206 460.98 668.828 460.628 667.669 459.922C666.517 459.21 665.628 458.216 665.002 456.942C664.383 455.661 664.073 454.171 664.073 452.472C664.073 450.774 664.383 449.276 665.002 447.981C665.628 446.678 666.499 445.663 667.615 444.936C668.738 444.202 670.048 443.835 671.545 443.835C672.409 443.835 673.262 443.978 674.104 444.266C674.946 444.554 675.713 445.022 676.404 445.67C677.095 446.311 677.645 447.16 678.056 448.218C678.466 449.276 678.671 450.579 678.671 452.127V453.206H665.887V451.004H676.08C676.08 450.068 675.893 449.233 675.518 448.499C675.151 447.765 674.626 447.185 673.942 446.761C673.265 446.336 672.466 446.124 671.545 446.124C670.53 446.124 669.652 446.375 668.91 446.879C668.176 447.376 667.611 448.024 667.215 448.823C666.819 449.622 666.621 450.478 666.621 451.393V452.861C666.621 454.113 666.837 455.175 667.269 456.046C667.708 456.91 668.316 457.569 669.094 458.022C669.871 458.468 670.775 458.691 671.804 458.691C672.473 458.691 673.078 458.598 673.618 458.411C674.165 458.216 674.636 457.928 675.032 457.547C675.428 457.158 675.734 456.676 675.95 456.1L678.412 456.791C678.153 457.626 677.717 458.36 677.105 458.994C676.494 459.62 675.738 460.109 674.838 460.462C673.938 460.808 672.927 460.98 671.804 460.98ZM682.547 460.635V444.05H685.009V446.642H685.225C685.57 445.756 686.128 445.069 686.898 444.58C687.669 444.083 688.594 443.835 689.673 443.835C690.767 443.835 691.678 444.083 692.405 444.58C693.139 445.069 693.712 445.756 694.122 446.642H694.295C694.719 445.785 695.356 445.105 696.206 444.601C697.055 444.09 698.074 443.835 699.261 443.835C700.744 443.835 701.957 444.299 702.9 445.227C703.843 446.149 704.314 447.585 704.314 449.535V460.635H701.766V449.535C701.766 448.312 701.432 447.437 700.762 446.912C700.093 446.386 699.304 446.124 698.398 446.124C697.231 446.124 696.328 446.476 695.687 447.182C695.047 447.88 694.726 448.765 694.726 449.838V460.635H692.135V449.276C692.135 448.333 691.829 447.574 691.217 446.998C690.606 446.415 689.817 446.124 688.853 446.124C688.191 446.124 687.572 446.3 686.996 446.653C686.427 447.005 685.966 447.495 685.614 448.121C685.268 448.74 685.095 449.456 685.095 450.27V460.635H682.547ZM713.854 461.024C712.803 461.024 711.849 460.826 710.992 460.43C710.136 460.027 709.456 459.447 708.952 458.691C708.448 457.928 708.196 457.007 708.196 455.927C708.196 454.977 708.383 454.207 708.757 453.617C709.132 453.019 709.632 452.551 710.258 452.213C710.884 451.875 711.575 451.623 712.331 451.457C713.094 451.285 713.861 451.148 714.631 451.047C715.639 450.917 716.456 450.82 717.082 450.756C717.715 450.684 718.176 450.565 718.464 450.399C718.759 450.234 718.907 449.946 718.907 449.535V449.449C718.907 448.384 718.615 447.556 718.032 446.966C717.456 446.375 716.582 446.08 715.408 446.08C714.192 446.08 713.238 446.347 712.547 446.879C711.856 447.412 711.37 447.981 711.09 448.585L708.671 447.722C709.103 446.714 709.679 445.929 710.399 445.368C711.126 444.799 711.917 444.403 712.774 444.18C713.638 443.95 714.487 443.835 715.322 443.835C715.855 443.835 716.467 443.899 717.158 444.029C717.856 444.151 718.529 444.407 719.177 444.795C719.832 445.184 720.375 445.771 720.807 446.555C721.239 447.34 721.455 448.391 721.455 449.708V460.635H718.907V458.389H718.777C718.604 458.749 718.317 459.134 717.913 459.544C717.51 459.955 716.974 460.304 716.305 460.592C715.635 460.88 714.818 461.024 713.854 461.024ZM714.242 458.735C715.25 458.735 716.099 458.537 716.791 458.141C717.489 457.745 718.014 457.234 718.367 456.608C718.727 455.981 718.907 455.323 718.907 454.632V452.3C718.799 452.429 718.561 452.548 718.194 452.656C717.834 452.757 717.417 452.847 716.942 452.926C716.474 452.998 716.017 453.063 715.57 453.12C715.131 453.17 714.775 453.214 714.502 453.25C713.839 453.336 713.22 453.476 712.644 453.671C712.076 453.858 711.615 454.142 711.262 454.524C710.917 454.898 710.744 455.409 710.744 456.057C710.744 456.942 711.072 457.612 711.727 458.065C712.389 458.511 713.227 458.735 714.242 458.735ZM726.106 460.635V444.05H728.654V460.635H726.106ZM727.401 441.286C726.905 441.286 726.477 441.117 726.117 440.779C725.764 440.441 725.588 440.034 725.588 439.559C725.588 439.084 725.764 438.677 726.117 438.339C726.477 438 726.905 437.831 727.401 437.831C727.898 437.831 728.323 438 728.676 438.339C729.035 438.677 729.215 439.084 729.215 439.559C729.215 440.034 729.035 440.441 728.676 440.779C728.323 441.117 727.898 441.286 727.401 441.286ZM735.869 438.522V460.635H733.321V438.522H735.869Z" fill="#0B5CD5"/>
<mask id="path-7-inside-2_178_39477" fill="white">
<path d="M400.811 559.853H1518.19V658.669H400.811V559.853Z"/>
</mask>
<path d="M1518.19 656.768H400.811V660.569H1518.19V656.768Z" fill="#0B5CD5" mask="url(#path-7-inside-2_178_39477)"/>
<path d="M403.488 620.261V598.148H410.96C412.695 598.148 414.113 598.461 415.214 599.087C416.323 599.706 417.143 600.545 417.676 601.603C418.208 602.661 418.475 603.842 418.475 605.145C418.475 606.448 418.208 607.632 417.676 608.697C417.15 609.762 416.337 610.612 415.236 611.245C414.134 611.871 412.723 612.184 411.003 612.184H405.648V609.809H410.917C412.104 609.809 413.058 609.604 413.778 609.194C414.498 608.783 415.02 608.229 415.344 607.531C415.675 606.825 415.84 606.03 415.84 605.145C415.84 604.259 415.675 603.468 415.344 602.769C415.02 602.071 414.494 601.524 413.767 601.128C413.04 600.725 412.076 600.523 410.874 600.523H406.166V620.261H403.488ZM427.323 620.649C426.272 620.649 425.318 620.451 424.462 620.056C423.605 619.653 422.925 619.073 422.421 618.317C421.917 617.554 421.665 616.633 421.665 615.553C421.665 614.603 421.852 613.833 422.227 613.243C422.601 612.645 423.101 612.177 423.728 611.839C424.354 611.501 425.045 611.249 425.801 611.083C426.564 610.91 427.33 610.774 428.1 610.673C429.108 610.543 429.925 610.446 430.551 610.381C431.185 610.309 431.646 610.191 431.933 610.025C432.229 609.859 432.376 609.572 432.376 609.161V609.075C432.376 608.01 432.085 607.182 431.502 606.591C430.926 606.001 430.051 605.706 428.878 605.706C427.661 605.706 426.708 605.972 426.017 606.505C425.326 607.038 424.84 607.606 424.559 608.211L422.14 607.347C422.572 606.34 423.148 605.555 423.868 604.994C424.595 604.425 425.387 604.029 426.243 603.806C427.107 603.575 427.957 603.46 428.791 603.46C429.324 603.46 429.936 603.525 430.627 603.655C431.325 603.777 431.998 604.033 432.646 604.421C433.301 604.81 433.845 605.397 434.276 606.181C434.708 606.966 434.924 608.017 434.924 609.334V620.261H432.376V618.015H432.247C432.074 618.375 431.786 618.76 431.383 619.17C430.98 619.581 430.443 619.93 429.774 620.218C429.105 620.505 428.288 620.649 427.323 620.649ZM427.712 618.36C428.72 618.36 429.569 618.162 430.26 617.767C430.958 617.371 431.484 616.86 431.836 616.233C432.196 615.607 432.376 614.949 432.376 614.258V611.925C432.268 612.055 432.031 612.174 431.664 612.282C431.304 612.382 430.886 612.472 430.411 612.552C429.943 612.624 429.486 612.688 429.04 612.746C428.601 612.796 428.244 612.839 427.971 612.875C427.309 612.962 426.69 613.102 426.114 613.297C425.545 613.484 425.084 613.768 424.732 614.15C424.386 614.524 424.213 615.035 424.213 615.683C424.213 616.568 424.541 617.238 425.196 617.691C425.858 618.137 426.697 618.36 427.712 618.36ZM451.323 607.39L449.034 608.038C448.89 607.657 448.677 607.286 448.396 606.926C448.123 606.559 447.749 606.257 447.274 606.019C446.799 605.782 446.19 605.663 445.449 605.663C444.434 605.663 443.588 605.897 442.912 606.365C442.242 606.825 441.907 607.412 441.907 608.125C441.907 608.758 442.138 609.258 442.598 609.626C443.059 609.993 443.779 610.299 444.758 610.543L447.22 611.148C448.702 611.508 449.807 612.058 450.534 612.8C451.261 613.534 451.625 614.481 451.625 615.64C451.625 616.59 451.351 617.439 450.804 618.188C450.264 618.936 449.509 619.527 448.537 619.958C447.565 620.39 446.435 620.606 445.147 620.606C443.455 620.606 442.055 620.239 440.946 619.505C439.838 618.771 439.136 617.698 438.841 616.287L441.26 615.683C441.49 616.575 441.925 617.245 442.566 617.691C443.214 618.137 444.06 618.36 445.103 618.36C446.291 618.36 447.234 618.109 447.932 617.605C448.638 617.094 448.99 616.482 448.99 615.769C448.99 615.193 448.789 614.711 448.386 614.322C447.983 613.926 447.364 613.631 446.529 613.437L443.764 612.789C442.246 612.429 441.13 611.871 440.417 611.116C439.712 610.353 439.359 609.399 439.359 608.254C439.359 607.319 439.622 606.491 440.147 605.771C440.68 605.051 441.404 604.486 442.318 604.076C443.239 603.665 444.283 603.46 445.449 603.46C447.09 603.46 448.378 603.82 449.314 604.54C450.257 605.26 450.927 606.21 451.323 607.39ZM467.208 607.39L464.919 608.038C464.775 607.657 464.563 607.286 464.282 606.926C464.008 606.559 463.634 606.257 463.159 606.019C462.684 605.782 462.076 605.663 461.334 605.663C460.319 605.663 459.474 605.897 458.797 606.365C458.127 606.825 457.793 607.412 457.793 608.125C457.793 608.758 458.023 609.258 458.484 609.626C458.944 609.993 459.664 610.299 460.643 610.543L463.105 611.148C464.588 611.508 465.693 612.058 466.42 612.8C467.147 613.534 467.51 614.481 467.51 615.64C467.51 616.59 467.237 617.439 466.69 618.188C466.15 618.936 465.394 619.527 464.422 619.958C463.45 620.39 462.32 620.606 461.032 620.606C459.34 620.606 457.94 620.239 456.832 619.505C455.723 618.771 455.021 617.698 454.726 616.287L457.145 615.683C457.375 616.575 457.811 617.245 458.451 617.691C459.099 618.137 459.945 618.36 460.989 618.36C462.176 618.36 463.119 618.109 463.818 617.605C464.523 617.094 464.876 616.482 464.876 615.769C464.876 615.193 464.674 614.711 464.271 614.322C463.868 613.926 463.249 613.631 462.414 613.437L459.65 612.789C458.131 612.429 457.015 611.871 456.303 611.116C455.597 610.353 455.245 609.399 455.245 608.254C455.245 607.319 455.507 606.491 456.033 605.771C456.565 605.051 457.289 604.486 458.203 604.076C459.124 603.665 460.168 603.46 461.334 603.46C462.975 603.46 464.264 603.82 465.2 604.54C466.143 605.26 466.812 606.21 467.208 607.39ZM475.103 620.261L470.05 603.676H472.728L476.313 616.374H476.485L480.027 603.676H482.748L486.246 616.331H486.419L490.003 603.676H492.681L487.628 620.261H485.123L481.495 607.52H481.236L477.608 620.261H475.103ZM502.223 620.606C500.726 620.606 499.412 620.25 498.282 619.537C497.159 618.825 496.281 617.828 495.648 616.547C495.021 615.265 494.708 613.768 494.708 612.055C494.708 610.327 495.021 608.819 495.648 607.531C496.281 606.242 497.159 605.242 498.282 604.529C499.412 603.817 500.726 603.46 502.223 603.46C503.72 603.46 505.03 603.817 506.153 604.529C507.284 605.242 508.162 606.242 508.788 607.531C509.421 608.819 509.738 610.327 509.738 612.055C509.738 613.768 509.421 615.265 508.788 616.547C508.162 617.828 507.284 618.825 506.153 619.537C505.03 620.25 503.72 620.606 502.223 620.606ZM502.223 618.317C503.361 618.317 504.296 618.026 505.03 617.443C505.765 616.86 506.308 616.093 506.661 615.143C507.014 614.193 507.19 613.163 507.19 612.055C507.19 610.946 507.014 609.913 506.661 608.956C506.308 607.999 505.765 607.225 505.03 606.635C504.296 606.044 503.361 605.749 502.223 605.749C501.086 605.749 500.15 606.044 499.416 606.635C498.682 607.225 498.138 607.999 497.786 608.956C497.433 609.913 497.257 610.946 497.257 612.055C497.257 613.163 497.433 614.193 497.786 615.143C498.138 616.093 498.682 616.86 499.416 617.443C500.15 618.026 501.086 618.317 502.223 618.317ZM513.628 620.261V603.676H516.09V606.181H516.262C516.565 605.361 517.112 604.695 517.903 604.184C518.695 603.673 519.588 603.417 520.581 603.417C520.768 603.417 521.002 603.421 521.283 603.428C521.564 603.435 521.776 603.446 521.92 603.46V606.052C521.834 606.03 521.636 605.998 521.326 605.954C521.024 605.904 520.704 605.879 520.365 605.879C519.559 605.879 518.839 606.048 518.206 606.386C517.58 606.717 517.083 607.178 516.716 607.768C516.356 608.351 516.176 609.017 516.176 609.766V620.261H513.628ZM530.698 620.606C529.316 620.606 528.096 620.257 527.038 619.559C525.98 618.854 525.152 617.86 524.555 616.579C523.957 615.29 523.658 613.768 523.658 612.012C523.658 610.27 523.957 608.758 524.555 607.477C525.152 606.196 525.983 605.206 527.049 604.508C528.114 603.809 529.345 603.46 530.741 603.46C531.821 603.46 532.674 603.64 533.3 604C533.934 604.353 534.416 604.756 534.747 605.209C535.085 605.656 535.348 606.023 535.535 606.311H535.751V598.148H538.299V620.261H535.838V617.713H535.535C535.348 618.015 535.082 618.396 534.736 618.857C534.391 619.311 533.898 619.717 533.257 620.077C532.616 620.43 531.763 620.606 530.698 620.606ZM531.044 618.317C532.066 618.317 532.93 618.051 533.635 617.518C534.34 616.978 534.877 616.233 535.244 615.283C535.611 614.326 535.794 613.221 535.794 611.968C535.794 610.73 535.614 609.647 535.255 608.719C534.895 607.783 534.362 607.056 533.657 606.538C532.951 606.012 532.08 605.749 531.044 605.749C529.964 605.749 529.064 606.026 528.344 606.581C527.632 607.128 527.095 607.873 526.736 608.816C526.383 609.751 526.206 610.802 526.206 611.968C526.206 613.149 526.386 614.222 526.746 615.186C527.113 616.143 527.653 616.906 528.366 617.475C529.086 618.037 529.978 618.317 531.044 618.317Z" fill="#0B5CD5"/>
<rect x="402.711" y="727.08" width="34.2055" height="34.2055" rx="7.60123" stroke="#0B5CD5" stroke-width="1.90031" stroke-miterlimit="0" stroke-linejoin="bevel"/>
<path d="M462.398 755.182V733.07H469.87C471.598 733.07 473.016 733.365 474.124 733.955C475.233 734.538 476.053 735.341 476.586 736.363C477.119 737.385 477.385 738.548 477.385 739.85C477.385 741.153 477.119 742.309 476.586 743.316C476.053 744.324 475.236 745.116 474.135 745.692C473.034 746.26 471.626 746.545 469.913 746.545H463.867V744.126H469.827C471.007 744.126 471.958 743.953 472.677 743.608C473.404 743.262 473.93 742.773 474.254 742.139C474.585 741.499 474.75 740.736 474.75 739.85C474.75 738.965 474.585 738.191 474.254 737.529C473.923 736.867 473.394 736.356 472.667 735.996C471.94 735.629 470.979 735.445 469.784 735.445H465.076V755.182H462.398ZM472.807 745.249L478.249 755.182H475.139L469.784 745.249H472.807ZM488.277 755.528C486.679 755.528 485.3 755.175 484.141 754.47C482.99 753.757 482.101 752.764 481.474 751.49C480.855 750.209 480.546 748.719 480.546 747.02C480.546 745.321 480.855 743.824 481.474 742.528C482.101 741.225 482.972 740.21 484.087 739.483C485.21 738.749 486.52 738.382 488.017 738.382C488.881 738.382 489.734 738.526 490.576 738.814C491.419 739.102 492.185 739.57 492.876 740.218C493.567 740.858 494.118 741.708 494.528 742.766C494.938 743.824 495.144 745.127 495.144 746.674V747.754H482.36V745.551H492.552C492.552 744.616 492.365 743.781 491.991 743.046C491.624 742.312 491.098 741.733 490.414 741.308C489.738 740.883 488.939 740.671 488.017 740.671C487.003 740.671 486.124 740.923 485.383 741.427C484.649 741.924 484.084 742.571 483.688 743.37C483.292 744.169 483.094 745.026 483.094 745.94V747.409C483.094 748.661 483.31 749.723 483.742 750.594C484.181 751.457 484.789 752.116 485.566 752.57C486.344 753.016 487.247 753.239 488.277 753.239C488.946 753.239 489.551 753.145 490.091 752.958C490.638 752.764 491.109 752.476 491.505 752.094C491.901 751.706 492.207 751.224 492.423 750.648L494.884 751.339C494.625 752.174 494.19 752.908 493.578 753.541C492.966 754.168 492.21 754.657 491.311 755.01C490.411 755.355 489.399 755.528 488.277 755.528ZM499.02 755.182V738.598H501.482V741.189H501.698C502.043 740.304 502.601 739.617 503.371 739.127C504.141 738.63 505.066 738.382 506.146 738.382C507.24 738.382 508.151 738.63 508.878 739.127C509.612 739.617 510.184 740.304 510.594 741.189H510.767C511.192 740.333 511.829 739.653 512.678 739.149C513.528 738.638 514.546 738.382 515.734 738.382C517.217 738.382 518.43 738.846 519.373 739.775C520.315 740.696 520.787 742.132 520.787 744.083V755.182H518.239V744.083C518.239 742.859 517.904 741.985 517.235 741.459C516.565 740.934 515.777 740.671 514.87 740.671C513.704 740.671 512.801 741.024 512.16 741.729C511.519 742.427 511.199 743.313 511.199 744.385V755.182H508.608V743.824C508.608 742.881 508.302 742.121 507.69 741.546C507.078 740.963 506.29 740.671 505.325 740.671C504.663 740.671 504.044 740.847 503.468 741.2C502.9 741.553 502.439 742.042 502.086 742.669C501.741 743.288 501.568 744.004 501.568 744.817V755.182H499.02ZM532.399 755.528C530.801 755.528 529.423 755.175 528.264 754.47C527.112 753.757 526.223 752.764 525.597 751.49C524.978 750.209 524.669 748.719 524.669 747.02C524.669 745.321 524.978 743.824 525.597 742.528C526.223 741.225 527.094 740.21 528.21 739.483C529.333 738.749 530.643 738.382 532.14 738.382C533.004 738.382 533.857 738.526 534.699 738.814C535.541 739.102 536.308 739.57 536.999 740.218C537.69 740.858 538.241 741.708 538.651 742.766C539.061 743.824 539.266 745.127 539.266 746.674V747.754H526.482V745.551H536.675C536.675 744.616 536.488 743.781 536.114 743.046C535.746 742.312 535.221 741.733 534.537 741.308C533.861 740.883 533.062 740.671 532.14 740.671C531.125 740.671 530.247 740.923 529.506 741.427C528.771 741.924 528.206 742.571 527.811 743.37C527.415 744.169 527.217 745.026 527.217 745.94V747.409C527.217 748.661 527.433 749.723 527.865 750.594C528.304 751.457 528.912 752.116 529.689 752.57C530.467 753.016 531.37 753.239 532.399 753.239C533.069 753.239 533.673 753.145 534.213 752.958C534.76 752.764 535.232 752.476 535.628 752.094C536.024 751.706 536.33 751.224 536.545 750.648L539.007 751.339C538.748 752.174 538.313 752.908 537.701 753.541C537.089 754.168 536.333 754.657 535.433 755.01C534.534 755.355 533.522 755.528 532.399 755.528ZM543.143 755.182V738.598H545.604V741.189H545.82C546.166 740.304 546.724 739.617 547.494 739.127C548.264 738.63 549.189 738.382 550.269 738.382C551.363 738.382 552.273 738.63 553 739.127C553.735 739.617 554.307 740.304 554.717 741.189H554.89C555.315 740.333 555.952 739.653 556.801 739.149C557.65 738.638 558.669 738.382 559.857 738.382C561.339 738.382 562.552 738.846 563.495 739.775C564.438 740.696 564.91 742.132 564.91 744.083V755.182H562.362V744.083C562.362 742.859 562.027 741.985 561.357 741.459C560.688 740.934 559.9 740.671 558.993 740.671C557.827 740.671 556.923 741.024 556.283 741.729C555.642 742.427 555.322 743.313 555.322 744.385V755.182H552.73V743.824C552.73 742.881 552.425 742.121 551.813 741.546C551.201 740.963 550.413 740.671 549.448 740.671C548.786 740.671 548.167 740.847 547.591 741.2C547.022 741.553 546.562 742.042 546.209 742.669C545.863 743.288 545.691 744.004 545.691 744.817V755.182H543.143ZM569.914 755.182V733.07H572.462V741.233H572.678C572.865 740.945 573.125 740.577 573.456 740.131C573.794 739.678 574.276 739.275 574.903 738.922C575.536 738.562 576.393 738.382 577.472 738.382C578.869 738.382 580.1 738.731 581.165 739.429C582.23 740.128 583.062 741.117 583.659 742.399C584.256 743.68 584.555 745.191 584.555 746.933C584.555 748.69 584.256 750.212 583.659 751.501C583.062 752.782 582.234 753.775 581.176 754.481C580.118 755.179 578.897 755.528 577.515 755.528C576.45 755.528 575.597 755.352 574.956 754.999C574.316 754.639 573.823 754.232 573.477 753.779C573.132 753.318 572.865 752.937 572.678 752.634H572.376V755.182H569.914ZM572.419 746.89C572.419 748.143 572.603 749.248 572.97 750.205C573.337 751.155 573.873 751.9 574.579 752.44C575.284 752.973 576.148 753.239 577.17 753.239C578.235 753.239 579.124 752.958 579.837 752.397C580.557 751.828 581.096 751.065 581.456 750.108C581.824 749.143 582.007 748.071 582.007 746.89C582.007 745.724 581.827 744.673 581.467 743.737C581.114 742.795 580.578 742.05 579.858 741.502C579.146 740.948 578.25 740.671 577.17 740.671C576.133 740.671 575.262 740.934 574.557 741.459C573.852 741.978 573.319 742.705 572.959 743.64C572.599 744.569 572.419 745.652 572.419 746.89ZM595.406 755.528C593.808 755.528 592.43 755.175 591.271 754.47C590.119 753.757 589.23 752.764 588.604 751.49C587.985 750.209 587.676 748.719 587.676 747.02C587.676 745.321 587.985 743.824 588.604 742.528C589.23 741.225 590.101 740.21 591.217 739.483C592.34 738.749 593.65 738.382 595.147 738.382C596.011 738.382 596.864 738.526 597.706 738.814C598.548 739.102 599.315 739.57 600.006 740.218C600.697 740.858 601.248 741.708 601.658 742.766C602.068 743.824 602.273 745.127 602.273 746.674V747.754H589.49V745.551H599.682C599.682 744.616 599.495 743.781 599.121 743.046C598.754 742.312 598.228 741.733 597.544 741.308C596.868 740.883 596.069 740.671 595.147 740.671C594.132 740.671 593.254 740.923 592.513 741.427C591.779 741.924 591.213 742.571 590.818 743.37C590.422 744.169 590.224 745.026 590.224 745.94V747.409C590.224 748.661 590.44 749.723 590.872 750.594C591.311 751.457 591.919 752.116 592.696 752.57C593.474 753.016 594.377 753.239 595.406 753.239C596.076 753.239 596.68 753.145 597.22 752.958C597.767 752.764 598.239 752.476 598.635 752.094C599.031 751.706 599.337 751.224 599.553 750.648L602.014 751.339C601.755 752.174 601.32 752.908 600.708 753.541C600.096 754.168 599.34 754.657 598.44 755.01C597.541 755.355 596.529 755.528 595.406 755.528ZM606.15 755.182V738.598H608.611V741.103H608.784C609.086 740.282 609.633 739.617 610.425 739.105C611.217 738.594 612.11 738.339 613.103 738.339C613.29 738.339 613.524 738.342 613.805 738.35C614.086 738.357 614.298 738.368 614.442 738.382V740.973C614.355 740.952 614.158 740.919 613.848 740.876C613.546 740.826 613.225 740.801 612.887 740.801C612.081 740.801 611.361 740.97 610.728 741.308C610.101 741.639 609.605 742.1 609.238 742.69C608.878 743.273 608.698 743.939 608.698 744.688V755.182H606.15ZM626.014 755.182V738.598H628.475V741.189H628.691C629.037 740.304 629.595 739.617 630.365 739.127C631.135 738.63 632.06 738.382 633.14 738.382C634.234 738.382 635.145 738.63 635.872 739.127C636.606 739.617 637.178 740.304 637.588 741.189H637.761C638.186 740.333 638.823 739.653 639.672 739.149C640.522 738.638 641.54 738.382 642.728 738.382C644.211 738.382 645.423 738.846 646.366 739.775C647.309 740.696 647.781 742.132 647.781 744.083V755.182H645.233V744.083C645.233 742.859 644.898 741.985 644.229 741.459C643.559 740.934 642.771 740.671 641.864 740.671C640.698 740.671 639.795 741.024 639.154 741.729C638.513 742.427 638.193 743.313 638.193 744.385V755.182H635.602V743.824C635.602 742.881 635.296 742.121 634.684 741.546C634.072 740.963 633.284 740.671 632.319 740.671C631.657 740.671 631.038 740.847 630.462 741.2C629.894 741.553 629.433 742.042 629.08 742.669C628.735 743.288 628.562 744.004 628.562 744.817V755.182H626.014ZM659.393 755.528C657.795 755.528 656.417 755.175 655.258 754.47C654.106 753.757 653.217 752.764 652.591 751.49C651.972 750.209 651.662 748.719 651.662 747.02C651.662 745.321 651.972 743.824 652.591 742.528C653.217 741.225 654.088 740.21 655.204 739.483C656.327 738.749 657.637 738.382 659.134 738.382C659.998 738.382 660.851 738.526 661.693 738.814C662.535 739.102 663.302 739.57 663.993 740.218C664.684 740.858 665.235 741.708 665.645 742.766C666.055 743.824 666.26 745.127 666.26 746.674V747.754H653.476V745.551H663.669C663.669 744.616 663.482 743.781 663.108 743.046C662.74 742.312 662.215 741.733 661.531 741.308C660.854 740.883 660.055 740.671 659.134 740.671C658.119 740.671 657.241 740.923 656.5 741.427C655.765 741.924 655.2 742.571 654.804 743.37C654.409 744.169 654.211 745.026 654.211 745.94V747.409C654.211 748.661 654.427 749.723 654.858 750.594C655.298 751.457 655.906 752.116 656.683 752.57C657.461 753.016 658.364 753.239 659.393 753.239C660.063 753.239 660.667 753.145 661.207 752.958C661.754 752.764 662.226 752.476 662.622 752.094C663.018 751.706 663.323 751.224 663.539 750.648L666.001 751.339C665.742 752.174 665.307 752.908 664.695 753.541C664.083 754.168 663.327 754.657 662.427 755.01C661.528 755.355 660.516 755.528 659.393 755.528Z" fill="#0B5CD5"/>
<path d="M1256.23 755.479V733.366H1270.39V736.724H1260.23V742.727H1269.42V746.085H1260.23V755.479H1256.23ZM1279.89 755.802C1278.27 755.802 1276.86 755.446 1275.68 754.734C1274.49 754.021 1273.57 753.024 1272.91 751.743C1272.26 750.461 1271.94 748.964 1271.94 747.251C1271.94 745.538 1272.26 744.037 1272.91 742.749C1273.57 741.46 1274.49 740.46 1275.68 739.747C1276.86 739.034 1278.27 738.678 1279.89 738.678C1281.51 738.678 1282.91 739.034 1284.1 739.747C1285.29 740.46 1286.2 741.46 1286.85 742.749C1287.51 744.037 1287.83 745.538 1287.83 747.251C1287.83 748.964 1287.51 750.461 1286.85 751.743C1286.2 753.024 1285.29 754.021 1284.1 754.734C1282.91 755.446 1281.51 755.802 1279.89 755.802ZM1279.91 752.671C1280.79 752.671 1281.52 752.43 1282.11 751.948C1282.7 751.458 1283.14 750.803 1283.43 749.983C1283.72 749.162 1283.87 748.248 1283.87 747.24C1283.87 746.225 1283.72 745.308 1283.43 744.487C1283.14 743.659 1282.7 743.001 1282.11 742.511C1281.52 742.022 1280.79 741.777 1279.91 741.777C1279.01 741.777 1278.26 742.022 1277.66 742.511C1277.07 743.001 1276.63 743.659 1276.33 744.487C1276.05 745.308 1275.9 746.225 1275.9 747.24C1275.9 748.248 1276.05 749.162 1276.33 749.983C1276.63 750.803 1277.07 751.458 1277.66 751.948C1278.26 752.43 1279.01 752.671 1279.91 752.671ZM1291.15 755.479V738.894H1294.94V741.658H1295.11C1295.42 740.701 1295.93 739.963 1296.67 739.445C1297.41 738.919 1298.26 738.656 1299.21 738.656C1299.42 738.656 1299.66 738.667 1299.93 738.689C1300.2 738.703 1300.43 738.728 1300.61 738.764V742.36C1300.44 742.302 1300.18 742.252 1299.82 742.209C1299.47 742.158 1299.13 742.133 1298.8 742.133C1298.08 742.133 1297.44 742.288 1296.87 742.597C1296.31 742.9 1295.87 743.321 1295.55 743.861C1295.22 744.401 1295.06 745.023 1295.06 745.729V755.479H1291.15ZM1309.74 762.043C1308.33 762.043 1307.13 761.852 1306.12 761.471C1305.11 761.097 1304.3 760.593 1303.69 759.959C1303.08 759.326 1302.65 758.624 1302.42 757.854L1305.94 757.001C1306.09 757.325 1306.32 757.645 1306.63 757.962C1306.93 758.286 1307.34 758.552 1307.85 758.761C1308.36 758.977 1309.02 759.085 1309.8 759.085C1310.91 759.085 1311.83 758.815 1312.55 758.275C1313.28 757.742 1313.64 756.864 1313.64 755.64V752.498H1313.45C1313.25 752.902 1312.95 753.315 1312.56 753.74C1312.18 754.165 1311.68 754.521 1311.04 754.809C1310.42 755.097 1309.63 755.241 1308.68 755.241C1307.4 755.241 1306.25 754.942 1305.21 754.345C1304.18 753.74 1303.36 752.84 1302.75 751.646C1302.15 750.443 1301.84 748.939 1301.84 747.132C1301.84 745.311 1302.15 743.774 1302.75 742.522C1303.36 741.262 1304.19 740.308 1305.22 739.661C1306.26 739.006 1307.41 738.678 1308.69 738.678C1309.66 738.678 1310.46 738.844 1311.09 739.175C1311.72 739.499 1312.22 739.891 1312.6 740.352C1312.97 740.805 1313.26 741.233 1313.45 741.637H1313.67V738.894H1317.52V755.748C1317.52 757.166 1317.18 758.34 1316.51 759.268C1315.83 760.197 1314.9 760.892 1313.73 761.352C1312.56 761.813 1311.23 762.043 1309.74 762.043ZM1309.77 752.175C1310.6 752.175 1311.3 751.973 1311.88 751.57C1312.47 751.167 1312.91 750.587 1313.21 749.832C1313.52 749.076 1313.67 748.169 1313.67 747.111C1313.67 746.067 1313.52 745.153 1313.21 744.368C1312.92 743.584 1312.48 742.975 1311.9 742.543C1311.32 742.104 1310.61 741.885 1309.77 741.885C1308.9 741.885 1308.17 742.112 1307.59 742.565C1307 743.019 1306.57 743.641 1306.27 744.433C1305.98 745.218 1305.83 746.11 1305.83 747.111C1305.83 748.126 1305.98 749.015 1306.27 749.778C1306.57 750.533 1307.02 751.124 1307.6 751.548C1308.19 751.966 1308.91 752.175 1309.77 752.175ZM1328.76 755.802C1327.14 755.802 1325.74 755.446 1324.55 754.734C1323.36 754.021 1322.44 753.024 1321.79 751.743C1321.14 750.461 1320.81 748.964 1320.81 747.251C1320.81 745.538 1321.14 744.037 1321.79 742.749C1322.44 741.46 1323.36 740.46 1324.55 739.747C1325.74 739.034 1327.14 738.678 1328.76 738.678C1330.38 738.678 1331.78 739.034 1332.97 739.747C1334.16 740.46 1335.08 741.46 1335.72 742.749C1336.38 744.037 1336.71 745.538 1336.71 747.251C1336.71 748.964 1336.38 750.461 1335.72 751.743C1335.08 753.024 1334.16 754.021 1332.97 754.734C1331.78 755.446 1330.38 755.802 1328.76 755.802ZM1328.78 752.671C1329.66 752.671 1330.39 752.43 1330.99 751.948C1331.58 751.458 1332.01 750.803 1332.3 749.983C1332.6 749.162 1332.74 748.248 1332.74 747.24C1332.74 746.225 1332.6 745.308 1332.3 744.487C1332.01 743.659 1331.58 743.001 1330.99 742.511C1330.39 742.022 1329.66 741.777 1328.78 741.777C1327.88 741.777 1327.13 742.022 1326.54 742.511C1325.95 743.001 1325.5 743.659 1325.21 744.487C1324.92 745.308 1324.78 746.225 1324.78 747.24C1324.78 748.248 1324.92 749.162 1325.21 749.983C1325.5 750.803 1325.95 751.458 1326.54 751.948C1327.13 752.43 1327.88 752.671 1328.78 752.671ZM1348.31 738.894V741.917H1338.77V738.894H1348.31ZM1341.13 734.921H1345.03V750.49C1345.03 751.016 1345.11 751.419 1345.27 751.699C1345.44 751.973 1345.65 752.16 1345.92 752.261C1346.19 752.362 1346.48 752.412 1346.81 752.412C1347.05 752.412 1347.27 752.394 1347.48 752.358C1347.68 752.322 1347.84 752.29 1347.95 752.261L1348.61 755.317C1348.4 755.389 1348.1 755.468 1347.71 755.554C1347.33 755.64 1346.86 755.691 1346.31 755.705C1345.33 755.734 1344.45 755.586 1343.66 755.263C1342.88 754.931 1342.26 754.42 1341.8 753.729C1341.34 753.038 1341.12 752.175 1341.13 751.138V734.921ZM1359.12 761.698V738.894H1362.96V741.637H1363.19C1363.39 741.233 1363.67 740.805 1364.04 740.352C1364.41 739.891 1364.9 739.499 1365.53 739.175C1366.16 738.844 1366.96 738.678 1367.93 738.678C1369.21 738.678 1370.36 739.006 1371.39 739.661C1372.43 740.308 1373.25 741.269 1373.86 742.543C1374.47 743.81 1374.77 745.365 1374.77 747.208C1374.77 749.029 1374.47 750.577 1373.88 751.851C1373.28 753.125 1372.47 754.096 1371.44 754.766C1370.41 755.435 1369.24 755.77 1367.94 755.77C1366.99 755.77 1366.2 755.612 1365.57 755.295C1364.95 754.978 1364.44 754.597 1364.06 754.15C1363.69 753.697 1363.4 753.269 1363.19 752.866H1363.03V761.698H1359.12ZM1362.95 747.186C1362.95 748.259 1363.1 749.198 1363.4 750.004C1363.71 750.811 1364.16 751.44 1364.73 751.894C1365.31 752.34 1366.02 752.563 1366.85 752.563C1367.71 752.563 1368.44 752.333 1369.02 751.872C1369.6 751.404 1370.04 750.767 1370.34 749.961C1370.64 749.148 1370.79 748.223 1370.79 747.186C1370.79 746.157 1370.64 745.243 1370.35 744.444C1370.05 743.645 1369.61 743.019 1369.03 742.565C1368.45 742.112 1367.72 741.885 1366.85 741.885C1366.01 741.885 1365.3 742.104 1364.72 742.543C1364.14 742.983 1363.7 743.598 1363.39 744.39C1363.1 745.182 1362.95 746.114 1362.95 747.186ZM1382.89 755.813C1381.84 755.813 1380.9 755.626 1380.05 755.252C1379.22 754.87 1378.56 754.309 1378.07 753.567C1377.58 752.826 1377.34 751.912 1377.34 750.825C1377.34 749.889 1377.52 749.115 1377.86 748.504C1378.21 747.892 1378.68 747.402 1379.28 747.035C1379.87 746.668 1380.55 746.391 1381.29 746.204C1382.05 746.009 1382.83 745.869 1383.64 745.783C1384.61 745.682 1385.4 745.592 1386 745.513C1386.61 745.426 1387.05 745.297 1387.32 745.124C1387.6 744.944 1387.74 744.667 1387.74 744.293V744.228C1387.74 743.414 1387.5 742.785 1387.02 742.338C1386.53 741.892 1385.84 741.669 1384.93 741.669C1383.98 741.669 1383.22 741.878 1382.65 742.295C1382.1 742.713 1381.73 743.206 1381.53 743.774L1377.88 743.256C1378.17 742.248 1378.65 741.406 1379.31 740.73C1379.97 740.046 1380.78 739.535 1381.74 739.196C1382.69 738.851 1383.75 738.678 1384.91 738.678C1385.71 738.678 1386.51 738.772 1387.3 738.959C1388.09 739.146 1388.81 739.455 1389.47 739.887C1390.12 740.312 1390.65 740.892 1391.04 741.626C1391.45 742.36 1391.65 743.278 1391.65 744.379V755.479H1387.89V753.2H1387.76C1387.52 753.661 1387.19 754.093 1386.76 754.496C1386.33 754.892 1385.8 755.212 1385.15 755.457C1384.51 755.694 1383.76 755.813 1382.89 755.813ZM1383.91 752.941C1384.69 752.941 1385.37 752.786 1385.95 752.477C1386.52 752.16 1386.97 751.743 1387.28 751.224C1387.59 750.706 1387.75 750.141 1387.75 749.529V747.575C1387.63 747.676 1387.42 747.769 1387.13 747.856C1386.84 747.942 1386.51 748.018 1386.15 748.082C1385.79 748.147 1385.44 748.205 1385.08 748.255C1384.73 748.306 1384.43 748.349 1384.17 748.385C1383.58 748.464 1383.06 748.594 1382.6 748.773C1382.14 748.953 1381.78 749.205 1381.51 749.529C1381.24 749.846 1381.11 750.256 1381.11 750.76C1381.11 751.48 1381.37 752.023 1381.9 752.391C1382.42 752.758 1383.09 752.941 1383.91 752.941ZM1408.69 743.278L1405.12 743.666C1405.02 743.306 1404.85 742.968 1404.59 742.651C1404.35 742.335 1404.02 742.079 1403.6 741.885C1403.18 741.69 1402.67 741.593 1402.07 741.593C1401.25 741.593 1400.57 741.77 1400.02 742.122C1399.47 742.475 1399.2 742.932 1399.21 743.494C1399.2 743.976 1399.38 744.368 1399.74 744.671C1400.1 744.973 1400.71 745.221 1401.55 745.416L1404.38 746.02C1405.95 746.358 1407.11 746.895 1407.88 747.629C1408.65 748.363 1409.04 749.324 1409.04 750.512C1409.04 751.556 1408.73 752.477 1408.13 753.276C1407.53 754.068 1406.7 754.687 1405.63 755.133C1404.57 755.579 1403.34 755.802 1401.96 755.802C1399.93 755.802 1398.3 755.378 1397.06 754.528C1395.82 753.672 1395.08 752.48 1394.85 750.954L1398.66 750.587C1398.83 751.336 1399.2 751.901 1399.76 752.283C1400.32 752.664 1401.05 752.855 1401.95 752.855C1402.88 752.855 1403.62 752.664 1404.18 752.283C1404.75 751.901 1405.04 751.43 1405.04 750.868C1405.04 750.393 1404.85 750.001 1404.49 749.691C1404.13 749.382 1403.57 749.144 1402.8 748.979L1399.97 748.385C1398.38 748.054 1397.21 747.496 1396.44 746.711C1395.68 745.919 1395.3 744.919 1395.31 743.71C1395.3 742.687 1395.58 741.802 1396.14 741.053C1396.71 740.298 1397.5 739.715 1398.51 739.304C1399.52 738.887 1400.69 738.678 1402.01 738.678C1403.96 738.678 1405.49 739.092 1406.6 739.92C1407.73 740.748 1408.42 741.867 1408.69 743.278ZM1425.37 743.278L1421.81 743.666C1421.71 743.306 1421.53 742.968 1421.28 742.651C1421.04 742.335 1420.71 742.079 1420.29 741.885C1419.87 741.69 1419.36 741.593 1418.76 741.593C1417.94 741.593 1417.26 741.77 1416.7 742.122C1416.16 742.475 1415.89 742.932 1415.89 743.494C1415.89 743.976 1416.06 744.368 1416.42 744.671C1416.79 744.973 1417.39 745.221 1418.24 745.416L1421.07 746.02C1422.64 746.358 1423.8 746.895 1424.56 747.629C1425.33 748.363 1425.72 749.324 1425.73 750.512C1425.72 751.556 1425.42 752.477 1424.81 753.276C1424.22 754.068 1423.38 754.687 1422.32 755.133C1421.25 755.579 1420.03 755.802 1418.65 755.802C1416.62 755.802 1414.98 755.378 1413.75 754.528C1412.51 753.672 1411.77 752.48 1411.53 750.954L1415.34 750.587C1415.52 751.336 1415.88 751.901 1416.44 752.283C1417.01 752.664 1417.74 752.855 1418.64 752.855C1419.57 752.855 1420.31 752.664 1420.87 752.283C1421.44 751.901 1421.72 751.43 1421.72 750.868C1421.72 750.393 1421.54 750.001 1421.17 749.691C1420.81 749.382 1420.25 749.144 1419.49 748.979L1416.66 748.385C1415.07 748.054 1413.89 747.496 1413.13 746.711C1412.37 745.919 1411.99 744.919 1412 743.71C1411.99 742.687 1412.27 741.802 1412.83 741.053C1413.4 740.298 1414.18 739.715 1415.19 739.304C1416.21 738.887 1417.38 738.678 1418.7 738.678C1420.64 738.678 1422.17 739.092 1423.29 739.92C1424.41 740.748 1425.11 741.867 1425.37 743.278ZM1432.38 755.479L1427.69 738.894H1431.67L1434.59 750.555H1434.74L1437.72 738.894H1441.66L1444.64 750.49H1444.8L1447.68 738.894H1451.67L1446.97 755.479H1442.9L1439.79 744.271H1439.57L1436.46 755.479H1432.38ZM1461.16 755.802C1459.54 755.802 1458.14 755.446 1456.95 754.734C1455.76 754.021 1454.84 753.024 1454.18 751.743C1453.54 750.461 1453.21 748.964 1453.21 747.251C1453.21 745.538 1453.54 744.037 1454.18 742.749C1454.84 741.46 1455.76 740.46 1456.95 739.747C1458.14 739.034 1459.54 738.678 1461.16 738.678C1462.78 738.678 1464.18 739.034 1465.37 739.747C1466.56 740.46 1467.48 741.46 1468.12 742.749C1468.78 744.037 1469.11 745.538 1469.11 747.251C1469.11 748.964 1468.78 750.461 1468.12 751.743C1467.48 753.024 1466.56 754.021 1465.37 754.734C1464.18 755.446 1462.78 755.802 1461.16 755.802ZM1461.18 752.671C1462.06 752.671 1462.79 752.43 1463.38 751.948C1463.97 751.458 1464.41 750.803 1464.7 749.983C1465 749.162 1465.14 748.248 1465.14 747.24C1465.14 746.225 1465 745.308 1464.7 744.487C1464.41 743.659 1463.97 743.001 1463.38 742.511C1462.79 742.022 1462.06 741.777 1461.18 741.777C1460.28 741.777 1459.53 742.022 1458.93 742.511C1458.34 743.001 1457.9 743.659 1457.61 744.487C1457.32 745.308 1457.17 746.225 1457.17 747.24C1457.17 748.248 1457.32 749.162 1457.61 749.983C1457.9 750.803 1458.34 751.458 1458.93 751.948C1459.53 752.43 1460.28 752.671 1461.18 752.671ZM1472.42 755.479V738.894H1476.21V741.658H1476.39C1476.69 740.701 1477.21 739.963 1477.94 739.445C1478.68 738.919 1479.53 738.656 1480.48 738.656C1480.69 738.656 1480.93 738.667 1481.2 738.689C1481.47 738.703 1481.7 738.728 1481.88 738.764V742.36C1481.72 742.302 1481.45 742.252 1481.09 742.209C1480.74 742.158 1480.4 742.133 1480.07 742.133C1479.35 742.133 1478.71 742.288 1478.15 742.597C1477.58 742.9 1477.14 743.321 1476.82 743.861C1476.49 744.401 1476.33 745.023 1476.33 745.729V755.479H1472.42ZM1489.95 755.77C1488.65 755.77 1487.48 755.435 1486.45 754.766C1485.42 754.096 1484.61 753.125 1484.01 751.851C1483.41 750.577 1483.11 749.029 1483.11 747.208C1483.11 745.365 1483.42 743.81 1484.02 742.543C1484.63 741.269 1485.46 740.308 1486.49 739.661C1487.53 739.006 1488.69 738.678 1489.96 738.678C1490.93 738.678 1491.73 738.844 1492.36 739.175C1492.98 739.499 1493.48 739.891 1493.85 740.352C1494.21 740.805 1494.5 741.233 1494.7 741.637H1494.86V733.366H1498.78V755.479H1494.94V752.866H1494.7C1494.5 753.269 1494.21 753.697 1493.83 754.15C1493.44 754.597 1492.94 754.978 1492.31 755.295C1491.69 755.612 1490.9 755.77 1489.95 755.77ZM1491.04 752.563C1491.87 752.563 1492.57 752.34 1493.16 751.894C1493.74 751.44 1494.18 750.811 1494.48 750.004C1494.79 749.198 1494.94 748.259 1494.94 747.186C1494.94 746.114 1494.79 745.182 1494.48 744.39C1494.19 743.598 1493.75 742.983 1493.17 742.543C1492.59 742.104 1491.88 741.885 1491.04 741.885C1490.17 741.885 1489.44 742.112 1488.86 742.565C1488.28 743.019 1487.84 743.645 1487.54 744.444C1487.25 745.243 1487.1 746.157 1487.1 747.186C1487.1 748.223 1487.25 749.148 1487.54 749.961C1487.84 750.767 1488.29 751.404 1488.87 751.872C1489.46 752.333 1490.18 752.563 1491.04 752.563ZM1506.68 748.979V748.698C1506.69 747.395 1506.81 746.358 1507.05 745.588C1507.29 744.818 1507.64 744.199 1508.09 743.731C1508.53 743.256 1509.08 742.821 1509.72 742.425C1510.16 742.151 1510.55 741.852 1510.89 741.529C1511.25 741.197 1511.52 740.83 1511.72 740.427C1511.93 740.017 1512.03 739.56 1512.03 739.056C1512.03 738.487 1511.89 737.994 1511.63 737.577C1511.36 737.159 1511 736.835 1510.55 736.605C1510.1 736.375 1509.6 736.26 1509.05 736.26C1508.54 736.26 1508.05 736.371 1507.59 736.594C1507.14 736.81 1506.76 737.141 1506.46 737.588C1506.16 738.027 1505.99 738.585 1505.96 739.261H1502.12C1502.15 737.893 1502.48 736.749 1503.11 735.828C1503.74 734.906 1504.58 734.215 1505.61 733.755C1506.66 733.294 1507.81 733.064 1509.07 733.064C1510.44 733.064 1511.65 733.305 1512.7 733.787C1513.75 734.269 1514.56 734.957 1515.15 735.849C1515.74 736.735 1516.03 737.786 1516.03 739.002C1516.03 739.823 1515.9 740.557 1515.63 741.205C1515.37 741.852 1515 742.428 1514.52 742.932C1514.04 743.436 1513.47 743.886 1512.8 744.282C1512.22 744.642 1511.74 745.016 1511.37 745.405C1511 745.793 1510.73 746.251 1510.55 746.776C1510.38 747.294 1510.29 747.935 1510.28 748.698V748.979H1506.68ZM1508.56 755.716C1507.91 755.716 1507.36 755.486 1506.89 755.025C1506.42 754.564 1506.19 754.003 1506.19 753.341C1506.19 752.693 1506.42 752.139 1506.89 751.678C1507.36 751.217 1507.91 750.987 1508.56 750.987C1509.2 750.987 1509.76 751.217 1510.22 751.678C1510.7 752.139 1510.94 752.693 1510.94 753.341C1510.94 753.78 1510.82 754.179 1510.6 754.539C1510.39 754.899 1510.1 755.187 1509.74 755.403C1509.39 755.612 1508.99 755.716 1508.56 755.716Z" fill="#0B5CD5"/>
<rect x="400.811" y="829.696" width="1117.38" height="110.607" rx="11.4018" fill="#0B5CD5"/>
<path d="M915.247 878.458C915.121 877.279 914.59 876.361 913.654 875.704C912.727 875.048 911.522 874.719 910.037 874.719C908.993 874.719 908.098 874.877 907.351 875.192C906.604 875.506 906.033 875.934 905.637 876.474C905.241 877.014 905.039 877.63 905.03 878.323C905.03 878.899 905.16 879.398 905.421 879.821C905.691 880.244 906.056 880.604 906.514 880.901C906.973 881.188 907.482 881.431 908.04 881.629C908.597 881.827 909.16 881.994 909.727 882.129L912.318 882.777C913.362 883.02 914.365 883.348 915.328 883.762C916.299 884.176 917.168 884.698 917.932 885.327C918.706 885.957 919.318 886.718 919.768 887.608C920.218 888.499 920.443 889.543 920.443 890.74C920.443 892.359 920.029 893.785 919.201 895.018C918.373 896.242 917.177 897.2 915.611 897.893C914.054 898.576 912.169 898.918 909.956 898.918C907.806 898.918 905.939 898.585 904.355 897.92C902.78 897.254 901.548 896.282 900.657 895.004C899.775 893.727 899.298 892.17 899.226 890.335H904.153C904.225 891.297 904.521 892.098 905.043 892.737C905.565 893.376 906.245 893.853 907.081 894.168C907.927 894.483 908.872 894.64 909.916 894.64C911.004 894.64 911.958 894.478 912.777 894.154C913.605 893.821 914.252 893.362 914.72 892.777C915.188 892.184 915.427 891.491 915.436 890.699C915.427 889.979 915.215 889.385 914.801 888.917C914.387 888.441 913.807 888.045 913.06 887.73C912.322 887.406 911.459 887.118 910.469 886.866L907.324 886.056C905.048 885.471 903.248 884.585 901.926 883.397C900.612 882.201 899.955 880.613 899.955 878.633C899.955 877.005 900.396 875.578 901.278 874.355C902.169 873.131 903.379 872.182 904.908 871.507C906.438 870.823 908.17 870.481 910.105 870.481C912.066 870.481 913.785 870.823 915.26 871.507C916.745 872.182 917.91 873.122 918.756 874.328C919.602 875.524 920.038 876.901 920.065 878.458H915.247ZM924.691 898.5V877.769H929.577V898.5H924.691ZM927.147 874.827C926.373 874.827 925.708 874.571 925.15 874.058C924.592 873.536 924.313 872.911 924.313 872.182C924.313 871.444 924.592 870.819 925.15 870.306C925.708 869.784 926.373 869.523 927.147 869.523C927.93 869.523 928.596 869.784 929.145 870.306C929.703 870.819 929.981 871.444 929.981 872.182C929.981 872.911 929.703 873.536 929.145 874.058C928.596 874.571 927.93 874.827 927.147 874.827ZM943.616 906.706C941.862 906.706 940.355 906.467 939.095 905.991C937.835 905.523 936.823 904.893 936.058 904.101C935.293 903.309 934.763 902.432 934.466 901.469L938.866 900.403C939.063 900.808 939.351 901.208 939.729 901.604C940.107 902.009 940.616 902.342 941.254 902.603C941.902 902.873 942.717 903.008 943.697 903.008C945.083 903.008 946.23 902.67 947.139 901.996C948.048 901.33 948.502 900.232 948.502 898.702V894.775H948.259C948.007 895.279 947.638 895.796 947.152 896.327C946.676 896.858 946.041 897.303 945.249 897.663C944.467 898.023 943.481 898.203 942.294 898.203C940.701 898.203 939.257 897.83 937.961 897.083C936.675 896.327 935.649 895.202 934.884 893.709C934.128 892.206 933.75 890.326 933.75 888.067C933.75 885.791 934.128 883.87 934.884 882.304C935.649 880.73 936.679 879.537 937.975 878.728C939.27 877.909 940.715 877.499 942.307 877.499C943.522 877.499 944.521 877.706 945.303 878.12C946.095 878.525 946.725 879.016 947.193 879.591C947.661 880.158 948.016 880.694 948.259 881.197H948.529V877.769H953.347V898.837C953.347 900.61 952.924 902.077 952.079 903.237C951.233 904.398 950.077 905.266 948.61 905.842C947.143 906.418 945.479 906.706 943.616 906.706ZM943.657 894.37C944.692 894.37 945.573 894.118 946.302 893.614C947.031 893.11 947.584 892.386 947.962 891.441C948.34 890.497 948.529 889.363 948.529 888.04C948.529 886.736 948.34 885.593 947.962 884.612C947.593 883.631 947.044 882.871 946.316 882.331C945.596 881.782 944.71 881.508 943.657 881.508C942.568 881.508 941.659 881.791 940.931 882.358C940.202 882.925 939.653 883.703 939.284 884.693C938.915 885.674 938.731 886.79 938.731 888.04C938.731 889.309 938.915 890.42 939.284 891.374C939.662 892.319 940.215 893.056 940.944 893.587C941.682 894.109 942.586 894.37 943.657 894.37ZM963.24 886.353V898.5H958.354V877.769H963.024V881.292H963.267C963.744 880.131 964.504 879.209 965.548 878.525C966.601 877.841 967.901 877.499 969.449 877.499C970.879 877.499 972.125 877.805 973.187 878.417C974.258 879.029 975.086 879.915 975.67 881.076C976.264 882.237 976.557 883.645 976.548 885.3V898.5H971.662V886.056C971.662 884.671 971.302 883.586 970.582 882.804C969.871 882.021 968.886 881.629 967.627 881.629C966.772 881.629 966.011 881.818 965.346 882.196C964.689 882.565 964.171 883.1 963.794 883.802C963.425 884.504 963.24 885.354 963.24 886.353ZM990.942 898.5V877.769H995.828V898.5H990.942ZM993.398 874.827C992.624 874.827 991.959 874.571 991.401 874.058C990.843 873.536 990.564 872.911 990.564 872.182C990.564 871.444 990.843 870.819 991.401 870.306C991.959 869.784 992.624 869.523 993.398 869.523C994.181 869.523 994.847 869.784 995.396 870.306C995.953 870.819 996.232 871.444 996.232 872.182C996.232 872.911 995.953 873.536 995.396 874.058C994.847 874.571 994.181 874.827 993.398 874.827ZM1005.74 886.353V898.5H1000.85V877.769H1005.52V881.292H1005.76C1006.24 880.131 1007 879.209 1008.05 878.525C1009.1 877.841 1010.4 877.499 1011.95 877.499C1013.38 877.499 1014.62 877.805 1015.68 878.417C1016.75 879.029 1017.58 879.915 1018.17 881.076C1018.76 882.237 1019.05 883.645 1019.04 885.3V898.5H1014.16V886.056C1014.16 884.671 1013.8 883.586 1013.08 882.804C1012.37 882.021 1011.38 881.629 1010.12 881.629C1009.27 881.629 1008.51 881.818 1007.84 882.196C1007.19 882.565 1006.67 883.1 1006.29 883.802C1005.92 884.504 1005.74 885.354 1005.74 886.353Z" fill="white"/>
<rect x="730" y="266" width="204" height="97" rx="9" stroke="#FF6060" stroke-width="6"/>
<rect x="727" y="263" width="48" height="55" rx="8" fill="#FF6060"/>
<path d="M754.534 278.727V302H750.318V282.83H750.182L744.739 286.307V282.443L750.523 278.727H754.534Z" fill="white"/>
<rect x="365" y="399" width="1178" height="138" rx="9" stroke="#FF6060" stroke-width="6"/>
<rect x="362" y="396" width="52" height="55" rx="8" fill="#FF6060"/>
<path d="M380.068 435V431.955L388.148 424.034C388.92 423.254 389.564 422.561 390.08 421.955C390.595 421.348 390.981 420.761 391.239 420.193C391.496 419.625 391.625 419.019 391.625 418.375C391.625 417.64 391.458 417.011 391.125 416.489C390.792 415.958 390.333 415.549 389.75 415.261C389.167 414.973 388.504 414.83 387.761 414.83C386.996 414.83 386.326 414.989 385.75 415.307C385.174 415.617 384.727 416.061 384.409 416.636C384.098 417.212 383.943 417.898 383.943 418.693H379.932C379.932 417.216 380.269 415.932 380.943 414.841C381.617 413.75 382.545 412.905 383.727 412.307C384.917 411.708 386.28 411.409 387.818 411.409C389.379 411.409 390.75 411.701 391.932 412.284C393.114 412.867 394.03 413.667 394.682 414.682C395.341 415.697 395.67 416.856 395.67 418.159C395.67 419.03 395.504 419.886 395.17 420.727C394.837 421.568 394.25 422.5 393.409 423.523C392.576 424.545 391.405 425.784 389.898 427.239L385.886 431.318V431.477H396.023V435H380.068Z" fill="white"/>
<rect x="365" y="551" width="1178" height="138" rx="9" stroke="#FF6060" stroke-width="6"/>
<rect x="362" y="548" width="53" height="55" rx="8" fill="#FF6060"/>
<path d="M388.42 587.318C386.784 587.318 385.33 587.038 384.057 586.477C382.792 585.917 381.792 585.136 381.057 584.136C380.322 583.136 379.932 581.981 379.886 580.67H384.159C384.197 581.299 384.405 581.848 384.784 582.318C385.163 582.78 385.667 583.14 386.295 583.398C386.924 583.655 387.629 583.784 388.409 583.784C389.242 583.784 389.981 583.64 390.625 583.352C391.269 583.057 391.773 582.648 392.136 582.125C392.5 581.602 392.678 581 392.67 580.318C392.678 579.614 392.496 578.992 392.125 578.455C391.754 577.917 391.216 577.496 390.511 577.193C389.814 576.89 388.973 576.739 387.989 576.739H385.932V573.489H387.989C388.799 573.489 389.508 573.348 390.114 573.068C390.727 572.788 391.208 572.394 391.557 571.886C391.905 571.371 392.076 570.777 392.068 570.102C392.076 569.443 391.928 568.871 391.625 568.386C391.33 567.894 390.909 567.511 390.364 567.239C389.826 566.966 389.193 566.83 388.466 566.83C387.754 566.83 387.095 566.958 386.489 567.216C385.883 567.473 385.394 567.841 385.023 568.318C384.652 568.788 384.455 569.348 384.432 570H380.375C380.405 568.697 380.78 567.553 381.5 566.568C382.227 565.576 383.197 564.803 384.409 564.25C385.621 563.689 386.981 563.409 388.489 563.409C390.042 563.409 391.39 563.701 392.534 564.284C393.686 564.86 394.576 565.636 395.205 566.614C395.833 567.591 396.148 568.67 396.148 569.852C396.155 571.163 395.769 572.261 394.989 573.148C394.216 574.034 393.201 574.614 391.943 574.886V575.068C393.58 575.295 394.833 575.902 395.705 576.886C396.583 577.864 397.019 579.08 397.011 580.534C397.011 581.837 396.64 583.004 395.898 584.034C395.163 585.057 394.148 585.86 392.852 586.443C391.564 587.027 390.087 587.318 388.42 587.318Z" fill="white"/>
<rect x="365" y="700" width="379" height="89" rx="9" stroke="#FF6060" stroke-width="6"/>
<rect x="362" y="697" width="54" height="55" rx="8" fill="#FF6060"/>
<path d="M379.648 731.682V728.33L389.523 712.727H392.318V717.5H390.614L383.966 728.034V728.216H397.75V731.682H379.648ZM390.75 736V730.659L390.795 729.159V712.727H394.773V736H390.75Z" fill="white"/>
<rect x="1164" y="700" width="379" height="89" rx="9" stroke="#FF6060" stroke-width="6"/>
<rect x="1161" y="697" width="53" height="55" rx="8" fill="#FF6060"/>
<path d="M1187.16 736.318C1185.64 736.318 1184.29 736.034 1183.09 735.466C1181.89 734.89 1180.94 734.102 1180.24 733.102C1179.54 732.102 1179.17 730.958 1179.12 729.67H1183.22C1183.29 730.625 1183.7 731.405 1184.45 732.011C1185.2 732.61 1186.11 732.909 1187.16 732.909C1187.98 732.909 1188.72 732.72 1189.36 732.341C1190.01 731.962 1190.52 731.436 1190.89 730.761C1191.26 730.087 1191.44 729.318 1191.43 728.455C1191.44 727.576 1191.25 726.795 1190.88 726.114C1190.5 725.432 1189.98 724.898 1189.32 724.511C1188.66 724.117 1187.9 723.92 1187.05 723.92C1186.35 723.913 1185.66 724.042 1184.99 724.307C1184.31 724.572 1183.78 724.92 1183.39 725.352L1179.58 724.727L1180.8 712.727H1194.3V716.25H1184.28L1183.61 722.42H1183.75C1184.18 721.913 1184.79 721.492 1185.58 721.159C1186.37 720.818 1187.23 720.648 1188.17 720.648C1189.58 720.648 1190.84 720.981 1191.94 721.648C1193.05 722.307 1193.92 723.216 1194.56 724.375C1195.19 725.534 1195.51 726.86 1195.51 728.352C1195.51 729.89 1195.16 731.261 1194.44 732.466C1193.74 733.663 1192.76 734.606 1191.5 735.295C1190.25 735.977 1188.8 736.318 1187.16 736.318Z" fill="white"/>
<rect x="365" y="815" width="1178" height="139" rx="9" stroke="#FF6060" stroke-width="6"/>
<rect x="362" y="812" width="53" height="55" rx="8" fill="#FF6060"/>
<path d="M388.591 851.318C387.477 851.311 386.39 851.117 385.33 850.739C384.269 850.352 383.314 849.727 382.466 848.864C381.617 847.992 380.943 846.837 380.443 845.398C379.943 843.951 379.697 842.159 379.705 840.023C379.705 838.03 379.917 836.254 380.341 834.693C380.765 833.133 381.375 831.814 382.17 830.739C382.966 829.655 383.924 828.83 385.045 828.261C386.174 827.693 387.436 827.409 388.83 827.409C390.292 827.409 391.587 827.697 392.716 828.273C393.852 828.848 394.769 829.636 395.466 830.636C396.163 831.629 396.595 832.75 396.761 834H392.614C392.402 833.106 391.966 832.394 391.307 831.864C390.655 831.326 389.83 831.057 388.83 831.057C387.216 831.057 385.973 831.758 385.102 833.159C384.239 834.561 383.803 836.485 383.795 838.932H383.955C384.326 838.265 384.807 837.693 385.398 837.216C385.989 836.739 386.655 836.371 387.398 836.114C388.148 835.848 388.939 835.716 389.773 835.716C391.136 835.716 392.36 836.042 393.443 836.693C394.534 837.345 395.398 838.242 396.034 839.386C396.67 840.523 396.985 841.826 396.977 843.295C396.985 844.826 396.636 846.201 395.932 847.42C395.227 848.633 394.246 849.587 392.989 850.284C391.731 850.981 390.265 851.326 388.591 851.318ZM388.568 847.909C389.394 847.909 390.133 847.708 390.784 847.307C391.436 846.905 391.951 846.364 392.33 845.682C392.708 845 392.894 844.235 392.886 843.386C392.894 842.553 392.712 841.799 392.341 841.125C391.977 840.451 391.473 839.917 390.83 839.523C390.186 839.129 389.451 838.932 388.625 838.932C388.011 838.932 387.439 839.049 386.909 839.284C386.379 839.519 385.917 839.845 385.523 840.261C385.129 840.67 384.818 841.148 384.591 841.693C384.371 842.231 384.258 842.807 384.25 843.42C384.258 844.231 384.447 844.977 384.818 845.659C385.189 846.341 385.701 846.886 386.352 847.295C387.004 847.705 387.742 847.909 388.568 847.909Z" fill="white"/>
</svg>
