<svg width="1200" height="920" viewBox="0 0 1200 920" fill="none" xmlns="http://www.w3.org/2000/svg">
<rect width="1200" height="920" fill="white"/>
<rect x="270" y="194" width="660" height="200" rx="17.4257" fill="#E6DEFE"/>
<path d="M526.763 295.77C526.763 299.952 526.084 303.782 524.725 307.258C523.365 310.709 521.444 313.675 518.961 316.158C516.504 318.642 513.537 320.576 510.061 321.961C506.61 323.32 502.768 324 498.534 324H477.205V267.541H498.534C502.768 267.541 506.61 268.233 510.061 269.619C513.537 270.978 516.504 272.899 518.961 275.382C521.444 277.865 523.365 280.845 524.725 284.322C526.084 287.772 526.763 291.588 526.763 295.77ZM517.393 295.77C517.393 292.529 516.948 289.615 516.06 287.027C515.197 284.439 513.942 282.257 512.296 280.479C510.675 278.702 508.702 277.343 506.375 276.402C504.049 275.434 501.435 274.951 498.534 274.951H486.418V316.59H498.534C501.435 316.59 504.049 316.119 506.375 315.178C508.702 314.237 510.675 312.878 512.296 311.101C513.942 309.297 515.197 307.114 516.06 304.553C516.948 301.965 517.393 299.038 517.393 295.77ZM560.985 299.495C560.985 298.084 560.775 296.777 560.357 295.574C559.965 294.346 559.377 293.287 558.593 292.398C557.809 291.484 556.828 290.778 555.652 290.281C554.502 289.758 553.169 289.497 551.653 289.497C548.595 289.497 546.19 290.373 544.439 292.124C542.688 293.875 541.577 296.332 541.106 299.495H560.985ZM540.871 304.67C540.975 306.945 541.328 308.918 541.929 310.591C542.531 312.238 543.328 313.61 544.321 314.708C545.341 315.806 546.543 316.629 547.928 317.178C549.34 317.701 550.908 317.962 552.633 317.962C554.28 317.962 555.705 317.779 556.907 317.413C558.109 317.021 559.155 316.603 560.044 316.158C560.932 315.688 561.69 315.27 562.318 314.904C562.945 314.512 563.52 314.316 564.043 314.316C564.722 314.316 565.245 314.577 565.611 315.1L568.003 318.197C567.009 319.373 565.886 320.367 564.631 321.177C563.376 321.987 562.043 322.654 560.632 323.177C559.22 323.673 557.769 324.026 556.28 324.235C554.79 324.47 553.339 324.588 551.928 324.588C549.157 324.588 546.582 324.131 544.204 323.216C541.851 322.275 539.799 320.903 538.048 319.099C536.323 317.295 534.964 315.061 533.97 312.394C533.003 309.728 532.52 306.657 532.52 303.181C532.52 300.41 532.951 297.822 533.813 295.417C534.702 293.013 535.957 290.922 537.577 289.144C539.224 287.367 541.211 285.968 543.537 284.949C545.889 283.903 548.543 283.381 551.496 283.381C553.953 283.381 556.227 283.786 558.318 284.596C560.409 285.38 562.213 286.543 563.729 288.086C565.245 289.628 566.421 291.523 567.258 293.771C568.12 295.992 568.552 298.528 568.552 301.377C568.552 302.684 568.408 303.56 568.12 304.004C567.833 304.448 567.31 304.67 566.552 304.67H540.871ZM578.582 324V290.712L574.661 290.164C574.008 290.033 573.472 289.798 573.054 289.458C572.662 289.118 572.466 288.634 572.466 288.007V284.557H578.582V281.185C578.582 278.911 578.909 276.872 579.562 275.069C580.242 273.265 581.196 271.736 582.425 270.481C583.679 269.227 585.195 268.272 586.973 267.619C588.75 266.939 590.75 266.6 592.971 266.6C593.886 266.6 594.749 266.665 595.559 266.796C596.396 266.926 597.206 267.122 597.99 267.384L597.833 271.618C597.781 272.324 597.428 272.742 596.775 272.873C596.147 273.004 595.35 273.069 594.383 273.069C593.207 273.069 592.148 273.213 591.207 273.5C590.266 273.762 589.456 274.219 588.776 274.872C588.123 275.526 587.613 276.389 587.247 277.46C586.907 278.532 586.737 279.865 586.737 281.459V284.557H597.676V290.634H587.012V324H578.582ZM624.89 306.513C621.884 306.618 619.348 306.866 617.283 307.258C615.218 307.624 613.546 308.108 612.265 308.709C610.984 309.284 610.056 309.977 609.481 310.787C608.932 311.597 608.658 312.486 608.658 313.453C608.658 314.394 608.801 315.204 609.089 315.884C609.403 316.537 609.821 317.086 610.344 317.531C610.893 317.949 611.52 318.263 612.226 318.472C612.958 318.655 613.755 318.746 614.617 318.746C616.813 318.746 618.695 318.341 620.263 317.531C621.858 316.694 623.4 315.492 624.89 313.924V306.513ZM602.541 289.575C607.063 285.367 612.448 283.263 618.695 283.263C620.995 283.263 623.034 283.642 624.811 284.4C626.615 285.132 628.118 286.177 629.32 287.537C630.549 288.896 631.477 290.516 632.104 292.398C632.758 294.254 633.084 296.319 633.084 298.593V324H629.32C628.51 324 627.896 323.882 627.478 323.647C627.059 323.386 626.706 322.876 626.419 322.118L625.596 318.864C624.576 319.779 623.57 320.602 622.577 321.334C621.583 322.04 620.551 322.641 619.479 323.137C618.434 323.634 617.297 324 616.068 324.235C614.866 324.497 613.533 324.627 612.069 324.627C610.448 324.627 608.932 324.405 607.521 323.961C606.135 323.516 604.933 322.85 603.914 321.961C602.894 321.046 602.084 319.922 601.483 318.589C600.908 317.256 600.62 315.688 600.62 313.884C600.62 312.342 601.025 310.839 601.836 309.375C602.672 307.912 604.031 306.605 605.913 305.455C607.821 304.278 610.318 303.311 613.402 302.553C616.512 301.795 620.342 301.364 624.89 301.259V298.593C624.89 295.718 624.276 293.575 623.047 292.163C621.818 290.752 620.015 290.046 617.636 290.046C616.016 290.046 614.657 290.255 613.559 290.673C612.461 291.065 611.507 291.497 610.697 291.967C609.886 292.438 609.167 292.882 608.54 293.3C607.913 293.692 607.246 293.888 606.54 293.888C605.965 293.888 605.469 293.745 605.051 293.457C604.658 293.143 604.332 292.764 604.07 292.32L602.541 289.575ZM676.678 284.008V324H671.581C670.457 324 669.738 323.464 669.424 322.392L668.797 318.668C667.961 319.556 667.072 320.367 666.131 321.099C665.216 321.83 664.236 322.458 663.19 322.981C662.145 323.503 661.021 323.909 659.819 324.196C658.642 324.484 657.375 324.627 656.015 324.627C653.82 324.627 651.885 324.261 650.213 323.53C648.54 322.798 647.128 321.765 645.978 320.432C644.854 319.099 644.005 317.505 643.43 315.649C642.855 313.767 642.567 311.702 642.567 309.454V284.008H650.997V309.454C650.997 312.146 651.611 314.237 652.84 315.727C654.094 317.217 655.989 317.962 658.525 317.962C660.381 317.962 662.106 317.544 663.7 316.707C665.321 315.845 666.837 314.669 668.248 313.179V284.008H676.678ZM695.501 265.972V324H687.072V265.972H695.501ZM718.727 324.627C715.408 324.627 712.846 323.699 711.042 321.844C709.265 319.962 708.376 317.322 708.376 313.924V290.634H703.985C703.515 290.634 703.109 290.49 702.77 290.203C702.43 289.889 702.26 289.432 702.26 288.83V285.419L708.729 284.478L710.572 272.912C710.703 272.468 710.925 272.115 711.238 271.853C711.552 271.566 711.97 271.422 712.493 271.422H716.806V284.557H727.902V290.634H716.806V313.335C716.806 314.773 717.159 315.871 717.865 316.629C718.57 317.387 719.511 317.766 720.688 317.766C721.341 317.766 721.903 317.688 722.374 317.531C722.844 317.348 723.249 317.165 723.589 316.982C723.929 316.773 724.216 316.59 724.452 316.433C724.713 316.25 724.961 316.158 725.197 316.158C725.667 316.158 726.046 316.42 726.334 316.943L728.843 321.059C727.536 322.21 725.994 323.098 724.216 323.726C722.439 324.327 720.609 324.627 718.727 324.627Z" fill="#3B2C7D"/>
<rect x="274.356" y="529.446" width="651.287" height="191.287" rx="13.0693" fill="#E6DEFE"/>
<rect x="274.356" y="529.446" width="651.287" height="191.287" rx="13.0693" stroke="#3B2C7D" stroke-width="8.71287"/>
<path d="M471.918 606.04V624.115H493.992V631.525H471.918V655.089H462.705V598.63H497.913V606.04H471.918ZM519.32 614.47C522.273 614.47 524.939 614.954 527.318 615.921C529.723 616.888 531.762 618.26 533.434 620.037C535.133 621.815 536.44 623.971 537.355 626.507C538.27 629.042 538.727 631.891 538.727 635.054C538.727 638.217 538.27 641.066 537.355 643.601C536.44 646.137 535.133 648.306 533.434 650.11C531.762 651.887 529.723 653.26 527.318 654.227C524.939 655.194 522.273 655.677 519.32 655.677C516.34 655.677 513.647 655.194 511.243 654.227C508.864 653.26 506.825 651.887 505.126 650.11C503.427 648.306 502.12 646.137 501.206 643.601C500.291 641.066 499.833 638.217 499.833 635.054C499.833 631.891 500.291 629.042 501.206 626.507C502.12 623.971 503.427 621.815 505.126 620.037C506.825 618.26 508.864 616.888 511.243 615.921C513.647 614.954 516.34 614.47 519.32 614.47ZM519.32 649.091C522.927 649.091 525.606 647.888 527.357 645.483C529.135 643.053 530.023 639.589 530.023 635.093C530.023 630.597 529.135 627.134 527.357 624.703C525.606 622.246 522.927 621.018 519.32 621.018C515.66 621.018 512.942 622.246 511.164 624.703C509.387 627.134 508.498 630.597 508.498 635.093C508.498 639.589 509.387 643.053 511.164 645.483C512.942 647.888 515.66 649.091 519.32 649.091ZM575.096 622.939C574.835 623.279 574.586 623.54 574.351 623.723C574.116 623.906 573.776 623.997 573.332 623.997C572.887 623.997 572.417 623.841 571.92 623.527C571.45 623.213 570.875 622.874 570.195 622.508C569.541 622.115 568.744 621.763 567.803 621.449C566.862 621.135 565.686 620.978 564.275 620.978C562.445 620.978 560.837 621.305 559.452 621.959C558.093 622.612 556.943 623.553 556.002 624.782C555.087 625.984 554.394 627.461 553.924 629.212C553.479 630.937 553.257 632.885 553.257 635.054C553.257 637.302 553.505 639.302 554.002 641.053C554.499 642.804 555.204 644.281 556.119 645.483C557.06 646.686 558.184 647.601 559.491 648.228C560.824 648.855 562.314 649.169 563.961 649.169C565.581 649.169 566.901 648.973 567.921 648.581C568.94 648.189 569.79 647.757 570.469 647.287C571.149 646.816 571.724 646.385 572.195 645.993C572.691 645.601 573.214 645.405 573.763 645.405C574.442 645.405 574.965 645.666 575.331 646.189L577.723 649.287C576.756 650.463 575.684 651.456 574.508 652.266C573.332 653.077 572.09 653.743 570.783 654.266C569.476 654.763 568.117 655.115 566.705 655.325C565.294 655.56 563.869 655.677 562.432 655.677C559.949 655.677 557.622 655.22 555.453 654.305C553.309 653.364 551.427 652.018 549.807 650.267C548.212 648.489 546.945 646.333 546.004 643.797C545.089 641.236 544.631 638.321 544.631 635.054C544.631 632.1 545.05 629.369 545.886 626.86C546.722 624.324 547.938 622.142 549.532 620.312C551.153 618.482 553.153 617.058 555.531 616.038C557.91 614.993 560.654 614.47 563.765 614.47C566.666 614.47 569.215 614.94 571.41 615.881C573.632 616.822 575.606 618.155 577.331 619.881L575.096 622.939ZM618.222 615.097V655.089H613.125C612.001 655.089 611.282 654.554 610.969 653.482L610.341 649.757C609.505 650.646 608.616 651.456 607.675 652.188C606.76 652.92 605.78 653.547 604.735 654.07C603.689 654.593 602.565 654.998 601.363 655.285C600.187 655.573 598.919 655.717 597.56 655.717C595.364 655.717 593.43 655.351 591.757 654.619C590.084 653.887 588.672 652.855 587.522 651.521C586.398 650.188 585.549 648.594 584.974 646.738C584.399 644.856 584.111 642.791 584.111 640.543V615.097H592.541V640.543C592.541 643.235 593.155 645.327 594.384 646.816C595.638 648.306 597.533 649.051 600.069 649.051C601.925 649.051 603.65 648.633 605.244 647.797C606.865 646.934 608.381 645.758 609.792 644.268V615.097H618.222ZM652.337 622.351C652.128 622.717 651.892 622.978 651.631 623.135C651.37 623.292 651.043 623.37 650.651 623.37C650.206 623.37 649.723 623.239 649.2 622.978C648.677 622.691 648.063 622.377 647.357 622.037C646.652 621.697 645.815 621.397 644.848 621.135C643.907 620.848 642.796 620.704 641.515 620.704C640.47 620.704 639.516 620.835 638.653 621.096C637.817 621.331 637.098 621.684 636.497 622.155C635.922 622.599 635.477 623.135 635.164 623.762C634.85 624.363 634.693 625.017 634.693 625.723C634.693 626.664 634.981 627.448 635.556 628.075C636.131 628.702 636.889 629.251 637.83 629.722C638.771 630.166 639.842 630.571 641.045 630.937C642.247 631.303 643.476 631.695 644.73 632.114C645.985 632.532 647.214 633.015 648.416 633.564C649.618 634.113 650.69 634.793 651.631 635.603C652.572 636.387 653.33 637.354 653.905 638.504C654.48 639.628 654.768 641.001 654.768 642.621C654.768 644.503 654.428 646.241 653.748 647.836C653.069 649.43 652.075 650.816 650.768 651.992C649.461 653.168 647.828 654.083 645.867 654.736C643.933 655.39 641.711 655.717 639.202 655.717C637.817 655.717 636.471 655.586 635.164 655.325C633.883 655.089 632.654 654.763 631.478 654.344C630.328 653.9 629.243 653.377 628.224 652.776C627.231 652.175 626.342 651.521 625.558 650.816L627.518 647.601C627.753 647.209 628.041 646.908 628.381 646.699C628.747 646.464 629.191 646.346 629.714 646.346C630.263 646.346 630.799 646.529 631.321 646.895C631.87 647.235 632.498 647.614 633.203 648.032C633.935 648.45 634.811 648.842 635.83 649.208C636.85 649.548 638.117 649.718 639.633 649.718C640.888 649.718 641.973 649.574 642.888 649.287C643.802 648.973 644.561 648.555 645.162 648.032C645.763 647.509 646.207 646.921 646.495 646.268C646.782 645.588 646.926 644.869 646.926 644.111C646.926 643.092 646.639 642.255 646.063 641.602C645.488 640.948 644.717 640.386 643.75 639.916C642.809 639.445 641.724 639.027 640.496 638.661C639.294 638.295 638.065 637.903 636.81 637.485C635.556 637.067 634.314 636.583 633.086 636.034C631.883 635.485 630.799 634.793 629.831 633.956C628.89 633.094 628.132 632.061 627.557 630.859C626.982 629.63 626.695 628.14 626.695 626.389C626.695 624.795 627.008 623.279 627.636 621.841C628.289 620.403 629.23 619.136 630.459 618.038C631.713 616.94 633.242 616.077 635.046 615.45C636.876 614.797 638.98 614.47 641.359 614.47C644.051 614.47 646.495 614.901 648.69 615.764C650.886 616.626 652.729 617.803 654.219 619.293L652.337 622.351ZM688.92 630.584C688.92 629.173 688.71 627.866 688.292 626.664C687.9 625.435 687.312 624.376 686.528 623.488C685.744 622.573 684.764 621.867 683.587 621.371C682.437 620.848 681.104 620.586 679.588 620.586C676.53 620.586 674.125 621.462 672.374 623.213C670.623 624.965 669.512 627.422 669.041 630.584H688.92ZM668.806 635.76C668.91 638.034 669.263 640.007 669.865 641.68C670.466 643.327 671.263 644.699 672.256 645.797C673.276 646.895 674.478 647.718 675.863 648.267C677.275 648.79 678.843 649.051 680.568 649.051C682.215 649.051 683.64 648.868 684.842 648.502C686.044 648.11 687.09 647.692 687.979 647.248C688.867 646.777 689.625 646.359 690.253 645.993C690.88 645.601 691.455 645.405 691.978 645.405C692.657 645.405 693.18 645.666 693.546 646.189L695.938 649.287C694.945 650.463 693.821 651.456 692.566 652.266C691.311 653.077 689.978 653.743 688.567 654.266C687.155 654.763 685.705 655.115 684.215 655.325C682.725 655.56 681.274 655.677 679.863 655.677C677.092 655.677 674.517 655.22 672.139 654.305C669.786 653.364 667.734 651.992 665.983 650.188C664.258 648.385 662.899 646.15 661.905 643.484C660.938 640.818 660.455 637.746 660.455 634.27C660.455 631.499 660.886 628.912 661.748 626.507C662.637 624.102 663.892 622.011 665.512 620.234C667.159 618.456 669.146 617.058 671.472 616.038C673.825 614.993 676.478 614.47 679.431 614.47C681.888 614.47 684.162 614.875 686.253 615.685C688.345 616.47 690.148 617.633 691.664 619.175C693.18 620.717 694.356 622.612 695.193 624.86C696.055 627.082 696.487 629.617 696.487 632.466C696.487 633.773 696.343 634.649 696.055 635.093C695.768 635.538 695.245 635.76 694.487 635.76H668.806ZM729.872 624.938C728.696 623.422 727.402 622.364 725.991 621.763C724.579 621.161 723.05 620.861 721.403 620.861C718.11 620.861 715.535 622.076 713.679 624.507C711.824 626.912 710.896 630.48 710.896 635.211C710.896 637.668 711.105 639.772 711.523 641.523C711.941 643.249 712.542 644.66 713.327 645.758C714.111 646.856 715.065 647.653 716.189 648.15C717.313 648.646 718.58 648.895 719.992 648.895C722.135 648.895 723.978 648.437 725.52 647.522C727.088 646.581 728.539 645.261 729.872 643.562V624.938ZM738.302 597.062V655.089H733.205C732.081 655.089 731.362 654.554 731.048 653.482L730.304 649.13C728.631 651.09 726.723 652.672 724.579 653.874C722.462 655.076 719.992 655.677 717.169 655.677C714.921 655.677 712.882 655.233 711.052 654.344C709.223 653.43 707.654 652.11 706.347 650.384C705.041 648.659 704.021 646.529 703.289 643.994C702.584 641.432 702.231 638.504 702.231 635.211C702.231 632.231 702.623 629.474 703.407 626.938C704.217 624.403 705.367 622.207 706.857 620.351C708.347 618.469 710.151 617.005 712.268 615.96C714.411 614.888 716.803 614.352 719.443 614.352C721.795 614.352 723.795 614.731 725.442 615.489C727.088 616.221 728.565 617.254 729.872 618.587V597.062H738.302Z" fill="#3B2C7D"/>
</svg>
