<svg width="1920" height="1352" viewBox="0 0 1920 1352" fill="none" xmlns="http://www.w3.org/2000/svg">
<rect width="1920" height="1352" fill="#D9E7FE"/>
<rect x="340" y="130" width="1239" height="1092.81" rx="22.8037" fill="white"/>
<path d="M438.081 228.721C437.817 226.246 436.702 224.318 434.737 222.939C432.79 221.56 430.259 220.87 427.141 220.87C424.949 220.87 423.069 221.201 421.501 221.862C419.932 222.523 418.733 223.421 417.901 224.555C417.07 225.688 416.645 226.983 416.626 228.438C416.626 229.647 416.9 230.696 417.448 231.584C418.015 232.472 418.78 233.227 419.743 233.851C420.707 234.456 421.775 234.966 422.946 235.382C424.118 235.797 425.299 236.147 426.489 236.43L431.931 237.791C434.123 238.301 436.229 238.99 438.251 239.86C440.292 240.729 442.115 241.825 443.721 243.147C445.346 244.47 446.631 246.067 447.576 247.937C448.521 249.808 448.993 252 448.993 254.513C448.993 257.914 448.124 260.909 446.386 263.497C444.647 266.067 442.134 268.079 438.846 269.534C435.578 270.97 431.619 271.688 426.971 271.688C422.455 271.688 418.534 270.989 415.209 269.591C411.902 268.193 409.313 266.152 407.443 263.469C405.591 260.786 404.59 257.517 404.438 253.663H414.783C414.935 255.684 415.558 257.366 416.654 258.708C417.75 260.049 419.177 261.05 420.934 261.712C422.71 262.373 424.694 262.704 426.886 262.704C429.172 262.704 431.175 262.364 432.894 261.683C434.633 260.984 435.993 260.021 436.976 258.793C437.958 257.545 438.459 256.091 438.478 254.428C438.459 252.916 438.015 251.669 437.146 250.687C436.277 249.685 435.058 248.854 433.49 248.192C431.94 247.512 430.126 246.908 428.048 246.378L421.444 244.678C416.664 243.45 412.885 241.589 410.107 239.094C407.348 236.581 405.969 233.246 405.969 229.089C405.969 225.669 406.895 222.675 408.746 220.105C410.617 217.535 413.158 215.542 416.371 214.125C419.583 212.688 423.22 211.97 427.283 211.97C431.402 211.97 435.011 212.688 438.109 214.125C441.227 215.542 443.674 217.516 445.45 220.048C447.226 222.561 448.143 225.452 448.199 228.721H438.081ZM457.154 270.81V227.276H467.414V270.81H457.154ZM462.312 221.097C460.687 221.097 459.289 220.558 458.117 219.481C456.946 218.385 456.36 217.072 456.36 215.542C456.36 213.992 456.946 212.679 458.117 211.602C459.289 210.506 460.687 209.958 462.312 209.958C463.956 209.958 465.354 210.506 466.507 211.602C467.678 212.679 468.264 213.992 468.264 215.542C468.264 217.072 467.678 218.385 466.507 219.481C465.354 220.558 463.956 221.097 462.312 221.097ZM496.137 288.042C492.453 288.042 489.288 287.541 486.642 286.54C483.997 285.557 481.871 284.235 480.265 282.572C478.659 280.909 477.544 279.067 476.921 277.045L486.161 274.806C486.576 275.656 487.181 276.497 487.974 277.329C488.768 278.179 489.836 278.878 491.177 279.426C492.538 279.993 494.248 280.276 496.307 280.276C499.217 280.276 501.626 279.568 503.535 278.151C505.443 276.752 506.397 274.447 506.397 271.235V262.987H505.887C505.358 264.045 504.583 265.132 503.563 266.247C502.561 267.361 501.229 268.297 499.567 269.053C497.923 269.808 495.854 270.186 493.36 270.186C490.015 270.186 486.982 269.402 484.262 267.834C481.56 266.247 479.406 263.885 477.799 260.748C476.212 257.593 475.419 253.644 475.419 248.901C475.419 244.12 476.212 240.086 477.799 236.799C479.406 233.492 481.569 230.988 484.29 229.288C487.011 227.568 490.043 226.709 493.388 226.709C495.939 226.709 498.036 227.143 499.68 228.012C501.343 228.863 502.665 229.892 503.648 231.102C504.63 232.292 505.377 233.416 505.887 234.475H506.454V227.276H516.572V271.518C516.572 275.241 515.684 278.321 513.908 280.758C512.132 283.196 509.704 285.019 506.624 286.228C503.544 287.437 500.048 288.042 496.137 288.042ZM496.222 262.137C498.395 262.137 500.247 261.608 501.777 260.55C503.308 259.492 504.47 257.971 505.263 255.987C506.057 254.003 506.454 251.622 506.454 248.844C506.454 246.104 506.057 243.705 505.263 241.645C504.489 239.586 503.336 237.989 501.806 236.855C500.294 235.703 498.433 235.126 496.222 235.126C493.936 235.126 492.027 235.722 490.497 236.912C488.966 238.102 487.814 239.737 487.039 241.815C486.264 243.875 485.877 246.218 485.877 248.844C485.877 251.508 486.264 253.842 487.039 255.845C487.833 257.829 488.995 259.378 490.525 260.493C492.075 261.589 493.974 262.137 496.222 262.137ZM536.587 245.301V270.81H526.327V227.276H536.134V234.673H536.644C537.645 232.235 539.242 230.299 541.434 228.863C543.645 227.427 546.375 226.709 549.625 226.709C552.629 226.709 555.246 227.351 557.476 228.636C559.724 229.921 561.463 231.782 562.691 234.219C563.938 236.657 564.552 239.614 564.533 243.091V270.81H554.273V244.678C554.273 241.768 553.517 239.491 552.006 237.847C550.513 236.203 548.444 235.382 545.799 235.382C544.004 235.382 542.407 235.778 541.009 236.572C539.629 237.347 538.543 238.471 537.749 239.945C536.975 241.418 536.587 243.204 536.587 245.301ZM593.24 270.81V227.276H603.5V270.81H593.24ZM598.399 221.097C596.774 221.097 595.375 220.558 594.204 219.481C593.032 218.385 592.447 217.072 592.447 215.542C592.447 213.992 593.032 212.679 594.204 211.602C595.375 210.506 596.774 209.958 598.399 209.958C600.042 209.958 601.441 210.506 602.593 211.602C603.765 212.679 604.351 213.992 604.351 215.542C604.351 217.072 603.765 218.385 602.593 219.481C601.441 220.558 600.042 221.097 598.399 221.097ZM623.551 245.301V270.81H613.291V227.276H623.097V234.673H623.607C624.609 232.235 626.205 230.299 628.397 228.863C630.608 227.427 633.338 226.709 636.588 226.709C639.593 226.709 642.21 227.351 644.439 228.636C646.688 229.921 648.426 231.782 649.654 234.219C650.901 236.657 651.515 239.614 651.497 243.091V270.81H641.237V244.678C641.237 241.768 640.481 239.491 638.969 237.847C637.476 236.203 635.407 235.382 632.762 235.382C630.967 235.382 629.37 235.778 627.972 236.572C626.593 237.347 625.506 238.471 624.713 239.945C623.938 241.418 623.551 243.204 623.551 245.301Z" fill="#0B5CD5"/>
<path d="M410.312 375.417H403.488V353.305H410.614C412.759 353.305 414.595 353.747 416.121 354.633C417.647 355.511 418.817 356.774 419.63 358.422C420.443 360.064 420.85 362.029 420.85 364.318C420.85 366.621 420.44 368.604 419.619 370.267C418.799 371.923 417.604 373.197 416.035 374.089C414.465 374.975 412.558 375.417 410.312 375.417ZM406.166 373.042H410.139C411.968 373.042 413.483 372.689 414.685 371.984C415.887 371.278 416.783 370.274 417.373 368.971C417.964 367.668 418.259 366.117 418.259 364.318C418.259 362.533 417.967 360.996 417.384 359.707C416.801 358.412 415.93 357.418 414.771 356.727C413.612 356.029 412.169 355.68 410.442 355.68H406.166V373.042ZM431.734 375.763C430.237 375.763 428.923 375.406 427.793 374.694C426.67 373.981 425.792 372.984 425.158 371.703C424.532 370.422 424.219 368.925 424.219 367.211C424.219 365.484 424.532 363.976 425.158 362.687C425.792 361.399 426.67 360.398 427.793 359.686C428.923 358.973 430.237 358.617 431.734 358.617C433.231 358.617 434.541 358.973 435.664 359.686C436.794 360.398 437.672 361.399 438.298 362.687C438.932 363.976 439.249 365.484 439.249 367.211C439.249 368.925 438.932 370.422 438.298 371.703C437.672 372.984 436.794 373.981 435.664 374.694C434.541 375.406 433.231 375.763 431.734 375.763ZM431.734 373.474C432.871 373.474 433.807 373.182 434.541 372.599C435.275 372.016 435.819 371.25 436.171 370.299C436.524 369.349 436.7 368.32 436.7 367.211C436.7 366.103 436.524 365.07 436.171 364.113C435.819 363.155 435.275 362.381 434.541 361.791C433.807 361.201 432.871 360.906 431.734 360.906C430.596 360.906 429.661 361.201 428.926 361.791C428.192 362.381 427.649 363.155 427.296 364.113C426.943 365.07 426.767 366.103 426.767 367.211C426.767 368.32 426.943 369.349 427.296 370.299C427.649 371.25 428.192 372.016 428.926 372.599C429.661 373.182 430.596 373.474 431.734 373.474ZM445.686 365.441V375.417H443.138V358.833H445.6V361.424H445.816C446.205 360.582 446.795 359.905 447.587 359.394C448.378 358.876 449.401 358.617 450.653 358.617C451.776 358.617 452.759 358.847 453.601 359.308C454.443 359.761 455.098 360.452 455.566 361.381C456.034 362.302 456.268 363.468 456.268 364.879V375.417H453.72V365.052C453.72 363.749 453.381 362.734 452.705 362.007C452.028 361.273 451.099 360.906 449.919 360.906C449.106 360.906 448.378 361.082 447.738 361.435C447.104 361.788 446.604 362.302 446.237 362.979C445.87 363.655 445.686 364.476 445.686 365.441ZM463.17 353.305V355.248C463.17 355.838 463.062 356.468 462.846 357.138C462.637 357.8 462.328 358.444 461.917 359.07C461.514 359.689 461.025 360.229 460.449 360.69L459.067 359.567C459.52 358.919 459.913 358.246 460.244 357.548C460.582 356.842 460.751 356.09 460.751 355.291V353.305H463.17ZM474.194 358.833V360.992H465.599V358.833H474.194ZM468.104 354.859H470.652V370.666C470.652 371.386 470.757 371.926 470.965 372.286C471.181 372.639 471.455 372.876 471.786 372.999C472.124 373.114 472.481 373.171 472.855 373.171C473.136 373.171 473.366 373.157 473.546 373.128C473.726 373.092 473.87 373.063 473.978 373.042L474.496 375.331C474.323 375.396 474.082 375.46 473.773 375.525C473.463 375.597 473.071 375.633 472.596 375.633C471.876 375.633 471.17 375.478 470.479 375.169C469.796 374.859 469.227 374.388 468.774 373.754C468.327 373.121 468.104 372.322 468.104 371.357V354.859ZM489.126 365.441V375.417H486.578V353.305H489.126V361.424H489.342C489.731 360.567 490.314 359.887 491.091 359.383C491.876 358.872 492.92 358.617 494.222 358.617C495.353 358.617 496.342 358.844 497.192 359.297C498.041 359.743 498.7 360.431 499.168 361.359C499.643 362.281 499.88 363.454 499.88 364.879V375.417H497.332V365.052C497.332 363.735 496.99 362.716 496.306 361.996C495.63 361.269 494.69 360.906 493.488 360.906C492.653 360.906 491.905 361.082 491.242 361.435C490.587 361.788 490.069 362.302 489.688 362.979C489.313 363.655 489.126 364.476 489.126 365.441ZM509.422 375.806C508.371 375.806 507.418 375.608 506.561 375.212C505.704 374.809 505.024 374.23 504.52 373.474C504.016 372.711 503.765 371.789 503.765 370.71C503.765 369.76 503.952 368.989 504.326 368.399C504.7 367.802 505.201 367.334 505.827 366.995C506.453 366.657 507.144 366.405 507.9 366.24C508.663 366.067 509.429 365.93 510.2 365.829C511.207 365.7 512.024 365.603 512.651 365.538C513.284 365.466 513.745 365.347 514.033 365.181C514.328 365.016 514.475 364.728 514.475 364.318V364.231C514.475 363.166 514.184 362.338 513.601 361.748C513.025 361.158 512.15 360.863 510.977 360.863C509.761 360.863 508.807 361.129 508.116 361.662C507.425 362.194 506.939 362.763 506.658 363.368L504.24 362.504C504.671 361.496 505.247 360.711 505.967 360.15C506.694 359.581 507.486 359.185 508.343 358.962C509.206 358.732 510.056 358.617 510.891 358.617C511.423 358.617 512.035 358.682 512.726 358.811C513.424 358.934 514.097 359.189 514.745 359.578C515.4 359.966 515.944 360.553 516.376 361.338C516.808 362.122 517.023 363.173 517.023 364.49V375.417H514.475V373.171H514.346C514.173 373.531 513.885 373.916 513.482 374.327C513.079 374.737 512.543 375.086 511.873 375.374C511.204 375.662 510.387 375.806 509.422 375.806ZM509.811 373.517C510.819 373.517 511.668 373.319 512.359 372.923C513.057 372.527 513.583 372.016 513.935 371.39C514.295 370.764 514.475 370.105 514.475 369.414V367.082C514.367 367.211 514.13 367.33 513.763 367.438C513.403 367.539 512.985 367.629 512.51 367.708C512.042 367.78 511.585 367.845 511.139 367.902C510.7 367.953 510.344 367.996 510.07 368.032C509.408 368.118 508.789 368.259 508.213 368.453C507.644 368.64 507.184 368.925 506.831 369.306C506.485 369.68 506.313 370.191 506.313 370.839C506.313 371.725 506.64 372.394 507.295 372.848C507.957 373.294 508.796 373.517 509.811 373.517ZM534.642 358.833L528.509 375.417H525.918L519.785 358.833H522.549L527.127 372.049H527.3L531.878 358.833H534.642ZM544.365 375.763C542.767 375.763 541.388 375.41 540.229 374.705C539.078 373.992 538.189 372.999 537.562 371.725C536.943 370.443 536.634 368.953 536.634 367.255C536.634 365.556 536.943 364.059 537.562 362.763C538.189 361.46 539.06 360.445 540.175 359.718C541.298 358.984 542.608 358.617 544.106 358.617C544.969 358.617 545.822 358.761 546.664 359.049C547.507 359.337 548.273 359.804 548.964 360.452C549.655 361.093 550.206 361.942 550.616 363C551.027 364.059 551.232 365.361 551.232 366.909V367.989H538.448V365.786H548.64C548.64 364.85 548.453 364.015 548.079 363.281C547.712 362.547 547.186 361.968 546.503 361.543C545.826 361.118 545.027 360.906 544.106 360.906C543.091 360.906 542.212 361.158 541.471 361.662C540.737 362.158 540.172 362.806 539.776 363.605C539.38 364.404 539.182 365.261 539.182 366.175V367.643C539.182 368.896 539.398 369.957 539.83 370.828C540.269 371.692 540.877 372.351 541.655 372.804C542.432 373.251 543.335 373.474 544.365 373.474C545.034 373.474 545.639 373.38 546.179 373.193C546.726 372.999 547.197 372.711 547.593 372.329C547.989 371.941 548.295 371.458 548.511 370.882L550.973 371.573C550.713 372.408 550.278 373.143 549.666 373.776C549.054 374.402 548.298 374.892 547.399 375.244C546.499 375.59 545.488 375.763 544.365 375.763ZM568.54 375.806C567.489 375.806 566.535 375.608 565.678 375.212C564.822 374.809 564.142 374.23 563.638 373.474C563.134 372.711 562.882 371.789 562.882 370.71C562.882 369.76 563.069 368.989 563.443 368.399C563.818 367.802 564.318 367.334 564.944 366.995C565.57 366.657 566.261 366.405 567.017 366.24C567.78 366.067 568.547 365.93 569.317 365.829C570.325 365.7 571.142 365.603 571.768 365.538C572.401 365.466 572.862 365.347 573.15 365.181C573.445 365.016 573.593 364.728 573.593 364.318V364.231C573.593 363.166 573.301 362.338 572.718 361.748C572.142 361.158 571.268 360.863 570.094 360.863C568.878 360.863 567.924 361.129 567.233 361.662C566.542 362.194 566.056 362.763 565.776 363.368L563.357 362.504C563.789 361.496 564.365 360.711 565.084 360.15C565.812 359.581 566.603 359.185 567.46 358.962C568.324 358.732 569.173 358.617 570.008 358.617C570.541 358.617 571.153 358.682 571.844 358.811C572.542 358.934 573.215 359.189 573.863 359.578C574.518 359.966 575.061 360.553 575.493 361.338C575.925 362.122 576.141 363.173 576.141 364.49V375.417H573.593V373.171H573.463C573.29 373.531 573.002 373.916 572.599 374.327C572.196 374.737 571.66 375.086 570.991 375.374C570.321 375.662 569.504 375.806 568.54 375.806ZM568.928 373.517C569.936 373.517 570.785 373.319 571.476 372.923C572.175 372.527 572.7 372.016 573.053 371.39C573.413 370.764 573.593 370.105 573.593 369.414V367.082C573.485 367.211 573.247 367.33 572.88 367.438C572.52 367.539 572.103 367.629 571.628 367.708C571.16 367.78 570.703 367.845 570.256 367.902C569.817 367.953 569.461 367.996 569.187 368.032C568.525 368.118 567.906 368.259 567.33 368.453C566.762 368.64 566.301 368.925 565.948 369.306C565.603 369.68 565.43 370.191 565.43 370.839C565.43 371.725 565.758 372.394 566.413 372.848C567.075 373.294 567.913 373.517 568.928 373.517ZM583.34 365.441V375.417H580.792V358.833H583.253V361.424H583.469C583.858 360.582 584.448 359.905 585.24 359.394C586.032 358.876 587.054 358.617 588.307 358.617C589.429 358.617 590.412 358.847 591.254 359.308C592.096 359.761 592.751 360.452 593.219 361.381C593.687 362.302 593.921 363.468 593.921 364.879V375.417H591.373V365.052C591.373 363.749 591.035 362.734 590.358 362.007C589.681 361.273 588.753 360.906 587.572 360.906C586.759 360.906 586.032 361.082 585.391 361.435C584.758 361.788 584.258 362.302 583.891 362.979C583.523 363.655 583.34 364.476 583.34 365.441ZM612.009 375.806C610.958 375.806 610.004 375.608 609.148 375.212C608.291 374.809 607.611 374.23 607.107 373.474C606.603 372.711 606.351 371.789 606.351 370.71C606.351 369.76 606.539 368.989 606.913 368.399C607.287 367.802 607.787 367.334 608.414 366.995C609.04 366.657 609.731 366.405 610.487 366.24C611.25 366.067 612.016 365.93 612.787 365.829C613.794 365.7 614.611 365.603 615.237 365.538C615.871 365.466 616.332 365.347 616.62 365.181C616.915 365.016 617.062 364.728 617.062 364.318V364.231C617.062 363.166 616.771 362.338 616.188 361.748C615.612 361.158 614.737 360.863 613.564 360.863C612.347 360.863 611.394 361.129 610.703 361.662C610.012 362.194 609.526 362.763 609.245 363.368L606.826 362.504C607.258 361.496 607.834 360.711 608.554 360.15C609.281 359.581 610.073 359.185 610.929 358.962C611.793 358.732 612.643 358.617 613.478 358.617C614.01 358.617 614.622 358.682 615.313 358.811C616.011 358.934 616.684 359.189 617.332 359.578C617.987 359.966 618.531 360.553 618.963 361.338C619.394 362.122 619.61 363.173 619.61 364.49V375.417H617.062V373.171H616.933C616.76 373.531 616.472 373.916 616.069 374.327C615.666 374.737 615.13 375.086 614.46 375.374C613.791 375.662 612.974 375.806 612.009 375.806ZM612.398 373.517C613.406 373.517 614.255 373.319 614.946 372.923C615.644 372.527 616.17 372.016 616.522 371.39C616.882 370.764 617.062 370.105 617.062 369.414V367.082C616.954 367.211 616.717 367.33 616.35 367.438C615.99 367.539 615.572 367.629 615.097 367.708C614.629 367.78 614.172 367.845 613.726 367.902C613.287 367.953 612.93 367.996 612.657 368.032C611.995 368.118 611.376 368.259 610.8 368.453C610.231 368.64 609.77 368.925 609.418 369.306C609.072 369.68 608.9 370.191 608.9 370.839C608.9 371.725 609.227 372.394 609.882 372.848C610.544 373.294 611.383 373.517 612.398 373.517ZM630.999 375.763C629.444 375.763 628.105 375.396 626.982 374.661C625.859 373.927 624.995 372.916 624.391 371.627C623.786 370.339 623.484 368.867 623.484 367.211C623.484 365.527 623.793 364.041 624.412 362.752C625.039 361.456 625.91 360.445 627.025 359.718C628.148 358.984 629.458 358.617 630.956 358.617C632.122 358.617 633.173 358.833 634.108 359.265C635.044 359.697 635.811 360.301 636.408 361.079C637.006 361.856 637.376 362.763 637.52 363.799H634.972C634.778 363.044 634.346 362.374 633.676 361.791C633.014 361.201 632.122 360.906 630.999 360.906C630.005 360.906 629.134 361.165 628.386 361.683C627.644 362.194 627.065 362.918 626.647 363.853C626.237 364.782 626.032 365.873 626.032 367.125C626.032 368.406 626.234 369.522 626.637 370.472C627.047 371.422 627.623 372.16 628.364 372.686C629.113 373.211 629.991 373.474 630.999 373.474C631.661 373.474 632.262 373.359 632.802 373.128C633.342 372.898 633.799 372.567 634.173 372.135C634.547 371.703 634.814 371.185 634.972 370.58H637.52C637.376 371.559 637.02 372.441 636.451 373.225C635.89 374.003 635.145 374.622 634.216 375.083C633.295 375.536 632.222 375.763 630.999 375.763ZM647.983 375.763C646.428 375.763 645.089 375.396 643.966 374.661C642.843 373.927 641.979 372.916 641.375 371.627C640.77 370.339 640.468 368.867 640.468 367.211C640.468 365.527 640.777 364.041 641.396 362.752C642.023 361.456 642.894 360.445 644.009 359.718C645.132 358.984 646.442 358.617 647.939 358.617C649.106 358.617 650.157 358.833 651.092 359.265C652.028 359.697 652.795 360.301 653.392 361.079C653.99 361.856 654.36 362.763 654.504 363.799H651.956C651.762 363.044 651.33 362.374 650.66 361.791C649.998 361.201 649.106 360.906 647.983 360.906C646.989 360.906 646.118 361.165 645.37 361.683C644.628 362.194 644.049 362.918 643.631 363.853C643.221 364.782 643.016 365.873 643.016 367.125C643.016 368.406 643.218 369.522 643.621 370.472C644.031 371.422 644.607 372.16 645.348 372.686C646.097 373.211 646.975 373.474 647.983 373.474C648.645 373.474 649.246 373.359 649.786 373.128C650.326 372.898 650.783 372.567 651.157 372.135C651.531 371.703 651.798 371.185 651.956 370.58H654.504C654.36 371.559 654.004 372.441 653.435 373.225C652.874 374.003 652.129 374.622 651.2 375.083C650.279 375.536 649.206 375.763 647.983 375.763ZM664.967 375.763C663.469 375.763 662.156 375.406 661.026 374.694C659.903 373.981 659.025 372.984 658.391 371.703C657.765 370.422 657.452 368.925 657.452 367.211C657.452 365.484 657.765 363.976 658.391 362.687C659.025 361.399 659.903 360.398 661.026 359.686C662.156 358.973 663.469 358.617 664.967 358.617C666.464 358.617 667.774 358.973 668.897 359.686C670.027 360.398 670.905 361.399 671.531 362.687C672.165 363.976 672.482 365.484 672.482 367.211C672.482 368.925 672.165 370.422 671.531 371.703C670.905 372.984 670.027 373.981 668.897 374.694C667.774 375.406 666.464 375.763 664.967 375.763ZM664.967 373.474C666.104 373.474 667.04 373.182 667.774 372.599C668.508 372.016 669.052 371.25 669.404 370.299C669.757 369.349 669.933 368.32 669.933 367.211C669.933 366.103 669.757 365.07 669.404 364.113C669.052 363.155 668.508 362.381 667.774 361.791C667.04 361.201 666.104 360.906 664.967 360.906C663.829 360.906 662.894 361.201 662.159 361.791C661.425 362.381 660.882 363.155 660.529 364.113C660.176 365.07 660 366.103 660 367.211C660 368.32 660.176 369.349 660.529 370.299C660.882 371.25 661.425 372.016 662.159 372.599C662.894 373.182 663.829 373.474 664.967 373.474ZM686.823 368.637V358.833H689.371V375.417H686.823V372.61H686.65C686.261 373.452 685.657 374.168 684.836 374.759C684.016 375.342 682.979 375.633 681.727 375.633C680.69 375.633 679.769 375.406 678.963 374.953C678.156 374.492 677.523 373.801 677.062 372.88C676.602 371.951 676.371 370.782 676.371 369.371V358.833H678.919V369.198C678.919 370.407 679.258 371.372 679.934 372.092C680.618 372.812 681.489 373.171 682.547 373.171C683.181 373.171 683.825 373.009 684.48 372.686C685.142 372.362 685.696 371.865 686.143 371.196C686.596 370.526 686.823 369.673 686.823 368.637ZM701.251 358.833V360.992H692.656V358.833H701.251ZM695.161 354.859H697.709V370.666C697.709 371.386 697.814 371.926 698.022 372.286C698.238 372.639 698.512 372.876 698.843 372.999C699.181 373.114 699.538 373.171 699.912 373.171C700.193 373.171 700.423 373.157 700.603 373.128C700.783 373.092 700.927 373.063 701.035 373.042L701.553 375.331C701.38 375.396 701.139 375.46 700.83 375.525C700.52 375.597 700.128 375.633 699.653 375.633C698.933 375.633 698.227 375.478 697.536 375.169C696.853 374.859 696.284 374.388 695.83 373.754C695.384 373.121 695.161 372.322 695.161 371.357V354.859ZM715.276 381.636C714.844 381.636 714.459 381.6 714.121 381.528C713.783 381.464 713.549 381.399 713.419 381.334L714.067 379.088C714.686 379.247 715.233 379.304 715.708 379.261C716.183 379.218 716.604 379.006 716.971 378.624C717.346 378.25 717.688 377.641 717.997 376.799L718.472 375.504L712.339 358.833H715.103L719.681 372.049H719.854L724.432 358.833H727.196L720.157 377.836C719.84 378.692 719.448 379.401 718.98 379.963C718.512 380.532 717.968 380.953 717.349 381.226C716.737 381.5 716.046 381.636 715.276 381.636ZM736.919 375.763C735.321 375.763 733.943 375.41 732.784 374.705C731.632 373.992 730.743 372.999 730.117 371.725C729.498 370.443 729.188 368.953 729.188 367.255C729.188 365.556 729.498 364.059 730.117 362.763C730.743 361.46 731.614 360.445 732.73 359.718C733.853 358.984 735.163 358.617 736.66 358.617C737.524 358.617 738.377 358.761 739.219 359.049C740.061 359.337 740.828 359.804 741.519 360.452C742.21 361.093 742.76 361.942 743.171 363C743.581 364.059 743.786 365.361 743.786 366.909V367.989H731.002V365.786H741.195C741.195 364.85 741.008 364.015 740.633 363.281C740.266 362.547 739.741 361.968 739.057 361.543C738.38 361.118 737.581 360.906 736.66 360.906C735.645 360.906 734.767 361.158 734.026 361.662C733.291 362.158 732.726 362.806 732.33 363.605C731.934 364.404 731.737 365.261 731.737 366.175V367.643C731.737 368.896 731.952 369.957 732.384 370.828C732.823 371.692 733.432 372.351 734.209 372.804C734.986 373.251 735.89 373.474 736.919 373.474C737.589 373.474 738.193 373.38 738.733 373.193C739.28 372.999 739.752 372.711 740.148 372.329C740.543 371.941 740.849 371.458 741.065 370.882L743.527 371.573C743.268 372.408 742.832 373.143 742.221 373.776C741.609 374.402 740.853 374.892 739.953 375.244C739.053 375.59 738.042 375.763 736.919 375.763ZM754.875 358.833V360.992H746.28V358.833H754.875ZM748.785 354.859H751.333V370.666C751.333 371.386 751.438 371.926 751.647 372.286C751.863 372.639 752.136 372.876 752.467 372.999C752.805 373.114 753.162 373.171 753.536 373.171C753.817 373.171 754.047 373.157 754.227 373.128C754.407 373.092 754.551 373.063 754.659 373.042L755.177 375.331C755.004 375.396 754.763 375.46 754.454 375.525C754.144 375.597 753.752 375.633 753.277 375.633C752.557 375.633 751.852 375.478 751.161 375.169C750.477 374.859 749.908 374.388 749.455 373.754C749.008 373.121 748.785 372.322 748.785 371.357V354.859ZM762.033 369.198V369.068C762.048 367.694 762.192 366.6 762.465 365.786C762.739 364.973 763.128 364.314 763.631 363.81C764.135 363.306 764.74 362.842 765.445 362.417C765.87 362.158 766.252 361.852 766.59 361.5C766.928 361.14 767.195 360.726 767.389 360.258C767.59 359.79 767.691 359.272 767.691 358.703C767.691 357.998 767.526 357.386 767.195 356.868C766.863 356.349 766.421 355.95 765.866 355.669C765.312 355.388 764.697 355.248 764.02 355.248C763.43 355.248 762.861 355.37 762.314 355.615C761.767 355.86 761.31 356.245 760.943 356.77C760.576 357.296 760.363 357.983 760.306 358.833H757.585C757.643 357.609 757.959 356.562 758.535 355.691C759.118 354.82 759.885 354.154 760.835 353.693C761.792 353.233 762.854 353.002 764.02 353.002C765.287 353.002 766.388 353.254 767.324 353.758C768.267 354.262 768.994 354.953 769.505 355.831C770.023 356.709 770.283 357.71 770.283 358.833C770.283 359.625 770.16 360.341 769.915 360.981C769.678 361.622 769.332 362.194 768.879 362.698C768.433 363.202 767.893 363.648 767.259 364.037C766.626 364.433 766.118 364.85 765.737 365.289C765.355 365.721 765.078 366.236 764.906 366.833C764.733 367.431 764.639 368.176 764.625 369.068V369.198H762.033ZM763.416 375.59C762.883 375.59 762.426 375.399 762.044 375.018C761.663 374.636 761.472 374.179 761.472 373.646C761.472 373.114 761.663 372.657 762.044 372.275C762.426 371.894 762.883 371.703 763.416 371.703C763.948 371.703 764.405 371.894 764.787 372.275C765.168 372.657 765.359 373.114 765.359 373.646C765.359 373.999 765.269 374.323 765.089 374.618C764.916 374.913 764.682 375.151 764.387 375.331C764.099 375.504 763.775 375.59 763.416 375.59ZM794.536 359.383C794.435 358.44 794.01 357.706 793.262 357.181C792.52 356.655 791.556 356.393 790.368 356.393C789.533 356.393 788.817 356.519 788.219 356.77C787.622 357.022 787.165 357.364 786.848 357.796C786.531 358.228 786.369 358.721 786.362 359.275C786.362 359.736 786.467 360.136 786.675 360.474C786.891 360.812 787.183 361.1 787.55 361.338C787.917 361.568 788.324 361.762 788.77 361.921C789.216 362.079 789.666 362.212 790.12 362.32L792.193 362.839C793.028 363.033 793.83 363.296 794.601 363.627C795.378 363.958 796.073 364.375 796.684 364.879C797.303 365.383 797.793 365.991 798.153 366.704C798.513 367.417 798.693 368.251 798.693 369.209C798.693 370.505 798.362 371.645 797.699 372.632C797.037 373.611 796.08 374.377 794.827 374.931C793.582 375.478 792.074 375.752 790.303 375.752C788.583 375.752 787.089 375.486 785.822 374.953C784.563 374.42 783.577 373.643 782.864 372.621C782.159 371.599 781.777 370.353 781.719 368.885H785.66C785.718 369.655 785.956 370.296 786.373 370.807C786.791 371.318 787.334 371.699 788.003 371.951C788.68 372.203 789.436 372.329 790.271 372.329C791.142 372.329 791.905 372.2 792.56 371.941C793.222 371.674 793.74 371.307 794.115 370.839C794.489 370.364 794.68 369.81 794.687 369.176C794.68 368.601 794.511 368.126 794.179 367.751C793.848 367.37 793.384 367.053 792.787 366.801C792.196 366.542 791.505 366.312 790.714 366.11L788.198 365.462C786.377 364.994 784.937 364.285 783.879 363.335C782.828 362.378 782.303 361.107 782.303 359.524C782.303 358.221 782.655 357.08 783.361 356.101C784.073 355.122 785.041 354.363 786.265 353.823C787.489 353.276 788.874 353.002 790.422 353.002C791.991 353.002 793.366 353.276 794.547 353.823C795.734 354.363 796.666 355.115 797.343 356.079C798.02 357.037 798.369 358.138 798.39 359.383H794.536ZM802.091 375.417V358.833H806V375.417H802.091ZM804.056 356.479C803.437 356.479 802.904 356.274 802.458 355.864C802.012 355.446 801.789 354.946 801.789 354.363C801.789 353.772 802.012 353.272 802.458 352.862C802.904 352.444 803.437 352.236 804.056 352.236C804.682 352.236 805.215 352.444 805.654 352.862C806.1 353.272 806.324 353.772 806.324 354.363C806.324 354.946 806.1 355.446 805.654 355.864C805.215 356.274 804.682 356.479 804.056 356.479ZM817.231 381.982C815.828 381.982 814.622 381.791 813.614 381.41C812.607 381.035 811.797 380.532 811.185 379.898C810.573 379.265 810.148 378.563 809.911 377.793L813.431 376.94C813.589 377.264 813.82 377.584 814.122 377.901C814.424 378.225 814.831 378.491 815.342 378.7C815.86 378.916 816.512 379.024 817.296 379.024C818.405 379.024 819.323 378.754 820.05 378.214C820.777 377.681 821.14 376.803 821.14 375.579V372.437H820.946C820.744 372.84 820.449 373.254 820.06 373.679C819.679 374.104 819.171 374.46 818.538 374.748C817.912 375.036 817.123 375.18 816.173 375.18C814.899 375.18 813.744 374.881 812.707 374.284C811.678 373.679 810.858 372.779 810.246 371.584C809.641 370.382 809.339 368.878 809.339 367.071C809.339 365.25 809.641 363.713 810.246 362.461C810.858 361.201 811.682 360.247 812.718 359.599C813.755 358.944 814.91 358.617 816.184 358.617C817.156 358.617 817.955 358.782 818.581 359.113C819.215 359.437 819.718 359.83 820.093 360.29C820.467 360.744 820.751 361.172 820.946 361.575H821.162V358.833H825.016V375.687C825.016 377.105 824.678 378.278 824.001 379.207C823.325 380.136 822.4 380.83 821.226 381.291C820.053 381.752 818.721 381.982 817.231 381.982ZM817.264 372.113C818.092 372.113 818.797 371.912 819.38 371.509C819.963 371.106 820.406 370.526 820.708 369.77C821.01 369.014 821.162 368.108 821.162 367.049C821.162 366.006 821.01 365.092 820.708 364.307C820.413 363.522 819.974 362.914 819.391 362.482C818.815 362.043 818.106 361.824 817.264 361.824C816.393 361.824 815.666 362.05 815.083 362.504C814.5 362.957 814.061 363.58 813.766 364.372C813.47 365.156 813.323 366.049 813.323 367.049C813.323 368.064 813.47 368.953 813.766 369.716C814.068 370.472 814.511 371.062 815.094 371.487C815.684 371.905 816.407 372.113 817.264 372.113ZM832.931 365.7V375.417H829.022V358.833H832.758V361.651H832.952C833.334 360.722 833.942 359.984 834.777 359.437C835.619 358.89 836.659 358.617 837.897 358.617C839.042 358.617 840.039 358.862 840.888 359.351C841.745 359.84 842.407 360.549 842.875 361.478C843.35 362.407 843.584 363.533 843.577 364.858V375.417H839.668V365.462C839.668 364.354 839.38 363.486 838.804 362.86C838.236 362.234 837.447 361.921 836.44 361.921C835.756 361.921 835.148 362.072 834.615 362.374C834.089 362.669 833.676 363.098 833.373 363.659C833.078 364.221 832.931 364.901 832.931 365.7ZM865.662 368.442V358.833H869.571V375.417H865.781V372.47H865.608C865.234 373.398 864.619 374.158 863.762 374.748C862.913 375.338 861.865 375.633 860.62 375.633C859.533 375.633 858.572 375.392 857.737 374.91C856.909 374.42 856.262 373.711 855.794 372.783C855.326 371.847 855.092 370.717 855.092 369.392V358.833H859V368.788C859 369.839 859.288 370.674 859.864 371.293C860.44 371.912 861.196 372.221 862.132 372.221C862.707 372.221 863.265 372.081 863.805 371.8C864.345 371.519 864.788 371.102 865.133 370.548C865.486 369.986 865.662 369.284 865.662 368.442ZM873.59 381.636V358.833H877.434V361.575H877.661C877.862 361.172 878.147 360.744 878.514 360.29C878.881 359.83 879.377 359.437 880.004 359.113C880.63 358.782 881.429 358.617 882.401 358.617C883.682 358.617 884.837 358.944 885.867 359.599C886.903 360.247 887.724 361.208 888.328 362.482C888.94 363.749 889.246 365.304 889.246 367.147C889.246 368.968 888.947 370.515 888.35 371.789C887.752 373.063 886.939 374.035 885.91 374.705C884.88 375.374 883.714 375.709 882.411 375.709C881.461 375.709 880.673 375.55 880.047 375.234C879.421 374.917 878.917 374.535 878.535 374.089C878.161 373.636 877.869 373.207 877.661 372.804H877.499V381.636H873.59ZM877.423 367.125C877.423 368.198 877.574 369.137 877.877 369.943C878.186 370.749 878.629 371.379 879.205 371.833C879.788 372.279 880.493 372.502 881.321 372.502C882.185 372.502 882.908 372.272 883.491 371.811C884.074 371.343 884.513 370.706 884.808 369.9C885.111 369.086 885.262 368.162 885.262 367.125C885.262 366.096 885.114 365.181 884.819 364.383C884.524 363.584 884.085 362.957 883.502 362.504C882.919 362.05 882.192 361.824 881.321 361.824C880.486 361.824 879.777 362.043 879.194 362.482C878.611 362.921 878.168 363.537 877.866 364.329C877.571 365.12 877.423 366.052 877.423 367.125Z" fill="#0B5CD5"/>
<path d="M422.149 466.777H425.473V484.952C425.473 486.828 425.03 488.504 424.146 489.978C423.27 491.444 422.032 492.601 420.433 493.45C418.833 494.29 416.957 494.71 414.804 494.71C412.65 494.71 410.774 494.29 409.174 493.45C407.575 492.601 406.333 491.444 405.448 489.978C404.572 488.504 404.135 486.828 404.135 484.952V466.777H407.459V484.684C407.459 486.024 407.753 487.217 408.343 488.263C408.933 489.299 409.773 490.117 410.863 490.715C411.962 491.305 413.276 491.6 414.804 491.6C416.332 491.6 417.645 491.305 418.744 490.715C419.843 490.117 420.683 489.299 421.264 488.263C421.854 487.217 422.149 486.024 422.149 484.684V466.777ZM446.264 478.25L443.423 479.055C443.244 478.581 442.981 478.121 442.632 477.674C442.293 477.218 441.828 476.843 441.238 476.548C440.648 476.253 439.893 476.106 438.973 476.106C437.713 476.106 436.663 476.396 435.823 476.977C434.992 477.549 434.577 478.277 434.577 479.162C434.577 479.948 434.863 480.569 435.435 481.025C436.006 481.481 436.9 481.86 438.115 482.164L441.171 482.915C443.012 483.361 444.383 484.045 445.286 484.965C446.188 485.877 446.64 487.052 446.64 488.49C446.64 489.67 446.3 490.724 445.621 491.654C444.951 492.583 444.013 493.316 442.806 493.852C441.6 494.388 440.197 494.656 438.598 494.656C436.498 494.656 434.76 494.2 433.384 493.289C432.008 492.377 431.137 491.046 430.77 489.295L433.773 488.544C434.058 489.652 434.599 490.483 435.394 491.037C436.199 491.591 437.248 491.868 438.544 491.868C440.018 491.868 441.189 491.555 442.056 490.93C442.931 490.295 443.369 489.536 443.369 488.651C443.369 487.936 443.119 487.338 442.619 486.855C442.118 486.364 441.35 485.997 440.313 485.756L436.882 484.952C434.997 484.505 433.612 483.813 432.727 482.874C431.851 481.927 431.414 480.743 431.414 479.323C431.414 478.161 431.74 477.133 432.392 476.24C433.053 475.346 433.951 474.645 435.086 474.136C436.23 473.626 437.525 473.372 438.973 473.372C441.01 473.372 442.61 473.818 443.771 474.712C444.942 475.605 445.773 476.785 446.264 478.25ZM460.033 494.656C458.049 494.656 456.338 494.218 454.899 493.342C453.47 492.458 452.366 491.225 451.589 489.643C450.82 488.053 450.436 486.203 450.436 484.094C450.436 481.985 450.82 480.127 451.589 478.518C452.366 476.901 453.447 475.641 454.832 474.739C456.226 473.827 457.853 473.372 459.711 473.372C460.783 473.372 461.842 473.55 462.888 473.908C463.933 474.265 464.885 474.846 465.743 475.65C466.6 476.445 467.284 477.5 467.793 478.813C468.303 480.127 468.557 481.744 468.557 483.665V485.006H452.688V482.271H465.341C465.341 481.11 465.108 480.073 464.644 479.162C464.188 478.25 463.536 477.531 462.687 477.004C461.847 476.477 460.855 476.213 459.711 476.213C458.451 476.213 457.361 476.526 456.441 477.151C455.529 477.768 454.828 478.572 454.336 479.564C453.845 480.556 453.599 481.619 453.599 482.754V484.577C453.599 486.131 453.867 487.449 454.404 488.531C454.949 489.603 455.704 490.421 456.669 490.983C457.634 491.537 458.755 491.814 460.033 491.814C460.864 491.814 461.614 491.698 462.285 491.466C462.964 491.225 463.549 490.867 464.04 490.394C464.532 489.911 464.912 489.313 465.18 488.598L468.236 489.455C467.914 490.492 467.373 491.403 466.614 492.19C465.854 492.967 464.916 493.575 463.799 494.013C462.682 494.442 461.427 494.656 460.033 494.656ZM473.369 494.227V473.64H476.425V476.749H476.64C477.015 475.731 477.694 474.904 478.677 474.27C479.66 473.635 480.768 473.318 482.001 473.318C482.233 473.318 482.524 473.322 482.872 473.331C483.221 473.34 483.484 473.354 483.663 473.372V476.588C483.556 476.562 483.31 476.521 482.926 476.468C482.55 476.405 482.153 476.374 481.733 476.374C480.732 476.374 479.838 476.584 479.052 477.004C478.275 477.415 477.658 477.987 477.202 478.719C476.756 479.443 476.532 480.27 476.532 481.199V494.227H473.369ZM490.576 481.842V494.227H487.412V473.64H490.468V476.856H490.736C491.219 475.811 491.952 474.971 492.935 474.337C493.917 473.693 495.186 473.372 496.741 473.372C498.135 473.372 499.355 473.658 500.4 474.229C501.446 474.792 502.259 475.65 502.84 476.803C503.42 477.947 503.711 479.394 503.711 481.145V494.227H500.548V481.36C500.548 479.743 500.128 478.483 499.288 477.58C498.448 476.669 497.295 476.213 495.83 476.213C494.82 476.213 493.917 476.432 493.122 476.87C492.336 477.308 491.715 477.947 491.259 478.786C490.803 479.626 490.576 480.645 490.576 481.842ZM515.549 494.71C514.245 494.71 513.061 494.464 511.997 493.972C510.934 493.472 510.09 492.753 509.464 491.814C508.839 490.867 508.526 489.724 508.526 488.383C508.526 487.204 508.758 486.248 509.223 485.515C509.687 484.773 510.309 484.192 511.086 483.773C511.863 483.353 512.721 483.04 513.659 482.834C514.606 482.62 515.558 482.45 516.514 482.325C517.765 482.164 518.779 482.043 519.557 481.963C520.343 481.874 520.915 481.726 521.272 481.521C521.639 481.315 521.822 480.958 521.822 480.448V480.341C521.822 479.019 521.46 477.991 520.736 477.259C520.021 476.526 518.936 476.159 517.479 476.159C515.969 476.159 514.785 476.49 513.927 477.151C513.07 477.813 512.466 478.518 512.118 479.269L509.116 478.197C509.652 476.946 510.367 475.972 511.26 475.275C512.163 474.569 513.146 474.077 514.209 473.8C515.281 473.515 516.336 473.372 517.372 473.372C518.033 473.372 518.793 473.452 519.651 473.613C520.517 473.765 521.353 474.082 522.157 474.564C522.97 475.047 523.645 475.775 524.181 476.749C524.717 477.723 524.985 479.028 524.985 480.663V494.227H521.822V491.439H521.661C521.447 491.886 521.089 492.364 520.589 492.873C520.088 493.383 519.423 493.816 518.592 494.173C517.761 494.531 516.747 494.71 515.549 494.71ZM516.032 491.868C517.283 491.868 518.337 491.622 519.195 491.131C520.062 490.639 520.714 490.005 521.152 489.228C521.599 488.45 521.822 487.633 521.822 486.775V483.88C521.688 484.041 521.393 484.188 520.937 484.322C520.491 484.447 519.972 484.559 519.383 484.657C518.802 484.746 518.234 484.827 517.68 484.898C517.135 484.961 516.693 485.015 516.353 485.059C515.531 485.166 514.763 485.341 514.048 485.582C513.342 485.814 512.77 486.167 512.332 486.641C511.904 487.105 511.689 487.74 511.689 488.544C511.689 489.643 512.096 490.474 512.909 491.037C513.731 491.591 514.772 491.868 516.032 491.868ZM530.759 494.227V473.64H533.814V476.856H534.083C534.511 475.757 535.204 474.904 536.16 474.296C537.116 473.68 538.264 473.372 539.605 473.372C540.963 473.372 542.093 473.68 542.996 474.296C543.907 474.904 544.618 475.757 545.127 476.856H545.341C545.868 475.793 546.659 474.949 547.714 474.323C548.768 473.689 550.032 473.372 551.507 473.372C553.348 473.372 554.853 473.948 556.024 475.101C557.194 476.244 557.78 478.027 557.78 480.448V494.227H554.616V480.448C554.616 478.929 554.201 477.844 553.37 477.192C552.539 476.539 551.56 476.213 550.435 476.213C548.987 476.213 547.866 476.651 547.07 477.527C546.275 478.393 545.877 479.492 545.877 480.824V494.227H542.661V480.127C542.661 478.956 542.281 478.014 541.521 477.299C540.762 476.575 539.783 476.213 538.586 476.213C537.764 476.213 536.996 476.432 536.281 476.87C535.575 477.308 535.003 477.915 534.565 478.693C534.136 479.461 533.922 480.35 533.922 481.36V494.227H530.759ZM572.195 494.656C570.211 494.656 568.5 494.218 567.061 493.342C565.632 492.458 564.528 491.225 563.751 489.643C562.982 488.053 562.598 486.203 562.598 484.094C562.598 481.985 562.982 480.127 563.751 478.518C564.528 476.901 565.609 475.641 566.994 474.739C568.388 473.827 570.014 473.372 571.873 473.372C572.945 473.372 574.004 473.55 575.05 473.908C576.095 474.265 577.047 474.846 577.905 475.65C578.762 476.445 579.446 477.5 579.955 478.813C580.465 480.127 580.719 481.744 580.719 483.665V485.006H564.85V482.271H577.502C577.502 481.11 577.27 480.073 576.805 479.162C576.35 478.25 575.697 477.531 574.849 477.004C574.009 476.477 573.017 476.213 571.873 476.213C570.613 476.213 569.523 476.526 568.603 477.151C567.691 477.768 566.99 478.572 566.498 479.564C566.007 480.556 565.761 481.619 565.761 482.754V484.577C565.761 486.131 566.029 487.449 566.565 488.531C567.11 489.603 567.865 490.421 568.831 490.983C569.796 491.537 570.917 491.814 572.195 491.814C573.026 491.814 573.776 491.698 574.446 491.466C575.126 491.225 575.711 490.867 576.202 490.394C576.694 489.911 577.074 489.313 577.342 488.598L580.398 489.455C580.076 490.492 579.535 491.403 578.776 492.19C578.016 492.967 577.078 493.575 575.961 494.013C574.844 494.442 573.589 494.656 572.195 494.656Z" fill="#0B5CD5"/>
<rect x="401.99" y="513.407" width="1115.02" height="120.308" rx="12.9744" fill="white"/>
<rect x="401.99" y="513.407" width="1115.02" height="120.308" rx="12.9744" stroke="#0B5CD5" stroke-width="2.35897"/>
<path d="M404.135 739.704V712.254H413.41C415.563 712.254 417.323 712.642 418.691 713.42C420.067 714.188 421.085 715.229 421.746 716.543C422.408 717.856 422.738 719.322 422.738 720.939C422.738 722.556 422.408 724.026 421.746 725.349C421.094 726.671 420.084 727.726 418.717 728.512C417.35 729.289 415.599 729.678 413.463 729.678H406.815V726.729H413.356C414.83 726.729 416.014 726.475 416.908 725.965C417.801 725.456 418.449 724.768 418.851 723.901C419.262 723.025 419.468 722.038 419.468 720.939C419.468 719.84 419.262 718.857 418.851 717.99C418.449 717.124 417.797 716.444 416.894 715.953C415.992 715.453 414.795 715.202 413.302 715.202H407.459V739.704H404.135ZM433.722 740.186C432.418 740.186 431.234 739.94 430.17 739.449C429.107 738.949 428.263 738.229 427.637 737.291C427.012 736.344 426.699 735.2 426.699 733.86C426.699 732.68 426.931 731.724 427.396 730.991C427.861 730.25 428.482 729.669 429.259 729.249C430.036 728.829 430.894 728.516 431.832 728.311C432.78 728.096 433.731 727.927 434.687 727.802C435.938 727.641 436.952 727.52 437.73 727.44C438.516 727.35 439.088 727.203 439.445 726.997C439.812 726.792 439.995 726.434 439.995 725.925V725.818C439.995 724.495 439.633 723.468 438.909 722.735C438.194 722.002 437.109 721.636 435.652 721.636C434.142 721.636 432.958 721.967 432.1 722.628C431.243 723.289 430.64 723.995 430.291 724.746L427.289 723.673C427.825 722.422 428.54 721.448 429.433 720.751C430.336 720.045 431.319 719.554 432.382 719.277C433.454 718.991 434.509 718.848 435.545 718.848C436.206 718.848 436.966 718.929 437.824 719.089C438.69 719.241 439.526 719.559 440.33 720.041C441.143 720.524 441.818 721.252 442.354 722.226C442.89 723.2 443.158 724.504 443.158 726.14V739.704H439.995V736.916H439.834C439.62 737.363 439.262 737.841 438.762 738.35C438.262 738.859 437.596 739.293 436.765 739.65C435.934 740.007 434.92 740.186 433.722 740.186ZM434.205 737.345C435.456 737.345 436.51 737.099 437.368 736.607C438.235 736.116 438.887 735.482 439.325 734.704C439.772 733.927 439.995 733.109 439.995 732.251V729.356C439.861 729.517 439.566 729.665 439.11 729.799C438.664 729.924 438.145 730.035 437.556 730.134C436.975 730.223 436.407 730.303 435.853 730.375C435.308 730.437 434.866 730.491 434.526 730.536C433.704 730.643 432.936 730.817 432.221 731.059C431.515 731.291 430.943 731.644 430.505 732.117C430.077 732.582 429.862 733.216 429.862 734.021C429.862 735.12 430.269 735.951 431.082 736.514C431.904 737.068 432.945 737.345 434.205 737.345ZM463.514 723.727L460.673 724.531C460.494 724.058 460.231 723.597 459.882 723.151C459.543 722.695 459.078 722.32 458.488 722.025C457.898 721.73 457.143 721.582 456.223 721.582C454.963 721.582 453.913 721.873 453.073 722.454C452.242 723.025 451.827 723.754 451.827 724.638C451.827 725.425 452.113 726.046 452.685 726.501C453.256 726.957 454.15 727.337 455.365 727.641L458.421 728.391C460.262 728.838 461.633 729.522 462.536 730.442C463.438 731.353 463.89 732.528 463.89 733.967C463.89 735.147 463.55 736.201 462.871 737.13C462.201 738.059 461.263 738.792 460.056 739.328C458.85 739.864 457.447 740.133 455.848 740.133C453.748 740.133 452.01 739.677 450.634 738.765C449.258 737.854 448.387 736.523 448.02 734.771L451.023 734.021C451.308 735.129 451.849 735.96 452.644 736.514C453.449 737.068 454.498 737.345 455.794 737.345C457.268 737.345 458.439 737.032 459.306 736.406C460.181 735.772 460.619 735.012 460.619 734.128C460.619 733.413 460.369 732.814 459.869 732.332C459.368 731.84 458.6 731.474 457.563 731.233L454.132 730.429C452.247 729.982 450.862 729.289 449.977 728.351C449.101 727.404 448.664 726.22 448.664 724.799C448.664 723.638 448.99 722.61 449.642 721.716C450.303 720.823 451.201 720.121 452.336 719.612C453.48 719.103 454.775 718.848 456.223 718.848C458.26 718.848 459.86 719.295 461.021 720.188C462.192 721.082 463.023 722.261 463.514 723.727ZM483.234 723.727L480.392 724.531C480.214 724.058 479.95 723.597 479.602 723.151C479.262 722.695 478.797 722.32 478.208 722.025C477.618 721.73 476.863 721.582 475.943 721.582C474.683 721.582 473.633 721.873 472.793 722.454C471.962 723.025 471.546 723.754 471.546 724.638C471.546 725.425 471.832 726.046 472.404 726.501C472.976 726.957 473.87 727.337 475.085 727.641L478.141 728.391C479.981 728.838 481.353 729.522 482.255 730.442C483.158 731.353 483.609 732.528 483.609 733.967C483.609 735.147 483.27 736.201 482.591 737.13C481.92 738.059 480.982 738.792 479.776 739.328C478.57 739.864 477.167 740.133 475.567 740.133C473.467 740.133 471.729 739.677 470.353 738.765C468.977 737.854 468.106 736.523 467.74 734.771L470.742 734.021C471.028 735.129 471.569 735.96 472.364 736.514C473.168 737.068 474.218 737.345 475.514 737.345C476.988 737.345 478.159 737.032 479.025 736.406C479.901 735.772 480.339 735.012 480.339 734.128C480.339 733.413 480.089 732.814 479.588 732.332C479.088 731.84 478.319 731.474 477.283 731.233L473.852 730.429C471.966 729.982 470.581 729.289 469.697 728.351C468.821 727.404 468.383 726.22 468.383 724.799C468.383 723.638 468.709 722.61 469.362 721.716C470.023 720.823 470.921 720.121 472.056 719.612C473.199 719.103 474.495 718.848 475.943 718.848C477.98 718.848 479.579 719.295 480.741 720.188C481.911 721.082 482.742 722.261 483.234 723.727ZM493.035 739.704L486.762 719.116H490.086L494.536 734.878H494.751L499.147 719.116H502.525L506.867 734.825H507.082L511.532 719.116H514.856L508.583 739.704H505.473L500.97 723.888H500.648L496.145 739.704H493.035ZM526.701 740.133C524.842 740.133 523.211 739.69 521.809 738.806C520.415 737.921 519.324 736.683 518.538 735.093C517.761 733.502 517.372 731.644 517.372 729.517C517.372 727.373 517.761 725.501 518.538 723.901C519.324 722.302 520.415 721.06 521.809 720.175C523.211 719.29 524.842 718.848 526.701 718.848C528.559 718.848 530.186 719.29 531.579 720.175C532.982 721.06 534.073 722.302 534.85 723.901C535.636 725.501 536.029 727.373 536.029 729.517C536.029 731.644 535.636 733.502 534.85 735.093C534.073 736.683 532.982 737.921 531.579 738.806C530.186 739.69 528.559 740.133 526.701 740.133ZM526.701 737.291C528.113 737.291 529.274 736.929 530.186 736.205C531.097 735.482 531.772 734.53 532.209 733.35C532.647 732.171 532.866 730.893 532.866 729.517C532.866 728.141 532.647 726.859 532.209 725.67C531.772 724.482 531.097 723.521 530.186 722.789C529.274 722.056 528.113 721.69 526.701 721.69C525.289 721.69 524.127 722.056 523.216 722.789C522.304 723.521 521.63 724.482 521.192 725.67C520.754 726.859 520.535 728.141 520.535 729.517C520.535 730.893 520.754 732.171 521.192 733.35C521.63 734.53 522.304 735.482 523.216 736.205C524.127 736.929 525.289 737.291 526.701 737.291ZM540.858 739.704V719.116H543.914V722.226H544.128C544.504 721.207 545.183 720.381 546.166 719.746C547.149 719.112 548.257 718.795 549.49 718.795C549.722 718.795 550.012 718.799 550.361 718.808C550.709 718.817 550.973 718.83 551.152 718.848V722.065C551.044 722.038 550.799 721.998 550.414 721.944C550.039 721.882 549.642 721.85 549.222 721.85C548.221 721.85 547.327 722.06 546.541 722.48C545.763 722.891 545.147 723.463 544.691 724.196C544.244 724.92 544.021 725.746 544.021 726.676V739.704H540.858ZM562.048 740.133C560.333 740.133 558.818 739.699 557.505 738.832C556.191 737.957 555.164 736.724 554.422 735.133C553.68 733.534 553.31 731.644 553.31 729.464C553.31 727.301 553.68 725.425 554.422 723.834C555.164 722.244 556.196 721.015 557.518 720.148C558.841 719.282 560.369 718.848 562.102 718.848C563.442 718.848 564.501 719.072 565.279 719.518C566.065 719.956 566.664 720.457 567.075 721.019C567.495 721.573 567.821 722.029 568.053 722.387H568.321V712.254H571.484V739.704H568.428V736.54H568.053C567.821 736.916 567.49 737.389 567.061 737.961C566.632 738.524 566.02 739.029 565.225 739.476C564.43 739.914 563.371 740.133 562.048 740.133ZM562.477 737.291C563.746 737.291 564.818 736.96 565.694 736.299C566.57 735.629 567.236 734.704 567.691 733.525C568.147 732.336 568.375 730.965 568.375 729.41C568.375 727.873 568.151 726.528 567.705 725.376C567.258 724.214 566.597 723.311 565.721 722.668C564.845 722.016 563.764 721.69 562.477 721.69C561.137 721.69 560.02 722.034 559.127 722.722C558.242 723.401 557.576 724.326 557.129 725.496C556.692 726.658 556.473 727.962 556.473 729.41C556.473 730.875 556.696 732.207 557.143 733.404C557.599 734.593 558.269 735.54 559.153 736.246C560.047 736.943 561.155 737.291 562.477 737.291Z" fill="#0B5CD5"/>
<rect x="401.99" y="758.883" width="1115.02" height="120.308" rx="12.9744" fill="white"/>
<rect x="401.99" y="758.883" width="1115.02" height="120.308" rx="12.9744" stroke="#0B5CD5" stroke-width="2.35897"/>
<rect x="402.711" y="948.781" width="34.2055" height="34.2055" rx="7.60123" stroke="#0B5CD5" stroke-width="1.90031" stroke-miterlimit="0" stroke-linejoin="bevel"/>
<path d="M462.398 976.884V954.771H469.87C471.598 954.771 473.016 955.066 474.124 955.657C475.233 956.24 476.053 957.042 476.586 958.065C477.119 959.087 477.385 960.249 477.385 961.552C477.385 962.855 477.119 964.01 476.586 965.018C476.053 966.026 475.236 966.817 474.135 967.393C473.034 967.962 471.626 968.246 469.913 968.246H463.867V965.828H469.827C471.007 965.828 471.958 965.655 472.677 965.309C473.404 964.964 473.93 964.474 474.254 963.841C474.585 963.2 474.75 962.437 474.75 961.552C474.75 960.667 474.585 959.893 474.254 959.231C473.923 958.568 473.394 958.057 472.667 957.697C471.94 957.33 470.979 957.147 469.784 957.147H465.076V976.884H462.398ZM472.807 966.951L478.249 976.884H475.139L469.784 966.951H472.807ZM488.277 977.23C486.679 977.23 485.3 976.877 484.141 976.171C482.99 975.459 482.101 974.465 481.474 973.191C480.855 971.91 480.546 970.42 480.546 968.721C480.546 967.023 480.855 965.525 481.474 964.23C482.101 962.927 482.972 961.912 484.087 961.185C485.21 960.451 486.52 960.084 488.017 960.084C488.881 960.084 489.734 960.228 490.576 960.515C491.419 960.803 492.185 961.271 492.876 961.919C493.567 962.56 494.118 963.409 494.528 964.467C494.938 965.525 495.144 966.828 495.144 968.376V969.456H482.36V967.253H492.552C492.552 966.317 492.365 965.482 491.991 964.748C491.624 964.014 491.098 963.434 490.414 963.01C489.738 962.585 488.939 962.373 488.017 962.373C487.003 962.373 486.124 962.625 485.383 963.128C484.649 963.625 484.084 964.273 483.688 965.072C483.292 965.871 483.094 966.727 483.094 967.642V969.11C483.094 970.363 483.31 971.424 483.742 972.295C484.181 973.159 484.789 973.818 485.566 974.271C486.344 974.717 487.247 974.941 488.277 974.941C488.946 974.941 489.551 974.847 490.091 974.66C490.638 974.465 491.109 974.178 491.505 973.796C491.901 973.407 492.207 972.925 492.423 972.349L494.884 973.04C494.625 973.875 494.19 974.609 493.578 975.243C492.966 975.869 492.21 976.359 491.311 976.711C490.411 977.057 489.399 977.23 488.277 977.23ZM499.02 976.884V960.3H501.482V962.891H501.698C502.043 962.005 502.601 961.318 503.371 960.829C504.141 960.332 505.066 960.084 506.146 960.084C507.24 960.084 508.151 960.332 508.878 960.829C509.612 961.318 510.184 962.005 510.594 962.891H510.767C511.192 962.034 511.829 961.354 512.678 960.85C513.528 960.339 514.546 960.084 515.734 960.084C517.217 960.084 518.43 960.548 519.373 961.476C520.315 962.398 520.787 963.834 520.787 965.785V976.884H518.239V965.785C518.239 964.561 517.904 963.686 517.235 963.161C516.565 962.635 515.777 962.373 514.87 962.373C513.704 962.373 512.801 962.725 512.16 963.431C511.519 964.129 511.199 965.014 511.199 966.087V976.884H508.608V965.525C508.608 964.582 508.302 963.823 507.69 963.247C507.078 962.664 506.29 962.373 505.325 962.373C504.663 962.373 504.044 962.549 503.468 962.902C502.9 963.254 502.439 963.744 502.086 964.37C501.741 964.989 501.568 965.705 501.568 966.519V976.884H499.02ZM532.399 977.23C530.801 977.23 529.423 976.877 528.264 976.171C527.112 975.459 526.223 974.465 525.597 973.191C524.978 971.91 524.669 970.42 524.669 968.721C524.669 967.023 524.978 965.525 525.597 964.23C526.223 962.927 527.094 961.912 528.21 961.185C529.333 960.451 530.643 960.084 532.14 960.084C533.004 960.084 533.857 960.228 534.699 960.515C535.541 960.803 536.308 961.271 536.999 961.919C537.69 962.56 538.241 963.409 538.651 964.467C539.061 965.525 539.266 966.828 539.266 968.376V969.456H526.482V967.253H536.675C536.675 966.317 536.488 965.482 536.114 964.748C535.746 964.014 535.221 963.434 534.537 963.01C533.861 962.585 533.062 962.373 532.14 962.373C531.125 962.373 530.247 962.625 529.506 963.128C528.771 963.625 528.206 964.273 527.811 965.072C527.415 965.871 527.217 966.727 527.217 967.642V969.11C527.217 970.363 527.433 971.424 527.865 972.295C528.304 973.159 528.912 973.818 529.689 974.271C530.467 974.717 531.37 974.941 532.399 974.941C533.069 974.941 533.673 974.847 534.213 974.66C534.76 974.465 535.232 974.178 535.628 973.796C536.024 973.407 536.33 972.925 536.545 972.349L539.007 973.04C538.748 973.875 538.313 974.609 537.701 975.243C537.089 975.869 536.333 976.359 535.433 976.711C534.534 977.057 533.522 977.23 532.399 977.23ZM543.143 976.884V960.3H545.604V962.891H545.82C546.166 962.005 546.724 961.318 547.494 960.829C548.264 960.332 549.189 960.084 550.269 960.084C551.363 960.084 552.273 960.332 553 960.829C553.735 961.318 554.307 962.005 554.717 962.891H554.89C555.315 962.034 555.952 961.354 556.801 960.85C557.65 960.339 558.669 960.084 559.857 960.084C561.339 960.084 562.552 960.548 563.495 961.476C564.438 962.398 564.91 963.834 564.91 965.785V976.884H562.362V965.785C562.362 964.561 562.027 963.686 561.357 963.161C560.688 962.635 559.9 962.373 558.993 962.373C557.827 962.373 556.923 962.725 556.283 963.431C555.642 964.129 555.322 965.014 555.322 966.087V976.884H552.73V965.525C552.73 964.582 552.425 963.823 551.813 963.247C551.201 962.664 550.413 962.373 549.448 962.373C548.786 962.373 548.167 962.549 547.591 962.902C547.022 963.254 546.562 963.744 546.209 964.37C545.863 964.989 545.691 965.705 545.691 966.519V976.884H543.143ZM569.914 976.884V954.771H572.462V962.934H572.678C572.865 962.646 573.125 962.279 573.456 961.833C573.794 961.379 574.276 960.976 574.903 960.623C575.536 960.264 576.393 960.084 577.472 960.084C578.869 960.084 580.1 960.433 581.165 961.131C582.23 961.829 583.062 962.819 583.659 964.1C584.256 965.381 584.555 966.893 584.555 968.635C584.555 970.391 584.256 971.914 583.659 973.202C583.062 974.483 582.234 975.477 581.176 976.182C580.118 976.88 578.897 977.23 577.515 977.23C576.45 977.23 575.597 977.053 574.956 976.7C574.316 976.341 573.823 975.934 573.477 975.48C573.132 975.02 572.865 974.638 572.678 974.336H572.376V976.884H569.914ZM572.419 968.592C572.419 969.844 572.603 970.949 572.97 971.907C573.337 972.857 573.873 973.602 574.579 974.142C575.284 974.674 576.148 974.941 577.17 974.941C578.235 974.941 579.124 974.66 579.837 974.098C580.557 973.53 581.096 972.767 581.456 971.809C581.824 970.845 582.007 969.772 582.007 968.592C582.007 967.426 581.827 966.375 581.467 965.439C581.114 964.496 580.578 963.751 579.858 963.204C579.146 962.65 578.25 962.373 577.17 962.373C576.133 962.373 575.262 962.635 574.557 963.161C573.852 963.679 573.319 964.406 572.959 965.342C572.599 966.27 572.419 967.354 572.419 968.592ZM595.406 977.23C593.808 977.23 592.43 976.877 591.271 976.171C590.119 975.459 589.23 974.465 588.604 973.191C587.985 971.91 587.676 970.42 587.676 968.721C587.676 967.023 587.985 965.525 588.604 964.23C589.23 962.927 590.101 961.912 591.217 961.185C592.34 960.451 593.65 960.084 595.147 960.084C596.011 960.084 596.864 960.228 597.706 960.515C598.548 960.803 599.315 961.271 600.006 961.919C600.697 962.56 601.248 963.409 601.658 964.467C602.068 965.525 602.273 966.828 602.273 968.376V969.456H589.49V967.253H599.682C599.682 966.317 599.495 965.482 599.121 964.748C598.754 964.014 598.228 963.434 597.544 963.01C596.868 962.585 596.069 962.373 595.147 962.373C594.132 962.373 593.254 962.625 592.513 963.128C591.779 963.625 591.213 964.273 590.818 965.072C590.422 965.871 590.224 966.727 590.224 967.642V969.11C590.224 970.363 590.44 971.424 590.872 972.295C591.311 973.159 591.919 973.818 592.696 974.271C593.474 974.717 594.377 974.941 595.406 974.941C596.076 974.941 596.68 974.847 597.22 974.66C597.767 974.465 598.239 974.178 598.635 973.796C599.031 973.407 599.337 972.925 599.553 972.349L602.014 973.04C601.755 973.875 601.32 974.609 600.708 975.243C600.096 975.869 599.34 976.359 598.44 976.711C597.541 977.057 596.529 977.23 595.406 977.23ZM606.15 976.884V960.3H608.611V962.804H608.784C609.086 961.984 609.633 961.318 610.425 960.807C611.217 960.296 612.11 960.04 613.103 960.04C613.29 960.04 613.524 960.044 613.805 960.051C614.086 960.058 614.298 960.069 614.442 960.084V962.675C614.355 962.653 614.158 962.621 613.848 962.578C613.546 962.527 613.225 962.502 612.887 962.502C612.081 962.502 611.361 962.671 610.728 963.01C610.101 963.341 609.605 963.801 609.238 964.392C608.878 964.975 608.698 965.641 608.698 966.389V976.884H606.15ZM626.014 976.884V960.3H628.475V962.891H628.691C629.037 962.005 629.595 961.318 630.365 960.829C631.135 960.332 632.06 960.084 633.14 960.084C634.234 960.084 635.145 960.332 635.872 960.829C636.606 961.318 637.178 962.005 637.588 962.891H637.761C638.186 962.034 638.823 961.354 639.672 960.85C640.522 960.339 641.54 960.084 642.728 960.084C644.211 960.084 645.423 960.548 646.366 961.476C647.309 962.398 647.781 963.834 647.781 965.785V976.884H645.233V965.785C645.233 964.561 644.898 963.686 644.229 963.161C643.559 962.635 642.771 962.373 641.864 962.373C640.698 962.373 639.795 962.725 639.154 963.431C638.513 964.129 638.193 965.014 638.193 966.087V976.884H635.602V965.525C635.602 964.582 635.296 963.823 634.684 963.247C634.072 962.664 633.284 962.373 632.319 962.373C631.657 962.373 631.038 962.549 630.462 962.902C629.894 963.254 629.433 963.744 629.08 964.37C628.735 964.989 628.562 965.705 628.562 966.519V976.884H626.014ZM659.393 977.23C657.795 977.23 656.417 976.877 655.258 976.171C654.106 975.459 653.217 974.465 652.591 973.191C651.972 971.91 651.662 970.42 651.662 968.721C651.662 967.023 651.972 965.525 652.591 964.23C653.217 962.927 654.088 961.912 655.204 961.185C656.327 960.451 657.637 960.084 659.134 960.084C659.998 960.084 660.851 960.228 661.693 960.515C662.535 960.803 663.302 961.271 663.993 961.919C664.684 962.56 665.235 963.409 665.645 964.467C666.055 965.525 666.26 966.828 666.26 968.376V969.456H653.476V967.253H663.669C663.669 966.317 663.482 965.482 663.108 964.748C662.74 964.014 662.215 963.434 661.531 963.01C660.854 962.585 660.055 962.373 659.134 962.373C658.119 962.373 657.241 962.625 656.5 963.128C655.765 963.625 655.2 964.273 654.804 965.072C654.409 965.871 654.211 966.727 654.211 967.642V969.11C654.211 970.363 654.427 971.424 654.858 972.295C655.298 973.159 655.906 973.818 656.683 974.271C657.461 974.717 658.364 974.941 659.393 974.941C660.063 974.941 660.667 974.847 661.207 974.66C661.754 974.465 662.226 974.178 662.622 973.796C663.018 973.407 663.323 972.925 663.539 972.349L666.001 973.04C665.742 973.875 665.307 974.609 664.695 975.243C664.083 975.869 663.327 976.359 662.427 976.711C661.528 977.057 660.516 977.23 659.393 977.23Z" fill="#0B5CD5"/>
<path d="M1256.23 977.18V955.067H1270.39V958.425H1260.23V964.428H1269.42V967.786H1260.23V977.18H1256.23ZM1279.89 977.504C1278.27 977.504 1276.86 977.148 1275.68 976.435C1274.49 975.722 1273.57 974.725 1272.91 973.444C1272.26 972.163 1271.94 970.666 1271.94 968.952C1271.94 967.239 1272.26 965.739 1272.91 964.45C1273.57 963.162 1274.49 962.161 1275.68 961.448C1276.86 960.736 1278.27 960.379 1279.89 960.379C1281.51 960.379 1282.91 960.736 1284.1 961.448C1285.29 962.161 1286.2 963.162 1286.85 964.45C1287.51 965.739 1287.83 967.239 1287.83 968.952C1287.83 970.666 1287.51 972.163 1286.85 973.444C1286.2 974.725 1285.29 975.722 1284.1 976.435C1282.91 977.148 1281.51 977.504 1279.89 977.504ZM1279.91 974.373C1280.79 974.373 1281.52 974.132 1282.11 973.649C1282.7 973.16 1283.14 972.505 1283.43 971.684C1283.72 970.864 1283.87 969.949 1283.87 968.942C1283.87 967.927 1283.72 967.009 1283.43 966.188C1283.14 965.361 1282.7 964.702 1282.11 964.212C1281.52 963.723 1280.79 963.478 1279.91 963.478C1279.01 963.478 1278.26 963.723 1277.66 964.212C1277.07 964.702 1276.63 965.361 1276.33 966.188C1276.05 967.009 1275.9 967.927 1275.9 968.942C1275.9 969.949 1276.05 970.864 1276.33 971.684C1276.63 972.505 1277.07 973.16 1277.66 973.649C1278.26 974.132 1279.01 974.373 1279.91 974.373ZM1291.15 977.18V960.595H1294.94V963.36H1295.11C1295.42 962.402 1295.93 961.664 1296.67 961.146C1297.41 960.621 1298.26 960.358 1299.21 960.358C1299.42 960.358 1299.66 960.369 1299.93 960.39C1300.2 960.405 1300.43 960.43 1300.61 960.466V964.061C1300.44 964.004 1300.18 963.953 1299.82 963.91C1299.47 963.86 1299.13 963.835 1298.8 963.835C1298.08 963.835 1297.44 963.989 1296.87 964.299C1296.31 964.601 1295.87 965.022 1295.55 965.562C1295.22 966.102 1295.06 966.725 1295.06 967.43V977.18H1291.15ZM1309.74 983.745C1308.33 983.745 1307.13 983.554 1306.12 983.172C1305.11 982.798 1304.3 982.294 1303.69 981.661C1303.08 981.027 1302.65 980.326 1302.42 979.555L1305.94 978.702C1306.09 979.026 1306.32 979.347 1306.63 979.663C1306.93 979.987 1307.34 980.254 1307.85 980.462C1308.36 980.678 1309.02 980.786 1309.8 980.786C1310.91 980.786 1311.83 980.516 1312.55 979.976C1313.28 979.444 1313.64 978.566 1313.64 977.342V974.2H1313.45C1313.25 974.603 1312.95 975.017 1312.56 975.442C1312.18 975.866 1311.68 976.223 1311.04 976.511C1310.42 976.798 1309.63 976.942 1308.68 976.942C1307.4 976.942 1306.25 976.644 1305.21 976.046C1304.18 975.442 1303.36 974.542 1302.75 973.347C1302.15 972.145 1301.84 970.64 1301.84 968.834C1301.84 967.013 1302.15 965.476 1302.75 964.223C1303.36 962.964 1304.19 962.01 1305.22 961.362C1306.26 960.707 1307.41 960.379 1308.69 960.379C1309.66 960.379 1310.46 960.545 1311.09 960.876C1311.72 961.2 1312.22 961.592 1312.6 962.053C1312.97 962.507 1313.26 962.935 1313.45 963.338H1313.67V960.595H1317.52V977.45C1317.52 978.868 1317.18 980.041 1316.51 980.97C1315.83 981.898 1314.9 982.593 1313.73 983.054C1312.56 983.514 1311.23 983.745 1309.74 983.745ZM1309.77 973.876C1310.6 973.876 1311.3 973.674 1311.88 973.271C1312.47 972.868 1312.91 972.289 1313.21 971.533C1313.52 970.777 1313.67 969.87 1313.67 968.812C1313.67 967.768 1313.52 966.854 1313.21 966.07C1312.92 965.285 1312.48 964.677 1311.9 964.245C1311.32 963.806 1310.61 963.586 1309.77 963.586C1308.9 963.586 1308.17 963.813 1307.59 964.266C1307 964.72 1306.57 965.343 1306.27 966.134C1305.98 966.919 1305.83 967.812 1305.83 968.812C1305.83 969.827 1305.98 970.716 1306.27 971.479C1306.57 972.235 1307.02 972.825 1307.6 973.25C1308.19 973.667 1308.91 973.876 1309.77 973.876ZM1328.76 977.504C1327.14 977.504 1325.74 977.148 1324.55 976.435C1323.36 975.722 1322.44 974.725 1321.79 973.444C1321.14 972.163 1320.81 970.666 1320.81 968.952C1320.81 967.239 1321.14 965.739 1321.79 964.45C1322.44 963.162 1323.36 962.161 1324.55 961.448C1325.74 960.736 1327.14 960.379 1328.76 960.379C1330.38 960.379 1331.78 960.736 1332.97 961.448C1334.16 962.161 1335.08 963.162 1335.72 964.45C1336.38 965.739 1336.71 967.239 1336.71 968.952C1336.71 970.666 1336.38 972.163 1335.72 973.444C1335.08 974.725 1334.16 975.722 1332.97 976.435C1331.78 977.148 1330.38 977.504 1328.76 977.504ZM1328.78 974.373C1329.66 974.373 1330.39 974.132 1330.99 973.649C1331.58 973.16 1332.01 972.505 1332.3 971.684C1332.6 970.864 1332.74 969.949 1332.74 968.942C1332.74 967.927 1332.6 967.009 1332.3 966.188C1332.01 965.361 1331.58 964.702 1330.99 964.212C1330.39 963.723 1329.66 963.478 1328.78 963.478C1327.88 963.478 1327.13 963.723 1326.54 964.212C1325.95 964.702 1325.5 965.361 1325.21 966.188C1324.92 967.009 1324.78 967.927 1324.78 968.942C1324.78 969.949 1324.92 970.864 1325.21 971.684C1325.5 972.505 1325.95 973.16 1326.54 973.649C1327.13 974.132 1327.88 974.373 1328.78 974.373ZM1348.31 960.595V963.619H1338.77V960.595H1348.31ZM1341.13 956.622H1345.03V972.192C1345.03 972.717 1345.11 973.12 1345.27 973.401C1345.44 973.674 1345.65 973.862 1345.92 973.962C1346.19 974.063 1346.48 974.114 1346.81 974.114C1347.05 974.114 1347.27 974.096 1347.48 974.06C1347.68 974.024 1347.84 973.991 1347.95 973.962L1348.61 977.018C1348.4 977.09 1348.1 977.169 1347.71 977.256C1347.33 977.342 1346.86 977.392 1346.31 977.407C1345.33 977.435 1344.45 977.288 1343.66 976.964C1342.88 976.633 1342.26 976.122 1341.8 975.431C1341.34 974.74 1341.12 973.876 1341.13 972.839V956.622ZM1359.12 983.399V960.595H1362.96V963.338H1363.19C1363.39 962.935 1363.67 962.507 1364.04 962.053C1364.41 961.592 1364.9 961.2 1365.53 960.876C1366.16 960.545 1366.96 960.379 1367.93 960.379C1369.21 960.379 1370.36 960.707 1371.39 961.362C1372.43 962.01 1373.25 962.971 1373.86 964.245C1374.47 965.512 1374.77 967.067 1374.77 968.909C1374.77 970.73 1374.47 972.278 1373.88 973.552C1373.28 974.826 1372.47 975.798 1371.44 976.467C1370.41 977.137 1369.24 977.471 1367.94 977.471C1366.99 977.471 1366.2 977.313 1365.57 976.996C1364.95 976.68 1364.44 976.298 1364.06 975.852C1363.69 975.398 1363.4 974.97 1363.19 974.567H1363.03V983.399H1359.12ZM1362.95 968.888C1362.95 969.96 1363.1 970.9 1363.4 971.706C1363.71 972.512 1364.16 973.142 1364.73 973.595C1365.31 974.042 1366.02 974.265 1366.85 974.265C1367.71 974.265 1368.44 974.034 1369.02 973.574C1369.6 973.106 1370.04 972.469 1370.34 971.663C1370.64 970.849 1370.79 969.924 1370.79 968.888C1370.79 967.858 1370.64 966.944 1370.35 966.145C1370.05 965.346 1369.61 964.72 1369.03 964.266C1368.45 963.813 1367.72 963.586 1366.85 963.586C1366.01 963.586 1365.3 963.806 1364.72 964.245C1364.14 964.684 1363.7 965.299 1363.39 966.091C1363.1 966.883 1362.95 967.815 1362.95 968.888ZM1382.89 977.515C1381.84 977.515 1380.9 977.327 1380.05 976.953C1379.22 976.572 1378.56 976.01 1378.07 975.269C1377.58 974.527 1377.34 973.613 1377.34 972.526C1377.34 971.591 1377.52 970.817 1377.86 970.205C1378.21 969.593 1378.68 969.104 1379.28 968.737C1379.87 968.369 1380.55 968.092 1381.29 967.905C1382.05 967.711 1382.83 967.57 1383.64 967.484C1384.61 967.383 1385.4 967.293 1386 967.214C1386.61 967.128 1387.05 966.998 1387.32 966.825C1387.6 966.645 1387.74 966.368 1387.74 965.994V965.929C1387.74 965.116 1387.5 964.486 1387.02 964.04C1386.53 963.593 1385.84 963.37 1384.93 963.37C1383.98 963.37 1383.22 963.579 1382.65 963.997C1382.1 964.414 1381.73 964.907 1381.53 965.476L1377.88 964.958C1378.17 963.95 1378.65 963.108 1379.31 962.431C1379.97 961.747 1380.78 961.236 1381.74 960.898C1382.69 960.552 1383.75 960.379 1384.91 960.379C1385.71 960.379 1386.51 960.473 1387.3 960.66C1388.09 960.847 1388.81 961.157 1389.47 961.589C1390.12 962.013 1390.65 962.593 1391.04 963.327C1391.45 964.061 1391.65 964.979 1391.65 966.08V977.18H1387.89V974.902H1387.76C1387.52 975.362 1387.19 975.794 1386.76 976.197C1386.33 976.593 1385.8 976.914 1385.15 977.158C1384.51 977.396 1383.76 977.515 1382.89 977.515ZM1383.91 974.643C1384.69 974.643 1385.37 974.488 1385.95 974.178C1386.52 973.862 1386.97 973.444 1387.28 972.926C1387.59 972.408 1387.75 971.843 1387.75 971.231V969.276C1387.63 969.377 1387.42 969.471 1387.13 969.557C1386.84 969.643 1386.51 969.719 1386.15 969.784C1385.79 969.849 1385.44 969.906 1385.08 969.957C1384.73 970.007 1384.43 970.05 1384.17 970.086C1383.58 970.165 1383.06 970.295 1382.6 970.475C1382.14 970.655 1381.78 970.907 1381.51 971.231C1381.24 971.547 1381.11 971.958 1381.11 972.462C1381.11 973.181 1381.37 973.725 1381.9 974.092C1382.42 974.459 1383.09 974.643 1383.91 974.643ZM1408.69 964.979L1405.12 965.368C1405.02 965.008 1404.85 964.67 1404.59 964.353C1404.35 964.036 1404.02 963.781 1403.6 963.586C1403.18 963.392 1402.67 963.295 1402.07 963.295C1401.25 963.295 1400.57 963.471 1400.02 963.824C1399.47 964.177 1399.2 964.634 1399.21 965.195C1399.2 965.677 1399.38 966.07 1399.74 966.372C1400.1 966.674 1400.71 966.923 1401.55 967.117L1404.38 967.722C1405.95 968.06 1407.11 968.596 1407.88 969.33C1408.65 970.065 1409.04 971.026 1409.04 972.213C1409.04 973.257 1408.73 974.178 1408.13 974.977C1407.53 975.769 1406.7 976.388 1405.63 976.834C1404.57 977.281 1403.34 977.504 1401.96 977.504C1399.93 977.504 1398.3 977.079 1397.06 976.23C1395.82 975.373 1395.08 974.182 1394.85 972.656L1398.66 972.289C1398.83 973.037 1399.2 973.602 1399.76 973.984C1400.32 974.365 1401.05 974.556 1401.95 974.556C1402.88 974.556 1403.62 974.365 1404.18 973.984C1404.75 973.602 1405.04 973.131 1405.04 972.57C1405.04 972.094 1404.85 971.702 1404.49 971.393C1404.13 971.083 1403.57 970.846 1402.8 970.68L1399.97 970.086C1398.38 969.755 1397.21 969.197 1396.44 968.413C1395.68 967.621 1395.3 966.62 1395.31 965.411C1395.3 964.389 1395.58 963.503 1396.14 962.755C1396.71 961.999 1397.5 961.416 1398.51 961.006C1399.52 960.588 1400.69 960.379 1402.01 960.379C1403.96 960.379 1405.49 960.793 1406.6 961.621C1407.73 962.449 1408.42 963.568 1408.69 964.979ZM1425.37 964.979L1421.81 965.368C1421.71 965.008 1421.53 964.67 1421.28 964.353C1421.04 964.036 1420.71 963.781 1420.29 963.586C1419.87 963.392 1419.36 963.295 1418.76 963.295C1417.94 963.295 1417.26 963.471 1416.7 963.824C1416.16 964.177 1415.89 964.634 1415.89 965.195C1415.89 965.677 1416.06 966.07 1416.42 966.372C1416.79 966.674 1417.39 966.923 1418.24 967.117L1421.07 967.722C1422.64 968.06 1423.8 968.596 1424.56 969.33C1425.33 970.065 1425.72 971.026 1425.73 972.213C1425.72 973.257 1425.42 974.178 1424.81 974.977C1424.22 975.769 1423.38 976.388 1422.32 976.834C1421.25 977.281 1420.03 977.504 1418.65 977.504C1416.62 977.504 1414.98 977.079 1413.75 976.23C1412.51 975.373 1411.77 974.182 1411.53 972.656L1415.34 972.289C1415.52 973.037 1415.88 973.602 1416.44 973.984C1417.01 974.365 1417.74 974.556 1418.64 974.556C1419.57 974.556 1420.31 974.365 1420.87 973.984C1421.44 973.602 1421.72 973.131 1421.72 972.57C1421.72 972.094 1421.54 971.702 1421.17 971.393C1420.81 971.083 1420.25 970.846 1419.49 970.68L1416.66 970.086C1415.07 969.755 1413.89 969.197 1413.13 968.413C1412.37 967.621 1411.99 966.62 1412 965.411C1411.99 964.389 1412.27 963.503 1412.83 962.755C1413.4 961.999 1414.18 961.416 1415.19 961.006C1416.21 960.588 1417.38 960.379 1418.7 960.379C1420.64 960.379 1422.17 960.793 1423.29 961.621C1424.41 962.449 1425.11 963.568 1425.37 964.979ZM1432.38 977.18L1427.69 960.595H1431.67L1434.59 972.256H1434.74L1437.72 960.595H1441.66L1444.64 972.192H1444.8L1447.68 960.595H1451.67L1446.97 977.18H1442.9L1439.79 965.972H1439.57L1436.46 977.18H1432.38ZM1461.16 977.504C1459.54 977.504 1458.14 977.148 1456.95 976.435C1455.76 975.722 1454.84 974.725 1454.18 973.444C1453.54 972.163 1453.21 970.666 1453.21 968.952C1453.21 967.239 1453.54 965.739 1454.18 964.45C1454.84 963.162 1455.76 962.161 1456.95 961.448C1458.14 960.736 1459.54 960.379 1461.16 960.379C1462.78 960.379 1464.18 960.736 1465.37 961.448C1466.56 962.161 1467.48 963.162 1468.12 964.45C1468.78 965.739 1469.11 967.239 1469.11 968.952C1469.11 970.666 1468.78 972.163 1468.12 973.444C1467.48 974.725 1466.56 975.722 1465.37 976.435C1464.18 977.148 1462.78 977.504 1461.16 977.504ZM1461.18 974.373C1462.06 974.373 1462.79 974.132 1463.38 973.649C1463.97 973.16 1464.41 972.505 1464.7 971.684C1465 970.864 1465.14 969.949 1465.14 968.942C1465.14 967.927 1465 967.009 1464.7 966.188C1464.41 965.361 1463.97 964.702 1463.38 964.212C1462.79 963.723 1462.06 963.478 1461.18 963.478C1460.28 963.478 1459.53 963.723 1458.93 964.212C1458.34 964.702 1457.9 965.361 1457.61 966.188C1457.32 967.009 1457.17 967.927 1457.17 968.942C1457.17 969.949 1457.32 970.864 1457.61 971.684C1457.9 972.505 1458.34 973.16 1458.93 973.649C1459.53 974.132 1460.28 974.373 1461.18 974.373ZM1472.42 977.18V960.595H1476.21V963.36H1476.39C1476.69 962.402 1477.21 961.664 1477.94 961.146C1478.68 960.621 1479.53 960.358 1480.48 960.358C1480.69 960.358 1480.93 960.369 1481.2 960.39C1481.47 960.405 1481.7 960.43 1481.88 960.466V964.061C1481.72 964.004 1481.45 963.953 1481.09 963.91C1480.74 963.86 1480.4 963.835 1480.07 963.835C1479.35 963.835 1478.71 963.989 1478.15 964.299C1477.58 964.601 1477.14 965.022 1476.82 965.562C1476.49 966.102 1476.33 966.725 1476.33 967.43V977.18H1472.42ZM1489.95 977.471C1488.65 977.471 1487.48 977.137 1486.45 976.467C1485.42 975.798 1484.61 974.826 1484.01 973.552C1483.41 972.278 1483.11 970.73 1483.11 968.909C1483.11 967.067 1483.42 965.512 1484.02 964.245C1484.63 962.971 1485.46 962.01 1486.49 961.362C1487.53 960.707 1488.69 960.379 1489.96 960.379C1490.93 960.379 1491.73 960.545 1492.36 960.876C1492.98 961.2 1493.48 961.592 1493.85 962.053C1494.21 962.507 1494.5 962.935 1494.7 963.338H1494.86V955.067H1498.78V977.18H1494.94V974.567H1494.7C1494.5 974.97 1494.21 975.398 1493.83 975.852C1493.44 976.298 1492.94 976.68 1492.31 976.996C1491.69 977.313 1490.9 977.471 1489.95 977.471ZM1491.04 974.265C1491.87 974.265 1492.57 974.042 1493.16 973.595C1493.74 973.142 1494.18 972.512 1494.48 971.706C1494.79 970.9 1494.94 969.96 1494.94 968.888C1494.94 967.815 1494.79 966.883 1494.48 966.091C1494.19 965.299 1493.75 964.684 1493.17 964.245C1492.59 963.806 1491.88 963.586 1491.04 963.586C1490.17 963.586 1489.44 963.813 1488.86 964.266C1488.28 964.72 1487.84 965.346 1487.54 966.145C1487.25 966.944 1487.1 967.858 1487.1 968.888C1487.1 969.924 1487.25 970.849 1487.54 971.663C1487.84 972.469 1488.29 973.106 1488.87 973.574C1489.46 974.034 1490.18 974.265 1491.04 974.265ZM1506.68 970.68V970.399C1506.69 969.096 1506.81 968.06 1507.05 967.29C1507.29 966.519 1507.64 965.9 1508.09 965.433C1508.53 964.958 1509.08 964.522 1509.72 964.126C1510.16 963.853 1510.55 963.554 1510.89 963.23C1511.25 962.899 1511.52 962.532 1511.72 962.129C1511.93 961.718 1512.03 961.261 1512.03 960.757C1512.03 960.189 1511.89 959.696 1511.63 959.278C1511.36 958.861 1511 958.537 1510.55 958.306C1510.1 958.076 1509.6 957.961 1509.05 957.961C1508.54 957.961 1508.05 958.072 1507.59 958.296C1507.14 958.512 1506.76 958.843 1506.46 959.289C1506.16 959.728 1505.99 960.286 1505.96 960.963H1502.12C1502.15 959.595 1502.48 958.45 1503.11 957.529C1503.74 956.608 1504.58 955.917 1505.61 955.456C1506.66 954.995 1507.81 954.765 1509.07 954.765C1510.44 954.765 1511.65 955.006 1512.7 955.488C1513.75 955.971 1514.56 956.658 1515.15 957.551C1515.74 958.436 1516.03 959.487 1516.03 960.703C1516.03 961.524 1515.9 962.258 1515.63 962.906C1515.37 963.554 1515 964.13 1514.52 964.634C1514.04 965.137 1513.47 965.587 1512.8 965.983C1512.22 966.343 1511.74 966.717 1511.37 967.106C1511 967.495 1510.73 967.952 1510.55 968.477C1510.38 968.996 1510.29 969.636 1510.28 970.399V970.68H1506.68ZM1508.56 977.417C1507.91 977.417 1507.36 977.187 1506.89 976.726C1506.42 976.266 1506.19 975.704 1506.19 975.042C1506.19 974.394 1506.42 973.84 1506.89 973.379C1507.36 972.919 1507.91 972.688 1508.56 972.688C1509.2 972.688 1509.76 972.919 1510.22 973.379C1510.7 973.84 1510.94 974.394 1510.94 975.042C1510.94 975.481 1510.82 975.881 1510.6 976.241C1510.39 976.6 1510.1 976.888 1509.74 977.104C1509.39 977.313 1508.99 977.417 1508.56 977.417Z" fill="#0B5CD5"/>
<rect x="400.811" y="1051.4" width="1117.38" height="110.607" rx="11.4018" fill="#0B5CD5"/>
<path d="M915.247 1100.16C915.121 1098.98 914.59 1098.06 913.654 1097.41C912.727 1096.75 911.522 1096.42 910.037 1096.42C908.993 1096.42 908.098 1096.58 907.351 1096.89C906.604 1097.21 906.033 1097.64 905.637 1098.18C905.241 1098.71 905.039 1099.33 905.03 1100.02C905.03 1100.6 905.16 1101.1 905.421 1101.52C905.691 1101.95 906.056 1102.31 906.514 1102.6C906.973 1102.89 907.482 1103.13 908.04 1103.33C908.597 1103.53 909.16 1103.7 909.727 1103.83L912.318 1104.48C913.362 1104.72 914.365 1105.05 915.328 1105.46C916.299 1105.88 917.168 1106.4 917.932 1107.03C918.706 1107.66 919.318 1108.42 919.768 1109.31C920.218 1110.2 920.443 1111.24 920.443 1112.44C920.443 1114.06 920.029 1115.49 919.201 1116.72C918.373 1117.94 917.177 1118.9 915.611 1119.59C914.054 1120.28 912.169 1120.62 909.956 1120.62C907.806 1120.62 905.939 1120.29 904.355 1119.62C902.78 1118.96 901.548 1117.98 900.657 1116.71C899.775 1115.43 899.298 1113.87 899.226 1112.04H904.153C904.225 1113 904.521 1113.8 905.043 1114.44C905.565 1115.08 906.245 1115.55 907.081 1115.87C907.927 1116.18 908.872 1116.34 909.916 1116.34C911.004 1116.34 911.958 1116.18 912.777 1115.86C913.605 1115.52 914.252 1115.06 914.72 1114.48C915.188 1113.89 915.427 1113.19 915.436 1112.4C915.427 1111.68 915.215 1111.09 914.801 1110.62C914.387 1110.14 913.807 1109.75 913.06 1109.43C912.322 1109.11 911.459 1108.82 910.469 1108.57L907.324 1107.76C905.048 1107.17 903.248 1106.29 901.926 1105.1C900.612 1103.9 899.955 1102.31 899.955 1100.33C899.955 1098.71 900.396 1097.28 901.278 1096.06C902.169 1094.83 903.379 1093.88 904.908 1093.21C906.438 1092.52 908.17 1092.18 910.105 1092.18C912.066 1092.18 913.785 1092.52 915.26 1093.21C916.745 1093.88 917.91 1094.82 918.756 1096.03C919.602 1097.23 920.038 1098.6 920.065 1100.16H915.247ZM924.691 1120.2V1099.47H929.577V1120.2H924.691ZM927.147 1096.53C926.373 1096.53 925.708 1096.27 925.15 1095.76C924.592 1095.24 924.313 1094.61 924.313 1093.88C924.313 1093.15 924.592 1092.52 925.15 1092.01C925.708 1091.49 926.373 1091.22 927.147 1091.22C927.93 1091.22 928.596 1091.49 929.145 1092.01C929.703 1092.52 929.981 1093.15 929.981 1093.88C929.981 1094.61 929.703 1095.24 929.145 1095.76C928.596 1096.27 927.93 1096.53 927.147 1096.53ZM943.616 1128.41C941.862 1128.41 940.355 1128.17 939.095 1127.69C937.835 1127.22 936.823 1126.59 936.058 1125.8C935.293 1125.01 934.763 1124.13 934.466 1123.17L938.866 1122.1C939.063 1122.51 939.351 1122.91 939.729 1123.31C940.107 1123.71 940.616 1124.04 941.254 1124.3C941.902 1124.57 942.717 1124.71 943.697 1124.71C945.083 1124.71 946.23 1124.37 947.139 1123.7C948.048 1123.03 948.502 1121.93 948.502 1120.4V1116.48H948.259C948.007 1116.98 947.638 1117.5 947.152 1118.03C946.676 1118.56 946.041 1119 945.249 1119.36C944.467 1119.72 943.481 1119.9 942.294 1119.9C940.701 1119.9 939.257 1119.53 937.961 1118.78C936.675 1118.03 935.649 1116.9 934.884 1115.41C934.128 1113.91 933.75 1112.03 933.75 1109.77C933.75 1107.49 934.128 1105.57 934.884 1104.01C935.649 1102.43 936.679 1101.24 937.975 1100.43C939.27 1099.61 940.715 1099.2 942.307 1099.2C943.522 1099.2 944.521 1099.41 945.303 1099.82C946.095 1100.23 946.725 1100.72 947.193 1101.29C947.661 1101.86 948.016 1102.4 948.259 1102.9H948.529V1099.47H953.347V1120.54C953.347 1122.31 952.924 1123.78 952.079 1124.94C951.233 1126.1 950.077 1126.97 948.61 1127.54C947.143 1128.12 945.479 1128.41 943.616 1128.41ZM943.657 1116.07C944.692 1116.07 945.573 1115.82 946.302 1115.32C947.031 1114.81 947.584 1114.09 947.962 1113.14C948.34 1112.2 948.529 1111.06 948.529 1109.74C948.529 1108.44 948.34 1107.29 947.962 1106.31C947.593 1105.33 947.044 1104.57 946.316 1104.03C945.596 1103.48 944.71 1103.21 943.657 1103.21C942.568 1103.21 941.659 1103.49 940.931 1104.06C940.202 1104.63 939.653 1105.4 939.284 1106.39C938.915 1107.38 938.731 1108.49 938.731 1109.74C938.731 1111.01 938.915 1112.12 939.284 1113.08C939.662 1114.02 940.215 1114.76 940.944 1115.29C941.682 1115.81 942.586 1116.07 943.657 1116.07ZM963.24 1108.05V1120.2H958.354V1099.47H963.024V1102.99H963.267C963.744 1101.83 964.504 1100.91 965.548 1100.23C966.601 1099.54 967.901 1099.2 969.449 1099.2C970.879 1099.2 972.125 1099.51 973.187 1100.12C974.258 1100.73 975.086 1101.62 975.67 1102.78C976.264 1103.94 976.557 1105.35 976.548 1107V1120.2H971.662V1107.76C971.662 1106.37 971.302 1105.29 970.582 1104.5C969.871 1103.72 968.886 1103.33 967.627 1103.33C966.772 1103.33 966.011 1103.52 965.346 1103.9C964.689 1104.27 964.171 1104.8 963.794 1105.5C963.425 1106.21 963.24 1107.06 963.24 1108.05ZM990.942 1120.2V1099.47H995.828V1120.2H990.942ZM993.398 1096.53C992.624 1096.53 991.959 1096.27 991.401 1095.76C990.843 1095.24 990.564 1094.61 990.564 1093.88C990.564 1093.15 990.843 1092.52 991.401 1092.01C991.959 1091.49 992.624 1091.22 993.398 1091.22C994.181 1091.22 994.847 1091.49 995.396 1092.01C995.953 1092.52 996.232 1093.15 996.232 1093.88C996.232 1094.61 995.953 1095.24 995.396 1095.76C994.847 1096.27 994.181 1096.53 993.398 1096.53ZM1005.74 1108.05V1120.2H1000.85V1099.47H1005.52V1102.99H1005.76C1006.24 1101.83 1007 1100.91 1008.05 1100.23C1009.1 1099.54 1010.4 1099.2 1011.95 1099.2C1013.38 1099.2 1014.62 1099.51 1015.68 1100.12C1016.75 1100.73 1017.58 1101.62 1018.17 1102.78C1018.76 1103.94 1019.05 1105.35 1019.04 1107V1120.2H1014.16V1107.76C1014.16 1106.37 1013.8 1105.29 1013.08 1104.5C1012.37 1103.72 1011.38 1103.33 1010.12 1103.33C1009.27 1103.33 1008.51 1103.52 1007.84 1103.9C1007.19 1104.27 1006.67 1104.8 1006.29 1105.5C1005.92 1106.21 1005.74 1107.06 1005.74 1108.05Z" fill="white"/>
<rect x="733" y="316" width="204" height="97" rx="9" fill="#2AB6A0" fill-opacity="0.15"/>
<rect x="733" y="316" width="204" height="97" rx="9" stroke="#2AB6A0" stroke-width="6"/>
<rect x="730" y="313" width="48" height="55" rx="8" fill="#2AB6A0"/>
<path d="M757.534 328.727V352H753.318V332.83H753.182L747.739 336.307V332.443L753.523 328.727H757.534Z" fill="white"/>
<rect x="395" y="505" width="1132" height="138" rx="9" fill="#2AB6A0" fill-opacity="0.15"/>
<rect x="395" y="505" width="1132" height="138" rx="9" stroke="#2AB6A0" stroke-width="6"/>
<rect x="392" y="502" width="52" height="55" rx="8" fill="#2AB6A0"/>
<path d="M410.068 541V537.955L418.148 530.034C418.92 529.254 419.564 528.561 420.08 527.955C420.595 527.348 420.981 526.761 421.239 526.193C421.496 525.625 421.625 525.019 421.625 524.375C421.625 523.64 421.458 523.011 421.125 522.489C420.792 521.958 420.333 521.549 419.75 521.261C419.167 520.973 418.504 520.83 417.761 520.83C416.996 520.83 416.326 520.989 415.75 521.307C415.174 521.617 414.727 522.061 414.409 522.636C414.098 523.212 413.943 523.898 413.943 524.693H409.932C409.932 523.216 410.269 521.932 410.943 520.841C411.617 519.75 412.545 518.905 413.727 518.307C414.917 517.708 416.28 517.409 417.818 517.409C419.379 517.409 420.75 517.701 421.932 518.284C423.114 518.867 424.03 519.667 424.682 520.682C425.341 521.697 425.67 522.856 425.67 524.159C425.67 525.03 425.504 525.886 425.17 526.727C424.837 527.568 424.25 528.5 423.409 529.523C422.576 530.545 421.405 531.784 419.898 533.239L415.886 537.318V537.477H426.023V541H410.068Z" fill="white"/>
<rect x="395" y="750" width="1132" height="138" rx="9" fill="#2AB6A0" fill-opacity="0.15"/>
<rect x="395" y="750" width="1132" height="138" rx="9" stroke="#2AB6A0" stroke-width="6"/>
<rect x="392" y="747" width="53" height="55" rx="8" fill="#2AB6A0"/>
<path d="M418.42 786.318C416.784 786.318 415.33 786.038 414.057 785.477C412.792 784.917 411.792 784.136 411.057 783.136C410.322 782.136 409.932 780.981 409.886 779.67H414.159C414.197 780.299 414.405 780.848 414.784 781.318C415.163 781.78 415.667 782.14 416.295 782.398C416.924 782.655 417.629 782.784 418.409 782.784C419.242 782.784 419.981 782.64 420.625 782.352C421.269 782.057 421.773 781.648 422.136 781.125C422.5 780.602 422.678 780 422.67 779.318C422.678 778.614 422.496 777.992 422.125 777.455C421.754 776.917 421.216 776.496 420.511 776.193C419.814 775.89 418.973 775.739 417.989 775.739H415.932V772.489H417.989C418.799 772.489 419.508 772.348 420.114 772.068C420.727 771.788 421.208 771.394 421.557 770.886C421.905 770.371 422.076 769.777 422.068 769.102C422.076 768.443 421.928 767.871 421.625 767.386C421.33 766.894 420.909 766.511 420.364 766.239C419.826 765.966 419.193 765.83 418.466 765.83C417.754 765.83 417.095 765.958 416.489 766.216C415.883 766.473 415.394 766.841 415.023 767.318C414.652 767.788 414.455 768.348 414.432 769H410.375C410.405 767.697 410.78 766.553 411.5 765.568C412.227 764.576 413.197 763.803 414.409 763.25C415.621 762.689 416.981 762.409 418.489 762.409C420.042 762.409 421.39 762.701 422.534 763.284C423.686 763.86 424.576 764.636 425.205 765.614C425.833 766.591 426.148 767.67 426.148 768.852C426.155 770.163 425.769 771.261 424.989 772.148C424.216 773.034 423.201 773.614 421.943 773.886V774.068C423.58 774.295 424.833 774.902 425.705 775.886C426.583 776.864 427.019 778.08 427.011 779.534C427.011 780.837 426.64 782.004 425.898 783.034C425.163 784.057 424.148 784.86 422.852 785.443C421.564 786.027 420.087 786.318 418.42 786.318Z" fill="white"/>
<rect x="395" y="1044" width="1132" height="128" rx="9" fill="#2AB6A0" fill-opacity="0.15"/>
<rect x="395" y="1044" width="1132" height="128" rx="9" stroke="#2AB6A0" stroke-width="6"/>
<rect x="392" y="1041" width="53" height="55" rx="8" fill="#2AB6A0"/>
<path d="M418.591 1080.32C417.477 1080.31 416.39 1080.12 415.33 1079.74C414.269 1079.35 413.314 1078.73 412.466 1077.86C411.617 1076.99 410.943 1075.84 410.443 1074.4C409.943 1072.95 409.697 1071.16 409.705 1069.02C409.705 1067.03 409.917 1065.25 410.341 1063.69C410.765 1062.13 411.375 1060.81 412.17 1059.74C412.966 1058.66 413.924 1057.83 415.045 1057.26C416.174 1056.69 417.436 1056.41 418.83 1056.41C420.292 1056.41 421.587 1056.7 422.716 1057.27C423.852 1057.85 424.769 1058.64 425.466 1059.64C426.163 1060.63 426.595 1061.75 426.761 1063H422.614C422.402 1062.11 421.966 1061.39 421.307 1060.86C420.655 1060.33 419.83 1060.06 418.83 1060.06C417.216 1060.06 415.973 1060.76 415.102 1062.16C414.239 1063.56 413.803 1065.48 413.795 1067.93H413.955C414.326 1067.27 414.807 1066.69 415.398 1066.22C415.989 1065.74 416.655 1065.37 417.398 1065.11C418.148 1064.85 418.939 1064.72 419.773 1064.72C421.136 1064.72 422.36 1065.04 423.443 1065.69C424.534 1066.34 425.398 1067.24 426.034 1068.39C426.67 1069.52 426.985 1070.83 426.977 1072.3C426.985 1073.83 426.636 1075.2 425.932 1076.42C425.227 1077.63 424.246 1078.59 422.989 1079.28C421.731 1079.98 420.265 1080.33 418.591 1080.32ZM418.568 1076.91C419.394 1076.91 420.133 1076.71 420.784 1076.31C421.436 1075.91 421.951 1075.36 422.33 1074.68C422.708 1074 422.894 1073.23 422.886 1072.39C422.894 1071.55 422.712 1070.8 422.341 1070.12C421.977 1069.45 421.473 1068.92 420.83 1068.52C420.186 1068.13 419.451 1067.93 418.625 1067.93C418.011 1067.93 417.439 1068.05 416.909 1068.28C416.379 1068.52 415.917 1068.84 415.523 1069.26C415.129 1069.67 414.818 1070.15 414.591 1070.69C414.371 1071.23 414.258 1071.81 414.25 1072.42C414.258 1073.23 414.447 1073.98 414.818 1074.66C415.189 1075.34 415.701 1075.89 416.352 1076.3C417.004 1076.7 417.742 1076.91 418.568 1076.91Z" fill="white"/>
<rect x="395" y="897" width="293" height="138" rx="9" fill="#2AB6A0" fill-opacity="0.15"/>
<rect x="395" y="897" width="293" height="138" rx="9" stroke="#2AB6A0" stroke-width="6"/>
<rect x="392" y="894" width="54" height="55" rx="8" fill="#2AB6A0"/>
<path d="M409.648 928.682V925.33L419.523 909.727H422.318V914.5H420.614L413.966 925.034V925.216H427.75V928.682H409.648ZM420.75 933V927.659L420.795 926.159V909.727H424.773V933H420.75Z" fill="white"/>
<rect x="1247" y="897" width="280" height="138" rx="9" fill="#2AB6A0" fill-opacity="0.15"/>
<rect x="1247" y="897" width="280" height="138" rx="9" stroke="#2AB6A0" stroke-width="6"/>
<rect x="1244" y="894" width="53" height="55" rx="8" fill="#2AB6A0"/>
<path d="M1270.16 933.318C1268.64 933.318 1267.29 933.034 1266.09 932.466C1264.89 931.89 1263.94 931.102 1263.24 930.102C1262.54 929.102 1262.17 927.958 1262.12 926.67H1266.22C1266.29 927.625 1266.7 928.405 1267.45 929.011C1268.2 929.61 1269.11 929.909 1270.16 929.909C1270.98 929.909 1271.72 929.72 1272.36 929.341C1273.01 928.962 1273.52 928.436 1273.89 927.761C1274.26 927.087 1274.44 926.318 1274.43 925.455C1274.44 924.576 1274.25 923.795 1273.88 923.114C1273.5 922.432 1272.98 921.898 1272.32 921.511C1271.66 921.117 1270.9 920.92 1270.05 920.92C1269.35 920.913 1268.66 921.042 1267.99 921.307C1267.31 921.572 1266.78 921.92 1266.39 922.352L1262.58 921.727L1263.8 909.727H1277.3V913.25H1267.28L1266.61 919.42H1266.75C1267.18 918.913 1267.79 918.492 1268.58 918.159C1269.37 917.818 1270.23 917.648 1271.17 917.648C1272.58 917.648 1273.84 917.981 1274.94 918.648C1276.05 919.307 1276.92 920.216 1277.56 921.375C1278.19 922.534 1278.51 923.86 1278.51 925.352C1278.51 926.89 1278.16 928.261 1277.44 929.466C1276.74 930.663 1275.76 931.606 1274.5 932.295C1273.25 932.977 1271.8 933.318 1270.16 933.318Z" fill="white"/>
</svg>
