<svg width="584" height="501" viewBox="0 0 584 501" fill="none" xmlns="http://www.w3.org/2000/svg">
<path d="M1 302.51C27.4 330.51 53.9 358.51 80.3 386.51C84.9 395.61 91.1 406.31 99.5 417.41C108.1 428.81 116.8 437.91 124.5 444.81C138.8 452.81 154 460.81 170.2 468.61C196 481.11 220.7 491.41 243.9 500.01C257.6 485.61 271.2 471.31 284.9 456.91C294.8 452.51 303.2 450.81 309 450.11C321.2 448.51 327.5 450.51 342.3 449.81C352.4 449.31 360.6 447.81 365.9 446.61C383 439.61 400.2 432.71 417.3 425.71C396.1 404.51 379.1 386.81 367.5 374.51C338.2 343.51 325.9 329.01 302.9 308.01C285.6 292.31 270.6 280.41 260.7 272.91C255.9 273.51 248.7 274.51 240.1 276.61C227.7 279.61 219.2 283.21 213.4 285.41C203.5 289.21 189.1 294.21 169.9 298.71C155.3 299.01 143.6 297.91 136 297.01C115 294.41 105.2 290.41 80.8 286.41C67.4 284.21 56.4 283.21 49.8 282.61C33.6 289.21 17.3 295.91 1 302.51Z" stroke="white" stroke-miterlimit="10"/>
<path d="M53.6999 241.011C51.9999 244.211 52.3 248.111 54.5 250.511C57.3 253.711 62.7 254.111 66.6 250.811C89.7 243.711 112.7 236.511 135.8 229.411C136.7 230.611 139.2 233.511 143.3 234.811C145.6 235.511 147.6 235.611 149 235.511C150.1 240.511 153.2 252.411 156.7 252.311C159.5 252.211 161.7 244.911 162.4 240.511C163.1 235.811 162.4 232.111 161.6 228.311C160.5 222.511 159.8 219.411 157.3 216.611C153.3 212.011 147.3 211.211 144.7 211.111C144.4 208.111 142.5 205.611 139.8 204.811C136.6 203.811 133.4 205.511 132 207.611C130.5 209.911 131.8 211.911 131.4 215.911C131.2 218.311 130.2 221.811 127.1 225.811C117.4 229.411 106.1 233.011 93.1999 235.711C78.4999 239.011 65.0999 240.511 53.6999 241.011Z" stroke="white" stroke-miterlimit="10"/>
<path d="M218.1 241.11C215.5 243.41 214.5 246.81 215.6 249.31C217.1 252.71 222.3 254.41 226.6 251.81C223.9 252.91 222.5 253.51 222.6 253.61C222.7 254.01 236.4 249.71 263.5 240.81C266.1 237.31 266.2 233.01 264.1 230.61C262.8 229.11 261.1 228.61 260.1 228.51C246.1 232.61 232.1 236.81 218.1 241.11Z" stroke="white" stroke-miterlimit="10"/>
<path d="M53.5 241.61C53.3 242.21 52.3 245.21 53.8 248.31C55.3 251.21 58.4 253.01 61.9 253.01C65 252.11 70.3 250.71 76.7 249.01C103.3 241.81 110.5 239.91 120.8 235.91C124.4 234.51 129.5 232.41 135.6 229.51C136.2 230.51 137.9 232.81 141 234.21C143.2 235.21 145.3 235.31 146.4 235.21C147.9 236.21 149.7 237.81 151.5 239.91C155.3 244.71 156.3 249.81 156.6 252.41C158.2 250.61 160.4 247.51 161.7 243.31C164.3 234.71 161.4 227.41 160.4 225.11C160.4 223.81 160.2 220.01 157.4 216.71C152.9 211.31 145.9 211.91 145.3 212.01C145 208.61 142.8 205.71 139.9 204.91C135.6 203.71 131.1 207.41 130.5 211.31C130.2 213.41 131 215.11 131.5 216.01C130.2 217.91 128.7 220.31 127.5 223.11C126.8 224.61 126.3 226.11 125.8 227.51C115.7 230.81 104.2 234.01 91.4 236.61C77.5 239.31 64.8 240.81 53.5 241.61Z" fill="white"/>
<path d="M215.5 250.01C213.8 247.31 214.4 243.41 216.5 240.91C219.4 237.51 223.9 238.211 224.2 238.211C236.8 234.811 249.3 231.51 261.9 228.11C262.3 228.41 265.6 231.01 265.6 235.51C265.6 236.01 265.5 240.21 261.9 242.91C245 245.31 236.2 248.41 231.3 251.01C229.9 251.71 225.2 254.31 220.2 253.01C219.2 252.81 216.9 252.21 215.5 250.01Z" fill="white"/>
<path d="M81.7003 389.51C81.0003 390.11 62.5003 371.11 40.2003 347.11C17.9003 323.11 0.400367 303.11 1.10037 302.51C1.80037 301.91 20.3004 320.91 42.6004 344.91C64.9004 368.91 82.4003 388.91 81.7003 389.51Z" fill="#412980" stroke="#412980" stroke-miterlimit="10"/>
<path d="M124.5 444.81C124.2 445.11 120.8 442.711 115.9 438.111C113.4 435.811 110.6 433.01 107.6 429.71C104.6 426.41 101.5 422.711 98.4002 418.611C95.3002 414.511 92.6002 410.51 90.2002 406.71C87.9002 402.91 85.9002 399.51 84.4002 396.51C81.3002 390.51 79.9002 386.61 80.3002 386.41C81.2002 386.01 88.8002 400.511 101 416.611C113.2 432.811 125.2 444.01 124.5 444.81Z" fill="#412980" stroke="#412980" stroke-miterlimit="10"/>
<path d="M245.2 499.91C245.1 500.31 237.5 498.21 225.6 493.91C219.6 491.81 212.6 489.11 204.8 485.91C197 482.71 188.6 479.01 179.8 474.91C171 470.81 162.8 466.611 155.4 462.711C148 458.711 141.4 455.11 136 451.81C125.1 445.31 118.6 440.91 118.8 440.51C119 440.11 125.9 443.81 137.1 449.81C142.7 452.81 149.3 456.21 156.8 460.01C164.3 463.81 172.5 467.81 181.2 471.91C189.9 476.01 198.3 479.711 206 483.111C213.7 486.411 220.6 489.311 226.5 491.711C238.1 496.611 245.4 499.51 245.2 499.91Z" fill="#412980" stroke="#412980" stroke-miterlimit="10"/>
<path d="M53.3999 280.811C53.7999 281.611 43.6999 287.911 29.8999 293.211C16.1999 298.611 4.3999 300.71 4.1999 299.91C3.9999 299.01 15.1999 295.511 28.6999 290.211C42.1999 285.011 52.8999 280.011 53.3999 280.811Z" fill="#412980" stroke="#412980" stroke-miterlimit="10"/>
<path d="M180.8 305.111C180.7 305.311 178.999 304.711 175.899 303.611C172.799 302.511 168.3 301.011 162.6 299.711C156.9 298.311 149.999 297.311 142.299 296.611C134.499 295.911 125.9 295.011 117 293.811C99.0995 291.411 82.9995 288.311 71.3995 285.711C59.7995 283.111 52.7995 281.011 52.8995 280.511C52.9995 280.011 60.1995 281.411 71.7995 283.411C83.3995 285.411 99.4995 288.211 117.399 290.511C126.299 291.711 134.8 292.711 142.6 293.611C146.5 294.111 150.199 294.611 153.699 295.211C157.199 295.811 160.399 296.611 163.199 297.411C168.899 299.111 173.399 300.911 176.399 302.311C179.399 303.911 180.9 304.911 180.8 305.111Z" fill="#412980" stroke="#412980" stroke-miterlimit="10"/>
<path d="M263.4 270.31C263.5 270.81 258.2 272.41 249.8 275.01C241.3 277.61 229.6 281.31 216.9 285.91C210.5 288.21 204.5 290.41 199 292.51C196.3 293.61 193.7 294.61 191.2 295.51C188.8 296.51 186.5 297.41 184.4 298.11C180.1 299.61 176.3 300.21 173.7 299.81C171.1 299.51 169.9 298.71 169.9 298.51C170 298.21 171.3 298.61 173.7 298.51C176.1 298.41 179.5 297.61 183.5 295.91C185.5 295.11 187.7 294.01 190.1 292.91C192.5 291.81 195.1 290.71 197.8 289.61C203.2 287.31 209.3 285.01 215.7 282.71C228.5 278.11 240.4 274.81 249.1 272.71C257.9 270.81 263.3 269.91 263.4 270.31Z" fill="#412980" stroke="#412980" stroke-miterlimit="10"/>
<path d="M292 296.611C291.3 297.211 285 291.111 276.4 284.711C267.9 278.211 260.3 273.711 260.8 272.911C261 272.511 263.2 273.111 266.4 274.711C269.7 276.311 274 278.811 278.4 282.111C282.8 285.411 286.4 288.911 288.8 291.711C291.1 294.411 292.3 296.411 292 296.611Z" fill="#412980" stroke="#412980" stroke-miterlimit="10"/>
<path d="M244.1 499.81C244 499.71 244.6 499.01 245.8 497.81C247 496.51 248.7 494.71 251 492.21C255.5 487.41 262.2 480.311 270.1 471.111C272.1 468.811 274.1 466.41 276.2 463.81C278.4 461.21 280.8 458.61 283.7 456.31C286.6 454.01 290 452.01 293.8 450.71C297.6 449.31 301.8 448.611 306 448.611C308.1 448.611 310.2 448.71 312.3 448.81C314.4 448.91 316.5 448.91 318.7 448.91C323 448.91 327.5 448.81 332 448.71C336.5 448.61 341.2 448.411 345.9 448.111C348.3 448.011 350.7 447.81 353.1 447.71C355.4 447.51 357.8 447.41 360.2 447.21C375.5 441.01 391.6 434.411 408.3 427.611C410.4 426.811 412.4 425.911 414.4 425.111C397.6 407.711 381.7 391.31 367.2 376.31C352.3 360.81 338.9 346.811 327.7 335.111C316.5 323.411 307.5 313.91 301.3 307.31C298.2 304.01 295.9 301.41 294.3 299.61C292.7 297.81 291.9 296.91 292 296.81C292.1 296.71 293 297.51 294.8 299.21C296.5 300.81 299 303.31 302.3 306.41C308.7 312.71 318 322.01 329.4 333.51C340.8 345.11 354.3 358.81 369.4 374.21C385 390.11 402.1 407.71 420.2 426.21C416.7 427.61 413.2 429.11 409.6 430.51C392.7 437.31 376.4 443.91 361 450.21C358.5 450.41 355.9 450.51 353.4 450.71C351 450.81 348.6 450.911 346.2 451.111C341.4 451.311 336.8 451.511 332.2 451.611C327.6 451.711 323.1 451.71 318.8 451.71C316.6 451.71 314.5 451.611 312.3 451.611C310.2 451.511 308 451.41 306.1 451.41C298.1 451.31 290.7 454.01 285.2 458.31C282.4 460.41 280 462.91 277.9 465.41C275.7 467.91 273.6 470.411 271.6 472.611C263.5 481.711 256.6 488.511 251.8 493.111C249.4 495.411 247.5 497.11 246.2 498.31C244.9 499.31 244.2 499.91 244.1 499.81Z" fill="#412980" stroke="#412980" stroke-miterlimit="10"/>
<path d="M297.4 447.71C297.3 447.91 296.7 447.911 295.7 447.611C294.7 447.311 293.3 446.61 291.8 445.51C288.8 443.31 285.1 440.211 281 436.611C272.9 429.311 266.8 422.91 267.4 422.21C268 421.51 275.1 426.911 283.2 434.111C287.3 437.711 290.8 441.21 293.3 443.71C295.7 446.21 297.5 447.31 297.4 447.71Z" fill="#412980" stroke="#412980" stroke-miterlimit="10"/>
<path d="M179.1 387.111C179.1 387.511 173.8 388.21 165 389.01C156.3 389.71 144.3 390.511 131 391.211C124.4 391.511 118 391.811 112.2 391.711C106.4 391.611 101.1 391.11 96.8004 390.41C92.5004 389.71 89.0004 389.111 86.6004 388.711C84.2004 388.311 82.9004 388.011 82.9004 387.711C82.9004 387.511 84.3004 387.31 86.7004 387.41C89.2004 387.41 92.7004 387.711 97.0004 388.111C101.3 388.511 106.4 388.811 112.2 388.711C117.9 388.611 124.2 388.31 130.9 387.91C144.2 387.21 156.3 386.811 165 386.611C173.7 386.511 179.1 386.611 179.1 387.111Z" fill="#412980" stroke="#412980" stroke-miterlimit="10"/>
<path d="M145.7 423.71C145.4 424.01 141.6 420.61 136.4 414.41C131.2 408.11 124.7 398.91 118.3 388.31C111.9 377.71 106.4 368.01 102.5 360.91C98.6005 353.81 96.4005 349.31 96.8005 349.01C97.6005 348.51 108.4 365.41 121.1 386.61C127.5 397.21 133.5 406.51 138.2 413.01C142.9 419.51 146 423.31 145.7 423.71Z" fill="#412980" stroke="#412980" stroke-miterlimit="10"/>
<path d="M166.3 331.21C166.3 332.21 150.1 332.21 130.9 336.61C111.6 340.91 97.0002 347.91 96.6002 347.01C96.4002 346.61 99.8001 344.41 105.8 341.61C108.8 340.21 112.4 338.71 116.5 337.31C120.6 335.91 125.2 334.51 130.1 333.41C135 332.31 139.7 331.51 144.1 331.01C148.4 330.51 152.3 330.31 155.6 330.21C162.3 330.21 166.3 330.71 166.3 331.21Z" fill="#412980" stroke="#412980" stroke-miterlimit="10"/>
<path d="M212.3 393.811C211.4 394.311 202.4 378.711 188.9 361.111C175.5 343.511 162.8 330.611 163.5 329.911C163.8 329.611 167.4 332.411 172.6 337.611C175.2 340.211 178.2 343.311 181.5 346.911C184.7 350.511 188.1 354.611 191.5 359.111C194.9 363.611 198 367.911 200.6 372.011C203.2 376.111 205.5 379.811 207.3 383.011C210.9 389.411 212.7 393.611 212.3 393.811Z" fill="#412980" stroke="#412980" stroke-miterlimit="10"/>
<path d="M215.3 396.211C215.6 396.411 213.1 400.111 207.7 404.711C202.3 409.311 193.7 414.41 183.5 418.01C173.3 421.61 163.7 423.511 156.7 424.211C149.7 424.911 145.3 424.511 145.3 424.111C145.3 423.611 149.6 423.11 156.4 421.91C163.2 420.61 172.5 418.51 182.5 414.91C192.4 411.41 200.8 406.81 206.4 402.91C211.9 399.01 215 395.911 215.3 396.211Z" fill="#412980" stroke="#412980" stroke-miterlimit="10"/>
<path d="M217 459.611C216.4 460.211 206.7 451.41 195.4 440.01C189.8 434.31 184.8 429.01 181.3 425.01C180.4 424.01 179.7 423.11 179 422.31C178.7 421.91 178.4 421.51 178.1 421.21C177.8 420.91 177.6 420.51 177.4 420.31C177.2 420.11 177 420.01 176.8 420.01C176.6 420.01 176.6 420.31 176.7 420.41C176.8 420.51 176.9 420.61 177 420.51C177.1 420.51 177.1 420.41 177.2 420.31C177.2 420.21 177.2 420.31 177.1 420.21C177.1 420.01 176.9 419.91 176.8 419.71C176.7 419.51 176.7 419.21 177 419.01C177.3 418.91 177.8 419.01 178.2 419.21C178.6 419.51 178.9 419.71 179.2 420.01C179.5 420.31 179.9 420.61 180.3 420.91C181.1 421.61 182 422.41 183 423.31C186.9 426.81 192.1 431.911 197.8 437.611C209.1 449.111 217.7 458.911 217 459.611Z" fill="#412980" stroke="#412980" stroke-miterlimit="10"/>
<path d="M237.8 362.81C237.8 363.81 229.2 364.61 219 367.41C208.8 370.21 200.9 373.911 200.5 373.111C200.3 372.711 202 371.31 205.2 369.51C208.3 367.71 212.9 365.71 218.2 364.31C223.5 362.81 228.5 362.211 232.1 362.111C235.6 362.011 237.8 362.41 237.8 362.81Z" fill="#412980" stroke="#412980" stroke-miterlimit="10"/>
<path d="M275.6 412.111C274.8 412.611 266.8 401.111 256.1 387.611C245.4 374.111 235.9 363.811 236.6 363.111C237.2 362.511 247.8 371.911 258.6 385.611C269.5 399.211 276.3 411.711 275.6 412.111Z" fill="#412980" stroke="#412980" stroke-miterlimit="10"/>
<path d="M283.6 425.01C283.7 425.21 282.6 425.81 280.4 425.91C279.3 425.91 278 425.81 276.6 425.61C275.1 425.41 273.5 425.01 271.8 424.81C270.1 424.61 268.2 424.61 266.2 424.91C264.2 425.21 262.1 425.71 260 426.61C255.7 428.31 251.3 431.01 246.8 434.11C228.5 446.51 214.5 457.61 213.9 456.91C213.3 456.31 226.6 443.91 245 431.41C249.6 428.31 254.3 425.51 259 423.81C261.4 423.01 263.7 422.41 266 422.21C268.3 422.01 270.4 422.21 272.3 422.51C274.2 422.91 275.7 423.41 277.1 423.81C278.5 424.21 279.6 424.51 280.6 424.61C282.5 424.91 283.6 424.81 283.6 425.01Z" fill="#412980" stroke="#412980" stroke-miterlimit="10"/>
<path d="M71.1004 355.31C70.4004 355.91 60.9004 345.511 50.7004 331.611C40.4004 317.711 33.3004 305.61 34.1004 305.11C34.9004 304.61 43.1004 315.81 53.4004 329.61C63.4004 343.61 71.8004 354.81 71.1004 355.31Z" fill="#412980" stroke="#412980" stroke-miterlimit="10"/>
<path d="M83.5002 358.91C82.8002 359.51 75.6002 351.41 67.4002 340.91C59.2002 330.41 53.2002 321.51 53.9002 320.91C54.6002 320.31 61.8002 328.41 70.0002 338.91C78.2002 349.41 84.2002 358.41 83.5002 358.91Z" fill="#412980" stroke="#412980" stroke-miterlimit="10"/>
<path d="M83.8997 339.911C83.0997 340.311 78.5997 333.111 72.7997 324.611C66.9997 316.011 61.8997 309.311 62.5997 308.711C63.1997 308.111 69.4997 314.011 75.4997 322.811C81.4997 331.511 84.6997 339.511 83.8997 339.911Z" fill="#412980" stroke="#412980" stroke-miterlimit="10"/>
<path d="M203.5 350.611C202.7 351.011 198 343.21 191.9 333.81C185.9 324.41 180.7 316.91 181.4 316.31C182.1 315.71 188.5 322.51 194.6 332.01C200.9 341.61 204.3 350.211 203.5 350.611Z" fill="#412980" stroke="#412980" stroke-miterlimit="10"/>
<path d="M219.1 361.51C218.2 361.91 212.9 351.51 205.9 339.01C198.9 326.51 192.7 316.511 193.5 316.011C194.2 315.511 201.6 324.71 208.7 337.41C215.9 350.01 219.9 361.11 219.1 361.51Z" fill="#412980" stroke="#412980" stroke-miterlimit="10"/>
<path d="M233.4 363.31C232.7 363.91 225.8 356.51 219.2 345.91C212.6 335.41 209 325.91 209.8 325.61C210.6 325.21 215.5 333.91 222 344.21C228.5 354.61 234.2 362.71 233.4 363.31Z" fill="#412980" stroke="#412980" stroke-miterlimit="10"/>
<path d="M265.4 226.91C265.6 227.81 255.1 231.41 241.9 235.11C228.7 238.71 217.8 241.01 217.6 240.11C217.4 239.21 227.9 235.61 241.1 231.91C254.3 228.31 265.1 226.11 265.4 226.91Z" fill="#412980" stroke="#412980" stroke-miterlimit="10"/>
<path d="M222.7 253.51C222.7 253.01 224.1 252.71 225.5 251.31C226.2 250.61 226.9 249.61 227.3 248.51C227.7 247.31 227.8 246.01 227.4 244.81C226.9 243.61 226 242.61 224.9 242.01C223.8 241.41 222.7 241.11 221.7 241.01C219.7 240.81 218.4 241.51 218.1 241.11C218 240.91 218.1 240.51 218.7 240.01C219.2 239.51 220.2 238.91 221.6 238.71C222.9 238.41 224.6 238.61 226.3 239.31C228 240.01 229.7 241.51 230.5 243.71C231.3 245.91 230.9 248.11 230.1 249.71C229.3 251.41 228.1 252.51 226.9 253.21C225.7 253.91 224.6 254.11 223.9 254.01C223 253.91 222.7 253.71 222.7 253.51Z" fill="#412980" stroke="#412980" stroke-miterlimit="10"/>
<path d="M264.6 241.21C264.9 242.01 256.9 245.91 246.3 248.81C235.7 251.71 226.9 252.61 226.7 251.71C226.5 250.81 235 248.51 245.4 245.61C255.8 242.81 264.2 240.41 264.6 241.21Z" fill="#412980" stroke="#412980" stroke-miterlimit="10"/>
<path d="M263.5 240.711C263.1 240.411 263.3 239.611 263.5 238.411C263.7 237.211 263.9 235.711 263.8 234.111C263.6 232.411 263.2 231.011 262.8 229.911C262.4 228.811 262.1 228.011 262.4 227.711C262.7 227.411 263.6 227.611 264.7 228.611C265.2 229.111 265.8 229.911 266.2 230.811C266.6 231.711 266.9 232.811 267 233.911C267.1 235.011 267 236.111 266.7 237.111C266.4 238.111 266 238.911 265.6 239.511C264.8 240.611 263.9 241.011 263.5 240.711Z" fill="#412980" stroke="#412980" stroke-miterlimit="10"/>
<path d="M221.6 245.51C221.9 246.41 215.9 249.01 208.2 251.51C200.5 254.01 194.1 255.31 193.8 254.41C193.5 253.51 199.5 250.91 207.2 248.41C214.9 246.01 221.4 244.71 221.6 245.51Z" fill="#412980" stroke="#412980" stroke-miterlimit="10"/>
<path d="M225.2 251.91C225.3 252.11 225.2 252.51 224.7 252.91C224.2 253.41 223.4 253.91 222.2 254.11C221 254.31 219.5 254.31 218 253.61C216.5 253.01 214.9 251.71 214.1 249.81C213.3 247.91 213.6 245.91 214.2 244.41C214.9 242.91 215.9 241.81 216.9 241.11C217.9 240.41 218.9 240.21 219.6 240.21C220.3 240.21 220.6 240.41 220.6 240.61C220.7 241.11 219.5 241.51 218.4 242.81C217.8 243.41 217.3 244.31 217 245.31C216.7 246.31 216.7 247.51 217.1 248.51C217.5 249.51 218.3 250.31 219.2 250.81C220.1 251.31 221.1 251.61 221.9 251.71C223.7 252.01 224.9 251.51 225.2 251.91Z" fill="#412980" stroke="#412980" stroke-miterlimit="10"/>
<path d="M193.7 258.51C192.9 258.91 191.5 257.61 190.7 255.71C189.9 253.81 189.8 252.01 190.7 251.61C191.5 251.21 192.9 252.51 193.7 254.41C194.5 256.31 194.6 258.11 193.7 258.51Z" fill="#412980" stroke="#412980" stroke-miterlimit="10"/>
<path d="M191.1 258.411C190.3 258.711 189.1 257.611 188.5 256.011C187.9 254.411 188.1 252.811 189 252.511C189.9 252.211 191 253.311 191.6 254.911C192.1 256.511 191.9 258.111 191.1 258.411Z" fill="#412980" stroke="#412980" stroke-miterlimit="10"/>
<path d="M64.1 252.01C64.2 252.21 64.1 252.51 63.6 253.01C63.2 253.41 62.4 253.91 61.3 254.21C60.2 254.51 58.9 254.61 57.4 254.21C55.9 253.91 54.4 253.01 53.2 251.71C52 250.31 51.4 248.61 51.3 247.11C51.1 245.61 51.4 244.21 51.8 243.21C52.2 242.21 52.8 241.51 53.3 241.11C53.8 240.71 54.2 240.61 54.3 240.81C54.7 241.11 54.2 242.21 54 243.91C53.8 245.51 54.2 247.91 55.6 249.61C57.1 251.31 59.4 251.91 61 252.01C62.7 252.01 63.9 251.61 64.1 252.01Z" fill="#412980" stroke="#412980" stroke-miterlimit="10"/>
<path d="M126.6 227.91C126.8 228.81 110.8 233.41 90.7996 238.11C80.7996 240.41 71.3996 241.71 64.5996 241.91C57.7996 242.21 53.5996 241.51 53.5996 241.11C53.5996 240.61 57.7996 240.51 64.3996 239.61C70.9996 238.81 80.0996 237.21 89.9996 234.91C110.1 230.21 126.4 227.01 126.6 227.91Z" fill="#412980" stroke="#412980" stroke-miterlimit="10"/>
<path d="M138.1 229.911C138.4 230.811 121.8 236.611 101.1 243.011C95.8998 244.611 90.9998 246.111 86.4998 247.411C81.9998 248.711 77.9998 249.911 74.3998 250.711C70.8998 251.511 67.8998 251.811 65.8998 251.611C63.8998 251.511 62.7998 251.111 62.7998 250.911C62.7998 250.711 63.8998 250.611 65.7998 250.311C67.6998 250.011 70.4998 249.511 73.7998 248.411C77.0998 247.311 81.0998 245.911 85.5998 244.511C90.0998 243.011 94.9998 241.511 100.1 239.911C120.9 233.511 137.9 229.011 138.1 229.911Z" fill="#412980" stroke="#412980" stroke-miterlimit="10"/>
<path d="M134 216.71C134.2 217.11 133.6 217.81 132.8 218.61C132 219.51 130.9 220.61 130 222.01C129 223.41 128.3 224.81 127.8 225.81C127.3 226.91 126.8 227.61 126.4 227.61C126 227.61 125.6 226.71 125.6 225.31C125.6 223.91 126.1 221.91 127.4 220.11C128.7 218.31 130.3 217.11 131.6 216.61C132.9 216.21 133.9 216.31 134 216.71Z" fill="#412980" stroke="#412980" stroke-miterlimit="10"/>
<path d="M145.8 212.61C145.4 212.81 144.4 211.71 142.8 210.01C142 209.21 141.1 208.31 139.9 207.71C138.8 207.11 137.4 206.91 136 207.21C134.6 207.51 133.4 208.21 132.6 209.11C131.8 210.01 131.4 211.21 131.2 212.21C130.8 214.21 131.3 215.61 130.9 215.91C130.7 216.01 130.3 215.81 129.9 215.21C129.5 214.61 129 213.51 128.9 212.21C128.8 210.81 129.1 209.11 130.2 207.51C131.3 205.81 133.2 204.61 135.4 204.11C136.5 203.91 137.6 203.91 138.6 204.11C139.6 204.31 140.6 204.71 141.4 205.21C143 206.31 143.9 207.61 144.6 208.71C145.9 210.91 146.2 212.41 145.8 212.61Z" fill="#412980" stroke="#412980" stroke-miterlimit="10"/>
<path d="M160.2 225.91C159.8 226.11 159 225.01 157.9 223.21C156.8 221.51 155.5 219.01 153.7 217.01C152.7 216.01 151.7 215.21 150.7 214.71C149.7 214.21 148.5 213.81 147.5 213.41C146.5 213.01 145.7 212.61 145.2 212.11C144.7 211.71 144.5 211.31 144.7 211.11C144.8 210.91 145.2 210.91 145.8 210.91C146.4 210.91 147.2 211.01 148.1 211.11C149.1 211.21 150.4 211.31 151.9 211.81C153.4 212.31 154.9 213.31 156.1 214.61C158.5 217.21 159.5 220.11 160.1 222.21C160.6 224.41 160.6 225.81 160.2 225.91Z" fill="#412980" stroke="#412980" stroke-miterlimit="10"/>
<path d="M148.9 235.61C149.1 236.01 148.6 236.81 147.2 237.31C146.5 237.61 145.6 237.71 144.6 237.61C143.6 237.51 142.6 237.211 141.6 236.711C140.6 236.211 139.8 235.411 139.2 234.711C138.6 233.911 138.2 233.11 138.1 232.41C137.8 230.91 138.2 230.01 138.6 230.01C139.1 230.01 139.5 230.61 140.2 231.41C140.5 231.81 141 232.21 141.4 232.61C141.9 233.01 142.5 233.41 143.1 233.81C143.8 234.11 144.4 234.41 145 234.61C145.6 234.81 146.2 234.91 146.7 235.01C147.9 235.21 148.7 235.21 148.9 235.61Z" fill="#412980" stroke="#412980" stroke-miterlimit="10"/>
<path d="M155.7 252.511C154.8 252.511 154.2 248.311 152 244.011C149.8 239.611 146.9 236.711 147.4 235.911C147.7 235.611 148.8 235.911 150.3 236.911C151.8 238.011 153.6 239.911 154.9 242.511C156.2 245.111 156.7 247.711 156.6 249.511C156.6 251.411 156.2 252.511 155.7 252.511Z" fill="#412980" stroke="#412980" stroke-miterlimit="10"/>
<path d="M157.7 251.01C156.9 250.51 159.6 245.21 160.1 238.11C160.8 231.11 159 225.41 159.9 225.01C160.3 224.81 161.3 226.11 162.2 228.51C162.6 229.71 163 231.21 163.2 232.91C163.4 234.61 163.5 236.41 163.3 238.41C163.1 240.31 162.7 242.21 162.2 243.81C161.7 245.41 161.1 246.81 160.4 247.91C159.3 250.21 158.1 251.31 157.7 251.01Z" fill="#412980" stroke="#412980" stroke-miterlimit="10"/>
<path d="M136.9 229.91C136.4 230.01 135.9 229.41 135 228.81C134.1 228.31 132.8 227.81 131.3 227.81C129.7 227.81 128.1 228.21 126.8 228.41C125.5 228.61 124.6 228.611 124.4 228.211C124.2 227.811 124.7 227.11 125.9 226.31C127 225.51 128.8 224.61 131.3 224.51C133.8 224.51 135.9 225.811 136.7 227.211C137.1 227.911 137.3 228.61 137.3 229.01C137.3 229.61 137.2 229.91 136.9 229.91Z" fill="#412980" stroke="#412980" stroke-miterlimit="10"/>
<path d="M147.9 228.41C148.8 228.71 149 230.31 148.8 232.11C148.6 233.91 148.1 235.51 147.2 235.61C146.3 235.71 145.4 234.011 145.6 231.811C145.8 229.611 147 228.11 147.9 228.41Z" fill="#412980" stroke="#412980" stroke-miterlimit="10"/>
<path d="M159.5 226.211C159.2 226.611 158.5 226.511 157.5 226.511C156.5 226.411 155.3 226.41 154 226.61C152.7 226.81 151.5 227.211 150.6 227.511C149.7 227.811 149 228.11 148.6 227.81C148.3 227.51 148.3 226.711 149.1 225.711C149.9 224.711 151.5 223.71 153.4 223.41C155.3 223.11 157.2 223.61 158.2 224.31C159.5 225.01 159.8 225.811 159.5 226.211Z" fill="#412980" stroke="#412980" stroke-miterlimit="10"/>
<path d="M147.1 211.71C147 212.61 144.2 212.91 141.2 214.01C138.1 215.01 135.8 216.51 135.1 215.81C134.8 215.51 135 214.61 135.9 213.61C136.7 212.61 138.2 211.51 140.1 210.81C142 210.11 143.9 210.11 145.1 210.41C146.4 210.81 147.1 211.31 147.1 211.71Z" fill="#412980" stroke="#412980" stroke-miterlimit="10"/>
<path d="M334.6 127.011C324.3 132.211 318.9 134.611 312.9 141.011C306.7 147.711 303.6 154.811 299.9 166.211C292.9 187.811 293.8 194.011 289.4 209.011C285.6 222.311 278.7 246.211 259 263.511C244.2 276.511 231.7 282.611 231.7 282.611C220.3 288.211 209.9 290.611 209.3 296.911C209 300.111 211.3 303.311 213.4 304.911C216.8 307.511 220.9 307.111 225.5 306.611C229.2 306.211 235.4 304.911 242.3 300.711C243.4 303.611 245.2 306.811 247.5 307.011C251.6 307.311 255.1 298.511 257.9 292.911C259.3 290.011 267.2 280.011 282.9 260.011C290.8 249.911 301.7 236.611 315.3 221.011C317.9 223.111 320.5 225.211 323.1 227.311C325.3 205.411 328 200.811 330.1 200.711C333.3 200.511 335.1 210.211 343.8 222.811C349.3 230.811 355.1 236.311 359.1 239.811C354.2 248.311 348.3 257.311 341.1 266.611C325.5 286.911 308.9 301.811 294.7 312.411C290.5 310.911 280.4 308.111 272.5 312.911C271.3 313.611 267.9 315.711 268.2 318.011C268.5 320.511 272.9 322.511 279.6 323.211C274.7 324.111 267.5 325.911 259.6 329.911C253.1 333.211 246.8 336.411 247.1 339.811C247.5 344.411 260 347.811 270.2 347.211C277.5 346.711 283.1 344.211 286.6 342.311C296.1 336.911 305.7 331.611 315.2 326.211C307.5 331.811 296.6 341.711 290.2 356.911C287.6 363.011 284.4 371.011 286.9 380.011C287.6 382.511 289.4 388.511 295.3 392.711C302 397.411 309.3 396.511 311.1 396.211C314.4 401.411 320.2 408.911 329.4 415.211C333.1 417.711 344.8 425.111 367.5 426.711C391.7 428.411 409.5 422.311 435.5 413.311C453.1 407.211 464.8 401.311 488.1 389.411C517.5 374.411 520.8 370.011 520.8 365.911C521.1 352.411 486 342.011 481.4 340.711C480.5 334.811 476.4 329.911 470.9 328.111C464.7 326.111 457.6 328.411 453.6 333.911C454.7 326.011 455.8 314.511 455.8 300.811C455.8 289.511 455 280.811 453.6 267.211C450.1 234.711 448.4 218.511 446.9 212.711C444.3 203.011 442.3 200.111 415.9 155.511C391 113.311 387.1 106.211 378.1 105.111C370.8 104.011 371.1 108.511 334.6 127.011Z" fill="white"/>
<path d="M372.8 118.511C382 122.611 385 121.911 391.4 124.911C397.1 127.611 400.6 130.911 404.7 134.811C413.4 143.011 418.8 152.211 422.1 159.711" fill="#412980"/>
<path d="M479 336.111C480.2 338.011 481.3 340.011 482.5 341.911C485 343.111 488.7 345.411 491.8 349.411C493.6 351.811 494.9 354.511 497.6 365.111C498.6 369.011 499.8 374.411 501.1 380.811C509.8 376.311 517.3 373.711 522.6 372.111C526.5 370.911 533.8 369.411 548.1 366.311C560 363.711 562.9 363.211 567.2 361.111C574 357.811 578.8 353.311 581.7 350.111C576.3 349.711 570.9 349.311 565.5 348.911C566.3 348.011 570.2 343.511 569 339.011C568.7 338.011 567.6 334.511 558.6 331.511C549.5 328.411 542.8 329.311 536 329.211C529.7 329.111 520.6 328.211 509.3 324.011C506.8 327.311 504.3 330.611 501.8 333.911C494.1 334.611 486.6 335.411 479 336.111Z" fill="#412980"/>
<path d="M252.1 270.511C251.9 270.311 253.3 268.811 255.8 266.011C258.2 263.211 261.7 259.211 265.6 253.911C267.6 251.311 269.6 248.311 271.6 245.011C273.7 241.711 275.7 238.211 277.7 234.311C279.7 230.411 281.6 226.311 283.3 221.911C285 217.511 286.5 212.911 287.9 208.011C290.7 198.411 292.7 188.911 294.7 180.411C296.7 171.911 298.8 164.211 301 157.911C301.5 156.311 302.1 154.811 302.6 153.411C302.9 152.711 303.1 152.011 303.4 151.411C303.7 150.711 303.9 150.111 304.2 149.511C304.7 148.311 305.2 147.211 305.7 146.111C306.2 145.111 306.8 144.111 307.4 143.411C308.6 141.911 310.1 141.011 311.1 140.911C312.1 140.711 312.7 141.011 312.7 141.011C312.7 141.111 312.2 141.111 311.3 141.511C310.5 141.811 309.4 142.711 308.4 144.211C307.9 144.911 307.5 145.811 307 146.811C306.6 147.811 306.2 149.011 305.8 150.211C305.6 150.811 305.4 151.511 305.1 152.111C304.9 152.811 304.7 153.511 304.4 154.211C303.9 155.611 303.5 157.111 303 158.711C301.1 165.011 299.3 172.711 297.5 181.211C295.6 189.711 293.7 199.211 290.9 209.011C289.5 213.911 287.9 218.611 286.1 223.111C284.3 227.611 282.3 231.811 280.2 235.711C278.1 239.611 275.9 243.211 273.7 246.511C271.5 249.811 269.3 252.711 267.2 255.311C263 260.511 259.2 264.411 256.4 266.911C254 269.411 252.3 270.611 252.1 270.511Z" fill="#412980" stroke="#412980" stroke-miterlimit="10"/>
<path d="M453.9 286.911C453.7 286.911 453.5 284.511 453.3 280.311C453.3 279.211 453.2 278.111 453.2 276.811C453.1 275.511 453 274.111 452.9 272.611C452.7 269.611 452.6 266.211 452.1 262.511C451.9 260.611 451.7 258.711 451.5 256.611C451.3 254.611 450.9 252.411 450.6 250.311C450.1 245.911 449.1 241.311 448.3 236.411C446.3 226.711 443.6 216.011 440 205.111C436.3 194.211 432.1 184.111 427.8 175.111C425.6 170.711 423.5 166.411 421.3 162.611C420.2 160.711 419.2 158.811 418.2 157.011C417.1 155.211 416.1 153.611 415.1 151.911C413.2 148.611 411.2 145.811 409.6 143.311C408.8 142.011 408 140.911 407.3 139.811C406.6 138.711 405.9 137.811 405.3 136.911C402.9 133.411 401.6 131.411 401.8 131.311C402 131.211 403.6 132.911 406.3 136.111C407 136.911 407.7 137.811 408.6 138.811C409.4 139.811 410.2 141.011 411.1 142.211C412.9 144.611 415 147.411 417 150.611C418 152.211 419.1 153.911 420.3 155.611C421.4 157.311 422.5 159.211 423.6 161.211C425.9 165.011 428.1 169.311 430.5 173.711C435 182.711 439.4 192.911 443.1 203.911C446.8 215.011 449.4 225.711 451.2 235.611C452 240.611 452.9 245.311 453.3 249.711C453.5 251.911 453.8 254.111 454 256.111C454.1 258.211 454.3 260.211 454.4 262.111C454.7 265.911 454.7 269.311 454.7 272.411C454.7 273.911 454.7 275.311 454.7 276.611C454.6 277.911 454.6 279.111 454.5 280.111C454.4 284.611 454.2 286.911 453.9 286.911Z" fill="#412980" stroke="#412980" stroke-miterlimit="10"/>
<path d="M358.3 241.711C358 242.011 354.8 238.911 350.2 233.411C347.9 230.711 345.3 227.311 342.6 223.411C339.9 219.511 337 215.211 334.3 210.511C331.5 205.811 329.1 201.211 327.1 196.911C325.1 192.611 323.4 188.711 322.1 185.411C319.5 178.711 318.4 174.411 318.8 174.311C319.7 174.011 326.1 190.311 337.1 208.811C348 227.411 359.1 241.011 358.3 241.711Z" fill="#412980" stroke="#412980" stroke-miterlimit="10"/>
<path d="M405 135.911C404.6 136.111 403.2 134.311 400.5 132.211C397.8 130.011 393.4 127.711 388.4 125.311C383.5 123.011 378.8 121.411 375.3 120.611C371.8 119.811 369.6 119.511 369.6 119.011C369.6 118.611 371.9 118.011 375.7 118.311C379.5 118.611 384.6 119.911 389.8 122.411C392.4 123.611 394.8 124.911 396.8 126.311C398.9 127.711 400.7 129.111 402 130.511C404.7 133.311 405.4 135.711 405 135.911Z" fill="#412980" stroke="#412980" stroke-miterlimit="10"/>
<path d="M361.8 233.611C361.4 233.311 363.5 229.311 366.2 222.611C366.5 221.811 366.9 220.911 367.2 220.011C367.6 219.111 367.9 218.111 368.2 217.111C368.9 215.111 369.6 212.911 370.3 210.611C371.6 206.011 372.8 200.911 373.6 195.411C374.4 189.911 374.7 184.711 374.8 179.911C374.8 177.511 374.8 175.211 374.7 173.111C374.6 172.011 374.6 171.011 374.5 170.011C374.4 169.011 374.3 168.111 374.3 167.211C373.6 160.011 372.7 155.511 373.2 155.411C373.6 155.311 375.3 159.611 376.6 166.911C376.7 167.811 376.9 168.811 377.1 169.811C377.2 170.811 377.3 171.911 377.4 172.911C377.7 175.111 377.7 177.411 377.8 179.911C377.9 184.811 377.6 190.211 376.8 195.911C375.9 201.511 374.6 206.811 373.2 211.511C372.4 213.811 371.7 216.011 370.8 218.111C370.4 219.111 370 220.111 369.6 221.011C369.2 221.911 368.7 222.811 368.3 223.611C365 230.211 362.1 233.811 361.8 233.611Z" fill="#412980" stroke="#412980" stroke-miterlimit="10"/>
<path d="M399.2 276.111C398.7 276.311 397.3 273.411 394.6 269.111C393.9 268.011 393.2 266.811 392.4 265.611C391.6 264.311 390.7 263.011 389.7 261.711C387.7 259.011 385.4 256.111 382.8 253.211C380.2 250.311 377.5 247.811 375 245.511C373.7 244.411 372.5 243.311 371.4 242.411C370.3 241.411 369.1 240.611 368.1 239.811C364 236.711 361.3 235.011 361.6 234.611C361.8 234.211 364.9 235.311 369.4 237.911C370.5 238.611 371.8 239.311 373 240.211C374.3 241.111 375.6 242.111 377 243.111C379.7 245.311 382.5 247.911 385.2 250.911C387.9 253.911 390.2 257.011 392.1 259.911C393 261.411 393.9 262.811 394.6 264.111C395.4 265.411 396 266.711 396.5 267.911C398.9 272.811 399.6 276.011 399.2 276.111Z" fill="#412980" stroke="#412980" stroke-miterlimit="10"/>
<path d="M418.499 201.411C418.899 201.411 419.499 205.811 419.399 212.911C419.299 220.011 418.599 229.811 416.299 240.411C415.199 245.711 413.899 250.711 412.399 255.211C410.899 259.711 409.199 263.611 407.299 266.711C405.499 269.811 403.599 272.111 402.199 273.511C401.499 274.211 400.899 274.711 400.399 275.011C399.999 275.311 399.699 275.411 399.599 275.311C399.199 274.911 402.299 271.811 405.199 265.611C408.199 259.411 410.799 250.111 412.999 239.711C417.599 218.811 417.499 201.411 418.499 201.411Z" fill="#412980" stroke="#412980" stroke-miterlimit="10"/>
<path d="M361.9 235.011C362.3 235.211 359.8 240.511 355 248.511C350.2 256.611 342.9 267.411 333.8 278.511C329.3 284.111 324.7 289.211 320.5 293.711C316.2 298.211 312.2 302.211 308.5 305.111C304.8 308.111 301.4 310.011 298.9 311.011C296.4 312.011 295 312.311 294.9 312.111C294.7 311.611 300.2 309.611 307 303.311C310.4 300.211 314.1 296.111 318.3 291.611C322.4 287.011 326.8 281.911 331.3 276.411C340.3 265.411 347.8 254.911 353 247.211C358.3 239.611 361.5 234.811 361.9 235.011Z" fill="#412980" stroke="#412980" stroke-miterlimit="10"/>
<path d="M388 262.611C388.3 262.811 385.6 268.211 379.9 276.211C379.2 277.211 378.4 278.211 377.6 279.311C376.8 280.411 375.9 281.411 375 282.611C373.2 284.911 371.2 287.111 369 289.611C364.6 294.311 359.4 299.311 353.7 304.111C347.9 308.811 342 312.911 336.5 316.311C333.7 317.911 331.1 319.511 328.5 320.811C327.2 321.511 326 322.111 324.8 322.711C323.6 323.311 322.4 323.811 321.3 324.311C312.4 328.311 306.5 329.911 306.4 329.611C306.2 329.111 311.8 326.811 320.3 322.311C321.4 321.711 322.5 321.111 323.6 320.511C324.8 319.911 325.9 319.211 327.2 318.511C329.7 317.111 332.2 315.511 334.9 313.811C340.2 310.311 345.9 306.211 351.6 301.611C357.3 296.911 362.4 292.111 366.8 287.611C369 285.311 371.1 283.111 372.9 280.911C373.8 279.811 374.8 278.811 375.6 277.811C376.4 276.811 377.2 275.811 378 274.911C384.2 267.311 387.6 262.411 388 262.611Z" fill="#412980" stroke="#412980" stroke-miterlimit="10"/>
<path d="M283.5 320.911C283.5 321.311 281.8 321.911 278.7 322.211C277.2 322.411 275.3 322.411 273.2 322.311C272.7 322.311 272.2 322.211 271.6 322.211C271 322.111 270.3 322.011 269.7 321.711C269.4 321.611 269.1 321.411 268.7 321.211C268.3 320.911 267.9 320.611 267.6 320.211C267 319.411 266.7 318.411 266.9 317.411C267.1 316.711 267.5 316.011 268.1 315.411C268.4 315.111 268.8 314.911 269 314.711C269.3 314.511 269.5 314.411 269.8 314.311C270.8 313.911 271.7 313.611 272.7 313.211C278.8 311.111 284.8 310.911 289 311.411C291 311.611 292.6 311.811 293.7 311.811C294.8 311.811 295.4 311.711 295.5 311.911C295.6 312.111 295.1 312.611 293.9 313.011C292.7 313.411 291 313.611 288.9 313.711C284.9 313.811 279.4 314.411 273.7 316.311C272.8 316.611 271.9 316.911 271.1 317.211C270.9 317.311 270.7 317.411 270.6 317.411C270.4 317.511 270.4 317.511 270.4 317.511C270.3 317.611 270.2 317.711 270.2 317.811C270.2 318.011 270.2 318.111 270.3 318.311C270.3 318.411 270.4 318.411 270.5 318.511C270.6 318.611 270.8 318.711 271 318.811C271.4 319.011 271.8 319.111 272.2 319.211C272.7 319.311 273.2 319.411 273.7 319.411C275.7 319.711 277.4 319.911 278.9 320.011C281.6 320.411 283.4 320.511 283.5 320.911Z" fill="#412980" stroke="#412980" stroke-miterlimit="10"/>
<path d="M247.2 339.611C246.9 339.311 248 337.311 250.6 334.711C253.1 332.111 257.2 328.911 262.3 326.611C267.4 324.311 272.4 323.311 275.9 322.711C279.4 322.211 281.7 322.111 281.8 322.611C281.9 323.011 279.8 323.911 276.5 325.011C273.1 326.111 268.5 327.411 263.7 329.611C254 333.911 247.9 340.211 247.2 339.611Z" fill="#412980" stroke="#412980" stroke-miterlimit="10"/>
<path d="M271.4 331.311C271.7 332.211 267 334.711 261.3 338.011C255.6 341.311 251.1 344.111 250.5 343.411C249.9 342.711 253.7 338.611 259.7 335.211C265.7 331.711 271.1 330.511 271.4 331.311Z" fill="#412980" stroke="#412980" stroke-miterlimit="10"/>
<path d="M275.6 335.911C276 336.711 272.1 339.211 267.3 342.111C262.6 345.011 258.7 347.511 258.1 346.811C257.5 346.111 260.6 342.511 265.6 339.411C270.6 336.311 275.3 335.111 275.6 335.911Z" fill="#412980" stroke="#412980" stroke-miterlimit="10"/>
<path d="M283.4 338.311C283.8 339.111 280.5 341.411 276.6 344.211C272.6 346.911 269.3 349.211 268.7 348.511C268.1 347.911 270.5 344.411 274.7 341.511C278.9 338.511 283 337.511 283.4 338.311Z" fill="#412980" stroke="#412980" stroke-miterlimit="10"/>
<path d="M308.4 328.611C308.7 328.911 307.8 330.611 305.6 332.711C304.5 333.811 303 334.811 301.3 335.911C299.6 337.011 297.7 338.011 295.7 339.011C293.7 340.011 291.8 340.911 290.1 341.811C288.4 342.711 286.9 343.511 285.6 344.211C283.1 345.611 281.6 346.611 281.3 346.311C281 346.011 282 344.311 284.3 342.311C285.4 341.311 286.9 340.211 288.6 339.211C290.3 338.211 292.2 337.111 294.2 336.111C296.2 335.111 298.1 334.111 299.8 333.311C301.5 332.411 303 331.611 304.2 330.811C306.6 329.411 308 328.311 308.4 328.611Z" fill="#412980" stroke="#412980" stroke-miterlimit="10"/>
<path d="M321.8 134.511C322.1 135.411 318.6 137.411 314.6 140.311C310.6 143.211 307.6 145.911 306.9 145.411C306.6 145.111 306.9 144.011 307.9 142.611C308.9 141.111 310.5 139.311 312.7 137.711C314.9 136.111 317.1 135.111 318.8 134.611C320.5 134.011 321.6 134.111 321.8 134.511Z" fill="#412980" stroke="#412980" stroke-miterlimit="10"/>
<path d="M323.199 227.211C322.999 227.611 320.6 226.911 316.9 224.911C315.1 223.911 313 222.611 310.8 221.011C308.6 219.411 306.3 217.411 304.1 215.211C301.9 213.011 300 210.711 298.4 208.511C296.8 206.311 295.5 204.211 294.6 202.411C292.7 198.811 292 196.311 292.4 196.111C293.3 195.711 297.999 204.411 306.499 212.911C314.899 221.511 323.599 226.311 323.199 227.211Z" fill="#412980" stroke="#412980" stroke-miterlimit="10"/>
<path d="M323.4 222.711C322.5 222.411 323.4 217.311 325.3 211.211C327.2 205.111 329.4 200.411 330.3 200.611C331.2 200.911 330.3 206.011 328.4 212.111C326.5 218.211 324.2 222.911 323.4 222.711Z" fill="#412980" stroke="#412980" stroke-miterlimit="10"/>
<path d="M209.4 296.811C209.2 296.711 209.6 295.911 210.4 294.611C211.3 293.311 212.8 291.611 215 289.911C217.1 288.111 220 286.411 223.2 284.711C226.4 283.111 230.1 281.511 233.8 280.011C237.5 278.411 241 276.811 244.1 275.111C247.1 273.411 249.7 271.611 251.6 269.911C255.5 266.511 257 263.411 257.5 263.711C257.7 263.811 257.6 264.611 256.9 266.111C256.3 267.511 255.1 269.511 253.2 271.611C251.3 273.711 248.7 275.811 245.6 277.811C242.5 279.711 238.9 281.511 235.1 283.111C231.3 284.711 227.7 286.111 224.5 287.511C221.3 288.911 218.6 290.411 216.4 291.811C211.9 294.611 209.8 297.111 209.4 296.811Z" fill="#412980" stroke="#412980" stroke-miterlimit="10"/>
<path d="M232.3 288.011C232.6 288.911 226.8 291.211 220.9 295.611C214.9 300.011 211.1 304.811 210.3 304.311C209.9 304.111 210.4 302.511 211.9 300.311C213.3 298.111 215.7 295.411 218.9 293.011C222.1 290.611 225.4 289.111 227.9 288.411C230.5 287.711 232.2 287.611 232.3 288.011Z" fill="#412980" stroke="#412980" stroke-miterlimit="10"/>
<path d="M237.6 290.311C237.9 291.211 232.2 293.611 226.5 298.211C220.7 302.811 217.2 307.811 216.4 307.311C216 307.111 216.4 305.511 217.8 303.211C219.1 301.011 221.4 298.111 224.5 295.611C227.6 293.111 230.9 291.511 233.4 290.711C235.8 290.011 237.5 289.911 237.6 290.311Z" fill="#412980" stroke="#412980" stroke-miterlimit="10"/>
<path d="M240.2 295.511C240.5 296.411 237 298.411 233.1 301.311C229.2 304.211 226.3 307.011 225.5 306.511C225.2 306.211 225.5 305.111 226.4 303.611C227.3 302.111 229 300.311 231.1 298.711C233.2 297.111 235.5 296.011 237.2 295.511C238.9 295.111 240 295.111 240.2 295.511Z" fill="#412980" stroke="#412980" stroke-miterlimit="10"/>
<path d="M266.8 276.511C267.6 276.911 265 284.111 260.2 292.111C255.5 300.211 250.4 305.911 249.7 305.411C249 304.911 252.7 298.411 257.4 290.411C262.1 282.511 266 276.111 266.8 276.511Z" fill="#412980" stroke="#412980" stroke-miterlimit="10"/>
<path d="M315.3 221.011C316 221.511 305.7 236.011 291.5 252.611C277.3 269.211 264.6 281.611 263.9 281.011C263.2 280.411 274.8 267.111 289 250.511C303.2 233.911 314.6 220.411 315.3 221.011Z" fill="#412980" stroke="#412980" stroke-miterlimit="10"/>
<path d="M452.7 286.311C452.9 286.411 452.1 287.811 450.3 289.911C448.6 292.111 445.8 295.011 441.9 298.211C438.1 301.411 433.1 304.811 427.2 307.811C421.3 310.811 414.3 313.311 406.8 314.811C399.3 316.211 391.9 316.411 385.3 315.811C378.7 315.211 372.8 313.811 368.1 312.211C363.4 310.611 359.7 308.911 357.3 307.511C354.9 306.111 353.6 305.211 353.7 305.011C354 304.511 359.4 307.411 368.7 310.011C373.4 311.311 379.1 312.411 385.5 312.811C391.9 313.211 398.9 312.911 406.2 311.611C413.4 310.211 420.1 307.911 425.9 305.111C431.7 302.411 436.6 299.311 440.5 296.411C448.3 290.611 452.3 286.011 452.7 286.311Z" fill="#412980" stroke="#412980" stroke-miterlimit="10"/>
<path d="M311.1 396.111C311.2 396.311 309.7 397.111 306.7 397.211C303.8 397.411 299.3 396.611 294.8 393.611C292.6 392.111 290.4 390.011 288.7 387.411C287.8 386.111 287.1 384.611 286.5 383.011C285.9 381.411 285.4 379.811 285.1 378.011C283.9 371.011 285.2 363.011 288.9 355.811C292.6 348.611 297.8 343.011 302.6 338.311C307.5 333.611 312.2 329.711 316.3 326.611C324.5 320.411 330.1 317.511 330.3 317.811C330.6 318.211 325.4 321.911 317.7 328.411C313.9 331.711 309.4 335.711 304.7 340.411C300 345.111 295.2 350.611 291.8 357.311C288.4 363.911 287.1 371.211 288.1 377.511C288.3 379.111 288.7 380.611 289.2 382.011C289.7 383.411 290.3 384.711 291 385.911C292.5 388.311 294.3 390.211 296.2 391.711C300 394.711 304 395.711 306.7 395.911C309.5 396.211 311.1 395.811 311.1 396.111Z" fill="#412980" stroke="#412980" stroke-miterlimit="10"/>
<path d="M501.5 380.311C501.6 380.411 500.8 381.111 499.2 382.311C498.4 382.911 497.5 383.711 496.3 384.511C495.1 385.311 493.7 386.311 492.2 387.411C489.1 389.511 485.2 392.011 480.6 394.711C475.9 397.311 470.6 400.311 464.5 403.111C452.3 408.811 437.3 414.611 420.1 419.511C411.5 421.911 402.5 424.211 392.9 426.011C383.3 427.711 373.2 428.811 362.8 428.011C352.4 427.211 342.3 424.511 333.7 419.611C329.4 417.211 325.4 414.211 322.1 410.711C320.4 408.911 319 407.011 317.7 405.011C316.5 403.011 315.4 400.811 314.7 398.611C313.3 394.111 313.2 389.411 313.8 385.111C314.4 380.811 315.6 376.811 317.1 373.011C318.6 369.311 320.3 365.811 322 362.511C323.8 359.311 325.6 356.211 327.5 353.411C335.1 342.211 343.3 334.711 349.2 330.011C352.2 327.711 354.6 326.011 356.3 325.011C358 324.011 358.9 323.511 359 323.611C359.2 323.811 355.7 326.111 350 331.011C344.4 335.911 336.6 343.511 329.4 354.711C327.6 357.511 325.9 360.511 324.2 363.711C322.6 366.911 321 370.311 319.6 374.011C318.3 377.611 317.1 381.511 316.6 385.511C316.1 389.511 316.3 393.711 317.5 397.711C318.8 401.711 321.2 405.411 324.2 408.611C327.3 411.811 331 414.611 335.1 416.811C343.3 421.411 352.9 424.011 362.9 424.711C372.9 425.511 382.8 424.511 392.2 422.811C401.6 421.111 410.6 418.811 419.2 416.611C436.2 412.011 451.2 406.511 463.4 401.011C469.5 398.311 474.9 395.611 479.6 393.111C484.3 390.611 488.2 388.311 491.4 386.411C493 385.411 494.4 384.611 495.6 383.811C496.8 383.011 497.8 382.411 498.7 381.811C500.5 380.811 501.4 380.211 501.5 380.311Z" fill="#412980" stroke="#412980" stroke-miterlimit="10"/>
<path d="M431.5 370.111C431.1 369.711 435.2 366.411 440.1 359.811C442.5 356.511 445.1 352.311 447.4 347.411C449.7 342.511 451.7 336.911 453 330.811C455.7 318.611 455.3 307.011 454.5 298.811C453.7 290.611 452.6 285.511 453.1 285.411C453.5 285.311 455.4 290.211 456.8 298.511C458.2 306.811 459 318.711 456.2 331.511C454.8 337.911 452.6 343.711 450.1 348.711C447.5 353.711 444.6 357.911 441.9 361.211C439.1 364.411 436.6 366.811 434.7 368.211C432.8 369.711 431.7 370.311 431.5 370.111Z" fill="#412980" stroke="#412980" stroke-miterlimit="10"/>
<path d="M500.1 381.411C499.6 381.411 499.6 376.611 497.9 369.211C497 365.511 495.7 361.211 493.6 356.711C492.5 354.411 491.4 352.111 489.8 350.011C488.3 347.911 486.3 346.111 484 345.411C481.6 344.711 479 345.111 476.4 345.811C473.9 346.511 471.3 347.511 468.9 348.411C464.1 350.111 459.7 351.611 456 352.811C448.6 355.211 444 356.511 443.9 356.111C443.7 355.711 448.1 353.611 455.2 350.711C458.8 349.211 463.1 347.511 467.8 345.611C470.2 344.711 472.6 343.611 475.4 342.811C476.8 342.411 478.3 342.011 479.9 341.911C481.5 341.811 483.2 341.911 484.8 342.411C486.5 342.911 487.9 343.811 489.2 344.811C490.4 345.811 491.5 347.011 492.3 348.211C494 350.611 495.2 353.211 496.2 355.611C498.3 360.411 499.4 365.011 500 368.911C500.6 372.811 500.7 376.011 500.5 378.211C500.5 380.311 500.3 381.511 500.1 381.411Z" fill="#412980" stroke="#412980" stroke-miterlimit="10"/>
<path d="M481.4 343.511C481 343.711 479.9 341.711 478.2 338.611C477.3 337.111 476.3 335.311 475.1 333.311C474.5 332.311 473.9 331.311 473.2 330.511C472.5 329.711 471.7 329.211 470.8 329.011C469.8 328.811 468.7 328.911 467.6 329.211C466.5 329.411 465.3 329.811 464.2 330.211C462 330.911 459.9 331.511 458.2 332.011C454.8 332.911 452.5 333.311 452.4 332.811C452.2 332.411 454.2 331.311 457.4 329.811C459 329.111 461 328.211 463.2 327.411C464.3 327.011 465.5 326.511 466.8 326.111C468.2 325.811 469.7 325.511 471.4 325.811C472.2 326.011 473.1 326.311 473.8 326.811C474.5 327.311 475.1 327.811 475.6 328.411C476.6 329.611 477.2 330.711 477.7 331.811C478.8 333.911 479.7 335.911 480.3 337.611C481.6 341.111 481.8 343.411 481.4 343.511Z" fill="#412980" stroke="#412980" stroke-miterlimit="10"/>
<path d="M519.5 349.811C519.8 350.611 514.4 353.511 507.1 355.211C499.8 357.011 493.7 357.011 493.6 356.111C493.5 355.211 499.3 353.811 506.3 352.011C513.4 350.411 519.2 349.011 519.5 349.811Z" fill="#412980" stroke="#412980" stroke-miterlimit="10"/>
<path d="M583.5 348.011C583.6 348.211 582.6 348.711 580.9 349.211C579.1 349.711 576.4 350.211 573.1 350.211C569.8 350.211 565.8 349.911 561.5 348.911C557.2 348.011 552.6 346.511 547.9 344.911C543.2 343.311 538.8 341.711 534.8 340.611C533.8 340.411 532.9 340.211 532.1 340.211C531.2 340.211 530.4 340.311 529.6 340.511C528 340.911 526.6 341.811 525.4 342.811C523 344.711 521.4 346.811 520.3 348.211C519.2 349.611 518.5 350.411 518.3 350.211C518.1 350.111 518.4 349.111 519.3 347.511C520.2 345.911 521.5 343.511 524 341.111C525.2 339.911 526.8 338.711 528.9 338.011C529.9 337.611 531 337.411 532.2 337.411C533.4 337.411 534.5 337.511 535.7 337.811C540 338.811 544.5 340.311 549.2 341.911C553.9 343.511 558.3 345.011 562.4 346.011C566.5 347.111 570.2 347.711 573.4 347.911C579.5 348.511 583.4 347.511 583.5 348.011Z" fill="#412980" stroke="#412980" stroke-miterlimit="10"/>
<path d="M581.1 349.611C581.3 349.611 581.4 351.011 580.1 353.111C579.5 354.111 578.5 355.211 577.2 356.311C575.9 357.411 574.3 358.411 572.6 359.311C569.1 361.311 564.7 363.311 559.6 365.111C554.5 366.911 548.7 368.111 542.8 369.411C531 371.911 520.5 375.311 512.9 377.611C505.3 379.911 500.5 381.311 500.3 380.811C500.2 380.411 504.6 378.311 512.1 375.411C519.6 372.511 530.1 368.811 542.1 366.211C548.1 364.911 553.7 363.811 558.7 362.211C563.7 360.711 568 358.911 571.6 357.211C573.4 356.411 574.9 355.611 576.2 354.711C577.5 353.911 578.5 353.011 579.2 352.211C580.5 350.711 580.9 349.511 581.1 349.611Z" fill="#412980" stroke="#412980" stroke-miterlimit="10"/>
<path d="M505 333.711C505.1 334.611 499.3 335.911 492.2 336.811C485.1 337.711 479.2 337.911 479 337.011C478.9 336.111 484.6 334.511 491.8 333.611C499 332.611 504.9 332.811 505 333.711Z" fill="#412980" stroke="#412980" stroke-miterlimit="10"/>
<path d="M566 343.411C565.9 343.211 567 342.611 567.5 340.911C567.8 340.111 567.8 338.911 567.5 337.811C567.1 336.711 566.2 335.511 564.9 334.711C563.5 333.811 561.8 333.311 559.9 333.111C557.9 332.911 555.7 333.011 553.2 332.911C548.3 332.711 543 331.811 537.6 330.811C532.2 329.811 527 328.811 522.3 327.911C520 327.411 517.7 327.011 515.7 326.611C514.7 326.411 513.7 326.211 512.7 326.011C511.7 325.811 510.9 325.611 510.3 325.711C509.8 325.711 509.3 326.111 508.8 326.711C508.3 327.311 507.8 327.811 507.3 328.311C506.4 329.411 505.7 330.311 505.1 331.111C503.9 332.711 503.3 333.711 503.1 333.611C502.9 333.511 503.1 332.411 504 330.511C504.4 329.611 505 328.411 505.8 327.211C506.2 326.611 506.7 325.911 507.2 325.311C507.5 325.011 507.8 324.611 508.2 324.211C508.6 323.811 509.2 323.511 509.8 323.411C511.1 323.111 512.1 323.411 513 323.511C514 323.611 515 323.811 516 324.011C518.1 324.311 520.3 324.711 522.7 325.111C527.4 325.911 532.6 326.811 538 327.711C543.4 328.711 548.5 329.711 553.2 330.011C555.5 330.211 557.8 330.211 560 330.511C562.2 330.811 564.4 331.611 566 332.811C567.6 334.011 568.7 335.711 569.1 337.311C569.4 339.011 569.1 340.411 568.5 341.411C568 342.411 567.2 343.011 566.7 343.211C566.4 343.511 566 343.511 566 343.411Z" fill="#412980" stroke="#412980" stroke-miterlimit="10"/>
<path d="M274.2 24.8106C271.7 28.1106 266.2 35.9107 264.7 47.5107C263.2 59.3107 266.8 68.6107 268.7 72.5107C270.5 72.6107 273 73.1106 275.1 74.8106C279.9 78.6106 279 85.6107 279.9 91.5107C282.1 106.311 296.1 115.711 298.7 117.511C313.8 127.711 331.3 124.111 335.6 123.111C336.8 124.611 340.5 129.011 346.2 129.611C352 130.211 356.3 126.711 360.5 123.211C368.4 116.811 371.3 108.811 371.9 106.911C374.4 99.7106 373.9 93.5106 373.5 89.1106C371.8 71.6106 368.4 54.8106 365.6 42.9106C364.5 40.0106 362.8 36.0106 360.2 31.6106C358 27.9106 353.4 20.2106 345.1 13.6106C341.8 10.9106 332.8 3.91062 320.1 2.41062C293.5 -0.589382 275.1 23.6106 274.2 24.8106Z" stroke="white" stroke-miterlimit="10"/>
<path d="M309.7 123.711C312.1 126.711 315.7 130.511 320.7 134.111C324.6 136.911 326.8 138.511 330 138.711C336.2 139.211 343.8 134.511 343.3 130.011C343 127.011 339.2 124.311 334.6 123.011C332.2 124.111 328.2 125.611 323 125.911C317 126.311 312.3 124.811 309.7 123.711Z" fill="#412980"/>
<path d="M421.101 157.411C424.001 155.311 428.001 151.711 431.501 146.411C440.501 132.611 438.601 117.611 437.901 111.611C437.001 104.411 436.001 96.8106 430.401 89.6106C423.001 80.1106 412.101 77.1106 404.901 75.1106C397.501 73.1106 391.101 72.7106 386.901 72.8106C387.101 70.5106 387.401 63.9106 383.401 57.1106C378.401 48.7106 370.201 46.1106 368.301 45.5106C364.201 48.8106 359.801 52.1106 355.001 55.4106C346.201 61.3106 337.801 66.1106 330.101 69.9106C330.201 70.4106 331.901 75.3106 337.101 76.9106C341.601 78.3106 345.201 76.1106 345.801 75.7106C345.901 75.1106 347.301 69.6106 351.601 68.2106C356.601 66.5106 361.701 71.4106 363.801 75.2106C366.301 79.8106 365.301 84.4106 365.001 85.6106C363.401 92.3106 357.901 95.5106 356.901 96.0106C356.801 98.9106 357.201 104.611 361.001 109.311C361.601 110.111 363.801 112.611 372.001 116.311" fill="#412980"/>
<path d="M357.9 93.9105C358 93.9105 358.1 94.4106 358.1 95.2106C358.1 96.1106 358 97.3106 357.8 99.0106C357.5 100.611 357 102.611 356.1 104.811C355.2 107.011 354 109.411 352.3 111.811C348.9 116.611 343.5 121.711 336.1 124.611C332.4 126.011 328.3 126.911 324 127.111C319.7 127.211 315.2 126.711 310.9 125.411C306.5 124.111 302.5 122.211 299 119.711C295.5 117.211 292.5 114.311 290 111.311C287.5 108.311 285.5 105.211 283.8 102.211C282.1 99.2106 280.8 96.3106 279.6 93.6106C277.4 88.2106 275.9 83.8106 275 80.7106C274.1 77.6106 273.7 75.9106 273.9 75.8106C274.1 75.7106 274.9 77.3106 276.2 80.3106C277.5 83.2106 279.2 87.5106 281.7 92.7106C283 95.3106 284.4 98.0105 286.1 100.911C287.8 103.711 289.8 106.611 292.3 109.411C294.7 112.211 297.5 114.811 300.8 117.111C304.1 119.411 307.8 121.111 311.9 122.311C315.9 123.511 320.1 124.011 324 123.911C328 123.811 331.8 123.011 335.2 121.811C342 119.311 347.2 114.811 350.6 110.411C352.3 108.211 353.6 106.011 354.6 104.011C355.6 102.011 356.2 100.211 356.7 98.7106C357.1 97.2106 357.5 96.0106 357.6 95.2106C357.6 94.4106 357.8 93.9105 357.9 93.9105Z" fill="#412980" stroke="#412980" stroke-miterlimit="10"/>
<path d="M306.5 102.411C306.6 102.811 305.6 103.511 303.7 103.911C302.7 104.111 301.5 104.211 300.1 103.911C298.7 103.511 297.3 102.711 296.2 101.411C295.1 100.111 294.5 98.4107 294.5 96.9107C294.5 95.4107 295.1 94.1107 295.8 93.3107C296.5 92.4107 297.3 92.0107 297.8 91.8107C298.4 91.6107 298.7 91.7107 298.8 91.9107C299 92.3107 298.2 93.1107 297.7 94.4107C297.5 95.1107 297.3 95.9107 297.4 96.8107C297.5 97.6107 297.9 98.5107 298.5 99.3107C299.2 100.111 300 100.711 300.9 101.011C301.7 101.411 302.7 101.511 303.5 101.611C305.3 101.811 306.5 101.911 306.5 102.411Z" fill="#412980" stroke="#412980" stroke-miterlimit="10"/>
<path d="M291.801 91.7106C291.201 92.4106 288.901 91.3106 286.501 89.2106C284.201 87.2106 282.801 85.0106 283.401 84.3106C284.001 83.6106 286.301 84.7106 288.701 86.8106C291.001 88.8106 292.401 91.0106 291.801 91.7106Z" fill="#412980" stroke="#412980" stroke-miterlimit="10"/>
<path d="M312.701 86.5107C312.401 87.3107 309.501 87.0107 306.601 84.9107C303.801 82.9107 302.501 80.3107 303.101 79.7107C303.801 79.1107 306.001 80.5107 308.501 82.2107C311.001 84.1107 313.001 85.7107 312.701 86.5107Z" fill="#412980" stroke="#412980" stroke-miterlimit="10"/>
<path d="M310.401 115.011C310.001 115.811 307.101 115.111 304.001 113.411C302.401 112.511 301.301 111.811 300.501 111.411C299.701 111.011 299.101 111.011 298.801 110.611C298.701 110.411 298.701 110.111 299.101 109.811C299.401 109.511 300.001 109.211 300.801 109.111C302.301 108.911 304.101 109.711 305.601 110.511C308.701 112.211 310.801 114.211 310.401 115.011Z" fill="#412980" stroke="#412980" stroke-miterlimit="10"/>
<path d="M300.7 111.111C301 111.411 300.3 112.711 298.6 114.311C297 115.911 294.4 117.811 291.4 119.611C288.5 121.411 285.8 122.811 283.9 123.911C282 125.011 280.7 125.611 280.4 125.311C280.1 125.011 280.9 123.711 282.5 122.111C284.2 120.511 286.8 118.611 289.7 116.811C292.6 115.011 295.3 113.511 297.2 112.411C299.1 111.411 300.4 110.811 300.7 111.111Z" fill="#412980" stroke="#412980" stroke-miterlimit="10"/>
<path d="M283.601 127.311C283.201 128.111 281.501 128.111 280.001 126.911C278.501 125.811 278.101 124.111 278.801 123.511C279.501 122.911 280.801 123.411 282.001 124.311C283.301 125.311 284.001 126.511 283.601 127.311Z" fill="#412980" stroke="#412980" stroke-miterlimit="10"/>
<path d="M302.201 110.411C302.301 111.311 296.401 112.411 289.201 113.411C282.001 114.311 276.001 114.711 275.901 113.811C275.701 112.911 281.501 111.111 288.801 110.211C296.101 109.211 302.101 109.511 302.201 110.411Z" fill="#412980" stroke="#412980" stroke-miterlimit="10"/>
<path d="M278.4 116.211C277.6 116.611 276.3 115.711 275.5 114.111C274.7 112.611 274.7 111.011 275.5 110.511C276.3 110.111 277.6 111.011 278.4 112.611C279.2 114.111 279.2 115.711 278.4 116.211Z" fill="#412980" stroke="#412980" stroke-miterlimit="10"/>
<path d="M356.9 93.9106C356.8 93.7106 357.4 93.3106 358.4 92.5106C359.3 91.7106 360.5 90.5106 361.4 88.6106C362.3 86.8106 362.7 84.3106 362.5 81.5106C362.4 80.1106 362.2 78.6106 361.8 77.1106C361.4 75.6106 360.9 74.1106 360.2 72.8106C359.5 71.5106 358.5 70.4106 357.4 69.7106C356.3 69.0106 355 68.6106 353.8 68.6106C352.6 68.6106 351.7 69.0106 350.6 69.7106C349.6 70.4106 348.6 71.1106 348 71.8106C347.3 72.5106 346.9 73.3106 346.7 74.0106C346.5 74.7106 346.5 75.4106 346.6 75.9106C346.8 77.0106 347.3 77.5106 347.1 77.7106C347 77.8106 346.8 77.8106 346.5 77.6106C346.2 77.4106 345.7 77.0106 345.4 76.3106C345.1 75.6106 344.8 74.7106 344.9 73.7106C345 72.6106 345.4 71.4106 346.2 70.4106C346.9 69.3106 347.9 68.4106 349 67.5106C349.6 67.1106 350.2 66.6106 351 66.2106C351.8 65.8106 352.7 65.6106 353.6 65.6106C355.4 65.5106 357.3 66.0106 359 67.0106C360.7 68.0106 362 69.5106 363 71.2106C364 72.9106 364.5 74.7106 364.9 76.4106C365.3 78.1106 365.5 79.7106 365.5 81.4106C365.6 84.6106 364.8 87.6106 363.4 89.7106C362.1 91.8106 360.3 93.0106 359.1 93.6106C357.7 94.2106 356.9 94.1106 356.9 93.9106Z" fill="#412980" stroke="#412980" stroke-miterlimit="10"/>
<path d="M362.6 118.611C362.8 118.611 363 119.211 362.9 120.111C362.8 121.111 362.4 122.411 361.4 123.911C360.5 125.411 359 126.911 357 128.111C355 129.311 352.7 130.211 350.2 130.711C347.7 131.211 345 131.411 342.7 130.711C341.5 130.411 340.4 129.811 339.6 129.211C338.7 128.611 338.1 127.911 337.5 127.211C336.4 125.911 335.7 124.911 335.2 124.111C334.7 123.411 334.5 122.911 334.6 122.711C334.7 122.511 335.3 122.711 336.1 123.211C336.9 123.711 337.9 124.611 339.1 125.611C340.3 126.611 341.6 127.511 343.4 127.811C345.2 128.211 347.3 128.011 349.5 127.511C351.8 127.011 353.8 126.411 355.5 125.511C357.2 124.611 358.6 123.611 359.6 122.511C361.6 120.511 362.1 118.511 362.6 118.611Z" fill="#412980" stroke="#412980" stroke-miterlimit="10"/>
<path d="M363.1 37.8107C363.2 37.7107 363.6 37.9107 364.3 38.5107C365 39.1107 365.8 40.3107 366.1 42.0107C366.4 43.7107 366.4 46.0107 365.2 48.2107C364.1 50.4107 362.2 52.5107 360 54.4107C355.5 58.1107 349.8 62.2107 343 65.8107C336.2 69.4107 328.3 72.6107 319.6 74.8107C311 77.0107 302.5 77.9107 294.7 77.9107C287 78.0107 280.1 77.1107 274.3 75.9107C272.9 75.6107 271.4 75.2107 270.2 74.6107C268.9 74.0107 267.8 73.2107 266.9 72.2107C265.2 70.3107 264.6 68.2107 264.2 66.6107C263.8 65.0107 263.7 63.7107 263.7 62.9107C263.7 62.0107 263.7 61.6107 263.8 61.6107C263.9 61.6107 264.1 62.0107 264.3 62.8107C264.6 63.6107 264.8 64.8107 265.4 66.3107C265.9 67.8107 266.7 69.5107 268.2 71.0107C269.6 72.5107 271.9 73.2107 274.7 73.6107C280.3 74.4107 287.1 75.0107 294.6 74.8107C302.1 74.6107 310.3 73.6107 318.7 71.5107C327.1 69.4107 334.8 66.4107 341.5 63.0107C348.2 59.6107 353.9 55.9107 358.4 52.5107C360.6 50.8107 362.4 49.1107 363.5 47.2107C364.6 45.4107 364.8 43.5107 364.7 42.1107C364.6 40.6107 364.1 39.5107 363.6 38.9107C363.4 38.3107 363 37.9107 363.1 37.8107Z" fill="#412980" stroke="#412980" stroke-miterlimit="10"/>
<path d="M363.1 37.6105C363.4 37.8105 359.7 42.7106 352 48.7106C348.2 51.7106 343.3 54.9105 337.5 57.8105C331.7 60.7105 325 63.2105 317.7 64.9105C310.4 66.6105 303.3 67.3106 296.8 67.2106C290.3 67.2106 284.6 66.3105 279.8 65.6105C277.4 65.2105 275.3 64.8105 273.4 64.5105C271.5 64.1105 269.9 63.8105 268.5 63.4105C265.8 62.5105 264.7 61.2105 264.9 61.1105C265.1 60.9105 266.3 61.7106 268.8 62.2106C270.1 62.4106 271.7 62.6105 273.6 62.8105C275.5 63.0105 277.7 63.2105 280.1 63.5105C284.9 64.0105 290.5 64.5105 296.8 64.4105C303.1 64.3105 309.9 63.6105 317 61.9105C331.1 58.7105 342.9 52.5105 350.7 47.1105C358.6 41.5105 362.7 37.2105 363.1 37.6105Z" fill="#412980" stroke="#412980" stroke-miterlimit="10"/>
<path d="M362.1 37.3106C361.8 37.4106 361.3 35.3106 359.6 32.0106C357.9 28.7106 354.7 24.2106 349.9 19.6106C347.5 17.3106 344.6 14.9106 341.5 12.6106C338.3 10.3106 334.8 8.01061 330.8 6.51061C326.8 4.91061 322.2 4.11061 317.5 4.01061C312.8 3.91061 307.9 4.61058 303 6.11058C293.3 9.01058 285.1 14.7106 279.2 21.1106C273.2 27.5106 269.5 34.7106 267.5 41.1106C265.4 47.4106 264.8 52.9106 264.6 56.7106C264.4 60.5106 264.5 62.6106 264.3 62.6106C264.1 62.6106 263.6 60.6106 263.4 56.7106C263.2 52.9106 263.5 47.2106 265.3 40.5106C267.1 33.8106 270.8 26.1106 277 19.2106C283.1 12.3106 291.8 6.31058 302.1 3.11058C307.2 1.51058 312.5 0.910608 317.6 1.01061C322.7 1.21061 327.6 2.11057 331.9 3.91057C336.3 5.61057 340 8.21062 343.2 10.7106C346.4 13.2106 349.2 15.8106 351.6 18.2106C356.4 23.2106 359.5 28.0106 360.9 31.7106C362.2 35.1106 362.3 37.2106 362.1 37.3106Z" fill="#412980" stroke="#412980" stroke-miterlimit="10"/>
<path d="M345.6 74.6106C345.9 74.9106 345.3 76.0106 343.6 77.1106C342 78.1106 339.2 78.9106 336.1 78.3106C333.1 77.7106 330.8 75.9106 329.7 74.3106C328.6 72.7106 328.4 71.5106 328.8 71.3106C329.2 71.1106 330 71.8106 331.3 72.7106C332.6 73.6106 334.5 74.7106 336.7 75.1106C338.9 75.5106 341.1 75.3106 342.6 75.0106C344.3 74.6106 345.4 74.2106 345.6 74.6106Z" fill="#412980" stroke="#412980" stroke-miterlimit="10"/>
<path d="M386.2 73.9106C385.7 73.8106 386.2 71.5106 385.7 68.1106C385.5 66.4106 384.9 64.4106 384.1 62.2106C383.3 60.1106 382.2 57.7106 380.9 55.4106C378.4 50.9106 374.2 48.4106 371 47.3106C367.7 46.2106 365.5 46.2106 365.4 45.7106C365.4 45.5106 365.9 45.2106 367 45.0106C368.1 44.8106 369.6 44.7106 371.6 45.0106C373.5 45.3106 375.8 46.1106 378 47.5106C379.1 48.2106 380.2 49.1106 381.2 50.1106C382.2 51.1106 383.1 52.4106 383.8 53.6106C385.3 56.2106 386.3 58.7106 387 61.1106C387.7 63.5106 388.1 65.8106 388 67.8106C388 69.7106 387.6 71.3106 387.2 72.3106C386.8 73.5106 386.4 73.9106 386.2 73.9106Z" fill="#412980" stroke="#412980" stroke-miterlimit="10"/>
<path d="M371.4 116.811C371.4 117.211 369.4 117.511 366.5 116.511C363.6 115.511 359.8 113.011 357.5 108.811C355.2 104.511 355.101 100.011 355.801 97.0105C356.501 94.0105 357.8 92.5106 358.2 92.7106C358.6 92.9106 358.201 94.6105 358.101 97.3105C358.001 100.011 358.401 103.711 360.301 107.211C362.201 110.711 365.1 113.111 367.5 114.411C369.7 115.711 371.4 116.311 371.4 116.811Z" fill="#412980" stroke="#412980" stroke-miterlimit="10"/>
<path d="M335.7 136.111C335.8 136.311 335.6 136.711 335 137.411C334.4 138.011 333.2 138.711 331.7 139.211C330.2 139.711 328.2 139.811 326.1 139.511C324 139.111 321.8 138.211 319.8 136.911C317.8 135.611 316.2 134.011 314.9 132.511C313.6 131.011 312.5 129.511 311.8 128.111C310.4 125.311 310.3 123.411 310.7 123.311C311.2 123.211 312 124.711 313.7 126.911C314.6 128.011 315.7 129.211 317 130.511C318.3 131.811 319.9 133.111 321.6 134.211C323.3 135.311 325.1 136.211 326.7 136.611C328.4 137.011 329.9 137.111 331.2 137.011C333.9 136.711 335.4 135.711 335.7 136.111Z" fill="#412980" stroke="#412980" stroke-miterlimit="10"/>
<path d="M423.1 154.611C423 154.411 424.3 153.511 426.2 151.311C427.1 150.211 428.2 148.811 429.1 147.011C430.1 145.211 430.9 143.111 431.7 140.611C432.4 138.211 433 135.411 433.5 132.411C434 129.411 434.4 126.211 434.6 122.711C435.1 115.911 434.9 108.311 432.5 101.011C431.3 97.3107 429.6 94.0107 427.4 91.1107C425.2 88.2107 422.6 85.9107 419.9 84.0107C414.4 80.2107 408.5 78.1107 403.6 76.6107C398.6 75.1107 394.5 74.3107 391.6 73.6107C388.7 72.9107 387.2 72.5107 387.2 72.2107C387.2 72.0107 388.9 72.0107 391.8 72.3107C394.7 72.6107 399 73.2106 404.2 74.4106C409.3 75.7106 415.6 77.5107 421.6 81.5107C424.6 83.5107 427.5 86.0107 429.9 89.2107C432.3 92.3107 434.2 96.0107 435.5 100.011C438.1 108.011 438.1 116.011 437.4 123.011C437.1 126.511 436.5 129.811 435.9 132.911C435.3 136.011 434.5 138.811 433.6 141.411C432.7 143.911 431.6 146.211 430.4 148.011C429.2 149.811 428 151.211 426.8 152.211C424.8 154.211 423.1 154.711 423.1 154.611Z" fill="#412980" stroke="#412980" stroke-miterlimit="10"/>
</svg>
