<svg width="250" height="339" viewBox="0 0 250 339" fill="none" xmlns="http://www.w3.org/2000/svg">
<path d="M145.6 295.835C146.7 295.135 147.4 295.835 150.8 295.635C154.9 295.535 156 294.435 162 293.335C164.3 292.935 166.7 292.535 168.2 292.435C175 291.835 179.9 294.535 184.5 296.335C199.1 301.735 210.3 297.535 211 300.735C211.5 303.035 206.1 306.135 204.1 307.335C202 308.535 198.8 310.035 193.1 310.735C186.4 311.635 181.2 310.935 172.3 309.635C164.6 308.535 164 308.035 160 307.835C153.4 307.635 148 308.835 144.5 309.935C142.6 300.435 143.7 296.935 145.6 295.835Z" fill="#412980"/>
<path d="M123.902 231.935C119.802 233.335 113.502 235.535 105.802 238.235C86.5018 244.835 83.1018 245.835 73.9018 249.235C60.6018 254.235 53.9018 256.835 45.9018 261.535C39.1018 265.535 32.1017 270.635 25.8017 278.335C17.5017 288.435 17.9017 294.035 18.2017 296.135C18.7017 299.635 20.5017 302.135 21.2017 303.135C26.3017 310.135 35.3018 311.735 39.5018 312.535C79.1018 319.635 72.6017 319.135 80.2017 319.935C96.5017 321.535 107.302 322.535 122.402 321.635C132.102 321.035 140.202 319.735 146.102 318.635C147.102 316.435 148.002 313.535 148.302 309.935C149.002 299.935 143.802 292.635 142.002 290.235C146.802 288.235 153.902 284.535 161.002 277.835C169.402 270.035 173.402 262.035 174.502 259.935C180.302 247.935 180.702 236.835 180.402 230.735C161.602 231.235 142.802 231.635 123.902 231.935Z" fill="white"/>
<path d="M145.901 318.135C145.901 318.235 145.001 318.435 143.301 318.835C142.401 319.035 141.401 319.335 140.101 319.635C138.801 319.835 137.401 320.135 135.701 320.435C129.101 321.635 119.401 322.735 107.301 322.635C101.301 322.535 94.7009 322.235 87.6009 321.535C80.6009 320.835 73.1009 319.835 65.2009 318.535C61.3009 317.935 57.3009 317.135 53.2009 316.435C49.1009 315.635 44.9009 314.935 40.7009 313.835C36.5009 312.735 32.2009 311.335 28.2009 309.235C26.2009 308.235 24.2009 307.035 22.4009 305.535C20.6009 304.035 19.0009 302.135 18.1009 299.735C17.2009 297.435 17.101 294.935 17.501 292.635C17.901 290.335 18.7009 288.135 19.7009 286.035C20.7009 283.935 22.0009 282.135 23.3009 280.235C24.6009 278.435 26.001 276.735 27.501 275.135C33.401 268.635 40.4009 263.735 47.3009 259.835C54.3009 255.935 61.301 253.135 68.001 250.635C74.701 248.235 80.9009 246.235 86.6009 244.335C98.0009 240.535 107.201 237.535 113.601 235.535C116.801 234.535 119.301 233.735 121.001 233.235C122.701 232.735 123.601 232.435 123.601 232.535C123.601 232.635 122.801 232.935 121.101 233.535C119.401 234.135 117.001 235.035 113.801 236.135C107.501 238.335 98.3009 241.535 86.9009 245.435C81.2009 247.435 75.001 249.435 68.401 251.935C61.801 254.435 54.901 257.335 48.001 261.135C41.201 265.035 34.3009 269.835 28.6009 276.135C27.2009 277.735 25.801 279.335 24.501 281.135C23.201 282.935 22.0009 284.735 21.1009 286.635C20.1009 288.535 19.401 290.635 19.001 292.735C18.701 294.835 18.701 297.035 19.501 299.035C20.201 301.035 21.6009 302.735 23.3009 304.135C25.0009 305.535 26.9009 306.635 28.8009 307.635C32.7009 309.635 36.801 311.035 41.001 312.135C45.101 313.235 49.301 314.035 53.401 314.835C57.501 315.635 61.501 316.335 65.401 317.035C73.201 318.335 80.7009 319.435 87.7009 320.135C94.7009 320.935 101.301 321.235 107.201 321.435C119.201 321.735 128.801 320.735 135.501 319.835C137.201 319.535 138.601 319.335 139.901 319.135C141.201 318.935 142.201 318.635 143.101 318.535C144.901 318.235 145.901 318.035 145.901 318.135Z" fill="#412980" stroke="#412980" stroke-width="0.5" stroke-miterlimit="10"/>
<path d="M102.5 299.935C102.5 299.835 103.8 299.535 106.3 299.035C108.7 298.535 112.3 297.835 116.6 296.935C120.9 296.035 126 294.735 131.6 293.035C137.2 291.235 143.1 288.935 149 285.635C154.8 282.335 159.9 278.435 163.9 274.235C167.9 270.035 171 265.835 173 261.935C175 258.035 176.2 254.635 176.9 252.335C177.1 251.735 177.2 251.235 177.3 250.735C177.4 250.235 177.5 249.835 177.6 249.535C177.8 248.935 177.9 248.535 177.9 248.535C178 248.535 177.9 248.935 177.9 249.535C177.9 249.835 177.8 250.235 177.8 250.735C177.8 251.235 177.7 251.735 177.5 252.335C177.1 254.835 176 258.335 174 262.335C172 266.335 169 270.835 164.9 275.135C160.8 279.435 155.6 283.535 149.7 286.935C143.7 290.235 137.6 292.635 132 294.335C126.3 296.035 121.2 297.135 116.8 297.935C112.4 298.735 108.9 299.235 106.4 299.535C103.9 299.935 102.5 300.035 102.5 299.935Z" fill="#412980" stroke="#412980" stroke-width="0.5" stroke-miterlimit="10"/>
<path d="M146.101 318.735C145.901 318.635 146.101 316.935 146.501 314.235C146.901 311.435 147.401 307.635 147.101 303.535C146.801 299.435 145.501 295.835 144.101 293.435C142.701 291.135 141.401 289.935 141.601 289.735C141.701 289.535 143.301 290.435 145.101 292.735C146.901 295.035 148.501 298.935 148.801 303.335C149.101 307.735 148.301 311.635 147.701 314.435C147.001 317.135 146.401 318.735 146.101 318.735Z" fill="#412980" stroke="#412980" stroke-width="0.5" stroke-miterlimit="10"/>
<path d="M204.9 301.135C204.8 301.335 201.5 300.735 196.1 299.635C190.7 298.535 183.3 296.835 175.1 294.835C173.1 294.335 171.1 293.835 169.2 293.435C168.3 293.235 167.4 293.035 166.5 293.035C165.7 293.035 164.8 293.235 164 293.435C162.3 293.935 160.6 294.535 159 294.935C157.4 295.335 155.9 295.635 154.5 295.735C151.7 296.135 149.5 296.135 147.9 296.035C146.4 295.935 145.5 295.835 145.5 295.735C145.5 295.435 148.9 295.535 154.3 294.535C155.6 294.235 157.1 293.935 158.6 293.535C160.2 293.135 161.7 292.535 163.5 291.935C164.4 291.635 165.4 291.435 166.5 291.435C167.5 291.435 168.6 291.635 169.6 291.835C171.5 292.335 173.5 292.735 175.6 293.235C183.8 295.235 191.1 297.035 196.4 298.435C201.7 299.935 205 300.935 204.9 301.135Z" fill="#412980" stroke="#412980" stroke-width="0.5" stroke-miterlimit="10"/>
<path d="M207.601 304.935C207.701 305.035 207.001 305.635 205.701 306.635C204.401 307.535 202.401 308.735 199.601 309.735C196.901 310.735 193.501 311.435 189.701 311.735C185.901 312.035 181.701 311.835 177.401 311.235C173.001 310.635 169.001 309.735 165.301 309.135C161.601 308.535 158.301 308.235 155.501 308.535C152.701 308.735 150.601 309.335 149.101 309.935C148.401 310.235 147.801 310.535 147.401 310.635C147.001 310.835 146.801 310.835 146.801 310.835C146.801 310.835 146.901 310.635 147.301 310.335C147.601 310.035 148.101 309.635 148.901 309.335C150.301 308.535 152.601 307.635 155.401 307.335C158.301 306.935 161.801 307.135 165.501 307.635C169.301 308.135 173.301 309.035 177.501 309.635C186.001 310.835 193.901 310.335 199.201 308.635C201.901 307.835 203.901 306.835 205.301 306.035C206.801 305.335 207.601 304.835 207.601 304.935Z" fill="#412980" stroke="#412980" stroke-width="0.5" stroke-miterlimit="10"/>
<path d="M174.899 305.635C176.499 303.735 179.299 304.335 185.499 302.435C189.399 301.235 192.399 299.735 194.299 298.635C199.299 299.935 207.099 302.035 216.599 304.335C239.399 309.935 248.699 311.635 248.899 315.335C249.099 318.235 243.599 320.835 241.299 321.935C234.399 325.135 227.799 324.335 217.699 322.935C209.299 321.735 202.599 320.035 202.599 320.035C196.899 318.535 194.599 317.535 190.599 317.535C185.499 317.535 181.299 319.335 178.499 320.835C172.999 311.235 173.499 307.435 174.899 305.635Z" fill="#412980"/>
<path d="M212.198 250.935C212.098 253.435 211.798 257.035 210.598 261.235C210.598 261.235 208.598 268.235 203.598 275.335C193.998 289.035 174.398 298.635 171.898 299.835C172.898 301.635 173.998 303.535 174.898 305.635C178.498 313.635 179.898 321.135 180.298 327.035C176.798 327.835 171.898 328.935 165.898 330.135C157.798 331.735 146.398 334.035 134.998 335.435C119.998 337.235 108.898 337.135 96.1983 336.835C86.6983 336.635 65.2983 336.035 45.4983 330.035C41.9983 329.035 35.1983 326.735 29.9983 320.535C28.2983 318.535 24.6983 314.235 24.5983 308.135C24.4983 302.635 27.2983 298.335 29.8983 295.135C43.0983 278.535 63.2983 269.535 63.2983 269.535C79.3983 262.335 100.198 253.935 125.398 245.635C123.498 244.935 121.398 244.035 121.398 242.935C121.398 239.435 141.898 236.435 155.098 236.035C167.398 236.035 187.498 237.835 212.198 250.935Z" fill="white"/>
<path d="M128.599 246.135C128.399 246.535 126.699 246.235 124.699 245.435C122.699 244.635 121.199 243.635 121.399 243.235C121.599 242.835 123.299 243.135 125.299 243.935C127.299 244.735 128.799 245.735 128.599 246.135Z" fill="#412980" stroke="#412980" stroke-width="0.5" stroke-miterlimit="10"/>
<path d="M125.3 245.935C125.3 246.035 123.9 246.635 121.3 247.535C118.7 248.435 114.8 249.735 110.1 251.335C100.7 254.535 87.5998 258.935 73.7998 265.335C66.8998 268.535 60.5998 272.035 54.9998 275.435C49.3998 278.935 44.5998 282.435 40.7998 285.535C36.9998 288.635 33.9998 291.435 31.9998 293.335C29.9998 295.235 28.8998 296.335 28.7998 296.335C28.6998 296.235 29.6998 295.035 31.4998 292.935C33.3998 290.835 36.1998 287.935 39.9998 284.635C43.7998 281.335 48.5998 277.735 54.0998 274.135C59.6998 270.535 66.0998 267.035 72.9998 263.735C86.8998 257.335 100.1 253.035 109.6 250.035C114.4 248.535 118.3 247.435 121 246.735C123.8 246.135 125.3 245.735 125.3 245.935Z" fill="#412980" stroke="#412980" stroke-width="0.5" stroke-miterlimit="10"/>
<path d="M180.699 326.635C180.699 326.735 180.099 326.935 178.899 327.235C177.699 327.635 175.899 328.135 173.599 328.735C171.299 329.335 168.499 330.035 165.199 330.835C163.599 331.235 161.799 331.635 159.899 332.035C157.999 332.435 155.999 332.935 153.899 333.235C145.499 334.835 135.499 336.435 124.199 337.435C112.899 338.435 100.499 338.735 87.4992 337.735C74.4992 336.835 62.1992 334.535 51.2992 331.435C48.5992 330.635 45.9992 329.735 43.3992 328.935C40.8992 328.035 38.3992 327.135 36.0992 325.935C33.7992 324.835 31.6992 323.435 29.8992 321.835C28.0992 320.235 26.6992 318.435 25.6992 316.435C23.6992 312.435 23.7992 308.235 24.3992 304.835C25.0992 301.435 26.3992 298.735 27.5992 296.635C28.7992 294.535 29.9992 293.135 30.7992 292.135C31.5992 291.235 32.0992 290.735 32.1992 290.735C32.2992 290.835 30.4992 292.735 28.1992 296.935C27.0992 299.035 25.8992 301.735 25.2992 304.935C24.6992 308.135 24.7992 312.135 26.6992 315.835C27.5992 317.635 28.9992 319.335 30.6992 320.835C32.3992 322.335 34.3992 323.535 36.5992 324.635C38.7992 325.735 41.1992 326.635 43.6992 327.435C46.1992 328.235 48.8992 329.035 51.4992 329.835C62.2992 332.835 74.4992 335.035 87.3992 336.035C100.299 337.035 112.699 336.735 123.899 335.835C135.099 334.935 145.099 333.535 153.499 332.035C155.599 331.735 157.599 331.235 159.499 330.935C161.399 330.535 163.199 330.235 164.799 329.935C168.099 329.235 170.999 328.635 173.299 328.135C175.599 327.635 177.399 327.235 178.699 326.935C180.099 326.635 180.699 326.535 180.699 326.635Z" fill="#412980" stroke="#412980" stroke-width="0.5" stroke-miterlimit="10"/>
<path d="M123.299 310.735C123.299 310.635 124.899 310.335 127.799 309.835C130.699 309.335 134.899 308.635 139.999 307.735C145.199 306.835 151.299 305.535 157.899 303.735C164.499 301.935 171.699 299.335 178.799 295.635C182.299 293.735 185.599 291.735 188.599 289.435C191.599 287.235 194.299 284.835 196.699 282.335C201.499 277.435 205.099 272.335 207.299 267.635C208.499 265.335 209.299 263.135 209.999 261.135C210.299 260.135 210.599 259.235 210.899 258.335C211.099 257.435 211.299 256.635 211.499 255.935C211.599 255.535 211.699 255.235 211.699 254.935C211.799 254.635 211.799 254.335 211.799 254.035C211.899 253.435 211.999 253.035 211.999 252.635C212.099 251.835 212.199 251.435 212.299 251.435C212.399 251.435 212.399 251.835 212.299 252.635C212.299 253.035 212.199 253.535 212.199 254.035C212.199 254.335 212.199 254.635 212.099 254.935C211.999 255.235 211.999 255.635 211.899 255.935C211.799 256.635 211.599 257.435 211.499 258.335C211.299 259.235 210.999 260.135 210.799 261.135C210.199 263.135 209.399 265.435 208.299 267.835C206.099 272.635 202.499 278.035 197.699 283.035C195.199 285.535 192.499 288.035 189.499 290.335C186.399 292.635 183.099 294.735 179.499 296.635C172.299 300.335 164.999 302.935 158.299 304.735C151.599 306.535 145.399 307.635 140.199 308.435C134.999 309.235 130.799 309.735 127.799 310.035C124.899 310.835 123.299 310.935 123.299 310.735Z" fill="#412980" stroke="#412980" stroke-width="0.5" stroke-miterlimit="10"/>
<path d="M180.3 327.035C179.8 327.035 179.5 320.435 177.4 312.535C176.9 310.535 176.4 308.735 175.8 307.035C175.2 305.435 174.5 304.035 173.8 303.035C172.3 300.935 170.6 300.535 170.7 300.335C170.7 300.235 171.2 300.235 171.9 300.435C172.7 300.635 173.7 301.235 174.7 302.335C175.7 303.335 176.6 304.835 177.3 306.535C178 308.235 178.6 310.135 179.1 312.135C181.1 320.235 180.7 327.035 180.3 327.035Z" fill="#412980" stroke="#412980" stroke-width="0.5" stroke-miterlimit="10"/>
<path d="M248.6 315.735C248.6 315.835 247.5 315.635 245.6 315.135C243.7 314.635 241 313.935 237.7 312.935C231 311.035 221.8 308.335 211.7 305.235C209.2 304.435 206.7 303.735 204.3 302.935C201.9 302.235 199.6 301.435 197.5 301.135C193.1 300.335 189.2 301.735 186 302.935C182.8 304.135 180.1 305.135 178.1 305.535C176.2 305.935 175.1 305.835 175.1 305.735C175.1 305.635 176.2 305.435 178 304.935C179.9 304.435 182.4 303.335 185.6 301.935C187.2 301.235 189 300.535 191.1 300.035C193.1 299.535 195.5 299.335 197.8 299.735C200.2 300.035 202.5 300.835 204.9 301.535C207.3 302.235 209.8 303.035 212.3 303.835C222.4 306.935 231.6 309.835 238.2 312.035C241.5 313.135 244.2 314.035 246 314.735C247.6 315.135 248.6 315.535 248.6 315.735Z" fill="#412980" stroke="#412980" stroke-width="0.5" stroke-miterlimit="10"/>
<path d="M249 317.135C249.1 317.135 248.7 318.135 247.4 319.535C246.1 320.935 243.9 322.535 240.7 323.635C237.5 324.735 233.5 325.035 229.1 324.835C224.7 324.635 220 324.135 215 323.435C210 322.635 205.4 321.635 201.2 320.535C197 319.435 193.3 318.435 190.1 318.235C186.9 317.935 184.3 318.435 182.7 319.035C181 319.635 180.2 320.235 180.1 320.135C180.1 320.035 180.8 319.335 182.4 318.435C183.2 318.035 184.3 317.635 185.7 317.335C187 317.135 188.5 316.935 190.2 317.035C193.5 317.135 197.4 318.035 201.6 319.035C205.8 320.035 210.4 321.035 215.3 321.735C220.2 322.535 224.9 323.035 229.2 323.335C233.5 323.635 237.3 323.435 240.4 322.535C243.5 321.635 245.7 320.235 247 319.135C248.3 317.935 248.9 317.135 249 317.135Z" fill="#412980" stroke="#412980" stroke-width="0.5" stroke-miterlimit="10"/>
<path d="M146.002 99.1346C144.202 102.135 142.302 105.235 140.502 108.235C137.602 118.235 134.802 128.735 132.302 139.635C130.902 145.535 129.602 151.435 128.402 157.135C124.302 157.335 119.902 157.335 115.402 157.335C108.402 157.235 101.802 156.835 95.6017 156.235C95.1017 156.835 94.5017 157.535 94.0017 158.135C92.6017 157.135 89.1017 154.835 84.4017 155.035C84.2017 155.035 79.5017 155.335 79.3017 156.735C79.1017 157.735 81.2017 159.435 90.4017 162.535C90.5017 164.935 90.9017 168.135 92.2017 171.635C95.0017 179.135 100.102 183.635 102.702 185.535C104.802 185.535 108.002 185.435 111.902 185.235C118.002 184.935 124.702 184.535 132.902 182.535C139.202 181.035 142.402 180.235 145.802 177.635C148.502 175.635 150.302 173.235 153.102 168.535C158.202 159.735 160.002 153.935 163.402 145.935C169.402 131.735 170.402 134.635 172.302 127.635C174.702 118.835 173.802 111.735 172.002 98.3346C170.602 87.6346 169.302 86.3346 168.202 85.7346C161.602 82.2346 147.802 97.1346 146.002 99.1346Z" fill="white"/>
<path d="M128.401 157.035C128.201 157.035 128.801 153.135 130.001 146.935C131.201 140.735 133.101 132.135 135.901 122.835C138.701 113.535 142.101 105.435 145.101 99.7346C145.901 98.3346 146.701 97.1346 147.501 96.1346C148.301 95.1346 149.201 94.4346 150.001 93.9346C151.501 92.9346 152.601 92.8346 152.601 92.9346C152.701 93.0346 151.701 93.3346 150.401 94.4346C149.101 95.5346 147.501 97.5346 146.101 100.335C143.401 106.035 140.201 114.135 137.501 123.335C134.701 132.535 132.701 141.035 131.201 147.235C129.601 153.335 128.601 157.135 128.401 157.035Z" fill="#412980" stroke="#412980" stroke-width="0.5" stroke-miterlimit="10"/>
<path d="M129.9 155.835C130 156.235 122.4 158.235 112.8 158.135C103.2 158.135 95.6002 156.135 95.7002 155.735C95.8002 155.235 103.4 156.535 112.8 156.435C122.2 156.535 129.8 155.335 129.9 155.835Z" fill="#412980" stroke="#412980" stroke-width="0.5" stroke-miterlimit="10"/>
<path d="M103.601 185.935C103.501 186.035 103.101 185.835 102.401 185.335C101.801 184.735 101.101 183.735 100.401 182.435C99.1008 179.835 97.4008 176.135 96.1008 171.835C94.8008 167.535 94.3008 163.435 94.3008 160.535C94.3008 159.035 94.4008 157.835 94.5008 157.035C94.5008 156.535 94.8008 156.235 95.0008 156.135C95.2008 156.035 95.4008 156.235 95.4008 156.235C95.4008 156.335 95.3008 156.235 95.2008 156.335C95.1008 156.535 95.0008 156.735 95.1008 157.035C95.2008 157.835 95.2008 159.035 95.4008 160.435C95.7008 163.235 96.4008 167.135 97.6008 171.335C98.8008 175.535 100.301 179.235 101.301 181.935C101.801 183.235 102.301 184.235 102.701 184.935C103.401 185.535 103.701 185.835 103.601 185.935Z" fill="#412980" stroke="#412980" stroke-width="0.5" stroke-miterlimit="10"/>
<path d="M168.002 137.435C168.102 137.535 167.602 138.635 166.502 140.735C165.502 142.735 163.902 145.735 162.102 149.335C160.302 153.035 158.202 157.335 156.302 162.435C155.302 164.935 154.302 167.635 152.902 170.335C151.502 173.035 149.602 175.635 147.002 177.635C144.402 179.635 141.502 180.935 138.602 181.835C135.702 182.735 132.902 183.335 130.202 183.735C124.802 184.635 120.002 185.135 115.902 185.435C111.802 185.735 108.502 185.735 106.202 185.735C103.902 185.635 102.602 185.535 102.602 185.435C102.602 185.335 103.902 185.235 106.202 185.035C108.502 184.835 111.802 184.635 115.802 184.235C119.902 183.835 124.702 183.235 130.002 182.235C132.702 181.735 135.402 181.135 138.202 180.335C140.902 179.435 143.702 178.235 146.102 176.335C148.502 174.535 150.202 172.035 151.602 169.535C153.002 167.035 154.002 164.335 155.002 161.835C157.002 156.735 159.202 152.335 161.102 148.735C163.102 145.135 164.802 142.235 166.002 140.335C167.202 138.435 167.902 137.335 168.002 137.435Z" fill="#412980" stroke="#412980" stroke-width="0.5" stroke-miterlimit="10"/>
<path d="M88.4009 161.035C88.3009 161.235 86.7008 161.035 84.1008 160.535C82.8008 160.235 81.2009 159.935 79.5009 159.535C79.3009 159.435 79.1009 159.435 78.8009 159.335C78.6009 159.235 78.3009 159.235 78.0009 159.035C77.6009 158.835 77.3008 158.535 77.2008 158.135C77.0008 157.735 77.0008 157.335 77.1008 156.935C77.2008 156.235 77.6008 155.735 78.1008 155.235C78.6008 154.835 79.1008 154.535 79.6008 154.335C80.7008 153.935 81.8009 153.835 82.9009 153.935C83.9009 154.035 84.9009 154.135 85.8009 154.335C87.5009 154.735 89.1009 155.135 90.4009 155.635C93.0009 156.635 94.3008 157.735 94.2008 157.935C94.1008 158.135 92.6008 157.435 90.1008 156.735C88.8008 156.435 87.3008 156.035 85.6008 155.735C83.9008 155.435 82.0009 155.135 80.4009 155.735C80.0009 155.835 79.6009 156.135 79.3009 156.335C79.1009 156.535 78.9009 156.835 78.8009 157.135C78.8009 157.335 78.8009 157.435 78.9009 157.435C78.9009 157.435 79.2009 157.535 79.4009 157.635C79.6009 157.735 79.8009 157.735 80.0009 157.835C81.7009 158.335 83.2009 158.735 84.5009 159.135C86.9009 160.135 88.4009 160.735 88.4009 161.035Z" fill="#412980" stroke="#412980" stroke-width="0.5" stroke-miterlimit="10"/>
<path d="M1.40039 139.135C15.0004 154.635 30.9004 170.735 49.4004 186.735C55.8004 192.235 62.1004 197.335 68.3004 202.235C74.4004 200.235 81.5004 197.335 89.1004 193.035C95.2004 189.635 100.4 186.035 104.6 182.735C102.9 180.535 100.2 177.035 96.8004 173.035C90.7004 165.635 88.1004 163.235 79.2004 153.335C69.2004 142.335 62.5004 134.335 60.9004 132.435C56.5004 127.135 52.9004 122.735 50.5004 119.735C48.9004 119.635 45.8004 119.635 42.4004 121.335C40.2004 122.435 38.6004 123.835 37.6004 124.835C33.7004 122.835 30.5004 122.535 28.3004 122.635C23.1004 123.035 20.7004 126.035 13.9004 128.635C9.80039 130.135 6.20038 130.735 3.80038 131.035C5.20038 132.835 6.6004 134.735 8.0004 136.535C5.8004 137.335 3.60039 138.235 1.40039 139.135Z" fill="white"/>
<path d="M69.5 203.135C69.4 203.235 68.3 202.535 66.4 201.135C65.4 200.435 64.3 199.635 62.9 198.635C61.6 197.635 60 196.535 58.4 195.135C55.1 192.535 51.2 189.335 47 185.635C42.8 181.935 38.3 177.835 33.6 173.335C24.3 164.435 16.1 156.035 10.3 150.035C7.39999 147.035 4.99999 144.535 3.39999 142.735C1.79999 141.035 1 140.035 1 139.935C1.1 139.835 2.09999 140.735 3.79999 142.335C5.49999 143.935 8 146.335 11 149.235C17 155.135 25.3 163.335 34.6 172.235C39.3 176.635 43.7 180.835 47.9 184.535C52 188.235 55.8 191.535 59 194.235C60.6 195.635 62.1 196.835 63.4 197.935C64.7 199.035 65.8 199.935 66.7 200.635C68.6 202.135 69.6 203.035 69.5 203.135Z" fill="#412980" stroke="#412980" stroke-width="0.5" stroke-miterlimit="10"/>
<path d="M7.39958 135.235C7.79958 135.535 6.99956 137.135 5.09956 138.335C3.29956 139.535 1.49958 139.535 1.39958 139.135C1.29958 138.735 2.69957 137.935 4.29957 136.935C5.79957 135.935 6.99958 134.935 7.39958 135.235Z" fill="#412980" stroke="#412980" stroke-width="0.5" stroke-miterlimit="10"/>
<path d="M69.9994 198.035C69.8994 198.135 68.8994 197.335 67.0994 195.835C65.2994 194.335 62.6994 192.135 59.4994 189.335C53.1994 183.735 44.5994 175.735 35.4994 166.635C26.3994 157.435 18.4994 148.835 12.9994 142.535C10.1994 139.335 7.9994 136.735 6.4994 134.935C4.9994 133.135 4.19938 132.035 4.29938 131.935C4.39938 131.835 5.2994 132.735 6.9994 134.435C8.5994 136.135 10.9994 138.635 13.7994 141.735C19.5994 147.935 27.5994 156.335 36.5994 165.535C45.6994 174.635 54.0994 182.735 60.1994 188.535C63.2994 191.435 65.6994 193.835 67.3994 195.435C69.0994 196.935 70.0994 197.935 69.9994 198.035Z" fill="#412980" stroke="#412980" stroke-width="0.5" stroke-miterlimit="10"/>
<path d="M42.3992 129.135C42.2992 129.235 41.7992 128.835 40.9992 128.235C40.1992 127.535 38.9992 126.635 37.3992 125.535C35.7992 124.535 33.8992 123.435 31.4992 123.135C29.1992 122.835 26.4992 123.635 23.8992 124.635C21.1992 125.635 18.7992 126.935 16.3992 127.935C14.0992 129.035 11.8992 129.835 9.99924 130.335C8.09924 130.835 6.49923 131.035 5.39923 131.035C4.29923 131.035 3.69922 130.935 3.69922 130.835C3.69922 130.735 4.29922 130.635 5.29922 130.435C6.29922 130.235 7.79921 129.935 9.59921 129.335C11.3992 128.735 13.3992 127.735 15.6992 126.635C17.9992 125.535 20.3992 124.235 23.1992 123.135C24.5992 122.635 25.9992 122.135 27.3992 121.835C28.7992 121.535 30.2992 121.435 31.5992 121.635C34.2992 122.035 36.3992 123.435 37.8992 124.535C39.3992 125.735 40.4992 126.835 41.2992 127.635C42.1992 128.535 42.4992 129.035 42.3992 129.135Z" fill="#412980" stroke="#412980" stroke-width="0.5" stroke-miterlimit="10"/>
<path d="M50.4 119.735C50.5 119.935 49.9 120.435 48.7 120.935C47.5 121.435 45.8 121.935 43.9 122.035C42.9 122.135 42 122.035 41.2 122.035C40.5 122.035 39.9 122.035 39.5 122.235C38.6 122.635 38.5 123.335 38.3 123.435C38.2 123.435 38 123.235 38 122.835C38 122.435 38.3 121.835 38.8 121.335C39.4 120.835 40.3 120.635 41.2 120.535C42.1 120.535 42.9 120.535 43.8 120.435C47.4 120.135 50.3 119.235 50.4 119.735Z" fill="#412980" stroke="#412980" stroke-width="0.5" stroke-miterlimit="10"/>
<path d="M104.1 180.935C104 181.035 103.2 180.235 101.7 178.835C100.3 177.435 98.2002 175.235 95.7002 172.635C90.7002 167.335 83.9002 159.835 76.5002 151.535C69.1002 143.135 62.6002 135.535 57.9002 129.835C55.6002 127.035 53.7002 124.735 52.5002 123.135C51.2002 121.535 50.6002 120.635 50.7002 120.535C50.8002 120.435 51.6002 121.235 53.0002 122.735C54.4002 124.235 56.4002 126.435 58.8002 129.135C63.7002 134.535 70.4002 142.135 77.8002 150.435C85.2002 158.735 91.9002 166.335 96.6002 171.835C99.0002 174.635 100.9 176.835 102.2 178.435C103.5 179.935 104.2 180.935 104.1 180.935Z" fill="#412980" stroke="#412980" stroke-width="0.5" stroke-miterlimit="10"/>
<path d="M93.0996 187.635C92.9996 187.935 91.4996 187.535 89.1996 188.235C87.9996 188.535 86.6996 189.035 85.2996 189.835C83.8996 190.635 82.3996 191.535 80.7996 192.635C79.1996 193.735 77.6996 194.735 76.0996 195.435C74.5996 196.235 73.0996 196.635 71.6996 196.835C70.3996 197.035 69.2996 196.935 68.5996 196.735C67.8996 196.535 67.5996 196.235 67.5996 196.135C67.6996 195.935 69.1996 196.335 71.4996 195.735C72.6996 195.435 73.9996 194.935 75.3996 194.135C76.7996 193.335 78.2996 192.335 79.8996 191.335C81.4996 190.235 83.0996 189.235 84.5996 188.535C86.0996 187.835 87.5996 187.335 88.8996 187.135C90.1996 186.935 91.2996 187.035 91.9996 187.235C92.6996 187.335 93.0996 187.535 93.0996 187.635Z" fill="#412980" stroke="#412980" stroke-width="0.5" stroke-miterlimit="10"/>
<path d="M104.599 178.835C104.799 178.835 104.799 179.735 103.999 180.835C103.599 181.435 102.999 181.835 102.299 182.335C101.599 182.735 100.799 183.135 99.8994 183.535C99.0994 183.935 98.2994 184.235 97.5994 184.535C96.9994 184.835 96.3994 185.235 95.9994 185.535C95.1994 186.235 94.7994 186.835 94.5994 186.735C94.3994 186.735 94.3994 185.835 95.1994 184.735C95.5994 184.135 96.1994 183.735 96.8994 183.235C97.5994 182.835 98.3994 182.435 99.2994 182.035C100.099 181.635 100.899 181.335 101.599 181.035C102.199 180.735 102.799 180.335 103.199 180.035C103.999 179.335 104.299 178.735 104.599 178.835Z" fill="#412980" stroke="#412980" stroke-width="0.5" stroke-miterlimit="10"/>
<path d="M96.3999 189.235C96.4999 189.435 95.1999 190.335 92.8999 191.635C91.7999 192.335 90.3999 193.035 88.8999 193.835C87.3999 194.635 85.6999 195.435 83.7999 196.235C76.4999 199.535 70.3999 201.535 70.2999 201.135C70.0999 200.735 75.9999 198.035 83.1999 194.735C84.9999 193.935 86.6999 193.135 88.2999 192.435C89.8999 191.735 91.1999 191.035 92.3999 190.535C94.6999 189.635 96.2999 189.035 96.3999 189.235Z" fill="#412980" stroke="#412980" stroke-width="0.5" stroke-miterlimit="10"/>
<path d="M95.2008 189.135C94.8008 189.235 94.3008 188.735 94.2008 188.035C94.1008 187.335 94.4008 186.835 94.9008 186.735C95.3008 186.635 95.8008 187.135 95.9008 187.835C95.9008 188.535 95.6008 189.035 95.2008 189.135Z" fill="#412980" stroke="#412980" stroke-width="0.5" stroke-miterlimit="10"/>
<path d="M104.3 180.935C104.7 181.235 103.3 183.635 100.9 185.935C98.4998 188.235 95.9998 189.435 95.6998 189.135C95.3998 188.735 97.3998 187.035 99.7998 184.735C102.1 182.535 104 180.635 104.3 180.935Z" fill="#412980" stroke="#412980" stroke-width="0.5" stroke-miterlimit="10"/>
<path d="M84.4007 176.835C84.1007 177.135 75.0007 166.835 64.2007 153.935C53.4007 140.935 44.9007 130.235 45.3007 129.935C45.6007 129.635 54.7007 139.935 65.5007 152.835C76.3007 165.835 84.7007 176.635 84.4007 176.835Z" fill="#412980" stroke="#412980" stroke-width="0.5" stroke-miterlimit="10"/>
<path d="M33.8005 127.635C33.9005 128.035 30.9005 129.235 27.2005 130.835C23.6005 132.435 20.7005 134.035 20.4005 133.635C20.1005 133.235 22.7005 131.035 26.5005 129.335C30.3005 127.635 33.7005 127.135 33.8005 127.635Z" fill="#412980" stroke="#412980" stroke-width="0.5" stroke-miterlimit="10"/>
<path d="M46.1 135.035C46.1 135.235 44.7 135.435 42.6 135.935C41.5 136.235 40.3 136.535 39.2 137.335C38 138.035 36.8 139.135 35.6 140.235C34.4 141.435 33.1001 142.535 31.9001 143.435C30.7001 144.335 29.5001 145.035 28.5001 145.635C26.5001 146.735 25.1001 147.135 25.0001 146.935C24.8001 146.535 29.7001 143.935 34.5001 139.035C35.8001 137.835 37.1001 136.735 38.5001 136.035C39.9001 135.235 41.3001 134.935 42.5001 134.835C44.7001 134.535 46.1 134.835 46.1 135.035Z" fill="#412980" stroke="#412980" stroke-width="0.5" stroke-miterlimit="10"/>
<path d="M42.9991 142.335C43.2991 142.635 40.9991 145.335 37.7991 148.335C36.1991 149.835 34.5991 151.135 33.2991 151.835C31.8991 152.535 30.9991 152.535 30.8991 152.335C30.7991 152.135 31.5991 151.735 32.6991 150.835C33.7991 150.035 35.0991 148.635 36.6991 147.135C39.8991 144.235 42.6991 142.035 42.9991 142.335Z" fill="#412980" stroke="#412980" stroke-width="0.5" stroke-miterlimit="10"/>
<path d="M54.5 141.735C54.5 141.935 53.5999 142.235 52.0999 142.735C51.3999 142.935 50.4999 143.235 49.6999 143.735C48.8999 144.135 48.1 144.835 47.3 145.635C44.2 149.135 41.3 151.835 41 151.535C40.7 151.235 42.8999 148.135 46.1999 144.535C47.0999 143.635 48.0999 142.835 49.0999 142.435C50.0999 142.035 51.1 141.835 51.9 141.735C53.5 141.435 54.4 141.535 54.5 141.735Z" fill="#412980" stroke="#412980" stroke-width="0.5" stroke-miterlimit="10"/>
<path d="M56.5004 146.935C56.5004 147.135 55.3004 147.435 53.7004 148.535C52.0004 149.535 50.0004 151.335 48.1004 153.635C46.1004 155.935 44.3004 158.135 42.6004 159.435C41.8004 160.135 41.0004 160.535 40.4004 160.735C39.8004 160.935 39.4004 160.835 39.4004 160.735C39.4004 160.635 39.7004 160.535 40.1004 160.235C40.5004 159.935 41.1004 159.435 41.7004 158.635C43.1004 157.235 44.7004 155.035 46.7004 152.635C48.7004 150.235 51.1004 148.435 53.1004 147.635C55.1004 146.635 56.5004 146.735 56.5004 146.935Z" fill="#412980" stroke="#412980" stroke-width="0.5" stroke-miterlimit="10"/>
<path d="M65.6995 156.035C65.6995 156.335 64.4995 156.335 62.9995 157.435C62.1995 157.935 61.3994 158.735 60.5994 159.635C59.6994 160.535 58.7995 161.635 57.6995 162.735C53.3995 167.135 49.0995 169.635 48.8995 169.335C48.5995 168.935 52.3995 165.835 56.4995 161.635C57.4995 160.535 58.4995 159.535 59.4995 158.635C60.4995 157.735 61.4995 156.935 62.3995 156.435C63.3995 155.935 64.1995 155.835 64.7995 155.835C65.3995 155.735 65.6995 155.935 65.6995 156.035Z" fill="#412980" stroke="#412980" stroke-width="0.5" stroke-miterlimit="10"/>
<path d="M155.601 90.3346C153.601 91.2346 150.301 93.0346 147.701 96.5346C141.801 104.635 145.101 114.535 145.501 115.635C146.901 117.535 148.301 119.435 149.701 121.235C149.601 129.735 149.501 136.335 149.501 140.235C149.401 149.235 149.301 172.535 146.701 191.735C146.401 194.235 145.701 198.335 143.701 203.135C141.701 208.035 139.401 210.935 135.601 215.935C132.801 219.735 128.701 225.235 123.801 232.435C125.701 233.235 128.701 234.435 132.401 235.835C142.801 239.735 162.701 247.135 188.801 249.835C196.301 250.635 206.701 251.235 219.201 250.535C220.201 245.435 221.601 238.035 223.001 229.235C226.001 210.835 228.901 192.435 229.201 168.435C229.601 135.435 224.601 130.435 225.001 111.335C225.101 108.635 225.301 101.235 221.801 92.9346C220.101 88.9346 217.901 85.9346 216.401 84.0346C216.601 83.7346 218.901 80.4346 217.601 76.4346C216.401 72.7346 213.201 71.3346 212.801 71.1346C213.101 69.9346 214.501 64.3346 211.401 60.8346C208.601 57.6346 203.701 58.0346 198.901 58.4346C192.601 58.9346 188.001 60.9346 186.201 61.8346C171.601 69.0346 157.701 87.5346 155.601 90.3346Z" fill="white"/>
<path d="M150.201 123.035C149.801 123.235 148.701 121.535 147.501 119.635C146.201 117.635 145.201 116.035 145.501 115.735C145.801 115.435 147.501 116.635 148.901 118.735C150.201 120.835 150.601 122.935 150.201 123.035Z" fill="#412980" stroke="#412980" stroke-width="0.5" stroke-miterlimit="10"/>
<path d="M143.701 203.235C143.501 203.135 145.301 198.935 146.101 191.535C146.501 187.835 146.701 183.435 147.001 178.535C147.301 173.635 147.601 168.235 147.801 162.535C148.301 151.135 148.701 140.935 148.901 133.435C149.001 129.735 149.101 126.735 149.201 124.635C149.301 122.535 149.401 121.435 149.501 121.435C149.601 121.435 149.701 122.635 149.801 124.635C149.901 126.735 150.001 129.735 150.001 133.435C150.001 140.935 149.901 151.235 149.301 162.535C149.001 168.235 148.701 173.635 148.301 178.535C147.901 183.435 147.601 187.935 147.001 191.635C146.401 195.335 145.601 198.335 144.901 200.235C144.401 202.335 143.801 203.335 143.701 203.235Z" fill="#412980" stroke="#412980" stroke-width="0.5" stroke-miterlimit="10"/>
<path d="M124.001 231.935C123.801 231.835 124.401 229.735 126.301 226.935C128.201 224.035 131.301 220.635 134.301 216.535C140.401 208.335 144.101 200.935 144.501 201.135C144.901 201.335 141.801 209.135 135.601 217.535C132.501 221.735 129.201 225.035 127.201 227.635C125.101 230.235 124.201 232.035 124.001 231.935Z" fill="#412980" stroke="#412980" stroke-width="0.5" stroke-miterlimit="10"/>
<path d="M202.501 66.7346C202.601 66.9346 200.201 68.0346 196.501 70.2346C195.601 70.8346 194.601 71.4346 193.601 72.1346C192.601 72.8346 191.501 73.6346 190.401 74.4346C188.201 76.1346 185.901 78.2346 183.701 80.5346C181.501 82.9346 179.601 85.3346 178.001 87.6346C177.201 88.8346 176.501 89.9346 175.901 91.0346C175.201 92.1346 174.701 93.1346 174.201 94.0346C172.201 97.8346 171.301 100.335 171.101 100.235C170.901 100.135 171.501 97.5346 173.201 93.5346C173.601 92.5346 174.101 91.4346 174.801 90.3346C175.401 89.2346 176.101 88.0346 176.901 86.8346C178.501 84.4346 180.401 81.9346 182.701 79.4346C185.001 77.0346 187.401 74.9346 189.701 73.2346C190.901 72.4346 192.001 71.6346 193.101 70.9346C194.201 70.2346 195.201 69.6346 196.201 69.1346C199.801 67.2346 202.501 66.5346 202.501 66.7346Z" fill="#412980" stroke="#412980" stroke-width="0.5" stroke-miterlimit="10"/>
<path d="M212.101 75.9346C212.001 75.9346 212.001 75.3346 212.001 74.3346C212.001 73.3346 212.101 71.8346 212.101 70.1346C212.001 68.4346 211.801 66.3346 210.701 64.4346C209.601 62.5346 207.601 61.0346 205.101 60.2346C202.601 59.4346 200.101 59.4346 197.801 59.6346C195.501 59.8346 193.501 60.3346 191.801 60.9346C188.401 62.0346 186.501 63.1346 186.401 62.9346C186.301 62.7346 188.001 61.2346 191.401 59.8346C193.101 59.1346 195.201 58.5346 197.601 58.1346C200.001 57.8346 202.801 57.8346 205.601 58.7346C208.401 59.5346 210.801 61.4346 212.001 63.7346C213.201 66.0346 213.301 68.3346 213.301 70.2346C213.201 72.0346 212.901 73.5346 212.701 74.5346C212.401 75.3346 212.201 75.9346 212.101 75.9346Z" fill="#412980" stroke="#412980" stroke-width="0.5" stroke-miterlimit="10"/>
<path d="M216.5 84.2346C216.3 84.1346 216.4 83.2346 216.6 81.9346C216.8 80.5346 217.2 78.7346 216.9 76.8346C216.6 74.9346 215.6 73.4346 214.7 72.6346C213.7 71.8346 212.9 71.6346 212.9 71.4346C212.9 71.2346 213.9 70.9346 215.3 71.7346C216.7 72.4346 218.2 74.2346 218.5 76.6346C218.8 78.9346 218.2 80.9346 217.7 82.3346C217.2 83.5346 216.7 84.2346 216.5 84.2346Z" fill="#412980" stroke="#412980" stroke-width="0.5" stroke-miterlimit="10"/>
<path d="M219.901 245.735C219.801 245.735 219.901 245.135 220.101 244.035C220.301 242.935 220.601 241.335 220.901 239.235C221.301 237.135 221.701 234.635 222.201 231.735C222.401 230.235 222.701 228.735 223.001 227.035C223.201 225.335 223.501 223.635 223.801 221.735C223.901 220.835 224.101 219.835 224.201 218.935C224.301 217.935 224.401 216.935 224.601 215.935C224.901 213.935 225.101 211.835 225.401 209.635C225.801 205.235 226.401 200.635 226.701 195.635C227.501 185.735 228.001 174.935 228.001 163.535C228.001 140.735 225.901 120.135 223.701 105.335C223.201 101.635 222.701 98.2347 222.101 95.4347C221.501 92.5347 220.801 90.1347 220.001 88.2347C218.401 84.3347 216.801 82.6347 217.001 82.5347C217.001 82.5347 217.501 82.9347 218.101 83.8347C218.801 84.7347 219.701 86.1347 220.601 88.0347C221.501 89.9347 222.301 92.4347 223.001 95.3347C223.701 98.2347 224.301 101.635 224.901 105.335C227.401 120.135 229.701 140.835 229.701 163.735C229.701 175.235 229.101 186.135 228.301 196.035C227.901 200.935 227.301 205.635 226.801 210.035C226.501 212.235 226.201 214.335 225.901 216.335C225.801 217.335 225.601 218.335 225.501 219.335C225.301 220.335 225.201 221.235 225.001 222.135C224.701 223.935 224.401 225.735 224.101 227.435C223.801 229.135 223.501 230.635 223.201 232.135C222.601 235.035 222.101 237.535 221.601 239.635C221.101 241.635 220.701 243.235 220.501 244.335C220.101 245.235 219.901 245.735 219.901 245.735Z" fill="#412980" stroke="#412980" stroke-width="0.5" stroke-miterlimit="10"/>
<path d="M219.2 250.635C219.2 250.735 217.9 251.135 215.4 251.535C212.9 251.935 209.3 252.135 204.9 252.035C196 251.735 183.7 250.535 170.4 247.835C157.1 245.135 145.3 241.435 137 238.335C132.8 236.735 129.5 235.435 127.3 234.335C125 233.335 123.8 232.635 123.9 232.535C123.9 232.435 125.3 232.835 127.6 233.735C129.9 234.535 133.3 235.735 137.5 237.235C145.9 240.035 157.6 243.535 170.8 246.235C184 248.935 196.2 250.235 205 250.835C209.4 251.135 213 251.035 215.4 250.835C217.8 250.735 219.2 250.535 219.2 250.635Z" fill="#412980" stroke="#412980" stroke-width="0.5" stroke-miterlimit="10"/>
<path d="M191.599 87.4346C186.499 89.7346 183.799 94.2346 183.799 94.2346C181.699 97.7346 181.599 101.135 181.599 102.735C181.299 110.735 178.999 118.535 178.699 126.535C178.399 134.635 175.899 148.335 165.799 172.935C163.899 173.935 161.399 175.135 158.299 176.235C154.999 177.435 148.099 179.935 139.299 180.135C129.099 180.435 120.899 177.535 115.899 175.335C113.799 172.335 110.299 168.035 104.699 164.935C103.699 164.335 97.5992 161.035 96.2992 162.535C95.6992 163.135 95.3992 165.235 101.799 173.635C95.2992 179.035 89.3991 181.735 85.0991 183.235C78.7991 185.335 70.4992 186.735 63.4992 187.835C55.7992 189.035 52.1992 189.335 51.9992 190.535C51.8992 191.535 54.1992 193.035 64.6992 195.835C65.7992 197.435 67.3992 199.735 68.8992 202.635C71.3992 207.335 71.6991 209.535 74.0991 211.135C75.9991 212.435 78.0992 212.435 80.6992 212.335C85.6992 212.235 89.4992 210.735 91.6992 209.735C101.099 205.535 109.499 198.335 112.599 195.535C112.699 198.635 112.699 201.735 112.799 204.835C120.799 209.735 127.799 212.835 132.899 214.835C142.899 218.635 150.199 221.435 159.999 220.735C168.999 220.135 175.399 216.935 177.299 215.935C180.699 214.135 186.399 210.635 198.399 193.235C206.699 181.135 212.599 172.635 217.699 159.135C220.199 152.635 223.499 143.735 224.499 131.535C225.699 118.235 226.799 105.335 218.399 95.8347C211.799 88.5346 199.899 83.7346 191.599 87.4346Z" fill="white"/>
<path d="M164.699 175.135C164.499 175.035 166.299 171.035 168.699 164.335C168.999 163.535 169.299 162.635 169.599 161.735C169.899 160.835 170.199 159.835 170.499 158.835C171.199 156.835 171.699 154.735 172.399 152.435C173.599 147.935 174.799 142.835 175.899 137.535C177.999 126.835 179.199 117.135 180.199 110.035C181.099 102.935 181.699 98.6346 181.999 98.6346C182.099 98.6346 182.099 99.7346 181.999 101.735C181.899 103.735 181.699 106.635 181.399 110.135C180.699 117.235 179.699 127.035 177.599 137.835C176.499 143.235 175.299 148.235 173.999 152.835C173.299 155.135 172.699 157.235 171.899 159.235C171.499 160.235 171.199 161.235 170.899 162.135C170.499 163.035 170.199 163.935 169.899 164.735C169.299 166.435 168.599 167.835 167.999 169.135C167.399 170.435 166.899 171.535 166.399 172.435C165.399 174.235 164.799 175.135 164.699 175.135Z" fill="#412980" stroke="#412980" stroke-width="0.5" stroke-miterlimit="10"/>
<path d="M166.6 171.535C166.7 171.635 164.5 173.735 160.2 175.935C159.7 176.235 159.1 176.535 158.5 176.735C157.9 177.035 157.3 177.235 156.6 177.535C155.3 178.135 153.8 178.535 152.3 179.035C149.2 179.935 145.8 180.535 142.1 180.835C138.4 181.035 134.9 180.835 131.7 180.335C130.1 180.035 128.6 179.735 127.3 179.335C126.6 179.135 126 179.035 125.3 178.735C124.7 178.535 124.1 178.335 123.5 178.135C119 176.435 116.6 174.635 116.6 174.535C116.7 174.235 119.3 175.635 123.8 177.035C124.4 177.235 125 177.335 125.6 177.535C126.2 177.735 126.9 177.835 127.5 178.035C128.8 178.335 130.3 178.535 131.8 178.835C134.9 179.235 138.3 179.435 141.8 179.235C145.4 179.035 148.7 178.435 151.7 177.635C153.2 177.235 154.6 176.835 155.9 176.335C156.5 176.135 157.2 175.935 157.8 175.635C158.4 175.335 159 175.135 159.5 174.935C164 173.035 166.4 171.335 166.6 171.535Z" fill="#412980" stroke="#412980" stroke-width="0.5" stroke-miterlimit="10"/>
<path d="M113.3 204.435C113.1 204.535 112.3 202.935 112 200.235C111.7 197.535 111.7 193.735 112.2 189.635C112.7 185.535 113.7 181.835 114.6 179.335C115.5 176.735 116.3 175.335 116.5 175.335C117 175.535 114.8 181.735 113.8 189.835C113.3 193.835 113.2 197.535 113.2 200.135C113.2 202.735 113.5 204.335 113.3 204.435Z" fill="#412980" stroke="#412980" stroke-width="0.5" stroke-miterlimit="10"/>
<path d="M224.6 132.735C224.7 132.735 224.6 133.335 224.4 134.435C224.2 135.535 223.9 137.135 223.3 139.135C222.3 143.235 220.7 149.135 218.1 156.135C215.5 163.235 211.9 171.435 207.2 180.235C204.8 184.635 202.1 189.135 199.1 193.635C196.1 198.135 192.9 202.735 189 207.035C185.1 211.335 180.8 215.135 175.9 217.735C173.5 219.035 170.9 219.935 168.3 220.635C165.7 221.235 163.1 221.535 160.6 221.535C155.5 221.535 150.8 220.735 146.5 219.735C142.2 218.635 138.2 217.435 134.7 216.135C127.6 213.535 122.2 210.635 118.5 208.535C116.7 207.435 115.3 206.635 114.4 205.935C113.5 205.335 113 204.935 113 204.935C113 204.935 113.6 205.135 114.5 205.635C115.5 206.135 116.9 206.935 118.8 207.935C122.5 209.835 128 212.535 135.1 214.935C138.6 216.135 142.6 217.335 146.8 218.335C151.1 219.335 155.7 220.035 160.6 220.035C163 219.935 165.5 219.735 168 219.135C170.5 218.535 172.9 217.635 175.2 216.335C179.9 213.835 184.1 210.235 187.9 205.935C191.7 201.735 194.9 197.135 197.9 192.735C200.9 188.235 203.6 183.835 206 179.535C210.8 170.935 214.5 162.735 217.2 155.735C219.9 148.735 221.7 142.935 222.9 138.935C223.9 134.935 224.5 132.635 224.6 132.735Z" fill="#412980" stroke="#412980" stroke-width="0.5" stroke-miterlimit="10"/>
<path d="M102.9 174.235C102.7 174.335 101.2 172.735 99.1996 169.835C98.1996 168.335 97.0996 166.535 95.9996 164.535C95.8996 164.235 95.6996 164.035 95.5996 163.735C95.4996 163.435 95.2996 162.935 95.4996 162.435C95.5996 161.935 95.9996 161.435 96.3996 161.235C96.7996 161.035 97.1996 160.935 97.5996 160.835C98.3996 160.735 99.0996 160.935 99.7996 161.035C100.5 161.235 101.2 161.535 101.8 161.835C104.3 163.235 106.1 165.235 107.7 166.835C109.3 168.535 110.7 169.935 112 171.135C114.5 173.535 116.1 175.035 115.9 175.235C115.8 175.435 113.9 174.235 111.2 171.935C109.8 170.835 108.3 169.435 106.6 167.735C104.9 166.135 103.2 164.235 101 163.135C100.5 162.835 99.8996 162.635 99.2996 162.435C98.6996 162.335 98.0996 162.135 97.6996 162.235C97.4996 162.235 97.2996 162.335 97.0996 162.435C96.9996 162.535 96.8996 162.535 96.8996 162.635C96.7996 162.735 96.9996 163.235 97.2996 163.735C98.2996 165.835 99.2996 167.635 100.1 169.135C101.9 172.235 103.1 174.135 102.9 174.235Z" fill="#412980" stroke="#412980" stroke-width="0.5" stroke-miterlimit="10"/>
<path d="M80.1996 196.435C80.1996 196.535 78.9996 196.635 76.8996 196.735C74.7996 196.735 71.6996 196.735 67.8996 196.435C65.9996 196.335 63.8996 196.035 61.6996 195.735C60.5996 195.635 59.4996 195.435 58.2996 195.235C57.6996 195.135 57.0996 195.035 56.4996 194.935C55.8996 194.835 55.1996 194.735 54.5996 194.535C53.9996 194.335 53.2996 194.035 52.6996 193.635C52.0996 193.235 51.4996 192.635 51.1996 191.635C51.0996 191.335 51.0996 191.035 51.0996 190.835C51.1996 190.535 50.9996 190.235 51.2996 190.135C51.4996 189.935 51.7996 189.835 51.9996 189.735C52.1996 189.635 52.2996 189.535 52.4996 189.535C53.0996 189.235 53.7996 189.035 54.4996 188.735C57.1996 187.835 60.0996 187.535 62.8996 187.235C65.7996 187.035 68.4996 186.835 71.1996 186.335C73.7996 185.935 76.3996 185.335 78.7996 184.635C83.5996 183.335 87.6996 181.535 90.9996 179.935C94.3996 178.235 96.8996 176.635 98.6996 175.535C100.5 174.435 101.4 173.735 101.5 173.835C101.6 173.935 100.7 174.735 99.0996 176.035C97.3996 177.335 94.8996 179.135 91.5996 180.935C88.2996 182.735 84.0996 184.635 79.2996 186.035C76.8996 186.735 74.2996 187.335 71.5996 187.835C68.8996 188.335 65.9996 188.535 63.1996 188.735C60.2996 188.935 57.5996 189.335 55.0996 190.135C54.4996 190.335 53.8996 190.535 53.2996 190.835C53.1996 190.935 52.9996 191.035 52.8996 191.035L52.7996 191.135C52.6996 191.135 52.7996 191.335 52.7996 191.335C52.8996 191.635 53.1996 192.035 53.5996 192.335C53.9996 192.635 54.5996 192.935 55.0996 193.035C55.6996 193.235 56.1996 193.335 56.7996 193.435C57.3996 193.535 57.9996 193.635 58.5996 193.735C59.7996 193.935 60.8996 194.135 61.9996 194.335C64.1996 194.735 66.1996 194.935 68.0996 195.135C75.4996 196.035 80.1996 196.135 80.1996 196.435Z" fill="#412980" stroke="#412980" stroke-width="0.5" stroke-miterlimit="10"/>
<path d="M81.2 203.435C81.2 203.635 80.1 203.835 78.4 203.735C76.7 203.635 74.3 203.135 71.9 202.035C69.5 200.935 67.5 199.435 66.3 198.235C65.1 197.035 64.5 196.035 64.7 195.935C65.1 195.635 68 198.535 72.5 200.635C77.1 202.635 81.2 202.935 81.2 203.435Z" fill="#412980" stroke="#412980" stroke-width="0.5" stroke-miterlimit="10"/>
<path d="M80.5996 208.535C80.5996 208.735 79.4996 208.735 77.7996 208.435C76.0996 208.135 73.7996 207.435 71.5996 206.035C69.2996 204.635 67.7996 202.635 66.9996 201.035C66.2996 199.435 66.1996 198.335 66.3996 198.235C66.5996 198.135 66.9996 199.135 67.9996 200.435C68.8996 201.735 70.3996 203.335 72.3996 204.635C74.3996 205.935 76.4996 206.735 77.9996 207.335C79.6996 207.935 80.6996 208.335 80.5996 208.535Z" fill="#412980" stroke="#412980" stroke-width="0.5" stroke-miterlimit="10"/>
<path d="M82.2004 212.035C82.2004 212.235 81.4004 212.535 80.1004 212.635C78.8004 212.635 76.9004 212.335 75.1004 211.335C73.3004 210.335 72.0004 208.935 71.3004 207.735C70.6004 206.535 70.5004 205.735 70.7004 205.635C71.1004 205.435 72.7004 208.135 75.9004 209.835C79.0004 211.735 82.1004 211.635 82.2004 212.035Z" fill="#412980" stroke="#412980" stroke-width="0.5" stroke-miterlimit="10"/>
<path d="M111.299 195.835C111.599 196.135 105.899 202.135 97.1989 207.435C94.9989 208.735 92.8989 209.935 90.8989 210.835C88.8989 211.835 86.9989 212.435 85.2989 212.735C83.5989 213.035 82.1989 212.935 81.2989 212.635C80.3989 212.435 79.8989 212.035 79.9989 212.035C80.0989 211.735 82.0989 212.435 85.0989 211.635C88.1989 210.935 92.0989 208.635 96.3989 206.035C104.899 200.935 110.899 195.535 111.299 195.835Z" fill="#412980" stroke="#412980" stroke-width="0.5" stroke-miterlimit="10"/>
<path d="M107.7 34.4347C106.9 38.4347 108 43.6347 108.7 47.1347C109.6 51.3347 110.8 54.7347 111.7 57.0347C112.5 64.6347 113.2 72.2347 114 79.9347C114.5 80.5347 115.5 81.3347 117.1 81.9347C119.3 82.7347 121.3 82.4347 122 82.2347C123.8 85.1347 125.7 87.4347 127.1 89.1347C130.8 93.3347 133.3 96.1347 137.5 97.3347C138.6 97.6347 141.5 98.3347 144.7 97.4347C149.2 96.1347 149 93.0347 153.2 91.5347C157.1 90.0347 160.9 91.2347 164.8 92.3347C168.3 93.3347 170.9 94.8347 172.7 95.9347C174.1 92.9347 175.9 89.6347 178.2 86.1347C182 80.3347 186 75.7347 189.6 72.2347C187.9 71.9347 185.5 71.3347 183.2 69.6347C177 65.1347 178.1 57.8347 174.8 47.0347C173.1 41.5347 169.7 30.0347 160.1 22.9347C152.9 17.5347 145.2 16.8347 142.6 16.6347C127.4 15.3347 109.8 23.5347 107.7 34.4347Z" fill="white"/>
<path d="M101.999 45.0347C104.199 42.3347 107.099 39.2347 110.899 36.2347C118.099 30.6347 125.299 27.8347 130.099 26.5347C131.099 30.1347 132.299 33.0347 133.199 35.0347C135.599 40.2347 137.299 43.9347 141.099 46.1347C142.399 46.8347 145.399 48.6347 147.799 47.5347C150.099 46.5347 149.599 44.0347 152.599 41.6347C153.299 41.0347 155.899 38.9347 158.899 39.4347C162.899 40.0347 164.699 44.8347 164.999 45.7347C166.199 49.1347 165.899 53.9347 163.299 55.8347C161.599 57.0347 160.099 56.2347 159.499 57.2347C158.299 59.1347 161.999 64.6347 166.899 67.4347C168.499 68.3347 174.399 71.7347 180.499 68.9347C186.199 66.3347 187.699 60.3347 187.799 59.6347C188.299 57.4347 188.199 55.5347 186.599 49.3347C184.099 39.6347 183.199 39.9347 182.399 35.6347C180.699 26.8347 184.299 24.8347 182.299 15.4347C181.399 11.2347 180.699 7.83466 177.799 5.43466C174.599 2.83466 170.499 3.03466 162.399 3.63466C141.399 5.23466 142.599 5.33467 140.999 5.23467C134.299 5.03467 134.499 4.13466 116.699 2.13466C109.399 1.33466 107.499 1.33467 104.999 1.73467C97.3994 3.13467 91.9994 8.03466 88.7994 11.6347C88.1994 9.13466 87.5994 8.53466 86.9994 8.43466C84.8994 8.13466 81.9994 15.1347 80.6994 19.4347C79.3994 23.7347 78.3994 27.1347 79.0994 31.7347C79.4994 34.1347 80.6994 41.7347 87.3994 45.1347C94.2994 48.7347 101.099 45.5347 101.999 45.0347Z" fill="#412980"/>
<path d="M122.299 82.0347C122.299 82.2347 120.499 82.4347 117.399 82.4347C116.599 82.4347 115.599 82.3347 114.699 81.7347C113.799 81.1347 113.199 80.0347 112.999 78.9347C112.699 77.8347 112.699 76.7347 112.599 75.7347C112.499 74.6347 112.499 73.5347 112.399 72.4347C111.899 63.2347 111.799 55.8347 112.299 55.8347C112.799 55.8347 113.499 63.2347 113.999 72.3347C114.099 73.4347 114.099 74.6347 114.199 75.6347C114.299 76.7347 114.299 77.7347 114.499 78.6347C114.699 79.5347 114.999 80.2347 115.599 80.6347C116.099 81.0347 116.899 81.2347 117.599 81.2347C120.499 81.6347 122.399 81.8347 122.299 82.0347Z" fill="#412980" stroke="#412980" stroke-width="0.5" stroke-miterlimit="10"/>
<path d="M170.8 95.2346C170.8 95.3346 169.9 95.2346 168.5 94.6346C167.1 94.1346 165.2 93.0346 162.8 91.9346C161.6 91.4346 160.3 90.9346 158.9 90.7346C157.5 90.5346 155.9 90.8346 154.5 91.6346C153 92.4346 151.7 93.5346 150.2 94.8346C148.7 96.0346 147.1 97.4346 145.1 98.2346C143 99.0346 140.8 99.1346 138.8 98.5346C136.8 98.0346 135.1 97.1346 133.6 96.1346C130.6 94.0346 128.5 91.6346 126.8 89.5346C123.4 85.3346 121.9 82.3346 122.1 82.2346C122.3 82.1346 124.1 84.8346 127.7 88.7346C129.5 90.6346 131.7 92.9346 134.5 94.8346C135.9 95.7346 137.5 96.5346 139.2 96.9346C140.9 97.3346 142.8 97.3346 144.5 96.6346C148 95.2346 150.5 91.9346 153.8 90.2346C155.5 89.4346 157.4 89.0346 159 89.3346C160.7 89.5346 162.1 90.2346 163.3 90.8346C165.7 92.1346 167.4 93.3346 168.7 94.0346C170.1 94.7346 170.8 95.0346 170.8 95.2346Z" fill="#412980" stroke="#412980" stroke-width="0.5" stroke-miterlimit="10"/>
<path d="M135.299 81.8346C135.699 81.9346 135.399 83.8346 133.999 85.6346C132.599 87.4346 130.899 88.1346 130.599 87.7346C130.299 87.3346 131.499 86.1346 132.699 84.6346C133.899 83.1346 134.899 81.7346 135.299 81.8346Z" fill="#412980" stroke="#412980" stroke-width="0.5" stroke-miterlimit="10"/>
<path d="M127.298 63.0346C127.098 63.4346 125.498 62.7346 123.898 61.3346C122.398 59.9346 121.598 58.4346 121.898 58.1346C122.298 57.8346 123.498 58.8346 124.998 60.1346C126.498 61.5346 127.598 62.6346 127.298 63.0346Z" fill="#412980" stroke="#412980" stroke-width="0.5" stroke-miterlimit="10"/>
<path d="M122.6 47.7347C122.4 47.9347 121.9 47.7347 121.2 47.5347C120.4 47.3347 119.4 47.2347 118.3 47.6347C117.3 47.9347 116.4 48.6347 115.9 49.2347C115.4 49.8347 115.1 50.3347 114.9 50.2347C114.7 50.2347 114.6 49.5347 115 48.6347C115.4 47.7347 116.3 46.5347 117.9 46.0347C119.4 45.5347 120.9 45.9347 121.7 46.4347C122.4 47.0347 122.7 47.6347 122.6 47.7347Z" fill="#412980" stroke="#412980" stroke-width="0.5" stroke-miterlimit="10"/>
<path d="M87.1992 8.63472C87.3992 8.83472 85.5992 11.3347 83.3992 15.7347C82.2992 17.9347 81.0992 20.6347 80.4992 23.7347C80.1992 25.3347 79.8992 26.9347 79.8992 28.7347C79.8992 30.4347 80.1992 32.2347 80.5992 34.0347C81.5992 37.5347 83.5992 40.5347 86.0992 42.3347C88.5992 44.1347 91.4992 44.8347 93.8992 45.0347C96.2992 45.2347 98.2992 45.1347 99.6992 45.1347C101.099 45.0347 101.899 45.0347 101.899 45.1347C101.899 45.2347 101.199 45.4347 99.7992 45.7347C98.3992 45.9347 96.3992 46.2347 93.7992 46.1347C91.2992 46.0347 88.0992 45.4347 85.1992 43.4347C83.7992 42.4347 82.3992 41.1347 81.3992 39.6347C80.2992 38.0347 79.4992 36.2347 78.9992 34.3347C78.4992 32.4347 78.1992 30.5347 78.1992 28.6347C78.1992 26.7347 78.4992 24.9347 78.8992 23.3347C79.6992 20.0347 80.9992 17.2347 82.2992 15.1347C84.8992 10.8347 87.0992 8.53472 87.1992 8.63472Z" fill="#412980" stroke="#412980" stroke-width="0.5" stroke-miterlimit="10"/>
<path d="M89.3998 12.5347C89.3998 12.7347 88.9998 12.9347 88.3998 12.8347C87.7998 12.7347 86.9998 12.1347 86.5998 11.2347C86.1998 10.3347 86.2998 9.33472 86.5998 8.83472C86.8998 8.23472 87.2998 8.13471 87.4998 8.23471C87.6998 8.33471 87.6998 8.7347 87.6998 9.1347C87.6998 9.5347 87.7998 10.0347 87.9998 10.5347C88.1998 11.0347 88.4998 11.4347 88.7998 11.7347C89.1998 12.0347 89.4998 12.2347 89.3998 12.5347Z" fill="#412980" stroke="#412980" stroke-width="0.5" stroke-miterlimit="10"/>
<path d="M185.499 64.9347C185.499 64.8347 185.799 64.5347 186.399 63.6347C186.899 62.8347 187.599 61.4347 187.899 59.5347C188.199 57.6347 188.099 55.2347 187.299 52.6347C186.599 50.0347 185.199 47.1347 183.999 43.8347C182.799 40.5347 181.899 36.6347 181.499 32.5347C181.299 30.4347 181.299 28.2347 181.399 26.0347C181.499 23.8347 181.699 21.5347 181.799 19.2347C181.899 16.9347 181.799 14.6347 181.199 12.3347C180.599 10.1347 179.499 7.93468 177.799 6.43468C175.999 4.93468 173.699 4.13468 171.199 3.93468C168.699 3.73468 166.099 4.03468 163.499 4.43468C152.899 6.33468 142.499 6.63468 133.199 5.63468C123.799 4.83468 115.799 1.93467 108.899 2.13467C105.499 2.13467 102.399 3.03468 99.8992 4.13468C97.3992 5.33468 95.3992 6.63469 93.8992 7.83469C90.7992 10.2347 89.2992 11.8347 89.1992 11.7347C89.1992 11.7347 89.4992 11.2347 90.1992 10.5347C90.8992 9.73468 91.9992 8.63468 93.4992 7.43468C94.9992 6.13468 96.9992 4.63468 99.4992 3.43468C101.999 2.13468 105.199 1.23468 108.799 1.03468C112.399 0.834684 116.299 1.53468 120.299 2.23468C124.399 3.03468 128.699 3.73468 133.299 4.13468C142.499 5.03468 152.699 4.63469 163.199 2.83469C165.899 2.43469 168.599 2.13468 171.299 2.23468C173.999 2.43468 176.799 3.33468 178.799 5.13468C180.899 6.93467 182.099 9.43468 182.699 11.9347C183.299 14.4347 183.399 16.9347 183.299 19.2347C183.199 21.6347 182.899 23.8347 182.799 26.0347C182.699 28.2347 182.699 30.3347 182.899 32.3347C183.199 36.4347 184.099 40.1347 185.199 43.4347C186.299 46.7347 187.699 49.6347 188.299 52.4347C188.999 55.1347 189.099 57.7347 188.599 59.7347C188.199 61.7347 187.399 63.1347 186.699 63.9347C185.999 64.6347 185.499 64.9347 185.499 64.9347Z" fill="#412980" stroke="#412980" stroke-width="0.5" stroke-miterlimit="10"/>
<path d="M159.6 57.3346C159.6 57.2346 160.1 57.2346 160.9 56.9346C161.7 56.6346 162.8 56.0346 163.7 54.7346C164.6 53.5346 165.1 51.7346 165 49.7346C164.9 48.7346 164.8 47.6346 164.5 46.5346C164.2 45.4346 163.8 44.3346 163.3 43.3346C162.3 41.3346 160.2 40.3346 158.2 40.2346C156.3 40.1346 154.5 40.9346 153.3 41.9346C152.1 42.9346 151.4 43.9346 151.2 44.7346C151 45.5346 151.2 46.0346 151 46.0346C150.9 46.1346 150.5 45.6346 150.5 44.6346C150.6 43.6346 151.3 42.2346 152.5 41.0346C153.8 39.8346 155.7 38.7346 158.2 38.7346C159.4 38.7346 160.7 39.0346 161.8 39.6346C163 40.2346 164 41.3346 164.6 42.5346C165.3 43.7346 165.6 44.9346 165.9 46.1346C166.2 47.3346 166.4 48.5346 166.4 49.6346C166.5 51.9346 165.7 54.1346 164.5 55.4346C163.3 56.8346 161.9 57.4346 161 57.5346C160.1 57.6346 159.6 57.3346 159.6 57.3346Z" fill="#412980" stroke="#412980" stroke-width="0.5" stroke-miterlimit="10"/>
<path d="M130.599 25.0347C130.599 25.2347 128.799 25.7347 125.799 26.8347C124.299 27.3347 122.599 28.0347 120.799 28.9347C118.999 29.8347 116.999 30.9347 114.999 32.2347C112.999 33.5347 111.199 34.9347 109.699 36.2347C108.199 37.5347 106.799 38.8347 105.799 40.0347C103.699 42.3347 102.499 43.8347 102.199 43.6347C101.999 43.5347 102.899 41.7347 104.899 39.2347C105.899 37.9347 107.199 36.5347 108.699 35.1347C110.299 33.7347 112.099 32.2347 114.099 30.9347C116.199 29.6347 118.199 28.5347 120.199 27.6347C122.199 26.8347 123.999 26.2347 125.499 25.8347C128.599 24.9347 130.599 24.8347 130.599 25.0347Z" fill="#412980" stroke="#412980" stroke-width="0.5" stroke-miterlimit="10"/>
<path d="M150.6 45.3347C150.7 45.3347 150.6 45.9347 150 46.6347C149.4 47.3347 148.3 48.1347 146.7 48.4347C145.1 48.7347 143 48.3347 141.2 47.1347C139.4 45.9347 137.9 44.0347 136.7 42.0347C135.6 39.9347 134.7 37.9347 133.9 36.1347C133.1 34.3347 132.4 32.6347 131.8 31.2347C130.6 28.4347 130 26.6347 130.2 26.5347C130.4 26.4347 131.4 28.0347 132.8 30.7347C133.5 32.0347 134.3 33.6347 135.2 35.4347C136.1 37.2347 137 39.2347 138.1 41.2347C139.2 43.2347 140.5 44.8347 142 45.9347C143.5 47.0347 145.2 47.4347 146.5 47.3347C147.9 47.2347 148.9 46.6347 149.6 46.2347C150.2 45.6347 150.5 45.2347 150.6 45.3347Z" fill="#412980" stroke="#412980" stroke-width="0.5" stroke-miterlimit="10"/>
<path d="M186.2 62.0346C186.3 62.1346 186.1 62.5346 185.7 63.2346C185.3 63.9346 184.7 65.0346 183.8 66.2346C182.9 67.4346 181.4 68.7346 179.5 69.6346C177.6 70.5346 175.3 70.9346 172.9 70.7346C170.5 70.4346 168.3 69.4346 166.7 68.1346C165.1 66.8346 164 65.3346 163.3 63.9346C161.9 61.1346 162.1 59.1346 162.2 59.1346C162.5 59.0346 162.7 60.9346 164.3 63.3346C165.1 64.5346 166.2 65.8346 167.6 66.9346C169.1 68.0346 171 68.8346 173.1 69.0346C175.2 69.2346 177.3 68.9346 178.9 68.2346C180.6 67.5346 181.9 66.5346 182.9 65.4346C183.9 64.4346 184.6 63.4346 185.2 62.8346C185.8 62.3346 186.1 62.0346 186.2 62.0346Z" fill="#412980" stroke="#412980" stroke-width="0.5" stroke-miterlimit="10"/>
<path d="M187.999 59.7347C188.099 59.7347 188.099 60.3347 187.699 61.1347C187.399 62.0347 186.799 63.2347 185.699 64.5347C184.599 65.8347 183.099 67.2347 181.099 68.2347C179.099 69.2347 176.599 69.9347 173.999 69.7347C171.399 69.5347 168.999 68.6347 167.099 67.4347C165.199 66.2347 163.799 64.7347 162.899 63.3347C161.999 61.9347 161.499 60.6347 161.399 59.6347C161.299 58.6347 161.699 58.1347 161.799 58.2347C161.899 58.2347 161.799 58.7347 162.099 59.5347C162.299 60.3347 162.899 61.4347 163.899 62.6347C164.799 63.8347 166.199 65.1347 167.899 66.1347C169.599 67.1347 171.799 67.9347 174.099 68.0347C176.399 68.2347 178.599 67.6347 180.399 66.8347C182.199 65.9347 183.699 64.8347 184.799 63.7347C187.099 61.5347 187.699 59.6347 187.999 59.7347Z" fill="#412980" stroke="#412980" stroke-width="0.5" stroke-miterlimit="10"/>
<path d="M189.6 72.3347C189.6 72.5347 189.1 72.8347 188.1 72.9347C187.1 73.0347 185.6 72.8347 184.2 72.1347C182.8 71.4347 181.8 70.3347 181.3 69.4347C180.8 68.5347 180.8 67.8347 181 67.8347C181.4 67.6347 182.6 69.5347 185 70.7347C187.2 71.9347 189.5 71.8347 189.6 72.3347Z" fill="#412980" stroke="#412980" stroke-width="0.5" stroke-miterlimit="10"/>
</svg>
