<svg width="600" height="600" viewBox="0 0 600 600" fill="none" xmlns="http://www.w3.org/2000/svg">
<path d="M552.498 382.3C552.498 382.3 552.498 382 552.698 381.5C552.898 381 553.098 380.2 553.398 379.2C554.098 377.2 555.098 374.3 556.398 370.5C558.998 362.9 562.698 352 566.898 338.3C571.098 324.6 575.798 308.3 580.498 289.9C581.698 285.3 582.798 280.6 583.998 275.8C584.598 273.4 585.198 271 585.498 268.5C585.898 266.1 585.998 263.6 585.398 261.2C585.298 260.9 585.298 260.6 585.198 260.3C585.098 260 584.998 259.7 584.898 259.5C584.798 259.2 584.698 258.9 584.498 258.7L584.298 258.3C584.298 258.2 584.298 258.2 584.198 258.2C584.198 258.2 584.098 258 584.098 258.1L583.898 258.3L582.598 259.6C581.698 260.5 580.798 261.5 579.998 262.5C579.198 263.5 578.298 264.5 577.498 265.5C574.198 269.6 571.298 274.1 568.698 278.9C566.198 283.6 564.098 288.5 562.498 293.5C562.098 294.7 561.798 296 561.398 297.2C561.198 297.8 561.098 298.5 560.898 299.1L560.698 300C560.598 300.6 560.398 301.1 560.298 301.7C560.098 302.8 559.798 303.9 559.598 305L559.198 306.7V306.9L558.998 306.3L558.698 305.2C558.298 303.9 557.898 302.7 557.598 301.4C557.298 301.8 557.098 302.3 556.798 302.7C556.298 303.7 555.798 304.7 555.198 305.6C554.198 307.6 553.298 309.5 552.398 311.5C550.698 315.5 549.198 319.5 547.998 323.5C546.798 327.5 545.898 331.5 545.098 335.4C544.398 339.3 543.998 343.2 543.698 347C543.698 347.6 543.598 348.3 543.598 348.9C543.598 349.7 543.498 350.5 543.498 351.3C543.498 352.8 543.398 354.3 543.398 355.8V356.1L543.298 355.8L543.098 355.3L542.698 354.2C542.398 353.5 542.198 352.8 541.898 352.1C541.398 350.7 540.898 349.4 540.298 348.1C539.698 346.4 538.998 344.8 538.398 343.2C538.198 342.6 537.998 342.1 537.698 341.5L537.598 341.3C537.598 341.3 537.498 341.4 537.498 341.5L537.198 341.9L536.498 342.8C536.298 343.1 535.998 343.5 535.798 343.8C535.398 344.5 534.898 345.2 534.498 345.8C533.698 347.2 532.898 348.5 532.198 349.9C531.498 351.3 530.798 352.6 530.198 353.9C529.598 355.2 528.998 356.6 528.498 357.9C524.298 368.4 523.198 377.4 522.798 383.6C522.698 385.1 522.598 386.5 522.698 387.7C522.698 388.9 522.698 389.9 522.698 390.7C522.698 391.5 522.698 392.1 522.698 392.5C522.698 392.9 522.698 393.1 522.698 393.1C522.698 393.1 522.598 392.9 522.598 392.5C522.598 392.1 522.498 391.5 522.398 390.7C522.298 389.9 522.298 388.9 522.298 387.7C522.198 386.5 522.298 385.1 522.298 383.6C522.498 377.4 523.498 368.2 527.598 357.5C528.098 356.2 528.598 354.8 529.298 353.5C529.898 352.1 530.598 350.8 531.298 349.4C531.998 348 532.798 346.6 533.598 345.2C533.998 344.5 534.498 343.8 534.898 343.1C535.098 342.7 535.298 342.4 535.598 342.1C535.898 341.7 536.098 341.4 536.398 341C536.798 340.5 537.198 339.9 537.498 339.4L537.798 339L537.898 338.8L537.998 338.7V338.8L538.398 339.7C538.798 340.7 539.198 341.8 539.598 342.8C540.198 344.4 540.898 346.1 541.498 347.7C541.598 348 541.798 348.4 541.898 348.7L542.098 349.2L542.198 349.4V349.5C542.198 349.2 542.198 348.8 542.198 348.5V348V347.1C542.398 343.3 542.898 339.3 543.598 335.4C544.298 331.4 545.198 327.4 546.398 323.3C547.598 319.2 549.098 315.2 550.798 311.1C551.698 309.1 552.598 307.1 553.598 305.1C554.098 304.1 554.598 303.1 555.198 302.1C556.098 300.6 556.898 299.1 557.798 297.6C558.098 298.7 558.498 299.7 558.798 300.8L558.998 301.6L558.898 301.2C558.898 301.1 558.798 300.9 558.798 300.8V300.6L558.898 300.1C559.198 299.1 559.398 298 559.698 297C560.098 295.7 560.398 294.5 560.798 293.2C562.398 288.1 564.498 283.2 567.098 278.4C569.698 273.6 572.698 269 576.098 264.8C576.898 263.7 577.798 262.7 578.698 261.7C579.598 260.7 580.498 259.7 581.398 258.8L582.898 257.3C583.298 256.9 583.698 256.5 584.098 256.1L584.198 256C584.198 256 584.298 256.1 584.298 256.2L584.498 256.5L584.998 257.2C585.198 257.4 585.298 257.7 585.498 257.9L585.798 258.4C585.998 258.7 586.098 259 586.198 259.3C586.298 259.6 586.398 259.9 586.598 260.3C586.698 260.6 586.798 261 586.898 261.3C587.498 264 587.398 266.7 586.998 269.2C586.598 271.8 585.998 274.2 585.398 276.6C584.198 281.4 583.098 286.1 581.898 290.7C577.198 309 572.298 325.4 567.998 339C563.698 352.6 559.798 363.6 556.998 371.1C555.598 374.9 554.498 377.8 553.698 379.7C553.298 380.7 552.998 381.4 552.798 381.9C552.598 382.1 552.498 382.3 552.498 382.3Z" fill="#005797"/>
<path d="M559.198 306.9V306.7L559.598 305C559.798 303.9 560.098 302.8 560.298 301.7C560.398 301.1 560.598 300.6 560.698 300L560.898 299.1C561.098 298.5 561.198 297.8 561.398 297.2C561.798 296 562.098 294.7 562.498 293.5C564.098 288.5 566.198 283.6 568.698 278.9C571.298 274.1 574.198 269.6 577.498 265.5C578.298 264.5 579.198 263.5 579.998 262.5C580.798 261.5 581.698 260.5 582.598 259.6L583.898 258.3L584.098 258.1C584.098 258 584.198 258.2 584.198 258.2C584.298 258.2 584.298 258.2 584.298 258.3L584.498 258.7C584.698 258.9 584.798 259.2 584.898 259.5C584.998 259.7 585.098 260 585.198 260.3C585.298 260.6 585.298 260.9 585.398 261.2C585.998 263.6 585.898 266.1 585.498 268.5C585.198 271 584.598 273.4 583.998 275.8C582.798 280.6 581.698 285.3 580.498 289.9C575.798 308.3 571.098 324.6 566.898 338.3C562.698 352 558.998 362.9 556.398 370.5C555.098 374.3 554.098 377.2 553.398 379.2C553.098 380.2 552.898 381 552.698 381.5C552.498 382 552.498 382.3 552.498 382.3C552.498 382.3 552.598 382.1 552.798 381.9C552.998 381.4 553.298 380.7 553.698 379.7C554.498 377.8 555.598 374.9 556.998 371.1C559.798 363.6 563.698 352.6 567.998 339C572.298 325.4 577.198 309 581.898 290.7C583.098 286.1 584.198 281.4 585.398 276.6C585.998 274.2 586.598 271.8 586.998 269.2C587.398 266.7 587.498 264 586.898 261.3C586.798 261 586.698 260.6 586.598 260.3C586.398 259.9 586.298 259.6 586.198 259.3C586.098 259 585.998 258.7 585.798 258.4L585.498 257.9C585.298 257.7 585.198 257.4 584.998 257.2L584.498 256.5L584.298 256.2C584.298 256.1 584.198 256 584.198 256L584.098 256.1C583.698 256.5 583.298 256.9 582.898 257.3L581.398 258.8C580.498 259.7 579.598 260.7 578.698 261.7C577.798 262.7 576.898 263.7 576.098 264.8C572.698 269 569.698 273.6 567.098 278.4C564.498 283.2 562.398 288.1 560.798 293.2C560.398 294.5 560.098 295.7 559.698 297C559.398 298 559.198 299.1 558.898 300.1L558.798 300.6V300.8M559.198 306.9V307M559.198 306.9L558.998 306.3L558.698 305.2C558.298 303.9 557.898 302.7 557.598 301.4C557.298 301.8 557.098 302.3 556.798 302.7C556.298 303.7 555.798 304.7 555.198 305.6C554.198 307.6 553.298 309.5 552.398 311.5C550.698 315.5 549.198 319.5 547.998 323.5C546.798 327.5 545.898 331.5 545.098 335.4C544.398 339.3 543.998 343.2 543.698 347C543.698 347.6 543.598 348.3 543.598 348.9C543.598 349.7 543.498 350.5 543.498 351.3C543.498 352.8 543.398 354.3 543.398 355.8V356.1L543.298 355.8L543.098 355.3L542.698 354.2C542.398 353.5 542.198 352.8 541.898 352.1C541.398 350.7 540.898 349.4 540.298 348.1C539.698 346.4 538.998 344.8 538.398 343.2C538.198 342.6 537.998 342.1 537.698 341.5L537.598 341.3C537.598 341.3 537.498 341.4 537.498 341.5L537.198 341.9L536.498 342.8C536.298 343.1 535.998 343.5 535.798 343.8C535.398 344.5 534.898 345.2 534.498 345.8C533.698 347.2 532.898 348.5 532.198 349.9C531.498 351.3 530.798 352.6 530.198 353.9C529.598 355.2 528.998 356.6 528.498 357.9C524.298 368.4 523.198 377.4 522.798 383.6C522.698 385.1 522.598 386.5 522.698 387.7C522.698 388.9 522.698 389.9 522.698 390.7C522.698 391.5 522.698 392.1 522.698 392.5C522.698 392.9 522.698 393.1 522.698 393.1C522.698 393.1 522.598 392.9 522.598 392.5C522.598 392.1 522.498 391.5 522.398 390.7C522.298 389.9 522.298 388.9 522.298 387.7C522.198 386.5 522.298 385.1 522.298 383.6C522.498 377.4 523.498 368.2 527.598 357.5C528.098 356.2 528.598 354.8 529.298 353.5C529.898 352.1 530.598 350.8 531.298 349.4C531.998 348 532.798 346.6 533.598 345.2C533.998 344.5 534.498 343.8 534.898 343.1C535.098 342.7 535.298 342.4 535.598 342.1C535.898 341.7 536.098 341.4 536.398 341C536.798 340.5 537.198 339.9 537.498 339.4L537.798 339L537.898 338.8L537.998 338.7V338.8L538.398 339.7C538.798 340.7 539.198 341.8 539.598 342.8C540.198 344.4 540.898 346.1 541.498 347.7C541.598 348 541.798 348.4 541.898 348.7L542.098 349.2L542.198 349.4V349.5M542.198 349.5V349.6M542.198 349.5C542.198 349.2 542.198 348.8 542.198 348.5V348V347.1C542.398 343.3 542.898 339.3 543.598 335.4C544.298 331.4 545.198 327.4 546.398 323.3C547.598 319.2 549.098 315.2 550.798 311.1C551.698 309.1 552.598 307.1 553.598 305.1C554.098 304.1 554.598 303.1 555.198 302.1C556.098 300.6 556.898 299.1 557.798 297.6C558.098 298.7 558.498 299.7 558.798 300.8M558.798 300.8L558.998 301.6M558.798 300.8C558.798 300.9 558.898 301.1 558.898 301.2L558.998 301.6M558.998 301.6V301.7" stroke="#005797" stroke-width="0.5" stroke-miterlimit="10"/>
<path d="M558.5 395.1C558.4 395.1 558.8 393.9 559.5 391.8C560.3 389.7 561.4 386.7 562.7 383.1C565.4 375.7 569.1 365.5 572.7 354.1C573.6 351.2 574.5 348.4 575.3 345.7C575.7 344.3 576.2 343 576.4 341.8C576.6 340.6 576.6 339.3 576.1 338.5C575.8 338.1 575.4 337.8 575 337.6C574.6 337.4 574.1 337.4 573.5 337.6C572.5 337.8 571.5 338.5 570.7 339.2C569.9 339.9 569.2 340.7 568.5 341.6C567.8 342.4 567.2 343.2 566.7 344C564.5 347.2 563.1 350 562.2 352C561.3 354 561 355.2 560.8 355.1C560.7 355.1 560.9 353.9 561.6 351.7C562.3 349.6 563.5 346.6 565.7 343.2C566.2 342.4 566.9 341.5 567.5 340.6C568.2 339.7 568.9 338.8 569.8 338C570.7 337.2 571.8 336.4 573.2 336.1C573.9 335.9 574.7 335.9 575.5 336.1C576.3 336.4 576.9 336.9 577.4 337.5C577.9 338.2 578.1 339 578.1 339.7C578.2 340.5 578.1 341.2 578 341.9C577.8 343.4 577.3 344.7 576.9 346C576.1 348.7 575.2 351.5 574.3 354.4C570.7 365.9 566.8 376.1 563.8 383.4C562.3 387 561 390 560.1 392C559.1 394 558.6 395.1 558.5 395.1Z" fill="#005797" stroke="#005797" stroke-width="0.5" stroke-miterlimit="10"/>
<path d="M320.4 363.6C320.2 363.8 318.6 362 315.8 359.7C315.1 359.1 314.3 358.5 313.4 357.9C313 357.6 312.5 357.3 312 357C311.5 356.7 311 356.3 310.5 356.1C310 355.9 309.7 355.9 309.5 356.1C309.3 356.3 309.1 356.7 309 357.3C309 357.9 309 358.4 309.2 359.1C309.3 359.8 309.5 360.4 309.7 361.1C311.1 366.6 313.5 371.1 315.5 374.2C317.5 377.3 319 379.1 318.9 379.2C318.8 379.3 316.9 377.9 314.6 374.8C312.3 371.8 309.6 367.1 308.2 361.4C308 360.7 307.9 360 307.7 359.3C307.5 358.6 307.4 357.8 307.5 357C307.6 356.2 307.8 355.3 308.7 354.7C309.1 354.4 309.6 354.3 310.1 354.3C310.6 354.3 311 354.5 311.3 354.6C312 354.9 312.4 355.3 312.9 355.6C313.4 355.9 313.9 356.3 314.3 356.6C315.2 357.3 316 358 316.7 358.6C319.3 361.5 320.6 363.5 320.4 363.6Z" fill="#005797" stroke="#005797" stroke-width="0.5" stroke-miterlimit="10"/>
<path d="M342.599 366.6C342.499 366.6 342.299 366.2 341.899 365.3C341.499 364.4 340.799 363.1 340.099 361.3C338.499 357.8 336.299 352.8 333.699 346.5C332.399 343.4 330.899 340 329.299 336.3C327.699 332.6 325.999 328.7 324.099 324.7C322.199 320.7 319.999 316.5 317.399 312.4C316.099 310.4 314.699 308.3 313.099 306.4C312.299 305.4 311.499 304.4 310.699 303.5C309.899 302.6 308.999 301.5 308.099 301.2C307.999 301.2 307.799 301.1 307.799 301.2L307.699 302C307.499 302.9 307.499 303.9 307.399 304.8C307.299 305.7 307.299 306.7 307.299 307.6C307.299 308.5 307.299 309.5 307.399 310.4C307.599 314.1 308.299 317.7 309.099 321.1C309.899 324.5 310.999 327.8 312.099 330.9C312.399 331.7 312.599 332.4 312.899 333.2C313.199 334 313.499 334.8 313.799 335.6C314.299 336.8 314.699 338 315.199 339.2C315.399 339.8 315.599 340.4 315.899 340.9L316.199 341.8C316.299 341.9 316.199 341.9 316.199 342V342.2C315.299 341.2 314.299 340.3 313.399 339.3C312.499 338.4 311.799 337.8 310.999 337.2C310.299 336.7 310.199 336.7 309.999 336.7C309.899 336.8 309.799 336.8 309.699 337C309.599 337.2 309.599 337.4 309.499 337.6C309.499 337.8 309.499 338.1 309.499 338.3C309.499 338.6 309.599 338.8 309.599 339.1C309.699 339.6 309.699 340.2 309.799 340.7C309.999 341.7 310.199 342.7 310.399 343.7C311.299 347.6 312.599 350.8 313.899 353.3C316.499 358.4 318.699 360.9 318.499 361C318.499 361 317.899 360.5 316.899 359.3C315.899 358.1 314.599 356.2 313.199 353.7C311.799 351.2 310.399 347.9 309.299 344C308.999 343 308.799 342 308.599 340.9C308.499 340.4 308.399 339.8 308.299 339.3C308.299 339 308.199 338.7 308.199 338.5C308.199 338.2 308.199 337.9 308.199 337.5C308.199 337.2 308.299 336.8 308.399 336.5C308.499 336.2 308.899 335.7 309.299 335.6C309.699 335.4 310.199 335.4 310.599 335.6C310.799 335.7 310.999 335.8 311.099 335.9L311.399 336.1C311.799 336.4 312.099 336.7 312.399 337L312.499 337.1L312.399 336.9L312.199 336.5C312.099 336.2 311.999 336 311.899 335.7C311.599 335 311.399 334.3 311.099 333.7C310.799 332.9 310.499 332.2 310.199 331.4C309.099 328.3 307.999 325 307.099 321.5C306.199 318 305.499 314.4 305.299 310.6C305.199 309.6 305.199 308.7 305.199 307.7C305.199 306.7 305.199 305.8 305.299 304.8C305.399 303.8 305.399 302.8 305.599 301.9L305.699 301.1L305.799 300.5C305.799 300.3 305.899 300.1 305.999 299.9C305.999 299.7 306.299 299.7 306.499 299.6C306.699 299.6 306.899 299.5 307.099 299.5C307.499 299.5 307.999 299.5 308.299 299.7C309.899 300.4 310.599 301.5 311.499 302.4C312.399 303.4 313.199 304.4 313.999 305.4C315.599 307.4 316.999 309.5 318.299 311.6C320.899 315.8 323.099 320 324.999 324.1C326.899 328.2 328.599 332.1 330.099 335.8C331.599 339.5 332.999 342.9 334.299 346.1C336.899 352.4 338.899 357.5 340.299 361.1C340.999 362.9 341.499 364.3 341.799 365.2C342.499 366.1 342.699 366.6 342.599 366.6Z" fill="#005797" stroke="#005797" stroke-width="0.5" stroke-miterlimit="10"/>
<path d="M357.699 383.5C357.599 383.5 357.199 382.4 356.599 380.4C355.999 378.4 355.099 375.5 353.999 371.9C352.899 368.3 351.499 364.1 349.799 359.4C348.099 354.7 346.199 349.6 343.799 344.4C342.599 341.8 341.199 339.4 339.799 337.2C339.099 336.1 338.299 335 337.499 334C336.699 333.1 335.899 331.9 335.099 331.5C334.699 331.3 334.299 331.3 333.999 331.5C333.699 331.7 333.399 332.1 333.099 332.5C332.899 332.9 332.699 333.5 332.599 334C332.499 334.5 332.499 335 332.399 335.6C332.299 337.8 332.299 339.8 332.499 341.7C332.799 345.4 333.599 348.4 334.099 350.4C334.699 352.4 335.099 353.5 334.999 353.6C334.899 353.6 334.299 352.6 333.499 350.6C332.699 348.6 331.799 345.6 331.299 341.8C331.099 339.9 330.899 337.8 330.999 335.5C330.999 334.4 331.199 333.1 331.699 331.9C331.999 331.3 332.399 330.7 333.099 330.2C333.799 329.8 334.799 329.8 335.499 330.1C336.199 330.4 336.799 331 337.199 331.5C337.599 332 338.099 332.5 338.499 333C339.399 334 340.199 335.1 340.899 336.3C342.399 338.6 343.799 341.1 345.099 343.7C347.599 349 349.399 354.1 351.099 358.9C352.699 363.6 353.999 368 354.999 371.6C355.999 375.3 356.699 378.2 357.099 380.3C357.599 382.3 357.799 383.5 357.699 383.5Z" fill="#005797" stroke="#005797" stroke-width="0.5" stroke-miterlimit="10"/>
<path d="M24.4004 274.5C26.2004 298.5 28.9004 323.9 32.7004 350.4C35.6004 370.4 38.8004 389.5 42.4004 407.8C42.3004 409.4 42.5004 411.9 43.8004 414.4C45.8004 418.3 49.6004 419.9 51.4004 420.7C65.0004 426.5 71.8004 429.4 82.7004 432.6C90.8004 435 86.4004 434.2 106.8 441.3C123.9 447.2 139.7 452.6 160.2 457.6C168.1 459.5 174.6 460.8 178.6 461.6C179.8 461.2 181.9 460.4 184.5 459.5C218.3 447 237.4 434.4 282.1 410.2C287.8 407.1 297.3 402 309.2 395.8C299.4 390.5 288.9 385.3 277.6 380.2C253.6 369.4 230.9 361.6 210.2 355.8C209.7 330.4 208.2 303.7 205.4 275.9C204.4 265.2 203.2 254.8 201.9 244.5C166.2 250.8 130.5 257 94.7004 263C71.4004 266.8 47.9004 270.7 24.4004 274.5Z" fill="white"/>
<path d="M41.6004 406.099C41.5004 406.099 41.1004 404.299 40.4004 400.999C39.7004 397.699 38.9004 392.999 37.8004 387.099C35.8004 375.299 33.2004 358.999 30.7004 340.999C28.2004 322.899 26.3004 306.499 25.2004 294.699C24.6004 288.799 24.2004 283.899 23.9004 280.599C23.6004 277.299 23.6004 275.399 23.7004 275.399C23.8004 275.399 24.1004 277.199 24.6004 280.499C25.0004 283.799 25.6004 288.599 26.4004 294.499C27.9004 306.299 30.0004 322.699 32.4004 340.699C34.9004 358.699 37.3004 375.099 39.0004 386.899C39.9004 392.799 40.6004 397.599 41.0004 400.899C41.5004 404.299 41.7004 406.099 41.6004 406.099Z" fill="#005797" stroke="#005797" stroke-width="0.5" stroke-miterlimit="10"/>
<path d="M201.9 244.3C201.9 244.4 201.3 244.5 200.1 244.8C198.9 245.1 197.2 245.5 195 245.9C190.5 246.9 184.1 248.2 176.1 249.7C160.1 252.8 138 256.9 113.5 261.1C89 265.3 66.8 268.7 50.6 271C42.5 272.2 36 273.1 31.5 273.6C29.2 273.9 27.5 274.1 26.3 274.2C25.1 274.3 24.5 274.4 24.5 274.3C24.5 274.2 25.1 274.1 26.3 273.9C27.5 273.7 29.2 273.4 31.5 273C36 272.3 42.5 271.2 50.5 269.9C66.6 267.3 88.8 263.7 113.3 259.5C137.8 255.3 159.9 251.4 176 248.6C184 247.2 190.5 246.1 195 245.3C197.2 244.9 199 244.6 200.2 244.5C201.4 244.4 201.9 244.3 201.9 244.3Z" fill="#005797" stroke="#005797" stroke-width="0.5" stroke-miterlimit="10"/>
<path d="M209.601 351.7C209.501 351.7 209.301 350.2 209.201 347.6C209.001 344.9 208.801 341.1 208.601 336.3C208.101 326.8 207.401 313.7 206.501 299.2C205.601 284.7 204.601 271.6 203.901 262.1C203.601 257.4 203.301 253.5 203.101 250.9C202.901 248.2 202.901 246.8 203.001 246.8C203.101 246.8 203.401 248.2 203.701 250.9C204.101 253.5 204.501 257.4 205.001 262.1C206.001 271.6 207.101 284.7 208.001 299.2C208.901 313.7 209.401 326.9 209.601 336.4C209.701 341.2 209.701 345 209.701 347.7C209.801 350.2 209.701 351.7 209.601 351.7Z" fill="#005797" stroke="#005797" stroke-width="0.5" stroke-miterlimit="10"/>
<path d="M212.8 355.6C212.8 355.7 212.3 355.9 211.2 356.4C210.1 356.9 208.5 357.6 206.4 358.4C204.3 359.3 201.8 360.3 198.8 361.4C195.8 362.6 192.4 363.9 188.6 365.3C181 368.1 172 371.3 161.8 374.6C151.7 377.9 140.5 381.4 128.7 384.9C105.1 391.9 83.5 397.5 67.9 401.5C60.1 403.5 53.8 405.1 49.4 406.1C47.2 406.6 45.5 407 44.3 407.3C43.1 407.6 42.5 407.7 42.5 407.6C42.5 407.5 43.1 407.3 44.2 407C45.3 406.6 47 406.2 49.2 405.5C53.5 404.3 59.8 402.5 67.6 400.4C83.1 396.1 104.6 390.3 128.2 383.3C140 379.8 151.2 376.3 161.3 373.1C171.4 369.8 180.5 366.8 188.1 364.1C191.9 362.8 195.3 361.5 198.4 360.5C201.4 359.4 204 358.5 206.1 357.7C208.2 356.9 209.9 356.3 211 356C212.2 355.8 212.8 355.6 212.8 355.6Z" fill="#005797" stroke="#005797" stroke-width="0.5" stroke-miterlimit="10"/>
<path d="M180.3 461.3C180.3 461.4 179.8 461.2 178.8 461C177.9 460.7 176.5 460.3 174.7 459.7C171.1 458.6 166 456.9 159.7 454.7C147.1 450.4 129.7 444.2 110.7 437C91.6996 429.8 74.5996 422.9 62.2996 417.7C56.1996 415.1 51.1996 413 47.7996 411.5C46.0996 410.7 44.7996 410.1 43.8996 409.7C42.9996 409.3 42.5996 409 42.5996 409C42.5996 408.9 43.0996 409.1 43.9996 409.4C44.8996 409.7 46.2996 410.2 47.9996 410.9C51.4996 412.3 56.4996 414.2 62.6996 416.7C75.0996 421.6 92.1996 428.3 111.2 435.5C130.2 442.7 147.5 449.1 160 453.7C166.2 456 171.3 457.9 174.8 459.2C176.5 459.9 177.9 460.4 178.8 460.7C179.9 461 180.3 461.2 180.3 461.3Z" fill="#005797" stroke="#005797" stroke-width="0.5" stroke-miterlimit="10"/>
<path d="M179.1 461.7C179.1 461.8 178.6 461.7 177.6 461.6C176.6 461.5 175.2 461.2 173.3 460.9C169.6 460.2 164.2 459.1 157.6 457.5C144.4 454.3 126.4 449 106.8 442.1C87.2004 435.2 69.7004 428.6 57.1004 423.6C53.9004 422.4 51.1004 421.2 48.7004 419.8C46.3004 418.4 44.7004 416.5 43.7004 414.8C42.8004 413.1 42.5004 411.5 42.6004 410.5C42.6004 409.5 42.8004 409 42.9004 409C43.0004 409 42.9004 409.5 43.0004 410.5C43.1004 411.5 43.4004 412.9 44.4004 414.5C45.4004 416.1 47.0004 417.7 49.3004 419C51.6004 420.3 54.5004 421.4 57.6004 422.5C70.3004 427.2 87.9004 433.7 107.4 440.5C126.9 447.3 144.8 452.8 158 456.3C164.6 458 169.9 459.3 173.6 460.2C175.4 460.6 176.9 461 177.8 461.2C178.6 461.5 179.1 461.6 179.1 461.7Z" fill="#005797" stroke="#005797" stroke-width="0.5" stroke-miterlimit="10"/>
<path d="M309.201 395.6C309.201 395.6 308.801 395.9 308.001 396.4C307.201 396.9 305.901 397.6 304.301 398.5C301.101 400.3 296.401 402.9 290.601 406.1C279.001 412.5 262.901 421.1 245.101 430.6C236.201 435.3 227.701 439.9 219.901 443.9C212.101 447.9 205.001 451.3 198.901 453.9C192.801 456.5 187.801 458.4 184.301 459.6C182.601 460.2 181.201 460.6 180.201 460.9C179.301 461.2 178.801 461.3 178.701 461.2C178.701 461.1 180.601 460.3 184.001 459C187.401 457.6 192.401 455.6 198.401 452.8C204.401 450 211.401 446.5 219.201 442.5C226.901 438.4 235.401 433.9 244.301 429.1C262.101 419.6 278.301 411.1 290.001 405C295.901 402 300.601 399.5 303.901 397.9C305.601 397.1 306.801 396.4 307.701 396C308.701 395.8 309.201 395.6 309.201 395.6Z" fill="#005797" stroke="#005797" stroke-width="0.5" stroke-miterlimit="10"/>
<path d="M309.4 392.2C309.4 392.3 308 391.9 305.6 391C303.2 390.2 299.7 388.9 295.4 387.3C286.8 384.2 275 379.8 261.9 375C248.8 370.3 236.9 366 228.3 362.9C224 361.3 220.5 360.1 218.1 359.2C215.7 358.3 214.4 357.7 214.4 357.6C214.4 357.5 215.8 357.8 218.3 358.6C220.8 359.3 224.3 360.4 228.6 361.8C237.3 364.6 249.2 368.7 262.3 373.5C275.4 378.3 287.2 382.8 295.7 386.3C299.9 388 303.4 389.4 305.7 390.5C308.2 391.5 309.4 392.1 309.4 392.2Z" fill="#005797" stroke="#005797" stroke-width="0.5" stroke-miterlimit="10"/>
<path d="M157.3 446.6C157.3 446.7 156 446.4 153.8 445.6C151.6 444.9 148.3 443.8 144.3 442.4C136.3 439.6 125.4 435.6 113.4 430.9C101.4 426.2 90.7 421.7 82.9 418.4C79 416.7 75.9 415.3 73.8 414.3C71.7 413.3 70.5 412.7 70.5 412.6C70.5 412.5 71.8 412.9 74 413.7C76.2 414.5 79.4 415.8 83.3 417.3C91.1 420.4 102 424.6 113.9 429.4C125.9 434.1 136.7 438.3 144.6 441.3C148.5 442.8 151.7 444.1 153.9 445C156.1 446 157.3 446.5 157.3 446.6Z" fill="#005797" stroke="#005797" stroke-width="0.5" stroke-miterlimit="10"/>
<path d="M206 366.5C206 366.6 204.2 367.4 200.9 368.8C197.6 370.2 192.7 372 186.7 374.3C174.7 378.9 157.9 384.9 139.3 391.2C120.7 397.5 103.7 402.9 91.4004 406.6C85.2004 408.5 80.2004 409.9 76.8004 410.9C73.3004 411.9 71.4004 412.3 71.4004 412.2C71.4004 412.1 73.2004 411.4 76.7004 410.3C80.1004 409.2 85.1004 407.5 91.2004 405.5C103.4 401.5 120.3 396 138.9 389.7C157.5 383.4 174.3 377.5 186.4 373.2C192.5 371.1 197.4 369.4 200.8 368.2C204 367 205.9 366.4 206 366.5Z" fill="#005797" stroke="#005797" stroke-width="0.5" stroke-miterlimit="10"/>
<path d="M266.6 390.9C266.8 391.3 242.4 404 212 419.3C181.6 434.6 156.9 446.6 156.7 446.2C156.5 445.8 180.9 433.1 211.3 417.8C241.7 402.6 266.4 390.5 266.6 390.9Z" fill="#005797" stroke="#005797" stroke-width="0.5" stroke-miterlimit="10"/>
<path d="M262.7 389.3C262.5 389.7 251.2 385.6 237.4 380C223.6 374.5 212.5 369.6 212.7 369.2C212.9 368.8 224.2 372.9 238 378.5C251.8 384.1 262.9 388.9 262.7 389.3Z" fill="#005797" stroke="#005797" stroke-width="0.5" stroke-miterlimit="10"/>
<path d="M246.901 421.7C247.001 421.9 244.301 423.6 239.901 426C235.501 428.4 229.201 431.6 222.201 434.8C220.401 435.6 218.701 436.4 217.101 437.1C216.301 437.5 215.501 437.8 214.601 438.2C213.701 438.5 212.701 438.8 211.801 438.7C210.801 438.6 210.001 438.2 209.201 437.9C208.501 437.5 207.801 437.2 207.101 436.8C205.801 436.1 204.601 435.4 203.501 434.8C199.101 432.4 196.401 430.8 196.501 430.6C196.601 430.4 199.501 431.6 204.001 433.8C205.101 434.3 206.401 435 207.701 435.6C209.001 436.2 210.401 437.1 211.801 437.2C213.201 437.3 214.701 436.5 216.401 435.7C218.101 434.9 219.801 434.2 221.501 433.4C228.501 430.2 234.801 427.2 239.301 425C244.001 422.9 246.801 421.5 246.901 421.7Z" fill="#005797" stroke="#005797" stroke-width="0.5" stroke-miterlimit="10"/>
<path d="M243.7 420.1C243.6 420.3 240.9 419.5 236.6 418C236.1 417.8 235.5 417.6 234.9 417.4C234.3 417.2 233.7 417 233.2 416.9C232.7 416.8 232.1 416.9 231.5 417.2C230.9 417.4 230.2 417.7 229.5 418C226.7 419.2 223.6 420.4 220.4 421.7C213.9 424.3 208.1 426.5 203.8 428.1C199.5 429.7 196.8 430.5 196.7 430.3C196.6 430.1 199.2 428.9 203.3 427C207.5 425.2 213.3 422.7 219.8 420.2C223 418.9 226.1 417.7 228.9 416.6C229.6 416.3 230.3 416.1 231 415.8C231.7 415.6 232.6 415.4 233.4 415.5C234.2 415.6 234.8 415.9 235.4 416.1C236 416.3 236.5 416.6 237.1 416.8C241.2 418.7 243.8 419.9 243.7 420.1Z" fill="#005797" stroke="#005797" stroke-width="0.5" stroke-miterlimit="10"/>
<path d="M239.7 419.299C239.9 419.699 233.3 423.299 225.2 427.699C217.1 432.099 210.5 435.699 210.2 435.299C210 434.899 216.2 430.699 224.4 426.299C232.6 421.799 239.5 418.899 239.7 419.299Z" fill="#005797" stroke="#005797" stroke-width="0.5" stroke-miterlimit="10"/>
<path d="M228.266 429.716C228.501 429.342 228.047 428.634 227.252 428.134C226.456 427.635 225.621 427.533 225.386 427.908C225.151 428.282 225.605 428.99 226.4 429.489C227.196 429.989 228.031 430.09 228.266 429.716Z" fill="#005797" stroke="#005797" stroke-width="0.5" stroke-miterlimit="10"/>
<path d="M59.9004 399.7C59.8004 399.7 59.6004 398.5 59.3004 396.4C59.0004 394.3 58.7004 391.2 58.3004 387.4C57.6004 379.8 56.6004 369.2 55.5004 357.6C54.4004 346 53.5004 335.4 52.8004 327.8C52.5004 324 52.2004 320.9 52.1004 318.8C52.0004 316.7 51.9004 315.5 52.0004 315.5C52.1004 315.5 52.3004 316.7 52.7004 318.8C53.0004 320.9 53.5004 324 53.9004 327.8C54.9004 335.4 56.0004 345.9 57.1004 357.6C58.2004 369.2 59.0004 379.8 59.4004 387.4C59.6004 391.2 59.8004 394.3 59.8004 396.5C60.1004 398.5 60.1004 399.7 59.9004 399.7Z" fill="#005797" stroke="#005797" stroke-width="0.5" stroke-miterlimit="10"/>
<path d="M78.0008 392.7C78.2008 392.8 77.6008 393.9 76.3008 395.3C75.0008 396.7 72.8008 398.3 70.1008 399.3C67.4008 400.3 64.7008 400.5 62.8008 400.3C60.9008 400.1 59.8008 399.6 59.9008 399.4C59.9008 399.2 61.1008 399.2 62.9008 399.1C64.7008 399 67.1008 398.6 69.6008 397.7C72.1008 396.8 74.2008 395.5 75.6008 394.4C77.0008 393.3 77.8008 392.5 78.0008 392.7Z" fill="#005797" stroke="#005797" stroke-width="0.5" stroke-miterlimit="10"/>
<path d="M77.1012 393.3C77.0012 393.3 76.7012 392.2 76.3012 390.2C75.9012 388.2 75.3012 385.3 74.6012 381.7C73.3012 374.5 71.7012 364.5 70.2012 353.4C68.7012 342.3 67.7012 332.2 67.0012 324.9C66.7012 321.2 66.5012 318.3 66.4012 316.2C66.3012 314.1 66.3012 313 66.4012 313C66.5012 313 66.7012 314.1 67.0012 316.1C67.3012 318.1 67.7012 321.1 68.1012 324.7C69.0012 332 70.3012 342 71.7012 353.1C73.2012 364.2 74.6012 374.2 75.6012 381.5C76.1012 385.1 76.5012 388.1 76.8012 390.1C77.1012 392.2 77.2012 393.3 77.1012 393.3Z" fill="#005797" stroke="#005797" stroke-width="0.5" stroke-miterlimit="10"/>
<path d="M59.2 398.1C59 398.5 54.3 396.9 48.6 394.8C42.9 392.7 38.3 390.8 38.4 390.4C38.5 390 43.4 391.2 49.1 393.3C55 395.4 59.4 397.7 59.2 398.1Z" fill="#005797" stroke="#005797" stroke-width="0.5" stroke-miterlimit="10"/>
<path d="M51.4007 316.4C51.3007 316.8 45.9007 315.9 39.5007 314C33.1007 312.1 28.1007 309.9 28.2007 309.5C28.4007 309.1 33.6007 310.6 39.9007 312.4C46.4007 314.4 51.5007 316 51.4007 316.4Z" fill="#005797" stroke="#005797" stroke-width="0.5" stroke-miterlimit="10"/>
<path d="M64.0004 311.399C63.8004 311.799 55.6004 309.399 45.4004 306.599C35.2004 303.799 26.9004 301.699 26.9004 301.299C27.0004 300.899 35.5004 302.199 45.8004 304.999C56.1004 307.799 64.1004 310.999 64.0004 311.399Z" fill="#005797" stroke="#005797" stroke-width="0.5" stroke-miterlimit="10"/>
<path d="M65.9012 310.9C66.1012 311 66.0012 312 65.0012 313.2C64.1012 314.4 62.2012 315.7 59.9012 316.1C57.6012 316.5 55.5012 316 54.1012 315.5C52.7012 314.9 52.0012 314.4 52.1012 314.2C52.2012 314 53.1012 314.2 54.4012 314.4C55.8012 314.6 57.6012 314.9 59.6012 314.5C61.6012 314.2 63.2012 313.2 64.2012 312.4C65.2012 311.6 65.7012 310.8 65.9012 310.9Z" fill="#005797" stroke="#005797" stroke-width="0.5" stroke-miterlimit="10"/>
<path d="M91.2012 309.3C91.2012 309.5 88.4012 309.2 84.0012 308.3C79.6012 307.4 73.5012 306 66.9012 304.2C63.8012 303.3 60.8012 302.4 58.0012 301.5C56.6012 301 55.3012 300.6 54.1012 300.2C53.5012 300 52.9012 299.8 52.3012 299.6L52.0012 299.5L51.8012 299.4C51.7012 299.3 51.6012 299.3 51.4012 299.3C51.4012 299.4 51.4012 299.6 51.4012 299.7C51.4012 299.9 51.4012 299.9 51.4012 300.2C51.4012 300.7 51.4012 301.3 51.3012 301.7C51.3012 302.7 51.2012 303.5 51.2012 304.2C51.1012 305.6 51.0012 306.3 50.9012 306.3C50.8012 306.3 50.7012 305.5 50.6012 304.2C50.5012 303.5 50.5012 302.7 50.4012 301.7C50.4012 301.2 50.4012 300.7 50.3012 300.2C50.3012 299.4 50.3012 298.5 50.2012 297.6C51.5012 298 52.9012 298.5 54.4012 298.9C55.6012 299.3 56.9012 299.7 58.3012 300.1C61.0012 300.9 64.0012 301.8 67.1012 302.7C73.7012 304.6 79.6012 306.2 84.0012 307.3C88.6012 308.4 91.2012 309.1 91.2012 309.3Z" fill="#005797" stroke="#005797" stroke-width="0.5" stroke-miterlimit="10"/>
<path d="M100.801 302C100.701 301.9 101.001 301.6 101.601 301.5C102.201 301.4 103.301 301.6 104.001 302.5C104.401 302.9 104.701 303.6 104.701 304.3C104.701 305 104.601 305.8 104.201 306.4C103.501 307.8 102.201 308.8 100.701 309.4C99.2007 310.1 97.7007 310.2 96.3007 310.2C94.9007 310.2 93.8007 310 92.8007 309.8C90.9007 309.3 89.7007 308.8 89.8007 308.6C89.8007 308.4 91.1007 308.5 93.0007 308.6C94.9007 308.7 97.6007 308.9 100.101 307.9C101.301 307.4 102.401 306.6 102.901 305.6C103.201 305.1 103.301 304.7 103.301 304.2C103.301 303.8 103.201 303.4 103.001 303.1C102.601 302.4 101.901 302.1 101.501 302C101.201 302 100.901 302.1 100.801 302Z" fill="#005797" stroke="#005797" stroke-width="0.5" stroke-miterlimit="10"/>
<path d="M64.4011 295.2C64.5011 295.6 62.8011 296.5 60.5011 297.2C58.2011 297.9 56.3011 298 56.1011 297.6C55.9011 297.2 57.7011 296.3 60.0011 295.6C62.3011 295 64.3011 294.8 64.4011 295.2Z" fill="#005797" stroke="#005797" stroke-width="0.5" stroke-miterlimit="10"/>
<path d="M103.1 302.2C103.1 302.4 100.8 302.7 96.9998 302.3C93.1998 301.9 88.1998 300.7 82.6998 299.5C77.1998 298.3 72.1998 297.1 68.5998 296.1C64.9998 295.1 62.7998 294.2 62.8998 294C62.9998 293.8 65.1998 294.3 68.7998 295C72.3998 295.7 77.4998 296.7 82.9998 298C88.4998 299.2 93.4998 300.5 97.0998 301.2C100.8 301.8 103.1 301.9 103.1 302.2Z" fill="#005797" stroke="#005797" stroke-width="0.5" stroke-miterlimit="10"/>
<path d="M99.0996 386.499C98.8996 386.499 98.2996 382.299 97.4996 375.399C96.6996 368.499 95.6996 358.999 94.5996 348.499C93.4996 337.999 92.4996 328.499 91.6996 321.599C90.9996 314.699 90.5996 310.399 90.8996 310.399C90.9996 310.399 91.2996 311.399 91.5996 313.299C91.8996 315.199 92.3996 317.999 92.8996 321.399C93.8996 328.299 95.0996 337.799 96.1996 348.299C97.2996 358.799 98.1996 368.399 98.6996 375.299C98.8996 378.799 99.0996 381.599 99.1996 383.499C99.1996 385.399 99.1996 386.499 99.0996 386.499Z" fill="#005797" stroke="#005797" stroke-width="0.5" stroke-miterlimit="10"/>
<path d="M115 380.3C115.2 380.4 115 381.5 114.1 383.1C113.2 384.7 111.4 386.7 108.6 387.8C105.9 388.9 103.1 388.6 101.4 388C99.5995 387.3 98.8995 386.4 98.9995 386.3C99.0995 386.1 100.1 386.6 101.7 386.9C103.3 387.2 105.7 387.3 108 386.3C110.3 385.4 112 383.8 113.1 382.5C114.2 381.1 114.7 380.2 115 380.3Z" fill="#005797" stroke="#005797" stroke-width="0.5" stroke-miterlimit="10"/>
<path d="M113.874 380.801C114.312 380.745 112.491 363.645 109.806 342.607C107.121 321.569 104.589 304.56 104.151 304.616C103.713 304.671 105.534 321.772 108.219 342.81C110.904 363.848 113.436 380.857 113.874 380.801Z" fill="#005797" stroke="#005797" stroke-width="0.5" stroke-miterlimit="10"/>
<path d="M99.1013 386.6C99.0013 386.8 97.6013 386.6 95.4013 386.1C93.2013 385.6 90.2013 384.7 86.9013 383.6C85.3013 383.1 83.7013 382.5 82.3013 382C80.9013 381.5 79.6013 381 78.6013 380.5C76.5013 379.5 75.4013 378.5 75.6013 378.3C75.7013 378.1 77.0013 378.7 79.1013 379.4C80.1013 379.8 81.4013 380.1 82.9013 380.5C84.3013 380.9 85.9013 381.4 87.5013 382C90.8013 383.1 93.7013 384.1 95.8013 384.9C97.9013 385.8 99.2013 386.4 99.1013 386.6Z" fill="#005797" stroke="#005797" stroke-width="0.5" stroke-miterlimit="10"/>
<path d="M126.199 376.7C125.999 377.1 122.999 376.1 119.399 374.4C115.799 372.7 113.099 371 113.299 370.6C113.499 370.2 116.499 371.2 120.099 372.9C123.699 374.6 126.399 376.3 126.199 376.7Z" fill="#005797" stroke="#005797" stroke-width="0.5" stroke-miterlimit="10"/>
<path d="M142.201 370.3C142.401 370.3 142.601 371.6 141.801 373.5C141.101 375.3 139.201 377.7 136.201 378.8C133.201 379.9 130.201 379.2 128.501 378.3C126.701 377.3 126.001 376.3 126.201 376.1C126.401 375.9 127.301 376.6 129.001 377.2C130.701 377.8 133.201 378.1 135.701 377.2C138.201 376.3 139.901 374.4 140.801 372.9C141.701 371.4 141.901 370.2 142.201 370.3Z" fill="#005797" stroke="#005797" stroke-width="0.5" stroke-miterlimit="10"/>
<path d="M140.635 368.477C141.077 368.465 140.97 351.494 140.396 330.57C139.822 309.647 138.999 292.695 138.557 292.708C138.116 292.72 138.223 309.691 138.797 330.614C139.371 351.538 140.194 368.489 140.635 368.477Z" fill="#005797" stroke="#005797" stroke-width="0.5" stroke-miterlimit="10"/>
<path d="M127.73 376.946C128.171 376.921 127.532 359.423 126.302 337.863C125.073 316.304 123.718 298.846 123.277 298.871C122.836 298.897 123.475 316.395 124.705 337.954C125.935 359.514 127.289 376.971 127.73 376.946Z" fill="#005797" stroke="#005797" stroke-width="0.5" stroke-miterlimit="10"/>
<path d="M88.1005 283.799C88.5005 283.699 89.7005 286.599 89.9005 290.499C90.2005 294.399 89.4005 297.399 89.0005 297.399C88.5005 297.299 88.5005 294.299 88.3005 290.599C88.0005 286.999 87.6005 283.999 88.1005 283.799Z" fill="#005797" stroke="#005797" stroke-width="0.5" stroke-miterlimit="10"/>
<path d="M125.1 297.4C125 297.8 116.7 295.2 106.6 291.5C96.6001 287.8 88.6001 284.4 88.7001 284C88.9001 283.6 97.1001 286.3 107.1 290C117.3 293.6 125.3 296.9 125.1 297.4Z" fill="#005797" stroke="#005797" stroke-width="0.5" stroke-miterlimit="10"/>
<path d="M136.301 292.1C136.401 292 136.601 292.1 136.901 292.5C137.201 292.9 137.401 293.6 137.301 294.4C137.201 295.2 136.801 296.2 136.001 297C135.201 297.8 134.001 298.3 132.801 298.4C130.401 298.7 128.301 298.3 126.901 297.7C125.501 297.2 124.701 296.6 124.801 296.4C124.901 296.2 125.801 296.4 127.201 296.6C128.601 296.8 130.501 297 132.501 296.8C133.501 296.6 134.301 296.3 135.001 295.8C135.601 295.3 136.001 294.7 136.201 294.1C136.601 293 136.101 292.2 136.301 292.1Z" fill="#005797" stroke="#005797" stroke-width="0.5" stroke-miterlimit="10"/>
<path d="M100.244 285.193C103.07 284.679 105.297 283.91 105.217 283.475C105.138 283.041 102.784 283.105 99.9581 283.619C97.1324 284.132 94.9059 284.901 94.9849 285.336C95.064 285.771 97.4187 285.707 100.244 285.193Z" fill="#005797" stroke="#005797" stroke-width="0.5" stroke-miterlimit="10"/>
<path d="M138.4 291.9C138.4 292.1 136.3 291.9 133.1 291.3C131.5 291 129.6 290.5 127.5 290C125.4 289.4 123.1 288.7 120.8 287.9C111.3 284.8 103.7 281.9 103.9 281.5C104 281.1 111.8 283.2 121.3 286.3C123.7 287.1 125.9 287.8 128 288.5C130 289.1 131.9 289.7 133.5 290.2C136.5 291.1 138.5 291.7 138.4 291.9Z" fill="#005797" stroke="#005797" stroke-width="0.5" stroke-miterlimit="10"/>
<path d="M164.3 364.1C164.3 364.1 164.4 364.2 164.5 364.4C164.6 364.6 164.5 365 164.3 365.3C164.1 365.6 163.7 366 163.3 366.2C162.8 366.5 162.4 366.7 161.9 367C159.8 368.1 156.7 369.3 153.3 370.5C152.4 370.8 151.6 371 150.8 371.3C150 371.5 149.2 371.8 148.3 371.9C147.9 372 147.4 372 146.9 371.9C146.4 371.8 146.1 371.6 145.7 371.4C145 371 144.5 370.6 144.1 370.3C142.2 368.9 141.1 368 141.2 367.8C141.3 367.6 142.7 368.2 144.7 369.4C145.2 369.7 145.8 370 146.3 370.3C146.9 370.6 147.4 370.7 148 370.5C148.6 370.4 149.5 370.1 150.2 369.8C151 369.5 151.8 369.3 152.7 369C156.1 367.9 159.1 366.8 161.4 366C161.9 365.8 162.4 365.6 162.9 365.5C163.3 365.3 163.6 365.2 163.8 365C164.3 364.5 164.2 364.1 164.3 364.1Z" fill="#005797" stroke="#005797" stroke-width="0.5" stroke-miterlimit="10"/>
<path d="M164.5 363.4C164.1 363.4 162.9 346.4 162 325.4C161.1 304.4 160.6 287.3 161.1 287.3C161.6 287.3 162.7 304.3 163.6 325.3C164.5 346.3 164.9 363.3 164.5 363.4Z" fill="#005797" stroke="#005797" stroke-width="0.5" stroke-miterlimit="10"/>
<path d="M134 277.899C134.1 278.399 129.4 279.399 123.6 280.599C117.8 281.799 113.1 282.899 113 282.399C112.9 281.999 117.4 280.199 123.3 278.999C129.1 277.699 134 277.499 134 277.899Z" fill="#005797" stroke="#005797" stroke-width="0.5" stroke-miterlimit="10"/>
<path d="M161.9 287.6C161.8 287.8 160.2 287.2 157.7 286.2C155.2 285.3 151.6 284.2 147.6 283C143.6 281.9 140 280.7 137.5 279.7C134.9 278.7 133.5 277.5 133.7 277.3C133.8 277.1 135.3 277.9 137.9 278.6C140.5 279.3 144.1 280.3 148.1 281.4C152.1 282.5 155.7 283.8 158.2 285.1C160.7 286.4 162 287.4 161.9 287.6Z" fill="#005797" stroke="#005797" stroke-width="0.5" stroke-miterlimit="10"/>
<path d="M158.3 287.4C158.4 287.4 158.3 288.1 157.6 289.1C157 290.1 155.7 291.4 153.7 292.3C151.7 293.2 149.1 293.6 146.3 293.1C143.5 292.7 140.6 291.7 137.7 290.5C131.8 288.3 126.5 286.2 122.8 284.6C119 283 116.7 281.9 116.8 281.7C116.9 281.5 119.3 282.2 123.2 283.5C127.1 284.8 132.4 286.7 138.3 288.9C141.2 290 144 291.1 146.6 291.5C149.2 292 151.5 291.8 153.4 291.1C155.2 290.4 156.5 289.4 157.3 288.6C157.9 287.9 158.2 287.4 158.3 287.4Z" fill="#005797" stroke="#005797" stroke-width="0.5" stroke-miterlimit="10"/>
<path d="M141.3 286.399C141.2 286.799 136.9 286.099 131.8 284.299C126.7 282.499 123 280.299 123.1 279.999C123.3 279.599 127.3 280.999 132.3 282.799C137.3 284.499 141.4 285.899 141.3 286.399Z" fill="#005797" stroke="#005797" stroke-width="0.5" stroke-miterlimit="10"/>
<path d="M148.301 287.4C148.101 287.6 147.101 287 145.501 286.2C143.801 285.4 141.501 284.4 138.801 283.3C136.201 282.2 133.801 281 132.201 279.9C130.601 278.8 129.801 277.9 129.901 277.8C130.001 277.6 131.101 278.2 132.701 278.9C134.401 279.7 136.701 280.7 139.401 281.8C142.101 282.9 144.401 284.1 146.001 285.2C147.601 286.3 148.401 287.2 148.301 287.4Z" fill="#005797" stroke="#005797" stroke-width="0.5" stroke-miterlimit="10"/>
<path d="M145.4 365.7C145.2 365.7 144.8 361.8 144.5 355.4C144.2 349 143.9 340.2 143.9 330.5C143.9 320.8 144.1 312 144.4 305.6C144.7 299.2 145.1 295.3 145.3 295.3C145.5 295.3 145.6 299.2 145.6 305.6C145.6 312 145.6 320.7 145.5 330.4C145.6 340.1 145.6 348.9 145.6 355.2C145.6 361.7 145.6 365.7 145.4 365.7Z" fill="#005797" stroke="#005797" stroke-width="0.5" stroke-miterlimit="10"/>
<path d="M45.2997 311C45.1997 311.4 43.0997 311.1 40.6997 310.3C38.2997 309.5 36.4997 308.5 36.5997 308.1C36.6997 307.7 38.7997 308 41.1997 308.8C43.5997 309.6 45.3997 310.6 45.2997 311Z" fill="#005797" stroke="#005797" stroke-width="0.5" stroke-miterlimit="10"/>
<path d="M34.4011 307.1C34.3011 307.5 32.9011 307.6 31.4011 307.3C29.8011 306.9 28.6011 306.3 28.7011 305.9C28.8011 305.5 30.2011 305.4 31.7011 305.7C33.3011 306 34.5011 306.6 34.4011 307.1Z" fill="#005797" stroke="#005797" stroke-width="0.5" stroke-miterlimit="10"/>
<path d="M85.9002 306.1C85.7002 306.5 80.2002 304.9 73.4002 302.8C66.6002 300.7 61.1002 298.9 61.3002 298.5C61.4002 298.1 67.1002 299.2 73.9002 301.3C80.8002 303.4 86.1002 305.7 85.9002 306.1Z" fill="#005797" stroke="#005797" stroke-width="0.5" stroke-miterlimit="10"/>
<path d="M91.9012 305.5C91.7012 305.9 88.0012 304.7 83.4012 303.2C78.8012 301.6 75.1012 300.3 75.2012 299.9C75.3012 299.5 79.2012 300.1 83.9012 301.7C88.6012 303.1 92.1012 305 91.9012 305.5Z" fill="#005797" stroke="#005797" stroke-width="0.5" stroke-miterlimit="10"/>
<path d="M117.001 290.999C116.901 291.399 113.401 290.699 109.401 289.199C105.401 287.699 102.301 285.899 102.501 285.499C102.701 285.099 106.001 286.099 110.001 287.699C113.901 289.199 117.101 290.599 117.001 290.999Z" fill="#005797" stroke="#005797" stroke-width="0.5" stroke-miterlimit="10"/>
<path d="M153.501 436.2C153.401 436.4 150.201 435.2 145.101 433C140.001 430.8 133.001 427.6 125.401 423.9C117.801 420.2 111.001 416.6 106.101 413.9C101.201 411.2 98.3009 409.4 98.4009 409.2C98.5009 409 101.601 410.4 106.601 412.9C111.601 415.4 118.501 418.7 126.101 422.5C133.701 426.2 140.601 429.6 145.601 432C150.501 434.4 153.501 436 153.501 436.2Z" fill="#005797" stroke="#005797" stroke-width="0.5" stroke-miterlimit="10"/>
<path d="M171.901 428.6C171.801 428.8 168.701 427.4 163.701 424.9C158.701 422.5 151.901 419 144.401 415.2C136.901 411.4 130.101 407.9 125.201 405.3C120.301 402.7 117.301 401.1 117.401 400.9C117.501 400.7 120.701 402 125.701 404.3C130.701 406.6 137.601 409.9 145.101 413.7C152.601 417.5 159.401 421.1 164.201 423.8C169.101 426.6 172.001 428.4 171.901 428.6Z" fill="#005797" stroke="#005797" stroke-width="0.5" stroke-miterlimit="10"/>
<path d="M187.1 418.1C187 418.3 184.4 417.1 180.2 415C176.1 412.9 170.4 409.8 164.3 406.2C158.2 402.6 152.7 399.2 148.8 396.7C144.9 394.1 142.6 392.4 142.7 392.3C142.8 392.1 145.4 393.5 149.4 395.8C153.4 398.1 159 401.3 165.1 404.9C171.2 408.5 176.7 411.7 180.7 414.1C184.7 416.3 187.2 417.9 187.1 418.1Z" fill="#005797" stroke="#005797" stroke-width="0.5" stroke-miterlimit="10"/>
<path d="M213 409.2C212.9 409.4 210.3 408 206.1 405.7C201.9 403.3 196.2 400 189.9 396.3C183.6 392.6 177.9 389.3 173.8 386.8C169.7 384.3 167.2 382.7 167.3 382.5C167.4 382.3 170.1 383.6 174.4 385.8C178.7 388 184.5 391.2 190.8 394.9C197.1 398.6 202.8 402.1 206.8 404.7C210.7 407.3 213.1 409 213 409.2Z" fill="#005797" stroke="#005797" stroke-width="0.5" stroke-miterlimit="10"/>
<path d="M242.199 400.9C242.099 401.1 239.099 399.7 234.399 397.2C229.699 394.7 223.199 391.3 215.999 387.4C208.799 383.5 202.399 380 197.699 377.4C192.999 374.8 190.199 373.1 190.299 372.9C190.399 372.7 193.399 374 198.199 376.4C202.999 378.7 209.599 382.1 216.699 386C223.899 389.9 230.299 393.5 234.899 396.2C239.499 398.9 242.299 400.7 242.199 400.9Z" fill="#005797" stroke="#005797" stroke-width="0.5" stroke-miterlimit="10"/>
<path d="M211.5 373.6C211.5 373.7 210 374.5 207.2 376C204.4 377.4 200.2 379.4 195.1 381.8C184.8 386.6 170.4 392.9 154.2 399.3C138.1 405.7 123.2 411 112.5 414.5C107.1 416.3 102.7 417.7 99.7004 418.6C96.7004 419.5 94.9004 420 94.9004 419.8C94.9004 419.7 96.5004 419 99.5004 417.9C102.5 416.8 106.8 415.3 112.2 413.3C122.9 409.4 137.6 404 153.7 397.6C169.8 391.2 184.3 385.1 194.7 380.6C199.9 378.3 204.1 376.5 207.1 375.3C209.9 374.1 211.5 373.5 211.5 373.6Z" fill="#005797" stroke="#005797" stroke-width="0.5" stroke-miterlimit="10"/>
<path d="M221.1 379.399C221.2 379.499 219.7 380.299 217.1 381.699C214.5 383.099 210.7 385.099 206 387.499C196.6 392.399 183.6 398.999 169.2 406.099C154.7 413.199 141.5 419.399 131.9 423.699C127.1 425.899 123.2 427.599 120.4 428.699C117.7 429.799 116.1 430.399 116.1 430.299C116.1 430.199 117.5 429.399 120.1 428.099C122.8 426.799 126.6 424.899 131.3 422.599C140.8 417.999 153.9 411.699 168.4 404.599C182.9 397.499 196 391.099 205.4 386.499C210.1 384.199 214 382.399 216.7 381.099C219.6 379.899 221.1 379.299 221.1 379.399Z" fill="#005797" stroke="#005797" stroke-width="0.5" stroke-miterlimit="10"/>
<path d="M233.4 384.8C233.5 384.9 232.2 385.7 230 387C227.7 388.3 224.5 390.1 220.4 392.4C212.2 396.9 200.9 402.9 188.3 409.5C175.7 416.1 164.3 422 156 426.2C151.8 428.3 148.5 430 146.1 431.1C143.8 432.2 142.4 432.8 142.4 432.7C142.4 432.6 143.6 431.8 145.8 430.5C148 429.2 151.3 427.4 155.4 425.1C163.6 420.6 174.9 414.6 187.5 408C200.1 401.4 211.5 395.5 219.8 391.3C224 389.2 227.3 387.5 229.7 386.4C232 385.3 233.4 384.7 233.4 384.8Z" fill="#005797" stroke="#005797" stroke-width="0.5" stroke-miterlimit="10"/>
<path d="M394.4 223.8C391.6 225.5 388.6 227.6 385.5 230.3C377.4 237.5 373 245.6 370.6 251.1C367.3 252.4 363.3 254.5 359.3 257.5C350.1 264.4 345.4 272.9 343.2 277.9C339.1 279.5 334.4 281.8 329.4 285.1C325.7 287.5 322.6 290 320 292.3C317.2 292.7 313 293.1 307.8 293.2C304 293.3 302.4 293.2 300.7 293.2C296.6 293.4 290.7 294.8 283.4 300.6C281.6 300.5 279 300.4 275.9 300.1C269.6 299.5 266.2 298.7 263.9 298.4C259.7 297.9 253.5 298.3 245.3 302.4C232.2 297.5 219 292.6 205.9 287.7C200.8 289.8 195.7 291.8 190.6 293.9C191.5 314.6 192.5 335.3 193.4 356C205.4 366.4 216.4 371 222.8 373.1C232.7 376.4 238.3 376 241.9 375.2C246.7 374.2 250.4 372.2 252.7 370.7C252.3 356.4 252 342.2 251.6 327.9C253.8 328.7 256.4 329.5 259.6 329.7C270.2 330.5 278.3 325 281 322.9C281.6 326.3 282.2 329.6 282.8 333C284.7 334.7 288.4 337.5 293.8 338.7C303.6 340.9 311.4 336.1 313.1 335.1C315.8 336.6 322.7 340 331.9 339.4C342.3 338.7 349.3 333.4 351.6 331.5C354.5 331.7 363.5 331.8 372.1 325.7C378.7 321.1 381.8 315.2 383 312.4C384.7 311.5 387.2 309.9 389.8 307.5C389.8 307.5 397.4 300.6 401.2 287.6C404.7 275.2 403.6 251.7 394.4 223.8Z" fill="white"/>
<path d="M369.999 252.6C369.799 252.5 370.599 250.5 372.099 247.3C373.599 244.2 375.899 239.9 379.299 235.6C382.699 231.4 386.499 228.2 389.699 226.5C392.799 224.8 394.999 224.3 394.999 224.5C395.099 224.7 393.099 225.6 390.299 227.5C387.499 229.4 383.899 232.5 380.599 236.6C377.299 240.7 374.899 244.8 373.099 247.8C371.399 250.8 370.299 252.7 369.999 252.6Z" fill="#005797" stroke="#005797" stroke-width="0.5" stroke-miterlimit="10"/>
<path d="M343.199 277.9C342.999 277.8 344.199 275.9 346.099 272.9C347.999 269.9 350.599 265.8 354.199 261.6C357.799 257.4 361.799 254.3 365.099 252.8C368.399 251.2 370.599 251 370.699 251.2C370.799 251.5 368.699 252.1 365.699 253.9C362.699 255.6 358.999 258.7 355.499 262.8C351.999 266.9 349.299 270.9 347.099 273.7C344.799 276.4 343.299 278.1 343.199 277.9Z" fill="#005797" stroke="#005797" stroke-width="0.5" stroke-miterlimit="10"/>
<path d="M285 299.2C285 299.2 285.1 299 285.4 298.7C285.7 298.4 286.2 298 286.9 297.5C288.2 296.5 290.3 295.2 293.2 294.3C296 293.3 299.6 292.6 303.5 292.5C305.5 292.4 307.6 292.5 309.7 292.7C311.8 292.9 313.9 293.1 316 292.8C318.1 292.5 320 291.6 321.7 290.5C323.4 289.4 324.9 288.1 326.4 286.8C327.9 285.5 329.3 284.3 330.8 283.3C332.2 282.3 333.6 281.4 334.9 280.7C337.5 279.3 339.8 278.4 341.4 277.9C343 277.4 343.9 277.3 343.9 277.4C344 277.7 340.5 278.7 335.5 281.7C333 283.2 330.3 285.2 327.4 287.9C326 289.2 324.4 290.6 322.6 291.8C320.8 293 318.6 294 316.3 294.4C313.9 294.7 311.7 294.5 309.6 294.3C307.5 294.1 305.5 294 303.6 294C299.8 294 296.4 294.6 293.6 295.4C287.9 296.9 285.1 299.4 285 299.2Z" fill="#005797" stroke="#005797" stroke-width="0.5" stroke-miterlimit="10"/>
<path d="M282.499 333.1C282.299 333.1 281.599 331.4 280.999 328.5C280.399 325.6 279.899 321.4 279.999 316.8C280.099 312.2 280.799 308.1 281.499 305.2C282.199 302.3 282.999 300.6 283.199 300.6C283.699 300.7 281.799 307.8 281.599 316.8C281.499 325.8 282.999 333 282.499 333.1Z" fill="#005797" stroke="#005797" stroke-width="0.5" stroke-miterlimit="10"/>
<path d="M314.099 334.5C314.199 334.7 312.599 335.9 309.699 337.3C306.799 338.7 302.499 340.2 297.499 340.1C292.399 340 288.099 338 285.599 335.8C283.099 333.6 282.399 331.7 282.499 331.6C282.699 331.4 283.799 333.1 286.299 334.9C288.799 336.7 292.799 338.4 297.499 338.4C302.199 338.5 306.399 337.2 309.299 336.1C312.199 335.1 313.999 334.3 314.099 334.5Z" fill="#005797" stroke="#005797" stroke-width="0.5" stroke-miterlimit="10"/>
<path d="M351.299 331.7C351.399 331.9 349.699 333.3 346.599 335.1C345.099 336 343.199 337.1 341.099 338.1C338.899 339.1 336.399 340 333.599 340.3C330.799 340.6 328.099 340.2 325.799 339.6C323.499 339 321.499 338.3 319.799 337.6C316.499 336.2 314.599 335.1 314.699 334.9C314.799 334.7 316.899 335.4 320.199 336.5C323.499 337.5 328.299 339 333.499 338.6C336.099 338.4 338.499 337.6 340.599 336.7C342.699 335.8 344.599 334.9 346.199 334.1C349.199 332.5 351.199 331.5 351.299 331.7Z" fill="#005797" stroke="#005797" stroke-width="0.5" stroke-miterlimit="10"/>
<path d="M381.6 317.4C381.8 317.5 380.6 319.2 378.4 321.6C376.1 323.9 372.6 326.9 367.9 328.9C363.2 330.8 358.6 331.4 355.4 331.7C352.2 331.9 350.2 331.9 350.1 331.7C350.1 331.5 352.1 331.1 355.2 330.6C358.4 330 362.8 329.3 367.2 327.5C371.6 325.7 375.1 322.9 377.6 320.9C380 318.7 381.4 317.2 381.6 317.4Z" fill="#005797" stroke="#005797" stroke-width="0.5" stroke-miterlimit="10"/>
<path d="M406.699 277C406.899 277 406.799 279.5 405.799 283.5C405.499 284.5 405.299 285.6 404.799 286.7C404.399 287.8 403.899 289 403.399 290.2C402.299 292.6 400.899 295.3 399.199 297.8C397.499 300.4 395.499 302.6 393.699 304.6C392.699 305.5 391.799 306.4 390.899 307.2C389.999 308 389.099 308.7 388.299 309.3C384.999 311.7 382.699 312.7 382.599 312.5C382.499 312.3 384.499 310.9 387.499 308.4C388.299 307.8 389.099 307.1 389.899 306.2C390.799 305.4 391.599 304.5 392.499 303.6C394.199 301.7 396.099 299.5 397.799 297C399.499 294.5 400.899 292 401.999 289.6C402.499 288.4 403.099 287.3 403.499 286.2C403.899 285.1 404.299 284.1 404.599 283.2C405.999 279.4 406.499 277 406.699 277Z" fill="#005797" stroke="#005797" stroke-width="0.5" stroke-miterlimit="10"/>
<path d="M265.4 309.499C265.5 309.599 264.7 310.199 263.1 310.599C262.3 310.799 261.2 310.899 260 310.599C259.4 310.499 258.8 310.299 258.1 309.899C257.5 309.599 256.9 309.199 256.3 308.799C255.2 307.999 253.8 307.599 252.2 307.599C250.6 307.599 248.7 307.899 246.7 307.799C246.2 307.699 245.7 307.699 245.1 307.499C244.6 307.299 243.8 306.999 243.5 306.199C243.2 305.499 243.2 304.799 243.3 304.199C243.4 303.599 243.7 302.999 244.1 302.499C244.8 301.499 245.9 300.799 246.9 300.299C248 299.799 249.1 299.499 250.2 299.299C254.6 298.499 258.8 297.799 262.7 297.699C266.6 297.499 270.2 297.999 273 298.799C275.8 299.599 278 300.199 279.6 300.399C281.2 300.599 282.1 300.499 282.1 300.599C282.1 300.699 281.2 300.999 279.6 300.999C277.9 300.999 275.6 300.499 272.7 299.899C269.9 299.299 266.5 298.999 262.7 299.199C258.9 299.399 254.8 300.099 250.4 300.899C248.3 301.299 246.3 301.999 245.2 303.399C244.7 304.099 244.5 304.999 244.7 305.499C244.8 305.699 245 305.899 245.4 305.999C245.8 306.099 246.2 306.199 246.7 306.299C248.5 306.499 250.3 306.199 252.1 306.299C253 306.299 253.9 306.399 254.7 306.699C255.5 306.999 256.3 307.399 256.9 307.899C257.5 308.299 258 308.799 258.5 309.099C259 309.399 259.6 309.599 260.1 309.799C261.1 310.099 262.1 310.099 262.9 309.999C264.5 309.899 265.3 309.399 265.4 309.499Z" fill="#005797" stroke="#005797" stroke-width="0.5" stroke-miterlimit="10"/>
<path d="M280.7 323.1C280.8 323.3 279.4 324.2 277.1 325.5C274.8 326.8 271.5 328.6 267.5 329.8C263.5 331 259.499 330.9 256.899 330C254.199 329.2 253 327.9 253.1 327.8C253.2 327.6 254.7 328.4 257.2 328.9C259.7 329.4 263.3 329.3 267.1 328.2C270.9 327.1 274.2 325.5 276.6 324.4C279.1 323.4 280.6 322.9 280.7 323.1Z" fill="#005797" stroke="#005797" stroke-width="0.5" stroke-miterlimit="10"/>
<path d="M253.7 370.9C253.5 370.9 253.2 367.4 252.9 361.7C252.6 356 252.2 348.2 251.8 339.5C251.4 330.8 251.1 323 250.9 317.3C250.7 311.6 250.7 308.1 250.9 308.1C251.1 308.1 251.6 311.6 252 317.2C252.5 322.9 253 330.7 253.4 339.4C253.8 348.1 254 355.9 254 361.6C254 367.4 253.9 370.9 253.7 370.9Z" fill="#005797" stroke="#005797" stroke-width="0.5" stroke-miterlimit="10"/>
<path d="M237.299 373.3C237.099 373.3 236.899 369.5 236.599 363.3C236.299 357.1 235.999 348.5 235.599 339.1C235.099 329.7 234.699 321.1 234.399 314.9C234.099 308.7 233.899 304.9 234.199 304.8C234.399 304.8 234.999 308.6 235.599 314.8C236.199 321 236.899 329.5 237.299 339C237.699 348.5 237.899 357 237.799 363.3C237.699 369.4 237.499 373.3 237.299 373.3Z" fill="#005797" stroke="#005797" stroke-width="0.5" stroke-miterlimit="10"/>
<path d="M253.1 370C253.3 370.1 252.9 371.1 251.7 372.3C250.5 373.5 248.4 374.6 246 375.4C244.8 375.8 243.6 376 242.4 376.1C241.2 376.1 240.2 375.9 239.4 375.5C238.6 375.1 238.1 374.6 237.8 374.2C237.5 373.8 237.4 373.5 237.5 373.5C237.7 373.3 238.4 374.1 239.8 374.4C240.5 374.6 241.4 374.7 242.3 374.6C243.3 374.5 244.3 374.3 245.5 373.9C247.8 373.2 249.7 372.3 251 371.5C252.3 370.6 252.9 369.8 253.1 370Z" fill="#005797" stroke="#005797" stroke-width="0.5" stroke-miterlimit="10"/>
<path d="M243 302.5C243.1 302.7 242.9 303.2 242.2 303.8C241.5 304.4 240.4 305 239 305.3C237.6 305.6 236.3 305.4 235.5 305.1C234.6 304.8 234.2 304.4 234.3 304.2C234.5 303.8 236.4 304.2 238.8 303.7C241 303.2 242.7 302.1 243 302.5Z" fill="#005797" stroke="#005797" stroke-width="0.5" stroke-miterlimit="10"/>
<path d="M192 354.7C191.6 354.7 190.8 341.1 190.4 324.4C190 307.6 190 294 190.4 294C190.8 294 191.6 307.6 192 324.3C192.4 341.1 192.4 354.7 192 354.7Z" fill="#005797" stroke="#005797" stroke-width="0.5" stroke-miterlimit="10"/>
<path d="M237.899 376.199C237.799 376.399 235.099 375.799 230.599 374.599C226.199 373.399 220.099 371.499 213.599 368.799C210.299 367.399 207.299 365.999 204.599 364.499C201.899 362.999 199.599 361.499 197.699 360.199C193.899 357.499 191.999 355.399 192.099 355.299C192.299 355.099 194.499 356.899 198.399 359.299C200.299 360.499 202.699 361.899 205.299 363.299C207.999 364.699 210.999 366.099 214.199 367.399C220.599 370.099 226.599 372.099 230.999 373.599C235.299 374.999 237.999 375.999 237.899 376.199Z" fill="#005797" stroke="#005797" stroke-width="0.5" stroke-miterlimit="10"/>
<path d="M233.9 307C233.8 307.2 231.3 306.8 227.3 306C223.3 305.2 217.7 303.9 211.7 302C205.7 300.1 200.4 297.9 196.7 296C193 294.1 190.9 292.6 191 292.5C191.1 292.3 193.4 293.4 197.2 295C201 296.6 206.3 298.6 212.2 300.5C218.2 302.4 223.7 303.8 227.6 305C231.5 306 233.9 306.8 233.9 307Z" fill="#005797" stroke="#005797" stroke-width="0.5" stroke-miterlimit="10"/>
<path d="M243.199 301.899C242.999 302.299 233.999 299.299 223.099 295.099C212.099 290.899 203.399 287.199 203.499 286.799C203.599 286.399 212.699 289.399 223.599 293.599C234.599 297.699 243.399 301.499 243.199 301.899Z" fill="#005797" stroke="#005797" stroke-width="0.5" stroke-miterlimit="10"/>
<path d="M205.7 287.8C205.8 288 205.4 288.7 204.4 289.6C203.4 290.5 201.8 291.6 199.9 292.4C198 293.2 196.1 293.5 194.8 293.5C193.5 293.5 192.6 293.3 192.6 293.1C192.6 292.6 195.8 292.3 199.3 290.9C202.9 289.4 205.4 287.4 205.7 287.8Z" fill="#005797" stroke="#005797" stroke-width="0.5" stroke-miterlimit="10"/>
<path d="M225.699 301.7C225.599 302.1 218.999 300.7 210.999 298.2C203.099 295.7 196.799 293.1 196.999 292.7C197.199 292.3 203.599 294.1 211.499 296.6C219.499 299.1 225.799 301.2 225.699 301.7Z" fill="#005797" stroke="#005797" stroke-width="0.5" stroke-miterlimit="10"/>
<path d="M234.1 302.5C233.9 302.9 226.9 300.6 218.3 297.4C209.7 294.2 202.9 291.2 203.1 290.8C203.3 290.4 210.3 292.7 218.9 295.9C227.4 299.1 234.3 302.1 234.1 302.5Z" fill="#005797" stroke="#005797" stroke-width="0.5" stroke-miterlimit="10"/>
<path d="M375.1 463.2C381.3 464.2 387.5 465.2 393.8 466.1C397.8 470 403.7 476.1 410.4 484C421.3 496.9 426.1 504.8 428.1 503.9C430.4 502.8 427.2 491.3 424.8 482.7C421.4 470.5 417.6 460.6 414.8 453.8C403.2 450.5 391.6 447.3 380.1 444C378.4 450.4 376.8 456.8 375.1 463.2Z" fill="#005797"/>
<path d="M383.699 379.6C376.999 379.9 366.399 380.3 353.299 380.9C327.099 381.9 322.799 382 313.799 382.9C298.799 384.5 286.699 386.8 274.399 391C264.999 394.2 259.299 397.2 254.199 402.1C247.199 408.8 244.599 416.1 243.999 418.1C242.799 421.6 241.099 426.8 242.399 433.3C243.799 440.3 247.899 444.8 250.199 447.3C256.699 454.2 264.199 456.9 267.599 458C296.699 468 311.199 473 323.699 475.6C336.299 478.2 352.699 481.2 372.099 483.7C372.799 480.6 373.799 475.8 374.799 469.9C375.799 464 375.899 462.1 376.599 458.8C377.499 454.6 379.199 448.7 382.899 441.7C392.799 443.1 400.999 443.9 406.699 444.4C441.399 447.2 455.799 443.8 462.299 441.8C471.199 439.2 475.799 437.8 479.399 433.4C488.699 422.2 483.999 401.9 477.599 391.8C464.499 371.1 426.599 365.7 383.699 379.6Z" fill="white"/>
<path d="M387.3 379.4C387.3 379.5 386.8 379.5 385.8 379.6C384.8 379.7 383.3 379.8 381.4 379.9C377.5 380.2 372 380.5 365.1 380.8C358.2 381.1 350 381.5 340.9 382C331.8 382.4 321.8 382.8 311.3 383.8C306.1 384.3 301 385 296.1 385.8C291.2 386.7 286.6 387.8 282.2 389C273.5 391.5 266 394.9 260.2 398.5C257.2 400.2 254.7 402.1 252.7 403.9C250.7 405.7 249.2 407.6 248.3 409.2C246.4 412.5 246.3 414.7 246.1 414.7C246.1 414.7 246.1 414.2 246.2 413.1C246.4 412.1 246.8 410.6 247.7 408.9C248.6 407.2 250.1 405.2 252 403.3C254 401.4 256.5 399.4 259.5 397.6C265.4 393.9 272.9 390.3 281.7 387.7C286.1 386.4 290.8 385.3 295.7 384.4C300.6 383.5 305.7 382.8 311 382.3C321.5 381.3 331.6 380.9 340.7 380.6C349.8 380.3 358 380 364.9 379.8C371.8 379.6 377.4 379.4 381.2 379.4C383.1 379.4 384.6 379.4 385.6 379.4C386.8 379.3 387.3 379.4 387.3 379.4Z" fill="#005797" stroke="#005797" stroke-width="0.5" stroke-miterlimit="10"/>
<path d="M373.399 483C373.399 483.1 372.799 483.1 371.699 483C370.599 483 368.899 482.9 366.799 482.7C362.599 482.4 356.399 481.8 348.899 480.8C341.399 479.8 332.399 478.2 322.599 476C312.799 473.8 302.099 470.9 290.999 467.3C285.499 465.5 280.099 463.6 274.999 461.6C269.899 459.7 264.899 457.7 260.399 455.3C255.899 452.9 251.899 450.1 248.799 446.7C245.699 443.4 243.499 439.6 242.399 435.8C241.299 432 241.299 428.4 241.699 425.4C242.099 422.4 242.899 419.8 243.599 417.8C244.299 415.8 244.999 414.3 245.399 413.2C245.899 412.2 246.199 411.7 246.199 411.7C246.299 411.8 245.399 413.9 244.199 418C243.599 420 242.899 422.5 242.599 425.5C242.299 428.4 242.299 431.9 243.499 435.4C244.599 438.9 246.799 442.5 249.799 445.7C252.799 448.9 256.699 451.6 261.099 453.9C265.499 456.2 270.399 458.1 275.499 460C280.599 461.9 285.899 463.8 291.399 465.6C302.399 469.2 312.999 472.1 322.799 474.4C332.599 476.7 341.499 478.3 348.999 479.5C356.499 480.7 362.599 481.4 366.799 481.9C368.899 482.1 370.499 482.3 371.699 482.5C372.799 482.8 373.399 482.9 373.399 483Z" fill="#005797" stroke="#005797" stroke-width="0.5" stroke-miterlimit="10"/>
<path d="M372.099 483.6C371.999 483.6 371.999 482.2 372.099 479.7C372.199 477.2 372.599 473.5 373.299 469C374.099 464.5 375.299 459.2 377.099 453.4C377.999 450.5 379.099 447.5 380.399 444.4C380.999 442.9 381.699 441.3 382.499 439.7C382.899 438.9 383.199 438.1 383.599 437.3C383.799 436.8 384.099 436.3 384.399 435.8C382.599 435.3 380.899 434.8 379.099 434.3C363.899 430.1 350.199 426.2 340.299 423.3C335.299 421.8 331.299 420.6 328.599 419.8C325.899 419 324.299 418.4 324.399 418.3C324.499 418.2 325.999 418.5 328.799 419.2C331.599 419.9 335.699 420.9 340.699 422.2C350.699 424.8 364.499 428.6 379.599 432.8C382.099 433.5 384.499 434.2 386.899 434.8C386.299 435.9 385.799 437 385.199 438C384.799 438.8 384.399 439.6 384.099 440.3C383.399 441.8 382.699 443.4 381.999 444.9C380.699 447.9 379.599 450.9 378.599 453.8C376.699 459.5 375.399 464.8 374.499 469.2C373.599 473.6 373.099 477.2 372.799 479.7C372.399 482.2 372.199 483.6 372.099 483.6Z" fill="#005797" stroke="#005797" stroke-width="0.5" stroke-miterlimit="10"/>
<path d="M424.499 500.3C424.299 500.4 421.799 497.8 417.799 493.5C413.799 489.2 408.399 483.1 402.599 476.4C401.099 474.7 399.699 473.1 398.299 471.5C396.899 469.9 395.699 468.3 394.199 467.3C392.799 466.3 390.999 465.9 389.299 465.6C387.599 465.3 385.999 465 384.599 464.7C378.899 463.5 375.299 462.7 375.399 462.5C375.499 462.3 378.999 462.7 384.799 463.6C386.299 463.8 387.799 464.1 389.499 464.3C391.199 464.6 393.199 464.9 394.999 466.1C396.799 467.3 398.099 468.9 399.499 470.5C400.899 472.1 402.299 473.7 403.799 475.4C409.699 482.1 414.899 488.3 418.699 492.8C422.499 497.2 424.699 500.1 424.499 500.3Z" fill="#005797" stroke="#005797" stroke-width="0.5" stroke-miterlimit="10"/>
<path d="M429.3 500.9C429.2 500.9 428.8 499.8 428.2 497.7C427.6 495.6 426.8 492.6 425.8 488.8C423.7 481.3 420.7 471.1 416.9 459.9C416.4 458.5 416 457.1 415.3 456C414.7 454.8 413.8 453.9 412.7 453.3C411.6 452.7 410.3 452.3 409.1 451.9C407.8 451.5 406.6 451.2 405.3 450.8C400.4 449.4 395.9 448.2 392.2 447.3C388.4 446.4 385.4 445.6 383.3 445.1C381.2 444.6 380 444.2 380.1 444.1C380.1 444 381.3 444.1 383.5 444.5C385.6 444.8 388.7 445.4 392.5 446.2C396.3 447 400.8 448.1 405.8 449.4C407 449.7 408.3 450.1 409.6 450.4C410.9 450.8 412.3 451.2 413.6 451.9C414.9 452.6 416.1 453.8 416.8 455.2C417.5 456.6 418 458 418.5 459.4C422.3 470.6 425.2 481 427 488.6C427.9 492.4 428.5 495.5 428.9 497.6C429.3 499.7 429.4 500.9 429.3 500.9Z" fill="#005797" stroke="#005797" stroke-width="0.5" stroke-miterlimit="10"/>
<path d="M467.599 440.8C467.599 440.9 466.499 441.2 464.399 441.7C463.299 441.9 462.099 442.2 460.499 442.5C458.999 442.8 457.299 443.1 455.399 443.3C451.599 443.9 446.999 444.4 441.899 444.9C436.799 445.3 431.199 445.6 425.299 445.7C419.399 445.7 413.799 445.6 408.699 445.2C403.599 444.9 398.999 444.4 395.199 443.9C393.299 443.7 391.599 443.4 389.999 443.2C388.499 443 387.199 442.7 386.099 442.5C383.999 442.1 382.799 441.8 382.799 441.7C382.799 441.4 387.599 442.1 395.199 442.8C398.999 443.2 403.599 443.5 408.699 443.8C413.799 444 419.299 444.2 425.199 444.1C431.099 444 436.599 443.8 441.699 443.5C446.799 443.1 451.299 442.7 455.099 442.3C462.899 441.3 467.599 440.6 467.599 440.8Z" fill="#005797" stroke="#005797" stroke-width="0.5" stroke-miterlimit="10"/>
<path d="M396.1 223.2C395 225.1 393.9 227.3 392.9 229.7C388.9 239.9 389.1 249.4 389.9 255.5C388.8 259.7 387.8 265.1 387.9 271.5C388.1 283.5 391.9 292.7 394.5 298C393.4 300.3 392.3 303 391.4 305.9C387.8 317.5 388.6 328 389.9 334.9C387.9 338.2 385.9 342.1 384.2 346.8C379.8 359.1 380 370.2 380.8 377.2C382.8 379 385.7 381.5 389.4 384C406.4 395.5 423.7 397 435.5 397.9C445.7 398.7 459.5 399.6 476.1 393.9C486.2 390.4 493.9 385.7 498.9 382.1C500.2 378 501.4 373.4 502.1 368.3C504.4 352.6 501.9 339.3 499.4 330.4C500.4 327 501.2 322.5 501.4 317.4C501.7 308.5 499.7 301.3 498 296.7C499.6 292.5 501.1 288 502.4 283.1C507.4 263.5 506.8 245.9 504.9 232.9C501.7 229.9 496.7 226.1 489.8 223.6C473.1 217.5 457.9 223.6 453.8 225.4C450.6 224.5 447 223.7 443 223.2C431.9 222 422.5 223.9 416.2 225.8C411.7 225.2 407.2 224.6 402.6 224.1C400.5 223.8 398.3 223.5 396.1 223.2Z" fill="white"/>
<path d="M418.201 228.299C418.101 228.499 416.801 227.899 414.701 226.899C412.701 225.899 409.801 224.599 406.501 223.799C403.201 222.999 400.101 222.899 397.901 223.199C395.701 223.499 394.401 223.999 394.301 223.699C394.201 223.499 395.401 222.599 397.701 221.999C400.001 221.399 403.401 221.199 406.901 222.099C410.401 222.999 413.301 224.499 415.201 225.799C417.301 227.199 418.301 228.199 418.201 228.299Z" fill="#005797" stroke="#005797" stroke-width="0.5" stroke-miterlimit="10"/>
<path d="M452.199 226.099C452.099 226.599 443.899 223.899 433.399 223.999C422.899 223.999 414.799 226.899 414.599 226.399C414.499 226.199 416.499 225.299 419.799 224.299C421.499 223.799 423.499 223.399 425.799 222.999C428.099 222.699 430.599 222.399 433.299 222.399C435.999 222.399 438.499 222.599 440.799 222.899C443.099 223.199 445.099 223.599 446.799 224.099C450.299 224.999 452.199 225.899 452.199 226.099Z" fill="#005797" stroke="#005797" stroke-width="0.5" stroke-miterlimit="10"/>
<path d="M504.901 232.8C504.801 232.9 504.401 232.3 503.401 231.3C502.501 230.4 501.001 229.2 498.901 228.1C494.801 225.9 488.601 223.5 481.501 222.5C474.401 221.4 467.801 221.8 463.101 222.5C458.401 223.2 455.601 224.1 455.501 223.8C455.401 223.6 458.201 222.4 462.901 221.3C467.601 220.3 474.401 219.7 481.701 220.8C489.001 221.9 495.301 224.5 499.501 227.1C501.601 228.4 503.001 229.8 503.901 230.9C504.801 232 505.001 232.7 504.901 232.8Z" fill="#005797" stroke="#005797" stroke-width="0.5" stroke-miterlimit="10"/>
<path d="M396.001 300.6C395.801 300.7 394.601 298.3 393.001 294.4C391.401 290.5 389.301 285 388.101 278.6C386.801 272.2 386.901 266.2 387.701 262C388.501 257.8 389.701 255.4 389.901 255.5C390.201 255.6 389.301 258.1 388.901 262.2C388.401 266.3 388.501 272.1 389.701 278.3C390.901 284.5 392.801 290 394.101 294C395.401 298 396.201 300.5 396.001 300.6Z" fill="#005797" stroke="#005797" stroke-width="0.5" stroke-miterlimit="10"/>
<path d="M390.3 335.6C390.1 335.6 390.3 333.4 389.9 330C389.4 326.6 388.9 321.7 389.2 316.4C389.4 311 390.6 306.2 391.9 303C393.2 299.7 394.5 297.9 394.7 298C394.9 298.1 394 300.1 393 303.3C392 306.6 391.1 311.2 390.8 316.4C390.5 321.6 390.9 326.4 391.1 329.9C391.2 333.5 390.5 335.6 390.3 335.6Z" fill="#005797" stroke="#005797" stroke-width="0.5" stroke-miterlimit="10"/>
<path d="M381.6 375.7C381.4 375.7 380.8 373.4 380.4 369.5C380.2 367.6 380.2 365.2 380.3 362.7C380.5 360.1 380.8 357.3 381.4 354.4C382 351.5 382.8 348.8 383.7 346.3C384.6 343.9 385.6 341.8 386.5 340.1C388.3 336.7 389.9 334.8 390 334.9C390.2 335 389.1 337.1 387.5 340.6C386.7 342.3 385.9 344.5 385.1 346.8C384.3 349.2 383.6 351.9 383 354.7C382.4 357.5 382.1 360.3 381.8 362.8C381.6 365.3 381.5 367.6 381.6 369.5C381.6 373.3 381.8 375.7 381.6 375.7Z" fill="#005797" stroke="#005797" stroke-width="0.5" stroke-miterlimit="10"/>
<path d="M500.5 380.8C500.5 380.8 500.2 381.2 499.6 381.8C499 382.4 498.1 383.3 496.8 384.3C494.3 386.3 490.3 389 484.9 391.4C483.6 392 482.1 392.5 480.6 393.2C479.1 393.7 477.5 394.3 475.9 394.8C472.6 395.8 469 396.6 465.2 397.3C457.6 398.6 449.1 399.2 440.1 399C435.6 398.9 431.3 398.5 427.1 398C422.9 397.4 418.9 396.7 415.2 395.8C407.7 393.9 401.1 391.4 396 388.6C390.8 385.8 387 383 384.5 380.9C383.3 379.8 382.4 378.9 381.8 378.3C381.2 377.7 380.9 377.4 380.9 377.3C381 377.2 382.4 378.4 384.9 380.4C387.5 382.3 391.3 385 396.5 387.6C401.6 390.2 408.1 392.6 415.5 394.4C419.2 395.3 423.2 396 427.3 396.5C431.4 397 435.7 397.3 440.1 397.4C448.9 397.6 457.3 397 464.9 395.8C468.7 395.2 472.2 394.4 475.5 393.5C477.1 393.1 478.7 392.5 480.2 392.1C481.7 391.5 483.1 391.1 484.4 390.5C489.7 388.3 493.7 385.8 496.4 383.9C497.7 383 498.7 382.2 499.4 381.7C500.1 381 500.5 380.7 500.5 380.8Z" fill="#005797" stroke="#005797" stroke-width="0.5" stroke-miterlimit="10"/>
<path d="M494.1 305.5C493.9 305.4 494.4 303 496.1 299.4C497.8 295.8 499.9 290.9 501.2 285.1C502.6 279.3 502.9 274 502.9 270.1C502.9 266.2 502.7 263.8 502.9 263.8C503.1 263.8 503.7 266.1 504 270.1C504.3 274 504.1 279.6 502.7 285.5C501.4 291.4 499 296.5 497.1 299.9C495.2 303.3 494.3 305.5 494.1 305.5Z" fill="#005797" stroke="#005797" stroke-width="0.5" stroke-miterlimit="10"/>
<path d="M499.1 332.2C498.6 332.1 501 324 500.9 313.8C500.9 303.6 498.5 295.6 499 295.4C499.2 295.3 500 297.3 500.9 300.6C501.8 303.9 502.5 308.6 502.5 313.8C502.5 319 501.8 323.7 500.9 327C500.1 330.3 499.3 332.3 499.1 332.2Z" fill="#005797" stroke="#005797" stroke-width="0.5" stroke-miterlimit="10"/>
<path d="M498.1 385C497.9 384.9 498.8 381.9 499.9 376.9C500.5 374.4 501 371.4 501.5 368.1C502 364.7 502.4 361 502.6 357.1C502.8 353.2 502.7 349.5 502.6 346.1C502.4 342.7 502.1 339.7 501.8 337.1C501.1 332 500.5 328.9 500.7 328.8C500.9 328.8 501.9 331.8 502.9 336.9C503.4 339.4 503.8 342.5 504.1 345.9C504.3 349.3 504.4 353.1 504.3 357.1C504.1 361.1 503.7 364.8 503.1 368.2C502.5 371.6 501.8 374.6 501.1 377.1C499.6 382.2 498.3 385.1 498.1 385Z" fill="#005797" stroke="#005797" stroke-width="0.5" stroke-miterlimit="10"/>
<path d="M435.999 235.6C436.099 235.6 436.099 236.1 435.899 236.9C435.699 237.7 435.499 238.8 434.899 240.2C434.299 241.5 433.399 243.2 431.799 244.4C430.999 245 429.999 245.6 428.899 245.9C428.299 246 427.799 246.1 427.099 246.1C426.799 246.1 426.499 246.1 426.199 246C425.899 245.9 425.499 245.9 425.199 245.7C424.799 245.5 424.499 245.1 424.299 244.6C424.099 244.1 424.199 243.7 424.299 243.3C424.499 242.6 424.899 242.1 425.199 241.7C425.899 240.9 426.599 240.2 427.299 239.5C428.699 238.2 430.099 237.1 431.299 236.4C433.699 234.8 435.399 234.3 435.499 234.4C435.599 234.6 434.099 235.5 431.999 237.3C430.899 238.2 429.699 239.3 428.399 240.6C427.799 241.3 427.099 242 426.499 242.7C426.199 243 425.999 243.4 425.899 243.7C425.799 244 425.899 244.1 425.999 244.2C426.199 244.3 426.699 244.4 427.199 244.4C427.599 244.4 428.099 244.4 428.499 244.3C429.399 244.1 430.199 243.7 430.899 243.2C432.299 242.2 433.199 240.8 433.799 239.6C434.499 238.4 434.899 237.3 435.199 236.6C435.699 236 435.899 235.6 435.999 235.6Z" fill="#005797" stroke="#005797" stroke-width="0.5" stroke-miterlimit="10"/>
<path d="M427.5 309.7C427.3 309.7 426.3 306.4 425.5 300.7C425.1 297.9 424.7 294.5 424.5 290.8C424.3 287 424.4 282.9 424.6 278.6C424.9 274.3 425.5 270.2 426.1 266.5C426.8 262.8 427.6 259.5 428.4 256.8C430 251.3 431.4 248.1 431.6 248.2C431.8 248.3 430.8 251.6 429.5 257.1C428.8 259.8 428.2 263.1 427.6 266.8C427 270.5 426.5 274.5 426.2 278.8C425.9 283.1 425.9 287.2 425.9 290.9C426 294.6 426.2 298 426.5 300.8C427.2 306.2 427.8 309.6 427.5 309.7Z" fill="#005797" stroke="#005797" stroke-width="0.5" stroke-miterlimit="10"/>
<path d="M423.4 374.4C423.3 374.4 422.9 373.7 422.3 372.2C421.7 370.7 421 368.5 420.6 365.8C420.1 363 419.9 359.6 420.2 355.9C420.4 354 420.7 352.1 421.1 350.1C421.6 348.1 422.1 346.1 422.7 344.1C425.1 336 424.6 328.3 425.3 322.7C425.8 317.1 427.3 313.8 427.5 313.9C427.7 314 426.7 317.3 426.5 322.8C426.3 325.6 426.4 328.9 426.2 332.6C426.1 334.5 426 336.4 425.7 338.4C425.4 340.4 424.9 342.5 424.4 344.6C423.8 346.7 423.3 348.6 422.8 350.6C422.3 352.5 422 354.4 421.8 356.2C421.4 359.8 421.5 363.1 421.9 365.8C422.4 371.1 423.7 374.3 423.4 374.4Z" fill="#005797" stroke="#005797" stroke-width="0.5" stroke-miterlimit="10"/>
<path d="M421.2 393.6C421 393.7 420.4 392.9 419.9 391.5C419.3 390.1 418.9 388 418.9 385.6C418.9 383.2 419.4 381.1 419.9 379.7C420.4 378.3 421 377.5 421.2 377.6C421.6 377.8 420.5 381.2 420.5 385.6C420.4 389.9 421.6 393.4 421.2 393.6Z" fill="#005797" stroke="#005797" stroke-width="0.5" stroke-miterlimit="10"/>
<path d="M399.8 493.1C397.1 494.5 396.3 496.2 393.5 499.9C381.7 515.1 370.3 516.5 370.6 523.6C370.7 525.6 373.1 528.2 377.8 533.2C382.7 538.4 385.6 540.5 392 546.2C395.9 549.6 403.1 556 413.1 563.1C416.4 565.4 420.1 568 422.4 566.7C424.2 565.7 424.4 562.8 424.4 561.6C424.7 555.1 420.7 550.2 415.5 543.6C412.5 539.8 407.9 533.8 402.3 526C404.2 522 406.6 517.5 409.8 512.9C414 506.6 418.5 501.7 422.4 497.9C415.7 493.7 406.7 489.7 399.8 493.1Z" fill="#005797"/>
<path d="M377.799 491C379.299 488 381.499 483.6 384.399 478.5C387.299 473.5 399.599 452.2 427.299 423.1C445.699 403.8 458.399 394.2 481.999 376.3C484.999 374 493.999 367.3 507.399 363.3C513.899 361.3 527.299 357.5 537.899 363.6C539.799 364.7 543.699 367 545.799 371.7C546.599 373.6 547.599 376.7 546.799 381.7C545.299 391.5 538.899 398.4 535.199 402.7C529.199 409.6 540.599 397.7 515.699 430.4C503.799 446 496.999 455 486.299 467.6C476.699 479.1 463.399 494.1 446.799 510.9C442.799 515 439.399 518.4 436.899 520.8C434.899 517.1 431.699 512 426.499 507C422.999 503.5 416.399 498 406.699 494.2C394.199 489.4 383.199 490.2 377.799 491Z" fill="white"/>
<path d="M468.8 384.3C468.9 384.4 467.4 385.7 464.8 388C463.5 389.2 461.8 390.6 460 392.3C458.1 394 456 395.9 453.7 398C452.5 399.1 451.3 400.2 450.1 401.4C448.8 402.6 447.6 403.8 446.2 405.1C443.5 407.6 440.7 410.5 437.8 413.4C432 419.4 425.7 426.1 419.4 433.3C413.1 440.6 407.4 447.7 402.3 454.4C399.8 457.7 397.4 460.9 395.3 463.9C394.2 465.4 393.2 466.9 392.2 468.3C391.2 469.7 390.3 471.1 389.4 472.4C387.6 475 386 477.4 384.6 479.5C383.2 481.6 382 483.4 381.1 484.9C379.2 487.9 378.1 489.5 378 489.4C377.9 489.3 378.8 487.6 380.6 484.6C381.5 483.1 382.6 481.2 383.9 479.1C385.2 477 386.7 474.5 388.5 471.9C389.4 470.6 390.3 469.2 391.2 467.8C392.2 466.4 393.2 464.9 394.3 463.4C396.4 460.3 398.8 457.1 401.2 453.7C406.2 447 412 439.8 418.3 432.5C424.7 425.2 431 418.5 436.9 412.6C439.9 409.7 442.7 406.9 445.5 404.4C446.9 403.1 448.2 401.9 449.5 400.7C450.8 399.6 452 398.5 453.2 397.4C455.6 395.3 457.8 393.5 459.7 391.8C461.6 390.2 463.3 388.8 464.7 387.7C467.2 385.3 468.8 384.2 468.8 384.3Z" fill="#005797" stroke="#005797" stroke-width="0.5" stroke-miterlimit="10"/>
<path d="M435.798 519C435.698 519.1 435.098 518.3 434.098 516.9C433.898 516.5 433.598 516.2 433.298 515.7C432.998 515.3 432.598 514.8 432.198 514.4C431.398 513.5 430.598 512.3 429.598 511.2C429.098 510.6 428.498 510 427.998 509.4C427.398 508.8 426.798 508.2 426.098 507.6C424.798 506.3 423.298 505.1 421.798 503.8C418.598 501.3 414.898 498.9 410.698 496.9C406.498 494.9 402.298 493.5 398.398 492.5C396.398 492.1 394.598 491.6 392.798 491.5C391.898 491.4 391.098 491.2 390.198 491.2C389.398 491.1 388.598 491.1 387.798 491C386.298 490.8 384.898 490.9 383.698 490.9C383.098 490.9 382.498 490.9 381.998 490.9C381.498 490.9 380.998 491 380.598 491C378.898 491.1 377.898 491.1 377.898 491C377.898 490.9 378.798 490.7 380.498 490.4C380.898 490.3 381.398 490.2 381.898 490.2C382.398 490.1 382.998 490.1 383.598 490.1C384.798 490 386.198 489.9 387.798 489.9C388.598 489.9 389.398 489.9 390.298 490C391.198 490 391.998 490.2 392.898 490.2C394.698 490.3 396.698 490.7 398.698 491.1C402.698 492 407.098 493.4 411.398 495.5C415.698 497.6 419.498 500.1 422.698 502.7C424.298 504.1 425.798 505.3 426.998 506.7C427.598 507.4 428.298 508 428.798 508.6C429.298 509.3 429.898 509.9 430.398 510.5C431.398 511.7 432.198 512.9 432.898 513.9C433.198 514.4 433.598 514.9 433.898 515.3C434.198 515.8 434.398 516.2 434.598 516.6C435.498 518 435.898 518.9 435.798 519Z" fill="#005797" stroke="#005797" stroke-width="0.5" stroke-miterlimit="10"/>
<path d="M436.998 520.7C436.998 520.7 437.098 520.5 437.498 520.1C437.798 519.8 438.298 519.2 438.898 518.6C440.198 517.3 442.098 515.3 444.498 512.8C449.398 507.7 456.398 500.4 464.898 491.1C481.798 472.5 504.198 445.9 526.098 414.4C528.898 410.5 531.498 406.5 534.098 402.7C535.398 400.8 536.698 398.8 537.898 396.9C539.198 395 540.398 393.1 541.598 391.2C543.898 387.4 545.898 383.4 546.198 379.2C546.398 377.1 546.098 375.1 545.398 373.2C544.698 371.3 543.598 369.6 542.198 368.1C539.498 365.1 535.898 363.3 532.198 362.3C528.498 361.3 524.698 361.2 521.098 361.4C513.798 361.9 507.198 364.1 501.498 366.5C495.698 368.9 490.798 371.7 486.398 374.1C482.098 376.6 478.398 378.8 475.398 380.7C472.398 382.6 470.098 384.1 468.598 385.1C466.998 386.1 466.198 386.6 466.198 386.6C466.198 386.6 466.398 386.4 466.698 386.1C467.098 385.8 467.598 385.4 468.398 384.8C469.898 383.7 472.098 382.1 474.998 380.2C477.898 378.2 481.598 375.9 485.898 373.4C490.198 370.9 495.198 368 500.998 365.5C506.798 363 513.498 360.7 520.998 360.1C524.698 359.8 528.698 359.9 532.598 360.9C536.498 361.9 540.398 363.9 543.298 367.1C544.798 368.7 545.998 370.6 546.798 372.7C547.598 374.8 547.898 377.1 547.698 379.4C547.298 384 545.198 388.2 542.898 392.1C541.698 394.1 540.398 396 539.198 397.9C537.898 399.8 536.598 401.8 535.398 403.7C532.798 407.6 530.098 411.5 527.298 415.4C505.298 446.9 482.698 473.5 465.598 491.9C456.998 501.1 449.798 508.3 444.798 513.3C442.298 515.8 440.298 517.6 438.898 518.9C438.198 519.5 437.698 520 437.298 520.3C437.198 520.6 436.998 520.7 436.998 520.7Z" fill="#005797" stroke="#005797" stroke-width="0.5" stroke-miterlimit="10"/>
<path d="M416.499 564.8C416.399 564.9 415.199 564.1 412.999 562.6C410.799 561.1 407.699 558.9 403.799 556.1C396.199 550.5 385.699 542.5 375.599 532C374.299 530.7 373.099 529.4 371.999 528C371.399 527.3 370.799 526.6 370.299 525.8C370.099 525.4 369.899 524.9 369.799 524.3C369.699 523.8 369.799 523.2 369.999 522.7C370.399 521.7 371.099 521 371.699 520.4C372.299 519.8 372.899 519.2 373.499 518.6C374.699 517.4 375.799 516.3 376.899 515.2C381.299 510.8 385.299 506.8 388.699 503.5C392.099 500.2 394.799 497.5 396.799 495.7C398.699 493.9 399.799 492.9 399.899 493C399.999 493.1 398.999 494.2 397.199 496.1C395.399 498.1 392.799 500.8 389.499 504.3C386.199 507.7 382.299 511.8 377.899 516.3C376.799 517.4 375.699 518.6 374.499 519.7C373.899 520.3 373.299 520.9 372.799 521.5C372.199 522.1 371.699 522.7 371.499 523.3C370.999 524.4 371.999 525.8 373.199 527.1C374.399 528.4 375.599 529.7 376.799 531C386.699 541.4 397.099 549.5 404.499 555.3C408.199 558.2 411.299 560.5 413.399 562.2C415.399 563.8 416.599 564.7 416.499 564.8Z" fill="#005797" stroke="#005797" stroke-width="0.5" stroke-miterlimit="10"/>
<path d="M413.099 563.2C413.099 563.2 413.399 563.1 413.999 563.2C414.599 563.3 415.499 563.7 416.499 564.3C416.999 564.6 417.499 564.9 418.099 565.3C418.699 565.6 419.299 566 419.999 566.2C420.699 566.4 421.499 566.5 422.299 566.3C423.099 566.1 423.799 565.7 423.999 564.9C424.299 564.1 424.099 563.2 423.799 562.1C423.499 561.1 423.099 560 422.699 558.9C421.899 556.7 420.899 554.4 419.699 552C417.299 547.3 414.099 542.3 410.099 537.7C408.099 535.4 405.799 533.4 403.899 531C402.999 529.8 402.199 528.5 401.699 527C401.199 525.6 401.199 523.9 401.599 522.5C402.099 521 402.999 519.9 403.799 519C404.599 518 405.399 517.1 406.199 516.2C407.699 514.4 409.199 512.7 410.499 511.1C413.099 508 415.299 505.5 416.799 503.8C418.299 502.1 419.199 501.2 419.299 501.3C419.399 501.4 418.699 502.4 417.299 504.2C415.899 506 413.899 508.6 411.399 511.8C410.099 513.4 408.699 515.1 407.199 517C406.499 517.9 405.699 518.9 404.899 519.9C404.099 520.9 403.299 521.9 402.999 523C402.699 524.1 402.699 525.4 403.099 526.6C403.499 527.8 404.199 529 405.099 530.1C406.799 532.3 409.099 534.3 411.199 536.7C415.399 541.4 418.599 546.5 420.999 551.4C422.199 553.8 423.199 556.2 423.899 558.5C424.299 559.6 424.599 560.8 424.899 561.8C425.199 562.9 425.499 564.1 424.999 565.3C424.799 565.9 424.399 566.4 423.899 566.7C423.399 567 422.899 567.2 422.399 567.3C421.399 567.5 420.399 567.3 419.599 567.1C418.799 566.8 418.099 566.4 417.499 566C416.899 565.6 416.399 565.2 415.899 564.9C414.399 563.5 413.099 563.3 413.099 563.2Z" fill="#005797" stroke="#005797" stroke-width="0.5" stroke-miterlimit="10"/>
<path d="M504.999 232.8C502.199 233.9 498.999 235.4 495.799 237.8C483.499 247 480.799 261.4 480.199 266C481.199 266.9 482.699 268.3 483.899 270.3C486.899 275.4 486.199 280.8 486.099 282.8C485.899 287.8 488.299 295.3 500.699 306.1C499.199 308.6 497.599 311.9 496.499 315.9C493.999 325.3 495.699 333.4 496.899 337.4C496.399 338.5 495.899 340.2 495.699 342.3C495.499 344.4 495.799 346.1 495.999 347.3C494.999 349.1 493.299 352.5 493.599 356.9C493.999 362.7 497.599 367.6 498.699 367.2C500.099 366.7 497.099 357.8 500.699 355.4C501.799 354.7 503.199 354.7 504.299 354.9C506.999 358.5 507.499 361.3 507.499 363.3C507.399 367.3 504.899 369 501.799 376.7C500.899 379 499.099 383.5 499.999 384.1C500.599 384.4 502.299 383.3 507.099 377.4C507.599 379.2 508.199 379.7 508.699 379.7C509.999 379.9 510.999 376.8 513.399 376.6C514.099 376.5 514.699 376.7 514.999 376.9C515.399 376.9 515.899 376.9 516.499 376.8C520.699 375.9 522.599 370.5 523.799 370.9C524.299 371.1 523.999 372.4 524.599 372.6C525.499 373 527.199 370.7 527.799 369.8C530.499 366.1 531.899 364.2 533.599 360.5C534.699 358.1 536.099 354.7 537.299 350.5C537.599 350.8 538.599 351.9 539.599 351.6C540.499 351.4 540.899 350.1 541.199 349.1C542.899 342.7 541.999 336.6 541.999 336.6C541.699 334.7 541.199 332 540.099 328.8C540.399 327.3 540.899 325.1 541.299 322.5C542.299 315.1 543.699 305.6 540.399 296.2C539.199 292.8 536.099 285.7 527.999 279C527.699 276.5 527.299 273.1 526.499 269C525.499 263.8 523.999 258.1 522.799 254.7C521.599 251.2 517.599 242.2 504.999 232.8Z" fill="white"/>
<path d="M527.599 279.4C527.399 279.4 527.099 276.4 526.399 271.5C525.699 266.7 524.399 260 521.399 253.2C518.499 246.4 514.399 241 510.899 237.6C507.399 234.2 504.799 232.7 504.899 232.4C504.999 232.2 507.899 233.5 511.599 236.7C515.399 239.9 519.799 245.5 522.799 252.5C525.799 259.5 526.899 266.4 527.399 271.3C527.999 276.4 527.799 279.4 527.599 279.4Z" fill="#005797" stroke="#005797" stroke-width="0.5" stroke-miterlimit="10"/>
<path d="M484.8 271.4C484.5 271.7 483.1 270.7 481.9 269.2C480.6 267.7 479.9 266.3 480.2 266C480.5 265.7 481.9 266.7 483.1 268.2C484.3 269.6 485.1 271.1 484.8 271.4Z" fill="#005797" stroke="#005797" stroke-width="0.5" stroke-miterlimit="10"/>
<path d="M500.3 306.499C500.2 306.699 498.3 305.399 495.5 302.999C494.1 301.799 492.6 300.199 491.1 298.299C489.6 296.299 488.3 293.899 487.4 291.299C485.4 285.999 484.9 280.899 484.7 277.299C484.5 273.699 484.5 271.399 484.8 271.399C485 271.399 485.4 273.599 485.9 277.199C486.4 280.699 487.1 285.699 489 290.799C489.9 293.299 491.1 295.599 492.4 297.499C493.7 299.399 495.2 300.999 496.4 302.299C498.8 304.799 500.5 306.299 500.3 306.499Z" fill="#005797" stroke="#005797" stroke-width="0.5" stroke-miterlimit="10"/>
<path d="M541.199 323.899C540.999 323.899 541.399 321.099 541.799 316.699C542.099 312.299 542.199 306.099 540.699 299.599C539.899 296.299 538.799 293.299 537.499 290.799C536.199 288.199 534.699 285.999 533.299 284.299C532.599 283.399 531.899 282.699 531.299 282.099C530.699 281.499 530.099 280.899 529.699 280.499C528.799 279.599 528.399 279.099 528.499 278.999C528.599 278.899 529.199 279.299 530.199 280.099C530.699 280.499 531.299 280.999 531.999 281.499C532.699 281.999 533.499 282.799 534.199 283.599C535.799 285.299 537.399 287.499 538.799 290.099C540.199 292.799 541.499 295.899 542.299 299.299C543.899 306.099 543.599 312.499 542.999 316.899C542.199 321.299 541.299 323.899 541.199 323.899Z" fill="#005797" stroke="#005797" stroke-width="0.5" stroke-miterlimit="10"/>
<path d="M497.201 337.4C497.001 337.5 496.101 335.7 495.301 332.6C494.501 329.5 494.001 325 494.701 320.1C495.001 317.7 495.601 315.4 496.301 313.4C497.001 311.4 497.801 309.6 498.701 308.3C499.101 307.6 499.501 307 499.901 306.5C500.301 306 500.601 305.5 500.901 305.2C501.601 304.5 502.301 304.5 502.301 304.6C502.301 304.7 501.901 304.9 501.401 305.6C501.201 305.9 500.901 306.4 500.701 307C500.401 307.6 500.101 308.2 499.801 308.9C499.101 310.3 498.501 312 497.801 314C497.201 316 496.701 318.2 496.401 320.5C495.701 325.2 496.001 329.5 496.501 332.6C496.901 335.4 497.501 337.3 497.201 337.4Z" fill="#005797" stroke="#005797" stroke-width="0.5" stroke-miterlimit="10"/>
<path d="M520 329.3C520 329.5 518.5 329.7 516 329.9C513.6 330.1 510.2 330.4 506.8 331.5C503.4 332.6 500.7 334.6 499.2 336.4C498.8 336.8 498.5 337.3 498.2 337.7C498.1 337.9 497.9 338.1 497.8 338.2C497.7 338.4 497.6 338.5 497.6 338.6C497.5 338.9 497.5 339.1 497.5 339.2C497.5 339.3 497.6 339.4 497.6 339.4C497.6 339.4 497.4 339.4 497.2 339.3C497 339.2 496.9 338.8 497 338.4C497 338.2 497.1 338 497.2 337.8C497.3 337.6 497.4 337.4 497.5 337.1C497.7 336.6 498 336.1 498.3 335.6C499.7 333.4 502.6 331.1 506.3 329.9C510 328.7 513.5 328.7 516 328.7C518.5 328.9 520 329.1 520 329.3Z" fill="#005797" stroke="#005797" stroke-width="0.5" stroke-miterlimit="10"/>
<path d="M539.699 351.7C539.499 351.6 540.199 350 540.799 347.5C540.999 346.9 541.099 346.2 541.199 345.4C541.399 344.6 541.399 343.8 541.499 342.9C541.599 341.2 541.599 339.2 541.399 337.3C541.099 335.3 540.599 333.5 540.099 331.8C539.799 331 539.499 330.2 539.199 329.5C538.899 328.8 538.599 328.1 538.199 327.6C536.899 325.3 535.899 324 535.999 323.8C536.099 323.7 537.499 324.7 539.099 327C539.499 327.6 539.899 328.2 540.299 328.9C540.699 329.6 541.099 330.4 541.399 331.3C542.099 333 542.599 335 542.899 337.1C543.199 339.2 543.099 341.3 542.899 343.1C542.799 344 542.599 344.9 542.399 345.7C542.199 346.5 541.999 347.2 541.699 347.9C540.999 350.4 539.899 351.8 539.699 351.7Z" fill="#005797" stroke="#005797" stroke-width="0.5" stroke-miterlimit="10"/>
<path d="M496.499 347.099C496.299 347.199 495.899 346.799 495.499 345.899C495.099 344.999 494.799 343.699 494.799 342.199C494.799 340.699 495.199 339.399 495.699 338.599C496.199 337.799 496.599 337.299 496.799 337.399C497.199 337.599 496.499 339.699 496.399 342.199C496.299 344.799 496.899 346.899 496.499 347.099Z" fill="#005797" stroke="#005797" stroke-width="0.5" stroke-miterlimit="10"/>
<path d="M499 366.6C499 366.7 498.6 366.8 497.9 366.7C497.2 366.6 496.2 366.2 495.2 365.2C494.3 364.3 493.4 362.9 493 361.3C492.6 359.7 492.5 357.8 492.7 356C493 352.3 494.2 349 495.4 346.9C495.7 346.4 496.1 345.8 496.7 345.5C497.3 345.2 497.9 345.4 498.3 345.6C498.6 345.9 498.7 346.2 498.7 346.4C498.7 346.6 498.6 346.7 498.5 346.7C498.4 346.7 498.4 346.3 497.9 346.1C497.7 346 497.4 346 497.2 346.2C496.9 346.4 496.7 346.8 496.5 347.3C495.6 349.4 494.7 352.5 494.4 356.1C494.2 357.9 494.3 359.5 494.5 361C494.8 362.4 495.3 363.6 496 364.5C497.4 366.2 499 366.4 499 366.6Z" fill="#005797" stroke="#005797" stroke-width="0.5" stroke-miterlimit="10"/>
<path d="M501.799 352.9C502.199 353.1 500.899 355.9 500.299 359.6C499.599 363.3 499.799 366.3 499.399 366.4C499.199 366.4 498.799 365.7 498.599 364.4C498.399 363.1 498.299 361.3 498.699 359.3C499.099 357.3 499.799 355.6 500.399 354.5C501.099 353.3 501.699 352.8 501.799 352.9Z" fill="#005797" stroke="#005797" stroke-width="0.5" stroke-miterlimit="10"/>
<path d="M507.399 363.3C506.999 363.5 505.499 360.9 504.199 357.5C502.999 354.1 502.499 351.1 502.999 351C503.399 350.9 504.599 353.6 505.799 357C506.899 360.3 507.799 363.1 507.399 363.3Z" fill="#005797" stroke="#005797" stroke-width="0.5" stroke-miterlimit="10"/>
<path d="M516.699 361C516.899 361.1 515.899 364 513.499 368.5C512.299 370.7 510.699 373.3 508.799 376C507.799 377.4 506.799 378.8 505.599 380.2C504.999 380.9 504.399 381.6 503.799 382.3C503.499 382.7 503.199 383 502.799 383.4C502.599 383.6 502.399 383.7 502.199 383.9C501.899 384.2 501.499 384.4 501.199 384.5C500.799 384.7 500.499 384.8 500.199 384.8L499.699 384.9C499.499 384.9 499.299 385 499.299 384.8L499.199 383.8L499.299 382.6C499.299 382.4 499.299 382.2 499.299 382.1V381.7C499.299 381.5 499.399 381.2 499.399 381C499.499 380.5 499.599 380.1 499.699 379.6C500.099 377.8 500.699 376.1 501.299 374.5C502.499 371.4 503.799 368.7 504.799 366.4C506.799 361.8 508.199 359 508.399 359.1C508.599 359.2 507.599 362.1 505.799 366.8C504.899 369.1 503.799 371.9 502.699 375C502.099 376.5 501.599 378.2 501.299 379.9C501.199 380.3 501.099 380.8 501.099 381.2C501.099 381.4 500.999 381.6 500.999 381.9L500.899 382.4C500.899 382.5 500.899 382.6 500.899 382.7C500.999 382.8 501.099 382.7 501.199 382.6L501.299 382.5C501.399 382.4 501.599 382.2 501.799 382.1C502.099 381.8 502.399 381.5 502.699 381.1C503.299 380.4 503.899 379.7 504.499 379C505.599 377.6 506.699 376.3 507.699 375C509.699 372.4 511.299 369.9 512.599 367.8C515.099 363.7 516.499 360.9 516.699 361Z" fill="#005797" stroke="#005797" stroke-width="0.5" stroke-miterlimit="10"/>
<path d="M524.3 357.4C524.5 357.5 524.1 359.2 523.1 361.8C522.1 364.4 520.3 367.9 517.9 371.4C516.7 373.2 515.4 374.7 514.2 376.1C513.6 376.8 513 377.4 512.4 378C511.8 378.6 511.3 379.1 510.7 379.6C510.1 380 509.3 380.4 508.5 380.2C507.7 379.9 507.5 379.3 507.4 378.9C507.3 378.4 507.5 378 507.6 377.9C507.8 377.7 507.9 377.7 508 377.8C508.1 377.9 507.7 378.2 508 378.8C508.1 379.1 508.4 379.4 508.7 379.4C509 379.4 509.5 379.2 510 378.8C510.5 378.4 510.9 377.8 511.5 377.2C512 376.6 512.6 375.9 513.2 375.2C514.3 373.8 515.6 372.2 516.7 370.5C521.4 363.6 523.8 357.2 524.3 357.4Z" fill="#005797" stroke="#005797" stroke-width="0.5" stroke-miterlimit="10"/>
<path d="M528.2 359.4C528.4 359.5 528.3 360.9 527.6 363C527 365.2 525.7 368.1 523.7 371C522.7 372.4 521.7 373.7 520.6 374.8C519.5 375.9 518.3 376.7 517.1 377.1C516.5 377.3 516 377.4 515.3 377.3C515.1 377.3 515 377.3 514.9 377.3C514.8 377.3 514.6 377.3 514.6 377.1C514.5 376.8 514.5 376.6 514.5 376.4C514.5 376.2 514.5 376 514.4 375.9C514.4 375.8 514.4 375.7 514.4 375.6C514.4 375.4 514.4 375.3 514.5 375.3C514.6 375.3 514.6 375.4 514.7 375.5C514.7 375.6 514.8 375.7 514.9 375.8C515 375.9 515 376 515.1 376.1C515.1 376.2 515.2 376.3 515.3 376.4C515.3 376.5 515.4 376.4 515.5 376.4C515.6 376.4 515.6 376.4 515.7 376.4C515.9 376.4 516.4 376.2 516.8 376C518.6 375.2 520.5 372.8 522.4 370.1C526.2 364.6 527.7 359.3 528.2 359.4Z" fill="#005797" stroke="#005797" stroke-width="0.5" stroke-miterlimit="10"/>
<path d="M537.399 350.6C537.599 350.7 537.399 352.3 536.699 354.8C535.999 357.3 534.699 360.7 532.699 364.1C531.499 366.3 530.099 368.2 528.799 369.8C528.099 370.6 527.499 371.3 526.899 371.9C526.299 372.5 525.499 373.1 524.599 373.1C524.099 373.1 523.699 372.7 523.499 372.4C523.299 372.1 523.199 371.8 523.299 371.5C523.399 371 523.699 370.9 523.799 370.9C523.899 370.9 523.699 371.1 523.799 371.5C523.899 371.8 524.199 372.3 524.699 372.2C525.499 372.2 526.499 370.5 527.699 368.9C528.899 367.3 530.099 365.4 531.299 363.3C535.199 356.6 536.899 350.5 537.399 350.6Z" fill="#005797" stroke="#005797" stroke-width="0.5" stroke-miterlimit="10"/>
<path d="M537.5 352.5C537.4 352.5 537.6 351.7 537.8 350.4C538 349.1 537.9 347.1 537.1 344.8C536.7 343.7 536 342.6 535.1 341.5C534.2 340.5 533 339.6 531.6 338.9C528.8 337.6 525.2 336.8 521.5 336.7C517.8 336.6 514.3 337.2 511.2 338.2C508.1 339.2 505.5 340.4 503.4 341.6C499.1 344 496.9 346.2 496.7 346C496.6 345.9 497.1 345.3 498.1 344.3C499.1 343.3 500.6 342 502.8 340.6C504.9 339.2 507.6 337.8 510.8 336.7C514 335.6 517.7 334.9 521.6 335C525.5 335.1 529.2 335.9 532.3 337.5C533.8 338.3 535.2 339.3 536.2 340.5C537.2 341.7 537.8 343 538.2 344.3C539 346.8 538.8 349 538.4 350.4C538 351.9 537.6 352.6 537.5 352.5Z" fill="#005797" stroke="#005797" stroke-width="0.5" stroke-miterlimit="10"/>
<path d="M433.799 216.2C433.699 218.8 433.199 222.9 431.099 227.4C430.599 228.4 427.399 235.4 420.299 240C410.299 246.5 394.599 247.1 384.399 238.6C375.199 230.9 374.399 218.9 374.199 214.5C373.799 207.7 375.199 201.5 377.399 192.4C379.999 181.4 382.699 176 379.699 170.7C378.299 168.2 377.099 168.4 373.799 164.1C370.099 159.4 368.099 154.7 367.299 152.7C363.899 143 369.199 130.9 374.599 123.9C384.399 111.2 399.599 109 411.499 107.3C421.999 105.8 441.999 102.9 454.199 114.4C459.999 119.9 464.699 129.2 465.299 130.3C468.999 137.9 467.999 139.6 471.499 145.4C475.999 152.8 479.399 152.7 486.199 160.7C489.199 164.2 494.299 170.3 497.199 179.3C500.999 191.1 498.699 201.3 497.699 205.5C496.199 211.8 494.699 218 489.299 223.4C482.399 230.1 473.699 231 470.299 231.4C450.799 233.4 436.199 218.6 433.799 216.2Z" fill="#005797"/>
<path d="M380.801 148.4C382.601 145 385.301 140.8 389.201 136.7C397.801 127.6 407.601 123.8 413.101 122.2C413.101 126.2 413.701 132.4 416.501 139.2C417.701 142.2 419.501 146.7 423.401 150.6C431.301 158.6 442.401 159 446.001 159C446.601 157.9 448.001 155.7 450.601 154.8C455.101 153.3 459.601 157 461.701 159.8C464.801 164.1 465.501 171.1 461.501 175.7C458.201 179.5 453.501 179.8 452.401 179.8C448.701 187.7 447.501 194.4 447.101 198.8C446.801 201.8 446.501 205.2 447.301 209.5C448.601 217.1 452.201 222.5 454.601 225.4C453.601 226.5 451.801 228.1 449.101 229.2C444.501 231.1 440.301 230.2 438.801 229.8C436.501 226.1 434.201 222.4 432.001 218.7C429.801 219.6 426.601 220.7 422.601 221.1C420.701 221.3 413.001 222 404.701 218.2C392.601 212.6 387.801 201.2 386.301 197.6C385.001 194.5 383.901 190.9 382.501 172.6C381.401 162.6 381.001 154.2 380.801 148.4Z" fill="white"/>
<path d="M437.9 215.7C437.9 215.7 437.6 216 437 216.5C436.7 216.7 436.3 217 435.8 217.3C435.3 217.6 434.8 217.9 434.1 218.3C431.6 219.7 427.6 221.3 422.4 221.9C417.3 222.6 410.8 222.1 404.5 219.3C398.2 216.5 392 211.5 388.1 204.5C386.1 201 384.8 197.3 383.9 193.7C383 190.1 382.5 186.5 382.2 183.1C381.6 176.3 381.4 170.2 381.2 165.1C381 160 380.8 155.8 380.8 153C380.7 150.1 380.7 148.6 380.9 148.5C381 148.5 381.2 150.1 381.5 152.9C381.8 155.8 382.1 159.9 382.5 165C382.9 170.1 383.2 176.2 383.9 182.9C384.7 189.5 386 196.9 389.8 203.6C393.5 210.3 399.4 215.1 405.4 217.8C411.4 220.6 417.6 221.1 422.6 220.6C427.6 220.1 431.5 218.7 434.1 217.5C436.5 216.5 437.8 215.6 437.9 215.7Z" fill="#005797" stroke="#005797" stroke-width="0.5" stroke-miterlimit="10"/>
<path d="M438.599 229.9C438.299 230.2 435.999 228.2 434.199 225C432.399 221.8 431.899 218.8 432.299 218.7C432.699 218.6 433.899 221.2 435.599 224.2C437.299 227.3 438.899 229.6 438.599 229.9Z" fill="#005797" stroke="#005797" stroke-width="0.5" stroke-miterlimit="10"/>
<path d="M427.201 192.4C427.401 192.4 427.501 193.9 426.601 196.1C425.801 198.2 423.801 201.1 420.601 202.8C417.401 204.5 413.901 204.6 411.701 204.1C409.401 203.6 408.201 202.7 408.301 202.5C408.401 202.3 409.701 202.7 411.801 202.9C413.901 203.1 416.901 202.8 419.801 201.3C422.601 199.8 424.501 197.4 425.501 195.5C426.601 193.7 426.901 192.4 427.201 192.4Z" fill="#005797" stroke="#005797" stroke-width="0.5" stroke-miterlimit="10"/>
<path d="M411.101 195.1C411.101 195.2 410.501 195.3 409.501 195.3C408.501 195.3 406.901 195.3 405.101 194.4C404.201 193.9 403.301 193.3 402.601 192.2C402.301 191.7 402.101 191 402.001 190.4C401.901 189.7 401.901 189.1 402.001 188.5C402.201 186.1 402.601 183.4 403.001 180.6C404.801 169.5 408.001 160.9 408.401 161C408.901 161.1 406.401 169.9 404.601 180.9C404.101 183.6 403.801 186.3 403.501 188.7C403.301 189.9 403.401 190.8 403.801 191.6C404.201 192.4 404.901 193 405.601 193.5C407.001 194.4 408.501 194.6 409.501 194.7C410.601 194.8 411.101 194.9 411.101 195.1Z" fill="#005797" stroke="#005797" stroke-width="0.5" stroke-miterlimit="10"/>
<path d="M396.8 180.3C396.4 180.5 395 178.3 393.9 175.3C392.8 172.3 392.5 169.8 392.9 169.6C393.3 169.5 394.3 171.8 395.4 174.7C396.5 177.7 397.2 180.1 396.8 180.3Z" fill="#005797" stroke="#005797" stroke-width="0.5" stroke-miterlimit="10"/>
<path d="M422.099 178.3C421.699 178.6 420.099 176.9 418.999 174.3C417.899 171.7 417.799 169.4 418.199 169.3C418.699 169.2 419.399 171.3 420.499 173.7C421.499 176 422.499 178 422.099 178.3Z" fill="#005797" stroke="#005797" stroke-width="0.5" stroke-miterlimit="10"/>
<path d="M399.399 158.9C399.199 159 398.499 158.3 397.399 157.3C396.299 156.3 394.699 154.9 392.599 154.2C390.599 153.6 388.499 154.1 387.299 154.8C386.099 155.5 385.599 156.4 385.399 156.3C385.299 156.3 385.299 156 385.399 155.5C385.499 155 385.899 154.4 386.599 153.8C387.899 152.6 390.399 151.8 392.999 152.6C395.599 153.4 397.199 155.2 398.199 156.5C399.299 157.9 399.599 158.8 399.399 158.9Z" fill="#005797" stroke="#005797" stroke-width="0.5" stroke-miterlimit="10"/>
<path d="M429.701 160.9C429.501 161.3 426.401 159.9 422.401 159.6C418.401 159.2 415.101 160 415.001 159.5C414.901 159.3 415.701 158.8 417.101 158.4C418.501 158 420.401 157.7 422.601 157.9C424.801 158.1 426.701 158.7 427.901 159.4C429.201 160.1 429.801 160.7 429.701 160.9Z" fill="#005797" stroke="#005797" stroke-width="0.5" stroke-miterlimit="10"/>
<path d="M452.399 179.9C452.399 179.8 453.099 179.8 454.299 179.7C455.399 179.5 457.099 179 458.699 177.8C460.299 176.6 461.799 174.5 462.399 171.8C462.999 169.2 462.999 166 461.999 163C460.999 160 459.199 157.5 456.799 156.2C454.499 154.9 451.899 155 449.899 155.6C447.899 156.2 446.599 157.3 445.699 158.1C444.899 158.9 444.499 159.5 444.399 159.5C444.299 159.5 444.499 158.8 445.199 157.7C445.899 156.7 447.299 155.3 449.499 154.5C450.599 154.1 451.799 153.8 453.199 153.8C454.599 153.8 456.099 154.1 457.499 154.8C460.299 156.2 462.499 159.1 463.499 162.4C464.599 165.7 464.599 169.1 463.799 172.1C463.399 173.6 462.799 174.9 461.999 176C461.199 177.1 460.299 178 459.299 178.6C457.399 179.9 455.499 180.3 454.199 180.2C452.999 180.3 452.299 180 452.399 179.9Z" fill="#005797" stroke="#005797" stroke-width="0.5" stroke-miterlimit="10"/>
<path d="M460.5 228.1C460.5 228.2 459.7 228.3 458.3 227.9C456.9 227.6 455 226.7 453.1 225C451.2 223.3 449.5 220.6 448.3 217.5C447.1 214.3 446.5 210.7 446.2 206.9C445.9 203.1 446.2 199.4 446.7 196.1C447.3 192.8 448.1 190 449.1 187.6C450.9 182.9 452.8 180.4 453 180.5C453.2 180.6 451.7 183.3 450.2 188C449.4 190.3 448.7 193.1 448.2 196.3C447.7 199.5 447.6 203 447.8 206.7C448.1 210.4 448.7 213.9 449.7 216.9C450.7 219.9 452.2 222.4 453.9 224.1C455.6 225.8 457.3 226.8 458.5 227.3C459.7 227.9 460.5 228 460.5 228.1Z" fill="#005797" stroke="#005797" stroke-width="0.5" stroke-miterlimit="10"/>
<path d="M413.499 122.3C413.599 122.6 411.099 123.3 407.399 124.9C406.499 125.3 405.499 125.8 404.399 126.3C403.299 126.8 402.199 127.5 401.099 128.2C398.799 129.6 396.399 131.3 393.999 133.3C391.699 135.3 389.599 137.4 387.799 139.4C386.999 140.4 386.099 141.4 385.399 142.4C384.699 143.3 383.999 144.3 383.499 145.1C381.299 148.5 380.199 150.8 379.899 150.7C379.699 150.6 380.499 148.1 382.499 144.5C382.999 143.6 383.599 142.6 384.299 141.6C384.999 140.6 385.799 139.5 386.599 138.4C388.399 136.3 390.399 134 392.899 132C395.299 129.9 397.899 128.2 400.299 126.9C401.499 126.2 402.699 125.6 403.799 125.1C404.899 124.6 405.999 124.2 406.999 123.8C410.899 122.5 413.399 122.1 413.499 122.3Z" fill="#005797" stroke="#005797" stroke-width="0.5" stroke-miterlimit="10"/>
<path d="M445.799 159.1C445.799 159.2 445.099 159.5 443.699 159.7C442.299 159.9 440.199 160 437.599 159.6C434.999 159.2 432.099 158.2 429.099 156.4C426.099 154.7 423.199 152.2 420.799 149C418.399 145.8 416.699 142.4 415.599 139.2C414.499 136 413.799 133 413.399 130.5C412.699 125.4 412.799 122.3 412.999 122.3C413.299 122.3 413.499 125.4 414.499 130.3C414.999 132.7 415.799 135.6 416.899 138.7C418.099 141.8 419.699 145 421.999 148C424.299 151 426.999 153.4 429.799 155.1C432.599 156.8 435.299 157.9 437.699 158.4C442.699 159.5 445.799 158.7 445.799 159.1Z" fill="#005797" stroke="#005797" stroke-width="0.5" stroke-miterlimit="10"/>
<path d="M476.9 229.5C476.8 229.3 480.5 228.1 485.7 223.5C488.2 221.2 491 218 493.5 213.8C494.7 211.7 495.8 209.3 496.7 206.7C497.6 204.1 498.3 201.2 498.6 198.2C499.3 192.1 498.6 185.3 496.2 178.5C493.8 171.7 489.6 165 483.9 159.4C481 156.6 477.7 154 474.7 150.8C471.6 147.6 469.4 143.6 467.8 139.4C466.1 135.2 464.8 130.9 463 126.7C461.2 122.6 458.7 118.7 455 115.9C451.4 113 447.1 111.2 442.8 110C440.6 109.4 438.4 109 436.2 108.6C434 108.3 431.8 108.1 429.6 107.9C420.8 107.3 412.2 107.5 404.2 109C396.2 110.4 388.9 113.3 383 117.4C380 119.4 377.4 121.8 375.2 124.3C373 126.8 371.3 129.5 370 132.3C367.4 137.8 366.7 143.5 367.1 148.3C367.6 153.1 369.1 157.1 371 160C372.8 162.9 374.8 164.7 376.2 166C377.6 167.2 378.3 167.8 378.3 167.8C378.3 167.8 378.1 167.7 377.7 167.5C377.3 167.2 376.7 166.9 376 166.3C374.6 165.2 372.5 163.4 370.5 160.4C368.5 157.5 366.8 153.4 366.3 148.4C365.8 143.4 366.4 137.6 369 131.8C370.3 128.9 372.1 126.1 374.3 123.5C376.5 120.9 379.2 118.5 382.2 116.4C388.2 112.1 395.7 109.1 403.9 107.6C412 106.1 420.8 105.9 429.7 106.4C431.9 106.6 434.2 106.8 436.5 107.1C438.8 107.4 441 107.9 443.3 108.5C447.8 109.7 452.3 111.6 456.1 114.7C458 116.2 459.7 118 461.1 119.9C462.5 121.9 463.6 124 464.6 126.1C466.5 130.4 467.8 134.8 469.4 138.9C471 143 473.1 146.8 476 149.8C478.9 152.9 482.2 155.5 485.1 158.4C491 164.3 495.2 171.2 497.6 178.1C500.1 185.1 500.7 192.1 499.9 198.3C499.5 201.4 498.8 204.3 497.8 207C496.8 209.7 495.6 212 494.4 214.2C491.8 218.5 488.9 221.7 486.2 223.9C483.5 226.2 481.2 227.5 479.5 228.4C478.7 228.8 478 229.1 477.6 229.2C477.2 229.4 477 229.5 476.9 229.5Z" fill="#005797" stroke="#005797" stroke-width="0.5" stroke-miterlimit="10"/>
<path d="M431.1 227.4C431.2 227.4 431 227.9 430.7 228.7C430.4 229.5 429.8 230.7 428.9 232.1C427.1 234.9 423.9 238.7 418.6 241.7C416 243.2 412.9 244.4 409.4 245C405.9 245.7 402.1 245.7 398.2 245.1C394.3 244.4 390.3 243.1 386.5 240.9C382.8 238.7 379.2 235.8 376.8 231.7C374.4 227.6 373.6 223 373.5 218.8C373.3 214.5 373.7 210.4 374.2 206.5C375.3 198.7 377 191.9 378.2 186.2C378.8 183.3 379.4 180.7 379.7 178.4C380 176.1 380.1 174.1 379.9 172.5C379.5 169.3 378.1 167.8 378.3 167.8C378.3 167.8 378.7 168.1 379.2 168.8C379.7 169.5 380.2 170.7 380.6 172.4C380.9 174.1 381 176.1 380.7 178.5C380.4 180.9 379.9 183.5 379.4 186.4C378.3 192.2 376.7 199 375.7 206.7C375.2 210.5 374.9 214.6 375.1 218.7C375.3 222.8 376.1 227.2 378.3 230.9C380.5 234.6 383.9 237.5 387.4 239.5C391 241.6 394.8 242.9 398.5 243.6C402.3 244.3 405.9 244.2 409.3 243.7C412.6 243.1 415.6 242 418.2 240.7C423.3 238 426.6 234.4 428.5 231.8C430.3 229.1 431 227.4 431.1 227.4Z" fill="#005797" stroke="#005797" stroke-width="0.5" stroke-miterlimit="10"/>
<path d="M452.799 226.9C452.899 227.1 452.299 227.8 451.199 228.7C450.099 229.6 448.399 230.8 446.199 231.5C443.999 232.2 441.799 232 440.399 231.5C438.999 230.9 438.399 230.2 438.499 230C438.599 229.8 439.399 230.2 440.699 230.4C441.999 230.6 443.799 230.6 445.699 230C447.599 229.4 449.299 228.5 450.499 227.8C451.799 227 452.699 226.7 452.799 226.9Z" fill="#005797" stroke="#005797" stroke-width="0.5" stroke-miterlimit="10"/>
</svg>
