<svg width="600" height="600" viewBox="0 0 600 600" fill="none" xmlns="http://www.w3.org/2000/svg">
<path d="M66.6995 515.699C67.3995 515.099 68.9996 515.899 70.3996 517.399C71.7996 518.899 72.3995 520.699 71.6995 521.299C70.9995 521.899 69.3995 521.099 67.9995 519.599C66.5995 518.099 65.9995 516.299 66.6995 515.699Z" fill="#005797" stroke="#005797" stroke-miterlimit="10"/>
<path d="M85.7004 505.4C85.7004 505.4 85.3004 505 84.7004 504.2C84.1004 503.3 83.1004 502.1 82.0004 500.5C79.6004 497.2 76.2004 492.5 71.9004 486.8C67.6004 481 62.3004 474.3 56.3004 466.9C53.3004 463.2 50.1004 459.4 46.7004 455.5C46.3004 455 45.9004 454.5 45.4004 454.1C45.0004 453.7 44.5004 453.5 44.2004 453.5C44.0004 453.5 43.8004 453.5 43.7004 453.6C43.6004 453.7 43.4004 453.8 43.3004 454C43.1004 454.4 43.0004 454.9 43.1004 455.5C43.1004 456.1 43.2004 456.7 43.4004 457.3C43.6004 457.9 43.8004 458.6 44.0004 459.2C44.5004 460.7 44.9004 462.2 45.4004 463.7V463.8L44.9004 464.2C44.8004 464.3 44.8004 464.2 44.8004 464.2C44.8004 464.2 44.7004 464.2 44.6004 464.2C44.4004 464.2 44.1004 464.4 43.7004 464.5C43.8004 464.7 43.8004 464.6 43.8004 464.6C43.8004 464.6 43.8004 464.6 43.7004 464.6C43.7004 464.6 43.6004 464.6 43.6004 464.7C43.5004 464.8 43.5004 464.8 43.5004 464.8C43.4004 465 43.4004 465.2 43.4004 465.5C43.5004 466 43.8004 466.7 44.1004 467.4C44.7004 468.7 45.3004 470 45.9004 471.3C47.2004 473.9 48.5004 476.3 50.0004 478.7C52.9004 483.4 56.1004 487.6 59.4004 491.4L58.3004 492.4C57.8004 491.8 57.3004 491.2 56.7004 490.7C56.1004 490.3 55.6004 490 55.0004 490C54.4004 490 53.8004 490.2 53.5004 490.6C53.2004 491 53.2004 491.5 53.4004 492.1C54.5004 494.8 55.8004 497.3 57.1004 499.7C59.7004 504.4 62.3004 508.3 64.6004 511.4C66.9004 514.5 68.9004 516.8 70.3004 518.4C71.7004 520 72.4004 520.8 72.4004 520.9C72.4004 520.9 71.5004 520.2 70.0004 518.8C68.5004 517.3 66.4004 515.1 63.9004 512C61.5004 509 58.7004 505.1 56.0004 500.4C54.7004 498 53.4004 495.5 52.1004 492.7C52.0004 492.3 51.8004 491.9 51.8004 491.4C51.8004 490.9 52.0004 490.3 52.3004 489.9C53.0004 489.1 54.0004 488.7 54.9004 488.7C55.9004 488.7 56.8004 489.2 57.5004 489.7C58.2004 490.3 58.8004 490.9 59.3004 491.5L58.2004 492.5C54.8004 488.7 51.5004 484.4 48.6004 479.7C47.1004 477.3 45.7004 474.8 44.4004 472.2C43.8004 470.9 43.1004 469.6 42.5004 468.2C42.2004 467.5 41.9004 466.8 41.7004 465.9C41.6004 465.4 41.6004 464.9 41.9004 464.4C42.2004 463.8 42.6004 463.4 43.2004 463.2C43.3004 463.2 43.3004 463.2 43.4004 463.2L43.5004 463.3L43.4004 463.1C43.1004 462 42.7004 460.9 42.4004 459.8C42.2004 459.2 42.0004 458.5 41.8004 457.9C41.6004 457.2 41.4004 456.5 41.4004 455.7C41.4004 455 41.4004 454.1 41.8004 453.3C42.0004 452.9 42.4004 452.5 42.8004 452.3C43.2004 452.1 43.7004 452 44.2004 452C45.2004 452.1 45.9004 452.6 46.4004 453.1C47.0004 453.6 47.4004 454.1 47.8004 454.6C51.2004 458.5 54.4004 462.4 57.4004 466.1C63.4004 473.5 68.6004 480.4 72.8004 486.3C77.0004 492.2 80.3004 497 82.5004 500.4C83.6004 502.1 84.4004 503.4 85.0004 504.3C85.5004 504.8 85.7004 505.3 85.7004 505.4Z" fill="#005797" stroke="#005797" stroke-width="0.5" stroke-miterlimit="10"/>
<path d="M90.4002 501.9C90.2002 502 88.3002 499.3 85.4002 494.7C82.5002 490.2 78.6002 483.8 74.4002 476.9C72.3002 473.5 70.0002 470.3 67.4002 468.2C66.7002 467.7 66.1002 467.2 65.4002 466.7C65.1002 466.5 64.7002 466.3 64.4002 466.1C64.0002 465.9 63.8002 465.8 63.4002 465.7C63.1002 465.6 62.8002 465.6 62.6002 465.6C62.4002 465.6 62.3002 465.7 62.2002 465.9C62.0002 466.3 62.1002 467 62.2002 467.6C62.6002 470.2 63.4002 472.2 64.1002 473.5C64.7002 474.8 65.2002 475.5 65.1002 475.6C65.0002 475.7 64.4002 475.1 63.6002 473.8C62.8002 472.5 61.7002 470.5 61.2002 467.8C61.1002 467.1 60.8002 466.4 61.2002 465.4C61.4002 464.9 61.9002 464.5 62.4002 464.3C62.9002 464.2 63.4002 464.2 63.9002 464.3C64.3002 464.4 64.8002 464.6 65.2002 464.8C65.6002 465 66.0002 465.2 66.3002 465.4C67.1002 465.8 67.8002 466.3 68.5002 466.9C71.4002 469.2 73.8002 472.5 76.0002 476C80.2002 483 83.9002 489.4 86.6002 494.1C89.1002 498.8 90.6002 501.8 90.4002 501.9Z" fill="#005797" stroke="#005797" stroke-width="0.5" stroke-miterlimit="10"/>
<path d="M99.6012 506.2C99.4012 506.3 98.2012 503.3 96.2012 498.6C94.2012 493.9 91.1012 487.5 87.2012 480.8C86.2012 479.1 85.2012 477.5 84.2012 476C83.9012 475.6 83.7012 475.2 83.5012 474.9L83.1012 474.3C83.0012 474.1 82.9012 474 82.8012 473.8C82.3012 473.2 81.7012 472.7 81.1012 472.4C80.8012 472.3 80.6012 472.3 80.4012 472.3C80.2012 472.4 80.0012 472.5 79.9012 472.7C79.7012 473.2 79.7012 473.9 79.8012 474.7C79.9012 476.2 80.0012 477.6 80.2012 478.8C80.9012 483.8 82.0012 486.8 81.7012 486.9C81.5012 487 80.1012 484.1 79.1012 479C78.9012 477.7 78.6012 476.3 78.5012 474.8C78.5012 474.1 78.3012 473.2 78.7012 472.2C78.9012 471.7 79.3012 471.2 79.9012 471C80.5012 470.8 81.1012 470.8 81.6012 471C82.6012 471.4 83.3012 472 84.0012 472.8C84.2012 473 84.3012 473.2 84.5012 473.4L84.9012 474C85.2012 474.4 85.4012 474.8 85.7012 475.1C86.7012 476.7 87.7012 478.3 88.7012 480C92.7012 486.8 95.6012 493.3 97.4012 498.2C99.1012 503 99.8012 506.1 99.6012 506.2Z" fill="#005797" stroke="#005797" stroke-width="0.5" stroke-miterlimit="10"/>
<path d="M489.201 425.8C488.901 425.8 489.001 423.6 488.301 420.2C488.101 419.3 487.901 418.4 487.601 417.5C487.401 417 487.301 416.5 487.101 416L487.001 415.6L486.901 415.4C486.901 415.3 486.801 415.3 486.701 415.3C486.701 415.3 486.501 415.3 486.301 415.4C486.101 415.5 485.901 415.6 485.701 415.8C485.301 416.1 485.001 416.6 484.701 417.1C484.601 417.3 484.401 417.6 484.301 417.9C484.201 418.2 484.001 418.5 483.901 418.8C483.601 419.4 483.401 420 483.101 420.6C479.001 430.6 478.201 439.4 477.701 439.4C477.501 439.4 477.401 437.2 477.901 433.6C478.401 430 479.501 425.1 481.601 420C481.901 419.4 482.101 418.7 482.401 418.1C482.501 417.8 482.701 417.5 482.801 417.2C483.001 416.9 483.101 416.6 483.301 416.3C483.701 415.7 484.101 415.1 484.701 414.7C485.301 414.2 485.901 413.8 486.901 413.9C487.101 413.9 487.401 414 487.601 414H487.801C487.901 414 487.901 414 487.901 414.1L488.001 414.4L488.301 415L488.401 415.4C488.601 415.9 488.701 416.5 488.901 417C489.201 418 489.401 419 489.501 419.9C489.901 423.5 489.401 425.8 489.201 425.8Z" fill="#005797" stroke="#005797" stroke-width="0.5" stroke-miterlimit="10"/>
<path d="M500.001 407.7C499.901 407.7 500.101 407 500.201 405.9C500.301 405.3 500.301 404.7 500.301 403.9C500.301 403.5 500.201 403.1 500.201 402.7C500.101 402.3 500.001 401.7 499.901 401.6C499.801 401.4 499.701 401.2 499.601 401L499.501 401.1L499.401 401.3C499.301 401.4 499.301 401.5 499.201 401.6C499.001 402 498.701 402.4 498.501 402.9C498.201 403.4 497.801 404 497.501 404.6C496.201 406.9 494.901 409.6 493.701 412.4C492.501 415.3 491.601 418 490.901 420.6C490.201 423.2 489.701 425.5 489.301 427.5C488.601 431.5 488.401 434 488.101 434C487.901 434 487.701 431.4 488.201 427.3C488.401 425.2 488.801 422.8 489.501 420.2C490.201 417.5 491.101 414.7 492.301 411.7C493.501 408.8 494.901 406.1 496.301 403.7C496.601 403.1 497.001 402.5 497.401 402C497.601 401.7 497.701 401.5 497.901 401.2L498.001 401L498.201 400.7L498.601 400.2C498.901 399.8 499.101 399.5 499.401 399.2L499.801 398.7L500.001 398.5L500.101 398.4C500.101 398.3 500.101 398.5 500.201 398.5C500.601 399.3 500.901 400 501.101 400.7C501.401 401.5 501.401 402 501.401 402.5C501.401 403 501.501 403.4 501.401 403.9C501.401 404.8 501.201 405.5 501.101 406C500.501 407.2 500.101 407.8 500.001 407.7Z" fill="#005797" stroke="#005797" stroke-width="0.5" stroke-miterlimit="10"/>
<path d="M505.801 423.3C505.701 423.3 506.101 422.1 506.801 419.9C507.501 417.8 508.601 414.7 509.901 410.8C511.101 407 512.501 402.3 513.901 397.2C514.601 394.6 515.301 391.9 515.901 389.1C516.201 387.7 516.501 386.2 516.901 384.8C517.101 384.1 517.201 383.3 517.401 382.6C517.601 381.8 517.701 381.2 517.701 380.5C517.701 379.8 517.501 379.4 517.201 379.3C516.901 379.1 516.501 379.3 516.001 379.7C515.801 379.9 515.501 380.1 515.301 380.4L514.601 381.3C514.101 381.9 513.701 382.4 513.201 383C511.401 385.3 509.901 387.6 508.501 389.9C505.801 394.5 503.801 398.8 502.501 402.6C501.101 406.4 500.301 409.5 499.801 411.7C499.301 413.9 499.001 415.1 498.901 415.1C498.801 415.1 498.801 413.8 499.201 411.6C499.501 409.3 500.201 406.1 501.401 402.2C502.601 398.3 504.501 393.8 507.201 389.1C508.501 386.7 510.101 384.4 511.901 382C512.301 381.4 512.801 380.8 513.301 380.2L514.001 379.3C514.301 379 514.501 378.7 514.901 378.4C515.201 378.1 515.601 377.8 516.101 377.7C516.601 377.5 517.301 377.5 517.801 377.7C518.401 377.9 518.801 378.4 519.001 378.9C519.201 379.4 519.301 379.9 519.301 380.3C519.401 381.2 519.201 382.1 519.001 382.8C518.801 383.5 518.701 384.3 518.501 385C518.201 386.5 517.801 387.9 517.501 389.4C516.801 392.2 516.101 395 515.401 397.6C513.901 402.8 512.401 407.4 511.001 411.2C509.601 415 508.401 418.1 507.401 420.1C506.501 422.2 505.901 423.4 505.801 423.3Z" fill="#005797" stroke="#005797" stroke-width="0.5" stroke-miterlimit="10"/>
<path d="M512.501 430.3C512.301 430.2 513.501 426.4 515.701 420.3C516.801 417.2 518.101 413.6 519.601 409.6C520.301 407.6 521.201 405.5 521.801 403.3C522.101 402.2 522.301 401.1 522.401 400C522.401 399.4 522.401 398.9 522.301 398.5C522.201 398.3 522.101 398.1 522.001 398C521.901 397.9 521.801 397.9 521.701 397.9C521.501 397.9 521.001 398.1 520.601 398.5C520.201 398.9 519.701 399.2 519.301 399.7C518.501 400.5 517.801 401.4 517.101 402.3C515.801 404.2 514.801 406.1 513.801 408C511.901 411.9 510.201 415.3 508.801 418.2C505.901 424 504.101 427.6 503.801 427.5C503.601 427.4 505.101 423.7 507.701 417.7C509.001 414.7 510.601 411.2 512.401 407.3C513.301 405.4 514.401 403.3 515.701 401.3C516.401 400.3 517.201 399.3 518.101 398.4C518.501 397.9 519.001 397.5 519.501 397.1C520.001 396.7 520.601 396.2 521.701 396.2C522.201 396.2 522.701 396.5 523.101 396.8C523.401 397.2 523.601 397.6 523.701 397.9C523.901 398.7 523.901 399.4 523.901 400C523.801 401.3 523.601 402.5 523.201 403.7C522.501 406 521.601 408.1 520.901 410.1C519.301 414.1 517.901 417.7 516.701 420.7C514.401 426.7 512.801 430.4 512.501 430.3Z" fill="#005797" stroke="#005797" stroke-width="0.5" stroke-miterlimit="10"/>
<path d="M513.201 442.199C513.001 442.099 514.201 439.699 516.001 435.699C516.901 433.699 517.901 431.399 519.101 428.699C519.701 427.399 520.201 425.999 520.801 424.499C521.101 423.799 521.401 422.999 521.701 422.299C522.001 421.499 522.201 420.899 522.301 420.199C522.301 419.899 522.301 419.499 522.201 419.199C522.201 419.099 522.101 418.999 522.001 418.899C522.001 418.899 521.901 418.799 521.901 418.899L521.701 419.099L521.501 419.299L521.101 419.699C520.001 420.799 519.101 421.899 518.201 423.099C516.401 425.299 515.001 427.499 513.901 429.299C511.701 432.999 510.701 435.499 510.501 435.399C510.301 435.299 510.901 432.699 512.901 428.699C513.901 426.699 515.201 424.499 517.001 422.099C517.901 420.899 518.901 419.699 519.901 418.599L520.301 418.199L521.001 417.599L521.701 416.999C521.801 416.999 521.801 416.899 521.901 416.899L522.101 416.999C522.301 417.099 522.401 417.099 522.501 417.199C523.101 417.499 523.501 418.099 523.701 418.799C523.801 419.299 523.901 419.799 523.801 420.299C523.701 421.199 523.401 422.199 523.101 422.899C522.801 423.699 522.501 424.399 522.201 425.099C521.601 426.599 521.001 427.999 520.401 429.299C519.201 431.899 518.001 434.299 517.001 436.199C514.901 439.999 513.401 442.299 513.201 442.199Z" fill="#005797" stroke="#005797" stroke-width="0.5" stroke-miterlimit="10"/>
<path d="M520.901 446.6C520.501 446.3 522.701 442.8 525.001 438.2C527.301 433.6 528.701 429.7 529.101 429.8C529.501 429.9 528.701 434.1 526.401 438.9C524.101 443.6 521.201 446.8 520.901 446.6Z" fill="#005797" stroke="#005797" stroke-width="0.5" stroke-miterlimit="10"/>
<path d="M95.2008 58.1002C93.4008 170.9 93.5008 283.6 95.5008 396.4C96.1008 429.2 96.8008 461.9 97.7008 494.6C104.301 492.4 114.301 489.2 126.701 485.6C157.801 476.6 179.001 472.5 203.201 467.3C248.201 457.7 243.501 457.2 292.301 446.4C311.901 442.1 340.901 435.9 376.901 429.3C376.301 410.5 375.701 392.3 375.701 391.1C370.001 210.7 368.401 152.1 367.801 81.4002C367.701 71.9002 367.601 54.8002 367.501 33.2002C362.001 33.3002 353.901 33.6002 344.001 34.0002C286.901 36.5002 246.601 42.4002 215.201 46.3002C186.601 50.0002 145.901 54.5002 95.2008 58.1002Z" fill="white"/>
<path d="M98.0005 480.4C97.9005 480.4 97.7005 478.9 97.5005 476.2C97.3005 473.4 97.1005 469.3 96.8005 464C96.2005 453.4 95.6005 438.1 94.9005 419.2C93.5005 381.4 92.2005 329.1 91.6005 271.3C91.0005 213.5 91.3005 161.3 91.9005 123.4C92.2005 104.5 92.5005 89.2002 92.9005 78.6002C93.1005 73.3002 93.2005 69.2002 93.4005 66.4002C93.5005 63.6002 93.7005 62.2002 93.8005 62.2002C93.9005 62.2002 94.0005 63.7002 94.1005 66.5002C94.2005 69.3002 94.2005 73.4002 94.2005 78.7002C94.2005 89.3002 94.2005 104.6 94.3005 123.5C94.3005 161.3 94.4005 213.6 94.9005 271.3C95.5005 329 96.4005 381.3 97.2005 419.1C97.6005 438 97.8005 453.3 98.0005 463.9C98.1005 469.2 98.1005 473.3 98.1005 476.1C98.2005 478.9 98.1005 480.4 98.0005 480.4Z" fill="#005797" stroke="#005797" stroke-miterlimit="10"/>
<path d="M367.3 33.3004C367.3 33.5004 363.5 34.0004 356.7 34.8004C349.8 35.5004 339.9 36.5004 327.6 37.7004C303 40.0004 269 43.1004 231.5 46.6004C194 50.0004 160 53.1004 135.4 55.3004C123.1 56.4004 113.1 57.2004 106.2 57.7004C99.3 58.2004 95.5 58.4004 95.5 58.2004C95.5 58.0004 99.3 57.4004 106.1 56.5004C113 55.6004 122.9 54.4004 135.2 53.0004C159.8 50.2004 193.7 46.8004 231.3 43.3004C268.9 39.9004 302.9 37.1004 327.5 35.4004C339.8 34.5004 349.8 33.9004 356.7 33.5004C363.4 33.1004 367.2 33.0004 367.3 33.3004Z" fill="#005797" stroke="#005797" stroke-miterlimit="10"/>
<path d="M376.8 421.6C376.7 421.6 376.5 420.3 376.3 417.7C376.1 415.1 375.8 411.4 375.6 406.5C375 396.8 374.3 382.8 373.6 365.4C372.1 330.7 370.4 282.8 369 229.8C367.7 176.8 367 128.8 366.8 94.1004C366.7 76.7004 366.7 62.7004 366.8 53.0004C366.8 48.1004 366.9 44.4004 367 41.8004C367.1 39.2004 367.2 37.9004 367.3 37.9004C367.4 37.9004 367.5 39.2004 367.7 41.8004C367.8 44.4004 368 48.1004 368.1 53.0004C368.4 62.7004 368.8 76.8004 369.2 94.1004C370 128.8 371.1 176.8 372.4 229.7C373.8 282.7 375.1 330.6 376 365.3C376.5 382.7 376.8 396.7 377 406.4C377.1 411.3 377.1 415 377.1 417.6C377 420.2 376.9 421.6 376.8 421.6Z" fill="#005797" stroke="#005797" stroke-miterlimit="10"/>
<path d="M371.8 428.301C371.8 428.501 368.1 429.601 361.4 431.301C354.7 433.001 344.9 435.401 332.8 438.301C308.6 444.101 275.2 452.001 238.2 460.701C201.2 469.401 167.8 477.201 143.5 482.701C131.4 485.501 121.5 487.701 114.7 489.101C107.9 490.601 104.1 491.301 104.1 491.001C104 490.801 107.7 489.701 114.5 487.801C121.2 486.001 131 483.401 143 480.401C167.1 474.301 200.5 466.101 237.5 457.401C274.5 448.701 308 441.201 332.3 435.901C344.5 433.301 354.3 431.201 361.1 429.901C367.9 428.701 371.7 428.101 371.8 428.301Z" fill="#005797" stroke="#005797" stroke-miterlimit="10"/>
<path d="M364.701 410.101C364.701 410.301 361.101 411.301 354.601 412.901C348.101 414.501 338.501 416.701 326.801 419.301C303.301 424.501 270.701 431.501 234.701 438.701C198.601 445.901 165.901 452.101 142.201 456.301C130.301 458.401 120.701 460.101 114.101 461.101C107.401 462.201 103.701 462.601 103.701 462.401C103.701 462.201 107.301 461.301 113.901 459.801C120.501 458.401 130.001 456.401 141.801 454.001C165.401 449.301 198.001 442.701 234.101 435.501C270.101 428.301 302.801 421.801 326.401 417.001C338.201 414.701 347.801 412.801 354.401 411.601C360.901 410.401 364.601 409.801 364.701 410.101Z" fill="#005797" stroke="#005797" stroke-miterlimit="10"/>
<path d="M248.5 449.4C248.5 449.2 248.8 449 249.1 448.7C249.4 448.4 249.7 448.1 250 447.5C250.3 447 250.4 446.2 250.2 445.8C250 445.3 249.5 444.8 248.7 444.5C248.3 444.4 247.9 444.3 247.5 444.3C247.1 444.3 246.8 444.4 246.4 444.5C245.7 444.8 245.1 445.3 244.6 445.8C243.7 446.9 243.3 447.9 242.8 447.8C242.4 447.8 241.9 446.6 242.6 444.6C243 443.7 243.7 442.6 244.9 441.8C245.5 441.4 246.3 441.1 247.2 441C248 440.9 248.9 441 249.7 441.3C251.4 441.9 252.8 443.3 253 445.1C253.2 446.8 252.5 448.1 251.6 448.9C250.8 449.7 249.8 449.9 249.2 449.8C248.8 449.9 248.5 449.6 248.5 449.4Z" fill="#005797" stroke="#005797" stroke-miterlimit="10"/>
<path d="M153.601 352.4C153.501 352.4 153.301 351.1 153.001 348.8C152.801 346.5 152.401 343.1 152.101 339C151.401 330.7 150.701 319.2 150.101 306.6C149.501 293.9 149.101 282.4 148.901 274.1C148.801 269.9 148.801 266.6 148.801 264.3C148.801 262 148.901 260.7 149.001 260.7C149.101 260.7 149.301 262 149.401 264.3C149.601 266.6 149.801 270 150.001 274.1C150.401 282.4 151.001 293.9 151.601 306.5C152.201 319.2 152.801 330.6 153.201 338.9C153.401 343.1 153.501 346.4 153.601 348.7C153.701 351.1 153.701 352.4 153.601 352.4Z" fill="#005797" stroke="#005797" stroke-width="0.5" stroke-miterlimit="10"/>
<path d="M208.801 252.9C208.801 253.2 205.301 252.9 199.801 252.8C197.001 252.8 193.701 252.8 190.101 253C186.401 253.2 182.401 253.5 178.201 254.1C174.001 254.7 170.001 255.4 166.501 256.2C162.901 257 159.701 257.8 157.101 258.6C151.801 260.1 148.501 261.3 148.401 261.1C148.301 260.9 151.401 259.4 156.701 257.5C159.301 256.6 162.601 255.6 166.201 254.7C169.801 253.8 173.801 253 178.101 252.5C182.301 251.9 186.401 251.6 190.101 251.5C193.801 251.4 197.201 251.5 199.901 251.7C205.401 252.1 208.801 252.7 208.801 252.9Z" fill="#005797" stroke="#005797" stroke-width="0.5" stroke-miterlimit="10"/>
<path d="M218.401 341.1C218.301 341.1 218.201 339.9 218.001 337.7C217.901 335.5 217.701 332.3 217.601 328.4C217.201 320.6 216.701 309.8 215.801 297.9C214.901 286 213.801 275.3 213.001 267.5C212.601 263.6 212.301 260.5 212.001 258.3C211.801 256.1 211.701 254.9 211.801 254.9C211.901 254.9 212.201 256.1 212.601 258.2C213.001 260.4 213.501 263.5 214.101 267.4C215.201 275.2 216.501 285.9 217.401 297.8C218.301 309.7 218.701 320.5 218.701 328.4C218.701 332.3 218.701 335.5 218.601 337.7C218.601 339.9 218.601 341.1 218.401 341.1Z" fill="#005797" stroke="#005797" stroke-width="0.5" stroke-miterlimit="10"/>
<path d="M220 344.901C220 345.001 219.2 345.401 217.7 346.101C216.9 346.401 216 346.801 214.8 347.301C213.7 347.701 212.4 348.201 211 348.701C208.1 349.701 204.7 350.701 200.8 351.601C196.9 352.501 192.6 353.301 188 353.901C183.4 354.501 179 354.801 175 354.901C171 355.001 167.4 354.901 164.4 354.701C162.9 354.601 161.5 354.501 160.3 354.301C159.1 354.201 158.1 354.001 157.2 353.901C155.5 353.601 154.6 353.401 154.6 353.301C154.6 353.001 158.3 353.401 164.4 353.501C167.4 353.601 171 353.501 174.9 353.401C178.9 353.201 183.2 352.901 187.7 352.301C192.2 351.701 196.5 350.901 200.4 350.101C204.3 349.301 207.7 348.401 210.6 347.601C216.4 345.901 219.9 344.601 220 344.901Z" fill="#005797" stroke="#005797" stroke-width="0.5" stroke-miterlimit="10"/>
<path d="M197.801 278.8C197.901 279.2 188.501 280.9 176.901 282.4C174.001 282.8 171.201 283.1 168.701 283.4C168.101 283.5 167.501 283.5 166.901 283.6C166.301 283.7 165.701 283.7 165.001 283.7C164.401 283.6 163.601 283.3 163.101 282.7C162.701 282 162.701 281.4 162.701 280.9C162.701 277.1 162.701 274.7 163.001 274.7C163.201 274.7 163.501 277 163.901 280.9C164.001 281.9 164.201 282.3 165.101 282.4C165.601 282.4 166.101 282.4 166.701 282.3C167.301 282.2 167.901 282.1 168.501 282C171.001 281.6 173.801 281.2 176.701 280.8C188.301 279.2 197.701 278.3 197.801 278.8Z" fill="#005797" stroke="#005797" stroke-width="0.5" stroke-miterlimit="10"/>
<path d="M199 274.6C198.9 274.6 198.6 274.2 198.4 273.3C198.3 272.9 198.2 272.3 198.1 271.6C198.1 271.4 198.1 271.3 198.1 271.1C198.1 270.9 198.1 270.8 198.1 270.6C198.1 270.4 198.1 270.2 198.1 270.1C197.9 270.1 197.6 270.2 197.4 270.2C196.9 270.3 196.4 270.4 195.8 270.5C194.7 270.7 193.5 270.9 192.3 271.1C189.8 271.5 187 272 184.1 272.4C178.6 273.2 173.6 273.9 170 274.3C168.2 274.5 166.7 274.6 165.6 274.5C164.6 274.4 164 274.3 164 274.2C164 274 166.2 273.9 169.8 273.2C173.4 272.5 178.4 271.7 183.9 270.9C186.8 270.5 189.6 270.1 192.2 269.7C193.5 269.5 194.7 269.4 195.8 269.3C196.4 269.2 196.9 269.2 197.4 269.1C198.2 269 199 268.9 199.6 268.9C199.5 269.5 199.3 270.1 199.3 270.7C199.3 271 199.2 271.1 199.2 271.3C199.2 271.5 199.2 271.6 199.2 271.8C199.2 272.4 199.2 272.9 199.2 273.4C199.1 274.1 199.2 274.6 199 274.6Z" fill="#005797" stroke="#005797" stroke-width="0.5" stroke-miterlimit="10"/>
<path d="M184.201 360.8C184.201 361.2 180.801 361.7 176.501 361.8C172.201 361.9 168.801 361.6 168.801 361.2C168.801 360.8 172.201 360.3 176.501 360.2C180.701 360.1 184.201 360.4 184.201 360.8Z" fill="#005797" stroke="#005797" stroke-width="0.5" stroke-miterlimit="10"/>
<path d="M208.4 370.301C208.5 370.701 195 372.901 178.4 375.001C161.8 377.101 148.3 378.501 148.2 378.101C148.1 377.701 161.6 375.501 178.2 373.401C194.8 371.301 208.4 369.901 208.4 370.301Z" fill="#005797" stroke="#005797" stroke-width="0.5" stroke-miterlimit="10"/>
<path d="M176.2 386.001C176.3 386.401 171.5 387.401 165.6 387.701C159.7 388.101 154.9 387.701 154.9 387.301C154.9 386.801 159.7 386.501 165.5 386.101C171.3 385.701 176.1 385.501 176.2 386.001Z" fill="#005797" stroke="#005797" stroke-width="0.5" stroke-miterlimit="10"/>
<path d="M212.901 400.2C213.001 400.6 198.701 402.8 181.001 404.9C163.301 407.1 149.001 408.5 148.901 408C148.801 407.6 163.101 405.4 180.801 403.3C198.401 401.2 212.801 399.8 212.901 400.2Z" fill="#005797" stroke="#005797" stroke-width="0.5" stroke-miterlimit="10"/>
<path d="M269 333.5C268.6 333.5 267 313.8 265.6 289.4C264.2 265 263.4 245.2 263.9 245.2C264.3 245.2 265.9 264.9 267.3 289.3C268.7 313.7 269.5 333.5 269 333.5Z" fill="#005797" stroke="#005797" stroke-width="0.5" stroke-miterlimit="10"/>
<path d="M328.6 233.4C328.6 233.6 325.1 233.8 319.4 234.2C313.7 234.6 305.9 235.3 297.3 236.6C288.7 237.9 281.1 239.7 275.5 241C270 242.4 266.6 243.3 266.5 243.1C266.4 242.9 269.7 241.6 275.2 239.9C280.7 238.2 288.4 236.3 297 235C305.6 233.7 313.6 233.1 319.3 233.1C325 232.9 328.6 233.2 328.6 233.4Z" fill="#005797" stroke="#005797" stroke-width="0.5" stroke-miterlimit="10"/>
<path d="M338.6 322C338.5 322 338.3 320.8 338.1 318.7C337.9 316.6 337.6 313.5 337.2 309.7C336.5 302.1 335.6 291.6 334.5 280C333.4 268.4 332.4 257.9 331.7 250.3C331.3 246.5 331.1 243.4 330.9 241.3C330.7 239.2 330.7 238 330.8 238C330.9 238 331.2 239.1 331.5 241.3C331.9 243.4 332.3 246.5 332.8 250.2C333.8 257.8 335 268.2 336.1 279.8C337.2 291.4 337.9 301.9 338.3 309.5C338.5 313.3 338.6 316.4 338.7 318.5C338.7 320.8 338.7 322 338.6 322Z" fill="#005797" stroke="#005797" stroke-width="0.5" stroke-miterlimit="10"/>
<path d="M337 326.801C337.1 327.001 333.6 328.501 327.9 330.401C325 331.301 321.5 332.301 317.6 333.201C313.7 334.101 309.4 334.901 304.8 335.601C300.2 336.201 295.8 336.601 291.8 336.801C287.8 337.001 284.2 337.001 281.2 336.901C275.1 336.701 271.4 336.101 271.4 335.901C271.4 335.601 275.2 335.801 281.2 335.701C284.2 335.701 287.8 335.501 291.8 335.301C295.8 335.001 300.1 334.601 304.7 334.001C309.2 333.401 313.5 332.601 317.4 331.801C321.3 331.001 324.8 330.101 327.7 329.301C333.3 327.701 336.9 326.601 337 326.801Z" fill="#005797" stroke="#005797" stroke-width="0.5" stroke-miterlimit="10"/>
<path d="M317.9 256.701C318 257.101 309 259.001 297.8 260.901C296.4 261.101 295 261.301 293.7 261.601C292.4 261.801 291.1 262.001 289.8 262.101C289.2 262.201 288.5 262.201 287.9 262.101C287.6 262.101 287.3 262.101 287 262.001L286.5 261.901C286.3 261.801 286.1 261.801 285.8 261.701C285.6 261.601 285.4 261.601 285.2 261.501C285.2 261.301 285.2 261.101 285.1 260.901C285.1 260.601 285 260.201 285 259.901C285 259.401 284.9 258.901 284.8 258.501C284.2 254.901 283.2 252.801 283.5 252.701C283.7 252.601 285.1 254.601 286 258.301C286.1 258.801 286.2 259.301 286.3 259.801C286.3 260.001 286.4 260.201 286.4 260.401V260.501H286.5C286.7 260.501 286.8 260.501 287 260.601C287.3 260.601 287.5 260.601 287.8 260.601C288.3 260.601 288.9 260.601 289.5 260.501C290.7 260.401 291.9 260.101 293.3 259.901C294.6 259.701 296 259.401 297.4 259.201C308.7 257.501 317.8 256.301 317.9 256.701Z" fill="#005797" stroke="#005797" stroke-width="0.5" stroke-miterlimit="10"/>
<path d="M318.1 255.001C317.9 255.101 317.3 252.801 316.5 249.301C316.4 249.101 316.2 248.901 316 249.001C315.5 249.101 315 249.101 314.5 249.201C313.4 249.301 312.3 249.501 311.1 249.601C308.7 249.901 306.1 250.201 303.3 250.601C292.3 252.001 283.3 253.101 283.2 252.601C283.1 252.201 292 250.301 303.1 248.901C305.9 248.601 308.5 248.301 310.9 248.001C312.1 247.901 313.2 247.801 314.3 247.701C314.6 247.701 314.8 247.701 315.1 247.601C315.4 247.601 315.6 247.601 315.9 247.601C316.3 247.601 316.7 247.701 317 248.001C317.3 248.201 317.4 248.601 317.5 248.901C318.2 252.801 318.4 254.901 318.1 255.001Z" fill="#005797" stroke="#005797" stroke-width="0.5" stroke-miterlimit="10"/>
<path d="M301.101 345.1C301.101 345.5 296.401 346.3 290.501 346.8C284.601 347.3 279.801 347.3 279.801 346.9C279.801 346.5 284.501 345.7 290.401 345.2C296.201 344.7 301.001 344.6 301.101 345.1Z" fill="#005797" stroke="#005797" stroke-width="0.5" stroke-miterlimit="10"/>
<path d="M330.4 341.901C330.4 342.401 326 342.801 320.5 343.301C315 343.801 310.6 344.101 310.5 343.701C310.4 343.301 314.8 342.201 320.4 341.701C325.8 341.201 330.4 341.401 330.4 341.901Z" fill="#005797" stroke="#005797" stroke-width="0.5" stroke-miterlimit="10"/>
<path d="M319.3 351.6C319.4 352 311 354.3 300.4 355.8C289.8 357.3 281.1 357.5 281.1 357.1C281.1 356.6 289.7 355.8 300.2 354.2C310.7 352.7 319.2 351.1 319.3 351.6Z" fill="#005797" stroke="#005797" stroke-width="0.5" stroke-miterlimit="10"/>
<path d="M320.2 363.401C320.2 363.701 318 363.601 314.6 364.001C312.9 364.201 310.8 364.501 308.6 364.901C306.3 365.301 303.9 365.801 301.2 366.301C298.6 366.801 296.1 367.301 293.8 367.601C291.5 367.901 289.4 368.101 287.6 368.101C284 368.201 281.9 367.701 281.9 367.501C281.9 367.201 284.1 367.301 287.5 366.901C289.2 366.701 291.3 366.401 293.5 366.001C295.8 365.601 298.2 365.101 300.9 364.601C303.5 364.101 306 363.601 308.3 363.301C310.6 363.001 312.7 362.801 314.5 362.801C318.1 362.801 320.2 363.201 320.2 363.401Z" fill="#005797" stroke="#005797" stroke-width="0.5" stroke-miterlimit="10"/>
<path d="M139.1 179.9C139 179.9 138.9 178.6 138.8 176.4C138.7 174.1 138.6 170.8 138.5 166.8C138.3 158.6 138.1 147.4 137.8 135C137.6 122.6 137.4 111.3 137.2 103.2C137.1 99.1 137.1 95.8 137.1 93.5C137.1 91.2 137.2 90 137.3 90C137.4 90 137.6 91.3 137.7 93.5C137.9 95.8 138.1 99.1 138.3 103.1C138.7 111.2 139.1 122.5 139.3 134.9C139.5 147.3 139.6 158.6 139.5 166.8C139.5 170.9 139.4 174.2 139.3 176.5C139.3 178.6 139.2 179.9 139.1 179.9Z" fill="#005797" stroke="#005797" stroke-width="0.5" stroke-miterlimit="10"/>
<path d="M197.6 84.6004C197.6 84.8004 194.1 84.8004 188.6 84.9004C183 85.0004 175.4 85.2004 166.9 85.9004C158.5 86.6004 150.9 87.6004 145.4 88.5004C139.9 89.3004 136.5 89.9004 136.5 89.7004C136.5 89.5004 139.8 88.5004 145.2 87.4004C150.7 86.3004 158.3 85.1004 166.8 84.3004C175.3 83.6004 183 83.5004 188.6 83.7004C194.2 84.0004 197.6 84.4004 197.6 84.6004Z" fill="#005797" stroke="#005797" stroke-width="0.5" stroke-miterlimit="10"/>
<path d="M197.2 170.601C197.1 170.601 197 169.401 197 167.201C197 165.001 197 161.901 197 158.001C197.1 150.201 197.2 139.501 197.3 127.601C197.4 115.701 197.5 105.001 197.6 97.2006C197.7 93.3006 197.7 90.2006 197.8 88.0006C197.9 85.8006 198 84.6006 198.1 84.6006C198.2 84.6006 198.3 85.8006 198.4 88.0006C198.5 90.2006 198.6 93.3006 198.7 97.2006C198.9 105.001 199 115.801 198.8 127.601C198.7 139.501 198.4 150.201 198.1 158.001C197.9 161.901 197.8 165.001 197.6 167.201C197.4 169.401 197.3 170.601 197.2 170.601Z" fill="#005797" stroke="#005797" stroke-width="0.5" stroke-miterlimit="10"/>
<path d="M198.501 175.7C198.501 175.9 195.301 176.5 190.001 177.2C184.701 177.9 177.401 178.7 169.301 179.6C165.301 180 161.401 180.4 157.901 180.7C154.401 181 151.201 181.3 148.501 181.4C143.101 181.6 139.801 180.7 139.901 180.5C139.901 180.3 143.201 180.8 148.501 180.3C151.101 180.1 154.301 179.6 157.801 179.2C161.301 178.8 165.201 178.4 169.201 178C177.301 177.2 184.601 176.5 189.901 176.1C195.201 175.6 198.501 175.5 198.501 175.7Z" fill="#005797" stroke="#005797" stroke-width="0.5" stroke-miterlimit="10"/>
<path d="M157.701 105.4C157.301 105.5 156.501 104 156.101 102C155.701 100 156.001 98.3002 156.401 98.2002C156.901 98.2002 157.301 99.7002 157.701 101.7C158.001 103.7 158.101 105.3 157.701 105.4Z" fill="#005797" stroke="#005797" stroke-width="0.5" stroke-miterlimit="10"/>
<path d="M174.901 95.8009C174.901 96.3009 170.801 96.8009 165.701 97.4009C160.601 98.0009 156.401 98.4009 156.301 97.9009C156.201 97.5009 160.301 96.3009 165.501 95.7009C170.701 95.2009 174.901 95.4009 174.901 95.8009Z" fill="#005797" stroke="#005797" stroke-width="0.5" stroke-miterlimit="10"/>
<path d="M175.627 102.192C176.068 102.162 176.325 100.663 176.201 98.8449C176.078 97.0265 175.62 95.5768 175.179 95.6068C174.738 95.6368 174.481 97.1352 174.605 98.9535C174.729 100.772 175.187 102.222 175.627 102.192Z" fill="#005797" stroke="#005797" stroke-width="0.5" stroke-miterlimit="10"/>
<path d="M175.5 103.9C175.4 104.1 174.5 103.9 173.2 104.2C172.5 104.3 171.7 104.6 170.8 104.9C169.9 105.2 168.8 105.5 167.7 105.7C163.1 106.6 159.4 105.7 159.5 105.3C159.5 104.8 163.1 104.9 167.4 104.1C168.5 103.9 169.5 103.7 170.4 103.4C171.4 103.2 172.3 103 173.1 103C174.7 103 175.6 103.7 175.5 103.9Z" fill="#005797" stroke="#005797" stroke-width="0.5" stroke-miterlimit="10"/>
<path d="M186.601 111.4C186.601 111.6 184.401 111.8 181.001 112.2C177.501 112.5 172.801 113.2 167.501 114C162.201 114.8 157.501 115.5 154.001 115.8C150.501 116.1 148.301 116.1 148.301 115.9C148.301 115.7 150.401 115.3 153.801 114.7C157.201 114.1 162.001 113.3 167.201 112.4C172.501 111.6 177.301 111.1 180.801 111.1C184.401 110.9 186.601 111.2 186.601 111.4Z" fill="#005797" stroke="#005797" stroke-width="0.5" stroke-miterlimit="10"/>
<path d="M150.001 122.201C149.501 122.201 149.101 120.901 148.801 119.201C148.501 117.501 148.401 116.101 148.901 116.001C149.301 115.901 150.101 117.201 150.401 118.901C150.701 120.701 150.401 122.201 150.001 122.201Z" fill="#005797" stroke="#005797" stroke-width="0.5" stroke-miterlimit="10"/>
<path d="M189 117.6C189 117.7 188.5 118 187.5 118.2C186.5 118.4 185.1 118.7 183.3 118.9C179.8 119.4 174.8 120.1 169.4 120.7C158.5 121.9 149.7 122.5 149.6 122C149.6 121.6 158.3 120.2 169.2 119C174.6 118.4 179.6 118 183.2 117.7C185 117.6 186.4 117.5 187.4 117.5C188.4 117.5 189 117.5 189 117.6Z" fill="#005797" stroke="#005797" stroke-width="0.5" stroke-miterlimit="10"/>
<path d="M189.101 117.3C188.701 117.4 188.101 115.9 187.801 114.1C187.501 112.3 187.701 110.7 188.101 110.7C188.501 110.6 189.101 112.1 189.401 113.9C189.701 115.7 189.501 117.3 189.101 117.3Z" fill="#005797" stroke="#005797" stroke-width="0.5" stroke-miterlimit="10"/>
<path d="M158.5 191C158.5 191.4 154 192 148.5 191.9C143 191.8 138.5 191 138.5 190.6C138.5 190.1 143 190.2 148.5 190.3C154 190.4 158.5 190.5 158.5 191Z" fill="#005797" stroke="#005797" stroke-width="0.5" stroke-miterlimit="10"/>
<path d="M170.1 202.1C170.1 202.6 163.1 202.9 154.6 202.8C146.1 202.7 139.1 202.3 139.1 201.9C139.1 201.5 146.1 201.1 154.6 201.2C163.1 201.2 170.1 201.6 170.1 202.1Z" fill="#005797" stroke="#005797" stroke-width="0.5" stroke-miterlimit="10"/>
<path d="M159.801 213.801C159.801 214.301 155.501 214.201 150.301 214.401C145.101 214.501 140.801 214.701 140.701 214.301C140.601 213.901 144.901 212.901 150.201 212.801C155.601 212.601 159.901 213.301 159.801 213.801Z" fill="#005797" stroke="#005797" stroke-width="0.5" stroke-miterlimit="10"/>
<path d="M182.001 221.801C182.001 222.001 179.101 222.301 174.401 222.501C169.701 222.701 163.101 222.901 155.901 223.101C148.701 223.201 142.101 223.301 137.401 223.201C132.701 223.101 129.701 223.001 129.701 222.801C129.701 222.601 132.601 222.301 137.401 222.101C142.101 221.901 148.701 221.701 155.901 221.501C163.101 221.401 169.701 221.301 174.401 221.401C179.101 221.401 182.001 221.601 182.001 221.801Z" fill="#005797" stroke="#005797" stroke-width="0.5" stroke-miterlimit="10"/>
<path d="M246.801 172.301C246.401 172.301 244.401 152.301 242.501 127.501C240.601 102.701 239.401 82.7006 239.901 82.6006C240.301 82.6006 242.301 102.601 244.201 127.401C246.101 152.201 247.201 172.301 246.801 172.301Z" fill="#005797" stroke="#005797" stroke-width="0.5" stroke-miterlimit="10"/>
<path d="M309 72.3007C309 72.5007 305 72.9007 298.4 73.4007C291.9 73.9007 282.8 74.6007 272.9 75.4007C263 76.3007 254 77.2007 247.4 77.9007C245.8 78.1007 244.3 78.2007 243 78.4007C241.8 78.6007 240.8 79.0007 240.3 79.7007C239.8 80.4007 239.7 81.1007 239.8 81.5007C239.9 81.9007 240 82.1007 240 82.2007C240 82.2007 239.7 82.1007 239.5 81.6007C239.3 81.1007 239.3 80.3007 239.8 79.4007C240.3 78.5007 241.5 77.8007 242.8 77.6007C244.1 77.3007 245.6 77.1007 247.2 76.9007C253.7 75.9007 262.7 74.8007 272.7 73.9007C282.7 73.0007 291.7 72.5007 298.3 72.3007C305 72.0007 309 72.1007 309 72.3007Z" fill="#005797" stroke="#005797" stroke-width="0.5" stroke-miterlimit="10"/>
<path d="M316.5 162.1C316.4 162.1 316.2 160.9 316 158.8C315.8 156.7 315.5 153.6 315.2 149.7C314.6 142 313.9 131.4 313.1 119.7C312.3 108 311.6 97.4002 311.1 89.7002C310.9 85.9002 310.7 82.8002 310.6 80.6002C310.5 78.4002 310.5 77.3002 310.6 77.2002C310.7 77.2002 310.9 78.4002 311.2 80.5002C311.5 82.6002 311.8 85.7002 312.2 89.6002C313 97.3002 313.9 107.8 314.7 119.5C315.5 131.2 316.1 141.8 316.4 149.5C316.5 153.3 316.6 156.5 316.7 158.6C316.6 160.9 316.6 162.1 316.5 162.1Z" fill="#005797" stroke="#005797" stroke-width="0.5" stroke-miterlimit="10"/>
<path d="M319.4 163.401C319.4 163.501 318.5 163.901 316.7 164.501C315 165.101 312.4 165.901 309.2 166.701C302.8 168.401 293.9 170.301 283.9 171.601C273.9 172.901 264.7 173.301 258.1 173.301C254.8 173.301 252.1 173.201 250.3 173.101C248.5 173.001 247.4 172.901 247.4 172.701C247.4 172.501 251.5 172.401 258.1 172.101C264.7 171.801 273.7 171.201 283.7 169.901C293.6 168.601 302.6 166.901 309 165.501C315.3 164.201 319.3 163.201 319.4 163.401Z" fill="#005797" stroke="#005797" stroke-width="0.5" stroke-miterlimit="10"/>
<path d="M302.401 93.5006C302.401 93.7006 299.301 94.2006 294.201 94.8006C289.101 95.4006 282.101 96.0006 274.401 96.7006C266.701 97.3006 259.701 97.8006 254.601 98.1006C253.301 98.2006 252.101 98.2006 251.001 97.9006C250.501 97.7006 250.001 97.5006 249.601 97.1006C249.201 96.7006 249.001 96.3006 248.901 96.0006C248.601 95.2006 248.801 94.6006 249.001 94.2006C249.201 93.8006 249.401 93.8006 249.501 93.8006C249.501 93.8006 249.401 94.0006 249.301 94.3006C249.201 94.6006 249.201 95.1006 249.501 95.7006C249.801 96.3006 250.301 96.8006 251.201 97.0006C252.101 97.2006 253.201 97.1006 254.401 96.9006C259.501 96.3006 266.501 95.7006 274.201 95.0006C281.901 94.4006 288.901 93.9006 294.001 93.6006C299.201 93.4006 302.401 93.3006 302.401 93.5006Z" fill="#005797" stroke="#005797" stroke-width="0.5" stroke-miterlimit="10"/>
<path d="M300.601 89.3006C300.601 89.5006 297.501 89.6006 292.501 89.6006C287.501 89.7006 280.601 89.7006 273.101 90.6006C269.401 91.1006 265.801 91.9006 262.501 92.3006C260.801 92.5006 259.201 92.7006 257.701 92.7006C256.201 92.7006 254.801 92.6006 253.601 92.5006C252.401 92.4006 251.301 92.5006 250.301 92.6006C250.101 92.6006 250.001 92.7006 249.801 92.7006L249.601 92.8006H249.501V92.9006C249.501 93.0006 249.501 93.2006 249.601 93.3006C249.601 93.5006 249.701 93.6006 249.701 93.8006C250.001 95.2006 250.101 96.0006 249.901 96.0006C249.801 96.0006 249.501 95.3006 249.001 94.0006C248.901 93.8006 248.901 93.6006 248.801 93.4006C248.701 93.1006 248.601 92.9006 248.601 92.6006C248.601 92.5006 248.501 92.4006 248.601 92.4006L248.801 92.3006C248.901 92.2006 249.101 92.2006 249.201 92.1006C249.501 92.0006 249.901 91.9006 250.101 91.8006C251.101 91.5006 252.301 91.4006 253.601 91.4006C254.901 91.4006 256.201 91.5006 257.701 91.4006C259.101 91.3006 260.701 91.1006 262.301 90.9006C265.501 90.4006 269.101 89.5006 272.901 89.0006C280.501 88.0006 287.501 88.2006 292.501 88.4006C297.501 88.8006 300.601 89.1006 300.601 89.3006Z" fill="#005797" stroke="#005797" stroke-width="0.5" stroke-miterlimit="10"/>
<path d="M302.493 93.2704C302.932 93.2144 303.162 92.192 303.008 90.9867C302.854 89.7814 302.374 88.8496 301.936 88.9056C301.498 88.9615 301.267 89.9839 301.421 91.1892C301.575 92.3945 302.055 93.3263 302.493 93.2704Z" fill="#005797" stroke="#005797" stroke-width="0.5" stroke-miterlimit="10"/>
<path d="M295.801 180.3C295.801 180.5 293.401 181.2 289.301 182C285.301 182.8 279.701 183.8 273.501 184.6C267.301 185.5 261.601 186.1 257.501 186.4C253.401 186.7 250.901 186.8 250.801 186.6C250.801 186.1 260.801 184.8 273.201 183.1C285.601 181.2 295.701 179.8 295.801 180.3Z" fill="#005797" stroke="#005797" stroke-width="0.5" stroke-miterlimit="10"/>
<path d="M296.3 188.4C296.4 188.8 288.3 190.6 278.1 191.6C267.9 192.6 259.6 192.4 259.6 191.9C259.6 191.4 267.8 190.9 278 190C288 189 296.2 187.9 296.3 188.4Z" fill="#005797" stroke="#005797" stroke-width="0.5" stroke-miterlimit="10"/>
<path d="M290.301 198.301C290.301 198.701 281.701 199.901 271.101 200.901C265.801 201.401 260.901 201.701 257.401 201.901C253.901 202.101 251.701 201.701 251.701 201.401C251.701 201.201 253.901 201.201 257.301 200.701C260.801 200.201 265.601 199.701 270.901 199.201C281.601 198.301 290.201 197.901 290.301 198.301Z" fill="#005797" stroke="#005797" stroke-width="0.5" stroke-miterlimit="10"/>
<path d="M294 211.2C294.1 211.6 285.1 213.3 273.9 214.5C262.7 215.7 253.6 215.9 253.6 215.4C253.6 214.9 262.6 214 273.7 212.9C284.9 211.7 293.9 210.7 294 211.2Z" fill="#005797" stroke="#005797" stroke-width="0.5" stroke-miterlimit="10"/>
<path d="M363 528.6C363.1 529.8 363.2 531.5 363 533.5C362.8 536 362.6 538.6 361.3 540.4C359.7 542.7 357.2 542.7 353.2 543.6C342.1 546.3 336.7 551.1 335.5 552.2C333.9 553.7 331.1 556.2 331.7 557.7C332.7 560 341 558.5 347.7 557.3C356.2 555.8 368.8 553.6 385 551.2C383.8 541.3 382.6 531.5 381.4 521.6C375.3 523.9 369.2 526.3 363 528.6Z" fill="#005797"/>
<path d="M369.1 278.9C368.6 282.4 367.9 287.7 367.1 294.1C360.5 346.6 358.6 385.4 357.5 406C356 433.3 353.2 472.4 347.6 522C351.5 524 357.5 526.4 365.2 527.1C379.7 528.4 390.7 522.6 394.9 520.1C396 512 397.5 500.2 399.1 486.1C405.8 430.3 409.4 387.2 412.4 350.6C414.2 328.5 416.5 299.8 418.8 266C402.3 270.3 385.7 274.6 369.1 278.9Z" fill="white"/>
<path d="M347.601 521C347.201 521 351.401 467.3 357.101 401.1C362.801 334.9 367.801 281.3 368.201 281.4C368.601 281.4 364.401 335.1 358.701 401.3C353.001 467.5 348.001 521.1 347.601 521Z" fill="#005797" stroke="#005797" stroke-width="0.5" stroke-miterlimit="10"/>
<path d="M396.901 519.4C397.001 519.5 394.801 521.5 390.501 523.6C390.001 523.9 389.401 524.1 388.801 524.4C388.201 524.7 387.601 524.9 386.901 525.1C385.601 525.6 384.201 526 382.701 526.5C379.701 527.3 376.301 527.9 372.601 528.1C369.001 528.3 365.501 528 362.401 527.6C360.901 527.3 359.401 527.1 358.101 526.7C357.401 526.5 356.801 526.4 356.201 526.2C355.601 526 355.001 525.8 354.401 525.6C350.001 524 347.501 522.3 347.601 522.2C347.701 521.9 350.301 523.2 354.801 524.6C355.401 524.8 355.901 524.9 356.501 525.1C357.101 525.3 357.801 525.4 358.401 525.5C359.701 525.8 361.201 526 362.701 526.3C365.701 526.7 369.101 526.9 372.601 526.7C376.101 526.5 379.401 525.9 382.401 525.2C383.901 524.8 385.301 524.5 386.501 524C387.101 523.8 387.801 523.6 388.401 523.4C389.001 523.2 389.501 522.9 390.101 522.7C394.301 520.7 396.701 519.1 396.901 519.4Z" fill="#005797" stroke="#005797" stroke-width="0.5" stroke-miterlimit="10"/>
<path d="M395 520C394.9 520 395 519.3 395.1 517.9C395.2 516.5 395.4 514.5 395.7 511.8C396.3 506.5 397.1 498.9 398.2 489.5C400.3 470.7 403.2 444.7 406 415.9C408.8 387.1 411 361.1 412.6 342.2C413.4 332.8 414 325.1 414.4 319.8C414.6 317.2 414.8 315.1 415 313.7C415.2 312.3 415.2 311.6 415.3 311.6C415.4 311.6 415.4 312.3 415.3 313.7C415.2 315.1 415.2 317.2 415 319.8C414.8 325.1 414.3 332.7 413.7 342.2C412.5 361.1 410.4 387.2 407.6 416C404.8 444.8 401.8 470.8 399.3 489.6C398.1 499 397.1 506.6 396.3 511.8C395.9 514.4 395.6 516.5 395.4 517.8C395.2 519.3 395.1 520 395 520Z" fill="#005797" stroke="#005797" stroke-width="0.5" stroke-miterlimit="10"/>
<path d="M383.1 526.9C383.2 526.9 383.3 528.7 383.6 532C383.9 535.2 384.4 539.9 385.5 545.7C385.6 546.4 385.8 547.1 385.9 547.9C386.1 548.7 386.3 549.5 386.4 550.4L386.6 551.3C386.3 551.4 386 551.6 385.7 551.7L385.2 551.9L384.9 552L384.3 552.2C383.5 552.5 382.6 552.7 381.8 552.9C378.4 553.6 374.8 554.4 371 555C369.1 555.3 367.1 555.5 365 555.7C363 555.8 360.9 555.9 358.8 556C354.7 556.3 350.5 557.6 346.2 558.6C341.9 559.7 337.3 560.4 333 559.6C332.4 559.5 331.7 559.2 331.2 558.6C330.7 558 330.5 557.3 330.5 556.6C330.5 555.9 330.7 555.3 331 554.7C331.3 554.2 331.7 553.7 332.2 553.4C333.1 552.7 334 552.2 334.9 551.7C335.8 551.2 336.7 550.8 337.5 550.3C341 548.6 344.5 547.2 347.8 546.2C349.5 545.7 351.1 545.2 352.6 544.9C354.2 544.5 355.7 544.2 357 543.8C358.4 543.4 359.6 542.8 360.6 542C361.6 541.2 362.4 540.3 362.8 539.3C363.2 538.3 363.3 537.3 363.2 536.3C363.1 535.3 362.9 534.5 362.8 533.7C362.5 532.1 362.4 530.8 362.5 529.9C362.7 529 362.9 528.6 363 528.6C363.1 528.6 362.9 529.1 362.9 529.9C362.8 530.7 363 532 363.5 533.5C363.7 534.3 363.9 535.2 364.1 536.2C364.2 537.2 364.2 538.4 363.8 539.6C362.9 542 360.4 543.8 357.6 544.8C356.2 545.3 354.7 545.6 353.1 546C351.6 546.4 350 546.8 348.4 547.4C345.2 548.5 341.8 549.8 338.4 551.6C337.5 552 336.7 552.5 335.8 553C335 553.5 334.1 554 333.4 554.5C333.1 554.8 332.8 555.1 332.6 555.4C332.4 555.7 332.3 556.1 332.3 556.5C332.3 556.9 332.4 557.2 332.6 557.4C332.8 557.6 333.1 557.8 333.5 557.8C335.4 558.1 337.6 558.2 339.6 558C341.7 557.8 343.8 557.3 346 556.8C350.3 555.8 354.6 554.5 358.9 554.2C361 554 363.1 554 365.1 553.9C367.1 553.8 369 553.6 370.9 553.3C374.7 552.7 378.3 552 381.7 551.3C382.5 551.1 383.3 550.9 384.1 550.7L384.7 550.5L385.1 550.4C385.2 550.4 385.3 550.3 385.3 550.3V550.1C385.2 549.4 385 548.7 384.9 548C384.8 547.2 384.6 546.5 384.5 545.8C383.5 540 383.2 535.2 383.1 532C383.1 530.4 383.1 529.1 383.1 528.2C383 527.4 383 526.9 383.1 526.9Z" fill="#005797" stroke="#005797" stroke-width="0.5" stroke-miterlimit="10"/>
<path d="M435.401 529.1C436.201 533.3 437.001 537.5 437.701 541.7C434.401 542.8 429.501 544.6 423.801 547.4C418.801 549.8 407.301 555.8 408.001 557.7C408.401 558.8 412.901 558.1 422.601 556.1C431.401 554.2 443.801 551.3 458.901 546.9C457.901 543 456.901 539.1 455.901 535C454.501 529.2 453.301 523.6 452.201 518.1C446.701 521.7 441.101 525.4 435.401 529.1Z" fill="#005797"/>
<path d="M438.801 270.6C438.901 271.3 440.701 285.5 440.801 286.3C450.001 357.2 449.801 355.5 450.501 361.3C452.601 378.1 454.601 400.3 458.601 444.8C461.101 472.6 463.101 495.7 464.501 511.9C463.001 514.3 460.301 517.9 456.101 521.1C455.001 522 450.401 525.3 444.601 526.9C431.801 530.3 420.201 523.3 417.901 521.8C416.201 509.9 414.201 495.4 412.001 478.8C410.101 464 407.201 441.1 404.101 413.4C401.001 385.5 397.501 351.1 394.301 311.5C390.201 308.1 386.101 304.6 382.001 301.2C381.601 297.5 380.601 285.2 388.401 275.7C398.501 263.2 419.801 260.1 438.801 270.6Z" fill="white"/>
<path d="M463.101 511.6C463.001 511.6 462.901 510.8 462.801 509.2C462.701 507.6 462.501 505.2 462.301 502.2C461.901 496.1 461.201 487.3 460.401 476.5C459.601 465.6 458.601 452.7 457.401 438.4C456.201 424.1 454.701 408.3 453.001 391.8C451.301 375.3 449.601 359.6 447.901 345.3C446.201 331 444.601 318.2 443.201 307.4C441.801 296.6 440.601 287.9 439.801 281.8C439.401 278.8 439.101 276.4 438.901 274.8C438.701 273.2 438.601 272.4 438.701 272.4C438.801 272.4 438.901 273.2 439.201 274.8C439.501 276.4 439.901 278.7 440.401 281.7C441.401 287.7 442.701 296.4 444.301 307.2C445.901 318 447.601 330.8 449.401 345.1C451.201 359.4 453.001 375.1 454.701 391.7C456.401 408.2 457.801 424 458.901 438.4C460.001 452.8 460.901 465.7 461.601 476.6C462.301 487.5 462.701 496.3 462.901 502.4C463.001 505.4 463.101 507.8 463.101 509.4C463.201 510.7 463.201 511.6 463.101 511.6Z" fill="#005797" stroke="#005797" stroke-width="0.5" stroke-miterlimit="10"/>
<path d="M394.571 310.744C394.83 310.386 392.718 308.417 389.854 306.345C386.99 304.274 384.458 302.884 384.199 303.242C383.94 303.6 386.052 305.57 388.916 307.642C391.78 309.713 394.312 311.102 394.571 310.744Z" fill="#005797" stroke="#005797" stroke-width="0.5" stroke-miterlimit="10"/>
<path d="M417.902 521.8C417.802 521.8 417.702 521.1 417.402 519.7C417.202 518.3 416.802 516.3 416.402 513.6C415.602 508.3 414.402 500.7 413.102 491.2C410.402 472.2 407.002 446 403.702 417C400.402 388 398.002 361.6 396.402 342.6C395.602 333.1 395.002 325.3 394.702 320C394.502 317.3 394.402 315.3 394.302 313.8C394.202 312.3 394.202 311.7 394.302 311.6C394.402 311.6 394.502 312.3 394.602 313.7C394.702 315.1 395.002 317.2 395.302 319.8C395.802 325.1 396.602 332.8 397.502 342.4C399.402 361.4 402.002 387.7 405.302 416.8C408.602 445.8 411.802 472 414.202 491C415.402 500.5 416.402 508.2 417.002 513.5C417.302 516.2 417.602 518.2 417.702 519.6C417.902 521 417.902 521.8 417.902 521.8Z" fill="#005797" stroke="#005797" stroke-width="0.5" stroke-miterlimit="10"/>
<path d="M464.6 512C464.7 512.1 464.4 512.7 463.7 513.9C463 515.1 461.8 516.7 460.2 518.5C458.5 520.3 456.3 522.2 453.5 523.9C450.7 525.6 447.4 527.1 443.8 528C440.1 529 436.5 529.3 433.3 529.1C432.5 529.1 431.7 529 430.9 528.9C430.1 528.8 429.4 528.7 428.7 528.5C428 528.3 427.3 528.2 426.7 528C426 527.8 425.4 527.6 424.9 527.4C422.6 526.5 420.9 525.3 420 524.2C419.1 523.1 418.9 522.4 418.9 522.3C419 522.2 419.4 522.9 420.4 523.7C421.4 524.6 423 525.6 425.3 526.2C429.8 527.5 436.5 528.2 443.5 526.3C447 525.4 450.2 524 452.9 522.5C455.6 520.9 457.8 519.1 459.6 517.5C462.8 514.4 464.3 511.8 464.6 512Z" fill="#005797" stroke="#005797" stroke-width="0.5" stroke-miterlimit="10"/>
<path d="M458.902 546.9C458.902 547 457.602 547.5 455.102 548.2C452.602 548.9 449.102 549.9 444.702 551.1C440.302 552.3 435.002 553.7 429.202 555.2C426.302 556 423.202 556.7 420.002 557.6C418.402 558 416.802 558.4 415.102 558.8C413.402 559.1 411.602 559.4 409.702 559.1C409.202 559 408.702 558.9 408.202 558.7C408.002 558.6 407.702 558.5 407.502 558.4C407.402 558.3 407.202 558.2 407.002 558.1C406.802 558 406.702 557.8 406.602 557.7C406.102 557 406.302 556.1 406.902 555.5C407.502 555 407.802 554.8 408.202 554.6C409.702 553.6 411.302 552.7 412.802 551.8C415.902 550 418.902 548.5 421.902 547.1C424.802 545.8 427.702 544.6 430.302 543.7C431.602 543.2 432.902 542.8 434.102 542.4C434.702 542.2 435.302 542 435.902 541.9C436.302 541.8 436.702 541.7 437.202 541.6C436.902 539.8 436.702 538.2 436.402 536.8C436.202 535.3 436.002 533.9 435.802 532.8C435.502 530.6 435.402 529.4 435.502 529.4C435.602 529.4 435.902 530.5 436.402 532.7C436.602 533.8 436.902 535.1 437.302 536.6C437.602 538.3 438.002 540.2 438.502 542.3C437.802 542.5 437.102 542.8 436.302 543C435.702 543.2 435.102 543.4 434.502 543.6C433.302 544 432.002 544.5 430.702 545C428.102 546 425.302 547.2 422.502 548.5C419.602 549.9 416.602 551.4 413.602 553.2C412.102 554.1 410.602 555 409.102 556C408.702 556.2 408.202 556.5 408.202 556.6C408.102 556.7 408.102 556.8 408.202 556.9C408.202 556.9 408.202 556.9 408.302 557C408.302 557 408.302 557 408.402 557.1C408.502 557.2 408.702 557.3 408.902 557.3C409.302 557.4 409.702 557.6 410.102 557.6C411.702 557.9 413.302 557.7 414.902 557.4C416.502 557.1 418.102 556.6 419.702 556.2C422.902 555.4 426.002 554.7 428.902 553.9C434.802 552.5 440.102 551.2 444.502 550.1C448.902 549.1 452.602 548.2 455.102 547.7C457.602 547.2 458.902 546.8 458.902 546.9Z" fill="#005797" stroke="#005797" stroke-width="0.5" stroke-miterlimit="10"/>
<path d="M458.801 545.3C458.401 545.4 456.401 540.9 455.201 535C454.001 529.1 454.001 524.1 454.401 524.1C454.901 524.1 455.601 528.9 456.801 534.7C458.001 540.5 459.201 545.1 458.801 545.3Z" fill="#005797" stroke="#005797" stroke-width="0.5" stroke-miterlimit="10"/>
<path d="M382.6 147.5C375.6 154.1 371.9 161.9 369.6 166.6C366.5 173 363.3 179.9 363.5 188.9C363.7 193.9 364.7 194.2 364.6 199.8C364.5 207.6 362.3 208.8 362 216.8C361.6 224 363.3 224.1 362.7 230.7C362.2 236.5 360.9 236.6 359.1 245C357.8 250.9 356.7 256.4 357.6 263.1C358.3 268.4 360.1 272.6 361.4 275.1C365.4 277.5 371.7 280.6 379.8 281.8C382.8 282.3 385.7 282.4 390.1 282.3C398 282.1 409.2 281.9 423 277.3C434.3 273.5 443.2 268.3 449.5 263.8C453.5 251.3 452.5 242.3 450.7 236.3C447.8 226.7 442.2 222.3 442.2 211.5C442.2 209 442.5 205.5 441.5 200.4C440.4 195.1 438.6 191.7 437.7 189.7C433.7 180.8 436.3 175.8 435 160.3C433.9 146.6 433.3 139.7 429.7 136.3C420.2 127.6 396 134.8 382.6 147.5Z" fill="white"/>
<path d="M360.1 272.3C360 272.3 359.4 271.2 358.5 268.9C357.7 266.6 356.8 263.2 356.6 258.9C356.3 254.6 356.8 249.4 358.7 244C359.6 241.3 361 238.7 361.7 235.8C362.4 233 361.9 229.9 361.3 226.8C361 225.2 360.7 223.6 360.6 221.9C360.5 220.3 360.7 218.6 361.1 217C361.9 213.9 363.2 211.3 363.8 208.6C364.5 206 364.4 203.4 364.1 200.9C363.8 198.5 363.4 196.2 363.2 194C362.7 189.7 363.1 186.1 364.1 183.9C364.6 182.8 365.1 182 365.5 181.5C365.9 181 366.2 180.8 366.2 180.8C366.3 180.9 365.4 181.9 364.7 184.1C363.9 186.3 363.7 189.7 364.3 193.9C364.6 196 365.1 198.3 365.4 200.8C365.7 203.3 365.9 206.1 365.2 209C364.6 211.8 363.3 214.6 362.6 217.4C361.8 220.2 362.2 223.3 362.8 226.4C363.1 228 363.4 229.6 363.5 231.2C363.6 232.8 363.5 234.5 363.1 236.1C362.3 239.2 360.8 241.8 359.9 244.4C358 249.6 357.5 254.6 357.6 258.8C357.7 263 358.4 266.3 359 268.6C359.8 271 360.2 272.2 360.1 272.3Z" fill="#005797" stroke="#005797" stroke-width="0.5" stroke-miterlimit="10"/>
<path d="M449.3 264.9C449.4 265 448.3 265.8 446.2 267.2C444.1 268.6 441 270.4 437 272.5C433 274.5 428.1 276.6 422.4 278.3C416.8 280.1 410.4 281.6 403.6 282.4C396.8 283.2 390.3 283.4 384.4 283C382.9 282.9 381.5 282.8 380.1 282.6C378.7 282.4 377.4 282.2 376.1 282.1C373.5 281.7 371.1 281.3 368.9 280.5C366.7 279.8 364.9 278.8 363.4 277.7C362 276.6 361 275.3 360.3 274.3C359.6 273.2 359.3 272.2 359.2 271.6C359.1 270.9 359.1 270.6 359.1 270.6C359.2 270.6 359.4 272 360.8 274C361.5 275 362.5 276.1 363.9 277.1C365.3 278.1 367.1 278.9 369.2 279.5C371.3 280.1 373.7 280.5 376.2 280.8C377.5 280.9 378.8 281.1 380.2 281.2C381.6 281.3 383 281.4 384.5 281.5C390.3 281.8 396.8 281.6 403.4 280.8C410.1 280 416.4 278.6 421.9 276.9C427.5 275.2 432.4 273.2 436.4 271.4C444.6 267.7 449.2 264.7 449.3 264.9Z" fill="#005797" stroke="#005797" stroke-width="0.5" stroke-miterlimit="10"/>
<path d="M449.6 263.9C449.5 263.9 449.7 262.5 450.1 260.1C450.5 257.7 450.8 254.1 450.9 249.7C451 245.3 450.6 240.1 449.4 234.4C448.8 231.6 448 228.6 447 225.6C446 222.6 444.7 219.6 443.2 216.6C442.5 215.1 441.7 213.4 441.5 211.7C441.2 209.9 441.4 208.3 441.4 206.7C441.6 203.6 440.9 200.7 439.9 198C438.9 195.3 437.8 192.7 437.1 190.1C436.3 187.6 435.8 185.2 435.4 183C434.6 178.6 434.4 175 434.4 172.5C434.4 170 434.5 168.6 434.6 168.6C434.7 168.6 434.8 170 435 172.4C435.2 174.9 435.6 178.4 436.5 182.7C437 184.8 437.6 187.2 438.4 189.6C439.2 192.1 440.3 194.6 441.3 197.4C441.8 198.8 442.3 200.3 442.6 201.8C442.9 203.4 443 205.1 443 206.7C442.9 208.3 442.8 209.9 443.1 211.4C443.3 212.9 444 214.4 444.7 215.9C446.2 219 447.5 222 448.5 225.1C449.5 228.2 450.3 231.2 450.8 234.1C451.9 239.9 452.2 245.3 451.9 249.8C451.7 254.3 451.1 257.9 450.6 260.3C450.1 262.6 449.7 263.9 449.6 263.9Z" fill="#005797" stroke="#005797" stroke-width="0.5" stroke-miterlimit="10"/>
<path d="M406.6 143.9C406.6 144 406 144.1 404.9 144.1C403.8 144.1 402.3 144.1 400.5 144.3C398.7 144.5 396.5 144.9 394.5 146.1C393.5 146.7 392.6 147.5 391.9 148.5C391.8 148.6 391.7 148.8 391.7 148.9L391.4 149.4C391.1 149.9 390.6 150.3 390 150.2C389.7 150.2 389.4 150.1 389.1 149.9L388.6 149.7C388.3 149.6 388 149.4 387.7 149.3C385.1 148.3 382.5 148.1 380.1 148.3C377.7 148.5 375.6 149.2 373.9 149.9C370.6 151.4 369 153.3 368.8 153.1C368.7 153 370 150.9 373.4 148.9C375.1 148 377.3 147.1 379.9 146.8C381.2 146.7 382.6 146.6 384 146.8C385.4 147 386.9 147.3 388.3 147.8C388.7 147.9 389 148.1 389.3 148.3L389.8 148.5H389.9C390 148.5 390.1 148.5 390.1 148.4L390.3 148C390.4 147.8 390.5 147.7 390.6 147.5C391.5 146.3 392.6 145.3 393.7 144.7C396 143.4 398.5 143 400.4 143C402.3 143 403.9 143.2 404.9 143.3C406 143.6 406.6 143.8 406.6 143.9Z" fill="#005797" stroke="#005797" stroke-width="0.5" stroke-miterlimit="10"/>
<path d="M368.302 150.2C366.102 152.5 363.802 155.6 362.402 159.6C360.402 165.2 361.702 167.8 359.102 171.5C357.002 174.5 355.402 174 350.702 177.8C349.802 178.5 345.602 182 342.902 186.4C338.902 192.7 338.702 199.8 339.102 204.8C337.702 206.1 334.402 209.6 333.202 215.3C332.202 219.9 333.102 223.7 333.602 225.5C333.802 232.6 337.702 238.3 342.902 239.6C348.002 240.9 352.602 237.4 354.202 236.2C360.602 231.3 361.502 223.6 361.602 222C364.202 220.8 368.002 218.7 371.502 215C373.302 213.1 377.802 207.9 381.602 189.8C384.702 174.7 386.302 167.2 382.602 160.9C378.802 154.4 372.202 151.5 368.302 150.2Z" fill="white"/>
<path d="M340.2 194.4C340.1 194.4 340.1 193.6 340.3 192.1C340.6 190.7 341.1 188.6 342.3 186.2C343.5 183.8 345.3 181.2 348 178.9C349.3 177.7 350.9 176.7 352.6 175.8C354.2 174.9 355.9 174.1 357.2 172.8C357.8 172.2 358.3 171.5 358.5 170.7C358.8 169.9 358.9 169 359 168.1C359.3 166.2 359.7 164.4 360.3 162.7C361.5 159.4 363.2 156.7 364.9 154.6C366.6 152.6 368.2 151.2 369.4 150.4C370.6 149.6 371.4 149.2 371.4 149.3C371.6 149.5 368.8 151.3 365.8 155.3C364.3 157.3 362.8 160 361.8 163.1C361.3 164.7 360.9 166.4 360.7 168.2C360.6 169.1 360.5 170.1 360.1 171.1C359.8 172.1 359.1 173.1 358.4 173.9C356.8 175.4 355 176.3 353.4 177.2C351.8 178 350.3 179 349.1 180C346.5 182.1 344.7 184.5 343.4 186.7C340.8 191.1 340.5 194.4 340.2 194.4Z" fill="#005797" stroke="#005797" stroke-width="0.5" stroke-miterlimit="10"/>
<path d="M333.501 225.6C333.301 225.7 332.301 224 331.901 220.8C331.701 219.2 331.801 217.3 332.301 215.3C332.801 213.3 333.701 211.1 335.201 209.1C335.501 208.6 336.001 208.2 336.401 207.7C336.801 207.3 337.301 206.8 337.601 206.5C337.801 206.3 337.901 206.2 338.001 206C338.101 205.9 338.101 205.8 338.101 205.6C338.101 205.2 338.101 204.6 338.101 204.1C338.101 202 338.301 200.2 338.601 198.7C339.201 195.6 340.001 193.9 340.201 193.9C340.401 194 340.101 195.8 339.801 198.8C339.701 200.3 339.601 202.1 339.601 204.1C339.601 204.6 339.701 205 339.601 205.7C339.601 206 339.501 206.5 339.301 206.8C339.101 207.1 338.901 207.4 338.601 207.6C338.201 208 337.801 208.4 337.401 208.7C337.101 209.1 336.701 209.5 336.401 210C333.701 213.6 332.901 217.8 332.901 220.7C333.101 223.7 333.801 225.5 333.501 225.6Z" fill="#005797" stroke="#005797" stroke-width="0.5" stroke-miterlimit="10"/>
<path d="M371.001 206.7C371.101 206.7 371.301 207.3 371.301 208.4C371.301 209.5 371.201 211.1 370.501 213C369.901 214.9 368.801 217 367.001 219C366.101 220 365.001 220.9 363.801 221.7C363.201 222.1 362.501 222.5 362.001 222.8C361.501 223.2 361.201 223.4 361.101 224C360.901 224.6 360.801 225.4 360.501 226.1C360.301 226.8 360.101 227.5 359.801 228.2C359.301 229.5 358.701 230.8 358.101 231.9C356.801 234.2 355.401 236 354.001 237.4C353.301 238.1 352.601 238.7 351.901 239.1C351.501 239.3 351.201 239.4 350.901 239.6C350.701 239.6 350.601 239.7 350.401 239.7C350.201 239.8 350.001 239.8 349.901 239.8C349.701 239.8 349.601 239.8 349.401 239.8C349.301 239.8 349.301 239.8 349.201 239.8C349.201 239.8 349.201 239.7 349.101 239.6C349.001 239.3 349.001 239.1 348.901 239C348.801 238.7 348.801 238.5 348.901 238.5C349.001 238.5 349.101 238.6 349.201 238.8C349.301 238.9 349.301 239 349.401 239.1C349.401 239.1 349.401 239.2 349.501 239.2H349.601C349.701 239.2 349.801 239.1 349.901 239.1C350.001 239.1 350.101 239 350.201 239C350.301 239 350.501 238.9 350.601 238.8C350.901 238.7 351.201 238.5 351.401 238.3C352.001 237.9 352.601 237.3 353.201 236.6C354.401 235.2 355.701 233.3 356.801 231.1C357.401 230 357.901 228.8 358.401 227.5C358.601 226.9 358.801 226.2 359.001 225.6C359.201 224.9 359.301 224.3 359.601 223.5C359.701 223.1 359.901 222.6 360.201 222.2C360.501 221.8 360.901 221.5 361.201 221.3C361.501 221.1 361.901 220.9 362.201 220.8C362.501 220.6 362.801 220.5 363.101 220.3C364.201 219.6 365.201 218.8 366.001 217.9C367.701 216.2 368.801 214.2 369.601 212.5C370.901 209.1 370.701 206.6 371.001 206.7Z" fill="#005797" stroke="#005797" stroke-width="0.5" stroke-miterlimit="10"/>
<path d="M318.801 191.2C321.601 200.2 324.501 209.2 327.301 218.3C331.301 231 335.301 243.6 339.301 256.3C342.901 258.5 346.601 261 350.401 263.8C353.601 266.1 356.501 268.4 359.201 270.6C361.101 270.8 364.101 270.9 367.501 270C372.001 268.9 375.001 266.7 375.901 266.1C379.701 263.5 387.901 259.9 406.501 255.5C405.001 250.1 403.601 244.6 402.301 239C397.701 220.3 394.201 202.2 391.501 184.9C390.401 185 389.201 185 388.101 185.1C387.201 183.2 386.401 181.3 385.501 179.3C382.601 181.3 380.001 182.7 377.801 183.8C370.401 187.4 363.301 189.3 363.301 189.3C359.501 190.3 357.501 190.5 354.901 192.3C352.701 193.8 351.201 195.6 350.301 196.9C346.401 194 343.001 192.6 340.501 191.8C338.701 191.2 337.101 190.9 332.801 189.5C330.601 188.8 328.701 188.2 327.501 187.8C326.001 189.1 324.501 190.5 323.101 191.8C321.501 191.5 320.201 191.3 318.801 191.2Z" fill="white"/>
<path d="M318.801 191.2C319.201 191.1 322.001 199.6 325.401 210.2C328.901 220.7 331.801 229.2 331.301 229.4C330.901 229.6 327.301 221.3 323.801 210.7C320.401 200.1 318.401 191.3 318.801 191.2Z" fill="#005797" stroke="#005797" stroke-width="0.5" stroke-miterlimit="10"/>
<path d="M348.726 201.634C348.878 201.22 342.488 198.49 334.454 195.538C326.419 192.585 319.782 190.528 319.629 190.942C319.477 191.357 325.867 194.087 333.902 197.039C341.937 199.992 348.574 202.049 348.726 201.634Z" fill="#005797" stroke="#005797" stroke-width="0.5" stroke-miterlimit="10"/>
<path d="M391.4 183.9C391.6 184.4 381.6 188 369.6 192.9C363.6 195.3 358.1 197.6 354.2 199.2C350.2 200.8 347.8 201.7 347.7 201.5C347.6 201.3 349.9 200 353.8 198.1C357.6 196.2 363 193.8 369.1 191.4C375.2 189 380.7 187 384.8 185.7C388.7 184.4 391.3 183.7 391.4 183.9Z" fill="#005797" stroke="#005797" stroke-width="0.5" stroke-miterlimit="10"/>
<path d="M406.901 257.5C406.801 257.5 406.401 256.6 405.901 254.8C405.301 253 404.601 250.4 403.701 247.1C401.901 240.6 399.701 231.6 397.501 221.5C395.401 211.5 393.701 202.3 392.701 195.7C392.201 192.4 391.801 189.7 391.601 187.8C391.401 185.9 391.301 184.9 391.401 184.9C391.601 184.9 392.501 188.9 393.801 195.5C395.101 202.1 396.901 211.2 399.101 221.2C401.201 231.2 403.301 240.3 404.801 246.8C406.301 253.3 407.201 257.4 406.901 257.5Z" fill="#005797" stroke="#005797" stroke-width="0.5" stroke-miterlimit="10"/>
<path d="M406.501 255.501C406.601 255.701 402.601 256.901 396.201 259.101C389.901 261.301 381.201 264.501 371.901 268.801C370.701 269.301 369.601 269.901 368.501 270.401C367.401 270.901 366.101 271.501 364.801 271.701C363.501 271.901 362.101 271.601 360.901 271.101C359.701 270.601 358.701 270.001 357.801 269.401C354.101 266.901 350.801 264.701 348.001 262.801C342.501 259.001 339.101 256.501 339.201 256.301C339.301 256.101 342.901 258.201 348.601 261.801C351.401 263.601 354.801 265.701 358.501 268.101C360.301 269.301 362.301 270.401 364.401 270.101C365.501 269.901 366.501 269.501 367.601 269.001C368.701 268.501 369.901 267.901 371.001 267.401C380.301 263.101 389.101 260.001 395.601 258.101C398.801 257.101 401.501 256.501 403.301 256.101C405.401 255.501 406.401 255.401 406.501 255.501Z" fill="#005797" stroke="#005797" stroke-width="0.5" stroke-miterlimit="10"/>
<path d="M350.6 197.801C350.4 198.001 349.3 196.501 346.9 195.101C345.7 194.401 344.2 193.701 342.4 193.101C340.6 192.501 338.6 192.101 336.5 191.701C334.4 191.301 332.3 190.801 330.4 190.301C329.5 190.001 328.6 189.701 327.8 189.401C327.6 189.301 327.6 189.301 327.5 189.301C327.4 189.301 327.3 189.301 327.3 189.401C327.1 189.501 326.8 189.901 326.5 190.201C325.3 191.301 324.1 191.701 323.3 191.901C322.5 192.101 322 192.001 322 191.901C322 191.801 322.4 191.601 323.1 191.301C323.8 191.001 324.8 190.401 325.7 189.401C325.9 189.101 326 188.901 326.5 188.501C326.7 188.301 327 188.101 327.4 188.101C327.7 188.101 328.1 188.101 328.3 188.201C329.2 188.501 329.9 188.701 330.9 189.001C332.7 189.501 334.7 189.901 336.9 190.301C339.1 190.701 341.2 191.201 343 191.901C344.8 192.601 346.4 193.401 347.6 194.301C350.1 195.901 350.8 197.701 350.6 197.801Z" fill="#005797" stroke="#005797" stroke-width="0.5" stroke-miterlimit="10"/>
<path d="M385.4 179.2C385.5 179.4 383.6 180.7 380.3 182.6C378.7 183.6 376.8 184.7 374.5 185.9C372.3 187.1 369.7 188.2 366.8 188.9C364 189.6 361.3 190.2 359 190.9C356.7 191.6 354.7 192.6 353.3 193.7C350.3 195.8 349.6 198.2 349.3 198.1C349.2 198.1 349.3 197.5 349.7 196.5C350.1 195.5 351 194.1 352.5 192.9C354 191.6 356 190.4 358.5 189.6C360.9 188.7 363.6 188.2 366.4 187.4C369.1 186.7 371.6 185.7 373.8 184.6C376 183.5 378 182.5 379.7 181.6C383.2 180 385.3 179 385.4 179.2Z" fill="#005797" stroke="#005797" stroke-width="0.5" stroke-miterlimit="10"/>
<path d="M389.101 184.301C388.801 184.601 387.501 183.901 386.401 182.501C385.401 181.001 385.201 179.501 385.601 179.401C386.001 179.201 386.801 180.301 387.701 181.601C388.701 182.901 389.401 184.001 389.101 184.301Z" fill="#005797" stroke="#005797" stroke-width="0.5" stroke-miterlimit="10"/>
<path d="M329.502 229.4C328.602 229.9 329.502 232.1 331.202 242.5C332.102 247.9 332.502 251.3 335.002 254.9C335.702 255.9 337.702 258.7 339.202 258.3C341.302 257.7 341.102 251.3 341.102 250.1C340.902 243.3 338.101 238.5 337.401 237.2C335.101 233.4 331.002 228.6 329.502 229.4Z" fill="white"/>
<path d="M333.501 247.599C333.301 247.699 332.601 246.899 331.701 245.399C330.901 243.899 329.901 241.599 329.401 238.999C328.801 236.399 328.701 233.899 328.801 232.199C328.901 230.499 329.201 229.399 329.401 229.399C329.901 229.399 329.801 233.599 330.901 238.599C332.001 243.599 333.901 247.299 333.501 247.599Z" fill="#005797" stroke="#005797" stroke-width="0.5" stroke-miterlimit="10"/>
<path d="M338.901 240.1C338.501 240.2 337.201 237 334.401 234C333.701 233.2 333.001 232.6 332.301 232C332.001 231.7 331.601 231.4 331.301 231.2C331.001 231 330.701 230.8 330.501 230.7C329.901 230.4 329.501 230.4 329.201 230.5C328.901 230.6 328.801 230.7 328.601 230.7C328.501 230.7 328.401 230.4 328.801 230C329.201 229.6 330.001 229.5 330.801 229.7C331.201 229.8 331.601 229.9 332.001 230.2C332.401 230.4 332.801 230.7 333.201 230.9C334.001 231.5 334.801 232.2 335.501 233C337.001 234.7 338.001 236.5 338.401 237.8C339.101 239.2 339.101 240.1 338.901 240.1Z" fill="#005797" stroke="#005797" stroke-width="0.5" stroke-miterlimit="10"/>
<path d="M338.501 242.6C338.201 242.9 335.801 241.4 333.601 238.7C331.401 236 330.501 233.3 330.901 233.1C331.301 232.9 332.801 235.1 334.901 237.7C337.001 240.3 338.801 242.3 338.501 242.6Z" fill="#005797" stroke="#005797" stroke-width="0.5" stroke-miterlimit="10"/>
<path d="M339.7 247.3C339.6 247.5 338.8 247.5 337.6 247.1C336.4 246.7 334.9 245.8 333.4 244.5C332 243.2 331 241.7 330.5 240.5C330 239.3 329.9 238.5 330.1 238.5C330.5 238.3 331.9 240.9 334.5 243.3C337.2 245.7 339.9 246.9 339.7 247.3Z" fill="#005797" stroke="#005797" stroke-width="0.5" stroke-miterlimit="10"/>
<path d="M340.401 253.899C340.401 253.899 340.501 253.999 340.401 254.099C340.401 254.199 340.201 254.399 340.001 254.499C339.801 254.599 339.501 254.599 339.201 254.499C338.901 254.399 338.601 254.299 338.301 254.199C337.101 253.699 335.601 252.699 334.201 251.299C332.801 249.899 331.801 248.399 331.301 247.199C330.801 245.999 330.701 245.199 330.901 245.099C331.301 244.899 332.801 247.599 335.401 250.099C336.701 251.399 338.001 252.399 338.901 253.099C339.201 253.299 339.301 253.499 339.501 253.499C339.701 253.599 339.801 253.699 339.901 253.699C340.201 253.899 340.301 253.799 340.401 253.899Z" fill="#005797" stroke="#005797" stroke-width="0.5" stroke-miterlimit="10"/>
<path d="M341.001 259C340.901 259.2 340.001 259.2 338.701 258.6C337.301 258.1 335.601 256.9 334.201 255.1C332.801 253.3 332.101 251.3 331.901 249.9C331.701 248.4 331.901 247.5 332.101 247.5C332.301 247.5 332.501 248.3 333.001 249.6C333.501 250.9 334.201 252.5 335.501 254.1C336.701 255.7 338.101 256.8 339.201 257.6C340.301 258.3 341.101 258.7 341.001 259Z" fill="#005797" stroke="#005797" stroke-width="0.5" stroke-miterlimit="10"/>
<path d="M432 141.2C425.7 146.3 422.6 151.6 421.1 154.9C414.2 169.8 419.9 184.8 422.1 190.4C424.8 197.5 428.5 202.7 431 205.9C429.3 205.7 426.3 205.5 422.9 206.8C416.5 209.2 414 214.9 413.4 216.1C411.8 216.3 408.7 216.8 405.5 219C403.6 220.3 402.4 221.8 401.6 222.9C400.7 221.5 397.7 217 396.5 217.5C395.1 218.1 396.8 225.1 397.2 226.3C391.6 227.1 387.1 227.2 384 227.2C381 227.2 379 227 377.8 228.4C376 230.3 376.7 234 377.2 236.5C377.5 238.3 377.8 239.5 378.6 241C379 241.7 380.3 243.9 387.2 247.6C390.4 249.3 392 250.2 393.2 250.3C398.6 251.2 403.3 247 405.1 245.3C405.1 246 405 251.1 408.3 253C409.3 253.6 411 254.1 416.4 252.3C419.6 251.2 424.3 249.2 429.5 245.2C434.3 246.1 438.2 245.7 440.6 245.2C442.8 244.8 451.6 243.1 457 235.6C458.2 234 459 232.4 459.4 231.3C462.5 227.2 463.7 223.3 464.2 221C464.7 218.7 465.3 216.1 464.7 212.9C463.8 208.8 461.9 208.5 460.6 204.8C459 200.1 461.6 198.5 461.4 191.6C461.3 185.3 459 180.5 457.9 178.4C455.1 173.2 451.3 170 448.8 168.3C448.6 164.5 447.7 159.4 445 154.2C443.1 150.5 441 148.2 440.5 147.6C437.4 144.3 434.2 142.3 432 141.2Z" fill="white"/>
<path d="M449.8 170.3C449.6 170.4 448.7 167.9 447.6 163.9C447 161.9 446.4 159.5 445.4 157C444.4 154.5 443 151.9 441.1 149.5C437.2 144.7 432.3 141.7 428.5 140.3C424.7 138.8 422.1 138.6 422.2 138.3C422.2 138.1 424.9 137.9 428.9 139.2C430.9 139.8 433.3 140.8 435.6 142.4C438 143.9 440.3 146 442.4 148.5C444.5 151 445.9 153.8 446.9 156.5C447.8 159.2 448.3 161.6 448.8 163.6C449.6 167.7 450.1 170.2 449.8 170.3Z" fill="#005797" stroke="#005797" stroke-width="0.5" stroke-miterlimit="10"/>
<path d="M458.5 233.4C458.4 233.3 459.2 232.6 460.2 231.2C461.2 229.8 462.5 227.5 463.1 224.3C463.7 221.2 463.7 217.3 462.5 213.3C461.9 211.3 460.9 209.2 460.3 206.9C459.7 204.5 459.6 201.9 459.9 199.4C460.1 196.9 460.5 194.5 460.6 192.2C460.7 189.9 460.5 187.7 460 185.7C459 181.6 457 178.3 455.2 175.7C453.4 173 451.7 171 450.6 169.6C449.5 168.2 448.9 167.4 448.9 167.3C449 167.2 449.7 167.9 451 169.2C452.3 170.5 454.1 172.4 456.1 175.1C458.1 177.7 460.3 181.1 461.4 185.4C462 187.5 462.2 189.9 462.1 192.3C462 194.7 461.6 197.1 461.4 199.6C461.2 202 461.2 204.4 461.8 206.6C462.3 208.8 463.3 210.9 463.9 213C465.2 217.3 465 221.4 464.2 224.7C463.4 228 461.9 230.3 460.6 231.7C459.5 232.9 458.6 233.4 458.5 233.4Z" fill="#005797" stroke="#005797" stroke-width="0.5" stroke-miterlimit="10"/>
<path d="M428.501 205.001C428.301 205.101 427.501 204.101 426.401 202.301C425.301 200.501 423.801 198.101 422.601 195.101C422.001 193.601 421.601 192.101 421.401 190.601C421.301 189.201 421.401 187.901 421.601 186.801C422.101 184.701 423.201 183.701 423.301 183.801C423.501 183.901 422.901 185.101 422.701 187.001C422.501 188.901 422.801 191.701 424.001 194.501C425.201 197.301 426.601 199.801 427.401 201.701C428.201 203.701 428.701 204.901 428.501 205.001Z" fill="#005797" stroke="#005797" stroke-width="0.5" stroke-miterlimit="10"/>
<path d="M417.8 216.301C417.7 216.501 416.7 216.501 415.1 216.601C413.5 216.701 411.3 217.001 409 217.901C406.8 218.801 404.9 220.101 403.7 221.201C402.5 222.301 401.8 223.001 401.6 222.901C401.4 222.801 401.8 221.801 402.9 220.401C403.4 219.701 404.2 219.001 405.1 218.301C406 217.601 407.1 217.001 408.4 216.501C409.6 216.001 410.9 215.701 412 215.501C413.2 215.401 414.2 215.401 415.1 215.501C416.9 215.701 417.9 216.101 417.8 216.301Z" fill="#005797" stroke="#005797" stroke-width="0.5" stroke-miterlimit="10"/>
<path d="M432.5 207.4C432.4 207.6 431.1 207.1 429 206.9C426.9 206.7 423.9 206.8 421 208.2C418.1 209.6 416.1 211.8 415 213.6C413.8 215.4 413.4 216.7 413.2 216.6C413 216.6 413 215.1 414 213C415 210.9 417.1 208.3 420.3 206.7C423.6 205.1 426.9 205.2 429.2 205.7C431.5 206.4 432.6 207.2 432.5 207.4Z" fill="#005797" stroke="#005797" stroke-width="0.5" stroke-miterlimit="10"/>
<path d="M408.2 253.001C407.7 253.001 408.3 245.901 406.5 237.601C404.7 229.201 401.3 223.101 401.7 222.901C401.9 222.801 403 224.201 404.3 226.701C405.6 229.201 407.1 233.001 408.1 237.301C409 241.601 409.2 245.601 409 248.501C408.8 251.301 408.4 253.001 408.2 253.001Z" fill="#005797" stroke="#005797" stroke-width="0.5" stroke-miterlimit="10"/>
<path d="M397.2 226.301C397 226.401 396.6 225.601 396.1 224.201C395.9 223.501 395.6 222.701 395.3 221.801C395.2 221.301 395 220.901 394.9 220.401C394.8 219.901 394.6 219.501 394.5 218.701C394.5 218.301 394.6 217.801 394.8 217.401C395.1 217.001 395.5 216.801 395.9 216.701C396.4 216.601 396.6 216.701 396.9 216.701C397.2 216.701 397.5 216.801 397.7 216.901C398.7 217.301 399.5 217.901 400 218.501C401 219.801 400.9 220.901 400.7 220.901C400.5 221.001 400.1 220.101 399.1 219.301C398.6 218.901 398 218.501 397.2 218.301C397 218.301 396.8 218.201 396.6 218.201C396.4 218.201 396.1 218.201 396.1 218.201C396 218.201 395.9 218.301 395.9 218.501C395.9 218.801 396.1 219.401 396.2 219.901C396.3 220.401 396.4 220.901 396.5 221.301C396.7 222.201 396.8 223.101 396.9 223.801C397.4 225.301 397.4 226.201 397.2 226.301Z" fill="#005797" stroke="#005797" stroke-width="0.5" stroke-miterlimit="10"/>
<path d="M391.6 232.301C391.6 232.501 389.7 233.101 386.5 233.001C384.9 233.001 383 232.801 380.9 232.201C380.4 232.101 379.9 231.901 379.3 231.701C378.7 231.501 378.1 231.201 377.6 230.701C377 230.101 376.7 229.301 376.9 228.401C377 227.901 377.3 227.501 377.7 227.201C378.1 226.901 378.5 226.801 378.8 226.701C379.5 226.501 380.1 226.501 380.7 226.501C381.3 226.501 381.9 226.401 382.4 226.401C383.5 226.301 384.6 226.201 385.7 226.201C387.8 226.101 389.6 226.001 391.2 225.901C394.3 225.801 396.3 225.801 396.3 226.001C396.3 226.201 394.4 226.601 391.3 227.001C389.7 227.201 387.9 227.401 385.8 227.601C384.8 227.701 383.7 227.801 382.6 227.901C382 228.001 381.5 228.001 380.9 228.101C380.3 228.201 379.7 228.201 379.3 228.301C378.8 228.401 378.7 228.601 378.6 228.801C378.5 229.001 378.7 229.401 378.9 229.601C379.4 230.101 380.5 230.401 381.5 230.701C383.4 231.301 385.2 231.601 386.8 231.801C389.6 232.301 391.6 232.101 391.6 232.301Z" fill="#005797" stroke="#005797" stroke-width="0.5" stroke-miterlimit="10"/>
<path d="M392.299 237.5C392.299 237.7 391.399 238 389.999 238.1C388.499 238.2 386.499 238 384.299 237.4C382.099 236.8 380.299 235.8 379.099 235C377.899 234.2 377.299 233.4 377.399 233.3C377.699 232.9 380.699 234.7 384.699 235.9C388.799 237 392.299 237 392.299 237.5Z" fill="#005797" stroke="#005797" stroke-width="0.5" stroke-miterlimit="10"/>
<path d="M391.899 241.7C391.899 241.9 391.099 242.3 389.499 242.5C387.999 242.7 385.799 242.5 383.599 241.7C381.399 240.9 379.599 239.7 378.499 238.6C377.399 237.5 376.999 236.7 377.099 236.5C377.499 236.2 379.999 238.8 384.099 240.2C388.199 241.6 391.899 241.2 391.899 241.7Z" fill="#005797" stroke="#005797" stroke-width="0.5" stroke-miterlimit="10"/>
<path d="M391.6 248C391.6 248.2 390.9 248.5 389.6 248.5C388.3 248.6 386.5 248.3 384.7 247.6C382.9 246.9 381.4 245.8 380.5 244.9C379.6 244 379.2 243.3 379.4 243.1C379.7 242.8 382 244.7 385.3 246C388.6 247.4 391.5 247.5 391.6 248Z" fill="#005797" stroke="#005797" stroke-width="0.5" stroke-miterlimit="10"/>
<path d="M407.199 241.6C407.299 241.8 406.399 242.6 405.199 244.1C404.599 244.8 403.899 245.8 402.999 246.8C402.099 247.8 401.099 248.9 399.699 249.8C398.299 250.7 396.799 251.1 395.399 251.2C393.999 251.3 392.699 251 391.799 250.6C389.799 249.8 389.099 248.7 389.199 248.6C389.399 248.4 390.399 249.1 392.199 249.5C393.999 249.9 396.699 250 398.999 248.4C401.299 246.9 402.899 244.6 404.499 243.3C405.899 241.9 407.099 241.4 407.199 241.6Z" fill="#005797" stroke="#005797" stroke-width="0.5" stroke-miterlimit="10"/>
<path d="M431.599 243.2C431.699 243.3 430.599 244.9 428.099 247C425.599 249 421.799 251.4 417.099 252.9C415.899 253.3 414.799 253.6 413.599 253.8C412.499 254 411.399 254.2 410.199 254.2C408.999 254.1 407.899 253.6 407.099 252.9C406.299 252.2 405.799 251.4 405.499 250.6C404.899 249 404.799 247.7 404.799 246.8C404.799 245.9 404.899 245.4 404.999 245.4C405.099 245.4 405.299 245.9 405.499 246.7C405.699 247.5 405.999 248.8 406.599 250.1C407.299 251.3 408.599 252.7 410.299 252.7C411.199 252.7 412.199 252.5 413.299 252.3C414.399 252.1 415.499 251.8 416.599 251.4C421.099 250 424.799 247.9 427.399 246.1C429.999 244.3 431.499 243 431.599 243.2Z" fill="#005797" stroke="#005797" stroke-width="0.5" stroke-miterlimit="10"/>
<path d="M459.399 231.4C459.599 231.4 459.099 233.6 457.099 236.4C455.099 239.2 451.299 242.5 446.399 244.4C441.499 246.3 436.699 246.7 433.299 246.7C429.899 246.7 427.799 246.5 427.799 246.2C427.799 246 429.899 245.8 433.199 245.5C436.499 245.2 441.099 244.6 445.799 242.8C450.499 241 454.099 238.1 456.199 235.6C458.399 233.2 459.199 231.3 459.399 231.4Z" fill="#005797" stroke="#005797" stroke-width="0.5" stroke-miterlimit="10"/>
<path d="M432.6 207.401C432.3 207.401 432.1 206.501 431.3 205.301C430.9 204.701 430.4 204.001 429.8 203.201C429.2 202.401 428.4 201.601 427.6 200.801C426.8 199.901 426.1 199.001 425.4 198.201C424.8 197.301 424.3 196.501 424 195.701C423.4 194.201 423.5 193.101 423.7 193.101C424 193.101 424.3 194.001 425.1 195.201C425.5 195.801 426 196.501 426.7 197.301C427.3 198.101 428.1 198.901 428.9 199.701C429.7 200.601 430.4 201.501 431.1 202.301C431.7 203.201 432.2 204.001 432.5 204.801C432.9 206.401 432.8 207.401 432.6 207.401Z" fill="#005797" stroke="#005797" stroke-width="0.5" stroke-miterlimit="10"/>
<path d="M431 205.9C430.7 206.2 429.2 205.4 427.9 203.7C426.6 202 426.3 200.3 426.7 200.1C427.1 199.9 428.1 201.2 429.2 202.7C430.4 204.2 431.3 205.5 431 205.9Z" fill="#005797" stroke="#005797" stroke-width="0.5" stroke-miterlimit="10"/>
<path d="M431.899 207C431.499 207.2 430.599 205.8 429.399 204.4C428.299 202.9 427.199 201.7 427.499 201.3C427.699 200.9 429.399 201.6 430.699 203.4C432.099 205 432.299 206.8 431.899 207Z" fill="#005797" stroke="#005797" stroke-width="0.5" stroke-miterlimit="10"/>
<path d="M449.2 167.6C449.6 167.5 450.7 172.6 451.9 179.7L452.6 183.8L450.4 180.2C449.4 178.5 448.6 176.5 448.1 174.3C447.5 171.7 447.2 169.3 446.9 167.1C446.6 164.9 446.4 162.9 446.1 161.3C445.6 158 444.8 156.1 445 156C445.2 155.9 446.4 157.7 447.2 161C447.6 162.6 448 164.6 448.3 166.8C448.6 169 449 171.4 449.6 173.8C450.1 175.8 450.8 177.7 451.7 179.3L450.3 179.8C449.4 172.8 448.9 167.7 449.2 167.6Z" fill="#005797" stroke="#005797" stroke-width="0.5" stroke-miterlimit="10"/>
<path d="M448.401 169.501C448.001 169.401 447.701 168.801 447.601 168.001C447.501 167.301 447.601 166.601 448.001 166.401C448.401 166.201 449.101 166.801 449.201 167.801C449.301 168.901 448.801 169.601 448.401 169.501Z" fill="#005797" stroke="#005797" stroke-width="0.5" stroke-miterlimit="10"/>
<path d="M461.4 203.6C461.8 203.7 461.4 208.7 460.4 215.5L459.8 219.9L458.8 215.6C458.5 214.4 458.3 213.2 458.2 211.9C457.7 207.5 458.2 203.5 459 200.7C459.7 197.9 460.6 196.3 460.8 196.4C461 196.5 460.6 198.2 460.2 200.9C459.8 203.7 459.5 207.5 459.9 211.7C460 212.9 460.2 214.1 460.5 215.3L458.9 215.4C459.9 208.5 461 203.5 461.4 203.6Z" fill="#005797" stroke="#005797" stroke-width="0.5" stroke-miterlimit="10"/>
<path d="M363.1 126.9C361.7 127.2 359.4 127.4 357.2 126.2C352.6 123.6 352.6 116.8 352.6 114.9C352.6 107.2 357 101.8 363.1 94.2999C367.7 88.6999 370.4 87.1999 372.5 86.3999C376.3 84.8999 379.9 85.0999 382.1 85.3999C383.4 84.2999 385.7 82.5999 389 81.8999C395.9 80.2999 401.6 83.9999 402.8 84.7999C406.3 87.0999 408 89.7999 411.5 95.3999C414.7 100.4 414.1 100.8 416.6 104.9C419.8 110.1 421.1 110.2 429.4 120.3C433.2 125 435.1 127.6 436 131.5C436.3 133 436.9 135.7 436 138.7C434.6 143.3 430.7 145.7 428.8 146.8C419.6 152.4 408.3 148.3 406.3 147.5C403.9 149.8 400.4 152.9 396 156.4C390.8 160.5 389.2 161.2 388 161.6C387.5 161.8 379.4 164.3 373.5 159.8C370.8 157.7 369.6 155 368.5 151.7C366.5 146 364.2 137.8 363.1 126.9Z" fill="#005797"/>
<path d="M379.001 96.7998C376.401 97.6998 370.601 100.2 366.001 106.1C362.801 110.2 361.501 114.2 360.801 116.7C361.501 120.9 362.401 124.3 363.101 126.9C365.201 133.9 367.601 138.4 369.801 142.4C372.001 146.5 373.101 147.8 374.701 148.9C378.001 151.2 381.501 151.2 382.801 151.2C387.601 151.2 391.001 148.9 392.301 147.9C394.901 151.3 397.401 154.8 400.001 158.2C401.401 157.4 403.101 156.3 404.701 154.8C408.501 151.3 410.401 147.3 411.301 144.9C409.901 142.6 407.901 138.8 407.101 133.6C406.601 130.3 406.801 127.5 407.101 125.4C408.001 124.8 410.201 123.2 411.301 120.3C411.501 119.7 413.001 115.3 410.401 112.1C410.001 111.6 408.801 110.1 407.001 109.9C404.501 109.6 401.601 111.6 400.201 115.1C396.101 115.7 393.201 114.8 391.701 114.3C386.001 112.1 383.301 107.1 381.901 104.5C380.001 101.4 379.301 98.5998 379.001 96.7998Z" fill="white"/>
<path d="M406.4 125.9C406.5 125.9 406.4 126.2 406.4 126.8C406.3 127.4 406.2 128.2 406 129.2C405.5 131.3 404.6 134.2 402.7 137.5C400.8 140.8 398 144.5 393.9 147.5C391.8 149 389.5 150.3 386.8 151.2C385.5 151.6 384.1 152 382.6 152.1C381.1 152.3 379.6 152.2 378.1 151.8C376.6 151.3 375.3 150.5 374.2 149.5C373.1 148.5 372.2 147.4 371.4 146.3C369.8 144 368.5 141.8 367.4 139.5C365.1 135 363.6 130.8 362.6 127.1C361.6 123.4 361.2 120.4 361 118.3C360.8 116.2 360.8 115 360.9 115C361.2 115 361.6 119.6 363.7 126.7C364.8 130.2 366.4 134.4 368.7 138.7C369.8 140.9 371.2 143.1 372.7 145.2C374.2 147.3 376.1 149.4 378.6 150.1C381.1 150.9 383.8 150.3 386.3 149.5C388.8 148.7 391 147.5 393 146.1C397 143.3 399.8 139.9 401.7 136.7C403.6 133.6 404.7 130.7 405.4 128.8C405.8 127.8 406 127 406.1 126.5C406.2 126.2 406.3 125.9 406.4 125.9Z" fill="#005797" stroke="#005797" stroke-width="0.5" stroke-miterlimit="10"/>
<path d="M406.201 126C406.101 125.8 407.701 125 409.301 122.7C410.101 121.6 410.801 120.1 411.001 118.3C411.201 116.6 411.001 114.6 409.901 112.9C409.401 112.1 408.601 111.5 407.801 111.1C407.001 110.8 406.101 110.7 405.301 110.8C403.601 111.1 402.401 112.1 401.601 113.2C400.801 114.3 400.601 115.4 400.401 116.2C400.201 117 400.201 117.4 400.101 117.4C400.001 117.4 399.801 117 399.801 116.1C399.801 115.3 399.901 114 400.601 112.6C401.301 111.2 402.901 109.8 405.001 109.4C406.001 109.2 407.201 109.2 408.401 109.7C409.501 110.1 410.501 111 411.201 112C412.601 114.1 412.801 116.5 412.401 118.5C412.001 120.5 411.101 122.2 410.101 123.3C409.101 124.5 408.101 125.2 407.301 125.5C406.701 126 406.201 126.1 406.201 126Z" fill="#005797" stroke="#005797" stroke-width="0.5" stroke-miterlimit="10"/>
<path d="M412.301 146.6C412.101 146.7 411.201 145.8 410.201 144.1C409.101 142.4 407.901 139.9 407.101 136.9C406.301 133.9 406.001 131.1 406.101 129.1C406.201 127.1 406.501 125.9 406.701 125.9C407.201 125.9 407.101 130.8 408.701 136.5C410.101 142.2 412.701 146.3 412.301 146.6Z" fill="#005797" stroke="#005797" stroke-width="0.5" stroke-miterlimit="10"/>
<path d="M410.801 143.6C411.001 143.6 411.301 145.4 410.401 148.2C410.001 149.6 409.201 151.1 408.101 152.7C406.901 154.2 405.401 155.7 403.401 156.8C402.901 157.1 402.401 157.3 401.901 157.5C401.401 157.7 400.801 157.9 400.101 157.9C399.401 157.9 398.701 157.6 398.301 157.2C397.801 156.8 397.501 156.4 397.201 156.1C396.001 154.7 395.001 153.3 394.201 152.1C392.701 149.7 392.101 148.1 392.301 148C392.501 147.9 393.501 149.3 395.201 151.4C396.101 152.5 397.101 153.7 398.301 155C398.901 155.7 399.501 156.3 400.101 156.2C400.701 156.2 401.701 155.7 402.601 155.2C404.401 154.3 405.801 153 406.901 151.6C408.001 150.3 408.801 148.9 409.301 147.7C410.401 145.4 410.501 143.6 410.801 143.6Z" fill="#005797" stroke="#005797" stroke-width="0.5" stroke-miterlimit="10"/>
<path d="M379.301 137.8C379.301 137.9 379.001 138.1 378.301 138C377.601 137.9 376.701 137.5 375.901 136.7C375.101 135.8 374.601 134.4 374.401 133C374.201 131.5 374.201 130 374.201 128.4C374.101 122 374.401 116.8 374.901 116.8C375.401 116.8 375.801 122 375.901 128.4C375.901 130 375.901 131.6 376.001 132.9C376.101 134.2 376.401 135.3 376.901 136.1C377.401 136.9 378.101 137.3 378.501 137.5C379.001 137.7 379.301 137.7 379.301 137.8Z" fill="#005797" stroke="#005797" stroke-width="0.5" stroke-miterlimit="10"/>
<path d="M371.4 129C371 129.2 370.2 128.2 369.4 127C368.6 125.8 368.1 124.6 368.5 124.3C368.8 124 370 124.8 370.8 126.1C371.7 127.5 371.9 128.9 371.4 129Z" fill="#005797" stroke="#005797" stroke-width="0.5" stroke-miterlimit="10"/>
<path d="M382.6 127.3C382.2 127.5 381.4 126.6 380.8 125.3C380.2 124 380.1 122.8 380.5 122.6C380.9 122.4 381.7 123.3 382.3 124.6C382.8 125.9 383 127.1 382.6 127.3Z" fill="#005797" stroke="#005797" stroke-width="0.5" stroke-miterlimit="10"/>
<path d="M370.301 115.2C370.001 115.6 368.601 115 366.901 115.5C365.201 115.9 364.201 117 363.801 116.8C363.601 116.7 363.601 116.2 364.101 115.5C364.501 114.9 365.401 114.2 366.601 113.9C367.801 113.6 368.901 113.8 369.501 114.2C370.201 114.6 370.401 115.1 370.301 115.2Z" fill="#005797" stroke="#005797" stroke-width="0.5" stroke-miterlimit="10"/>
<path d="M384.701 115.3C384.301 115.6 382.901 114.2 380.701 113.8C378.501 113.3 376.701 114.2 376.401 113.8C376.301 113.6 376.601 113.1 377.401 112.7C378.201 112.3 379.501 112 380.901 112.2C382.301 112.5 383.401 113.2 384.001 113.9C384.801 114.6 384.901 115.2 384.701 115.3Z" fill="#005797" stroke="#005797" stroke-width="0.5" stroke-miterlimit="10"/>
<path d="M388.901 138.7C389.001 138.9 388.701 139.5 387.701 140.3C386.801 141.1 385.301 141.9 383.601 142.4C381.801 142.9 380.101 142.9 378.901 142.7C377.701 142.5 377.001 142.1 377.101 141.9C377.201 141.4 380.001 141.7 383.101 140.8C386.401 140 388.601 138.3 388.901 138.7Z" fill="#005797" stroke="#005797" stroke-width="0.5" stroke-miterlimit="10"/>
<path d="M399.3 115.2C399.3 115.4 397.6 116 394.8 115.6C392 115.2 388.3 113.6 385.1 110.7C381.9 107.8 379.9 104.4 379.1 101.7C378.3 99.0002 378.5 97.2002 378.7 97.2002C379 97.2002 379.2 98.9002 380.2 101.3C381.2 103.7 383.2 106.8 386.2 109.5C389.2 112.2 392.5 113.9 395 114.5C397.6 115.1 399.3 114.9 399.3 115.2Z" fill="#005797" stroke="#005797" stroke-width="0.5" stroke-miterlimit="10"/>
<path d="M379 96.7999C379.1 96.9999 377.5 97.4999 375.4 98.6999C373.2 99.9999 370.6 102.2 368 105.1C365.4 108 363.2 110.6 362.1 112.9C361 115.1 361.1 116.7 360.8 116.7C360.6 116.7 360.2 115 361 112.4C361.4 111.1 362.2 109.7 363.2 108.3C364.2 106.9 365.4 105.4 366.8 104C369.5 101.1 372.4 98.7999 374.9 97.6999C377.3 96.5999 379 96.5999 379 96.7999Z" fill="#005797" stroke="#005797" stroke-width="0.5" stroke-miterlimit="10"/>
<path d="M382.701 85.5C382.701 85.6 381.801 85.3 380.201 85.2C378.601 85.1 376.301 85.3 373.701 86.4C371.101 87.5 368.301 89.5 365.801 92.3C363.201 95 360.901 98.5 358.601 102.3C356.301 106 354.301 109.7 353.601 113.3C353.201 115.1 353.101 116.9 353.401 118.4C353.601 120 354.201 121.4 354.901 122.6C356.301 125 358.201 126.4 359.601 127C361.101 127.6 362.001 127.6 362.001 127.7C362.001 127.8 361.101 128 359.401 127.6C357.801 127.2 355.501 125.8 353.901 123.2C353.101 121.9 352.401 120.4 352.101 118.6C351.801 116.8 351.801 114.9 352.201 112.9C352.901 109 355.001 105.1 357.301 101.3C359.601 97.5 362.001 93.9 364.801 91.1C367.501 88.3 370.501 86.2 373.401 85.2C376.201 84.1 378.701 84.1 380.401 84.4C382.001 84.9 382.701 85.5 382.701 85.5Z" fill="#005797" stroke="#005797" stroke-width="0.5" stroke-miterlimit="10"/>
<path d="M431 145.2C430.9 145.1 432.2 144.5 433.6 142.6C434.3 141.6 435 140.4 435.4 138.7C435.8 137.1 436 135.2 435.7 133.1C435.4 131 434.6 128.8 433.4 126.7C432.2 124.5 430.5 122.4 428.6 120.3C426.7 118.2 424.5 116.1 422.4 113.8C420.2 111.5 418.2 108.9 416.5 106C413.1 100.2 410.7 94.3 407.2 89.9C405.5 87.7 403.6 85.8 401.5 84.5C399.4 83.1 397.3 82.3 395.2 82C391 81.4 387.6 82.4 385.4 83.4C383.2 84.4 382.2 85.4 382.1 85.2C382.1 85.2 382.3 84.9 382.8 84.5C383.3 84.1 384 83.5 385.1 82.9C387.2 81.7 390.8 80.4 395.3 80.9C397.5 81.2 399.9 82 402.2 83.4C404.4 84.8 406.5 86.7 408.4 89C412.1 93.6 414.6 99.5 417.9 105.2C421.1 110.9 425.9 115 429.8 119.3C431.7 121.5 433.4 123.7 434.7 126C436 128.3 436.7 130.7 437 132.9C437.5 137.4 435.8 141 434.2 142.9C433.4 143.9 432.6 144.4 432 144.8C431.4 145.1 431 145.2 431 145.2Z" fill="#005797" stroke="#005797" stroke-width="0.5" stroke-miterlimit="10"/>
<path d="M397.4 154.8C397.5 154.9 397.1 155.5 396.3 156.4C395.5 157.3 394.2 158.6 392.4 159.9C390.6 161.2 388.2 162.4 385.2 163C382.3 163.6 378.8 163.4 375.6 161.9C372.4 160.5 369.9 158 368.7 155.2C367.5 152.4 367.5 149.6 367.6 147.4C367.8 143 368.1 140.4 368.3 140.4C368.5 140.4 368.7 143.1 368.7 147.4C368.8 149.5 368.9 152.1 370.1 154.5C371.2 156.9 373.5 159.1 376.3 160.4C379.2 161.7 382.2 162 384.9 161.5C387.6 161 389.9 160 391.7 158.9C395.4 156.7 397.2 154.6 397.4 154.8Z" fill="#005797" stroke="#005797" stroke-width="0.5" stroke-miterlimit="10"/>
<path d="M432 144.7C432.1 144.9 431.3 145.8 429.6 146.8C427.9 147.8 425.3 148.9 422.2 149.3C419.2 149.7 416.3 149.3 414.4 148.4C412.5 147.5 411.8 146.4 411.9 146.2C412.1 146 413 146.8 414.8 147.3C416.6 147.8 419.2 148 422 147.6C427.7 147.1 431.7 144.3 432 144.7Z" fill="#005797" stroke="#005797" stroke-width="0.5" stroke-miterlimit="10"/>
</svg>
