<svg width="600" height="600" viewBox="0 0 600 600" fill="none" xmlns="http://www.w3.org/2000/svg">
<path d="M155.64 481.6C155.54 481.7 155.04 481.2 154.04 480.6C153.54 480.3 152.94 479.8 152.24 479.4C151.84 479.2 151.44 479 151.04 478.8C150.64 478.6 150.14 478.4 149.74 478.3C149.24 478.2 148.94 478.3 148.84 478.5C148.64 478.7 148.64 479.4 148.54 480C148.44 481.2 148.44 482.6 148.54 484C148.84 486.8 149.74 489.8 151.24 492.7C152.74 495.6 154.64 498.1 156.54 500.2C158.44 502.3 160.34 504.1 161.94 505.6C165.14 508.5 167.24 510.3 167.04 510.5C166.94 510.7 164.64 509.2 161.14 506.4C159.44 505 157.44 503.3 155.44 501.1C153.44 499 151.44 496.4 149.84 493.3C148.24 490.2 147.34 487 147.14 484C147.04 482.5 147.04 481.1 147.24 479.8C147.34 479.5 147.34 479.2 147.44 478.8C147.54 478.5 147.64 478.1 147.94 477.7C148.24 477.3 148.64 477.1 149.04 477.1C149.44 477 149.84 477.1 150.14 477.2C150.74 477.4 151.24 477.7 151.64 477.9C152.04 478.2 152.44 478.4 152.84 478.7C153.54 479.2 154.14 479.7 154.64 480.2C155.34 481 155.74 481.6 155.64 481.6Z" fill="#005797" stroke="#005797" stroke-width="0.5" stroke-miterlimit="10"/>
<path d="M179.64 491.6C179.54 491.6 178.74 489.9 177.24 486.8C175.74 483.7 173.64 479.2 171.04 473.6C168.34 468.1 165.14 461.5 161.34 454.3C159.44 450.7 157.54 446.8 155.14 443.2C153.94 441.4 152.54 439.7 150.94 438.2C150.14 437.5 149.24 436.7 148.34 436.2C147.44 435.7 146.34 435.4 145.54 435.5C144.74 435.7 144.34 436.3 144.34 437.4C144.44 438.5 144.54 439.7 144.64 440.9C144.94 443.2 145.34 445.5 145.84 447.7C146.34 449.9 146.94 452.1 147.54 454.1C147.74 454.6 147.84 455.1 148.04 455.6L148.34 456.4L148.44 456.8L148.64 457.3C148.94 458.1 149.34 459 149.64 459.8L150.14 461.1L150.24 461.4C150.24 461.5 150.24 461.5 150.24 461.5C150.24 461.5 150.24 461.6 150.24 461.7L150.34 461.9C149.44 461.3 148.44 460.6 147.74 460.1C147.34 459.9 147.04 459.7 146.74 459.6C146.64 459.6 146.44 459.5 146.34 459.5H146.14C146.04 459.5 145.94 459.5 145.74 459.5C145.74 459.5 145.54 459.5 145.64 459.5V459.7L145.74 460.2C145.84 460.5 145.94 460.9 145.94 461.2C146.14 461.9 146.24 462.5 146.44 463.2C147.14 465.8 148.04 468.3 149.04 470.5C150.94 475 153.14 478.8 155.14 481.7C157.14 484.7 158.94 486.9 160.24 488.3C161.54 489.8 162.24 490.6 162.14 490.6C162.14 490.7 161.24 490 159.94 488.6C158.54 487.2 156.64 485.1 154.54 482.2C152.44 479.3 150.04 475.5 148.04 470.9C147.04 468.6 146.04 466.1 145.24 463.5C145.04 462.8 144.84 462.2 144.64 461.5C144.54 461.2 144.44 460.8 144.34 460.5L144.14 459.8C144.04 459.5 144.04 459.2 143.94 458.9L143.84 458.1V458V457.9H144.04H144.44C145.04 457.9 145.64 457.9 146.24 458C146.44 458 146.44 458 146.54 458.1H146.64L146.84 458.2C146.94 458.2 147.04 458.3 147.14 458.3L147.24 458.4V458.3L147.14 458.1L146.94 457.6C146.74 457.1 146.64 456.7 146.44 456.2C146.24 455.7 146.04 455.2 145.94 454.6C145.24 452.5 144.64 450.3 144.14 448.1C143.64 445.8 143.24 443.5 142.94 441.2C142.84 440 142.64 438.9 142.54 437.6C142.54 436.9 142.54 436.2 143.04 435.4C143.44 434.7 144.24 434.2 145.04 434C146.54 433.8 147.84 434.3 148.94 434.9C150.04 435.6 150.94 436.3 151.84 437.1C153.54 438.7 155.04 440.6 156.24 442.4C158.74 446.2 160.54 450.1 162.44 453.7C166.14 461 169.24 467.6 171.84 473.2C174.34 478.8 176.34 483.4 177.64 486.6C179.04 489.7 179.74 491.5 179.64 491.6Z" fill="#005797" stroke="#005797" stroke-width="0.5" stroke-miterlimit="10"/>
<path d="M188.24 493.3C188.04 493.4 186.94 491.1 185.24 487.4C183.54 483.7 181.34 478.5 179.04 472.7C178.44 471.3 177.94 469.8 177.34 468.5C176.74 467.3 176.04 466.1 175.04 465.5C174.14 464.9 173.04 465 172.24 465.6C171.44 466.2 171.04 467.2 170.84 468C170.64 468.9 170.84 469.8 171.04 470.5C171.24 471.2 171.54 471.9 171.74 472.4C172.14 473.4 172.44 474 172.34 474.1C172.24 474.2 171.84 473.7 171.14 472.7C170.84 472.2 170.44 471.6 170.14 470.8C169.84 470 169.54 469 169.64 467.9C169.74 466.8 170.24 465.5 171.34 464.6C171.84 464.1 172.64 463.8 173.44 463.7C174.24 463.6 175.04 463.8 175.74 464.3C177.14 465.2 177.94 466.5 178.64 467.9C179.34 469.3 179.84 470.7 180.44 472.1C182.74 477.9 184.74 483.2 186.14 487C187.64 490.8 188.44 493.2 188.24 493.3Z" fill="#005797" stroke="#005797" stroke-width="0.5" stroke-miterlimit="10"/>
<path d="M513.04 459.2C512.94 459.2 512.84 458.7 512.74 457.8C512.64 456.9 512.54 455.6 511.84 454.3C511.54 453.7 510.94 453.2 510.14 452.9C509.44 452.6 508.54 452.7 508.04 453.2C507.54 453.7 507.14 454.8 506.84 455.9C506.54 457 506.14 458.1 505.94 459.3C504.84 464 504.74 468.5 504.94 471.7C505.14 474.9 505.44 476.9 505.24 477C505.04 477.1 504.24 475.1 503.84 471.9C503.34 468.6 503.24 464 504.44 459C504.74 457.8 505.04 456.6 505.44 455.4C505.64 454.8 505.84 454.3 506.04 453.7C506.24 453.1 506.64 452.5 507.14 452.1C507.64 451.6 508.34 451.3 509.04 451.3C509.74 451.3 510.24 451.4 510.84 451.6C511.84 452.1 512.64 452.8 513.04 453.7C513.84 455.4 513.64 456.8 513.54 457.7C513.24 458.7 513.14 459.2 513.04 459.2Z" fill="#005797" stroke="#005797" stroke-width="0.5" stroke-miterlimit="10"/>
<path d="M528.14 463.1C528.04 463.1 528.34 461.6 528.94 458.8C529.54 456.1 530.54 452.1 531.54 447.2C532.54 442.3 533.74 436.5 534.74 429.9C535.04 428.3 535.24 426.6 535.54 424.9C535.64 424 535.74 423.2 535.94 422.3C536.04 421.9 536.04 421.4 536.04 421.1C536.04 420.7 536.04 420.3 535.94 419.9C535.84 419.5 535.74 419.2 535.54 418.9C535.34 418.7 535.24 418.6 535.04 418.6C534.84 418.6 534.64 418.7 534.34 418.9C534.04 419.1 533.74 419.5 533.34 419.8C532.04 421.1 530.94 422.5 529.94 424.1C528.24 426.7 527.04 429.6 526.04 432.4C525.84 433.1 525.54 433.8 525.34 434.5L525.04 435.6C524.84 436.1 524.74 436.6 524.54 437.1C524.14 438.3 523.84 439.6 523.44 440.8C522.84 443 523.44 440.4 522.44 443.8C522.34 442.4 522.34 441 522.24 439.7V439.3V439.1V439V438.5V438.1C522.24 438 522.24 437.9 522.14 437.8C522.04 437.4 521.94 437.2 521.74 436.9C521.54 436.6 521.44 436.5 521.44 436.5C521.34 436.4 521.14 436.1 521.04 436.4L520.74 436.8C520.54 437 520.34 437.3 520.24 437.6C519.94 438.1 519.54 438.6 519.24 439.2C518.04 441.3 517.14 443.5 516.44 445.6C515.04 449.8 514.34 453.7 513.84 456.9C513.34 460.1 513.04 462.7 512.84 464.5C512.64 466.3 512.44 467.2 512.34 467.2C512.24 467.2 512.24 466.2 512.24 464.4C512.34 462.6 512.44 460 512.74 456.7C513.14 453.4 513.64 449.5 515.04 445.1C515.74 442.9 516.64 440.7 517.84 438.5C518.14 437.9 518.54 437.4 518.84 436.8C519.04 436.5 519.14 436.2 519.34 436C519.64 435.6 519.84 435.2 520.14 434.8C520.74 433.4 521.64 434.8 522.34 435.5C522.54 435.8 522.64 435.9 522.64 435.9L522.74 436C522.74 436.1 522.84 436.2 522.84 436.3C522.84 436.4 522.84 436.5 522.94 436.6L523.14 436C523.34 435.4 523.54 434.8 523.64 434.3C523.84 433.6 524.14 432.8 524.34 432.1C525.34 429.2 526.64 426.2 528.34 423.4C529.44 421.7 530.64 420.2 531.94 418.9C532.34 418.6 532.64 418.2 533.04 417.9C533.44 417.6 534.14 417.2 534.84 417.2C535.54 417.2 536.24 417.7 536.64 418.2C536.94 418.7 537.14 419.2 537.24 419.8C537.34 420.3 537.34 420.8 537.34 421.3C537.34 421.8 537.24 422.3 537.14 422.7C537.04 423.6 536.84 424.4 536.74 425.3C536.44 427 536.24 428.7 535.94 430.3C534.84 436.8 533.54 442.7 532.34 447.6C531.14 452.5 530.04 456.4 529.24 459.1C528.74 461.7 528.24 463.2 528.14 463.1Z" fill="#005797"/>
<path d="M522.94 436.6C522.84 436.5 522.84 436.4 522.84 436.3C522.84 436.2 522.74 436.1 522.74 436L522.64 435.9C522.64 435.9 522.54 435.8 522.34 435.5C521.64 434.8 520.74 433.4 520.14 434.8C519.84 435.2 519.64 435.6 519.34 436C519.14 436.2 519.04 436.5 518.84 436.8C518.54 437.4 518.14 437.9 517.84 438.5C516.64 440.7 515.74 442.9 515.04 445.1C513.64 449.5 513.14 453.4 512.74 456.7C512.44 460 512.34 462.6 512.24 464.4C512.24 466.2 512.24 467.2 512.34 467.2C512.44 467.2 512.64 466.3 512.84 464.5C513.04 462.7 513.34 460.1 513.84 456.9C514.34 453.7 515.04 449.8 516.44 445.6C517.14 443.5 518.04 441.3 519.24 439.2C519.54 438.6 519.94 438.1 520.24 437.6C520.34 437.3 520.54 437 520.74 436.8L521.04 436.4C521.14 436.1 521.34 436.4 521.44 436.5C521.44 436.5 521.54 436.6 521.74 436.9C521.94 437.2 522.04 437.4 522.14 437.8C522.24 437.9 522.24 438 522.24 438.1V438.5V439V439.1V439.3V439.7C522.34 441 522.34 442.4 522.44 443.8C523.44 440.4 522.84 443 523.44 440.8C523.84 439.6 524.14 438.3 524.54 437.1C524.74 436.6 524.84 436.1 525.04 435.6L525.34 434.5C525.54 433.8 525.84 433.1 526.04 432.4C527.04 429.6 528.24 426.7 529.94 424.1C530.94 422.5 532.04 421.1 533.34 419.8C533.74 419.5 534.04 419.1 534.34 418.9C534.64 418.7 534.84 418.6 535.04 418.6C535.24 418.6 535.34 418.7 535.54 418.9C535.74 419.2 535.84 419.5 535.94 419.9C536.04 420.3 536.04 420.7 536.04 421.1C536.04 421.4 536.04 421.9 535.94 422.3C535.74 423.2 535.64 424 535.54 424.9C535.24 426.6 535.04 428.3 534.74 429.9C533.74 436.5 532.54 442.3 531.54 447.2C530.54 452.1 529.54 456.1 528.94 458.8C528.34 461.6 528.04 463.1 528.14 463.1C528.24 463.2 528.74 461.7 529.24 459.1C530.04 456.4 531.14 452.5 532.34 447.6C533.54 442.7 534.84 436.8 535.94 430.3C536.24 428.7 536.44 427 536.74 425.3C536.84 424.4 537.04 423.6 537.14 422.7C537.24 422.3 537.34 421.8 537.34 421.3C537.34 420.8 537.34 420.3 537.24 419.8C537.14 419.2 536.94 418.7 536.64 418.2C536.24 417.7 535.54 417.2 534.84 417.2C534.14 417.2 533.44 417.6 533.04 417.9C532.64 418.2 532.34 418.6 531.94 418.9C530.64 420.2 529.44 421.7 528.34 423.4C526.64 426.2 525.34 429.2 524.34 432.1C524.14 432.8 523.84 433.6 523.64 434.3C523.54 434.8 523.34 435.4 523.14 436L522.94 436.6ZM522.94 436.6V436.7" stroke="#005797" stroke-width="0.5" stroke-miterlimit="10"/>
<path d="M531.54 471.1C531.34 471 531.94 468.5 533.24 464.4C534.44 460.3 536.24 454.7 538.34 448.5C539.34 445.5 540.24 442.5 540.34 439.9C540.34 438.7 539.64 438.4 538.64 438.9C538.14 439.1 537.74 439.5 537.34 439.8C536.94 440.2 536.54 440.6 536.24 441C533.44 444.1 532.04 446.4 531.84 446.3C531.64 446.2 532.64 443.7 535.34 440.3C535.64 439.9 536.04 439.4 536.44 439C536.84 438.5 537.34 438.1 538.04 437.7C538.34 437.5 538.74 437.4 539.14 437.3C539.54 437.2 540.04 437.2 540.54 437.5C541.04 437.7 541.34 438.1 541.54 438.6C541.74 439 541.84 439.5 541.84 439.9C541.84 442.9 540.94 446 539.94 449.1C537.84 455.3 535.84 460.8 534.34 464.8C532.84 468.7 531.74 471.2 531.54 471.1Z" fill="#005797" stroke="#005797" stroke-width="0.5" stroke-miterlimit="10"/>
<path d="M534.24 481.6C533.84 481.3 538.14 474.7 540.64 465.4C540.94 464.2 541.24 463.1 541.44 462C541.54 461.5 541.64 461 541.54 460.6C541.44 460.3 541.34 460.2 541.14 460.1C540.94 460.1 540.54 460.2 540.14 460.4C539.74 460.6 539.44 460.9 539.04 461.2C538.34 461.8 537.64 462.3 537.14 462.9C534.94 465.1 533.94 466.8 533.64 466.7C533.44 466.6 534.14 464.7 536.24 462.2C536.74 461.6 537.44 460.9 538.14 460.3C538.54 460 538.84 459.7 539.34 459.3C539.84 459 540.44 458.7 541.24 458.7C541.64 458.7 542.14 458.9 542.44 459.3C542.74 459.6 542.94 460 543.04 460.4C543.14 461.1 543.04 461.8 542.94 462.4C542.74 463.5 542.44 464.7 542.14 465.9C540.84 470.7 538.94 474.8 537.34 477.5C535.74 480.2 534.34 481.7 534.24 481.6Z" fill="#005797" stroke="#005797" stroke-width="0.5" stroke-miterlimit="10"/>
<path d="M234.04 467.9C233.94 468 233.54 467.5 232.94 466.8C232.34 466.1 231.24 465 229.74 465.2C229.04 465.3 228.44 465.8 228.34 466.5C228.24 467.3 228.54 468.4 228.84 469.5C229.44 471.8 230.24 474.2 231.24 476.7C235.04 486.8 240.44 493.9 240.04 494.2C239.84 494.3 238.34 492.7 236.24 489.8C234.14 486.8 231.64 482.5 229.74 477.3C228.74 474.7 228.04 472.2 227.44 469.9C227.24 468.8 226.84 467.6 227.04 466.3C227.14 465.7 227.44 465 228.04 464.6C228.54 464.2 229.14 464 229.64 464C230.74 463.9 231.64 464.4 232.24 464.9C232.84 465.4 233.24 466 233.44 466.4C234.04 467.4 234.14 467.9 234.04 467.9Z" fill="#005797" stroke="#005797" stroke-width="0.5" stroke-miterlimit="10"/>
<path d="M253.84 485C253.74 485 253.14 483.5 252.04 480.8C250.94 478.1 249.44 474.1 247.34 469.2C243.24 459.5 237.24 446.2 229.24 432.3C228.54 431 227.74 429.7 227.04 428.4C226.64 427.7 226.34 427.2 225.84 426.8C225.44 426.4 224.84 426 224.54 426.1C224.44 426.1 224.34 426.2 224.24 426.3C224.14 426.4 224.14 426.6 224.14 426.9C224.14 427.5 224.24 428.3 224.24 428.9C224.34 430.3 224.54 431.7 224.74 433C225.14 435.7 225.84 438.2 226.54 440.7C226.94 441.9 227.24 443.1 227.74 444.2C227.94 444.8 228.14 445.3 228.34 445.9C228.44 446.2 228.54 446.5 228.74 446.8C228.94 447.2 229.14 447.7 229.34 448.1C229.34 448.5 229.34 448.8 229.44 449.1C229.94 449.5 228.84 448.6 228.94 448.7V448.6V448.5C228.94 448.4 228.94 448.4 228.94 448.4C228.94 448.3 228.84 448.3 228.74 448.3C228.54 448.3 228.14 448.3 227.84 448.4C227.74 449.5 227.94 451.4 228.14 452.8C228.44 454.3 228.74 455.8 229.14 457.1C229.94 459.7 230.84 462 231.74 463.7C233.54 467.2 234.84 469 234.74 469.1C234.74 469.1 234.34 468.7 233.64 467.9C232.94 467.1 232.04 465.8 231.14 464C230.14 462.3 229.14 460 228.24 457.3C227.84 456 227.44 454.5 227.14 452.9C227.04 452.1 226.84 451.3 226.74 450.5C226.64 450.1 226.64 449.6 226.64 449.1C226.64 448.6 226.84 448 227.44 447.5C227.54 447.4 227.64 447.4 227.74 447.5C227.84 447.5 228.04 447.6 227.94 447.7L227.74 447.3L227.64 447L227.34 446.3C227.14 445.7 226.84 445.2 226.64 444.6C226.24 443.4 225.74 442.2 225.44 441C224.64 438.5 224.04 435.9 223.54 433.2C223.34 431.8 223.14 430.4 222.94 429C222.84 428.3 222.74 427.6 222.74 426.8C222.74 426.4 222.84 425.8 223.14 425.3C223.44 424.9 224.04 424.5 224.64 424.4C225.84 424.4 226.54 425 227.14 425.6C227.74 426.2 228.24 427 228.54 427.6C229.24 428.9 230.04 430.2 230.84 431.5C238.84 445.5 244.74 458.9 248.64 468.8C250.54 473.7 251.94 477.8 252.84 480.6C253.44 483.4 253.94 484.9 253.84 485Z" fill="#005797" stroke="#005797" stroke-width="0.5" stroke-miterlimit="10"/>
<path d="M255.74 475.9C255.34 476.1 251.74 467.8 247.84 457.4C247.34 456.2 246.84 455 246.14 454C245.44 453 244.64 452.2 243.74 451.9C243.54 451.8 243.24 451.8 243.04 451.8C242.94 451.8 242.84 451.8 242.74 451.8C242.74 451.9 242.64 452 242.64 452.1C242.54 452.4 242.54 452.6 242.54 452.9C242.34 453.9 242.34 454.9 242.44 455.7C242.54 457.4 243.04 458.8 243.34 459.7C243.74 460.6 243.94 461.1 243.84 461.2C243.74 461.3 243.34 460.9 242.74 460C242.24 459.1 241.54 457.7 241.24 455.8C241.14 454.9 241.04 453.8 241.14 452.7C241.14 452.4 241.24 452.1 241.24 451.8C241.34 451.4 241.44 450.9 241.54 450.5C242.04 450.5 242.44 450.3 242.94 450.4C243.34 450.4 243.64 450.5 244.04 450.6C245.44 451 246.54 452.1 247.34 453.2C248.14 454.3 248.84 455.6 249.34 457C253.34 467.2 256.14 475.7 255.74 475.9Z" fill="#005797" stroke="#005797" stroke-width="0.5" stroke-miterlimit="10"/>
<path d="M263.54 484.8C263.14 484.9 260.64 477.8 257.54 469C257.14 467.9 256.84 466.8 256.34 465.9C256.14 465.5 255.84 465 255.54 464.7C255.44 464.5 255.24 464.4 255.14 464.3C255.04 464.3 254.94 464.2 254.94 464.2C254.84 464.2 254.84 464.2 254.84 464.1C254.74 464.1 254.74 464.1 254.64 464.1H254.54V464.2V464.3V464.4V464.6C254.54 464.8 254.44 465 254.44 465.3C254.34 466.2 254.34 467 254.34 467.7C254.44 470.7 255.14 472.5 254.84 472.5C254.64 472.6 253.54 470.9 253.14 467.7C253.04 466.9 253.04 466 253.04 465.1C253.04 464.9 253.04 464.6 253.04 464.4L253.14 463.9C253.14 463.7 253.24 463.5 253.24 463.3L253.34 462.8C253.34 462.8 253.34 462.8 253.34 462.7H253.44H253.54L253.84 462.6C254.24 462.5 254.64 462.5 255.04 462.6C255.24 462.6 255.44 462.7 255.64 462.8C255.84 462.9 255.94 463 256.04 463.1C256.34 463.3 256.54 463.5 256.74 463.7C257.14 464.2 257.54 464.7 257.74 465.2C258.34 466.3 258.64 467.4 259.04 468.5C262.24 477.3 264.04 484.7 263.54 484.8Z" fill="#005797" stroke="#005797" stroke-width="0.5" stroke-miterlimit="10"/>
<path d="M417.74 474.4C419.24 473.6 420.04 474.4 422.94 474C429.84 473.2 431.24 467.9 437.34 466.5C439.44 466 442.54 466.8 448.74 468.4C454.44 469.9 458.74 471 463.94 473.2C472.14 476.8 482.64 483.4 481.74 485.9C481.24 487.2 477.14 486.8 469.04 486.1C459.54 485.3 456.34 484.3 447.94 483.6C440.24 482.9 436.44 482.6 431.94 483.4C424.34 484.7 418.74 488.2 415.34 490.8C414.34 484.2 414.04 476.5 417.74 474.4Z" fill="#005797"/>
<path d="M358.04 438.2C355.14 439.8 350.94 442.3 345.84 445.2C330.34 454.1 322.54 458.6 319.84 460.4C313.84 464.6 304.14 471.4 295.74 483.5C287.74 495 287.24 502.2 287.24 505.5C287.24 508.2 287.34 512.6 290.04 516.9C294.84 524.5 304.04 526 307.94 526.6C315.74 527.9 321.64 526.3 328.94 524.5C356.24 517.7 351.54 520.6 369.94 515.3C377.84 513 388.84 509.8 402.74 504C407.94 501.8 412.34 499.8 415.44 498.3C416.64 496.4 418.34 493.1 419.14 488.7C419.54 486.4 420.24 482.7 418.94 478.6C416.74 471.7 410.34 468.5 408.64 467.7C398.24 471 387.74 474.3 377.34 477.7C379.44 476.3 382.34 474.1 385.24 470.7C389.74 465.5 391.04 461.1 394.04 454.1C400.84 438.1 404.54 436.1 403.24 433.5C401.34 429.9 391.44 428.8 358.04 438.2Z" fill="white"/>
<path d="M412.74 499.9C412.74 500 412.04 500.3 410.54 501C409.04 501.7 406.94 502.7 404.04 503.9C398.34 506.3 390.14 509.6 379.64 513C369.14 516.4 356.54 520 342.34 522.9C335.24 524.4 327.64 525.7 319.84 526.7C315.94 527.2 311.84 527.6 307.64 527.4C303.54 527.2 299.14 526.3 295.44 523.8C291.74 521.4 289.14 517.6 287.84 513.6C286.54 509.6 286.24 505.3 286.84 501.3C287.44 497.3 288.94 493.5 290.74 490.1C292.54 486.7 294.64 483.5 296.94 480.7C301.44 474.9 306.44 470 311.44 465.9C316.44 461.8 321.44 458.4 326.14 455.5C330.84 452.6 335.14 450.2 339.04 448.1C342.94 446.1 346.24 444.4 349.04 443C351.84 441.7 353.94 440.6 355.44 440C356.94 439.3 357.74 439 357.74 439.1C357.74 439.2 357.04 439.6 355.64 440.3C354.24 441.1 352.14 442.2 349.34 443.6C343.94 446.5 336.04 450.5 326.74 456.4C322.14 459.3 317.24 462.8 312.24 466.9C307.34 471 302.44 475.9 298.04 481.6C295.84 484.4 293.74 487.5 292.04 490.8C290.34 494.1 288.94 497.7 288.34 501.5C287.74 505.3 288.04 509.3 289.24 513C290.54 516.7 292.84 520.1 296.24 522.3C299.64 524.5 303.64 525.4 307.64 525.6C311.64 525.8 315.64 525.4 319.54 524.9C327.34 523.9 334.84 522.6 341.94 521.2C356.14 518.4 368.74 515 379.24 511.7C389.74 508.4 398.04 505.3 403.74 503.1C406.64 502 408.84 501.1 410.34 500.5C411.94 500.1 412.74 499.9 412.74 499.9Z" fill="#005797" stroke="#005797" stroke-width="0.5" stroke-miterlimit="10"/>
<path d="M371.04 482.9C370.84 482.7 372.24 481.1 374.84 478.9C377.34 476.6 381.14 473.8 384.64 470.3C388.24 466.7 390.54 462.7 391.54 459.6C392.54 456.5 392.34 454.4 392.64 454.3C392.84 454.3 393.44 456.4 392.64 459.9C391.94 463.3 389.54 467.7 385.84 471.4C382.14 475.1 378.24 477.8 375.54 479.8C372.84 481.8 371.24 483.1 371.04 482.9Z" fill="#005797" stroke="#005797" stroke-width="0.5" stroke-miterlimit="10"/>
<path d="M410.441 467.2C410.541 467.7 403.741 469.6 395.441 472.3C387.141 475 380.441 477.4 380.241 477C380.041 476.6 386.541 473.5 394.941 470.8C403.341 468 410.341 466.7 410.441 467.2Z" fill="#005797" stroke="#005797" stroke-width="0.5" stroke-miterlimit="10"/>
<path d="M414.541 499.5C414.341 499.3 415.841 497.8 416.941 494.6C418.041 491.5 419.341 486.9 418.741 481.9C418.441 479.4 417.741 477.1 416.741 475.2C415.741 473.3 414.441 471.8 413.241 470.7C410.741 468.5 408.641 468 408.741 467.7C408.741 467.6 409.341 467.6 410.241 467.9C411.141 468.2 412.541 468.7 413.941 469.8C415.341 470.8 416.841 472.4 418.041 474.4C419.241 476.4 420.141 478.9 420.341 481.6C420.641 484.3 420.341 486.9 419.841 489.1C419.341 491.4 418.641 493.3 417.941 494.9C417.241 496.5 416.441 497.7 415.741 498.4C415.141 499.3 414.641 499.6 414.541 499.5Z" fill="#005797" stroke="#005797" stroke-width="0.5" stroke-miterlimit="10"/>
<path d="M463.84 473.3C463.74 473.5 461.04 472.9 456.74 471.7C454.64 471.1 452.04 470.3 449.24 469.5C447.84 469.1 446.34 468.6 444.84 468.1C443.34 467.6 441.74 467.1 440.24 467C439.44 466.9 438.74 467 438.04 467.2C437.34 467.4 436.74 467.7 436.14 468.2C434.94 469.1 433.74 470.2 432.44 471C429.94 472.7 427.34 473.6 425.04 474.2C422.84 474.7 420.94 474.8 419.74 474.8C418.44 474.8 417.74 474.6 417.84 474.5C417.84 474.2 420.64 474.4 424.84 473.1C426.94 472.5 429.34 471.4 431.64 469.8C432.24 469.4 432.84 468.9 433.34 468.5C433.94 468 434.54 467.5 435.24 467C435.94 466.5 436.74 466 437.64 465.8C438.54 465.5 439.54 465.5 440.44 465.5C442.24 465.6 443.94 466.2 445.44 466.7C446.94 467.2 448.44 467.7 449.84 468.1C452.64 469 455.14 469.9 457.24 470.6C461.34 472 463.94 473.1 463.84 473.3Z" fill="#005797" stroke="#005797" stroke-width="0.5" stroke-miterlimit="10"/>
<path d="M462.04 473.2C462.14 473.1 463.14 473.6 464.84 474.6C466.64 475.6 469.14 477.1 472.14 478.9C473.64 479.8 475.54 480.8 476.84 482.8C477.14 483.3 477.44 483.9 477.54 484.6C477.54 484.8 477.54 484.9 477.54 485.1C477.54 485.3 477.44 485.5 477.44 485.8C477.44 486 477.34 486.2 477.24 486.5C477.24 486.6 477.24 486.8 477.14 486.8H476.84C475.74 486.9 475.34 486.9 474.74 487C474.14 487 473.54 487 472.94 487.1C468.14 487.2 462.84 486.7 457.44 485.9C452.04 485.2 446.84 484.3 442.14 483.9C437.44 483.6 433.24 483.7 429.74 484.4C426.24 485 423.64 486.2 421.94 487.2C421.54 487.4 421.14 487.7 420.74 487.8C420.44 488 420.14 488.2 419.94 488.3C419.54 488.6 419.24 488.7 419.24 488.7C419.24 488.7 419.34 488.4 419.74 488.1C419.94 487.9 420.14 487.7 420.44 487.4C420.74 487.2 421.14 486.9 421.54 486.6C423.24 485.5 425.94 484.1 429.44 483.2C433.04 482.3 437.34 482 442.14 482.3C446.94 482.6 452.14 483.4 457.54 484.1C462.94 484.9 468.14 485.4 472.84 485.4C473.44 485.4 474.04 485.4 474.54 485.4C474.94 485.4 475.44 485.4 475.84 485.3C475.94 485.3 475.94 485.2 475.94 485.1C475.94 485 475.94 485 475.94 485C475.94 484.9 475.94 484.8 475.94 484.7C475.94 484.3 475.74 483.9 475.54 483.5C475.04 482.7 474.34 482 473.64 481.4C472.94 480.8 472.14 480.3 471.34 479.8C468.34 477.8 465.94 476.2 464.24 475.1C462.84 474 461.94 473.3 462.04 473.2Z" fill="#005797" stroke="#005797" stroke-width="0.5" stroke-miterlimit="10"/>
<path d="M443.44 486.8C447.54 485.5 451.54 484.1 455.64 482.8C456.04 481.5 456.94 479.3 458.94 478.1C460.94 477 463.44 477 468.34 478.8C475.24 481.3 479.94 484.6 480.44 484.9C495.24 495.2 508.64 493.9 508.94 499.4C509.14 502 506.14 504.2 505.84 504.5C502.74 506.8 498.84 506.1 495.44 505.5C487.84 504.2 480.04 503.4 472.54 501.7C469.44 501 463.74 499.7 456.34 498C452.54 498.8 448.64 499.5 444.84 500.3C443.54 500.7 442.34 501.2 441.04 501.6C441.84 496.6 442.64 491.7 443.44 486.8Z" fill="#005797"/>
<path d="M379.341 449.8C378.941 450 374.041 453.1 364.141 459.2C354.541 465.2 349.741 468.2 349.041 468.6C335.941 477.1 327.141 485.1 320.541 491.1C306.041 504.4 304.341 509 303.541 512.3C303.141 514.1 301.441 521.8 305.741 528.6C306.441 529.7 309.341 534 317.341 537.2C326.641 540.9 335.141 539.9 346.241 538C361.841 535.4 369.641 534.1 381.741 530.5C404.641 523.8 421.341 515.4 430.441 510.5C435.741 507.6 440.141 505 443.141 503.1C444.041 501.8 445.241 499.6 445.641 496.8C446.841 489.3 441.941 483.8 441.441 483.1C439.441 480.9 437.241 479.7 435.641 479C436.841 475.8 438.441 470.2 437.941 463.2C437.741 459.3 437.241 452.4 433.541 447.7C424.141 435.7 395.341 440.5 379.341 449.8Z" fill="white"/>
<path d="M422.14 494.2C421.94 494 424.24 492.5 427.04 489.4C429.84 486.3 433.04 481.3 435.04 475.2C437.04 469.1 437.44 463.2 437.64 459C437.84 454.8 437.74 452.1 437.94 452.1C438.14 452.1 438.64 454.7 438.74 459C438.84 463.3 438.54 469.4 436.54 475.7C434.54 482.1 431.04 487.2 427.84 490.2C424.74 493.2 422.24 494.3 422.14 494.2Z" fill="#005797" stroke="#005797" stroke-width="0.5" stroke-miterlimit="10"/>
<path d="M443.14 503.2C443.14 503.2 442.44 503.7 441.14 504.6C439.74 505.5 437.74 506.8 435.14 508.3C429.84 511.4 421.94 515.8 411.84 520.2C406.84 522.5 401.14 524.7 395.04 526.9C388.94 529 382.24 531.1 375.24 533C368.14 534.8 360.64 536.5 352.84 537.7C348.94 538.4 344.94 538.9 340.84 539.4C336.74 539.8 332.54 540.1 328.24 539.9C323.94 539.7 319.74 538.9 315.84 537.3C311.94 535.7 308.54 533 305.94 529.8C304.64 528.2 303.64 526.4 302.84 524.5C302.14 522.6 301.64 520.6 301.64 518.6C301.54 514.5 303.14 510.8 305.14 507.7C307.14 504.5 309.54 501.9 311.74 499.2C314.04 496.6 316.34 494.1 318.74 491.9C323.44 487.4 328.04 483.5 332.44 480C341.14 473.2 348.64 468.3 353.74 464.9C356.34 463.2 358.34 461.9 359.74 461.1C361.14 460.2 361.84 459.8 361.94 459.9C361.94 459.9 361.34 460.5 359.94 461.4C358.64 462.3 356.64 463.7 354.14 465.5C349.14 469 341.74 474.1 333.14 481C328.84 484.4 324.34 488.4 319.74 492.9C317.44 495.2 315.14 497.6 312.94 500.2C310.74 502.8 308.44 505.5 306.54 508.5C304.64 511.5 303.24 515 303.34 518.6C303.34 522.2 304.94 525.8 307.34 528.8C309.74 531.8 312.94 534.3 316.54 535.8C320.24 537.3 324.24 538.1 328.44 538.3C332.54 538.5 336.74 538.2 340.74 537.8C344.74 537.3 348.74 536.8 352.64 536.2C360.44 534.9 367.94 533.4 374.94 531.6C381.94 529.8 388.54 527.7 394.74 525.7C400.84 523.5 406.44 521.4 411.54 519.2C421.64 514.9 429.54 510.7 434.94 507.8C437.64 506.4 439.74 505.1 441.14 504.3C442.34 503.5 443.04 503.1 443.14 503.2Z" fill="#005797" stroke="#005797" stroke-width="0.5" stroke-miterlimit="10"/>
<path d="M442.74 503.8C442.64 503.7 442.94 503.4 443.24 502.8C443.54 502.2 443.94 501.2 444.34 499.9C445.04 497.4 445.54 493.7 444.44 490C443.34 486.2 441.04 483.4 439.04 481.7C437.04 480 435.54 479.3 435.64 479C435.74 478.8 437.44 479.2 439.74 480.8C442.04 482.4 444.84 485.4 445.94 489.6C447.14 493.8 446.44 497.8 445.34 500.4C444.84 501.7 444.24 502.6 443.64 503.3C443.24 503.8 442.84 503.9 442.74 503.8Z" fill="#005797" stroke="#005797" stroke-width="0.5" stroke-miterlimit="10"/>
<path d="M456.44 482.6C456.64 483 454.04 484.8 450.34 485.9C446.64 487.1 443.54 487.2 443.44 486.7C443.34 486.2 446.34 485.5 449.84 484.3C453.34 483.2 456.24 482.2 456.44 482.6Z" fill="#005797" stroke="#005797" stroke-width="0.5" stroke-miterlimit="10"/>
<path d="M457.54 496.8C457.64 497.2 455.34 498.1 452.34 498.6C449.34 499.2 446.94 499.3 446.84 498.8C446.74 498.4 449.04 497.5 452.04 497C455.04 496.5 457.54 496.4 457.54 496.8Z" fill="#005797" stroke="#005797" stroke-width="0.5" stroke-miterlimit="10"/>
<path d="M506.54 498C506.44 498.2 503.44 496.9 498.64 494.6C493.84 492.3 487.24 489.1 480.04 485.5C476.44 483.7 473.04 481.9 469.84 480.3C468.24 479.5 466.84 478.7 465.44 478.1C464.04 477.5 462.74 477.4 461.54 477.6C459.14 478 457.54 479.6 456.74 480.7C455.94 481.9 455.74 482.7 455.64 482.7C455.54 482.7 455.44 481.8 456.24 480.4C456.94 479.1 458.54 477.1 461.34 476.5C462.04 476.3 462.84 476.3 463.64 476.4C464.44 476.5 465.24 476.7 465.94 476.9C467.54 477.5 468.94 478.3 470.54 479C473.64 480.6 477.14 482.3 480.74 484.1C487.94 487.8 494.44 491.1 499.14 493.7C503.84 496.1 506.64 497.8 506.54 498Z" fill="#005797" stroke="#005797" stroke-width="0.5" stroke-miterlimit="10"/>
<path d="M506.74 499.8C506.84 499.8 506.94 500.6 506.14 501.9C505.44 503.1 503.74 504.6 501.14 505.1C498.64 505.6 495.74 505.3 492.54 505.1C489.34 504.9 485.84 504.5 482.24 504C474.94 503 468.44 501.6 463.74 500.4C459.04 499.2 456.24 498.2 456.34 498C456.44 497.8 459.34 498.4 464.04 499.3C468.74 500.2 475.24 501.4 482.44 502.4C486.04 502.9 489.54 503.3 492.64 503.6C495.84 503.9 498.64 504.3 500.84 504C503.14 503.7 504.64 502.6 505.54 501.6C506.44 500.5 506.54 499.8 506.74 499.8Z" fill="#005797" stroke="#005797" stroke-width="0.5" stroke-miterlimit="10"/>
<path d="M425.04 492.8C425.14 492.9 424.34 493.6 422.94 494.8C422.54 495.1 422.14 495.4 421.74 495.8C421.24 496.1 420.84 496.5 420.24 496.9C419.14 497.7 417.94 498.6 416.54 499.4C415.84 499.8 415.14 500.3 414.34 500.8C413.54 501.3 412.74 501.7 411.94 502.2C410.24 503.2 408.34 504.1 406.44 505.1C402.44 507 398.04 508.8 393.24 510.5C383.74 513.8 374.84 516 368.34 517.4C361.94 518.8 357.84 519.5 357.84 519.3C357.74 519.1 361.74 518 368.04 516.3C374.44 514.6 383.14 512.3 392.64 509C397.34 507.3 401.74 505.5 405.74 503.7C407.64 502.8 409.54 501.9 411.24 501C412.04 500.5 412.94 500.1 413.74 499.7C414.54 499.3 415.24 498.8 415.94 498.4C421.64 495.1 424.84 492.6 425.04 492.8Z" fill="#005797" stroke="#005797" stroke-width="0.5" stroke-miterlimit="10"/>
<path d="M373.841 320C370.941 323.8 366.841 330.2 364.941 338.8C363.941 343.5 363.741 347.8 364.741 360.8C366.341 380.2 367.341 378.4 367.441 386C367.541 394.2 365.541 403.7 361.541 422.7C360.141 429.2 358.941 434.5 358.141 438.2C361.541 441.1 366.541 444.8 373.041 448.2C388.841 456.4 402.941 457.3 406.641 457.5C423.741 458.3 436.941 453.1 443.541 450C442.841 446.7 441.841 441.6 441.341 435.2C440.341 422.1 442.341 413.2 443.741 402.6C445.741 388.5 446.041 377.6 446.141 367.2C446.441 337.6 445.541 335.4 443.741 333.3C440.541 329.6 436.341 327.9 427.741 324.4C423.841 322.8 417.141 320.5 408.241 319.1C400.741 318 388.741 317.1 373.841 320Z" fill="white"/>
<path d="M358.04 438.2C357.94 438.2 358.14 436.9 358.54 434.5C358.94 432.2 359.64 428.8 360.44 424.6C361.34 420.4 362.34 415.5 363.54 409.9C364.64 404.4 365.84 398.3 366.34 391.9C366.84 385.5 366.34 379.3 365.74 373.8C365.04 368.2 364.34 363.2 363.94 358.9C363.54 354.6 363.54 351.1 363.74 348.8C363.84 346.4 364.14 345.1 364.24 345.1C364.54 345.1 364.04 350.4 365.14 358.8C365.64 363 366.44 368 367.24 373.6C368.04 379.2 368.54 385.5 368.04 392.1C367.54 398.7 366.24 404.8 365.04 410.3C363.84 415.8 362.64 420.7 361.64 424.9C360.64 429 359.84 432.4 359.24 434.7C358.54 436.9 358.14 438.2 358.04 438.2Z" fill="#005797" stroke="#005797" stroke-width="0.5" stroke-miterlimit="10"/>
<path d="M443.84 449.8C443.84 449.9 442.84 450.6 440.74 451.6C438.64 452.6 435.54 453.9 431.64 455.1C427.64 456.3 422.84 457.4 417.34 458C411.84 458.6 405.84 458.6 399.54 457.7C393.24 456.8 387.34 455.2 382.24 453.2C377.14 451.2 372.74 448.9 369.24 446.6C365.74 444.4 363.14 442.3 361.34 440.8C359.64 439.3 358.74 438.3 358.74 438.3C358.94 438.1 362.74 441.5 369.74 445.7C376.74 449.9 387.24 454.4 399.64 456.1C412.04 457.8 423.34 456.1 431.24 454C439.14 451.8 443.74 449.5 443.84 449.8Z" fill="#005797" stroke="#005797" stroke-width="0.5" stroke-miterlimit="10"/>
<path d="M443.64 333.2C443.44 333.4 439.94 331 433.94 328C433.14 327.6 432.34 327.2 431.54 326.8C430.74 326.4 429.84 326.1 428.94 325.7C427.14 324.9 425.14 324.2 423.04 323.4C418.84 322 414.04 320.7 408.94 319.8C403.84 318.9 398.94 318.5 394.44 318.4C392.24 318.4 390.04 318.4 388.14 318.5C387.14 318.6 386.14 318.6 385.24 318.7C384.34 318.8 383.44 318.9 382.64 319C375.94 319.8 371.84 320.8 371.74 320.5C371.74 320.4 372.74 320 374.54 319.5C375.04 319.4 375.54 319.2 376.04 319.1C376.64 319 377.24 318.8 377.94 318.7C379.24 318.4 380.74 318.1 382.54 317.9C383.44 317.8 384.24 317.7 385.24 317.5C386.14 317.4 387.14 317.3 388.14 317.2C390.14 317 392.34 317 394.54 316.9C399.04 316.9 404.04 317.3 409.24 318.2C414.44 319.1 419.24 320.5 423.54 322C425.64 322.8 427.64 323.6 429.54 324.4C430.44 324.8 431.34 325.2 432.14 325.6C432.94 326 433.74 326.5 434.54 326.9C436.04 327.7 437.34 328.5 438.54 329.2C439.14 329.6 439.64 329.9 440.14 330.2C440.64 330.5 441.04 330.9 441.44 331.1C442.84 332.4 443.64 333.1 443.64 333.2Z" fill="#005797" stroke="#005797" stroke-width="0.5" stroke-miterlimit="10"/>
<path d="M443.44 450C443.34 450 442.94 448.7 442.24 446.2C441.74 443.7 440.94 440.1 440.74 435.6C440.44 431.1 440.44 425.6 440.94 419.7C441.44 413.7 442.24 407.2 443.14 400.4C444.04 393.6 444.84 387.1 445.14 381.1C445.44 375.2 445.54 369.8 445.34 365.3C445.24 360.8 444.94 357.2 444.84 354.6C444.64 352.1 444.54 350.7 444.74 350.7C444.84 350.7 445.14 352.1 445.54 354.6C445.94 357.1 446.34 360.8 446.54 365.3C446.84 369.8 446.94 375.2 446.64 381.2C446.44 387.2 445.64 393.8 444.74 400.6C443.84 407.4 442.94 413.9 442.34 419.9C441.74 425.8 441.64 431.2 441.74 435.7C441.84 440.2 442.44 443.8 442.74 446.3C443.34 448.6 443.54 449.9 443.44 450Z" fill="#005797" stroke="#005797" stroke-width="0.5" stroke-miterlimit="10"/>
<path d="M443.64 333.2C441.24 334.4 435.14 337.9 431.04 345.2C426.54 353.1 426.94 360.6 427.24 363.2C432.54 377.4 437.94 391.6 443.24 405.8C437.34 417.9 431.44 430 425.54 442.1C422.44 444.1 419.74 445.3 417.94 446.1C412.14 448.5 408.74 448.5 404.04 451.5C401.94 452.8 400.34 454.2 399.44 455.1C406.24 455.7 407.64 456.8 407.74 457.6C408.04 459.5 401.44 461.2 391.94 467.6C388.84 469.8 386.04 471 386.24 471.8C386.44 472.5 388.74 472.5 390.84 472.3C390.74 472.6 390.24 474.3 391.24 476C391.74 476.8 392.44 477.3 392.84 477.5C394.04 478.2 395.54 479 397.54 479.4C403.24 480.7 407.94 478.5 409.54 477.6C408.74 478.1 404.04 481 404.64 482.7C405.04 483.9 407.84 483.8 408.14 483.8C410.74 483.8 412.64 482.4 414.94 480.7C419.14 477.4 421.24 475.8 423.24 473.3C426.74 468.8 426.34 466.8 430.04 462.5C432.04 460.1 434.04 458.5 435.44 457.5C435.74 458.5 436.04 459.5 436.34 460.6C439.94 457 444.44 452.2 448.84 446C453.94 438.9 456.84 432.9 458.54 429.4C461.24 423.9 464.34 416.6 466.84 407.6C466.04 401 464.64 392.5 462.34 382.7C461.54 379.4 460.04 373 457.54 365.3C454.74 356.9 450.44 345.8 443.64 333.2Z" fill="white"/>
<path d="M466.94 408.7C466.74 408.7 466.04 404.3 464.64 397.2C463.24 390.1 461.14 380.3 457.94 369.7C454.74 359.1 451.24 349.7 448.44 343C445.64 336.3 442.94 332.8 443.14 332.6C443.24 332.5 444.04 333.3 445.24 335C446.44 336.7 447.94 339.2 449.54 342.5C452.64 349.1 456.34 358.5 459.54 369.2C462.74 379.9 464.74 389.8 465.84 397C466.34 400.6 466.74 403.5 466.94 405.6C467.04 407.5 467.04 408.7 466.94 408.7Z" fill="#005797" stroke="#005797" stroke-width="0.5" stroke-miterlimit="10"/>
<path d="M443.14 405.8C442.64 405.9 439.74 395.9 435.14 383.8C430.64 371.7 426.14 362.2 426.64 362C426.84 361.9 428.24 364.2 430.14 368C432.04 371.8 434.44 377.2 436.74 383.2C439.04 389.3 440.74 394.9 441.84 399C442.94 403.2 443.34 405.8 443.14 405.8Z" fill="#005797" stroke="#005797" stroke-width="0.5" stroke-miterlimit="10"/>
<path d="M425.54 442.1C425.14 441.9 429.64 433.8 434.54 423.6C439.44 413.4 442.94 404.8 443.34 405C443.74 405.1 440.94 414 435.94 424.3C431.04 434.6 425.84 442.3 425.54 442.1Z" fill="#005797" stroke="#005797" stroke-width="0.5" stroke-miterlimit="10"/>
<path d="M436.241 460.5C435.741 460.6 434.441 455.9 431.641 450.6C430.941 449.3 430.241 448 429.641 446.9C428.941 445.8 428.341 444.8 427.741 444.1C426.541 442.6 425.441 442.2 425.541 441.9C425.541 441.8 425.941 441.8 426.441 441.9C427.041 442.1 427.841 442.5 428.541 443.2C429.341 443.9 430.141 444.9 430.841 446C431.641 447.1 432.341 448.4 433.041 449.7C435.941 455.4 436.641 460.4 436.241 460.5Z" fill="#005797" stroke="#005797" stroke-width="0.5" stroke-miterlimit="10"/>
<path d="M437.14 460.5C436.94 460.3 439.14 457.7 442.44 453.4C444.04 451.2 445.94 448.6 448.04 445.6C450.04 442.6 452.14 439.3 454.24 435.7C456.24 432.1 458.04 428.6 459.64 425.3C461.14 422.1 462.44 419.1 463.44 416.6C465.54 411.6 466.64 408.4 466.84 408.4C467.04 408.5 466.34 411.8 464.54 417C463.64 419.6 462.44 422.6 460.94 426C459.44 429.3 457.64 432.9 455.64 436.5C453.54 440.1 451.34 443.5 449.34 446.5C447.24 449.5 445.24 452 443.44 454.1C439.74 458.4 437.24 460.7 437.14 460.5Z" fill="#005797" stroke="#005797" stroke-width="0.5" stroke-miterlimit="10"/>
<path d="M407.64 456.6C407.64 456.8 405.54 456.9 402.24 456.8C401.84 456.8 401.44 456.8 400.94 456.8C400.64 456.8 400.44 456.7 400.14 456.6C399.84 456.5 399.44 456.3 399.24 456C398.64 455.4 398.74 454.4 399.34 453.8C399.84 453.3 400.24 453 400.74 452.6C402.64 451.2 404.94 450.2 407.34 449.3C409.74 448.4 412.04 447.7 414.14 447C416.14 446.3 418.04 445.5 419.54 444.8C422.54 443.5 424.44 442.6 424.54 442.8C424.64 443 423.04 444.3 420.04 445.9C418.54 446.7 416.74 447.6 414.74 448.4C412.64 449.3 410.34 450 407.94 450.8C405.54 451.7 403.44 452.6 401.64 453.8C401.24 454.1 400.74 454.4 400.54 454.7C400.44 454.8 400.34 455 400.44 455.2C400.54 455.3 400.54 455.3 400.74 455.4C400.94 455.5 401.14 455.5 401.24 455.5C401.64 455.6 402.14 455.6 402.54 455.6C405.54 456 407.64 456.3 407.64 456.6Z" fill="#005797" stroke="#005797" stroke-width="0.5" stroke-miterlimit="10"/>
<path d="M405.44 468.2C405.54 468.4 403.24 470 398.94 471.4C396.84 472.1 394.14 472.7 391.24 473C390.54 473.1 389.74 473.1 388.94 473.2H388.34C388.04 473.2 387.64 473.2 387.34 473.2C386.64 473.1 386.14 472.9 385.84 472.5C385.74 472.4 385.64 472.3 385.64 472.2L385.54 472C385.54 471.9 385.54 471.9 385.54 471.8L385.84 471.1C385.94 470.9 386.24 470.6 386.44 470.4C386.64 470.2 386.94 469.9 387.14 469.7C387.84 469.1 388.44 468.6 389.24 468.1C392.14 466.2 395.14 464.9 397.74 463.6C400.34 462.3 402.54 460.9 404.24 459.6C407.74 457 409.64 455 409.84 455.1C409.94 455.2 408.44 457.5 404.94 460.5C403.24 461.9 401.04 463.5 398.44 464.9C395.84 466.3 392.84 467.6 390.14 469.4C389.44 469.9 388.84 470.3 388.24 470.8L388.04 471L387.94 471.1L387.84 471.2C387.74 471.2 387.84 471.3 387.94 471.3C388.04 471.4 388.14 471.4 388.24 471.4C388.54 471.4 388.74 471.4 389.04 471.4C389.84 471.4 390.54 471.3 391.24 471.3C394.14 471.1 396.64 470.6 398.74 470C402.84 469.2 405.34 468 405.44 468.2Z" fill="#005797" stroke="#005797" stroke-width="0.5" stroke-miterlimit="10"/>
<path d="M411.94 471.1C412.04 471.3 410.74 472.3 408.44 473.4C406.14 474.5 402.64 475.8 398.74 476.4C397.14 476.6 395.54 476.8 394.04 476.8C393.34 476.8 392.54 476.8 391.94 476.7C391.74 476.7 391.54 476.7 391.24 476.7C390.94 476.7 390.74 476.6 390.54 476.6C390.14 476.4 389.74 476.2 389.64 475.8C389.44 475.2 389.74 474.7 390.14 474.3C390.34 474.1 390.54 473.9 390.84 473.8C391.04 473.7 391.14 473.6 391.34 473.5C391.94 473.1 392.54 472.9 392.94 472.7C393.84 472.3 394.44 472.2 394.44 472.4C394.54 472.5 394.04 472.8 393.24 473.4C392.84 473.7 392.34 474 391.84 474.4C391.74 474.5 391.64 474.6 391.44 474.7C391.34 474.8 391.34 474.8 391.24 474.9C391.14 475 391.04 475.2 391.14 475.3C391.24 475.4 391.34 475.4 391.44 475.4C391.54 475.4 391.54 475.4 391.64 475.4H391.74H391.94C392.54 475.4 393.24 475.4 393.94 475.4C395.34 475.3 396.84 475.2 398.44 475C406.04 473.7 411.74 470.6 411.94 471.1Z" fill="#005797" stroke="#005797" stroke-width="0.5" stroke-miterlimit="10"/>
<path d="M411.74 476.3C411.84 476.5 410.84 477.1 409.24 477.9C407.64 478.7 405.24 479.6 402.44 480.1C399.64 480.6 396.94 480.2 395.14 479.5C394.24 479.1 393.54 478.7 393.24 478.2C392.84 477.8 392.74 477.5 392.84 477.4C393.04 477.2 393.84 478 395.44 478.3C397.14 478.6 399.54 478.8 402.14 478.3C404.74 477.9 407.04 477.1 408.84 476.6C410.54 476.3 411.64 476.1 411.74 476.3Z" fill="#005797" stroke="#005797" stroke-width="0.5" stroke-miterlimit="10"/>
<path d="M435.84 457.2C435.94 457.4 433.24 458.6 430.74 462.4C429.44 464.2 428.24 466.7 426.74 469.3C425.24 472 423.24 474.9 420.64 477.3C418.04 479.8 415.04 481.7 412.24 483C411.54 483.3 410.84 483.6 410.14 483.9C409.44 484.2 408.74 484.4 408.04 484.5C407.34 484.6 406.54 484.7 405.74 484.4C405.04 484.1 404.44 483.5 404.14 482.8C404.04 482.4 403.94 482 404.04 481.7C404.14 481.3 404.34 481 404.54 480.8C404.94 480.3 405.34 480 405.74 479.7C406.44 479.1 407.14 478.7 407.74 478.4C408.94 477.8 409.64 477.6 409.64 477.7C409.74 477.8 409.04 478.2 408.04 479C407.54 479.4 406.94 479.9 406.24 480.5C405.94 480.8 405.54 481.2 405.34 481.5C405.14 481.8 405.04 482.2 405.24 482.5C405.44 482.9 405.74 483.2 406.24 483.3C406.64 483.4 407.24 483.4 407.84 483.3C408.44 483.2 409.04 482.9 409.74 482.6C410.44 482.3 411.04 482 411.74 481.7C414.44 480.4 417.14 478.6 419.64 476.2C424.74 471.5 426.94 465.4 430.04 461.7C431.44 459.8 433.04 458.6 434.14 457.9C434.44 457.7 434.64 457.6 434.94 457.5C435.14 457.4 435.34 457.3 435.54 457.3C435.64 457.2 435.84 457.2 435.84 457.2Z" fill="#005797" stroke="#005797" stroke-width="0.5" stroke-miterlimit="10"/>
<path d="M392.04 240.7C394.84 239.4 404.74 234.8 414.64 239C417.74 240.3 419.94 242.1 421.34 243.4C423.64 243.1 427.74 242.8 432.24 244.4C439.74 247.1 443.44 253.1 445.34 256.1C446.34 257.7 447.44 259.9 450.64 272.8C454.64 288.9 454.24 290.9 457.24 296.6C458.94 299.9 460.14 301.2 462.54 306.2C464.04 309.3 465.84 313.1 467.24 318.3C469.04 324.9 470.64 330.9 467.84 336.4C467.34 337.4 466.34 339.3 464.14 340.8C461.74 342.4 458.74 343 451.54 341.9C443.74 340.7 439.84 340.1 435.44 337.7C433.64 336.7 423.34 330.9 419.34 318.2C417.64 312.8 417.74 308 417.94 305.1C414.74 303.7 387.84 291.4 379.14 275.8C377.84 273.5 375.44 269.2 375.54 263.3C375.64 256.3 379.24 251.3 380.54 249.5C384.54 244.2 389.34 241.9 392.04 240.7Z" fill="#005797"/>
<path d="M382.64 262.8C381.84 265.3 380.84 268.8 379.84 273.1C377.94 280.7 377.04 284.6 376.84 289.8C376.64 293.9 376.44 298.7 378.24 304.4C379.74 309.1 381.94 312.6 383.54 314.8C385.24 315.4 387.34 316 389.84 316.3C393.64 316.8 396.84 316.5 399.24 316.1C400.64 320.1 402.14 324 403.54 328C405.14 328.2 408.24 328.4 411.84 327C417.24 324.9 419.74 320.5 420.44 319.2C418.94 316 418.54 313.2 418.44 311.4C418.24 309 418.04 306.7 419.24 304.1C420.54 301.3 422.64 299.7 423.74 298.9C424.64 299.4 426.24 300.2 428.24 300.3C433.14 300.3 436.04 295.8 436.54 295.2C437.04 294.4 439.44 290.8 438.24 286.7C437.94 285.8 437.34 283.7 435.34 282.6C432.24 280.8 428.64 283 428.54 283.1C427.84 282.7 426.94 282 425.84 281.2C422.04 278.2 419.64 274.9 418.54 273.2C413.84 265.5 415.54 254.9 415.74 253.6C413.74 253.5 411.04 253.5 407.64 253.8C405.84 254 399.74 254.7 392.34 257.8C389.74 258.7 386.34 260.3 382.64 262.8Z" fill="white"/>
<path d="M383.541 314.8C383.441 314.9 382.841 314.3 381.841 313.1C380.841 311.9 379.641 310 378.641 307.4C377.541 304.8 376.641 301.6 376.241 297.9C375.841 294.2 375.841 290.2 376.341 286C376.941 281.8 377.841 277.9 378.741 274.4C379.641 270.9 380.641 267.8 381.441 265.2C383.041 260 383.941 256.7 384.141 256.8C384.341 256.8 383.841 260.2 382.541 265.5C381.241 270.8 379.041 278.1 377.941 286.3C377.441 290.4 377.341 294.3 377.641 297.9C377.941 301.4 378.741 304.6 379.641 307.1C381.541 312 383.841 314.6 383.541 314.8Z" fill="#005797" stroke="#005797" stroke-width="0.5" stroke-miterlimit="10"/>
<path d="M407.941 312.3C408.041 312.5 406.941 313.4 404.741 314.5C402.641 315.6 399.441 316.7 395.741 317C392.041 317.4 388.741 317 386.441 316.3C385.241 316 384.341 315.5 383.841 315C383.341 314.5 383.141 314.1 383.241 314.1C383.341 314 383.641 314.3 384.141 314.5C384.741 314.8 385.541 315 386.641 315.2C388.941 315.5 392.041 315.7 395.541 315.4C402.641 314.8 407.741 311.8 407.941 312.3Z" fill="#005797" stroke="#005797" stroke-width="0.5" stroke-miterlimit="10"/>
<path d="M403.94 326.5C403.64 326.8 401.64 324.9 400.34 321.8C398.94 318.8 398.84 316.1 399.24 316C399.74 315.9 400.54 318.3 401.74 321.1C403.04 324.1 404.24 326.3 403.94 326.5Z" fill="#005797" stroke="#005797" stroke-width="0.5" stroke-miterlimit="10"/>
<path d="M420.44 319.2C420.04 319.4 418.34 316.5 417.74 312.5C417.14 308.5 417.94 305.3 418.34 305.3C418.84 305.4 418.74 308.5 419.34 312.2C419.84 316 420.84 319 420.44 319.2Z" fill="#005797" stroke="#005797" stroke-width="0.5" stroke-miterlimit="10"/>
<path d="M423.84 298.2C424.24 298.4 423.54 300.5 421.84 302.5C420.14 304.5 418.14 305.5 417.94 305.2C417.64 304.8 419.04 303.3 420.64 301.5C422.24 299.6 423.44 298 423.84 298.2Z" fill="#005797" stroke="#005797" stroke-width="0.5" stroke-miterlimit="10"/>
<path d="M428.341 282.5C428.241 282.4 428.541 282 429.441 281.5C430.241 281 431.741 280.5 433.541 280.8C434.441 281 435.441 281.3 436.341 281.9C437.241 282.5 438.041 283.5 438.541 284.6C439.541 286.9 439.341 289.6 438.741 292.2C438.041 294.8 436.641 297.1 434.741 298.6C432.941 300.2 430.741 300.8 428.941 300.8C427.141 300.9 425.741 300.4 424.941 299.9C424.041 299.4 423.741 299 423.841 298.9C423.941 298.8 424.341 299 425.241 299.3C426.141 299.6 427.341 299.8 428.941 299.6C430.441 299.4 432.341 298.8 433.841 297.4C435.341 296 436.541 294 437.241 291.7C437.841 289.4 437.941 287 437.241 285.1C436.541 283.2 434.941 282.2 433.441 281.8C431.941 281.4 430.641 281.6 429.841 281.9C428.841 282.3 428.441 282.6 428.341 282.5Z" fill="#005797" stroke="#005797" stroke-width="0.5" stroke-miterlimit="10"/>
<path d="M391.34 294.1C391.24 294.3 389.94 293.9 388.14 292.5C387.74 292.1 387.24 291.7 386.84 291.2C386.44 290.6 386.04 289.8 386.04 289C385.94 287.2 386.94 285.7 387.74 284.3C391.14 278.8 394.24 274.5 394.64 274.8C395.04 275 392.54 279.7 389.14 285.2C388.24 286.5 387.54 287.8 387.54 288.9C387.54 290 388.24 290.9 388.94 291.7C390.34 293.2 391.44 293.9 391.34 294.1Z" fill="#005797" stroke="#005797" stroke-width="0.5" stroke-miterlimit="10"/>
<path d="M401.341 295.5C401.441 295.7 400.841 296.4 399.541 297.4C398.341 298.4 396.441 299.6 394.141 300.4C391.741 301.2 389.341 301.2 387.841 300.8C386.241 300.4 385.441 299.8 385.541 299.6C385.641 299.4 386.541 299.6 388.041 299.7C389.541 299.8 391.541 299.7 393.641 298.9C395.741 298.2 397.641 297.1 398.941 296.4C400.341 295.7 401.241 295.3 401.341 295.5Z" fill="#005797" stroke="#005797" stroke-width="0.5" stroke-miterlimit="10"/>
<path d="M401.141 297.1C400.741 297.3 400.141 296.9 399.841 296.4C399.541 295.8 399.441 295.2 399.841 294.9C400.141 294.6 400.841 294.9 401.241 295.6C401.741 296.2 401.641 297 401.141 297.1Z" fill="#005797" stroke="#005797" stroke-width="0.5" stroke-miterlimit="10"/>
<path d="M404.14 288.9C403.64 288.8 403.34 288.5 403.24 288.3C403.14 288 403.04 287.6 403.24 287.2C403.34 287 403.54 286.9 403.84 287C404.14 287.1 404.44 287.3 404.64 287.6C404.84 288 404.84 288.4 404.74 288.6C404.54 288.8 404.34 288.9 404.14 288.9Z" fill="#005797" stroke="#005797" stroke-width="0.5" stroke-miterlimit="10"/>
<path d="M413.24 286.6C413.44 287 413.14 287.5 412.74 287.7C412.24 287.9 411.74 287.7 411.54 287.3C411.34 286.9 411.64 286.4 412.04 286.2C412.54 286 413.04 286.2 413.24 286.6Z" fill="#005797" stroke="#005797" stroke-width="0.5" stroke-miterlimit="10"/>
<path d="M408.641 293.1C408.241 293.2 407.741 293 407.641 292.6C407.541 292.2 407.741 291.7 408.141 291.6C408.541 291.5 409.041 291.7 409.141 292.1C409.241 292.5 409.041 293 408.641 293.1Z" fill="#005797" stroke="#005797" stroke-width="0.5" stroke-miterlimit="10"/>
<path d="M414.44 279.3C414.64 279.4 414.34 280.2 413.34 281C412.44 281.8 410.74 282.7 408.84 282.8C406.84 282.9 405.04 282.2 404.14 281.2C403.64 280.7 403.44 280.2 403.34 279.8C403.24 279.4 403.34 279.2 403.44 279.2C403.64 279.1 403.94 279.8 404.84 280.3C405.64 280.9 407.04 281.3 408.74 281.2C410.34 281.1 411.74 280.6 412.74 280.1C413.64 279.6 414.24 279.2 414.44 279.3Z" fill="#005797" stroke="#005797" stroke-width="0.5" stroke-miterlimit="10"/>
<path d="M415.741 267.3C415.541 267.4 415.141 266.7 414.341 265.9C413.541 265.1 412.241 264.1 410.541 263.8C408.841 263.5 407.241 263.8 406.241 264.3C405.141 264.7 404.541 265.2 404.341 265.1C404.141 265 404.541 264.2 405.641 263.3C406.741 262.5 408.641 261.8 410.841 262.2C413.041 262.6 414.541 264.1 415.241 265.2C415.941 266.3 415.941 267.2 415.741 267.3Z" fill="#005797" stroke="#005797" stroke-width="0.5" stroke-miterlimit="10"/>
<path d="M386.24 275.3C385.84 275.2 385.74 273.6 386.44 271.7C387.14 269.9 388.14 268.6 388.54 268.9C388.94 269.1 388.54 270.6 387.94 272.3C387.34 274 386.74 275.3 386.24 275.3Z" fill="#005797" stroke="#005797" stroke-width="0.5" stroke-miterlimit="10"/>
<path d="M391.741 265.9C391.541 265.9 391.341 265.5 391.041 265C390.741 264.5 390.141 264 389.441 263.7C388.741 263.5 387.941 263.6 387.441 263.8C386.841 264 386.541 264.2 386.341 264.1C386.141 264 386.241 263.4 386.841 262.8C387.441 262.2 388.641 261.7 390.041 262.1C391.341 262.6 392.041 263.7 392.141 264.5C392.241 265.4 391.941 265.9 391.741 265.9Z" fill="#005797" stroke="#005797" stroke-width="0.5" stroke-miterlimit="10"/>
<path d="M428.74 282.9C428.64 283.1 426.64 282.4 424.04 280.4C421.34 278.4 418.14 274.9 416.14 270.1C414.14 265.3 414.04 260.5 414.54 257.2C415.04 253.9 415.94 252 416.14 252.1C416.34 252.2 415.84 254.1 415.64 257.3C415.44 260.5 415.84 265 417.64 269.4C419.44 273.9 422.34 277.3 424.74 279.4C427.04 281.7 428.84 282.7 428.74 282.9Z" fill="#005797" stroke="#005797" stroke-width="0.5" stroke-miterlimit="10"/>
<path d="M415.64 253.5C415.64 253.7 413.44 253.8 409.94 254.2C406.44 254.6 401.54 255.4 396.44 257.1C391.34 258.8 386.94 260.9 383.84 262.7C382.34 263.6 381.24 264.5 380.64 265.2C380.04 265.9 379.84 266.4 379.64 266.4C379.54 266.4 379.54 265.8 380.04 264.8C380.54 263.9 381.64 262.7 383.14 261.7C386.14 259.6 390.54 257.2 395.84 255.5C401.14 253.8 406.14 253.1 409.74 253C413.44 252.9 415.64 253.3 415.64 253.5Z" fill="#005797" stroke="#005797" stroke-width="0.5" stroke-miterlimit="10"/>
<path d="M421.341 243.4C421.241 243.5 420.541 242.8 419.041 241.9C417.541 240.9 415.341 239.7 412.341 238.9C409.341 238.1 405.641 237.8 401.641 238.5C397.641 239.2 393.341 240.8 389.241 243.2C385.241 245.6 381.841 248.8 379.641 252.2C377.441 255.6 376.441 259.2 376.141 262.3C375.841 265.4 376.341 267.9 376.841 269.5C377.341 271.2 377.741 272.1 377.641 272.1C377.541 272.1 376.941 271.4 376.241 269.7C375.541 268 374.841 265.4 375.041 262.2C375.141 259 376.141 255.1 378.441 251.4C380.741 247.7 384.241 244.4 388.441 241.8C392.641 239.3 397.141 237.6 401.441 237C405.741 236.4 409.641 236.8 412.741 237.8C415.841 238.8 418.041 240.2 419.441 241.4C420.841 242.5 421.341 243.3 421.341 243.4Z" fill="#005797" stroke="#005797" stroke-width="0.5" stroke-miterlimit="10"/>
<path d="M467.34 338.6C467.24 338.6 467.54 337 467.84 334.1C468.14 331.2 468.24 326.9 467.34 321.8C466.84 319.2 466.04 316.5 464.94 313.7C463.84 310.9 462.14 308.1 460.24 305.1C458.34 302.2 456.24 299.1 454.64 295.5C453.04 291.9 452.14 288 451.44 284C450.74 280 450.34 276.1 449.74 272.3C449.14 268.6 448.44 265 447.24 261.8C444.94 255.3 440.64 250.5 436.44 247.5C432.24 244.4 428.14 243.2 425.24 242.9C422.34 242.6 420.74 243.1 420.74 243C420.74 243 421.14 242.8 421.84 242.6C422.64 242.4 423.74 242.3 425.24 242.3C428.24 242.4 432.64 243.5 437.04 246.6C441.44 249.6 446.04 254.6 448.54 261.3C449.84 264.6 450.64 268.3 451.24 272.1C451.84 275.9 452.24 279.8 452.94 283.7C453.54 287.6 454.54 291.4 455.94 294.8C457.34 298.2 459.44 301.2 461.34 304.2C463.24 307.1 464.94 310.1 466.04 313.1C467.14 316 467.94 318.9 468.34 321.5C469.14 326.8 468.84 331.2 468.34 334.1C468.24 334.8 468.14 335.5 467.94 336C467.84 336.6 467.74 337 467.54 337.4C467.54 338.2 467.44 338.6 467.34 338.6Z" fill="#005797" stroke="#005797" stroke-width="0.5" stroke-miterlimit="10"/>
<path d="M467.441 338.1C467.541 338.1 467.241 339 466.141 340.1C465.041 341.2 462.841 342.2 460.141 342.6C459.441 342.7 458.741 342.8 458.041 342.8C457.341 342.8 456.541 342.9 455.741 342.9C454.941 342.9 454.141 342.9 453.241 342.8C452.341 342.8 451.541 342.6 450.641 342.5C447.041 342 443.241 341 439.441 339.3C435.641 337.6 432.341 335.4 429.641 333.1C426.841 330.8 424.841 328.3 423.241 326.1C422.541 325 421.741 324 421.341 323C420.841 322 420.341 321.3 420.141 320.5C419.541 319.1 419.341 318.3 419.441 318.3C419.741 318.2 421.041 321.2 424.241 325.4C425.941 327.4 427.941 329.8 430.641 332C433.341 334.2 436.541 336.3 440.141 337.9C447.441 341.2 454.841 341.9 460.041 341.4C462.641 341.2 464.641 340.4 465.741 339.6C466.941 338.7 467.341 338 467.441 338.1Z" fill="#005797" stroke="#005797" stroke-width="0.5" stroke-miterlimit="10"/>
<path d="M333.54 285.6C333.24 286.2 332.84 287.3 332.84 288.7C332.84 290.4 333.44 291.7 333.74 292.4C333.04 294.2 332.24 295.9 331.54 297.7C330.44 297.4 328.44 297.2 326.34 297.9C323.54 298.9 322.04 301 321.04 302.7C316.34 310 314.24 317.1 314.24 317.1C310.64 329.5 308.84 335.6 308.54 340.5C308.44 342.1 307.94 349.6 309.84 359.2C311.34 366.6 312.14 370.7 315.74 374.4C320.44 379.2 326.44 380.1 328.14 380.3C330.54 380.6 334.54 380.7 342.54 377.3C347.74 375.1 355.64 371 363.84 363.4C363.74 360.1 363.84 356.6 364.14 352.8C365.44 339.1 369.74 327.9 373.84 320C372.04 320.3 369.34 321 366.74 322.8C363.24 325.1 362.34 327.5 358.34 331.4C355.64 334 353.74 335.2 351.74 336.7C347.84 339.6 342.24 344.7 335.14 354.4C337.94 343.3 341.14 331.9 344.74 320.2C346.24 315.3 347.84 310.5 349.34 305.8C349.14 305.2 348.64 303.9 347.44 302.8C345.84 301.3 344.04 301 343.44 301C345.04 299.2 346.64 297.4 348.24 295.5C349.54 295.8 352.34 296.2 355.44 295C357.14 294.4 358.24 293.5 358.94 293C361.74 290.9 363.04 288.3 363.84 286.7C365.14 284.1 365.64 281.6 365.94 279.6C366.74 279.6 368.04 279.8 369.34 280.4C371.84 281.5 372.24 283.2 374.34 284.9C377.34 287.4 380.94 287.7 382.44 287.8C383.64 287.9 386.34 288.1 389.34 286.9C391.94 285.9 393.44 284.3 394.34 283.4C395.34 282.4 399.74 277.7 399.84 270.6C399.84 267.6 399.14 265.4 398.54 263.7C397.44 260.7 395.64 255.4 390.54 252.9C386.74 251.1 382.94 251.8 381.24 252.1C375.04 253.3 371.54 257.6 370.44 258.9C366.44 263.8 366.14 269.1 366.04 270.9C364.84 270.6 363.64 270.3 362.54 270C361.64 268.9 359.74 266.8 356.64 265.6C353.94 264.5 351.64 264.7 349.64 264.9C347.54 265.1 342.94 265.5 338.64 268.9C336.34 270.7 334.94 272.8 334.14 274.4C333.54 275 332.14 276.6 331.74 279.1C331.34 282.5 333.24 285.1 333.54 285.6Z" fill="white"/>
<path d="M335.94 353.7C335.74 353.5 337.74 351.1 341.14 347.3C344.54 343.5 349.24 338.3 354.54 332.7C357.24 329.9 359.84 327.2 362.54 325.1C365.24 323 367.84 321.4 370.24 320.4C372.64 319.4 374.74 318.9 376.14 318.8C377.54 318.6 378.34 318.7 378.34 318.8C378.34 319.1 375.14 319.2 370.64 321.4C368.44 322.5 365.94 324.1 363.34 326.3C360.84 328.4 358.24 331.1 355.64 333.9C350.34 339.5 345.44 344.6 341.84 348.2C338.44 351.7 336.14 353.9 335.94 353.7Z" fill="#005797" stroke="#005797" stroke-width="0.5" stroke-miterlimit="10"/>
<path d="M349.44 305.8C349.64 305.9 348.94 308.7 347.64 313.2C346.34 317.7 344.54 323.9 342.54 330.8C340.54 337.7 338.84 343.9 337.54 348.4C336.24 352.9 335.34 355.7 335.14 355.6C334.94 355.5 335.44 352.7 336.44 348.1C337.44 343.5 339.04 337.2 341.04 330.3C343.04 323.4 345.04 317.2 346.64 312.8C348.14 308.4 349.24 305.7 349.44 305.8Z" fill="#005797" stroke="#005797" stroke-width="0.5" stroke-miterlimit="10"/>
<path d="M349.04 305.3C348.94 305.4 348.54 304.3 347.14 303.1C345.84 301.9 343.34 300.8 340.14 300C338.54 299.6 336.74 299.2 334.84 298.8C332.94 298.5 330.84 298.1 328.74 298.3C326.64 298.4 324.54 299.1 323.14 300.8C322.44 301.6 321.84 302.7 321.24 303.8C320.64 304.9 320.04 306 319.44 307.1C314.74 316.1 312.04 325 310.64 331.5C309.24 338 308.84 342.2 308.54 342.1C308.44 342.1 308.44 341 308.54 339.2C308.64 337.3 308.94 334.6 309.54 331.3C310.74 324.7 313.24 315.6 318.04 306.4C318.64 305.3 319.24 304.1 319.84 303C320.44 301.9 321.04 300.8 321.94 299.8C322.74 298.8 323.94 298 325.14 297.5C326.34 297 327.54 296.8 328.74 296.8C331.04 296.7 333.24 297.1 335.14 297.5C337.04 297.9 338.84 298.4 340.54 298.9C343.84 299.8 346.34 301.2 347.64 302.7C349.04 304.1 349.14 305.3 349.04 305.3Z" fill="#005797" stroke="#005797" stroke-width="0.5" stroke-miterlimit="10"/>
<path d="M362.94 364.2C363.04 364.3 362.14 365.2 360.34 366.6C358.54 368 355.94 370 352.54 372.2C350.84 373.3 348.94 374.5 346.94 375.7C344.84 376.9 342.54 378.1 340.04 379.1C337.54 380.1 334.64 380.8 331.64 381.1C328.64 381.3 325.44 380.9 322.44 379.5C319.44 378.2 317.04 376 315.24 373.6C313.44 371.2 312.14 368.6 311.14 366.1C309.14 361 308.54 356.1 308.24 352C307.94 347.9 308.04 344.6 308.24 342.4C308.34 340.1 308.54 338.9 308.64 338.9C308.74 338.9 308.84 340.2 308.84 342.4C308.94 344.7 308.94 347.9 309.44 351.9C309.84 355.9 310.64 360.6 312.64 365.5C313.64 367.9 314.94 370.4 316.64 372.6C318.34 374.8 320.54 376.8 323.24 378C325.94 379.2 328.84 379.6 331.64 379.4C334.44 379.2 337.14 378.5 339.54 377.6C342.04 376.7 344.24 375.6 346.34 374.4C348.44 373.2 350.34 372.1 352.04 371.1C355.54 369 358.24 367.2 360.04 365.9C361.84 364.8 362.84 364.1 362.94 364.2Z" fill="#005797" stroke="#005797" stroke-width="0.5" stroke-miterlimit="10"/>
<path d="M357.741 283.8C357.541 283.7 358.941 281.6 361.841 278.8C362.241 278.5 362.641 278 363.341 277.8C364.041 277.6 364.94 277.8 365.54 278.3C366.14 278.8 366.54 279.5 366.64 280.3C366.74 281.1 366.641 281.8 366.441 282.5C365.641 285.1 364.241 287.7 362.441 290.3C361.541 291.5 360.541 292.7 359.341 293.7C358.241 294.7 356.841 295.5 355.441 295.8C354.041 296.2 352.64 296 351.54 295.9C350.44 295.8 349.44 295.8 348.54 296C346.84 296.6 345.941 298 345.341 298.9C344.741 299.8 344.441 300.3 344.341 300.3C344.241 300.3 344.341 299.6 344.841 298.6C345.041 298.1 345.341 297.5 345.841 296.8C346.341 296.1 347.04 295.4 348.14 295C349.14 294.6 350.44 294.5 351.54 294.6C352.74 294.6 353.94 294.7 355.04 294.4C357.34 293.8 359.34 291.8 361.04 289.4C362.74 287 364.141 284.5 364.941 282.2C365.141 281.6 365.24 281.1 365.14 280.6C365.14 280.2 364.84 279.7 364.54 279.5C364.24 279.2 363.94 279.1 363.54 279.2C363.24 279.3 362.841 279.5 362.441 279.8C359.641 282.2 357.941 284 357.741 283.8Z" fill="#005797" stroke="#005797" stroke-width="0.5" stroke-miterlimit="10"/>
<path d="M358.74 282.8C358.84 283.2 350.44 285.1 340.04 286.3C338.74 286.4 337.44 286.6 336.04 286.5C334.74 286.4 333.24 286 332.34 285C331.34 283.9 331.14 282.6 331.14 281.5C331.14 280.4 331.34 279.4 331.54 278.5C332.04 276.7 333.04 275.5 333.74 274.9C334.54 274.3 335.04 274.1 335.14 274.2C335.24 274.3 334.74 274.6 334.24 275.4C333.64 276.1 333.04 277.3 332.64 278.9C332.44 279.7 332.44 280.6 332.44 281.5C332.54 282.4 332.74 283.4 333.34 284C333.94 284.6 334.94 284.9 336.14 285C337.24 285.1 338.54 284.9 339.84 284.8C350.14 283.5 358.64 282.3 358.74 282.8Z" fill="#005797" stroke="#005797" stroke-width="0.5" stroke-miterlimit="10"/>
<path d="M337.64 284.7C337.44 284.5 338.04 283.9 338.34 282.8C338.74 281.7 338.94 279.9 338.64 278.1C338.44 277.2 338.14 276.4 337.74 275.9C337.34 275.3 336.74 275 336.24 274.8C335.24 274.4 334.44 274.6 334.34 274.4C334.34 274.3 334.44 274.1 334.84 273.9C335.24 273.7 335.84 273.5 336.64 273.7C337.44 273.8 338.24 274.2 339.04 275C339.74 275.8 340.24 276.8 340.44 277.9C340.84 280.1 340.34 282.1 339.64 283.3C338.74 284.5 337.74 284.8 337.64 284.7Z" fill="#005797" stroke="#005797" stroke-width="0.5" stroke-miterlimit="10"/>
<path d="M341.541 273C341.541 273.5 340.241 273.8 338.641 274C337.041 274.2 335.741 274.2 335.641 273.8C335.541 273.4 336.741 272.6 338.441 272.4C340.141 272.1 341.541 272.6 341.541 273Z" fill="#005797" stroke="#005797" stroke-width="0.5" stroke-miterlimit="10"/>
<path d="M346.44 270.1C346.24 270.3 345.64 269.9 344.64 269.5C343.64 269.1 342.14 268.8 340.64 269.1C339.14 269.4 337.84 270.3 337.04 271C336.24 271.7 335.84 272.4 335.64 272.3C335.44 272.2 335.44 271.4 336.14 270.3C336.84 269.2 338.24 267.9 340.24 267.5C342.24 267.1 344.14 267.8 345.14 268.5C346.24 269.2 346.54 270 346.44 270.1Z" fill="#005797" stroke="#005797" stroke-width="0.5" stroke-miterlimit="10"/>
<path d="M363.84 272.1C363.64 272.2 362.94 271 361.24 269.4C359.64 267.9 356.94 266.2 353.64 265.7C350.34 265.2 347.24 266 345.04 266.5C342.84 267.1 341.44 267.5 341.34 267.2C341.24 267 342.54 266.2 344.64 265.4C346.84 264.6 350.04 263.5 353.84 264C355.74 264.2 357.44 264.9 358.74 265.8C360.14 266.6 361.24 267.6 361.94 268.6C363.74 270.5 364.04 272 363.84 272.1Z" fill="#005797" stroke="#005797" stroke-width="0.5" stroke-miterlimit="10"/>
<path d="M349.84 273.8C349.94 273.8 350.04 274 350.04 274.5C350.04 274.9 349.74 275.6 349.04 276.1C348.44 276.6 347.44 277 346.34 276.9C345.24 276.8 344.24 276.4 343.24 275.8C342.34 275.2 341.54 274.6 340.84 274.1C340.14 273.6 339.54 273.2 338.94 273C337.74 272.6 336.94 272.7 336.84 272.5C336.84 272.4 336.94 272.2 337.34 272.1C337.74 271.9 338.34 271.8 339.14 272C339.94 272.1 340.74 272.4 341.64 272.9C342.44 273.4 343.24 274 344.14 274.5C344.94 275 345.74 275.4 346.54 275.5C347.34 275.6 347.94 275.5 348.44 275.2C349.44 274.7 349.54 273.8 349.84 273.8Z" fill="#005797" stroke="#005797" stroke-width="0.5" stroke-miterlimit="10"/>
<path d="M364.34 271.6C364.54 271.7 364.34 272.7 363.34 274C362.34 275.3 360.34 276.8 357.74 277.2C355.14 277.6 352.84 276.9 351.44 276.1C350.04 275.3 349.34 274.5 349.44 274.3C349.54 274.1 350.44 274.5 351.84 275C353.24 275.5 355.24 275.9 357.44 275.5C359.54 275.2 361.34 274.1 362.44 273.2C363.54 272.3 364.14 271.5 364.34 271.6Z" fill="#005797" stroke="#005797" stroke-width="0.5" stroke-miterlimit="10"/>
<path d="M355.34 274.9C355.14 275 354.74 274.2 354.04 273C353.34 271.9 352.24 270.4 350.74 269.2C349.14 268 347.44 267.3 346.24 266.9C344.94 266.5 344.14 266.4 344.14 266.1C344.14 265.9 345.04 265.6 346.54 265.7C348.04 265.8 350.04 266.4 351.84 267.8C353.64 269.2 354.74 271.1 355.24 272.4C355.54 273.9 355.54 274.8 355.34 274.9Z" fill="#005797" stroke="#005797" stroke-width="0.5" stroke-miterlimit="10"/>
<path d="M359.34 274.5C358.84 274.6 358.14 271.9 356.04 269.3C353.94 266.7 351.44 265.4 351.64 264.9C351.74 264.7 352.44 264.8 353.64 265.3C354.74 265.8 356.14 266.8 357.34 268.3C358.54 269.8 359.14 271.4 359.44 272.6C359.64 273.7 359.54 274.4 359.34 274.5Z" fill="#005797" stroke="#005797" stroke-width="0.5" stroke-miterlimit="10"/>
<path d="M331.54 297.7C331.34 297.7 331.24 296.9 331.54 295.7C331.74 295.1 331.94 294.4 332.34 293.7C332.54 293.3 332.74 293 332.84 292.7C332.94 292.4 332.94 292.2 332.94 291.9C332.84 291.3 332.34 290.4 332.24 289.5C332.14 288.6 332.24 287.8 332.34 287.2C332.74 285.9 333.34 285.4 333.54 285.5C333.74 285.6 333.54 286.3 333.44 287.4C333.44 287.9 333.44 288.5 333.64 289.2C333.74 289.5 333.84 289.8 334.04 290.2C334.24 290.6 334.44 291 334.54 291.6C334.64 292.2 334.54 292.9 334.34 293.3C334.14 293.8 333.84 294.1 333.64 294.4C333.24 295 332.94 295.5 332.64 296C332.04 297.1 331.74 297.7 331.54 297.7Z" fill="#005797" stroke="#005797" stroke-width="0.5" stroke-miterlimit="10"/>
<path d="M392.54 285.8C392.44 285.7 393.04 284.8 394.04 283.2C395.04 281.6 396.64 279.3 397.94 276.3C398.54 274.8 399.04 273 399.24 271.1C399.34 269.2 399.14 267.1 398.44 265.1C397.04 261 393.94 257 389.84 254.2C388.84 253.5 387.74 253 386.64 252.8C385.54 252.6 384.34 252.5 383.14 252.7C380.84 253 378.64 253.7 376.74 254.8C372.94 256.9 370.34 260.1 368.74 263C368.04 264.5 367.44 265.9 367.14 267.2C366.94 267.8 366.94 268.4 366.74 269C366.64 269.6 366.64 270 366.54 270.7C366.54 270.8 366.54 271 366.54 271.1C366.44 271.2 366.24 271.2 366.14 271.2C365.84 271.3 365.64 271.3 365.44 271.3C365.04 271.3 364.74 271.3 364.44 271.2C363.94 271.1 363.64 271 363.74 270.9C363.74 270.8 364.04 270.9 364.54 270.9C364.74 270.9 365.04 270.9 365.44 270.8C365.54 270.8 365.74 270.7 365.84 270.7C365.94 270.7 366.04 270.7 366.04 270.6C366.04 270.5 366.04 270.4 366.04 270.3C366.04 270 366.04 269.4 366.04 268.8C366.14 268.2 366.14 267.6 366.34 266.9C366.54 265.5 367.04 264 367.74 262.4C369.24 259.3 371.94 255.8 376.04 253.4C378.04 252.2 380.44 251.4 383.04 251.1C384.34 251 385.64 250.9 387.04 251.2C388.44 251.5 389.64 252.1 390.84 252.8C395.34 255.9 398.54 260.2 399.94 264.6C400.64 266.8 400.94 269.1 400.74 271.2C400.54 273.3 399.94 275.2 399.24 276.7C397.74 279.9 396.04 282.1 394.84 283.6C393.34 285.2 392.54 285.9 392.54 285.8Z" fill="#005797" stroke="#005797" stroke-width="0.5" stroke-miterlimit="10"/>
<path d="M393.54 284.6C393.64 284.7 392.44 286.1 389.74 287.3C388.44 287.9 386.74 288.4 384.84 288.6C382.94 288.8 380.74 288.6 378.64 287.9C376.54 287.2 374.64 286.2 373.14 285C372.34 284.4 371.74 283.7 371.14 283.1C370.54 282.5 370.14 281.9 369.64 281.4C368.74 280.4 367.84 280 367.14 279.8C366.44 279.6 366.04 279.7 365.94 279.6C365.94 279.5 366.34 279.2 367.14 279.2C368.04 279.2 369.24 279.6 370.44 280.6C371.04 281.1 371.54 281.6 372.14 282.2C372.74 282.8 373.34 283.3 374.04 283.8C375.44 284.8 377.24 285.8 379.14 286.4C383.04 287.6 386.84 287.1 389.44 286.3C391.94 285.4 393.44 284.4 393.54 284.6Z" fill="#005797" stroke="#005797" stroke-width="0.5" stroke-miterlimit="10"/>
<path d="M372.541 276C372.641 275.9 373.041 277 374.241 278.4C374.841 279.1 375.641 279.9 376.841 280.5C377.941 281.2 379.341 281.7 380.941 281.9C382.541 282.1 384.341 281.9 386.141 281.2C387.841 280.5 389.541 279.2 390.841 277.5C393.441 274.2 393.841 268.7 391.441 264.4C390.241 262.3 388.341 260.6 386.241 259.9C384.141 259.1 381.841 259.7 379.941 260.6C376.041 262.5 373.341 265.7 372.441 268.9C371.541 272.1 372.241 274.8 373.041 276.5C373.841 278.2 374.741 278.9 374.641 279C374.641 279.1 373.641 278.5 372.541 276.8C371.541 275.1 370.541 272.2 371.341 268.6C372.141 265.1 375.041 261.4 379.241 259.3C380.341 258.8 381.441 258.3 382.741 258.1C384.041 257.9 385.441 258 386.741 258.4C389.341 259.3 391.441 261.2 392.841 263.6C395.541 268.5 395.041 274.6 392.041 278.4C389.041 282.2 384.341 283.7 380.841 283.1C379.041 282.8 377.541 282.1 376.341 281.3C375.141 280.5 374.341 279.6 373.741 278.8C372.641 277.1 372.441 276 372.541 276Z" fill="#005797" stroke="#005797" stroke-width="0.5" stroke-miterlimit="10"/>
<path d="M374.74 278.5C374.34 278.4 374.74 273.8 377.04 268.5C379.24 263.3 382.34 259.8 382.74 260C383.14 260.3 380.74 264.1 378.54 269.1C376.34 274.3 375.24 278.6 374.74 278.5Z" fill="#005797" stroke="#005797" stroke-width="0.5" stroke-miterlimit="10"/>
<path d="M387.54 266C387.94 266.2 387.24 268 386.24 270.1C385.24 272.1 384.24 273.8 383.84 273.6C383.44 273.5 383.74 271.5 384.74 269.4C385.84 267.2 387.14 265.8 387.54 266Z" fill="#005797" stroke="#005797" stroke-width="0.5" stroke-miterlimit="10"/>
<path d="M387.14 267C387.54 267.3 386.84 269 385.84 271.1C384.84 273.2 384.04 274.9 383.54 274.7C383.14 274.6 383.34 272.6 384.34 270.4C385.34 268.2 386.74 266.8 387.14 267Z" fill="#005797" stroke="#005797" stroke-width="0.5" stroke-miterlimit="10"/>
<path d="M59.5664 231.915C60.7356 229.414 61.359 227.234 60.9587 227.047C60.5585 226.86 59.2862 228.736 58.117 231.238C56.9478 233.739 56.3245 235.919 56.7247 236.106C57.125 236.293 58.3972 234.417 59.5664 231.915Z" fill="#005797" stroke="#005797" stroke-width="0.5" stroke-miterlimit="10"/>
<path d="M57.6438 259.576C58.0826 259.525 58.2561 257.927 58.0313 256.007C57.8065 254.087 57.2685 252.572 56.8297 252.624C56.3909 252.675 56.2174 254.273 56.4422 256.193C56.667 258.113 57.205 259.627 57.6438 259.576Z" fill="#005797" stroke="#005797" stroke-width="0.5" stroke-miterlimit="10"/>
<path d="M71.0398 280.8C70.7398 281.1 69.5398 280.6 68.4398 279.6C67.3398 278.6 66.6398 277.5 66.9398 277.2C67.2398 276.9 68.4398 277.4 69.5398 278.4C70.6398 279.4 71.3398 280.4 71.0398 280.8Z" fill="#005797" stroke="#005797" stroke-width="0.5" stroke-miterlimit="10"/>
<path d="M78.1397 306.9C77.7397 306.8 78.1397 304.1 78.1397 300.9C78.1397 297.7 77.7397 295 78.2397 294.9C78.6397 294.8 79.8397 297.4 79.8397 300.9C79.7397 304.4 78.5397 307 78.1397 306.9Z" fill="#005797" stroke="#005797" stroke-width="0.5" stroke-miterlimit="10"/>
<path d="M72.7879 331.102C73.5316 327.986 73.7862 325.377 73.3564 325.275C72.9267 325.172 71.9753 327.615 71.2315 330.731C70.4877 333.847 70.2331 336.456 70.6629 336.558C71.0927 336.661 72.0441 334.218 72.7879 331.102Z" fill="#005797" stroke="#005797" stroke-width="0.5" stroke-miterlimit="10"/>
<path d="M69.0608 358.447C69.4769 354.937 69.4584 352.05 69.0197 351.998C68.581 351.946 67.8881 354.749 67.472 358.259C67.056 361.769 67.0744 364.656 67.5131 364.708C67.9519 364.76 68.6448 361.957 69.0608 358.447Z" fill="#005797" stroke="#005797" stroke-width="0.5" stroke-miterlimit="10"/>
<path d="M70.3398 390.9C69.9398 391 68.9398 388.4 68.1398 385.1C67.3398 381.8 67.1398 379 67.5398 378.9C67.9398 378.8 68.9398 381.4 69.7398 384.7C70.4398 388 70.7398 390.8 70.3398 390.9Z" fill="#005797" stroke="#005797" stroke-width="0.5" stroke-miterlimit="10"/>
<path d="M91.5405 414.1C91.5405 414.3 90.6405 414.5 89.2405 414.3C87.8405 414.2 85.9405 413.6 84.0405 412.6C82.1405 411.6 80.7405 410.2 79.8405 409.1C78.9405 408 78.6405 407.2 78.8405 407.1C79.2405 406.8 81.3405 409.3 84.8405 411.2C88.3405 413.1 91.6405 413.6 91.5405 414.1Z" fill="#005797" stroke="#005797" stroke-width="0.5" stroke-miterlimit="10"/>
<path d="M116.24 405.7C116.44 405.8 116.24 406.4 115.64 407.1C115.04 407.8 114.04 408.6 112.74 409.2C111.44 409.8 110.14 409.9 109.24 409.8C108.34 409.7 107.74 409.5 107.84 409.3C107.84 408.8 109.94 408.7 112.14 407.7C114.34 406.8 115.84 405.4 116.24 405.7Z" fill="#005797" stroke="#005797" stroke-width="0.5" stroke-miterlimit="10"/>
<path d="M132.84 382.4C133.04 382.4 133.24 383.1 133.24 384.4C133.24 385.6 132.94 387.3 132.14 389C131.34 390.7 130.24 392 129.34 392.8C128.44 393.6 127.74 393.9 127.54 393.7C127.24 393.3 129.24 391.3 130.64 388.2C132.14 385.2 132.44 382.4 132.84 382.4Z" fill="#005797" stroke="#005797" stroke-width="0.5" stroke-miterlimit="10"/>
<path d="M134.64 371.1C135.082 371.1 135.44 368.906 135.44 366.2C135.44 363.494 135.082 361.3 134.64 361.3C134.198 361.3 133.84 363.494 133.84 366.2C133.84 368.906 134.198 371.1 134.64 371.1Z" fill="#005797" stroke="#005797" stroke-width="0.5" stroke-miterlimit="10"/>
<path d="M141.34 339.9C141.74 340.1 140.94 342.2 139.64 344.6C138.34 346.9 136.84 348.7 136.54 348.4C136.14 348.2 136.94 346.1 138.24 343.7C139.54 341.4 141.04 339.7 141.34 339.9Z" fill="#005797" stroke="#005797" stroke-width="0.5" stroke-miterlimit="10"/>
<path d="M158.64 324.6C158.84 325 157.14 326.4 154.84 327.7C152.54 329 150.44 329.8 150.14 329.4C149.84 329 151.64 327.6 153.94 326.3C156.34 324.9 158.44 324.2 158.64 324.6Z" fill="#005797" stroke="#005797" stroke-width="0.5" stroke-miterlimit="10"/>
<path d="M92.2402 208.8C92.4402 209.2 90.6402 210.3 88.5402 211.6C86.4402 212.9 84.7402 214 84.4402 213.6C84.1402 213.3 85.4402 211.6 87.7402 210.2C90.0402 208.9 92.1402 208.4 92.2402 208.8Z" fill="#005797" stroke="#005797" stroke-width="0.5" stroke-miterlimit="10"/>
<path d="M116.34 198.9C116.54 199.3 114.84 200.8 112.14 201.5C109.44 202.3 107.14 201.9 107.14 201.5C107.14 201 109.24 200.7 111.64 200C114.04 199.3 116.04 198.5 116.34 198.9Z" fill="#005797" stroke="#005797" stroke-width="0.5" stroke-miterlimit="10"/>
<path d="M138.04 182.6C138.44 182.8 137.24 186.2 134.24 189.3C131.24 192.5 127.84 193.7 127.64 193.3C127.44 192.9 130.24 191.1 133.04 188.1C135.94 185.3 137.64 182.4 138.04 182.6Z" fill="#005797" stroke="#005797" stroke-width="0.5" stroke-miterlimit="10"/>
<path d="M149.04 160.6C149.44 160.8 148.54 163.2 147.44 166.1C146.44 169 145.64 171.4 145.14 171.4C144.74 171.3 144.84 168.7 145.94 165.6C147.04 162.5 148.74 160.4 149.04 160.6Z" fill="#005797" stroke="#005797" stroke-width="0.5" stroke-miterlimit="10"/>
<path d="M167.04 143.1C167.24 143.5 165.34 144.6 163.24 146.1C161.14 147.6 159.64 149 159.24 148.8C158.84 148.5 160.04 146.5 162.24 144.8C164.64 143.1 166.94 142.7 167.04 143.1Z" fill="#005797" stroke="#005797" stroke-width="0.5" stroke-miterlimit="10"/>
<path d="M181.36 136.092C183.712 135.763 185.569 135.142 185.508 134.704C185.447 134.267 183.491 134.179 181.139 134.508C178.787 134.837 176.93 135.459 176.991 135.896C177.052 136.334 179.008 136.422 181.36 136.092Z" fill="#005797" stroke="#005797" stroke-width="0.5" stroke-miterlimit="10"/>
<path d="M210.24 144.4C209.94 144.8 207.24 143.1 204.14 140.7C201.04 138.3 198.74 136.1 199.04 135.7C199.34 135.3 202.04 137 205.14 139.4C208.24 141.9 210.44 144.1 210.24 144.4Z" fill="#005797" stroke="#005797" stroke-width="0.5" stroke-miterlimit="10"/>
<path d="M211.54 168.5C211.14 168.3 211.44 167.1 211.64 165.6C211.84 164.2 211.84 162.9 212.34 162.8C212.74 162.7 213.54 164 213.24 165.8C213.04 167.7 211.94 168.8 211.54 168.5Z" fill="#005797" stroke="#005797" stroke-width="0.5" stroke-miterlimit="10"/>
<path d="M201.74 182C201.34 181.7 202.04 180.2 203.14 178.7C204.34 177.1 205.54 176.1 205.94 176.4C206.34 176.7 205.64 178.2 204.54 179.7C203.34 181.2 202.14 182.3 201.74 182Z" fill="#005797" stroke="#005797" stroke-width="0.5" stroke-miterlimit="10"/>
<path d="M195.84 201.1C195.44 201.3 194.34 199.4 194.44 196.8C194.54 194.2 195.74 192.4 196.14 192.6C196.54 192.8 196.14 194.6 196.14 196.9C195.94 199 196.24 200.9 195.84 201.1Z" fill="#005797" stroke="#005797" stroke-width="0.5" stroke-miterlimit="10"/>
<path d="M204.34 216.7C204.04 217 202.34 216 201.04 214.1C199.64 212.2 199.34 210.3 199.74 210.1C200.14 209.9 201.14 211.4 202.44 213.2C203.54 215 204.64 216.4 204.34 216.7Z" fill="#005797" stroke="#005797" stroke-width="0.5" stroke-miterlimit="10"/>
<path d="M223.54 220.8C223.64 221.2 222.04 221.8 220.14 222C218.24 222.2 216.54 222 216.54 221.6C216.44 221.2 218.04 220.6 219.94 220.4C221.84 220.2 223.54 220.3 223.54 220.8Z" fill="#005797" stroke="#005797" stroke-width="0.5" stroke-miterlimit="10"/>
<path d="M246.94 205.3C247.34 205.5 246.54 207.9 244.44 210.1C242.34 212.4 240.14 213.4 239.84 213C239.54 212.6 241.34 211 243.24 209C245.14 206.9 246.54 205.1 246.94 205.3Z" fill="#005797" stroke="#005797" stroke-width="0.5" stroke-miterlimit="10"/>
<path d="M258.84 191.8C259.14 192.1 258.24 193.8 256.64 195.5C255.14 197.3 253.54 198.5 253.24 198.2C252.94 197.9 253.84 196.2 255.44 194.5C257.04 192.8 258.44 191.5 258.84 191.8Z" fill="#005797" stroke="#005797" stroke-width="0.5" stroke-miterlimit="10"/>
<path d="M276.44 178.3C276.74 178.7 274.84 180.4 272.34 182.2C269.84 184 267.54 185.1 267.34 184.7C267.04 184.3 268.94 182.6 271.44 180.8C273.94 179.1 276.14 177.9 276.44 178.3Z" fill="#005797" stroke="#005797" stroke-width="0.5" stroke-miterlimit="10"/>
<path d="M301.14 171.5C301.04 172 298.04 171.7 294.44 172.1C290.84 172.4 287.94 173.3 287.74 172.8C287.54 172.4 290.34 170.8 294.24 170.4C298.24 170.1 301.24 171.1 301.14 171.5Z" fill="#005797" stroke="#005797" stroke-width="0.5" stroke-miterlimit="10"/>
<path d="M327.34 174.8C327.24 175.2 325.84 175.3 324.34 174.8C322.74 174.4 321.64 173.7 321.74 173.3C321.84 172.9 323.24 172.8 324.74 173.3C326.34 173.7 327.44 174.4 327.34 174.8Z" fill="#005797" stroke="#005797" stroke-width="0.5" stroke-miterlimit="10"/>
<path d="M352.64 165C352.84 165.1 352.74 166.1 351.94 167.6C351.54 168.4 350.94 169.2 350.24 170C349.54 170.8 348.54 171.7 347.54 172.4C346.44 173.1 345.34 173.6 344.24 174C343.14 174.3 342.14 174.6 341.34 174.6C339.64 174.7 338.64 174.4 338.64 174.2C338.64 174 339.64 173.8 341.14 173.4C342.64 173 344.64 172.2 346.64 171C348.54 169.7 350.04 168.1 351.04 166.9C351.94 165.8 352.44 164.9 352.64 165Z" fill="#005797" stroke="#005797" stroke-width="0.5" stroke-miterlimit="10"/>
<path d="M363.94 146.6C364.34 146.8 363.74 149 362.54 151.5C361.34 154 360.04 155.9 359.64 155.7C359.24 155.5 359.84 153.3 361.04 150.8C362.24 148.3 363.54 146.4 363.94 146.6Z" fill="#005797" stroke="#005797" stroke-width="0.5" stroke-miterlimit="10"/>
<path d="M372.44 136.7C372.64 137.1 371.84 137.9 370.64 138.5C369.44 139.1 368.34 139.2 368.14 138.8C367.94 138.4 368.74 137.6 369.94 137C371.14 136.4 372.24 136.3 372.44 136.7Z" fill="#005797" stroke="#005797" stroke-width="0.5" stroke-miterlimit="10"/>
<path d="M179.64 336.7C179.54 336.8 176.94 334.3 173.54 329.7C171.84 327.4 169.84 324.5 167.84 321.3C165.84 318 163.84 314.4 161.84 310.4C157.94 302.5 154.94 295.1 152.94 289.8C150.94 284.4 149.74 281.1 150.04 281C150.24 280.9 151.74 284.1 154.04 289.4C156.34 294.6 159.44 301.9 163.34 309.7C165.24 313.6 167.24 317.2 169.14 320.5C171.04 323.8 172.84 326.6 174.44 329C177.64 333.8 179.84 336.5 179.64 336.7Z" fill="#005797" stroke="#005797" stroke-width="0.5" stroke-miterlimit="10"/>
<path d="M182.74 262.8C182.84 263 181.24 264.3 178.44 266.3C175.64 268.3 171.64 271 167.14 273.6C162.54 276.3 158.24 278.3 155.04 279.6C151.84 280.9 149.74 281.4 149.64 281.2C149.54 281 151.54 280.1 154.54 278.6C157.64 277.1 161.84 274.9 166.34 272.3C170.84 269.7 174.94 267.2 177.84 265.4C180.74 263.6 182.64 262.6 182.74 262.8Z" fill="#005797" stroke="#005797" stroke-width="0.5" stroke-miterlimit="10"/>
<path d="M184.241 265.9C184.341 265.8 184.841 266.6 186.241 267.4C187.541 268.2 189.941 268.9 192.541 268C195.041 267.1 197.741 264.5 198.241 260.9C198.541 259.1 198.341 257.2 197.541 255.4C196.741 253.7 195.341 252.2 193.441 251.3C191.641 250.4 189.541 250.2 187.641 250.7C185.841 251.2 184.241 252.4 183.241 253.9C182.241 255.3 181.641 257 181.541 258.6C181.541 259.4 181.541 260.2 181.741 260.9C181.941 261.6 182.241 262.3 182.541 262.9C183.941 265.3 185.941 266.6 187.341 267.2C188.841 267.8 189.741 267.8 189.741 268C189.741 268.1 188.841 268.3 187.141 267.8C185.541 267.4 183.141 266.2 181.541 263.5C181.141 262.8 180.741 262.1 180.541 261.3C180.241 260.5 180.141 259.6 180.141 258.7C180.141 256.8 180.741 254.9 181.941 253.2C183.141 251.5 184.941 250 187.141 249.4C189.341 248.7 191.841 249 194.041 250.1C196.241 251.1 197.941 252.9 198.841 255C199.741 257.1 199.941 259.4 199.541 261.4C199.141 263.4 198.241 265.2 196.941 266.6C195.641 267.9 194.141 268.9 192.641 269.3C191.141 269.8 189.641 269.7 188.441 269.5C187.241 269.2 186.341 268.7 185.641 268.2C184.441 266.9 184.141 265.9 184.241 265.9Z" fill="#005797" stroke="#005797" stroke-width="0.5" stroke-miterlimit="10"/>
<path d="M220.54 299.2C220.44 299.4 218.54 298 215.84 295.5C213.14 293 209.64 289.2 206.24 284.6C202.84 280 200.24 275.6 198.64 272.3C196.94 269 196.24 266.8 196.44 266.7C196.84 266.5 200.94 274.7 207.64 283.6C214.14 292.6 220.84 298.8 220.54 299.2Z" fill="#005797" stroke="#005797" stroke-width="0.5" stroke-miterlimit="10"/>
<path d="M220.64 299.7C220.84 299.8 219.84 302.8 217.24 307.4C216.94 308 216.54 308.6 216.24 309.2C215.84 309.8 215.44 310.4 215.04 311.1C214.24 312.4 213.24 313.7 212.24 315.1C210.14 317.8 207.54 320.6 204.64 323.4C201.64 326.1 198.64 328.4 195.74 330.2C194.24 331.1 192.84 332 191.54 332.7C190.84 333.1 190.24 333.4 189.54 333.7C188.94 334 188.24 334.3 187.64 334.6C182.84 336.7 179.74 337.4 179.64 337.3C179.54 337 182.54 335.9 187.14 333.6C187.74 333.3 188.34 333 188.94 332.7C189.54 332.4 190.14 332 190.84 331.6C192.14 330.9 193.44 330 194.94 329C197.74 327.1 200.64 324.8 203.54 322.2C206.44 319.6 208.94 316.8 211.04 314.2C212.04 312.9 213.14 311.6 213.94 310.4C214.34 309.8 214.84 309.2 215.24 308.6C215.64 308 215.94 307.5 216.34 306.9C218.94 302.5 220.34 299.6 220.64 299.7Z" fill="#005797" stroke="#005797" stroke-width="0.5" stroke-miterlimit="10"/>
<path d="M176.54 277.2C176.84 277.5 173.84 281.1 169.04 284C164.24 287 159.64 288.1 159.54 287.7C159.34 287.3 163.54 285.5 168.14 282.6C172.84 279.8 176.24 276.9 176.54 277.2Z" fill="#005797" stroke="#005797" stroke-width="0.5" stroke-miterlimit="10"/>
<path d="M176.14 283.4C176.34 283.8 173.94 285.8 170.74 287.9C167.54 290 164.64 291.4 164.44 291.1C164.24 290.7 166.64 288.7 169.84 286.6C173.04 284.4 175.84 283 176.14 283.4Z" fill="#005797" stroke="#005797" stroke-width="0.5" stroke-miterlimit="10"/>
<path d="M188.341 286.5C188.641 286.9 184.341 290.4 178.441 293.9C172.541 297.4 167.441 299.6 167.241 299.2C167.041 298.8 171.741 296 177.541 292.5C183.341 289 188.041 286.1 188.341 286.5Z" fill="#005797" stroke="#005797" stroke-width="0.5" stroke-miterlimit="10"/>
<path d="M196.04 292.9C196.34 293.3 190.64 297.8 183.34 303.1C176.04 308.4 169.94 312.3 169.64 312C169.34 311.6 175.04 307.1 182.34 301.8C189.64 296.5 195.74 292.5 196.04 292.9Z" fill="#005797" stroke="#005797" stroke-width="0.5" stroke-miterlimit="10"/>
<path d="M188.341 306.8C188.541 307.2 185.941 309.2 182.641 311.7C179.341 314.2 176.641 316.1 176.341 315.8C176.041 315.5 178.341 312.9 181.641 310.4C184.941 307.9 188.041 306.5 188.341 306.8Z" fill="#005797" stroke="#005797" stroke-width="0.5" stroke-miterlimit="10"/>
<path d="M192.54 309.3C192.84 309.6 189.94 312.5 186.14 315.8C182.34 319 178.94 321.4 178.64 321C178.34 320.7 181.24 317.8 185.04 314.5C188.94 311.3 192.24 308.9 192.54 309.3Z" fill="#005797" stroke="#005797" stroke-width="0.5" stroke-miterlimit="10"/>
<path d="M81.94 192.7C81.84 192.7 81.74 191.4 82.84 189.6C83.44 188.7 84.24 187.7 85.34 186.7C86.34 185.7 87.64 184.6 88.74 183.2C90.94 180.5 91.64 176.1 91.24 171.4C91.04 169.1 90.34 166.7 88.84 164.8C87.34 162.9 84.94 161.6 82.44 161.1C79.84 160.6 77.24 161.1 75.04 162.2C72.84 163.3 71.04 165.1 69.84 167C68.54 168.9 67.84 171 67.54 173.1C67.24 175.1 67.24 177.1 67.54 178.8C67.84 180.6 68.24 182.1 68.74 183.4C69.24 184.7 69.84 185.9 70.04 186.9C70.34 187.9 70.34 188.8 70.24 189.3C70.14 189.9 70.04 190.1 69.94 190.1C69.84 190.1 70.14 188.9 69.34 187.1C69.04 186.2 68.34 185.1 67.74 183.8C67.14 182.5 66.54 180.9 66.24 179C65.94 177.2 65.74 175.1 66.04 172.9C66.34 170.7 67.04 168.4 68.44 166.2C69.84 164.1 71.74 162.1 74.24 160.8C76.64 159.5 79.74 158.9 82.64 159.5C85.54 160 88.24 161.5 90.04 163.7C91.84 165.9 92.54 168.7 92.74 171.1C92.94 173.6 92.74 175.9 92.24 178.1C91.74 180.3 90.84 182.2 89.64 183.7C88.44 185.2 87.04 186.2 85.94 187.1C84.84 188 83.94 188.9 83.34 189.6C82.14 191.6 82.04 192.7 81.94 192.7Z" fill="#005797" stroke="#005797" stroke-width="0.5" stroke-miterlimit="10"/>
<path d="M81.4398 192.8C81.5398 193 80.9398 193.5 79.8398 193.8C78.7398 194.2 77.0398 194.4 75.3398 194C73.5398 193.7 72.0398 193 71.1398 192.2C70.2398 191.5 69.8398 190.9 69.9398 190.7C70.2398 190.3 72.4398 191.8 75.5398 192.3C78.7398 193 81.3398 192.3 81.4398 192.8Z" fill="#005797" stroke="#005797" stroke-width="0.5" stroke-miterlimit="10"/>
<path d="M69.3396 195.3C69.3396 195.5 68.8396 195.7 68.2396 195.5C67.5396 195.3 66.7396 194.5 66.6396 193.2C66.6396 191.9 67.4396 191.1 68.1396 190.9C68.8396 190.6 69.2396 190.8 69.2396 191.1C69.2396 191.3 68.9396 191.6 68.7396 191.9C68.4396 192.2 68.2396 192.8 68.2396 193.2C68.2396 193.7 68.5396 194.2 68.7396 194.5C69.1396 194.8 69.4396 195 69.3396 195.3Z" fill="#005797" stroke="#005797" stroke-width="0.5" stroke-miterlimit="10"/>
<path d="M67.7405 199.2C67.6405 199.4 67.2405 199.4 66.8405 199C66.4405 198.7 66.0405 198 66.1405 197.2C66.1405 196.4 66.5405 195.7 66.9405 195.4C67.3405 195.1 67.7405 195.1 67.8405 195.3C67.9405 195.5 67.9405 195.8 67.8405 196.1C67.7405 196.4 67.7405 196.8 67.7405 197.3C67.7405 197.7 67.7405 198.1 67.8405 198.5C67.8405 198.7 67.8405 199 67.7405 199.2Z" fill="#005797" stroke="#005797" stroke-width="0.5" stroke-miterlimit="10"/>
<path d="M81.1398 201.5C81.2398 201.7 80.5398 202.2 79.1398 202.7C77.8398 203.1 75.8398 203.4 73.7398 203.1C71.6398 202.8 69.7398 202 68.6398 201.2C67.4398 200.4 66.9398 199.7 67.0398 199.5C67.3398 199.1 70.0398 201 73.9398 201.5C77.8398 202.1 81.0398 201.1 81.1398 201.5Z" fill="#005797" stroke="#005797" stroke-width="0.5" stroke-miterlimit="10"/>
<path d="M81.8398 196.3C81.8398 196.1 82.1398 195.9 82.3398 195.6C82.5398 195.3 82.8398 194.9 82.8398 194.5C82.8398 194.1 82.6398 193.7 82.4398 193.4C82.2398 193.1 81.9398 192.9 81.9398 192.6C81.9398 192.4 82.3398 192.2 83.0398 192.4C83.6398 192.6 84.5398 193.3 84.5398 194.5C84.5398 195.7 83.6398 196.4 83.0398 196.6C82.2398 196.8 81.8398 196.5 81.8398 196.3Z" fill="#005797" stroke="#005797" stroke-width="0.5" stroke-miterlimit="10"/>
<path d="M79.4404 202.8C79.4404 202.6 79.8404 202.4 80.3404 202C80.8404 201.6 81.4404 201 81.7404 200.3C82.0404 199.5 82.0404 198.7 81.9404 198.1C81.8404 197.5 81.6404 197.1 81.8404 196.9C81.9404 196.8 82.5404 196.9 82.9404 197.6C83.4404 198.3 83.7404 199.6 83.2404 200.9C82.7404 202.2 81.6404 202.9 80.8404 203.1C79.9404 203.3 79.4404 203.1 79.4404 202.8Z" fill="#005797" stroke="#005797" stroke-width="0.5" stroke-miterlimit="10"/>
<path d="M78.1877 186.761C79.326 183.124 79.9069 180.069 79.4852 179.937C79.0635 179.805 77.7989 182.646 76.6606 186.283C75.5224 189.92 74.9415 192.975 75.3631 193.107C75.7848 193.239 77.0494 190.398 78.1877 186.761Z" fill="#005797" stroke="#005797" stroke-width="0.5" stroke-miterlimit="10"/>
<path d="M75.9403 175.1C76.3403 174.8 77.4403 175.8 78.0403 177.4C78.7403 179 78.5403 180.5 78.1403 180.5C77.6403 180.6 77.1403 179.4 76.5403 178C75.9403 176.6 75.5403 175.4 75.9403 175.1Z" fill="#005797" stroke="#005797" stroke-width="0.5" stroke-miterlimit="10"/>
<path d="M85.5397 176C85.9397 176.3 85.3397 177.6 83.9397 178.7C82.5397 179.8 81.0397 180 80.9397 179.6C80.7397 179.2 81.7397 178.3 82.9397 177.4C84.1397 176.5 85.1397 175.8 85.5397 176Z" fill="#005797" stroke="#005797" stroke-width="0.5" stroke-miterlimit="10"/>
<path d="M59.6401 161.7C59.3401 162 58.3401 161.7 57.4401 160.9C56.5401 160.1 56.0401 159.2 56.2401 158.8C56.5401 158.5 57.5401 158.8 58.4401 159.6C59.4401 160.4 59.9401 161.3 59.6401 161.7Z" fill="#005797" stroke="#005797" stroke-width="0.5" stroke-miterlimit="10"/>
<path d="M72.7405 148.8C73.1405 148.8 73.6405 150 73.7405 151.5C73.8405 153 73.6405 154.3 73.1405 154.3C72.7405 154.3 72.2405 153.1 72.1405 151.6C72.0405 150.1 72.3405 148.9 72.7405 148.8Z" fill="#005797" stroke="#005797" stroke-width="0.5" stroke-miterlimit="10"/>
<path d="M91.5033 155.092C91.9719 154.624 92.0986 153.99 91.7862 153.678C91.4737 153.366 90.8406 153.492 90.372 153.961C89.9033 154.429 89.7767 155.063 90.0891 155.375C90.4015 155.687 91.0347 155.561 91.5033 155.092Z" fill="#005797" stroke="#005797" stroke-width="0.5" stroke-miterlimit="10"/>
<path d="M105.64 165.1C105.94 165.5 105.04 166.5 103.44 166.8C101.94 167.1 100.64 166.5 100.74 166.1C100.84 165.6 101.84 165.5 103.04 165.2C104.34 165 105.44 164.7 105.64 165.1Z" fill="#005797" stroke="#005797" stroke-width="0.5" stroke-miterlimit="10"/>
<path d="M102.94 178.9C102.94 179.4 102.24 179.7 101.34 179.7C100.44 179.7 99.7402 179.3 99.7402 178.9C99.7402 178.5 100.44 178.1 101.34 178.1C102.24 178.1 102.94 178.4 102.94 178.9Z" fill="#005797" stroke="#005797" stroke-width="0.5" stroke-miterlimit="10"/>
<path d="M370.234 133.319C370.034 133.419 368.234 131.119 365.734 126.919C364.534 124.819 363.134 122.319 361.734 119.419C360.334 116.519 359.034 113.319 357.834 109.819C356.634 106.319 355.634 103.019 354.934 99.9189C354.234 96.8189 353.734 94.0189 353.334 91.6189C352.734 86.8189 352.634 83.9189 352.834 83.8189C353.034 83.8189 353.534 86.7189 354.434 91.4189C354.934 93.7189 355.534 96.5189 356.334 99.5189C357.134 102.519 358.134 105.819 359.334 109.319C360.534 112.719 361.834 115.919 363.134 118.819C364.434 121.719 365.634 124.219 366.734 126.319C368.934 130.619 370.434 133.219 370.234 133.319Z" fill="#005797" stroke="#005797" stroke-width="0.5" stroke-miterlimit="10"/>
<path d="M421.234 61.0189C421.334 61.2189 417.734 63.0189 411.734 65.6189C405.734 68.2189 397.334 71.5189 387.934 74.7189C378.534 77.9189 369.834 80.4189 363.534 82.1189C357.234 83.7189 353.234 84.5189 353.234 84.3189C353.134 84.1189 357.034 82.9189 363.234 81.0189C369.434 79.1189 378.034 76.4189 387.434 73.2189C396.834 70.0189 405.234 66.8189 411.334 64.5189C417.334 62.2189 421.134 60.8189 421.234 61.0189Z" fill="#005797" stroke="#005797" stroke-width="0.5" stroke-miterlimit="10"/>
<path d="M437.334 104.319C437.234 104.419 435.134 102.719 432.934 99.2189C430.634 95.7189 428.234 90.3189 426.534 84.2189C424.734 78.1189 423.434 72.6189 422.534 68.5189C421.634 64.5189 421.134 61.9189 421.334 61.9189C421.534 61.8189 422.434 64.3189 423.634 68.2189C424.834 72.1189 426.334 77.7189 428.134 83.7189C429.834 89.7189 431.934 95.0189 433.934 98.5189C435.834 102.219 437.534 104.119 437.334 104.319Z" fill="#005797" stroke="#005797" stroke-width="0.5" stroke-miterlimit="10"/>
<path d="M439.034 104.719C439.134 104.819 438.334 105.519 436.834 106.819C436.134 107.419 435.134 108.219 434.034 109.019C432.934 109.819 431.734 110.819 430.234 111.719C428.834 112.719 427.234 113.719 425.534 114.819C423.834 115.919 421.934 117.019 419.934 118.119C415.934 120.319 411.434 122.619 406.534 124.619C401.634 126.619 396.934 128.319 392.534 129.619C390.334 130.219 388.234 130.819 386.234 131.319C384.234 131.819 382.434 132.219 380.734 132.519C379.034 132.919 377.534 133.119 376.134 133.319C374.734 133.519 373.634 133.719 372.634 133.719C370.734 133.919 369.634 133.919 369.634 133.819C369.634 133.519 373.834 132.919 380.534 131.319C382.234 130.919 384.034 130.519 385.934 129.919C387.934 129.419 389.934 128.819 392.134 128.119C396.434 126.719 401.134 125.119 405.934 123.019C410.734 121.019 415.234 118.819 419.234 116.719C421.234 115.619 423.134 114.619 424.834 113.519C426.634 112.519 428.134 111.519 429.634 110.619C435.434 107.119 438.834 104.519 439.034 104.719Z" fill="#005797" stroke="#005797" stroke-width="0.5" stroke-miterlimit="10"/>
<path d="M423.134 69.4189C423.234 69.5189 422.334 70.1189 420.734 71.0189C419.134 72.0189 416.834 73.2189 413.834 74.7189C410.934 76.2189 407.334 77.8189 403.334 79.5189C399.334 81.2189 394.834 82.9189 390.034 84.5189C385.234 86.1189 380.634 87.4189 376.434 88.5189C372.234 89.5189 368.334 90.4189 365.134 90.9189C361.934 91.5189 359.234 91.9189 357.434 92.0189C355.634 92.2189 354.534 92.2189 354.534 92.1189C354.534 91.9189 358.534 91.1189 364.934 89.7189C368.134 89.0189 371.934 88.1189 376.134 87.0189C380.334 85.9189 384.934 84.5189 389.634 82.9189C394.334 81.3189 398.834 79.7189 402.834 78.1189C406.834 76.5189 410.434 75.0189 413.434 73.6189C419.334 71.0189 423.034 69.2189 423.134 69.4189Z" fill="#005797" stroke="#005797" stroke-width="0.5" stroke-miterlimit="10"/>
<path d="M390.733 102.119C390.633 102.219 390.233 101.619 389.433 100.719C388.633 99.9189 387.233 98.8189 385.233 98.3189C384.233 98.1189 383.133 98.0189 382.033 98.3189C380.933 98.6189 379.833 99.2189 378.833 100.119C377.933 101.019 377.133 102.219 376.933 103.519C376.633 104.919 376.833 106.419 377.433 107.819C378.533 110.619 381.033 112.619 383.433 113.919C385.833 115.219 388.333 116.019 390.333 116.419C394.533 117.219 397.133 116.819 397.233 117.119C397.233 117.319 394.633 118.119 390.133 117.519C387.933 117.219 385.333 116.519 382.733 115.219C381.433 114.519 380.033 113.719 378.833 112.619C377.633 111.519 376.533 110.119 375.933 108.419C375.233 106.719 375.033 104.919 375.433 103.219C375.833 101.519 376.733 100.019 377.933 99.0189C379.133 98.0189 380.533 97.3189 381.833 97.0189C383.233 96.7189 384.533 96.9189 385.633 97.2189C387.833 97.9189 389.233 99.2189 389.933 100.319C390.733 101.419 390.833 102.119 390.733 102.119Z" fill="#005797" stroke="#005797" stroke-width="0.5" stroke-miterlimit="10"/>
<path d="M396.933 117.719C396.733 117.619 398.133 115.319 400.333 111.719C401.433 109.919 402.733 107.719 403.833 105.219C404.933 102.719 406.033 99.8189 405.533 96.9189C405.233 95.5189 404.533 94.2189 403.533 93.3189C402.533 92.4189 401.233 92.1189 400.033 92.3189C398.833 92.5189 397.633 93.1189 396.633 93.7189C395.633 94.3189 394.733 95.1189 394.033 95.8189C392.633 97.3189 391.833 98.8189 391.333 99.8189C390.833 100.919 390.633 101.519 390.533 101.519C390.433 101.519 390.433 100.819 390.733 99.6189C391.033 98.4189 391.733 96.7189 393.133 95.0189C393.833 94.1189 394.733 93.3189 395.833 92.5189C396.933 91.8189 398.133 91.1189 399.733 90.8189C400.533 90.7189 401.333 90.7189 402.233 90.9189C403.033 91.1189 403.833 91.6189 404.533 92.1189C405.833 93.2189 406.833 94.8189 407.133 96.6189C407.433 98.4189 407.233 100.119 406.833 101.619C406.433 103.219 405.833 104.619 405.233 105.819C403.933 108.419 402.633 110.519 401.333 112.319C398.833 115.819 397.033 117.819 396.933 117.719Z" fill="#005797" stroke="#005797" stroke-width="0.5" stroke-miterlimit="10"/>
</svg>
