<svg width="1920" height="1485" viewBox="0 0 1920 1485" fill="none" xmlns="http://www.w3.org/2000/svg">
<g clip-path="url(#clip0_193_22744)">
<rect width="1920" height="1485" fill="#D9E7FE"/>
<rect x="282" y="132" width="2421.73" height="2132.53" rx="44.5717" fill="white"/>
<path d="M473.708 325.592C473.191 320.754 471.012 316.987 467.171 314.29C463.367 311.594 458.418 310.246 452.324 310.246C448.04 310.246 444.365 310.893 441.3 312.185C438.235 313.478 435.889 315.232 434.264 317.448C432.639 319.664 431.808 322.194 431.772 325.038C431.772 327.401 432.307 329.451 433.378 331.187C434.486 332.923 435.982 334.4 437.865 335.619C439.749 336.801 441.836 337.798 444.125 338.61C446.415 339.423 448.723 340.106 451.05 340.66L461.687 343.319C465.971 344.316 470.089 345.664 474.04 347.363C478.029 349.062 481.593 351.204 484.732 353.789C487.908 356.375 490.42 359.495 492.266 363.152C494.113 366.808 495.036 371.092 495.036 376.004C495.036 382.652 493.337 388.506 489.94 393.565C486.542 398.588 481.63 402.521 475.204 405.365C468.814 408.172 461.077 409.575 451.992 409.575C443.165 409.575 435.502 408.209 429.002 405.476C422.539 402.743 417.479 398.754 413.823 393.51C410.203 388.265 408.246 381.876 407.95 374.342H428.171C428.466 378.294 429.685 381.581 431.827 384.203C433.969 386.825 436.757 388.782 440.192 390.075C443.664 391.368 447.542 392.014 451.826 392.014C456.294 392.014 460.209 391.349 463.57 390.02C466.968 388.653 469.627 386.77 471.547 384.369C473.468 381.932 474.447 379.088 474.483 375.838C474.447 372.883 473.579 370.446 471.88 368.525C470.181 366.568 467.799 364.943 464.733 363.65C461.705 362.321 458.159 361.139 454.097 360.105L441.189 356.781C431.845 354.38 424.459 350.742 419.03 345.867C413.638 340.955 410.942 334.437 410.942 326.312C410.942 319.627 412.752 313.773 416.371 308.751C420.027 303.728 424.994 299.832 431.273 297.062C437.551 294.255 444.661 292.851 452.601 292.851C460.652 292.851 467.706 294.255 473.763 297.062C479.857 299.832 484.64 303.691 488.111 308.64C491.583 313.552 493.374 319.202 493.485 325.592H473.708ZM510.987 407.858V322.766H531.041V407.858H510.987ZM521.069 310.69C517.893 310.69 515.16 309.637 512.871 307.532C510.581 305.39 509.436 302.823 509.436 299.832C509.436 296.803 510.581 294.236 512.871 292.131C515.16 289.989 517.893 288.918 521.069 288.918C524.283 288.918 527.016 289.989 529.268 292.131C531.558 294.236 532.703 296.803 532.703 299.832C532.703 302.823 531.558 305.39 529.268 307.532C527.016 309.637 524.283 310.69 521.069 310.69ZM587.183 441.54C579.982 441.54 573.795 440.561 568.625 438.604C563.454 436.683 559.3 434.098 556.16 430.848C553.021 427.598 550.842 423.997 549.623 420.045L567.683 415.669C568.496 417.331 569.677 418.974 571.229 420.599C572.78 422.261 574.866 423.628 577.489 424.699C580.148 425.807 583.49 426.361 587.516 426.361C593.203 426.361 597.912 424.976 601.642 422.206C605.372 419.473 607.237 414.967 607.237 408.689V392.568H606.24C605.206 394.636 603.692 396.76 601.698 398.939C599.74 401.118 597.136 402.946 593.886 404.423C590.673 405.901 586.629 406.639 581.754 406.639C575.217 406.639 569.29 405.106 563.971 402.041C558.69 398.939 554.48 394.322 551.341 388.192C548.238 382.024 546.687 374.305 546.687 365.035C546.687 355.691 548.238 347.806 551.341 341.38C554.48 334.917 558.709 330.024 564.027 326.7C569.345 323.339 575.273 321.658 581.81 321.658C586.795 321.658 590.895 322.508 594.108 324.207C597.358 325.869 599.943 327.881 601.864 330.245C603.784 332.572 605.243 334.769 606.24 336.838H607.348V322.766H627.125V409.243C627.125 416.518 625.39 422.538 621.918 427.303C618.446 432.067 613.701 435.631 607.681 437.994C601.661 440.358 594.828 441.54 587.183 441.54ZM587.349 390.906C591.597 390.906 595.216 389.872 598.208 387.804C601.199 385.736 603.47 382.763 605.021 378.885C606.573 375.007 607.348 370.353 607.348 364.924C607.348 359.569 606.573 354.879 605.021 350.853C603.507 346.828 601.254 343.707 598.263 341.491C595.308 339.238 591.671 338.112 587.349 338.112C582.881 338.112 579.151 339.275 576.159 341.602C573.168 343.928 570.915 347.123 569.4 351.186C567.886 355.211 567.129 359.791 567.129 364.924C567.129 370.132 567.886 374.693 569.4 378.608C570.952 382.486 573.223 385.514 576.214 387.693C579.243 389.835 582.955 390.906 587.349 390.906ZM666.246 358V407.858H646.192V322.766H665.36V337.225H666.357C668.315 332.461 671.435 328.676 675.719 325.869C680.041 323.062 685.377 321.658 691.73 321.658C697.602 321.658 702.717 322.914 707.075 325.426C711.47 327.937 714.867 331.575 717.268 336.339C719.706 341.103 720.906 346.883 720.869 353.679V407.858H700.815V356.781C700.815 351.093 699.338 346.643 696.383 343.43C693.465 340.217 689.421 338.61 684.251 338.61C680.742 338.61 677.621 339.386 674.889 340.937C672.192 342.451 670.069 344.649 668.518 347.529C667.004 350.41 666.246 353.9 666.246 358ZM776.98 407.858V322.766H797.034V407.858H776.98ZM787.062 310.69C783.886 310.69 781.153 309.637 778.863 307.532C776.573 305.39 775.428 302.823 775.428 299.832C775.428 296.803 776.573 294.236 778.863 292.131C781.153 289.989 783.886 288.918 787.062 288.918C790.275 288.918 793.008 289.989 795.261 292.131C797.551 294.236 798.696 296.803 798.696 299.832C798.696 302.823 797.551 305.39 795.261 307.532C793.008 309.637 790.275 310.69 787.062 310.69ZM836.224 358V407.858H816.17V322.766H835.338V337.225H836.335C838.292 332.461 841.413 328.676 845.697 325.869C850.018 323.062 855.355 321.658 861.707 321.658C867.579 321.658 872.694 322.914 877.052 325.426C881.447 327.937 884.845 331.575 887.246 336.339C889.683 341.103 890.884 346.883 890.847 353.679V407.858H870.792V356.781C870.792 351.093 869.315 346.643 866.361 343.43C863.443 340.217 859.399 338.61 854.228 338.61C850.72 338.61 847.599 339.386 844.866 340.937C842.17 342.451 840.047 344.649 838.495 347.529C836.981 350.41 836.224 353.9 836.224 358Z" fill="#0B5CD5"/>
<path d="M419.431 611.001H406.093V567.78H420.022C424.215 567.78 427.802 568.646 430.785 570.376C433.768 572.093 436.054 574.562 437.644 577.784C439.234 580.992 440.028 584.832 440.028 589.307C440.028 593.809 439.227 597.685 437.623 600.935C436.019 604.171 433.683 606.661 430.616 608.406C427.549 610.136 423.821 611.001 419.431 611.001ZM411.327 606.359H419.093C422.667 606.359 425.628 605.669 427.978 604.29C430.328 602.912 432.079 600.949 433.233 598.402C434.387 595.856 434.964 592.824 434.964 589.307C434.964 585.817 434.394 582.813 433.254 580.295C432.114 577.763 430.412 575.821 428.147 574.47C425.882 573.106 423.061 572.423 419.684 572.423H411.327V606.359ZM461.301 611.677C458.375 611.677 455.807 610.98 453.598 609.587C451.404 608.195 449.687 606.246 448.449 603.742C447.225 601.237 446.613 598.311 446.613 594.962C446.613 591.586 447.225 588.638 448.449 586.12C449.687 583.601 451.404 581.646 453.598 580.253C455.807 578.86 458.375 578.164 461.301 578.164C464.228 578.164 466.788 578.86 468.983 580.253C471.192 581.646 472.909 583.601 474.133 586.12C475.371 588.638 475.99 591.586 475.99 594.962C475.99 598.311 475.371 601.237 474.133 603.742C472.909 606.246 471.192 608.195 468.983 609.587C466.788 610.98 464.228 611.677 461.301 611.677ZM461.301 607.203C463.524 607.203 465.353 606.633 466.788 605.493C468.223 604.354 469.286 602.855 469.975 600.998C470.665 599.141 471.009 597.129 471.009 594.962C471.009 592.796 470.665 590.777 469.975 588.906C469.286 587.034 468.223 585.522 466.788 584.368C465.353 583.214 463.524 582.638 461.301 582.638C459.078 582.638 457.249 583.214 455.814 584.368C454.379 585.522 453.317 587.034 452.628 588.906C451.938 590.777 451.593 592.796 451.593 594.962C451.593 597.129 451.938 599.141 452.628 600.998C453.317 602.855 454.379 604.354 455.814 605.493C457.249 606.633 459.078 607.203 461.301 607.203ZM488.573 591.501V611.001H483.593V578.586H488.404V583.651H488.826C489.586 582.005 490.74 580.682 492.287 579.683C493.835 578.67 495.833 578.164 498.281 578.164C500.476 578.164 502.396 578.614 504.042 579.514C505.688 580.401 506.969 581.751 507.883 583.566C508.798 585.367 509.255 587.646 509.255 590.404V611.001H504.274V590.742C504.274 588.195 503.613 586.211 502.291 584.79C500.968 583.355 499.153 582.638 496.846 582.638C495.256 582.638 493.835 582.982 492.583 583.672C491.345 584.361 490.367 585.367 489.649 586.69C488.932 588.012 488.573 589.616 488.573 591.501ZM522.746 567.78V571.579C522.746 572.733 522.535 573.964 522.113 575.272C521.705 576.567 521.1 577.826 520.298 579.05C519.51 580.26 518.553 581.315 517.428 582.216L514.726 580.021C515.613 578.754 516.379 577.439 517.027 576.074C517.688 574.695 518.018 573.225 518.018 571.664V567.78H522.746ZM544.293 578.586V582.806H527.494V578.586H544.293ZM532.39 570.819H537.371V601.716C537.371 603.123 537.575 604.178 537.983 604.881C538.405 605.571 538.94 606.035 539.587 606.274C540.248 606.499 540.944 606.612 541.676 606.612C542.225 606.612 542.675 606.584 543.027 606.527C543.378 606.457 543.66 606.401 543.871 606.359L544.884 610.833C544.546 610.959 544.075 611.086 543.47 611.213C542.865 611.353 542.098 611.424 541.17 611.424C539.763 611.424 538.384 611.121 537.033 610.516C535.697 609.911 534.585 608.99 533.699 607.751C532.826 606.513 532.39 604.952 532.39 603.066V570.819ZM573.48 591.501V611.001H568.499V567.78H573.48V583.651H573.902C574.662 581.976 575.801 580.647 577.321 579.662C578.854 578.663 580.894 578.164 583.441 578.164C585.65 578.164 587.584 578.607 589.245 579.493C590.905 580.365 592.192 581.709 593.107 583.524C594.035 585.325 594.5 587.618 594.5 590.404V611.001H589.519V590.742C589.519 588.167 588.851 586.176 587.514 584.769C586.192 583.348 584.356 582.638 582.006 582.638C580.374 582.638 578.911 582.982 577.616 583.672C576.336 584.361 575.323 585.367 574.577 586.69C573.846 588.012 573.48 589.616 573.48 591.501ZM613.15 611.761C611.096 611.761 609.232 611.374 607.558 610.6C605.883 609.813 604.554 608.68 603.569 607.203C602.584 605.711 602.092 603.911 602.092 601.8C602.092 599.943 602.458 598.438 603.189 597.284C603.921 596.116 604.899 595.202 606.123 594.54C607.347 593.879 608.697 593.387 610.175 593.063C611.666 592.725 613.164 592.458 614.67 592.261C616.639 592.008 618.236 591.818 619.46 591.691C620.698 591.551 621.599 591.318 622.162 590.995C622.738 590.671 623.027 590.108 623.027 589.307V589.138C623.027 587.055 622.457 585.437 621.317 584.284C620.192 583.13 618.483 582.553 616.189 582.553C613.811 582.553 611.947 583.074 610.597 584.115C609.246 585.156 608.296 586.268 607.748 587.449L603.02 585.761C603.864 583.791 604.99 582.258 606.397 581.16C607.818 580.049 609.366 579.275 611.04 578.839C612.728 578.389 614.388 578.164 616.02 578.164C617.062 578.164 618.257 578.29 619.608 578.543C620.973 578.783 622.288 579.282 623.555 580.042C624.835 580.802 625.897 581.948 626.741 583.482C627.585 585.015 628.007 587.069 628.007 589.644V611.001H623.027V606.612H622.774C622.436 607.315 621.873 608.068 621.085 608.87C620.297 609.672 619.249 610.354 617.941 610.917C616.632 611.48 615.036 611.761 613.15 611.761ZM613.91 607.287C615.88 607.287 617.54 606.9 618.891 606.126C620.255 605.353 621.282 604.354 621.972 603.13C622.675 601.906 623.027 600.618 623.027 599.268V594.709C622.816 594.962 622.352 595.195 621.634 595.406C620.931 595.603 620.115 595.778 619.186 595.933C618.271 596.074 617.378 596.2 616.506 596.313C615.648 596.412 614.951 596.496 614.416 596.566C613.122 596.735 611.912 597.009 610.787 597.389C609.675 597.755 608.775 598.311 608.085 599.057C607.41 599.788 607.072 600.787 607.072 602.053C607.072 603.784 607.712 605.092 608.993 605.979C610.287 606.851 611.926 607.287 613.91 607.287ZM662.444 578.586L650.457 611.001H645.392L633.405 578.586H638.807L647.756 604.417H648.093L657.041 578.586H662.444ZM681.448 611.677C678.325 611.677 675.631 610.987 673.365 609.609C671.114 608.216 669.377 606.274 668.153 603.784C666.943 601.28 666.338 598.367 666.338 595.047C666.338 591.726 666.943 588.8 668.153 586.268C669.377 583.721 671.079 581.737 673.26 580.316C675.455 578.881 678.015 578.164 680.942 578.164C682.63 578.164 684.297 578.445 685.943 579.008C687.589 579.571 689.088 580.485 690.439 581.751C691.789 583.003 692.865 584.664 693.667 586.732C694.469 588.8 694.87 591.347 694.87 594.371V596.482H669.883V592.177H689.805C689.805 590.348 689.44 588.716 688.708 587.281C687.99 585.845 686.963 584.713 685.627 583.883C684.304 583.053 682.743 582.638 680.942 582.638C678.958 582.638 677.241 583.13 675.792 584.115C674.357 585.086 673.253 586.352 672.479 587.914C671.705 589.475 671.318 591.15 671.318 592.936V595.807C671.318 598.255 671.74 600.33 672.584 602.032C673.443 603.721 674.632 605.008 676.151 605.894C677.671 606.767 679.436 607.203 681.448 607.203C682.757 607.203 683.938 607.02 684.994 606.654C686.063 606.274 686.984 605.711 687.758 604.966C688.532 604.206 689.13 603.263 689.552 602.138L694.364 603.488C693.857 605.12 693.006 606.556 691.81 607.794C690.614 609.018 689.137 609.974 687.378 610.664C685.62 611.339 683.643 611.677 681.448 611.677ZM728.7 611.761C726.646 611.761 724.782 611.374 723.108 610.6C721.433 609.813 720.104 608.68 719.119 607.203C718.134 605.711 717.642 603.911 717.642 601.8C717.642 599.943 718.007 598.438 718.739 597.284C719.471 596.116 720.448 595.202 721.672 594.54C722.897 593.879 724.247 593.387 725.724 593.063C727.216 592.725 728.714 592.458 730.22 592.261C732.189 592.008 733.786 591.818 735.01 591.691C736.248 591.551 737.149 591.318 737.712 590.995C738.288 590.671 738.577 590.108 738.577 589.307V589.138C738.577 587.055 738.007 585.437 736.867 584.284C735.742 583.13 734.032 582.553 731.739 582.553C729.361 582.553 727.497 583.074 726.147 584.115C724.796 585.156 723.846 586.268 723.297 587.449L718.57 585.761C719.414 583.791 720.54 582.258 721.947 581.16C723.368 580.049 724.915 579.275 726.59 578.839C728.278 578.389 729.938 578.164 731.57 578.164C732.611 578.164 733.807 578.29 735.158 578.543C736.523 578.783 737.838 579.282 739.104 580.042C740.385 580.802 741.447 581.948 742.291 583.482C743.135 585.015 743.557 587.069 743.557 589.644V611.001H738.577V606.612H738.324C737.986 607.315 737.423 608.068 736.635 608.87C735.847 609.672 734.799 610.354 733.491 610.917C732.182 611.48 730.585 611.761 728.7 611.761ZM729.46 607.287C731.43 607.287 733.09 606.9 734.44 606.126C735.805 605.353 736.832 604.354 737.522 603.13C738.225 601.906 738.577 600.618 738.577 599.268V594.709C738.366 594.962 737.901 595.195 737.184 595.406C736.48 595.603 735.664 595.778 734.736 595.933C733.821 596.074 732.928 596.2 732.056 596.313C731.197 596.412 730.501 596.496 729.966 596.566C728.672 596.735 727.462 597.009 726.336 597.389C725.225 597.755 724.325 598.311 723.635 599.057C722.96 599.788 722.622 600.787 722.622 602.053C722.622 603.784 723.262 605.092 724.543 605.979C725.837 606.851 727.476 607.287 729.46 607.287ZM757.629 591.501V611.001H752.648V578.586H757.46V583.651H757.882C758.641 582.005 759.795 580.682 761.343 579.683C762.89 578.67 764.888 578.164 767.336 578.164C769.531 578.164 771.452 578.614 773.098 579.514C774.744 580.401 776.024 581.751 776.939 583.566C777.853 585.367 778.31 587.646 778.31 590.404V611.001H773.33V590.742C773.33 588.195 772.669 586.211 771.346 584.79C770.024 583.355 768.209 582.638 765.901 582.638C764.311 582.638 762.89 582.982 761.638 583.672C760.4 584.361 759.422 585.367 758.705 586.69C757.987 588.012 757.629 589.616 757.629 591.501ZM813.665 611.761C811.611 611.761 809.747 611.374 808.072 610.6C806.398 609.813 805.069 608.68 804.084 607.203C803.099 605.711 802.606 603.911 802.606 601.8C802.606 599.943 802.972 598.438 803.704 597.284C804.436 596.116 805.413 595.202 806.637 594.54C807.861 593.879 809.212 593.387 810.689 593.063C812.181 592.725 813.679 592.458 815.184 592.261C817.154 592.008 818.751 591.818 819.975 591.691C821.213 591.551 822.114 591.318 822.676 590.995C823.253 590.671 823.542 590.108 823.542 589.307V589.138C823.542 587.055 822.972 585.437 821.832 584.284C820.707 583.13 818.997 582.553 816.704 582.553C814.326 582.553 812.462 583.074 811.111 584.115C809.761 585.156 808.811 586.268 808.262 587.449L803.535 585.761C804.379 583.791 805.505 582.258 806.912 581.16C808.333 580.049 809.88 579.275 811.555 578.839C813.243 578.389 814.903 578.164 816.535 578.164C817.576 578.164 818.772 578.29 820.123 578.543C821.488 578.783 822.803 579.282 824.069 580.042C825.35 580.802 826.412 581.948 827.256 583.482C828.1 585.015 828.522 587.069 828.522 589.644V611.001H823.542V606.612H823.288C822.951 607.315 822.388 608.068 821.6 608.87C820.812 609.672 819.764 610.354 818.456 610.917C817.147 611.48 815.55 611.761 813.665 611.761ZM814.425 607.287C816.394 607.287 818.055 606.9 819.405 606.126C820.77 605.353 821.797 604.354 822.486 603.13C823.19 601.906 823.542 600.618 823.542 599.268V594.709C823.331 594.962 822.866 595.195 822.149 595.406C821.445 595.603 820.629 595.778 819.701 595.933C818.786 596.074 817.893 596.2 817.021 596.313C816.162 596.412 815.466 596.496 814.931 596.566C813.637 596.735 812.427 597.009 811.301 597.389C810.19 597.755 809.289 598.311 808.6 599.057C807.925 599.788 807.587 600.787 807.587 602.053C807.587 603.784 808.227 605.092 809.508 605.979C810.802 606.851 812.441 607.287 814.425 607.287ZM850.782 611.677C847.743 611.677 845.126 610.959 842.931 609.524C840.736 608.089 839.048 606.112 837.866 603.594C836.684 601.076 836.093 598.198 836.093 594.962C836.093 591.67 836.698 588.765 837.908 586.246C839.132 583.714 840.835 581.737 843.015 580.316C845.21 578.881 847.771 578.164 850.697 578.164C852.977 578.164 855.031 578.586 856.86 579.43C858.689 580.274 860.187 581.456 861.355 582.975C862.523 584.495 863.247 586.268 863.529 588.294H858.548C858.168 586.816 857.324 585.508 856.016 584.368C854.721 583.214 852.977 582.638 850.782 582.638C848.84 582.638 847.138 583.144 845.675 584.157C844.225 585.156 843.093 586.57 842.277 588.399C841.475 590.214 841.074 592.345 841.074 594.794C841.074 597.298 841.468 599.479 842.256 601.336C843.058 603.193 844.183 604.635 845.632 605.662C847.096 606.689 848.812 607.203 850.782 607.203C852.076 607.203 853.251 606.978 854.306 606.527C855.361 606.077 856.255 605.43 856.986 604.586C857.718 603.742 858.239 602.729 858.548 601.547H863.529C863.247 603.46 862.551 605.184 861.439 606.717C860.342 608.237 858.886 609.447 857.071 610.347C855.27 611.234 853.174 611.677 850.782 611.677ZM883.978 611.677C880.939 611.677 878.323 610.959 876.128 609.524C873.933 608.089 872.245 606.112 871.063 603.594C869.881 601.076 869.29 598.198 869.29 594.962C869.29 591.67 869.895 588.765 871.105 586.246C872.329 583.714 874.031 581.737 876.212 580.316C878.407 578.881 880.968 578.164 883.894 578.164C886.173 578.164 888.227 578.586 890.056 579.43C891.885 580.274 893.384 581.456 894.552 582.975C895.719 584.495 896.444 586.268 896.725 588.294H891.745C891.365 586.816 890.521 585.508 889.212 584.368C887.918 583.214 886.173 582.638 883.978 582.638C882.037 582.638 880.334 583.144 878.871 584.157C877.422 585.156 876.289 586.57 875.473 588.399C874.672 590.214 874.271 592.345 874.271 594.794C874.271 597.298 874.664 599.479 875.452 601.336C876.254 603.193 877.38 604.635 878.829 605.662C880.292 606.689 882.009 607.203 883.978 607.203C885.273 607.203 886.448 606.978 887.503 606.527C888.558 606.077 889.451 605.43 890.183 604.586C890.915 603.742 891.435 602.729 891.745 601.547H896.725C896.444 603.46 895.747 605.184 894.636 606.717C893.539 608.237 892.082 609.447 890.267 610.347C888.467 611.234 886.37 611.677 883.978 611.677ZM917.175 611.677C914.249 611.677 911.681 610.98 909.472 609.587C907.277 608.195 905.561 606.246 904.323 603.742C903.099 601.237 902.487 598.311 902.487 594.962C902.487 591.586 903.099 588.638 904.323 586.12C905.561 583.601 907.277 581.646 909.472 580.253C911.681 578.86 914.249 578.164 917.175 578.164C920.101 578.164 922.662 578.86 924.857 580.253C927.066 581.646 928.782 583.601 930.006 586.12C931.244 588.638 931.863 591.586 931.863 594.962C931.863 598.311 931.244 601.237 930.006 603.742C928.782 606.246 927.066 608.195 924.857 609.587C922.662 610.98 920.101 611.677 917.175 611.677ZM917.175 607.203C919.398 607.203 921.227 606.633 922.662 605.493C924.097 604.354 925.159 602.855 925.849 600.998C926.538 599.141 926.883 597.129 926.883 594.962C926.883 592.796 926.538 590.777 925.849 588.906C925.159 587.034 924.097 585.522 922.662 584.368C921.227 583.214 919.398 582.638 917.175 582.638C914.952 582.638 913.123 583.214 911.688 584.368C910.253 585.522 909.191 587.034 908.501 588.906C907.812 590.777 907.467 592.796 907.467 594.962C907.467 597.129 907.812 599.141 908.501 600.998C909.191 602.855 910.253 604.354 911.688 605.493C913.123 606.633 914.952 607.203 917.175 607.203ZM959.895 597.748V578.586H964.875V611.001H959.895V605.514H959.557C958.797 607.161 957.616 608.56 956.012 609.714C954.408 610.854 952.382 611.424 949.934 611.424C947.908 611.424 946.107 610.98 944.531 610.094C942.955 609.194 941.717 607.843 940.817 606.042C939.916 604.227 939.466 601.941 939.466 599.183V578.586H944.447V598.846C944.447 601.209 945.108 603.094 946.431 604.501C947.767 605.908 949.47 606.612 951.538 606.612C952.776 606.612 954.035 606.295 955.315 605.662C956.61 605.029 957.693 604.058 958.565 602.75C959.452 601.441 959.895 599.774 959.895 597.748ZM988.095 578.586V582.806H971.296V578.586H988.095ZM976.193 570.819H981.173V601.716C981.173 603.123 981.377 604.178 981.785 604.881C982.207 605.571 982.742 606.035 983.389 606.274C984.05 606.499 984.747 606.612 985.478 606.612C986.027 606.612 986.477 606.584 986.829 606.527C987.181 606.457 987.462 606.401 987.673 606.359L988.686 610.833C988.348 610.959 987.877 611.086 987.272 611.213C986.667 611.353 985.9 611.424 984.972 611.424C983.565 611.424 982.186 611.121 980.835 610.516C979.499 609.911 978.387 608.99 977.501 607.751C976.629 606.513 976.193 604.952 976.193 603.066V570.819ZM1015.51 623.157C1014.67 623.157 1013.91 623.087 1013.25 622.946C1012.59 622.82 1012.13 622.693 1011.88 622.566L1013.15 618.177C1014.36 618.486 1015.42 618.599 1016.35 618.515C1017.28 618.43 1018.11 618.015 1018.82 617.269C1019.55 616.538 1020.22 615.349 1020.83 613.703L1021.76 611.17L1009.77 578.586H1015.17L1024.12 604.417H1024.46L1033.41 578.586H1038.81L1025.05 615.729C1024.43 617.403 1023.66 618.789 1022.75 619.886C1021.83 620.998 1020.77 621.821 1019.56 622.355C1018.37 622.89 1017.01 623.157 1015.51 623.157ZM1057.81 611.677C1054.69 611.677 1051.99 610.987 1049.73 609.609C1047.48 608.216 1045.74 606.274 1044.52 603.784C1043.31 601.28 1042.7 598.367 1042.7 595.047C1042.7 591.726 1043.31 588.8 1044.52 586.268C1045.74 583.721 1047.44 581.737 1049.62 580.316C1051.82 578.881 1054.38 578.164 1057.31 578.164C1058.99 578.164 1060.66 578.445 1062.31 579.008C1063.95 579.571 1065.45 580.485 1066.8 581.751C1068.15 583.003 1069.23 584.664 1070.03 586.732C1070.83 588.8 1071.23 591.347 1071.23 594.371V596.482H1046.25V592.177H1066.17C1066.17 590.348 1065.8 588.716 1065.07 587.281C1064.35 585.845 1063.33 584.713 1061.99 583.883C1060.67 583.053 1059.11 582.638 1057.31 582.638C1055.32 582.638 1053.61 583.13 1052.16 584.115C1050.72 585.086 1049.62 586.352 1048.84 587.914C1048.07 589.475 1047.68 591.15 1047.68 592.936V595.807C1047.68 598.255 1048.1 600.33 1048.95 602.032C1049.81 603.721 1051 605.008 1052.52 605.894C1054.03 606.767 1055.8 607.203 1057.81 607.203C1059.12 607.203 1060.3 607.02 1061.36 606.654C1062.43 606.274 1063.35 605.711 1064.12 604.966C1064.9 604.206 1065.49 603.263 1065.92 602.138L1070.73 603.488C1070.22 605.12 1069.37 606.556 1068.17 607.794C1066.98 609.018 1065.5 609.974 1063.74 610.664C1061.98 611.339 1060.01 611.677 1057.81 611.677ZM1092.91 578.586V582.806H1076.11V578.586H1092.91ZM1081.01 570.819H1085.99V601.716C1085.99 603.123 1086.19 604.178 1086.6 604.881C1087.02 605.571 1087.56 606.035 1088.2 606.274C1088.86 606.499 1089.56 606.612 1090.29 606.612C1090.84 606.612 1091.29 606.584 1091.64 606.527C1091.99 606.457 1092.28 606.401 1092.49 606.359L1093.5 610.833C1093.16 610.959 1092.69 611.086 1092.09 611.213C1091.48 611.353 1090.71 611.424 1089.79 611.424C1088.38 611.424 1087 611.121 1085.65 610.516C1084.31 609.911 1083.2 608.99 1082.31 607.751C1081.44 606.513 1081.01 604.952 1081.01 603.066V570.819ZM1106.9 598.846V598.592C1106.93 595.905 1107.21 593.766 1107.74 592.177C1108.28 590.587 1109.04 589.299 1110.02 588.315C1111.01 587.33 1112.19 586.422 1113.57 585.592C1114.4 585.086 1115.15 584.488 1115.81 583.798C1116.47 583.095 1116.99 582.286 1117.37 581.371C1117.76 580.457 1117.96 579.444 1117.96 578.332C1117.96 576.954 1117.64 575.758 1116.99 574.745C1116.34 573.732 1115.48 572.951 1114.39 572.402C1113.31 571.853 1112.11 571.579 1110.78 571.579C1109.63 571.579 1108.52 571.818 1107.45 572.297C1106.38 572.775 1105.49 573.528 1104.77 574.555C1104.05 575.582 1103.64 576.925 1103.52 578.586H1098.21C1098.32 576.194 1098.94 574.147 1100.06 572.444C1101.2 570.742 1102.7 569.441 1104.56 568.54C1106.43 567.64 1108.5 567.189 1110.78 567.189C1113.26 567.189 1115.41 567.682 1117.24 568.667C1119.08 569.652 1120.51 571.002 1121.5 572.719C1122.52 574.435 1123.02 576.391 1123.02 578.586C1123.02 580.133 1122.78 581.533 1122.31 582.785C1121.84 584.038 1121.17 585.156 1120.28 586.141C1119.41 587.126 1118.35 587.998 1117.11 588.758C1115.88 589.532 1114.88 590.348 1114.14 591.206C1113.39 592.05 1112.85 593.056 1112.51 594.224C1112.18 595.392 1111.99 596.848 1111.97 598.592V598.846H1106.9ZM1109.6 611.339C1108.56 611.339 1107.67 610.966 1106.92 610.221C1106.18 609.475 1105.8 608.582 1105.8 607.54C1105.8 606.499 1106.18 605.606 1106.92 604.86C1107.67 604.115 1108.56 603.742 1109.6 603.742C1110.64 603.742 1111.54 604.115 1112.28 604.86C1113.03 605.606 1113.4 606.499 1113.4 607.54C1113.4 608.23 1113.22 608.863 1112.87 609.44C1112.54 610.017 1112.08 610.481 1111.5 610.833C1110.94 611.17 1110.31 611.339 1109.6 611.339ZM1170.43 579.662C1170.23 577.819 1169.4 576.384 1167.94 575.357C1166.49 574.33 1164.6 573.816 1162.28 573.816C1160.65 573.816 1159.25 574.062 1158.08 574.555C1156.92 575.047 1156.02 575.716 1155.4 576.56C1154.78 577.404 1154.47 578.368 1154.45 579.451C1154.45 580.351 1154.66 581.132 1155.07 581.793C1155.49 582.455 1156.06 583.018 1156.77 583.482C1157.49 583.932 1158.29 584.312 1159.16 584.621C1160.03 584.931 1160.91 585.191 1161.8 585.402L1165.85 586.415C1167.48 586.795 1169.05 587.309 1170.56 587.956C1172.07 588.603 1173.43 589.419 1174.63 590.404C1175.84 591.389 1176.8 592.578 1177.5 593.971C1178.2 595.363 1178.55 596.995 1178.55 598.867C1178.55 601.399 1177.91 603.629 1176.61 605.557C1175.32 607.47 1173.45 608.968 1171 610.052C1168.56 611.121 1165.62 611.656 1162.16 611.656C1158.79 611.656 1155.87 611.135 1153.4 610.094C1150.94 609.053 1149.01 607.533 1147.62 605.536C1146.24 603.538 1145.49 601.104 1145.38 598.234H1153.08C1153.19 599.739 1153.66 600.991 1154.47 601.99C1155.29 602.989 1156.35 603.735 1157.66 604.227C1158.98 604.719 1160.46 604.966 1162.09 604.966C1163.8 604.966 1165.29 604.712 1166.57 604.206C1167.86 603.685 1168.87 602.968 1169.61 602.053C1170.34 601.125 1170.71 600.041 1170.72 598.803C1170.71 597.678 1170.38 596.749 1169.73 596.018C1169.09 595.272 1168.18 594.653 1167.01 594.16C1165.86 593.654 1164.51 593.204 1162.96 592.81L1158.04 591.544C1154.48 590.629 1151.67 589.243 1149.6 587.386C1147.55 585.515 1146.52 583.032 1146.52 579.936C1146.52 577.39 1147.21 575.16 1148.59 573.246C1149.98 571.333 1151.87 569.849 1154.26 568.793C1156.65 567.724 1159.36 567.189 1162.39 567.189C1165.46 567.189 1168.14 567.724 1170.45 568.793C1172.77 569.849 1174.59 571.319 1175.92 573.204C1177.24 575.075 1177.92 577.228 1177.96 579.662H1170.43ZM1185.2 611.001V578.586H1192.84V611.001H1185.2ZM1189.04 573.985C1187.83 573.985 1186.79 573.584 1185.91 572.782C1185.04 571.966 1184.61 570.988 1184.61 569.849C1184.61 568.695 1185.04 567.717 1185.91 566.915C1186.79 566.099 1187.83 565.691 1189.04 565.691C1190.26 565.691 1191.3 566.099 1192.16 566.915C1193.03 567.717 1193.47 568.695 1193.47 569.849C1193.47 570.988 1193.03 571.966 1192.16 572.782C1191.3 573.584 1190.26 573.985 1189.04 573.985ZM1214.79 623.833C1212.05 623.833 1209.69 623.46 1207.72 622.714C1205.75 621.983 1204.17 620.998 1202.97 619.76C1201.78 618.522 1200.95 617.15 1200.48 615.644L1207.36 613.977C1207.67 614.61 1208.12 615.236 1208.71 615.855C1209.3 616.489 1210.1 617.009 1211.1 617.417C1212.11 617.839 1213.38 618.05 1214.92 618.05C1217.08 618.05 1218.88 617.523 1220.3 616.467C1221.72 615.426 1222.43 613.71 1222.43 611.318V605.177H1222.05C1221.66 605.965 1221.08 606.774 1220.32 607.604C1219.57 608.434 1218.58 609.13 1217.34 609.693C1216.12 610.256 1214.58 610.537 1212.72 610.537C1210.23 610.537 1207.97 609.953 1205.95 608.786C1203.94 607.604 1202.33 605.845 1201.14 603.51C1199.95 601.16 1199.36 598.219 1199.36 594.688C1199.36 591.128 1199.95 588.125 1201.14 585.677C1202.33 583.214 1203.94 581.35 1205.97 580.084C1207.99 578.804 1210.25 578.164 1212.74 578.164C1214.64 578.164 1216.2 578.487 1217.43 579.134C1218.67 579.767 1219.65 580.534 1220.38 581.435C1221.11 582.321 1221.67 583.158 1222.05 583.946H1222.47V578.586H1230.01V611.529C1230.01 614.301 1229.34 616.594 1228.02 618.409C1226.7 620.224 1224.89 621.582 1222.6 622.482C1220.3 623.383 1217.7 623.833 1214.79 623.833ZM1214.85 604.544C1216.47 604.544 1217.85 604.15 1218.99 603.362C1220.13 602.574 1220.99 601.441 1221.59 599.964C1222.18 598.487 1222.47 596.714 1222.47 594.646C1222.47 592.606 1222.18 590.819 1221.59 589.285C1221.01 587.752 1220.15 586.563 1219.01 585.719C1217.88 584.861 1216.5 584.431 1214.85 584.431C1213.15 584.431 1211.73 584.875 1210.59 585.761C1209.45 586.647 1208.59 587.864 1208.02 589.412C1207.44 590.946 1207.15 592.69 1207.15 594.646C1207.15 596.63 1207.44 598.367 1208.02 599.859C1208.61 601.336 1209.47 602.49 1210.61 603.32C1211.76 604.136 1213.18 604.544 1214.85 604.544ZM1245.47 592.008V611.001H1237.84V578.586H1245.14V584.094H1245.52C1246.26 582.279 1247.45 580.837 1249.08 579.767C1250.73 578.698 1252.76 578.164 1255.18 578.164C1257.42 578.164 1259.37 578.642 1261.03 579.599C1262.7 580.555 1264 581.941 1264.91 583.756C1265.84 585.571 1266.3 587.773 1266.28 590.362V611.001H1258.64V591.544C1258.64 589.377 1258.08 587.681 1256.96 586.457C1255.84 585.233 1254.3 584.621 1252.33 584.621C1251 584.621 1249.81 584.917 1248.77 585.508C1247.74 586.085 1246.93 586.922 1246.34 588.019C1245.76 589.117 1245.47 590.446 1245.47 592.008ZM1309.45 597.368V578.586H1317.09V611.001H1309.68V605.24H1309.35C1308.61 607.055 1307.41 608.539 1305.74 609.693C1304.08 610.847 1302.03 611.424 1299.6 611.424C1297.47 611.424 1295.59 610.952 1293.96 610.01C1292.34 609.053 1291.08 607.667 1290.16 605.852C1289.25 604.023 1288.79 601.814 1288.79 599.225V578.586H1296.43V598.044C1296.43 600.098 1296.99 601.73 1298.12 602.94C1299.24 604.15 1300.72 604.755 1302.55 604.755C1303.68 604.755 1304.77 604.48 1305.82 603.932C1306.88 603.383 1307.74 602.567 1308.42 601.484C1309.11 600.386 1309.45 599.014 1309.45 597.368ZM1324.95 623.157V578.586H1332.46V583.946H1332.9C1333.3 583.158 1333.85 582.321 1334.57 581.435C1335.29 580.534 1336.26 579.767 1337.48 579.134C1338.71 578.487 1340.27 578.164 1342.17 578.164C1344.67 578.164 1346.93 578.804 1348.94 580.084C1350.97 581.35 1352.57 583.229 1353.75 585.719C1354.95 588.195 1355.55 591.234 1355.55 594.836C1355.55 598.395 1354.96 601.42 1353.8 603.911C1352.63 606.401 1351.04 608.3 1349.03 609.609C1347.02 610.917 1344.74 611.571 1342.19 611.571C1340.33 611.571 1338.79 611.262 1337.57 610.643C1336.34 610.024 1335.36 609.278 1334.61 608.406C1333.88 607.519 1333.31 606.682 1332.9 605.894H1332.59V623.157H1324.95ZM1332.44 594.794C1332.44 596.89 1332.73 598.726 1333.33 600.302C1333.93 601.877 1334.8 603.109 1335.92 603.995C1337.06 604.867 1338.44 605.303 1340.06 605.303C1341.75 605.303 1343.16 604.853 1344.3 603.953C1345.44 603.038 1346.3 601.793 1346.87 600.217C1347.47 598.627 1347.76 596.82 1347.76 594.794C1347.76 592.782 1347.47 590.995 1346.9 589.433C1346.32 587.871 1345.46 586.647 1344.32 585.761C1343.18 584.875 1341.76 584.431 1340.06 584.431C1338.43 584.431 1337.04 584.861 1335.9 585.719C1334.76 586.577 1333.9 587.78 1333.3 589.328C1332.73 590.875 1332.44 592.697 1332.44 594.794Z" fill="#0B5CD5"/>
<path d="M442.566 790.206H449.063V825.73C449.063 829.398 448.199 832.673 446.47 835.555C444.758 838.419 442.339 840.681 439.213 842.34C436.087 843.982 432.419 844.802 428.21 844.802C424.001 844.802 420.333 843.982 417.207 842.34C414.081 840.681 411.653 838.419 409.924 835.555C408.212 832.673 407.356 829.398 407.356 825.73V790.206H413.853V825.207C413.853 827.826 414.43 830.158 415.583 832.201C416.735 834.227 418.377 835.825 420.508 836.996C422.656 838.148 425.223 838.725 428.21 838.725C431.196 838.725 433.764 838.148 435.912 836.996C438.06 835.825 439.702 834.227 440.837 832.201C441.99 830.158 442.566 827.826 442.566 825.207V790.206ZM489.703 812.632L484.149 814.203C483.8 813.278 483.284 812.378 482.603 811.505C481.939 810.614 481.031 809.881 479.879 809.304C478.726 808.728 477.25 808.44 475.451 808.44C472.989 808.44 470.936 809.008 469.295 810.143C467.67 811.261 466.858 812.684 466.858 814.413C466.858 815.95 467.417 817.164 468.535 818.055C469.653 818.945 471.399 819.688 473.774 820.281L479.748 821.748C483.345 822.622 486.026 823.958 487.79 825.757C489.554 827.538 490.436 829.835 490.436 832.647C490.436 834.952 489.773 837.013 488.445 838.829C487.135 840.646 485.302 842.078 482.944 843.126C480.586 844.174 477.844 844.698 474.718 844.698C470.613 844.698 467.216 843.807 464.527 842.026C461.837 840.244 460.134 837.642 459.418 834.219L465.286 832.751C465.845 834.917 466.902 836.541 468.456 837.624C470.028 838.707 472.08 839.249 474.613 839.249C477.495 839.249 479.783 838.637 481.477 837.415C483.188 836.175 484.044 834.69 484.044 832.961C484.044 831.564 483.555 830.394 482.577 829.451C481.599 828.49 480.097 827.774 478.071 827.302L471.364 825.73C467.679 824.857 464.972 823.504 463.243 821.67C461.531 819.819 460.676 817.504 460.676 814.727C460.676 812.457 461.313 810.448 462.588 808.702C463.88 806.955 465.636 805.584 467.854 804.589C470.089 803.593 472.622 803.096 475.451 803.096C479.433 803.096 482.559 803.969 484.83 805.715C487.118 807.462 488.742 809.767 489.703 812.632ZM516.614 844.698C512.737 844.698 509.393 843.842 506.581 842.13C503.786 840.401 501.629 837.991 500.11 834.9C498.608 831.791 497.857 828.176 497.857 824.054C497.857 819.932 498.608 816.299 500.11 813.156C501.629 809.994 503.743 807.532 506.45 805.768C509.174 803.986 512.353 803.096 515.986 803.096C518.082 803.096 520.151 803.445 522.195 804.143C524.238 804.842 526.098 805.977 527.775 807.549C529.451 809.104 530.787 811.164 531.783 813.732C532.779 816.299 533.276 819.46 533.276 823.215V825.835H502.258V820.491H526.989C526.989 818.22 526.535 816.194 525.627 814.413C524.736 812.632 523.461 811.226 521.802 810.195C520.16 809.165 518.221 808.649 515.986 808.649C513.523 808.649 511.392 809.261 509.593 810.483C507.812 811.688 506.441 813.26 505.48 815.199C504.52 817.138 504.04 819.216 504.04 821.434V824.997C504.04 828.036 504.563 830.612 505.611 832.725C506.677 834.821 508.153 836.419 510.039 837.52C511.925 838.602 514.117 839.144 516.614 839.144C518.239 839.144 519.706 838.917 521.016 838.463C522.343 837.991 523.487 837.292 524.448 836.367C525.408 835.424 526.15 834.254 526.674 832.856L532.648 834.533C532.019 836.559 530.962 838.34 529.478 839.877C527.993 841.397 526.159 842.584 523.976 843.44C521.793 844.279 519.339 844.698 516.614 844.698ZM542.681 843.859V803.62H548.654V809.697H549.074C549.807 807.706 551.134 806.091 553.056 804.851C554.977 803.611 557.142 802.991 559.553 802.991C560.007 802.991 560.574 803 561.256 803.017C561.937 803.034 562.452 803.061 562.801 803.096V809.383C562.592 809.331 562.111 809.252 561.36 809.147C560.627 809.025 559.85 808.964 559.029 808.964C557.073 808.964 555.326 809.374 553.789 810.195C552.27 810.999 551.065 812.116 550.174 813.548C549.301 814.963 548.864 816.579 548.864 818.395V843.859H542.681ZM576.313 819.653V843.859H570.13V803.62H576.103V809.907H576.627C577.57 807.864 579.002 806.222 580.924 804.982C582.845 803.724 585.325 803.096 588.364 803.096C591.088 803.096 593.472 803.654 595.516 804.772C597.559 805.873 599.149 807.549 600.284 809.802C601.419 812.038 601.987 814.867 601.987 818.29V843.859H595.804V818.709C595.804 815.548 594.983 813.086 593.341 811.322C591.7 809.54 589.447 808.649 586.582 808.649C584.609 808.649 582.845 809.077 581.29 809.933C579.753 810.789 578.54 812.038 577.649 813.679C576.758 815.321 576.313 817.312 576.313 819.653ZM625.126 844.802C622.576 844.802 620.262 844.322 618.183 843.362C616.105 842.384 614.455 840.978 613.232 839.144C612.009 837.292 611.398 835.057 611.398 832.437C611.398 830.132 611.852 828.263 612.76 826.831C613.669 825.381 614.882 824.246 616.402 823.425C617.921 822.604 619.598 821.993 621.432 821.591C623.283 821.172 625.143 820.84 627.012 820.596C629.457 820.281 631.44 820.046 632.959 819.888C634.496 819.714 635.614 819.426 636.312 819.024C637.028 818.622 637.386 817.924 637.386 816.928V816.718C637.386 814.134 636.679 812.125 635.264 810.693C633.867 809.261 631.745 808.545 628.898 808.545C625.947 808.545 623.633 809.191 621.956 810.483C620.279 811.776 619.1 813.156 618.419 814.623L612.551 812.527C613.599 810.082 614.996 808.178 616.743 806.816C618.507 805.436 620.428 804.475 622.506 803.934C624.602 803.375 626.663 803.096 628.689 803.096C629.981 803.096 631.466 803.253 633.142 803.567C634.837 803.864 636.47 804.484 638.041 805.427C639.631 806.37 640.949 807.794 641.997 809.697C643.045 811.601 643.569 814.151 643.569 817.347V843.859H637.386V838.41H637.072C636.653 839.283 635.954 840.218 634.976 841.213C633.998 842.209 632.697 843.056 631.073 843.755C629.448 844.453 627.466 844.802 625.126 844.802ZM626.069 839.249C628.514 839.249 630.575 838.768 632.252 837.808C633.946 836.847 635.221 835.607 636.077 834.088C636.95 832.568 637.386 830.97 637.386 829.293V823.635C637.124 823.949 636.548 824.237 635.657 824.499C634.784 824.744 633.771 824.962 632.618 825.154C631.483 825.329 630.374 825.486 629.291 825.626C628.226 825.748 627.361 825.853 626.698 825.94C625.091 826.15 623.589 826.49 622.192 826.962C620.812 827.416 619.694 828.106 618.838 829.031C618 829.94 617.581 831.18 617.581 832.751C617.581 834.9 618.376 836.524 619.965 837.624C621.572 838.707 623.606 839.249 626.069 839.249ZM654.854 843.859V803.62H660.827V809.907H661.351C662.189 807.759 663.543 806.091 665.412 804.903C667.28 803.698 669.525 803.096 672.144 803.096C674.799 803.096 677.008 803.698 678.772 804.903C680.554 806.091 681.942 807.759 682.938 809.907H683.357C684.388 807.829 685.933 806.178 687.994 804.956C690.055 803.716 692.526 803.096 695.408 803.096C699.006 803.096 701.949 804.222 704.237 806.475C706.525 808.711 707.669 812.195 707.669 816.928V843.859H701.486V816.928C701.486 813.959 700.674 811.837 699.05 810.562C697.425 809.287 695.513 808.649 693.312 808.649C690.483 808.649 688.291 809.505 686.737 811.217C685.182 812.911 684.405 815.059 684.405 817.662V843.859H678.117V816.299C678.117 814.011 677.375 812.169 675.891 810.772C674.406 809.357 672.494 808.649 670.153 808.649C668.547 808.649 667.045 809.077 665.647 809.933C664.268 810.789 663.15 811.977 662.294 813.496C661.456 814.998 661.037 816.736 661.037 818.709V843.859H654.854ZM735.844 844.698C731.967 844.698 728.623 843.842 725.811 842.13C723.016 840.401 720.859 837.991 719.34 834.9C717.838 831.791 717.087 828.176 717.087 824.054C717.087 819.932 717.838 816.299 719.34 813.156C720.859 809.994 722.973 807.532 725.68 805.768C728.404 803.986 731.583 803.096 735.216 803.096C737.311 803.096 739.381 803.445 741.425 804.143C743.468 804.842 745.328 805.977 747.005 807.549C748.681 809.104 750.017 811.164 751.013 813.732C752.008 816.299 752.506 819.46 752.506 823.215V825.835H721.488V820.491H746.219C746.219 818.22 745.765 816.194 744.856 814.413C743.966 812.632 742.691 811.226 741.032 810.195C739.39 809.165 737.451 808.649 735.216 808.649C732.753 808.649 730.622 809.261 728.823 810.483C727.042 811.688 725.671 813.26 724.71 815.199C723.75 817.138 723.269 819.216 723.269 821.434V824.997C723.269 828.036 723.793 830.612 724.841 832.725C725.907 834.821 727.383 836.419 729.269 837.52C731.155 838.602 733.347 839.144 735.844 839.144C737.469 839.144 738.936 838.917 740.246 838.463C741.573 837.991 742.717 837.292 743.678 836.367C744.638 835.424 745.38 834.254 745.904 832.856L751.877 834.533C751.249 836.559 750.192 838.34 748.708 839.877C747.223 841.397 745.389 842.584 743.206 843.44C741.023 844.279 738.569 844.698 735.844 844.698Z" fill="#0B5CD5"/>
<rect x="403.165" y="879.165" width="2179.4" height="235.152" rx="25.3595" fill="white"/>
<rect x="403.165" y="879.165" width="2179.4" height="235.152" rx="25.3595" stroke="#0B5CD5" stroke-width="4.61082"/>
<path d="M407.356 1322.48V1268.83H425.485C429.694 1268.83 433.135 1269.59 435.807 1271.11C438.497 1272.61 440.488 1274.64 441.78 1277.21C443.073 1279.78 443.719 1282.64 443.719 1285.8C443.719 1288.96 443.073 1291.84 441.78 1294.42C440.505 1297.01 438.532 1299.07 435.86 1300.6C433.187 1302.12 429.764 1302.88 425.59 1302.88H412.596V1297.12H425.381C428.262 1297.12 430.576 1296.62 432.323 1295.63C434.069 1294.63 435.336 1293.29 436.122 1291.59C436.925 1289.88 437.327 1287.95 437.327 1285.8C437.327 1283.65 436.925 1281.73 436.122 1280.04C435.336 1278.35 434.061 1277.02 432.297 1276.06C430.533 1275.08 428.192 1274.59 425.276 1274.59H413.853V1322.48H407.356ZM465.188 1323.42C462.638 1323.42 460.324 1322.94 458.246 1321.98C456.167 1321 454.517 1319.6 453.294 1317.76C452.072 1315.91 451.46 1313.68 451.46 1311.06C451.46 1308.75 451.915 1306.88 452.823 1305.45C453.731 1304 454.945 1302.87 456.464 1302.05C457.984 1301.22 459.66 1300.61 461.494 1300.21C463.346 1299.79 465.206 1299.46 467.074 1299.22C469.52 1298.9 471.502 1298.67 473.021 1298.51C474.558 1298.33 475.676 1298.05 476.375 1297.64C477.091 1297.24 477.449 1296.54 477.449 1295.55V1295.34C477.449 1292.75 476.741 1290.75 475.327 1289.31C473.929 1287.88 471.807 1287.17 468.961 1287.17C466.009 1287.17 463.695 1287.81 462.018 1289.1C460.342 1290.4 459.163 1291.78 458.481 1293.24L452.613 1291.15C453.661 1288.7 455.058 1286.8 456.805 1285.44C458.569 1284.06 460.49 1283.1 462.568 1282.55C464.664 1282 466.725 1281.72 468.751 1281.72C470.043 1281.72 471.528 1281.87 473.205 1282.19C474.899 1282.48 476.532 1283.1 478.104 1284.05C479.693 1284.99 481.012 1286.41 482.06 1288.32C483.107 1290.22 483.631 1292.77 483.631 1295.97V1322.48H477.449V1317.03H477.134C476.715 1317.9 476.017 1318.84 475.039 1319.83C474.06 1320.83 472.759 1321.68 471.135 1322.38C469.511 1323.07 467.528 1323.42 465.188 1323.42ZM466.131 1317.87C468.576 1317.87 470.637 1317.39 472.314 1316.43C474.008 1315.47 475.283 1314.23 476.139 1312.71C477.012 1311.19 477.449 1309.59 477.449 1307.91V1302.26C477.187 1302.57 476.61 1302.86 475.72 1303.12C474.846 1303.36 473.833 1303.58 472.681 1303.77C471.545 1303.95 470.436 1304.11 469.354 1304.25C468.288 1304.37 467.424 1304.47 466.76 1304.56C465.153 1304.77 463.651 1305.11 462.254 1305.58C460.874 1306.04 459.756 1306.73 458.901 1307.65C458.062 1308.56 457.643 1309.8 457.643 1311.37C457.643 1313.52 458.438 1315.14 460.027 1316.24C461.634 1317.33 463.669 1317.87 466.131 1317.87ZM523.419 1291.25L517.865 1292.82C517.516 1291.9 517.001 1291 516.32 1290.13C515.656 1289.23 514.748 1288.5 513.595 1287.92C512.442 1287.35 510.967 1287.06 509.168 1287.06C506.705 1287.06 504.653 1287.63 503.011 1288.76C501.387 1289.88 500.575 1291.3 500.575 1293.03C500.575 1294.57 501.134 1295.78 502.252 1296.68C503.369 1297.57 505.116 1298.31 507.491 1298.9L513.464 1300.37C517.062 1301.24 519.743 1302.58 521.507 1304.38C523.271 1306.16 524.153 1308.46 524.153 1311.27C524.153 1313.57 523.489 1315.63 522.162 1317.45C520.852 1319.27 519.018 1320.7 516.66 1321.75C514.303 1322.79 511.56 1323.32 508.434 1323.32C504.33 1323.32 500.933 1322.43 498.243 1320.65C495.554 1318.86 493.851 1316.26 493.135 1312.84L499.003 1311.37C499.562 1313.54 500.619 1315.16 502.173 1316.24C503.745 1317.33 505.797 1317.87 508.329 1317.87C511.211 1317.87 513.499 1317.26 515.193 1316.04C516.905 1314.8 517.761 1313.31 517.761 1311.58C517.761 1310.18 517.272 1309.01 516.294 1308.07C515.315 1307.11 513.813 1306.39 511.788 1305.92L505.081 1304.35C501.396 1303.48 498.689 1302.12 496.96 1300.29C495.248 1298.44 494.392 1296.12 494.392 1293.35C494.392 1291.08 495.03 1289.07 496.305 1287.32C497.597 1285.58 499.352 1284.2 501.57 1283.21C503.806 1282.21 506.338 1281.72 509.168 1281.72C513.15 1281.72 516.276 1282.59 518.547 1284.34C520.834 1286.08 522.459 1288.39 523.419 1291.25ZM561.963 1291.25L556.409 1292.82C556.06 1291.9 555.544 1291 554.863 1290.13C554.2 1289.23 553.291 1288.5 552.139 1287.92C550.986 1287.35 549.51 1287.06 547.711 1287.06C545.249 1287.06 543.197 1287.63 541.555 1288.76C539.931 1289.88 539.118 1291.3 539.118 1293.03C539.118 1294.57 539.677 1295.78 540.795 1296.68C541.913 1297.57 543.659 1298.31 546.035 1298.9L552.008 1300.37C555.606 1301.24 558.286 1302.58 560.05 1304.38C561.814 1306.16 562.696 1308.46 562.696 1311.27C562.696 1313.57 562.033 1315.63 560.705 1317.45C559.396 1319.27 557.562 1320.7 555.204 1321.75C552.846 1322.79 550.104 1323.32 546.978 1323.32C542.873 1323.32 539.476 1322.43 536.787 1320.65C534.097 1318.86 532.394 1316.26 531.678 1312.84L537.547 1311.37C538.105 1313.54 539.162 1315.16 540.716 1316.24C542.288 1317.33 544.34 1317.87 546.873 1317.87C549.755 1317.87 552.043 1317.26 553.737 1316.04C555.448 1314.8 556.304 1313.31 556.304 1311.58C556.304 1310.18 555.815 1309.01 554.837 1308.07C553.859 1307.11 552.357 1306.39 550.331 1305.92L543.624 1304.35C539.939 1303.48 537.232 1302.12 535.503 1300.29C533.792 1298.44 532.936 1296.12 532.936 1293.35C532.936 1291.08 533.573 1289.07 534.848 1287.32C536.141 1285.58 537.896 1284.2 540.114 1283.21C542.349 1282.21 544.882 1281.72 547.711 1281.72C551.693 1281.72 554.82 1282.59 557.09 1284.34C559.378 1286.08 561.002 1288.39 561.963 1291.25ZM581.12 1322.48L568.859 1282.24H575.357L584.054 1313.05H584.473L593.066 1282.24H599.668L608.156 1312.94H608.575L617.273 1282.24H623.77L611.51 1322.48H605.432L596.629 1291.57H596L587.198 1322.48H581.12ZM646.922 1323.32C643.29 1323.32 640.102 1322.45 637.36 1320.72C634.636 1319 632.505 1316.58 630.968 1313.47C629.448 1310.36 628.689 1306.73 628.689 1302.57C628.689 1298.38 629.448 1294.72 630.968 1291.59C632.505 1288.47 634.636 1286.04 637.36 1284.31C640.102 1282.58 643.29 1281.72 646.922 1281.72C650.555 1281.72 653.734 1282.58 656.458 1284.31C659.2 1286.04 661.331 1288.47 662.851 1291.59C664.388 1294.72 665.156 1298.38 665.156 1302.57C665.156 1306.73 664.388 1310.36 662.851 1313.47C661.331 1316.58 659.2 1319 656.458 1320.72C653.734 1322.45 650.555 1323.32 646.922 1323.32ZM646.922 1317.76C649.682 1317.76 651.952 1317.06 653.734 1315.64C655.515 1314.23 656.834 1312.37 657.69 1310.06C658.546 1307.76 658.973 1305.26 658.973 1302.57C658.973 1299.88 658.546 1297.37 657.69 1295.05C656.834 1292.73 655.515 1290.85 653.734 1289.42C651.952 1287.99 649.682 1287.27 646.922 1287.27C644.163 1287.27 641.892 1287.99 640.111 1289.42C638.33 1290.85 637.011 1292.73 636.155 1295.05C635.299 1297.37 634.871 1299.88 634.871 1302.57C634.871 1305.26 635.299 1307.76 636.155 1310.06C637.011 1312.37 638.33 1314.23 640.111 1315.64C641.892 1317.06 644.163 1317.76 646.922 1317.76ZM674.594 1322.48V1282.24H680.567V1288.32H680.986C681.72 1286.33 683.047 1284.71 684.968 1283.47C686.889 1282.23 689.055 1281.61 691.465 1281.61C691.919 1281.61 692.487 1281.62 693.168 1281.64C693.849 1281.65 694.365 1281.68 694.714 1281.72V1288C694.504 1287.95 694.024 1287.87 693.273 1287.77C692.539 1287.65 691.762 1287.58 690.941 1287.58C688.985 1287.58 687.239 1287.99 685.702 1288.82C684.182 1289.62 682.977 1290.74 682.086 1292.17C681.213 1293.58 680.777 1295.2 680.777 1297.02V1322.48H674.594ZM716.013 1323.32C712.659 1323.32 709.699 1322.47 707.132 1320.78C704.564 1319.07 702.556 1316.66 701.106 1313.55C699.656 1310.42 698.932 1306.73 698.932 1302.46C698.932 1298.24 699.656 1294.57 701.106 1291.46C702.556 1288.35 704.573 1285.95 707.158 1284.26C709.743 1282.56 712.729 1281.72 716.117 1281.72C718.737 1281.72 720.807 1282.15 722.326 1283.03C723.863 1283.88 725.033 1284.86 725.837 1285.96C726.658 1287.04 727.295 1287.93 727.749 1288.63H728.273V1268.83H734.456V1322.48H728.483V1316.3H727.749C727.295 1317.03 726.649 1317.96 725.811 1319.07C724.972 1320.17 723.776 1321.16 722.222 1322.03C720.667 1322.89 718.597 1323.32 716.013 1323.32ZM716.851 1317.76C719.331 1317.76 721.427 1317.12 723.138 1315.83C724.85 1314.52 726.151 1312.71 727.042 1310.4C727.933 1308.08 728.378 1305.4 728.378 1302.36C728.378 1299.36 727.941 1296.73 727.068 1294.47C726.195 1292.2 724.902 1290.44 723.191 1289.18C721.479 1287.91 719.366 1287.27 716.851 1287.27C714.231 1287.27 712.048 1287.94 710.302 1289.29C708.572 1290.61 707.271 1292.42 706.398 1294.71C705.542 1296.98 705.114 1299.53 705.114 1302.36C705.114 1305.22 705.551 1307.83 706.424 1310.17C707.315 1312.49 708.625 1314.34 710.354 1315.72C712.1 1317.08 714.266 1317.76 716.851 1317.76Z" fill="#0B5CD5"/>
<rect x="403.165" y="1357.79" width="2179.4" height="235.152" rx="25.3595" fill="white"/>
<rect x="403.165" y="1357.79" width="2179.4" height="235.152" rx="25.3595" stroke="#0B5CD5" stroke-width="4.61082"/>
<rect x="357.205" y="716.205" width="450.591" height="202.591" rx="9.61364" fill="#2AB6A0" fill-opacity="0.15"/>
<rect x="357.205" y="716.205" width="450.591" height="202.591" rx="9.61364" stroke="#2AB6A0" stroke-width="6.40909"/>
</g>
<defs>
<clipPath id="clip0_193_22744">
<rect width="1920" height="1485" fill="white"/>
</clipPath>
</defs>
</svg>
