<svg width="202" height="201" viewBox="0 0 202 201" fill="none" xmlns="http://www.w3.org/2000/svg">
<path d="M101.917 157.998C101.768 161.721 101.022 167.59 97.89 174.033C97.1442 175.464 92.3714 185.486 81.7817 192.071C66.8667 201.377 43.4502 202.236 28.2369 190.067C14.5151 179.043 13.3219 161.864 13.0236 155.565C12.427 145.829 14.5151 136.953 17.7964 123.925C21.6743 108.177 25.7014 100.447 21.2269 92.8589C19.1388 89.2798 17.3489 89.5661 12.427 83.4101C6.90842 76.6814 3.92542 69.9527 2.73222 67.0894C-2.33888 53.2026 5.56609 35.8798 13.6202 25.8583C28.2369 7.67654 50.9077 4.52695 68.6566 2.09316C84.3173 -0.0542903 114.147 -4.20604 132.344 12.2578C140.994 20.1318 148.004 33.446 148.899 35.0208C154.418 45.9012 152.926 48.335 158.147 56.6385C164.858 67.2326 169.929 67.0894 180.072 78.5425C184.546 83.5532 192.153 92.2862 196.478 105.171C202.146 122.064 198.715 136.667 197.224 142.68C194.987 151.699 192.749 160.575 184.695 168.306C174.404 177.898 161.428 179.187 156.357 179.759C127.273 182.622 105.497 161.434 101.917 157.998Z" fill="#2C0B8E"/>
<path d="M22.8672 60.9334C25.5519 56.0658 29.579 50.0529 35.3958 44.1832C48.2227 31.1553 62.8394 25.7151 71.0427 23.4245C71.0427 29.151 71.9376 38.0272 76.1138 47.7623C77.9036 52.0572 80.5883 58.4996 86.4051 64.083C98.188 75.5361 114.744 76.1087 120.113 76.1087C121.008 74.5339 123.096 71.3843 126.974 70.0958C133.686 67.9484 140.397 73.2454 143.53 77.254C148.153 83.4101 149.197 93.4315 143.231 100.017C138.309 105.457 131.299 105.887 129.659 105.887C124.14 117.197 122.35 126.789 121.754 133.088C121.306 137.383 120.859 142.25 122.052 148.406C123.991 159.287 129.36 167.018 132.94 171.169C131.448 172.744 128.764 175.035 124.737 176.61C117.876 179.33 111.611 178.041 109.374 177.469C105.944 172.172 102.513 166.874 99.232 161.577C95.9507 162.866 91.1779 164.441 85.2119 165.013C82.3781 165.3 70.8935 166.302 58.5141 160.862C40.4669 152.844 33.3077 136.524 31.0704 131.37C29.1315 126.932 27.4909 121.778 25.4028 95.579C23.7621 81.2626 23.1655 69.2369 22.8672 60.9334Z" fill="white"/>
<path d="M108.032 157.283C108.032 157.283 107.585 157.712 106.69 158.428C106.242 158.714 105.646 159.144 104.9 159.573C104.154 160.003 103.409 160.432 102.364 161.005C98.6357 163.009 92.6697 165.3 84.9139 166.159C77.3073 167.161 67.6125 166.445 58.2161 162.436C48.8196 158.428 39.5723 151.27 33.7555 141.248C30.7725 136.237 28.8335 130.94 27.4912 125.787C26.1488 120.633 25.4031 115.479 24.9556 110.611C24.0607 100.876 23.7624 92.1431 23.4641 84.8418C23.1658 77.5404 22.8675 71.5275 22.8675 67.519C22.7183 63.3672 22.7184 61.2198 23.0167 61.0766C23.1658 61.0766 23.4641 63.3672 23.9116 67.3758C24.359 71.5275 24.8065 77.3973 25.4031 84.6986C25.9997 91.9999 26.4471 100.733 27.4912 110.325C28.6844 119.774 30.6233 130.368 36.291 139.96C41.8096 149.552 50.6094 156.424 59.5584 160.289C68.5074 164.298 77.7547 165.013 85.2122 164.298C92.6697 163.582 98.4866 161.577 102.364 159.859C105.944 158.428 107.883 157.139 108.032 157.283Z" fill="#2C0B8E" stroke="#2C0B8E" stroke-width="0.5" stroke-miterlimit="10"/>
<path d="M109.077 177.612C108.629 178.041 105.199 175.178 102.514 170.597C99.8292 166.015 99.0835 161.721 99.6801 161.577C100.277 161.434 102.066 165.156 104.602 169.451C107.138 173.889 109.524 177.182 109.077 177.612Z" fill="#2C0B8E" stroke="#2C0B8E" stroke-width="0.5" stroke-miterlimit="10"/>
<path d="M92.0711 123.925C92.3694 123.925 92.5185 126.073 91.1762 129.222C89.983 132.229 87 136.381 82.2272 138.814C77.4543 141.248 72.2341 141.391 68.9528 140.676C65.5224 139.96 63.7325 138.671 63.8817 138.385C64.0308 138.099 65.9698 138.671 69.1019 138.958C72.2341 139.244 76.7086 138.814 81.0339 136.667C85.2101 134.52 88.044 131.084 89.5355 128.363C91.1761 125.787 91.6236 123.925 92.0711 123.925Z" fill="#2C0B8E" stroke="#2C0B8E" stroke-width="0.5" stroke-miterlimit="10"/>
<path d="M68.0595 127.791C68.0595 127.934 67.1646 128.077 65.6731 128.077C64.1816 128.077 61.7952 128.077 59.1105 126.789C57.7682 126.073 56.4258 125.214 55.3818 123.639C54.9343 122.923 54.636 121.921 54.4869 121.062C54.3377 120.06 54.3377 119.201 54.4869 118.342C54.7852 114.906 55.3818 111.041 55.9784 107.032C58.6631 91.1409 63.4359 78.8288 64.0325 78.972C64.7782 79.1152 61.0495 91.7136 58.3648 107.462C57.619 111.327 57.1716 115.192 56.7241 118.628C56.4258 120.346 56.5749 121.635 57.1715 122.78C57.7681 123.925 58.8122 124.784 59.8563 125.5C61.9444 126.789 64.1816 127.075 65.6731 127.218C67.3138 127.361 68.0595 127.504 68.0595 127.791Z" fill="#2C0B8E" stroke="#2C0B8E" stroke-width="0.5" stroke-miterlimit="10"/>
<path d="M46.7293 106.603C46.1327 106.889 44.0446 103.739 42.404 99.4444C40.7633 95.1495 40.3159 91.5704 40.9125 91.284C41.5091 91.1409 43.0006 94.4336 44.6412 98.5854C46.2819 102.88 47.3259 106.316 46.7293 106.603Z" fill="#2C0B8E" stroke="#2C0B8E" stroke-width="0.5" stroke-miterlimit="10"/>
<path d="M84.4656 103.739C83.869 104.169 81.4826 101.735 79.8419 98.0128C78.2013 94.2905 78.0521 90.9977 78.6487 90.8546C79.3945 90.7114 80.4385 93.7178 82.0792 97.1538C83.5707 100.447 85.0622 103.31 84.4656 103.739Z" fill="#2C0B8E" stroke="#2C0B8E" stroke-width="0.5" stroke-miterlimit="10"/>
<path d="M50.6081 75.9656C50.3098 76.1088 49.2658 75.1066 47.6251 73.675C45.9845 72.2434 43.5981 70.2391 40.4659 69.2369C37.4829 68.3779 34.3507 69.0938 32.5609 70.0959C30.7711 71.0981 30.0254 72.3865 29.7271 72.2434C29.5779 72.2434 29.5779 71.8139 29.7271 71.098C29.8762 70.3822 30.4729 69.5233 31.5169 68.6643C33.4559 66.9463 37.1846 65.801 41.0625 66.9463C44.9404 68.0916 47.3268 70.6686 48.8183 72.5297C50.459 74.534 50.9064 75.8224 50.6081 75.9656Z" fill="#2C0B8E" stroke="#2C0B8E" stroke-width="0.5" stroke-miterlimit="10"/>
<path d="M95.8018 78.8289C95.5035 79.4015 90.8799 77.3972 84.9139 76.9677C78.9479 76.3951 74.0259 77.5404 73.8768 76.8246C73.7276 76.5382 74.9208 75.8224 77.0089 75.2498C79.097 74.6771 81.9309 74.2476 85.2122 74.5339C88.4935 74.8203 91.3273 75.6793 93.1171 76.6814C95.0561 77.6835 95.951 78.5425 95.8018 78.8289Z" fill="#2C0B8E" stroke="#2C0B8E" stroke-width="0.5" stroke-miterlimit="10"/>
<path d="M129.657 106.03C129.657 105.887 130.702 105.887 132.491 105.744C134.132 105.457 136.668 104.741 139.054 103.024C141.44 101.306 143.678 98.2991 144.572 94.4337C145.467 90.7114 145.467 86.1302 143.976 81.8353C142.484 77.5404 139.8 73.9613 136.22 72.1002C132.79 70.239 128.912 70.3822 125.929 71.2412C122.946 72.1002 121.007 73.675 119.664 74.8203C118.471 75.9656 117.875 76.8246 117.725 76.8246C117.576 76.8246 117.875 75.8224 118.919 74.2476C119.963 72.816 122.051 70.8117 125.332 69.6664C126.973 69.0937 128.763 68.6642 130.851 68.6642C132.939 68.6642 135.176 69.0937 137.264 70.0959C141.44 72.1002 144.722 76.2519 146.213 80.9763C147.854 85.7007 147.854 90.5683 146.661 94.8632C146.064 97.0106 145.169 98.8718 143.976 100.447C142.783 102.021 141.44 103.31 139.949 104.169C137.115 106.03 134.281 106.603 132.342 106.459C130.552 106.603 129.508 106.173 129.657 106.03Z" fill="#2C0B8E" stroke="#2C0B8E" stroke-width="0.5" stroke-miterlimit="10"/>
<path d="M141.739 175.035C141.739 175.178 140.546 175.321 138.458 174.748C136.37 174.319 133.536 173.03 130.702 170.597C127.868 168.163 125.333 164.298 123.543 159.859C121.753 155.278 120.858 150.124 120.411 144.684C119.963 139.244 120.411 133.947 121.157 129.222C122.052 124.498 123.245 120.489 124.736 117.054C127.421 110.325 130.255 106.746 130.553 106.889C130.851 107.032 128.614 110.897 126.377 117.626C125.184 120.919 124.14 124.928 123.394 129.509C122.648 134.09 122.499 139.101 122.797 144.398C123.245 149.695 124.14 154.706 125.631 159C127.123 163.295 129.36 166.874 131.895 169.308C134.431 171.742 136.967 173.174 138.756 173.889C140.546 174.748 141.739 174.892 141.739 175.035Z" fill="#2C0B8E" stroke="#2C0B8E" stroke-width="0.5" stroke-miterlimit="10"/>
<path d="M71.6393 23.5677C71.7885 23.9972 68.0597 24.9993 62.5412 27.2899C61.1988 27.8626 59.7073 28.5784 58.0667 29.2942C56.426 30.0101 54.7854 31.0122 53.1447 32.0143C49.7143 34.0186 46.1347 36.4524 42.5551 39.3157C39.1246 42.179 35.9925 45.1854 33.3078 48.0487C32.1146 49.4803 30.7722 50.9119 29.7282 52.3436C28.6841 53.632 27.6401 55.0637 26.8943 56.209C23.613 61.0766 21.9724 64.3693 21.5249 64.2262C21.2266 64.083 22.4198 60.5039 25.4028 55.35C26.1486 54.0615 27.0435 52.6299 28.0875 51.1983C29.1316 49.7666 30.3248 48.1918 31.518 46.617C34.2027 43.6106 37.1857 40.3178 40.9144 37.4546C44.494 34.4481 48.3719 32.0143 51.9515 30.1532C53.7413 29.1511 55.5311 28.2921 57.1718 27.5763C58.8124 26.8605 60.4531 26.2878 61.9446 25.7151C67.7614 23.854 71.4902 23.2814 71.6393 23.5677Z" fill="#2C0B8E" stroke="#2C0B8E" stroke-width="0.5" stroke-miterlimit="10"/>
<path d="M119.815 76.252C119.815 76.3951 118.771 76.8246 116.683 77.1109C114.595 77.3973 111.462 77.5404 107.584 76.9678C103.707 76.3951 99.3812 74.9635 94.9067 72.3865C90.4322 69.9527 86.1069 66.3737 82.5273 61.7924C78.9477 57.2112 76.4121 52.3436 74.7715 47.7624C73.1308 43.1812 72.0868 38.8863 71.4902 35.3072C70.4461 28.0058 70.5953 23.5677 70.8936 23.5677C71.341 23.5677 71.6393 28.0058 73.1308 35.0208C73.8766 38.4568 75.0698 42.6085 76.7104 47.0466C78.5002 51.4846 80.8866 56.0659 84.3171 60.3608C87.7475 64.6557 91.7746 68.0916 95.9508 70.5254C100.127 72.9592 104.154 74.534 107.734 75.2498C115.191 76.8246 119.815 75.6793 119.815 76.252Z" fill="#2C0B8E" stroke="#2C0B8E" stroke-width="0.5" stroke-miterlimit="10"/>
<path d="M166.2 177.039C166.051 176.753 171.57 175.035 179.326 168.449C183.054 165.157 187.23 160.575 190.959 154.562C192.749 151.556 194.39 148.12 195.732 144.398C197.074 140.676 198.118 136.524 198.566 132.229C199.61 123.496 198.566 113.761 194.986 104.026C191.407 94.2906 185.142 84.6986 176.641 76.6814C172.315 72.6728 167.394 68.9506 162.919 64.3694C158.295 59.7881 155.014 54.0616 152.628 48.0487C150.092 42.0358 148.153 35.8798 145.468 29.8669C142.784 23.9972 139.055 18.4138 133.536 14.4053C128.167 10.2535 121.754 7.67657 115.34 5.95861C112.059 5.09962 108.778 4.52697 105.496 3.95431C102.215 3.52482 98.9336 3.2385 95.6523 2.95217C82.5271 2.09319 69.7002 2.37952 57.7682 4.52697C45.8362 6.53126 34.9483 10.683 26.1484 16.5527C21.6739 19.416 17.796 22.8519 14.5147 26.431C11.2334 30.0101 8.69785 33.8755 6.7589 37.8841C2.881 45.7581 1.83696 53.9184 2.43356 60.7903C3.17931 67.6621 5.41655 73.3887 8.2504 77.5404C10.9351 81.6922 13.9181 84.2691 16.0062 86.1302C18.0943 87.8482 19.1383 88.7072 19.1383 88.7072C19.1383 88.7072 18.8401 88.564 18.2435 88.2777C17.6469 87.8482 16.752 87.4187 15.7079 86.5597C13.6198 84.9849 10.4877 82.408 7.50465 78.1131C4.52165 73.9613 1.98608 68.0916 1.24033 60.9334C0.494583 53.7752 1.3895 45.4718 5.2674 37.1683C7.20635 33.0165 9.89104 29.0079 13.1723 25.2857C16.4536 21.5634 20.4807 18.1275 24.9552 15.1211C33.9042 8.96504 45.0905 4.67013 57.3208 2.52268C69.4019 0.375223 82.5271 0.0888997 95.8015 0.804718C99.0828 1.09105 102.513 1.37737 105.944 1.80686C109.374 2.23635 112.655 2.95217 116.086 3.81115C122.798 5.52911 129.509 8.24922 135.177 12.6873C138.011 14.8347 140.547 17.4117 142.635 20.1318C144.723 22.9951 146.363 26.0015 147.855 29.0079C150.689 35.164 152.628 41.4632 155.014 47.3329C157.4 53.2026 160.533 58.6428 164.858 62.9377C169.183 67.3758 174.105 71.098 178.431 75.2498C187.23 83.6964 193.495 93.5747 197.074 103.453C200.803 113.474 201.698 123.496 200.505 132.372C199.908 136.81 198.864 140.962 197.373 144.827C195.881 148.693 194.091 151.985 192.302 155.135C188.424 161.291 184.098 165.872 180.071 169.022C176.044 172.315 172.614 174.176 170.078 175.464C168.885 176.037 167.841 176.466 167.244 176.61C166.648 176.896 166.349 177.039 166.2 177.039Z" fill="#2C0B8E" stroke="#2C0B8E" stroke-width="0.5" stroke-miterlimit="10"/>
<path d="M97.8912 174.033C98.0404 174.033 97.7421 174.748 97.2946 175.894C96.8472 177.039 95.9522 178.757 94.6099 180.761C91.9252 184.77 87.1524 190.21 79.2475 194.505C75.3696 196.653 70.7459 198.37 65.5256 199.229C60.3054 200.232 54.6377 200.232 48.8209 199.373C43.004 198.37 37.038 196.509 31.3703 193.36C25.8517 190.21 20.4823 186.058 16.9027 180.189C13.3231 174.319 12.1299 167.733 11.9808 161.721C11.6825 155.565 12.2791 149.695 13.0249 144.111C14.6655 132.945 17.2011 123.21 18.9909 115.049C19.8858 110.898 20.7807 107.175 21.2281 103.882C21.6756 100.59 21.8247 97.7265 21.5264 95.4358C20.9298 90.8546 18.8417 88.7072 19.14 88.7072C19.14 88.7072 19.7366 89.1366 20.4824 90.1388C21.2281 91.1409 21.9739 92.8589 22.5705 95.2927C23.0179 97.7264 23.1671 100.59 22.7196 104.026C22.2722 107.462 21.5264 111.184 20.7806 115.336C19.14 123.639 16.7536 133.374 15.2621 144.398C14.5164 149.838 14.0689 155.708 14.3672 161.577C14.6655 167.447 15.8587 173.746 19.14 179.043C22.4213 184.34 27.4924 188.492 32.7126 191.355C38.082 194.362 43.7497 196.223 49.2683 197.225C54.936 198.227 60.3054 198.084 65.3765 197.368C70.2984 196.509 74.773 194.935 78.6509 193.073C86.2575 189.208 91.1795 184.054 94.0133 180.332C96.698 176.466 97.7421 174.033 97.8912 174.033Z" fill="#2C0B8E" stroke="#2C0B8E" stroke-width="0.5" stroke-miterlimit="10"/>
<path d="M130.255 173.317C130.405 173.603 129.51 174.605 127.869 175.894C126.228 177.182 123.693 178.9 120.412 179.902C117.13 180.905 113.849 180.618 111.761 179.902C109.673 179.043 108.778 178.041 108.927 177.755C109.076 177.469 110.269 178.041 112.208 178.328C114.147 178.614 116.832 178.614 119.666 177.755C122.5 176.896 125.035 175.607 126.825 174.605C128.764 173.46 130.106 173.031 130.255 173.317Z" fill="#2C0B8E" stroke="#2C0B8E" stroke-width="0.5" stroke-miterlimit="10"/>
</svg>
