<svg width="1920" height="1485" viewBox="0 0 1920 1485" fill="none" xmlns="http://www.w3.org/2000/svg">
<rect width="1920" height="1485" fill="#D9E7FE"/>
<rect x="139" y="287" width="1641.05" height="912.774" rx="30.2034" fill="white"/>
<path d="M268.908 417.796C268.557 414.517 267.081 411.965 264.478 410.138C261.9 408.311 258.547 407.397 254.417 407.397C251.514 407.397 249.024 407.835 246.947 408.711C244.87 409.587 243.281 410.776 242.179 412.278C241.078 413.779 240.515 415.493 240.49 417.421C240.49 419.022 240.853 420.411 241.579 421.587C242.33 422.764 243.343 423.765 244.62 424.591C245.896 425.391 247.31 426.067 248.862 426.618C250.413 427.168 251.977 427.631 253.554 428.007L260.762 429.809C263.665 430.484 266.455 431.398 269.133 432.549C271.836 433.7 274.251 435.152 276.378 436.904C278.53 438.656 280.232 440.77 281.484 443.248C282.735 445.726 283.361 448.629 283.361 451.957C283.361 456.462 282.209 460.429 279.907 463.857C277.604 467.261 274.276 469.926 269.921 471.853C265.592 473.755 260.349 474.706 254.192 474.706C248.211 474.706 243.018 473.78 238.613 471.928C234.234 470.076 230.805 467.373 228.327 463.82C225.875 460.266 224.548 455.936 224.348 450.831H238.05C238.25 453.509 239.076 455.736 240.528 457.513C241.979 459.29 243.869 460.616 246.196 461.492C248.549 462.368 251.176 462.806 254.08 462.806C257.108 462.806 259.761 462.356 262.038 461.455C264.34 460.529 266.142 459.252 267.444 457.626C268.745 455.974 269.408 454.047 269.433 451.844C269.408 449.842 268.82 448.191 267.669 446.889C266.518 445.563 264.904 444.462 262.826 443.586C260.774 442.685 258.372 441.884 255.619 441.183L246.872 438.931C240.54 437.304 235.535 434.839 231.856 431.535C228.202 428.207 226.375 423.79 226.375 418.284C226.375 413.754 227.602 409.787 230.054 406.384C232.532 402.98 235.898 400.34 240.152 398.463C244.407 396.561 249.224 395.61 254.605 395.61C260.061 395.61 264.841 396.561 268.945 398.463C273.075 400.34 276.316 402.955 278.668 406.309C281.021 409.637 282.234 413.466 282.309 417.796H268.908ZM294.169 473.542V415.881H307.759V473.542H294.169ZM301.002 407.698C298.849 407.698 296.997 406.984 295.446 405.558C293.894 404.106 293.118 402.367 293.118 400.34C293.118 398.288 293.894 396.548 295.446 395.122C296.997 393.67 298.849 392.945 301.002 392.945C303.179 392.945 305.031 393.67 306.558 395.122C308.109 396.548 308.885 398.288 308.885 400.34C308.885 402.367 308.109 404.106 306.558 405.558C305.031 406.984 303.179 407.698 301.002 407.698ZM345.803 496.367C340.923 496.367 336.731 495.703 333.227 494.377C329.723 493.076 326.908 491.324 324.781 489.121C322.653 486.919 321.177 484.479 320.351 481.801L332.589 478.836C333.139 479.962 333.94 481.075 334.991 482.177C336.042 483.303 337.456 484.229 339.233 484.955C341.035 485.705 343.3 486.081 346.028 486.081C349.882 486.081 353.073 485.142 355.601 483.265C358.128 481.413 359.392 478.36 359.392 474.106V463.182H358.717C358.016 464.583 356.99 466.022 355.638 467.499C354.312 468.975 352.547 470.214 350.345 471.215C348.168 472.216 345.427 472.717 342.124 472.717C337.694 472.717 333.677 471.678 330.074 469.601C326.495 467.499 323.642 464.37 321.515 460.216C319.412 456.036 318.361 450.806 318.361 444.524C318.361 438.193 319.412 432.849 321.515 428.495C323.642 424.115 326.507 420.799 330.111 418.547C333.715 416.269 337.732 415.131 342.161 415.131C345.54 415.131 348.318 415.706 350.495 416.857C352.698 417.984 354.449 419.348 355.751 420.949C357.052 422.526 358.041 424.015 358.717 425.416H359.467V415.881H372.869V474.481C372.869 479.411 371.693 483.491 369.34 486.719C366.988 489.947 363.772 492.362 359.693 493.964C355.613 495.566 350.983 496.367 345.803 496.367ZM345.915 462.055C348.793 462.055 351.246 461.355 353.273 459.953C355.3 458.552 356.84 456.537 357.891 453.909C358.942 451.281 359.467 448.128 359.467 444.449C359.467 440.82 358.942 437.642 357.891 434.914C356.865 432.186 355.338 430.071 353.311 428.57C351.309 427.043 348.844 426.28 345.915 426.28C342.887 426.28 340.36 427.068 338.332 428.645C336.305 430.222 334.779 432.386 333.753 435.139C332.726 437.867 332.213 440.97 332.213 444.449C332.213 447.978 332.726 451.069 333.753 453.721C334.804 456.349 336.343 458.401 338.37 459.878C340.422 461.33 342.937 462.055 345.915 462.055ZM399.379 439.757V473.542H385.789V415.881H398.778V425.679H399.454C400.78 422.451 402.895 419.886 405.798 417.984C408.726 416.082 412.343 415.131 416.647 415.131C420.626 415.131 424.093 415.981 427.046 417.683C430.024 419.385 432.326 421.85 433.953 425.079C435.605 428.307 436.418 432.224 436.393 436.829V473.542H422.804V438.931C422.804 435.077 421.803 432.061 419.801 429.884C417.823 427.706 415.083 426.618 411.579 426.618C409.202 426.618 407.087 427.143 405.235 428.194C403.408 429.221 401.969 430.71 400.918 432.662C399.892 434.614 399.379 436.979 399.379 439.757ZM474.416 473.542V415.881H488.005V473.542H474.416ZM481.248 407.698C479.096 407.698 477.244 406.984 475.692 405.558C474.14 404.106 473.365 402.367 473.365 400.34C473.365 398.288 474.14 396.548 475.692 395.122C477.244 393.67 479.096 392.945 481.248 392.945C483.425 392.945 485.277 393.67 486.804 395.122C488.355 396.548 489.131 398.288 489.131 400.34C489.131 402.367 488.355 404.106 486.804 405.558C485.277 406.984 483.425 407.698 481.248 407.698ZM514.562 439.757V473.542H500.972V415.881H513.961V425.679H514.637C515.963 422.451 518.078 419.886 520.981 417.984C523.909 416.082 527.526 415.131 531.83 415.131C535.809 415.131 539.276 415.981 542.229 417.683C545.207 419.385 547.509 421.85 549.136 425.079C550.788 428.307 551.601 432.224 551.576 436.829V473.542H537.987V438.931C537.987 435.077 536.986 432.061 534.984 429.884C533.006 427.706 530.266 426.618 526.762 426.618C524.385 426.618 522.27 427.143 520.418 428.194C518.591 429.221 517.152 430.71 516.101 432.662C515.075 434.614 514.562 436.979 514.562 439.757Z" fill="#0B5CD5"/>
<path d="M232.128 610.949H223.09V581.661H232.528C235.369 581.661 237.8 582.248 239.822 583.42C241.843 584.583 243.392 586.257 244.469 588.44C245.547 590.614 246.085 593.216 246.085 596.248C246.085 599.299 245.542 601.925 244.455 604.128C243.368 606.321 241.786 608.008 239.707 609.19C237.629 610.363 235.102 610.949 232.128 610.949ZM226.636 607.803H231.899C234.321 607.803 236.327 607.336 237.92 606.402C239.512 605.467 240.699 604.137 241.48 602.412C242.262 600.686 242.653 598.632 242.653 596.248C242.653 593.884 242.267 591.848 241.495 590.142C240.723 588.425 239.569 587.11 238.034 586.195C236.499 585.27 234.587 584.807 232.299 584.807H226.636V607.803ZM260.501 611.407C258.518 611.407 256.778 610.935 255.281 609.991C253.794 609.047 252.63 607.727 251.791 606.03C250.962 604.333 250.547 602.35 250.547 600.081C250.547 597.793 250.962 595.795 251.791 594.089C252.63 592.382 253.794 591.057 255.281 590.113C256.778 589.169 258.518 588.697 260.501 588.697C262.484 588.697 264.219 589.169 265.706 590.113C267.203 591.057 268.366 592.382 269.196 594.089C270.035 595.795 270.454 597.793 270.454 600.081C270.454 602.35 270.035 604.333 269.196 606.03C268.366 607.727 267.203 609.047 265.706 609.991C264.219 610.935 262.484 611.407 260.501 611.407ZM260.501 608.375C262.007 608.375 263.246 607.989 264.219 607.217C265.191 606.445 265.911 605.429 266.378 604.171C266.845 602.912 267.079 601.549 267.079 600.081C267.079 598.612 266.845 597.244 266.378 595.976C265.911 594.708 265.191 593.683 264.219 592.902C263.246 592.12 262.007 591.729 260.501 591.729C258.994 591.729 257.755 592.12 256.782 592.902C255.81 593.683 255.09 594.708 254.623 595.976C254.156 597.244 253.922 598.612 253.922 600.081C253.922 601.549 254.156 602.912 254.623 604.171C255.09 605.429 255.81 606.445 256.782 607.217C257.755 607.989 258.994 608.375 260.501 608.375ZM278.981 597.735V610.949H275.606V588.983H278.867V592.415H279.153C279.667 591.3 280.449 590.404 281.498 589.727C282.547 589.04 283.9 588.697 285.559 588.697C287.047 588.697 288.348 589.002 289.463 589.612C290.579 590.213 291.447 591.128 292.066 592.358C292.686 593.579 292.996 595.123 292.996 596.992V610.949H289.621V597.221C289.621 595.495 289.173 594.151 288.277 593.188C287.38 592.215 286.15 591.729 284.587 591.729C283.51 591.729 282.547 591.963 281.698 592.43C280.859 592.897 280.197 593.579 279.71 594.475C279.224 595.371 278.981 596.458 278.981 597.735ZM302.138 581.661V584.235C302.138 585.017 301.995 585.851 301.709 586.738C301.432 587.615 301.022 588.468 300.479 589.298C299.945 590.118 299.297 590.833 298.534 591.443L296.703 589.956C297.304 589.098 297.824 588.206 298.262 587.281C298.71 586.347 298.934 585.351 298.934 584.293V581.661H302.138ZM316.739 588.983V591.843H305.355V588.983H316.739ZM308.673 583.72H312.048V604.657C312.048 605.61 312.186 606.325 312.463 606.802C312.749 607.269 313.111 607.584 313.55 607.746C313.998 607.898 314.47 607.975 314.965 607.975C315.337 607.975 315.642 607.956 315.881 607.918C316.119 607.87 316.31 607.832 316.453 607.803L317.139 610.835C316.91 610.921 316.591 611.007 316.181 611.092C315.771 611.188 315.252 611.235 314.622 611.235C313.669 611.235 312.735 611.03 311.819 610.62C310.914 610.21 310.16 609.586 309.56 608.747C308.969 607.908 308.673 606.85 308.673 605.572V583.72ZM336.517 597.735V610.949H333.142V581.661H336.517V592.415H336.803C337.318 591.281 338.09 590.38 339.12 589.713C340.159 589.036 341.541 588.697 343.267 588.697C344.764 588.697 346.075 588.998 347.2 589.598C348.325 590.189 349.197 591.1 349.817 592.33C350.446 593.55 350.761 595.104 350.761 596.992V610.949H347.386V597.221C347.386 595.476 346.933 594.127 346.027 593.173C345.131 592.21 343.887 591.729 342.294 591.729C341.189 591.729 340.197 591.963 339.32 592.43C338.452 592.897 337.766 593.579 337.261 594.475C336.765 595.371 336.517 596.458 336.517 597.735ZM363.399 611.464C362.007 611.464 360.744 611.202 359.609 610.678C358.475 610.144 357.574 609.376 356.906 608.375C356.239 607.365 355.905 606.144 355.905 604.714C355.905 603.456 356.153 602.436 356.649 601.654C357.145 600.862 357.807 600.243 358.637 599.795C359.466 599.347 360.381 599.013 361.383 598.794C362.393 598.565 363.408 598.384 364.429 598.25C365.763 598.079 366.845 597.95 367.675 597.864C368.514 597.769 369.124 597.611 369.505 597.392C369.896 597.173 370.092 596.791 370.092 596.248V596.134C370.092 594.723 369.706 593.626 368.933 592.844C368.171 592.063 367.012 591.672 365.458 591.672C363.847 591.672 362.584 592.025 361.669 592.73C360.753 593.436 360.11 594.189 359.738 594.99L356.535 593.846C357.107 592.511 357.869 591.472 358.823 590.728C359.786 589.975 360.834 589.45 361.969 589.155C363.113 588.85 364.238 588.697 365.344 588.697C366.049 588.697 366.86 588.783 367.775 588.955C368.7 589.117 369.591 589.455 370.449 589.97C371.317 590.485 372.037 591.262 372.609 592.301C373.181 593.34 373.467 594.732 373.467 596.477V610.949H370.092V607.975H369.92C369.691 608.451 369.31 608.962 368.776 609.505C368.242 610.048 367.532 610.511 366.645 610.892C365.759 611.273 364.677 611.464 363.399 611.464ZM363.914 608.432C365.249 608.432 366.374 608.17 367.289 607.646C368.214 607.121 368.91 606.445 369.377 605.615C369.853 604.786 370.092 603.913 370.092 602.998V599.909C369.949 600.081 369.634 600.238 369.148 600.381C368.671 600.514 368.118 600.634 367.489 600.739C366.869 600.834 366.264 600.92 365.673 600.996C365.091 601.063 364.619 601.12 364.257 601.168C363.38 601.282 362.56 601.468 361.797 601.725C361.044 601.973 360.434 602.35 359.967 602.855C359.509 603.351 359.28 604.028 359.28 604.886C359.28 606.058 359.714 606.945 360.582 607.546C361.459 608.137 362.57 608.432 363.914 608.432ZM396.802 588.983L388.679 610.949H385.247L377.124 588.983H380.785L386.849 606.487H387.078L393.141 588.983H396.802ZM409.68 611.407C407.564 611.407 405.738 610.94 404.203 610.005C402.677 609.062 401.5 607.746 400.671 606.058C399.851 604.361 399.441 602.388 399.441 600.138C399.441 597.888 399.851 595.905 400.671 594.189C401.5 592.463 402.654 591.119 404.131 590.156C405.619 589.183 407.354 588.697 409.337 588.697C410.481 588.697 411.611 588.888 412.726 589.269C413.842 589.651 414.857 590.27 415.772 591.128C416.688 591.977 417.417 593.102 417.96 594.503C418.504 595.905 418.775 597.63 418.775 599.68V601.11H401.843V598.193H415.343C415.343 596.954 415.095 595.848 414.6 594.875C414.113 593.903 413.417 593.135 412.512 592.573C411.616 592.01 410.557 591.729 409.337 591.729C407.993 591.729 406.829 592.063 405.848 592.73C404.875 593.388 404.127 594.246 403.602 595.304C403.078 596.362 402.816 597.497 402.816 598.708V600.653C402.816 602.312 403.102 603.718 403.674 604.871C404.255 606.016 405.061 606.888 406.091 607.489C407.12 608.08 408.317 608.375 409.68 608.375C410.567 608.375 411.368 608.251 412.083 608.003C412.807 607.746 413.432 607.365 413.956 606.859C414.48 606.344 414.886 605.706 415.172 604.943L418.432 605.858C418.089 606.964 417.512 607.937 416.702 608.776C415.891 609.605 414.89 610.253 413.699 610.721C412.507 611.178 411.167 611.407 409.68 611.407ZM441.7 611.464C440.308 611.464 439.045 611.202 437.91 610.678C436.776 610.144 435.875 609.376 435.207 608.375C434.54 607.365 434.206 606.144 434.206 604.714C434.206 603.456 434.454 602.436 434.95 601.654C435.446 600.862 436.108 600.243 436.938 599.795C437.767 599.347 438.682 599.013 439.683 598.794C440.694 598.565 441.709 598.384 442.729 598.25C444.064 598.079 445.146 597.95 445.976 597.864C446.815 597.769 447.425 597.611 447.806 597.392C448.197 597.173 448.393 596.791 448.393 596.248V596.134C448.393 594.723 448.006 593.626 447.234 592.844C446.472 592.063 445.313 591.672 443.759 591.672C442.148 591.672 440.885 592.025 439.969 592.73C439.054 593.436 438.411 594.189 438.039 594.99L434.835 593.846C435.407 592.511 436.17 591.472 437.124 590.728C438.086 589.975 439.135 589.45 440.27 589.155C441.414 588.85 442.539 588.697 443.645 588.697C444.35 588.697 445.161 588.783 446.076 588.955C447.001 589.117 447.892 589.455 448.75 589.97C449.618 590.485 450.338 591.262 450.91 592.301C451.482 593.34 451.768 594.732 451.768 596.477V610.949H448.393V607.975H448.221C447.992 608.451 447.611 608.962 447.077 609.505C446.543 610.048 445.833 610.511 444.946 610.892C444.059 611.273 442.977 611.464 441.7 611.464ZM442.215 608.432C443.549 608.432 444.674 608.17 445.59 607.646C446.514 607.121 447.21 606.445 447.678 605.615C448.154 604.786 448.393 603.913 448.393 602.998V599.909C448.25 600.081 447.935 600.238 447.449 600.381C446.972 600.514 446.419 600.634 445.79 600.739C445.17 600.834 444.565 600.92 443.974 600.996C443.392 601.063 442.92 601.12 442.558 601.168C441.681 601.282 440.861 601.468 440.098 601.725C439.345 601.973 438.735 602.35 438.268 602.855C437.81 603.351 437.581 604.028 437.581 604.886C437.581 606.058 438.015 606.945 438.883 607.546C439.76 608.137 440.87 608.432 442.215 608.432ZM461.303 597.735V610.949H457.928V588.983H461.188V592.415H461.474C461.989 591.3 462.771 590.404 463.82 589.727C464.868 589.04 466.222 588.697 467.881 588.697C469.368 588.697 470.67 589.002 471.785 589.612C472.901 590.213 473.768 591.128 474.388 592.358C475.008 593.579 475.318 595.123 475.318 596.992V610.949H471.943V597.221C471.943 595.495 471.494 594.151 470.598 593.188C469.702 592.215 468.472 591.729 466.909 591.729C465.831 591.729 464.868 591.963 464.02 592.43C463.181 592.897 462.518 593.579 462.032 594.475C461.546 595.371 461.303 596.458 461.303 597.735ZM499.275 611.464C497.883 611.464 496.62 611.202 495.485 610.678C494.351 610.144 493.45 609.376 492.782 608.375C492.115 607.365 491.781 606.144 491.781 604.714C491.781 603.456 492.029 602.436 492.525 601.654C493.021 600.862 493.683 600.243 494.513 599.795C495.342 599.347 496.258 599.013 497.259 598.794C498.269 598.565 499.285 598.384 500.305 598.25C501.639 598.079 502.722 597.95 503.551 597.864C504.39 597.769 505 597.611 505.382 597.392C505.772 597.173 505.968 596.791 505.968 596.248V596.134C505.968 594.723 505.582 593.626 504.809 592.844C504.047 592.063 502.888 591.672 501.334 591.672C499.723 591.672 498.46 592.025 497.545 592.73C496.629 593.436 495.986 594.189 495.614 594.99L492.411 593.846C492.983 592.511 493.745 591.472 494.699 590.728C495.662 589.975 496.71 589.45 497.845 589.155C498.989 588.85 500.114 588.697 501.22 588.697C501.925 588.697 502.736 588.783 503.651 588.955C504.576 589.117 505.467 589.455 506.325 589.97C507.193 590.485 507.913 591.262 508.485 592.301C509.057 593.34 509.343 594.732 509.343 596.477V610.949H505.968V607.975H505.796C505.567 608.451 505.186 608.962 504.652 609.505C504.118 610.048 503.408 610.511 502.521 610.892C501.635 611.273 500.553 611.464 499.275 611.464ZM499.79 608.432C501.125 608.432 502.25 608.17 503.165 607.646C504.09 607.121 504.786 606.445 505.253 605.615C505.73 604.786 505.968 603.913 505.968 602.998V599.909C505.825 600.081 505.51 600.238 505.024 600.381C504.547 600.514 503.994 600.634 503.365 600.739C502.745 600.834 502.14 600.92 501.549 600.996C500.967 601.063 500.495 601.12 500.133 601.168C499.256 601.282 498.436 601.468 497.673 601.725C496.92 601.973 496.31 602.35 495.843 602.855C495.385 603.351 495.156 604.028 495.156 604.886C495.156 606.058 495.59 606.945 496.458 607.546C497.335 608.137 498.446 608.432 499.79 608.432ZM524.427 611.407C522.367 611.407 520.594 610.921 519.107 609.948C517.62 608.976 516.475 607.636 515.675 605.93C514.874 604.223 514.473 602.273 514.473 600.081C514.473 597.85 514.883 595.881 515.703 594.174C516.533 592.458 517.686 591.119 519.164 590.156C520.651 589.183 522.386 588.697 524.37 588.697C525.914 588.697 527.306 588.983 528.545 589.555C529.785 590.127 530.8 590.928 531.591 591.958C532.383 592.987 532.874 594.189 533.064 595.562H529.689C529.432 594.561 528.86 593.674 527.973 592.902C527.096 592.12 525.914 591.729 524.427 591.729C523.111 591.729 521.957 592.072 520.966 592.759C519.984 593.436 519.216 594.394 518.663 595.633C518.12 596.863 517.848 598.307 517.848 599.966C517.848 601.663 518.115 603.141 518.649 604.4C519.193 605.658 519.955 606.635 520.937 607.331C521.929 608.027 523.092 608.375 524.427 608.375C525.304 608.375 526.1 608.223 526.815 607.918C527.53 607.612 528.135 607.174 528.631 606.602C529.127 606.03 529.48 605.343 529.689 604.543H533.064C532.874 605.839 532.402 607.007 531.649 608.046C530.905 609.076 529.918 609.896 528.688 610.506C527.468 611.107 526.047 611.407 524.427 611.407ZM546.922 611.407C544.863 611.407 543.089 610.921 541.602 609.948C540.115 608.976 538.971 607.636 538.17 605.93C537.369 604.223 536.969 602.273 536.969 600.081C536.969 597.85 537.379 595.881 538.198 594.174C539.028 592.458 540.181 591.119 541.659 590.156C543.147 589.183 544.882 588.697 546.865 588.697C548.409 588.697 549.801 588.983 551.041 589.555C552.28 590.127 553.295 590.928 554.087 591.958C554.878 592.987 555.369 594.189 555.56 595.562H552.185C551.927 594.561 551.355 593.674 550.469 592.902C549.591 592.12 548.409 591.729 546.922 591.729C545.606 591.729 544.453 592.072 543.461 592.759C542.479 593.436 541.712 594.394 541.159 595.633C540.615 596.863 540.344 598.307 540.344 599.966C540.344 601.663 540.611 603.141 541.144 604.4C541.688 605.658 542.451 606.635 543.433 607.331C544.424 608.027 545.587 608.375 546.922 608.375C547.799 608.375 548.595 608.223 549.31 607.918C550.025 607.612 550.631 607.174 551.126 606.602C551.622 606.03 551.975 605.343 552.185 604.543H555.56C555.369 605.839 554.897 607.007 554.144 608.046C553.4 609.076 552.414 609.896 551.184 610.506C549.963 611.107 548.543 611.407 546.922 611.407ZM569.417 611.407C567.434 611.407 565.694 610.935 564.197 609.991C562.71 609.047 561.547 607.727 560.708 606.03C559.879 604.333 559.464 602.35 559.464 600.081C559.464 597.793 559.879 595.795 560.708 594.089C561.547 592.382 562.71 591.057 564.197 590.113C565.694 589.169 567.434 588.697 569.417 588.697C571.4 588.697 573.135 589.169 574.623 590.113C576.12 591.057 577.283 592.382 578.112 594.089C578.951 595.795 579.371 597.793 579.371 600.081C579.371 602.35 578.951 604.333 578.112 606.03C577.283 607.727 576.12 609.047 574.623 609.991C573.135 610.935 571.4 611.407 569.417 611.407ZM569.417 608.375C570.924 608.375 572.163 607.989 573.135 607.217C574.108 606.445 574.828 605.429 575.295 604.171C575.762 602.912 575.996 601.549 575.996 600.081C575.996 598.612 575.762 597.244 575.295 595.976C574.828 594.708 574.108 593.683 573.135 592.902C572.163 592.12 570.924 591.729 569.417 591.729C567.911 591.729 566.671 592.12 565.699 592.902C564.727 593.683 564.007 594.708 563.54 595.976C563.072 597.244 562.839 598.612 562.839 600.081C562.839 601.549 563.072 602.912 563.54 604.171C564.007 605.429 564.727 606.445 565.699 607.217C566.671 607.989 567.911 608.375 569.417 608.375ZM598.366 601.968V588.983H601.741V610.949H598.366V607.231H598.137C597.622 608.347 596.821 609.295 595.734 610.077C594.648 610.849 593.275 611.235 591.616 611.235C590.243 611.235 589.023 610.935 587.955 610.334C586.887 609.724 586.048 608.809 585.438 607.589C584.828 606.359 584.523 604.81 584.523 602.941V588.983H587.898V602.712C587.898 604.314 588.346 605.591 589.242 606.545C590.148 607.498 591.301 607.975 592.703 607.975C593.542 607.975 594.395 607.76 595.262 607.331C596.14 606.902 596.874 606.244 597.465 605.358C598.065 604.471 598.366 603.341 598.366 601.968ZM617.475 588.983V591.843H606.092V588.983H617.475ZM609.41 583.72H612.785V604.657C612.785 605.61 612.923 606.325 613.199 606.802C613.485 607.269 613.848 607.584 614.286 607.746C614.734 607.898 615.206 607.975 615.702 607.975C616.074 607.975 616.379 607.956 616.617 607.918C616.856 607.87 617.046 607.832 617.189 607.803L617.876 610.835C617.647 610.921 617.328 611.007 616.918 611.092C616.508 611.188 615.988 611.235 615.359 611.235C614.405 611.235 613.471 611.03 612.556 610.62C611.65 610.21 610.897 609.586 610.296 608.747C609.705 607.908 609.41 606.85 609.41 605.572V583.72ZM636.052 619.187C635.48 619.187 634.97 619.139 634.522 619.044C634.074 618.958 633.764 618.872 633.592 618.786L634.45 615.812C635.27 616.021 635.995 616.098 636.624 616.04C637.253 615.983 637.811 615.702 638.297 615.197C638.793 614.701 639.246 613.895 639.656 612.78L640.285 611.064L632.162 588.983H635.823L641.887 606.487H642.116L648.179 588.983H651.84L642.516 614.153C642.097 615.287 641.577 616.226 640.957 616.97C640.338 617.723 639.618 618.281 638.798 618.643C637.988 619.005 637.072 619.187 636.052 619.187ZM664.718 611.407C662.602 611.407 660.776 610.94 659.241 610.005C657.716 609.062 656.538 607.746 655.709 606.058C654.889 604.361 654.479 602.388 654.479 600.138C654.479 597.888 654.889 595.905 655.709 594.189C656.538 592.463 657.692 591.119 659.169 590.156C660.657 589.183 662.392 588.697 664.375 588.697C665.519 588.697 666.649 588.888 667.764 589.269C668.88 589.651 669.895 590.27 670.81 591.128C671.726 591.977 672.455 593.102 672.998 594.503C673.542 595.905 673.814 597.63 673.814 599.68V601.11H656.881V598.193H670.381C670.381 596.954 670.133 595.848 669.638 594.875C669.151 593.903 668.456 593.135 667.55 592.573C666.654 592.01 665.595 591.729 664.375 591.729C663.031 591.729 661.868 592.063 660.886 592.73C659.913 593.388 659.165 594.246 658.64 595.304C658.116 596.362 657.854 597.497 657.854 598.708V600.653C657.854 602.312 658.14 603.718 658.712 604.871C659.293 606.016 660.099 606.888 661.129 607.489C662.158 608.08 663.355 608.375 664.718 608.375C665.605 608.375 666.406 608.251 667.121 608.003C667.845 607.746 668.47 607.365 668.994 606.859C669.519 606.344 669.924 605.706 670.21 604.943L673.47 605.858C673.127 606.964 672.55 607.937 671.74 608.776C670.93 609.605 669.928 610.253 668.737 610.721C667.545 611.178 666.206 611.407 664.718 611.407ZM688.501 588.983V591.843H677.117V588.983H688.501ZM680.435 583.72H683.81V604.657C683.81 605.61 683.948 606.325 684.225 606.802C684.511 607.269 684.873 607.584 685.311 607.746C685.76 607.898 686.231 607.975 686.727 607.975C687.099 607.975 687.404 607.956 687.642 607.918C687.881 607.87 688.072 607.832 688.215 607.803L688.901 610.835C688.672 610.921 688.353 611.007 687.943 611.092C687.533 611.188 687.013 611.235 686.384 611.235C685.431 611.235 684.496 611.03 683.581 610.62C682.675 610.21 681.922 609.586 681.322 608.747C680.73 607.908 680.435 606.85 680.435 605.572V583.72ZM697.982 602.712V602.54C698.001 600.719 698.192 599.27 698.554 598.193C698.916 597.116 699.431 596.243 700.099 595.576C700.766 594.909 701.567 594.294 702.501 593.731C703.064 593.388 703.569 592.983 704.017 592.516C704.465 592.039 704.818 591.491 705.075 590.871C705.342 590.251 705.476 589.565 705.476 588.812C705.476 587.877 705.256 587.067 704.818 586.38C704.379 585.694 703.793 585.165 703.059 584.793C702.325 584.421 701.51 584.235 700.613 584.235C699.832 584.235 699.078 584.397 698.354 584.722C697.629 585.046 697.024 585.556 696.538 586.252C696.051 586.948 695.77 587.858 695.694 588.983H692.09C692.166 587.362 692.586 585.975 693.349 584.822C694.121 583.668 695.136 582.786 696.395 582.176C697.663 581.566 699.069 581.261 700.613 581.261C702.291 581.261 703.75 581.594 704.989 582.262C706.238 582.929 707.201 583.844 707.878 585.008C708.565 586.171 708.908 587.496 708.908 588.983C708.908 590.032 708.746 590.981 708.422 591.829C708.107 592.678 707.649 593.436 707.049 594.103C706.458 594.77 705.743 595.361 704.904 595.876C704.065 596.401 703.393 596.954 702.887 597.535C702.382 598.107 702.015 598.789 701.786 599.58C701.557 600.371 701.433 601.358 701.414 602.54V602.712H697.982ZM699.813 611.178C699.107 611.178 698.502 610.926 697.996 610.42C697.491 609.915 697.238 609.31 697.238 608.604C697.238 607.898 697.491 607.293 697.996 606.788C698.502 606.282 699.107 606.03 699.813 606.03C700.518 606.03 701.123 606.282 701.629 606.788C702.134 607.293 702.387 607.898 702.387 608.604C702.387 609.071 702.268 609.5 702.029 609.891C701.8 610.282 701.491 610.597 701.1 610.835C700.718 611.064 700.289 611.178 699.813 611.178ZM741.031 589.713C740.898 588.464 740.335 587.491 739.344 586.795C738.362 586.099 737.084 585.751 735.511 585.751C734.405 585.751 733.457 585.918 732.665 586.252C731.874 586.585 731.269 587.038 730.849 587.61C730.43 588.182 730.215 588.835 730.205 589.57C730.205 590.18 730.344 590.709 730.62 591.157C730.906 591.605 731.292 591.986 731.779 592.301C732.265 592.606 732.803 592.864 733.395 593.073C733.986 593.283 734.582 593.459 735.182 593.602L737.928 594.289C739.034 594.546 740.097 594.894 741.117 595.333C742.147 595.771 743.067 596.324 743.877 596.992C744.697 597.659 745.345 598.465 745.822 599.409C746.299 600.352 746.537 601.458 746.537 602.726C746.537 604.442 746.098 605.954 745.221 607.26C744.344 608.556 743.076 609.572 741.417 610.306C739.768 611.03 737.771 611.393 735.425 611.393C733.147 611.393 731.168 611.04 729.49 610.334C727.822 609.629 726.516 608.599 725.572 607.245C724.638 605.892 724.132 604.242 724.056 602.297H729.276C729.352 603.317 729.667 604.166 730.22 604.843C730.773 605.52 731.493 606.025 732.379 606.359C733.275 606.692 734.276 606.859 735.382 606.859C736.536 606.859 737.547 606.688 738.414 606.344C739.291 605.992 739.978 605.505 740.473 604.886C740.969 604.257 741.222 603.522 741.231 602.683C741.222 601.921 740.998 601.291 740.559 600.796C740.121 600.29 739.506 599.871 738.714 599.537C737.933 599.194 737.017 598.889 735.969 598.622L732.637 597.764C730.225 597.144 728.318 596.205 726.916 594.947C725.524 593.679 724.828 591.996 724.828 589.898C724.828 588.173 725.296 586.662 726.23 585.365C727.174 584.068 728.456 583.063 730.077 582.348C731.698 581.623 733.533 581.261 735.583 581.261C737.661 581.261 739.482 581.623 741.046 582.348C742.619 583.063 743.853 584.059 744.749 585.336C745.646 586.604 746.108 588.063 746.137 589.713H741.031ZM751.038 610.949V588.983H756.215V610.949H751.038ZM753.641 585.866C752.821 585.866 752.116 585.594 751.524 585.05C750.933 584.498 750.638 583.835 750.638 583.063C750.638 582.281 750.933 581.618 751.524 581.075C752.116 580.522 752.821 580.245 753.641 580.245C754.47 580.245 755.176 580.522 755.758 581.075C756.349 581.618 756.644 582.281 756.644 583.063C756.644 583.835 756.349 584.498 755.758 585.05C755.176 585.594 754.47 585.866 753.641 585.866ZM771.092 619.644C769.233 619.644 767.636 619.392 766.301 618.886C764.966 618.391 763.894 617.723 763.083 616.884C762.273 616.045 761.71 615.116 761.396 614.096L766.058 612.966C766.268 613.395 766.573 613.819 766.973 614.239C767.373 614.668 767.912 615.02 768.589 615.297C769.275 615.583 770.138 615.726 771.177 615.726C772.646 615.726 773.861 615.368 774.824 614.653C775.787 613.948 776.269 612.785 776.269 611.164V607.002H776.011C775.744 607.536 775.353 608.084 774.838 608.647C774.333 609.209 773.661 609.681 772.822 610.063C771.993 610.444 770.949 610.635 769.69 610.635C768.003 610.635 766.472 610.239 765.1 609.448C763.736 608.647 762.649 607.455 761.839 605.873C761.038 604.28 760.638 602.288 760.638 599.895C760.638 597.483 761.038 595.447 761.839 593.788C762.649 592.12 763.741 590.857 765.114 589.999C766.487 589.131 768.017 588.697 769.704 588.697C770.992 588.697 772.05 588.916 772.879 589.355C773.718 589.784 774.386 590.304 774.881 590.914C775.377 591.514 775.754 592.082 776.011 592.616H776.297V588.983H781.403V611.307C781.403 613.185 780.954 614.739 780.058 615.969C779.162 617.199 777.937 618.119 776.383 618.729C774.829 619.339 773.065 619.644 771.092 619.644ZM771.135 606.573C772.231 606.573 773.165 606.306 773.938 605.772C774.71 605.239 775.296 604.471 775.697 603.47C776.097 602.469 776.297 601.268 776.297 599.866C776.297 598.484 776.097 597.273 775.697 596.234C775.306 595.195 774.724 594.389 773.952 593.817C773.189 593.235 772.25 592.945 771.135 592.945C769.981 592.945 769.018 593.245 768.246 593.846C767.474 594.446 766.892 595.271 766.501 596.32C766.11 597.359 765.915 598.541 765.915 599.866C765.915 601.21 766.11 602.388 766.501 603.398C766.902 604.4 767.488 605.181 768.26 605.744C769.042 606.297 770 606.573 771.135 606.573ZM791.885 598.079V610.949H786.708V588.983H791.656V592.716H791.914C792.419 591.486 793.225 590.509 794.331 589.784C795.446 589.059 796.824 588.697 798.463 588.697C799.979 588.697 801.3 589.021 802.425 589.67C803.559 590.318 804.436 591.257 805.056 592.487C805.685 593.717 805.995 595.209 805.986 596.963V610.949H800.809V597.764C800.809 596.296 800.427 595.147 799.665 594.317C798.912 593.488 797.868 593.073 796.533 593.073C795.627 593.073 794.822 593.273 794.116 593.674C793.42 594.065 792.872 594.632 792.471 595.376C792.081 596.119 791.885 597.02 791.885 598.079ZM835.238 601.711V588.983H840.415V610.949H835.395V607.045H835.167C834.671 608.275 833.856 609.281 832.721 610.063C831.596 610.844 830.209 611.235 828.56 611.235C827.12 611.235 825.847 610.916 824.741 610.277C823.645 609.629 822.787 608.69 822.167 607.46C821.547 606.221 821.238 604.724 821.238 602.969V588.983H826.415V602.169C826.415 603.561 826.796 604.666 827.559 605.486C828.321 606.306 829.322 606.716 830.562 606.716C831.324 606.716 832.063 606.53 832.778 606.159C833.493 605.787 834.08 605.234 834.537 604.5C835.005 603.756 835.238 602.826 835.238 601.711ZM845.739 619.187V588.983H850.83V592.616H851.13C851.397 592.082 851.774 591.514 852.26 590.914C852.746 590.304 853.404 589.784 854.233 589.355C855.063 588.916 856.121 588.697 857.408 588.697C859.105 588.697 860.635 589.131 861.999 589.999C863.372 590.857 864.458 592.129 865.259 593.817C866.07 595.495 866.475 597.554 866.475 599.995C866.475 602.407 866.079 604.457 865.288 606.144C864.497 607.832 863.419 609.119 862.056 610.005C860.693 610.892 859.148 611.335 857.422 611.335C856.164 611.335 855.12 611.126 854.29 610.706C853.461 610.287 852.794 609.781 852.288 609.19C851.793 608.59 851.406 608.022 851.13 607.489H850.915V619.187H845.739ZM850.815 599.966C850.815 601.387 851.016 602.631 851.416 603.699C851.826 604.767 852.412 605.601 853.175 606.201C853.947 606.793 854.882 607.088 855.978 607.088C857.122 607.088 858.08 606.783 858.852 606.173C859.625 605.553 860.206 604.709 860.597 603.642C860.998 602.564 861.198 601.339 861.198 599.966C861.198 598.603 861.002 597.392 860.611 596.334C860.221 595.276 859.639 594.446 858.867 593.846C858.095 593.245 857.132 592.945 855.978 592.945C854.872 592.945 853.933 593.235 853.161 593.817C852.388 594.398 851.802 595.214 851.402 596.262C851.011 597.311 850.815 598.546 850.815 599.966Z" fill="#0B5CD5"/>
<rect x="206.301" y="712.07" width="1491.63" height="160.943" rx="17.3566" fill="white"/>
<rect x="206.301" y="712.07" width="1491.63" height="160.943" rx="17.3566" stroke="#0B5CD5" stroke-width="3.15574"/>
<path d="M283.76 773.32H288.207V797.633C288.207 800.144 287.615 802.385 286.432 804.357C285.26 806.318 283.605 807.866 281.465 809.001C279.325 810.125 276.815 810.687 273.934 810.687C271.053 810.687 268.543 810.125 266.403 809.001C264.264 807.866 262.602 806.318 261.419 804.357C260.247 802.385 259.662 800.144 259.662 797.633V773.32H264.108V797.275C264.108 799.068 264.503 800.664 265.292 802.062C266.081 803.449 267.204 804.542 268.663 805.343C270.133 806.132 271.89 806.527 273.934 806.527C275.978 806.527 277.735 806.132 279.206 805.343C280.676 804.542 281.8 803.449 282.577 802.062C283.365 800.664 283.76 799.068 283.76 797.275V773.32ZM316.021 788.668L312.22 789.744C311.981 789.11 311.628 788.495 311.162 787.897C310.708 787.288 310.086 786.785 309.297 786.391C308.508 785.997 307.498 785.799 306.267 785.799C304.582 785.799 303.177 786.188 302.053 786.965C300.942 787.73 300.386 788.704 300.386 789.887C300.386 790.939 300.768 791.77 301.533 792.38C302.298 792.989 303.494 793.497 305.119 793.904L309.208 794.908C311.67 795.506 313.505 796.42 314.712 797.651C315.92 798.871 316.523 800.442 316.523 802.367C316.523 803.945 316.069 805.355 315.16 806.599C314.264 807.842 313.009 808.822 311.395 809.539C309.781 810.256 307.905 810.615 305.765 810.615C302.956 810.615 300.631 810.005 298.79 808.786C296.949 807.567 295.784 805.786 295.294 803.443L299.31 802.439C299.693 803.921 300.416 805.033 301.48 805.774C302.555 806.515 303.96 806.885 305.693 806.885C307.666 806.885 309.232 806.467 310.391 805.63C311.562 804.782 312.148 803.766 312.148 802.582C312.148 801.626 311.813 800.825 311.144 800.179C310.475 799.522 309.447 799.032 308.06 798.709L303.47 797.633C300.948 797.036 299.095 796.109 297.911 794.854C296.74 793.587 296.154 792.003 296.154 790.103C296.154 788.549 296.591 787.174 297.463 785.979C298.348 784.783 299.549 783.845 301.067 783.164C302.597 782.482 304.331 782.142 306.267 782.142C308.992 782.142 311.132 782.739 312.686 783.935C314.252 785.13 315.364 786.708 316.021 788.668ZM334.44 810.615C331.786 810.615 329.497 810.029 327.573 808.858C325.66 807.674 324.184 806.025 323.144 803.909C322.116 801.781 321.602 799.307 321.602 796.486C321.602 793.665 322.116 791.178 323.144 789.027C324.184 786.863 325.63 785.178 327.483 783.97C329.348 782.751 331.523 782.142 334.01 782.142C335.444 782.142 336.861 782.381 338.259 782.859C339.658 783.337 340.931 784.114 342.078 785.19C343.226 786.254 344.14 787.664 344.822 789.421C345.503 791.178 345.844 793.342 345.844 795.912V797.705H324.614V794.047H341.541C341.541 792.493 341.23 791.107 340.608 789.887C339.999 788.668 339.126 787.706 337.99 787.001C336.867 786.295 335.54 785.943 334.01 785.943C332.324 785.943 330.866 786.361 329.635 787.198C328.416 788.023 327.477 789.098 326.82 790.425C326.162 791.752 325.834 793.175 325.834 794.693V797.131C325.834 799.211 326.192 800.974 326.909 802.421C327.639 803.855 328.649 804.949 329.94 805.702C331.231 806.443 332.731 806.814 334.44 806.814C335.552 806.814 336.556 806.658 337.452 806.347C338.361 806.025 339.144 805.547 339.801 804.913C340.459 804.268 340.967 803.467 341.325 802.51L345.413 803.658C344.983 805.045 344.26 806.264 343.244 807.316C342.228 808.356 340.973 809.169 339.479 809.754C337.984 810.328 336.305 810.615 334.44 810.615ZM352.281 810.041V782.5H356.369V786.66H356.656C357.158 785.297 358.066 784.192 359.381 783.343C360.696 782.494 362.178 782.07 363.828 782.07C364.139 782.07 364.527 782.076 364.993 782.088C365.46 782.1 365.812 782.118 366.051 782.142V786.445C365.908 786.409 365.579 786.355 365.065 786.283C364.563 786.2 364.031 786.158 363.469 786.158C362.131 786.158 360.935 786.439 359.883 787.001C358.843 787.55 358.019 788.316 357.409 789.296C356.811 790.264 356.512 791.37 356.512 792.613V810.041H352.281ZM375.299 793.473V810.041H371.067V782.5H375.155V786.803H375.514C376.16 785.405 377.14 784.281 378.455 783.432C379.77 782.572 381.467 782.142 383.547 782.142C385.412 782.142 387.043 782.524 388.442 783.289C389.84 784.042 390.928 785.19 391.705 786.732C392.482 788.262 392.871 790.198 392.871 792.541V810.041H388.639V792.828C388.639 790.664 388.077 788.979 386.954 787.772C385.83 786.552 384.288 785.943 382.328 785.943C380.977 785.943 379.77 786.236 378.706 786.821C377.654 787.407 376.823 788.262 376.213 789.385C375.604 790.509 375.299 791.872 375.299 793.473ZM408.708 810.687C406.962 810.687 405.379 810.358 403.956 809.7C402.534 809.031 401.404 808.069 400.567 806.814C399.73 805.547 399.312 804.017 399.312 802.224C399.312 800.646 399.623 799.367 400.244 798.386C400.866 797.394 401.697 796.617 402.737 796.055C403.777 795.494 404.924 795.075 406.179 794.8C407.447 794.513 408.72 794.286 409.999 794.119C411.672 793.904 413.029 793.742 414.069 793.635C415.121 793.515 415.886 793.318 416.364 793.043C416.854 792.768 417.099 792.29 417.099 791.609V791.465C417.099 789.696 416.615 788.322 415.647 787.341C414.69 786.361 413.238 785.871 411.29 785.871C409.269 785.871 407.686 786.313 406.538 787.198C405.391 788.082 404.584 789.027 404.117 790.031L400.101 788.596C400.818 786.923 401.775 785.62 402.97 784.688C404.177 783.743 405.492 783.086 406.915 782.715C408.349 782.333 409.76 782.142 411.146 782.142C412.031 782.142 413.047 782.249 414.194 782.464C415.354 782.667 416.471 783.092 417.547 783.737C418.635 784.383 419.538 785.357 420.255 786.66C420.972 787.963 421.331 789.708 421.331 791.896V810.041H417.099V806.312H416.884C416.597 806.909 416.119 807.549 415.449 808.23C414.78 808.912 413.889 809.491 412.778 809.969C411.666 810.448 410.309 810.687 408.708 810.687ZM409.353 806.885C411.027 806.885 412.437 806.557 413.585 805.899C414.744 805.242 415.617 804.393 416.203 803.353C416.8 802.313 417.099 801.219 417.099 800.072V796.199C416.92 796.414 416.525 796.611 415.916 796.791C415.318 796.958 414.625 797.107 413.836 797.239C413.059 797.358 412.3 797.466 411.559 797.562C410.829 797.645 410.238 797.717 409.783 797.777C408.684 797.92 407.656 798.153 406.699 798.476C405.755 798.787 404.99 799.259 404.404 799.893C403.831 800.514 403.544 801.363 403.544 802.439C403.544 803.909 404.088 805.021 405.175 805.774C406.275 806.515 407.668 806.885 409.353 806.885ZM429.054 810.041V782.5H433.142V786.803H433.501C434.075 785.333 435.001 784.192 436.28 783.379C437.559 782.554 439.095 782.142 440.888 782.142C442.705 782.142 444.217 782.554 445.424 783.379C446.644 784.192 447.594 785.333 448.275 786.803H448.562C449.268 785.381 450.325 784.251 451.736 783.415C453.146 782.566 454.838 782.142 456.81 782.142C459.273 782.142 461.287 782.913 462.853 784.455C464.419 785.985 465.202 788.369 465.202 791.609V810.041H460.97V791.609C460.97 789.577 460.414 788.124 459.303 787.252C458.191 786.379 456.882 785.943 455.376 785.943C453.439 785.943 451.939 786.528 450.875 787.7C449.811 788.859 449.28 790.33 449.28 792.111V810.041H444.976V791.178C444.976 789.612 444.468 788.351 443.452 787.395C442.436 786.427 441.127 785.943 439.525 785.943C438.426 785.943 437.398 786.236 436.441 786.821C435.497 787.407 434.732 788.22 434.146 789.26C433.573 790.288 433.286 791.477 433.286 792.828V810.041H429.054ZM484.486 810.615C481.832 810.615 479.543 810.029 477.618 808.858C475.706 807.674 474.23 806.025 473.19 803.909C472.162 801.781 471.648 799.307 471.648 796.486C471.648 793.665 472.162 791.178 473.19 789.027C474.23 786.863 475.676 785.178 477.529 783.97C479.394 782.751 481.569 782.142 484.055 782.142C485.49 782.142 486.906 782.381 488.305 782.859C489.703 783.337 490.977 784.114 492.124 785.19C493.272 786.254 494.186 787.664 494.867 789.421C495.549 791.178 495.889 793.342 495.889 795.912V797.705H474.66V794.047H491.586C491.586 792.493 491.275 791.107 490.654 789.887C490.044 788.668 489.172 787.706 488.036 787.001C486.912 786.295 485.585 785.943 484.055 785.943C482.37 785.943 480.912 786.361 479.68 787.198C478.461 788.023 477.523 789.098 476.865 790.425C476.208 791.752 475.879 793.175 475.879 794.693V797.131C475.879 799.211 476.238 800.974 476.955 802.421C477.684 803.855 478.694 804.949 479.985 805.702C481.276 806.443 482.776 806.814 484.486 806.814C485.597 806.814 486.602 806.658 487.498 806.347C488.407 806.025 489.189 805.547 489.847 804.913C490.504 804.268 491.012 803.467 491.371 802.51L495.459 803.658C495.029 805.045 494.306 806.264 493.29 807.316C492.274 808.356 491.018 809.169 489.524 809.754C488.03 810.328 486.351 810.615 484.486 810.615Z" fill="#A0A0A0"/>
<rect x="206.301" y="956.711" width="1491.63" height="160.943" rx="17.3566" fill="white"/>
<rect x="206.301" y="956.711" width="1491.63" height="160.943" rx="17.3566" stroke="#0B5CD5" stroke-width="3.15574"/>
<path d="M259.662 1054.68V1017.96H272.069C274.95 1017.96 277.305 1018.48 279.134 1019.52C280.975 1020.55 282.337 1021.94 283.222 1023.7C284.107 1025.46 284.549 1027.42 284.549 1029.58C284.549 1031.74 284.107 1033.71 283.222 1035.48C282.349 1037.25 280.999 1038.66 279.17 1039.71C277.341 1040.75 274.998 1041.27 272.141 1041.27H263.248V1037.33H271.998C273.97 1037.33 275.554 1036.98 276.749 1036.3C277.945 1035.62 278.811 1034.7 279.349 1033.54C279.899 1032.37 280.174 1031.05 280.174 1029.58C280.174 1028.11 279.899 1026.79 279.349 1025.63C278.811 1024.48 277.939 1023.57 276.731 1022.91C275.524 1022.24 273.922 1021.91 271.926 1021.91H264.108V1054.68H259.662ZM299.243 1055.33C297.498 1055.33 295.914 1055 294.491 1054.34C293.069 1053.67 291.939 1052.71 291.102 1051.45C290.266 1050.19 289.847 1048.66 289.847 1046.86C289.847 1045.29 290.158 1044.01 290.78 1043.03C291.401 1042.04 292.232 1041.26 293.272 1040.7C294.312 1040.13 295.46 1039.72 296.715 1039.44C297.982 1039.15 299.255 1038.93 300.534 1038.76C302.207 1038.54 303.564 1038.38 304.604 1038.28C305.656 1038.16 306.421 1037.96 306.899 1037.68C307.389 1037.41 307.634 1036.93 307.634 1036.25V1036.11C307.634 1034.34 307.15 1032.96 306.182 1031.98C305.226 1031 303.773 1030.51 301.825 1030.51C299.805 1030.51 298.221 1030.95 297.073 1031.84C295.926 1032.72 295.119 1033.67 294.653 1034.67L290.636 1033.24C291.353 1031.56 292.31 1030.26 293.505 1029.33C294.712 1028.38 296.027 1027.73 297.45 1027.36C298.884 1026.97 300.295 1026.78 301.681 1026.78C302.566 1026.78 303.582 1026.89 304.73 1027.11C305.889 1027.31 307.007 1027.73 308.082 1028.38C309.17 1029.02 310.073 1030 310.79 1031.3C311.507 1032.6 311.866 1034.35 311.866 1036.54V1054.68H307.634V1050.95H307.419C307.132 1051.55 306.654 1052.19 305.985 1052.87C305.315 1053.55 304.425 1054.13 303.313 1054.61C302.201 1055.09 300.845 1055.33 299.243 1055.33ZM299.888 1051.53C301.562 1051.53 302.972 1051.2 304.12 1050.54C305.279 1049.88 306.152 1049.03 306.738 1047.99C307.335 1046.95 307.634 1045.86 307.634 1044.71V1040.84C307.455 1041.06 307.06 1041.25 306.451 1041.43C305.853 1041.6 305.16 1041.75 304.371 1041.88C303.594 1042 302.835 1042.11 302.094 1042.2C301.365 1042.29 300.773 1042.36 300.319 1042.42C299.219 1042.56 298.191 1042.79 297.235 1043.12C296.29 1043.43 295.525 1043.9 294.94 1044.53C294.366 1045.16 294.079 1046 294.079 1047.08C294.079 1048.55 294.623 1049.66 295.711 1050.41C296.81 1051.16 298.203 1051.53 299.888 1051.53ZM339.098 1033.31L335.296 1034.38C335.057 1033.75 334.705 1033.14 334.238 1032.54C333.784 1031.93 333.163 1031.43 332.374 1031.03C331.585 1030.64 330.575 1030.44 329.343 1030.44C327.658 1030.44 326.253 1030.83 325.13 1031.61C324.018 1032.37 323.462 1033.35 323.462 1034.53C323.462 1035.58 323.845 1036.41 324.61 1037.02C325.375 1037.63 326.57 1038.14 328.196 1038.54L332.284 1039.55C334.746 1040.15 336.581 1041.06 337.789 1042.29C338.996 1043.51 339.6 1045.08 339.6 1047.01C339.6 1048.59 339.145 1050 338.237 1051.24C337.34 1052.48 336.085 1053.46 334.471 1054.18C332.858 1054.9 330.981 1055.26 328.841 1055.26C326.032 1055.26 323.707 1054.65 321.866 1053.43C320.026 1052.21 318.86 1050.43 318.37 1048.08L322.386 1047.08C322.769 1048.56 323.492 1049.67 324.556 1050.41C325.632 1051.16 327.036 1051.53 328.77 1051.53C330.742 1051.53 332.308 1051.11 333.467 1050.27C334.639 1049.42 335.225 1048.41 335.225 1047.22C335.225 1046.27 334.89 1045.47 334.22 1044.82C333.551 1044.16 332.523 1043.67 331.136 1043.35L326.546 1042.27C324.024 1041.68 322.171 1040.75 320.988 1039.5C319.816 1038.23 319.231 1036.64 319.231 1034.74C319.231 1033.19 319.667 1031.81 320.54 1030.62C321.424 1029.42 322.625 1028.49 324.144 1027.8C325.674 1027.12 327.407 1026.78 329.343 1026.78C332.069 1026.78 334.209 1027.38 335.762 1028.58C337.328 1029.77 338.44 1031.35 339.098 1033.31ZM365.478 1033.31L361.676 1034.38C361.437 1033.75 361.085 1033.14 360.618 1032.54C360.164 1031.93 359.543 1031.43 358.754 1031.03C357.965 1030.64 356.955 1030.44 355.723 1030.44C354.038 1030.44 352.633 1030.83 351.51 1031.61C350.398 1032.37 349.842 1033.35 349.842 1034.53C349.842 1035.58 350.225 1036.41 350.99 1037.02C351.755 1037.63 352.95 1038.14 354.576 1038.54L358.664 1039.55C361.126 1040.15 362.961 1041.06 364.169 1042.29C365.376 1043.51 365.98 1045.08 365.98 1047.01C365.98 1048.59 365.525 1050 364.617 1051.24C363.72 1052.48 362.465 1053.46 360.852 1054.18C359.238 1054.9 357.361 1055.26 355.221 1055.26C352.412 1055.26 350.087 1054.65 348.246 1053.43C346.406 1052.21 345.24 1050.43 344.75 1048.08L348.766 1047.08C349.149 1048.56 349.872 1049.67 350.936 1050.41C352.012 1051.16 353.416 1051.53 355.15 1051.53C357.122 1051.53 358.688 1051.11 359.847 1050.27C361.019 1049.42 361.605 1048.41 361.605 1047.22C361.605 1046.27 361.27 1045.47 360.6 1044.82C359.931 1044.16 358.903 1043.67 357.516 1043.35L352.926 1042.27C350.404 1041.68 348.551 1040.75 347.368 1039.5C346.196 1038.23 345.611 1036.64 345.611 1034.74C345.611 1033.19 346.047 1031.81 346.92 1030.62C347.804 1029.42 349.006 1028.49 350.524 1027.8C352.054 1027.12 353.787 1026.78 355.723 1026.78C358.449 1026.78 360.589 1027.38 362.142 1028.58C363.708 1029.77 364.82 1031.35 365.478 1033.31ZM378.589 1054.68L370.198 1027.14H374.644L380.597 1048.23H380.884L386.765 1027.14H391.284L397.093 1048.16H397.38L403.333 1027.14H407.78L399.388 1054.68H395.228L389.204 1033.52H388.774L382.749 1054.68H378.589ZM423.626 1055.26C421.139 1055.26 418.958 1054.66 417.081 1053.48C415.216 1052.3 413.758 1050.64 412.706 1048.51C411.666 1046.39 411.146 1043.9 411.146 1041.06C411.146 1038.19 411.666 1035.68 412.706 1033.54C413.758 1031.4 415.216 1029.74 417.081 1028.56C418.958 1027.37 421.139 1026.78 423.626 1026.78C426.112 1026.78 428.288 1027.37 430.152 1028.56C432.029 1029.74 433.487 1031.4 434.527 1033.54C435.579 1035.68 436.105 1038.19 436.105 1041.06C436.105 1043.9 435.579 1046.39 434.527 1048.51C433.487 1050.64 432.029 1052.3 430.152 1053.48C428.288 1054.66 426.112 1055.26 423.626 1055.26ZM423.626 1051.45C425.514 1051.45 427.068 1050.97 428.288 1050C429.507 1049.03 430.409 1047.76 430.995 1046.18C431.581 1044.61 431.874 1042.9 431.874 1041.06C431.874 1039.21 431.581 1037.5 430.995 1035.91C430.409 1034.32 429.507 1033.03 428.288 1032.05C427.068 1031.07 425.514 1030.58 423.626 1030.58C421.737 1030.58 420.183 1031.07 418.964 1032.05C417.745 1033.03 416.842 1034.32 416.256 1035.91C415.671 1037.5 415.378 1039.21 415.378 1041.06C415.378 1042.9 415.671 1044.61 416.256 1046.18C416.842 1047.76 417.745 1049.03 418.964 1050C420.183 1050.97 421.737 1051.45 423.626 1051.45ZM442.565 1054.68V1027.14H446.653V1031.3H446.94C447.442 1029.94 448.35 1028.83 449.665 1027.98C450.98 1027.14 452.462 1026.71 454.112 1026.71C454.423 1026.71 454.811 1026.72 455.277 1026.73C455.743 1026.74 456.096 1026.76 456.335 1026.78V1031.09C456.192 1031.05 455.863 1031 455.349 1030.92C454.847 1030.84 454.315 1030.8 453.753 1030.8C452.414 1030.8 451.219 1031.08 450.167 1031.64C449.127 1032.19 448.302 1032.96 447.693 1033.94C447.095 1034.9 446.796 1036.01 446.796 1037.25V1054.68H442.565ZM470.912 1055.26C468.617 1055.26 466.591 1054.68 464.834 1053.52C463.077 1052.35 461.702 1050.7 460.71 1048.57C459.718 1046.43 459.222 1043.9 459.222 1040.98C459.222 1038.09 459.718 1035.58 460.71 1033.45C461.702 1031.32 463.083 1029.68 464.852 1028.52C466.621 1027.36 468.665 1026.78 470.984 1026.78C472.777 1026.78 474.194 1027.08 475.234 1027.68C476.286 1028.26 477.087 1028.93 477.636 1029.69C478.198 1030.43 478.634 1031.04 478.945 1031.52H479.304V1017.96H483.535V1054.68H479.447V1050.45H478.945C478.634 1050.95 478.192 1051.59 477.618 1052.35C477.045 1053.1 476.226 1053.78 475.162 1054.38C474.098 1054.96 472.682 1055.26 470.912 1055.26ZM471.486 1051.45C473.184 1051.45 474.618 1051.01 475.79 1050.13C476.961 1049.23 477.852 1047.99 478.461 1046.42C479.071 1044.83 479.376 1042.99 479.376 1040.91C479.376 1038.86 479.077 1037.06 478.479 1035.51C477.881 1033.96 476.997 1032.75 475.825 1031.89C474.654 1031.02 473.208 1030.58 471.486 1030.58C469.693 1030.58 468.199 1031.04 467.004 1031.96C465.82 1032.87 464.93 1034.11 464.332 1035.68C463.746 1037.23 463.453 1038.98 463.453 1040.91C463.453 1042.87 463.752 1044.65 464.35 1046.25C464.96 1047.84 465.856 1049.11 467.04 1050.06C468.235 1050.99 469.717 1051.45 471.486 1051.45Z" fill="#A0A0A0"/>
<rect x="223.205" y="742.205" width="322.591" height="101.591" rx="9.61364" fill="#FF6060" fill-opacity="0.15"/>
<rect x="223.205" y="742.205" width="322.591" height="101.591" rx="9.61364" stroke="#FF6060" stroke-width="6.40909"/>
<rect x="223.205" y="986.205" width="322.591" height="101.591" rx="9.61364" fill="#FF6060" fill-opacity="0.15"/>
<rect x="223.205" y="986.205" width="322.591" height="101.591" rx="9.61364" stroke="#FF6060" stroke-width="6.40909"/>
</svg>
