<svg width="52" height="24" viewBox="0 0 52 24" fill="none" xmlns="http://www.w3.org/2000/svg">
<path d="M6.384 0.111999C7.424 0.111999 8.304 0.287999 9.024 0.639999C9.76 0.991999 10.128 1.44 10.128 1.984C10.128 2.224 10.064 2.432 9.936 2.608C9.824 2.784 9.648 2.872 9.408 2.872C9.184 2.872 8.688 2.696 7.92 2.344C7.152 1.976 6.448 1.792 5.808 1.792C5.184 1.792 4.536 1.992 3.864 2.392C3.192 2.792 2.856 3.28 2.856 3.856C2.856 4.64 3.264 5.216 4.08 5.584C4.688 5.856 5.56 6.104 6.696 6.328C7.832 6.536 8.76 6.976 9.48 7.648C10.2 8.304 10.56 9.304 10.56 10.648C10.56 12.696 9.944 14.208 8.712 15.184C8.024 15.728 7.048 16 5.784 16C4.536 16 3.288 15.656 2.04 14.968C1.224 14.536 0.816 14.104 0.816 13.672C0.816 13.512 0.88 13.336 1.008 13.144C1.152 12.952 1.344 12.792 1.584 12.664C1.824 12.536 2.04 12.52 2.232 12.616C2.44 12.696 2.768 12.848 3.216 13.072C3.664 13.296 3.992 13.448 4.2 13.528C4.872 13.784 5.504 13.912 6.096 13.912C6.688 13.912 7.256 13.624 7.8 13.048C8.36 12.456 8.64 11.736 8.64 10.888C8.64 9.768 8.08 8.984 6.96 8.536C6.416 8.312 5.8 8.144 5.112 8.032C3.688 7.776 2.616 7.352 1.896 6.76C1.176 6.152 0.816 5.24 0.816 4.024C0.816 2.808 1.336 1.856 2.376 1.168C3.416 0.463999 4.752 0.111999 6.384 0.111999ZM19.5836 4.792C20.2876 4.792 20.6396 5.392 20.6396 6.592C20.6396 6.72 20.6396 6.856 20.6396 7L20.5916 8.68C20.5756 9.208 20.5676 9.728 20.5676 10.24L20.9276 15.664C20.9276 16.064 20.5196 16.264 19.7036 16.264C19.6556 16.264 19.5356 16.264 19.3436 16.264C19.1676 16.264 19.0396 16.192 18.9596 16.048C18.8956 15.904 18.8876 15.728 18.9356 15.52C18.9996 15.312 18.9836 15.08 18.8876 14.824C18.1516 15.608 17.1756 16 15.9596 16C13.7036 16 12.5756 14.256 12.5756 10.768C12.5756 8.832 12.9356 7.368 13.6556 6.376C14.3916 5.384 15.4396 4.888 16.7996 4.888C17.4396 4.888 18.0796 5 18.7196 5.224C18.9276 4.936 19.2156 4.792 19.5836 4.792ZM17.0876 6.976C16.1756 6.976 15.4956 7.24 15.0476 7.768C14.5996 8.296 14.3756 9.264 14.3756 10.672C14.3756 13.04 15.0156 14.224 16.2956 14.224C16.6316 14.224 16.9996 14.072 17.3996 13.768C17.8156 13.464 18.1036 13.12 18.2636 12.736C18.5676 11.872 18.7196 10.928 18.7196 9.904C18.7196 8.88 18.5916 8.136 18.3356 7.672C18.0956 7.208 17.6796 6.976 17.0876 6.976ZM29.9181 14.872C29.9181 15.656 29.4941 16.048 28.6461 16.048C28.4701 16.048 28.3101 15.976 28.1661 15.832C28.0381 15.672 27.9741 15.432 27.9741 15.112L27.9021 9.016C27.9021 7 27.9261 5.104 27.9741 3.328C27.4301 3.808 26.9021 4.36 26.3901 4.984C25.8781 5.608 25.5261 6.024 25.3341 6.232C25.1581 6.44 24.9181 6.648 24.6141 6.856C24.3261 7.048 24.0541 7.144 23.7981 7.144C23.5421 7.144 23.3341 7.056 23.1741 6.88C23.0301 6.704 22.9581 6.488 22.9581 6.232C22.9581 5.976 23.1421 5.632 23.5101 5.2C23.8941 4.752 25.2861 3.256 27.6861 0.711999C28.0541 0.375999 28.5181 0.207999 29.0781 0.207999C29.3501 0.207999 29.5741 0.287999 29.7501 0.448C29.9261 0.608 30.0141 0.792 30.0141 1L29.8461 7.456L29.9181 14.872ZM39.5968 14.872C39.5968 15.656 39.1728 16.048 38.3248 16.048C38.1488 16.048 37.9888 15.976 37.8448 15.832C37.7168 15.672 37.6528 15.432 37.6528 15.112L37.5808 9.016C37.5808 7 37.6048 5.104 37.6528 3.328C37.1088 3.808 36.5808 4.36 36.0688 4.984C35.5568 5.608 35.2048 6.024 35.0128 6.232C34.8368 6.44 34.5968 6.648 34.2928 6.856C34.0048 7.048 33.7328 7.144 33.4768 7.144C33.2208 7.144 33.0128 7.056 32.8528 6.88C32.7088 6.704 32.6368 6.488 32.6368 6.232C32.6368 5.976 32.8208 5.632 33.1888 5.2C33.5728 4.752 34.9648 3.256 37.3648 0.711999C37.7328 0.375999 38.1968 0.207999 38.7568 0.207999C39.0288 0.207999 39.2528 0.287999 39.4288 0.448C39.6048 0.608 39.6928 0.792 39.6928 1L39.5248 7.456L39.5968 14.872ZM50.2596 4.912C50.4676 4.912 50.6676 4.984 50.8596 5.128C51.0676 5.272 51.1716 5.432 51.1716 5.608C51.1716 6.072 50.4916 8.584 49.1316 13.144C47.7716 17.704 46.7636 20.904 46.1076 22.744C45.9636 23.176 45.7396 23.392 45.4356 23.392C45.1316 23.392 44.8916 23.28 44.7156 23.056C44.5396 22.848 44.4516 22.536 44.4516 22.12C44.4516 21.704 44.7156 20.704 45.2436 19.12C45.7876 17.552 46.1156 16.552 46.2276 16.12C45.8276 15.448 44.4756 12.088 42.1716 6.04C42.1396 5.96 42.1236 5.856 42.1236 5.728C42.1236 5.6 42.2196 5.432 42.4116 5.224C42.6036 5.016 42.8676 4.912 43.2036 4.912C43.5396 4.912 43.8116 5.08 44.0196 5.416C44.2436 5.992 44.6116 7 45.1236 8.44C45.6356 9.864 46.0276 10.896 46.2996 11.536C46.5876 12.176 46.8596 12.84 47.1156 13.528C47.3396 12.776 47.7236 11.32 48.2676 9.16C48.8116 6.984 49.1236 5.744 49.2036 5.44C49.2676 5.088 49.6196 4.912 50.2596 4.912Z" fill="#412980"/>
</svg>
