<svg width="17" height="17" viewBox="0 0 17 17" fill="none" xmlns="http://www.w3.org/2000/svg">
<path d="M8.74938 12.6399C8.73792 12.9376 8.68066 13.4072 8.44014 13.9226C8.38288 14.0371 8.01638 14.8389 7.20321 15.3657C6.0579 16.1102 4.25976 16.1789 3.09155 15.2054C2.03787 14.3235 1.94624 12.9491 1.92334 12.4452C1.87752 11.6664 2.03787 10.9563 2.28983 9.91403C2.58761 8.65419 2.89685 8.03573 2.55326 7.42871C2.39291 7.14238 2.25547 7.16529 1.87752 6.67281C1.45376 6.13451 1.2247 5.59622 1.13307 5.36715C0.743666 4.25621 1.35068 2.87038 1.96915 2.06867C3.09155 0.614123 4.83242 0.362156 6.19534 0.167453C7.39791 -0.00434322 9.68853 -0.336483 11.0858 0.980622C11.7501 1.61054 12.2884 2.67568 12.3571 2.80166C12.7809 3.6721 12.6663 3.8668 13.0672 4.53108C13.5826 5.37861 13.972 5.36715 14.7508 6.2834C15.0944 6.68426 15.6785 7.3829 16.0106 8.41368C16.4459 9.76514 16.1824 10.9334 16.0679 11.4144C15.8961 12.1359 15.7243 12.846 15.1058 13.4645C14.3156 14.2318 13.3192 14.3349 12.9298 14.3807C10.6964 14.6098 9.02425 12.9147 8.74938 12.6399Z" fill="#412980"/>
<path d="M2.6792 4.87467C2.88535 4.48527 3.19459 4.00424 3.64126 3.53466C4.62623 2.49243 5.74863 2.05721 6.37855 1.87396C6.37855 2.33209 6.44727 3.04218 6.76795 3.82099C6.90539 4.16458 7.11155 4.67997 7.55822 5.12664C8.46301 6.04289 9.7343 6.0887 10.1466 6.0887C10.2153 5.96272 10.3757 5.71075 10.6735 5.60767C11.1888 5.43587 11.7042 5.85964 11.9448 6.18033C12.2998 6.67281 12.38 7.47452 11.9218 8.00137C11.5439 8.43658 11.0056 8.47094 10.8796 8.47094C10.4558 9.37574 10.3184 10.1431 10.2726 10.647C10.2382 10.9906 10.2039 11.38 10.2955 11.8725C10.4444 12.7429 10.8567 13.3614 11.1316 13.6936C11.0171 13.8195 10.8109 14.0028 10.5017 14.1288C9.97482 14.3464 9.49379 14.2433 9.32199 14.1975C9.05857 13.7737 8.79515 13.35 8.54318 12.9262C8.29121 13.0293 7.92472 13.1553 7.46659 13.2011C7.24898 13.224 6.3671 13.3041 5.41649 12.8689C4.03067 12.2276 3.48092 10.9219 3.30912 10.5096C3.16023 10.1545 3.03425 9.74224 2.8739 7.64632C2.74792 6.50101 2.70211 5.53895 2.6792 4.87467Z" fill="white"/>
<path d="M9.21911 12.5826C9.21911 12.5826 9.18475 12.617 9.11603 12.6742C9.08168 12.6971 9.03586 12.7315 8.9786 12.7659C8.92133 12.8002 8.86407 12.8346 8.7839 12.8804C8.49757 13.0407 8.03944 13.224 7.44388 13.2927C6.85978 13.3729 6.11533 13.3156 5.39378 12.9949C4.67224 12.6742 3.96215 12.1016 3.51548 11.2999C3.28641 10.899 3.13752 10.4752 3.03444 10.0629C2.93137 9.65061 2.8741 9.2383 2.83974 8.8489C2.77103 8.07009 2.74812 7.37145 2.72521 6.78734C2.70231 6.20323 2.6794 5.7222 2.6794 5.40151C2.66794 5.06937 2.66795 4.89758 2.69085 4.88613C2.7023 4.88613 2.72521 5.06937 2.75957 5.39006C2.79393 5.7222 2.82829 6.19178 2.8741 6.77589C2.91991 7.35999 2.95427 8.05863 3.03444 8.82599C3.12607 9.58189 3.27496 10.4294 3.71018 11.1968C4.13394 11.9641 4.80967 12.5139 5.49686 12.8231C6.18404 13.1438 6.89414 13.2011 7.46679 13.1438C8.03945 13.0865 8.48612 12.9262 8.7839 12.7888C9.05877 12.6742 9.20766 12.5711 9.21911 12.5826Z" fill="#412980" stroke="#412980" stroke-width="0.0572654" stroke-miterlimit="10"/>
<path d="M9.29885 14.2089C9.26449 14.2433 9.00107 14.0142 8.79491 13.6477C8.58876 13.2812 8.53149 12.9376 8.5773 12.9262C8.62311 12.9147 8.76055 13.2125 8.95526 13.5561C9.14996 13.9112 9.33321 14.1746 9.29885 14.2089Z" fill="#412980" stroke="#412980" stroke-width="0.0572654" stroke-miterlimit="10"/>
<path d="M7.99342 9.91403C8.01633 9.91403 8.02778 10.0858 7.9247 10.3378C7.83308 10.5783 7.60402 10.9105 7.23752 11.1052C6.87102 11.2999 6.47016 11.3113 6.21819 11.254C5.95477 11.1968 5.81733 11.0937 5.82879 11.0708C5.84024 11.0479 5.98913 11.0937 6.22965 11.1166C6.47016 11.1395 6.81375 11.1052 7.14589 10.9334C7.46658 10.7616 7.68419 10.4867 7.79872 10.2691C7.9247 10.0629 7.95906 9.91403 7.99342 9.91403Z" fill="#412980" stroke="#412980" stroke-width="0.0572654" stroke-miterlimit="10"/>
<path d="M6.14945 10.2233C6.14945 10.2347 6.08074 10.2462 5.9662 10.2462C5.85167 10.2462 5.66842 10.2462 5.46227 10.1431C5.35919 10.0858 5.25611 10.0171 5.17594 9.89113C5.14158 9.83386 5.11868 9.75369 5.10722 9.68497C5.09577 9.6048 5.09577 9.53608 5.10722 9.46736C5.13013 9.19249 5.17594 8.88325 5.22175 8.56257C5.42791 7.29128 5.79441 6.30631 5.84022 6.31776C5.89749 6.32922 5.61116 7.33709 5.405 8.59693C5.34774 8.90616 5.31338 9.21539 5.27902 9.49027C5.25611 9.6277 5.26756 9.73078 5.31338 9.82241C5.35919 9.91403 5.43936 9.98275 5.51953 10.04C5.67988 10.1431 5.85167 10.166 5.9662 10.1775C6.09219 10.1889 6.14945 10.2004 6.14945 10.2233Z" fill="#412980" stroke="#412980" stroke-width="0.0572654" stroke-miterlimit="10"/>
<path d="M4.51145 8.52821C4.46564 8.55111 4.3053 8.29915 4.17932 7.95555C4.05333 7.61196 4.01897 7.32563 4.06478 7.30273C4.1106 7.29127 4.22513 7.55469 4.35111 7.88683C4.4771 8.23043 4.55727 8.5053 4.51145 8.52821Z" fill="#412980" stroke="#412980" stroke-width="0.0572654" stroke-miterlimit="10"/>
<path d="M7.40928 8.29915C7.36346 8.33351 7.18021 8.1388 7.05423 7.84102C6.92825 7.54324 6.9168 7.27982 6.96261 7.26837C7.01987 7.25692 7.10004 7.49743 7.22603 7.7723C7.34056 8.03573 7.45509 8.26479 7.40928 8.29915Z" fill="#412980" stroke="#412980" stroke-width="0.0572654" stroke-miterlimit="10"/>
<path d="M4.80929 6.07725C4.78638 6.0887 4.70621 6.00853 4.58023 5.894C4.45424 5.77947 4.27099 5.61912 4.03048 5.53895C3.80142 5.47023 3.5609 5.5275 3.42346 5.60767C3.28603 5.68784 3.22876 5.79092 3.20586 5.77947C3.1944 5.77947 3.1944 5.74511 3.20586 5.68784C3.21731 5.63058 3.26312 5.56186 3.34329 5.49314C3.49218 5.3557 3.77851 5.26408 4.07629 5.3557C4.37407 5.44733 4.55732 5.65348 4.67185 5.80237C4.79784 5.96272 4.83219 6.06579 4.80929 6.07725Z" fill="#412980" stroke="#412980" stroke-width="0.0572654" stroke-miterlimit="10"/>
<path d="M8.27978 6.30631C8.25687 6.35212 7.90183 6.19178 7.4437 6.15742C6.98558 6.11161 6.60763 6.20323 6.59618 6.14596C6.58472 6.12306 6.67635 6.06579 6.83669 6.01998C6.99703 5.97417 7.21464 5.93981 7.46661 5.96271C7.71858 5.98562 7.93619 6.05434 8.07362 6.13451C8.22251 6.21468 8.29123 6.2834 8.27978 6.30631Z" fill="#412980" stroke="#412980" stroke-width="0.0572654" stroke-miterlimit="10"/>
<path d="M10.8795 8.4824C10.8795 8.47094 10.9596 8.47094 11.0971 8.45949C11.2231 8.43658 11.4178 8.37932 11.601 8.24188C11.7843 8.10444 11.9561 7.86393 12.0248 7.5547C12.0935 7.25692 12.0935 6.89042 11.979 6.54682C11.8644 6.20323 11.6583 5.9169 11.3834 5.76801C11.12 5.61912 10.8222 5.63058 10.5931 5.6993C10.3641 5.76801 10.2152 5.894 10.1121 5.98562C10.0205 6.07725 9.97467 6.14597 9.96321 6.14597C9.95176 6.14597 9.97467 6.06579 10.0548 5.93981C10.135 5.82528 10.2954 5.66494 10.5473 5.57331C10.6733 5.5275 10.8107 5.49314 10.9711 5.49314C11.1314 5.49314 11.3032 5.5275 11.4636 5.60767C11.7843 5.76801 12.0362 6.10015 12.1508 6.4781C12.2767 6.85606 12.2767 7.24546 12.1851 7.58906C12.1393 7.76085 12.0706 7.90974 11.979 8.03573C11.8873 8.16171 11.7843 8.26479 11.6697 8.33351C11.4521 8.4824 11.2345 8.52821 11.0856 8.51676C10.9482 8.52821 10.868 8.49385 10.8795 8.4824Z" fill="#412980" stroke="#412980" stroke-width="0.0572654" stroke-miterlimit="10"/>
<path d="M11.8073 14.0028C11.8073 14.0142 11.7156 14.0257 11.5553 13.9799C11.3949 13.9455 11.1773 13.8424 10.9597 13.6477C10.7421 13.453 10.5474 13.1438 10.41 12.7888C10.2725 12.4223 10.2038 12.0099 10.1695 11.5747C10.1351 11.1395 10.1695 10.7157 10.2267 10.3378C10.2955 9.95985 10.3871 9.63916 10.5016 9.36428C10.7078 8.82599 10.9254 8.53966 10.9483 8.55111C10.9712 8.56257 10.7994 8.8718 10.6276 9.4101C10.536 9.67352 10.4558 9.9942 10.3985 10.3607C10.3413 10.7272 10.3298 11.1281 10.3527 11.5518C10.3871 11.9756 10.4558 12.3764 10.5703 12.72C10.6849 13.0636 10.8567 13.35 11.0514 13.5447C11.2461 13.7394 11.4408 13.8539 11.5782 13.9112C11.7156 13.9799 11.8073 13.9913 11.8073 14.0028Z" fill="#412980" stroke="#412980" stroke-width="0.0572654" stroke-miterlimit="10"/>
<path d="M6.42441 1.88542C6.43586 1.91978 6.14953 1.99995 5.72577 2.1832C5.62269 2.22901 5.50816 2.28628 5.38217 2.34354C5.25619 2.40081 5.13021 2.48098 5.00422 2.56115C4.7408 2.72149 4.46593 2.9162 4.19105 3.14526C3.92763 3.37432 3.68712 3.61483 3.48096 3.84389C3.38934 3.95843 3.28626 4.07296 3.20609 4.18749C3.12592 4.29056 3.04574 4.4051 2.98848 4.49672C2.73651 4.88613 2.61053 5.14955 2.57617 5.13809C2.55326 5.12664 2.64489 4.84031 2.87395 4.428C2.93121 4.32492 2.99993 4.21039 3.0801 4.09586C3.16027 3.98133 3.2519 3.85535 3.34353 3.72936C3.54968 3.48885 3.77874 3.22543 4.06507 2.99637C4.33994 2.75585 4.63772 2.56115 4.9126 2.41226C5.05003 2.33209 5.18747 2.26337 5.31345 2.2061C5.43944 2.14884 5.56542 2.10303 5.67996 2.05721C6.12663 1.90832 6.41295 1.86251 6.42441 1.88542Z" fill="#412980" stroke="#412980" stroke-width="0.0572654" stroke-miterlimit="10"/>
<path d="M10.1236 6.10015C10.1236 6.11161 10.0434 6.14596 9.88307 6.16887C9.72273 6.19178 9.48221 6.20323 9.18443 6.15742C8.88665 6.11161 8.55451 5.99707 8.21092 5.79092C7.86733 5.59622 7.53518 5.30989 7.26031 4.94339C6.98544 4.57689 6.79074 4.18749 6.66475 3.82099C6.53877 3.45449 6.4586 3.1109 6.41278 2.82457C6.33261 2.24046 6.34407 1.88542 6.36697 1.88542C6.40133 1.88542 6.42424 2.24046 6.53877 2.80166C6.59603 3.07654 6.68766 3.40868 6.81364 3.76372C6.95108 4.11877 7.13433 4.48527 7.39775 4.82886C7.66117 5.17245 7.9704 5.44733 8.29109 5.64203C8.61178 5.83673 8.92101 5.96272 9.19589 6.01998C9.76854 6.14596 10.1236 6.05434 10.1236 6.10015Z" fill="#412980" stroke="#412980" stroke-width="0.0572654" stroke-miterlimit="10"/>
<path d="M13.6856 14.1631C13.6741 14.1402 14.0979 14.0028 14.6934 13.4759C14.9798 13.2125 15.3005 12.846 15.5868 12.365C15.7242 12.1245 15.8502 11.8496 15.9533 11.5518C16.0564 11.254 16.1365 10.9219 16.1709 10.5783C16.2511 9.87967 16.1709 9.10086 15.896 8.32205C15.6211 7.54324 15.1401 6.77588 14.4873 6.13451C14.1551 5.81383 13.7772 5.51605 13.4336 5.14955C13.0786 4.78305 12.8266 4.32492 12.6433 3.84389C12.4486 3.36286 12.2997 2.87038 12.0936 2.38935C11.8874 1.91977 11.6011 1.4731 11.1773 1.15242C10.765 0.820279 10.2726 0.614123 9.78007 0.476686C9.5281 0.407968 9.27613 0.362155 9.02417 0.316343C8.7722 0.281983 8.52023 0.259078 8.26826 0.236171C7.26039 0.167453 6.27543 0.190359 5.35918 0.362155C4.44293 0.522498 3.60685 0.854638 2.93112 1.32421C2.58753 1.55328 2.28975 1.82815 2.03778 2.11448C1.78581 2.40081 1.59111 2.71004 1.44222 3.03073C1.14444 3.66065 1.06427 4.31347 1.11008 4.86322C1.16735 5.41297 1.33914 5.87109 1.55675 6.20323C1.76291 6.53537 1.99197 6.74153 2.15231 6.89042C2.31266 7.02785 2.39283 7.09657 2.39283 7.09657C2.39283 7.09657 2.36992 7.08512 2.32411 7.06221C2.2783 7.02785 2.20958 6.99349 2.12941 6.92478C1.96906 6.79879 1.72855 6.59264 1.49949 6.24904C1.27042 5.9169 1.07572 5.44733 1.01845 4.87467C0.96119 4.30202 1.02991 3.63774 1.32769 2.97346C1.47658 2.64132 1.68273 2.32063 1.9347 2.02285C2.18667 1.72507 2.49591 1.4502 2.8395 1.20968C3.52668 0.717201 4.38566 0.373608 5.32482 0.201812C6.25252 0.0300154 7.26039 0.00710961 8.27972 0.0643751C8.53168 0.0872812 8.7951 0.110187 9.05852 0.144546C9.32195 0.178906 9.57391 0.236171 9.83733 0.30489C10.3527 0.442327 10.8681 0.659935 11.3033 1.01498C11.5209 1.18678 11.7156 1.39293 11.876 1.61054C12.0363 1.8396 12.1623 2.08012 12.2768 2.32063C12.4945 2.81312 12.6433 3.31705 12.8266 3.78663C13.0098 4.2562 13.2504 4.69142 13.5825 5.03502C13.9146 5.39006 14.2926 5.68784 14.6247 6.01998C15.3005 6.69571 15.7815 7.48598 16.0564 8.27624C16.3427 9.07796 16.4114 9.87967 16.3198 10.5898C16.274 10.9448 16.1938 11.2769 16.0793 11.5862C15.9647 11.8954 15.8273 12.1588 15.6899 12.4108C15.3921 12.9033 15.0599 13.2698 14.7507 13.5218C14.4415 13.7852 14.1781 13.9341 13.9834 14.0371C13.8917 14.083 13.8116 14.1173 13.7657 14.1288C13.7199 14.1517 13.697 14.1631 13.6856 14.1631Z" fill="#412980" stroke="#412980" stroke-width="0.0572654" stroke-miterlimit="10"/>
<path d="M8.43992 13.9226C8.45137 13.9226 8.42847 13.9799 8.39411 14.0715C8.35975 14.1631 8.29103 14.3006 8.18795 14.4609C7.98179 14.7816 7.6153 15.2168 7.00828 15.5604C6.7105 15.7322 6.35545 15.8696 5.9546 15.9384C5.55374 16.0185 5.11852 16.0185 4.67185 15.9498C4.22518 15.8696 3.76706 15.7207 3.33184 15.4688C2.90808 15.2168 2.49576 14.8847 2.22089 14.4151C1.94601 13.9455 1.85439 13.4187 1.84294 12.9376C1.82003 12.4452 1.86585 11.9756 1.92311 11.5289C2.04909 10.6356 2.2438 9.85677 2.38123 9.20394C2.44995 8.8718 2.51867 8.57402 2.55303 8.3106C2.58739 8.04718 2.59884 7.81812 2.57593 7.63487C2.53012 7.26837 2.36978 7.09657 2.39268 7.09657C2.39268 7.09657 2.4385 7.13093 2.49577 7.2111C2.55303 7.29128 2.6103 7.42871 2.65611 7.62341C2.69047 7.81812 2.70192 8.04718 2.66756 8.32205C2.6332 8.59693 2.57593 8.89471 2.51867 9.22685C2.39269 9.89113 2.20944 10.6699 2.09491 11.5518C2.03764 11.987 2.00328 12.4566 2.02619 12.9262C2.04909 13.3958 2.14072 13.8997 2.39268 14.3235C2.64465 14.7472 3.03406 15.0794 3.43492 15.3084C3.84723 15.549 4.28245 15.6978 4.70621 15.778C5.14143 15.8582 5.55374 15.8467 5.94314 15.7895C6.32109 15.7207 6.66469 15.5948 6.96247 15.4459C7.54658 15.1366 7.92453 14.7243 8.14214 14.4266C8.34829 14.1173 8.42846 13.9226 8.43992 13.9226Z" fill="#412980" stroke="#412980" stroke-width="0.0572654" stroke-miterlimit="10"/>
<path d="M10.9256 13.8653C10.9371 13.8883 10.8684 13.9684 10.7424 14.0715C10.6164 14.1746 10.4217 14.312 10.1697 14.3922C9.91777 14.4724 9.6658 14.4495 9.50545 14.3922C9.34511 14.3235 9.27639 14.2433 9.28784 14.2204C9.2993 14.1975 9.39092 14.2433 9.53981 14.2662C9.6887 14.2891 9.89486 14.2891 10.1125 14.2204C10.3301 14.1517 10.5248 14.0486 10.6622 13.9684C10.8111 13.8768 10.9142 13.8424 10.9256 13.8653Z" fill="#412980" stroke="#412980" stroke-width="0.0572654" stroke-miterlimit="10"/>
</svg>
