<svg width="600" height="600" viewBox="0 0 600 600" fill="none" xmlns="http://www.w3.org/2000/svg">
<path d="M131.9 501.6C131.8 501.7 131.3 501.2 130.3 500.6C129.8 500.3 129.2 499.8 128.5 499.4C128.1 499.2 127.7 499 127.3 498.8C126.9 498.6 126.4 498.4 126 498.3C125.5 498.2 125.2 498.3 125.1 498.5C124.9 498.7 124.9 499.4 124.8 500C124.7 501.2 124.7 502.6 124.8 504C125.1 506.8 126 509.8 127.5 512.7C129 515.6 130.9 518.1 132.8 520.2C134.7 522.3 136.6 524.1 138.2 525.6C141.4 528.5 143.5 530.3 143.3 530.5C143.2 530.7 140.9 529.2 137.4 526.4C135.7 525 133.7 523.3 131.7 521.1C129.7 519 127.7 516.4 126.1 513.3C124.5 510.2 123.6 507 123.4 504C123.3 502.5 123.3 501.1 123.5 499.8C123.6 499.5 123.6 499.2 123.7 498.8C123.8 498.5 123.9 498.1 124.2 497.7C124.5 497.3 124.9 497.1 125.3 497.1C125.7 497 126.1 497.1 126.4 497.2C127 497.4 127.5 497.7 127.9 497.9C128.3 498.2 128.7 498.4 129.1 498.7C129.8 499.2 130.4 499.7 130.9 500.2C131.6 501 132 501.6 131.9 501.6Z" fill="#005797" stroke="#005797" stroke-width="0.5" stroke-miterlimit="10"/>
<path d="M155.9 511.6C155.8 511.6 155 509.9 153.5 506.8C152 503.7 149.9 499.2 147.3 493.6C144.6 488.1 141.4 481.5 137.6 474.3C135.7 470.7 133.8 466.8 131.4 463.2C130.2 461.4 128.8 459.7 127.2 458.2C126.4 457.5 125.5 456.7 124.6 456.2C123.7 455.7 122.6 455.4 121.8 455.5C121 455.7 120.6 456.3 120.6 457.4C120.7 458.5 120.8 459.7 120.9 460.9C121.2 463.2 121.6 465.5 122.1 467.7C122.6 469.9 123.2 472.1 123.8 474.1C124 474.6 124.1 475.1 124.3 475.6L124.6 476.4L124.7 476.8L124.9 477.3C125.2 478.1 125.6 479 125.9 479.8L126.4 481.1L126.5 481.4C126.5 481.5 126.5 481.5 126.5 481.5C126.5 481.5 126.5 481.6 126.5 481.7L126.6 481.9C125.7 481.3 124.7 480.6 124 480.1C123.6 479.9 123.3 479.7 123 479.6C122.9 479.6 122.7 479.5 122.6 479.5H122.4C122.3 479.5 122.2 479.5 122 479.5C122 479.5 121.8 479.5 121.9 479.5V479.7L122 480.2C122.1 480.5 122.2 480.9 122.2 481.2C122.4 481.9 122.5 482.5 122.7 483.2C123.4 485.8 124.3 488.3 125.3 490.5C127.2 495 129.4 498.8 131.4 501.7C133.4 504.7 135.2 506.9 136.5 508.3C137.8 509.8 138.5 510.6 138.4 510.6C138.4 510.7 137.5 510 136.2 508.6C134.8 507.2 132.9 505.1 130.8 502.2C128.7 499.3 126.3 495.5 124.3 490.9C123.3 488.6 122.3 486.1 121.5 483.5C121.3 482.8 121.1 482.2 120.9 481.5C120.8 481.2 120.7 480.8 120.6 480.5L120.4 479.8C120.3 479.5 120.3 479.2 120.2 478.9L120.1 478.1V478V477.9H120.3H120.7C121.3 477.9 121.9 477.9 122.5 478C122.7 478 122.7 478 122.8 478.1H122.9L123.1 478.2C123.2 478.2 123.3 478.3 123.4 478.3L123.5 478.4V478.3L123.4 478.1L123.2 477.6C123 477.1 122.9 476.7 122.7 476.2C122.5 475.7 122.3 475.2 122.2 474.6C121.5 472.5 120.9 470.3 120.4 468.1C119.9 465.8 119.5 463.5 119.2 461.2C119.1 460 118.9 458.9 118.8 457.6C118.8 456.9 118.8 456.2 119.3 455.4C119.7 454.7 120.5 454.2 121.3 454C122.8 453.8 124.1 454.3 125.2 454.9C126.3 455.6 127.2 456.3 128.1 457.1C129.8 458.7 131.3 460.6 132.5 462.4C135 466.2 136.8 470.1 138.7 473.7C142.4 481 145.5 487.6 148.1 493.2C150.6 498.8 152.6 503.4 153.9 506.6C155.3 509.7 156 511.5 155.9 511.6Z" fill="#005797" stroke="#005797" stroke-width="0.5" stroke-miterlimit="10"/>
<path d="M164.5 513.3C164.3 513.4 163.2 511.1 161.5 507.4C159.8 503.7 157.6 498.5 155.3 492.7C154.7 491.3 154.2 489.8 153.6 488.5C153 487.3 152.3 486.1 151.3 485.5C150.4 484.9 149.3 485 148.5 485.6C147.7 486.2 147.3 487.2 147.1 488C146.9 488.9 147.1 489.8 147.3 490.5C147.5 491.2 147.8 491.9 148 492.4C148.4 493.4 148.7 494 148.6 494.1C148.5 494.2 148.099 493.7 147.399 492.7C147.099 492.2 146.699 491.6 146.399 490.8C146.099 490 145.799 489 145.899 487.9C145.999 486.8 146.5 485.5 147.6 484.6C148.1 484.1 148.9 483.8 149.7 483.7C150.5 483.6 151.3 483.8 152 484.3C153.4 485.2 154.199 486.5 154.899 487.9C155.599 489.3 156.1 490.7 156.7 492.1C159 497.9 160.999 503.2 162.399 507C163.899 510.8 164.7 513.2 164.5 513.3Z" fill="#005797" stroke="#005797" stroke-width="0.5" stroke-miterlimit="10"/>
<path d="M489.3 479.2C489.2 479.2 489.1 478.7 489 477.8C488.9 476.9 488.8 475.6 488.1 474.3C487.8 473.7 487.2 473.2 486.4 472.9C485.7 472.6 484.8 472.7 484.3 473.2C483.8 473.7 483.4 474.8 483.1 475.9C482.8 477 482.4 478.1 482.2 479.3C481.1 484 481 488.5 481.2 491.7C481.4 494.9 481.7 496.9 481.5 497C481.3 497.1 480.5 495.1 480.1 491.9C479.6 488.6 479.5 484 480.7 479C481 477.8 481.3 476.6 481.7 475.4C481.9 474.8 482.1 474.3 482.3 473.7C482.5 473.1 482.9 472.5 483.4 472.1C483.9 471.6 484.6 471.3 485.3 471.3C486 471.3 486.5 471.4 487.1 471.6C488.1 472.1 488.9 472.8 489.3 473.7C490.1 475.4 489.9 476.8 489.8 477.7C489.5 478.7 489.4 479.2 489.3 479.2Z" fill="#005797" stroke="#005797" stroke-width="0.5" stroke-miterlimit="10"/>
<path d="M504.4 483.1C504.3 483.1 504.6 481.6 505.2 478.8C505.8 476.1 506.8 472.1 507.8 467.2C508.8 462.3 510 456.5 511 449.9C511.3 448.3 511.5 446.6 511.8 444.9C511.9 444 512 443.2 512.2 442.3C512.3 441.9 512.3 441.4 512.3 441.1C512.3 440.7 512.3 440.3 512.2 439.9C512.1 439.5 512 439.2 511.8 438.9C511.6 438.7 511.5 438.6 511.3 438.6C511.1 438.6 510.9 438.7 510.6 438.9C510.3 439.1 510 439.5 509.6 439.8C508.3 441.1 507.2 442.5 506.2 444.1C504.5 446.7 503.3 449.6 502.3 452.4C502.1 453.1 501.8 453.8 501.6 454.5L501.3 455.6C501.1 456.1 501 456.6 500.8 457.1C500.4 458.3 500.1 459.6 499.7 460.8C499.1 463 499.7 460.4 498.7 463.8C498.6 462.4 498.6 461 498.5 459.7V459.3V459.1V459V458.5V458.1C498.5 458 498.5 457.9 498.4 457.8C498.3 457.4 498.2 457.2 498 456.9C497.8 456.6 497.7 456.5 497.7 456.5C497.6 456.4 497.4 456.1 497.3 456.4L497 456.8C496.8 457 496.6 457.3 496.5 457.6C496.2 458.1 495.8 458.6 495.5 459.2C494.3 461.3 493.4 463.5 492.7 465.6C491.3 469.8 490.6 473.7 490.1 476.9C489.6 480.1 489.3 482.7 489.1 484.5C488.9 486.3 488.7 487.2 488.6 487.2C488.5 487.2 488.5 486.2 488.5 484.4C488.6 482.6 488.7 480 489 476.7C489.4 473.4 489.9 469.5 491.3 465.1C492 462.9 492.9 460.7 494.1 458.5C494.4 457.9 494.8 457.4 495.1 456.8C495.3 456.5 495.4 456.2 495.6 456C495.9 455.6 496.1 455.2 496.4 454.8C497 453.4 497.9 454.8 498.6 455.5C498.8 455.8 498.9 455.9 498.9 455.9L499 456C499 456.1 499.1 456.2 499.1 456.3C499.1 456.4 499.1 456.5 499.2 456.6L499.4 456C499.6 455.4 499.8 454.8 499.9 454.3C500.1 453.6 500.4 452.8 500.6 452.1C501.6 449.2 502.9 446.2 504.6 443.4C505.7 441.7 506.9 440.2 508.2 438.9C508.6 438.6 508.9 438.2 509.3 437.9C509.7 437.6 510.4 437.2 511.1 437.2C511.8 437.2 512.5 437.7 512.9 438.2C513.2 438.7 513.4 439.2 513.5 439.8C513.6 440.3 513.6 440.8 513.6 441.3C513.6 441.8 513.5 442.3 513.4 442.7C513.3 443.6 513.1 444.4 513 445.3C512.7 447 512.5 448.7 512.2 450.3C511.1 456.8 509.8 462.7 508.6 467.6C507.4 472.5 506.3 476.4 505.5 479.1C505 481.7 504.5 483.2 504.4 483.1Z" fill="#005797"/>
<path d="M499.2 456.6C499.1 456.5 499.1 456.4 499.1 456.3C499.1 456.2 499 456.1 499 456L498.9 455.9C498.9 455.9 498.8 455.8 498.6 455.5C497.9 454.8 497 453.4 496.4 454.8C496.1 455.2 495.9 455.6 495.6 456C495.4 456.2 495.3 456.5 495.1 456.8C494.8 457.4 494.4 457.9 494.1 458.5C492.9 460.7 492 462.9 491.3 465.1C489.9 469.5 489.4 473.4 489 476.7C488.7 480 488.6 482.6 488.5 484.4C488.5 486.2 488.5 487.2 488.6 487.2C488.7 487.2 488.9 486.3 489.1 484.5C489.3 482.7 489.6 480.1 490.1 476.9C490.6 473.7 491.3 469.8 492.7 465.6C493.4 463.5 494.3 461.3 495.5 459.2C495.8 458.6 496.2 458.1 496.5 457.6C496.6 457.3 496.8 457 497 456.8L497.3 456.4C497.4 456.1 497.6 456.4 497.7 456.5C497.7 456.5 497.8 456.6 498 456.9C498.2 457.2 498.3 457.4 498.4 457.8C498.5 457.9 498.5 458 498.5 458.1V458.5V459V459.1V459.3V459.7C498.6 461 498.6 462.4 498.7 463.8C499.7 460.4 499.1 463 499.7 460.8C500.1 459.6 500.4 458.3 500.8 457.1C501 456.6 501.1 456.1 501.3 455.6L501.6 454.5C501.8 453.8 502.1 453.1 502.3 452.4C503.3 449.6 504.5 446.7 506.2 444.1C507.2 442.5 508.3 441.1 509.6 439.8C510 439.5 510.3 439.1 510.6 438.9C510.9 438.7 511.1 438.6 511.3 438.6C511.5 438.6 511.6 438.7 511.8 438.9C512 439.2 512.1 439.5 512.2 439.9C512.3 440.3 512.3 440.7 512.3 441.1C512.3 441.4 512.3 441.9 512.2 442.3C512 443.2 511.9 444 511.8 444.9C511.5 446.6 511.3 448.3 511 449.9C510 456.5 508.8 462.3 507.8 467.2C506.8 472.1 505.8 476.1 505.2 478.8C504.6 481.6 504.3 483.1 504.4 483.1C504.5 483.2 505 481.7 505.5 479.1C506.3 476.4 507.4 472.5 508.6 467.6C509.8 462.7 511.1 456.8 512.2 450.3C512.5 448.7 512.7 447 513 445.3C513.1 444.4 513.3 443.6 513.4 442.7C513.5 442.3 513.6 441.8 513.6 441.3C513.6 440.8 513.6 440.3 513.5 439.8C513.4 439.2 513.2 438.7 512.9 438.2C512.5 437.7 511.8 437.2 511.1 437.2C510.4 437.2 509.7 437.6 509.3 437.9C508.9 438.2 508.6 438.6 508.2 438.9C506.9 440.2 505.7 441.7 504.6 443.4C502.9 446.2 501.6 449.2 500.6 452.1C500.4 452.8 500.1 453.6 499.9 454.3C499.8 454.8 499.6 455.4 499.4 456L499.2 456.6ZM499.2 456.6V456.7" stroke="#005797" stroke-width="0.5" stroke-miterlimit="10"/>
<path d="M507.799 491.1C507.599 491 508.199 488.5 509.499 484.4C510.699 480.3 512.499 474.7 514.599 468.5C515.599 465.5 516.499 462.5 516.599 459.9C516.599 458.7 515.899 458.4 514.899 458.9C514.399 459.1 513.999 459.5 513.599 459.8C513.199 460.2 512.799 460.6 512.499 461C509.699 464.1 508.299 466.4 508.099 466.3C507.899 466.2 508.899 463.7 511.599 460.3C511.899 459.9 512.299 459.4 512.699 459C513.099 458.5 513.599 458.1 514.299 457.7C514.599 457.5 514.999 457.4 515.399 457.3C515.799 457.2 516.299 457.2 516.799 457.5C517.299 457.7 517.599 458.1 517.799 458.6C517.999 459 518.099 459.5 518.099 459.9C518.099 462.9 517.199 466 516.199 469.1C514.099 475.3 512.099 480.8 510.599 484.8C509.099 488.7 507.999 491.2 507.799 491.1Z" fill="#005797" stroke="#005797" stroke-width="0.5" stroke-miterlimit="10"/>
<path d="M510.5 501.6C510.1 501.3 514.4 494.7 516.9 485.4C517.2 484.2 517.5 483.1 517.7 482C517.8 481.5 517.9 481 517.8 480.6C517.7 480.3 517.6 480.2 517.4 480.1C517.2 480.1 516.8 480.2 516.4 480.4C516 480.6 515.7 480.9 515.3 481.2C514.6 481.8 513.9 482.3 513.4 482.9C511.2 485.1 510.2 486.8 509.9 486.7C509.7 486.6 510.4 484.7 512.5 482.2C513 481.6 513.7 480.9 514.4 480.3C514.8 480 515.1 479.7 515.6 479.3C516.1 479 516.7 478.7 517.5 478.7C517.9 478.7 518.4 478.9 518.7 479.3C519 479.6 519.2 480 519.3 480.4C519.4 481.1 519.3 481.8 519.2 482.4C519 483.5 518.7 484.7 518.4 485.9C517.1 490.7 515.2 494.8 513.6 497.5C512 500.2 510.6 501.7 510.5 501.6Z" fill="#005797" stroke="#005797" stroke-width="0.5" stroke-miterlimit="10"/>
<path d="M210.3 487.9C210.2 488 209.8 487.5 209.2 486.8C208.6 486.1 207.5 485 206 485.2C205.3 485.3 204.7 485.8 204.6 486.5C204.5 487.3 204.8 488.4 205.1 489.5C205.7 491.8 206.5 494.2 207.5 496.7C211.3 506.8 216.7 513.9 216.3 514.2C216.1 514.3 214.6 512.7 212.5 509.8C210.4 506.8 207.9 502.5 206 497.3C205 494.7 204.3 492.2 203.7 489.9C203.5 488.8 203.1 487.6 203.3 486.3C203.4 485.7 203.7 485 204.3 484.6C204.8 484.2 205.4 484 205.9 484C207 483.9 207.9 484.4 208.5 484.9C209.1 485.4 209.5 486 209.7 486.4C210.3 487.4 210.4 487.9 210.3 487.9Z" fill="#005797" stroke="#005797" stroke-width="0.5" stroke-miterlimit="10"/>
<path d="M230.1 505C230 505 229.4 503.5 228.3 500.8C227.2 498.1 225.7 494.1 223.6 489.2C219.5 479.5 213.5 466.2 205.5 452.3C204.8 451 204 449.7 203.3 448.4C202.9 447.7 202.6 447.2 202.1 446.8C201.7 446.4 201.1 446 200.8 446.1C200.7 446.1 200.6 446.2 200.5 446.3C200.4 446.4 200.4 446.6 200.4 446.9C200.4 447.5 200.5 448.3 200.5 448.9C200.6 450.3 200.8 451.7 201 453C201.4 455.7 202.1 458.2 202.8 460.7C203.2 461.9 203.5 463.1 204 464.2C204.2 464.8 204.4 465.3 204.6 465.9C204.7 466.2 204.8 466.5 205 466.8C205.2 467.2 205.4 467.7 205.6 468.1C205.6 468.5 205.6 468.8 205.7 469.1C206.2 469.5 205.1 468.6 205.2 468.7V468.6V468.5C205.2 468.4 205.2 468.4 205.2 468.4C205.2 468.3 205.1 468.3 205 468.3C204.8 468.3 204.4 468.3 204.1 468.4C204 469.5 204.2 471.4 204.4 472.8C204.7 474.3 205 475.8 205.4 477.1C206.2 479.7 207.1 482 208 483.7C209.8 487.2 211.1 489 211 489.1C211 489.1 210.6 488.7 209.9 487.9C209.2 487.1 208.3 485.8 207.4 484C206.4 482.3 205.4 480 204.5 477.3C204.1 476 203.7 474.5 203.4 472.9C203.3 472.1 203.1 471.3 203 470.5C202.9 470.1 202.9 469.6 202.9 469.1C202.9 468.6 203.1 468 203.7 467.5C203.8 467.4 203.9 467.4 204 467.5C204.1 467.5 204.3 467.6 204.2 467.7L204 467.3L203.9 467L203.6 466.3C203.4 465.7 203.1 465.2 202.9 464.6C202.5 463.4 202 462.2 201.7 461C200.9 458.5 200.3 455.9 199.8 453.2C199.6 451.8 199.4 450.4 199.2 449C199.1 448.3 199 447.6 199 446.8C199 446.4 199.1 445.8 199.4 445.3C199.7 444.9 200.3 444.5 200.9 444.4C202.1 444.4 202.8 445 203.4 445.6C204 446.2 204.5 447 204.8 447.6C205.5 448.9 206.3 450.2 207.1 451.5C215.1 465.5 221 478.9 224.9 488.8C226.8 493.7 228.2 497.8 229.1 500.6C229.7 503.4 230.2 504.9 230.1 505Z" fill="#005797" stroke="#005797" stroke-width="0.5" stroke-miterlimit="10"/>
<path d="M232 495.9C231.6 496.1 228 487.8 224.1 477.4C223.6 476.2 223.1 475 222.4 474C221.7 473 220.9 472.2 220 471.9C219.8 471.8 219.5 471.8 219.3 471.8C219.2 471.8 219.1 471.8 219 471.8C219 471.9 218.9 472 218.9 472.1C218.8 472.4 218.8 472.6 218.8 472.9C218.6 473.9 218.6 474.9 218.7 475.7C218.8 477.4 219.3 478.8 219.6 479.7C220 480.6 220.2 481.1 220.1 481.2C220 481.3 219.6 480.9 219 480C218.5 479.1 217.8 477.7 217.5 475.8C217.4 474.9 217.3 473.8 217.4 472.7C217.4 472.4 217.5 472.1 217.5 471.8C217.6 471.4 217.7 470.9 217.8 470.5C218.3 470.5 218.7 470.3 219.2 470.4C219.6 470.4 219.9 470.5 220.3 470.6C221.7 471 222.8 472.1 223.6 473.2C224.4 474.3 225.1 475.6 225.6 477C229.6 487.2 232.4 495.7 232 495.9Z" fill="#005797" stroke="#005797" stroke-width="0.5" stroke-miterlimit="10"/>
<path d="M239.8 504.8C239.4 504.9 236.9 497.8 233.8 489C233.4 487.9 233.1 486.8 232.6 485.9C232.4 485.5 232.1 485 231.8 484.7C231.7 484.5 231.5 484.4 231.4 484.3C231.3 484.3 231.2 484.2 231.2 484.2C231.1 484.2 231.1 484.2 231.1 484.1C231 484.1 231 484.1 230.9 484.1H230.8V484.2V484.3V484.4V484.6C230.8 484.8 230.7 485 230.7 485.3C230.6 486.2 230.6 487 230.6 487.7C230.7 490.7 231.4 492.5 231.1 492.5C230.9 492.6 229.8 490.9 229.4 487.7C229.3 486.9 229.3 486 229.3 485.1C229.3 484.9 229.3 484.6 229.3 484.4L229.4 483.9C229.4 483.7 229.5 483.5 229.5 483.3L229.6 482.8C229.6 482.8 229.6 482.8 229.6 482.7H229.7H229.8L230.1 482.6C230.5 482.5 230.9 482.5 231.3 482.6C231.5 482.6 231.7 482.7 231.9 482.8C232.1 482.9 232.2 483 232.3 483.1C232.6 483.3 232.8 483.5 233 483.7C233.4 484.2 233.8 484.7 234 485.2C234.6 486.3 234.9 487.4 235.3 488.5C238.5 497.3 240.3 504.7 239.8 504.8Z" fill="#005797" stroke="#005797" stroke-width="0.5" stroke-miterlimit="10"/>
<path d="M394 494.4C395.5 493.6 396.3 494.4 399.2 494C406.1 493.2 407.5 487.9 413.6 486.5C415.7 486 418.8 486.8 425 488.4C430.7 489.9 435 491 440.2 493.2C448.4 496.8 458.9 503.4 458 505.9C457.5 507.2 453.4 506.8 445.3 506.1C435.8 505.3 432.6 504.3 424.2 503.6C416.5 502.9 412.7 502.6 408.2 503.4C400.6 504.7 395 508.2 391.6 510.8C390.6 504.2 390.3 496.5 394 494.4Z" fill="#005797"/>
<path d="M334.3 458.2C331.4 459.8 327.2 462.3 322.1 465.2C306.6 474.1 298.8 478.6 296.1 480.4C290.1 484.6 280.4 491.4 272 503.5C264 515 263.5 522.2 263.5 525.5C263.5 528.2 263.6 532.6 266.3 536.9C271.1 544.5 280.3 546 284.2 546.6C292 547.9 297.9 546.3 305.2 544.5C332.5 537.7 327.8 540.6 346.2 535.3C354.1 533 365.1 529.8 379 524C384.2 521.8 388.6 519.8 391.7 518.3C392.9 516.4 394.6 513.1 395.4 508.7C395.8 506.4 396.5 502.7 395.2 498.6C393 491.7 386.6 488.5 384.9 487.7C374.5 491 364 494.3 353.6 497.7C355.7 496.3 358.6 494.1 361.5 490.7C366 485.5 367.3 481.1 370.3 474.1C377.1 458.1 380.8 456.1 379.5 453.5C377.6 449.9 367.7 448.8 334.3 458.2Z" fill="white"/>
<path d="M389 519.9C389 520 388.3 520.3 386.8 521C385.3 521.7 383.2 522.7 380.3 523.9C374.6 526.3 366.4 529.6 355.9 533C345.4 536.4 332.8 540 318.6 542.9C311.5 544.4 303.9 545.7 296.1 546.7C292.2 547.2 288.1 547.6 283.9 547.4C279.8 547.2 275.4 546.3 271.7 543.8C268 541.4 265.4 537.6 264.1 533.6C262.8 529.6 262.5 525.3 263.1 521.3C263.7 517.3 265.2 513.5 267 510.1C268.8 506.7 270.9 503.5 273.2 500.7C277.7 494.9 282.7 490 287.7 485.9C292.7 481.8 297.7 478.4 302.4 475.5C307.1 472.6 311.4 470.2 315.3 468.1C319.2 466.1 322.5 464.4 325.3 463C328.1 461.7 330.2 460.6 331.7 460C333.2 459.3 334 459 334 459.1C334 459.2 333.3 459.6 331.9 460.3C330.5 461.1 328.4 462.2 325.6 463.6C320.2 466.5 312.3 470.5 303 476.4C298.4 479.3 293.5 482.8 288.5 486.9C283.6 491 278.7 495.9 274.3 501.6C272.1 504.4 270 507.5 268.3 510.8C266.6 514.1 265.2 517.7 264.6 521.5C264 525.3 264.3 529.3 265.5 533C266.8 536.7 269.1 540.1 272.5 542.3C275.9 544.5 279.9 545.4 283.9 545.6C287.9 545.8 291.9 545.4 295.8 544.9C303.6 543.9 311.1 542.6 318.2 541.2C332.4 538.4 345 535 355.5 531.7C366 528.4 374.3 525.3 380 523.1C382.9 522 385.1 521.1 386.6 520.5C388.2 520.1 389 519.9 389 519.9Z" fill="#005797" stroke="#005797" stroke-width="0.5" stroke-miterlimit="10"/>
<path d="M347.3 502.9C347.1 502.7 348.5 501.1 351.1 498.9C353.6 496.6 357.4 493.8 360.9 490.3C364.5 486.7 366.8 482.7 367.8 479.6C368.8 476.5 368.6 474.4 368.9 474.3C369.1 474.3 369.7 476.4 368.9 479.9C368.2 483.3 365.8 487.7 362.1 491.4C358.4 495.1 354.5 497.8 351.8 499.8C349.1 501.8 347.5 503.1 347.3 502.9Z" fill="#005797" stroke="#005797" stroke-width="0.5" stroke-miterlimit="10"/>
<path d="M386.701 487.2C386.801 487.7 380.001 489.6 371.701 492.3C363.401 495 356.701 497.4 356.501 497C356.301 496.6 362.801 493.5 371.201 490.8C379.601 488 386.601 486.7 386.701 487.2Z" fill="#005797" stroke="#005797" stroke-width="0.5" stroke-miterlimit="10"/>
<path d="M390.8 519.5C390.6 519.3 392.101 517.8 393.201 514.6C394.301 511.5 395.601 506.9 395.001 501.9C394.701 499.4 394.001 497.1 393.001 495.2C392.001 493.3 390.701 491.8 389.501 490.7C387.001 488.5 384.901 488 385.001 487.7C385.001 487.6 385.601 487.6 386.501 487.9C387.401 488.2 388.801 488.7 390.201 489.8C391.601 490.8 393.1 492.4 394.3 494.4C395.5 496.4 396.401 498.9 396.601 501.6C396.901 504.3 396.601 506.9 396.101 509.1C395.601 511.4 394.901 513.3 394.201 514.9C393.501 516.5 392.701 517.7 392.001 518.4C391.401 519.3 390.9 519.6 390.8 519.5Z" fill="#005797" stroke="#005797" stroke-width="0.5" stroke-miterlimit="10"/>
<path d="M440.1 493.3C440 493.5 437.3 492.9 433 491.7C430.9 491.1 428.3 490.3 425.5 489.5C424.1 489.1 422.6 488.6 421.1 488.1C419.6 487.6 418 487.1 416.5 487C415.7 486.9 415 487 414.3 487.2C413.6 487.4 413 487.7 412.4 488.2C411.2 489.1 410 490.2 408.7 491C406.2 492.7 403.6 493.6 401.3 494.2C399.1 494.7 397.2 494.8 396 494.8C394.7 494.8 394 494.6 394.1 494.5C394.1 494.2 396.9 494.4 401.1 493.1C403.2 492.5 405.6 491.4 407.9 489.8C408.5 489.4 409.1 488.9 409.6 488.5C410.2 488 410.8 487.5 411.5 487C412.2 486.5 413 486 413.9 485.8C414.8 485.5 415.8 485.5 416.7 485.5C418.5 485.6 420.2 486.2 421.7 486.7C423.2 487.2 424.7 487.7 426.1 488.1C428.9 489 431.4 489.9 433.5 490.6C437.6 492 440.2 493.1 440.1 493.3Z" fill="#005797" stroke="#005797" stroke-width="0.5" stroke-miterlimit="10"/>
<path d="M438.3 493.2C438.4 493.1 439.4 493.6 441.1 494.6C442.9 495.6 445.4 497.1 448.4 498.9C449.9 499.8 451.8 500.8 453.1 502.8C453.4 503.3 453.7 503.9 453.8 504.6C453.8 504.8 453.8 504.9 453.8 505.1C453.8 505.3 453.7 505.5 453.7 505.8C453.7 506 453.6 506.2 453.5 506.5C453.5 506.6 453.5 506.8 453.4 506.8H453.1C452 506.9 451.6 506.9 451 507C450.4 507 449.8 507 449.2 507.1C444.4 507.2 439.1 506.7 433.7 505.9C428.3 505.2 423.1 504.3 418.4 503.9C413.7 503.6 409.5 503.7 406 504.4C402.5 505 399.9 506.2 398.2 507.2C397.8 507.4 397.4 507.7 397 507.8C396.7 508 396.4 508.2 396.2 508.3C395.8 508.6 395.5 508.7 395.5 508.7C395.5 508.7 395.6 508.4 396 508.1C396.2 507.9 396.4 507.7 396.7 507.4C397 507.2 397.4 506.9 397.8 506.6C399.5 505.5 402.2 504.1 405.7 503.2C409.3 502.3 413.6 502 418.4 502.3C423.2 502.6 428.4 503.4 433.8 504.1C439.2 504.9 444.4 505.4 449.1 505.4C449.7 505.4 450.3 505.4 450.8 505.4C451.2 505.4 451.7 505.4 452.1 505.3C452.2 505.3 452.2 505.2 452.2 505.1C452.2 505 452.2 505 452.2 505C452.2 504.9 452.2 504.8 452.2 504.7C452.2 504.3 452 503.9 451.8 503.5C451.3 502.7 450.6 502 449.9 501.4C449.2 500.8 448.4 500.3 447.6 499.8C444.6 497.8 442.2 496.2 440.5 495.1C439.1 494 438.2 493.3 438.3 493.2Z" fill="#005797" stroke="#005797" stroke-width="0.5" stroke-miterlimit="10"/>
<path d="M419.7 506.8C423.8 505.5 427.8 504.1 431.9 502.8C432.3 501.5 433.2 499.3 435.2 498.1C437.2 497 439.7 497 444.6 498.8C451.5 501.3 456.2 504.6 456.7 504.9C471.5 515.2 484.9 513.9 485.2 519.4C485.4 522 482.4 524.2 482.1 524.5C479 526.8 475.1 526.1 471.7 525.5C464.1 524.2 456.3 523.4 448.8 521.7C445.7 521 440 519.7 432.6 518C428.8 518.8 424.9 519.5 421.1 520.3C419.8 520.7 418.6 521.2 417.3 521.6C418.1 516.6 418.9 511.7 419.7 506.8Z" fill="#005797"/>
<path d="M355.6 469.8C355.2 470 350.3 473.1 340.4 479.2C330.8 485.2 326 488.2 325.3 488.6C312.2 497.1 303.4 505.1 296.8 511.1C282.3 524.4 280.6 529 279.8 532.3C279.4 534.1 277.7 541.8 282 548.6C282.7 549.7 285.6 554 293.6 557.2C302.9 560.9 311.4 559.9 322.5 558C338.1 555.4 345.9 554.1 358 550.5C380.9 543.8 397.6 535.4 406.7 530.5C412 527.6 416.4 525 419.4 523.1C420.3 521.8 421.5 519.6 421.9 516.8C423.1 509.3 418.2 503.8 417.7 503.1C415.7 500.9 413.5 499.7 411.9 499C413.1 495.8 414.7 490.2 414.2 483.2C414 479.3 413.5 472.4 409.8 467.7C400.4 455.7 371.6 460.5 355.6 469.8Z" fill="white"/>
<path d="M398.4 514.2C398.2 514 400.5 512.5 403.3 509.4C406.1 506.3 409.3 501.3 411.3 495.2C413.3 489.1 413.7 483.2 413.9 479C414.1 474.8 414 472.1 414.2 472.1C414.4 472.1 414.9 474.7 415 479C415.1 483.3 414.8 489.4 412.8 495.7C410.8 502.1 407.3 507.2 404.1 510.2C401 513.2 398.5 514.3 398.4 514.2Z" fill="#005797" stroke="#005797" stroke-width="0.5" stroke-miterlimit="10"/>
<path d="M419.4 523.2C419.4 523.2 418.7 523.7 417.4 524.6C416 525.5 414 526.8 411.4 528.3C406.1 531.4 398.2 535.8 388.1 540.2C383.1 542.5 377.4 544.7 371.3 546.9C365.2 549 358.5 551.1 351.5 553C344.4 554.8 336.9 556.5 329.1 557.7C325.2 558.4 321.2 558.9 317.1 559.4C313 559.8 308.8 560.1 304.5 559.9C300.2 559.7 296 558.9 292.1 557.3C288.2 555.7 284.8 553 282.2 549.8C280.9 548.2 279.9 546.4 279.1 544.5C278.4 542.6 277.9 540.6 277.9 538.6C277.8 534.5 279.4 530.8 281.4 527.7C283.4 524.5 285.8 521.9 288 519.2C290.3 516.6 292.6 514.1 295 511.9C299.7 507.4 304.3 503.5 308.7 500C317.4 493.2 324.9 488.3 330 484.9C332.6 483.2 334.6 481.9 336 481.1C337.4 480.2 338.1 479.8 338.2 479.9C338.2 479.9 337.6 480.5 336.2 481.4C334.9 482.3 332.9 483.7 330.4 485.5C325.4 489 318 494.1 309.4 501C305.1 504.4 300.6 508.4 296 512.9C293.7 515.2 291.4 517.6 289.2 520.2C287 522.8 284.7 525.5 282.8 528.5C280.9 531.5 279.5 535 279.6 538.6C279.6 542.2 281.2 545.8 283.6 548.8C286 551.8 289.2 554.3 292.8 555.8C296.5 557.3 300.5 558.1 304.7 558.3C308.8 558.5 313 558.2 317 557.8C321 557.3 325 556.8 328.9 556.2C336.7 554.9 344.2 553.4 351.2 551.6C358.2 549.8 364.8 547.7 371 545.7C377.1 543.5 382.7 541.4 387.8 539.2C397.9 534.9 405.8 530.7 411.2 527.8C413.9 526.4 416 525.1 417.4 524.3C418.6 523.5 419.3 523.1 419.4 523.2Z" fill="#005797" stroke="#005797" stroke-width="0.5" stroke-miterlimit="10"/>
<path d="M419 523.8C418.9 523.7 419.2 523.4 419.5 522.8C419.8 522.2 420.2 521.2 420.6 519.9C421.3 517.4 421.8 513.7 420.7 510C419.6 506.2 417.3 503.4 415.3 501.7C413.3 500 411.8 499.3 411.9 499C412 498.8 413.7 499.2 416 500.8C418.3 502.4 421.1 505.4 422.2 509.6C423.4 513.8 422.7 517.8 421.6 520.4C421.1 521.7 420.5 522.6 419.9 523.3C419.5 523.8 419.1 523.9 419 523.8Z" fill="#005797" stroke="#005797" stroke-width="0.5" stroke-miterlimit="10"/>
<path d="M432.7 502.6C432.9 503 430.3 504.8 426.6 505.9C422.9 507.1 419.8 507.2 419.7 506.7C419.6 506.2 422.6 505.5 426.1 504.3C429.6 503.2 432.5 502.2 432.7 502.6Z" fill="#005797" stroke="#005797" stroke-width="0.5" stroke-miterlimit="10"/>
<path d="M433.8 516.8C433.9 517.2 431.6 518.1 428.6 518.6C425.6 519.2 423.2 519.3 423.1 518.8C423 518.4 425.3 517.5 428.3 517C431.3 516.5 433.8 516.4 433.8 516.8Z" fill="#005797" stroke="#005797" stroke-width="0.5" stroke-miterlimit="10"/>
<path d="M482.8 518C482.7 518.2 479.7 516.9 474.9 514.6C470.1 512.3 463.5 509.1 456.3 505.5C452.7 503.7 449.3 501.9 446.1 500.3C444.5 499.5 443.1 498.7 441.7 498.1C440.3 497.5 439 497.4 437.8 497.6C435.4 498 433.8 499.6 433 500.7C432.2 501.9 432 502.7 431.9 502.7C431.8 502.7 431.7 501.8 432.5 500.4C433.2 499.1 434.8 497.1 437.6 496.5C438.3 496.3 439.1 496.3 439.9 496.4C440.7 496.5 441.5 496.7 442.2 496.9C443.8 497.5 445.2 498.3 446.8 499C449.9 500.6 453.4 502.3 457 504.1C464.2 507.8 470.7 511.1 475.4 513.7C480.1 516.1 482.9 517.8 482.8 518Z" fill="#005797" stroke="#005797" stroke-width="0.5" stroke-miterlimit="10"/>
<path d="M483 519.8C483.1 519.8 483.2 520.6 482.4 521.9C481.7 523.1 480 524.6 477.4 525.1C474.9 525.6 472 525.3 468.8 525.1C465.6 524.9 462.1 524.5 458.5 524C451.2 523 444.7 521.6 440 520.4C435.3 519.2 432.5 518.2 432.6 518C432.7 517.8 435.6 518.4 440.3 519.3C445 520.2 451.5 521.4 458.7 522.4C462.3 522.9 465.8 523.3 468.9 523.6C472.1 523.9 474.9 524.3 477.1 524C479.4 523.7 480.9 522.6 481.8 521.6C482.7 520.5 482.8 519.8 483 519.8Z" fill="#005797" stroke="#005797" stroke-width="0.5" stroke-miterlimit="10"/>
<path d="M401.299 512.8C401.399 512.9 400.599 513.6 399.199 514.8C398.799 515.1 398.399 515.4 397.999 515.8C397.499 516.1 397.099 516.5 396.499 516.9C395.399 517.7 394.199 518.6 392.799 519.4C392.099 519.8 391.399 520.3 390.599 520.8C389.799 521.3 388.999 521.7 388.199 522.2C386.499 523.2 384.599 524.1 382.699 525.1C378.699 527 374.299 528.8 369.499 530.5C359.999 533.8 351.099 536 344.599 537.4C338.199 538.8 334.099 539.5 334.099 539.3C333.999 539.1 337.999 538 344.299 536.3C350.699 534.6 359.399 532.3 368.899 529C373.599 527.3 377.999 525.5 381.999 523.7C383.899 522.8 385.799 521.9 387.499 521C388.299 520.5 389.199 520.1 389.999 519.7C390.799 519.3 391.499 518.8 392.199 518.4C397.899 515.1 401.099 512.6 401.299 512.8Z" fill="#005797" stroke="#005797" stroke-width="0.5" stroke-miterlimit="10"/>
<path d="M350.1 340C347.2 343.8 343.1 350.2 341.2 358.8C340.2 363.5 340 367.8 341 380.8C342.6 400.2 343.6 398.4 343.7 406C343.8 414.2 341.8 423.7 337.8 442.7C336.4 449.2 335.2 454.5 334.4 458.2C337.8 461.1 342.8 464.8 349.3 468.2C365.1 476.4 379.2 477.3 382.9 477.5C400 478.3 413.2 473.1 419.8 470C419.1 466.7 418.1 461.6 417.6 455.2C416.6 442.1 418.6 433.2 420 422.6C422 408.5 422.3 397.6 422.4 387.2C422.7 357.6 421.8 355.4 420 353.3C416.8 349.6 412.6 347.9 404 344.4C400.1 342.8 393.4 340.5 384.5 339.1C377 338 365 337.1 350.1 340Z" fill="white"/>
<path d="M334.3 458.2C334.2 458.2 334.4 456.9 334.8 454.5C335.2 452.2 335.9 448.8 336.7 444.6C337.6 440.4 338.6 435.5 339.8 429.9C340.9 424.4 342.1 418.3 342.6 411.9C343.1 405.5 342.6 399.3 342 393.8C341.3 388.2 340.6 383.2 340.2 378.9C339.8 374.6 339.8 371.1 340 368.8C340.1 366.4 340.4 365.1 340.5 365.1C340.8 365.1 340.3 370.4 341.4 378.8C341.9 383 342.7 388 343.5 393.6C344.3 399.2 344.8 405.5 344.3 412.1C343.8 418.7 342.5 424.8 341.3 430.3C340.1 435.8 338.9 440.7 337.9 444.9C336.9 449 336.1 452.4 335.5 454.7C334.8 456.9 334.4 458.2 334.3 458.2Z" fill="#005797" stroke="#005797" stroke-width="0.5" stroke-miterlimit="10"/>
<path d="M420.1 469.8C420.1 469.9 419.1 470.6 417 471.6C414.9 472.6 411.8 473.9 407.9 475.1C403.9 476.3 399.1 477.4 393.6 478C388.1 478.6 382.1 478.6 375.8 477.7C369.5 476.8 363.6 475.2 358.5 473.2C353.4 471.2 349 468.9 345.5 466.6C342 464.4 339.4 462.3 337.6 460.8C335.9 459.3 335 458.3 335 458.3C335.2 458.1 339 461.5 346 465.7C353 469.9 363.5 474.4 375.9 476.1C388.3 477.8 399.6 476.1 407.5 474C415.4 471.8 420 469.5 420.1 469.8Z" fill="#005797" stroke="#005797" stroke-width="0.5" stroke-miterlimit="10"/>
<path d="M419.9 353.2C419.7 353.4 416.2 351 410.2 348C409.4 347.6 408.6 347.2 407.8 346.8C407 346.4 406.1 346.1 405.2 345.7C403.4 344.9 401.4 344.2 399.3 343.4C395.1 342 390.3 340.7 385.2 339.8C380.1 338.9 375.2 338.5 370.7 338.4C368.5 338.4 366.3 338.4 364.4 338.5C363.4 338.6 362.4 338.6 361.5 338.7C360.6 338.8 359.7 338.9 358.9 339C352.2 339.8 348.1 340.8 348 340.5C348 340.4 349 340 350.8 339.5C351.3 339.4 351.8 339.2 352.3 339.1C352.9 339 353.5 338.8 354.2 338.7C355.5 338.4 357 338.1 358.8 337.9C359.7 337.8 360.5 337.7 361.5 337.5C362.4 337.4 363.4 337.3 364.4 337.2C366.4 337 368.6 337 370.8 336.9C375.3 336.9 380.3 337.3 385.5 338.2C390.7 339.1 395.5 340.5 399.8 342C401.9 342.8 403.9 343.6 405.8 344.4C406.7 344.8 407.6 345.2 408.4 345.6C409.2 346 410 346.5 410.8 346.9C412.3 347.7 413.6 348.5 414.8 349.2C415.4 349.6 415.9 349.9 416.4 350.2C416.9 350.5 417.3 350.9 417.7 351.1C419.1 352.4 419.9 353.1 419.9 353.2Z" fill="#005797" stroke="#005797" stroke-width="0.5" stroke-miterlimit="10"/>
<path d="M419.7 470C419.6 470 419.2 468.7 418.5 466.2C418 463.7 417.2 460.1 417 455.6C416.7 451.1 416.7 445.6 417.2 439.7C417.7 433.7 418.5 427.2 419.4 420.4C420.3 413.6 421.1 407.1 421.4 401.1C421.7 395.2 421.8 389.8 421.6 385.3C421.5 380.8 421.2 377.2 421.1 374.6C420.9 372.1 420.8 370.7 421 370.7C421.1 370.7 421.4 372.1 421.8 374.6C422.2 377.1 422.6 380.8 422.8 385.3C423.1 389.8 423.2 395.2 422.9 401.2C422.7 407.2 421.9 413.8 421 420.6C420.1 427.4 419.2 433.9 418.6 439.9C418 445.8 417.9 451.2 418 455.7C418.1 460.2 418.7 463.8 419 466.3C419.6 468.6 419.8 469.9 419.7 470Z" fill="#005797" stroke="#005797" stroke-width="0.5" stroke-miterlimit="10"/>
<path d="M419.899 353.2C417.499 354.4 411.399 357.9 407.299 365.2C402.799 373.1 403.199 380.6 403.499 383.2C408.799 397.4 414.199 411.6 419.499 425.8C413.599 437.9 407.699 450 401.799 462.1C398.699 464.1 395.999 465.3 394.199 466.1C388.399 468.5 384.999 468.5 380.299 471.5C378.199 472.8 376.599 474.2 375.699 475.1C382.499 475.7 383.899 476.8 383.999 477.6C384.299 479.5 377.699 481.2 368.199 487.6C365.099 489.8 362.299 491 362.499 491.8C362.699 492.5 364.999 492.5 367.099 492.3C366.999 492.6 366.499 494.3 367.499 496C367.999 496.8 368.699 497.3 369.099 497.5C370.299 498.2 371.799 499 373.799 499.4C379.499 500.7 384.199 498.5 385.799 497.6C384.999 498.1 380.299 501 380.899 502.7C381.299 503.9 384.099 503.8 384.399 503.8C386.999 503.8 388.899 502.4 391.199 500.7C395.399 497.4 397.499 495.8 399.499 493.3C402.999 488.8 402.599 486.8 406.299 482.5C408.299 480.1 410.299 478.5 411.699 477.5C411.999 478.5 412.299 479.5 412.599 480.6C416.199 477 420.699 472.2 425.099 466C430.199 458.9 433.099 452.9 434.799 449.4C437.499 443.9 440.599 436.6 443.099 427.6C442.299 421 440.899 412.5 438.599 402.7C437.799 399.4 436.299 393 433.799 385.3C430.999 376.9 426.699 365.8 419.899 353.2Z" fill="white"/>
<path d="M443.2 428.7C443 428.7 442.3 424.3 440.9 417.2C439.5 410.1 437.4 400.3 434.2 389.7C431 379.1 427.5 369.7 424.7 363C421.9 356.3 419.2 352.8 419.4 352.6C419.5 352.5 420.3 353.3 421.5 355C422.7 356.7 424.2 359.2 425.8 362.5C428.9 369.1 432.6 378.5 435.8 389.2C439 399.9 441 409.8 442.1 417C442.6 420.6 443 423.5 443.2 425.6C443.3 427.5 443.3 428.7 443.2 428.7Z" fill="#005797" stroke="#005797" stroke-width="0.5" stroke-miterlimit="10"/>
<path d="M419.399 425.8C418.899 425.9 415.999 415.9 411.399 403.8C406.899 391.7 402.399 382.2 402.899 382C403.099 381.9 404.499 384.2 406.399 388C408.299 391.8 410.699 397.2 412.999 403.2C415.299 409.3 416.999 414.9 418.099 419C419.199 423.2 419.599 425.8 419.399 425.8Z" fill="#005797" stroke="#005797" stroke-width="0.5" stroke-miterlimit="10"/>
<path d="M401.8 462.1C401.4 461.9 405.9 453.8 410.8 443.6C415.7 433.4 419.2 424.8 419.6 425C420 425.1 417.2 434 412.2 444.3C407.3 454.6 402.1 462.3 401.8 462.1Z" fill="#005797" stroke="#005797" stroke-width="0.5" stroke-miterlimit="10"/>
<path d="M412.5 480.5C412 480.6 410.7 475.9 407.9 470.6C407.2 469.3 406.5 468 405.9 466.9C405.2 465.8 404.6 464.8 404 464.1C402.8 462.6 401.7 462.2 401.8 461.9C401.8 461.8 402.2 461.8 402.7 461.9C403.3 462.1 404.1 462.5 404.8 463.2C405.6 463.9 406.4 464.9 407.1 466C407.9 467.1 408.6 468.4 409.3 469.7C412.2 475.4 412.9 480.4 412.5 480.5Z" fill="#005797" stroke="#005797" stroke-width="0.5" stroke-miterlimit="10"/>
<path d="M413.399 480.5C413.199 480.3 415.399 477.7 418.699 473.4C420.299 471.2 422.199 468.6 424.299 465.6C426.299 462.6 428.399 459.3 430.499 455.7C432.499 452.1 434.299 448.6 435.899 445.3C437.399 442.1 438.699 439.1 439.699 436.6C441.799 431.6 442.899 428.4 443.099 428.4C443.299 428.5 442.599 431.8 440.799 437C439.899 439.6 438.699 442.6 437.199 446C435.699 449.3 433.899 452.9 431.899 456.5C429.799 460.1 427.599 463.5 425.599 466.5C423.499 469.5 421.499 472 419.699 474.1C415.999 478.4 413.499 480.7 413.399 480.5Z" fill="#005797" stroke="#005797" stroke-width="0.5" stroke-miterlimit="10"/>
<path d="M383.9 476.6C383.9 476.8 381.8 476.9 378.5 476.8C378.1 476.8 377.7 476.8 377.2 476.8C376.9 476.8 376.7 476.7 376.4 476.6C376.1 476.5 375.7 476.3 375.5 476C374.9 475.4 375 474.4 375.6 473.8C376.1 473.3 376.5 473 377 472.6C378.9 471.2 381.2 470.2 383.6 469.3C386 468.4 388.3 467.7 390.4 467C392.4 466.3 394.3 465.5 395.8 464.8C398.8 463.5 400.7 462.6 400.8 462.8C400.9 463 399.3 464.3 396.3 465.9C394.8 466.7 393 467.6 391 468.4C388.9 469.3 386.6 470 384.2 470.8C381.8 471.7 379.7 472.6 377.9 473.8C377.5 474.1 377 474.4 376.8 474.7C376.7 474.8 376.6 475 376.7 475.2C376.8 475.3 376.8 475.3 377 475.4C377.2 475.5 377.4 475.5 377.5 475.5C377.9 475.6 378.4 475.6 378.8 475.6C381.8 476 383.9 476.3 383.9 476.6Z" fill="#005797" stroke="#005797" stroke-width="0.5" stroke-miterlimit="10"/>
<path d="M381.7 488.2C381.8 488.4 379.5 490 375.2 491.4C373.1 492.1 370.4 492.7 367.5 493C366.8 493.1 366 493.1 365.2 493.2H364.6C364.3 493.2 363.9 493.2 363.6 493.2C362.9 493.1 362.4 492.9 362.1 492.5C362 492.4 361.9 492.3 361.9 492.2L361.8 492C361.8 491.9 361.8 491.9 361.8 491.8L362.1 491.1C362.2 490.9 362.5 490.6 362.7 490.4C362.9 490.2 363.2 489.9 363.4 489.7C364.1 489.1 364.7 488.6 365.5 488.1C368.4 486.2 371.4 484.9 374 483.6C376.6 482.3 378.8 480.9 380.5 479.6C384 477 385.9 475 386.1 475.1C386.2 475.2 384.7 477.5 381.2 480.5C379.5 481.9 377.3 483.5 374.7 484.9C372.1 486.3 369.1 487.6 366.4 489.4C365.7 489.9 365.1 490.3 364.5 490.8L364.3 491L364.2 491.1L364.1 491.2C364 491.2 364.1 491.3 364.2 491.3C364.3 491.4 364.4 491.4 364.5 491.4C364.8 491.4 365 491.4 365.3 491.4C366.1 491.4 366.8 491.3 367.5 491.3C370.4 491.1 372.9 490.6 375 490C379.1 489.2 381.6 488 381.7 488.2Z" fill="#005797" stroke="#005797" stroke-width="0.5" stroke-miterlimit="10"/>
<path d="M388.2 491.1C388.3 491.3 387 492.3 384.7 493.4C382.4 494.5 378.9 495.8 375 496.4C373.4 496.6 371.8 496.8 370.3 496.8C369.6 496.8 368.8 496.8 368.2 496.7C368 496.7 367.8 496.7 367.5 496.7C367.2 496.7 367 496.6 366.8 496.6C366.4 496.4 366 496.2 365.9 495.8C365.7 495.2 366 494.7 366.4 494.3C366.6 494.1 366.8 493.9 367.1 493.8C367.3 493.7 367.4 493.6 367.6 493.5C368.2 493.1 368.8 492.9 369.2 492.7C370.1 492.3 370.7 492.2 370.7 492.4C370.8 492.5 370.3 492.8 369.5 493.4C369.1 493.7 368.6 494 368.1 494.4C368 494.5 367.9 494.6 367.7 494.7C367.6 494.8 367.6 494.8 367.5 494.9C367.4 495 367.3 495.2 367.4 495.3C367.5 495.4 367.6 495.4 367.7 495.4C367.8 495.4 367.8 495.4 367.9 495.4H368H368.2C368.8 495.4 369.5 495.4 370.2 495.4C371.6 495.3 373.1 495.2 374.7 495C382.3 493.7 388 490.6 388.2 491.1Z" fill="#005797" stroke="#005797" stroke-width="0.5" stroke-miterlimit="10"/>
<path d="M388 496.3C388.1 496.5 387.1 497.1 385.5 497.9C383.9 498.7 381.5 499.6 378.7 500.1C375.9 500.6 373.2 500.2 371.4 499.5C370.5 499.1 369.8 498.7 369.5 498.2C369.1 497.8 369 497.5 369.1 497.4C369.3 497.2 370.1 498 371.7 498.3C373.4 498.6 375.8 498.8 378.4 498.3C381 497.9 383.3 497.1 385.1 496.6C386.8 496.3 387.9 496.1 388 496.3Z" fill="#005797" stroke="#005797" stroke-width="0.5" stroke-miterlimit="10"/>
<path d="M412.1 477.2C412.2 477.4 409.5 478.6 407 482.4C405.7 484.2 404.5 486.7 403 489.3C401.5 492 399.5 494.9 396.9 497.3C394.3 499.8 391.3 501.7 388.5 503C387.8 503.3 387.1 503.6 386.4 503.9C385.7 504.2 385 504.4 384.3 504.5C383.6 504.6 382.8 504.7 382 504.4C381.3 504.1 380.7 503.5 380.4 502.8C380.3 502.4 380.2 502 380.3 501.7C380.4 501.3 380.6 501 380.8 500.8C381.2 500.3 381.6 500 382 499.7C382.7 499.1 383.4 498.7 384 498.4C385.2 497.8 385.9 497.6 385.9 497.7C386 497.8 385.3 498.2 384.3 499C383.8 499.4 383.2 499.9 382.5 500.5C382.2 500.8 381.8 501.2 381.6 501.5C381.4 501.8 381.3 502.2 381.5 502.5C381.7 502.9 382 503.2 382.5 503.3C382.9 503.4 383.5 503.4 384.1 503.3C384.7 503.2 385.3 502.9 386 502.6C386.7 502.3 387.3 502 388 501.7C390.7 500.4 393.4 498.6 395.9 496.2C401 491.5 403.2 485.4 406.3 481.7C407.7 479.8 409.3 478.6 410.4 477.9C410.7 477.7 410.9 477.6 411.2 477.5C411.4 477.4 411.6 477.3 411.8 477.3C411.9 477.2 412.1 477.2 412.1 477.2Z" fill="#005797" stroke="#005797" stroke-width="0.5" stroke-miterlimit="10"/>
<path d="M368.3 260.7C371.1 259.4 381 254.8 390.9 259C394 260.3 396.2 262.1 397.6 263.4C399.9 263.1 404 262.8 408.5 264.4C416 267.1 419.7 273.1 421.6 276.1C422.6 277.7 423.7 279.9 426.9 292.8C430.9 308.9 430.5 310.9 433.5 316.6C435.2 319.9 436.4 321.2 438.8 326.2C440.3 329.3 442.1 333.1 443.5 338.3C445.3 344.9 446.9 350.9 444.1 356.4C443.6 357.4 442.6 359.3 440.4 360.8C438 362.4 435 363 427.8 361.9C420 360.7 416.1 360.1 411.7 357.7C409.9 356.7 399.6 350.9 395.6 338.2C393.9 332.8 394 328 394.2 325.1C391 323.7 364.1 311.4 355.4 295.8C354.1 293.5 351.7 289.2 351.8 283.3C351.9 276.3 355.5 271.3 356.8 269.5C360.8 264.2 365.6 261.9 368.3 260.7Z" fill="#005797"/>
<path d="M358.9 282.8C358.1 285.3 357.1 288.8 356.1 293.1C354.2 300.7 353.3 304.6 353.1 309.8C352.9 313.9 352.7 318.7 354.5 324.4C356 329.1 358.2 332.6 359.8 334.8C361.5 335.4 363.6 336 366.1 336.3C369.9 336.8 373.1 336.5 375.5 336.1C376.9 340.1 378.4 344 379.8 348C381.4 348.2 384.5 348.4 388.1 347C393.5 344.9 396 340.5 396.7 339.2C395.2 336 394.8 333.2 394.7 331.4C394.5 329 394.3 326.7 395.5 324.1C396.8 321.3 398.9 319.7 400 318.9C400.9 319.4 402.5 320.2 404.5 320.3C409.4 320.3 412.3 315.8 412.8 315.2C413.3 314.4 415.7 310.8 414.5 306.7C414.2 305.8 413.6 303.7 411.6 302.6C408.5 300.8 404.9 303 404.8 303.1C404.1 302.7 403.2 302 402.1 301.2C398.3 298.2 395.9 294.9 394.8 293.2C390.1 285.5 391.8 274.9 392 273.6C390 273.5 387.3 273.5 383.9 273.8C382.1 274 376 274.7 368.6 277.8C366 278.7 362.6 280.3 358.9 282.8Z" fill="white"/>
<path d="M359.8 334.8C359.7 334.9 359.1 334.3 358.1 333.1C357.1 331.9 355.9 330 354.9 327.4C353.8 324.8 352.9 321.6 352.5 317.9C352.1 314.2 352.1 310.2 352.6 306C353.2 301.8 354.1 297.9 355 294.4C355.9 290.9 356.9 287.8 357.7 285.2C359.3 280 360.2 276.7 360.4 276.8C360.6 276.8 360.1 280.2 358.8 285.5C357.5 290.8 355.3 298.1 354.2 306.3C353.7 310.4 353.6 314.3 353.9 317.9C354.2 321.4 355 324.6 355.9 327.1C357.8 332 360.1 334.6 359.8 334.8Z" fill="#005797" stroke="#005797" stroke-width="0.5" stroke-miterlimit="10"/>
<path d="M384.201 332.3C384.301 332.5 383.201 333.4 381.001 334.5C378.901 335.6 375.701 336.7 372.001 337C368.301 337.4 365.001 337 362.701 336.3C361.501 336 360.601 335.5 360.101 335C359.601 334.5 359.401 334.1 359.501 334.1C359.601 334 359.901 334.3 360.401 334.5C361.001 334.8 361.801 335 362.901 335.2C365.201 335.5 368.301 335.7 371.801 335.4C378.901 334.8 384.001 331.8 384.201 332.3Z" fill="#005797" stroke="#005797" stroke-width="0.5" stroke-miterlimit="10"/>
<path d="M380.2 346.5C379.9 346.8 377.9 344.9 376.6 341.8C375.2 338.8 375.1 336.1 375.5 336C376 335.9 376.8 338.3 378 341.1C379.3 344.1 380.5 346.3 380.2 346.5Z" fill="#005797" stroke="#005797" stroke-width="0.5" stroke-miterlimit="10"/>
<path d="M396.7 339.2C396.3 339.4 394.6 336.5 394 332.5C393.4 328.5 394.2 325.3 394.6 325.3C395.1 325.4 395 328.5 395.6 332.2C396.1 336 397.1 339 396.7 339.2Z" fill="#005797" stroke="#005797" stroke-width="0.5" stroke-miterlimit="10"/>
<path d="M400.1 318.2C400.5 318.4 399.8 320.5 398.1 322.5C396.4 324.5 394.4 325.5 394.2 325.2C393.9 324.8 395.3 323.3 396.9 321.5C398.5 319.6 399.7 318 400.1 318.2Z" fill="#005797" stroke="#005797" stroke-width="0.5" stroke-miterlimit="10"/>
<path d="M404.6 302.5C404.5 302.4 404.8 302 405.7 301.5C406.5 301 408 300.5 409.8 300.8C410.7 301 411.7 301.3 412.6 301.9C413.5 302.5 414.3 303.5 414.8 304.6C415.8 306.9 415.6 309.6 415 312.2C414.3 314.8 412.9 317.1 411 318.6C409.2 320.2 407 320.8 405.2 320.8C403.4 320.9 402 320.4 401.2 319.9C400.3 319.4 400 319 400.1 318.9C400.2 318.8 400.6 319 401.5 319.3C402.4 319.6 403.6 319.8 405.2 319.6C406.7 319.4 408.6 318.8 410.1 317.4C411.6 316 412.8 314 413.5 311.7C414.1 309.4 414.2 307 413.5 305.1C412.8 303.2 411.2 302.2 409.7 301.8C408.2 301.4 406.9 301.6 406.1 301.9C405.1 302.3 404.7 302.6 404.6 302.5Z" fill="#005797" stroke="#005797" stroke-width="0.5" stroke-miterlimit="10"/>
<path d="M367.6 314.1C367.5 314.3 366.2 313.9 364.4 312.5C364 312.1 363.5 311.7 363.1 311.2C362.7 310.6 362.3 309.8 362.3 309C362.2 307.2 363.2 305.7 364 304.3C367.4 298.8 370.5 294.5 370.9 294.8C371.3 295 368.8 299.7 365.4 305.2C364.5 306.5 363.8 307.8 363.8 308.9C363.8 310 364.5 310.9 365.2 311.7C366.6 313.2 367.7 313.9 367.6 314.1Z" fill="#005797" stroke="#005797" stroke-width="0.5" stroke-miterlimit="10"/>
<path d="M377.6 315.5C377.7 315.7 377.1 316.4 375.8 317.4C374.6 318.4 372.7 319.6 370.4 320.4C368 321.2 365.6 321.2 364.1 320.8C362.5 320.4 361.7 319.8 361.8 319.6C361.9 319.4 362.8 319.6 364.3 319.7C365.8 319.8 367.8 319.7 369.9 318.9C372 318.2 373.9 317.1 375.2 316.4C376.6 315.7 377.5 315.3 377.6 315.5Z" fill="#005797" stroke="#005797" stroke-width="0.5" stroke-miterlimit="10"/>
<path d="M377.401 317.1C377.001 317.3 376.401 316.9 376.101 316.4C375.801 315.8 375.701 315.2 376.101 314.9C376.401 314.6 377.101 314.9 377.501 315.6C378.001 316.2 377.901 317 377.401 317.1Z" fill="#005797" stroke="#005797" stroke-width="0.5" stroke-miterlimit="10"/>
<path d="M380.4 308.9C379.9 308.8 379.6 308.5 379.5 308.3C379.4 308 379.3 307.6 379.5 307.2C379.6 307 379.8 306.9 380.1 307C380.4 307.1 380.7 307.3 380.9 307.6C381.1 308 381.1 308.4 381 308.6C380.8 308.8 380.6 308.9 380.4 308.9Z" fill="#005797" stroke="#005797" stroke-width="0.5" stroke-miterlimit="10"/>
<path d="M389.5 306.6C389.7 307 389.4 307.5 389 307.7C388.5 307.9 388 307.7 387.8 307.3C387.6 306.9 387.9 306.4 388.3 306.2C388.8 306 389.3 306.2 389.5 306.6Z" fill="#005797" stroke="#005797" stroke-width="0.5" stroke-miterlimit="10"/>
<path d="M384.9 313.1C384.5 313.2 384 313 383.9 312.6C383.8 312.2 384 311.7 384.4 311.6C384.8 311.5 385.3 311.7 385.4 312.1C385.5 312.5 385.3 313 384.9 313.1Z" fill="#005797" stroke="#005797" stroke-width="0.5" stroke-miterlimit="10"/>
<path d="M390.7 299.3C390.9 299.4 390.6 300.2 389.6 301C388.7 301.8 387 302.7 385.1 302.8C383.1 302.9 381.3 302.2 380.4 301.2C379.9 300.7 379.7 300.2 379.6 299.8C379.5 299.4 379.6 299.2 379.7 299.2C379.9 299.1 380.2 299.8 381.1 300.3C381.9 300.9 383.3 301.3 385 301.2C386.6 301.1 388 300.6 389 300.1C389.9 299.6 390.5 299.2 390.7 299.3Z" fill="#005797" stroke="#005797" stroke-width="0.5" stroke-miterlimit="10"/>
<path d="M392 287.3C391.8 287.4 391.4 286.7 390.6 285.9C389.8 285.1 388.5 284.1 386.8 283.8C385.1 283.5 383.5 283.8 382.5 284.3C381.4 284.7 380.8 285.2 380.6 285.1C380.4 285 380.8 284.2 381.9 283.3C383 282.5 384.9 281.8 387.1 282.2C389.3 282.6 390.8 284.1 391.5 285.2C392.2 286.3 392.2 287.2 392 287.3Z" fill="#005797" stroke="#005797" stroke-width="0.5" stroke-miterlimit="10"/>
<path d="M362.5 295.3C362.1 295.2 362 293.6 362.7 291.7C363.4 289.9 364.4 288.6 364.8 288.9C365.2 289.1 364.8 290.6 364.2 292.3C363.6 294 363 295.3 362.5 295.3Z" fill="#005797" stroke="#005797" stroke-width="0.5" stroke-miterlimit="10"/>
<path d="M368 285.9C367.8 285.9 367.6 285.5 367.3 285C367 284.5 366.4 284 365.7 283.7C365 283.5 364.2 283.6 363.7 283.8C363.1 284 362.8 284.2 362.6 284.1C362.4 284 362.5 283.4 363.1 282.8C363.7 282.2 364.9 281.7 366.3 282.1C367.6 282.6 368.3 283.7 368.4 284.5C368.5 285.4 368.2 285.9 368 285.9Z" fill="#005797" stroke="#005797" stroke-width="0.5" stroke-miterlimit="10"/>
<path d="M405 302.9C404.9 303.1 402.9 302.4 400.3 300.4C397.6 298.4 394.4 294.9 392.4 290.1C390.4 285.3 390.3 280.5 390.8 277.2C391.3 273.9 392.2 272 392.4 272.1C392.6 272.2 392.1 274.1 391.9 277.3C391.7 280.5 392.1 285 393.9 289.4C395.7 293.9 398.6 297.3 401 299.4C403.3 301.7 405.1 302.7 405 302.9Z" fill="#005797" stroke="#005797" stroke-width="0.5" stroke-miterlimit="10"/>
<path d="M391.9 273.5C391.9 273.7 389.7 273.8 386.2 274.2C382.7 274.6 377.8 275.4 372.7 277.1C367.6 278.8 363.2 280.9 360.1 282.7C358.6 283.6 357.5 284.5 356.9 285.2C356.3 285.9 356.1 286.4 355.9 286.4C355.8 286.4 355.8 285.8 356.3 284.8C356.8 283.9 357.9 282.7 359.4 281.7C362.4 279.6 366.8 277.2 372.1 275.5C377.4 273.8 382.4 273.1 386 273C389.7 272.9 391.9 273.3 391.9 273.5Z" fill="#005797" stroke="#005797" stroke-width="0.5" stroke-miterlimit="10"/>
<path d="M397.6 263.4C397.5 263.5 396.8 262.8 395.3 261.9C393.8 260.9 391.6 259.7 388.6 258.9C385.6 258.1 381.9 257.8 377.9 258.5C373.9 259.2 369.6 260.8 365.5 263.2C361.5 265.6 358.1 268.8 355.9 272.2C353.7 275.6 352.7 279.2 352.4 282.3C352.1 285.4 352.6 287.9 353.1 289.5C353.6 291.2 354 292.1 353.9 292.1C353.8 292.1 353.2 291.4 352.5 289.7C351.8 288 351.1 285.4 351.3 282.2C351.4 279 352.4 275.1 354.7 271.4C357 267.7 360.5 264.4 364.7 261.8C368.9 259.3 373.4 257.6 377.7 257C382 256.4 385.9 256.8 389 257.8C392.1 258.8 394.3 260.2 395.7 261.4C397.1 262.5 397.6 263.3 397.6 263.4Z" fill="#005797" stroke="#005797" stroke-width="0.5" stroke-miterlimit="10"/>
<path d="M443.6 358.6C443.5 358.6 443.8 357 444.1 354.1C444.4 351.2 444.5 346.9 443.6 341.8C443.1 339.2 442.3 336.5 441.2 333.7C440.1 330.9 438.4 328.1 436.5 325.1C434.6 322.2 432.5 319.1 430.9 315.5C429.3 311.9 428.4 308 427.7 304C427 300 426.6 296.1 426 292.3C425.4 288.6 424.7 285 423.5 281.8C421.2 275.3 416.9 270.5 412.7 267.5C408.5 264.4 404.4 263.2 401.5 262.9C398.6 262.6 397 263.1 397 263C397 263 397.4 262.8 398.1 262.6C398.9 262.4 400 262.3 401.5 262.3C404.5 262.4 408.9 263.5 413.3 266.6C417.7 269.6 422.3 274.6 424.8 281.3C426.1 284.6 426.9 288.3 427.5 292.1C428.1 295.9 428.5 299.8 429.2 303.7C429.8 307.6 430.8 311.4 432.2 314.8C433.6 318.2 435.7 321.2 437.6 324.2C439.5 327.1 441.2 330.1 442.3 333.1C443.4 336 444.2 338.9 444.6 341.5C445.4 346.8 445.1 351.2 444.6 354.1C444.5 354.8 444.4 355.5 444.2 356C444.1 356.6 444 357 443.8 357.4C443.8 358.2 443.7 358.6 443.6 358.6Z" fill="#005797" stroke="#005797" stroke-width="0.5" stroke-miterlimit="10"/>
<path d="M443.7 358.1C443.8 358.1 443.5 359 442.4 360.1C441.3 361.2 439.1 362.2 436.4 362.6C435.7 362.7 435 362.8 434.3 362.8C433.6 362.8 432.8 362.9 432 362.9C431.2 362.9 430.4 362.9 429.5 362.8C428.6 362.8 427.8 362.6 426.9 362.5C423.3 362 419.5 361 415.7 359.3C411.9 357.6 408.6 355.4 405.9 353.1C403.1 350.8 401.1 348.3 399.5 346.1C398.8 345 398 344 397.6 343C397.1 342 396.6 341.3 396.4 340.5C395.8 339.1 395.6 338.3 395.7 338.3C396 338.2 397.3 341.2 400.5 345.4C402.2 347.4 404.2 349.8 406.9 352C409.6 354.2 412.8 356.3 416.4 357.9C423.7 361.2 431.1 361.9 436.3 361.4C438.9 361.2 440.9 360.4 442 359.6C443.2 358.7 443.6 358 443.7 358.1Z" fill="#005797" stroke="#005797" stroke-width="0.5" stroke-miterlimit="10"/>
<path d="M309.8 305.6C309.5 306.2 309.1 307.3 309.1 308.7C309.1 310.4 309.7 311.7 310 312.4C309.3 314.2 308.5 315.9 307.8 317.7C306.7 317.4 304.7 317.2 302.6 317.9C299.8 318.9 298.3 321 297.3 322.7C292.6 330 290.5 337.1 290.5 337.1C286.9 349.5 285.1 355.6 284.8 360.5C284.7 362.1 284.2 369.6 286.1 379.2C287.6 386.6 288.4 390.7 292 394.4C296.7 399.2 302.7 400.1 304.4 400.3C306.8 400.6 310.8 400.7 318.8 397.3C324 395.1 331.9 391 340.1 383.4C340 380.1 340.1 376.6 340.4 372.8C341.7 359.1 346 347.9 350.1 340C348.3 340.3 345.6 341 343 342.8C339.5 345.1 338.6 347.5 334.6 351.4C331.9 354 330 355.2 328 356.7C324.1 359.6 318.5 364.7 311.4 374.4C314.2 363.3 317.4 351.9 321 340.2C322.5 335.3 324.1 330.5 325.6 325.8C325.4 325.2 324.9 323.9 323.7 322.8C322.1 321.3 320.3 321 319.7 321C321.3 319.2 322.9 317.4 324.5 315.5C325.8 315.8 328.6 316.2 331.7 315C333.4 314.4 334.5 313.5 335.2 313C338 310.9 339.3 308.3 340.1 306.7C341.4 304.1 341.9 301.6 342.2 299.6C343 299.6 344.3 299.8 345.6 300.4C348.1 301.5 348.5 303.2 350.6 304.9C353.6 307.4 357.2 307.7 358.7 307.8C359.9 307.9 362.6 308.1 365.6 306.9C368.2 305.9 369.7 304.3 370.6 303.4C371.6 302.4 376 297.7 376.1 290.6C376.1 287.6 375.4 285.4 374.8 283.7C373.7 280.7 371.9 275.4 366.8 272.9C363 271.1 359.2 271.8 357.5 272.1C351.3 273.3 347.8 277.6 346.7 278.9C342.7 283.8 342.4 289.1 342.3 290.9C341.1 290.6 339.9 290.3 338.8 290C337.9 288.9 336 286.8 332.9 285.6C330.2 284.5 327.9 284.7 325.9 284.9C323.8 285.1 319.2 285.5 314.9 288.9C312.6 290.7 311.2 292.8 310.4 294.4C309.8 295 308.4 296.6 308 299.1C307.6 302.5 309.5 305.1 309.8 305.6Z" fill="white"/>
<path d="M312.2 373.7C312 373.5 314 371.1 317.4 367.3C320.8 363.5 325.5 358.3 330.8 352.7C333.5 349.9 336.1 347.2 338.8 345.1C341.5 343 344.1 341.4 346.5 340.4C348.9 339.4 351 338.9 352.4 338.8C353.8 338.6 354.6 338.7 354.6 338.8C354.6 339.1 351.4 339.2 346.9 341.4C344.7 342.5 342.2 344.1 339.6 346.3C337.1 348.4 334.5 351.1 331.9 353.9C326.6 359.5 321.7 364.6 318.1 368.2C314.7 371.7 312.4 373.9 312.2 373.7Z" fill="#005797" stroke="#005797" stroke-width="0.5" stroke-miterlimit="10"/>
<path d="M325.7 325.8C325.9 325.9 325.2 328.7 323.9 333.2C322.6 337.7 320.8 343.9 318.8 350.8C316.8 357.7 315.1 363.9 313.8 368.4C312.5 372.9 311.6 375.7 311.4 375.6C311.2 375.5 311.7 372.7 312.7 368.1C313.7 363.5 315.3 357.2 317.3 350.3C319.3 343.4 321.3 337.2 322.9 332.8C324.4 328.4 325.5 325.7 325.7 325.8Z" fill="#005797" stroke="#005797" stroke-width="0.5" stroke-miterlimit="10"/>
<path d="M325.3 325.3C325.2 325.4 324.8 324.3 323.4 323.1C322.1 321.9 319.6 320.8 316.4 320C314.8 319.6 313 319.2 311.1 318.8C309.2 318.5 307.1 318.1 305 318.3C302.9 318.4 300.8 319.1 299.4 320.8C298.7 321.6 298.1 322.7 297.5 323.8C296.9 324.9 296.3 326 295.7 327.1C291 336.1 288.3 345 286.9 351.5C285.5 358 285.1 362.2 284.8 362.1C284.7 362.1 284.7 361 284.8 359.2C284.9 357.3 285.2 354.6 285.8 351.3C287 344.7 289.5 335.6 294.3 326.4C294.9 325.3 295.5 324.1 296.1 323C296.7 321.9 297.3 320.8 298.2 319.8C299 318.8 300.2 318 301.4 317.5C302.6 317 303.8 316.8 305 316.8C307.3 316.7 309.5 317.1 311.4 317.5C313.3 317.9 315.1 318.4 316.8 318.9C320.1 319.8 322.6 321.2 323.9 322.7C325.3 324.1 325.4 325.3 325.3 325.3Z" fill="#005797" stroke="#005797" stroke-width="0.5" stroke-miterlimit="10"/>
<path d="M339.2 384.2C339.3 384.3 338.4 385.2 336.6 386.6C334.8 388 332.2 390 328.8 392.2C327.1 393.3 325.2 394.5 323.2 395.7C321.1 396.9 318.8 398.1 316.3 399.1C313.8 400.1 310.9 400.8 307.9 401.1C304.9 401.3 301.7 400.9 298.7 399.5C295.7 398.2 293.3 396 291.5 393.6C289.7 391.2 288.4 388.6 287.4 386.1C285.4 381 284.8 376.1 284.5 372C284.2 367.9 284.3 364.6 284.5 362.4C284.6 360.1 284.8 358.9 284.9 358.9C285 358.9 285.1 360.2 285.1 362.4C285.2 364.7 285.2 367.9 285.7 371.9C286.1 375.9 286.9 380.6 288.9 385.5C289.9 387.9 291.2 390.4 292.9 392.6C294.6 394.8 296.8 396.8 299.5 398C302.2 399.2 305.1 399.6 307.9 399.4C310.7 399.2 313.4 398.5 315.8 397.6C318.3 396.7 320.5 395.6 322.6 394.4C324.7 393.2 326.6 392.1 328.3 391.1C331.8 389 334.5 387.2 336.3 385.9C338.1 384.8 339.1 384.1 339.2 384.2Z" fill="#005797" stroke="#005797" stroke-width="0.5" stroke-miterlimit="10"/>
<path d="M334 303.8C333.8 303.7 335.2 301.6 338.1 298.8C338.5 298.5 338.9 298 339.6 297.8C340.3 297.6 341.2 297.8 341.8 298.3C342.4 298.8 342.8 299.5 342.9 300.3C343 301.1 342.9 301.8 342.7 302.5C341.9 305.1 340.5 307.7 338.7 310.3C337.8 311.5 336.8 312.7 335.6 313.7C334.5 314.7 333.1 315.5 331.7 315.8C330.3 316.2 328.9 316 327.8 315.9C326.7 315.8 325.7 315.8 324.8 316C323.1 316.6 322.2 318 321.6 318.9C321 319.8 320.7 320.3 320.6 320.3C320.5 320.3 320.6 319.6 321.1 318.6C321.3 318.1 321.6 317.5 322.1 316.8C322.6 316.1 323.3 315.4 324.4 315C325.4 314.6 326.7 314.5 327.8 314.6C329 314.6 330.2 314.7 331.3 314.4C333.6 313.8 335.6 311.8 337.3 309.4C339 307 340.4 304.5 341.2 302.2C341.4 301.6 341.5 301.1 341.4 300.6C341.4 300.2 341.1 299.7 340.8 299.5C340.5 299.2 340.2 299.1 339.8 299.2C339.5 299.3 339.1 299.5 338.7 299.8C335.9 302.2 334.2 304 334 303.8Z" fill="#005797" stroke="#005797" stroke-width="0.5" stroke-miterlimit="10"/>
<path d="M334.999 302.8C335.099 303.2 326.699 305.1 316.299 306.3C314.999 306.4 313.699 306.6 312.299 306.5C310.999 306.4 309.499 306 308.599 305C307.599 303.9 307.399 302.6 307.399 301.5C307.399 300.4 307.599 299.4 307.799 298.5C308.299 296.7 309.299 295.5 309.999 294.9C310.799 294.3 311.299 294.1 311.399 294.2C311.499 294.3 310.999 294.6 310.499 295.4C309.899 296.1 309.299 297.3 308.899 298.9C308.699 299.7 308.699 300.6 308.699 301.5C308.799 302.4 308.999 303.4 309.599 304C310.199 304.6 311.199 304.9 312.399 305C313.499 305.1 314.799 304.9 316.099 304.8C326.399 303.5 334.899 302.3 334.999 302.8Z" fill="#005797" stroke="#005797" stroke-width="0.5" stroke-miterlimit="10"/>
<path d="M313.9 304.7C313.7 304.5 314.3 303.9 314.6 302.8C315 301.7 315.2 299.9 314.9 298.1C314.7 297.2 314.4 296.4 314 295.9C313.6 295.3 313 295 312.5 294.8C311.5 294.4 310.7 294.6 310.6 294.4C310.6 294.3 310.7 294.1 311.1 293.9C311.5 293.7 312.1 293.5 312.9 293.7C313.7 293.8 314.5 294.2 315.3 295C316 295.8 316.5 296.8 316.7 297.9C317.1 300.1 316.6 302.1 315.9 303.3C315 304.5 314 304.8 313.9 304.7Z" fill="#005797" stroke="#005797" stroke-width="0.5" stroke-miterlimit="10"/>
<path d="M317.8 293C317.8 293.5 316.5 293.8 314.9 294C313.3 294.2 312 294.2 311.9 293.8C311.8 293.4 313 292.6 314.7 292.4C316.4 292.1 317.8 292.6 317.8 293Z" fill="#005797" stroke="#005797" stroke-width="0.5" stroke-miterlimit="10"/>
<path d="M322.7 290.1C322.5 290.3 321.9 289.9 320.9 289.5C319.9 289.1 318.4 288.8 316.9 289.1C315.4 289.4 314.1 290.3 313.3 291C312.5 291.7 312.1 292.4 311.9 292.3C311.7 292.2 311.7 291.4 312.4 290.3C313.1 289.2 314.5 287.9 316.5 287.5C318.5 287.1 320.4 287.8 321.4 288.5C322.5 289.2 322.8 290 322.7 290.1Z" fill="#005797" stroke="#005797" stroke-width="0.5" stroke-miterlimit="10"/>
<path d="M340.1 292.1C339.9 292.2 339.2 291 337.5 289.4C335.9 287.9 333.2 286.2 329.9 285.7C326.6 285.2 323.5 286 321.3 286.5C319.1 287.1 317.7 287.5 317.6 287.2C317.5 287 318.8 286.2 320.9 285.4C323.1 284.6 326.3 283.5 330.1 284C332 284.2 333.7 284.9 335 285.8C336.4 286.6 337.5 287.6 338.2 288.6C340 290.5 340.3 292 340.1 292.1Z" fill="#005797" stroke="#005797" stroke-width="0.5" stroke-miterlimit="10"/>
<path d="M326.1 293.8C326.2 293.8 326.3 294 326.3 294.5C326.3 294.9 326 295.6 325.3 296.1C324.7 296.6 323.7 297 322.6 296.9C321.5 296.8 320.5 296.4 319.5 295.8C318.6 295.2 317.8 294.6 317.1 294.1C316.4 293.6 315.8 293.2 315.2 293C314 292.6 313.2 292.7 313.1 292.5C313.1 292.4 313.2 292.2 313.6 292.1C314 291.9 314.6 291.8 315.4 292C316.2 292.1 317 292.4 317.9 292.9C318.7 293.4 319.5 294 320.4 294.5C321.2 295 322 295.4 322.8 295.5C323.6 295.6 324.2 295.5 324.7 295.2C325.7 294.7 325.8 293.8 326.1 293.8Z" fill="#005797" stroke="#005797" stroke-width="0.5" stroke-miterlimit="10"/>
<path d="M340.6 291.6C340.8 291.7 340.6 292.7 339.6 294C338.6 295.3 336.6 296.8 334 297.2C331.4 297.6 329.1 296.9 327.7 296.1C326.3 295.3 325.6 294.5 325.7 294.3C325.8 294.1 326.7 294.5 328.1 295C329.5 295.5 331.5 295.9 333.7 295.5C335.8 295.2 337.6 294.1 338.7 293.2C339.8 292.3 340.4 291.5 340.6 291.6Z" fill="#005797" stroke="#005797" stroke-width="0.5" stroke-miterlimit="10"/>
<path d="M331.599 294.9C331.399 295 330.999 294.2 330.299 293C329.599 291.9 328.499 290.4 326.999 289.2C325.399 288 323.699 287.3 322.499 286.9C321.199 286.5 320.399 286.4 320.399 286.1C320.399 285.9 321.299 285.6 322.799 285.7C324.299 285.8 326.299 286.4 328.099 287.8C329.899 289.2 330.999 291.1 331.499 292.4C331.799 293.9 331.799 294.8 331.599 294.9Z" fill="#005797" stroke="#005797" stroke-width="0.5" stroke-miterlimit="10"/>
<path d="M335.6 294.5C335.1 294.6 334.4 291.9 332.3 289.3C330.2 286.7 327.7 285.4 327.9 284.9C328 284.7 328.7 284.8 329.9 285.3C331 285.8 332.4 286.8 333.6 288.3C334.8 289.8 335.4 291.4 335.7 292.6C335.9 293.7 335.8 294.4 335.6 294.5Z" fill="#005797" stroke="#005797" stroke-width="0.5" stroke-miterlimit="10"/>
<path d="M307.8 317.7C307.6 317.7 307.5 316.9 307.8 315.7C308 315.1 308.2 314.4 308.6 313.7C308.8 313.3 309 313 309.1 312.7C309.2 312.4 309.2 312.2 309.2 311.9C309.1 311.3 308.6 310.4 308.5 309.5C308.4 308.6 308.5 307.8 308.6 307.2C309 305.9 309.6 305.4 309.8 305.5C310 305.6 309.8 306.3 309.7 307.4C309.7 307.9 309.7 308.5 309.9 309.2C310 309.5 310.1 309.8 310.3 310.2C310.5 310.6 310.7 311 310.8 311.6C310.9 312.2 310.8 312.9 310.6 313.3C310.4 313.8 310.1 314.1 309.9 314.4C309.5 315 309.2 315.5 308.9 316C308.3 317.1 308 317.7 307.8 317.7Z" fill="#005797" stroke="#005797" stroke-width="0.5" stroke-miterlimit="10"/>
<path d="M368.8 305.8C368.7 305.7 369.3 304.8 370.3 303.2C371.3 301.6 372.9 299.3 374.2 296.3C374.8 294.8 375.3 293 375.5 291.1C375.6 289.2 375.4 287.1 374.7 285.1C373.3 281 370.2 277 366.1 274.2C365.1 273.5 364 273 362.9 272.8C361.8 272.6 360.6 272.5 359.4 272.7C357.1 273 354.9 273.7 353 274.8C349.2 276.9 346.6 280.1 345 283C344.3 284.5 343.7 285.9 343.4 287.2C343.2 287.8 343.2 288.4 343 289C342.9 289.6 342.9 290 342.8 290.7C342.8 290.8 342.8 291 342.8 291.1C342.7 291.2 342.5 291.2 342.4 291.2C342.1 291.3 341.9 291.3 341.7 291.3C341.3 291.3 341 291.3 340.7 291.2C340.2 291.1 339.9 291 340 290.9C340 290.8 340.3 290.9 340.8 290.9C341 290.9 341.3 290.9 341.7 290.8C341.8 290.8 342 290.7 342.1 290.7C342.2 290.7 342.3 290.7 342.3 290.6C342.3 290.5 342.3 290.4 342.3 290.3C342.3 290 342.3 289.4 342.3 288.8C342.4 288.2 342.4 287.6 342.6 286.9C342.8 285.5 343.3 284 344 282.4C345.5 279.3 348.2 275.8 352.3 273.4C354.3 272.2 356.7 271.4 359.3 271.1C360.6 271 361.9 270.9 363.3 271.2C364.7 271.5 365.9 272.1 367.1 272.8C371.6 275.9 374.8 280.2 376.2 284.6C376.9 286.8 377.2 289.1 377 291.2C376.8 293.3 376.2 295.2 375.5 296.7C374 299.9 372.3 302.1 371.1 303.6C369.6 305.2 368.8 305.9 368.8 305.8Z" fill="#005797" stroke="#005797" stroke-width="0.5" stroke-miterlimit="10"/>
<path d="M369.8 304.6C369.9 304.7 368.7 306.1 366 307.3C364.7 307.9 363 308.4 361.1 308.6C359.2 308.8 357 308.6 354.9 307.9C352.8 307.2 350.9 306.2 349.4 305C348.6 304.4 348 303.7 347.4 303.1C346.8 302.5 346.4 301.9 345.9 301.4C345 300.4 344.1 300 343.4 299.8C342.7 299.6 342.3 299.7 342.2 299.6C342.2 299.5 342.6 299.2 343.4 299.2C344.3 299.2 345.5 299.6 346.7 300.6C347.3 301.1 347.8 301.6 348.4 302.2C349 302.8 349.6 303.3 350.3 303.8C351.7 304.8 353.5 305.8 355.4 306.4C359.3 307.6 363.1 307.1 365.7 306.3C368.2 305.4 369.7 304.4 369.8 304.6Z" fill="#005797" stroke="#005797" stroke-width="0.5" stroke-miterlimit="10"/>
<path d="M348.8 296C348.9 295.9 349.3 297 350.5 298.4C351.1 299.1 351.9 299.9 353.1 300.5C354.2 301.2 355.6 301.7 357.2 301.9C358.8 302.1 360.6 301.9 362.4 301.2C364.1 300.5 365.8 299.2 367.1 297.5C369.7 294.2 370.1 288.7 367.7 284.4C366.5 282.3 364.6 280.6 362.5 279.9C360.4 279.1 358.1 279.7 356.2 280.6C352.3 282.5 349.6 285.7 348.7 288.9C347.8 292.1 348.5 294.8 349.3 296.5C350.1 298.2 351 298.9 350.9 299C350.9 299.1 349.9 298.5 348.8 296.8C347.8 295.1 346.8 292.2 347.6 288.6C348.4 285.1 351.3 281.4 355.5 279.3C356.6 278.8 357.7 278.3 359 278.1C360.3 277.9 361.7 278 363 278.4C365.6 279.3 367.7 281.2 369.1 283.6C371.8 288.5 371.3 294.6 368.3 298.4C365.3 302.2 360.6 303.7 357.1 303.1C355.3 302.8 353.8 302.1 352.6 301.3C351.4 300.5 350.6 299.6 350 298.8C348.9 297.1 348.7 296 348.8 296Z" fill="#005797" stroke="#005797" stroke-width="0.5" stroke-miterlimit="10"/>
<path d="M350.999 298.5C350.599 298.4 350.999 293.8 353.299 288.5C355.499 283.3 358.599 279.8 358.999 280C359.399 280.3 356.999 284.1 354.799 289.1C352.599 294.3 351.499 298.6 350.999 298.5Z" fill="#005797" stroke="#005797" stroke-width="0.5" stroke-miterlimit="10"/>
<path d="M363.8 286C364.2 286.2 363.5 288 362.5 290.1C361.5 292.1 360.5 293.8 360.1 293.6C359.7 293.5 360 291.5 361 289.4C362.1 287.2 363.4 285.8 363.8 286Z" fill="#005797" stroke="#005797" stroke-width="0.5" stroke-miterlimit="10"/>
<path d="M363.4 287C363.8 287.3 363.1 289 362.1 291.1C361.1 293.2 360.3 294.9 359.8 294.7C359.4 294.6 359.6 292.6 360.6 290.4C361.6 288.2 363 286.8 363.4 287Z" fill="#005797" stroke="#005797" stroke-width="0.5" stroke-miterlimit="10"/>
<path d="M35.8262 251.915C36.9954 249.414 37.6187 247.234 37.2185 247.047C36.8182 246.86 35.546 248.736 34.3768 251.238C33.2076 253.739 32.5842 255.919 32.9845 256.106C33.3847 256.293 34.657 254.417 35.8262 251.915Z" fill="#005797" stroke="#005797" stroke-width="0.5" stroke-miterlimit="10"/>
<path d="M33.9036 279.576C34.3424 279.525 34.5159 277.927 34.2911 276.007C34.0663 274.087 33.5283 272.572 33.0895 272.624C32.6507 272.675 32.4772 274.273 32.702 276.193C32.9268 278.113 33.4648 279.627 33.9036 279.576Z" fill="#005797" stroke="#005797" stroke-width="0.5" stroke-miterlimit="10"/>
<path d="M47.2996 300.8C46.9996 301.1 45.7996 300.6 44.6996 299.6C43.5996 298.6 42.8996 297.5 43.1996 297.2C43.4996 296.9 44.6996 297.4 45.7996 298.4C46.8996 299.4 47.5996 300.4 47.2996 300.8Z" fill="#005797" stroke="#005797" stroke-width="0.5" stroke-miterlimit="10"/>
<path d="M54.3995 326.9C53.9995 326.8 54.3995 324.1 54.3995 320.9C54.3995 317.7 53.9995 315 54.4995 314.9C54.8995 314.8 56.0995 317.4 56.0995 320.9C55.9995 324.4 54.7995 327 54.3995 326.9Z" fill="#005797" stroke="#005797" stroke-width="0.5" stroke-miterlimit="10"/>
<path d="M49.0476 351.102C49.7914 347.986 50.046 345.377 49.6162 345.275C49.1864 345.172 48.2351 347.615 47.4913 350.731C46.7475 353.847 46.4929 356.456 46.9227 356.558C47.3524 356.661 48.3038 354.218 49.0476 351.102Z" fill="#005797" stroke="#005797" stroke-width="0.5" stroke-miterlimit="10"/>
<path d="M45.3206 378.447C45.7366 374.937 45.7182 372.05 45.2795 371.998C44.8407 371.946 44.1478 374.749 43.7318 378.259C43.3158 381.769 43.3342 384.656 43.7729 384.708C44.2116 384.76 44.9046 381.957 45.3206 378.447Z" fill="#005797" stroke="#005797" stroke-width="0.5" stroke-miterlimit="10"/>
<path d="M46.5996 410.9C46.1996 411 45.1996 408.4 44.3996 405.1C43.5996 401.8 43.3996 399 43.7996 398.9C44.1996 398.8 45.1996 401.4 45.9996 404.7C46.6996 408 46.9996 410.8 46.5996 410.9Z" fill="#005797" stroke="#005797" stroke-width="0.5" stroke-miterlimit="10"/>
<path d="M67.8002 434.1C67.8002 434.3 66.9002 434.5 65.5002 434.3C64.1002 434.2 62.2002 433.6 60.3002 432.6C58.4002 431.6 57.0002 430.2 56.1002 429.1C55.2002 428 54.9002 427.2 55.1002 427.1C55.5002 426.8 57.6002 429.3 61.1002 431.2C64.6002 433.1 67.9002 433.6 67.8002 434.1Z" fill="#005797" stroke="#005797" stroke-width="0.5" stroke-miterlimit="10"/>
<path d="M92.4997 425.7C92.6997 425.8 92.4997 426.4 91.8997 427.1C91.2997 427.8 90.2997 428.6 88.9997 429.2C87.6997 429.8 86.3997 429.9 85.4997 429.8C84.5997 429.7 83.9997 429.5 84.0997 429.3C84.0997 428.8 86.1997 428.7 88.3997 427.7C90.5997 426.8 92.0997 425.4 92.4997 425.7Z" fill="#005797" stroke="#005797" stroke-width="0.5" stroke-miterlimit="10"/>
<path d="M109.1 402.4C109.3 402.4 109.5 403.1 109.5 404.4C109.5 405.6 109.2 407.3 108.4 409C107.6 410.7 106.5 412 105.6 412.8C104.7 413.6 104 413.9 103.8 413.7C103.5 413.3 105.5 411.3 106.9 408.2C108.4 405.2 108.7 402.4 109.1 402.4Z" fill="#005797" stroke="#005797" stroke-width="0.5" stroke-miterlimit="10"/>
<path d="M110.9 391.1C111.341 391.1 111.7 388.906 111.7 386.2C111.7 383.494 111.341 381.3 110.9 381.3C110.458 381.3 110.1 383.494 110.1 386.2C110.1 388.906 110.458 391.1 110.9 391.1Z" fill="#005797" stroke="#005797" stroke-width="0.5" stroke-miterlimit="10"/>
<path d="M117.6 359.9C118 360.1 117.2 362.2 115.9 364.6C114.6 366.9 113.1 368.7 112.8 368.4C112.4 368.2 113.2 366.1 114.5 363.7C115.8 361.4 117.3 359.7 117.6 359.9Z" fill="#005797" stroke="#005797" stroke-width="0.5" stroke-miterlimit="10"/>
<path d="M134.9 344.6C135.1 345 133.4 346.4 131.1 347.7C128.8 349 126.7 349.8 126.4 349.4C126.1 349 127.9 347.6 130.2 346.3C132.6 344.9 134.7 344.2 134.9 344.6Z" fill="#005797" stroke="#005797" stroke-width="0.5" stroke-miterlimit="10"/>
<path d="M68.4999 228.8C68.6999 229.2 66.8999 230.3 64.7999 231.6C62.6999 232.9 60.9999 234 60.6999 233.6C60.3999 233.3 61.6999 231.6 63.9999 230.2C66.2999 228.9 68.3999 228.4 68.4999 228.8Z" fill="#005797" stroke="#005797" stroke-width="0.5" stroke-miterlimit="10"/>
<path d="M92.5994 218.9C92.7994 219.3 91.0994 220.8 88.3994 221.5C85.6994 222.3 83.3994 221.9 83.3994 221.5C83.3994 221 85.4994 220.7 87.8994 220C90.2994 219.3 92.2994 218.5 92.5994 218.9Z" fill="#005797" stroke="#005797" stroke-width="0.5" stroke-miterlimit="10"/>
<path d="M114.3 202.6C114.7 202.8 113.5 206.2 110.5 209.3C107.5 212.5 104.1 213.7 103.9 213.3C103.7 212.9 106.5 211.1 109.3 208.1C112.2 205.3 113.9 202.4 114.3 202.6Z" fill="#005797" stroke="#005797" stroke-width="0.5" stroke-miterlimit="10"/>
<path d="M125.3 180.6C125.7 180.8 124.8 183.2 123.7 186.1C122.7 189 121.9 191.4 121.4 191.4C121 191.3 121.1 188.7 122.2 185.6C123.3 182.5 125 180.4 125.3 180.6Z" fill="#005797" stroke="#005797" stroke-width="0.5" stroke-miterlimit="10"/>
<path d="M143.3 163.1C143.5 163.5 141.6 164.6 139.5 166.1C137.4 167.6 135.9 169 135.5 168.8C135.1 168.5 136.3 166.5 138.5 164.8C140.9 163.1 143.2 162.7 143.3 163.1Z" fill="#005797" stroke="#005797" stroke-width="0.5" stroke-miterlimit="10"/>
<path d="M157.62 156.092C159.972 155.763 161.829 155.142 161.768 154.704C161.707 154.267 159.75 154.179 157.398 154.508C155.046 154.837 153.189 155.459 153.251 155.896C153.312 156.334 155.268 156.422 157.62 156.092Z" fill="#005797" stroke="#005797" stroke-width="0.5" stroke-miterlimit="10"/>
<path d="M186.5 164.4C186.2 164.8 183.5 163.1 180.4 160.7C177.3 158.3 175 156.1 175.3 155.7C175.6 155.3 178.3 157 181.4 159.4C184.5 161.9 186.7 164.1 186.5 164.4Z" fill="#005797" stroke="#005797" stroke-width="0.5" stroke-miterlimit="10"/>
<path d="M187.8 188.5C187.4 188.3 187.7 187.1 187.9 185.6C188.1 184.2 188.1 182.9 188.6 182.8C189 182.7 189.8 184 189.5 185.8C189.3 187.7 188.2 188.8 187.8 188.5Z" fill="#005797" stroke="#005797" stroke-width="0.5" stroke-miterlimit="10"/>
<path d="M177.999 202C177.599 201.7 178.299 200.2 179.399 198.7C180.599 197.1 181.799 196.1 182.199 196.4C182.599 196.7 181.899 198.2 180.799 199.7C179.599 201.2 178.399 202.3 177.999 202Z" fill="#005797" stroke="#005797" stroke-width="0.5" stroke-miterlimit="10"/>
<path d="M172.1 221.1C171.7 221.3 170.6 219.4 170.7 216.8C170.8 214.2 172 212.4 172.4 212.6C172.8 212.8 172.4 214.6 172.4 216.9C172.2 219 172.5 220.9 172.1 221.1Z" fill="#005797" stroke="#005797" stroke-width="0.5" stroke-miterlimit="10"/>
<path d="M180.6 236.7C180.3 237 178.6 236 177.3 234.1C175.9 232.2 175.6 230.3 176 230.1C176.4 229.9 177.4 231.4 178.7 233.2C179.8 235 180.9 236.4 180.6 236.7Z" fill="#005797" stroke="#005797" stroke-width="0.5" stroke-miterlimit="10"/>
<path d="M199.799 240.8C199.899 241.2 198.299 241.8 196.399 242C194.499 242.2 192.799 242 192.799 241.6C192.699 241.2 194.299 240.6 196.199 240.4C198.099 240.2 199.799 240.3 199.799 240.8Z" fill="#005797" stroke="#005797" stroke-width="0.5" stroke-miterlimit="10"/>
<path d="M223.199 225.3C223.599 225.5 222.799 227.9 220.699 230.1C218.599 232.4 216.399 233.4 216.099 233C215.799 232.6 217.599 231 219.499 229C221.399 226.9 222.799 225.1 223.199 225.3Z" fill="#005797" stroke="#005797" stroke-width="0.5" stroke-miterlimit="10"/>
<path d="M235.1 211.8C235.4 212.1 234.5 213.8 232.9 215.5C231.4 217.3 229.8 218.5 229.5 218.2C229.2 217.9 230.1 216.2 231.7 214.5C233.3 212.8 234.7 211.5 235.1 211.8Z" fill="#005797" stroke="#005797" stroke-width="0.5" stroke-miterlimit="10"/>
<path d="M252.7 198.3C253 198.7 251.1 200.4 248.6 202.2C246.1 204 243.8 205.1 243.6 204.7C243.3 204.3 245.2 202.6 247.7 200.8C250.2 199.1 252.4 197.9 252.7 198.3Z" fill="#005797" stroke="#005797" stroke-width="0.5" stroke-miterlimit="10"/>
<path d="M277.399 191.5C277.299 192 274.299 191.7 270.699 192.1C267.099 192.4 264.199 193.3 263.999 192.8C263.799 192.4 266.599 190.8 270.499 190.4C274.499 190.1 277.499 191.1 277.399 191.5Z" fill="#005797" stroke="#005797" stroke-width="0.5" stroke-miterlimit="10"/>
<path d="M303.599 194.8C303.499 195.2 302.099 195.3 300.599 194.8C298.999 194.4 297.899 193.7 297.999 193.3C298.099 192.9 299.499 192.8 300.999 193.3C302.599 193.7 303.699 194.4 303.599 194.8Z" fill="#005797" stroke="#005797" stroke-width="0.5" stroke-miterlimit="10"/>
<path d="M328.899 185C329.099 185.1 328.999 186.1 328.199 187.6C327.799 188.4 327.199 189.2 326.499 190C325.799 190.8 324.799 191.7 323.799 192.4C322.699 193.1 321.599 193.6 320.499 194C319.399 194.3 318.399 194.6 317.599 194.6C315.899 194.7 314.899 194.4 314.899 194.2C314.899 194 315.899 193.8 317.399 193.4C318.899 193 320.899 192.2 322.899 191C324.799 189.7 326.299 188.1 327.299 186.9C328.199 185.8 328.699 184.9 328.899 185Z" fill="#005797" stroke="#005797" stroke-width="0.5" stroke-miterlimit="10"/>
<path d="M340.2 166.6C340.6 166.8 340 169 338.8 171.5C337.6 174 336.3 175.9 335.9 175.7C335.5 175.5 336.1 173.3 337.3 170.8C338.5 168.3 339.8 166.4 340.2 166.6Z" fill="#005797" stroke="#005797" stroke-width="0.5" stroke-miterlimit="10"/>
<path d="M348.7 156.7C348.9 157.1 348.1 157.9 346.9 158.5C345.7 159.1 344.6 159.2 344.4 158.8C344.2 158.4 345 157.6 346.2 157C347.4 156.4 348.5 156.3 348.7 156.7Z" fill="#005797" stroke="#005797" stroke-width="0.5" stroke-miterlimit="10"/>
<path d="M155.9 356.7C155.8 356.8 153.2 354.3 149.8 349.7C148.1 347.4 146.1 344.5 144.1 341.3C142.1 338 140.1 334.4 138.1 330.4C134.2 322.5 131.2 315.1 129.2 309.8C127.2 304.4 126 301.1 126.3 301C126.5 300.9 128 304.1 130.3 309.4C132.6 314.6 135.7 321.9 139.6 329.7C141.5 333.6 143.5 337.2 145.4 340.5C147.3 343.8 149.1 346.6 150.7 349C153.9 353.8 156.1 356.5 155.9 356.7Z" fill="#005797" stroke="#005797" stroke-width="0.5" stroke-miterlimit="10"/>
<path d="M159 282.8C159.1 283 157.5 284.3 154.7 286.3C151.9 288.3 147.9 291 143.4 293.6C138.8 296.3 134.5 298.3 131.3 299.6C128.1 300.9 126 301.4 125.9 301.2C125.8 301 127.8 300.1 130.8 298.6C133.9 297.1 138.1 294.9 142.6 292.3C147.1 289.7 151.2 287.2 154.1 285.4C157 283.6 158.9 282.6 159 282.8Z" fill="#005797" stroke="#005797" stroke-width="0.5" stroke-miterlimit="10"/>
<path d="M160.5 285.9C160.6 285.8 161.1 286.6 162.5 287.4C163.8 288.2 166.2 288.9 168.8 288C171.3 287.1 174 284.5 174.5 280.9C174.8 279.1 174.6 277.2 173.8 275.4C173 273.7 171.6 272.2 169.7 271.3C167.9 270.4 165.8 270.2 163.9 270.7C162.1 271.2 160.5 272.4 159.5 273.9C158.5 275.3 157.9 277 157.8 278.6C157.8 279.4 157.8 280.2 158 280.9C158.2 281.6 158.5 282.3 158.8 282.9C160.2 285.3 162.2 286.6 163.6 287.2C165.1 287.8 166 287.8 166 288C166 288.1 165.1 288.3 163.4 287.8C161.8 287.4 159.4 286.2 157.8 283.5C157.4 282.8 157 282.1 156.8 281.3C156.5 280.5 156.4 279.6 156.4 278.7C156.4 276.8 157 274.9 158.2 273.2C159.4 271.5 161.2 270 163.4 269.4C165.6 268.7 168.1 269 170.3 270.1C172.5 271.1 174.2 272.9 175.1 275C176 277.1 176.2 279.4 175.8 281.4C175.4 283.4 174.5 285.2 173.2 286.6C171.9 287.9 170.4 288.9 168.9 289.3C167.4 289.8 165.9 289.7 164.7 289.5C163.5 289.2 162.6 288.7 161.9 288.2C160.7 286.9 160.4 285.9 160.5 285.9Z" fill="#005797" stroke="#005797" stroke-width="0.5" stroke-miterlimit="10"/>
<path d="M196.8 319.2C196.7 319.4 194.8 318 192.1 315.5C189.4 313 185.9 309.2 182.5 304.6C179.1 300 176.5 295.6 174.9 292.3C173.2 289 172.5 286.8 172.7 286.7C173.1 286.5 177.2 294.7 183.9 303.6C190.4 312.6 197.1 318.8 196.8 319.2Z" fill="#005797" stroke="#005797" stroke-width="0.5" stroke-miterlimit="10"/>
<path d="M196.9 319.7C197.1 319.8 196.1 322.8 193.5 327.4C193.2 328 192.8 328.6 192.5 329.2C192.1 329.8 191.7 330.4 191.3 331.1C190.5 332.4 189.5 333.7 188.5 335.1C186.4 337.8 183.8 340.6 180.9 343.4C177.9 346.1 174.9 348.4 172 350.2C170.5 351.1 169.1 352 167.8 352.7C167.1 353.1 166.5 353.4 165.8 353.7C165.2 354 164.5 354.3 163.9 354.6C159.1 356.7 156 357.4 155.9 357.3C155.8 357 158.8 355.9 163.4 353.6C164 353.3 164.6 353 165.2 352.7C165.8 352.4 166.4 352 167.1 351.6C168.4 350.9 169.7 350 171.2 349C174 347.1 176.9 344.8 179.8 342.2C182.7 339.6 185.2 336.8 187.3 334.2C188.3 332.9 189.4 331.6 190.2 330.4C190.6 329.8 191.1 329.2 191.5 328.6C191.9 328 192.2 327.5 192.6 326.9C195.2 322.5 196.6 319.6 196.9 319.7Z" fill="#005797" stroke="#005797" stroke-width="0.5" stroke-miterlimit="10"/>
<path d="M152.8 297.2C153.1 297.5 150.1 301.1 145.3 304C140.5 307 135.9 308.1 135.8 307.7C135.6 307.3 139.8 305.5 144.4 302.6C149.1 299.8 152.5 296.9 152.8 297.2Z" fill="#005797" stroke="#005797" stroke-width="0.5" stroke-miterlimit="10"/>
<path d="M152.4 303.4C152.6 303.8 150.2 305.8 147 307.9C143.8 310 140.9 311.4 140.7 311.1C140.5 310.7 142.9 308.7 146.1 306.6C149.3 304.4 152.1 303 152.4 303.4Z" fill="#005797" stroke="#005797" stroke-width="0.5" stroke-miterlimit="10"/>
<path d="M164.6 306.5C164.9 306.9 160.6 310.4 154.7 313.9C148.8 317.4 143.7 319.6 143.5 319.2C143.3 318.8 148 316 153.8 312.5C159.6 309 164.3 306.1 164.6 306.5Z" fill="#005797" stroke="#005797" stroke-width="0.5" stroke-miterlimit="10"/>
<path d="M172.3 312.9C172.6 313.3 166.9 317.8 159.6 323.1C152.3 328.4 146.2 332.3 145.9 332C145.6 331.6 151.3 327.1 158.6 321.8C165.9 316.5 172 312.5 172.3 312.9Z" fill="#005797" stroke="#005797" stroke-width="0.5" stroke-miterlimit="10"/>
<path d="M164.6 326.8C164.8 327.2 162.2 329.2 158.9 331.7C155.6 334.2 152.9 336.1 152.6 335.8C152.3 335.5 154.6 332.9 157.9 330.4C161.2 327.9 164.3 326.5 164.6 326.8Z" fill="#005797" stroke="#005797" stroke-width="0.5" stroke-miterlimit="10"/>
<path d="M168.8 329.3C169.1 329.6 166.2 332.5 162.4 335.8C158.6 339 155.2 341.4 154.9 341C154.6 340.7 157.5 337.8 161.3 334.5C165.2 331.3 168.5 328.9 168.8 329.3Z" fill="#005797" stroke="#005797" stroke-width="0.5" stroke-miterlimit="10"/>
<path d="M58.1998 212.7C58.0998 212.7 57.9998 211.4 59.0998 209.6C59.6998 208.7 60.4998 207.7 61.5998 206.7C62.5998 205.7 63.8998 204.6 64.9998 203.2C67.1998 200.5 67.8998 196.1 67.4998 191.4C67.2998 189.1 66.5998 186.7 65.0998 184.8C63.5998 182.9 61.1998 181.6 58.6998 181.1C56.0998 180.6 53.4998 181.1 51.2998 182.2C49.0998 183.3 47.2998 185.1 46.0998 187C44.7998 188.9 44.0998 191 43.7998 193.1C43.4998 195.1 43.4998 197.1 43.7998 198.8C44.0998 200.6 44.4998 202.1 44.9998 203.4C45.4998 204.7 46.0998 205.9 46.2998 206.9C46.5998 207.9 46.5998 208.8 46.4998 209.3C46.3998 209.9 46.2998 210.1 46.1998 210.1C46.0998 210.1 46.3998 208.9 45.5998 207.1C45.2998 206.2 44.5998 205.1 43.9998 203.8C43.3998 202.5 42.7998 200.9 42.4998 199C42.1998 197.2 41.9998 195.1 42.2998 192.9C42.5998 190.7 43.2998 188.4 44.6998 186.2C46.0998 184.1 47.9998 182.1 50.4998 180.8C52.8998 179.5 55.9998 178.9 58.8998 179.5C61.7998 180 64.4998 181.5 66.2998 183.7C68.0998 185.9 68.7998 188.7 68.9998 191.1C69.1998 193.6 68.9998 195.9 68.4998 198.1C67.9998 200.3 67.0998 202.2 65.8998 203.7C64.6998 205.2 63.2998 206.2 62.1998 207.1C61.0998 208 60.1998 208.9 59.5998 209.6C58.3998 211.6 58.2998 212.7 58.1998 212.7Z" fill="#005797" stroke="#005797" stroke-width="0.5" stroke-miterlimit="10"/>
<path d="M57.6996 212.8C57.7996 213 57.1996 213.5 56.0996 213.8C54.9996 214.2 53.2996 214.4 51.5996 214C49.7996 213.7 48.2996 213 47.3996 212.2C46.4996 211.5 46.0996 210.9 46.1996 210.7C46.4996 210.3 48.6996 211.8 51.7996 212.3C54.9996 213 57.5996 212.3 57.6996 212.8Z" fill="#005797" stroke="#005797" stroke-width="0.5" stroke-miterlimit="10"/>
<path d="M45.5994 215.3C45.5994 215.5 45.0994 215.7 44.4994 215.5C43.7994 215.3 42.9994 214.5 42.8994 213.2C42.8994 211.9 43.6994 211.1 44.3994 210.9C45.0994 210.6 45.4994 210.8 45.4994 211.1C45.4994 211.3 45.1994 211.6 44.9994 211.9C44.6994 212.2 44.4994 212.8 44.4994 213.2C44.4994 213.7 44.7994 214.2 44.9994 214.5C45.3994 214.8 45.6994 215 45.5994 215.3Z" fill="#005797" stroke="#005797" stroke-width="0.5" stroke-miterlimit="10"/>
<path d="M44.0003 219.2C43.9003 219.4 43.5003 219.4 43.1003 219C42.7003 218.7 42.3003 218 42.4003 217.2C42.4003 216.4 42.8003 215.7 43.2003 215.4C43.6003 215.1 44.0003 215.1 44.1003 215.3C44.2003 215.5 44.2003 215.8 44.1003 216.1C44.0003 216.4 44.0003 216.8 44.0003 217.3C44.0003 217.7 44.0003 218.1 44.1003 218.5C44.1003 218.7 44.1003 219 44.0003 219.2Z" fill="#005797" stroke="#005797" stroke-width="0.5" stroke-miterlimit="10"/>
<path d="M57.3996 221.5C57.4996 221.7 56.7996 222.2 55.3996 222.7C54.0996 223.1 52.0996 223.4 49.9996 223.1C47.8996 222.8 45.9996 222 44.8996 221.2C43.6996 220.4 43.1996 219.7 43.2996 219.5C43.5996 219.1 46.2996 221 50.1996 221.5C54.0996 222.1 57.2996 221.1 57.3996 221.5Z" fill="#005797" stroke="#005797" stroke-width="0.5" stroke-miterlimit="10"/>
<path d="M58.0996 216.3C58.0996 216.1 58.3996 215.9 58.5996 215.6C58.7996 215.3 59.0996 214.9 59.0996 214.5C59.0996 214.1 58.8996 213.7 58.6996 213.4C58.4996 213.1 58.1996 212.9 58.1996 212.6C58.1996 212.4 58.5996 212.2 59.2996 212.4C59.8996 212.6 60.7996 213.3 60.7996 214.5C60.7996 215.7 59.8996 216.4 59.2996 216.6C58.4996 216.8 58.0996 216.5 58.0996 216.3Z" fill="#005797" stroke="#005797" stroke-width="0.5" stroke-miterlimit="10"/>
<path d="M55.7002 222.8C55.7002 222.6 56.1002 222.4 56.6002 222C57.1002 221.6 57.7002 221 58.0002 220.3C58.3002 219.5 58.3002 218.7 58.2002 218.1C58.1002 217.5 57.9002 217.1 58.1002 216.9C58.2002 216.8 58.8002 216.9 59.2002 217.6C59.7002 218.3 60.0002 219.6 59.5002 220.9C59.0002 222.2 57.9002 222.9 57.1002 223.1C56.2002 223.3 55.7002 223.1 55.7002 222.8Z" fill="#005797" stroke="#005797" stroke-width="0.5" stroke-miterlimit="10"/>
<path d="M54.4475 206.761C55.5857 203.124 56.1666 200.069 55.745 199.937C55.3233 199.805 54.0587 202.646 52.9204 206.283C51.7821 209.92 51.2012 212.975 51.6229 213.107C52.0446 213.239 53.3092 210.398 54.4475 206.761Z" fill="#005797" stroke="#005797" stroke-width="0.5" stroke-miterlimit="10"/>
<path d="M52.2001 195.1C52.6001 194.8 53.7001 195.8 54.3001 197.4C55.0001 199 54.8001 200.5 54.4001 200.5C53.9001 200.6 53.4001 199.4 52.8001 198C52.2001 196.6 51.8001 195.4 52.2001 195.1Z" fill="#005797" stroke="#005797" stroke-width="0.5" stroke-miterlimit="10"/>
<path d="M61.7994 196C62.1994 196.3 61.5994 197.6 60.1994 198.7C58.7994 199.8 57.2994 200 57.1994 199.6C56.9994 199.2 57.9994 198.3 59.1994 197.4C60.3994 196.5 61.3994 195.8 61.7994 196Z" fill="#005797" stroke="#005797" stroke-width="0.5" stroke-miterlimit="10"/>
<path d="M35.8998 181.7C35.5998 182 34.5998 181.7 33.6998 180.9C32.7998 180.1 32.2998 179.2 32.4998 178.8C32.7998 178.5 33.7998 178.8 34.6998 179.6C35.6998 180.4 36.1998 181.3 35.8998 181.7Z" fill="#005797" stroke="#005797" stroke-width="0.5" stroke-miterlimit="10"/>
<path d="M49.0002 168.8C49.4002 168.8 49.9002 170 50.0002 171.5C50.1002 173 49.9002 174.3 49.4002 174.3C49.0002 174.3 48.5002 173.1 48.4002 171.6C48.3002 170.1 48.6002 168.9 49.0002 168.8Z" fill="#005797" stroke="#005797" stroke-width="0.5" stroke-miterlimit="10"/>
<path d="M67.7631 175.092C68.2317 174.624 68.3583 173.99 68.0459 173.678C67.7335 173.366 67.1003 173.492 66.6317 173.961C66.1631 174.429 66.0365 175.063 66.3489 175.375C66.6613 175.687 67.2945 175.561 67.7631 175.092Z" fill="#005797" stroke="#005797" stroke-width="0.5" stroke-miterlimit="10"/>
<path d="M81.8996 185.1C82.1996 185.5 81.2996 186.5 79.6996 186.8C78.1996 187.1 76.8996 186.5 76.9996 186.1C77.0996 185.6 78.0996 185.5 79.2996 185.2C80.5996 185 81.6996 184.7 81.8996 185.1Z" fill="#005797" stroke="#005797" stroke-width="0.5" stroke-miterlimit="10"/>
<path d="M79.2 198.9C79.2 199.4 78.5 199.7 77.6 199.7C76.7 199.7 76 199.3 76 198.9C76 198.5 76.7 198.1 77.6 198.1C78.5 198.1 79.2 198.4 79.2 198.9Z" fill="#005797" stroke="#005797" stroke-width="0.5" stroke-miterlimit="10"/>
<path d="M346.494 153.319C346.294 153.419 344.494 151.119 341.994 146.919C340.794 144.819 339.394 142.319 337.994 139.419C336.594 136.519 335.294 133.319 334.094 129.819C332.894 126.319 331.894 123.019 331.194 119.919C330.494 116.819 329.994 114.019 329.594 111.619C328.994 106.819 328.894 103.919 329.094 103.819C329.294 103.819 329.794 106.719 330.694 111.419C331.194 113.719 331.794 116.519 332.594 119.519C333.394 122.519 334.394 125.819 335.594 129.319C336.794 132.719 338.094 135.919 339.394 138.819C340.694 141.719 341.894 144.219 342.994 146.319C345.194 150.619 346.694 153.219 346.494 153.319Z" fill="#005797" stroke="#005797" stroke-width="0.5" stroke-miterlimit="10"/>
<path d="M397.494 81.0189C397.594 81.2189 393.994 83.0189 387.994 85.6189C381.994 88.2189 373.594 91.5189 364.194 94.7189C354.794 97.9189 346.094 100.419 339.794 102.119C333.494 103.719 329.494 104.519 329.494 104.319C329.394 104.119 333.294 102.919 339.494 101.019C345.694 99.1189 354.294 96.4189 363.694 93.2189C373.094 90.0189 381.494 86.8189 387.594 84.5189C393.594 82.2189 397.394 80.8189 397.494 81.0189Z" fill="#005797" stroke="#005797" stroke-width="0.5" stroke-miterlimit="10"/>
<path d="M413.594 124.319C413.494 124.419 411.394 122.719 409.194 119.219C406.894 115.719 404.494 110.319 402.794 104.219C400.994 98.1189 399.694 92.6189 398.794 88.5189C397.894 84.5189 397.394 81.9189 397.594 81.9189C397.794 81.8189 398.694 84.3189 399.894 88.2189C401.094 92.1189 402.594 97.7189 404.394 103.719C406.094 109.719 408.194 115.019 410.194 118.519C412.094 122.219 413.794 124.119 413.594 124.319Z" fill="#005797" stroke="#005797" stroke-width="0.5" stroke-miterlimit="10"/>
<path d="M415.294 124.719C415.394 124.819 414.594 125.519 413.094 126.819C412.394 127.419 411.394 128.219 410.294 129.019C409.194 129.819 407.994 130.819 406.494 131.719C405.094 132.719 403.494 133.719 401.794 134.819C400.094 135.919 398.194 137.019 396.194 138.119C392.194 140.319 387.694 142.619 382.794 144.619C377.894 146.619 373.194 148.319 368.794 149.619C366.594 150.219 364.494 150.819 362.494 151.319C360.494 151.819 358.694 152.219 356.994 152.519C355.294 152.919 353.794 153.119 352.394 153.319C350.994 153.519 349.894 153.719 348.894 153.719C346.994 153.919 345.894 153.919 345.894 153.819C345.894 153.519 350.094 152.919 356.794 151.319C358.494 150.919 360.294 150.519 362.194 149.919C364.194 149.419 366.194 148.819 368.394 148.119C372.694 146.719 377.394 145.119 382.194 143.019C386.994 141.019 391.494 138.819 395.494 136.719C397.494 135.619 399.394 134.619 401.094 133.519C402.894 132.519 404.394 131.519 405.894 130.619C411.694 127.119 415.094 124.519 415.294 124.719Z" fill="#005797" stroke="#005797" stroke-width="0.5" stroke-miterlimit="10"/>
<path d="M399.394 89.4189C399.494 89.5189 398.594 90.1189 396.994 91.0189C395.394 92.0189 393.094 93.2189 390.094 94.7189C387.194 96.2189 383.594 97.8189 379.594 99.5189C375.594 101.219 371.094 102.919 366.294 104.519C361.494 106.119 356.894 107.419 352.694 108.519C348.494 109.519 344.594 110.419 341.394 110.919C338.194 111.519 335.494 111.919 333.694 112.019C331.894 112.219 330.794 112.219 330.794 112.119C330.794 111.919 334.794 111.119 341.194 109.719C344.394 109.019 348.194 108.119 352.394 107.019C356.594 105.919 361.194 104.519 365.894 102.919C370.594 101.319 375.094 99.7189 379.094 98.1189C383.094 96.5189 386.694 95.0189 389.694 93.6189C395.594 91.0189 399.294 89.2189 399.394 89.4189Z" fill="#005797" stroke="#005797" stroke-width="0.5" stroke-miterlimit="10"/>
<path d="M366.993 122.119C366.893 122.219 366.493 121.619 365.693 120.719C364.893 119.919 363.493 118.819 361.493 118.319C360.493 118.119 359.393 118.019 358.293 118.319C357.193 118.619 356.093 119.219 355.093 120.119C354.193 121.019 353.393 122.219 353.193 123.519C352.893 124.919 353.093 126.419 353.693 127.819C354.793 130.619 357.293 132.619 359.693 133.919C362.093 135.219 364.593 136.019 366.593 136.419C370.793 137.219 373.393 136.819 373.493 137.119C373.493 137.319 370.893 138.119 366.393 137.519C364.193 137.219 361.593 136.519 358.993 135.219C357.693 134.519 356.293 133.719 355.093 132.619C353.893 131.519 352.793 130.119 352.193 128.419C351.493 126.719 351.293 124.919 351.693 123.219C352.093 121.519 352.993 120.019 354.193 119.019C355.393 118.019 356.793 117.319 358.093 117.019C359.493 116.719 360.793 116.919 361.893 117.219C364.093 117.919 365.493 119.219 366.193 120.319C366.993 121.419 367.093 122.119 366.993 122.119Z" fill="#005797" stroke="#005797" stroke-width="0.5" stroke-miterlimit="10"/>
<path d="M373.193 137.719C372.993 137.619 374.393 135.319 376.593 131.719C377.693 129.919 378.993 127.719 380.093 125.219C381.193 122.719 382.293 119.819 381.793 116.919C381.493 115.519 380.793 114.219 379.793 113.319C378.793 112.419 377.493 112.119 376.293 112.319C375.093 112.519 373.893 113.119 372.893 113.719C371.893 114.319 370.993 115.119 370.293 115.819C368.893 117.319 368.093 118.819 367.593 119.819C367.093 120.919 366.893 121.519 366.793 121.519C366.693 121.519 366.693 120.819 366.993 119.619C367.293 118.419 367.993 116.719 369.393 115.019C370.093 114.119 370.993 113.319 372.093 112.519C373.193 111.819 374.393 111.119 375.993 110.819C376.793 110.719 377.593 110.719 378.493 110.919C379.293 111.119 380.093 111.619 380.793 112.119C382.093 113.219 383.093 114.819 383.393 116.619C383.693 118.419 383.493 120.119 383.093 121.619C382.693 123.219 382.093 124.619 381.493 125.819C380.193 128.419 378.893 130.519 377.593 132.319C375.093 135.819 373.293 137.819 373.193 137.719Z" fill="#005797" stroke="#005797" stroke-width="0.5" stroke-miterlimit="10"/>
</svg>
