<svg width="160" height="192" viewBox="0 0 160 192" fill="none" xmlns="http://www.w3.org/2000/svg">
<path d="M88.1992 73.3741C87.3992 73.4741 86.1993 73.6741 84.8993 74.3741C81.9993 75.8741 80.6993 78.6741 79.7993 80.6741C78.0993 84.3741 76.2992 87.9741 74.5992 91.5741C70.1992 101.174 67.5993 104.574 65.7993 106.674C64.6993 107.874 63.7992 108.874 63.0992 109.474C61.2992 108.074 59.3992 106.674 57.5992 105.174C47.7992 97.4741 38.4992 89.5741 29.6992 81.7741C27.9992 74.5741 25.5992 69.4741 23.6992 66.0741C22.3992 63.6741 21.1993 61.9741 20.2993 62.1741C18.4993 62.5741 19.3993 70.8741 18.2993 71.0741C17.5993 71.1741 16.8993 67.9741 14.3993 62.7741C11.4993 56.7741 9.99926 55.9741 9.39926 55.6741C6.79926 54.4741 3.79925 55.5741 2.29925 56.2741C2.59925 57.7741 3.19926 60.1741 3.99926 63.0741C5.79926 69.0741 7.59926 72.3741 6.89926 72.8741C5.89926 73.5741 1.69924 68.1741 1.09924 68.6741C0.69924 68.9741 2.69926 72.0741 6.39926 77.9741C11.7993 86.5741 13.2992 89.0741 16.5992 92.1741C18.4992 93.8741 20.1993 95.0741 21.2993 95.7741C20.6993 97.2741 19.8993 100.074 20.8993 102.874C21.7993 105.474 23.8993 106.974 24.8993 107.674C34.6993 114.774 33.5993 117.174 45.3993 124.474C51.8993 128.474 55.2993 130.574 59.8993 131.074C65.7993 131.774 70.4993 130.274 72.2993 129.574C72.2993 129.574 80.1993 126.874 86.2993 119.474C94.5993 109.474 95.4992 91.4741 88.1992 73.3741Z" fill="white"/>
<path d="M62.4 110.074C62.2 109.874 64 108.274 66.3 105.074C67.4 103.474 68.7 101.574 69.9 99.2737C71.1 96.9737 72.3999 94.4737 73.5999 91.7737C76.0999 86.2737 78.3999 81.3737 80.6999 77.9737C81.7999 76.2737 83.0999 75.0737 84.0999 74.5737C85.0999 73.9737 85.7 73.8737 85.8 73.9737C85.9 74.0737 85.3 74.3737 84.5 75.0737C83.7 75.7737 82.6999 76.9737 81.6999 78.5737C79.7999 81.9737 77.5999 86.9737 75.0999 92.3737C73.7999 95.0737 72.5999 97.6737 71.1999 99.9737C69.8999 102.274 68.4999 104.174 67.1999 105.774C64.5999 108.874 62.5 110.174 62.4 110.074Z" fill="#412980" stroke="#412980" stroke-width="0.5" stroke-miterlimit="10"/>
<path d="M61.9993 108.374C61.7993 108.774 53.7993 103.674 44.9993 96.0737C36.1993 88.4737 30.0993 81.2737 30.3993 80.9737C30.6993 80.6737 37.3992 87.2737 46.0992 94.7737C54.7992 102.374 62.2993 107.974 61.9993 108.374Z" fill="#412980" stroke="#412980" stroke-width="0.5" stroke-miterlimit="10"/>
<path d="M20.9003 103.074C20.7003 103.074 20.6003 101.674 20.9003 99.574C21.2003 97.474 21.9003 94.574 23.1003 91.474C24.4003 88.474 25.9003 85.874 27.2003 84.174C28.5003 82.474 29.5003 81.574 29.7003 81.674C30.1003 81.974 27.0003 86.174 24.6003 92.074C22.2003 97.974 21.4003 103.174 20.9003 103.074Z" fill="#412980" stroke="#412980" stroke-width="0.5" stroke-miterlimit="10"/>
<path d="M91.5996 108.274C91.6996 108.374 91.1996 109.474 90.0996 111.474C88.9996 113.474 87.2996 116.274 84.6996 119.574C82.0996 122.774 78.4996 126.374 73.5996 128.874C71.0996 130.174 68.3996 131.074 65.3996 131.574C62.3996 131.974 59.1996 131.974 56.0996 130.974C52.9996 130.074 50.2996 128.374 47.7996 126.774C45.3996 125.074 43.0996 123.474 40.8996 121.874C36.4996 118.674 32.6996 115.674 29.6996 112.874C26.6996 110.074 24.4996 107.574 23.0996 105.774C21.6996 103.974 21.0996 102.874 21.0996 102.774C21.2996 102.574 24.2996 106.674 30.3996 111.974C33.4996 114.674 37.2996 117.574 41.6996 120.674C43.8996 122.174 46.1996 123.874 48.5996 125.474C50.9996 127.074 53.5996 128.674 56.3996 129.474C59.2996 130.374 62.1996 130.374 64.9996 129.974C67.7996 129.574 70.3996 128.674 72.7996 127.474C77.4996 125.174 80.9996 121.774 83.6996 118.774C86.2996 115.774 88.1996 112.974 89.4996 111.174C90.7996 109.274 91.4996 108.174 91.5996 108.274Z" fill="#412980" stroke="#412980" stroke-width="0.5" stroke-miterlimit="10"/>
<path d="M20.6003 70.0741C20.4003 70.0741 19.9003 68.4741 19.3003 65.8741C19.2003 65.1741 19.0003 64.4741 18.8003 63.6741C18.7003 63.0741 18.7003 62.2741 19.2003 61.8741C19.7003 61.3741 20.4003 61.2741 21.1003 61.6741C21.3003 61.7741 21.4003 61.8741 21.6003 61.9741C21.7003 62.0741 21.8003 62.1741 21.9003 62.2741C22.1003 62.4741 22.3003 62.6741 22.5003 62.8741C22.8003 63.2741 23.1003 63.6741 23.4003 64.0741C24.0003 64.8741 24.5003 65.7741 25.0003 66.7741C26.9003 70.5741 27.8003 74.2741 28.5003 76.9741C29.2003 79.5741 29.5003 81.2741 29.3003 81.3741C29.1003 81.4741 28.4003 79.8741 27.4003 77.3741C26.4003 74.8741 25.4003 71.1741 23.6003 67.5741C23.1003 66.6741 22.7003 65.8741 22.1003 65.0741C21.6003 64.3741 20.9003 63.3741 20.6003 63.2741C20.5003 63.1741 20.3003 63.1741 20.2003 63.2741C20.1003 63.3741 20.1003 63.4741 20.1003 63.6741C20.2003 64.4741 20.3003 65.1741 20.4003 65.8741C20.7003 68.3741 20.8003 70.0741 20.6003 70.0741Z" fill="#412980" stroke="#412980" stroke-width="0.5" stroke-miterlimit="10"/>
<path d="M6.89999 72.7739C6.79999 72.8739 6.39998 72.4739 5.59998 71.8739C5.19998 71.5739 4.69998 71.1739 4.09998 70.8739C3.99998 70.7739 3.79998 70.6739 3.59998 70.5739L3.39999 70.4739L3.29999 70.3739C3.09999 70.2739 2.89999 70.1739 2.79999 70.1739C2.59999 70.1739 2.49998 70.4739 2.59998 70.6739C2.59998 70.7739 2.69998 70.8739 2.69998 70.9739C2.79998 71.0739 2.79999 71.1739 2.89999 71.3739C3.39999 72.2739 3.99998 73.1739 4.69998 74.1739C6.09998 76.0739 7.59998 78.2739 9.09998 80.4739C12.2 84.9739 14.8 89.1739 17.1 91.7739C19.4 94.4739 21.4 95.4739 21.2 95.6739C21.1 95.8739 18.9 95.1739 16.2 92.5739C14.9 91.2739 13.5 89.5739 12.1 87.6739C10.7 85.7739 9.19998 83.6739 7.69998 81.3739C6.09998 79.1739 4.69999 76.9739 3.39999 74.9739C2.69999 73.9739 2.19998 72.9739 1.69998 71.9739C1.59998 71.7739 1.29998 71.2739 1.19998 70.9739C0.999982 70.5739 1 70.2739 1 69.9739C1 69.6739 1.09998 69.3739 1.19998 69.1739C1.39998 68.9739 1.69999 68.7739 1.89999 68.7739C2.39999 68.7739 2.89999 69.0739 3.39999 69.3739C3.49999 69.4739 3.59999 69.5739 3.79999 69.5739L4.09998 69.7739C4.29998 69.8739 4.4 69.9739 4.5 70.1739C5.1 70.6739 5.49999 71.0739 5.79999 71.4739C6.79999 72.2739 6.99999 72.7739 6.89999 72.7739Z" fill="#412980" stroke="#412980" stroke-width="0.5" stroke-miterlimit="10"/>
<path d="M2.29923 56.2738C2.79923 56.1738 3.89924 60.1738 5.49924 64.9738C7.09924 69.7738 8.69923 73.5738 8.29923 73.7738C7.89923 73.9738 5.69924 70.3738 3.99924 65.4738C2.29924 60.5738 1.89923 56.3738 2.29923 56.2738Z" fill="#412980" stroke="#412980" stroke-width="0.5" stroke-miterlimit="10"/>
<path d="M13.4 71.9741C13 72.1741 10.6 68.5741 7.59996 64.1741C4.59996 59.7741 2.19998 56.1741 2.49998 55.9741C2.79998 55.6741 5.89998 58.874 8.89998 63.274C12 67.774 13.8 71.7741 13.4 71.9741Z" fill="#412980" stroke="#412980" stroke-width="0.5" stroke-miterlimit="10"/>
<path d="M15.699 69.8739C15.299 70.0739 13.3991 66.4739 10.2991 62.6739C7.19906 58.7739 4.09906 56.2739 4.39906 55.8739C4.59906 55.4739 8.29904 57.5739 11.599 61.6739C14.799 65.6739 16.099 69.7739 15.699 69.8739Z" fill="#412980" stroke="#412980" stroke-width="0.5" stroke-miterlimit="10"/>
<path d="M18.4003 71.0739C18.0003 71.2739 16.2003 67.1739 13.4003 62.5739C10.6003 57.9739 7.80026 54.5739 8.10026 54.1739C8.40026 53.8739 11.9003 56.8739 14.7003 61.6739C17.7003 66.4739 18.8003 70.8739 18.4003 71.0739Z" fill="#412980" stroke="#412980" stroke-width="0.5" stroke-miterlimit="10"/>
<path d="M85.7 73.9739C84.6 75.2739 82.7 77.9739 81.9 81.9739C81.2 85.5739 81.7 88.4739 82.1 90.0739C83.6 93.3739 85.1 96.6739 86.5 99.9739C85.2 104.974 84 109.974 82.8 115.174C77.7 137.774 74.4 159.374 72.5 179.674C75.9 182.174 80.9 185.274 87.5 187.374C101.7 192.074 114.3 189.474 122 187.774C126.6 186.774 132.7 185.074 139.5 181.874C140 176.374 140.6 168.874 141.1 159.874C141.6 151.174 141.8 144.174 141.9 137.574C142.4 114.074 142.2 87.9739 142.2 78.1739C138.9 76.2739 134.2 73.7739 128 71.9739C118.7 69.2739 111.2 69.4739 107.3 69.6739C98.6 69.9739 91.2 71.9739 85.7 73.9739Z" fill="white"/>
<path d="M142.301 78.1738C142.101 78.3738 139.501 76.3738 134.501 74.2738C129.601 72.1738 122.401 70.3738 114.201 70.2738C106.101 70.1738 98.7007 71.4738 93.5007 72.6738C88.2007 73.7738 85.0007 74.6738 84.9007 74.3738C84.8007 74.1738 88.0007 72.9738 93.2007 71.4738C98.4007 70.0738 105.801 68.4738 114.201 68.5738C122.601 68.6738 130.001 70.7738 134.901 73.1738C137.401 74.3738 139.201 75.5738 140.401 76.4738C141.701 77.4738 142.301 78.0738 142.301 78.1738Z" fill="#412980" stroke="#412980" stroke-width="0.5" stroke-miterlimit="10"/>
<path d="M86.8006 100.774C86.4006 100.974 84.9006 98.5737 83.5006 95.3737C82.1006 92.1737 81.3006 89.4737 81.7006 89.3737C82.1006 89.2737 83.6006 91.5737 85.0006 94.7737C86.4006 97.8737 87.2006 100.574 86.8006 100.774Z" fill="#412980" stroke="#412980" stroke-width="0.5" stroke-miterlimit="10"/>
<path d="M72.6004 178.874C72.5004 178.874 72.5004 177.774 72.6004 175.674C72.7004 173.674 72.9004 170.674 73.3004 167.074C74.0004 159.874 75.3004 149.874 77.2004 138.974C79.1004 128.074 81.3004 118.274 83.1004 111.274C84.0004 107.774 84.8004 104.974 85.4004 102.974C86.0004 101.074 86.4004 99.9736 86.5004 99.9736C86.7004 100.074 85.8004 104.374 84.3004 111.474C82.8004 118.574 80.8004 128.374 78.9004 139.274C77.0004 150.174 75.5004 160.074 74.5004 167.174C73.5004 174.474 72.9004 178.974 72.6004 178.874Z" fill="#412980" stroke="#412980" stroke-width="0.5" stroke-miterlimit="10"/>
<path d="M140.401 181.174C140.401 181.274 139.601 181.774 138.001 182.574C136.401 183.374 134.001 184.474 131.001 185.674C125.001 187.974 116.301 190.674 106.301 190.974C101.301 191.074 96.6008 190.574 92.4008 189.574C88.2008 188.574 84.6008 187.174 81.7008 185.574C78.8008 184.074 76.7008 182.474 75.3008 181.374C73.9008 180.174 73.3008 179.474 73.3008 179.374C73.5008 179.174 76.4008 181.874 82.2008 184.574C85.1008 185.974 88.6008 187.174 92.7008 188.074C96.8008 188.974 101.401 189.474 106.201 189.374C115.901 189.074 124.501 186.674 130.501 184.674C136.601 182.574 140.301 180.974 140.401 181.174Z" fill="#412980" stroke="#412980" stroke-width="0.5" stroke-miterlimit="10"/>
<path d="M139.6 181.874C139.5 181.874 139.5 180.574 139.6 178.374C139.7 176.074 139.9 172.874 140.1 168.774C140.5 160.674 141 149.574 141.2 137.274C141.4 124.974 141.3 113.774 141.1 105.674C141 101.674 141 98.3737 140.9 96.0737C140.9 93.7737 140.9 92.5737 141 92.5737C141.1 92.5737 141.3 93.7737 141.5 96.0737C141.7 98.3737 142 101.574 142.2 105.674C142.7 113.774 143 124.974 142.8 137.274C142.6 149.674 141.9 160.774 141.2 168.874C140.8 172.874 140.5 176.174 140.2 178.374C139.9 180.674 139.7 181.874 139.6 181.874Z" fill="#412980" stroke="#412980" stroke-width="0.5" stroke-miterlimit="10"/>
<path d="M141 77.1738C142.2 78.0738 143.9 79.4738 145.6 81.3738C147.6 83.5738 150.6 87.5738 154.2 100.374C157.3 111.374 157.9 118.674 158.8 128.274C159 130.874 159.3 134.274 158.4 138.474C157.5 142.874 155.7 146.074 155.1 147.074C152.2 152.074 148.4 155.074 145.9 156.774C145.9 155.074 145.8 153.374 145.8 151.574C144 153.674 142.3 155.774 140.5 157.874C142 162.674 143.5 167.474 145 172.174C140.9 173.474 136.4 174.574 131.6 175.574C120.1 177.974 109.6 178.874 100.6 178.974C96.0004 158.574 91.4004 138.174 86.9004 117.774C91.3004 117.474 95.8004 117.074 100.2 116.774C100.2 115.074 100.2 113.374 100.2 111.674C105.9 110.974 111.7 110.274 117.4 109.674C117.7 111.174 117.9 112.674 118.2 114.174C122.1 113.974 125.9 113.774 129.8 113.574C131.5 120.874 133.2 128.174 134.9 135.474C136 135.374 137.1 135.174 138.1 135.074C139.5 133.674 140.9 132.274 142.4 130.774C141.8 128.874 140.9 125.974 139.6 122.574C137.1 115.874 134.8 111.274 134.4 110.274C132.1 105.474 131.9 96.1738 141 77.1738Z" fill="white"/>
<path d="M159.301 135.374C159.101 135.374 158.701 131.974 158.001 126.474C157.301 120.974 156.201 113.374 154.401 105.074C153.501 100.974 152.601 96.9739 151.401 93.5739C150.201 90.0739 148.801 87.1739 147.401 84.8739C146.001 82.5739 144.501 80.8739 143.401 79.7739C142.301 78.6739 141.701 78.0739 141.701 77.9739C141.801 77.8739 142.501 78.2739 143.801 79.2739C145.001 80.2739 146.701 81.8739 148.301 84.1739C149.901 86.4739 151.501 89.5739 152.801 93.0739C154.101 96.5739 155.101 100.574 156.001 104.774C157.801 113.174 158.701 120.874 159.201 126.374C159.601 131.874 159.601 135.274 159.301 135.374Z" fill="#412980" stroke="#412980" stroke-width="0.5" stroke-miterlimit="10"/>
<path d="M141.1 127.174C140.7 127.274 139.1 123.274 137.1 118.474C135.1 113.574 133.5 109.674 133.9 109.474C134.3 109.274 136.6 112.974 138.6 117.874C140.7 122.774 141.6 127.074 141.1 127.174Z" fill="#412980" stroke="#412980" stroke-width="0.5" stroke-miterlimit="10"/>
<path d="M150.801 127.874C150.801 128.074 149.901 128.374 148.601 128.774C147.301 129.274 145.601 130.074 143.801 131.274C142.001 132.474 140.501 133.674 139.301 134.574C138.101 135.474 137.301 135.874 137.201 135.774C137.001 135.574 137.601 134.874 138.501 133.774C139.501 132.674 141.001 131.274 142.901 129.974C143.901 129.374 144.801 128.874 145.801 128.474C146.701 128.074 147.601 127.874 148.401 127.774C149.901 127.474 150.801 127.674 150.801 127.874Z" fill="#412980" stroke="#412980" stroke-width="0.5" stroke-miterlimit="10"/>
<path d="M144.5 157.074C144.3 156.974 144.7 155.674 145 153.474C145.3 151.274 145.5 148.274 144.9 145.074C144.6 143.474 144.1 141.974 143.4 140.774C142.7 139.574 141.9 138.674 141 137.974C139.3 136.674 137.9 136.474 137.9 136.274C137.9 136.174 138.3 136.074 138.9 136.174C139.6 136.274 140.5 136.474 141.6 137.074C142.6 137.674 143.7 138.674 144.6 139.974C145.5 141.274 146.1 142.974 146.4 144.674C147.1 148.174 146.7 151.474 146 153.674C145.4 155.974 144.6 157.174 144.5 157.074Z" fill="#412980" stroke="#412980" stroke-width="0.5" stroke-miterlimit="10"/>
<path d="M159 133.974C159.2 133.974 159.4 135.574 159.1 138.174C158.8 140.774 157.8 144.274 155.7 147.774C153.7 151.274 151.1 153.874 149 155.474C148 156.274 147 156.874 146.3 157.074C145.5 157.274 145.1 157.174 145.1 157.074C145.1 156.974 145.5 156.874 146.1 156.474C146.7 156.174 147.4 155.474 148.3 154.574C150.1 152.874 152.4 150.274 154.3 146.974C156.2 143.674 157.3 140.374 157.9 137.974C158.5 135.474 158.7 133.974 159 133.974Z" fill="#412980" stroke="#412980" stroke-width="0.5" stroke-miterlimit="10"/>
<path d="M132.6 140.374C132.4 140.474 132 139.874 131.5 138.874C131.4 138.574 131.3 138.374 131.1 138.074C131 137.874 131 137.774 130.9 137.574C130.8 137.374 130.8 137.274 130.7 136.974C130.5 136.374 130.7 135.674 131.2 135.274C131.5 135.074 131.8 134.974 132.2 134.874C132.4 134.874 132.5 134.874 132.6 134.874H132.9C134.7 134.874 136.3 135.274 137.4 135.774C138.5 136.274 139 136.774 138.9 136.974C138.7 137.374 136.2 136.474 133 136.474C132.8 136.474 132.7 136.474 132.5 136.474H132.4C132.3 136.474 132.3 136.674 132.3 136.774C132.3 136.774 132.3 136.974 132.4 137.174C132.4 137.374 132.5 137.474 132.5 137.674C132.6 137.974 132.6 138.274 132.7 138.574C132.8 139.574 132.8 140.274 132.6 140.374Z" fill="#412980" stroke="#412980" stroke-width="0.5" stroke-miterlimit="10"/>
<path d="M134.501 148.074C134.501 148.274 133.001 148.274 130.601 147.674C129.401 147.374 128.101 146.974 126.601 146.374C125.901 146.074 125.101 145.774 124.301 145.374C123.901 145.174 123.501 144.974 123.101 144.774L122.501 144.474C122.301 144.374 122.001 144.174 121.801 143.974C121.401 143.674 120.801 142.874 120.801 142.174C120.801 141.374 121.401 140.774 122.101 140.574C123.001 140.274 123.901 140.074 124.701 140.074C126.301 139.974 127.701 140.074 128.901 140.074C131.301 140.174 132.701 140.374 132.701 140.574C132.701 140.774 131.301 141.074 128.901 141.274C127.701 141.374 126.301 141.474 124.901 141.674C124.201 141.774 123.401 141.974 122.701 142.174C122.601 142.174 122.501 142.274 122.501 142.374C122.501 142.474 122.501 142.474 122.801 142.774C122.901 142.874 123.101 142.974 123.201 143.074L123.801 143.374C124.201 143.574 124.501 143.774 124.901 143.974C125.601 144.374 126.401 144.674 127.001 144.974C128.401 145.574 129.701 146.074 130.801 146.474C133.201 147.374 134.601 147.874 134.501 148.074Z" fill="#412980" stroke="#412980" stroke-width="0.5" stroke-miterlimit="10"/>
<path d="M131.201 151.274C131.201 151.474 130.501 151.574 129.601 151.374C128.601 151.174 127.301 150.674 126.101 149.774C124.901 148.874 124.001 147.774 123.601 146.874C123.201 145.974 123.101 145.374 123.301 145.274C123.701 145.074 125.001 146.974 127.101 148.574C129.201 150.074 131.301 150.774 131.201 151.274Z" fill="#412980" stroke="#412980" stroke-width="0.5" stroke-miterlimit="10"/>
<path d="M132.5 155.574C132.5 155.774 131.8 156.074 130.7 155.874C129.6 155.674 128.1 154.974 126.8 153.774C125.6 152.574 124.8 151.274 124.4 150.274C124 149.274 123.8 148.674 124 148.474C124.2 148.374 124.7 148.774 125.4 149.574C126.1 150.374 126.9 151.474 128 152.474C129.1 153.474 130.2 154.174 131.1 154.674C131.8 155.174 132.5 155.374 132.5 155.574Z" fill="#412980" stroke="#412980" stroke-width="0.5" stroke-miterlimit="10"/>
<path d="M145.5 150.674C145.7 150.774 145.4 152.174 144.2 154.074C143 155.974 140.7 158.374 137.3 159.674C135.6 160.274 133.8 160.474 132.2 160.074C130.6 159.674 129.5 158.774 128.6 157.974C127 156.374 126.3 155.174 126.4 154.974C126.6 154.774 127.6 155.774 129.3 157.074C130.2 157.674 131.2 158.374 132.5 158.574C133.8 158.874 135.2 158.674 136.7 158.074C139.7 156.974 141.9 154.874 143.3 153.274C144.6 151.774 145.3 150.574 145.5 150.674Z" fill="#412980" stroke="#412980" stroke-width="0.5" stroke-miterlimit="10"/>
<path d="M100.599 179.074C100.399 179.174 99.3994 175.774 98.0994 170.174C96.6994 164.674 94.9994 156.974 93.0994 148.474C91.1994 139.974 89.5994 132.274 88.5994 126.674C87.4994 121.074 86.9994 117.574 87.1994 117.574C87.3994 117.574 88.3994 120.874 89.6994 126.474C91.0994 131.974 92.7994 139.674 94.6994 148.174C96.5994 156.674 98.1994 164.374 99.1994 169.974C100.299 175.574 100.799 179.074 100.599 179.074Z" fill="#412980" stroke="#412980" stroke-width="0.5" stroke-miterlimit="10"/>
<path d="M145 172.274C145.1 172.474 142.6 173.374 138.6 174.474C134.6 175.674 129.1 177.274 122.8 178.574C116.6 179.874 110.7 180.374 106.5 180.274C102.3 180.174 99.6997 179.474 99.7997 179.274C99.7997 178.974 102.4 179.274 106.5 179.074C110.6 178.974 116.3 178.274 122.5 176.974C128.7 175.674 134.2 174.274 138.3 173.374C142.4 172.474 144.9 172.074 145 172.274Z" fill="#412980" stroke="#412980" stroke-width="0.5" stroke-miterlimit="10"/>
<path d="M144.901 171.374C144.501 171.474 143.301 168.574 142.101 164.774C140.901 161.074 140.101 157.974 140.601 157.774C141.001 157.574 142.501 160.474 143.701 164.274C144.801 168.074 145.301 171.274 144.901 171.374Z" fill="#412980" stroke="#412980" stroke-width="0.5" stroke-miterlimit="10"/>
<path d="M130.1 113.574C130.1 113.874 127.6 113.774 123.7 114.074C121.7 114.174 119.4 114.474 116.9 114.774C114.3 115.074 111.5 115.574 108.6 115.974C102.7 116.974 97.3004 117.674 93.3004 117.974C89.3004 118.274 86.9004 118.074 86.9004 117.874C86.9004 117.674 89.3004 117.374 93.2004 116.874C97.1004 116.374 102.4 115.374 108.4 114.474C111.4 113.974 114.2 113.574 116.8 113.374C119.4 113.174 121.8 112.974 123.8 112.974C127.7 112.974 130.2 113.374 130.1 113.574Z" fill="#412980" stroke="#412980" stroke-width="0.5" stroke-miterlimit="10"/>
<path d="M135 135.374C134.6 135.474 133.2 130.674 132 124.674C130.8 118.674 130.1 113.774 130.5 113.674C130.9 113.574 132.3 118.374 133.5 124.374C134.8 130.274 135.5 135.274 135 135.374Z" fill="#412980" stroke="#412980" stroke-width="0.5" stroke-miterlimit="10"/>
<path d="M118.3 113.374C118.2 113.374 118 113.074 117.8 112.474C117.7 112.174 117.6 111.874 117.5 111.374C117.4 111.174 117.4 110.974 117.3 110.774C117.3 110.674 117.2 110.574 117.1 110.474C117 110.374 116.8 110.474 116.7 110.474C116.4 110.474 116.1 110.574 115.7 110.674C115 110.774 114.3 110.874 113.5 110.974C112 111.174 110.3 111.374 108.5 111.574C106.8 111.774 105.1 111.874 103.6 112.074C102.8 112.174 102.1 112.174 101.5 112.274C101.3 112.274 101.2 112.274 101 112.274C100.9 112.274 100.8 112.274 100.8 112.274C100.7 112.274 100.6 112.374 100.5 112.474C100.5 112.574 100.5 112.574 100.5 112.674C100.5 112.774 100.5 112.874 100.5 113.074C100.5 113.274 100.6 113.574 100.6 113.774C100.6 114.174 100.7 114.574 100.7 114.874C100.7 115.474 100.7 115.874 100.6 115.874C100.5 115.874 100.3 115.574 100.1 114.974C100 114.674 99.9004 114.274 99.7004 113.874C99.6004 113.674 99.6004 113.374 99.5004 113.174C99.5004 113.074 99.4004 112.874 99.4004 112.774C99.4004 112.574 99.4004 112.374 99.4004 112.174C99.5004 111.774 99.7004 111.374 100.2 111.174C100.4 111.074 100.7 110.974 100.9 110.974C101.1 110.974 101.2 110.874 101.4 110.874C102.1 110.774 102.8 110.674 103.5 110.574C105 110.374 106.6 110.174 108.4 109.974C110.2 109.774 111.9 109.574 113.4 109.474C114.2 109.374 114.9 109.374 115.6 109.274C115.9 109.274 116.3 109.274 116.6 109.174C117.1 109.074 117.6 109.174 117.9 109.474C118.2 109.774 118.3 110.174 118.3 110.474C118.3 110.674 118.4 110.974 118.4 111.174C118.4 111.574 118.5 111.974 118.5 112.274C118.4 112.974 118.4 113.274 118.3 113.374Z" fill="#412980" stroke="#412980" stroke-width="0.5" stroke-miterlimit="10"/>
<path d="M87.0022 23.874C86.4022 22.774 85.4022 20.774 85.6022 18.274C85.8022 15.174 87.5022 12.974 88.9022 11.274C92.5022 6.97399 96.8022 5.074 99.4022 3.974C102.302 2.774 107.202 0.77399 113.702 1.27399C120.102 1.87399 124.502 4.57399 127.102 6.27399C130.102 8.17399 132.602 9.87399 134.102 13.074C135.202 15.474 134.802 16.974 135.202 21.474C135.402 24.774 135.902 27.374 136.902 32.474C137.902 37.674 139.202 44.174 142.602 51.174C146.502 59.074 150.702 62.274 149.202 66.174C148.502 67.974 147.002 69.074 146.102 69.674C143.102 71.774 139.902 71.674 134.902 71.674C131.802 71.674 127.102 71.674 123.502 71.874C114.802 72.374 112.802 73.974 105.402 73.674C102.202 73.574 99.6022 73.174 97.9022 72.874C98.0022 68.974 97.9022 64.774 97.5022 60.274C96.1022 45.174 91.5022 32.774 87.0022 23.874Z" fill="#412980"/>
<path d="M111.402 7.97407C109.202 7.87407 106.102 7.87407 102.702 8.97407C95.5017 11.1741 91.4017 16.2741 89.9017 18.3741C89.3017 20.0741 88.6017 22.2741 87.8017 24.8741C87.2017 27.0741 86.1017 30.9741 85.4017 35.8741C84.3017 43.0741 84.6017 48.6741 84.8017 51.1741C85.5017 60.1741 87.5017 62.2741 88.2017 62.9741C90.3017 65.0741 92.9017 65.5741 94.1017 65.7741C99.4017 66.7741 103.602 64.2741 104.702 63.5741C106.102 67.0741 107.502 70.5741 108.902 74.0741C112.902 72.6741 116.902 71.2741 120.902 69.8741C120.402 67.7741 119.802 65.5741 119.202 63.2741C118.402 60.2741 117.502 57.4741 116.602 54.7741C117.802 53.4741 119.202 51.5741 120.502 49.0741C121.702 46.6741 122.402 44.3741 122.802 42.6741C123.302 42.8741 124.902 43.6741 126.702 43.1741C128.802 42.5741 129.702 40.6741 130.102 39.6741C130.502 38.6741 131.802 36.1741 130.402 33.5741C129.402 31.6741 127.302 30.2741 125.002 30.2741C123.602 30.2741 122.502 30.9741 122.002 31.2741C121.202 30.8741 120.002 30.2741 118.802 29.2741C116.902 27.6741 115.502 25.5741 114.102 21.7741C113.102 18.7741 111.802 14.1741 111.402 7.97407Z" fill="white"/>
<path d="M119.302 51.8743C119.402 51.9743 118.802 52.8743 117.402 54.3743C116.002 55.8743 113.902 57.9743 110.902 60.0743C107.902 62.1743 104.002 64.2743 99.4016 65.6743C98.2016 66.0743 97.0016 66.2743 95.7016 66.4743C94.4016 66.5743 93.0016 66.5743 91.6016 66.1743C90.2016 65.7743 88.9016 64.9743 87.9016 63.7743C86.9016 62.6743 86.3016 61.2743 85.9016 59.9743C85.0016 57.2743 84.4016 54.6743 84.0016 51.9743C83.7016 49.3743 83.6016 46.7743 83.7016 44.3743C83.9016 39.5743 84.6016 35.2743 85.4016 31.7743C86.2016 28.2743 87.1016 25.4743 87.7016 23.5743C88.3016 21.6743 88.8016 20.6743 88.9016 20.6743C89.2016 20.7743 87.9016 25.0743 86.6016 32.0743C85.9016 35.5743 85.3016 39.7743 85.2016 44.4743C85.2016 46.7743 85.3016 49.2743 85.6016 51.7743C85.9016 54.2743 86.6016 56.8743 87.4016 59.3743C87.8016 60.5743 88.4016 61.7743 89.1016 62.6743C89.8016 63.5743 90.8016 64.1743 92.0016 64.5743C94.3016 65.1743 96.7016 64.7743 98.9016 64.1743C103.402 62.8743 107.202 60.9743 110.202 59.0743C116.302 55.2743 119.102 51.6743 119.302 51.8743Z" fill="#412980" stroke="#412980" stroke-width="0.5" stroke-miterlimit="10"/>
<path d="M110.102 73.5741C109.802 73.8741 107.802 72.0741 106.302 69.1741C104.802 66.2741 104.402 63.6741 104.802 63.5741C105.202 63.4741 106.302 65.6741 107.802 68.3741C109.102 71.0741 110.402 73.2741 110.102 73.5741Z" fill="#412980" stroke="#412980" stroke-width="0.5" stroke-miterlimit="10"/>
<path d="M121.201 67.074C121.001 67.174 120.401 66.774 119.701 65.774C119.001 64.774 118.201 63.274 117.601 61.474C117.101 59.674 117.001 57.974 117.101 56.774C117.201 55.574 117.501 54.874 117.701 54.874C118.201 54.874 118.201 57.774 119.201 61.074C120.101 64.374 121.601 66.774 121.201 67.074Z" fill="#412980" stroke="#412980" stroke-width="0.5" stroke-miterlimit="10"/>
<path d="M122.202 42.0744C122.302 41.9744 122.602 42.2744 123.102 42.4744C123.602 42.7744 124.502 42.9744 125.502 42.8744C126.502 42.7744 127.602 42.0744 128.402 41.0744C129.302 39.9744 129.902 38.4744 130.102 36.9744C130.302 35.3744 129.902 33.8744 129.202 32.7744C128.402 31.6744 127.302 31.0744 126.302 30.8744C125.302 30.6744 124.402 30.9744 123.902 31.1744C123.302 31.3744 123.002 31.6744 123.002 31.5744C122.902 31.4744 123.102 31.1744 123.602 30.6744C124.102 30.1744 125.102 29.7744 126.402 29.7744C127.702 29.7744 129.302 30.4744 130.402 31.8744C131.502 33.1744 132.002 35.2744 131.802 37.1744C131.502 39.0744 130.702 40.7744 129.602 42.0744C128.502 43.3744 126.902 44.0744 125.602 44.0744C124.302 44.0744 123.302 43.5744 122.802 43.0744C122.202 42.5744 122.102 42.1744 122.202 42.0744Z" fill="#412980" stroke="#412980" stroke-width="0.5" stroke-miterlimit="10"/>
<path d="M93.0022 44.3743C92.9022 44.4743 92.6022 44.3743 92.1022 44.0743C91.6022 43.7743 91.0022 43.0743 90.6022 42.1743C90.2022 41.1743 90.1022 39.7743 90.6022 38.4743C90.9022 37.7743 91.3022 37.2743 91.6022 36.6743C92.0022 36.1743 92.3022 35.5743 92.6022 34.9743C93.9022 32.4743 95.0022 30.0743 96.0022 28.4743C96.9022 26.7743 97.6022 25.8743 97.8022 25.9743C98.0022 26.0743 97.7022 27.1743 97.0022 28.9743C96.3022 30.7743 95.4022 33.1743 94.0022 35.7743C93.6022 36.3743 93.3022 37.0743 92.9022 37.5743C92.5022 38.1743 92.1022 38.6743 91.9022 39.0743C91.4022 39.9743 91.4022 40.9743 91.6022 41.7743C92.1022 43.3743 93.1022 44.1743 93.0022 44.3743Z" fill="#412980" stroke="#412980" stroke-width="0.5" stroke-miterlimit="10"/>
<path d="M90.5012 31.6742C90.1012 31.6742 89.7012 30.3742 90.0012 28.8742C90.3012 27.3742 91.0012 26.3742 91.5012 26.4742C91.9012 26.5742 91.9012 27.7742 91.7012 29.1742C91.4012 30.5742 90.9012 31.6742 90.5012 31.6742Z" fill="#412980" stroke="#412980" stroke-width="0.5" stroke-miterlimit="10"/>
<path d="M104.302 31.174C103.902 31.074 103.602 30.074 103.802 28.874C104.002 27.674 104.502 26.674 104.902 26.774C105.302 26.874 105.602 27.874 105.402 29.074C105.202 30.274 104.702 31.274 104.302 31.174Z" fill="#412980" stroke="#412980" stroke-width="0.5" stroke-miterlimit="10"/>
<path d="M96.5025 20.1744C96.3025 20.1744 96.0024 19.8744 95.6024 19.4744C95.2024 19.0744 94.6025 18.6744 93.9025 18.5744C93.2025 18.4744 92.5025 18.6744 92.0025 18.9744C91.5025 19.2744 91.2025 19.4744 91.0025 19.3744C90.8025 19.2744 90.8025 18.7744 91.2025 18.0744C91.7025 17.4744 92.7024 16.7744 94.1024 16.8744C95.4024 17.0744 96.3025 18.0743 96.5025 18.7743C96.9025 19.6743 96.7025 20.1744 96.5025 20.1744Z" fill="#412980" stroke="#412980" stroke-width="0.5" stroke-miterlimit="10"/>
<path d="M110.601 21.0743C110.401 21.0743 110.201 20.6743 109.801 20.1743C109.401 19.6743 108.801 19.1743 108.001 18.9743C107.201 18.7743 106.401 18.8743 105.801 19.1743C105.201 19.3743 104.801 19.5743 104.601 19.4743C104.401 19.3743 104.501 18.7743 105.101 18.1743C105.701 17.5743 107.001 17.0743 108.301 17.3743C109.701 17.7743 110.501 18.8743 110.701 19.6743C111.001 20.5743 110.801 21.0743 110.601 21.0743Z" fill="#412980" stroke="#412980" stroke-width="0.5" stroke-miterlimit="10"/>
<path d="M105.502 36.0742C105.102 36.3742 104.702 36.3742 104.602 36.1742C104.502 35.9742 104.702 35.5742 105.002 35.3742C105.402 35.0742 105.802 35.0742 105.902 35.2742C106.102 35.4742 105.902 35.7742 105.502 36.0742Z" fill="#412980" stroke="#412980" stroke-width="0.5" stroke-miterlimit="10"/>
<path d="M109.302 33.7741C108.902 33.9741 108.502 33.8742 108.302 33.6742C108.102 33.4742 108.402 33.0742 108.802 32.8742C109.202 32.6742 109.602 32.7742 109.802 32.9742C109.902 33.1742 109.702 33.5741 109.302 33.7741Z" fill="#412980" stroke="#412980" stroke-width="0.5" stroke-miterlimit="10"/>
<path d="M108.702 38.6744C108.302 38.7744 107.902 38.7744 107.802 38.5744C107.702 38.3744 108.002 38.0744 108.502 37.9744C108.902 37.8744 109.302 37.8744 109.402 38.0744C109.502 38.2744 109.102 38.5744 108.702 38.6744Z" fill="#412980" stroke="#412980" stroke-width="0.5" stroke-miterlimit="10"/>
<path d="M103.002 44.874C103.202 44.974 103.202 45.674 102.702 46.774C102.202 47.874 101.002 49.074 99.4022 49.974C97.8022 50.774 96.0022 50.874 94.9022 50.674C93.7022 50.474 93.1022 49.974 93.2022 49.774C93.3022 49.574 94.0022 49.574 95.0022 49.474C96.0022 49.374 97.4022 49.074 98.7022 48.474C100.102 47.774 101.102 46.874 101.802 46.174C102.402 45.374 102.802 44.874 103.002 44.874Z" fill="#412980" stroke="#412980" stroke-width="0.5" stroke-miterlimit="10"/>
<path d="M111.601 7.97416C111.501 8.27416 110.001 7.87415 107.601 8.27415C105.201 8.57415 102.101 9.87415 98.6011 11.5742C96.9011 12.3742 95.3011 13.1742 94.1011 14.0742C92.9011 15.0742 92.0011 16.1742 91.2011 17.1742C89.8011 19.1742 88.9011 20.4742 88.7011 20.3742C88.5011 20.2742 89.0011 18.7742 90.2011 16.5742C90.8011 15.4742 91.7011 14.1742 93.0011 12.9742C94.3011 11.7742 96.1011 10.8742 97.8011 10.0742C101.301 8.37415 104.701 7.17416 107.301 7.17416C110.101 7.07416 111.601 7.87416 111.601 7.97416Z" fill="#412980" stroke="#412980" stroke-width="0.5" stroke-miterlimit="10"/>
<path d="M123.101 30.874C123.101 31.074 121.401 31.174 119.101 29.774C116.801 28.474 114.301 25.574 113.001 21.774C111.701 17.974 111.601 14.474 111.401 11.974C111.301 9.47403 111.201 7.97402 111.501 7.87402C111.701 7.87402 112.201 9.37402 112.601 11.774C113.101 14.274 113.401 17.674 114.601 21.174C115.801 24.674 117.901 27.274 119.801 28.774C121.601 30.274 123.101 30.574 123.101 30.874Z" fill="#412980" stroke="#412980" stroke-width="0.5" stroke-miterlimit="10"/>
<path d="M113.401 1.5742C113.401 1.8742 111.101 1.6742 107.501 2.2742C105.701 2.5742 103.601 3.07421 101.401 3.97421C99.2011 4.87421 96.8012 6.0742 94.5012 7.5742C92.2012 9.0742 90.2011 10.8742 88.7011 12.6742C87.2011 14.4742 86.4011 16.4742 86.2011 18.1742C85.9011 19.8742 86.2012 21.3742 86.5012 22.2742C86.8012 23.1742 87.1012 23.7742 87.0012 23.7742C86.9012 23.8742 86.4011 23.4742 85.9011 22.4742C85.4011 21.5742 84.9012 19.9742 85.0012 17.9742C85.1012 15.9742 85.9012 13.6742 87.5012 11.6742C89.0012 9.57421 91.2011 7.77421 93.6011 6.17421C96.0011 4.57421 98.5011 3.37421 100.901 2.47421C103.301 1.67421 105.501 1.1742 107.401 1.0742C111.201 0.774201 113.501 1.4742 113.401 1.5742Z" fill="#412980" stroke="#412980" stroke-width="0.5" stroke-miterlimit="10"/>
<path d="M144.901 56.2743C144.801 56.2743 144.301 55.4743 143.501 53.9743C142.701 52.3743 141.601 50.0743 140.501 47.1743C138.201 41.3743 135.701 32.9743 134.601 23.3743C134.301 20.9743 134.101 18.5743 134.001 16.4743C133.901 15.3743 133.701 14.3743 133.401 13.4743C133.101 12.5743 132.501 11.7743 131.901 11.0743C130.601 9.67426 129.001 8.47427 127.501 7.47427C126.001 6.47427 124.501 5.67427 123.201 4.97427C120.401 3.57427 118.101 2.77426 116.401 2.27426C114.701 1.77426 113.801 1.57426 113.801 1.37426C113.801 1.27426 114.801 1.27426 116.501 1.57426C118.201 1.87426 120.701 2.57426 123.601 3.77426C125.101 4.37426 126.601 5.17426 128.201 6.17426C129.801 7.17426 131.401 8.27426 133.001 9.87426C133.801 10.6743 134.501 11.6743 134.901 12.7743C135.301 13.8743 135.501 15.0743 135.601 16.1743C135.801 18.4743 136.001 20.6743 136.301 23.0743C137.401 32.4743 139.701 40.7743 141.701 46.6743C143.501 52.5743 145.101 56.0743 144.901 56.2743Z" fill="#412980" stroke="#412980" stroke-width="0.5" stroke-miterlimit="10"/>
<path d="M108.102 72.4744C108.202 72.8744 104.802 73.9744 100.302 73.5744C99.7023 73.4744 98.9024 73.2744 98.5024 72.7744C98.0024 72.2744 97.7023 71.7744 97.6023 71.1744C97.3023 70.0744 97.4024 69.1744 97.5024 68.4744C97.7024 67.0744 97.7023 66.3744 97.9023 66.2744C98.0023 66.2744 98.2023 66.4744 98.3023 66.7744C98.5023 67.1744 98.6023 67.7744 98.6023 68.4744C98.7023 69.1744 98.7024 69.9744 99.0024 70.6744C99.1024 71.0744 99.3023 71.3744 99.6023 71.5744C99.8023 71.7744 100.102 71.8744 100.602 71.9744C104.602 72.2744 108.002 71.9744 108.102 72.4744Z" fill="#412980" stroke="#412980" stroke-width="0.5" stroke-miterlimit="10"/>
<path d="M144.002 54.4742C144.102 54.3742 146.002 56.1742 147.902 59.9742C148.402 60.8742 148.802 61.9742 149.202 63.1742C149.402 63.7742 149.602 64.3742 149.802 64.9742C149.902 65.2742 150.002 65.5742 150.002 65.9742C150.102 66.2742 150.202 66.6742 150.202 67.1742C150.202 67.6742 149.902 68.2742 149.602 68.5742C149.302 68.8742 149.002 69.1742 148.702 69.3742C148.102 69.8742 147.302 70.2742 146.602 70.4742C145.102 71.0742 143.502 71.2742 142.002 71.4742C138.902 71.9742 136.002 72.3742 133.202 72.6742C131.802 72.8742 130.502 72.8741 129.202 72.7741C127.902 72.6741 126.802 72.3742 125.802 71.8742C123.802 70.9742 122.502 69.7741 121.802 68.7741C121.102 67.8741 120.902 67.1742 120.902 67.1742C121.002 67.0742 121.402 67.5742 122.202 68.3742C123.002 69.1742 124.302 70.1741 126.102 70.7741C129.702 72.2741 135.402 70.5741 141.602 69.7741C143.102 69.5741 144.602 69.2742 145.902 68.8742C146.502 68.6742 147.102 68.3742 147.602 67.9742C147.802 67.7742 148.102 67.5742 148.302 67.3742C148.502 67.1742 148.502 67.0742 148.502 66.8742C148.502 66.4742 148.302 65.7742 148.202 65.1742C148.102 64.5742 147.902 63.9742 147.702 63.3742C147.402 62.2742 147.002 61.1741 146.602 60.2741C145.302 56.6741 143.702 54.5742 144.002 54.4742Z" fill="#412980" stroke="#412980" stroke-width="0.5" stroke-miterlimit="10"/>
</svg>
