<svg width="300" height="300" viewBox="0 0 300 300" fill="none" xmlns="http://www.w3.org/2000/svg">
<path d="M113.458 239.025C107.396 237.486 101.35 235.875 95.3192 234.19C93.1154 233.584 90.9058 233.036 88.7134 232.379L85.8288 231.531L82.9442 230.631C81.0231 230.025 79.0904 229.448 77.175 228.825C73.3558 227.544 69.525 226.304 65.7461 224.902C62.3654 223.748 59.0134 222.427 55.6788 221.198C53.55 220.373 51.4442 219.467 49.3327 218.59C48.8077 218.359 48.2769 218.152 47.7692 217.881L46.2461 217.067C45.2423 216.49 44.2327 215.971 43.2577 215.336C42.1038 214.511 42.4269 214.304 43.7596 214.344C45.7913 214.515 47.7752 215.053 49.6154 215.931C57.9634 219.727 66.6692 222.813 75.4557 225.923C78.0807 226.881 80.8096 227.688 83.5327 228.496C86.2557 229.304 89.0596 230.065 91.8058 230.856C97.8461 232.586 103.921 234.225 110.002 235.817C113.744 236.802 117.496 237.763 121.258 238.702C126.946 240.121 132.663 241.552 138.335 242.884C142.742 243.923 147.087 244.823 151.454 245.861C152.412 246.092 153.358 246.294 154.338 246.536C155.617 246.828 156.87 247.226 158.083 247.725C158.666 247.938 159.186 248.295 159.594 248.763C159.742 248.912 159.877 249.072 159.998 249.242C160.235 249.669 158.665 249.692 156.04 249.121C148.258 247.39 140.042 245.533 131.81 243.565C125.694 242.117 119.55 240.611 113.429 239.088L113.458 239.025Z" fill="#3B2C7D"/>
<g opacity="0.3">
<path d="M77.9626 82.3151C76.6357 81.4959 75.1299 81.2305 73.7568 80.544C71.4491 79.3901 70.376 76.1305 70.8722 73.6209C71.1318 72.3055 72.3491 69.617 73.7568 69.2536C74.178 69.1497 74.9741 69.4613 75.4876 69.594C78.8107 70.442 82.1164 71.3767 85.4164 72.317C95.3164 75.1324 105.176 78.0863 115.024 81.1036C136.716 87.6997 158.363 94.4517 179.963 101.359C186.147 103.338 192.395 105.196 198.493 107.429C200.224 108.069 200.991 105.282 199.261 104.648C182.882 98.6536 165.984 93.8824 149.328 88.6844C127.007 81.7151 104.674 74.6709 82.1395 68.4113C78.9895 67.5401 74.4203 65.192 71.5357 67.4363C70.0699 68.5972 68.9735 70.1595 68.3804 71.9328C67.7873 73.7061 67.7229 75.6136 68.1953 77.4228C68.6395 79.1536 69.6087 81.2132 71.0222 82.3324C72.603 83.5786 74.8068 83.7574 76.5087 84.8074C78.0953 85.7824 79.5434 83.2844 77.9626 82.3151Z" fill="#3B2C7D"/>
</g>
<path d="M55.3324 122.885C55.5574 118.679 56.1458 115.558 59.567 112.811C61.1304 111.554 62.6304 110.452 63.8997 108.871C65.0881 107.394 66.0343 105.75 67.1651 104.256C70.4074 99.923 75.8997 98.573 80.7805 96.8018C86.3574 94.7826 91.9997 92.9538 97.7074 91.3153C99.4901 90.7961 98.7343 88.0153 96.9401 88.5288C90.5631 90.3749 84.2612 92.448 78.0343 94.748C73.1881 96.5538 68.3593 98.0018 65.0997 102.248C63.7324 104.019 62.6535 106.015 61.1708 107.694C59.6074 109.465 57.4785 110.579 55.8631 112.31C53.0478 115.292 52.6554 118.99 52.4478 122.925C52.3497 124.777 55.2343 124.771 55.3324 122.925V122.885Z" fill="#3B2C7D"/>
<path d="M76.6758 120.086L81.9546 117.675C81.9546 117.675 88.9642 128.959 89.9104 129.663C90.8566 130.367 90.6431 133.304 89.9104 134.457C89.9104 134.457 99.4239 158.192 100.174 158.573C100.924 158.954 94.4046 157.136 94.4046 157.136L83.3969 129.231C83.3969 129.231 77.1316 121.529 76.6758 120.086Z" fill="#3B2C7D"/>
<path d="M108.028 91.0731L107.624 84.4039L109.205 84.2539L111.841 98.9366L109.672 99.9001L107.855 95.8616C107.855 95.8616 103.159 96.7847 102.663 97.8693C102.397 98.4462 101.843 96.8828 101.797 95.9193C101.763 95.1693 105.039 93.7616 106.764 92.6539C108.132 91.7308 108.028 91.0731 108.028 91.0731Z" fill="#3B2C7D"/>
<path d="M87.6178 116.7C86.562 116.861 85.5062 117.017 84.4678 117.236C84.087 117.311 83.7466 117.496 83.3716 117.571C82.7024 117.698 82.0331 117.831 81.3697 117.975C80.7062 118.119 80.0197 118.229 79.3735 118.419C78.8017 118.591 78.2518 118.829 77.7351 119.129C77.1367 119.594 76.4495 119.931 75.7158 120.121C75.462 120.121 75.0928 119.544 74.8851 118.852C74.6774 118.159 74.6543 117.323 75.0524 117.011C76.4189 115.964 78.018 115.261 79.7139 114.963C80.7056 114.729 81.6792 114.425 82.6274 114.052C83.7062 113.757 84.7908 113.521 85.8697 113.29L87.8601 112.875C88.8581 112.644 89.8735 112.488 90.837 112.165C91.5715 111.863 92.2797 111.5 92.9543 111.081C93.1009 110.985 93.2531 110.898 93.4101 110.821C93.987 110.602 94.2812 110.821 94.6735 111.802C94.7601 112.021 94.8581 112.234 94.9389 112.454C95.0746 112.749 95.1275 113.076 95.0919 113.399C95.0564 113.722 94.9337 114.029 94.737 114.288C93.5831 115.344 92.187 115.754 90.7851 116.117C89.7524 116.382 88.6851 116.556 87.6408 116.792L87.6178 116.7Z" fill="#3B2C7D"/>
<path d="M115.319 119.642C113.917 119.204 112.515 118.754 111.107 118.333C110.588 118.183 110.063 118.073 109.55 117.917L104.092 116.319C103.284 116.083 102.465 115.875 101.652 115.673C100.602 115.437 99.5657 115.145 98.5478 114.796C98.2362 114.681 98.317 114.531 98.6401 114.427C99.1202 114.289 99.626 114.265 100.117 114.358C101.196 114.554 102.269 114.762 103.342 114.998C104.415 115.235 105.482 115.494 106.532 115.835C107.796 116.227 109.152 116.487 110.461 116.833C111.898 117.208 113.346 117.612 114.765 118.027L117.396 118.817L121.371 120.046C122.398 120.346 123.43 120.577 124.452 120.871L125.121 121.062C125.94 121.367 126.148 121.638 126.223 121.956C126.245 122.033 126.261 122.112 126.269 122.192C126.269 122.429 125.871 122.51 125.219 122.452C123.298 122.092 121.405 121.599 119.554 120.975C118.146 120.542 116.732 120.092 115.313 119.677L115.319 119.642Z" fill="#3B2C7D"/>
<path d="M148.208 128.867C147.453 128.625 146.697 128.359 145.929 128.129C145.653 128.042 145.353 127.996 145.087 127.909L142.122 126.992C141.683 126.859 141.233 126.75 140.789 126.646C140.214 126.53 139.65 126.362 139.104 126.144C138.937 126.063 139.001 125.907 139.191 125.769C139.436 125.591 139.737 125.507 140.039 125.532C140.616 125.602 141.193 125.682 141.804 125.792C142.393 125.892 142.971 126.041 143.535 126.236C144.216 126.473 144.966 126.571 145.681 126.744C146.397 126.917 147.256 127.148 148.035 127.373L149.478 127.811C150.204 128.025 150.92 128.29 151.647 128.492C152.224 128.665 152.801 128.752 153.378 128.919C153.505 128.945 153.63 128.979 153.753 129.023C154.197 129.213 154.272 129.427 154.254 129.738C154.26 129.811 154.26 129.884 154.254 129.957C154.208 130.182 153.949 130.298 153.579 130.321C152.532 130.212 151.501 129.976 150.51 129.617C149.76 129.381 149.004 129.127 148.231 128.902L148.208 128.867Z" fill="#3B2C7D"/>
<path d="M194.999 141.981C194.624 141.854 194.243 141.732 193.845 141.623C193.706 141.582 193.562 141.577 193.418 141.531L191.935 141.034C191.716 140.965 191.491 140.907 191.272 140.856C190.979 140.82 190.698 140.722 190.447 140.567C190.366 140.509 190.447 140.319 190.562 140.134C190.677 139.95 190.885 139.771 191.047 139.788C191.329 139.808 191.61 139.843 191.889 139.892C192.169 139.951 192.444 140.036 192.708 140.146C193.048 140.243 193.399 140.299 193.752 140.313C194.139 140.377 194.526 140.452 194.906 140.527L195.633 140.665C196.002 140.729 196.366 140.827 196.735 140.856C197.03 140.851 197.325 140.83 197.618 140.792C197.681 140.792 197.751 140.792 197.814 140.792C198.051 140.792 198.102 140.936 198.062 141.369C198.062 141.473 198.062 141.577 198.062 141.675C198.059 141.81 198.022 141.942 197.955 142.059C197.887 142.176 197.791 142.274 197.676 142.344C197.421 142.431 197.154 142.474 196.885 142.471C196.628 142.449 196.373 142.405 196.124 142.338C195.749 142.252 195.374 142.131 194.97 142.033L194.999 141.981Z" fill="#3B2C7D"/>
<path d="M130.12 148.592C128.839 153.923 125.348 158.371 123.895 163.656C123.398 165.45 126.202 166.217 126.675 164.423C128.129 159.144 131.614 154.702 132.9 149.359C133.333 147.554 130.552 146.781 130.12 148.592Z" fill="#3B2C7D"/>
<path d="M130.612 151.044C133.881 151.515 137.216 151.101 140.27 149.844C141.966 149.1 140.501 146.613 138.816 147.352C136.254 148.465 133.335 148.506 130.612 148.159C128.772 147.934 128.789 150.825 130.612 151.044Z" fill="#3B2C7D"/>
<path d="M126.005 90.3692C124.528 93.7672 122.082 98.0711 123.282 101.861C124.009 104.169 125.791 105.929 126.703 108.138C127.32 109.644 127.436 111.34 127.649 112.944C128.578 119.867 129.42 126.831 129.957 133.788C130.095 135.629 132.98 135.646 132.841 133.788C132.357 127.258 131.555 120.727 130.724 114.231C130.332 111.167 130.147 108.121 128.566 105.398C127.326 103.246 125.566 101.394 125.988 98.7576C126.368 96.3807 127.568 94.0095 128.52 91.8345C129.253 90.1499 126.79 88.6788 126.028 90.3749L126.005 90.3692Z" fill="#3B2C7D"/>
<path d="M157.373 136.869C156.375 135.439 155.563 133.888 154.956 132.254L154.57 131.013L154.373 130.396L154.241 129.761L153.987 128.498C153.918 128.077 153.895 127.644 153.848 127.217L153.75 126.283V125.342C153.721 124.718 153.745 124.093 153.82 123.473C154.299 119.123 156.069 115.016 158.902 111.681C160.125 110.204 161.526 108.884 163.073 107.752C164.073 107.013 165.16 106.401 166.31 105.929C166.601 105.812 166.9 105.716 167.204 105.64L168.133 105.456C168.445 105.404 168.762 105.398 169.073 105.369C169.391 105.371 169.708 105.402 170.02 105.461C170.798 105.536 170.654 105.796 170.066 106.183C169.921 106.275 169.748 106.396 169.558 106.535C169.368 106.702 169.161 106.849 168.941 106.973C168.716 107.094 168.479 107.25 168.237 107.4C167.994 107.55 167.723 107.665 167.452 107.815C165.407 108.644 163.547 109.87 161.977 111.421C161.163 112.207 160.404 113.047 159.704 113.936C159.005 114.85 158.375 115.814 157.818 116.821C156.485 119.303 155.8 122.081 155.827 124.898C155.764 128.028 156.541 131.118 158.077 133.846L158.441 134.463C158.553 134.666 158.682 134.859 158.827 135.04L159.67 136.194C160.281 136.934 160.948 137.627 161.666 138.265C163.83 140.248 166.468 141.639 169.327 142.304C171.485 142.801 173.726 142.821 175.893 142.361C176.36 142.275 176.81 142.136 177.277 142.015C177.888 141.819 178.519 141.692 179.158 141.635C179.547 141.64 179.923 141.776 180.225 142.021C180.369 142.115 180.504 142.221 180.629 142.338C180.808 142.535 180.75 142.794 180.485 143.117C180.101 143.557 179.613 143.892 179.066 144.092C176.928 144.988 174.613 145.383 172.298 145.246C171.121 145.174 169.952 144.993 168.808 144.704C168.231 144.583 167.654 144.358 167.112 144.185L166.264 143.902L165.444 143.533C165.041 143.348 164.631 143.175 164.239 142.956L163.085 142.281L162.508 141.94L161.971 141.542L160.962 140.769C159.599 139.639 158.387 138.338 157.356 136.898L157.373 136.869Z" fill="#3B2C7D"/>
<path d="M160.287 144.808C156.56 153.566 152.995 162.392 149.4 171.208C148.702 172.939 151.489 173.671 152.181 171.975C155.683 163.391 159.15 154.794 162.779 146.262C163.5 144.571 161.014 143.1 160.287 144.808Z" fill="#3B2C7D"/>
<path d="M160.555 145.708C162.949 147.006 165.747 147.081 168.407 147.058C170.265 147.058 170.265 144.173 168.407 144.173C166.284 144.173 163.93 144.254 162.009 143.215C160.376 142.327 158.922 144.819 160.555 145.708Z" fill="#3B2C7D"/>
<path d="M143.872 145.039C142.806 143.239 141.392 141.67 139.712 140.423C137.07 138.537 130.608 135.6 126.005 139.091C121.401 142.581 123.858 147.427 130.735 146.994C135.152 146.625 139.539 145.971 143.872 145.039Z" fill="#3B2C7D"/>
<g opacity="0.3">
<path d="M93.9372 177.467C97.7795 178.898 101.899 179.717 105.897 180.588C109.629 181.396 113.46 182.319 117.279 182.561C119.137 182.677 119.126 179.792 117.279 179.677C113.489 179.434 109.664 178.465 105.966 177.652C102.268 176.838 98.3276 176.031 94.7045 174.686C92.9737 174.04 92.2064 176.827 93.9372 177.467Z" fill="#3B2C7D"/>
</g>
<g opacity="0.3">
<path d="M200.262 172.5C200.331 172.413 200.475 172.315 200.521 172.223C200.302 172.384 200.268 172.419 200.412 172.327C200.556 172.234 200.51 172.269 200.25 172.384L200.418 172.338C200.591 172.304 200.527 172.309 200.221 172.338C200.637 172.298 199.927 172.257 200.175 172.338C200.337 172.39 200.279 172.367 199.996 172.257C200.141 172.344 200.089 172.304 199.852 172.131C199.968 172.252 199.939 172.2 199.754 171.975C199.835 172.125 199.823 172.067 199.702 171.813C199.726 171.871 199.743 171.931 199.754 171.992C199.725 171.715 199.719 171.675 199.754 171.859C199.754 171.94 199.754 172.021 199.754 172.096C199.789 171.848 199.789 171.813 199.754 171.981C199.719 172.148 199.719 172.107 199.818 171.836C199.725 171.981 199.766 171.929 199.944 171.681C200.039 171.574 200.155 171.491 200.286 171.436C200.417 171.381 200.559 171.356 200.7 171.363C200.458 171.363 201.173 171.502 200.793 171.363C201.069 171.49 201.133 171.513 200.977 171.438C200.931 171.409 200.885 171.386 200.839 171.352C201.058 171.531 201.104 171.565 200.971 171.456L200.844 171.334C200.977 171.542 200.527 171.046 200.844 171.334C200.891 171.577 200.608 170.977 200.844 171.334C200.844 171.634 200.723 170.896 200.844 171.334C200.819 170.91 200.633 170.511 200.324 170.219C200.014 169.928 199.605 169.765 199.18 169.765C198.755 169.765 198.346 169.928 198.036 170.219C197.727 170.511 197.541 170.91 197.516 171.334C197.55 171.96 197.744 172.566 198.08 173.095C198.415 173.624 198.88 174.059 199.431 174.357C199.748 174.542 200.103 174.653 200.469 174.681C200.835 174.71 201.202 174.655 201.544 174.521C201.886 174.388 202.193 174.178 202.442 173.909C202.692 173.64 202.877 173.318 202.985 172.967C203.223 172.311 203.224 171.593 202.989 170.936C202.754 170.279 202.298 169.724 201.698 169.367C201.084 169.063 200.385 168.976 199.715 169.12C199.044 169.263 198.442 169.629 198.006 170.157C197.709 170.478 197.544 170.898 197.544 171.334C197.544 171.771 197.709 172.191 198.006 172.511C198.583 173.088 199.777 173.238 200.354 172.511L200.262 172.5Z" fill="#3B2C7D"/>
</g>
<g opacity="0.3">
<path d="M222.519 165.946C222.519 165.883 222.554 165.813 222.566 165.75C222.606 165.531 222.525 165.831 222.502 165.894C222.502 165.848 222.687 165.6 222.502 165.854C222.317 166.107 222.612 165.813 222.364 165.992C222.283 166.044 222.116 166.171 222.364 165.992C222.542 165.911 221.977 166.136 222.156 166.073C222.335 166.009 222.196 166.171 221.948 166.073C221.983 166.073 222.046 166.073 222.087 166.073C222.283 166.073 221.642 165.946 221.983 166.073C222.185 166.148 221.781 165.986 221.775 165.986C222.012 166.148 221.769 165.986 221.775 165.986C221.435 165.715 221.989 166.263 221.717 165.929C221.539 165.715 221.642 165.842 221.677 165.929C221.712 166.015 221.527 165.496 221.596 165.761C221.596 165.732 221.596 165.323 221.567 165.542C221.539 165.761 221.567 165.352 221.602 165.34C221.637 165.329 221.429 165.79 221.602 165.392C221.481 165.646 221.787 165.184 221.666 165.306C221.544 165.427 221.96 165.104 221.804 165.196C221.924 165.128 222.058 165.088 222.196 165.081C222.029 165.081 222.658 165.167 222.375 165.081C222.092 164.994 222.531 165.144 222.554 165.161C222.369 165.057 222.669 165.265 222.698 165.288L222.583 165.173C222.612 165.202 222.814 165.496 222.704 165.306C222.756 165.398 222.842 165.686 222.767 165.421C222.692 165.156 222.819 165.796 222.802 165.582C222.785 165.369 222.716 166.009 222.802 165.669C222.92 165.244 222.864 164.789 222.646 164.405C222.429 164.021 222.068 163.739 221.642 163.621C221.217 163.503 220.762 163.559 220.378 163.777C219.994 163.994 219.712 164.355 219.594 164.781C219.489 165.148 219.458 165.532 219.505 165.912C219.552 166.291 219.675 166.657 219.867 166.987C220.059 167.317 220.315 167.605 220.622 167.834C220.928 168.063 221.277 168.227 221.648 168.317C222.052 168.391 222.466 168.373 222.862 168.265C223.257 168.157 223.624 167.962 223.934 167.695C224.244 167.427 224.491 167.093 224.655 166.718C224.82 166.342 224.898 165.935 224.885 165.525C224.867 164.832 224.594 164.171 224.119 163.667C223.643 163.164 222.998 162.853 222.308 162.796C221.618 162.739 220.931 162.939 220.379 163.357C219.827 163.776 219.449 164.383 219.317 165.063C219.2 165.489 219.257 165.943 219.475 166.327C219.693 166.71 220.055 166.991 220.48 167.108C220.905 167.226 221.36 167.169 221.743 166.951C222.127 166.733 222.408 166.371 222.525 165.946H222.519Z" fill="#3B2C7D"/>
</g>
<path d="M217.257 176.908C215.618 177.358 213.974 177.764 212.324 178.125C211.747 178.258 211.17 178.465 210.536 178.575C208.407 179.008 206.255 179.273 204.126 179.573C203.18 179.712 202.245 179.896 201.322 180.098C200.152 180.414 198.954 180.617 197.745 180.704C197.364 180.704 197.312 180.231 197.532 179.706C197.65 179.4 197.837 179.125 198.076 178.902C198.316 178.678 198.603 178.511 198.916 178.414C201.314 177.821 203.745 177.374 206.197 177.075C206.941 176.977 207.679 176.836 208.407 176.654C209.139 176.475 209.866 176.262 210.605 176.077C212.214 175.685 213.824 175.292 215.411 174.825C216.391 174.542 217.372 174.248 218.33 173.902C219.062 173.66 219.784 173.389 220.505 173.106C221.225 172.836 221.93 172.528 222.616 172.183C223.65 171.621 224.65 170.999 225.611 170.319C225.824 170.169 226.02 170.002 226.239 169.864C227.053 169.362 227.393 169.367 227.97 169.864C228.1 169.97 228.223 170.083 228.339 170.204C228.703 170.619 228.582 171.208 228.028 171.715C226.407 173.29 224.301 174.317 222.178 175.235C220.586 175.887 218.941 176.435 217.303 176.965L217.257 176.908Z" fill="#3B2C7D"/>
<path d="M205.872 107.308C202.243 111.069 203.974 118.269 205.081 122.781C205.526 124.581 208.306 123.819 207.862 122.013C207.055 118.731 205.226 112.136 207.914 109.321C209.201 107.983 207.164 105.94 205.872 107.285V107.308Z" fill="#3B2C7D"/>
<path opacity="0.2" d="M34.6641 135.456C34.6641 135.456 69.8564 123.404 71.8641 122.152C73.8718 120.9 81.0198 129.917 81.0198 129.917L91.4045 155.983C91.4045 155.983 39.4756 139.137 34.6641 135.456Z" fill="#3B2C7D"/>
<path opacity="0.2" d="M94.9034 115.344H98.3649L127.851 122.844L129.807 135.15C129.807 135.15 122.642 137.458 122.071 142.229C121.494 147.329 125.296 148.217 128.417 148.575L127.898 152.181C127.898 152.181 123.975 157.31 123.317 160.788L122.659 164.25L106.978 159.023L94.3438 124.737L94.9034 115.344Z" fill="#3B2C7D"/>
<path opacity="0.2" d="M135.379 125.042L151.152 129.658C151.152 129.658 153.24 138.312 157.971 142.223L149.998 161.96C149.099 160.194 148.083 158.491 146.958 156.86C145.59 154.887 143.6 152.204 143.6 152.204L142.498 147.929C142.498 147.929 147.114 147.577 147.494 144.467C148.152 138.998 142.539 134.377 137.185 133.794L135.379 125.042Z" fill="#3B2C7D"/>
<path opacity="0.2" d="M162.863 173.14C162.863 173.14 171.852 147.998 172.388 147.64C172.925 147.283 181.354 148.073 187.694 139.396L195.575 142.229L191.236 168.663C191.236 168.663 176.115 176.798 173.034 176.077C169.954 175.356 162.863 173.14 162.863 173.14Z" fill="#3B2C7D"/>
<path opacity="0.2" d="M225.52 149.648L227.118 156.963L236.839 153.029L225.52 149.648Z" fill="#3B2C7D"/>
<path d="M27.8581 179.186L28.0312 174.063C28.0889 172.333 28.1581 170.648 28.2562 168.94C28.3139 167.694 28.3197 166.448 28.4004 165.202C28.6966 160.806 29.037 156.417 29.4216 152.036C29.5889 150.092 29.7331 148.136 29.8658 146.204C30.085 143.729 30.0735 141.208 30.7543 138.779C30.9504 138.023 31.285 138.167 31.6485 138.865C31.8817 139.321 32.0747 139.796 32.2254 140.285C32.3741 140.923 32.4189 141.582 32.3581 142.235C31.9485 147.265 31.5735 152.29 31.0658 157.367C30.7543 160.402 30.7658 163.581 30.6504 166.696C30.5197 170.131 30.3889 173.563 30.2581 176.994L30.0389 183.34C29.9523 186.548 29.8312 189.767 29.7966 192.946C29.7966 195.421 29.8658 197.85 29.8831 200.302C29.8831 200.838 29.8831 201.363 29.8831 201.911C29.7908 203.925 29.612 204.56 29.1043 204.975C28.9978 205.076 28.8819 205.167 28.7581 205.246C28.3773 205.425 28.0831 204.594 27.9562 203.117C27.8812 202.027 27.7716 200.919 27.737 199.8C27.7023 198.681 27.6793 197.55 27.6677 196.413C27.6331 194.14 27.6677 191.838 27.6677 189.525C27.6966 186.092 27.7716 182.642 27.8293 179.198L27.8581 179.186Z" fill="#3B2C7D"/>
<path d="M114.196 237.116C106.961 235.269 99.7383 233.373 92.5268 231.427C89.896 230.717 87.2537 230.066 84.6345 229.316C75.4037 226.679 66.2018 223.858 57.121 220.662C53.0826 219.248 49.0441 217.812 45.1037 216.225C42.571 215.204 40.0441 214.137 37.6037 212.885C35.0797 211.677 32.747 210.104 30.6806 208.217C29.5268 206.856 29.9883 206.827 31.3845 207.358C31.8043 207.489 32.2164 207.643 32.6191 207.819C33.0922 207.992 33.5883 208.217 34.1537 208.442C35.2556 208.927 36.571 209.429 37.8979 210.173C42.7784 212.639 47.8029 214.808 52.9441 216.669C58.1076 218.596 63.3287 220.402 68.6249 222.173C74.9422 224.296 81.6633 226.073 88.2402 227.891C95.4672 229.894 102.721 231.833 110.002 233.706C114.479 234.86 118.961 235.996 123.45 237.116C130.246 238.806 137.071 240.508 143.838 242.123C149.094 243.381 154.275 244.494 159.479 245.787C160.633 246.069 161.746 246.335 162.9 246.652C164.425 247.03 165.916 247.531 167.359 248.152C168.047 248.42 168.659 248.852 169.142 249.41C169.31 249.588 169.46 249.781 169.592 249.987C169.829 250.466 168.081 250.166 164.977 249.41C160.39 248.227 155.613 247.142 150.779 246L136.125 242.539C128.821 240.808 121.488 239.002 114.202 237.185L114.196 237.116Z" fill="#3B2C7D"/>
<path d="M173.768 207.294C173.768 210.917 173.806 214.542 173.883 218.169C173.883 219.496 174.027 220.811 174.056 222.138C174.143 226.8 174.172 231.479 174.316 236.152C174.374 238.223 174.506 240.306 174.645 242.359C174.818 245.002 175.124 247.644 174.887 250.333C174.818 251.169 174.224 251.048 173.624 250.333C172.839 249.353 172.379 248.153 172.308 246.9C171.956 241.552 171.616 236.158 171.633 230.706C171.633 227.44 171.299 224.065 171.201 220.731C171.085 217.067 171.022 213.398 170.97 209.729C170.97 207.473 170.97 205.211 170.929 202.956C170.929 199.534 170.981 196.102 170.981 192.704C170.981 191.383 170.981 190.073 170.918 188.769C170.854 187.465 170.918 186.156 170.947 184.846C170.947 184.269 170.947 183.692 170.999 183.115C171.252 180.963 171.483 180.294 172.152 179.89C172.271 179.794 172.394 179.703 172.522 179.619C172.822 179.44 173.352 180.369 173.439 181.927C173.624 184.234 173.71 186.623 173.779 189.029C173.849 191.434 173.779 193.869 173.779 196.315C173.779 198.133 173.779 199.956 173.779 201.779C173.779 203.602 173.779 205.436 173.826 207.259L173.768 207.294Z" fill="#3B2C7D"/>
<path d="M116.902 165L95.256 159.289C92.6253 158.585 89.9714 157.967 87.3464 157.252C78.0868 154.708 68.856 152.06 59.6541 149.175C55.6157 147.883 51.4734 146.66 47.458 145.304C44.8791 144.421 42.2657 143.539 39.7387 142.465C39.1041 142.206 38.4695 141.889 37.8407 141.623C37.2118 141.358 36.6118 140.965 36.0118 140.585C34.7365 139.859 33.5965 138.919 32.6426 137.804C32.4111 137.511 32.2529 137.167 32.181 136.8C32.1464 136.552 32.181 136.437 32.2791 136.419C32.4868 136.385 32.856 136.742 33.433 137.06C34.2998 137.462 35.1992 137.79 36.1214 138.04C36.6983 138.214 37.3157 138.375 37.9676 138.565C38.3022 138.652 38.631 138.767 38.983 138.854C39.3349 138.94 39.6695 139.114 40.0157 139.258C42.4964 140.273 45.0868 141.167 47.683 142.039C50.2791 142.91 52.8753 143.815 55.5176 144.652L59.4464 145.95L63.4041 147.208C66.0407 148.073 68.7003 148.875 71.3541 149.735C77.7003 151.742 84.4618 153.387 91.0618 155.135L112.858 160.864L126.346 164.348C133.131 166.079 139.933 167.896 146.677 169.592C151.921 170.919 157.096 172.073 162.289 173.389C163.443 173.677 164.556 173.937 165.704 174.248C167.225 174.611 168.71 175.111 170.141 175.742C170.53 175.921 170.901 176.137 171.248 176.389C171.503 176.601 171.73 176.845 171.923 177.115C172.091 177.308 172.247 177.51 172.391 177.721C172.668 178.24 170.758 178.367 167.625 177.664C158.343 175.517 148.587 173.094 138.779 170.631L116.896 165.098L116.902 165Z" fill="#3B2C7D"/>
<path d="M68.075 123.825L59.6577 127.039C58.6365 127.437 57.6442 127.898 56.6173 128.285C53.0058 129.641 49.3654 130.939 45.7308 132.266C44.1212 132.842 42.5289 133.517 40.9481 134.141C38.9337 135.029 36.8423 135.732 34.7 136.241C34.0192 136.379 33.9442 135.825 34.3135 135.087C34.8299 134.158 35.6423 133.429 36.6212 133.016C40.6596 131.285 44.8365 129.75 49.1 128.348C51.6558 127.512 54.1769 126.317 56.7212 125.285L65.1269 121.91L70.3192 119.827C72.9269 118.766 75.5577 117.727 78.1135 116.596C80.1039 115.719 82.0019 114.739 83.9519 113.827C84.3727 113.609 84.8061 113.416 85.25 113.25C86.9346 112.673 87.5577 112.673 88.0942 113.025C88.2231 113.094 88.3448 113.175 88.4577 113.267C88.7577 113.562 88.2212 114.167 87.1308 114.894L85.9077 115.708C85.4981 115.979 85.0596 116.187 84.6269 116.429C83.7615 116.896 82.8962 117.358 81.9846 117.802C80.2077 118.725 78.3558 119.533 76.4923 120.346C73.7231 121.552 70.9192 122.706 68.1212 123.86L68.075 123.825Z" fill="#3B2C7D"/>
<path d="M235.517 155.729C234.761 155.983 233.999 156.242 233.244 156.519C232.967 156.623 232.719 156.779 232.436 156.877C231.449 157.206 230.451 157.523 229.453 157.835C229.016 157.984 228.588 158.161 228.173 158.365C227.663 158.68 227.089 158.877 226.494 158.942C226.107 158.942 225.917 157.102 226.494 156.819C227.545 156.303 228.655 155.915 229.799 155.665C230.497 155.453 231.173 155.175 231.819 154.835L234.074 153.935L235.476 153.392C236.18 153.11 236.913 152.867 237.599 152.544C238.136 152.302 238.615 151.933 239.146 151.633C239.253 151.554 239.367 151.484 239.486 151.425C239.942 151.229 240.144 151.333 240.421 151.921C240.484 152.054 240.559 152.181 240.611 152.319C240.706 152.504 240.743 152.714 240.715 152.921C240.687 153.127 240.596 153.32 240.455 153.473C239.635 154.108 238.718 154.605 237.738 154.944C237.017 155.244 236.267 155.521 235.523 155.804L235.517 155.729Z" fill="#3B2C7D"/>
<path d="M185.854 173.59L182.588 174.808C182.19 174.958 181.827 175.177 181.435 175.315C180.021 175.823 178.596 176.296 177.165 176.763C176.531 176.971 175.919 177.242 175.308 177.502C174.547 177.925 173.709 178.194 172.844 178.292C172.562 178.292 172.458 177.779 172.515 177.208C172.573 176.636 172.781 176.054 173.208 175.852C174.75 175.172 176.341 174.608 177.967 174.167C178.958 173.843 179.923 173.441 180.852 172.967L184.088 171.658L186.085 170.838C187.083 170.417 188.11 170.025 189.085 169.552C189.84 169.183 190.521 168.675 191.26 168.242C191.421 168.15 191.571 168.029 191.738 167.948C192.379 167.648 192.65 167.735 193.031 168.358C193.117 168.502 193.215 168.635 193.29 168.785C193.413 169.002 193.455 169.256 193.41 169.502C193.364 169.747 193.234 169.969 193.042 170.129C191.818 171.027 190.484 171.766 189.073 172.327C188.017 172.788 186.933 173.21 185.854 173.66V173.59Z" fill="#3B2C7D"/>
<path d="M240.709 197.071C240.709 191.821 240.616 186.571 240.53 181.321C240.489 179.406 240.368 177.496 240.339 175.552C240.218 168.808 240.08 162.052 239.82 155.319L239.78 154.2C239.78 153.969 239.78 153.917 239.78 153.825C239.774 153.733 239.774 153.64 239.78 153.548C239.814 153.427 239.67 153.444 239.601 153.404L239.341 153.317L238.401 152.994C236.987 152.509 235.568 152.036 234.155 151.586C230.52 150.433 226.845 149.388 223.234 148.177C222.08 147.796 222.357 147.444 223.441 147.288C225.172 147.111 226.921 147.246 228.605 147.686C232.412 148.648 236.186 149.721 239.924 150.906L240.022 150.934L240.189 150.998L240.518 151.119L241.176 151.367L241.828 151.615L242.157 151.736C242.157 151.84 242.157 151.961 242.197 152.077C242.249 152.533 242.289 153 242.318 153.473L242.382 154.373C242.451 155.354 242.537 156.334 242.555 157.315C242.624 159.283 242.664 161.244 242.682 163.217C242.722 167.931 243.091 172.823 243.259 177.64C243.443 182.931 243.559 188.227 243.662 193.523C243.714 196.783 243.766 200.048 243.818 203.302C243.876 208.24 243.939 213.202 243.997 218.1C244.066 221.913 244.286 225.652 244.378 229.436C244.378 230.267 244.424 231.086 244.418 231.929C244.464 233.042 244.357 234.156 244.101 235.24C243.951 235.809 243.608 236.309 243.132 236.654C242.953 236.804 242.76 236.935 242.555 237.046C242.237 237.173 241.978 236.908 241.753 236.336C241.454 235.512 241.305 234.64 241.314 233.763C241.02 227.094 240.922 220.027 240.859 212.931C240.789 207.652 240.778 202.35 240.674 197.054L240.709 197.071Z" fill="#3B2C7D"/>
<path d="M197.677 129.957L198.069 127.8C198.098 127.632 198.144 127.419 198.161 127.28L198.196 126.923C198.213 126.617 198.213 126.311 198.196 126.006C198.104 124.69 197.838 123.242 197.619 121.8C197.046 118.847 196.683 115.856 196.535 112.852C196.496 111.721 196.515 110.588 196.592 109.459C196.685 108.312 196.878 107.175 197.169 106.061C197.674 104.027 198.62 102.129 199.938 100.5C200.642 99.6661 201.478 98.9546 202.413 98.394C203.352 97.8222 204.389 97.4309 205.471 97.2401C206.533 97.0478 207.619 97.0342 208.685 97.1997C209.761 97.3769 210.793 97.7588 211.725 98.3247C213.495 99.4589 214.898 101.082 215.763 102.998C217.198 106.198 217.915 109.674 217.863 113.18C217.901 117.577 217.029 121.933 215.302 125.977C214.725 127.217 214.385 126.865 214.304 125.648C214.241 123.76 214.374 121.871 214.702 120.011C215.044 117.968 215.208 115.898 215.192 113.827C215.205 112.798 215.163 111.77 215.065 110.746C214.975 109.738 214.813 108.737 214.581 107.752C214.193 105.842 213.407 104.035 212.273 102.45C211.765 101.718 211.112 101.099 210.355 100.631C209.598 100.162 208.752 99.8546 207.871 99.7267C206.763 99.6012 205.641 99.7437 204.6 100.142C203.55 100.582 202.631 101.283 201.929 102.179C200.446 104.007 199.673 106.505 199.333 108.992C199.012 111.825 199.086 114.689 199.552 117.502C199.754 118.944 199.996 120.386 200.244 121.857C200.531 123.361 200.723 124.882 200.821 126.409C200.821 126.669 200.821 126.911 200.821 127.188C200.821 127.465 200.769 127.765 200.723 127.967L200.475 129.311L199.973 132.005L198.946 137.377C197.908 142.794 196.794 148.223 195.854 153.611C195.127 157.806 194.585 161.942 194.048 166.102C193.938 167.013 193.846 167.913 193.713 168.836C193.258 172.252 192.963 173.319 192.208 173.971C192.056 174.135 191.886 174.28 191.7 174.404C191.158 174.68 190.892 173.221 191.071 170.671C191.613 163.107 192.958 155.256 194.383 147.415C195.444 141.594 196.604 135.773 197.636 129.957H197.677Z" fill="#3B2C7D"/>
<path d="M223.065 149.533C222.488 147.877 221.911 146.227 221.334 144.583C221.109 144.006 220.821 143.429 220.596 142.812C219.8 140.694 218.998 138.577 218.155 136.465C217.769 135.537 217.365 134.608 216.95 133.702C216.358 132.557 215.869 131.362 215.49 130.131C215.386 129.739 215.761 129.64 216.252 129.79C216.875 129.993 217.397 130.427 217.711 131.002C218.288 132.156 218.865 133.31 219.442 134.521C220.019 135.733 220.429 136.956 220.861 138.208C221.375 139.714 222.13 141.173 222.754 142.673C223.434 144.317 224.075 145.979 224.704 147.652C225.084 148.679 225.465 149.712 225.829 150.75C226.405 152.319 226.867 153.923 227.398 155.492C227.611 156.098 227.813 156.704 228.044 157.304C228.275 157.904 228.488 158.51 228.667 159.127C228.748 159.398 228.857 159.664 228.921 159.94C229.088 161.002 228.99 161.365 228.534 161.671C228.437 161.748 228.332 161.815 228.223 161.873C227.865 162.023 227.467 161.665 227.155 160.973C226.244 158.937 225.575 156.739 224.802 154.523C224.217 152.869 223.64 151.214 223.071 149.556L223.065 149.533Z" fill="#3B2C7D"/>
<path d="M149.489 107.014C148.504 106.69 147.512 106.379 146.512 106.079C146.149 105.975 145.774 105.912 145.41 105.802L141.562 104.573C140.985 104.394 140.408 104.256 139.831 104.123C139.099 103.927 138.302 103.91 137.668 103.362C137.477 103.171 137.564 102.981 137.852 102.715C137.995 102.539 138.178 102.399 138.386 102.306C138.593 102.214 138.82 102.172 139.047 102.185C140.552 102.534 142.029 102.995 143.466 103.564C144.368 103.874 145.287 104.136 146.218 104.348C147.227 104.637 148.237 104.925 149.247 105.254L151.11 105.831C152.051 106.119 152.985 106.448 153.926 106.725C154.652 106.944 155.397 107.077 156.135 107.302C156.297 107.348 156.464 107.371 156.62 107.429C156.841 107.481 157.042 107.598 157.197 107.764C157.286 107.923 157.322 108.107 157.301 108.289C157.301 108.381 157.301 108.473 157.301 108.56C157.283 108.631 157.249 108.698 157.2 108.754C157.152 108.81 157.092 108.854 157.024 108.883C156.848 108.981 156.645 109.018 156.447 108.987C155.108 108.736 153.788 108.397 152.495 107.971C151.502 107.683 150.51 107.36 149.506 107.071L149.489 107.014Z" fill="#3B2C7D"/>
<path d="M101.163 73.1598L125.769 80.6598L134.757 83.3425L166.344 93.1155C171.017 94.5578 175.73 95.9713 180.38 97.3559L189.357 100.021C190.852 100.471 192.346 100.933 193.823 101.435L196.044 102.185C196.782 102.444 197.498 102.762 198.242 103.044C200.071 103.823 199.69 103.944 198.017 103.806C196.857 103.732 195.701 103.595 194.555 103.396C192.956 103.118 191.375 102.746 189.819 102.283C177.64 98.6021 165.461 94.9155 153.248 90.9694C145.944 88.6098 138.248 86.4001 130.748 84.1271L105.94 76.6271L90.6632 72.0578C86.8093 70.904 82.9382 69.7501 79.0728 68.6771L76.1882 67.8578C75.2593 67.6675 74.3132 67.2809 73.4766 67.4598C72.5893 67.622 71.7622 68.0206 71.0824 68.6136C70.3755 69.2249 69.7886 69.9625 69.3516 70.7886C69.029 71.4309 68.7887 72.1112 68.6363 72.8136C68.5125 73.5089 68.4949 74.2189 68.5843 74.9194C68.7912 76.37 69.2439 77.7747 69.9228 79.0732C70.5016 80.3131 71.5341 81.2837 72.8074 81.7848L77.2093 83.1001L81.0747 84.254C83.4863 85.004 85.067 85.5174 86.1459 85.9848C86.9084 86.2852 87.622 86.6974 88.2632 87.2078C88.4661 87.3646 88.6588 87.5342 88.8401 87.7155C89.0247 87.9463 88.6036 87.9751 87.6863 87.8482C86.2911 87.6439 84.9126 87.3393 83.5613 86.9367C80.9151 86.1905 78.2401 85.4213 75.5363 84.629L73.5055 84.0521L72.4843 83.7463C72.0855 83.6309 71.699 83.4763 71.3305 83.2848C69.8624 82.4362 68.7041 81.1404 68.0247 79.5867C67.355 78.1621 66.9112 76.642 66.7093 75.0809C66.6109 74.2314 66.6401 73.3718 66.7959 72.5309C66.9641 71.7089 67.2375 70.9119 67.6093 70.1598C67.9811 69.4075 68.4526 68.7089 69.0113 68.0828C69.5771 67.433 70.2432 66.8779 70.9843 66.4386C71.7712 65.9614 72.6538 65.664 73.569 65.5675C74.4335 65.534 75.297 65.6551 76.119 65.9251C76.7363 66.0636 77.1978 66.2136 77.7343 66.3578L79.3036 66.7905C80.3497 67.079 81.392 67.3751 82.4305 67.679L88.667 69.4905L101.117 73.1713L101.163 73.1598Z" fill="#3B2C7D"/>
<path d="M63.113 82.973C62.67 81.5032 62.1521 80.0571 61.5611 78.6403C61.2678 77.852 61.0155 77.049 60.8053 76.2345C60.6034 75.3634 60.4765 74.6249 60.3265 73.823C60.113 72.6692 59.8592 71.5153 59.7496 70.298C59.6494 69.2202 59.6301 68.1364 59.6919 67.0557C59.7727 65.941 59.9977 64.8415 60.3611 63.7845C61.1399 61.6224 62.6972 59.8286 64.7284 58.7538C65.6268 58.2343 66.6311 57.9245 67.666 57.8476C68.701 57.7706 69.74 57.9286 70.7053 58.3095C71.8854 58.7867 72.9642 59.4836 73.8842 60.3634C74.3355 60.7799 74.7469 61.2377 75.113 61.7307C75.4609 62.2261 75.7714 62.7468 76.0419 63.2884C76.3534 63.9807 75.9496 64.1019 75.1996 63.8653C74.7425 63.7319 74.2969 63.5621 73.8669 63.3576C73.6088 63.243 73.3583 63.1119 73.1169 62.9653C72.8795 62.8001 72.6522 62.621 72.4361 62.4288C71.7161 61.7476 70.8899 61.1884 69.9899 60.773C69.5894 60.5963 69.1691 60.4685 68.738 60.3922C68.5361 60.3576 68.3284 60.3403 68.1265 60.3115C67.9246 60.2826 67.7111 60.3115 67.5034 60.3115C66.5872 60.4361 65.7177 60.7914 64.9765 61.3442C64.1499 61.8958 63.4466 62.6128 62.9111 63.4499C62.2631 64.5671 61.9042 65.8282 61.8669 67.1192C61.8149 68.5017 61.9057 69.886 62.138 71.2499C62.2592 72.0172 62.3919 72.7788 62.5476 73.5576L62.7842 74.7115C62.8707 75.0865 62.9342 75.4442 63.0438 75.8076C63.5075 77.3032 64.0467 78.7743 64.6592 80.2153C65.0454 81.176 65.3409 82.1707 65.5419 83.1865C65.7418 84.2427 65.7633 85.325 65.6053 86.3884C65.4566 87.1527 65.264 87.9078 65.0284 88.6499L64.4111 90.8019C63.9957 92.2384 63.5803 93.6865 63.188 95.0884C62.6111 97.3096 62.1092 99.5192 61.5669 101.729C61.4457 102.213 61.3419 102.692 61.2034 103.177C60.6957 104.977 60.2919 105.485 59.6342 105.698C59.489 105.76 59.3383 105.808 59.1842 105.842C58.7169 105.888 58.5726 105.046 58.7688 103.679C59.5744 99.5478 60.5872 95.4599 61.8034 91.4307C62.2303 89.9076 62.6803 88.3557 63.0726 86.873C63.4198 85.5747 63.4059 84.2063 63.0323 82.9153L63.113 82.973Z" fill="#3B2C7D"/>
<path d="M147.581 127.76C146.761 127.489 145.942 127.183 145.106 126.912C144.806 126.814 144.488 126.767 144.182 126.669C143.115 126.3 142.031 125.96 140.957 125.579C140.484 125.417 139.994 125.291 139.509 125.169C138.876 125.043 138.262 124.838 137.681 124.558C137.496 124.46 137.588 124.235 137.813 124.033C138.074 123.788 138.419 123.653 138.777 123.658C139.429 123.721 140.069 123.796 140.704 123.917C141.35 124.018 141.982 124.19 142.59 124.431C143.356 124.671 144.137 124.864 144.927 125.008C145.784 125.223 146.644 125.454 147.506 125.7L149.075 126.185C149.871 126.427 150.661 126.721 151.457 126.935C152.081 127.108 152.727 127.166 153.356 127.339C153.494 127.373 153.632 127.391 153.771 127.437C153.883 127.466 153.983 127.528 154.059 127.616C154.127 127.675 154.182 127.748 154.221 127.829C154.289 128.002 154.303 128.191 154.261 128.371C154.261 128.469 154.261 128.573 154.215 128.666C154.152 128.831 154.04 128.974 153.896 129.077C153.751 129.18 153.579 129.237 153.402 129.242C152.82 129.26 152.239 129.203 151.671 129.075C151.094 128.942 150.569 128.775 150.021 128.608C149.202 128.36 148.382 128.077 147.546 127.829L147.581 127.76Z" fill="#3B2C7D"/>
<path d="M114.806 118.558C113.358 118.085 111.922 117.589 110.456 117.139C109.92 116.977 109.377 116.868 108.841 116.7L103.199 114.969C102.368 114.71 101.514 114.496 100.672 114.283C99.5799 114.04 98.5077 113.716 97.464 113.314C97.1409 113.181 97.2447 112.962 97.5967 112.789C98.0893 112.564 98.6371 112.49 99.1717 112.575C100.291 112.76 101.41 112.956 102.518 113.198C103.64 113.421 104.746 113.718 105.829 114.087C107.133 114.525 108.541 114.768 109.902 115.125C111.395 115.51 112.883 115.929 114.368 116.383L117.097 117.225C118.476 117.646 119.849 118.114 121.227 118.512C122.295 118.812 123.379 119.014 124.447 119.302C124.683 119.366 124.914 119.412 125.151 119.487C125.337 119.537 125.514 119.617 125.676 119.723C125.792 119.799 125.9 119.886 125.999 119.983C126.142 120.142 126.226 120.346 126.235 120.56C126.243 120.667 126.243 120.775 126.235 120.883C126.235 121.206 125.762 121.368 125.081 121.362C124.58 121.328 124.083 121.257 123.593 121.148C123.102 121.05 122.606 120.964 122.116 120.825C121.141 120.571 120.16 120.248 119.174 119.966C117.714 119.521 116.254 119.037 114.783 118.604L114.806 118.558Z" fill="#3B2C7D"/>
<path d="M207.996 109.656C207.82 108.964 207.413 108.354 206.842 107.925C206.725 107.855 206.596 107.806 206.461 107.781C206.307 107.77 206.151 107.782 206 107.815C205.867 107.825 205.737 107.862 205.619 107.925C205.5 107.999 205.394 108.092 205.307 108.202C204.977 108.701 204.751 109.263 204.644 109.852C204.367 111.054 204.224 112.282 204.217 113.515C204.177 114.775 204.262 116.035 204.471 117.277C204.661 118.382 204.968 119.463 205.388 120.502C205.647 121.142 205.972 121.753 206.357 122.325C206.699 122.865 207.104 123.363 207.563 123.808C207.846 124.056 207.707 124.385 207.142 124.535C206.723 124.603 206.294 124.556 205.9 124.399C205.506 124.243 205.162 123.983 204.904 123.646C203.979 122.271 203.327 120.732 202.982 119.112C202.798 118.333 202.665 117.589 202.55 116.804C202.463 116.009 202.43 115.209 202.452 114.41C202.452 113.469 202.486 112.512 202.556 111.525C202.604 110.517 202.785 109.521 203.092 108.56C203.289 107.972 203.594 107.426 203.992 106.95C204.229 106.682 204.513 106.46 204.829 106.292C205.138 106.148 205.466 106.049 205.804 105.998C206.476 105.905 207.162 106.009 207.777 106.298C208.329 106.607 208.806 107.034 209.173 107.55C209.921 108.699 210.418 109.992 210.632 111.346C210.95 113.289 211.035 115.262 210.886 117.225C210.864 118.765 210.631 120.295 210.194 121.771C210.087 122.116 209.952 122.452 209.79 122.775C209.575 123.262 209.209 123.667 208.746 123.929C208.601 124.001 208.441 124.038 208.279 124.039C208.128 124.02 207.983 123.971 207.852 123.894C207.738 123.841 207.631 123.773 207.534 123.692C207.402 123.56 207.413 123.358 207.436 123.115C207.452 122.987 207.477 122.86 207.511 122.735C207.557 122.619 207.598 122.458 207.661 122.302C208.062 121.229 208.316 120.108 208.417 118.967C208.597 117.718 208.691 116.457 208.7 115.194C208.738 113.345 208.483 111.501 207.944 109.731L207.996 109.656Z" fill="#3B2C7D"/>
<path d="M218.076 174.744C216.161 175.287 214.245 175.783 212.307 176.256C211.609 176.429 210.934 176.677 210.23 176.833C207.761 177.41 205.262 177.854 202.782 178.333C201.68 178.546 200.589 178.812 199.505 179.077C198.117 179.501 196.684 179.762 195.236 179.856C194.734 179.856 194.803 179.371 195.097 178.846C195.267 178.53 195.499 178.251 195.778 178.025C196.058 177.799 196.379 177.631 196.724 177.531C199.505 176.827 202.309 176.135 205.193 175.65C206.053 175.5 206.924 175.275 207.778 175.073C208.632 174.871 209.509 174.566 210.362 174.346C212.255 173.833 214.147 173.331 216.022 172.771L217.753 172.246L219.484 171.669C221.205 171.108 222.888 170.434 224.52 169.65C224.826 169.483 225.097 169.31 225.414 169.131C225.701 168.968 225.976 168.787 226.239 168.589C226.686 168.246 227.05 167.808 227.307 167.308C227.397 167.107 227.47 166.898 227.526 166.685C227.751 165.9 227.866 165.583 228.593 165.364C228.755 165.312 228.916 165.242 229.078 165.208C229.597 165.092 230.122 165.548 230.111 166.644C230.078 167.503 229.828 168.338 229.384 169.073C228.924 169.812 228.302 170.437 227.566 170.902C227.382 171.029 227.232 171.11 227.082 171.196L226.626 171.45L225.709 171.941C225.086 172.252 224.457 172.517 223.828 172.794C222.887 173.192 221.936 173.527 220.984 173.873C220.032 174.219 219.074 174.514 218.099 174.802L218.076 174.744Z" fill="#3B2C7D"/>
<path d="M221.539 242.141C218.579 242.954 215.625 243.819 212.66 244.708C211.581 245.037 210.525 245.441 209.441 245.752C205.61 246.854 201.756 247.91 197.862 248.839L192.669 250.131C191.562 250.379 190.46 250.65 189.346 250.887C188.222 251.091 187.084 251.219 185.942 251.267C185.233 251.267 185.25 250.691 185.752 249.987C186.415 249.11 187.375 248.505 188.452 248.285L191.741 247.535C192.837 247.292 193.927 246.958 195.029 246.739L201.727 245.192C204.416 244.616 207.098 243.56 209.804 242.706C212.762 241.76 215.737 240.831 218.729 239.919L221.492 239.094L224.267 238.304C225.664 237.883 227.094 237.548 228.502 237.15C229.91 236.752 231.346 236.469 232.748 236.094C233.85 235.846 234.929 235.552 236.014 235.246C237.098 234.941 238.194 234.716 239.291 234.462C239.77 234.329 240.258 234.225 240.75 234.15C241.133 234.095 241.518 234.058 241.904 234.041C242.179 234.039 242.453 234.076 242.717 234.15C242.917 234.205 243.103 234.3 243.264 234.43C243.425 234.56 243.557 234.722 243.652 234.906C243.767 235.068 243.867 235.24 243.952 235.419C244.166 235.996 243.473 236.619 242.221 237.023C238.448 237.987 234.491 238.754 230.498 239.798C229.016 240.156 227.533 240.566 226.044 240.952C224.556 241.339 223.067 241.76 221.585 242.21L221.539 242.141Z" fill="#3B2C7D"/>
<path d="M243.97 223.846C243.97 223.846 263.995 224.665 269.931 230.769C276.087 237.115 259.287 242.919 236.112 247.783C195.047 256.437 186.652 250.09 186.652 250.09L242.758 235.385L243.97 223.846Z" fill="#3B2C7D"/>
<path d="M175.21 145.794C174.504 145.949 173.789 146.061 173.07 146.129C172.347 146.207 171.621 146.241 170.895 146.233C166.511 146.161 162.314 144.448 159.131 141.433C157.593 140.039 156.279 138.416 155.237 136.621C153.473 133.457 152.484 129.92 152.352 126.3C152.283 124.506 152.432 122.71 152.797 120.952C153.144 119.196 153.706 117.489 154.47 115.869C155.168 114.443 156.006 113.09 156.973 111.831C157.945 110.587 159.022 109.429 160.193 108.369C161.694 107.005 163.365 105.842 165.166 104.908C165.622 104.69 166.09 104.497 166.568 104.331C167.047 104.158 167.543 104.025 168.033 103.875C168.523 103.725 169.031 103.656 169.539 103.581C169.796 103.557 170.054 103.547 170.312 103.552H170.698C170.825 103.552 170.952 103.552 171.085 103.552C172.366 103.604 172.141 103.887 171.16 104.308C170.179 104.729 168.593 105.704 166.775 106.69C163.409 108.321 160.489 110.744 158.266 113.752C157.154 115.24 156.269 116.885 155.641 118.633C154.996 120.41 154.589 122.264 154.429 124.148C154.079 128.84 155.463 133.498 158.318 137.239C159.076 138.265 159.947 139.204 160.914 140.037C161.87 140.874 162.926 141.591 164.058 142.171C165.182 142.763 166.379 143.203 167.618 143.481L168.079 143.59L168.547 143.66C168.864 143.706 169.175 143.764 169.493 143.798C170.126 143.853 170.761 143.87 171.397 143.85C174.579 143.716 177.676 142.788 180.408 141.15C182.457 139.872 184.223 138.189 185.6 136.206C187.344 133.691 188.527 130.831 189.069 127.818C189.61 124.806 189.498 121.713 188.739 118.748C188.641 118.362 188.508 117.992 188.398 117.594C188.289 117.196 188.127 116.862 187.995 116.487C187.47 115.114 187.008 114.277 186.789 113.602C186.69 113.319 186.628 113.024 186.604 112.725C186.566 112.486 186.566 112.243 186.604 112.004C186.625 111.788 186.662 111.574 186.714 111.364C186.829 111.081 187.158 111.133 187.695 111.49C188.468 112.055 189.106 112.784 189.564 113.625C191.45 116.968 192.335 120.783 192.114 124.615C191.941 128.506 190.858 132.302 188.952 135.698C187.524 138.277 185.57 140.527 183.218 142.304C182.029 143.179 180.744 143.915 179.387 144.496C178.741 144.808 178.037 145.021 177.368 145.287C176.698 145.552 175.972 145.725 175.256 145.864L175.21 145.794Z" fill="#3B2C7D"/>
<path d="M181.637 121.938L180.864 123.767L179.866 126.011L179.537 126.421L179.353 126.652C179.278 126.652 179.278 126.721 179.226 126.732L179.087 126.796C178.901 126.861 178.707 126.897 178.51 126.906C178.067 126.902 177.627 126.828 177.206 126.686L176.935 126.6L176.762 126.536L176.428 126.409L175.77 126.138L174.489 125.561C173.647 125.169 172.805 124.788 171.98 124.407C171.247 124.044 170.491 123.732 169.747 123.427C168.76 123.095 167.814 122.654 166.926 122.111C166.66 121.927 166.856 121.534 167.272 121.281C167.502 121.114 167.766 120.999 168.045 120.945C168.324 120.892 168.612 120.9 168.887 120.969C170.901 121.588 172.849 122.403 174.703 123.404C175.258 123.701 175.837 123.952 176.433 124.154C176.733 124.257 177.01 124.356 177.333 124.442L177.778 124.575C177.851 124.605 177.929 124.619 178.008 124.615C178.072 124.581 178.083 124.5 178.13 124.436L178.193 124.321C178.231 124.254 178.264 124.185 178.291 124.113L178.58 123.438C178.77 122.982 178.955 122.527 179.156 122.065C179.48 121.252 179.797 120.432 180.103 119.602C180.576 118.35 181.072 117.086 181.58 115.846C181.77 115.356 181.949 114.865 182.122 114.375C182.277 113.876 182.47 113.39 182.699 112.921C182.796 112.711 182.906 112.506 183.028 112.309C183.123 112.153 183.231 112.004 183.351 111.865C183.456 111.773 183.575 111.697 183.703 111.64C183.883 111.556 184.081 111.521 184.28 111.536C184.372 111.536 184.464 111.536 184.539 111.565C184.614 111.594 184.724 111.715 184.758 111.917C184.789 112.183 184.789 112.453 184.758 112.719C184.655 113.169 184.533 113.602 184.441 114.052C184.395 114.273 184.334 114.491 184.256 114.704L184.043 115.35L183.166 117.981L181.643 121.961L181.637 121.938Z" fill="#3B2C7D"/>
<path d="M167.837 114.733C168.258 114.011 168.674 113.279 169.066 112.535C169.21 112.269 169.291 111.958 169.435 111.698C169.962 110.74 170.485 109.779 171.005 108.813C171.228 108.387 171.421 107.946 171.581 107.492C171.748 106.89 172.026 106.325 172.401 105.825C172.539 105.675 172.908 105.86 173.237 106.177C173.566 106.494 173.855 106.933 173.768 107.273C173.492 108.508 172.992 109.681 172.291 110.735C171.904 111.411 171.576 112.119 171.31 112.852C170.941 113.625 170.549 114.392 170.156 115.16L169.418 116.567C169.049 117.283 168.645 117.986 168.264 118.696C168.126 118.979 168.004 119.273 167.895 119.556C167.797 119.855 167.668 120.143 167.508 120.415C167.447 120.537 167.377 120.655 167.301 120.767C167.231 120.856 167.151 120.937 167.064 121.01C166.982 121.061 166.889 121.09 166.793 121.096C166.622 121.122 166.448 121.104 166.285 121.044C166.205 121.044 166.124 120.998 166.06 120.969C166.001 120.939 165.948 120.896 165.905 120.845C165.863 120.793 165.831 120.733 165.812 120.669C165.739 120.484 165.691 120.29 165.668 120.092C165.774 118.983 166.085 117.903 166.585 116.908L167.739 114.704L167.837 114.733Z" fill="#3B2C7D"/>
<path d="M152.362 158.988L154.422 154.257C154.67 153.681 154.849 153.104 155.097 152.527L157.768 146.452C158.161 145.552 158.489 144.623 158.807 143.706C159.151 142.497 159.666 141.343 160.336 140.279C160.537 139.938 160.786 140.071 160.999 140.486C161.121 140.757 161.227 141.034 161.316 141.317C161.375 141.492 161.42 141.671 161.449 141.854C161.459 142.034 161.444 142.214 161.403 142.39C161.259 143.019 161.12 143.654 160.947 144.271C160.774 144.888 160.532 145.482 160.307 146.082C159.874 147.297 159.359 148.48 158.766 149.625C158.062 151.004 157.612 152.544 157.036 154.009L155.045 158.815L153.816 161.769C153.211 163.269 152.559 164.757 152.016 166.263C151.601 167.417 151.312 168.634 150.972 169.823C150.891 170.082 150.839 170.348 150.753 170.607C150.662 170.963 150.488 171.291 150.245 171.565C150.026 171.735 149.748 171.812 149.472 171.779C149.326 171.788 149.18 171.788 149.034 171.779C148.918 171.759 148.809 171.709 148.719 171.634C148.629 171.559 148.56 171.462 148.52 171.352C148.396 171.056 148.366 170.73 148.434 170.417C148.883 168.169 149.539 165.967 150.395 163.84C150.972 162.219 151.676 160.615 152.328 159.011L152.362 158.988Z" fill="#3B2C7D"/>
<path d="M163.05 161.965C163.627 160.471 164.232 158.971 164.78 157.46C164.982 156.883 165.127 156.335 165.357 155.787C166.102 153.848 166.805 151.898 167.573 149.954C167.907 149.094 168.184 148.223 168.467 147.335C168.767 146.168 169.254 145.057 169.909 144.046C170.129 143.729 170.342 143.902 170.486 144.312C170.578 144.556 170.644 144.809 170.682 145.067C170.74 145.382 170.74 145.705 170.682 146.019C170.619 146.302 170.59 146.596 170.504 146.89L170.255 147.744L169.748 149.475C169.409 150.63 168.999 151.763 168.519 152.867C167.942 154.2 167.579 155.671 167.094 157.073C166.563 158.614 166.004 160.148 165.432 161.689L164.377 164.515C163.84 165.94 163.252 167.348 162.738 168.773C162.352 169.881 162.046 171 161.7 172.119C161.619 172.362 161.555 172.61 161.463 172.852C161.1 173.74 160.8 173.942 160.252 173.931C160.131 173.94 160.009 173.94 159.888 173.931C159.536 173.879 159.311 173.354 159.438 172.662C159.91 170.579 160.533 168.533 161.302 166.54C161.827 165.017 162.421 163.512 162.986 161.994L163.05 161.965Z" fill="#3B2C7D"/>
<path d="M124.73 157.379L126.23 154.69C126.403 154.367 126.525 154.015 126.698 153.698C126.998 153.121 127.309 152.596 127.569 152.065C127.621 151.938 127.684 151.806 127.736 151.679L127.857 151.304L128.065 150.323C128.18 149.746 128.296 149.169 128.348 148.592C128.382 148.252 128.376 147.9 128.394 147.536C128.447 147.163 128.537 146.795 128.665 146.44C128.751 146.215 129.028 146.25 129.357 146.44C129.76 146.668 130.074 147.026 130.246 147.456C130.318 148.258 130.291 149.066 130.165 149.861C130.119 150.225 130.044 150.583 129.969 150.946L129.848 151.523C129.784 151.748 129.715 152.002 129.634 152.221C129.219 153.213 128.913 154.125 128.48 154.973L126.986 157.673C126.686 158.221 126.409 158.775 126.126 159.334C125.703 160.173 125.34 161.04 125.042 161.931C124.859 162.622 124.742 163.329 124.69 164.042L124.644 164.504C124.557 165.081 124.401 165.225 123.784 165.242C123.657 165.242 123.53 165.242 123.415 165.242C123.206 165.229 123.008 165.139 122.862 164.988C122.716 164.838 122.631 164.638 122.625 164.429C122.587 162.993 122.853 161.566 123.403 160.24C123.778 159.242 124.246 158.284 124.701 157.356L124.73 157.379Z" fill="#3B2C7D"/>
<path d="M194.671 140.948C194.267 140.787 193.852 140.631 193.43 140.492C193.275 140.44 193.113 140.44 192.957 140.383C192.415 140.175 191.873 139.944 191.342 139.731C191.106 139.64 190.865 139.563 190.621 139.5C190.296 139.459 189.988 139.334 189.727 139.137C189.646 139.062 189.727 138.802 189.911 138.56C190.096 138.317 190.309 138.064 190.488 138.075C190.794 138.096 191.098 138.134 191.4 138.19C191.699 138.267 191.989 138.375 192.265 138.514C192.625 138.64 193.003 138.712 193.384 138.727C193.8 138.796 194.227 138.889 194.653 138.969L195.444 139.137C195.842 139.227 196.244 139.295 196.65 139.339C196.979 139.319 197.307 139.275 197.63 139.206C197.703 139.189 197.776 139.178 197.85 139.171C198.115 139.171 198.167 139.344 198.092 139.956C198.092 140.094 198.063 140.233 198.046 140.371C198.038 140.549 197.993 140.723 197.915 140.883C197.837 141.043 197.726 141.185 197.59 141.3C197.315 141.431 197.017 141.503 196.713 141.514C196.434 141.498 196.157 141.452 195.888 141.375C195.484 141.277 195.08 141.127 194.665 141.006L194.671 140.948Z" fill="#3B2C7D"/>
<path d="M127.083 116.365L126.633 112.425L126.397 110.458C126.39 110.418 126.39 110.377 126.397 110.337C126.402 110.32 126.402 110.302 126.397 110.285C126.397 110.285 126.31 110.1 126.241 109.962L125.791 109.079C125.352 108.213 124.85 107.388 124.418 106.523L122.145 101.948L121.747 101.158C121.664 101.008 121.591 100.854 121.527 100.696L121.683 100.2L122.15 98.775L122.941 96.3461C123.408 94.9096 123.806 93.4615 124.181 91.9904L124.637 90.2596L124.787 89.6827C124.787 89.5558 124.92 89.5961 125 89.5673L125.272 89.5269C125.456 89.4981 125.635 89.4635 125.849 89.4461L126.425 89.4115L127.302 89.3711H128.041C128.534 89.3653 129.026 89.4059 129.512 89.4923C130.118 89.7288 130.025 90.0115 129.512 90.6461C128.897 91.4068 128.017 91.9058 127.049 92.0423C126.875 92.0423 126.927 92.0423 126.922 92.0423C126.93 92.0121 126.93 91.9802 126.922 91.95L126.881 92.1L126.772 92.4519C126.487 93.3942 126.195 94.3346 125.895 95.2731C125.595 96.2115 125.274 97.1461 124.931 98.0769L124.424 99.4731L124.164 100.171C124.164 100.217 124.112 100.315 124.106 100.321L124.077 100.356L124.02 100.437C123.985 100.471 124.02 100.506 124.02 100.546V100.604C124.02 100.604 124.02 100.604 124.066 100.719L124.458 101.533C124.729 102.069 125.035 102.612 125.295 103.148C125.872 104.221 126.448 105.288 127.025 106.373L127.931 108.156L128.387 109.044L128.543 109.35L128.635 109.529C128.653 109.595 128.664 109.663 128.67 109.731L128.75 110.342L129.218 114.323C129.402 115.962 129.593 117.594 129.795 119.227C130.083 121.702 130.32 124.194 130.62 126.652C130.862 128.562 131.197 130.425 131.445 132.329C131.497 132.75 131.572 133.16 131.606 133.587C131.639 133.922 131.639 134.26 131.606 134.596C131.594 134.834 131.548 135.07 131.468 135.294C131.367 135.603 131.164 135.868 130.891 136.044C130.788 136.127 130.676 136.196 130.556 136.252C130.377 136.321 130.216 136.188 130.043 135.912C129.815 135.523 129.653 135.1 129.564 134.66C128.952 131.388 128.497 127.858 128.052 124.315L127.066 116.388L127.083 116.365Z" fill="#3B2C7D"/>
<path d="M133.108 117.894L132.439 110.769L132.364 110.123L132.26 109.39C132.206 109.202 132.206 109.002 132.26 108.814L132.381 108.363L132.554 107.735L134.862 100.292L134.787 100.027L134.602 99.4962C134.164 98.2097 133.627 96.952 133.16 95.6885C132.854 94.8808 132.502 94.0904 132.22 93.2712C131.937 92.452 131.712 91.6097 131.481 90.7847C131.343 90.2943 131.614 90.2077 132.139 90.4673C132.879 90.8862 133.505 91.4806 133.962 92.1981C134.309 92.7871 134.621 93.3958 134.897 94.0212C135.185 94.6404 135.468 95.2577 135.745 95.8731C136.016 96.4962 136.224 97.1481 136.454 97.7827L136.783 98.752L136.95 99.2423L137.268 100.148L136.956 101.187L136.749 101.763L136.322 102.963C135.952 103.967 135.647 105.017 135.364 106.073L134.937 107.665L134.724 108.456L134.614 108.854L134.556 109.05V109.114L135.22 116.037C135.358 117.514 135.499 118.987 135.641 120.456C135.86 122.688 136.05 124.933 136.31 127.142C136.518 128.873 136.841 130.529 137.077 132.237C137.129 132.617 137.204 132.981 137.239 133.362C137.372 134.781 137.239 135.277 136.627 135.589C136.504 135.664 136.375 135.73 136.241 135.785C135.814 135.9 135.393 135.363 135.214 134.377C134.637 131.417 134.21 128.233 133.847 125.031C133.593 122.65 133.337 120.263 133.079 117.871L133.108 117.894Z" fill="#3B2C7D"/>
<path d="M125.261 147.825C124.353 147.443 123.559 146.835 122.953 146.059C122.306 145.217 121.966 144.179 121.989 143.117C122.021 142.205 122.241 141.309 122.636 140.486C122.989 139.74 123.437 139.042 123.968 138.409C124.343 137.951 124.754 137.522 125.197 137.129C125.411 136.934 125.639 136.755 125.878 136.592L126.57 136.108C128.247 135.101 130.105 134.434 132.039 134.146C133.948 133.869 135.893 133.971 137.762 134.446C139.394 134.867 140.951 135.539 142.378 136.436C142.829 136.733 143.264 137.052 143.682 137.394C144.068 137.769 144.466 138.133 144.836 138.548L145.326 139.183L145.77 139.846C146.023 140.313 146.252 140.792 146.457 141.283C146.705 141.888 146.341 141.975 145.672 141.784C145.275 141.662 144.889 141.505 144.518 141.317C144.045 141.13 143.603 140.872 143.209 140.55C142.536 139.96 141.825 139.417 141.08 138.923C140.726 138.666 140.351 138.439 139.961 138.242C139.591 138.022 139.205 137.829 138.807 137.665C137.142 137.002 135.359 136.69 133.568 136.748C132.441 136.796 131.328 137.026 130.274 137.429C129.224 137.861 128.23 138.419 127.314 139.09C126.375 139.785 125.627 140.706 125.139 141.767C124.918 142.238 124.804 142.752 124.805 143.273C124.81 143.726 124.973 144.163 125.266 144.508C125.719 145.002 126.303 145.359 126.951 145.534C127.702 145.759 128.476 145.896 129.259 145.944C131.762 146.044 134.269 145.856 136.73 145.384C138.68 145.044 140.561 144.502 142.534 144.098C142.966 144.011 143.393 143.902 143.843 143.838C144.446 143.709 145.069 143.709 145.672 143.838C145.851 143.906 146.015 144.008 146.154 144.14C146.292 144.272 146.403 144.43 146.48 144.606C146.555 144.738 146.619 144.877 146.67 145.021C146.728 145.229 146.572 145.408 146.295 145.633C145.949 145.934 145.525 146.134 145.072 146.209C143.457 146.561 141.72 147.006 139.932 147.363C138.143 147.721 136.286 148.09 134.382 148.333C132.933 148.539 131.472 148.651 130.009 148.667C128.377 148.708 126.753 148.441 125.22 147.883L125.261 147.825Z" fill="#3B2C7D"/>
<path d="M145.134 159.548C144.47 158.504 143.738 157.483 142.976 156.456C142.699 156.081 142.37 155.752 142.093 155.359C141.58 154.661 141.118 153.926 140.709 153.161L140.415 152.515C140.321 152.278 140.242 152.035 140.178 151.788C140.103 151.529 140.097 151.367 140.051 151.148L139.947 150.536C139.809 149.815 139.647 149.083 139.503 148.356C139.405 147.888 139.307 147.421 139.238 146.959C139.192 146.486 139.192 146.008 139.238 145.534C139.272 145.234 139.555 145.229 139.924 145.419C140.388 145.658 140.767 146.035 141.009 146.498C141.251 147.421 141.447 148.286 141.678 149.186C141.788 149.636 141.874 150.104 141.961 150.571L142.018 150.923C142.018 151.044 142.059 151.171 142.076 151.223C142.102 151.392 142.145 151.558 142.203 151.719C142.286 151.957 142.399 152.184 142.538 152.394C142.682 152.628 142.84 152.854 143.011 153.069L144.067 154.431C144.834 155.458 145.613 156.519 146.374 157.604C146.836 158.273 147.263 158.965 147.69 159.658C148.001 160.194 148.318 160.725 148.584 161.284C148.849 161.844 149.126 162.398 149.392 162.958C149.824 163.821 150.209 164.707 150.545 165.611C150.635 165.808 150.705 166.013 150.753 166.223C150.909 167.019 150.822 167.296 150.251 167.521C150.14 167.575 150.027 167.623 149.911 167.665C149.69 167.7 149.464 167.655 149.272 167.539C149.081 167.423 148.937 167.243 148.867 167.031C148.255 165.606 147.713 164.146 146.945 162.733C146.387 161.647 145.765 160.595 145.082 159.583L145.134 159.548Z" fill="#3B2C7D"/>
<path d="M81.4674 128.019C80.6712 127.206 79.8751 126.386 79.0616 125.579C78.7616 125.285 78.427 125.036 78.1327 124.736C77.1058 123.675 76.1424 122.544 75.1385 121.454C74.6885 120.969 74.2154 120.513 73.7539 120.052C73.123 119.498 72.5717 118.859 72.1154 118.154C71.9827 117.917 72.2597 117.715 72.6924 117.629C72.9181 117.57 73.1538 117.56 73.3836 117.6C73.6135 117.64 73.8321 117.728 74.0251 117.86C74.6654 118.396 75.3289 118.91 75.9231 119.498C76.5174 120.086 77.077 120.686 77.6539 121.338C78.3116 122.117 79.1943 122.723 79.9616 123.45L82.4481 125.838L83.9828 127.321C84.7616 128.06 85.5174 128.844 86.3193 129.548C86.9366 130.125 87.652 130.546 88.2981 131.077C88.4366 131.198 88.5924 131.296 88.7251 131.429C89.1981 131.919 89.2212 132.202 88.8924 132.704C88.8231 132.813 88.7597 132.929 88.6847 133.027C88.5357 133.188 88.3357 133.294 88.1182 133.325C87.9008 133.357 87.6791 133.312 87.4904 133.2C86.189 132.445 84.9971 131.515 83.9481 130.436L81.427 128.077L81.4674 128.019Z" fill="#3B2C7D"/>
<path d="M79.5717 113.325C82.8314 112.287 86.1025 111.375 89.339 110.366C90.4929 110.002 91.6467 109.575 92.8467 109.212C94.9064 108.537 96.9602 107.839 98.9621 107.042C99.4698 106.852 99.9544 106.633 100.451 106.425C100.947 106.217 101.553 105.912 101.645 105.883L101.726 105.848V105.75V105.56C101.726 105.491 101.726 105.133 101.726 104.891C101.726 104.36 101.726 103.823 101.679 103.287C101.548 101.374 101.303 99.4706 100.947 97.5867C100.456 95.1925 100.041 92.7348 99.3544 90.4444C99.1064 89.804 99.314 89.7117 99.8564 90.2136C100.612 91.0798 101.171 92.0993 101.495 93.2021C102.238 95.6533 102.776 98.1619 103.104 100.702C103.278 101.977 103.41 103.258 103.462 104.573V105.069C103.472 105.262 103.472 105.454 103.462 105.646L103.428 106.483V106.898C103.31 106.978 103.184 107.046 103.053 107.1L102.274 107.481L101.806 107.694C101.512 107.833 101.229 107.948 100.906 108.069C98.0217 109.223 95.0794 110.417 92.1198 111.427C88.866 112.517 85.5833 113.516 82.3121 114.548C80.2987 115.171 78.3314 115.823 76.3352 116.533C73.325 117.494 70.3885 118.672 67.5487 120.058C65.4436 121.168 63.5021 122.564 61.7794 124.206C61.3987 124.552 61.0698 124.944 60.6948 125.308C60.3198 125.671 60.1179 125.948 59.8525 126.179C59.5871 126.41 59.3737 126.566 59.189 126.704C58.8979 126.93 58.5422 127.058 58.1737 127.067C58.0277 127.079 57.8811 127.079 57.7352 127.067C57.5275 127.027 57.4929 126.802 57.6083 126.421C57.6832 126.182 57.7758 125.949 57.8852 125.723C58.0277 125.413 58.2037 125.119 58.4102 124.846C59.8503 123.012 61.5647 121.41 63.4929 120.098C65.4769 118.783 67.5921 117.677 69.8044 116.798C71.4198 116.123 73.0525 115.529 74.6794 114.958L77.1025 114.11L79.566 113.279L79.5717 113.325Z" fill="#3B2C7D"/>
<path d="M62.7259 105.11C63.5101 103.572 64.4108 102.096 65.4201 100.696L65.6451 100.425C65.7316 100.327 65.8528 100.211 65.9566 100.113C66.0508 100.016 66.1531 99.9276 66.2624 99.848L66.5624 99.6287C66.9432 99.3634 67.3239 99.1268 67.7162 98.9076C68.472 98.4749 69.2278 98.0884 69.9893 97.7134C71.097 97.171 72.1816 96.6057 73.3008 96.1211C77.2585 94.3903 81.2624 92.8903 85.3066 91.4653L90.6835 89.5614C91.8374 89.1634 92.9912 88.7595 94.1451 88.4076C95.3325 88.0263 96.5598 87.7824 97.8028 87.6807C98.2239 87.6807 98.4201 87.7903 98.3797 87.9345C98.3393 88.0787 98.1547 88.2576 97.8835 88.4711C97.021 89.1178 96.0582 89.6186 95.0335 89.9537C90.4182 91.448 85.8778 93.3461 81.1874 94.9326C78.3951 95.9191 75.597 97.2403 72.8682 98.5037C71.3739 99.2076 69.8682 99.9287 68.4951 100.754C68.3162 100.852 68.1547 100.961 67.9989 101.065C67.84 101.163 67.6878 101.271 67.5432 101.388C67.4189 101.482 67.3013 101.584 67.1912 101.694C67.0701 101.838 66.9489 101.988 66.8335 102.144C66.3623 102.79 65.9344 103.467 65.5528 104.169C65.0624 105.058 64.5893 105.981 64.0297 106.892C63.8682 107.267 63.4528 107.469 63.3085 107.631C63.1643 107.792 62.8758 107.954 62.6508 108.104C62.2066 108.41 61.7451 108.681 61.2893 108.946C59.8989 109.742 58.5028 110.388 57.2855 111.254C56.6973 111.631 56.1958 112.128 55.8143 112.713C55.4558 113.336 55.1877 114.006 55.0182 114.704C54.4412 116.931 54.522 119.29 54.5335 121.627C54.5335 122.152 54.5682 122.665 54.5335 123.196C54.5335 125.169 54.2739 125.827 53.6912 126.19C53.5691 126.284 53.4376 126.365 53.2989 126.433C52.8605 126.554 52.6182 125.763 52.5316 124.356C52.3874 122.168 52.3759 119.974 52.497 117.785C52.5621 116.592 52.7398 115.407 53.0278 114.248C53.3216 112.92 53.94 111.685 54.8278 110.654C55.0239 110.458 55.2316 110.25 55.4047 110.077C55.5778 109.904 55.7682 109.788 55.9816 109.656C56.3566 109.39 56.7316 109.136 57.1355 108.906C57.897 108.433 58.6643 108.035 59.3912 107.642C60.0931 107.275 60.7749 106.871 61.4335 106.431C61.5951 106.327 61.7451 106.217 61.8951 106.102C61.9734 106.051 62.0485 105.995 62.1201 105.935L62.2297 105.848L62.3682 105.623L62.6624 105.104L62.7259 105.11Z" fill="#3B2C7D"/>
<path d="M92.5891 122.596L92.8025 119.175C92.8025 118.759 92.8025 118.344 92.8025 117.929C92.9179 116.458 93.0045 114.981 93.1545 113.504C93.2122 112.846 93.2179 112.188 93.2237 111.536C93.1815 110.694 93.2435 109.849 93.4083 109.021C93.4718 108.761 93.7833 108.813 94.1006 109.021C94.2866 109.15 94.4441 109.316 94.5632 109.509C94.6823 109.701 94.7605 109.916 94.7929 110.14C94.9681 111.823 94.9932 113.518 94.8679 115.206C94.8045 116.251 94.8045 117.299 94.8679 118.344C94.8679 119.498 94.8275 120.652 94.7814 121.806L94.6949 123.946C94.6602 125.025 94.5737 126.109 94.5679 127.183C94.5679 128.025 94.6775 128.856 94.6429 129.692C94.6429 129.877 94.6429 130.056 94.5968 130.269C94.5703 130.416 94.5317 130.561 94.4814 130.702C94.4294 130.804 94.359 130.896 94.2737 130.973C94.1333 131.107 93.9569 131.197 93.766 131.233C93.6812 131.259 93.5944 131.278 93.5064 131.29C93.2468 131.325 92.9987 131.008 92.7506 130.5C92.3557 129.041 92.2287 127.522 92.3756 126.017L92.5141 122.596H92.5891Z" fill="#3B2C7D"/>
<path d="M89.3683 147.115C88.7914 145.506 88.2145 143.896 87.5683 142.298C87.3375 141.721 87.0606 141.144 86.8414 140.567C86.0625 138.508 85.2606 136.454 84.4587 134.4C84.0952 133.494 83.6856 132.6 83.2587 131.734C82.6911 130.626 82.1977 129.481 81.7818 128.308C81.6606 127.938 81.8568 127.881 82.2375 128.042C82.8035 128.296 83.2929 128.694 83.6568 129.196C83.8414 129.469 84.0202 129.74 84.1933 130.009L84.4587 130.419L84.6837 130.846C84.9779 131.423 85.2606 132 85.5433 132.577C86.1092 133.735 86.5969 134.93 87.0029 136.154C87.4991 137.619 88.226 139.038 88.8202 140.515C89.4722 142.119 90.101 143.734 90.7299 145.35L91.8837 148.333C92.4606 149.833 93.0375 151.35 93.6722 152.821C94.1625 153.975 94.7625 155.042 95.2933 156.156C95.3972 156.404 95.5183 156.64 95.6164 156.9C95.7718 157.232 95.8544 157.594 95.8587 157.961C95.8545 158.077 95.827 158.191 95.7779 158.296C95.7182 158.402 95.6465 158.501 95.5645 158.59C95.4895 158.671 95.4375 158.763 95.3856 158.815C95.2587 158.971 94.6298 158.775 94.2318 158.146C93.926 157.673 93.6145 157.2 93.326 156.709C93.0375 156.219 92.8183 155.694 92.5818 155.175C92.1087 154.136 91.6587 153.063 91.226 151.99C90.5799 150.386 89.9741 148.765 89.3395 147.156L89.3683 147.115Z" fill="#3B2C7D"/>
<path d="M99.5586 138.237L101.561 143.815C101.809 144.49 102.137 145.148 102.351 145.823L103.603 149.435L104.803 153.064C105.149 154.137 105.599 155.181 105.957 156.242C106.488 157.586 106.922 158.967 107.255 160.373C107.347 160.812 107.064 160.852 106.643 160.598C106.057 160.224 105.585 159.695 105.282 159.069C104.705 157.737 103.989 156.439 103.505 155.031C103.02 153.623 102.495 152.279 102.045 150.865C101.514 149.181 100.759 147.502 100.107 145.817L98.0009 140.233L96.7086 136.771L94.7759 131.539C94.5221 130.864 94.2279 130.217 93.9625 129.554C93.6665 128.898 93.4084 128.226 93.1894 127.54C93.0808 127.238 92.9903 126.93 92.9183 126.617C92.6298 125.464 92.7971 124.944 93.2009 124.667C93.2878 124.598 93.3804 124.536 93.4779 124.483C93.7894 124.379 94.1356 124.789 94.4471 125.51C95.5433 127.69 96.4952 130.125 97.499 132.6C98.2433 134.423 98.8894 136.31 99.6106 138.167L99.5586 138.237Z" fill="#3B2C7D"/>
<path d="M110.331 84.0288C110.388 84.2884 110.417 84.5769 110.463 84.8481L110.556 85.4654L110.677 86.3307L110.913 88.0615L111.398 91.5231C111.519 92.3654 111.692 93.2019 111.808 94.0442L112.448 98.7865C112.457 98.9576 112.457 99.1289 112.448 99.3C112.448 99.3807 112.448 99.4673 112.448 99.5481C112.413 99.6254 112.364 99.6957 112.304 99.7557C112.04 99.9978 111.714 100.163 111.363 100.235C110.429 100.483 110.463 100.402 109.529 100.644L109.223 100.713H108.94H108.825H108.761C108.761 100.656 108.704 100.835 108.813 100.587H108.784L108.583 100.454C108.416 100.349 108.29 100.19 108.225 100.004L107.954 99.4269L107.1 97.6096L106.661 96.7096L106.465 96.3115L106.361 96.1154L106.229 95.873L105.79 96.1096L105.733 96.1384L105.606 96.1961L105.358 96.3173L104.85 96.5538C104.175 96.8666 103.481 97.1382 102.773 97.3673C101.758 97.6846 102.254 95.5096 104.031 94.6961L107.192 93.2769L108.346 95.8269L108.986 97.2577L109.563 98.6423C109.563 98.6884 109.563 98.8038 109.644 98.7865H109.679H109.794L110.267 98.7115C110.365 98.7115 110.365 98.7115 110.383 98.7115H110.567C110.688 98.7115 110.671 98.6192 110.671 98.5384C110.644 98.1922 110.6 97.8475 110.538 97.5057L110.319 96.1557C110.169 95.25 110.013 94.3442 109.881 93.4384L108.871 86.4577L108.733 85.4884L108.704 85.2288V85.0961V85.0269C108.704 85.0269 108.663 85.0269 108.652 85.0269C108.474 85.0165 108.296 85.0262 108.121 85.0557C107.84 85.1083 107.566 85.1895 107.302 85.2981C107.186 85.3557 107.013 85.4019 106.973 85.5461L106.869 86.1231L106.558 87.6923L106.292 89.3134C106.211 89.8904 106.131 90.4211 106.044 90.975L105.906 91.9731L105.161 92.2154L104.538 92.4288L103.517 92.7981L101.492 93.5365C101.146 93.6577 100.811 93.7961 100.459 93.9115C99.1499 94.3442 98.6941 94.35 98.2672 93.9634C98.1636 93.8855 98.0688 93.7965 97.9845 93.6981C97.7479 93.3692 98.1922 92.9077 99.1383 92.5096C100.084 92.1115 101.048 91.7307 102.023 91.3557L103.517 90.8365L104.279 90.5827L104.377 89.8904L104.602 88.3961L104.873 86.6654L105.011 85.7884L105.098 85.2461C105.134 84.9666 105.218 84.6953 105.346 84.4442C105.493 84.2114 105.69 84.0143 105.923 83.8673C106.155 83.7215 106.4 83.5978 106.656 83.4981C106.827 83.43 107.002 83.3722 107.181 83.325L107.44 83.2557L107.584 83.2211L107.798 83.175C108.344 83.0764 108.9 83.0454 109.454 83.0827H109.858H110.065C110.106 83.0827 110.106 83.1173 110.117 83.1461V83.2442L110.325 84.0057L110.331 84.0288Z" fill="#3B2C7D"/>
<path d="M75.8364 115.863C78.0287 115.131 80.3018 114.473 82.5171 113.821C83.3306 113.584 84.1267 113.296 84.9402 113.065C87.8248 112.257 90.6691 111.438 93.5075 110.573C94.7594 110.175 96.0056 109.725 97.2114 109.234C98.7575 108.582 100.315 107.977 101.873 107.365C102.363 107.186 102.409 107.417 102.133 107.85C101.686 108.51 101.094 109.059 100.402 109.454C98.8689 110.29 97.276 111.011 95.6364 111.611C94.0122 112.237 92.356 112.776 90.6748 113.227C88.6614 113.763 86.6364 114.525 84.6114 115.159C82.3844 115.857 80.1575 116.538 77.9652 117.288C76.6037 117.744 75.2364 118.194 73.8921 118.673C71.849 119.348 69.854 120.162 67.921 121.107C66.4888 121.869 65.136 122.772 63.8825 123.802L63.0691 124.482C62.861 124.663 62.6434 124.833 62.4171 124.99C62.25 125.094 62.072 125.179 61.8864 125.244C61.6166 125.345 61.3196 125.345 61.0498 125.244C60.9242 125.214 60.8009 125.176 60.6806 125.129C60.346 124.956 60.5248 124.321 61.1768 123.473C63.3229 121.211 66.2248 119.538 69.1729 118.281C71.3768 117.334 73.6268 116.584 75.8306 115.823L75.8364 115.863Z" fill="#3B2C7D"/>
<path d="M233.279 152.308L231.3 151.731C231.058 151.662 230.81 151.627 230.573 151.546L228.064 150.664C227.689 150.542 227.308 150.444 226.91 150.34C226.406 150.245 225.923 150.059 225.485 149.792C225.346 149.7 225.45 149.498 225.658 149.308C225.756 149.198 225.875 149.11 226.007 149.047C226.14 148.985 226.284 148.95 226.431 148.944C226.929 148.996 227.424 149.073 227.914 149.175C228.401 149.314 228.881 149.479 229.35 149.671C229.939 149.869 230.543 150.019 231.156 150.121C231.82 150.294 232.477 150.49 233.141 150.698C233.55 150.808 233.954 150.923 234.364 151.021C234.987 151.171 235.604 151.339 236.233 151.431C236.718 151.479 237.206 151.492 237.693 151.471C237.798 151.465 237.904 151.465 238.01 151.471C238.391 151.517 238.489 151.627 238.541 152.048C238.541 152.146 238.57 152.239 238.575 152.331C238.585 152.481 238.539 152.629 238.446 152.747C238.354 152.865 238.221 152.945 238.073 152.971C237.142 153.116 236.191 153.075 235.275 152.85C234.595 152.723 233.92 152.544 233.25 152.383L233.279 152.308Z" fill="#3B2C7D"/>
<path d="M119.998 176.671L120.425 176.348V176.383L120.471 176.446L120.557 176.579L120.73 176.844C120.73 177.133 120.765 177.45 120.771 177.756C120.528 178.523 120.286 179.308 120.136 179.971L119.951 180.79C119.905 181.005 119.845 181.217 119.773 181.425C119.61 181.988 119.367 182.524 119.051 183.017C118.936 183.162 118.838 183.312 118.705 183.45C118.573 183.589 118.428 183.715 118.284 183.842C117.992 184.056 117.674 184.233 117.338 184.367C117.194 184.433 117.043 184.483 116.888 184.517C116.744 184.558 116.597 184.59 116.45 184.615L116.051 184.667C115.908 184.686 115.764 184.698 115.619 184.702C115.157 184.698 114.697 184.663 114.24 184.598C113.825 184.546 113.421 184.483 113.023 184.419C111.869 184.229 110.715 184.085 109.561 183.842C105.58 183.006 101.657 182.014 97.7457 180.929L95.1899 180.242C94.3072 179.989 93.4592 179.752 92.5361 179.406C92.1226 179.257 91.7337 179.047 91.3822 178.783C91.2175 178.651 91.0902 178.477 91.013 178.281C90.9428 178.078 90.902 177.866 90.8919 177.652C90.8487 176.973 90.8622 176.292 90.9322 175.615C91.0555 174.476 91.2482 173.345 91.5092 172.229C91.5899 171.889 91.7399 171.79 91.9534 171.79C92.1004 171.825 92.2388 171.89 92.3599 171.98C92.4809 172.07 92.5822 172.184 92.6572 172.315C93.2842 173.23 93.6145 174.316 93.6034 175.425V176.267L93.5745 176.931C93.5745 176.994 93.5745 176.931 93.5745 176.965H93.6207L93.9784 177.104L94.7399 177.364C95.2649 177.531 95.8015 177.698 96.3438 177.854L103.001 179.74C105.749 180.45 108.534 181.007 111.344 181.408C112.111 181.529 112.878 181.65 113.651 181.748C114.032 181.8 114.407 181.84 114.771 181.875C115.082 181.905 115.395 181.905 115.705 181.875C115.932 181.856 116.155 181.8 116.363 181.708C116.488 181.621 116.579 181.495 116.623 181.35C116.729 181.071 116.805 180.781 116.848 180.485L116.957 179.954L117.032 179.642C117.084 179.429 117.148 179.21 117.223 178.979L117.286 178.806C117.286 178.748 117.35 178.679 117.286 178.679L116.963 178.581L116.265 178.396C115.786 178.31 115.313 178.206 114.84 178.096C111.955 177.456 109.071 176.729 106.221 176.129C103.982 175.662 101.738 175.425 99.4822 174.935C98.9861 174.831 98.4842 174.756 97.9822 174.612C97.2837 174.462 96.6333 174.141 96.0899 173.677C95.9212 173.487 95.7977 173.261 95.7288 173.016C95.6598 172.771 95.6472 172.514 95.6918 172.264C95.7008 172.008 95.7375 171.755 95.8015 171.508C95.8707 171.322 95.9808 171.154 96.1235 171.016C96.2663 170.878 96.4382 170.774 96.6265 170.712C97.1157 170.526 97.6471 170.48 98.1611 170.579C100.025 170.873 102.032 171.156 104.028 171.577C106.025 171.998 108.067 172.448 110.121 172.915L114.696 173.994L115.85 174.265L116.426 174.398L117.003 174.577L117.488 174.715C117.667 174.762 117.857 174.814 118.03 174.877L118.555 175.056C118.727 175.102 118.89 175.174 119.04 175.269L119.248 175.414L119.478 175.512C119.571 175.512 119.594 175.615 119.628 175.685L119.732 175.898L120.084 176.608L119.998 176.671Z" fill="#3B2C7D"/>
<path d="M200.664 171.11L200.301 171.617C200.255 171.681 200.226 171.75 200.18 171.814L199.689 172.465C199.617 172.562 199.551 172.665 199.493 172.771C199.435 172.916 199.341 173.045 199.222 173.146C199.141 173.204 198.807 172.817 198.893 172.673C199.045 172.41 199.225 172.165 199.43 171.94C199.548 171.793 199.649 171.633 199.73 171.462L200.064 170.931L200.278 170.602C200.376 170.435 200.491 170.273 200.589 170.1C200.687 169.927 200.705 169.817 200.762 169.673C200.773 169.641 200.787 169.61 200.803 169.581C200.866 169.471 200.93 169.465 201.074 169.535L201.172 169.581C201.221 169.604 201.262 169.641 201.289 169.687C201.317 169.733 201.33 169.787 201.328 169.84C201.274 170.11 201.168 170.367 201.016 170.596C200.912 170.769 200.791 170.942 200.682 171.115L200.664 171.11Z" fill="#3B2C7D"/>
<path d="M201.408 171.813L201.137 172.119L201.045 172.24C200.929 172.373 200.814 172.511 200.704 172.65C200.658 172.714 200.618 172.781 200.583 172.852C200.548 172.946 200.495 173.032 200.427 173.106C200.381 173.146 200.139 172.927 200.191 172.817C200.287 172.628 200.411 172.455 200.56 172.304C200.644 172.207 200.721 172.105 200.791 171.998L201.056 171.669L201.224 171.467C201.304 171.363 201.391 171.265 201.466 171.161C201.541 171.058 201.558 170.983 201.604 170.89C201.602 170.871 201.602 170.852 201.604 170.833C201.65 170.763 201.685 170.758 201.777 170.804L201.847 170.838C201.878 170.852 201.903 170.877 201.918 170.907C201.932 170.938 201.936 170.973 201.927 171.006C201.871 171.184 201.778 171.349 201.656 171.49L201.391 171.813H201.408Z" fill="#3B2C7D"/>
<path d="M222.172 165.756C222.092 165.836 222.005 165.917 221.924 166.01C221.844 166.102 221.884 166.085 221.855 166.119C221.826 166.154 221.624 166.35 221.52 166.471C221.475 166.526 221.44 166.588 221.417 166.656C221.376 166.742 221.37 166.852 221.255 166.886C221.14 166.921 220.678 166.477 220.713 166.396C220.797 166.23 220.924 166.091 221.082 165.992C221.186 165.929 221.22 165.813 221.29 165.721C221.359 165.629 221.457 165.519 221.549 165.421L221.711 165.248C221.792 165.15 221.89 165.075 221.965 164.983C222.04 164.89 222.063 164.81 222.12 164.735C222.131 164.715 222.144 164.697 222.161 164.683C222.219 164.631 222.27 164.648 222.38 164.752L222.455 164.827C222.521 164.891 222.56 164.977 222.565 165.069C222.555 165.23 222.499 165.384 222.403 165.513C222.337 165.602 222.266 165.687 222.19 165.767L222.172 165.756Z" fill="#3B2C7D"/>
<path d="M223.043 165.975L222.813 166.223C222.793 166.259 222.768 166.292 222.738 166.321L222.415 166.627C222.37 166.672 222.333 166.725 222.305 166.782C222.265 166.852 222.236 166.938 222.149 166.979C222.063 167.019 221.803 166.719 221.849 166.632C221.925 166.48 222.036 166.348 222.172 166.246C222.245 166.172 222.307 166.089 222.357 165.998C222.432 165.911 222.513 165.831 222.593 165.744L222.732 165.588C222.804 165.51 222.871 165.427 222.934 165.34C222.974 165.271 222.997 165.184 223.032 165.109V165.057C223.067 165.006 223.107 165.006 223.205 165.057L223.274 165.098C223.307 165.113 223.334 165.137 223.354 165.166C223.375 165.195 223.387 165.23 223.39 165.265C223.376 165.422 223.322 165.573 223.234 165.704C223.17 165.802 223.101 165.888 223.032 165.981L223.043 165.975Z" fill="#3B2C7D"/>
<path d="M81.5457 107.648C83.5014 107.071 85.4688 106.494 87.4361 105.964L89.5822 105.346C92.1034 104.648 94.6245 103.944 97.0822 103.085C98.1841 102.721 99.2572 102.265 100.325 101.833L102.332 100.898C102.996 100.569 103.648 100.223 104.323 99.9116C104.738 99.7154 104.738 99.8366 104.444 100.119C103.959 100.575 103.416 100.963 102.828 101.273C100.088 102.629 97.23 103.734 94.2899 104.573C92.5591 105.092 90.7188 105.652 88.9188 106.165C86.9457 106.742 84.9611 107.267 82.9995 107.862C81.788 108.214 80.588 108.606 79.388 109.015C78.488 109.339 77.5822 109.644 76.688 109.979C75.7937 110.314 74.9053 110.66 74.0457 111.058C73.3764 111.364 72.713 111.669 72.0611 111.992L70.1457 113.025C69.863 113.169 69.6034 113.342 69.3207 113.504C68.2938 114.115 67.9418 114.265 67.6303 114.248C67.5614 114.257 67.4915 114.257 67.4226 114.248C67.2553 114.202 67.6245 113.862 68.363 113.371C69.4877 112.63 70.6551 111.956 71.8591 111.352C73.1053 110.775 74.363 110.198 75.6668 109.69C77.5822 108.917 79.5553 108.283 81.5226 107.654L81.5457 107.648Z" fill="#3B2C7D"/>
<path d="M135.383 157.391L134.806 157.829C134.737 157.887 134.679 157.956 134.604 158.008L133.849 158.585C133.739 158.671 133.635 158.764 133.531 158.862C133.413 158.999 133.268 159.111 133.104 159.191C132.995 159.231 132.816 158.758 132.96 158.614C133.226 158.376 133.509 158.16 133.808 157.967C133.987 157.837 134.155 157.693 134.31 157.535L134.887 157.062L135.245 156.773C135.424 156.629 135.62 156.496 135.822 156.352C136.024 156.208 136.081 156.11 136.226 156L136.318 155.925C136.439 155.844 136.497 155.85 136.589 155.925L136.647 155.983C136.677 156.018 136.693 156.063 136.693 156.11C136.693 156.156 136.677 156.201 136.647 156.237C136.455 156.489 136.237 156.719 135.995 156.923C135.816 157.079 135.631 157.235 135.418 157.385L135.383 157.391Z" fill="#3B2C7D"/>
<path d="M137.795 158.163C137.5 158.383 137.218 158.608 136.912 158.838C136.808 158.925 136.716 159.023 136.612 159.109C136.242 159.411 135.89 159.732 135.556 160.073C135.412 160.226 135.277 160.388 135.152 160.558C135.01 160.785 134.85 161.001 134.674 161.204C134.552 161.325 134.304 160.915 134.477 160.627C134.8 160.146 135.188 159.713 135.631 159.34C135.891 159.115 136.127 158.85 136.387 158.619C136.647 158.388 136.964 158.117 137.264 157.881L137.841 157.454C138.118 157.234 138.418 157.027 138.683 156.808C138.949 156.588 139.081 156.438 139.26 156.259C139.306 156.219 139.347 156.173 139.393 156.138C139.56 155.994 139.641 155.983 139.774 156.075L139.86 156.138C139.947 156.219 139.935 156.352 139.825 156.479C139.488 156.845 139.117 157.179 138.718 157.477L137.829 158.163H137.795Z" fill="#3B2C7D"/>
<path d="M174.684 62.0652C176.987 62.7725 179.423 62.9322 181.799 62.5316C184.175 62.1309 186.424 61.181 188.368 59.7575C192.234 56.769 192.499 50.1979 187.601 47.8267C183.118 45.6517 179.316 51.0863 180.972 55.1075C182.495 58.7883 186.995 59.8556 190.584 59.371C193.173 59.0756 195.591 57.93 197.46 56.1135C199.328 54.2971 200.542 51.9123 200.91 49.3325C201.049 48.519 198.464 48.969 198.337 49.719C197.686 53.5729 195.453 57.4671 191.259 58.1363C188.045 58.6498 184.209 57.046 183.32 53.6998C183.023 52.6144 183.069 51.4636 183.453 50.4056C184.214 48.3575 186.095 49.1421 187.18 50.5498C188.449 52.2113 189.222 54.4498 188.541 56.5036C187.001 61.119 180.88 62.2267 176.778 60.9286C176.097 60.7152 173.766 61.771 174.684 62.0825V62.0652Z" fill="#3B2C7D"/>
<path d="M112.171 57.3057C109.546 58.1884 108.081 56.7288 107.959 54.1038C107.917 52.9268 108.097 51.7524 108.49 50.6423C108.65 50.2013 108.843 49.7731 109.067 49.3615C109.113 49.2692 109.367 49.0327 109.373 48.9288C109.373 48.3923 109.419 49.3211 109.079 48.8596C108.738 48.3981 109.148 49.1423 109.131 49.0904C109.258 49.3108 109.405 49.5193 109.569 49.7134C109.717 49.889 109.828 50.0921 109.896 50.311C109.964 50.5299 109.989 50.7601 109.967 50.9884C109.736 51.848 108.669 52.05 107.913 52.1423C104.948 52.3961 103.356 50.325 104.365 47.5269C104.677 46.6788 102.242 46.95 101.936 47.8154C100.748 51.0807 102.779 53.3077 106.056 53.5442C108.04 53.6884 112.24 53.0654 112.402 50.4231C112.575 47.9192 109.702 46.7711 107.856 48.0807C105.877 49.4884 105.311 52.7538 105.548 55.0038C105.9 58.8634 109.217 59.6827 112.511 58.5807C113.925 58.1077 113.619 56.8096 112.165 57.2942L112.171 57.3057Z" fill="#3B2C7D"/>
</svg>
