<svg width="300" height="300" viewBox="0 0 300 300" fill="none" xmlns="http://www.w3.org/2000/svg">
<path d="M123.528 171.923L123.257 174.231C123.257 174.231 110.732 174.098 109.711 173.85C109.711 173.844 122.738 173.077 123.528 171.923Z" fill="#3B2C7D"/>
<path d="M73.2682 206.539C75.0913 198.058 76.6894 189.519 78.3336 180.981C78.9394 177.86 79.4874 174.733 80.1913 171.623C80.7735 168.853 81.4995 166.114 82.3663 163.419C82.6014 162.727 82.8729 162.047 83.1797 161.383C83.4997 160.633 83.9554 159.948 84.524 159.364L84.8009 159.121L85.049 158.965L85.5394 158.665C85.7009 158.562 85.8624 158.458 86.0297 158.365L86.5605 158.135C86.9083 157.967 87.2715 157.834 87.6451 157.737C88.0103 157.619 88.3847 157.532 88.7644 157.477C90.2441 157.256 91.7511 157.293 93.2182 157.587C94.649 157.84 96.0105 158.233 97.3432 158.556C98.5715 158.93 99.8645 159.044 101.139 158.89C102.455 158.579 103.793 158.164 105.132 157.771C107.525 157.016 109.955 156.384 112.412 155.879C113.67 155.641 114.946 155.508 116.226 155.481C117.543 155.448 118.854 155.655 120.097 156.092C120.905 156.373 121.671 156.761 122.376 157.246C123.092 157.756 123.708 158.394 124.193 159.127C125.098 160.594 125.573 162.285 125.566 164.008C125.576 165.641 125.406 167.27 125.059 168.865C124.736 170.435 124.314 171.969 123.968 173.481C123.755 174.427 123.628 174.825 123.495 174.785C123.362 174.744 123.247 174.248 123.224 173.383C123.149 171.652 123.524 168.531 123.697 165.121C123.795 163.69 123.558 162.256 123.005 160.933C122.431 159.726 121.439 158.768 120.212 158.239C118.913 157.661 117.496 157.396 116.076 157.465C114.546 157.534 113.024 157.737 111.53 158.071C108.455 158.717 105.432 159.75 102.212 160.592C102.005 160.639 101.814 160.696 101.595 160.742L100.845 160.852C100.603 160.872 100.36 160.872 100.118 160.852C99.885 160.858 99.6516 160.847 99.4201 160.817L98.7451 160.742L98.099 160.621C97.6663 160.546 97.2682 160.437 96.8586 160.344C95.2432 159.935 93.7317 159.479 92.2144 159.254C90.461 158.915 88.6454 159.133 87.0221 159.877C86.6263 160.08 86.2412 160.304 85.8682 160.546C85.5897 160.795 85.3556 161.09 85.1759 161.417C84.729 162.242 84.3583 163.105 84.0682 163.996C82.9088 167.786 81.9669 171.638 81.2471 175.535C79.5163 184.096 77.9701 192.727 76.2163 201.317C75.1374 206.602 73.9951 211.881 72.7547 217.131C70.8624 225.087 68.7163 233.019 66.1086 240.721C64.1886 246.685 61.862 252.51 59.1451 258.156C58.8394 258.779 58.5682 259.39 58.2221 259.996C57.8759 260.602 57.5874 261.214 57.2413 261.819C54.6855 266.325 53.4394 267.502 52.4817 268.165C52.2773 268.323 52.0634 268.467 51.8413 268.598C51.5817 268.708 51.7086 268.304 52.1355 267.479L52.9721 265.962C53.3182 265.339 53.7336 264.623 54.1951 263.821C56.9779 258.919 59.3792 253.81 61.3778 248.539C63.4547 243.179 65.3067 237.635 66.9394 232.01C69.374 223.65 71.4047 215.123 73.2105 206.562L73.2682 206.539Z" fill="#3B2C7D"/>
<path d="M83.7217 111.796C83.7217 111.796 82.7986 102.375 90.9506 98.9078C99.1025 95.4405 115.297 91.6443 121.527 86.4693C127.758 81.2943 133.452 65.4405 124.856 55.3155C124.856 55.3155 111.437 40.9905 88.3544 56.3943C88.3544 56.3943 78.2294 67.0386 73.6486 75.4963C73.6486 75.4963 52.3602 70.6559 43.6486 86.4232C34.9371 102.19 36.639 106.529 38.6236 120.404C38.6236 120.404 39.4717 125.735 36.414 134.279C33.3563 142.823 25.9602 160.962 42.2871 169.858C42.2871 169.858 51.3217 178.592 77.289 170.965C77.289 170.965 91.7121 166.264 92.6698 152.504C92.7064 151.953 92.6852 151.4 92.6063 150.854C92.2256 147.877 90.3794 135.854 86.3813 130.24C86.3813 130.24 79.1179 133.333 74.5371 125.925C72.2294 122.152 72.4544 117.998 74.4794 114.052C75.9909 111.087 78.7429 109.84 83.7217 111.796Z" fill="#3B2C7D"/>
<path d="M120.13 103.598C120.177 103.408 120.223 103.217 120.252 103.021C120.252 102.952 120.252 102.894 120.252 102.825C120.298 102.583 120.419 102.329 120.459 102.087C120.487 101.987 120.487 101.881 120.459 101.781C120.419 101.66 120.327 101.55 120.459 101.394C120.875 101.243 121.323 101.205 121.757 101.285C121.825 101.404 121.867 101.535 121.882 101.671C121.897 101.807 121.884 101.944 121.844 102.075C121.78 102.248 121.896 102.392 121.896 102.554C121.896 102.715 121.896 102.923 121.896 103.102C121.89 103.215 121.89 103.329 121.896 103.442C121.889 103.61 121.908 103.777 121.953 103.939C122 104.054 122.144 104.152 122.248 104.262C122.248 104.262 122.311 104.302 122.328 104.331C122.346 104.36 122.253 104.487 121.752 104.614L121.423 104.694C121.157 104.782 120.874 104.804 120.598 104.758C120.46 104.724 120.336 104.646 120.247 104.535C120.157 104.425 120.106 104.288 120.102 104.146C120.102 103.967 120.102 103.783 120.102 103.598H120.13Z" fill="#3B2C7D"/>
<path d="M117.456 139.76C119.127 138.632 120.565 137.192 121.69 135.52C122.065 134.893 122.393 134.239 122.671 133.564C123.207 132.374 123.567 131.113 123.738 129.82C123.941 128.482 124.06 127.133 124.096 125.781C124.131 124.581 124.096 123.364 124.033 122.164C123.981 121.397 123.934 120.618 123.883 119.856C123.868 119.076 123.897 118.296 123.969 117.52C124.021 117.029 124.286 117.093 124.598 117.491C125.038 118.084 125.329 118.775 125.446 119.504C125.782 122.707 125.749 125.938 125.348 129.133C125.192 130.102 125.059 131.095 124.817 132.098C124.578 133.106 124.232 134.084 123.784 135.018C122.764 137.024 121.333 138.792 119.584 140.21C119.061 140.645 118.514 141.051 117.946 141.427L117.098 142.004L116.209 142.506C114.415 143.475 112.526 144.258 110.573 144.843C109.088 145.325 107.578 145.727 106.05 146.048C105.715 146.1 105.381 146.158 105.034 146.198C103.754 146.377 103.304 146.06 103.044 145.748C102.976 145.683 102.914 145.612 102.859 145.535C102.796 145.414 102.888 145.304 103.108 145.16C103.413 144.958 103.754 144.813 104.111 144.733C106.792 144.201 109.429 143.474 112.004 142.558C113.924 141.849 115.746 140.899 117.427 139.731L117.456 139.76Z" fill="#3B2C7D"/>
<path d="M130.739 113.008C130.783 113.545 130.704 114.086 130.509 114.589C130.315 115.047 130.041 115.467 129.701 115.829C129.487 116.086 129.245 116.318 128.98 116.521C128.081 117.121 127.089 117.566 126.043 117.837L124.745 118.241C124.203 118.452 123.625 118.554 123.043 118.541C122.859 118.541 122.835 118.252 122.928 117.964C122.964 117.803 123.034 117.652 123.134 117.52C123.233 117.389 123.36 117.28 123.505 117.202C124.555 116.844 125.587 116.573 126.609 116.233C127.203 116.011 127.739 115.658 128.178 115.2C128.649 114.801 128.965 114.25 129.072 113.642C129.114 113.266 129.052 112.885 128.893 112.541C128.62 111.948 128.206 111.431 127.687 111.035C127.252 110.741 126.781 110.505 126.285 110.331C126.176 110.285 126.066 110.262 125.962 110.21C125.57 110.037 125.512 109.841 125.628 109.391C125.628 109.287 125.674 109.177 125.709 109.079C125.76 108.918 125.869 108.782 126.015 108.695C126.161 108.609 126.333 108.58 126.499 108.612C127.655 108.84 128.701 109.45 129.47 110.342C130.184 111.079 130.643 112.026 130.78 113.042L130.739 113.008Z" fill="#3B2C7D"/>
<path d="M126.345 107.608C126.076 108.557 125.636 109.448 125.047 110.239C124.434 111.043 123.645 111.694 122.739 112.143C122.319 112.348 121.888 112.53 121.447 112.685C121.016 112.838 120.577 112.967 120.131 113.071C119.226 113.294 118.293 113.381 117.362 113.331C115.985 113.273 114.644 112.877 113.456 112.177C112.104 111.33 110.928 110.229 109.995 108.935C109.527 108.312 109.101 107.666 108.702 107.019C108.426 106.495 108.099 105.999 107.727 105.537C107.202 105.649 106.686 105.805 106.187 106.004L104.277 106.696C102.46 107.354 100.637 108.046 98.7909 108.623C97.5996 109.007 96.3858 109.317 95.1563 109.552C93.8817 109.861 92.5449 109.793 91.3082 109.356C90.9159 109.171 90.8121 108.975 90.864 108.935C90.9159 108.894 91.1409 108.935 91.4698 108.935C91.8972 108.939 92.3235 108.891 92.739 108.791C93.2524 108.675 93.8467 108.531 94.5101 108.404C96.7258 107.884 98.9038 107.215 101.029 106.402L104.295 105.202L105.956 104.625L106.81 104.343L107.041 104.273C107.166 104.233 107.293 104.2 107.422 104.175C107.667 104.117 107.922 104.107 108.172 104.146C108.749 104.337 109.147 105.116 109.326 105.329C110.051 106.638 110.924 107.859 111.927 108.969C112.892 110.041 114.101 110.862 115.452 111.364C116.935 111.86 118.536 111.884 120.033 111.433C120.424 111.323 120.81 111.192 121.187 111.041C121.55 110.906 121.901 110.742 122.237 110.55C122.879 110.162 123.422 109.631 123.824 108.998C124.839 107.418 125.029 105.335 124.885 103.344C124.77 101.804 124.484 100.281 124.031 98.8041C123.815 98.0729 123.543 97.3593 123.218 96.6694C123.142 96.5111 123.057 96.3571 122.964 96.2079C122.905 96.1081 122.821 96.0248 122.722 95.9656C122.459 95.8247 122.166 95.7513 121.868 95.7521C120.72 95.8212 119.593 96.0846 118.533 96.531C117.414 96.9406 116.283 97.3906 115.106 97.7771C114.587 97.9444 114.074 98.1175 113.526 98.2444C112.798 98.4476 112.039 98.5122 111.287 98.4348C110.908 98.4062 110.555 98.2327 110.301 97.9502C110.203 97.8534 110.118 97.7449 110.047 97.6271C109.926 97.2637 110.699 97.1656 112.008 96.8368C113.981 96.4041 115.954 95.4983 118.129 94.7194C118.677 94.5291 119.237 94.3387 119.86 94.1829C120.51 94.0008 121.181 93.9019 121.856 93.8887C122.278 93.888 122.696 93.9542 123.097 94.0848C123.612 94.2466 124.069 94.5554 124.412 94.9733C124.636 95.2804 124.829 95.6089 124.989 95.9541C125.133 96.2483 125.26 96.531 125.376 96.8194C126.043 98.5076 126.504 100.27 126.749 102.069C126.88 102.982 126.924 103.906 126.881 104.827C126.848 105.778 126.706 106.723 126.46 107.643L126.345 107.608Z" fill="#3B2C7D"/>
<path d="M121.612 50.7233C123.394 51.8167 124.97 53.2149 126.268 54.8541C127.515 56.4767 128.531 58.265 129.285 60.1675C129.661 61.11 129.982 62.0731 130.249 63.0521L130.583 64.5291C130.699 65.0195 130.745 65.5214 130.825 66.0175C131.105 68.0193 131.14 70.0477 130.929 72.0579C130.57 74.9961 129.63 77.8336 128.166 80.406C126.857 82.634 125.181 84.6254 123.21 86.2964C121.277 87.9375 119.144 89.3291 116.864 90.4387C114.607 91.538 112.258 92.4357 109.843 93.1214C107.443 93.8137 105.054 94.3675 102.689 95.0195C98.5005 96.1733 94.312 97.5233 90.7466 99.8368C89.6054 100.557 88.5454 101.398 87.5851 102.346C86.6843 103.3 85.9943 104.432 85.5601 105.669C85.1113 106.915 84.8602 108.223 84.8159 109.546C84.8159 109.881 84.8159 110.21 84.8159 110.539C84.8159 110.868 84.862 111.196 84.9197 111.525C84.9774 111.854 85.0005 112.177 85.087 112.494L85.1966 112.979L85.3466 113.452C85.6005 114.231 85.7159 114.606 85.5832 114.606C85.4505 114.606 85.1043 114.369 84.6601 113.735C84.0334 112.843 83.61 111.825 83.4197 110.752C83.1255 109.208 83.1906 107.617 83.6101 106.102C84.0049 104.583 84.7036 103.161 85.6639 101.919L86.0389 101.458C86.1716 101.308 86.3159 101.169 86.4601 101.025C86.7254 100.749 87.0087 100.491 87.3082 100.252C87.8851 99.7445 88.462 99.3233 89.0851 98.8733C91.5405 97.2496 94.1926 95.9448 96.9774 94.9906C99.7178 94.0098 102.504 93.2598 105.268 92.5329C108.008 91.8762 110.706 91.0516 113.345 90.0637C114.91 89.438 116.426 88.6955 117.879 87.8425C119.334 86.9733 120.706 85.9709 121.975 84.8483C123.219 83.7048 124.335 82.4301 125.304 81.0464C126.235 79.6473 127.009 78.1498 127.612 76.581C128.237 74.8548 128.625 73.0519 128.766 71.2214C128.924 69.3784 128.844 67.5229 128.529 65.7002C128.221 63.8733 127.696 62.0896 126.966 60.3868C126.22 58.7043 125.233 57.1397 124.035 55.7425C121.15 52.281 116.599 50.4868 112.029 50.0714C108.517 49.7711 104.979 50.0637 101.564 50.9368C98.1365 51.7677 94.8536 53.1096 91.8255 54.9175C87.1351 57.7156 83.3447 61.6329 80.2005 65.9887C79.8428 66.4618 79.5082 66.9406 79.1851 67.431C78.862 67.9214 78.5159 68.4002 78.2043 68.9137C76.987 70.7714 76.2312 72.0291 75.637 72.8829C75.2488 73.5042 74.757 74.0544 74.1832 74.5098C74 74.6623 73.8073 74.803 73.6062 74.931C73.3466 75.0464 73.3639 74.6656 73.6062 73.8521C73.9771 72.6298 74.468 71.4471 75.0716 70.3214C76.2152 68.0537 77.5265 65.8745 78.9947 63.8021C80.5459 61.6945 82.2837 59.7309 84.187 57.9348C88.1018 54.2252 92.7718 51.4052 97.8774 49.6675C101.698 48.3347 105.715 47.6503 109.762 47.6425C113.921 47.5897 118.02 48.6344 121.647 50.6714L121.612 50.7233Z" fill="#3B2C7D"/>
<path d="M40.2904 170.192C37.949 168.688 35.8971 166.775 34.2328 164.544C32.5659 162.282 31.4176 159.68 30.8693 156.923C30.3617 154.218 30.278 151.45 30.6212 148.719C30.9477 146.042 31.5115 143.399 32.3058 140.821C33.4135 137.089 34.8558 133.471 36.2405 129.952C36.5347 129.179 36.8174 128.412 37.0366 127.644C37.1289 127.264 37.2443 126.883 37.3193 126.49C37.3943 126.098 37.4751 125.712 37.5212 125.337C37.7243 123.742 37.7397 122.129 37.5674 120.531C37.2558 117.289 36.3731 114.035 35.8366 110.648C35.2158 107.216 35.1943 103.703 35.7731 100.264C36.3577 96.8514 37.4486 93.5457 39.0097 90.4558C40.3638 87.7045 42.0557 85.1327 44.0462 82.8001C45.0547 81.6507 46.144 80.5749 47.3058 79.5808C48.475 78.5882 49.7191 77.6875 51.027 76.8866C54.4121 74.8367 58.2007 73.5437 62.1328 73.0962C64.0954 72.8683 66.0778 72.8683 68.0405 73.0962C69.0286 73.2022 70.0055 73.3952 70.9597 73.6731C71.9323 73.932 72.8699 74.3078 73.752 74.7924C74.8654 75.4501 75.1712 76.0501 75.0328 76.1135C74.8943 76.177 74.7731 76.1135 74.5078 76.0097C74.2424 75.9058 73.8385 75.8078 73.3539 75.6981C72.0228 75.4342 70.6719 75.2817 69.3155 75.2424C67.4368 75.1573 65.5547 75.1824 63.6789 75.3174C59.9944 75.6003 56.4095 76.6496 53.1539 78.3981C49.8983 80.1466 47.0438 82.5557 44.7731 85.4712C40.1578 91.3212 37.2097 98.7404 37.3943 106.304C37.4693 110.804 39.0674 115.402 39.5866 120.352C39.8891 122.87 39.7367 125.422 39.1366 127.887C38.8134 129.089 38.4146 130.271 37.9424 131.423L36.627 134.787C34.7347 139.662 33.0847 144.658 32.5885 149.787C32.3233 152.323 32.4871 154.886 33.0731 157.367C33.3787 158.589 33.8219 159.771 34.3943 160.892C34.5443 161.164 34.6712 161.469 34.8443 161.717L35.3635 162.514L35.8828 163.31L36.4597 164.048C38.4809 166.488 40.9982 168.471 43.8443 169.864C46.7072 171.26 49.7585 172.232 52.902 172.748C55.2927 173.166 57.7154 173.375 60.1424 173.371C61.3539 173.371 62.5712 173.325 63.777 173.21C64.9828 173.094 66.2001 172.933 67.4116 172.789C68.6231 172.644 69.8174 172.39 71.0058 172.142C72.1943 171.894 73.377 171.612 74.5251 171.231C75.6731 170.85 76.8328 170.469 77.9462 170.048C79.0534 169.588 80.1339 169.066 81.1828 168.485C81.993 168.037 82.7788 167.546 83.5366 167.014C83.9058 166.748 84.2578 166.437 84.6212 166.165C84.8001 166.021 84.9847 165.889 85.152 165.739L85.6539 165.265C86.318 164.646 86.9423 163.985 87.5231 163.287L88.3308 162.196C88.6078 161.839 88.8097 161.429 89.0578 161.042C90.849 157.89 91.7838 154.324 91.7693 150.698C91.7704 149.102 91.6566 147.507 91.4289 145.927C90.9962 142.956 90.4828 141.029 90.1885 139.656C90.0443 138.969 89.9347 138.421 89.877 137.925C89.8461 137.518 89.8461 137.109 89.877 136.702C89.861 136.387 89.861 136.071 89.877 135.756C89.9462 135.41 90.2981 135.785 90.8924 136.783C91.723 138.334 92.3567 139.984 92.7789 141.692C93.715 145.097 94.093 148.632 93.8981 152.158C93.6916 155.873 92.5484 159.475 90.5751 162.629C89.5642 164.213 88.3413 165.651 86.9405 166.904L86.4212 167.377L85.8443 167.81C85.4751 168.092 85.1116 168.387 84.7366 168.664L83.5828 169.431L83.0058 169.812L82.3943 170.146C79.1545 171.906 75.6786 173.19 72.0731 173.96L71.0808 174.19L70.0828 174.369L68.0866 174.721C66.7424 174.889 65.4212 175.096 64.0481 175.212C61.3287 175.457 58.5926 175.457 55.8731 175.212C50.4501 174.704 44.9866 173.233 40.2962 170.215L40.2904 170.192Z" fill="#3B2C7D"/>
<path d="M74.4843 117.358C74.1428 119.189 74.2698 121.076 74.8536 122.844C74.9632 123.162 75.1074 123.468 75.2344 123.773C75.3613 124.079 75.5574 124.35 75.6959 124.656C76.29 125.69 77.0727 126.604 78.0036 127.35C78.9633 128.115 80.0596 128.691 81.2343 129.046C82.2967 129.368 83.4014 129.527 84.5113 129.519C85.9343 129.472 87.3517 129.317 88.7517 129.058C89.1959 129 89.2536 129.329 88.9709 129.768C88.7875 130.039 88.5592 130.277 88.2959 130.471C87.9449 130.711 87.5543 130.887 87.142 130.991C85.5432 131.342 83.891 131.378 82.2786 131.094C80.6279 130.836 79.0532 130.222 77.6632 129.294C76.8306 128.723 76.0575 128.07 75.3555 127.344C74.6523 126.598 74.0686 125.748 73.6247 124.823C73.4113 124.31 73.1978 123.785 73.0478 123.271C72.8978 122.758 72.7709 122.221 72.667 121.691C72.4613 120.619 72.3935 119.526 72.4651 118.437C72.5474 117.075 72.9213 115.747 73.5613 114.543C73.81 114.09 74.0997 113.661 74.4267 113.262L74.917 112.685L75.4594 112.148C76.2044 111.441 77.0725 110.876 78.0209 110.481C78.7702 110.173 79.5657 109.991 80.3747 109.944C81.1962 109.92 82.0154 110.045 82.792 110.314C83.1338 110.424 83.4626 110.571 83.7728 110.752C84.0184 110.888 84.247 111.053 84.4536 111.243C84.6024 111.361 84.731 111.504 84.8344 111.664C84.9566 111.898 84.9991 112.165 84.9555 112.425C84.9445 112.529 84.9253 112.631 84.8978 112.731C84.8401 112.875 84.6786 112.904 84.4247 112.875C84.0952 112.827 83.7757 112.726 83.4786 112.575C82.4923 112.056 81.391 111.794 80.2767 111.814C79.1771 111.901 78.1304 112.321 77.2767 113.019L76.7863 113.441L76.319 113.919L75.8805 114.433C75.742 114.606 75.6267 114.785 75.4997 114.958C75.0294 115.694 74.7007 116.512 74.5305 117.369L74.4843 117.358Z" fill="#3B2C7D"/>
<path d="M137.71 172.316C135.333 172.893 132.939 173.402 130.527 173.845C129.651 174 128.797 174.197 127.885 174.306C124.763 174.739 121.616 174.964 118.464 174.981C117.766 174.981 117.068 174.981 116.37 174.981C115.672 174.981 114.974 174.935 114.281 174.866C113.393 174.802 112.504 174.699 111.616 174.566C110.738 174.397 109.871 174.176 109.02 173.902C108.489 173.735 108.599 173.631 109.083 173.591C109.412 173.572 109.741 173.572 110.07 173.591C110.474 173.591 110.947 173.591 111.443 173.625C113.205 173.819 114.978 173.906 116.751 173.885C118.522 173.885 120.31 173.804 122.104 173.7C124.305 173.507 126.492 173.179 128.652 172.72C131.045 172.293 133.426 171.793 135.795 171.22C137.249 170.868 138.679 170.487 140.145 170.066C142.326 169.437 144.512 168.779 146.641 168.024C148.297 167.447 149.872 166.737 151.476 166.074C151.827 165.929 152.168 165.768 152.526 165.629C153.858 165.11 154.326 165.052 154.764 165.347C154.869 165.401 154.966 165.469 155.052 165.549C155.295 165.808 154.851 166.264 153.899 166.737C150.979 168.16 147.952 169.352 144.847 170.302C142.504 171.058 140.122 171.722 137.727 172.339L137.71 172.316Z" fill="#3B2C7D"/>
<path d="M170.149 148.396C168.672 149.55 167.206 150.779 165.758 152.002C165.227 152.452 164.737 152.937 164.212 153.392C162.366 154.985 160.549 156.606 158.829 158.331C158.056 159.087 157.341 159.906 156.649 160.719C155.766 161.775 154.97 162.894 154.018 163.892C153.718 164.204 153.533 164.014 153.516 163.546C153.509 162.869 153.71 162.207 154.093 161.648C155.789 159.325 157.737 157.196 159.902 155.302C161.2 154.148 162.435 152.879 163.739 151.708C165.177 150.415 166.641 149.16 168.129 147.94C169.045 147.171 169.974 146.429 170.916 145.714C172.335 144.606 173.8 143.556 175.289 142.535C176.443 141.739 177.533 140.919 178.704 140.175C178.964 140.008 179.206 139.84 179.477 139.69C180.464 139.114 180.874 139.114 181.277 139.385C181.374 139.441 181.465 139.506 181.549 139.581C181.779 139.817 181.514 140.314 180.845 140.764C178.854 142.131 176.754 143.487 174.7 144.975C173.177 146.077 171.66 147.225 170.189 148.437L170.149 148.396Z" fill="#3B2C7D"/>
<path d="M194.855 154.039C196.737 158.555 197.608 163.429 197.405 168.317L197.307 169.616L196.32 170.498C195.888 170.879 195.466 171.277 195.04 171.681C194.186 172.471 193.343 173.296 192.495 174.104L187.441 179.037C184.978 181.437 182.538 183.871 180.022 186.219C177.795 188.291 175.539 190.327 173.203 192.294L171.42 193.742L169.614 195.156C168.986 195.606 168.328 196.027 167.688 196.466L166.643 197.042C166.297 197.239 165.945 197.429 165.611 197.579C162.888 198.889 160.159 200.244 157.338 201.427C155.93 202.004 154.499 202.581 153.028 203.042C151.562 203.508 150.071 203.893 148.563 204.196C145.915 204.744 143.238 205.189 140.561 205.564C137.884 205.939 135.189 206.175 132.484 206.319C129.024 206.521 125.554 206.488 122.099 206.221C118.627 205.966 115.207 205.236 111.934 204.052C109.903 203.302 110.301 203.135 112.113 203.377C113.901 203.729 117.195 203.954 121.026 204.381C127.868 205.05 134.814 204.502 141.668 203.55C145.088 203.099 148.474 202.423 151.805 201.525C155.102 200.458 158.318 199.155 161.428 197.625L164.313 196.258C164.786 196.021 165.293 195.796 165.709 195.542C166.161 195.309 166.6 195.051 167.024 194.769L168.316 193.887L169.58 192.923C170.428 192.294 171.23 191.579 172.066 190.91C175.332 188.129 178.482 185.141 181.591 182.158C185.013 178.887 188.382 175.546 191.797 172.241C192.651 171.414 193.516 170.594 194.393 169.783L195.507 168.779C195.534 168.601 195.549 168.422 195.553 168.242V167.377C195.596 165.052 195.374 162.729 194.889 160.454C193.617 154.834 191.06 149.585 187.418 145.119C186.741 144.266 186.038 143.439 185.307 142.639L184.73 142.062L184.038 141.277C183.905 141.143 183.785 140.996 183.68 140.839C183.63 140.705 183.597 140.565 183.582 140.423C183.584 140.406 183.584 140.389 183.582 140.371C183.58 140.362 183.58 140.352 183.582 140.342H183.466L183.547 140.25L183.709 140.071L184.032 139.702L184.77 139.183C184.914 139.085 184.955 139.044 185.047 138.975L185.295 138.791C185.618 138.537 185.947 138.294 186.27 138.035C186.911 137.516 187.551 136.996 188.174 136.454C189.432 135.375 190.655 134.262 191.861 133.125C194.266 130.858 196.591 128.51 198.824 126.098C200.043 124.878 201.326 123.722 202.666 122.637C203.989 121.542 205.38 120.534 206.832 119.619C207.565 119.159 208.322 118.737 209.099 118.356C209.889 117.965 210.709 117.639 211.551 117.381C212.423 117.109 213.327 116.954 214.24 116.919C215.205 116.888 216.165 117.074 217.049 117.462C217.251 117.539 217.445 117.637 217.626 117.756C217.805 117.866 218.013 117.981 218.157 118.085C218.463 118.304 218.774 118.512 219.074 118.742C219.686 119.187 220.286 119.66 220.868 120.173C221.83 120.984 222.665 121.935 223.343 122.994C223.615 123.454 223.809 123.955 223.92 124.477C223.98 124.763 223.993 125.058 223.961 125.348C223.933 125.614 223.85 125.871 223.718 126.104C223.497 126.496 223.137 126.79 222.709 126.929C222.377 127.034 222.025 127.06 221.682 127.004C221.262 126.925 220.875 126.724 220.568 126.427C220.353 126.226 220.175 125.987 220.043 125.723C219.997 125.573 220.089 125.533 220.286 125.567C220.589 125.643 220.897 125.695 221.209 125.723C221.402 125.739 221.597 125.723 221.786 125.677C221.936 125.642 222.068 125.551 222.155 125.423C222.189 125.348 222.207 125.266 222.207 125.184C222.207 125.101 222.189 125.02 222.155 124.944C222.039 124.607 221.878 124.287 221.676 123.992C220.834 122.862 219.829 121.863 218.693 121.027C218.116 120.571 217.539 120.139 216.905 119.712C216.404 119.363 215.836 119.121 215.238 119.002C213.903 118.833 212.547 119.014 211.303 119.527C209.924 120.053 208.604 120.72 207.363 121.517C204.784 123.191 202.383 125.124 200.197 127.287L198.57 129.017L196.886 130.748C195.759 131.902 194.616 133.033 193.459 134.141C192.182 135.367 190.872 136.569 189.53 137.746C188.853 138.335 188.166 138.912 187.47 139.477C187.124 139.771 186.755 140.054 186.403 140.319L185.901 140.706H185.872C185.872 140.706 185.872 140.706 185.872 140.741C186.397 141.317 186.916 141.854 187.424 142.437C188.434 143.591 189.391 144.796 190.309 146.048C192.109 148.562 193.618 151.272 194.809 154.125L194.855 154.039Z" fill="#3B2C7D"/>
<path d="M220.331 129.496C219.855 128.512 219.275 127.582 218.6 126.721C218.352 126.398 218.052 126.144 217.787 125.833C217.321 125.32 216.805 124.856 216.246 124.448C215.732 124.058 215.122 123.813 214.481 123.739C214.025 123.704 213.235 123.958 212.566 124.01C212.127 124.056 211.706 124.114 211.319 124.148C210.933 124.183 210.546 124.194 210.166 124.235C209.917 124.235 209.837 123.992 209.958 123.658C210.04 123.425 210.177 123.214 210.357 123.044C210.536 122.873 210.753 122.748 210.991 122.677C211.431 122.58 211.879 122.524 212.329 122.51C212.716 122.48 213.101 122.43 213.483 122.36L213.633 122.331L213.852 122.302L214.296 122.262C214.578 122.269 214.86 122.294 215.139 122.337C215.398 122.417 215.664 122.492 215.906 122.591C216.148 122.689 216.367 122.816 216.581 122.948C217.555 123.555 218.454 124.275 219.258 125.094C220.089 125.98 220.829 126.946 221.467 127.979C221.87 128.625 222.208 129.309 222.477 130.021C222.575 130.287 222.673 130.558 222.754 130.835C222.835 131.112 222.898 131.366 222.967 131.723C223.094 132.473 223.123 133.292 222.569 133.777C221.687 134.452 220.192 133.656 219.541 133.339C219.373 133.246 219.189 133.171 219.027 133.062C218.9 132.982 218.781 132.891 218.669 132.791C218.592 132.712 218.532 132.618 218.496 132.514C218.463 132.427 218.449 132.335 218.456 132.242C218.473 132.132 218.5 132.024 218.537 131.919C218.571 131.827 218.589 131.729 218.617 131.66C218.746 131.515 218.917 131.416 219.106 131.377C219.295 131.337 219.492 131.36 219.667 131.441L220.648 131.879C220.983 132.029 221.225 132.121 221.225 132.064C221.23 132.059 221.234 132.054 221.237 132.048C221.239 132.042 221.241 132.036 221.241 132.029C221.241 132.022 221.239 132.016 221.237 132.01C221.234 132.004 221.23 131.999 221.225 131.994C221.225 131.942 221.225 131.879 221.167 131.735C221.104 131.498 221.029 131.25 220.948 130.996C220.792 130.494 220.6 130.004 220.371 129.531L220.331 129.496Z" fill="#3B2C7D"/>
<path d="M212.743 133.725C212.955 133.559 213.178 133.408 213.413 133.275C213.551 133.218 213.684 133.143 213.822 133.097C213.962 133.055 214.105 133.024 214.249 133.004C214.539 132.982 214.829 133.027 215.099 133.134C215.369 133.241 215.611 133.407 215.807 133.622C215.867 133.662 215.922 133.71 215.968 133.766L216.038 133.835L216.176 133.974L216.47 134.227C216.668 134.391 216.876 134.541 217.093 134.677C217.498 134.942 217.945 135.137 218.415 135.254C218.519 135.278 218.625 135.295 218.732 135.306C218.77 135.311 218.809 135.311 218.847 135.306C218.929 135.295 219.004 135.256 219.061 135.197C219.103 135.134 219.119 135.058 219.107 134.983C219.113 134.935 219.113 134.887 219.107 134.839C219.066 134.724 219.049 134.608 218.997 134.481C218.813 133.974 218.581 133.485 218.305 133.022C217.754 132.032 217.081 131.116 216.303 130.293C215.983 129.937 215.607 129.637 215.19 129.404C214.777 129.192 214.329 129.055 213.868 129C213.235 128.943 212.598 128.943 211.965 129C211.284 129.034 210.601 129.018 209.922 128.954C209.484 128.897 209.559 128.625 209.922 128.314C210.41 127.871 211.008 127.568 211.653 127.437C212.396 127.329 213.148 127.3 213.897 127.35C214.744 127.405 215.567 127.654 216.303 128.077C216.973 128.496 217.58 129.009 218.103 129.6C218.603 130.149 219.055 130.74 219.453 131.366C219.956 132.135 220.392 132.945 220.757 133.789C220.806 133.902 220.848 134.017 220.884 134.135C220.942 134.274 220.984 134.419 221.011 134.568L221.115 135.093C221.115 135.26 221.115 135.433 221.115 135.6C221.091 135.934 220.969 136.254 220.763 136.518C220.558 136.782 220.279 136.979 219.961 137.083C219.804 137.136 219.644 137.176 219.482 137.204L218.986 137.25C218.701 137.25 218.416 137.219 218.138 137.158C217.671 137.05 217.22 136.879 216.799 136.65C216.39 136.441 216.003 136.189 215.645 135.9C215.461 135.768 215.305 135.606 215.132 135.462C215.049 135.388 214.97 135.309 214.895 135.225C214.833 135.168 214.775 135.107 214.722 135.041C214.66 134.952 214.568 134.889 214.463 134.862C214.331 134.854 214.201 134.89 214.093 134.966L214.001 135.029L213.851 135.139C213.747 135.214 213.649 135.312 213.545 135.393C213.128 135.772 212.733 136.174 212.363 136.599C211.149 137.899 209.795 139.06 208.324 140.06C207.171 140.872 205.887 141.481 204.528 141.86C204.227 141.953 203.918 142.015 203.605 142.045C203.357 142.07 203.108 142.07 202.861 142.045C202.69 142.044 202.52 142.015 202.359 141.958C202.14 141.862 201.957 141.701 201.834 141.497C201.783 141.421 201.737 141.342 201.695 141.26C201.649 141.127 201.741 141.018 201.938 140.891C202.198 140.722 202.488 140.603 202.791 140.539C203.334 140.412 203.859 140.222 204.378 140.072C204.896 139.89 205.401 139.674 205.89 139.425C206.89 138.897 207.829 138.259 208.688 137.522C209.351 136.945 209.986 136.368 210.626 135.693C210.943 135.364 211.295 135.058 211.647 134.729C211.999 134.4 212.322 134.025 212.766 133.668L212.743 133.725Z" fill="#3B2C7D"/>
<path d="M121.348 236.683C121.475 234.762 121.585 232.829 121.66 230.914C121.689 230.21 121.66 229.5 121.695 228.796C121.793 226.315 121.891 223.823 121.943 221.337C121.943 220.229 121.943 219.121 121.943 218.025L121.908 215.908C121.908 215.204 121.977 214.494 122.058 213.791C122.116 213.352 122.352 213.41 122.635 213.791C123.007 214.347 123.237 214.987 123.304 215.654C123.373 217.09 123.402 218.539 123.42 219.964C123.437 221.389 123.362 222.848 123.275 224.302C123.177 226.033 123.275 227.844 123.229 229.621C123.2 231.571 123.137 233.527 123.056 235.483L122.877 239.089C122.785 240.912 122.641 242.735 122.531 244.546C122.439 245.948 122.439 247.333 122.358 248.729C122.358 249.035 122.358 249.341 122.318 249.646C122.191 250.8 121.989 251.135 121.545 251.325C121.446 251.374 121.344 251.415 121.239 251.446C120.904 251.515 120.662 251.019 120.662 250.177C120.622 247.696 120.806 245.117 120.956 242.515C121.095 240.589 121.239 238.644 121.331 236.7L121.348 236.683Z" fill="#3B2C7D"/>
<path d="M100.959 238.044C97.8054 237.67 94.6861 237.047 91.6304 236.181L89.9631 235.714C89.3862 235.54 88.8554 235.367 88.3074 235.177C84.4665 233.809 80.8068 231.979 77.4093 229.725L76.2554 228.981L75.1535 228.196C74.4035 227.694 73.7112 227.112 72.99 226.581C71.1501 225.19 69.4996 223.565 68.0804 221.746C67.6362 221.169 67.942 221.048 68.5939 221.262C69.5597 221.622 70.4527 222.154 71.2304 222.831C74.6015 225.888 78.3101 228.552 82.2843 230.769C84.761 232.098 87.3668 233.171 90.0612 233.971C93.0196 234.918 96.051 235.618 99.1247 236.065C101.019 236.359 102.927 236.551 104.842 236.642C107.74 236.8 110.646 236.721 113.53 236.406C115.718 236.131 117.881 235.684 119.998 235.067C120.465 234.94 120.915 234.779 121.377 234.64C123.107 234.127 123.684 234.023 124.198 234.346C124.325 234.409 124.447 234.482 124.561 234.565C124.855 234.842 124.261 235.425 122.975 235.95C119.155 237.485 114.852 238.171 110.548 238.402C107.341 238.558 104.126 238.454 100.936 238.09L100.959 238.044Z" fill="#3B2C7D"/>
<path d="M121.289 235.54C121.289 235.54 121.866 240.502 113.882 241.581C107.536 242.429 88.8144 239.204 81.6952 243.006C74.5759 246.808 63.0663 262.46 61.3413 264.56C58.999 267.41 51.9317 268.898 53.299 266.815C54.6663 264.733 65.749 245.06 66.8855 236.389C68.0221 227.717 70.924 224.348 70.924 224.348C70.924 224.348 82.4105 233.919 90.0663 235.54C90.0548 235.54 107.807 240.19 121.289 235.54Z" fill="#3B2C7D"/>
<path d="M184.803 34.1251C186.557 34.179 188.312 34.1886 190.07 34.1539C190.71 34.1539 191.345 34.0789 191.985 34.0674C194.241 33.9809 196.503 33.9232 198.759 33.7213C199.757 33.6347 200.749 33.4732 201.73 33.3405C202.359 33.2366 202.987 33.127 203.61 33.0001C204.228 32.8845 204.837 32.7284 205.434 32.5328C205.785 32.4001 205.809 32.4982 205.555 32.7693C205.119 33.1831 204.597 33.4945 204.026 33.6809C202.763 34.118 201.466 34.4499 200.149 34.6732C198.838 34.8838 197.517 35.0282 196.191 35.1059C194.605 35.2097 192.955 35.377 191.334 35.4693C189.551 35.5559 187.762 35.5963 185.974 35.602C184.878 35.602 183.776 35.602 182.674 35.5616C181.012 35.5155 179.339 35.4116 177.684 35.2963C176.397 35.2039 175.122 35.1693 173.824 34.9732C173.535 34.9415 173.248 34.8933 172.964 34.8289C172.576 34.7387 172.209 34.572 171.885 34.3386C171.719 34.188 171.611 33.9838 171.58 33.7616C171.56 33.6746 171.55 33.5855 171.551 33.4963C171.551 33.3693 171.689 33.3116 171.903 33.277C172.185 33.2302 172.474 33.2302 172.757 33.277C174.845 33.577 177.182 33.7789 179.524 33.9116C181.255 34.0155 183.037 34.0732 184.803 34.102V34.1251Z" fill="#3B2C7D"/>
<path d="M206.356 59.2847C205.987 61.0154 205.525 62.6828 205.006 64.3558L204.499 65.8674L204.406 66.1385L204.36 66.277C204.331 66.3116 204.36 66.3981 204.285 66.3808L203.708 66.4674L202.808 66.5828C201.96 66.6866 201.118 66.8078 200.27 66.9289L196.56 67.5058C192.187 68.1462 187.756 68.7866 183.262 68.602C181.277 68.4981 179.304 68.3193 177.366 68.0597C174.864 67.7513 172.402 67.1769 170.022 66.3462C169.289 66.0578 169.445 65.9481 170.125 66.0001C170.46 66.0001 170.927 66.0751 171.487 66.1501C172.047 66.2251 172.704 66.3001 173.402 66.4154C174.649 66.6231 175.9 66.7674 177.152 66.9001C178.404 67.0328 179.662 67.1885 180.92 67.2808C183.429 67.4971 185.951 67.4971 188.46 67.2808C191.5 67.0443 194.639 66.4385 197.743 65.9193C199.474 65.6366 201.164 65.3424 202.895 65.1231L203.16 65.0943C203.212 65.0424 203.224 64.9385 203.258 64.8635C203.368 64.5174 203.524 64.0731 203.639 63.6751C203.875 62.8558 204.112 62.0308 204.308 61.2001C204.802 59.1488 205.188 57.0728 205.462 54.9808C205.897 51.8075 206.099 48.6067 206.068 45.4039C206.012 42.9604 205.82 40.522 205.491 38.1001C205.433 37.5693 205.324 37.0501 205.26 36.5135C205.064 34.5174 205.052 33.877 205.41 33.3751C205.472 33.2614 205.543 33.1533 205.624 33.052C205.866 32.8097 206.293 33.577 206.668 35.0424C206.942 36.1391 207.154 37.2505 207.302 38.3712C207.472 39.502 207.597 40.6558 207.677 41.8328C207.817 44.1784 207.832 46.5297 207.724 48.877C207.548 52.3982 207.102 55.9008 206.391 59.3539L206.356 59.2847Z" fill="#3B2C7D"/>
<path d="M191.783 70.0502C190.052 70.2232 188.287 70.3617 186.527 70.4309C185.881 70.4309 185.241 70.4944 184.595 70.4829C182.332 70.4226 180.077 70.2048 177.845 69.8309C176.858 69.6809 175.86 69.5309 174.885 69.3521C173.629 69.1227 172.391 68.8026 171.181 68.3944C170.431 68.1232 171.493 68.0944 172.912 68.2963C173.547 68.4002 174.187 68.4809 174.822 68.5732C175.456 68.6655 176.091 68.7809 176.726 68.8675C178.001 69.0521 179.276 69.2136 180.568 69.3636C182.136 69.5379 183.716 69.5939 185.293 69.5309C187.024 69.479 188.754 69.3405 190.514 69.1559C191.587 69.0463 192.654 68.9136 193.722 68.7694C195.343 68.5444 196.97 68.3136 198.574 68.0367C199.814 67.8175 201.026 67.5348 202.254 67.304C202.526 67.2521 202.791 67.1944 203.068 67.1482C204.089 67.0271 204.429 67.0732 204.683 67.3098C204.744 67.3539 204.8 67.4041 204.851 67.4598C204.972 67.6213 204.585 67.8752 203.858 68.0771C201.612 68.6544 199.333 69.0956 197.033 69.3982C195.302 69.6579 193.537 69.8829 191.777 70.079L191.783 70.0502Z" fill="#3B2C7D"/>
<path d="M174.164 47.1811C174.008 48.7561 173.812 50.3196 173.587 51.8773C173.506 52.4542 173.443 53.0311 173.345 53.608C172.987 55.6042 172.543 57.5773 172.07 59.5446C171.868 60.4215 171.666 61.2753 171.464 62.1696C171.23 63.3006 170.871 64.4017 170.391 65.4523C170.235 65.7811 170.004 65.6426 169.843 65.2676C169.638 64.7604 169.594 64.2027 169.716 63.6696C170.183 61.4426 170.737 59.2273 171.297 56.9657C171.6 55.5789 171.829 54.177 171.983 52.7657C172.202 51.2196 172.41 49.6676 172.56 48.1157C172.652 47.158 172.75 46.2003 172.802 45.2311C172.905 43.7815 172.924 42.3272 172.86 40.8753C172.831 40.3222 172.769 39.7713 172.675 39.2253C172.583 38.6888 172.525 38.1407 172.387 37.6215C172.335 37.3907 172.272 37.1657 172.231 36.9292C172.047 36.0753 172.029 35.8042 172.329 35.4869C172.381 35.4176 172.427 35.3426 172.468 35.2965C172.583 35.1523 173.045 35.3888 173.333 36.058C173.748 37.0529 174.036 38.0955 174.193 39.1619C174.291 39.6984 174.302 40.2349 174.349 40.7773C174.395 41.3196 174.406 41.8561 174.4 42.3984V43.6042L174.349 44.8042C174.32 45.6061 174.256 46.4023 174.199 47.1984L174.164 47.1811Z" fill="#3B2C7D"/>
<path d="M209.561 47.9656C209.44 49.5291 209.249 51.0867 209.036 52.6387L208.793 54.3348C208.447 56.3194 207.997 58.281 207.484 60.2252C207.253 61.0848 207.022 61.956 206.797 62.8041C206.49 63.8979 206.124 64.9745 205.701 66.0291C205.436 66.6867 205.39 65.7233 205.649 64.4483L206.024 62.7637L206.44 61.0964C206.713 59.981 206.98 58.8618 207.241 57.7387C207.553 56.3887 207.767 54.9637 207.951 53.5617C208.176 52.0214 208.338 50.4752 208.465 48.9464C208.528 47.9887 208.597 47.031 208.615 46.0617C208.655 44.6137 208.666 43.1771 208.568 41.7118C208.505 40.5925 208.309 39.5079 208.17 38.4118C208.141 38.1752 208.084 37.9387 208.055 37.6964C207.968 36.7906 208.02 36.4964 208.257 36.2598C208.304 36.2054 208.357 36.1552 208.413 36.1098C208.58 35.9944 208.816 36.3406 208.99 36.9983C209.494 39.0322 209.738 41.122 209.717 43.2175C209.717 44.0079 209.717 44.8041 209.717 45.6002C209.717 46.3964 209.647 47.181 209.595 47.9771L209.561 47.9656Z" fill="#3B2C7D"/>
<path d="M244.096 33.2079C245.826 33.2079 247.609 33.2079 249.363 33.1329C250.003 33.1329 250.644 33.0349 251.284 33.006C253.534 32.8791 255.801 32.7695 258.051 32.5214C259.049 32.4233 260.042 32.2387 261.022 32.0887C261.646 31.9791 262.274 31.8522 262.897 31.7195C263.513 31.5928 264.119 31.429 264.715 31.2291C265.072 31.0964 265.095 31.1945 264.842 31.4656C264.407 31.8813 263.887 32.1981 263.319 32.3945C262.062 32.8513 260.772 33.2082 259.459 33.4618C258.155 33.6868 256.834 33.8599 255.507 33.9695C253.921 34.1022 252.282 34.3041 250.655 34.4252C248.872 34.5522 247.084 34.6272 245.301 34.6675C244.199 34.6675 243.097 34.6964 241.995 34.6675C240.328 34.6675 238.655 34.581 236.994 34.5002C235.701 34.431 234.426 34.4195 233.122 34.2349C232.833 34.2052 232.546 34.1589 232.263 34.0964C231.87 34.0144 231.499 33.8513 231.172 33.6175C231.007 33.4658 230.897 33.2625 230.861 33.0406C230.844 32.9551 230.834 32.8682 230.832 32.781C230.832 32.6541 230.976 32.5906 231.19 32.556C231.471 32.5142 231.757 32.5142 232.038 32.556C234.126 32.8387 236.463 33.0002 238.811 33.0925C240.542 33.156 242.324 33.1849 244.096 33.1791V33.2079Z" fill="#3B2C7D"/>
<path d="M266.16 58.4599C265.825 60.2119 265.397 61.9451 264.88 63.6523L264.36 65.2273L264.268 65.5042L264.222 65.6426C264.222 65.6946 264.135 65.6426 264.089 65.6888L263.512 65.7753L262.647 65.8849C261.793 66.0003 260.916 66.1388 260.08 66.283C258.828 66.4965 257.582 66.7676 256.324 66.9926C251.899 67.7715 247.41 68.6369 242.818 68.5273C240.793 68.4523 238.78 68.2561 236.807 68.0023C234.249 67.6819 231.734 67.0842 229.307 66.2196C228.557 65.9253 228.73 65.8157 229.405 65.8734C229.745 65.8734 230.224 65.9542 230.795 66.0292C231.366 66.1042 232.03 66.1792 232.745 66.3003C234.008 66.5138 235.289 66.658 236.564 66.7907C237.839 66.9234 239.12 67.0792 240.401 67.1715C241.041 67.2176 241.682 67.2523 242.322 67.2811C242.962 67.3099 243.58 67.2811 244.214 67.2811C245.483 67.2407 246.77 67.1369 248.057 66.9869C251.137 66.6465 254.31 65.9138 257.46 65.2965C259.191 64.9619 260.922 64.6273 262.705 64.3792L263.01 64.3446C263.068 64.3446 263.057 64.2811 263.08 64.2523L263.12 64.1253L263.305 63.5484C263.368 63.3465 263.443 63.1388 263.495 62.9311C263.726 62.0946 263.957 61.2523 264.135 60.4042C264.601 58.3103 264.945 56.1914 265.168 54.058C265.515 50.8126 265.634 47.547 265.526 44.285C265.411 41.7936 265.17 39.3097 264.805 36.8426C264.741 36.3003 264.632 35.7753 264.557 35.2273C264.349 33.1907 264.337 32.533 264.689 32.0311C264.75 31.9131 264.821 31.8011 264.903 31.6965C265.145 31.4542 265.572 32.233 265.958 33.7215C266.239 34.8359 266.461 35.9644 266.622 37.1023C266.799 38.2561 266.941 39.4099 267.049 40.5638C267.233 42.9234 267.297 45.3234 267.251 47.7292C267.17 51.3183 266.815 54.8961 266.189 58.4311L266.16 58.4599Z" fill="#3B2C7D"/>
<path d="M251.485 69.1039C249.708 69.3404 247.925 69.5424 246.131 69.6808C245.473 69.7097 244.821 69.7847 244.164 69.7789C241.844 69.7688 239.53 69.5759 237.241 69.202C236.231 69.0462 235.216 68.8962 234.223 68.7174C232.94 68.4849 231.675 68.1591 230.439 67.7424C229.677 67.4712 230.756 67.4481 232.216 67.6558C232.868 67.7597 233.514 67.8462 234.166 67.9385C234.818 68.0308 235.458 68.1462 236.104 68.2327C237.402 68.4231 238.712 68.5789 240.021 68.7289C241.619 68.9059 243.229 68.9446 244.833 68.8443C246.604 68.752 248.375 68.5501 250.141 68.302C251.229 68.152 252.318 67.9866 253.406 67.8058C255.044 67.5231 256.7 67.2289 258.327 66.9116C259.591 66.6578 260.814 66.3347 262.071 66.0866C262.348 66.0289 262.614 65.9654 262.896 65.9193C263.941 65.7751 264.293 65.827 264.552 66.0577C264.613 66.1019 264.669 66.1521 264.719 66.2077C264.841 66.3693 264.448 66.6231 263.71 66.8308C261.518 67.4539 259.169 67.8981 256.787 68.3251C255.021 68.6366 253.239 68.902 251.456 69.1847L251.485 69.1039Z" fill="#3B2C7D"/>
<path d="M233.446 46.7311C233.296 48.3349 233.103 49.9311 232.869 51.5196C232.788 52.0965 232.73 52.6734 232.626 53.2503C232.274 55.2869 231.83 57.2888 231.357 59.308L230.751 61.9849C230.518 63.139 230.156 64.2633 229.672 65.3369C229.511 65.6715 229.286 65.5273 229.124 65.1523C228.922 64.6344 228.879 64.0675 229.003 63.5253C229.47 61.258 230.024 58.9907 230.584 56.683C230.885 55.2689 231.112 53.84 231.265 52.4023C231.484 50.8215 231.686 49.2407 231.842 47.6542C231.934 46.6792 232.032 45.6984 232.084 44.7234C232.189 43.245 232.21 41.7619 232.147 40.2811C232.119 39.7165 232.057 39.154 231.963 38.5965C231.865 38.0484 231.813 37.483 231.674 36.9523C231.622 36.7157 231.559 36.4907 231.519 36.2484C231.334 35.3773 231.317 35.0946 231.611 34.783C231.669 34.7138 231.709 34.633 231.755 34.5869C231.87 34.4426 232.332 34.6849 232.62 35.3715C233.039 36.385 233.328 37.4472 233.48 38.533C233.578 39.1099 233.59 39.6292 233.636 40.1773C233.682 40.7253 233.688 41.2792 233.688 41.833V43.0561L233.653 44.2676C233.653 45.0869 233.561 45.9003 233.503 46.708L233.446 46.7311Z" fill="#3B2C7D"/>
<path d="M269.011 46.8465C268.936 48.4446 268.786 50.0311 268.619 51.6177L268.428 53.3484C268.146 55.3792 267.753 57.3869 267.275 59.3773C267.061 60.26 266.865 61.1484 266.64 62.0196C266.351 63.1414 265.991 64.2437 265.561 65.3196C265.296 65.9888 265.255 65.0081 265.515 63.7215L265.861 61.9907C265.988 61.4138 266.138 60.8369 266.253 60.26C266.502 59.1061 266.732 57.9523 266.963 56.7984C267.234 55.4138 267.402 53.96 267.54 52.5234C267.719 50.9542 267.834 49.3734 267.921 47.7869C267.961 46.8119 268.002 45.8369 268.002 44.8619C268.002 43.385 268.002 41.8965 267.875 40.4369C267.794 39.2831 267.592 38.1927 267.442 37.0792C267.407 36.8311 267.35 36.5946 267.321 36.3465C267.228 35.4234 267.28 35.1234 267.517 34.8869C267.564 34.8323 267.614 34.7803 267.667 34.7311C267.834 34.6157 268.077 34.9677 268.244 35.6369C268.758 37.7018 269.025 39.8205 269.04 41.9484C269.04 42.7504 269.08 43.5581 269.04 44.3657C269 45.1734 269.005 45.9754 268.977 46.7831L269.011 46.8465Z" fill="#3B2C7D"/>
<path d="M241.502 84.1731C243.233 84.3577 244.998 84.5019 246.752 84.5943C247.392 84.6346 248.033 84.5943 248.673 84.6519C250.935 84.7327 253.196 84.8423 255.458 84.8077C256.462 84.8077 257.466 84.7154 258.458 84.6577C259.092 84.6058 259.727 84.5423 260.356 84.4673C260.983 84.401 261.606 84.295 262.219 84.15C262.583 84.0519 262.594 84.15 262.317 84.3981C261.847 84.7707 261.302 85.0382 260.719 85.1827C259.424 85.5163 258.105 85.7458 256.773 85.8693C255.452 85.9731 254.125 86.025 252.792 86.0019C251.2 86.0019 249.544 86.0308 247.917 86.0019C246.135 85.9558 244.346 85.8635 242.564 85.7308C241.462 85.65 240.366 85.5577 239.269 85.4423C237.614 85.275 235.952 85.0443 234.308 84.8019C233.033 84.6116 231.764 84.4789 230.483 84.1731C230.196 84.119 229.912 84.0458 229.635 83.9539C229.253 83.833 228.9 83.6368 228.596 83.3769C228.441 83.2057 228.351 82.985 228.342 82.7539C228.334 82.6656 228.334 82.5767 228.342 82.4885C228.342 82.3673 228.498 82.3154 228.712 82.3039C228.997 82.2822 229.283 82.3076 229.56 82.3789C231.608 82.8577 233.927 83.2327 236.252 83.5327C237.983 83.7635 239.742 83.9596 241.502 84.1096V84.1731Z" fill="#3B2C7D"/>
<path d="M261.525 109.616C261.115 111.225 260.619 112.812 260.065 114.381C259.771 115.166 259.488 115.944 259.142 116.689L258.461 118.269C258.461 118.269 258.461 118.316 258.433 118.327H258.231H257.959H257.417H256.748C255.594 118.385 254.394 118.506 253.211 118.598C249.04 118.921 244.829 119.337 240.588 119.285C238.695 119.3 236.806 119.13 234.946 118.777C232.618 118.246 230.319 117.597 228.057 116.833C227.348 116.602 227.481 116.481 228.138 116.481C229.197 116.526 230.251 116.658 231.288 116.873C232.471 117.127 233.659 117.352 234.831 117.56C235.982 117.801 237.151 117.948 238.327 117.998C240.725 118.084 243.127 118.044 245.521 117.877C248.406 117.716 251.44 117.3 254.44 117.029C255.259 116.96 256.09 116.902 256.921 116.862H257.204H257.434L257.481 116.758L257.533 116.648L257.642 116.394L257.879 115.818C258.484 114.308 259.008 112.768 259.448 111.202C259.999 109.271 260.451 107.312 260.804 105.335C261.354 102.342 261.711 99.3162 261.871 96.2772C261.981 93.9233 261.871 91.6156 261.796 89.3022C261.761 88.7887 261.732 88.2926 261.698 87.7791C261.698 85.8695 261.738 85.2579 262.136 84.8137C262.211 84.7105 262.294 84.614 262.384 84.5252C262.644 84.3176 262.961 85.1022 263.232 86.4926C263.815 90.8582 263.84 95.2802 263.307 99.6522C262.966 102.981 262.388 106.282 261.577 109.529L261.525 109.616Z" fill="#3B2C7D"/>
<path d="M247.379 120.467C245.844 120.542 244.304 120.589 242.763 120.606C242.186 120.606 241.638 120.646 241.073 120.606C239.082 120.608 237.097 120.405 235.148 120L232.598 119.354C231.519 119.071 230.458 118.725 229.396 118.402C229.067 118.298 229.136 118.212 229.448 118.171C229.951 118.136 230.457 118.163 230.954 118.252C233.215 118.604 235.344 119.406 237.559 119.573C238.939 119.694 240.324 119.73 241.708 119.683C243.236 119.683 244.771 119.59 246.323 119.504C247.269 119.446 248.215 119.383 249.156 119.308C250.586 119.198 252.04 119.089 253.442 118.939C254.544 118.823 255.623 118.644 256.713 118.529C256.956 118.529 257.192 118.465 257.434 118.448C258.34 118.419 258.64 118.506 258.842 118.76C258.892 118.811 258.936 118.867 258.975 118.927C259.067 119.1 258.709 119.314 258.063 119.44C256.068 119.803 254.053 120.05 252.029 120.179C250.5 120.306 248.948 120.398 247.413 120.496L247.379 120.467Z" fill="#3B2C7D"/>
<path d="M230.03 93.2658C229.823 94.4196 229.604 95.5735 229.321 96.7273C229.223 97.1427 229.171 97.5696 229.061 97.9792C228.686 99.4331 228.242 100.864 227.827 102.3C227.63 102.929 227.498 103.581 227.325 104.216C227.148 105.045 226.889 105.855 226.552 106.633C226.436 106.875 226.194 106.766 225.975 106.477C225.726 106.117 225.623 105.676 225.686 105.243C225.998 103.561 226.44 101.906 227.007 100.293C227.297 99.2834 227.53 98.2587 227.705 97.2235C227.936 96.0696 228.179 94.9619 228.386 93.8254C228.513 93.1273 228.634 92.4292 228.721 91.7254C228.876 90.6667 228.963 89.5991 228.98 88.5292C228.95 87.7225 228.865 86.9188 228.727 86.1235C228.698 85.9504 228.657 85.7831 228.634 85.61C228.548 84.9754 228.582 84.7677 228.905 84.5312L229.073 84.3869C229.205 84.2773 229.615 84.4562 229.823 84.9638C230.115 85.7167 230.308 86.5039 230.4 87.3062C230.454 88.1129 230.454 88.9225 230.4 89.7292C230.342 90.9235 230.186 92.1119 230.013 93.2831L230.03 93.2658Z" fill="#3B2C7D"/>
<path d="M265.021 100.108C264.796 101.689 264.496 103.252 264.179 104.816L263.827 106.547C263.354 108.537 262.771 110.504 262.096 112.443C261.808 113.302 261.519 114.173 261.219 115.016C260.825 116.104 260.363 117.165 259.835 118.195C259.506 118.841 259.558 117.86 259.938 116.597L260.446 114.923C260.625 114.347 260.827 113.822 260.994 113.262C261.352 112.154 261.686 111.035 262.033 109.904C262.431 108.56 262.736 107.123 263.013 105.71C263.342 104.158 263.59 102.595 263.838 101.031C263.971 100.062 264.104 99.0927 264.196 98.1466C264.34 96.6754 264.467 95.1927 264.49 93.7273C264.49 92.5735 264.421 91.4658 264.375 90.3408C264.375 90.0985 264.335 89.8562 264.323 89.6023C264.323 88.6793 264.398 88.3793 264.658 88.1716C264.709 88.1184 264.765 88.0701 264.825 88.0273C265.004 87.9293 265.211 88.2985 265.333 88.985C265.647 91.0854 265.711 93.2157 265.523 95.3312C265.477 96.135 265.408 96.937 265.315 97.737C265.24 98.5389 265.136 99.3408 265.027 100.137L265.021 100.108Z" fill="#3B2C7D"/>
<path d="M178.533 83.4695C180.264 83.6541 182.029 83.7984 183.783 83.8964C184.423 83.9311 185.064 83.8964 185.704 83.9484C187.96 84.0349 190.227 84.1387 192.489 84.1099C193.493 84.1099 194.497 84.0118 195.483 83.9541C196.123 83.908 196.758 83.8388 197.387 83.7638C198.012 83.6988 198.633 83.5948 199.245 83.4522C199.614 83.3484 199.625 83.4522 199.349 83.7003C198.876 84.0717 198.329 84.3373 197.745 84.4791C196.452 84.8127 195.134 85.0422 193.804 85.1657C192.477 85.2734 191.15 85.3176 189.823 85.2984C188.231 85.2984 186.575 85.3272 184.948 85.2984C183.16 85.2522 181.377 85.1599 179.589 85.033C178.493 84.9522 177.397 84.8561 176.3 84.7445C174.639 84.5714 172.983 84.3407 171.339 84.0984C170.058 83.908 168.789 83.7753 167.508 83.4753C167.224 83.4178 166.942 83.3446 166.666 83.2561C166.284 83.1368 165.93 82.9405 165.627 82.6791C165.471 82.5084 165.381 82.2874 165.373 82.0561C165.365 81.9697 165.365 81.8828 165.373 81.7964C165.402 81.6695 165.535 81.6234 165.748 81.6061C166.033 81.5874 166.319 81.6127 166.597 81.6811C168.645 82.1599 170.958 82.5407 173.289 82.8349C175.02 83.0657 176.779 83.2618 178.539 83.4118L178.533 83.4695Z" fill="#3B2C7D"/>
<path d="M198.107 110.694C197.611 112.41 197.021 114.097 196.342 115.748L195.679 117.266L195.557 117.537L195.5 117.669C195.5 117.716 195.407 117.669 195.367 117.669L194.79 117.704L193.919 117.733C193.059 117.768 192.188 117.819 191.323 117.883C190.059 117.981 188.796 118.131 187.521 118.235C183.038 118.593 178.492 119.025 173.929 118.483C171.921 118.218 169.942 117.837 167.998 117.393C165.486 116.832 163.043 116 160.711 114.912C159.996 114.548 160.169 114.456 160.844 114.577C161.184 114.635 161.652 114.733 162.211 114.866C162.771 114.998 163.429 115.131 164.127 115.316C165.367 115.65 166.631 115.893 167.888 116.169C169.146 116.446 170.404 116.694 171.667 116.908C172.302 117.018 172.936 117.11 173.571 117.196C174.206 117.283 174.817 117.346 175.457 117.375C176.727 117.45 178.013 117.468 179.306 117.444C182.409 117.398 185.652 116.966 188.831 116.648C190.59 116.481 192.356 116.314 194.138 116.233H194.421C194.479 116.233 194.473 116.175 194.496 116.146L194.554 116.025L194.79 115.448C194.877 115.246 194.969 115.05 195.038 114.871C195.35 114.058 195.656 113.25 195.915 112.414C196.579 110.37 197.124 108.29 197.548 106.183C198.195 102.985 198.623 99.7468 198.829 96.4906C198.973 93.9752 198.915 91.5002 198.829 88.9906C198.829 88.4426 198.754 87.906 198.736 87.3579C198.736 85.3099 198.771 84.6579 199.169 84.1849C199.241 84.0746 199.322 83.9705 199.411 83.8733C199.677 83.6599 200.029 84.4791 200.271 85.9906C200.443 87.1283 200.557 88.274 200.611 89.4233C200.684 90.5772 200.715 91.7483 200.704 92.9368C200.669 95.3022 200.502 97.6964 200.231 100.091C199.81 103.656 199.117 107.183 198.159 110.643L198.107 110.694Z" fill="#3B2C7D"/>
<path d="M181.886 119.948C180.155 119.994 178.425 120.006 176.659 119.948C176.019 119.913 175.384 119.913 174.744 119.844C172.514 119.582 170.306 119.156 168.138 118.569C167.175 118.327 166.211 118.085 165.253 117.819C164.036 117.471 162.844 117.037 161.688 116.521C160.973 116.181 162.023 116.25 163.419 116.585C164.036 116.746 164.659 116.885 165.276 117.035C165.894 117.185 166.505 117.358 167.128 117.508C168.363 117.808 169.615 118.085 170.867 118.356C172.395 118.681 173.949 118.874 175.511 118.933C177.242 119.025 178.973 119.008 180.703 118.933C181.771 118.898 182.844 118.852 183.905 118.788C185.526 118.685 187.148 118.581 188.751 118.419C189.998 118.292 191.215 118.096 192.444 117.952C192.715 117.917 192.98 117.877 193.251 117.848C194.273 117.79 194.607 117.848 194.844 118.108C194.899 118.159 194.951 118.213 195 118.269C195.109 118.442 194.711 118.667 193.978 118.846C191.718 119.276 189.433 119.557 187.136 119.688C185.405 119.815 183.64 119.902 181.886 119.971V119.948Z" fill="#3B2C7D"/>
<path d="M166.654 95.9021C166.346 97.4906 165.998 99.0617 165.609 100.616C165.471 101.192 165.356 101.769 165.2 102.346C164.657 104.337 164.046 106.304 163.365 108.26C163.077 109.129 162.792 109.998 162.511 110.867C162.165 111.994 161.697 113.079 161.115 114.104C160.925 114.416 160.711 114.254 160.584 113.862C160.435 113.328 160.447 112.762 160.619 112.235C161.3 110.019 162.067 107.816 162.84 105.571C163.275 104.191 163.638 102.789 163.925 101.371C164.294 99.8194 164.646 98.2675 164.969 96.704C165.154 95.7406 165.338 94.7771 165.488 93.8194C165.728 92.3561 165.887 90.8808 165.967 89.4002C165.999 88.8372 165.999 88.2728 165.967 87.7098C165.921 87.1329 165.921 86.5906 165.834 86.0483C165.806 85.8059 165.765 85.5752 165.742 85.3329C165.644 84.4444 165.656 84.179 165.979 83.879C166.042 83.8156 166.088 83.7406 166.14 83.7002C166.267 83.5675 166.688 83.8502 166.925 84.5656C167.25 85.6125 167.444 86.6958 167.502 87.7906C167.542 88.3675 167.502 88.8925 167.502 89.4406C167.502 89.9886 167.456 90.5425 167.398 91.0906L167.282 92.3136L167.121 93.5252C167.017 94.3386 166.873 95.1406 166.74 95.9425L166.654 95.9021Z" fill="#3B2C7D"/>
<path d="M202.226 99.3579C202.036 100.939 201.782 102.508 201.511 104.071L201.211 105.802C200.79 107.804 200.265 109.777 199.665 111.727C199.388 112.587 199.128 113.458 198.834 114.306C198.457 115.399 198.006 116.465 197.484 117.496C197.155 118.137 197.207 117.156 197.576 115.898L198.061 114.225C198.228 113.648 198.424 113.129 198.58 112.564C198.909 111.456 199.221 110.331 199.532 109.2C199.896 107.844 200.155 106.408 200.392 104.994C200.674 103.442 200.894 101.873 201.09 100.304C201.194 99.3405 201.303 98.3713 201.372 97.4194C201.488 95.9482 201.58 94.4713 201.58 93.0059C201.58 91.8521 201.488 90.7502 201.43 89.6309C201.43 89.3829 201.396 89.1405 201.372 88.8925C201.372 87.9694 201.447 87.6752 201.707 87.4617C201.758 87.4104 201.814 87.364 201.874 87.3232C202.048 87.2252 202.255 87.5944 202.382 88.2752C202.703 90.3745 202.79 92.5028 202.642 94.6213C202.607 95.4175 202.561 96.2194 202.486 97.0213C202.411 97.8232 202.342 98.6194 202.249 99.4156L202.226 99.3579Z" fill="#3B2C7D"/>
<path d="M218.074 119.579C224.271 114.964 229.844 109.535 236.098 104.989C237.211 104.175 236.132 102.3 235.001 103.12C228.748 107.666 223.174 113.083 216.984 117.71C215.882 118.535 216.984 120.41 218.074 119.579Z" fill="#3B2C7D"/>
<path d="M220.289 50.8214C219.758 50.7695 219.228 50.7695 218.685 50.7695C218.489 50.7695 218.299 50.8041 218.108 50.8041C217.416 50.8041 216.712 50.8041 216.02 50.8041C215.71 50.8223 215.402 50.8608 215.097 50.9195C214.722 51.0287 214.333 51.0774 213.943 51.0637C213.689 51.0637 213.857 50.0425 214.307 49.9445C215.113 49.7776 215.936 49.7118 216.758 49.7483C217.26 49.7483 217.768 49.6675 218.276 49.656C218.783 49.6445 219.389 49.656 219.949 49.656L220.976 49.7137C221.501 49.7137 222.02 49.806 222.533 49.8464C222.937 49.8868 223.335 49.8464 223.739 49.9214C223.828 49.9154 223.916 49.9154 224.005 49.9214C224.333 49.9906 224.42 50.0829 224.426 50.3541C224.426 50.4118 224.426 50.4752 224.426 50.5329C224.41 50.6328 224.359 50.7236 224.282 50.7884C224.204 50.8531 224.106 50.8874 224.005 50.8849C223.305 50.9339 222.604 50.9339 221.905 50.8849C221.38 50.8502 220.849 50.8041 220.318 50.7925L220.289 50.8214Z" fill="#3B2C7D"/>
<path d="M225.632 51.5194C225.922 51.2441 226.123 50.8885 226.209 50.4983C226.203 50.3802 226.174 50.2645 226.122 50.1579C225.854 49.5861 225.412 49.1136 224.859 48.8079C224.584 48.6389 224.299 48.4867 224.005 48.3521C223.586 48.211 223.209 47.967 222.909 47.6425C222.817 47.5271 223.007 47.3425 223.249 47.204C223.492 47.0656 223.774 46.9502 223.959 47.0483C224.751 47.4003 225.489 47.8625 226.151 48.4214C226.647 48.8115 227.042 49.3138 227.305 49.8867C227.421 50.2627 227.421 50.6647 227.305 51.0406C227.201 51.3683 227.043 51.6764 226.838 51.9521C226.604 52.256 226.346 52.5397 226.065 52.8002C225.661 53.1867 225.211 53.5156 224.79 53.8502C224.455 54.104 224.149 54.3925 223.815 54.6406C223.747 54.7008 223.673 54.7549 223.596 54.8021C223.307 54.9867 223.169 54.9694 222.972 54.8021C222.925 54.7628 222.881 54.7204 222.84 54.6752C222.777 54.5883 222.749 54.4811 222.76 54.3745C222.772 54.2679 222.823 54.1695 222.903 54.0983C223.368 53.5296 223.886 53.0061 224.449 52.5348C224.851 52.2185 225.227 51.8713 225.574 51.4964L225.632 51.5194Z" fill="#3B2C7D"/>
<path d="M214.073 99.4385C214.65 99.4847 215.192 99.5482 215.74 99.6174C215.942 99.6174 216.144 99.6174 216.346 99.6693C217.05 99.7847 217.748 99.9462 218.44 100.09C218.747 100.148 219.057 100.189 219.369 100.212C219.762 100.217 220.152 100.287 220.523 100.419C220.759 100.523 220.303 101.417 219.848 101.377C219.054 101.308 218.268 101.169 217.5 100.962C217.016 100.864 216.526 100.804 216.034 100.783C215.498 100.719 214.961 100.656 214.419 100.615C214.084 100.615 213.755 100.569 213.421 100.564C212.92 100.547 212.419 100.562 211.921 100.61C211.542 100.67 211.168 100.756 210.801 100.869L210.565 100.939C210.265 101.008 210.155 100.939 210.023 100.725C209.99 100.673 209.961 100.619 209.936 100.564C209.902 100.467 209.908 100.361 209.951 100.269C209.994 100.176 210.071 100.104 210.167 100.067C210.847 99.7022 211.595 99.484 212.365 99.427C212.942 99.3924 213.519 99.427 214.096 99.427L214.073 99.4385Z" fill="#3B2C7D"/>
<path d="M207.475 102.56C207.28 102.273 207.117 101.966 206.991 101.643C206.845 101.277 206.791 100.88 206.835 100.489C206.86 100.192 206.951 99.9042 207.1 99.6465C207.602 98.9682 208.292 98.4525 209.085 98.1638C209.383 98.0289 209.674 97.8787 209.956 97.7138C210.279 97.4944 210.618 97.3015 210.972 97.1369C211.081 97.0965 211.249 97.3042 211.318 97.5753C211.362 97.7095 211.367 97.8535 211.332 97.9904C211.297 98.1273 211.224 98.2514 211.122 98.3484C210.41 98.7797 209.665 99.1539 208.895 99.4676C208.523 99.6502 208.233 99.965 208.081 100.35C208.03 100.546 208.021 100.749 208.055 100.948C208.089 101.147 208.164 101.337 208.277 101.504C208.441 101.784 208.635 102.045 208.854 102.283C209.201 102.67 209.588 103.02 210.008 103.327C210.339 103.55 210.682 103.754 211.035 103.939C211.11 103.985 211.191 104.014 211.266 104.066C211.537 104.245 211.589 104.36 211.514 104.643C211.501 104.703 211.483 104.763 211.462 104.821C211.387 105.012 211.185 105.087 210.925 105.023C210.144 104.831 209.413 104.471 208.785 103.968C208.293 103.566 207.853 103.105 207.475 102.595V102.56Z" fill="#3B2C7D"/>
<path d="M186.285 42.5424C187.047 42.5424 187.808 42.5078 188.593 42.4616C188.87 42.4616 189.141 42.3924 189.423 42.3751C190.404 42.3116 191.385 42.2482 192.372 42.1559C192.804 42.1097 193.243 42.0462 193.67 41.977C194.218 41.859 194.776 41.7952 195.337 41.7866C195.695 41.7866 195.372 42.6751 194.76 42.8193C194.148 42.9635 193.641 43.0328 193.07 43.1135C192.498 43.1943 191.916 43.2059 191.339 43.2174C190.647 43.2174 189.937 43.3674 189.233 43.4251C188.529 43.4828 187.675 43.5405 186.897 43.5751C186.418 43.5751 185.933 43.5751 185.454 43.6097C184.727 43.6097 183.995 43.6097 183.268 43.6097C182.691 43.6097 182.148 43.6501 181.589 43.6097C181.464 43.6183 181.339 43.6183 181.214 43.6097C180.758 43.5347 180.637 43.4078 180.562 43.1828C180.545 43.1322 180.533 43.08 180.527 43.027C180.527 42.8655 180.712 42.7501 181.047 42.6866C181.537 42.6289 182.033 42.6001 182.535 42.5655H184.041C184.797 42.5655 185.558 42.5655 186.32 42.5655L186.285 42.5424Z" fill="#3B2C7D"/>
<path d="M190.188 48.185H188.815C188.648 48.185 188.486 48.2312 188.319 48.2312C187.742 48.2312 187.13 48.2312 186.536 48.1965C186.274 48.1945 186.012 48.2099 185.752 48.2427C185.418 48.3091 185.075 48.3091 184.742 48.2427C184.534 48.1908 184.742 47.3369 185.14 47.2792C185.804 47.1731 186.477 47.1421 187.148 47.1869C187.562 47.1876 187.977 47.1626 188.388 47.1119L189.767 47.0427L190.621 47.0023C191.048 47.0023 191.48 46.9677 191.907 46.9158C192.242 46.8696 192.559 46.7658 192.894 46.6965C192.969 46.6965 193.038 46.6562 193.113 46.6504C193.39 46.6504 193.482 46.6965 193.546 47.0081C193.546 47.0773 193.546 47.1465 193.58 47.2215C193.599 47.3244 193.583 47.4306 193.535 47.5235C193.487 47.6164 193.41 47.6908 193.315 47.735C192.757 47.9324 192.175 48.0509 191.584 48.0869C191.134 48.1273 190.673 48.1446 190.217 48.1792L190.188 48.185Z" fill="#3B2C7D"/>
<path d="M249.513 43.056L246.871 43.1483C246.548 43.1483 246.231 43.206 245.907 43.206C244.754 43.206 243.634 43.206 242.498 43.1656C241.99 43.1656 241.482 43.1656 240.981 43.1656C240.314 43.2182 239.643 43.1478 239.002 42.9579C238.794 42.8772 238.904 42.6753 239.117 42.4906C239.226 42.3922 239.351 42.3123 239.486 42.2541C239.634 42.1766 239.799 42.1388 239.965 42.1445C241.2 42.1906 242.504 42.1445 243.807 42.2137C244.592 42.2483 245.4 42.1503 246.202 42.1214L248.85 42.006L250.477 41.9137C251.296 41.856 252.121 41.8099 252.934 41.7176C253.563 41.6426 254.175 41.4868 254.798 41.4003L255.207 41.3368C255.398 41.2959 255.594 41.2959 255.784 41.3368C255.9 41.3892 255.996 41.4784 256.056 41.5906C256.056 41.6426 256.125 41.6887 256.148 41.7406C256.171 41.7926 256.148 41.9022 256.061 41.9945C255.954 42.1157 255.813 42.2038 255.657 42.2483C255.103 42.4279 254.536 42.5686 253.961 42.6695C253.384 42.756 252.807 42.8253 252.196 42.8829C251.313 42.9637 250.425 43.0156 249.536 43.0733L249.513 43.056Z" fill="#3B2C7D"/>
<path d="M248.028 47.8849H246.142C245.911 47.8849 245.68 47.8849 245.455 47.8849C244.642 47.8849 243.828 47.8445 243.015 47.8041C242.657 47.8041 242.294 47.8041 241.942 47.8041C241.483 47.8407 241.021 47.8311 240.563 47.7753C240.275 47.7291 240.638 47.1291 241.14 47.0772C242.07 46.9914 243.005 46.9664 243.938 47.0022C244.515 47.0343 245.092 47.0343 245.669 47.0022H247.573H248.727C249.303 47.0022 249.915 47.0022 250.498 47.0022C250.959 47.0022 251.403 46.9445 251.853 46.9272C251.953 46.9214 252.054 46.9214 252.153 46.9272C252.523 46.9272 252.644 47.008 252.73 47.1464C252.73 47.181 252.771 47.2099 252.782 47.2387C252.794 47.2676 252.667 47.4349 252.396 47.5041C251.578 47.6954 250.747 47.8246 249.909 47.8906C249.595 47.9292 249.279 47.9446 248.963 47.9368H248.011L248.028 47.8849Z" fill="#3B2C7D"/>
<path d="M182.531 93.3406C181.764 93.3406 180.985 93.3752 180.223 93.3694C179.941 93.3694 179.646 93.4098 179.37 93.3694C178.359 93.3461 177.35 93.2536 176.352 93.0925L175.014 92.9079L174.16 92.7636C173.876 92.6952 173.603 92.5905 173.346 92.4521C173.185 92.3656 173.295 92.1175 173.52 91.9098C173.622 91.7927 173.751 91.7018 173.895 91.6446C174.04 91.5874 174.196 91.5656 174.35 91.581C175.4 91.8002 176.473 91.9213 177.587 92.1059C178.272 92.189 178.963 92.2083 179.652 92.1636C180.414 92.1636 181.181 92.1636 181.96 92.1175L183.385 92.0598C184.106 92.0194 184.839 92.0194 185.554 91.9733C186.131 91.9444 186.662 91.8579 187.221 91.8233C187.348 91.8233 187.47 91.7944 187.591 91.8233C188.052 91.8233 188.202 91.9213 188.289 92.1694C188.289 92.2271 188.335 92.2848 188.346 92.3425C188.381 92.5329 188.191 92.6886 187.862 92.7636C186.898 92.9656 185.895 93.0867 184.873 93.2136C184.112 93.3175 183.339 93.3117 182.566 93.3694L182.531 93.3406Z" fill="#3B2C7D"/>
<path d="M180.478 97.8521L178.748 97.7194C178.54 97.7194 178.326 97.7194 178.113 97.7194C177.369 97.6675 176.619 97.5694 175.875 97.4944C175.546 97.4655 175.211 97.4655 174.882 97.4655C174.458 97.5041 174.03 97.4788 173.613 97.3905C173.348 97.3213 173.711 96.4905 174.19 96.4675C175.051 96.4282 175.914 96.4669 176.769 96.5829C177.288 96.6579 177.83 96.6232 178.361 96.6463L180.092 96.7444L181.171 96.8021C181.713 96.8425 182.261 96.8886 182.803 96.8944C183.225 96.8944 183.64 96.854 184.055 96.8482C184.148 96.8482 184.24 96.8482 184.332 96.8482C184.673 96.8482 184.782 96.9348 184.846 97.154C184.864 97.2032 184.879 97.2532 184.892 97.304C184.892 97.4713 184.771 97.604 184.517 97.6617C184.148 97.7482 183.767 97.8117 183.363 97.8636C182.959 97.9155 182.584 97.9098 182.209 97.9213C181.632 97.9213 181.055 97.9213 180.478 97.9213V97.8521Z" fill="#3B2C7D"/>
<path d="M179.173 103.062C178.971 103.027 178.77 102.958 178.556 102.912C178.481 102.912 178.406 102.912 178.325 102.912C178.053 102.841 177.775 102.797 177.495 102.779C177.372 102.775 177.249 102.791 177.131 102.825C176.989 102.903 176.823 102.928 176.664 102.894C176.554 102.854 176.468 101.954 176.664 101.891C177.015 101.777 177.392 101.767 177.748 101.862C177.967 101.882 178.187 101.882 178.406 101.862C178.647 101.876 178.886 101.911 179.121 101.966L179.548 102.075L180.189 102.248C180.35 102.289 180.523 102.283 180.691 102.312H180.806C180.933 102.358 180.962 102.427 180.927 102.623L180.898 102.762C180.888 102.825 180.861 102.884 180.82 102.934C180.78 102.983 180.727 103.021 180.668 103.044C180.379 103.13 180.079 103.167 179.779 103.154L179.162 103.068L179.173 103.062Z" fill="#3B2C7D"/>
<path d="M243.014 93.8716C243.776 93.9696 244.543 94.0389 245.322 94.085C245.605 94.085 245.899 94.085 246.17 94.085L249.17 94.235C249.614 94.235 250.064 94.235 250.503 94.235C251.078 94.1673 251.659 94.1673 252.234 94.235C252.586 94.2927 252.136 95.1639 251.495 95.2158C250.343 95.3069 249.186 95.3069 248.034 95.2158C247.33 95.1408 246.603 95.2158 245.882 95.1754C245.161 95.135 244.295 95.0946 243.505 95.0196C243.014 94.9735 242.53 94.9158 242.039 94.8581C241.301 94.7658 240.568 94.6216 239.841 94.5062C239.264 94.4023 238.687 94.3562 238.139 94.2466C238.012 94.2466 237.886 94.2119 237.764 94.1773C237.309 94.0446 237.188 93.9177 237.188 93.6004C237.188 93.5254 237.188 93.4504 237.188 93.3812C237.234 93.1389 237.476 93.0119 237.805 93.0523C238.78 93.1562 239.755 93.3696 240.77 93.5196C241.52 93.6408 242.276 93.7504 243.043 93.8196L243.014 93.8716Z" fill="#3B2C7D"/>
<path d="M243.801 101.279C244.181 101.367 244.566 101.43 244.954 101.47C245.093 101.47 245.237 101.47 245.376 101.47C245.878 101.504 246.385 101.498 246.904 101.47C247.135 101.47 247.366 101.47 247.597 101.423C247.89 101.383 248.187 101.383 248.479 101.423C248.664 101.452 248.428 101.885 248.11 101.931C247.536 102.014 246.959 102.068 246.379 102.093C246.022 102.093 245.647 102.185 245.272 102.202C244.859 102.231 244.444 102.231 244.031 102.202C243.778 102.202 243.524 102.162 243.276 102.127C242.895 102.075 242.526 101.995 242.151 101.954C241.776 101.914 241.574 101.914 241.285 101.879C241.222 101.885 241.158 101.885 241.095 101.879C240.864 101.833 240.801 101.758 240.789 101.55C240.789 101.498 240.789 101.452 240.789 101.406C240.797 101.328 240.831 101.254 240.887 101.199C240.943 101.143 241.016 101.108 241.095 101.1C241.62 101.009 242.156 101.009 242.681 101.1C243.068 101.152 243.454 101.21 243.835 101.291L243.801 101.279Z" fill="#3B2C7D"/>
<path d="M123.892 127.465C122.438 127.379 120.852 127.465 119.958 126.127C119.3 125.123 117.65 126.063 118.342 127.073C119.669 129.098 121.677 129.213 123.892 129.34C125.098 129.41 125.092 127.535 123.892 127.465Z" fill="#3B2C7D"/>
<path d="M120.096 90.0983C120.385 90.0349 120.569 90.3464 120.587 90.8425C120.568 91.0718 120.49 91.2924 120.362 91.4829C120.212 91.581 120.079 91.6848 119.964 91.7541C119.462 91.8377 118.973 91.979 118.504 92.1752C118.166 92.3256 117.817 92.449 117.46 92.5445C116.739 92.7522 115.989 92.9772 115.25 93.2541C115.082 93.311 114.908 93.3478 114.731 93.3637C114.11 93.4287 113.51 93.6254 112.971 93.9406C112.885 93.9868 112.781 94.0156 112.723 94.1425C112.164 94.5485 111.553 94.8765 110.906 95.1175C110.329 95.1983 109.821 95.3829 109.262 95.5041C109.181 95.5041 109.123 95.5791 109.008 95.5041C108.921 95.4498 108.821 95.421 108.719 95.421C108.617 95.421 108.517 95.4498 108.431 95.5041C108.201 95.5896 107.966 95.659 107.727 95.7118C107.579 95.7164 107.431 95.6969 107.289 95.6541C107.15 95.6541 107.023 95.3368 107.035 95.2849C107.075 95.1406 106.919 95.0599 106.839 94.9502C106.809 94.9136 106.782 94.875 106.758 94.8349C107.026 94.3012 107.349 93.7966 107.721 93.3291C107.721 93.2425 109.487 92.106 109.689 91.9675C109.799 91.9029 109.924 91.8672 110.052 91.8637C110.11 91.8637 111.552 90.9579 111.627 90.9406C111.941 90.76 112.298 90.6701 112.66 90.681C112.733 90.6878 112.806 90.6695 112.867 90.6291C113.425 90.3972 114.005 90.2251 114.598 90.1156C114.898 90.0406 115.175 89.9195 115.504 89.8445C115.563 89.8358 115.624 89.8358 115.683 89.8445C115.755 89.8559 115.829 89.8559 115.902 89.8445C116.623 89.6252 117.408 89.6656 118.181 89.5156C118.371 89.5156 119.248 89.7118 119.473 89.7348C119.635 89.7637 119.998 90.1156 120.096 90.0983Z" fill="#3B2C7D"/>
<path d="M121.29 103.956C121.325 104.089 121.354 103.512 121.336 103.125C121.315 102.694 121.269 102.264 121.198 101.839C121.188 101.758 121.169 101.678 121.14 101.602C121.134 101.562 121.134 101.521 121.14 101.481C121.14 101.481 121.14 101.389 121.111 101.4H120.84L120.638 101.435L120.234 101.51L118.631 101.821C118.115 101.922 117.604 102.049 117.102 102.202C116.475 102.435 115.828 102.611 115.169 102.727C114.956 102.727 114.886 102.473 114.956 102.15C114.992 101.962 115.07 101.784 115.185 101.63C115.3 101.476 115.448 101.35 115.619 101.262C116.904 100.697 118.264 100.324 119.657 100.154L120.107 100.085L120.327 100.033L120.615 99.9637C121.111 99.8252 121.619 99.6694 122.132 99.5137C122.282 99.8621 122.413 100.218 122.525 100.581C122.704 101.145 122.831 101.724 122.906 102.312C122.983 102.808 123.02 103.31 123.015 103.812C123.015 103.939 123.015 104.216 122.975 104.389C122.938 104.596 122.888 104.8 122.825 105C122.743 105.332 122.545 105.624 122.267 105.822C121.988 106.02 121.648 106.111 121.307 106.079C121.164 106.077 121.022 106.052 120.886 106.004C120.757 105.947 120.636 105.871 120.529 105.779C120.413 105.691 120.312 105.586 120.229 105.468C120.13 105.353 120.045 105.227 119.975 105.093C119.832 104.848 119.71 104.591 119.611 104.325C119.342 103.661 119.126 102.976 118.965 102.277C118.928 102.119 118.899 101.959 118.879 101.798C118.867 101.668 118.867 101.536 118.879 101.406C118.902 101.308 118.945 101.216 119.006 101.135C119.056 101.065 119.123 101.009 119.202 100.973C119.297 100.939 119.395 100.915 119.496 100.904C119.578 100.897 119.661 100.897 119.744 100.904C119.885 100.922 120.016 100.985 120.119 101.083C120.193 101.126 120.256 101.185 120.304 101.256C120.357 101.324 120.4 101.4 120.431 101.481C120.569 101.983 120.719 102.519 120.881 103.039C120.961 103.298 121.054 103.546 121.14 103.789C121.14 103.852 121.192 103.904 121.215 103.956C121.215 103.956 121.215 104.031 121.273 103.956H121.29Z" fill="#3B2C7D"/>
<path d="M194.423 156.145C194.232 155.412 194.042 154.674 193.8 153.958C193.684 153.595 193.575 153.231 193.453 152.874L193.05 151.806C192.865 151.281 192.6 150.791 192.38 150.283C192.017 149.372 191.567 148.5 191.163 147.6C190.759 146.7 190.252 145.87 189.715 145.027C189.248 144.289 188.742 143.576 188.198 142.893L187.125 141.612C186.761 141.185 186.38 140.781 186.028 140.343C185.584 139.8 186.663 139.945 187.69 140.816C189.426 142.423 190.878 144.314 191.982 146.406C192.663 147.641 193.402 148.916 194.002 150.231C194.336 150.952 194.613 151.697 194.913 152.429C195.213 153.162 195.455 153.924 195.68 154.685L196.096 156.087L196.453 157.506C196.805 158.937 197.03 160.391 197.267 161.85C197.417 163.004 197.671 164.077 197.752 165.214C197.781 165.463 197.797 165.713 197.798 165.964C197.763 166.899 197.607 167.199 197.221 167.377C197.145 167.427 197.064 167.468 196.978 167.499C196.707 167.574 196.471 167.193 196.321 166.541C195.894 164.614 195.744 162.612 195.363 160.604C195.225 159.866 195.069 159.122 194.913 158.377C194.757 157.633 194.59 156.889 194.336 156.156L194.423 156.145Z" fill="#3B2C7D"/>
<path d="M126.949 207.075C125.622 207.048 124.297 206.983 122.974 206.879C122.495 206.839 122.01 206.822 121.526 206.775C119.827 206.592 118.142 206.307 116.478 205.922L115.37 205.662L114.274 205.385C113.334 205.153 112.417 204.839 111.533 204.445C110.956 204.197 111.914 203.925 112.941 204.248C114.781 204.825 116.668 205.2 118.583 205.587C119.759 205.794 120.946 205.937 122.137 206.014C123.453 206.123 124.768 206.198 126.089 206.227C126.903 206.227 127.716 206.227 128.53 206.227C129.764 206.227 130.999 206.175 132.222 206.083C133.168 206.008 134.097 205.887 135.031 205.783L135.643 205.708C136.416 205.633 136.664 205.662 136.855 205.841C136.898 205.878 136.938 205.919 136.976 205.962C137.068 206.1 136.762 206.262 136.203 206.372C135.372 206.545 134.506 206.677 133.635 206.793C132.764 206.908 131.858 206.96 130.964 207.006C129.631 207.075 128.287 207.081 126.926 207.075H126.949Z" fill="#3B2C7D"/>
</svg>
