<svg width="300" height="300" viewBox="0 0 300 300" fill="none" xmlns="http://www.w3.org/2000/svg">
<path d="M157.13 165.698C157.048 165.345 156.998 164.986 156.98 164.625C156.952 164.509 156.933 164.391 156.922 164.273C156.933 163.851 156.987 163.432 157.083 163.021C157.104 162.848 157.104 162.674 157.083 162.502C157.083 162.282 156.997 162.046 157.181 161.832C157.239 161.763 157.574 161.832 157.908 161.902C158.243 161.971 158.589 162.092 158.606 162.19C158.708 162.545 158.708 162.92 158.606 163.275C158.52 163.511 158.647 163.719 158.687 163.938C158.728 164.157 158.768 164.411 158.826 164.642C158.861 164.779 158.909 164.912 158.97 165.04C159.034 165.23 159.152 165.396 159.31 165.519C159.382 165.542 159.458 165.542 159.53 165.519C159.605 165.519 159.691 165.45 159.737 165.461H159.812C159.893 165.461 159.887 165.634 159.858 166.13V166.465C159.871 166.616 159.845 166.767 159.784 166.905C159.722 167.043 159.627 167.164 159.506 167.255C159.201 167.391 158.859 167.421 158.535 167.339C158.21 167.258 157.923 167.07 157.718 166.805C157.57 166.645 157.441 166.469 157.331 166.28C157.239 166.095 157.161 165.902 157.101 165.704L157.13 165.698Z" fill="#3B2C7D"/>
<path d="M130.035 87.6058C129.874 88.702 129.77 89.827 129.695 90.952C129.695 91.3673 129.695 91.777 129.695 92.1923C129.626 93.6462 129.539 95.1173 129.539 96.5885C129.543 97.2406 129.587 97.8919 129.672 98.5385C129.842 99.3597 129.889 100.202 129.81 101.037C129.712 101.567 127.739 101.037 127.653 100.085C127.483 98.3573 127.497 96.6169 127.693 94.8923C127.814 93.8539 127.693 92.775 127.734 91.7077C127.768 90.5539 127.866 89.3654 127.982 88.1943C128.062 87.4731 128.149 86.752 128.264 86.0308C128.42 84.9404 128.674 83.8616 128.893 82.7943C129.072 81.9577 129.164 81.1154 129.366 80.2789C129.412 80.1 129.435 79.9096 129.493 79.702C129.718 79.0385 129.932 78.877 130.474 78.952C130.601 78.952 130.728 78.952 130.849 79.0039C131.048 79.0655 131.215 79.2009 131.317 79.3822C131.419 79.5636 131.448 79.7771 131.397 79.9789C131.212 81.4212 130.86 82.8173 130.589 84.2712C130.393 85.35 130.191 86.4404 130.087 87.5596L130.035 87.6058Z" fill="#3B2C7D"/>
<path d="M156.643 82.0096C153.608 78.5942 148.635 77.0076 144.158 77.0769C142.768 77.0769 142.762 79.2634 144.158 79.2403C148.099 79.1769 152.437 80.5269 155.12 83.5384C156.049 84.5826 157.572 83.048 156.649 82.0096H156.643Z" fill="#3B2C7D"/>
<path d="M233.336 117.871C232.944 111.473 230.775 107.809 226.125 103.534C222.548 100.234 218.475 96.6112 217.979 91.517C217.5 86.5439 219.132 81.3573 219.415 76.4304C221.377 40.2631 190.286 41.9593 182.267 48.5189C170.123 28.6035 140.002 35.417 129.577 40.8516C123.011 44.2785 116.584 50.9824 113.284 57.865C110.233 64.2585 108.876 71.3289 109.344 78.3977C109.679 84.8593 111.623 91.1708 111.346 97.6497C111.057 104.365 107.036 108.305 103.061 113.152C93.1209 125.267 109.581 153.998 147.836 144.23C147.836 144.23 151.154 152.18 156.675 152.798C159.9 153.155 163.373 147.859 164.417 142.955C171.519 142.955 181.932 153.19 181.932 153.19C193.452 155.26 205.332 153.205 215.486 147.386C226.009 141.467 234.098 130.327 233.336 117.871ZM186.761 103.904C185.082 103.586 177.934 129.127 163.044 132.75C155.544 134.567 147.542 133.217 141.784 128.025C135.894 122.705 131.977 115.298 130.165 107.596C129.554 104.971 128.434 98.6823 128.434 98.6766C117.756 97.4593 113.013 80.74 123.427 76.7247C126.888 75.8074 128.567 78.7439 131.44 79.517C131.954 79.6554 132.456 79.8112 132.957 79.9439C154.638 85.7131 170.579 73.1304 175.004 71.6016C180.836 70.4477 184.696 91.0266 185.607 89.2381C188.365 83.8093 193.656 81.34 197.757 83.8381C207.957 90.0574 197.088 105.848 186.761 103.904Z" fill="#3B2C7D"/>
<path d="M101.624 131.394C100.224 128.811 99.3531 125.975 99.0628 123.052C98.7738 120.06 99.3759 117.049 100.794 114.398C101.164 113.734 101.586 113.102 102.057 112.506C102.501 111.929 102.946 111.427 103.396 110.902C104.284 109.846 105.167 108.802 105.986 107.74C107.66 105.728 108.916 103.402 109.678 100.898C110.005 99.6503 110.181 98.3681 110.203 97.0786C110.235 95.7425 110.188 94.4056 110.065 93.0748C109.828 90.3863 109.367 87.6863 108.951 84.9402C108.496 82.1679 108.242 79.3664 108.19 76.5575C108.15 73.7145 108.386 70.8743 108.894 68.0767C109.622 63.9996 110.96 60.0553 112.863 56.3767C114.812 52.7248 117.312 49.3953 120.276 46.5056C122.863 43.9252 125.811 41.7349 129.028 40.0036C132.278 38.3941 135.695 37.1462 139.217 36.2825C142.704 35.3824 146.261 34.7764 149.849 34.4709C151.644 34.3094 153.449 34.2633 155.255 34.269C157.063 34.2981 158.867 34.4252 160.661 34.6498C162.461 34.8739 164.243 35.2287 165.992 35.7113C167.751 36.1856 169.467 36.8091 171.121 37.5748C172.777 38.3492 174.359 39.2742 175.846 40.3383L176.924 41.1863L177.461 41.6133L177.963 42.0806L178.967 43.0152L179.896 44.0248L180.363 44.5325L180.784 45.069L181.632 46.1536C181.886 46.5056 182.209 47.0017 182.244 47.0709L182.405 47.3133C182.434 47.3133 182.451 47.4229 182.492 47.4056L182.607 47.3248L182.838 47.1575L183.288 46.8863C183.686 46.6325 184.113 46.4536 184.528 46.2402C185.365 45.8546 186.227 45.5251 187.107 45.2536C190.609 44.2071 194.28 43.8447 197.919 44.1863C201.161 44.4718 204.317 45.3828 207.213 46.869C209.395 47.9829 211.362 49.4753 213.022 51.2767L213.847 52.1767L214.615 53.1517C216.544 55.7588 217.968 58.7036 218.815 61.8344C219.648 64.9171 220.116 68.0868 220.211 71.2786C220.251 72.294 220.297 73.3152 220.246 74.3306C220.194 75.3459 220.246 76.3556 220.136 77.3883C219.963 79.4363 219.622 81.4267 219.322 83.4171C218.989 85.3622 218.796 87.3289 218.746 89.3017C218.719 90.2554 218.781 91.2095 218.93 92.1517C219.098 93.07 219.381 93.9636 219.772 94.8113C220.638 96.53 221.769 98.1013 223.124 99.4671C224.474 100.904 225.963 102.207 227.44 103.621C228.937 105.045 230.25 106.652 231.346 108.404C232.442 110.193 233.203 112.168 233.59 114.231C233.773 115.148 233.864 116.082 233.861 117.017C233.861 117.594 233.774 117.865 233.671 117.836C233.446 117.779 233.18 116.544 232.546 114.542C232.166 113.367 231.683 112.228 231.103 111.138C230.343 109.762 229.414 108.485 228.34 107.336C227.763 106.702 227.111 106.056 226.396 105.421C225.68 104.786 224.936 104.134 224.134 103.431C222.374 101.95 220.78 100.283 219.38 98.4575C218.72 97.554 218.15 96.5878 217.678 95.5729C217.203 94.5246 216.873 93.4163 216.697 92.2786C216.543 91.1839 216.487 90.0776 216.53 88.9729C216.559 87.894 216.646 86.8267 216.772 85.7767C217.026 83.6883 217.401 81.6575 217.69 79.6729C217.834 78.6748 217.949 77.6883 218.019 76.7133C218.088 75.7383 218.082 74.7229 218.117 73.7248C218.151 72.7267 218.076 71.7286 218.059 70.7306C218.059 70.2344 218.007 69.7383 217.961 69.2421L217.822 67.7594C217.713 66.7729 217.522 65.8036 217.378 64.8286L217.038 63.3921C216.937 62.9104 216.81 62.4347 216.657 61.9671L216.213 60.5652C216.069 60.0979 215.855 59.6594 215.676 59.2036C215.306 58.3059 214.886 57.4295 214.419 56.5786C213.451 54.9104 212.274 53.3729 210.917 52.0036C208.106 49.3143 204.602 47.4605 200.797 46.6498C196.948 45.8054 192.958 45.833 189.121 46.7306C188.653 46.8633 188.174 46.9729 187.707 47.1171C187.24 47.2613 186.778 47.3998 186.334 47.5959C185.886 47.7659 185.447 47.9584 185.019 48.1729C184.805 48.2825 184.586 48.3748 184.39 48.5017L184.09 48.6806L183.899 48.7902C183.79 48.8541 183.684 48.9234 183.582 48.9979L182.428 49.8229L182.14 50.0248L181.996 50.1286C181.967 50.1633 181.949 50.1286 181.938 50.1286L181.886 50.0536L181.494 49.4767L180.224 47.5498C179.942 47.1517 179.647 46.7709 179.33 46.3959C179.174 46.1998 179.03 45.9979 178.869 45.819L178.372 45.2767C177.715 44.5426 177.016 43.8472 176.278 43.194C175.527 42.5537 174.741 41.9548 173.924 41.3998C172.279 40.2807 170.512 39.3517 168.657 38.6306C164.092 36.9258 159.245 36.0997 154.372 36.1959C149.391 36.2316 144.433 36.8886 139.615 38.1517C137.197 38.773 134.826 39.5635 132.519 40.5171C130.233 41.4545 128.072 42.6715 126.086 44.1402C122.078 47.0824 118.645 50.7376 115.961 54.9229C114.507 57.2146 113.321 59.6652 112.424 62.2267C111.511 64.789 110.869 67.44 110.509 70.1363C110.148 72.8396 110.038 75.5705 110.18 78.294C110.363 81.0382 110.691 83.7708 111.161 86.4806C111.646 89.2518 111.969 92.0488 112.13 94.8575C112.2 96.2913 112.157 97.7284 112.003 99.1556C111.808 100.608 111.42 102.028 110.849 103.379C109.736 106.084 107.965 108.392 106.194 110.544C105.305 111.623 104.388 112.673 103.534 113.734C102.732 114.764 102.095 115.912 101.647 117.138C101.132 118.68 100.891 120.301 100.938 121.927C100.956 122.744 101.03 123.559 101.157 124.367C101.301 125.176 101.494 125.976 101.734 126.761C101.98 127.546 102.269 128.316 102.599 129.069C102.946 129.819 103.331 130.551 103.753 131.261C104.597 132.696 105.589 134.037 106.713 135.265C109.006 137.737 111.709 139.795 114.703 141.346C117.685 142.895 120.87 144.018 124.165 144.681C128.052 145.445 132.021 145.705 135.974 145.454L137.457 145.367C137.953 145.327 138.444 145.257 138.934 145.206C139.921 145.09 140.907 144.998 141.882 144.807C142.857 144.617 143.838 144.502 144.801 144.271L146.255 143.942L147.149 143.74C147.501 143.665 147.865 143.567 148.205 143.509L148.563 144.317L148.747 144.709L148.909 145.032C149.088 145.379 149.272 145.719 149.486 146.054C149.874 146.723 150.3 147.37 150.761 147.992C151.648 149.228 152.745 150.298 154.003 151.154C154.309 151.361 154.649 151.506 154.967 151.69C155.284 151.875 155.647 151.961 155.999 152.036L156.524 152.146C156.611 152.146 156.703 152.186 156.784 152.192H157.021C157.099 152.198 157.178 152.198 157.257 152.192L157.499 152.146L157.736 152.1L157.972 152.007C158.635 151.735 159.236 151.331 159.738 150.819C160.276 150.293 160.76 149.713 161.18 149.088C162.043 147.82 162.733 146.442 163.234 144.992C163.372 144.629 163.476 144.259 163.586 143.896C163.661 143.636 163.73 143.354 163.799 143.088L163.903 142.679L163.961 142.477C163.961 142.419 163.961 142.309 164.065 142.344L164.901 142.379L165.709 142.465H165.905L166.055 142.494L166.367 142.557C166.569 142.592 166.771 142.644 166.972 142.696C168.543 143.127 170.056 143.747 171.478 144.542C172.884 145.309 174.242 146.161 175.546 147.092C176.763 147.957 177.946 148.869 179.082 149.809C179.659 150.277 180.236 150.756 180.761 151.24L181.58 151.973L182.238 152.59L183.247 152.757C183.64 152.832 184.038 152.873 184.436 152.925C185.226 153.046 186.028 153.104 186.824 153.179C188.417 153.282 190.015 153.34 191.607 153.288C197.97 153.121 204.241 151.718 210.069 149.157C212.973 147.902 215.743 146.356 218.336 144.542C221.099 142.578 223.572 140.233 225.68 137.579C227.351 135.503 228.774 133.24 229.921 130.834C230.681 129.192 231.306 127.49 231.79 125.746C231.986 125.042 232.176 124.413 232.274 123.831C232.372 123.248 232.522 122.734 232.626 122.261C232.765 121.315 232.967 120.531 233.094 119.861C233.221 119.192 233.313 118.396 233.428 118.021C233.544 117.646 233.624 117.79 233.728 118.263C233.774 118.5 233.826 118.84 233.878 119.256C233.949 119.768 233.98 120.285 233.971 120.802C233.967 124.535 233.162 128.224 231.611 131.619C230.616 133.805 229.4 135.883 227.982 137.821C225.083 141.733 221.469 145.061 217.332 147.629C215.251 148.908 213.085 150.041 210.847 151.021C208.596 151.991 206.283 152.812 203.924 153.479C201.534 154.124 199.101 154.602 196.644 154.909C194.17 155.223 191.676 155.347 189.184 155.279C187.938 155.244 186.686 155.163 185.44 155.036C184.811 154.984 184.188 154.881 183.565 154.806C183.253 154.765 182.942 154.702 182.636 154.656L181.321 154.425L180.692 153.848L180.351 153.531L179.636 152.884C179.174 152.475 178.707 152.065 178.228 151.667C177.274 150.863 176.299 150.094 175.303 149.359C173.352 147.875 171.252 146.597 169.038 145.546C167.983 145.048 166.871 144.681 165.726 144.456C165.351 144.386 165.513 144.421 165.472 144.415L165.397 144.663C165.299 144.992 165.201 145.327 165.08 145.644C164.632 146.946 164.052 148.199 163.349 149.382C162.625 150.625 161.708 151.745 160.632 152.7C159.989 153.256 159.247 153.686 158.446 153.969C158.223 154.041 157.995 154.097 157.765 154.136C157.644 154.136 157.528 154.182 157.407 154.194H157.038C156.598 154.193 156.16 154.139 155.734 154.032C154.204 153.659 152.789 152.914 151.615 151.863C150.516 150.893 149.547 149.786 148.73 148.569C148.321 147.992 147.951 147.369 147.576 146.752C147.415 146.446 147.219 146.094 147.086 145.829H147.028L146.636 145.915L145.061 146.273C144.011 146.504 142.944 146.654 141.888 146.85C139.755 147.187 137.606 147.407 135.449 147.507C131.099 147.741 126.738 147.352 122.497 146.354C118.211 145.368 114.146 143.593 110.509 141.121C106.823 138.633 103.773 135.313 101.607 131.429L101.624 131.394Z" fill="#3B2C7D"/>
<path d="M148.953 82.4303C148.154 82.5245 147.351 82.5784 146.547 82.5919C145.739 82.5919 144.937 82.6842 144.135 82.6553L141.724 82.5515C141.32 82.5226 140.916 82.5515 140.518 82.4822L139.324 82.3265L136.929 82.0092C136.139 81.8707 135.36 81.6688 134.576 81.5015C133.791 81.3342 132.995 81.1669 132.268 80.9246L131.114 80.5957C130.889 80.5265 130.664 80.4572 130.445 80.3765C130.226 80.2957 130.024 80.2034 129.822 80.1053C128.224 79.3092 127.047 78.2534 125.858 77.8438C125.294 77.6376 124.685 77.5819 124.093 77.6822C123.949 77.7111 123.747 77.7457 123.718 77.7572L123.262 77.9534C122.946 78.0942 122.639 78.2561 122.345 78.438C121.167 79.147 120.21 80.1698 119.581 81.3919C118.962 82.648 118.64 84.0298 118.641 85.4303C118.66 87.548 119.195 89.6291 120.201 91.4931C121.206 93.357 122.651 94.9475 124.41 96.1265C124.699 96.2938 124.987 96.4669 125.276 96.6169C125.564 96.7669 125.853 96.9169 126.181 97.0207C126.488 97.1444 126.802 97.2484 127.122 97.3322L127.601 97.4592C127.657 97.4753 127.715 97.4869 127.774 97.4938L127.987 97.5284L128.408 97.5976L128.887 97.8111L129.008 97.863H129.066C129.095 97.863 128.835 98.1169 128.951 98.0072L129.095 98.1803C129.328 98.4487 129.476 98.7798 129.522 99.1322L129.787 100.592L130.272 103.286C130.612 105.086 130.924 106.869 131.379 108.594C132.281 112.064 133.622 115.405 135.372 118.534C138.879 124.696 144.072 130.413 151.093 132.011C154.481 132.839 158.007 132.925 161.431 132.265C162.278 132.11 163.114 131.902 163.935 131.642C164.747 131.374 165.536 131.042 166.295 130.65C167.816 129.849 169.231 128.86 170.506 127.707C173.818 124.753 176.403 121.009 178.664 117.121C179.818 115.171 180.839 113.169 181.854 111.138C182.87 109.107 183.81 107.059 184.918 105.011C185.17 104.5 185.51 104.038 185.922 103.644C186.084 103.499 186.284 103.403 186.499 103.367C186.741 103.367 186.839 103.442 186.793 103.476C186.747 103.511 186.585 103.563 186.504 103.684C186.415 103.81 186.346 103.951 186.303 104.1C186.193 104.428 186.072 104.89 185.904 105.473C184.841 109.397 183.327 113.186 181.393 116.763C179.085 120.888 176.46 124.915 172.964 128.301C171.208 130.041 169.191 131.497 166.987 132.617C165.857 133.171 164.672 133.604 163.451 133.909C162.261 134.196 161.055 134.406 159.839 134.538C154.948 135.171 149.979 134.327 145.572 132.115C144.479 131.536 143.437 130.866 142.456 130.113C141.96 129.755 141.51 129.323 141.037 128.93C140.564 128.538 140.16 128.094 139.739 127.661C138.059 125.928 136.55 124.036 135.233 122.013C132.957 118.488 131.193 114.658 129.995 110.636C129.408 108.617 128.93 106.568 128.564 104.498L127.987 101.428L127.699 99.8995L127.647 99.5995C127.647 99.4842 127.537 99.5072 127.462 99.4899H127.324C127.278 99.4899 127.243 99.4899 127.116 99.4438L126.481 99.2765C126.061 99.1589 125.647 99.0202 125.241 98.8611C124.43 98.5274 123.657 98.1097 122.933 97.6149C121.517 96.6388 120.297 95.4037 119.339 93.9745C118.389 92.5906 117.675 91.0581 117.228 89.4399C116.762 87.8161 116.6 86.1206 116.749 84.438C116.895 82.715 117.468 81.0555 118.416 79.6092C119.396 78.1703 120.754 77.0287 122.339 76.3092L122.916 76.0553L123.095 75.9745C123.165 75.9531 123.236 75.9358 123.308 75.9226L123.649 75.8534C124.105 75.7704 124.57 75.7452 125.033 75.7784C125.937 75.8597 126.813 76.1352 127.601 76.5861C129.089 77.4169 130.254 78.4207 131.57 78.7784C133.076 79.2515 134.593 79.5399 136.104 79.8861C136.485 79.9669 136.86 80.0765 137.258 80.1226L138.412 80.2726L140.72 80.5726C144.529 80.8731 148.36 80.6987 152.126 80.0534C155.903 79.3655 159.59 78.2506 163.116 76.7303C165.801 75.583 168.426 74.2986 170.979 72.8822C171.637 72.5419 172.266 72.1842 172.941 71.8438C173.287 71.6822 173.593 71.4976 173.962 71.3476L174.504 71.1226L174.816 70.9899L175.203 70.938C176.098 70.8934 176.978 71.188 177.666 71.763C178.285 72.2589 178.829 72.8418 179.281 73.4938C180.139 74.7378 180.871 76.0635 181.468 77.4515C182.074 78.813 182.622 80.1976 183.106 81.5822C183.591 82.9669 184.07 84.3688 184.537 85.7476L184.889 86.7746L185.103 87.3515C185.172 87.5493 185.255 87.7421 185.351 87.9284C185.377 87.9725 185.406 88.0149 185.437 88.0553C185.472 88.0957 185.529 88.1361 185.57 88.0899C185.61 88.0438 185.674 87.9111 185.726 87.8188C185.778 87.7265 185.87 87.5476 185.945 87.4265L186.199 87.0342C186.199 86.9938 186.337 86.8495 186.418 86.7457L186.678 86.4111C186.846 86.18 187.029 85.9603 187.226 85.7534C187.422 85.5457 187.606 85.3207 187.803 85.1303C188.624 84.3082 189.573 83.6243 190.612 83.1053C191.668 82.5705 192.823 82.262 194.004 82.1995C195.2 82.1487 196.39 82.3966 197.466 82.9207C197.992 83.1834 198.495 83.4882 198.972 83.8322C199.442 84.1765 199.881 84.5627 200.281 84.9861C201.108 85.8507 201.738 86.8839 202.128 88.0149C202.832 90.2886 202.722 92.7368 201.816 94.938C201.458 95.9164 200.993 96.8527 200.431 97.7303C199.884 98.6159 199.248 99.4432 198.533 100.2C195.839 103.038 193.272 104.042 191.518 104.44C190.305 104.765 189.022 104.717 187.837 104.301C187.485 104.178 187.149 104.016 186.833 103.817C186.678 103.69 186.753 103.603 187.024 103.546C187.295 103.488 187.751 103.488 188.379 103.407C190.283 103.214 192.12 102.599 193.756 101.607C196.15 100.147 198.094 98.0548 199.376 95.5611C199.994 94.3398 200.385 93.0164 200.529 91.6553C200.665 90.3559 200.44 89.0443 199.878 87.8649C199.251 86.7092 198.329 85.7399 197.206 85.0553L196.999 84.9169L196.785 84.813L196.37 84.5938L195.931 84.438L195.712 84.3572L195.487 84.3111C194.882 84.1629 194.255 84.1238 193.635 84.1957C192.326 84.3729 191.089 84.9034 190.058 85.7303C189.78 85.9306 189.517 86.1524 189.274 86.3938C189.017 86.6294 188.774 86.8798 188.547 87.1438C188.309 87.4103 188.085 87.6896 187.878 87.9803L187.791 88.0842L187.751 88.1419L187.67 88.2745L187.364 88.788L186.741 89.8207C186.579 90.138 186.458 90.1092 186.326 90.2072L185.928 90.438L185.524 90.6688C185.368 90.7015 185.207 90.7015 185.051 90.6688C184.735 90.5905 184.453 90.4149 184.243 90.1669C183.944 89.8009 183.708 89.3875 183.545 88.9438C183.343 88.4592 183.158 87.9342 182.968 87.4207L182.697 86.6303L182.166 85.0669C181.462 82.9842 180.741 80.9245 179.893 78.9457C179.328 77.5669 178.638 76.2422 177.833 74.988C177.475 74.4281 177.044 73.9179 176.553 73.4707C176.236 73.1444 175.807 72.9505 175.353 72.9284C175.353 72.9284 175.231 72.9284 175.272 72.9284H175.197L174.729 73.1245C174.429 73.2457 174.066 73.4534 173.737 73.6149C173.062 73.9553 172.364 74.3476 171.672 74.7111C170.276 75.4611 168.862 76.2169 167.414 76.9149C164.516 78.3445 161.511 79.5462 158.426 80.5092C157.664 80.7746 156.868 80.9361 156.083 81.1553L154.929 81.4669L153.735 81.7092C152.933 81.8534 152.143 82.0322 151.341 82.1592L148.918 82.4476L148.953 82.4303Z" fill="#3B2C7D"/>
<path d="M81.5391 222.479C85.1926 214.675 89.4216 207.155 94.191 199.979C95.9218 197.365 97.6237 194.735 99.4468 192.19C105.877 183.226 112.773 174.604 120.106 166.361C123.354 162.721 126.643 159.029 130.099 155.625C132.291 153.415 134.495 151.188 136.866 149.117C138.043 148.066 139.277 147.082 140.564 146.169C141.841 145.239 143.192 144.413 144.603 143.7C146.397 142.858 146.27 143.256 145.029 144.375C143.789 145.494 141.637 147.56 139.001 149.879C136.629 151.91 134.385 154.108 132.147 156.346L128.806 159.715C127.716 160.84 126.643 162.023 125.57 163.177C121.295 167.85 117.153 172.667 113.045 177.554C108.153 183.415 103.445 189.836 99.0429 196.281C94.1439 203.328 89.7113 210.688 85.7737 218.313C83.3724 222.995 81.3132 227.844 79.6121 232.823C78.3139 236.589 77.3486 240.461 76.7275 244.396L76.5141 245.873C76.4781 246.108 76.4588 246.345 76.4564 246.583C76.4391 246.815 76.4391 247.048 76.4564 247.281C76.4761 248.2 76.672 249.107 77.0333 249.952C77.4337 250.778 77.99 251.518 78.6717 252.133C79.3759 252.746 80.1722 253.244 81.0314 253.61C82.389 254.173 83.8374 254.485 85.3064 254.533C86.0415 254.566 86.7782 254.545 87.5102 254.469C88.2544 254.388 88.9987 254.308 89.7314 254.169C91.203 253.928 92.6522 253.565 94.0641 253.085C95.4755 252.618 96.8472 252.04 98.166 251.354C98.7429 251.071 99.3198 250.719 99.8968 250.408C100.474 250.096 101.01 249.733 101.553 249.352C103.589 247.985 104.835 246.946 105.776 246.288C106.409 245.784 107.125 245.393 107.893 245.135C108.146 245.039 108.406 244.966 108.672 244.915C109.001 244.915 108.851 245.308 108.297 246.069C107.418 247.202 106.411 248.23 105.297 249.133C103.099 250.986 100.671 252.549 98.0737 253.783C96.7398 254.398 95.3654 254.923 93.9602 255.352C92.5391 255.777 91.0892 256.099 89.6218 256.315C88.8833 256.448 88.1448 256.488 87.4006 256.575L86.2468 256.627C85.8602 256.627 85.4679 256.627 85.0929 256.598C83.4973 256.512 81.9265 256.165 80.4429 255.571C78.8845 254.948 77.4992 253.959 76.4044 252.686C75.1217 251.069 74.4206 249.068 74.4141 247.004L74.4602 246.075C74.5121 245.498 74.6102 244.961 74.6852 244.402L74.9217 242.763C74.9967 242.186 75.1352 241.679 75.2391 241.136C75.6544 238.967 76.2256 236.838 76.8429 234.733C78.1201 230.543 79.6815 226.445 81.516 222.467L81.5391 222.479Z" fill="#3B2C7D"/>
<path d="M231.843 227.054C229.979 223.188 227.937 219.375 225.981 215.481C224.026 211.586 221.943 207.883 219.739 204.19C218.118 201.502 216.381 198.871 214.679 196.229C213.172 193.89 211.643 191.571 210.093 189.271C208.535 186.963 206.995 184.656 205.391 182.394C202.187 177.867 198.795 173.479 195.214 169.229C193.627 167.348 191.995 165.49 190.327 163.679C188.66 161.867 186.981 160.061 185.222 158.394C182.949 156.248 180.549 154.2 178.212 152.048C177.018 150.958 175.962 149.775 174.883 148.65C173.85 147.502 172.688 146.476 171.422 145.592C170.608 145.102 170.233 144.929 170.268 144.842C170.734 144.816 171.2 144.911 171.618 145.119C172.728 145.554 173.787 146.111 174.774 146.781C175.424 147.229 176.048 147.715 176.643 148.235L177.606 149.065L178.564 149.965C180.872 152.083 183.422 154.119 185.776 156.346C186.964 157.454 188.147 158.619 189.237 159.808C190.327 160.996 191.447 162.167 192.537 163.367C196.896 168.186 200.998 173.232 204.826 178.483C207.133 181.633 209.395 184.904 211.662 188.175C213.929 191.446 216.208 194.752 218.36 198.104C220.72 201.79 222.976 205.552 225.099 209.394C226.16 211.31 227.17 213.271 228.156 215.215L231.145 221.031C233.702 225.794 235.936 230.725 237.831 235.788C238.195 236.752 238.489 237.738 238.801 238.719C239.112 239.7 239.377 240.698 239.585 241.713C240.076 243.725 240.412 245.771 240.589 247.835C240.822 249.946 240.626 252.083 240.012 254.117C239.336 256.219 237.895 257.99 235.974 259.079C234.506 259.862 232.89 260.326 231.231 260.44C229.631 260.582 228.02 260.553 226.426 260.354C223.201 259.963 220.115 258.814 217.42 257.002C216.236 256.22 215.121 255.34 214.085 254.371C212.699 253.107 211.53 251.624 210.624 249.981C210.174 249.253 209.903 248.428 209.833 247.575C209.811 247.302 209.811 247.028 209.833 246.756C209.902 246.444 210.272 246.704 210.86 247.402C211.449 248.1 212.343 249.213 213.554 250.54C215.306 252.559 217.37 254.283 219.67 255.646C220.817 256.308 222.022 256.864 223.27 257.308C224.53 257.722 225.829 258.008 227.147 258.161C228.487 258.315 229.84 258.34 231.185 258.236C232.447 258.148 233.68 257.815 234.814 257.256C235.344 256.989 235.831 256.643 236.256 256.229C236.69 255.819 237.066 255.354 237.376 254.844C238 253.751 238.376 252.534 238.477 251.279C238.644 249.245 238.535 247.197 238.154 245.192C237.792 243.104 237.301 241.041 236.683 239.013C235.371 234.918 233.739 230.933 231.802 227.094L231.843 227.054Z" fill="#3B2C7D"/>
<path d="M140.837 168.305C140.188 168.606 139.494 168.801 138.783 168.882C138.015 168.974 137.236 168.891 136.504 168.64C135.722 168.359 135.046 167.841 134.572 167.157C134.157 166.528 133.894 165.811 133.804 165.063C133.659 164.107 133.659 163.134 133.804 162.178C134.423 159.094 135.533 156.129 137.093 153.398C137.762 152.203 138.443 151.009 139.187 149.867C139.674 149.132 140.201 148.425 140.768 147.75C141.338 147.028 142.036 146.418 142.827 145.95C143.404 145.673 143.404 146.059 143.266 146.584C143.057 147.314 142.716 148 142.262 148.609C141.253 149.951 140.352 151.371 139.568 152.855C138.766 154.35 137.952 155.855 137.208 157.407C136.339 159.278 135.821 161.292 135.679 163.35C135.642 163.871 135.663 164.396 135.743 164.913C135.821 165.363 135.997 165.79 136.256 166.165C136.564 166.497 136.954 166.742 137.386 166.874C137.819 167.007 138.279 167.023 138.72 166.921C140.031 166.592 141.246 165.96 142.268 165.075C143.957 163.685 145.542 162.173 147.01 160.552C148.164 159.3 149.243 157.978 150.472 156.761C150.738 156.481 151.02 156.215 151.314 155.965C152.468 155.036 152.993 154.927 153.524 155.255C153.649 155.321 153.767 155.401 153.876 155.492C154.187 155.821 153.876 156.352 153.177 156.992C151.106 158.93 149.081 161.336 146.831 163.644C145.989 164.509 145.101 165.375 144.149 166.171C143.16 167.031 142.067 167.764 140.895 168.352L140.837 168.305Z" fill="#3B2C7D"/>
<path d="M174.454 166.084C175.271 166.63 176.131 167.106 177.027 167.509C177.237 167.606 177.452 167.689 177.673 167.757C177.878 167.833 178.088 167.893 178.302 167.936C178.521 168 178.7 167.982 178.879 168.023C179.045 168.03 179.211 168.018 179.375 167.988C179.796 167.896 180.038 167.636 180.286 167.123C180.731 166.275 180.65 164.977 180.379 163.754C180.077 162.482 179.65 161.243 179.104 160.056C178.607 158.979 178.04 157.937 177.408 156.934C176.6 155.648 175.677 154.425 174.967 153.063C174.742 152.636 175.077 152.486 175.608 152.607C176.332 152.806 176.967 153.245 177.408 153.854C178.355 155.146 179.224 156.495 180.009 157.892C180.831 159.315 181.473 160.834 181.919 162.415C182.202 163.425 182.395 164.458 182.496 165.502C182.606 166.708 182.281 167.913 181.579 168.9C181.094 169.477 180.426 169.87 179.686 170.013C179.041 170.115 178.381 170.084 177.748 169.921C176.639 169.634 175.576 169.191 174.592 168.606C173.431 167.934 172.311 167.192 171.24 166.384C169.619 165.184 168.102 163.875 166.579 162.611C165.396 161.625 164.179 160.719 163.008 159.727C162.748 159.513 162.483 159.317 162.229 159.092C161.3 158.25 161.115 157.875 161.306 157.292C161.337 157.157 161.381 157.026 161.438 156.9C161.646 156.513 162.258 156.617 162.996 157.148C165.194 158.734 167.311 160.581 169.492 162.34C171.077 163.665 172.739 164.894 174.471 166.021L174.454 166.084Z" fill="#3B2C7D"/>
<path d="M161.284 165.352C161.277 165.933 161.155 166.507 160.926 167.042C160.782 167.349 160.587 167.63 160.349 167.873C160.222 168.003 160.079 168.115 159.922 168.207L159.686 168.352L159.438 168.461L159.311 168.513C158.858 168.689 158.356 168.689 157.903 168.513C157.483 168.317 157.13 168.002 156.888 167.607C156.713 167.316 156.575 167.004 156.478 166.679C156.309 166.115 156.201 165.534 156.155 164.948L155.999 163.448C155.867 162.779 155.935 162.087 156.195 161.457C156.334 161.209 156.657 161.457 156.986 161.677C157.314 161.896 157.661 162.161 157.672 162.455C157.707 163.529 157.863 164.688 157.972 165.767C158.008 166.056 158.111 166.332 158.272 166.575C158.306 166.627 158.35 166.671 158.401 166.705C158.453 166.739 158.511 166.761 158.572 166.771C158.625 166.782 158.68 166.782 158.734 166.771C158.953 166.771 159.241 166.425 159.311 165.888C159.373 165.45 159.355 165.004 159.259 164.573C159.137 163.875 158.864 163.214 158.457 162.634C158.304 162.439 158.106 162.285 157.88 162.184C157.841 162.163 157.797 162.151 157.753 162.15C157.739 162.143 157.723 162.139 157.707 162.139C157.691 162.139 157.675 162.143 157.661 162.15C157.66 162.132 157.66 162.115 157.661 162.098V162.017C157.663 162.002 157.663 161.986 157.661 161.971C157.661 161.971 157.661 162.023 157.661 162.029C157.686 162.095 157.728 162.155 157.782 162.202C157.73 162.254 157.505 162.352 157.003 162.202C156.882 162.173 156.761 162.161 156.651 162.132C156.56 162.113 156.474 162.075 156.397 162.022C156.321 161.968 156.256 161.9 156.207 161.821C156.15 161.72 156.117 161.607 156.11 161.491C156.103 161.375 156.122 161.259 156.166 161.152C156.206 161.037 156.26 160.929 156.328 160.829L156.438 160.661C156.49 160.603 156.546 160.547 156.605 160.494C156.865 160.236 157.209 160.079 157.574 160.05C157.912 160.018 158.252 160.068 158.566 160.194C158.802 160.286 159.023 160.41 159.224 160.563C159.818 161.031 160.29 161.637 160.597 162.329C161.042 163.261 161.279 164.278 161.289 165.311L161.284 165.352Z" fill="#3B2C7D"/>
<path d="M162.112 176.348C161.924 176.795 161.631 177.191 161.258 177.502C160.857 177.828 160.385 178.057 159.88 178.171C159.52 178.295 159.139 178.34 158.76 178.304C158.454 178.255 158.162 178.14 157.906 177.965C157.649 177.79 157.435 177.561 157.278 177.294C156.946 176.74 156.736 176.123 156.66 175.482C156.62 175.165 156.58 174.854 156.557 174.525C156.533 174.173 156.533 173.821 156.557 173.469C156.557 173.232 156.597 172.996 156.632 172.748C156.658 172.517 156.698 172.287 156.753 172.061C156.832 171.694 157.001 171.351 157.243 171.063C157.428 170.867 157.687 171.144 157.941 171.444C158.195 171.744 158.472 172.073 158.437 172.356V172.5C158.418 172.516 158.403 172.535 158.391 172.557C158.282 172.8 158.217 173.06 158.201 173.325C158.159 173.523 158.196 173.73 158.305 173.902C158.397 174.011 158.518 174.017 158.657 174.08C158.804 174.167 158.975 174.205 159.145 174.188C159.315 174.172 159.475 174.102 159.603 173.988C159.729 173.824 159.787 173.617 159.764 173.411C159.732 172.989 159.571 172.586 159.303 172.257C159.182 172.125 159.035 172.021 158.87 171.952C158.781 171.905 158.686 171.872 158.587 171.854C158.547 171.854 158.53 171.854 158.501 171.854C158.472 171.854 158.501 171.917 158.501 171.825C158.496 171.775 158.496 171.725 158.501 171.675C158.503 171.64 158.503 171.605 158.501 171.571C158.513 171.602 158.533 171.63 158.558 171.652C158.558 171.681 158.593 171.681 158.628 171.709C158.662 171.749 158.7 171.784 158.743 171.813C158.743 171.813 158.743 171.813 158.708 171.813C158.666 171.837 158.619 171.851 158.57 171.854C158.399 171.902 158.222 171.919 158.045 171.906C157.93 171.906 157.814 171.906 157.705 171.906C157.616 171.908 157.529 171.889 157.449 171.852C157.369 171.815 157.299 171.761 157.243 171.692C157.182 171.611 157.137 171.519 157.11 171.421C157.082 171.282 157.082 171.139 157.11 171C157.147 170.862 157.2 170.728 157.266 170.602C157.36 170.445 157.477 170.303 157.612 170.181C157.786 170.048 157.981 169.947 158.189 169.881C158.377 169.83 158.572 169.811 158.766 169.823C159.298 169.87 159.805 170.07 160.226 170.4C160.655 170.751 161.028 171.166 161.333 171.629C161.621 172.06 161.859 172.523 162.043 173.007C162.514 174.071 162.557 175.276 162.164 176.371L162.112 176.348Z" fill="#3B2C7D"/>
<path d="M200.652 202.73C200.554 200.827 200.439 198.923 200.237 197.065C200.197 196.598 200.116 196.159 200.058 195.703L199.931 195.08C199.931 194.965 199.931 195.005 199.931 194.971C199.931 194.936 199.931 194.936 199.931 194.925L199.891 194.89L199.776 194.838C199.599 194.761 199.418 194.694 199.233 194.636C198.814 194.513 198.388 194.412 197.958 194.336C196.117 194.025 194.257 193.832 192.391 193.759C190.499 193.667 188.595 193.638 186.685 193.632C183.904 193.632 181.118 193.736 178.331 193.811C168.524 194.1 158.664 194.671 148.833 195.346C144.472 195.657 140.093 196.044 135.772 196.453C130.216 196.927 124.66 197.607 119.076 197.763C118.755 197.79 118.433 197.79 118.112 197.763C117.916 197.728 117.772 197.671 117.801 197.607C118.144 197.35 118.537 197.167 118.954 197.071C119.67 196.834 120.685 196.546 121.931 196.246C122.549 196.096 123.224 195.94 123.945 195.807C124.666 195.675 125.427 195.577 126.252 195.484L134.751 194.573C137.589 194.29 140.433 194.065 143.277 193.84C148.97 193.39 154.685 193.025 160.424 192.744C167.295 192.438 174.431 191.936 181.481 191.786C185.352 191.705 189.229 191.688 193.129 191.89C195.106 191.966 197.074 192.197 199.014 192.582C199.536 192.694 200.045 192.854 200.537 193.061C200.647 193.119 200.837 193.194 200.993 193.292L201.466 193.603C201.486 193.615 201.503 193.63 201.516 193.65C201.529 193.669 201.538 193.69 201.541 193.713L201.593 193.846L201.685 194.111C201.755 194.271 201.809 194.437 201.847 194.607L202.008 195.375L202.112 196.113C202.187 196.609 202.222 197.094 202.279 197.584C202.51 199.978 202.626 202.355 202.729 204.738C202.833 207.121 202.914 209.498 202.983 211.875C203.191 219.08 203.277 226.298 203.445 233.457C203.577 239.013 203.808 244.459 204.022 249.94C204.074 251.146 204.131 252.328 204.183 253.546C204.27 255.796 204.304 257.278 204.247 258.323C204.251 259.055 204.124 259.782 203.872 260.469C203.807 260.696 203.73 260.919 203.641 261.138C203.514 261.38 203.306 261.052 203.064 260.227C202.758 258.991 202.565 257.73 202.487 256.459C201.789 246.652 201.627 236.267 201.374 225.882C201.189 218.175 201.062 210.415 200.652 202.73Z" fill="#3B2C7D"/>
<path d="M144.274 264.905C140.484 264.952 136.688 264.934 132.891 264.79C129.06 264.694 125.241 264.308 121.468 263.636C120.023 263.38 118.618 262.932 117.291 262.304C117.113 262.194 116.974 262.142 116.714 261.957C116.455 261.773 116.218 261.605 116.005 261.409C116.005 261.109 115.953 260.832 115.941 260.509L115.907 259.967L115.791 257.902C115.341 248.175 115.214 238.459 115.013 228.75C114.914 224.44 114.816 220.096 114.724 215.832C114.643 213.086 114.566 210.338 114.493 207.588C114.459 206.209 114.453 204.836 114.441 203.463C114.441 202.777 114.441 202.09 114.441 201.404V199.35C114.441 197.671 114.557 197.844 114.961 199.28C115.139 199.996 115.37 201.011 115.601 202.263C115.838 203.68 115.996 205.109 116.074 206.544C116.524 217.765 116.651 228.969 116.789 240.277C116.83 243.657 116.934 247.102 117.084 250.563C117.164 252.294 117.251 254.025 117.332 255.755L117.482 258.352L117.557 259.65L117.591 260.296C117.591 260.411 117.591 260.463 117.591 260.527L117.684 260.602C117.733 260.636 117.785 260.667 117.839 260.694C118.023 260.808 118.216 260.906 118.416 260.988C118.614 261.081 118.816 261.164 119.022 261.236C119.23 261.317 119.438 261.392 119.657 261.455C120.536 261.725 121.432 261.937 122.339 262.09C124.188 262.411 126.052 262.638 127.924 262.771C131.691 263.065 135.482 263.146 139.278 263.157C143.951 263.157 148.63 263.048 153.297 262.863C160.376 262.58 167.489 262.177 174.505 261.652C179.957 261.242 185.293 260.688 190.659 260.198L194.207 259.875C198.649 259.534 200.109 259.586 201.084 260.111C201.304 260.199 201.511 260.315 201.701 260.457C201.863 260.659 201.563 260.746 200.778 260.919C199.57 261.147 198.351 261.311 197.126 261.409C187.526 262.402 177.355 263.307 167.126 263.942C159.528 264.421 151.878 264.773 144.228 264.911L144.274 264.905Z" fill="#3B2C7D"/>
<path d="M116.406 260.192C116.406 260.192 105.444 260.278 104.608 261.577C102.594 264.721 123.606 265.321 134.29 264.461C134.29 264.473 118.35 262.373 116.406 260.192Z" fill="#3B2C7D"/>
<path d="M162.028 209.954C160.874 210.04 159.766 210.092 158.635 210.069C158.22 210.069 157.81 210.104 157.389 210.069C156.968 210.034 156.645 209.994 156.264 209.936C155.84 209.874 155.423 209.764 155.024 209.607C154.553 209.405 154.164 209.052 153.916 208.604C153.706 208.226 153.565 207.814 153.501 207.386C153.406 206.723 153.363 206.054 153.374 205.384C153.357 204.597 153.419 203.811 153.558 203.036C153.605 202.811 153.939 202.8 154.285 203.002C154.483 203.117 154.652 203.277 154.776 203.47C154.9 203.662 154.977 203.881 155.001 204.109C155.001 204.934 155.03 205.702 155.064 206.417C155.088 206.728 155.135 207.036 155.203 207.34C155.252 207.55 155.346 207.747 155.48 207.917L155.537 207.992L155.589 208.021C155.589 208.021 155.589 208.021 155.647 208.056L155.78 208.09C155.983 208.135 156.189 208.162 156.397 208.171C156.853 208.171 157.332 208.171 157.81 208.171C158.86 208.136 159.939 208.107 161.012 208.009C161.67 207.952 162.328 207.877 162.968 207.767C163.268 207.704 163.58 207.652 163.868 207.571C164.108 207.523 164.341 207.443 164.56 207.334C164.751 207.191 164.889 206.988 164.953 206.757C165.003 206.107 164.858 205.456 164.537 204.888C164.474 204.744 164.393 204.606 164.33 204.456C164.273 204.355 164.238 204.243 164.225 204.128C164.212 204.014 164.222 203.897 164.255 203.786C164.342 203.58 164.499 203.41 164.699 203.307C164.808 203.238 164.907 203.157 165.01 203.105C165.21 203.016 165.435 202.999 165.646 203.058C165.857 203.117 166.04 203.248 166.164 203.429C166.647 204.117 166.967 204.906 167.099 205.736C167.18 206.277 167.151 206.828 167.012 207.357C166.833 208.006 166.453 208.581 165.928 209.002C165.907 209.022 165.884 209.04 165.858 209.054C165.749 209.134 165.628 209.198 165.512 209.267C165.41 209.329 165.301 209.381 165.189 209.423C165.016 209.486 164.826 209.555 164.67 209.596C164.364 209.682 164.058 209.757 163.77 209.809C163.193 209.925 162.616 209.994 162.039 210.069L162.028 209.954Z" fill="#3B2C7D"/>
<path d="M102.039 221.538C101.462 221.965 100.85 222.398 100.256 222.842C100.043 223.003 99.8581 223.205 99.6389 223.361C98.8601 223.938 98.0639 224.463 97.2389 224.965C96.8812 225.202 96.5351 225.455 96.1947 225.709C95.7854 226.078 95.3096 226.366 94.7927 226.557C94.6254 226.603 94.4754 226.315 94.4235 225.98C94.3817 225.817 94.3797 225.645 94.4179 225.481C94.456 225.316 94.5331 225.163 94.6427 225.034C95.458 224.355 96.3218 223.736 97.2274 223.182C97.7826 222.819 98.3022 222.403 98.7793 221.942L100.51 220.552L101.595 219.698C102.137 219.259 102.708 218.855 103.239 218.405C103.649 218.053 104 217.632 104.393 217.252C104.474 217.162 104.563 217.079 104.658 217.003C105.022 216.732 105.206 216.761 105.547 217.125C105.622 217.205 105.702 217.286 105.772 217.373C105.883 217.496 105.95 217.654 105.962 217.82C105.973 217.987 105.929 218.152 105.835 218.29C105.249 219.04 104.559 219.702 103.787 220.257L102.056 221.578L102.039 221.538Z" fill="#3B2C7D"/>
<path d="M217.718 226.154C217.113 225.444 216.478 224.746 215.803 224.094C215.561 223.846 215.272 223.667 215.024 223.425C214.159 222.577 213.247 221.769 212.307 220.979C211.891 220.627 211.424 220.344 210.986 220.038C210.376 219.69 209.797 219.291 209.255 218.844C209.093 218.688 209.255 218.446 209.572 218.267C209.743 218.162 209.934 218.094 210.133 218.068C210.331 218.041 210.533 218.056 210.726 218.111C212.135 218.564 213.42 219.336 214.482 220.367C215.116 220.99 215.907 221.458 216.599 222.034C217.291 222.611 218.076 223.356 218.774 224.059C219.207 224.486 219.622 224.931 220.032 225.381C220.661 226.05 221.238 226.771 221.872 227.429C222.363 227.942 222.911 228.392 223.413 228.9C223.527 229.003 223.631 229.117 223.724 229.24C223.797 229.319 223.854 229.412 223.891 229.513C223.927 229.614 223.944 229.722 223.938 229.829C223.933 229.937 223.906 230.042 223.859 230.139C223.813 230.236 223.747 230.323 223.666 230.394C223.605 230.478 223.54 230.559 223.47 230.636C223.319 230.755 223.136 230.825 222.944 230.837C222.753 230.849 222.562 230.804 222.397 230.706C221.312 230.064 220.349 229.236 219.553 228.259C218.924 227.573 218.301 226.875 217.643 226.206L217.718 226.154Z" fill="#3B2C7D"/>
<path d="M129.577 97.3039C128.887 95.2562 128.705 93.0714 129.047 90.9378C129.388 88.8042 130.244 86.7855 131.539 85.0558C132.455 83.7878 133.59 82.6937 134.89 81.825C137.227 80.3429 139.995 79.6906 142.748 79.9731C144.087 80.0919 145.403 80.3928 146.66 80.8673C147.282 81.098 147.892 81.3599 148.489 81.6519C149.083 81.9534 149.661 82.2866 150.219 82.65C151.222 83.3131 152.117 84.1264 152.873 85.0615C153.613 85.9993 154.213 87.0389 154.656 88.1481C155.817 90.9886 155.802 94.174 154.615 97.0039C154.24 97.8635 154.039 97.6269 153.964 96.8135C153.964 96.6058 153.964 96.3692 153.917 96.0981C153.871 95.8269 153.865 95.5212 153.854 95.2154C153.842 94.9096 153.814 94.5577 153.819 94.2058C153.825 93.8538 153.785 93.4846 153.819 93.1039C153.838 90.4263 152.869 87.8359 151.096 85.8289C150.657 85.3435 150.177 84.8976 149.66 84.4962C149.4 84.2942 149.117 84.1212 148.846 83.9192L147.946 83.4058C146.727 82.7458 145.428 82.2455 144.081 81.9173C142.442 81.5139 140.73 81.5159 139.093 81.923C137.455 82.3301 135.942 83.1301 134.683 84.2538C133.263 85.4878 132.165 87.0484 131.482 88.8012C130.8 90.5539 130.554 92.4464 130.765 94.3154C131 96.3667 131.775 98.3189 133.012 99.9722C134.249 101.626 135.902 102.921 137.804 103.725C139.447 104.419 141.213 104.775 142.996 104.769C144.349 104.759 145.686 104.466 146.919 103.91C148.13 103.341 149.228 102.559 150.162 101.602C150.571 101.179 150.956 100.735 151.315 100.269C152.665 98.5385 152.971 97.9039 153.623 97.6731C153.753 97.6016 153.888 97.5399 154.027 97.4885C154.396 97.3558 154.442 98.4981 153.548 100.085C152.187 102.584 150.022 104.552 147.404 105.669C146.026 106.227 144.557 106.522 143.071 106.54C141.613 106.549 140.161 106.355 138.756 105.963C136.632 105.368 134.683 104.27 133.073 102.762C131.466 101.252 130.252 99.3722 129.537 97.2865L129.577 97.3039Z" fill="#3B2C7D"/>
<path d="M184.135 90.3055C185.144 92.2503 185.67 94.409 185.67 96.5998C185.63 98.7688 185.057 100.895 184.002 102.79C183.265 104.159 182.315 105.401 181.187 106.471C179.189 108.319 176.736 109.604 174.079 110.192C171.423 110.793 168.644 110.524 166.152 109.425C165.058 108.945 164.031 108.322 163.1 107.573C162.174 106.807 161.371 105.904 160.718 104.896C159.869 103.622 159.243 102.214 158.866 100.731C158.476 99.2234 158.512 97.6377 158.97 96.1498C159.31 95.2325 159.547 95.4979 159.714 96.294C159.812 96.6979 159.939 97.2344 160.118 97.8344C160.297 98.4344 160.435 99.1036 160.62 99.8305C161.116 102.476 162.534 104.86 164.624 106.557C166.803 108.236 169.523 109.057 172.268 108.865L172.891 108.813C173.099 108.813 173.306 108.744 173.514 108.709C173.931 108.637 174.344 108.539 174.749 108.415C175.569 108.157 176.36 107.813 177.108 107.388C178.618 106.537 179.955 105.41 181.049 104.065C181.653 103.339 182.172 102.545 182.595 101.7C183.89 99.1642 184.168 96.2299 183.374 93.4959C183.2 92.9392 182.992 92.3939 182.75 91.8632C182.64 91.5966 182.511 91.3383 182.364 91.0902C182.226 90.8391 182.074 90.5964 181.908 90.3632C181.243 89.418 180.41 88.6026 179.45 87.9575C177.977 86.9477 176.302 86.2687 174.541 85.9671C172.789 85.6415 170.984 85.7324 169.274 86.2325C167.965 86.6129 166.738 87.2288 165.65 88.0498C164.596 88.8762 163.675 89.8609 162.922 90.969C162.766 91.2171 162.604 91.4594 162.448 91.7017L162.033 92.4863C161.012 94.4479 160.758 95.1171 160.02 95.3709C159.866 95.4488 159.706 95.5125 159.541 95.5613C159.299 95.6075 159.172 95.3767 159.16 94.9036C159.168 94.209 159.313 93.5227 159.587 92.8844C159.708 92.5671 159.823 92.2498 159.962 91.9325L160.429 91.0152L160.672 90.5479L160.954 90.1094C161.15 89.8152 161.335 89.5325 161.531 89.2267C162.403 88.066 163.448 87.0464 164.629 86.2036C167.102 84.4894 170.07 83.6378 173.075 83.7805C175.298 83.8934 177.467 84.5047 179.422 85.569C181.432 86.642 183.086 88.278 184.181 90.2767L184.135 90.3055Z" fill="#3B2C7D"/>
<path d="M148.32 109.108C148.711 107.301 149.313 105.546 150.114 103.881C150.38 103.304 150.587 102.686 150.853 102.098L152.295 99.0114C152.785 97.9902 153.27 96.9691 153.726 95.9422C154.135 95.0249 154.482 94.0845 154.793 93.1441C155.151 91.926 155.575 90.7281 156.062 89.5556C156.224 89.1922 156.483 89.3076 156.691 89.7114C156.977 90.288 157.068 90.942 156.951 91.5749C156.824 92.2319 156.647 92.878 156.42 93.5076C156.212 94.1364 155.987 94.7652 155.745 95.3826C155.26 96.6172 154.724 97.8287 154.124 99.0114C153.403 100.425 152.826 101.965 152.197 103.436C151.455 105.01 150.828 106.635 150.322 108.3C150.022 109.248 149.928 110.249 150.045 111.236C150.083 111.531 150.228 111.801 150.453 111.996C150.677 112.191 150.965 112.296 151.262 112.292C152.009 112.295 152.746 112.117 153.408 111.773C154.481 111.228 155.456 110.508 156.293 109.644C156.483 109.465 156.651 109.269 156.83 109.067C157.048 108.81 157.301 108.583 157.58 108.392C157.783 108.29 158.017 108.266 158.237 108.323C158.356 108.333 158.474 108.352 158.589 108.381C158.953 108.473 158.987 109.073 158.503 109.777C157.769 110.792 156.863 111.671 155.826 112.373C154.725 113.168 153.466 113.715 152.133 113.977C151.508 114.095 150.864 114.063 150.253 113.884C149.891 113.767 149.555 113.579 149.266 113.332C148.977 113.084 148.74 112.782 148.568 112.442C148.291 111.885 148.147 111.27 148.147 110.648C148.134 110.126 148.173 109.604 148.262 109.09L148.32 109.108Z" fill="#3B2C7D"/>
<path d="M159.899 94.8808C158.549 93.3346 156.218 92.7 154.401 93.8423C153.38 94.4885 154.32 96.1096 155.347 95.4635C156.501 94.7481 157.759 95.2731 158.578 96.2077C159.397 97.1423 160.695 95.7865 159.899 94.8808Z" fill="#3B2C7D"/>
<path d="M164.914 82.3784C168.179 80.0707 173.492 79.7881 177.185 81.1554C178.494 81.6342 179.054 79.5457 177.762 79.0669C173.585 77.5265 167.521 77.8727 163.823 80.5092C162.704 81.3111 163.783 83.1919 164.919 82.3784H164.914Z" fill="#3B2C7D"/>
<path d="M143.195 93.7034C145.658 93.9573 148.456 94.0381 150.735 95.0996C151.825 95.6015 152.777 93.9861 151.681 93.4784C149.074 92.2669 146.016 92.1227 143.195 91.8284C141.995 91.7073 142 93.5592 143.195 93.7034Z" fill="#3B2C7D"/>
<path d="M147.282 93.6286C147.105 93.6326 146.933 93.6833 146.782 93.7755C146.631 93.8677 146.507 93.9981 146.423 94.1536C145.632 95.6421 145.269 98.9363 147.651 99.0459C150.034 99.1555 151.65 93.4613 147.282 93.6286Z" fill="#3B2C7D"/>
<path d="M164.958 96.5478C166.908 96.767 169.106 96.9285 170.912 97.7766C172.002 98.2843 172.954 96.6689 171.858 96.1555C169.723 95.1574 167.277 94.9324 164.935 94.6728C163.735 94.5401 163.746 96.4035 164.935 96.5478H164.958Z" fill="#3B2C7D"/>
<path d="M166.879 96.3054C166.521 96.3054 166.354 96.1958 166.187 96.5131C165.402 98.0016 164.883 101.607 167.248 101.705C169.614 101.803 171.246 96.1612 166.879 96.3054Z" fill="#3B2C7D"/>
<path d="M156.887 121.269C156.947 121.568 156.947 121.876 156.887 122.175C156.861 122.307 156.825 122.436 156.777 122.561C156.734 122.698 156.676 122.829 156.604 122.954C156.5 123.194 156.342 123.407 156.143 123.577C156.03 123.651 155.91 123.715 155.785 123.767C155.657 123.805 155.526 123.832 155.393 123.848C155.163 123.855 154.934 123.81 154.724 123.715C154.4 123.558 154.134 123.304 153.962 122.988C153.817 122.736 153.715 122.461 153.662 122.175C153.609 121.991 153.61 121.796 153.666 121.614C153.723 121.431 153.832 121.269 153.979 121.148C154.077 121.079 154.337 121.315 154.602 121.546C154.777 121.715 154.97 121.862 155.179 121.984C155.22 121.984 155.226 121.984 155.22 121.984C155.214 122.048 155.198 122.11 155.174 122.169C155.174 122.169 155.116 122.348 155.145 122.44L155.11 122.406C155.083 122.369 155.05 122.338 155.012 122.313C154.96 122.313 155.052 122.273 155.076 122.169C155.111 122.078 155.136 121.983 155.151 121.886C155.163 121.818 155.163 121.747 155.151 121.679C155.151 121.679 155.122 121.609 155.076 121.598C155.056 121.585 155.033 121.578 155.009 121.578C154.986 121.578 154.963 121.585 154.943 121.598C154.943 121.598 154.943 121.638 154.943 121.627C154.929 121.607 154.911 121.589 154.891 121.575C154.839 121.546 154.891 121.575 155.006 121.575C155.083 121.562 155.158 121.543 155.231 121.517C155.231 121.517 155.231 121.552 155.127 121.621L154.747 121.956L154.556 122.134C154.458 122.228 154.34 122.297 154.21 122.336C154.072 122.377 153.835 122.423 153.731 122.336C153.621 122.277 153.526 122.192 153.454 122.088C153.359 121.971 153.292 121.832 153.258 121.684C153.203 121.499 153.189 121.304 153.217 121.113C153.245 120.922 153.314 120.739 153.42 120.577C153.515 120.412 153.64 120.267 153.789 120.15C153.914 120.037 154.059 119.947 154.216 119.884C154.56 119.732 154.94 119.681 155.312 119.738C155.684 119.794 156.032 119.955 156.316 120.202C156.635 120.479 156.861 120.847 156.962 121.258L156.887 121.269Z" fill="#3B2C7D"/>
<path d="M138.461 212.117C137.094 212.873 135.726 213.635 134.371 214.425L132.899 215.302C132.028 215.798 131.134 216.283 130.286 216.785C129.438 217.287 128.555 217.829 127.724 218.365L125.475 219.808C124.511 220.452 123.473 220.975 122.382 221.365C122.036 221.475 122.001 221.244 122.18 220.915C122.46 220.469 122.844 220.096 123.299 219.831C125.244 218.677 127.153 217.396 129.196 216.208C130.424 215.498 131.653 214.713 132.882 213.975L136.961 211.581L139.488 210.127L143.33 207.958C144.317 207.381 145.251 206.804 146.215 206.227C146.428 206.1 146.636 205.967 146.849 205.846C147.663 205.402 147.969 205.35 148.292 205.546C148.37 205.584 148.443 205.63 148.511 205.685C148.701 205.863 148.465 206.221 147.905 206.602C146.238 207.721 144.444 208.794 142.603 209.844L138.49 212.152L138.461 212.117Z" fill="#3B2C7D"/>
<g opacity="0.6">
<path d="M149.012 225.94C146.981 226.973 144.973 228.035 142.971 229.148C142.245 229.552 141.541 229.996 140.814 230.406C138.264 231.854 135.731 233.337 133.256 234.912C132.148 235.598 131.075 236.348 130.008 237.081C128.646 238.033 127.302 239.019 125.895 239.902C125.456 240.173 125.393 239.965 125.623 239.538C126.023 238.894 126.542 238.332 127.152 237.883C129.9 235.852 132.75 233.963 135.691 232.223C137.456 231.179 139.245 230.008 141.05 228.935C143.039 227.781 145.05 226.644 147.085 225.525C148.331 224.85 149.589 224.187 150.846 223.529C152.756 222.531 154.7 221.585 156.616 220.615C158.104 219.877 159.5 219.063 160.989 218.308C161.312 218.146 161.623 217.973 161.958 217.823C163.181 217.246 163.62 217.171 164.035 217.402C164.135 217.445 164.23 217.499 164.318 217.563C164.554 217.777 164.15 218.227 163.291 218.717C160.752 220.183 157.977 221.492 155.214 222.854C153.154 223.863 151.089 224.879 149.052 225.952L149.012 225.94Z" fill="#3B2C7D"/>
</g>
<g opacity="0.6">
<path d="M168.115 235.575C165.738 236.879 163.367 238.188 161.013 239.527L158.451 241.021L153.888 243.588C152.347 244.431 150.801 245.238 149.272 246.063C147.911 246.79 146.555 247.552 145.234 248.342C143.555 249.357 141.928 250.454 140.295 251.532C139.788 251.867 139.719 251.642 139.984 251.14C140.456 250.368 141.085 249.704 141.83 249.19C143.497 248.036 145.228 246.94 146.982 245.925C148.736 244.909 150.53 243.981 152.313 243.04C154.442 241.886 156.553 240.496 158.694 239.233C161.047 237.842 163.43 236.492 165.807 235.142L170.203 232.667C172.419 231.409 174.663 230.181 176.855 228.923C178.586 227.948 180.195 226.915 181.863 225.923C182.232 225.704 182.584 225.479 182.959 225.265C184.349 224.475 184.851 224.319 185.342 224.509C185.458 224.539 185.57 224.582 185.676 224.636C185.959 224.838 185.509 225.375 184.522 226.027C181.638 227.948 178.488 229.834 175.292 231.617L168.132 235.609L168.115 235.575Z" fill="#3B2C7D"/>
</g>
<path d="M169.833 248.181L166.308 249.773C165.881 249.969 165.471 250.206 165.044 250.402C163.539 251.088 162.033 251.775 160.544 252.496C159.881 252.813 159.24 253.177 158.612 253.54C157.825 254.049 157.006 254.505 156.16 254.908C155.623 255.144 155.733 253.904 156.644 253.292C158.269 252.246 159.972 251.328 161.739 250.546C162.812 250.09 163.85 249.484 164.917 248.959L168.437 247.281L170.6 246.248C171.69 245.723 172.792 245.209 173.848 244.644C174.662 244.194 175.429 243.686 176.225 243.231C176.404 243.138 176.577 243.034 176.762 242.942C177.442 242.613 177.696 242.579 177.967 242.723C178.03 242.752 178.09 242.786 178.146 242.827C178.308 242.954 178.117 243.259 177.685 243.629C176.369 244.757 174.913 245.709 173.352 246.461C172.198 247.073 171.031 247.65 169.85 248.192L169.833 248.181Z" fill="#3B2C7D"/>
<path d="M114.149 238.408L114.201 229.511C114.201 228.433 114.149 227.354 114.155 226.269C114.155 222.461 114.241 218.654 114.218 214.852C114.218 213.161 114.137 211.465 114.062 209.792C113.999 208.725 113.941 207.646 113.883 206.573C113.834 205.492 113.876 204.41 114.01 203.336C114.131 202.656 114.253 202.76 114.587 203.279C114.772 203.55 114.991 203.942 115.245 204.433C115.491 204.961 115.656 205.523 115.735 206.1C115.845 207.202 115.908 208.304 115.972 209.406C116.035 210.508 116.087 211.615 116.093 212.717C116.122 214.927 116.093 217.136 116.024 219.363C115.931 222.017 116.076 224.775 116.099 227.492L116.133 236.44C116.133 238.281 116.133 240.115 116.18 241.95C116.22 244.731 116.243 247.523 116.37 250.275C116.48 252.415 116.716 254.51 116.918 256.621C116.97 257.088 117.016 257.538 117.062 258.006C117.201 259.736 117.108 260.313 116.537 260.711C116.429 260.815 116.311 260.907 116.185 260.988C115.822 261.179 115.32 260.498 115.135 259.223C114.569 255.311 114.261 251.366 114.212 247.413C114.126 244.425 114.114 241.425 114.085 238.431L114.149 238.408Z" fill="#3B2C7D"/>
<path d="M164.079 205.309C163.935 205.234 164.079 205.05 164.437 204.732C164.605 204.596 164.803 204.501 165.014 204.456C165.168 204.504 165.317 204.567 165.458 204.646C165.522 204.712 165.575 204.788 165.614 204.871L165.741 205.096C165.781 205.194 165.816 205.304 165.851 205.419C165.897 205.545 165.924 205.677 165.931 205.811C165.949 205.951 165.949 206.093 165.931 206.232C165.909 206.477 165.849 206.716 165.753 206.942C165.509 207.488 165.08 207.93 164.541 208.188C163.776 208.528 162.954 208.723 162.118 208.765C161.951 208.781 161.784 208.767 161.622 208.725C161.088 208.593 160.538 208.537 159.989 208.557C159.894 208.538 159.794 208.557 159.712 208.609C159.108 208.678 158.496 208.617 157.918 208.431C157.485 208.182 157.047 207.975 156.62 207.704C156.562 207.669 156.476 207.675 156.453 207.554C156.389 207.282 156.239 207.271 156.101 207.196C155.894 207.09 155.708 206.947 155.553 206.775C155.471 206.642 155.423 206.492 155.414 206.336C155.414 206.192 155.685 205.956 155.726 205.938C155.864 205.892 155.916 205.719 156.008 205.598L156.112 205.471C156.473 205.348 156.846 205.267 157.226 205.229L157.445 205.275C157.572 205.275 157.751 205.327 157.935 205.356C158.214 205.397 158.496 205.42 158.778 205.425C158.864 205.425 158.939 205.494 159.014 205.54C159.089 205.586 160.197 205.54 160.237 205.54C160.468 205.592 160.704 205.54 160.924 205.742C160.964 205.788 161.01 205.777 161.056 205.777C161.442 205.787 161.827 205.818 162.21 205.869C162.404 205.867 162.597 205.846 162.787 205.806C162.816 205.806 162.851 205.806 162.885 205.806C162.925 205.816 162.967 205.816 163.006 205.806L163.514 205.684C163.653 205.644 163.722 205.592 163.704 205.575C163.687 205.557 163.704 205.575 163.751 205.575H163.808C163.866 205.575 163.929 205.511 163.906 205.477C163.883 205.442 163.976 205.419 164.028 205.35C164.079 205.281 164.108 205.327 164.079 205.309Z" fill="#3B2C7D"/>
<path d="M61.73 250.696C60.455 250.644 59.18 250.598 57.905 250.569C57.4377 250.569 56.9762 250.621 56.5089 250.604C54.8646 250.557 53.2204 250.477 51.5762 250.442C50.8435 250.442 50.1108 250.442 49.3896 250.511C48.4597 250.644 47.5157 250.644 46.5858 250.511C46.0089 250.384 46.7416 248.59 47.78 248.521C49.6621 248.382 51.5518 248.382 53.4339 248.521C54.5891 248.548 55.7449 248.508 56.8954 248.4C58.1762 248.359 59.4627 248.342 60.7493 248.325L63.1262 248.296C64.3262 248.296 65.532 248.296 66.7262 248.232C67.655 248.175 68.5608 248.025 69.4896 247.944C69.6916 247.944 69.8877 247.886 70.0954 247.886C70.8627 247.886 71.0993 248.059 71.2493 248.677C71.2883 248.815 71.3191 248.956 71.3416 249.098C71.3564 249.336 71.2828 249.571 71.1348 249.759C70.9869 249.946 70.7749 250.072 70.5396 250.113C68.9125 250.563 67.2316 250.788 65.5435 250.782C64.2743 250.817 62.9935 250.782 61.7127 250.782L61.73 250.696Z" fill="#3B2C7D"/>
<path d="M251.438 248.706C252.535 248.781 253.631 248.85 254.738 248.908C255.137 248.908 255.54 248.908 255.944 248.908C257.369 248.994 258.8 249.208 260.225 249.375C260.854 249.444 261.494 249.49 262.129 249.531C262.958 249.528 263.781 249.675 264.558 249.963C264.8 250.067 264.673 250.454 264.39 250.812C264.261 251.001 264.089 251.159 263.889 251.273C263.689 251.387 263.466 251.454 263.237 251.469C261.69 251.371 260.115 251.337 258.5 251.106C257.507 251.038 256.511 251.029 255.517 251.077L252.206 251.013L250.152 250.967C249.113 250.967 248.069 250.887 247.037 250.904C246.229 250.904 245.427 251.042 244.602 251.071C244.421 251.086 244.24 251.086 244.06 251.071C243.804 251.062 243.561 250.961 243.373 250.788C243.244 250.586 243.171 250.353 243.16 250.113C243.16 249.992 243.125 249.877 243.125 249.767C243.13 249.573 243.208 249.387 243.344 249.248C243.483 249.047 243.687 248.9 243.921 248.833L244.435 248.706C244.606 248.657 244.782 248.624 244.96 248.608C245.306 248.567 245.652 248.55 246.004 248.527C246.708 248.492 247.429 248.492 248.15 248.527L251.427 248.648L251.438 248.706Z" fill="#3B2C7D"/>
<path d="M146.584 164.711C145.892 165.398 145.182 166.073 144.432 166.725C144.155 166.961 143.902 167.215 143.607 167.434C142.579 168.254 141.387 168.844 140.111 169.165C139.542 169.282 138.962 169.338 138.38 169.332C137.633 169.333 136.897 169.147 136.24 168.79C136.038 168.681 136.154 168.496 136.402 168.357C136.699 168.195 137.04 168.131 137.377 168.173C138.644 168.354 139.936 168.186 141.115 167.688C141.874 167.334 142.573 166.863 143.186 166.292C143.913 165.715 144.605 165.029 145.28 164.348C145.7 163.925 146.115 163.498 146.527 163.067L148.407 161.1C148.886 160.581 149.319 160.032 149.804 159.519C149.907 159.404 150.011 159.288 150.127 159.179C150.548 158.781 150.761 158.734 151.061 158.919C151.131 158.957 151.198 158.999 151.263 159.046C151.459 159.213 151.413 159.525 151.154 159.836C150.38 160.771 149.509 161.677 148.632 162.623C147.963 163.321 147.294 164.031 146.63 164.734L146.584 164.711Z" fill="#3B2C7D"/>
<path d="M171.669 165.998C172.67 166.787 173.714 167.521 174.796 168.196C175.188 168.438 175.604 168.635 176.002 168.848C176.69 169.232 177.425 169.527 178.188 169.725C178.529 169.831 178.888 169.865 179.243 169.824C179.598 169.784 179.94 169.669 180.248 169.488C180.759 169.074 181.086 168.475 181.159 167.821C181.234 166.925 181.191 166.023 181.032 165.138C180.992 164.85 181.211 164.827 181.488 165.023C181.866 165.32 182.114 165.752 182.18 166.229C182.385 167.329 182.21 168.466 181.684 169.454C181.382 170.01 180.9 170.448 180.317 170.694C179.769 170.915 179.171 170.985 178.586 170.896C177.332 170.695 176.119 170.287 174.998 169.69C173.821 169.058 172.696 168.332 171.634 167.521C170.977 167.037 170.336 166.529 169.702 166.021C168.744 165.254 167.815 164.44 166.88 163.662C166.148 163.056 165.398 162.508 164.665 161.931C164.504 161.798 164.342 161.683 164.18 161.544C163.603 161.042 163.477 160.812 163.603 160.454C163.622 160.373 163.647 160.294 163.679 160.217C163.8 159.981 164.169 160.038 164.63 160.362C166.003 161.319 167.33 162.45 168.669 163.558C169.667 164.383 170.671 165.213 171.709 165.981L171.669 165.998Z" fill="#3B2C7D"/>
<path d="M219.528 189.179C218.672 190.574 217.944 192.043 217.353 193.569C217.092 194.267 216.916 194.993 216.828 195.732C216.739 196.291 216.845 196.863 217.128 197.354C217.387 197.823 217.807 198.183 218.31 198.369C218.861 198.374 219.395 198.181 219.816 197.827C220.32 197.457 220.706 196.951 220.929 196.367C221.177 195.722 221.269 195.029 221.201 194.342C221.173 193.853 221.045 193.374 220.825 192.937C220.605 192.499 220.296 192.111 219.92 191.798C219.082 191.183 218.074 190.845 217.035 190.829C214.952 190.808 212.888 191.218 210.972 192.034C209.972 192.421 208.999 192.872 208.058 193.384C207.117 193.897 206.212 194.475 205.353 195.115C201.799 197.68 198.534 200.622 195.614 203.89C194.333 205.328 193.218 206.905 192.291 208.592C191.846 209.417 191.49 210.288 191.229 211.188C190.982 212.054 190.904 212.959 190.999 213.854C191.14 214.97 191.64 216.011 192.424 216.819C193.189 217.638 194.227 218.151 195.343 218.261C196.532 218.384 197.732 218.337 198.908 218.123C200.126 217.956 201.354 217.696 202.612 217.517C203.403 217.402 203.766 217.459 203.766 217.569C203.766 217.679 203.391 217.857 202.779 218.146C202.168 218.434 201.297 218.786 200.201 219.173C198.909 219.664 197.544 219.935 196.162 219.975C194.647 220.024 193.156 219.578 191.916 218.706C191.608 218.475 191.322 218.216 191.062 217.932C190.795 217.665 190.555 217.371 190.347 217.056L190.029 216.582C189.943 216.415 189.862 216.236 189.776 216.063C189.604 215.716 189.472 215.35 189.383 214.973C189.042 213.518 189.108 211.997 189.574 210.577C189.986 209.255 190.568 207.993 191.304 206.821C192.729 204.583 194.401 202.512 196.289 200.648C198.141 198.799 200.104 197.065 202.168 195.456C203.408 194.498 204.643 193.546 206.004 192.634C207.379 191.752 208.829 190.993 210.337 190.367C211.865 189.709 213.47 189.245 215.114 188.988C216.872 188.666 218.687 188.9 220.306 189.657C220.752 189.906 221.164 190.208 221.535 190.557C221.918 190.926 222.242 191.35 222.499 191.815C222.992 192.712 223.255 193.717 223.266 194.74C223.301 195.763 223.085 196.779 222.637 197.7C222.521 197.935 222.386 198.161 222.233 198.375C222.087 198.598 221.917 198.805 221.726 198.992C221.539 199.186 221.336 199.363 221.12 199.523C220.916 199.671 220.704 199.808 220.485 199.932C220.015 200.216 219.497 200.412 218.956 200.509C218.344 200.605 217.718 200.517 217.156 200.256C216.661 200.006 216.218 199.663 215.853 199.246C215.685 199.063 215.529 198.87 215.385 198.669C215.217 198.438 215.076 198.188 214.964 197.925C214.602 196.95 214.52 195.892 214.728 194.873C214.89 193.958 215.149 193.062 215.501 192.202C216.352 190.191 217.381 188.26 218.576 186.432C219.729 184.615 220.918 182.798 222.21 181.079C226.124 175.824 230.751 171.14 235.958 167.163C237.975 165.641 240.122 164.299 242.374 163.154C244.628 161.99 247.006 161.086 249.464 160.459C250.58 160.177 251.723 160.013 252.874 159.969C254.521 159.847 256.16 160.293 257.518 161.232C257.832 161.448 258.098 161.727 258.297 162.052C258.496 162.377 258.623 162.741 258.672 163.119C258.705 163.358 258.705 163.601 258.672 163.84C258.568 164.129 258.228 163.95 257.697 163.569C256.932 163.011 256.06 162.618 255.135 162.415C253.301 162.023 251.189 162.375 249.147 162.952C247.055 163.585 245.024 164.403 243.078 165.398C239.104 167.492 235.453 170.148 232.237 173.284C229.77 175.62 227.47 178.126 225.354 180.784C223.239 183.458 221.312 186.274 219.585 189.213L219.528 189.179Z" fill="#3B2C7D"/>
<path d="M102.022 179.659C102.138 180.906 102.161 182.159 102.091 183.409C102.059 184.772 101.724 186.11 101.111 187.327C100.705 188.08 100.032 188.654 99.2241 188.936L98.901 189.034L98.5318 189.075C98.4089 189.083 98.2855 189.083 98.1626 189.075C98.0414 189.075 97.9145 189.034 97.7933 189.005C97.3414 188.896 96.9246 188.674 96.5818 188.359C96.0489 187.847 95.6302 187.227 95.353 186.542C95.0958 185.931 94.9025 185.295 94.776 184.644C94.6773 184.159 94.6156 183.667 94.5914 183.173V182.746L94.6491 182.382L94.7645 181.661C94.8028 181.417 94.8667 181.177 94.9549 180.946L95.1914 180.242C95.301 180.017 95.4222 179.792 95.5434 179.573C95.6504 179.345 95.7861 179.132 95.9472 178.938C96.4763 178.217 97.1518 177.617 97.9293 177.175C98.7067 176.734 99.5687 176.462 100.459 176.377C102.201 176.21 103.943 176.693 105.351 177.732C105.687 177.995 106.005 178.281 106.303 178.586L106.718 179.065L106.926 179.307L107.093 179.573C107.536 180.259 107.913 180.985 108.218 181.742C108.78 183.216 109.207 184.737 109.493 186.288C109.967 189.009 110.16 191.772 110.07 194.532C110.008 196.295 109.825 198.051 109.522 199.788C109.203 201.534 108.658 203.231 107.901 204.836C107.405 205.834 107.232 205.557 107.324 204.611C107.416 203.665 107.659 202.032 107.999 200.128C108.615 196.728 108.763 193.259 108.438 189.819C108.273 188.11 107.976 186.416 107.549 184.753L107.186 183.53L106.741 182.342L106.216 181.188C106.015 180.842 105.818 180.513 105.588 180.19C105.019 179.436 104.265 178.842 103.398 178.467C102.531 178.092 101.582 177.948 100.643 178.05C99.7075 178.161 98.8265 178.551 98.1139 179.168C97.4013 179.785 96.8898 180.601 96.6453 181.511C96.6107 181.638 96.553 181.753 96.5299 181.886L96.4607 182.284L96.3914 182.682L96.3453 182.884V183.052C96.3541 183.58 96.4277 184.105 96.5645 184.615C96.6896 185.14 96.8735 185.649 97.1126 186.132C97.2978 186.552 97.5903 186.917 97.9607 187.188C98.0902 187.269 98.2409 187.309 98.3934 187.303H98.5087C98.5542 187.295 98.5987 187.281 98.6414 187.263C98.7321 187.237 98.8193 187.2 98.901 187.153C99.2787 186.911 99.568 186.553 99.726 186.132C100.117 185.092 100.312 183.989 100.303 182.878C100.338 181.436 100.255 179.992 100.055 178.563C99.8687 177.127 99.5874 175.704 99.2126 174.305C98.6536 172.241 97.5659 170.358 96.0568 168.842C95.306 168.14 94.3855 167.645 93.3857 167.405C92.3783 167.183 91.3329 167.201 90.3337 167.457C88.7507 167.882 87.2747 168.635 86.001 169.667C84.6988 170.686 83.5145 171.847 82.4703 173.128C82.0087 173.705 81.5934 174.282 81.1664 174.859C80.376 175.967 79.9203 176.734 79.5222 177.23C79.2649 177.624 78.9061 177.941 78.4837 178.148C78.3284 178.236 78.164 178.308 77.9934 178.361C77.5376 178.465 77.6645 177.207 78.6857 175.332C80.2574 172.443 82.4338 169.926 85.0664 167.953C86.4796 166.889 88.0835 166.106 89.7914 165.646C91.6554 165.134 93.641 165.308 95.3876 166.136C96.6421 166.772 97.7322 167.691 98.5722 168.819C99.3609 169.872 100.005 171.027 100.488 172.252C100.963 173.449 101.315 174.692 101.538 175.961C101.774 177.184 101.959 178.413 102.074 179.659H102.022Z" fill="#3B2C7D"/>
<path d="M28.539 197.377C31 199.759 33.134 202.458 34.8851 205.402C35.6582 206.671 37.6601 205.511 36.8813 204.248C35.0272 201.131 32.7714 198.272 30.1716 195.744C29.087 194.734 27.4486 196.361 28.539 197.377Z" fill="#3B2C7D"/>
<path d="M34.0943 200.463C35.0751 199.805 35.8251 198.825 36.8463 198.242C38.1386 197.509 36.979 195.519 35.6924 196.252C34.6482 196.829 33.927 197.815 32.9405 198.473C32.6822 198.633 32.4952 198.886 32.4179 199.18C32.3407 199.474 32.379 199.787 32.5251 200.054C32.6019 200.184 32.7038 200.299 32.8248 200.39C32.9459 200.481 33.0838 200.548 33.2306 200.586C33.3774 200.624 33.5303 200.633 33.6805 200.612C33.8307 200.591 33.9752 200.54 34.1059 200.463H34.0943Z" fill="#3B2C7D"/>
<path d="M32.5413 193.598C34.7048 196.442 37.1567 199.085 39.2221 201.987C40.0817 203.181 42.1067 202.033 41.2125 200.833C39.124 197.948 36.7009 195.288 34.5317 192.444C33.649 191.29 31.6471 192.444 32.5413 193.598Z" fill="#3B2C7D"/>
<path d="M39.1415 191.417C40.2607 193.419 41.5934 195.282 42.5165 197.394C43.0934 198.75 45.1011 197.578 44.5127 196.24C43.5896 194.128 42.2569 192.265 41.1319 190.263C40.405 188.965 38.4146 190.13 39.1415 191.417Z" fill="#3B2C7D"/>
<path d="M37.0818 191.85C38.8587 190.811 40.9529 190.454 42.776 189.513C44.0972 188.827 42.9318 186.836 41.6222 187.517C39.7991 188.463 37.7106 188.815 35.9279 189.86C34.6472 190.61 35.8068 192.606 37.0818 191.85Z" fill="#3B2C7D"/>
<path d="M49.4982 192.363C47.952 189.836 47.1386 187.032 46.5097 184.153L45.3963 185.613C46.8386 185.538 48.402 187.205 49.4982 188.007C50.2944 188.584 51.1309 187.771 51.229 187.009C51.4828 185.128 51.529 183.201 52.3078 181.442L50.1905 181.153C51.3963 184.038 52.5501 186.923 53.652 189.842C54.1655 191.226 56.3982 190.626 55.879 189.23C54.7944 186.311 53.6405 183.415 52.4174 180.542C52.0886 179.757 50.7617 179.244 50.3117 180.265C49.3482 182.44 49.227 184.673 48.9155 186.998L50.6463 186C49.1232 184.892 47.404 183.19 45.379 183.294C45.2006 183.293 45.0247 183.334 44.8648 183.413C44.705 183.493 44.5657 183.608 44.4578 183.75C44.3499 183.892 44.2764 184.057 44.243 184.232C44.2097 184.407 44.2174 184.587 44.2655 184.759C44.8412 187.839 45.9314 190.799 47.4905 193.517C48.2636 194.78 50.2597 193.621 49.4809 192.363H49.4982Z" fill="#3B2C7D"/>
<path d="M55.3816 177.94C56.1893 180.104 55.2835 183.415 57.2278 185.088C58.2662 185.988 59.5816 185.665 60.6489 185.002C62.0334 184.037 63.4852 183.174 64.9932 182.417C66.3489 181.811 65.1778 179.821 63.8393 180.421C62.6221 180.937 61.462 181.579 60.3778 182.336C59.7374 182.809 58.8028 183.859 58.4335 182.705C57.8566 180.975 58.2316 179.048 57.5912 177.329C57.1124 175.961 54.8797 176.538 55.3816 177.94Z" fill="#3B2C7D"/>
<g opacity="0.6">
<path d="M67.777 132.577C67.402 131.965 67.0501 131.342 66.7213 130.69C66.5856 130.455 66.4623 130.212 66.352 129.963C66.2397 129.7 66.1734 129.419 66.1559 129.132C66.1378 128.831 66.1891 128.529 66.3059 128.25C66.5321 127.771 66.8729 127.354 67.2982 127.038C67.6386 126.773 67.979 126.531 68.3136 126.3C68.7174 125.987 69.1594 125.727 69.629 125.527C69.7732 125.475 69.8944 125.677 69.9117 125.948C69.926 126.094 69.904 126.242 69.8477 126.378C69.7913 126.514 69.7023 126.633 69.5886 126.727C68.787 127.189 68.0531 127.76 67.4078 128.423C67.2798 128.586 67.2217 128.794 67.2463 129C67.2547 129.109 67.282 129.217 67.327 129.317C67.379 129.45 67.4367 129.577 67.5001 129.715C67.7966 130.335 68.124 130.94 68.4809 131.527C68.7001 131.89 68.9251 132.259 69.1674 132.611C69.352 132.877 69.5367 133.148 69.7444 133.402C69.8424 133.529 69.9405 133.661 70.0444 133.777L70.1886 133.944L70.2982 134.048C70.3465 134.096 70.4095 134.126 70.477 134.134C70.5435 134.114 70.6033 134.076 70.6501 134.025C70.702 133.967 70.9386 133.765 71.1001 133.604L71.3424 133.379C71.654 133.113 71.8444 133.079 72.0924 133.298C72.1513 133.342 72.2037 133.395 72.2482 133.454C72.3158 133.55 72.3476 133.666 72.3381 133.783C72.3286 133.9 72.2784 134.01 72.1963 134.094C72.05 134.272 71.894 134.441 71.729 134.602C71.6367 134.688 71.5501 134.769 71.452 134.85L71.3713 134.913L71.2386 135.006C71.1405 135.063 71.0482 135.132 70.9501 135.179C70.7607 135.281 70.5481 135.333 70.3328 135.329C70.1361 135.254 69.9435 135.17 69.7559 135.075L69.5136 134.85C69.4444 134.781 69.3347 134.682 69.3059 134.648L69.052 134.354C68.5957 133.784 68.1719 133.189 67.7828 132.571L67.777 132.577Z" fill="#3B2C7D"/>
</g>
<g opacity="0.6">
<path d="M74.5591 124.546L75.5744 126.346C75.7014 126.565 75.8571 126.761 75.9783 126.981C76.2033 127.367 76.4052 127.765 76.6187 128.134L76.9302 128.711L77.4091 129.536C77.4494 129.617 77.5244 129.698 77.5129 129.767C77.113 130.003 76.7277 130.263 76.3591 130.546C75.9841 130.858 75.6264 131.209 75.2629 131.463C75.1591 131.533 74.9629 131.406 74.8706 131.146C74.8193 131.001 74.8073 130.845 74.8357 130.694C74.864 130.543 74.9318 130.403 75.0321 130.286C75.2632 130.06 75.5058 129.847 75.7591 129.646L75.9494 129.502C75.9898 129.473 75.9494 129.502 75.9783 129.502H76.0244C76.0244 129.502 76.0244 129.502 76.0244 129.456C76.0244 129.409 76.0244 129.456 76.0244 129.409L75.9494 129.271L75.8052 128.988C75.5225 128.411 75.1071 127.933 74.7783 127.396L73.6937 125.608L73.0187 124.511L72.7648 124.096L72.6379 123.888L72.5571 123.756C72.5159 123.673 72.4677 123.594 72.4129 123.519C72.3437 123.484 72.2398 123.554 72.1533 123.571C72.0668 123.588 71.7956 123.727 71.5764 123.836C71.3571 123.946 71.161 124.073 70.9648 124.194L70.7225 124.361C70.4225 124.552 70.3187 124.477 70.0129 124.24L69.8225 124.113C69.7715 124.074 69.7303 124.023 69.7023 123.965C69.6742 123.907 69.6601 123.843 69.661 123.779C69.6564 123.691 69.6706 123.604 69.7024 123.522C69.7342 123.441 69.783 123.367 69.8456 123.306C70.2252 122.959 70.66 122.678 71.1321 122.475L71.4725 122.331H71.5591L71.7091 122.284C71.8129 122.256 71.911 122.227 72.0264 122.204L72.6725 122.054L72.8341 122.019C72.886 122.019 72.9091 122.088 72.9494 122.117L73.1571 122.365C73.3697 122.621 73.5626 122.893 73.7341 123.179L74.011 123.629L74.5533 124.523L74.5591 124.546Z" fill="#3B2C7D"/>
</g>
<g opacity="0.6">
<path d="M257.772 204.046C257.815 203.641 257.881 203.238 257.968 202.84C258.026 202.581 258.118 202.333 258.187 202.084L258.303 201.721C258.303 201.663 258.303 201.583 258.372 201.554L258.562 201.583C258.747 201.617 258.926 201.634 259.105 201.652C259.3 201.679 259.493 201.722 259.682 201.779L259.936 201.848L260.143 201.911L260.426 202.009L261.003 202.206L262.157 202.586C262.493 202.691 262.836 202.774 263.184 202.834C263.632 202.892 264.069 203.023 264.476 203.221C264.603 203.296 264.528 203.544 264.355 203.798C264.28 203.922 264.178 204.028 264.056 204.106C263.934 204.184 263.795 204.233 263.651 204.248C263.42 204.248 263.189 204.208 262.964 204.173C262.739 204.138 262.52 204.081 262.295 204.023C261.846 203.917 261.407 203.768 260.986 203.579C260.726 203.473 260.458 203.39 260.184 203.331L259.976 203.29L259.814 203.25L259.676 203.186L259.509 203.123C259.468 203.123 259.468 203.123 259.457 203.158L259.422 203.233C259.395 203.288 259.373 203.346 259.359 203.406L259.33 203.515C259.33 203.561 259.33 203.654 259.33 203.717C259.281 204.079 259.256 204.443 259.255 204.808C259.24 205.376 259.265 205.945 259.33 206.509C259.412 206.949 259.516 207.384 259.641 207.813C259.672 207.91 259.697 208.008 259.716 208.108C259.774 208.477 259.676 208.609 259.289 208.684C259.202 208.711 259.114 208.732 259.024 208.748C258.892 208.78 258.754 208.764 258.633 208.704C258.511 208.644 258.415 208.543 258.361 208.419C258.055 207.65 257.872 206.839 257.818 206.013C257.765 205.359 257.755 204.702 257.789 204.046H257.772Z" fill="#3B2C7D"/>
</g>
<g opacity="0.6">
<path d="M271.956 210.946L272.013 211.39V211.5L272.042 211.69L272.117 212.088L272.186 212.481C272.186 212.608 272.186 212.717 272.186 212.833V213.179V213.346V213.387H272.14H272.048C271.701 213.48 271.348 213.552 270.992 213.6C270.829 213.609 270.665 213.609 270.502 213.6C270.354 213.611 270.205 213.611 270.057 213.6C269.856 213.6 269.654 213.548 269.481 213.513C269.082 213.444 268.696 213.363 268.327 213.277C267.957 213.19 267.64 213.15 267.294 213.092C266.826 213.069 266.372 212.917 265.984 212.654C265.857 212.55 266.031 212.267 266.256 212.008C266.481 211.748 266.746 211.5 266.959 211.546L268.142 211.777C268.54 211.875 268.944 211.985 269.354 212.112C269.596 212.186 269.85 212.221 270.104 212.215H270.415C270.474 212.224 270.535 212.224 270.594 212.215C270.623 212.215 270.594 212.135 270.594 212.083C270.594 212.031 270.594 211.973 270.594 211.915L270.536 211.621L270.346 210.542C270.242 210 270.156 209.446 270.011 208.915C269.878 208.508 269.72 208.109 269.538 207.721C269.497 207.638 269.464 207.551 269.44 207.462C269.415 207.398 269.405 207.329 269.412 207.26C269.419 207.192 269.443 207.127 269.481 207.069C269.571 206.96 269.688 206.877 269.821 206.827C269.89 206.827 269.959 206.758 270.023 206.735C270.151 206.7 270.286 206.701 270.414 206.739C270.541 206.777 270.655 206.849 270.744 206.948C271.186 207.619 271.493 208.37 271.65 209.158C271.782 209.735 271.869 210.312 271.979 210.923L271.956 210.946Z" fill="#3B2C7D"/>
</g>
<g opacity="0.6">
<path d="M266.835 206.538L264.66 208.413C264.401 208.65 264.152 208.903 263.881 209.134C262.912 209.938 261.892 210.68 260.829 211.355C260.356 211.65 259.895 211.973 259.422 212.267C259.116 212.446 258.845 212.653 258.504 212.844C258.185 213.012 257.843 213.134 257.489 213.207C257.27 213.259 257.189 212.988 257.235 212.63C257.249 212.44 257.304 212.256 257.398 212.09C257.492 211.925 257.622 211.782 257.777 211.673C258.966 211.026 260.085 210.305 261.291 209.555C261.992 209.06 262.649 208.504 263.252 207.894L265.381 205.961L266.72 204.767C267.406 204.19 268.133 203.613 268.843 203.036C269.126 202.823 269.385 202.58 269.651 202.35L270.47 201.675C270.59 201.574 270.715 201.48 270.845 201.392C271.341 201.08 271.554 201.08 271.854 201.392C271.926 201.459 271.994 201.53 272.056 201.605C272.148 201.748 272.18 201.92 272.147 202.086C272.113 202.251 272.017 202.398 271.877 202.494C270.977 203.29 269.991 204 268.993 204.801C268.266 205.375 267.545 205.978 266.829 206.613L266.835 206.538Z" fill="#3B2C7D"/>
</g>
<path d="M241.331 143.417C242.629 145.338 243.021 147.658 244.002 149.763C244.434 150.681 245.807 149.879 245.369 148.961C244.382 146.873 244.007 144.583 242.698 142.644C242.121 141.802 240.754 142.598 241.331 143.446V143.417Z" fill="#3B2C7D"/>
<path d="M240.633 148.436C242.127 147.08 244.094 145.927 246.142 145.754C247.152 145.667 247.164 144.08 246.142 144.167C243.649 144.471 241.322 145.574 239.508 147.311C238.752 147.998 239.877 149.117 240.662 148.465L240.633 148.436Z" fill="#3B2C7D"/>
<path d="M55.6591 217.609C54.3495 219.542 53.9687 221.838 52.9879 223.921C52.5495 224.838 53.9168 225.651 54.3552 224.723C55.336 222.646 55.7283 220.332 57.0264 218.405C57.6033 217.563 56.2245 216.767 55.6591 217.609Z" fill="#3B2C7D"/>
<path d="M58.8436 222.306C57.0313 220.565 54.7032 219.46 52.209 219.156C51.1879 219.069 51.1936 220.656 52.209 220.742C54.2513 220.921 56.2475 222.075 57.7186 223.425C58.4744 224.112 59.5994 222.992 58.8725 222.306H58.8436Z" fill="#3B2C7D"/>
<path d="M59.7372 249.432C60.5392 249.473 61.3526 249.496 62.1661 249.484C62.4603 249.484 62.743 249.403 63.0488 249.403C64.093 249.403 65.1488 249.369 66.1872 249.259C66.6458 249.206 67.098 249.107 67.5372 248.965C68.0406 248.729 68.5779 248.573 69.1296 248.503C69.2911 248.503 69.5334 248.959 69.5911 249.484C69.6488 250.009 69.4584 250.638 69.0949 250.73C67.8472 251.137 66.5333 251.302 65.2238 251.215C64.4519 251.23 63.6815 251.288 62.9161 251.388C62.068 251.434 61.1853 251.434 60.3661 251.423C59.8411 251.423 59.3161 251.388 58.7911 251.377C58.0007 251.348 57.2045 251.267 56.4084 251.232C55.7911 251.198 55.1738 251.278 54.5219 251.232C54.3797 251.241 54.2371 251.241 54.0949 251.232C53.5526 251.105 53.4199 250.921 53.518 250.384C53.5326 250.262 53.5538 250.141 53.5815 250.021C53.6185 249.843 53.7083 249.681 53.839 249.556C53.9697 249.43 54.1354 249.347 54.3142 249.317C55.3264 249.245 56.3424 249.245 57.3545 249.317L58.5488 249.369H59.7546L59.7372 249.432Z" fill="#3B2C7D"/>
<path d="M253.471 251.936C252.738 251.977 251.976 252.046 251.203 252.127C250.926 252.155 250.626 252.242 250.361 252.259C249.33 252.337 248.294 252.337 247.263 252.259C246.801 252.259 246.328 252.202 245.855 252.207C245.549 252.173 245.238 252.161 244.932 252.115C244.621 252.047 244.328 251.913 244.073 251.723C243.911 251.602 244.142 251.146 244.453 250.736C244.765 250.327 245.128 249.928 245.365 249.998C246.253 250.182 247.223 250.263 248.324 250.43C249.003 250.461 249.682 250.401 250.344 250.252L252.651 249.992C253.136 249.94 253.621 249.9 254.111 249.865C254.849 249.802 255.611 249.83 256.367 249.819C256.661 249.819 256.944 249.819 257.261 249.819C257.569 249.809 257.878 249.823 258.184 249.859C258.321 249.858 258.457 249.878 258.588 249.917C259.084 250.067 259.199 250.252 259.078 250.777C259.049 250.892 259.026 251.013 258.986 251.128C258.942 251.298 258.849 251.452 258.719 251.57C258.589 251.688 258.427 251.765 258.253 251.792C257.342 251.896 256.551 251.832 255.617 251.861C254.936 251.861 254.221 251.907 253.482 252L253.471 251.936Z" fill="#3B2C7D"/>
</svg>
