<svg width="300" height="300" viewBox="0 0 300 300" fill="none" xmlns="http://www.w3.org/2000/svg">
<path d="M18.519 129.231L18.6401 121.287V118.402L18.8248 108.185C18.8248 106.673 18.8248 105.156 18.8248 103.656C18.7959 102.693 18.8248 101.729 18.8248 100.771C18.8248 100.287 18.8248 99.8022 18.8767 99.3233C18.9286 98.8445 18.9921 98.3599 19.044 97.8753C19.1305 97.2695 19.2401 97.3503 19.4478 97.8753C19.5517 98.1233 19.6844 98.4522 19.8286 98.9195C19.9112 99.15 19.9806 99.3849 20.0363 99.6233C20.0829 99.8847 20.1138 100.149 20.1286 100.414L20.2094 101.891L20.244 102.629V103.362V106.316C20.244 108.289 20.169 110.262 20.0882 112.246C19.9844 114.623 20.0594 117.087 20.0421 119.516L19.9209 127.5L19.869 132.427C19.869 134.914 19.8113 137.412 19.8344 139.881C19.8344 141.796 19.9555 143.677 19.9728 145.575C19.9728 145.991 19.9728 146.4 19.9728 146.821C19.9728 148.385 19.8748 148.881 19.5978 149.216C19.5432 149.296 19.4814 149.371 19.4132 149.441C19.2171 149.591 19.0094 148.956 18.9113 147.814C18.7786 146.118 18.6286 144.352 18.5825 142.621C18.5363 140.891 18.5017 139.068 18.4844 137.273C18.4844 134.608 18.4844 131.931 18.4844 129.26L18.519 129.231Z" fill="#3B2C7D"/>
<path d="M18.8438 225.693L18.9476 214.039V209.798L19.1091 194.845C19.1091 192.629 19.1091 190.408 19.0745 188.21C19.0745 186.802 19.0745 185.389 19.0745 183.975C19.0745 183.271 19.0745 182.568 19.1264 181.858L19.2937 179.741C19.3745 178.864 19.4841 178.979 19.6918 179.741C19.7957 180.11 19.9284 180.641 20.0784 181.275C20.1476 181.598 20.2341 181.945 20.2861 182.308C20.338 182.671 20.3611 183.07 20.3784 183.462L20.4649 185.62L20.4995 186.698V187.783C20.4995 189.22 20.4995 190.668 20.4995 192.104C20.4995 194.989 20.4514 197.873 20.3553 200.758C20.263 204.22 20.3553 207.843 20.3553 211.396C20.3553 215.296 20.338 219.202 20.3034 223.114C20.3034 225.514 20.288 227.918 20.2572 230.325C20.2572 233.96 20.2111 237.618 20.2572 241.235C20.2572 244.039 20.3899 246.791 20.413 249.571C20.413 250.183 20.413 250.777 20.413 251.395C20.413 253.702 20.3149 254.406 20.038 254.902C19.9883 255.015 19.9285 255.123 19.8591 255.225C19.663 255.45 19.4553 254.521 19.3514 252.848C19.2188 250.368 19.063 247.818 19.0168 245.233C18.9707 242.648 18.9245 240.041 18.9014 237.398C18.9014 233.491 18.888 229.577 18.8611 225.658L18.8438 225.693Z" fill="#3B2C7D"/>
<path d="M72.3544 49.2173C72.0907 49.9168 71.6726 50.5478 71.1314 51.0635C70.9583 51.2481 70.5256 51.1962 70.5025 50.9077C70.4374 50.3299 70.4666 49.7454 70.5891 49.1769C70.9232 48.1499 71.4072 47.1778 72.0256 46.2923C72.8084 45.144 73.6906 44.0668 74.6621 43.0731C75.8181 41.9188 77.0311 40.8232 78.2967 39.7904C79.5845 38.6837 80.9327 37.6494 82.3352 36.6923C83.0565 36.1971 83.8037 35.7407 84.5737 35.325C85.3923 34.8767 86.252 34.5077 87.141 34.2231C88.0988 33.912 89.122 33.8602 90.1064 34.0731C90.3454 34.1334 90.5805 34.2086 90.8102 34.2981L91.3871 34.5692C91.7675 34.7748 92.1236 35.0226 92.4487 35.3077C93.1531 35.9076 93.6715 36.6963 93.9429 37.5808C94.1883 38.4311 94.22 39.3288 94.0352 40.1942C93.8702 41.0237 93.5343 41.8096 93.0487 42.5019L92.7775 42.8481L92.5467 43.1192C92.3906 43.2982 92.2515 43.4913 92.1314 43.6962C91.8057 44.1112 91.4447 44.4972 91.0525 44.85C90.7583 45.1212 90.4121 45.4269 90.0487 45.7212C89.6852 46.0154 89.2814 46.2981 88.8948 46.6269C87.6964 47.5113 86.4266 48.2948 85.0987 48.9692C83.0197 49.9166 80.8614 50.6792 78.6487 51.2481C78.3409 51.358 78.0177 51.4184 77.691 51.4269C76.9867 51.405 76.283 51.4866 75.6025 51.6692C75.1237 51.7558 74.6333 51.8019 74.1544 51.8596C73.6756 51.9173 73.1564 51.9231 72.6948 51.9231C72.2061 51.8886 71.7226 51.8016 71.2525 51.6635C70.8314 51.5654 71.0621 51.1962 71.2064 51.15C71.6217 51.0116 71.2756 50.85 71.241 50.7C71.2215 50.6479 71.2215 50.5906 71.241 50.5385C71.241 50.4866 72.5564 50.2327 73.8544 49.8173C74.5064 49.5981 75.164 49.3673 75.6833 49.1423C76.2025 48.9173 76.6006 48.7673 76.7333 48.7269C76.7621 48.7269 77.2352 48.5769 77.9217 48.3231L79.0756 47.8673L80.4083 47.2904L81.7467 46.6385L82.9525 46.0096C83.6679 45.6058 84.2102 45.2885 84.3891 45.1731C84.7709 44.9525 85.168 44.7597 85.5775 44.5962C86.4576 44.0108 87.3033 43.3751 88.1102 42.6923C88.6871 42.2077 89.2352 41.6885 89.6333 41.2904C90.0314 40.8923 90.2967 40.5866 90.2679 40.5923C90.5194 40.3028 90.701 39.9593 90.7987 39.5885C90.8863 39.2447 90.9385 38.8929 90.9544 38.5385C90.9566 38.4071 90.9139 38.2788 90.8333 38.175C90.6692 37.9195 90.4455 37.7076 90.1814 37.5577C90.0237 37.4555 89.8577 37.3667 89.6852 37.2923C89.5871 37.2404 89.5641 37.2923 89.5006 37.2404C89.4435 37.2109 89.3803 37.1951 89.316 37.1942C88.4501 37.1929 87.5955 37.3903 86.8179 37.7712C85.8443 38.206 84.9117 38.7273 84.0314 39.3289C83.864 39.4385 83.6794 39.5192 83.5121 39.6173C83.3448 39.7154 83.0737 39.8654 82.866 40.0096C81.8044 40.7769 80.7717 41.5673 79.7333 42.4154C78.6948 43.2635 77.6275 44.1116 76.6871 45.0231C76.4621 45.225 75.7929 45.7789 75.1237 46.3385C74.5893 46.7765 74.0968 47.2632 73.6525 47.7923C73.4102 48.0577 72.4525 48.8827 72.3544 49.2173Z" fill="#3B2C7D"/>
<path d="M66.8028 43.535C66.4162 43.5927 66.1451 43.235 65.9778 42.7965C65.9541 42.6954 65.9554 42.5901 65.9815 42.4895C66.0077 42.389 66.0579 42.2964 66.1278 42.2196C66.3355 42.1331 66.5374 42.035 66.7047 41.9658C66.7682 41.9254 67.247 41.885 67.772 41.7292C68.297 41.5734 68.8451 41.3427 69.122 41.2734C69.6528 41.0831 70.1893 40.9504 70.7201 40.7888C71.2637 40.6282 71.7973 40.4356 72.3181 40.2119C72.8431 39.9811 73.3682 39.7504 73.8758 39.4677C74.1046 39.3475 74.3441 39.249 74.5912 39.1734C75.4399 38.8792 76.2138 38.4027 76.8585 37.7773C76.9914 37.6945 77.0913 37.568 77.1412 37.4196C77.4333 37.0351 77.7575 36.6761 78.1105 36.3465C78.5547 35.8734 78.9643 35.3658 79.0855 35.2734C79.6661 34.7956 80.1786 34.2404 80.6085 33.6234C80.6778 33.5369 80.6893 33.4273 80.8393 33.3869C81.197 33.2831 81.2258 33.0465 81.3297 32.81C81.4534 32.5044 81.594 32.2058 81.7508 31.9158C81.8143 31.76 82.0278 31.6158 82.1605 31.4484C82.1842 31.4224 82.2132 31.4016 82.2455 31.3873C82.2778 31.3731 82.3127 31.3657 82.348 31.3657C82.3832 31.3657 82.4181 31.3731 82.4504 31.3873C82.4827 31.4016 82.5117 31.4224 82.5355 31.4484C82.6162 31.6158 82.7547 31.4831 82.8585 31.4484C82.8965 31.4398 82.936 31.4398 82.9739 31.4484C83.0633 31.5695 83.1405 31.6989 83.2047 31.835C83.2985 32.1292 83.3698 32.43 83.4181 32.735C83.4846 33.2424 83.4846 33.7564 83.4181 34.2638C83.4181 34.2638 83.3662 34.5177 83.2451 34.8408C83.1816 35.0023 83.1008 35.1927 83.0201 35.4177C82.9393 35.6427 82.8239 35.8215 82.7258 36.035C82.3966 36.6576 82.0346 37.2623 81.6412 37.8465C81.519 38.0139 81.3663 38.1568 81.1912 38.2677C81.1508 38.3023 80.7239 38.8446 80.2508 39.4215C79.9292 39.7948 79.5863 40.1492 79.2239 40.4831C78.8179 40.8862 78.3243 41.1902 77.7816 41.3715C77.6733 41.403 77.5742 41.4604 77.4932 41.5388C76.7005 42.0836 75.8441 42.5293 74.9431 42.8658C74.4874 43.0561 74.0489 43.2754 73.5931 43.4427C73.5041 43.4627 73.4133 43.4743 73.322 43.4773C73.2087 43.4843 73.0965 43.5036 72.9874 43.535C71.8548 43.8641 70.697 44.0996 69.5258 44.2388C69.403 44.25 69.2794 44.25 69.1566 44.2388C68.961 44.2342 68.767 44.2031 68.5797 44.1465C68.1816 44.06 67.7835 43.9561 67.6335 43.9388C67.4835 43.9215 66.9239 43.5177 66.8028 43.535Z" fill="#3B2C7D"/>
<path d="M240.861 72.6926C237.071 76.8118 237.509 81.9233 238.34 87.0752C239.298 93.0579 242.286 98.9137 246.019 103.633C246.533 104.291 247.444 103.362 246.936 102.716C243.602 98.4926 240.896 93.2714 239.806 87.9753C238.796 83.0829 238.127 77.5906 241.779 73.6099C242.356 72.9926 241.427 72.0753 240.861 72.6926Z" fill="#3B2C7D"/>
<path d="M253.846 90.2307C253.298 88.9788 253.021 87.6288 252.496 86.3596C252.413 86.0885 252.229 85.8596 251.982 85.72C251.736 85.5805 251.445 85.541 251.169 85.6096C251.033 85.6469 250.905 85.7109 250.792 85.7979C250.68 85.8848 250.587 85.993 250.516 86.1163C250.446 86.2395 250.401 86.3754 250.383 86.5162C250.366 86.6569 250.376 86.7997 250.414 86.9365C250.991 88.3788 251.348 89.8961 251.977 91.3269C252.554 92.5961 254.4 91.4999 253.846 90.2307Z" fill="#3B2C7D"/>
<path d="M203.654 114.352C203.181 115.506 203.429 120.422 201.704 120.462C201.542 120.477 201.392 120.552 201.283 120.672C201.174 120.792 201.113 120.949 201.113 121.111C201.113 121.273 201.174 121.43 201.283 121.55C201.392 121.67 201.542 121.745 201.704 121.76C204.86 121.685 204.115 116.66 204.906 114.698C205.223 113.925 203.965 113.585 203.654 114.352Z" fill="#3B2C7D"/>
<path d="M204.03 115.962C205.184 117.548 207.641 118.748 208.893 116.504C209.914 114.687 209.28 112.356 210.128 110.498C210.474 109.742 209.355 109.085 209.009 109.84C208.478 110.994 208.432 112.344 208.276 113.59C208.231 114.278 208.097 114.957 207.878 115.61C207.238 117.115 205.847 116.25 205.149 115.31C204.659 114.64 203.534 115.31 204.03 115.962Z" fill="#3B2C7D"/>
<path d="M209.009 109.506C209.891 110.879 210.866 113.862 213.047 112.967C214.934 112.2 215.32 109.425 215.597 107.683C215.73 106.863 214.478 106.529 214.345 107.337C214.138 108.64 213.953 110.596 212.915 111.525C211.651 112.679 210.636 109.65 210.116 108.854C209.666 108.156 208.541 108.802 208.997 109.506H209.009Z" fill="#3B2C7D"/>
<path d="M194.355 214.817C194.738 214.984 195.165 215.018 195.569 214.914C195.972 214.809 196.329 214.572 196.582 214.241C197.609 213.058 200.217 205.841 201.434 204.433C202.819 202.864 210.879 207.427 213.925 205.812C216.192 204.612 200.217 199.696 200.217 199.696L194.355 214.817Z" fill="#3B2C7D"/>
<path d="M187.227 273.813C187.227 273.813 193.307 274.512 195.211 272.937C197.115 271.362 199.307 269.688 199.307 269.688C199.307 269.688 209.3 270.173 209.3 271.84C209.3 274.038 193.417 275.273 187.227 273.813Z" fill="#3B2C7D"/>
<path d="M182.043 273.565C181.466 273.467 180.889 273.369 180.278 273.248C179.666 273.127 179.124 273.006 178.518 272.867C178.091 272.775 177.658 272.723 177.237 272.596C175.747 272.183 174.286 271.671 172.864 271.062C172.241 270.762 171.583 270.56 170.966 270.265C170.568 270.087 170.141 269.948 169.754 269.74C169.36 269.536 168.992 269.284 168.658 268.99C168.254 268.621 169.737 267.594 170.516 268.033C171.976 268.794 173.476 269.492 175.039 270.219C175.52 270.419 176.013 270.587 176.516 270.721C177.029 270.848 177.554 270.952 178.062 271.085L179.764 271.465C180.341 271.575 180.918 271.696 181.495 271.789C182.21 271.904 182.92 272.019 183.635 272.1C184.72 272.233 185.816 272.348 186.906 272.389C187.754 272.389 188.591 272.337 189.439 272.302C189.624 272.302 189.808 272.273 190.016 272.273C190.714 272.273 190.939 272.423 191.049 272.879C191.082 272.983 191.107 273.089 191.124 273.196C191.158 273.548 190.853 273.814 190.356 273.883C188.799 274.077 187.225 274.112 185.66 273.987C184.466 273.906 183.266 273.773 182.072 273.612L182.043 273.565Z" fill="#3B2C7D"/>
<path d="M211.156 204.427C210.11 204.1 209.074 203.743 208.047 203.354C207.678 203.216 207.285 203.118 206.893 202.962C205.588 202.42 204.311 201.811 203.068 201.139C202.526 200.816 201.949 200.562 201.412 200.221L200.876 199.916C200.703 199.806 200.529 199.679 200.362 199.558C200.189 199.435 200.029 199.296 199.883 199.143C199.739 198.979 199.606 198.805 199.485 198.623C199.329 198.393 199.653 198.214 200.062 198.139C200.265 198.097 200.473 198.083 200.679 198.098C200.772 198.107 200.863 198.128 200.951 198.162C201.047 198.189 201.139 198.232 201.222 198.289C202.458 199.176 203.749 199.986 205.087 200.712C205.952 201.156 206.851 201.53 207.776 201.831C208.779 202.212 209.795 202.575 210.822 202.898C211.456 203.1 212.091 203.296 212.731 203.475C213.698 203.749 214.678 203.97 215.668 204.139C216.05 204.2 216.435 204.239 216.822 204.254C217.203 204.254 217.583 204.289 217.976 204.289C218.143 204.289 218.304 204.289 218.472 204.289C219.083 204.289 219.268 204.393 219.401 204.773C219.435 204.856 219.464 204.941 219.487 205.027C219.551 205.316 219.285 205.541 218.795 205.604C217.316 205.726 215.827 205.619 214.381 205.287C213.297 205.062 212.218 204.779 211.156 204.473V204.427Z" fill="#3B2C7D"/>
<path d="M132.485 178.996C131.144 178.03 129.684 177.239 128.141 176.643C127.576 176.416 126.998 176.223 126.41 176.066L124.864 175.61C124.339 175.489 123.808 175.391 123.278 175.275C122.212 175.061 121.135 174.905 120.053 174.808C119.093 174.734 118.13 174.71 117.168 174.739C116.551 174.739 115.933 174.808 115.316 174.843C114.698 174.883 114.077 174.883 113.458 174.843C112.68 174.791 113.556 173.406 115.028 173.325C117.635 173.161 120.253 173.336 122.816 173.845C123.583 174.035 124.374 174.168 125.164 174.323C125.955 174.479 126.739 174.71 127.506 174.946C129.192 175.515 130.805 176.279 132.312 177.225L133.005 177.658L133.656 178.148C134.1 178.465 134.526 178.805 134.931 179.17L135.855 179.995L136.708 180.883C136.997 181.171 137.285 181.46 137.528 181.795C137.77 182.129 138.064 182.406 138.318 182.723C139.108 183.698 139.916 184.639 140.655 185.608C140.822 185.827 140.989 186.035 141.151 186.26C141.728 187.085 141.831 187.414 141.647 187.795C141.608 187.884 141.564 187.971 141.514 188.054C141.33 188.291 140.937 188.054 140.424 187.512C139.005 185.821 137.695 183.964 136.183 182.32C135.074 181.085 133.834 179.975 132.485 179.008V178.996Z" fill="#3B2C7D"/>
<path d="M95.8408 125.192C95.6547 125.095 95.4932 124.957 95.3683 124.788C95.2434 124.619 95.1584 124.424 95.1196 124.217C95.0735 124.067 95.2292 123.785 95.3677 123.802C95.6446 123.837 95.9446 123.871 96.2158 123.935C96.7256 124.156 97.2126 124.426 97.6696 124.742C98.321 125.208 98.8936 125.775 99.3658 126.421C99.9285 127.282 100.247 128.279 100.289 129.306C100.364 131.323 99.754 133.305 98.5581 134.931C98.3018 135.283 98.0034 135.603 97.6696 135.883C96.5521 136.871 95.2767 137.665 93.8965 138.231C93.6482 138.295 93.4096 138.392 93.1869 138.519C92.9048 138.634 92.6106 138.718 92.31 138.767C92.0792 138.767 91.8138 138.825 91.5369 138.848C91.26 138.871 90.96 138.848 90.6542 138.848L89.7773 138.721C89.5004 138.652 89.235 138.577 89.0042 138.508C88.6944 138.4 88.3919 138.273 88.0985 138.127C87.81 137.948 87.5215 137.752 87.2619 137.55C87.0023 137.348 86.7888 137.187 86.5465 136.973C86.037 136.546 85.5885 136.051 85.2138 135.502C85.0862 135.358 84.9934 135.186 84.9427 135C84.8653 134.6 84.7354 134.212 84.5562 133.846C84.3685 133.335 84.2861 132.792 84.3138 132.248C84.3416 131.986 84.4077 131.73 84.51 131.487C84.585 131.262 84.8504 131.389 84.885 131.458C84.9773 131.665 85.0985 131.492 85.2081 131.458C85.2483 131.452 85.289 131.452 85.3292 131.458C85.4726 131.873 85.6521 132.274 85.8658 132.658C86.0989 133.034 86.3737 133.382 86.685 133.696C86.7926 133.83 86.9103 133.955 87.0369 134.071C87.3184 134.33 87.628 134.556 87.96 134.746C88.5194 135.109 89.13 135.385 89.7715 135.565C89.9504 135.614 90.1228 135.684 90.285 135.773C90.7153 135.838 91.1528 135.838 91.5831 135.773C91.8702 135.734 92.1537 135.672 92.4312 135.589C92.6619 135.496 92.8235 135.439 92.8465 135.433C93.3369 135.277 93.7581 134.994 94.3062 134.856C94.4124 134.824 94.5082 134.765 94.5831 134.683C95.336 134.105 95.9973 133.416 96.5446 132.64C96.8031 132.23 97.0159 131.793 97.1792 131.337C97.2138 131.256 97.2658 131.181 97.3062 131.106C97.3586 131.008 97.403 130.905 97.4388 130.8C97.5728 130.258 97.6425 129.703 97.6465 129.144C97.6227 128.598 97.4831 128.063 97.2369 127.575C97.1792 127.471 97.0985 127.108 96.9196 126.756C96.8417 126.584 96.747 126.419 96.6369 126.265C96.5725 126.152 96.4907 126.048 96.3946 125.96C96.2896 125.83 96.2005 125.689 96.1292 125.539C96.0568 125.405 95.9587 125.288 95.8408 125.192Z" fill="#3B2C7D"/>
<path d="M76.9239 108.087C76.9239 108.087 79.0123 103.65 85.0008 106.794C90.9892 109.939 95.7258 112.246 96.9373 109.91C98.1489 107.573 92.8585 98.5098 92.7142 93.5425C92.57 88.5752 93.8681 77.579 104.31 75.081C104.31 75.081 142.312 86.3367 152.945 75.081C152.945 75.081 172.33 62.0252 157.024 41.8848C157.024 41.8848 144.989 26.8444 119.276 40.731C119.276 40.731 104.645 50.1636 99.4989 58.9098C99.4989 58.9098 96.8219 63.1502 94.2027 64.2175C91.97 65.129 82.3296 59.2733 73.5662 63.6406C73.5662 63.6406 62.0854 72.2021 62.2758 81.4906C62.4662 90.779 68.8642 102.802 76.9239 108.087Z" fill="#3B2C7D"/>
<path d="M129.699 146.775C132.776 147.182 135.904 146.904 138.861 145.962C141.817 145.052 144.479 143.374 146.574 141.098C148.05 139.401 149.169 137.423 149.863 135.283C151.161 131.493 151.322 127.31 151.074 123.196C150.751 119.033 150.214 114.889 149.465 110.781C148.836 107.118 148.097 103.437 147.463 99.7734C147.059 97.4195 146.672 95.0541 146.413 92.6657C146.292 91.4715 146.165 90.2657 146.147 89.0484C146.13 87.8311 146.147 86.683 146.026 85.5868C145.957 84.9003 146.026 84.5888 146.205 84.5542C146.384 84.5195 146.782 84.7965 147.099 85.4022C147.524 86.2196 147.822 87.097 147.982 88.0041C148.097 88.5465 148.184 89.158 148.27 89.7349C148.357 90.3118 148.461 90.9695 148.513 91.633C149.424 101.146 151.876 110.596 152.742 120.479C153.042 123.498 153.107 126.536 152.938 129.566C152.824 131.119 152.593 132.662 152.245 134.181C151.871 135.709 151.335 137.192 150.647 138.606C149.075 141.717 146.621 144.296 143.592 146.02C140.618 147.729 137.284 148.717 133.859 148.904C131.766 149.024 129.666 148.859 127.617 148.414C126.598 148.193 125.598 147.898 124.622 147.531L123.169 147.018C122.684 146.833 122.217 146.62 121.744 146.441C118.879 145.222 116.138 143.733 113.557 141.993C110.986 140.274 108.543 138.371 106.247 136.298C102.7 133.146 99.508 129.616 96.7281 125.77C96.0993 124.933 95.5743 124.073 94.9974 123.179C92.9666 119.827 92.6435 118.564 92.7531 117.612C92.7631 117.394 92.796 117.177 92.8512 116.966C92.9608 116.718 93.2608 116.914 93.6993 117.468C94.1378 118.021 94.6685 118.968 95.4301 120.139C99.8399 127.422 105.641 133.766 112.501 138.808C115.082 140.72 117.841 142.379 120.74 143.764C121.094 143.95 121.458 144.117 121.83 144.266L122.938 144.739C123.665 145.073 124.426 145.316 125.176 145.587L126.33 145.985L127.449 146.296L128.603 146.545C128.984 146.62 129.37 146.666 129.757 146.723L129.699 146.775Z" fill="#3B2C7D"/>
<path d="M162.695 66.2482C161.16 69.3714 158.935 72.104 156.187 74.2386L154.11 75.7443L151.912 77.0424C151.538 77.256 151.153 77.4486 150.758 77.6193L149.604 78.1616C149.218 78.3347 148.848 78.5366 148.45 78.6924L147.25 79.154C144.041 80.2361 140.694 80.8557 137.31 80.9943C133.975 81.1469 130.634 81.0331 127.318 80.654C122.522 80.1106 117.766 79.2588 113.079 78.104C111.02 77.602 108.971 77.054 106.946 76.5347C106.439 76.4078 105.931 76.2809 105.446 76.177C105.193 76.1193 104.968 76.0847 104.743 76.0443C104.621 76.0443 104.616 76.0155 104.489 76.0847L103.121 76.7309L102.429 77.0597C102.198 77.1751 101.991 77.3136 101.771 77.4405L100.462 78.2193C100.035 78.4905 99.6484 78.7963 99.2388 79.102L98.6273 79.552L98.0792 80.0597L97.5023 80.5674C97.3131 80.7297 97.1375 80.9072 96.9773 81.0982C95.605 82.5328 94.5737 84.2582 93.96 86.1463C93.3685 88.0444 93.1991 90.0489 93.4638 92.0193C93.5881 93.0106 93.8123 93.9867 94.133 94.9328C94.4676 95.902 94.8426 96.877 95.2292 97.852C96.008 99.7963 96.8388 101.729 97.658 103.673L98.2696 105.144C98.4985 105.67 98.6744 106.217 98.7946 106.777C98.9454 107.401 98.9454 108.051 98.7946 108.675C98.6207 109.354 98.2119 109.949 97.6407 110.354C96.7139 110.922 95.6405 111.205 94.5542 111.167C93.557 111.178 92.5625 111.061 91.5946 110.821C91.1037 110.708 90.6216 110.56 90.1523 110.377C89.9048 110.277 89.6639 110.161 89.4311 110.031C89.1542 109.864 88.9869 109.742 88.7965 109.615C88.0592 109.096 87.2883 108.626 86.4888 108.208C84.9523 107.351 83.2337 106.872 81.4753 106.812C80.6546 106.796 79.8422 106.979 79.1078 107.346C78.3734 107.713 77.7387 108.252 77.258 108.917C76.6583 109.83 76.2511 110.855 76.0617 111.931C75.8722 113.006 75.9043 114.109 76.1561 115.171C76.6111 117.347 77.8058 119.298 79.5369 120.692C81.3066 122.056 83.4546 122.84 85.6869 122.937C87.9814 123.045 90.2776 122.762 92.4773 122.1C93.8676 121.708 94.5023 121.587 94.5369 121.8C94.5715 122.014 93.9946 122.515 92.8465 123.121C91.243 123.973 89.5036 124.539 87.7061 124.794C86.4605 124.984 85.1949 125.001 83.9446 124.846C82.4849 124.668 81.0728 124.212 79.7849 123.502C74.8926 120.831 72.3888 114.508 74.6273 109.177C75.2065 107.794 76.1996 106.625 77.4702 105.83C78.7409 105.034 80.2266 104.652 81.7234 104.735C83.0998 104.803 84.4542 105.107 85.7273 105.635C86.9397 106.124 88.0995 106.735 89.1888 107.458C89.46 107.625 89.7138 107.815 89.985 107.994L90.1811 108.133L90.3311 108.237L90.5849 108.375C91.0537 108.589 91.5427 108.755 92.0446 108.871C93.0761 109.136 94.1455 109.222 95.2061 109.125C95.6298 109.09 96.0409 108.964 96.4119 108.756C96.5322 108.687 96.6365 108.593 96.718 108.48C96.7995 108.368 96.8564 108.24 96.8849 108.104C96.9393 107.69 96.9038 107.269 96.7811 106.869C96.6153 106.335 96.4227 105.809 96.2042 105.294C95.2753 103.056 94.3061 100.794 93.4061 98.4924C92.9561 97.3386 92.5119 96.1847 92.1311 94.9443C91.7665 93.6835 91.5516 92.3842 91.4907 91.0732C91.4031 89.4936 91.5686 87.9101 91.9811 86.3828C92.1815 85.6124 92.4399 84.8584 92.7542 84.127C93.0886 83.4061 93.4742 82.7101 93.908 82.0443C95.6903 79.428 98.0744 77.2774 100.86 75.7732C101.529 75.3776 102.221 75.0212 102.931 74.7059L103.456 74.452L103.727 74.3193C103.857 74.2444 104 74.1954 104.148 74.1751C104.3 74.1423 104.455 74.1211 104.61 74.1117H104.858H105.043C105.245 74.1463 105.464 74.1751 105.654 74.2155C107.195 74.5386 108.631 74.9366 110.102 75.3001C113.016 76.0386 115.935 76.7366 118.854 77.3193C125.27 78.5943 131.823 79.4193 138.296 78.9463C139.907 78.8153 141.508 78.5879 143.091 78.2655C144.667 77.9292 146.211 77.4582 147.706 76.8578C150.684 75.6329 153.451 73.9468 155.904 71.8616L157 70.8751L157.981 69.779L158.477 69.202C158.639 69.0174 158.766 68.804 158.91 68.6251L159.764 67.4309C160.808 65.7736 161.587 63.9633 162.072 62.0655L162.268 61.3559C162.32 61.1193 162.348 60.8713 162.389 60.6347L162.62 59.1809L162.683 57.704L162.718 56.9713L162.695 56.2847L162.579 54.8078L162.348 53.3424L162.233 52.6155L162.048 51.9232L161.685 50.4809C161.454 49.7713 161.195 49.0616 160.952 48.352C160.71 47.6424 160.347 46.9674 160.052 46.2751C159.904 45.9347 159.733 45.6051 159.539 45.2886L158.991 44.3251L158.333 43.4309C158.123 43.1266 157.89 42.8392 157.635 42.5713C155.615 40.3583 153.109 38.6442 150.314 37.5636C144.654 35.3861 138.481 34.9128 132.556 36.202C130.272 36.6723 128.032 37.3323 125.858 38.1751L124.254 38.8501L123.452 39.1847L122.668 39.5655L121.11 40.3328C120.591 40.5924 120.095 40.9097 119.587 41.1693C115.554 43.4432 111.785 46.1558 108.348 49.2578C107.598 49.9559 106.843 50.6251 106.121 51.3347L103.964 53.504C103.312 54.202 102.712 54.8366 102.158 55.4193C101.604 56.002 101.143 56.5732 100.693 57.052C99.7926 58.0328 99.1061 58.8578 98.5061 59.5155C97.7163 60.4515 96.8307 61.3023 95.8638 62.054C95.5603 62.2926 95.2424 62.5122 94.9119 62.7116C94.5196 62.8847 94.733 62.2905 95.4888 61.0732C95.858 60.4963 96.3369 59.6886 96.9888 58.8174C97.6407 57.9463 98.385 56.9078 99.2965 55.829C104.72 49.327 111.348 43.3501 119.212 39.0636C120.175 38.4866 121.214 38.0597 122.218 37.5578C123.221 37.0559 124.295 36.6751 125.333 36.2309C126.371 35.7866 127.468 35.4636 128.558 35.152C129.648 34.8405 130.745 34.5059 131.87 34.3155C134.118 33.7993 136.416 33.5304 138.723 33.5136C141.044 33.4796 143.363 33.6728 145.646 34.0905L146.91 34.3732L147.539 34.5174L148.162 34.6963L149.408 35.0655C149.818 35.1982 150.221 35.3655 150.631 35.5097C151.456 35.7924 152.235 36.1963 153.031 36.5597C153.423 36.7443 153.798 36.9867 154.185 37.1943C154.582 37.4024 154.967 37.6316 155.339 37.8809L156.348 38.654C156.712 38.9078 157.029 39.2309 157.375 39.5078C158.052 40.089 158.686 40.7175 159.273 41.3886C159.579 41.7174 159.822 42.0982 160.098 42.4559C160.376 42.8071 160.628 43.1772 160.854 43.5636L161.523 44.7174C161.748 45.104 161.887 45.502 162.072 45.8713C163.557 49.0436 164.436 52.466 164.662 55.9616C164.877 59.4963 164.218 63.0296 162.741 66.2482H162.695Z" fill="#3B2C7D"/>
<path d="M61.0635 82.7657C60.9603 78.7831 61.9714 74.8508 63.9827 71.4118C64.3231 70.7772 64.7442 70.2003 65.1365 69.5888C65.5499 69.0069 65.9928 68.4465 66.4635 67.9099C68.1025 65.9847 70.1112 64.4081 72.3707 63.2734C74.6301 62.1388 77.0943 61.4691 79.6173 61.3041C81.8103 61.1352 84.0152 61.201 86.1942 61.5003C88.9628 61.8268 91.6686 62.5576 94.225 63.6695C95.0154 64.0272 94.7096 64.4657 93.8673 64.6907C92.6468 64.945 91.3823 64.8935 90.1865 64.5407C87.6212 63.802 84.9782 63.3664 82.3115 63.2426C79.673 63.1265 77.0358 63.5021 74.5346 64.3503C74.1654 64.4888 73.8077 64.6618 73.4442 64.8176C73.2596 64.9041 73.075 64.9791 72.8962 65.0714L72.3769 65.3772C72.0365 65.5907 71.6788 65.7811 71.3442 66.0176L70.3808 66.7676C70.0548 67.0172 69.7482 67.2911 69.4635 67.5868C69.175 67.8753 68.8865 68.1638 68.5865 68.4464L67.7673 69.3811C67.4962 69.6984 67.2596 70.033 67 70.3561C64.7832 73.2472 63.4327 76.7083 63.1058 80.3368C62.9088 82.5876 63.0508 84.8551 63.5269 87.0638C64.2564 90.4443 65.5245 93.6857 67.2827 96.6638C68.6529 98.9331 70.2474 101.059 72.0423 103.01L73.2308 104.268C74.725 105.837 75.1462 106.379 75.1173 107.1C75.1259 107.26 75.1162 107.421 75.0885 107.579C74.9731 108.023 74.0558 107.671 72.8154 106.564C69.0083 103.105 65.9442 98.9087 63.8096 94.2291C62.1235 90.6357 61.1685 86.743 61 82.7772L61.0635 82.7657Z" fill="#3B2C7D"/>
<path d="M99.8388 134.556C99.3019 135.615 98.5585 136.557 97.6523 137.325C96.7446 138.05 95.7178 138.613 94.6176 138.986C93.828 139.266 93.006 139.444 92.1715 139.517C91.4316 139.565 90.6885 139.515 89.9619 139.367C89.2299 139.23 88.5223 138.985 87.8619 138.64C87.2039 138.305 86.6009 137.871 86.0734 137.354C85.5433 136.862 85.0797 136.304 84.6946 135.692C83.9907 134.61 83.5392 133.384 83.3734 132.104C83.2627 131.276 83.294 130.435 83.4657 129.617C83.6461 128.796 84.0244 128.032 84.5676 127.39C84.9138 126.986 85.2657 127.39 85.4792 127.967C85.7256 128.59 85.7876 129.271 85.658 129.929C84.9715 132.236 86.01 134.902 88.0753 136.569C89.31 137.55 91.1215 137.723 92.7542 137.452C94.6015 137.172 96.2717 136.196 97.4215 134.723C98.1115 133.782 98.579 132.697 98.7888 131.55C98.9494 130.674 98.963 129.777 98.8292 128.896C98.687 128.025 98.3711 127.191 97.9003 126.444C97.1326 125.339 96.0335 124.507 94.7619 124.067C94.4792 123.975 94.2138 123.883 93.9253 123.808C92.8753 123.502 92.5465 123.358 92.385 122.781C92.3359 122.654 92.2991 122.522 92.2753 122.388C92.2119 121.973 92.7657 121.679 93.7349 121.811C95.2558 121.989 96.6967 122.588 97.8946 123.542C99.1706 124.586 100.097 125.995 100.548 127.581C101.206 129.909 100.969 132.399 99.885 134.561L99.8388 134.556Z" fill="#3B2C7D"/>
<path d="M129.398 161.337C131.861 161.631 134.354 161.839 136.898 162.364C137.898 162.521 138.87 162.824 139.783 163.264C140.008 163.384 140.222 163.522 140.423 163.679L140.735 163.933C140.833 164.037 140.931 164.152 141.023 164.262C141.346 164.669 141.587 165.136 141.733 165.635C141.979 166.49 142.101 167.376 142.096 168.266C142.083 169.903 141.976 171.539 141.773 173.164C141.629 174.583 141.525 176.002 141.496 177.387C141.489 179.122 141.595 180.857 141.813 182.579C141.888 183.087 141.386 183.214 140.769 182.862C140.372 182.6 140.041 182.25 139.803 181.838C139.564 181.427 139.425 180.965 139.396 180.491C139.142 176.539 139.904 172.875 140.204 169.292C140.313 168.269 140.223 167.235 139.938 166.246C139.872 166.044 139.781 165.85 139.667 165.669C139.624 165.591 139.567 165.521 139.5 165.462C139.447 165.389 139.381 165.329 139.304 165.283C138.923 165.012 138.5 164.806 138.052 164.671C136.91 164.316 135.737 164.065 134.55 163.921C133.327 163.742 132.086 163.61 130.84 163.477C129.306 163.31 127.76 163.142 126.225 162.958C123.876 162.679 121.546 162.267 119.244 161.723C117.437 161.351 115.672 160.797 113.977 160.067C113.595 159.9 113.225 159.707 112.869 159.491C111.525 158.677 111.248 158.181 111.358 157.581C111.37 157.443 111.399 157.308 111.444 157.177C111.531 156.981 111.75 156.917 112.021 156.964C112.407 157.065 112.778 157.218 113.123 157.419C115.924 158.844 118.932 159.818 122.036 160.304C124.425 160.742 126.888 161.037 129.381 161.279L129.398 161.337Z" fill="#3B2C7D"/>
<path d="M81.0613 221.492L83.7786 214.287C84.742 211.91 85.6767 209.521 86.6632 207.15L88.792 201.958C91.4228 195.917 94.192 189.94 96.9382 183.969C98.1555 181.321 99.3151 178.627 100.429 175.967C101.813 172.506 103.169 169.044 104.404 165.623C104.813 164.562 105.269 164.827 105.454 165.912C105.547 166.632 105.547 167.361 105.454 168.081C105.333 169.068 105.09 170.037 104.732 170.965C104.404 171.877 104.046 172.765 103.677 173.642L102.569 176.296C101.802 178.027 101.04 179.787 100.261 181.517C98.6766 184.979 97.0478 188.429 95.3747 191.867C93.3901 195.992 91.5786 200.394 89.7843 204.71L88.2728 208.269L86.842 211.846L85.417 215.429L84.067 219.04C82.9132 221.988 81.9266 224.994 80.8997 227.983C79.4228 232.535 78.0151 237.133 76.8613 241.748C76.6305 242.642 76.394 243.531 76.1978 244.425L75.6613 247.113C75.3209 248.902 74.9459 250.679 74.6343 252.479C74.5074 253.269 74.4093 254.048 74.2709 254.85C73.7747 257.804 73.469 258.721 72.8286 259.269C72.6962 259.406 72.5491 259.528 72.3901 259.633C71.9286 259.858 71.8132 258.588 72.0901 256.385C72.2978 254.752 72.517 253.096 72.7709 251.423C73.0247 249.75 73.4228 248.1 73.769 246.415C73.942 245.579 74.1209 244.731 74.2997 243.888C74.4786 243.046 74.7209 242.21 74.9343 241.367C75.3728 239.694 75.8113 238.004 76.2497 236.319C76.9766 233.833 77.7497 231.358 78.5055 228.877L80.9978 221.504L81.0613 221.492Z" fill="#3B2C7D"/>
<path d="M154.514 210.86C153.083 208.714 151.675 206.579 150.273 204.398C148.872 202.217 147.585 199.979 146.275 197.781C145.312 196.177 144.302 194.619 143.293 193.073C141.556 190.328 139.552 187.762 137.31 185.412C136.205 184.229 135.038 183.107 133.814 182.048C132.583 181.019 131.267 180.096 129.879 179.29C127.379 177.925 124.666 176.995 121.854 176.539C118.248 175.915 114.556 175.962 110.893 176.002C109.739 176.002 109.843 175.471 110.8 174.917C111.44 174.57 112.12 174.305 112.825 174.127C113.802 173.906 114.801 173.798 115.802 173.804C119.778 173.833 123.718 174.547 127.45 175.915C129.315 176.661 131.091 177.611 132.747 178.748C134.371 179.891 135.88 181.19 137.252 182.625C138.077 183.467 138.873 184.356 139.675 185.192C140.477 186.029 141.273 186.987 142.012 187.939C143.495 189.817 144.87 191.778 146.131 193.812C147.516 196.015 148.814 198.254 150.17 200.464C151.525 202.673 152.898 204.808 154.329 206.965C156.06 209.619 157.854 212.256 159.677 214.858C162.429 218.798 165.256 222.721 168.239 226.442C170.547 229.327 172.998 232.039 175.502 234.698L177.17 236.429C179.241 238.604 179.841 239.348 179.91 240.196C179.945 240.387 179.96 240.58 179.956 240.773C179.87 241.269 178.75 240.64 177.112 239.117C172.272 234.577 167.783 229.2 163.554 223.627C160.422 219.49 157.439 215.215 154.52 210.935L154.514 210.86Z" fill="#3B2C7D"/>
<path d="M204.283 187.165C203.441 191.665 202.305 196.067 201.041 200.435L200.36 202.829C200.13 203.625 199.882 204.415 199.628 205.2C197.811 210.751 195.671 216.191 193.218 221.492C192.641 222.646 192.151 223.858 191.551 225.012L190.685 226.742L190.258 227.614L189.808 228.462C189.007 229.91 188.257 231.398 187.316 232.777C186.849 233.475 186.433 234.196 185.908 234.848C185.383 235.5 184.847 236.146 184.293 236.775C183.601 237.56 183.301 237.098 183.439 236.1C183.541 235.474 183.724 234.863 183.982 234.283C184.126 233.942 184.31 233.596 184.507 233.221C184.7 232.824 184.918 232.438 185.158 232.067L186.491 230.014L187.714 227.867L188.332 226.8C188.539 226.442 188.712 226.067 188.908 225.704L190.062 223.506C190.818 222.029 191.499 220.512 192.237 219.017C192.976 217.523 193.616 215.977 194.28 214.431C195.833 210.634 197.191 206.76 198.347 202.823C199.662 198.496 200.857 194.123 201.808 189.71L202.23 187.667L202.593 185.614C202.714 184.933 202.83 184.246 202.905 183.565C202.98 182.885 203.095 182.192 203.141 181.506C203.239 180.482 203.268 179.453 203.228 178.425C203.164 177.392 203.037 176.354 202.893 175.31C202.605 173.227 202.23 171.15 201.872 169.067C201.733 168.254 201.595 167.452 201.48 166.627C201.416 166.223 201.393 165.767 201.364 165.34C201.36 164.903 201.385 164.465 201.439 164.031C201.545 163.159 201.778 162.308 202.132 161.504C202.472 160.712 202.898 159.96 203.401 159.26C203.82 158.656 204.274 158.078 204.762 157.529C206.62 155.521 207.341 155.089 208.108 155.048C208.283 155.028 208.459 155.028 208.633 155.048C209.118 155.158 208.564 156.202 207.283 157.621C205.414 159.744 203.603 162.006 203.389 164.544C203.358 164.861 203.346 165.179 203.355 165.496C203.389 165.825 203.355 166.114 203.441 166.489C203.539 167.198 203.66 167.937 203.787 168.681L204.566 173.192C204.751 174.346 204.93 175.46 205.062 176.654C205.132 177.231 205.189 177.808 205.224 178.431C205.264 179.042 205.264 179.655 205.224 180.265L205.114 182.048L204.901 183.779C204.78 184.933 204.549 186.087 204.37 187.24L204.283 187.165Z" fill="#3B2C7D"/>
<path d="M207.532 259.615C205.672 262.773 203.527 265.753 201.122 268.517C199.86 269.914 198.456 271.177 196.934 272.285C195.234 273.298 193.318 273.891 191.343 274.015C188.648 274.26 185.933 274.152 183.266 273.692C178.644 272.857 174.141 271.458 169.859 269.527C165.603 267.634 161.509 265.398 157.616 262.84C154.155 260.579 150.82 258.138 147.641 255.565C143.509 252.305 139.666 248.693 136.155 244.771C135.076 243.542 135.613 243.352 136.922 244.004C137.782 244.457 138.603 244.982 139.374 245.573C140.457 246.376 141.49 247.245 142.466 248.175C150.116 255.404 158.551 261.848 168.018 266.637C170.89 268.084 173.88 269.284 176.955 270.225C180.041 271.187 183.22 271.821 186.439 272.117C188.168 272.278 189.908 272.254 191.632 272.048C192.471 271.935 193.298 271.741 194.101 271.471C194.487 271.342 194.863 271.186 195.226 271.004L195.734 270.704C195.907 270.588 196.074 270.444 196.247 270.323C197.641 269.266 198.914 268.059 200.043 266.723L200.903 265.713C201.18 265.373 201.445 265.01 201.716 264.663C202.293 263.965 202.772 263.227 203.286 262.5C205.756 258.841 207.973 255.016 209.92 251.054C212.896 245.05 215.541 238.886 217.841 232.592C219.618 227.717 221.113 222.854 222.457 217.927C222.757 216.842 223.034 215.775 223.299 214.679C224.349 210.606 224.638 209.36 225.301 208.552C225.427 208.348 225.57 208.155 225.728 207.975C225.947 207.779 226.114 208.125 226.166 208.944C226.165 210.149 226.035 211.35 225.78 212.527C224.8 217.158 223.567 221.732 222.088 226.229C220.605 230.804 218.943 235.396 217.103 239.925C214.418 246.713 211.236 253.295 207.584 259.615H207.532Z" fill="#3B2C7D"/>
<path d="M217.906 151.604C216.868 152.439 215.883 153.339 214.958 154.298C214.624 154.65 214.341 155.048 214.001 155.406C212.836 156.679 211.788 158.054 210.868 159.514C210.657 159.838 210.465 160.173 210.291 160.518C210.147 160.864 209.997 161.216 209.847 161.562C209.674 162.012 209.564 162.485 209.403 162.941C209.28 163.404 209.118 163.855 208.918 164.291C208.78 164.562 208.341 164.435 207.937 164.071C207.719 163.874 207.556 163.624 207.464 163.345C207.372 163.066 207.354 162.767 207.412 162.479C208.067 160.412 209.13 158.497 210.539 156.848C211.381 155.885 212.085 154.777 212.956 153.814C213.897 152.754 214.907 151.757 215.98 150.831C216.638 150.249 217.325 149.7 218.039 149.187C218.322 148.996 218.616 148.806 218.905 148.61L219.383 148.356C219.585 148.276 219.793 148.216 220.006 148.177C220.742 148.068 221.493 148.141 222.193 148.391C222.742 148.607 223.24 148.937 223.653 149.359C224.066 149.78 224.387 150.284 224.593 150.837C224.688 151.068 224.767 151.305 224.83 151.546C225.014 152.446 224.858 152.746 224.38 152.937C224.271 152.983 224.159 153.021 224.045 153.052C223.658 153.127 223.358 152.804 223.191 152.308C223.012 151.635 222.676 151.014 222.21 150.496C222.01 150.303 221.77 150.154 221.507 150.061C221.245 149.967 220.965 149.931 220.687 149.954C220.562 149.956 220.436 149.965 220.312 149.983H220.22C220.387 151.418 219.986 152.862 219.104 154.007C218.222 155.151 216.928 155.906 215.497 156.111C214.067 156.315 212.613 155.953 211.445 155.102C210.278 154.25 209.489 152.976 209.247 151.552C209.005 150.127 209.328 148.664 210.149 147.474C210.969 146.285 212.222 145.463 213.64 145.183C215.057 144.903 216.528 145.188 217.739 145.977C218.95 146.766 219.805 147.996 220.122 149.406V149.516L220.151 149.712L220.185 149.902V150C220.185 150 220.185 150 220.151 150C219.907 150.122 219.672 150.261 219.447 150.416C218.91 150.771 218.394 151.156 217.901 151.569L217.906 151.604Z" fill="#3B2C7D"/>
<path d="M226.938 162.208C226.962 162.176 226.977 162.138 226.979 162.098C226.979 162.063 227.013 162.058 226.979 161.971C226.978 161.805 226.965 161.639 226.938 161.475C226.88 161.119 226.795 160.768 226.684 160.425C226.588 160.196 226.476 159.975 226.35 159.762C226.276 159.609 226.185 159.466 226.079 159.335C226.027 159.259 225.949 159.205 225.859 159.185C225.808 159.176 225.755 159.176 225.704 159.185C225.615 159.206 225.528 159.235 225.444 159.271C225.24 159.367 225.047 159.483 224.867 159.617C224.514 159.886 224.196 160.198 223.921 160.546C223.582 161.061 223.145 161.504 222.634 161.85C222.444 161.954 222.19 161.59 222.011 161.175C221.832 160.76 221.711 160.298 221.93 160.05C222.345 159.573 222.794 159.128 223.275 158.717C223.545 158.491 223.832 158.287 224.134 158.106C224.49 157.889 224.88 157.734 225.288 157.65C225.597 157.578 225.918 157.577 226.227 157.648C226.536 157.719 226.825 157.86 227.071 158.06C227.448 158.374 227.751 158.768 227.959 159.213C228.351 160.052 228.585 160.956 228.652 161.879C228.647 162.54 228.408 163.178 227.977 163.679C227.426 164.297 226.802 164.845 226.119 165.312C225.629 165.681 225.173 166.096 224.671 166.465C224.561 166.546 224.457 166.633 224.342 166.702C223.904 166.962 223.696 166.921 223.419 166.552C223.349 166.472 223.285 166.387 223.229 166.298C223.142 166.16 223.108 165.996 223.133 165.835C223.157 165.674 223.238 165.527 223.361 165.421C224.111 164.712 224.982 164.14 225.738 163.517C226.003 163.306 226.252 163.074 226.482 162.825C226.66 162.651 226.798 162.44 226.886 162.208H226.938Z" fill="#3B2C7D"/>
<path d="M217.745 184.379C218.44 182.671 219.238 181.006 220.134 179.394C220.459 178.773 220.826 178.174 221.23 177.6C221.334 177.473 221.46 177.34 221.57 177.208L221.749 177.017L221.899 176.867L222.505 176.29C222.897 175.892 223.284 175.483 223.659 175.067C224.409 174.225 225.112 173.337 225.793 172.413C226.088 172.019 226.362 171.609 226.612 171.185C226.826 170.785 226.983 170.358 227.08 169.915C227.198 169.361 227.214 168.79 227.126 168.231C227.05 167.715 226.884 167.217 226.635 166.76C226.485 166.483 226.814 166.131 227.414 166.125C227.58 166.126 227.744 166.157 227.899 166.217C228.083 166.281 228.253 166.379 228.401 166.506C228.758 166.799 229.002 167.207 229.093 167.66C229.24 168.484 229.219 169.33 229.03 170.146C228.851 170.939 228.53 171.694 228.084 172.373C227.962 172.558 227.876 172.673 227.772 172.817L227.466 173.221L226.843 174.029C226.416 174.565 225.966 175.09 225.487 175.598L223.791 177.462L223.359 177.929C223.226 178.073 223.035 178.252 222.949 178.367C222.719 178.645 222.505 178.936 222.309 179.238C221.385 180.742 220.58 182.316 219.903 183.946C219.464 184.95 219.066 185.983 218.697 187.015C218.134 188.587 217.662 190.19 217.284 191.815C217.042 193.065 216.882 194.329 216.805 195.6C216.805 195.877 216.805 196.148 216.747 196.425C216.666 197.458 216.522 197.769 216.009 197.96C215.894 198.007 215.776 198.047 215.657 198.081C215.264 198.156 214.993 197.7 214.959 196.927C214.931 194.47 215.266 192.023 215.951 189.663C216.435 187.879 217.013 186.12 217.682 184.396L217.745 184.379Z" fill="#3B2C7D"/>
<path d="M221.505 152.671C221.718 152.573 221.943 152.487 222.168 152.406L222.514 152.291L222.964 152.164C223.441 152.047 223.945 152.118 224.372 152.36C224.561 152.462 224.742 152.578 224.914 152.706C225.046 152.81 225.166 152.928 225.272 153.058C225.883 153.888 226.294 154.847 226.472 155.862C226.572 156.298 226.649 156.739 226.703 157.183C226.746 157.493 226.746 157.808 226.703 158.118C226.654 158.466 226.482 158.785 226.218 159.018C226.034 159.173 225.711 158.81 225.387 158.441C225.064 158.071 224.695 157.829 224.712 157.714C224.785 156.956 224.744 156.192 224.591 155.446C224.467 154.946 224.198 154.492 223.818 154.143L223.743 154.068L223.709 154.033L223.616 153.958C223.543 153.917 223.458 153.9 223.374 153.912C223.282 153.929 223.191 153.955 223.103 153.987C222.993 154.021 222.878 154.056 222.762 154.102C222.389 154.243 222.028 154.414 221.684 154.616C221.142 154.92 220.636 155.286 220.178 155.706C219.851 156.059 219.563 156.446 219.318 156.86C219.261 156.952 219.22 157.045 219.157 157.131C218.92 157.437 218.753 157.454 218.32 157.2C218.216 157.143 218.118 157.091 218.02 157.027C217.873 156.947 217.76 156.817 217.7 156.66C217.64 156.504 217.637 156.332 217.691 156.173C218.1 155.259 218.735 154.465 219.537 153.866C220.142 153.384 220.795 152.968 221.487 152.625L221.505 152.671Z" fill="#3B2C7D"/>
<path d="M212.701 205.766C211.501 205.46 210.313 205.12 209.13 204.762C208.703 204.629 208.259 204.548 207.832 204.404C206.32 203.897 204.843 203.314 203.378 202.673C202.726 202.391 202.057 202.148 201.399 201.877C200.963 201.707 200.535 201.514 200.118 201.3C199.66 201.066 199.264 200.726 198.964 200.308C198.745 199.956 199.23 199.789 199.697 199.622C200.164 199.454 200.655 199.258 201.03 199.477C202.42 200.245 204.088 200.937 205.686 201.739C206.699 202.167 207.745 202.514 208.813 202.777C209.966 203.129 211.12 203.47 212.314 203.77C213.041 203.954 213.768 204.139 214.501 204.289C215.606 204.538 216.723 204.73 217.847 204.866C218.711 204.93 219.578 204.945 220.443 204.912C220.634 204.912 220.824 204.912 221.02 204.912C221.724 204.912 221.938 205.062 222.07 205.564C222.105 205.675 222.132 205.789 222.151 205.904C222.203 206.291 221.897 206.591 221.355 206.672C219.704 206.857 218.035 206.807 216.399 206.522C215.164 206.337 213.936 206.072 212.718 205.8L212.701 205.766Z" fill="#3B2C7D"/>
<path d="M171.539 203.943C170.356 202.691 169.197 201.416 168.049 200.135C167.622 199.673 167.172 199.235 166.762 198.762C165.308 197.095 163.918 195.381 162.522 193.673C161.899 192.918 161.247 192.179 160.595 191.458C159.688 190.571 158.897 189.573 158.241 188.487C158.05 188.123 158.483 187.91 159.054 187.91C159.377 187.892 159.7 187.947 160 188.07C160.299 188.192 160.567 188.38 160.785 188.62C162.383 190.541 163.987 192.491 165.499 194.556C166.41 195.785 167.541 196.898 168.585 198.058C169.739 199.333 170.893 200.602 172.047 201.848C172.768 202.621 173.512 203.366 174.25 204.121L175.981 205.783C176.558 206.325 177.164 206.856 177.764 207.364C178.713 208.115 179.709 208.805 180.747 209.429L181.416 209.845C182.252 210.341 182.443 210.612 182.368 211.154C182.362 211.276 182.346 211.398 182.322 211.518C182.212 211.904 181.699 211.95 180.995 211.627C178.908 210.572 176.985 209.221 175.283 207.618C173.979 206.464 172.739 205.223 171.516 203.989L171.539 203.943Z" fill="#3B2C7D"/>
<path d="M183.733 182.983C183.324 184.396 182.874 185.804 182.406 187.2C182.227 187.708 182.118 188.239 181.927 188.741C181.276 190.523 180.537 192.271 179.747 194.002C179.562 194.387 179.389 194.771 179.227 195.156L178.702 196.31C178.489 196.806 178.224 197.302 177.964 197.798C177.663 198.316 177.258 198.766 176.776 199.119C176.458 199.356 176.233 198.918 176.095 198.387C176.029 198.132 175.988 197.871 175.974 197.608C175.95 197.341 176.013 197.074 176.152 196.846C176.289 196.644 176.414 196.434 176.527 196.218C176.649 195.998 176.781 195.796 176.897 195.56C177.122 195.093 177.381 194.66 177.601 194.175L179.026 191.291C179.563 190.085 180.016 188.844 180.381 187.575C180.843 186.196 181.299 184.812 181.702 183.41C181.956 182.544 182.204 181.679 182.418 180.814C182.591 180.15 182.752 179.493 182.902 178.829C183.052 178.166 183.197 177.496 183.295 176.833C183.474 175.794 183.497 174.762 183.572 173.729C183.572 173.498 183.572 173.273 183.572 173.048C183.647 172.2 183.802 171.952 184.316 171.819C184.431 171.819 184.547 171.75 184.662 171.733C185.054 171.693 185.326 172.073 185.354 172.725C185.407 174.699 185.213 176.672 184.777 178.598C184.489 180.058 184.12 181.483 183.739 182.943L183.733 182.983Z" fill="#3B2C7D"/>
<path d="M187.062 132.519C187.096 133.946 187.434 135.348 188.055 136.633C188.205 136.956 188.401 137.256 188.568 137.573C188.735 137.89 188.978 138.15 189.191 138.456C189.631 139.015 190.136 139.518 190.697 139.956C191.544 140.584 192.482 141.08 193.478 141.427C194.017 141.624 194.568 141.786 195.128 141.912C195.405 141.969 195.705 142.027 195.976 142.067L196.397 142.119H196.547H196.743H197.135L197.759 142.696L198.151 143.06L198.924 143.792L200.459 145.275C201.47 146.271 202.472 147.277 203.464 148.292C204.728 149.596 206.009 150.894 207.237 152.221C208.028 153.075 208.818 153.952 209.545 154.881C209.912 155.356 210.247 155.856 210.549 156.375C210.88 156.922 211.123 157.518 211.27 158.14C211.351 158.573 211.224 158.792 211.045 158.787C210.773 158.728 210.519 158.603 210.307 158.423C209.475 157.884 208.744 157.202 208.149 156.41C206.758 154.599 205.269 152.866 203.689 151.217C202.109 149.521 200.482 147.837 198.849 146.146C198.434 145.719 198.007 145.298 197.568 144.877L196.905 144.26L196.57 143.954C196.536 143.918 196.5 143.885 196.46 143.856C196.385 143.856 196.385 143.856 196.091 143.856C195.797 143.856 195.647 143.804 195.422 143.775C194.984 143.706 194.545 143.625 194.107 143.515C193.234 143.305 192.387 143.002 191.58 142.61C190.024 141.862 188.671 140.752 187.634 139.373C186.611 138.011 185.889 136.448 185.516 134.787C185.302 133.769 185.212 132.728 185.251 131.688C185.302 130.662 185.464 129.645 185.735 128.654C186.056 127.467 186.521 126.324 187.12 125.25L187.287 125.988L186.82 125.642L187.16 125.192C188.239 123.744 189.376 122.354 190.524 120.998C192.012 119.267 193.46 117.508 194.966 115.806C195.295 115.431 195.607 115.056 195.953 114.687C197.216 113.319 197.718 112.956 198.347 113.031C198.49 113.031 198.633 113.045 198.774 113.071C199.172 113.21 198.878 113.977 198.012 115.038C195.451 118.188 192.543 121.269 189.935 124.563C189.497 125.14 189.064 125.717 188.637 126.265L188.355 124.5L189.255 125.158L188.718 126.133C187.619 128.079 187.061 130.284 187.103 132.519H187.062Z" fill="#3B2C7D"/>
<path d="M234.082 121.564C231.469 122.666 228.89 123.843 226.334 125.094C225.399 125.55 224.505 126.075 223.582 126.543C220.334 128.21 217.121 129.958 214.034 131.908C212.667 132.779 211.334 133.719 210.076 134.706C208.455 135.981 206.955 137.383 205.386 138.669C204.896 139.068 204.601 138.669 204.665 137.971C204.808 136.961 205.322 136.039 206.107 135.387C209.411 132.592 213.018 130.177 216.861 128.187C219.169 126.981 221.436 125.591 223.784 124.385C226.357 123.058 228.976 121.823 231.624 120.652C233.251 119.925 234.896 119.244 236.546 118.575C239.044 117.56 241.594 116.648 244.132 115.789C246.111 115.119 248.044 114.427 250.08 113.925C250.524 113.81 250.963 113.694 251.424 113.619C252.032 113.488 252.656 113.443 253.276 113.487C253.44 113.501 253.6 113.549 253.745 113.627C253.89 113.706 254.017 113.813 254.119 113.943C254.214 114.042 254.297 114.153 254.367 114.271C254.442 114.456 254.315 114.635 254.026 114.791C253.601 114.969 253.158 115.103 252.705 115.189C249.092 116.045 245.537 117.127 242.061 118.431C239.396 119.406 236.73 120.462 234.111 121.604L234.082 121.564Z" fill="#3B2C7D"/>
<path d="M263.709 104.308C263.84 105.598 263.862 106.897 263.773 108.19C263.722 108.879 263.606 109.561 263.427 110.227C263.324 110.598 263.179 110.956 262.994 111.294C262.89 111.481 262.77 111.659 262.636 111.825C262.491 111.995 262.328 112.15 262.152 112.287C261.476 112.798 260.637 113.045 259.792 112.979C259.069 112.913 258.363 112.718 257.709 112.402C256.534 111.821 255.435 111.096 254.438 110.244C253.02 109.066 251.709 107.765 250.521 106.356C248.42 103.921 246.557 101.289 244.959 98.4981C243.339 95.7098 242.025 92.754 241.042 89.6827C240.6 88.3158 240.253 86.9202 240.003 85.5058C239.729 84.0932 239.557 82.6625 239.49 81.225C239.383 79.3529 239.538 77.4751 239.952 75.6461C240.191 74.7047 240.571 73.8044 241.077 72.975C241.583 72.09 242.321 71.3599 243.211 70.8635C243.417 70.7436 243.648 70.6726 243.886 70.6558C244.042 70.6558 244.123 70.6904 244.146 70.7711C244.186 70.9385 243.967 71.2154 243.725 71.6365C243.078 72.9103 242.617 74.2703 242.357 75.675C242.143 76.4728 241.983 77.2843 241.878 78.1038C241.782 78.9484 241.738 79.7981 241.746 80.6481C241.764 82.3914 241.942 84.1294 242.277 85.8404C242.613 87.5736 243.043 89.2876 243.563 90.975C244.107 92.6863 244.76 94.3609 245.519 95.9885C247.511 99.9474 250.067 103.597 253.105 106.823C253.927 107.706 254.804 108.537 255.73 109.31C256.615 110.077 257.613 110.702 258.69 111.162C259.17 111.359 259.689 111.447 260.207 111.421C260.432 111.404 260.652 111.343 260.853 111.242C261.047 111.142 261.221 111.007 261.367 110.844C261.667 110.427 261.864 109.944 261.944 109.437C262.037 108.865 262.077 108.285 262.065 107.706C261.923 104.716 261.459 101.751 260.68 98.8615C259.548 94.4072 258.035 90.0584 256.157 85.8635C254.739 82.6868 252.968 79.6795 250.878 76.8981C250.411 76.3211 249.932 75.7442 249.425 75.2192C248.779 74.5408 248.087 73.9085 247.353 73.3269C246.995 73.0683 246.681 72.7526 246.425 72.3923C246.327 72.2423 246.159 72.1096 246.084 71.9711C246.009 71.8327 246.05 71.7692 246.171 71.6885C246.38 71.5858 246.613 71.5419 246.846 71.5615C247.242 71.5788 247.632 71.6627 248 71.8096C248.488 72.0146 248.951 72.276 249.378 72.5885C250.721 73.626 251.908 74.8499 252.903 76.2231C253.91 77.5656 254.827 78.9724 255.65 80.4346C257.296 83.3852 258.723 86.4531 259.919 89.6135C260.808 91.9733 261.578 94.3764 262.227 96.8135C262.903 99.2765 263.414 101.782 263.755 104.313L263.709 104.308Z" fill="#3B2C7D"/>
<path d="M209.627 143.833C209.95 144.3 210.267 144.773 210.619 145.223C210.74 145.391 210.902 145.529 211.029 145.696C211.467 146.273 211.906 146.885 212.384 147.427C212.593 147.679 212.818 147.916 213.059 148.137C213.4 148.387 213.691 148.698 213.919 149.054C213.982 149.181 213.769 149.377 213.492 149.516C213.368 149.592 213.227 149.638 213.082 149.649C212.936 149.66 212.79 149.636 212.656 149.579C211.943 149.068 211.334 148.426 210.861 147.687C210.536 147.261 210.181 146.858 209.8 146.481C209.425 146.031 209.056 145.564 208.698 145.096L208.046 144.231C207.717 143.793 207.423 143.325 207.077 142.898C206.945 142.734 206.8 142.579 206.644 142.437C206.506 142.281 206.361 142.125 206.223 141.964C206.159 141.896 206.099 141.825 206.044 141.75C205.971 141.643 205.941 141.512 205.958 141.384C205.975 141.255 206.038 141.137 206.136 141.052C206.182 141 206.223 140.948 206.269 140.902C206.366 140.835 206.48 140.799 206.598 140.799C206.715 140.799 206.83 140.835 206.927 140.902C207.109 140.985 207.28 141.091 207.434 141.22C207.584 141.341 207.74 141.456 207.879 141.589C208.144 141.86 208.386 142.166 208.629 142.448C208.986 142.881 209.321 143.348 209.656 143.804L209.627 143.833Z" fill="#3B2C7D"/>
<path d="M195.288 125.845C194.987 124.902 194.761 123.938 194.613 122.96C194.561 122.602 194.481 122.25 194.446 121.887C194.367 120.61 194.455 119.328 194.706 118.073C194.734 117.796 194.821 117.496 194.867 117.243C194.905 116.965 194.957 116.69 195.023 116.418C195.109 116.066 195.167 115.708 195.271 115.356C195.396 115.012 195.573 114.689 195.796 114.398C195.94 114.22 196.373 114.468 196.702 114.825C197.031 115.183 197.348 115.645 197.221 115.979C196.818 117.174 196.487 118.391 196.229 119.625C196.147 120.018 196.125 120.421 196.165 120.82L196.211 121.425C196.211 121.621 196.275 121.823 196.292 122.002C196.392 122.895 196.564 123.779 196.806 124.645C196.968 125.182 197.161 125.71 197.383 126.225C197.538 126.619 197.716 127.004 197.913 127.379C198.101 127.761 198.319 128.128 198.565 128.475C198.958 128.99 199.407 129.461 199.904 129.877L200.221 130.148C200.602 130.5 200.625 130.725 200.359 131.141C200.305 131.244 200.246 131.344 200.181 131.441C200.126 131.516 200.057 131.579 199.977 131.627C199.897 131.675 199.809 131.706 199.717 131.719C199.625 131.732 199.531 131.727 199.441 131.702C199.351 131.678 199.267 131.636 199.194 131.579C198.079 130.822 197.16 129.812 196.511 128.631C196.015 127.751 195.598 126.828 195.265 125.873L195.288 125.845Z" fill="#3B2C7D"/>
<path d="M204.185 114.398C203.653 112.932 203.347 111.393 203.28 109.835C203.245 109.292 203.164 108.75 203.164 108.208C203.161 107.244 203.217 106.28 203.331 105.323C203.432 104.343 203.637 103.375 203.943 102.439C204.102 101.927 204.383 101.462 204.762 101.083C206.023 100.124 207.521 99.526 209.095 99.3521C209.481 99.3521 209.435 99.854 209.245 100.344C209.171 100.604 209.042 100.844 208.867 101.049C208.692 101.255 208.474 101.419 208.23 101.533C207.808 101.671 207.387 101.833 206.989 102.006C206.637 102.154 206.299 102.334 205.98 102.542C205.98 102.508 205.899 102.612 205.806 102.779C205.706 102.98 205.621 103.188 205.553 103.402C205.389 103.902 205.252 104.41 205.143 104.925C204.938 106.174 204.891 107.444 205.005 108.704C205.045 110.09 205.239 111.468 205.581 112.812C205.682 113.198 205.823 113.574 206.003 113.931C206.08 114.082 206.175 114.223 206.285 114.352C206.367 114.45 206.472 114.525 206.591 114.571C206.659 114.601 206.731 114.621 206.805 114.629C206.805 114.629 206.805 114.629 206.874 114.594C207.015 114.401 207.11 114.178 207.151 113.942C207.281 113.308 207.358 112.663 207.381 112.016C207.378 110.931 207.464 109.849 207.641 108.779C207.699 108.517 207.78 108.26 207.883 108.012C208.029 107.635 208.3 107.319 208.651 107.117C208.763 107.062 208.889 107.041 209.013 107.056C209.137 107.072 209.254 107.123 209.349 107.204C209.448 107.27 209.539 107.348 209.62 107.435C209.723 107.585 209.768 107.767 209.747 107.948C209.734 108.129 209.691 108.306 209.62 108.473C209.4 109.21 209.28 109.972 209.262 110.741C209.205 111.635 209.187 112.581 209.055 113.625C209.004 114.08 208.902 114.527 208.749 114.958C208.693 115.098 208.629 115.234 208.558 115.367C208.511 115.449 208.459 115.528 208.403 115.604C208.347 115.69 208.281 115.77 208.206 115.841C208.036 116.02 207.831 116.163 207.604 116.262C207.377 116.361 207.133 116.414 206.885 116.417C206.515 116.43 206.148 116.355 205.812 116.198C205.652 116.124 205.497 116.037 205.351 115.939C205.221 115.841 205.098 115.735 204.981 115.621C204.643 115.25 204.368 114.825 204.168 114.364L204.185 114.398Z" fill="#3B2C7D"/>
<path d="M198.463 118.944C198.349 118.567 198.264 118.181 198.209 117.79C198.151 117.427 198.117 117.075 198.088 116.723C198.036 116.019 198.019 115.333 198.025 114.646C198.025 114.15 197.996 113.654 198.025 113.158C198.088 112.281 198.192 111.427 198.342 110.55C198.417 110.117 198.509 109.679 198.613 109.246C198.665 109.027 198.723 108.808 198.798 108.583C198.866 108.337 198.959 108.1 199.075 107.873C199.305 107.445 199.631 107.076 200.026 106.794C200.37 106.537 200.741 106.32 201.134 106.148C202.05 105.679 203.065 105.436 204.094 105.438C204.717 105.485 204.163 107.331 203.211 107.55C202.446 107.694 201.714 107.973 201.048 108.375C200.948 108.442 200.857 108.522 200.776 108.612C200.742 108.646 200.73 108.681 200.69 108.715C200.65 108.75 200.615 108.877 200.58 108.975C200.43 109.356 200.298 109.806 200.165 110.256C199.918 111.393 199.804 112.554 199.825 113.717C199.755 114.991 199.811 116.268 199.992 117.531C200.043 117.837 200.114 118.14 200.205 118.437C200.26 118.643 200.389 118.822 200.569 118.939C200.618 118.962 200.671 118.977 200.725 118.985C201.048 119.025 201.267 118.725 201.353 118.408C201.383 118.333 201.406 118.256 201.423 118.177C201.451 118.05 201.48 117.917 201.503 117.785C201.55 117.519 201.59 117.242 201.625 116.965C201.669 115.96 201.808 114.962 202.04 113.983C202.108 113.739 202.201 113.503 202.317 113.279C202.479 112.947 202.75 112.68 203.084 112.523C203.195 112.482 203.315 112.473 203.43 112.498C203.546 112.522 203.652 112.579 203.736 112.662C203.832 112.731 203.921 112.81 204.001 112.898C204.089 113.053 204.136 113.228 204.136 113.406C204.136 113.584 204.089 113.759 204.001 113.914C203.763 114.559 203.618 115.235 203.569 115.921L203.43 117.19C203.377 117.677 203.298 118.16 203.194 118.639C203.07 119.281 202.777 119.878 202.346 120.369C202.138 120.58 201.89 120.748 201.617 120.861C201.343 120.974 201.049 121.03 200.753 121.027C200.487 121.008 200.224 120.949 199.975 120.854C199.85 120.808 199.734 120.744 199.628 120.663C199.514 120.59 199.41 120.503 199.317 120.404C198.902 119.974 198.596 119.452 198.423 118.881L198.463 118.944Z" fill="#3B2C7D"/>
<path d="M231.076 82.3965C230.014 83.3254 228.953 84.2658 227.903 85.2177C227.522 85.5638 227.176 85.9504 226.789 86.2965L222.693 89.9254C222.116 90.4619 221.539 91.0446 220.962 91.6273C220.297 92.4261 219.536 93.1392 218.695 93.7504C218.118 94.1023 217.541 92.2388 218.36 91.4427C219.855 89.9542 221.439 88.5574 223.103 87.26C224.112 86.4811 225.001 85.4946 225.953 84.6119L229.126 81.7273L231.093 79.9561C232.079 79.0561 233.095 78.185 234.058 77.2677C234.803 76.5581 235.472 75.785 236.199 75.0581C236.354 74.8965 236.499 74.7234 236.666 74.5677C237.301 73.9907 237.589 73.9273 238.039 74.1984C238.144 74.251 238.245 74.3128 238.339 74.3831C238.639 74.6311 238.576 75.0927 238.183 75.5369C236.962 76.9514 235.651 78.2868 234.26 79.535L231.116 82.4196L231.076 82.3965Z" fill="#3B2C7D"/>
<path d="M215.239 96.3462C214.875 96.3808 214.518 96.4269 214.172 96.4731L213.318 96.6058C212.977 96.6635 212.643 96.7269 212.325 96.8077C212.023 96.8812 211.726 96.9756 211.437 97.0904C211.321 97.1368 211.209 97.1928 211.102 97.2577L210.993 97.3269C210.993 97.3269 210.964 97.3269 210.958 97.3615C210.934 97.3802 210.918 97.4068 210.912 97.4365C210.879 97.5288 210.852 97.6233 210.831 97.7192C210.779 97.9442 210.739 98.1865 210.704 98.4404C210.641 98.9481 210.6 99.4788 210.577 100.01C210.543 100.915 210.577 101.833 210.623 102.75C210.658 104.356 210.817 105.957 211.097 107.538C211.221 108.283 211.436 109.01 211.737 109.702C211.806 109.872 211.93 110.014 212.089 110.106C212.18 110.133 212.276 110.131 212.366 110.101C212.456 110.071 212.534 110.014 212.591 109.938C212.651 109.872 212.703 109.798 212.747 109.719C212.825 109.582 212.894 109.439 212.954 109.292C213.082 108.979 213.188 108.657 213.272 108.329C213.444 107.646 213.567 106.952 213.641 106.252C213.787 104.454 213.827 102.649 213.762 100.846C213.727 100.356 214.195 100.24 214.749 100.673C215.096 100.997 215.371 101.392 215.554 101.831C215.737 102.269 215.824 102.742 215.81 103.217C215.805 104.218 215.74 105.218 215.614 106.212C215.494 107.236 215.276 108.246 214.962 109.229C214.878 109.492 214.78 109.75 214.668 110.002C214.616 110.135 214.541 110.267 214.483 110.4C214.425 110.533 214.402 110.533 214.368 110.602C214.316 110.696 214.258 110.786 214.195 110.873C213.951 111.244 213.633 111.561 213.26 111.802C213.077 111.9 212.883 111.978 212.683 112.033C212.479 112.068 212.273 112.083 212.066 112.079C211.651 112.026 211.26 111.853 210.941 111.583C210.797 111.415 210.641 111.277 210.514 111.098C210.387 110.919 210.266 110.723 210.173 110.521C209.941 110.019 209.763 109.492 209.643 108.952C209.127 106.575 208.837 104.155 208.777 101.723C208.777 100.863 208.777 99.9923 208.841 99.1327C208.875 98.6942 208.91 98.2558 208.985 97.8058C209.025 97.5808 209.066 97.3558 209.129 97.1077C209.201 96.809 209.326 96.5257 209.498 96.2711C209.609 96.1307 209.737 96.0047 209.879 95.8962C209.996 95.8025 210.119 95.7176 210.248 95.6423C210.48 95.513 210.721 95.4012 210.97 95.3077C211.43 95.1393 211.903 95.0062 212.383 94.9096L212.995 94.7942L213.231 94.7538H213.37L213.947 94.6904L214.575 94.6442C214.679 94.6434 214.783 94.6259 214.881 94.5923L214.633 94.4481C214.46 94.3442 214.287 94.2346 214.108 94.1135C213.929 93.9923 213.687 93.8192 213.462 93.6404C213.045 93.3211 212.65 92.9742 212.279 92.6019C211.871 92.2145 211.53 91.7623 211.27 91.2635C211.116 90.967 211.034 90.6394 211.027 90.3058C211.023 89.9476 211.13 89.5968 211.333 89.3019C211.509 89.0539 211.728 88.8391 211.979 88.6673C212.115 88.585 212.255 88.5118 212.4 88.4481C212.536 88.3908 212.677 88.3464 212.822 88.3154C213.34 88.212 213.871 88.1906 214.397 88.2519C215.363 88.339 216.317 88.5324 217.241 88.8288C217.645 88.9558 218.043 89.0769 218.435 89.2385C219.889 89.8558 220.281 90.2769 220.298 90.8654C220.319 90.9973 220.319 91.1316 220.298 91.2635C220.183 91.6558 219.577 91.575 218.568 91.2115C217.111 90.6494 215.593 90.262 214.045 90.0577C213.877 90.0492 213.71 90.0492 213.543 90.0577H213.335C213.276 90.0595 213.217 90.0712 213.162 90.0923C213.127 90.0923 213.041 90.0923 213.047 90.1269C213.052 90.1615 213.047 90.1269 212.989 90.1269C212.931 90.1706 212.877 90.2188 212.827 90.2712C212.827 90.2712 212.827 90.2423 212.827 90.3288C212.94 90.5777 213.095 90.8059 213.283 91.0038C213.621 91.3651 213.988 91.6988 214.379 92.0019L214.535 92.1231L214.87 92.3712C215.106 92.5327 215.331 92.7 215.585 92.8615C216.07 93.1846 216.612 93.4962 217.172 93.8077L217.57 94.1135C217.639 94.2058 217.679 94.2981 217.737 94.3846L217.87 94.6269C217.9 94.6883 217.917 94.7549 217.922 94.8231C217.922 95.0654 217.789 95.1519 217.783 95.4C217.747 95.5099 217.679 95.6064 217.587 95.6769C217.481 95.8095 217.35 95.9193 217.2 96C216.854 96.2365 215.943 96.2596 215.25 96.3519L215.239 96.3462Z" fill="#3B2C7D"/>
<path d="M249.481 84.4559C248.495 86.0886 249.706 88.7079 250.399 90.2252C250.941 91.379 252.222 94.2636 253.981 93.6117C255.954 92.9079 254.783 89.654 254.281 88.3733C253.704 86.8271 252.614 83.9771 250.762 83.5213C249.608 83.2329 249.089 85.0386 250.26 85.3271C251.177 85.5521 251.991 87.6983 252.302 88.454C252.588 89.0991 252.82 89.7668 252.995 90.4502C253.025 90.8278 253.087 91.2022 253.179 91.5694V91.8002C253.095 92.0694 253.245 92.0809 253.629 91.8348C253.629 91.6733 252.931 90.9867 252.816 90.8021C252.442 90.1914 252.12 89.5507 251.852 88.8867C251.535 88.131 250.612 86.1983 251.097 85.3963C251.222 85.1821 251.257 84.9268 251.195 84.6866C251.132 84.4465 250.976 84.241 250.762 84.1156C250.548 83.9901 250.293 83.9549 250.052 84.0176C249.812 84.0804 249.607 84.236 249.481 84.4502V84.4559Z" fill="#3B2C7D"/>
<path d="M102.485 268.846H81.5601L73.9332 268.91L47.0313 268.829C43.0505 268.829 39.0524 268.869 35.1005 268.916C30.0236 268.967 24.9467 269.164 19.8409 268.835C19.5155 268.823 19.1941 268.758 18.889 268.644C18.6524 268.546 18.589 268.442 18.6351 268.356C18.7514 268.231 18.8958 268.136 19.0563 268.079C19.313 267.948 19.5791 267.836 19.8524 267.744C22.0216 267.096 24.2752 266.776 26.539 266.792C36.8832 266.792 47.239 266.758 57.6928 266.954C63.9409 267.064 70.437 266.919 76.8294 266.896L97.9044 266.85L110.874 266.816C117.422 266.781 123.999 266.781 130.489 266.689C135.537 266.625 140.493 266.441 145.489 266.319L148.777 266.233C152.891 266.175 154.201 266.314 155.083 266.85C155.287 266.952 155.48 267.074 155.66 267.214C156.052 267.629 154.379 267.964 151.374 268.096C142.449 268.494 133.039 268.639 123.589 268.731L102.479 268.864L102.485 268.846Z" fill="#3B2C7D"/>
<path d="M230.195 268.454L225.205 268.379C224.628 268.379 223.994 268.425 223.388 268.413L216.961 268.269C216.009 268.269 215.051 268.269 214.111 268.327C212.901 268.462 211.68 268.462 210.47 268.327C209.715 268.188 210.69 266.262 212.069 266.244C214.538 266.195 217.009 266.272 219.47 266.475C220.959 266.608 222.505 266.475 224.028 266.475L229.053 266.504H232.151C233.709 266.504 235.284 266.533 236.836 266.504C238.042 266.469 239.219 266.325 240.419 266.238C240.678 266.238 240.938 266.181 241.203 266.175C242.19 266.146 242.501 266.285 242.703 266.821C242.758 266.94 242.803 267.064 242.836 267.19C242.922 267.6 242.519 267.94 241.809 268.056C239.624 268.357 237.42 268.505 235.215 268.5C233.547 268.5 231.869 268.5 230.19 268.5L230.195 268.454Z" fill="#3B2C7D"/>
<path d="M17.3097 227.469L17.4713 214.39C17.4713 212.798 17.4424 211.212 17.4713 209.619L17.7251 192.808C17.754 190.321 17.7251 187.823 17.679 185.354C17.6328 183.773 17.6386 182.181 17.679 180.594C17.679 179.804 17.679 179.008 17.7597 178.212L18.0078 175.835C18.129 174.848 18.2963 174.975 18.5847 175.835C18.7405 176.25 18.9367 176.844 19.1617 177.565C19.2655 177.923 19.3924 178.31 19.4732 178.719C19.5424 179.144 19.5905 179.571 19.6174 180L19.7386 182.423L19.7963 183.635V184.852V189.71C19.7655 192.948 19.6905 196.198 19.5713 199.46C19.427 203.36 19.5424 207.421 19.5251 211.414C19.4905 215.798 19.4597 220.187 19.4328 224.579L19.3636 232.685C19.3347 236.775 19.2886 240.889 19.3232 244.944C19.3232 248.106 19.5194 251.192 19.5482 254.314C19.5482 255 19.5886 255.669 19.5828 256.362C19.5828 258.935 19.4386 259.754 19.0059 260.314C18.9263 260.446 18.8336 260.569 18.729 260.683C18.4405 260.937 18.1232 259.898 17.9732 258.017C17.8751 256.627 17.777 255.214 17.679 253.789C17.5809 252.364 17.5059 250.904 17.477 249.467C17.3905 246.583 17.3444 243.612 17.3155 240.664C17.2694 236.273 17.2751 231.865 17.2578 227.469H17.3097Z" fill="#3B2C7D"/>
<path d="M16.9459 130.333L17.1593 121.154C17.1593 120.035 17.1593 118.916 17.1593 117.802C17.2574 113.862 17.3843 109.921 17.4535 105.981C17.4824 104.25 17.4535 102.479 17.4016 100.748C17.3555 99.6348 17.3555 98.5156 17.3612 97.4021C17.3612 96.8252 17.3612 96.2887 17.4189 95.7348C17.4766 95.181 17.5516 94.6271 17.6209 94.0675C17.7132 93.381 17.8862 93.4502 18.1978 94.0214C18.4326 94.4007 18.6483 94.7915 18.8439 95.1925C19.1303 95.7266 19.2939 96.3179 19.3228 96.9233L19.4612 98.654L19.5247 99.5079V100.385C19.5247 101.539 19.5247 102.664 19.5247 103.806C19.4978 106.091 19.4189 108.379 19.2882 110.671C19.1324 113.418 19.2305 116.273 19.2016 119.083L19.0401 128.325C19.0055 130.223 18.9709 132.127 18.942 134.025C18.9016 136.91 18.8382 139.794 18.867 142.65C18.867 144.866 19.0516 147.041 19.0747 149.239C19.0747 149.717 19.1151 150.191 19.1093 150.681C19.1093 152.487 18.9651 153.058 18.5324 153.45C18.4491 153.546 18.3563 153.633 18.2555 153.71C17.9612 153.883 17.6497 153.133 17.4997 151.829C17.2978 149.868 17.0728 147.854 17.0093 145.806C16.9459 143.758 16.8882 141.693 16.8709 139.616C16.8362 136.529 16.8709 133.431 16.8709 130.333H16.9459Z" fill="#3B2C7D"/>
<path d="M97.357 45.704C98.1694 44.6284 98.6668 43.348 98.7935 42.0059C98.816 41.4403 98.6715 40.8805 98.3781 40.3963C98.2434 40.16 98.0432 39.9678 97.8015 39.8429C97.5599 39.7179 97.2873 39.6657 97.0166 39.6925C96.6704 39.7559 96.4397 39.8194 96.3935 39.6925C96.3473 39.5656 96.3935 39.5079 96.5146 39.3636C96.6878 39.1692 96.9216 39.0391 97.1781 38.9944C97.4905 38.9436 97.8101 38.959 98.1162 39.0395C98.4223 39.12 98.708 39.2638 98.955 39.4617C99.4226 39.8227 99.7901 40.2974 100.022 40.8406C100.455 41.8994 100.527 43.0708 100.23 44.1752C99.8656 45.4863 99.2308 46.7067 98.3666 47.7579C97.612 48.6793 96.7759 49.5308 95.8685 50.3021C94.905 51.1559 93.8262 52.0329 92.6839 52.8463C90.3841 54.5236 87.9422 55.9965 85.3858 57.2483C83.3363 58.2738 81.1707 59.0486 78.9358 59.5559C77.2535 59.9423 75.5133 60.0069 73.807 59.7463C72.8814 59.5813 71.9864 59.2759 71.1531 58.8406C70.9397 58.7367 70.7435 58.5925 70.5358 58.4656C70.3332 58.3399 70.1403 58.1991 69.9589 58.0444L69.382 57.5713C69.2031 57.3983 69.0243 57.179 68.8512 56.9944C68.1816 56.1587 67.7368 55.1657 67.5589 54.1098C67.3952 53.1552 67.3952 52.1797 67.5589 51.2252C67.8732 49.5423 68.4576 47.9214 69.2897 46.4252C69.492 46.0389 69.7174 45.6652 69.9647 45.3059C70.0973 45.1156 70.2243 44.9194 70.3627 44.729L70.7723 44.2271C71.0386 43.8955 71.3216 43.5778 71.6204 43.2752C71.9089 42.9694 72.1973 42.6983 72.4973 42.404C73.6691 41.2963 74.9142 40.269 76.2243 39.329C77.5082 38.3837 78.8429 37.5093 80.2223 36.7098C81.6121 35.888 83.058 35.1651 84.5493 34.5463C86.1244 33.8682 87.7867 33.4137 89.4877 33.1963C90.4102 33.0978 91.3418 33.1249 92.257 33.2771C92.7845 33.3607 93.2986 33.514 93.7858 33.7329C94.3483 33.9894 94.8587 34.3473 95.2916 34.7886C95.7294 35.2646 96.0634 35.8266 96.2723 36.4386C96.3652 36.7233 96.4365 37.0145 96.4858 37.3098C96.4858 37.5867 96.5435 37.8867 96.555 38.1348C96.5412 39.1771 96.3093 40.2049 95.8743 41.1521C95.0646 42.7495 93.947 44.171 92.5858 45.3348C91.4923 46.2974 90.3253 47.1732 89.0954 47.954C87.9024 48.727 86.6679 49.4338 85.3973 50.0713C83.22 51.1626 80.9542 52.0678 78.6243 52.7771C76.2377 53.5547 73.7492 53.9747 71.2397 54.0233C69.8646 54.0329 68.4983 53.8045 67.2012 53.3483C65.8343 52.828 64.641 51.9345 63.757 50.7694C62.8864 49.6 62.3284 48.2279 62.1358 46.7829C61.9617 45.3586 62.1277 43.9132 62.6204 42.5656C62.9323 41.7192 63.3305 40.9072 63.8089 40.1425C64.2762 39.3983 64.7781 38.7059 65.2743 38.0483C67.0147 35.9915 69.0665 34.2201 71.355 32.7983C73.1938 31.5963 75.143 30.5725 77.1762 29.7406C78.3206 29.281 79.5125 28.9501 80.73 28.754C81.4471 28.646 82.1764 28.646 82.8935 28.754C83.3588 28.8304 83.81 28.9763 84.232 29.1867C84.4611 29.3174 84.6809 29.4639 84.8897 29.6252C85.079 29.8075 85.2581 30.0001 85.4262 30.2021C85.609 30.4516 85.7638 30.7206 85.8877 31.004C86.0108 31.2807 86.0999 31.5713 86.1531 31.8694C86.248 32.4129 86.2343 32.9697 86.1127 33.5079C85.9196 34.3189 85.5751 35.0862 85.0973 35.7694C84.3981 36.7594 83.5869 37.6653 82.68 38.4694C81.6418 39.3993 80.5411 40.257 79.3858 41.0367C77.6134 42.2572 75.7232 43.297 73.7435 44.1406C71.7446 45.0037 69.6486 45.6216 67.5012 45.9809C66.3723 46.162 65.2263 46.2123 64.0858 46.1309C62.8535 46.0435 61.6558 45.685 60.5781 45.0809C59.3607 44.4222 58.445 43.3183 58.0223 42.0002C57.6621 40.8088 57.5948 39.5481 57.8262 38.3252C58.0164 37.0478 58.4387 35.8159 59.0723 34.6906C59.779 33.5383 60.6067 32.4649 61.5416 31.4886C62.4352 30.5175 63.4184 29.6328 64.4781 28.8463C65.9499 27.7701 67.546 26.8752 69.232 26.1809C70.921 25.4558 72.7108 24.9928 74.5397 24.8079C76.3652 24.6302 78.2041 24.9679 79.8473 25.7829C81.2723 26.5848 80.3031 26.4636 79.8185 26.2733C78.3185 25.8233 79.4608 26.4232 79.5243 26.5963C79.5243 26.654 79.582 26.729 79.5243 26.7406C79.4666 26.7521 79.2127 26.6309 78.6935 26.5271C77.9827 26.3765 77.2562 26.3126 76.53 26.3367C74.2619 26.4091 72.0369 26.9761 70.0108 27.9982C67.8513 29.0296 65.8829 30.4206 64.1897 32.1117C63.2233 33.0533 62.3958 34.1275 61.732 35.3021C61.5294 35.6744 61.3521 36.0599 61.2012 36.4559C60.8424 37.3885 60.6322 38.3716 60.5781 39.3694C60.5429 39.944 60.6193 40.52 60.8031 41.0656C60.9779 41.5813 61.3294 42.0186 61.7954 42.3002C62.3923 42.6673 63.0614 42.9015 63.757 42.9867C64.5789 43.0873 65.41 43.0873 66.232 42.9867C68.018 42.7241 69.763 42.2335 71.4243 41.5271C72.9703 40.8945 74.4553 40.1221 75.8608 39.2194C77.6031 38.1269 79.2289 36.8587 80.7127 35.4348C81.2513 34.9156 81.7454 34.3521 82.1897 33.7502C82.493 33.3936 82.6926 32.9605 82.7666 32.4983C82.7547 32.4384 82.7353 32.3802 82.7089 32.3252C82.7089 32.3252 82.7089 32.3252 82.657 32.2848C82.605 32.2444 82.6281 32.2848 82.6223 32.2848C82.6166 32.2848 82.5243 32.2848 82.4493 32.2329C81.7348 32.1612 81.0132 32.2318 80.3262 32.4406C77.9246 33.1313 75.6509 34.2068 73.5935 35.6252C71.5023 36.9323 69.6115 38.5355 67.98 40.3848C67.2409 41.2522 66.6343 42.2243 66.18 43.2694C65.7754 44.0764 65.5881 44.9749 65.6366 45.8763C65.6852 46.7778 65.9679 47.651 66.457 48.4098C66.9078 49.1191 67.5638 49.6744 68.3377 50.0021C69.2425 50.3749 70.2045 50.5896 71.182 50.6367C72.0552 50.6761 72.93 50.6161 73.7897 50.4579C75.731 50.118 77.6344 49.5886 79.4723 48.8771C81.3427 48.1811 83.1608 47.3521 84.9127 46.3963C86.6629 45.447 88.327 44.3466 89.8858 43.1079C90.6169 42.5224 91.2875 41.8653 91.8877 41.1463C92.4136 40.5229 92.8062 39.7984 93.0416 39.0175L93.1166 38.7521C93.122 38.6637 93.122 38.5751 93.1166 38.4867V38.2271C93.1166 38.1406 93.1166 38.0598 93.1166 37.979C93.105 37.7178 93.0276 37.4638 92.8916 37.2406C92.7439 37.0407 92.5444 36.8851 92.3146 36.7906C91.9632 36.6479 91.5912 36.5622 91.2127 36.5367C90.7673 36.5019 90.3197 36.5019 89.8743 36.5367C89.6459 36.5531 89.4187 36.582 89.1935 36.6233C88.9627 36.6694 88.7493 36.6752 88.5127 36.7444C88.0444 36.859 87.5822 36.9976 87.1281 37.1598L86.43 37.4021L85.7377 37.6963C85.0685 37.9617 84.3993 38.2733 83.73 38.579L82.4897 39.2194L81.3473 39.8886C79.2743 41.1707 77.3134 42.6259 75.4858 44.2386C74.6148 45.0165 73.8101 45.8656 73.08 46.7771L72.6416 47.429C72.4973 47.6771 72.3473 47.9309 72.2147 48.1906C71.9458 48.6992 71.7069 49.2232 71.4993 49.7598C71.0885 50.7504 70.8655 51.8088 70.8416 52.8809C70.8446 53.3335 70.9246 53.7822 71.0781 54.2079C71.232 54.5976 71.4704 54.9483 71.7762 55.2348C73.1608 56.5906 75.3877 56.9194 77.655 56.5675C78.6069 56.4365 79.5493 56.2438 80.4762 55.9906C81.9462 55.5641 83.3827 55.0299 84.7743 54.3925C87.2026 53.2943 89.5208 51.9671 91.6973 50.429C92.2743 49.9963 93.607 49.1483 94.8127 48.2079C95.7697 47.4917 96.6255 46.6494 97.357 45.704Z" fill="#3B2C7D"/>
<path d="M128.657 107.545C128.504 108.16 128.248 108.745 127.901 109.275C127.717 109.547 127.502 109.796 127.261 110.02L126.886 110.348C126.748 110.447 126.603 110.527 126.465 110.614C125.37 111.213 124.095 111.393 122.876 111.122C122.461 111.058 122.08 110.931 121.682 110.833C121.308 110.705 120.942 110.554 120.586 110.383C118.27 109.085 116.293 107.259 114.817 105.052C114.142 104.129 113.484 103.2 112.867 102.26C112.012 101.102 111.304 99.8427 110.761 98.51C110.467 97.6562 112.694 97.7658 113.484 99.1446C114.823 101.579 116.367 103.895 118.099 106.068C118.642 106.696 119.262 107.253 119.946 107.723C120.287 107.956 120.644 108.166 121.013 108.352L121.561 108.635L122.138 108.86C122.901 109.186 123.735 109.315 124.561 109.235C124.933 109.193 125.291 109.068 125.608 108.868C125.924 108.668 126.192 108.399 126.39 108.081C126.876 107.136 127.057 106.064 126.909 105.012C126.812 104.141 126.63 103.281 126.367 102.445C126.119 101.585 125.79 100.714 125.478 99.9004C124.959 98.5966 124.324 97.3389 123.817 95.9831C123.713 95.6889 123.586 95.4062 123.499 95.0889C123.171 93.935 123.257 93.5312 123.73 93.1908C123.833 93.1067 123.943 93.0314 124.059 92.9658C124.451 92.7927 124.855 93.185 125.149 93.9408C125.588 95.0946 126.061 96.1966 126.551 97.3619C127.042 98.5273 127.555 99.7562 127.999 101.054C128.349 102.047 128.621 103.066 128.813 104.1C129.018 105.247 129 106.422 128.761 107.562L128.657 107.545Z" fill="#3B2C7D"/>
<path d="M143.74 103.154C143.545 103.688 143.25 104.179 142.869 104.602C142.441 105.082 141.881 105.427 141.26 105.594C140.163 105.849 139.01 105.671 138.041 105.098C137.42 104.783 136.839 104.396 136.31 103.944C134.705 102.4 133.288 100.673 132.087 98.7982C131.539 97.9963 130.967 97.2175 130.408 96.4444C129.63 95.4977 128.967 94.4616 128.435 93.3579C128.135 92.6482 130.287 92.4175 131.054 93.5771C132.416 95.6194 133.708 97.6675 135.046 99.7098C135.875 100.902 136.892 101.953 138.058 102.819C138.592 103.265 139.222 103.581 139.898 103.742C140.176 103.808 140.467 103.794 140.738 103.703C141.009 103.613 141.25 103.449 141.433 103.229C141.933 102.478 142.218 101.604 142.258 100.702C142.388 99.1878 142.316 97.6629 142.044 96.1675C141.816 95.0125 141.493 93.878 141.081 92.7752C141 92.5329 140.896 92.2963 140.816 92.054C140.516 91.1482 140.533 90.8598 140.96 90.4732C141.052 90.3867 141.144 90.2829 141.242 90.2079C141.577 89.9367 142.085 90.2079 142.396 90.9175C143.398 93.0143 144.019 95.2725 144.231 97.5867C144.323 98.4855 144.348 99.3899 144.306 100.292C144.271 101.275 144.092 102.247 143.775 103.177L143.74 103.154Z" fill="#3B2C7D"/>
<path d="M130.864 98.654C129.568 96.6296 128.43 94.5079 127.46 92.3078C127.036 91.46 126.718 90.5628 126.514 89.6367C126.335 88.7078 126.397 87.7486 126.693 86.8501C126.763 86.6259 126.852 86.4079 126.958 86.1982C127.062 86.0021 127.172 85.8232 127.276 85.6213C127.487 85.2584 127.724 84.9113 127.985 84.5828C129.002 83.2961 130.285 82.245 131.747 81.5021C133.005 80.8227 134.356 80.3309 135.756 80.0425C136.663 79.8443 137.592 79.7648 138.52 79.8059C139.466 79.862 140.388 80.1259 141.22 80.579C141.745 80.8675 141.376 81.3636 140.758 81.7328C140.43 81.929 140.082 82.0895 139.72 82.2117C139.534 82.2771 139.34 82.3179 139.143 82.3328C138.952 82.3627 138.757 82.3627 138.566 82.3328C137.064 82.2282 135.556 82.4299 134.133 82.9258C132.711 83.4217 131.405 84.2013 130.293 85.2175C130.131 85.379 129.953 85.5348 129.803 85.7136L129.381 86.2905C129.144 86.6511 128.951 87.0384 128.805 87.4444C128.602 88.2764 128.66 89.1506 128.972 89.9482C129.352 91.0074 129.801 92.0404 130.316 93.0405C130.818 94.0732 131.378 95.0771 131.96 96.0694C132.698 97.2817 133.499 98.4545 134.36 99.5828C135.663 101.298 137.128 102.884 138.733 104.319C139.998 105.39 141.349 106.355 142.772 107.204C143.078 107.406 143.395 107.562 143.701 107.781C144.855 108.514 145.126 108.848 145.039 109.512C145.032 109.667 145.013 109.821 144.981 109.973C144.843 110.452 144.156 110.481 143.21 110.042C141.791 109.349 140.439 108.527 139.172 107.585C137.869 106.604 136.639 105.53 135.491 104.371C133.781 102.625 132.236 100.724 130.876 98.6944L130.864 98.654Z" fill="#3B2C7D"/>
<path d="M105.47 94.7713C108.573 91.0501 114.233 85.4194 119.61 87.1328C121.116 87.6117 121.762 85.2463 120.262 84.7674C113.916 82.754 107.437 88.5982 103.733 93.0405C102.729 94.2463 104.454 95.9886 105.464 94.7713H105.47Z" fill="#3B2C7D"/>
<path d="M144.429 118.535C141.764 118.252 136.531 120.571 136.531 120.571C136.531 120.571 138.62 128.498 141.972 129.837C142.376 129.995 142.825 129.996 143.23 129.839C143.636 129.682 143.967 129.378 144.158 128.988C144.81 127.644 145.629 125.671 144.429 118.535Z" fill="#3B2C7D"/>
<path d="M110.949 198.058C112.68 199.298 114.37 200.631 116.234 201.698C117.844 202.627 119.297 200.135 117.688 199.212C115.824 198.139 114.151 196.806 112.403 195.566C110.886 194.487 109.444 196.991 110.949 198.058Z" fill="#3B2C7D"/>
<path d="M143.009 215.966C144.474 215.158 145.818 214.166 147.203 213.231C148.357 212.458 147.267 210.583 146.107 211.362C144.722 212.297 143.384 213.289 141.918 214.097C140.701 214.772 141.792 216.641 143.009 215.966Z" fill="#3B2C7D"/>
<path d="M99.323 235.471C100.754 234.196 102.508 233.365 103.875 232.01C104.867 231.029 103.338 229.5 102.346 230.481C100.985 231.831 99.2249 232.667 97.7942 233.942C96.7499 234.871 98.2845 236.394 99.323 235.471Z" fill="#3B2C7D"/>
<path d="M120.239 250.033C122.304 251.435 124.416 252.762 126.435 254.221C127.589 255.041 128.645 253.166 127.526 252.358C125.506 250.893 123.395 249.566 121.335 248.164C120.181 247.379 119.097 249.254 120.239 250.033Z" fill="#3B2C7D"/>
<path d="M179.303 256.056C180.291 254.983 181.376 254.004 182.545 253.131C183.699 252.352 182.608 250.477 181.454 251.262C180.128 252.233 178.896 253.326 177.774 254.527C177.571 254.73 177.457 255.005 177.457 255.292C177.457 255.578 177.571 255.853 177.774 256.056C177.976 256.259 178.251 256.373 178.538 256.373C178.825 256.373 179.1 256.259 179.303 256.056Z" fill="#3B2C7D"/>
<path d="M205.647 237.952C204.914 238.824 204.249 239.749 203.656 240.721C202.941 241.916 204.81 243.029 205.526 241.812C206.017 241.001 206.571 240.229 207.181 239.504C207.377 239.298 207.485 239.024 207.485 238.74C207.485 238.456 207.377 238.182 207.181 237.975C206.977 237.773 206.701 237.66 206.414 237.66C206.127 237.66 205.851 237.773 205.647 237.975V237.952Z" fill="#3B2C7D"/>
<path d="M207.009 215.862C207.715 217.585 208.544 219.254 209.49 220.858C210.199 222.052 212.074 220.968 211.359 219.768C210.499 218.331 209.743 216.835 209.098 215.291C208.567 214.021 206.473 214.581 207.009 215.868V215.862Z" fill="#3B2C7D"/>
<path d="M101.288 269.602L81.8805 269.7L74.8016 269.798L49.8497 269.845C46.1574 269.845 42.4478 269.92 38.7901 269.983C34.0824 270.064 29.3574 270.26 24.6497 270.029C21.7189 269.879 25.4458 267.975 30.8516 267.929C40.4516 267.843 50.0516 267.797 59.7381 267.929C65.5074 268.016 71.5535 267.837 77.4785 267.791L97.0304 267.652L109.059 267.56C115.134 267.497 121.238 267.468 127.261 267.358C131.946 267.272 136.538 267.07 141.171 266.937L144.217 266.833C148.03 266.77 149.248 266.902 150.073 267.41C150.265 267.512 150.446 267.631 150.615 267.768C150.979 268.183 149.427 268.535 146.64 268.673C138.367 269.1 129.638 269.25 120.875 269.406L101.294 269.625L101.288 269.602Z" fill="#3B2C7D"/>
<path d="M228.462 269.066L224.625 268.743C224.158 268.708 223.691 268.743 223.223 268.679C221.585 268.529 219.941 268.362 218.302 268.246C217.569 268.195 216.837 268.2 216.116 268.212C215.188 268.299 214.254 268.286 213.329 268.171C212.752 268.062 213.473 266.441 214.564 266.406C216.494 266.387 218.424 266.522 220.333 266.81C221.487 266.989 222.675 266.96 223.852 267.041L227.717 267.335L230.094 267.502C231.294 267.577 232.5 267.664 233.689 267.664C234.617 267.664 235.529 267.566 236.44 267.496C236.642 267.496 236.839 267.45 237.017 267.445C237.767 267.41 238.01 267.525 238.171 267.975C238.215 268.076 238.252 268.18 238.281 268.287C238.356 268.639 238.05 268.927 237.496 269.025C235.795 269.295 234.07 269.388 232.35 269.302C231.058 269.268 229.76 269.181 228.462 269.112V269.066Z" fill="#3B2C7D"/>
<path d="M193.526 123.836C193.4 123.266 193.313 122.688 193.266 122.106C193.224 121.9 193.197 121.692 193.185 121.483C193.17 120.733 193.254 119.984 193.433 119.256C193.497 118.933 193.589 118.604 193.664 118.275C193.728 118.067 193.797 117.854 193.883 117.64C193.984 117.435 194.13 117.255 194.31 117.115C194.431 117.029 194.685 117.283 194.887 117.577C195.089 117.871 195.308 118.154 195.222 118.31C194.944 118.914 194.718 119.541 194.547 120.185C194.466 120.635 194.466 121.096 194.547 121.546C194.547 121.8 194.599 122.054 194.616 122.313C194.633 122.573 194.697 122.827 194.743 123.081C194.789 123.335 194.876 123.71 194.98 124.015C195.108 124.486 195.287 124.94 195.516 125.371C195.71 125.687 195.945 125.976 196.214 126.231C196.266 126.288 196.33 126.335 196.381 126.398C196.578 126.606 196.555 126.727 196.318 127.021C196.26 127.09 196.208 127.16 196.151 127.223C196.074 127.326 195.959 127.395 195.832 127.415C195.705 127.436 195.575 127.406 195.47 127.333C194.834 126.853 194.341 126.209 194.045 125.469C193.809 124.935 193.616 124.384 193.468 123.819L193.526 123.836Z" fill="#3B2C7D"/>
<path d="M166.249 196.812C165.794 197.083 166.151 198.635 166.878 200.365C167.605 202.096 176.08 211.875 179.357 211.448C182.634 211.021 178.48 208.829 176.173 206.706C173.865 204.583 166.249 196.812 166.249 196.812Z" fill="#3B2C7D"/>
<path d="M177.324 197.395C177.353 197.343 179.632 195.75 180.572 194.048C181.513 192.346 184.945 183.664 184.582 182.106C184.218 180.548 183.272 181.137 183.272 181.137L177.324 197.395Z" fill="#3B2C7D"/>
<path d="M213.699 155.336C212.897 155.504 210.405 157.742 210.405 157.742C210.405 157.742 199.247 143.735 196.801 143.019C194.908 142.425 193.048 141.732 191.228 140.942C186.128 137.908 186.451 131.394 186.89 128.677C187.161 126.981 188.62 124.863 189.647 123.485C190.357 122.521 192.809 120.56 193.628 120.56C191.199 124.315 189.163 128.411 190.409 132.635C191.095 134.942 194.251 138.502 197.159 138.461L213.699 155.336Z" fill="#3B2C7D"/>
<path d="M244.306 45.779C245.517 48.4733 245.257 51.6175 245.079 54.4848C244.963 56.3425 247.848 56.3367 247.963 54.4848C248.177 51.0233 248.246 47.5617 246.809 44.3252C246.048 42.6348 243.561 44.1002 244.317 45.779H244.306Z" fill="#3B2C7D"/>
<path d="M267.375 71.2561C269.608 69.4273 272.336 68.308 274.996 67.2523C276.727 66.5773 275.96 63.7907 274.229 64.4715C271.073 65.7234 267.986 67.0504 265.333 69.2138C263.896 70.3677 265.944 72.4215 267.375 71.2561Z" fill="#3B2C7D"/>
<path d="M272.885 91.5234C275.833 91.4195 278.723 92.458 281.268 93.8772C282.889 94.783 284.348 92.2907 282.722 91.3907C279.75 89.7291 276.329 88.5061 272.885 88.6388C271.039 88.708 271.027 91.5926 272.885 91.5234Z" fill="#3B2C7D"/>
</svg>
