<svg width="300" height="300" viewBox="0 0 300 300" fill="none" xmlns="http://www.w3.org/2000/svg">
<path d="M135.162 117.646C135.493 119.592 135.267 121.592 134.51 123.415C134.383 123.744 134.239 124.066 134.077 124.379L133.84 124.852L133.552 125.29C132.148 127.332 130.15 128.893 127.829 129.761C126.821 130.139 125.795 130.464 124.754 130.736C123.42 131.097 122.028 131.189 120.658 131.008C120.237 130.869 120.306 130.765 120.658 130.506C120.88 130.354 121.12 130.23 121.373 130.136C121.69 129.993 122.03 129.905 122.377 129.877L123.358 129.773C123.681 129.773 124.004 129.663 124.327 129.634C124.984 129.583 125.634 129.461 126.265 129.271C127.534 128.902 128.747 128.362 129.871 127.667C131.24 126.792 132.359 125.578 133.119 124.142C134.029 122.596 134.464 120.816 134.371 119.025C134.249 117.925 133.963 116.85 133.523 115.834C132.825 114.277 131.946 112.807 130.904 111.456C130.108 110.394 129.237 109.419 128.394 108.392C128.204 108.173 128.019 107.954 127.817 107.717C127.171 106.834 127.079 106.459 127.183 106.108C127.183 106.033 127.183 105.946 127.217 105.9C127.252 105.854 127.338 105.854 127.558 105.94C127.839 106.078 128.087 106.275 128.285 106.517C129.988 108.302 131.532 110.233 132.9 112.286C133.995 113.909 134.769 115.726 135.179 117.64L135.162 117.646Z" fill="#3B2C7D"/>
<path d="M31.7325 120.658C31.0051 119.467 30.5646 118.124 30.446 116.734C30.3913 116.238 30.3681 115.739 30.3768 115.24C30.4617 113.51 30.7542 111.795 31.2479 110.134C31.4556 109.402 31.6575 108.658 31.9171 107.942C32.2111 107 32.6616 106.115 33.2498 105.323C33.4402 105.086 33.5037 105.179 33.4806 105.461C33.4407 105.894 33.3477 106.32 33.2037 106.731C32.5127 108.537 31.9347 110.385 31.4729 112.263C31.2102 113.422 31.0825 114.606 31.0921 115.794C31.0616 117.092 31.3259 118.38 31.8652 119.561C32.2272 120.272 32.6918 120.925 33.2441 121.5C34.0937 122.375 35.1314 123.046 36.2787 123.461C37.1681 123.77 38.0756 124.025 38.996 124.223L39.5729 124.379C39.8436 124.445 40.1065 124.54 40.3575 124.661C40.4767 124.733 40.5806 124.827 40.6633 124.938C40.6633 124.984 40.7268 125.025 40.7441 125.059C40.7614 125.094 40.6921 125.14 40.5421 125.152C40.3222 125.184 40.0986 125.184 39.8787 125.152C38.0891 124.923 36.3523 124.389 34.7441 123.571C33.4996 122.878 32.4468 121.887 31.6806 120.686L31.7325 120.658Z" fill="#3B2C7D"/>
<path d="M83.351 107.971C82.7163 108.421 76.8144 109.656 75.0952 109.61C73.376 109.563 72.9375 104.711 75.0952 102.34C77.5875 99.5942 81.8856 107.308 83.351 107.971Z" fill="#3B2C7D"/>
<path d="M44.2407 90.7613C44.2407 90.7613 37.9984 91.6902 37.7388 90.9113C37.4792 90.1325 39.083 86.0479 40.5715 86.5036C42.0599 86.9594 43.5022 91.194 44.2407 90.7613Z" fill="#3B2C7D"/>
<path d="M227.989 53.4054C221.066 46.6265 190.178 24.9862 162.681 32.8265C156.376 34.615 149.891 38.9823 147.03 45.1785C145.399 48.5923 144.856 52.4247 145.475 56.157C146.095 59.8893 147.845 63.3413 150.491 66.0458C154.385 69.9977 159.722 72.1554 165.11 73.0381C167.81 73.4823 170.43 73.2862 173.118 73.4477C195.93 74.815 222.191 58.8516 222.191 58.8516V60.3977C220.835 77.1285 235.691 94.0496 235.691 94.0496C235.691 94.0496 240.433 78.4727 251.551 86.9015C251.551 86.9015 261.445 71.3823 259.38 57.1554C259.38 57.1554 257.649 50.6996 252.543 46.6958C241.674 38.1919 227.683 53.0419 227.989 53.4054Z" fill="#3B2C7D"/>
<path d="M231.926 230.602C231.921 229.985 231.878 229.368 231.799 228.756C231.765 228.531 231.713 228.312 231.69 228.081C231.597 227.272 231.452 226.471 231.257 225.681C231.164 225.332 231.051 224.989 230.917 224.654C230.717 224.237 230.545 223.807 230.403 223.367C230.369 223.223 230.53 223.16 230.744 223.188C230.872 223.207 230.994 223.253 231.104 223.323C231.213 223.392 231.307 223.484 231.378 223.592C231.89 224.437 232.251 225.364 232.445 226.333C232.549 226.91 232.769 227.487 232.901 228.063C233.026 228.719 233.107 229.382 233.144 230.048C233.172 230.458 233.144 230.873 233.172 231.283C233.172 231.594 233.138 231.912 233.12 232.229C233.103 232.546 233.051 232.858 232.982 233.169C232.913 233.481 232.924 233.665 232.849 233.913C232.807 234.173 232.719 234.423 232.59 234.652C232.538 234.761 232.48 234.867 232.417 234.969C232.122 235.321 231.926 235.35 231.678 235.188C231.62 235.151 231.564 235.111 231.511 235.067C231.433 234.986 231.38 234.884 231.36 234.773C231.339 234.662 231.352 234.548 231.395 234.444C231.517 234.121 231.534 233.781 231.632 233.452C231.716 233.094 231.78 232.732 231.822 232.367C231.892 231.776 231.915 231.18 231.892 230.585L231.926 230.602Z" fill="#3B2C7D"/>
<path d="M208.076 205.038C207.574 205.491 207.254 206.111 207.178 206.783C207.101 207.454 207.273 208.131 207.661 208.684C207.861 209.007 208.177 209.241 208.544 209.337C208.911 209.434 209.301 209.386 209.634 209.204C210.211 208.823 210.644 207.871 210.153 207.231C210.101 207.167 209.859 206.729 210.021 207.069V206.965C210.021 207.173 210.055 207.196 210.049 207.034C210.049 207.427 210.142 206.936 209.997 207.254C210.084 207.121 210.072 207.121 209.969 207.254C210.022 207.192 210.08 207.134 210.142 207.081C210.276 206.946 210.382 206.787 210.455 206.612C210.527 206.437 210.565 206.249 210.565 206.059C210.565 205.87 210.527 205.682 210.455 205.507C210.382 205.332 210.276 205.172 210.142 205.038C210.008 204.904 209.848 204.798 209.673 204.725C209.498 204.653 209.31 204.615 209.121 204.615C208.931 204.615 208.743 204.653 208.568 204.725C208.393 204.798 208.234 204.904 208.099 205.038H208.076Z" fill="#3B2C7D"/>
<path d="M180.522 206.18C180.184 206.534 179.928 206.958 179.772 207.421C179.699 207.765 179.714 208.121 179.815 208.458C179.916 208.794 180.099 209.1 180.348 209.348C180.529 209.529 180.755 209.658 181.002 209.723C181.25 209.788 181.51 209.786 181.756 209.717C182.133 209.642 182.484 209.47 182.775 209.22C183.066 208.969 183.287 208.648 183.418 208.286C183.57 207.736 183.53 207.149 183.302 206.625C183.193 206.267 182.957 205.962 182.639 205.765C182.392 205.618 182.106 205.548 181.819 205.565C181.532 205.582 181.256 205.685 181.028 205.86C180.8 206.035 180.63 206.275 180.539 206.548C180.449 206.821 180.443 207.115 180.522 207.392C180.573 207.513 180.608 207.64 180.648 207.767C180.718 207.998 180.648 207.646 180.648 207.594C180.648 207.732 180.568 207.894 180.683 207.421C180.637 207.623 180.845 207.098 180.764 207.236C180.683 207.375 181.023 206.936 180.873 207.086C181.087 206.931 181.145 206.884 181.047 206.942C180.948 207 181.012 206.971 181.237 206.867C181.162 206.867 181.075 206.919 181.006 206.936L182.408 207.305C182.512 207.455 182.541 207.49 182.489 207.404C182.437 207.317 182.454 207.357 182.558 207.577V208.154C182.443 208.384 182.42 208.454 182.472 208.35C182.51 208.302 182.543 208.25 182.57 208.194L182.448 208.355L182.564 208.211C182.824 207.933 182.974 207.57 182.985 207.19C182.983 206.81 182.832 206.445 182.564 206.175C182.045 205.696 181.023 205.54 180.522 206.175V206.18Z" fill="#3B2C7D"/>
<path d="M225.079 217.892C225.72 218.348 226.285 218.903 226.752 219.536L227.011 218.55C225.131 219.704 222.673 219.127 220.706 220.281C220.624 220.328 220.552 220.392 220.495 220.467C220.437 220.543 220.396 220.629 220.371 220.72C220.347 220.812 220.341 220.907 220.354 221.001C220.367 221.095 220.398 221.185 220.446 221.267C220.494 221.349 220.557 221.421 220.632 221.478C220.708 221.535 220.794 221.577 220.885 221.601C220.977 221.626 221.072 221.631 221.166 221.619C221.26 221.606 221.351 221.575 221.432 221.527C223.388 220.419 225.811 221.019 227.738 219.796C227.902 219.699 228.022 219.541 228.07 219.356C228.119 219.171 228.093 218.975 227.998 218.81C227.389 217.974 226.649 217.243 225.806 216.646C225.061 216.069 224.34 217.344 225.079 217.892Z" fill="#3B2C7D"/>
<path d="M243.872 269.608C240.803 269.931 237.739 270.219 234.641 270.369C233.516 270.41 232.397 270.542 231.272 270.536C227.308 270.635 223.339 270.467 219.393 270.196L216.762 269.942C215.885 269.867 215.031 269.798 214.149 269.665C213.041 269.504 211.916 269.406 210.814 269.198C209.712 268.99 208.628 268.667 207.549 268.367C206.874 268.177 207.012 268.015 207.635 267.911C208.631 267.782 209.639 267.782 210.635 267.911L213.981 268.333C214.558 268.402 215.095 268.494 215.654 268.546L217.345 268.69C219.583 268.927 221.851 269.013 224.124 269.152C225.485 269.192 226.876 269.215 228.272 269.152C229.668 269.088 231.076 269.036 232.472 268.956C235.535 268.76 238.604 268.563 241.662 268.223C243.543 268.033 245.424 267.79 247.299 267.536L251.562 266.908C252.976 266.665 254.395 266.44 255.791 266.163C257.972 265.754 260.078 265.2 262.229 264.761C262.703 264.658 263.158 264.548 263.637 264.456C264.265 264.316 264.904 264.233 265.547 264.208C265.868 264.204 266.183 264.29 266.458 264.456C266.561 264.512 266.659 264.575 266.753 264.646C266.862 264.761 266.753 264.911 266.447 265.09C266.003 265.347 265.525 265.541 265.028 265.667C263.135 266.186 261.191 266.74 259.183 267.156C257.176 267.571 255.145 267.969 253.085 268.31C250.033 268.84 246.947 269.261 243.854 269.648L243.872 269.608Z" fill="#3B2C7D"/>
<path d="M222.693 240.398C220.72 241.644 218.782 242.959 216.826 244.269C216.116 244.748 215.418 245.25 214.697 245.717C212.141 247.367 209.505 248.844 206.955 250.436C205.801 251.14 204.699 251.884 203.609 252.64C202.91 253.125 202.218 253.627 201.526 254.123C200.834 254.619 200.112 255.08 199.409 255.559C198.964 255.854 198.964 255.738 199.241 255.363C199.709 254.753 200.239 254.192 200.822 253.69C203.616 251.564 206.539 249.612 209.574 247.846C211.409 246.796 213.214 245.602 214.985 244.384C216.941 243.063 218.88 241.707 220.859 240.392C222.076 239.584 223.305 238.794 224.557 238.038C226.452 236.89 228.418 235.861 230.441 234.957C231.988 234.239 233.589 233.645 235.23 233.18C235.593 233.094 235.951 232.996 236.326 232.927C236.616 232.863 236.912 232.825 237.209 232.811C237.457 232.811 237.653 232.811 237.82 232.811C238.055 232.804 238.287 232.857 238.495 232.967C238.568 232.998 238.638 233.037 238.703 233.082C238.847 233.209 238.305 233.44 237.335 233.659C234.361 234.378 231.485 235.459 228.774 236.879C226.703 237.94 224.695 239.157 222.71 240.427L222.693 240.398Z" fill="#3B2C7D"/>
<path d="M140.675 271.58L137.975 271.003C137.646 270.934 137.305 270.917 136.982 270.836L133.521 269.919C133.013 269.786 132.488 269.711 131.98 269.596C131.294 269.511 130.626 269.316 130.001 269.019C129.782 268.898 129.944 268.655 130.198 268.413C130.32 268.273 130.469 268.159 130.637 268.079C130.804 267.998 130.987 267.953 131.173 267.946C131.844 267.981 132.512 268.056 133.175 268.171C133.841 268.304 134.5 268.474 135.148 268.678C135.958 268.878 136.781 269.025 137.611 269.117L140.311 269.648C140.888 269.752 141.425 269.855 141.978 269.948C142.826 270.08 143.669 270.23 144.517 270.288C145.166 270.302 145.815 270.281 146.461 270.225C146.601 270.207 146.741 270.197 146.882 270.196C147.396 270.196 147.551 270.311 147.673 270.773C147.701 270.882 147.736 270.992 147.753 271.102C147.768 271.192 147.765 271.284 147.744 271.373C147.723 271.462 147.684 271.546 147.631 271.62C147.577 271.694 147.509 271.757 147.431 271.804C147.353 271.852 147.267 271.884 147.176 271.898C145.946 272.192 144.67 272.243 143.421 272.048C142.492 271.938 141.575 271.765 140.651 271.609L140.675 271.58Z" fill="#3B2C7D"/>
<path d="M195.186 238.269C195.217 237.675 195.287 237.083 195.394 236.498C195.429 236.284 195.423 236.071 195.469 235.857C195.636 235.119 195.844 234.392 196.046 233.682C196.151 233.37 196.24 233.052 196.311 232.73C196.37 232.313 196.509 231.912 196.721 231.548C196.871 231.323 197.713 231.934 197.667 232.384C197.579 233.194 197.385 233.99 197.09 234.75C196.95 235.23 196.871 235.726 196.854 236.227C196.779 236.769 196.738 237.317 196.698 237.865C196.698 238.2 196.652 238.54 196.658 238.875C196.656 239.387 196.699 239.898 196.784 240.403C196.881 240.782 197.013 241.151 197.177 241.505C197.206 241.586 197.258 241.661 197.281 241.742C197.373 242.042 197.281 242.18 197.021 242.348L196.848 242.463C196.741 242.514 196.62 242.527 196.504 242.5C196.389 242.473 196.286 242.407 196.213 242.313C195.703 241.667 195.364 240.903 195.227 240.092C195.134 239.489 195.089 238.879 195.094 238.269H195.186Z" fill="#3B2C7D"/>
<path d="M148.224 243.461C150.382 243.19 151.997 242.163 153.612 240.755C155.343 239.273 157.345 237.121 159.78 237.017C160.795 236.977 160.801 235.39 159.78 235.43C154.945 235.632 152.787 241.304 148.241 241.875C147.243 242.002 147.232 243.605 148.241 243.461H148.224Z" fill="#3B2C7D"/>
<path d="M167.564 97.4535C167.067 96.683 166.634 95.8725 166.271 95.0304C166.15 94.7189 166.006 94.4189 165.891 94.1131C165.525 93.0098 165.257 91.8767 165.089 90.7266C165.037 90.2131 164.933 89.7112 164.887 89.2035C164.858 88.8804 164.806 88.5573 164.789 88.2343C164.768 87.9077 164.768 87.5801 164.789 87.2535C164.823 86.8497 165.452 87.3631 165.504 88.0785C165.619 89.3562 165.8 90.6271 166.046 91.8862C166.22 92.6559 166.471 93.4059 166.796 94.1246C167.124 94.9263 167.519 95.6984 167.979 96.4323C168.267 96.883 168.581 97.3164 168.919 97.7304C169.428 98.3719 170.009 98.9526 170.65 99.4612C171.154 99.8172 171.694 100.121 172.26 100.367C172.381 100.425 172.502 100.477 172.629 100.523C173.091 100.713 173.206 100.875 173.177 101.175C173.183 101.242 173.183 101.309 173.177 101.377C173.142 101.59 172.871 101.665 172.479 101.561C171.299 101.164 170.224 100.505 169.335 99.6343C168.661 98.9834 168.06 98.2619 167.541 97.4823L167.564 97.4535Z" fill="#3B2C7D"/>
<path d="M108.353 92.821C108.249 92.9998 116.008 91.0267 116.88 90.5421C117.751 90.0575 113.914 84.5479 111.687 85.3094C109.46 86.071 109.281 91.2229 108.353 92.821Z" fill="#3B2C7D"/>
<path d="M206.764 147.161C206.25 147.284 205.73 147.378 205.206 147.444L203.631 147.605C203.106 147.675 202.57 147.605 202.045 147.646C201.515 147.662 200.985 147.641 200.458 147.582L198.895 147.427C198.376 147.352 197.862 147.23 197.349 147.132C196.33 146.921 195.325 146.652 194.337 146.325C192.898 145.863 191.499 145.284 190.154 144.594C187.807 143.35 185.647 141.781 183.739 139.932C182.786 139.026 181.888 138.062 181.051 137.048C180.641 136.534 180.278 135.98 179.897 135.455C179.495 134.936 179.131 134.388 178.806 133.817C178.185 132.834 177.619 131.817 177.11 130.771L176.366 129.202L176.176 128.815L176.026 128.405L175.726 127.598C175.472 126.905 175.201 126.219 174.958 125.521C174.716 124.823 174.578 124.096 174.381 123.38L174.128 122.307C174.047 121.944 174.018 121.575 173.966 121.211C173.874 120.478 173.793 119.752 173.724 119.025C173.643 118.113 173.954 118.205 174.422 118.903C174.721 119.365 174.983 119.849 175.206 120.352C175.495 120.928 175.703 121.673 176.003 122.434C177.733 127.915 180.254 133.027 184.079 137.33C186.46 139.916 189.357 141.972 192.583 143.365C194.346 144.144 196.19 144.724 198.081 145.096C199.024 145.286 199.978 145.413 200.937 145.477C201.416 145.511 201.895 145.477 202.374 145.477H203.078C203.314 145.477 203.556 145.425 203.793 145.402C206.169 145.21 208.492 144.596 210.653 143.59C212.309 142.837 213.876 141.902 215.326 140.803C216.785 139.713 218.137 138.486 219.364 137.14C221.224 135.039 222.86 132.749 224.245 130.309L225.145 128.705C226.299 126.698 226.72 126.109 227.51 125.953C227.683 125.903 227.861 125.87 228.041 125.855C228.566 125.855 228.479 126.905 227.753 128.503C225.497 133.498 222.172 137.937 218.014 141.507C216.402 142.882 214.639 144.068 212.758 145.044C212.294 145.303 211.814 145.535 211.322 145.736C210.826 145.944 210.341 146.157 209.839 146.353C208.831 146.709 207.802 147.002 206.758 147.23L206.764 147.161Z" fill="#3B2C7D"/>
<path d="M226.282 83.0766C225.421 81.1535 224.638 79.217 223.934 77.267C223.68 76.5516 223.357 75.8535 223.144 75.1266C222.317 72.559 221.737 69.9181 221.413 67.24C221.257 66.0862 221.119 64.8574 221.073 63.6631C220.929 62.101 221.126 60.5265 221.65 59.0477C221.834 58.5862 222.117 58.765 222.354 59.2266C222.644 59.8478 222.794 60.5254 222.792 61.2112C222.772 62.6517 222.873 64.0913 223.092 65.515C223.282 66.9574 223.548 68.3997 223.825 69.8881C224.004 70.7708 224.252 71.6535 224.523 72.542C224.794 73.4304 225.1 74.2727 225.429 75.167C226.098 77.0881 226.848 78.992 227.673 80.8554C228.184 82.0093 228.727 83.1458 229.3 84.265C230.159 85.9689 231.122 87.6182 232.184 89.2035C233.022 90.3849 233.948 91.5015 234.954 92.5439C235.167 92.7747 235.404 92.9766 235.611 93.2131C236.407 94.0612 236.569 94.3958 236.344 94.9958C236.303 95.1336 236.253 95.2685 236.194 95.3997C235.975 95.8093 235.34 95.7285 234.607 95.14C232.476 93.2871 230.663 91.0964 229.242 88.6554C228.135 86.8536 227.129 84.9911 226.23 83.0766H226.282Z" fill="#3B2C7D"/>
<path d="M250.422 98.1462L250.768 97.2981C250.873 97.0292 250.96 96.7536 251.028 96.4731C251.171 95.8879 251.264 95.2915 251.305 94.6904C251.387 93.4609 251.297 92.2261 251.039 91.0212C250.848 90.1601 250.536 89.3306 250.111 88.5577C249.773 87.8931 249.304 87.3042 248.732 86.8269C248.152 86.3917 247.467 86.1171 246.747 86.0308C245.973 85.9664 245.194 86.0267 244.439 86.2096C244.041 86.3019 243.649 86.4058 243.286 86.5269C242.892 86.6537 242.506 86.806 242.132 86.9827C241.48 87.287 240.871 87.6749 240.32 88.1366C239.779 88.6094 239.295 89.1438 238.878 89.7289C238.353 90.495 237.916 91.3174 237.574 92.1808C237.193 93.0346 236.847 93.9116 236.466 94.8173C236.213 95.3654 235.988 95.2443 235.774 94.6558C235.45 93.7391 235.425 92.743 235.705 91.8116C236.071 90.7796 236.567 89.7986 237.182 88.8923C237.816 87.9644 238.595 87.1444 239.489 86.4635C240.383 85.7854 241.383 85.261 242.449 84.9116C242.707 84.8161 242.971 84.7371 243.239 84.675C243.505 84.6116 243.77 84.5308 244.036 84.4904C244.581 84.3844 245.132 84.3131 245.686 84.2769C247.128 84.1946 248.557 84.5834 249.759 85.3846C250.912 86.1967 251.821 87.3077 252.389 88.5981C252.991 89.935 253.347 91.3695 253.439 92.8327C253.558 94.2856 253.445 95.748 253.105 97.1654C252.604 98.858 251.845 100.463 250.855 101.925C249.378 104.103 247.503 105.983 245.328 107.463C243.67 108.649 241.831 109.557 239.882 110.152C239.448 110.285 239.007 110.395 238.561 110.481C236.864 110.746 236.299 110.452 235.976 109.875C235.893 109.745 235.821 109.608 235.763 109.465C235.641 109.015 236.293 108.617 237.343 108.433C240.572 107.792 243.564 106.282 245.997 104.065C246.928 103.232 247.776 102.31 248.53 101.313C249.269 100.314 249.896 99.2366 250.399 98.1L250.422 98.1462Z" fill="#3B2C7D"/>
<path d="M150.58 69.2306C149.55 68.4299 148.585 67.5482 147.695 66.594C146.793 65.6344 145.983 64.5912 145.278 63.4787C143.858 61.2409 142.906 58.7387 142.48 56.1229C142.055 53.5252 142.127 50.8704 142.693 48.2998C143.25 45.7605 144.225 43.3313 145.578 41.1114L146.328 39.9114L147.159 38.7575L147.58 38.1806L148.036 37.644L148.959 36.5767L149.951 35.5844L150.453 35.0883L150.989 34.6325L152.063 33.7267L153.216 32.9017C153.874 32.3998 154.613 32.0191 155.311 31.5806C155.657 31.3556 156.049 31.1941 156.418 31.0037C156.793 30.8081 157.178 30.6329 157.572 30.4787C159.084 29.8394 160.645 29.3223 162.239 28.9325C165.368 28.2096 168.56 27.7941 171.77 27.6921C178.17 27.483 184.571 28.1094 190.809 29.5556C193.566 30.1844 196.301 30.9402 198.989 31.8287C201.668 32.7275 204.296 33.7674 206.864 34.944C210.165 36.4451 213.33 38.2266 216.326 40.2691C217.07 40.7883 217.814 41.3075 218.513 41.8902C219.211 42.4729 219.943 43.044 220.607 43.621C221.981 44.8052 223.255 46.102 224.414 47.4979C225.857 49.2287 225.343 49.2575 223.688 48.2594C222.032 47.2614 219.17 45.3748 215.882 43.1075C210.06 39.0026 203.638 35.8245 196.843 33.6864C190.005 31.4704 182.894 30.2103 175.711 29.9421C173.542 29.8578 171.37 29.9175 169.209 30.121C167.029 30.3137 164.869 30.6783 162.747 31.2114C160.651 31.7337 158.629 32.5188 156.73 33.5479C154.863 34.6263 153.131 35.924 151.572 37.4133C148.078 40.6439 145.709 44.9074 144.811 49.5806C144.408 51.8873 144.457 54.2503 144.955 56.5383C145.434 58.8408 146.385 61.0193 147.747 62.9364C149.465 65.3101 151.645 67.3118 154.157 68.821C156.682 70.3647 159.447 71.4762 162.338 72.1094C166.767 73.1255 171.316 73.5254 175.855 73.2979C178.128 73.1902 180.393 72.9729 182.651 72.646C184.909 72.319 187.138 71.8883 189.338 71.3537C192.77 70.5402 196.111 69.5017 199.416 68.3767C202.722 67.2517 205.964 66.0114 209.155 64.6267C210.551 64.0037 211.901 63.3691 213.28 62.6825C218.374 60.1267 219.868 59.1517 221.305 59.0825C221.622 59.0421 222.003 58.944 222.205 58.944C222.545 58.944 222.274 59.3479 221.536 60.1556C220.348 61.2858 219.017 62.2556 217.578 63.0402C212.074 66.3114 205.964 68.7633 199.693 70.846C193.338 73.056 186.761 74.5669 180.078 75.3517C175.013 75.9332 169.892 75.8362 164.853 75.0633L162.961 74.7056C162.332 74.596 161.714 74.4171 161.086 74.2729C159.816 73.9766 158.568 73.5911 157.353 73.119C156.134 72.6385 154.947 72.0817 153.799 71.4517C152.654 70.805 151.553 70.0822 150.505 69.2883L150.58 69.2306Z" fill="#3B2C7D"/>
<path d="M259.617 57.294C259.583 56.8613 259.583 56.4171 259.514 55.9844L259.335 54.6978C259.172 53.8488 258.95 53.0122 258.671 52.194C258.137 50.5663 257.301 49.0535 256.208 47.7344C256.018 47.4922 255.807 47.2664 255.579 47.0594L254.91 46.4075C254.414 46.0267 253.906 45.6575 253.416 45.2536C251.563 43.9937 249.455 43.1584 247.242 42.8075C244.981 42.4615 242.675 42.5496 240.446 43.0671C239.956 43.1998 239.448 43.2805 238.964 43.4536L237.516 43.9671C236.57 44.3604 235.654 44.8212 234.775 45.3459C234.498 45.519 234.198 45.669 233.939 45.8594L233.142 46.4363C232.883 46.6325 232.6 46.8055 232.358 47.0132C232.116 47.2209 231.862 47.4402 231.608 47.6478C231.098 48.0577 230.609 48.4928 230.142 48.9517C229.641 49.3786 229.225 49.8863 228.764 50.3594C228.187 50.9363 227.985 50.6882 228.141 49.9036C228.258 49.377 228.436 48.8658 228.671 48.3805C229.029 47.7231 229.467 47.1127 229.975 46.5632C232.069 44.5207 234.558 42.9284 237.291 41.8844C240.042 40.8135 243.004 40.3929 245.944 40.6555C246.832 40.7315 247.714 40.8586 248.587 41.0363C249.031 41.1113 249.458 41.2671 249.896 41.3767C250.336 41.4817 250.768 41.6186 251.189 41.7863L252.452 42.2998C252.865 42.4896 253.268 42.7014 253.658 42.9344L254.235 43.269L254.529 43.4421L254.806 43.644L255.891 44.4632C257.438 45.735 258.732 47.2871 259.704 49.0382C260.605 50.7891 261.238 52.666 261.579 54.6055C261.966 56.9505 262.051 59.3352 261.833 61.7017C261.67 63.474 261.391 65.2336 260.996 66.969C260.598 68.6998 260.091 70.3959 259.542 72.0632C258.713 74.6566 257.683 77.1815 256.462 79.6152C256.185 80.1459 255.925 80.6767 255.608 81.1959C255.232 81.9031 254.74 82.5426 254.154 83.0882C253.845 83.3887 253.431 83.5582 253 83.5613C252.832 83.5816 252.661 83.5816 252.492 83.5613C252.002 83.4517 252.244 82.5171 252.942 81.1209C254.081 79.0634 255.106 76.9448 256.012 74.7748C256.945 72.5512 257.728 70.2671 258.354 67.9382C259.317 64.4882 259.724 60.9068 259.56 57.3286L259.617 57.294Z" fill="#3B2C7D"/>
<path d="M168.342 107.221C168.582 106.516 168.899 105.841 169.289 105.207C169.643 104.6 170.028 104.011 170.442 103.442C171.254 102.328 172.153 101.28 173.131 100.309C173.829 99.5996 174.521 98.9015 175.26 98.2554C177.885 96.0111 180.677 94.1304 183.141 91.9092C184.217 90.9323 185.184 89.8413 186.025 88.6554C186.538 87.906 187.004 87.1256 187.421 86.3188C187.623 85.915 187.808 85.5111 187.969 85.0958C188.131 84.6804 188.35 84.2823 188.483 83.8496C188.673 83.3246 188.95 83.3881 189.25 83.9535C189.441 84.3395 189.573 84.7517 189.642 85.1765C189.7 85.7437 189.624 86.3163 189.423 86.8496C189.05 87.8498 188.544 88.7949 187.917 89.6592C187.312 90.4988 186.649 91.295 185.933 92.0419C184.524 93.4829 182.993 94.7993 181.358 95.9765C179.448 97.3958 177.602 98.9765 175.86 100.557C173.934 102.237 172.293 104.219 171.002 106.425C170.63 107.058 170.357 107.745 170.194 108.461C170.021 109.137 170.021 109.845 170.194 110.521C170.357 111.013 170.628 111.462 170.987 111.836C171.347 112.209 171.786 112.497 172.271 112.678C173.338 113.052 174.487 113.13 175.594 112.903C177.369 112.522 179.062 111.831 180.596 110.861C180.942 110.659 181.266 110.44 181.606 110.227C182.864 109.43 183.291 109.246 183.914 109.511C184.053 109.558 184.188 109.616 184.318 109.684C184.698 109.927 184.416 110.636 183.481 111.38C182.056 112.517 180.467 113.431 178.767 114.092C176.911 114.874 174.884 115.164 172.883 114.934C172.018 114.819 171.189 114.512 170.458 114.036C169.726 113.56 169.11 112.927 168.654 112.182C168.18 111.408 167.916 110.523 167.887 109.615C167.886 108.8 168.014 107.99 168.267 107.215L168.342 107.221Z" fill="#3B2C7D"/>
<path d="M166.495 78.6173C166.495 78.6173 166.495 78.6173 166.46 78.7096L166.356 79.1077L166.154 79.9038C166.027 80.4404 165.935 80.9827 165.82 81.525C165.625 82.6126 165.494 83.7106 165.427 84.8134C165.402 85.2149 165.402 85.6177 165.427 86.0192C165.427 86.4231 165.427 86.8269 165.427 87.2308C165.438 90.0723 165.996 92.8852 167.072 95.5154C167.321 96.0883 167.616 96.64 167.954 97.1654L168.474 97.9442C168.664 98.1865 168.877 98.4115 169.051 98.6481L169.443 99.0923L169.881 99.4846L170.326 99.8711C170.463 100.011 170.616 100.135 170.781 100.24C171.104 100.465 171.416 100.696 171.727 100.944C172.039 101.192 172.391 101.354 172.72 101.585C173.049 101.815 172.91 102.271 172.316 102.479C171.893 102.613 171.446 102.649 171.007 102.585C170.568 102.521 170.15 102.359 169.783 102.11C168.208 101.049 166.88 99.6619 165.889 98.0423C164.947 96.4506 164.294 94.7043 163.962 92.8846C163.497 90.738 163.22 88.5546 163.137 86.3596C163.126 83.9624 163.389 81.5719 163.922 79.2346L164.187 78.1673C164.187 78.0692 164.239 77.925 164.274 77.8038C164.318 77.6768 164.372 77.5534 164.435 77.4346C164.564 77.2069 164.742 77.0101 164.954 76.8577C165.058 76.7709 165.17 76.6955 165.289 76.6327C165.394 76.5662 165.504 76.5084 165.618 76.4596C165.806 76.3733 165.998 76.2982 166.195 76.2346C166.574 76.1158 166.959 76.0175 167.349 75.9404C169.548 75.6113 171.773 75.4953 173.995 75.5942C175.691 75.5942 177.364 75.5942 179.077 75.7731C179.452 75.8134 179.827 75.8365 180.231 75.9115C181.645 76.1942 182.101 76.5981 182.101 77.3308C182.118 77.4937 182.118 77.6581 182.101 77.8211C181.951 78.3346 181.379 78.4846 180.491 78.3981C179.141 78.2423 177.687 78.1558 176.222 78.0808C174.756 78.0058 173.251 77.9654 171.756 77.9942C170.671 78.0058 169.586 78.0771 168.508 78.2077C168.021 78.2704 167.539 78.3688 167.066 78.5019C166.969 78.5302 166.875 78.5649 166.783 78.6058L166.662 78.6519H166.633C166.627 78.6492 166.62 78.6478 166.613 78.6478C166.606 78.6478 166.599 78.6492 166.593 78.6519L166.495 78.6173Z" fill="#3B2C7D"/>
<path d="M214.202 103.511C216.144 102.941 217.923 101.919 219.394 100.529C220.903 99.0654 222.134 97.3415 223.029 95.4401C223.686 94.0152 224.221 92.5367 224.627 91.0209C225.393 88.3118 225.869 85.5288 226.046 82.719L226.104 81.6575V81.4151C226.104 81.3805 226.104 81.3402 226.104 81.3113L226.035 81.2363C225.987 81.1788 225.932 81.1266 225.873 81.0805C225.758 80.9998 225.648 80.8844 225.51 80.8036L225.112 80.544L224.679 80.3075C223.442 79.6984 222.137 79.2394 220.791 78.9402C218.326 78.3957 215.814 78.0905 213.291 78.0286C211.675 77.9536 210.048 77.994 208.433 78.0286C206.817 78.0632 205.173 78.0286 203.61 78.1209C203.125 78.1209 202.969 78.0632 202.906 77.8844C202.842 77.7055 203.027 77.4055 203.442 77.1055C204.741 76.2632 206.24 75.7813 207.787 75.7094C209.491 75.6171 211.2 75.6171 212.904 75.7094C214.606 75.7786 216.319 75.9286 218.027 76.1652C219.768 76.4054 221.485 76.7913 223.162 77.319C224.037 77.5969 224.886 77.9501 225.7 78.3748C226.127 78.6048 226.537 78.863 226.929 79.1478L227.223 79.3844C227.367 79.4945 227.502 79.616 227.627 79.7478L228.019 80.1402L228.216 80.3305L228.314 80.4286C228.317 80.4747 228.317 80.521 228.314 80.5671L228.279 81.8075L228.233 82.5863C228.198 83.1113 228.158 83.6305 228.112 84.1555C228.027 85.2055 227.908 86.2555 227.754 87.3055C227.467 89.4232 226.983 91.5093 226.306 93.5363C225.56 95.798 224.483 97.9366 223.11 99.8825C221.704 101.851 219.882 103.486 217.773 104.671C216.473 105.361 215.08 105.861 213.637 106.154L212.552 106.35L211.462 106.471C210.714 106.528 209.963 106.518 209.217 106.442C206.977 106.207 204.833 105.404 202.989 104.108C201.146 102.813 199.664 101.069 198.683 99.0402C197.207 95.9835 196.458 92.6266 196.496 89.2325C196.482 88.501 196.505 87.7693 196.566 87.0401C196.86 84.3171 197.252 83.5094 197.973 83.0651C198.129 82.9501 198.297 82.8533 198.475 82.7767C199.012 82.6267 199.173 83.7632 199.052 85.6613C198.853 88.448 199.005 91.2487 199.502 93.9978C199.776 95.3376 200.216 96.638 200.812 97.869L201.285 98.769C201.469 99.0401 201.614 99.3459 201.816 99.5825C202.198 100.11 202.627 100.602 203.096 101.054C204.539 102.403 206.312 103.346 208.237 103.788C209.182 104.007 210.154 104.083 211.121 104.013C212.14 103.928 213.149 103.744 214.133 103.465L214.202 103.511Z" fill="#3B2C7D"/>
<path d="M194.458 86.2616C192.438 85.6332 190.277 85.6211 188.25 86.227C186.854 86.7058 187.454 88.9385 188.867 88.4539C190.492 87.9576 192.229 87.9697 193.846 88.4885C195.283 88.8577 195.9 86.6366 194.458 86.2616Z" fill="#3B2C7D"/>
<path d="M225.767 165.357C221.394 161.515 216.536 158.025 210.9 156.992C208.088 156.383 205.204 156.165 202.333 156.346C199.458 156.57 196.626 157.181 193.915 158.163C191.193 159.175 188.584 160.471 186.133 162.028C183.667 163.615 181.32 165.379 179.111 167.307C174.695 171.248 170.609 175.543 166.892 180.15C165.502 181.817 164.175 183.53 162.854 185.232C161.533 186.934 160.217 188.694 158.959 190.425C156.413 193.94 153.983 197.528 151.667 201.19C147.56 207.627 143.909 214.343 140.74 221.29C137.527 228.205 135.065 235.444 133.396 242.884C133.003 244.731 132.702 246.597 132.496 248.475C132.277 250.331 132.203 252.203 132.277 254.071C132.311 255.861 132.703 257.627 133.431 259.263C134.288 260.894 135.348 262.41 136.586 263.775C139.097 266.496 142.318 268.462 145.886 269.452C149.511 270.419 153.28 270.734 157.015 270.38C160.366 270.092 163.678 269.458 166.898 268.488C170.123 267.479 173.281 266.267 176.354 264.859C182.469 261.954 188.393 258.661 194.088 255L205.136 248.077L210.692 244.615C212.533 243.461 214.379 242.307 216.248 241.153C219.971 238.79 223.907 236.781 228.006 235.153C230.086 234.376 232.225 233.768 234.404 233.336C236.607 232.89 238.862 232.76 241.102 232.95C242.14 233.051 243.153 233.324 244.102 233.757C244.679 234.103 244.904 234.294 244.829 234.334C244.754 234.375 244.384 234.288 243.761 234.155C242.891 233.989 242.005 233.913 241.119 233.93C238.863 233.971 235.719 234.623 232.079 235.84C227.91 237.311 223.905 239.208 220.125 241.5C216.334 243.686 212.625 246.115 208.8 248.423C204.975 250.73 201.3 253.096 197.515 255.455C189.981 260.169 182.273 264.83 173.861 268.24C172.811 268.65 171.767 269.088 170.688 269.446C169.609 269.803 168.554 270.207 167.452 270.525C165.26 271.172 163.031 271.684 160.777 272.059C158.507 272.434 156.212 272.627 153.911 272.636C151.586 272.658 149.265 272.43 146.988 271.955C142.299 271.029 138.028 268.63 134.798 265.107L134.221 264.444L133.679 263.746C133.311 263.281 132.968 262.798 132.652 262.298C132.319 261.811 132.013 261.306 131.734 260.786C131.413 260.246 131.141 259.678 130.921 259.09C130.213 256.799 129.92 254.4 130.056 252.005C130.234 246.467 131.452 241.084 132.986 235.8C133.771 233.163 134.677 230.555 135.64 227.971C136.604 225.386 137.688 222.836 138.831 220.315C143.444 210.256 149.002 200.657 155.429 191.648C158.925 186.705 162.627 181.923 166.534 177.3C170.404 172.625 174.693 168.315 179.348 164.423C184.067 160.58 189.398 157.292 195.346 155.567C198.315 154.689 201.395 154.246 204.49 154.252C207.578 154.271 210.648 154.71 213.617 155.555C217.245 156.744 220.63 158.575 223.609 160.961C226.572 163.261 229.339 165.803 231.883 168.559C234.431 171.282 236.838 174.134 239.094 177.103C241.363 180.057 243.531 183.08 245.596 186.173C251.848 195.552 257.387 205.387 262.165 215.596C263.348 218.152 264.473 220.736 265.477 223.384C265.985 224.715 266.418 226.073 266.775 227.452L267.813 231.53C268.515 234.261 269.071 237.026 269.481 239.815C269.911 242.627 269.997 245.481 269.734 248.313C269.525 250.545 268.929 252.723 267.975 254.752C267.478 255.762 266.879 256.719 266.186 257.607C265.486 258.477 264.704 259.277 263.85 259.996C260.533 262.871 256.689 265.074 252.531 266.48C252.023 266.682 251.498 266.832 250.984 266.994C250.471 267.155 249.946 267.323 249.421 267.467C248.371 267.721 247.327 268.044 246.265 268.234L244.673 268.563L243.075 268.828C242.008 269.025 240.934 269.128 239.861 269.273C235.567 269.723 231.248 269.883 226.933 269.752C223.154 269.648 219.433 269.527 215.625 269.175C208.54 268.523 203.913 267.415 200.763 266.405C198.591 265.758 196.529 264.785 194.648 263.521C194.071 263.1 193.315 262.586 193.009 262.303C192.704 262.021 192.894 262.021 193.396 262.142C193.898 262.263 194.74 262.598 195.952 262.967C199.6 264.203 203.336 265.168 207.127 265.852C214.552 267.167 222.3 267.467 230.065 267.553C233.941 267.568 237.813 267.319 241.656 266.809C245.488 266.302 249.252 265.368 252.877 264.023C256.482 262.709 259.809 260.731 262.684 258.19C263.383 257.577 264.017 256.895 264.577 256.153C265.126 255.428 265.611 254.656 266.025 253.846C266.42 253.017 266.75 252.159 267.011 251.278C267.262 250.378 267.455 249.463 267.588 248.538C268.073 244.782 267.629 240.848 266.89 236.965C266.515 235.021 266.059 233.077 265.569 231.127L264.808 228.23L264.617 227.492L264.421 226.805C264.3 226.355 264.133 225.888 263.977 225.427C263.031 222.669 261.831 219.923 260.608 217.211C259.384 214.5 258.04 211.811 256.673 209.134C253.938 203.803 250.973 198.582 247.834 193.477C244.696 188.371 241.327 183.409 237.692 178.661C235.881 176.278 233.977 173.982 232.015 171.738C230.039 169.516 227.95 167.398 225.756 165.392L225.767 165.357Z" fill="#3B2C7D"/>
<path d="M144.895 243.646L144.07 243.294C143.793 243.2 143.56 243.01 143.412 242.757C143.275 242.502 143.19 242.221 143.164 241.932C143.144 241.629 143.163 241.325 143.222 241.027C143.385 240.304 143.636 239.604 143.972 238.944C144.588 237.722 145.32 236.563 146.158 235.482C146.75 234.69 147.392 233.937 148.08 233.227C148.706 232.604 149.375 232.026 150.082 231.496C150.439 231.236 150.803 230.988 151.189 230.757C151.397 230.628 151.613 230.512 151.835 230.411C152.06 230.313 152.274 230.238 152.493 230.163C154.14 229.674 155.825 229.318 157.53 229.102C159.018 228.9 160.518 228.727 162.007 228.605C162.965 228.509 163.929 228.478 164.891 228.513C165.384 228.526 165.874 228.582 166.357 228.68C166.86 228.794 167.348 228.966 167.81 229.194C168.105 229.35 168.191 229.517 168.133 229.575C168.076 229.632 167.891 229.655 167.626 229.702C167.277 229.765 166.932 229.848 166.593 229.95C166.385 230.007 166.16 230.088 165.924 230.134C165.687 230.18 165.445 230.192 165.185 230.209C163.357 230.342 161.47 230.486 159.601 230.734C157.732 230.982 155.833 231.173 154.005 231.559C153.482 231.659 152.97 231.81 152.476 232.009C152.248 232.126 152.026 232.255 151.812 232.396C151.582 232.552 151.351 232.713 151.132 232.886C150.232 233.579 149.396 234.352 148.633 235.194C147.779 236.126 147.007 237.129 146.326 238.194C145.99 238.721 145.685 239.269 145.414 239.832C145.282 240.109 145.166 240.409 145.062 240.675C145.016 240.813 144.97 240.952 144.935 241.09C144.915 241.154 144.9 241.22 144.889 241.286C144.889 241.315 144.889 241.35 144.889 241.39C144.889 241.552 144.889 241.805 145.091 241.846C145.184 241.889 145.284 241.918 145.385 241.932C145.546 241.959 145.708 241.976 145.87 241.984C146.587 241.956 147.287 241.759 147.912 241.407C148.96 240.871 149.93 240.195 150.797 239.4C151.703 238.609 152.487 237.75 153.353 236.832C154.079 236.092 154.962 235.524 155.937 235.171C156.884 234.843 157.873 234.648 158.874 234.594C159.301 234.594 159.71 234.536 160.132 234.536C161.683 234.536 162.139 234.698 162.439 235.2C162.523 235.31 162.596 235.428 162.658 235.552C162.808 235.938 162.162 236.267 161.032 236.354C159.364 236.486 157.697 236.527 156.416 237.04C155.786 237.293 155.211 237.667 154.726 238.142C154.578 238.275 154.438 238.416 154.305 238.563L153.837 239.042C153.526 239.365 153.197 239.688 152.862 240.005C151.856 240.985 150.739 241.845 149.533 242.567C148.882 242.953 148.186 243.261 147.462 243.484C146.634 243.724 145.76 243.765 144.912 243.605L144.895 243.646Z" fill="#3B2C7D"/>
<path d="M156.627 248.931C156.358 248.537 156.189 248.083 156.136 247.609C156.09 247.24 156.09 246.866 156.136 246.496C156.213 245.85 156.352 245.212 156.552 244.592C156.662 244.159 156.795 243.731 156.95 243.311C157.552 241.895 158.269 240.531 159.096 239.233C159.453 238.656 159.788 238.079 160.128 237.502C160.353 237.133 160.567 236.746 160.827 236.388C160.955 236.199 161.104 236.025 161.271 235.869C161.46 235.71 161.665 235.57 161.882 235.454C162.211 235.298 162.315 235.644 162.419 236.031C162.48 236.258 162.526 236.489 162.557 236.723C162.569 236.842 162.569 236.962 162.557 237.081C162.539 237.186 162.497 237.287 162.436 237.375C162.009 238.033 161.588 238.742 161.161 239.446L160.515 240.513L159.811 241.575C159.28 242.45 158.859 243.388 158.559 244.367C158.364 244.875 158.204 245.395 158.08 245.925C157.956 246.401 157.913 246.894 157.953 247.384C158.034 247.909 158.213 248.083 158.778 248.129C159.218 248.105 159.644 247.972 160.019 247.742C160.448 247.485 160.836 247.166 161.173 246.796C161.681 246.2 162.087 245.524 162.373 244.794C162.442 244.644 162.477 244.477 162.546 244.327C162.782 243.75 162.984 243.658 163.584 243.75C163.723 243.75 163.861 243.779 163.994 243.808C164.097 243.829 164.195 243.872 164.279 243.935C164.364 243.998 164.434 244.078 164.484 244.171C164.544 244.28 164.581 244.4 164.594 244.524C164.607 244.648 164.595 244.773 164.559 244.892C164.049 246.586 162.955 248.045 161.473 249.011C160.844 249.464 160.129 249.782 159.373 249.946C158.902 250.025 158.421 250.004 157.959 249.883C157.41 249.74 156.926 249.414 156.586 248.959L156.627 248.931Z" fill="#3B2C7D"/>
<path d="M169.791 245.936C169.301 246.593 168.775 247.223 168.216 247.823C167.611 248.483 166.904 249.042 166.122 249.479C165.786 249.65 165.426 249.768 165.055 249.83C164.669 249.889 164.275 249.861 163.901 249.75C163.673 249.673 163.453 249.577 163.243 249.461C162.905 249.26 162.639 248.957 162.482 248.596C162.363 248.302 162.299 247.989 162.291 247.673C162.277 247.154 162.332 246.637 162.453 246.132C162.674 245.21 162.975 244.309 163.353 243.438C163.699 242.602 164.051 241.771 164.426 240.963C164.654 240.431 164.92 239.917 165.222 239.423C165.531 238.898 165.92 238.425 166.376 238.021C166.739 237.744 166.843 238.084 166.895 238.5C166.984 239.027 166.914 239.57 166.693 240.057C165.655 241.997 164.757 244.008 164.005 246.075C163.865 246.502 163.789 246.947 163.78 247.396C163.78 247.57 163.807 247.743 163.86 247.909C163.885 247.994 163.941 248.066 164.016 248.111C164.241 248.22 164.488 248.276 164.737 248.273C165.345 248.193 165.903 247.898 166.312 247.442C166.814 246.93 167.264 246.369 167.657 245.769C168.182 245.007 168.689 244.205 169.18 243.392C169.912 242.146 170.657 240.888 171.372 239.613C171.888 238.57 172.484 237.569 173.155 236.619C173.321 236.396 173.504 236.186 173.703 235.99C173.977 235.684 174.347 235.481 174.753 235.413C174.885 235.405 175.017 235.429 175.139 235.482C175.26 235.535 175.367 235.616 175.451 235.719C175.536 235.803 175.611 235.896 175.676 235.996C175.715 236.087 175.735 236.185 175.735 236.284C175.735 236.383 175.715 236.482 175.676 236.573C175.615 236.794 175.515 237.003 175.382 237.19C175.151 237.496 174.914 237.854 174.683 238.234C174.568 238.425 174.453 238.615 174.337 238.811L173.962 239.388L172.387 241.95C171.585 243.265 170.766 244.615 169.832 245.948L169.791 245.936Z" fill="#3B2C7D"/>
<path d="M178.848 241.436C178.467 242.1 178.087 242.769 177.654 243.421C177.516 243.673 177.364 243.918 177.198 244.154C177.044 244.355 176.878 244.548 176.702 244.73C176.525 244.938 176.332 245.131 176.125 245.307C175.705 245.701 175.196 245.988 174.642 246.144C174.353 246.22 174.049 246.22 173.76 246.144C173.473 246.059 173.216 245.892 173.021 245.665C172.788 245.42 172.622 245.12 172.538 244.793C172.455 244.466 172.456 244.122 172.542 243.796C172.6 243.6 172.877 243.692 173.119 243.848C173.362 244.004 173.696 244.2 173.737 244.384C173.783 244.532 173.857 244.669 173.956 244.788C174.007 244.838 174.065 244.881 174.129 244.915C174.183 244.932 174.241 244.938 174.298 244.931C174.354 244.924 174.409 244.905 174.458 244.875C174.662 244.819 174.856 244.734 175.035 244.621C175.511 244.226 175.904 243.739 176.188 243.19C176.575 242.584 176.944 241.95 177.285 241.286C177.498 240.882 177.706 240.473 177.902 240.057C178.213 239.428 178.531 238.8 178.808 238.148C179.021 237.646 179.165 237.115 179.385 236.59C179.435 236.473 179.498 236.363 179.575 236.261C179.667 236.101 179.809 235.975 179.979 235.903C180.108 235.861 180.249 235.872 180.371 235.932L180.556 236.013C180.645 236.098 180.709 236.206 180.74 236.325C180.772 236.445 180.77 236.57 180.735 236.688C180.709 236.92 180.665 237.15 180.602 237.375C180.533 237.6 180.446 237.807 180.365 238.038C180.198 238.488 180.013 238.95 179.788 239.411C179.5 240.092 179.171 240.784 178.819 241.465L178.848 241.436Z" fill="#3B2C7D"/>
<path d="M211.974 224.752C209.609 225.733 207.31 226.867 205.091 228.144C204.272 228.612 203.487 229.131 202.668 229.61C201.849 230.089 201.214 230.458 200.441 230.856C199.668 231.254 198.918 231.606 198.134 231.969C196.593 232.673 195.03 233.331 193.432 233.908C192.013 234.442 190.564 234.895 189.093 235.264C188.128 235.502 187.139 235.63 186.145 235.644C185.631 235.645 185.118 235.589 184.616 235.477C184.101 235.34 183.618 235.1 183.197 234.773C182.678 234.335 182.932 234.242 183.486 234.231C183.84 234.208 184.191 234.154 184.535 234.069C184.965 233.997 185.398 233.956 185.834 233.948C186.715 233.914 187.591 233.79 188.447 233.579C189.347 233.386 190.237 233.148 191.112 232.864C192.895 232.287 194.672 231.606 196.449 230.873C197.527 230.425 198.577 229.912 199.593 229.339C200.597 228.762 201.612 228.121 202.639 227.515C204.91 226.147 207.254 224.905 209.661 223.794C210.411 223.471 211.149 223.119 211.922 222.842C212.695 222.565 213.445 222.265 214.23 222C215.384 221.579 216.612 221.29 217.807 220.967C219.03 220.731 220.23 220.437 221.459 220.298L222.872 220.079L224.291 219.94C224.764 219.9 225.237 219.819 225.716 219.814L227.141 219.785C227.562 219.785 227.978 219.739 228.399 219.785C229.98 219.865 230.436 220.275 230.707 220.685C230.772 220.772 230.83 220.865 230.88 220.962C230.932 221.1 230.793 221.21 230.499 221.325C230.088 221.491 229.65 221.583 229.207 221.596C225.866 221.533 222.528 221.841 219.255 222.514C216.763 223.055 214.328 223.828 211.98 224.821L211.974 224.752Z" fill="#3B2C7D"/>
<path d="M231.349 225.958C231.205 225.427 230.98 224.931 230.772 224.406C230.551 223.903 230.305 223.412 230.034 222.934C229.82 222.594 229.589 222.259 229.353 221.931C228.551 220.72 227.595 219.618 226.509 218.654C226.017 218.22 225.499 217.817 224.957 217.448C224.23 217.007 223.542 216.503 222.903 215.942C222.712 215.752 222.903 215.509 223.284 215.365C223.496 215.278 223.724 215.238 223.953 215.247C224.182 215.256 224.406 215.314 224.611 215.417C225.384 215.856 226.129 216.341 226.843 216.871C227.206 217.143 227.551 217.438 227.876 217.754C228.21 218.066 228.526 218.397 228.822 218.746C229.191 219.15 229.543 219.583 229.941 219.981C230.339 220.379 230.697 220.823 231.014 221.284C231.371 221.79 231.695 222.318 231.984 222.865C232.128 223.136 232.289 223.402 232.411 223.684L232.774 224.533C232.928 224.877 233.059 225.232 233.166 225.594C233.282 225.952 233.414 226.304 233.512 226.667C233.651 227.215 233.789 227.769 233.911 228.317C234.032 228.865 234.101 229.431 234.222 229.979C234.343 230.833 234.62 231.663 234.736 232.523C234.736 232.713 234.805 232.898 234.822 233.1C234.88 233.809 234.741 234.04 234.199 234.19C234.072 234.225 233.945 234.265 233.824 234.288C233.609 234.311 233.393 234.251 233.22 234.122C233.047 233.993 232.929 233.803 232.889 233.59C232.682 232.869 232.555 232.136 232.405 231.409C232.341 231.046 232.301 230.671 232.249 230.302C232.197 229.933 232.116 229.575 232.053 229.206C231.882 228.114 231.623 227.037 231.28 225.986L231.349 225.958Z" fill="#3B2C7D"/>
<path d="M205.474 180.813C204.069 181.418 202.623 181.921 201.147 182.319C199.649 182.692 198.119 182.918 196.578 182.994C193.531 183.265 190.46 183.003 187.503 182.221C185.578 181.744 183.747 180.948 182.085 179.867C181.336 179.372 180.646 178.791 180.032 178.136C179.723 177.802 179.438 177.448 179.178 177.075C179.051 176.885 178.941 176.683 178.826 176.498L178.653 176.198L178.514 175.886C178.012 174.823 177.757 173.659 177.77 172.483C177.769 172.195 177.788 171.908 177.828 171.623C177.848 171.337 177.893 171.053 177.96 170.775L178.157 169.956C178.249 169.69 178.341 169.425 178.457 169.171C178.768 168.536 179.033 168.756 179.351 169.408C179.507 169.804 179.629 170.213 179.714 170.631C179.767 170.872 179.803 171.117 179.824 171.363C179.871 171.618 179.892 171.877 179.887 172.136C179.911 173.037 180.081 173.927 180.389 174.773C180.722 175.597 181.221 176.343 181.855 176.965C183.314 178.287 185.039 179.28 186.914 179.879C189.251 180.727 191.933 180.9 194.507 180.894C195.924 180.896 197.34 180.79 198.741 180.577C199.431 180.469 200.115 180.325 200.789 180.144C201.47 179.925 202.157 179.735 202.82 179.469C204.483 178.857 206.094 178.112 207.637 177.242C209.998 175.953 212.197 174.386 214.185 172.575C215.663 171.173 216.954 169.587 218.028 167.856L218.691 166.702C219.528 165.306 219.845 164.896 220.549 164.81C220.704 164.775 220.863 164.754 221.022 164.746C221.507 164.746 221.599 165.577 221.126 166.858C220.361 168.74 219.276 170.475 217.918 171.986C216.56 173.537 215.051 174.948 213.412 176.198C210.974 178.057 208.325 179.622 205.52 180.86L205.474 180.813Z" fill="#3B2C7D"/>
<path d="M205.166 203.885C205.206 203.377 205.246 202.875 205.304 202.379L205.42 201.467C205.5 200.931 205.575 200.394 205.679 199.858C205.875 198.788 206.096 197.727 206.343 196.673C206.533 195.906 206.66 195.127 206.92 194.365C207.696 191.684 208.75 189.092 210.064 186.629C210.335 186.052 210.675 185.544 210.975 185.008C211.137 184.737 211.275 184.46 211.448 184.206L211.962 183.433C212.193 183.11 212.389 182.763 212.637 182.446L213.393 181.517L213.779 181.062C213.917 180.916 214.063 180.779 214.218 180.652C214.518 180.387 214.829 180.127 215.146 179.885C215.464 179.642 215.723 179.931 215.695 180.496C215.67 180.824 215.592 181.145 215.464 181.448C215.307 181.806 215.103 182.142 214.858 182.446C212.966 184.816 211.399 187.428 210.196 190.212C209.479 191.974 208.925 193.799 208.541 195.663C208.062 197.714 207.692 199.788 207.433 201.877L207.312 202.812L207.277 203.123C207.272 203.177 207.272 203.231 207.277 203.285C207.325 203.291 207.374 203.291 207.421 203.285C207.612 203.244 207.82 203.204 207.998 203.181H208.316C208.462 203.172 208.608 203.172 208.754 203.181C209.068 203.189 209.378 203.242 209.677 203.337C210.016 203.441 210.323 203.627 210.571 203.879C210.701 204.005 210.811 204.149 210.9 204.306C210.987 204.456 211.033 204.571 211.102 204.704C211.342 205.237 211.473 205.813 211.487 206.397C211.502 206.981 211.401 207.563 211.189 208.108C210.859 208.995 210.222 209.736 209.395 210.196C208.946 210.433 208.448 210.559 207.941 210.565C207.429 210.567 206.924 210.453 206.464 210.231C206.08 210.055 205.724 209.824 205.408 209.544C205.003 209.208 204.698 208.767 204.525 208.269C204.483 208.125 204.477 207.973 204.507 207.827C204.537 207.68 204.603 207.542 204.698 207.427C204.778 207.306 204.866 207.193 204.964 207.087C205.321 206.775 205.852 207.087 206.4 207.606C206.739 207.961 207.162 208.225 207.629 208.373C207.784 208.414 207.945 208.422 208.103 208.397C208.261 208.372 208.412 208.315 208.546 208.229C208.866 208.014 209.112 207.706 209.25 207.346C209.408 206.948 209.446 206.513 209.36 206.094C209.328 205.933 209.282 205.774 209.221 205.621L209.112 205.39C209.112 205.39 209.112 205.39 209.112 205.356C209.112 205.321 209.112 205.356 209.025 205.356C208.905 205.32 208.781 205.301 208.656 205.298H208.316H208.143L207.756 205.362C207.275 205.515 206.773 205.591 206.268 205.587C206.176 205.576 206.086 205.551 206.002 205.512C205.94 205.465 205.889 205.406 205.852 205.338L205.731 205.165L205.702 205.119C205.731 205.079 205.431 205.425 205.558 205.275L205.489 205.177C205.24 204.896 205.108 204.531 205.12 204.156V204.017L205.166 203.885Z" fill="#3B2C7D"/>
<path d="M179.304 205.488L179.218 205.373L179.178 205.315L179.131 205.361V205.327L178.999 205.073C178.895 204.903 178.819 204.718 178.774 204.525L178.647 203.89L178.572 203.504L178.376 202.102L178.249 200.706L178.174 199.309C178.174 198.629 178.07 197.954 178.11 197.279C178.229 194.911 178.53 192.556 179.01 190.234C179.201 189.207 179.397 188.181 179.587 187.171C179.82 185.857 180.208 184.575 180.741 183.352C180.914 182.971 181.197 183.127 181.404 183.554C181.671 184.13 181.75 184.776 181.629 185.4C181.11 187.973 180.66 190.534 180.268 193.148C180.08 194.747 180.04 196.359 180.147 197.965C180.173 199.731 180.349 201.491 180.672 203.227C180.69 203.309 180.703 203.391 180.712 203.475L180.747 203.665C180.744 203.7 180.744 203.734 180.747 203.769C180.773 203.788 180.802 203.802 180.833 203.809L181.024 203.861L181.283 203.931L181.722 204.052C182.022 204.143 182.317 204.253 182.604 204.381C183.081 204.591 183.509 204.897 183.862 205.281C184.239 205.699 184.48 206.222 184.554 206.781C184.611 207.29 184.566 207.806 184.422 208.298C184.359 208.531 184.282 208.76 184.191 208.984C184.076 209.247 183.916 209.487 183.718 209.694C183.441 209.984 183.117 210.226 182.76 210.409C182.402 210.607 182.011 210.74 181.606 210.802C180.778 210.926 179.932 210.754 179.218 210.317C178.875 210.118 178.578 209.849 178.347 209.527C178.249 209.37 178.173 209.202 178.122 209.025C178.07 208.882 178.04 208.732 178.035 208.581C178.019 208.353 178.053 208.125 178.133 207.911C178.181 207.786 178.259 207.675 178.359 207.586C178.46 207.498 178.58 207.435 178.71 207.404C178.805 207.369 178.904 207.35 179.004 207.346C179.304 207.346 179.339 207.923 179.697 208.229C179.746 208.283 179.8 208.333 179.858 208.379C179.926 208.412 179.99 208.453 180.049 208.5C180.177 208.591 180.319 208.661 180.47 208.707C180.778 208.816 181.111 208.832 181.428 208.754C181.722 208.669 181.989 208.508 182.201 208.286C182.227 208.258 182.247 208.225 182.258 208.188L182.299 208.05C182.361 207.863 182.404 207.669 182.426 207.473C182.452 207.299 182.428 207.121 182.356 206.959C182.272 206.806 182.146 206.68 181.993 206.596C181.72 206.435 181.429 206.306 181.128 206.209L180.856 206.123L180.441 206.025C180.03 205.964 179.637 205.817 179.287 205.592L179.304 205.488Z" fill="#3B2C7D"/>
<path d="M163.54 221.619C163.263 222.236 162.963 222.842 162.663 223.448C162.548 223.667 162.479 223.904 162.346 224.117C161.894 224.865 161.403 225.589 160.875 226.286C160.754 226.442 160.644 226.604 160.535 226.759L160.183 227.227C159.91 227.656 159.546 228.018 159.115 228.288C158.971 228.363 158.833 228.161 158.758 227.89C158.709 227.762 158.688 227.624 158.697 227.487C158.706 227.349 158.745 227.215 158.81 227.094C159.081 226.736 159.335 226.367 159.594 225.992C159.854 225.617 160.131 225.236 160.425 224.838C160.748 224.35 161.017 223.827 161.227 223.281C161.51 222.704 161.804 222.127 162.052 221.515C162.213 221.146 162.369 220.777 162.508 220.396C162.721 219.819 162.929 219.242 163.085 218.665C163.206 218.209 163.229 217.736 163.327 217.286C163.327 217.183 163.356 217.084 163.379 216.986C163.477 216.617 163.592 216.513 163.892 216.496C163.961 216.49 164.031 216.49 164.1 216.496C164.319 216.496 164.475 216.698 164.504 217.004C164.556 217.454 164.556 217.909 164.504 218.359C164.445 218.811 164.358 219.258 164.244 219.698C164.048 220.344 163.8 220.984 163.552 221.619H163.54Z" fill="#3B2C7D"/>
<path d="M196.415 238.915C196.417 238.004 196.465 237.093 196.559 236.186C196.605 235.852 196.594 235.517 196.652 235.188C196.875 234.02 197.263 232.889 197.805 231.83C197.932 231.6 198.03 231.357 198.152 231.127L198.527 230.44C198.704 230.16 198.897 229.891 199.103 229.632C199.367 229.418 199.646 229.225 199.94 229.055C200.113 228.946 200.228 229.113 200.286 229.396C200.345 229.747 200.345 230.106 200.286 230.457C200.075 230.981 199.833 231.492 199.559 231.986C199.455 232.246 199.323 232.494 199.202 232.753C199.08 233.013 198.971 233.284 198.838 233.55C198.591 234.243 198.461 234.972 198.452 235.707C198.364 236.529 198.331 237.356 198.353 238.182C198.353 238.696 198.388 239.215 198.457 239.728C198.526 240.507 198.656 241.278 198.844 242.036C199.027 242.618 199.255 243.185 199.525 243.732C199.591 243.848 199.647 243.97 199.692 244.096C199.836 244.569 199.692 244.777 199.253 245.025C199.15 245.082 199.046 245.146 198.942 245.192C198.771 245.27 198.578 245.287 198.396 245.241C198.213 245.194 198.052 245.088 197.938 244.938C197.57 244.467 197.282 243.939 197.084 243.375C196.874 242.814 196.717 242.234 196.617 241.644C196.467 240.745 196.379 239.837 196.352 238.927L196.415 238.915Z" fill="#3B2C7D"/>
<path d="M77.5576 111.583C78.1865 111.502 78.8269 111.444 79.4615 111.329C79.698 111.288 79.9115 111.196 80.148 111.161C80.973 111.029 81.8038 110.885 82.6288 110.717C82.9926 110.643 83.3511 110.545 83.7019 110.423C84.1447 110.239 84.614 110.126 85.0923 110.088C85.248 110.088 85.2999 110.319 85.2596 110.602C85.2495 110.748 85.2076 110.891 85.1368 111.019C85.0661 111.148 84.9682 111.259 84.8499 111.346C84.0062 111.836 83.0823 112.172 82.1211 112.338C81.5321 112.478 80.9537 112.659 80.3903 112.881C79.7557 113.065 79.1153 113.233 78.4634 113.377C78.0596 113.469 77.6499 113.533 77.2519 113.619C76.6346 113.74 76.0115 113.821 75.3942 113.942C75.1576 114 74.9211 114.075 74.6846 114.156C74.4467 114.246 74.2016 114.315 73.9519 114.363C73.8438 114.396 73.7341 114.423 73.623 114.444C73.1961 114.444 73.0461 114.317 73.0057 113.763C73.0057 113.636 72.9711 113.51 72.9711 113.383C72.9514 113.208 72.9784 113.032 73.0494 112.872C73.1204 112.712 73.2327 112.573 73.3749 112.471C73.7298 112.281 74.1053 112.132 74.4942 112.027C74.8692 111.946 75.273 111.877 75.648 111.819C76.2249 111.733 76.8711 111.646 77.4942 111.536L77.5576 111.583Z" fill="#3B2C7D"/>
<path d="M116.066 89.74V89.7054C116.066 89.7054 116.066 89.6477 116.003 89.5842C115.921 89.4478 115.831 89.3168 115.732 89.1919C115.525 88.9116 115.3 88.6456 115.057 88.3958C114.54 87.868 113.98 87.3837 113.384 86.9477C112.951 86.6603 112.498 86.4058 112.028 86.1862C111.869 86.0996 111.703 86.0263 111.532 85.9669C111.451 85.9409 111.368 85.9235 111.284 85.915C111.19 85.9068 111.095 85.9068 111.001 85.915C110.651 85.8819 110.297 85.9375 109.974 86.0765C109.244 86.5011 108.683 87.1657 108.388 87.9573C108.047 88.7686 107.801 89.6166 107.655 90.4842C107.413 91.6035 107.315 92.7919 106.686 93.9458C106.478 94.3035 106.109 94.0727 105.82 93.6573C105.43 93.1867 105.225 92.5897 105.243 91.9785C105.372 90.7564 105.608 89.5479 105.947 88.3669C106.144 87.7168 106.407 87.0886 106.732 86.4919C107.092 85.819 107.589 85.2293 108.191 84.7612C108.98 84.1543 109.943 83.8184 110.938 83.8035C111.171 83.7955 111.404 83.8052 111.636 83.8323C111.768 83.8427 111.899 83.862 112.028 83.89C112.147 83.9158 112.265 83.9486 112.38 83.9881C112.79 84.1219 113.186 84.2958 113.563 84.5073C114.322 84.9384 115.041 85.4386 115.709 86.0015C116.39 86.5604 117.01 87.1888 117.561 87.8765C117.713 88.072 117.854 88.2762 117.982 88.4881C118.159 88.7643 118.302 89.0607 118.409 89.3708C118.521 89.6587 118.57 89.9672 118.553 90.2756C118.536 90.584 118.453 90.8853 118.311 91.1592C118.194 91.3088 118.058 91.4426 117.907 91.5573C117.68 91.7099 117.438 91.8394 117.186 91.9438C117.065 92.0015 116.932 92.0592 116.811 92.1054L116.528 92.2092C116.153 92.3419 115.784 92.4573 115.42 92.5727L113.234 93.2592C112.115 93.6169 111.053 94.1015 109.974 94.5169C109.732 94.6092 109.507 94.7246 109.265 94.8054C108.365 95.0996 108.047 95.0188 107.649 94.3958C107.563 94.2573 107.459 94.1246 107.384 93.9862C107.136 93.5131 107.384 92.9362 108.036 92.6073C109.949 91.6615 111.959 90.9246 114.03 90.4092C114.549 90.2592 115.068 90.115 115.559 89.965L115.911 89.8496H115.963C115.969 89.8414 115.973 89.8313 115.973 89.8208C115.973 89.8103 115.969 89.8001 115.963 89.7919L116.066 89.74Z" fill="#3B2C7D"/>
<path d="M115.259 95.1921C114.746 95.3364 114.238 95.4921 113.713 95.6248C113.528 95.6767 113.349 95.7633 113.136 95.8152L111.111 96.2998C110.814 96.3792 110.521 96.4736 110.234 96.5825C109.875 96.7622 109.481 96.8626 109.08 96.8767C108.826 96.8767 108.884 95.8152 109.265 95.6594C109.984 95.3649 110.729 95.1408 111.492 94.9902C111.957 94.8615 112.411 94.6936 112.847 94.4883C113.349 94.3037 113.857 94.1364 114.371 93.9748L115.317 93.6633C115.79 93.5075 116.274 93.3517 116.742 93.1729C117.105 93.0344 117.422 92.7921 117.803 92.6883C117.882 92.6554 117.963 92.6284 118.046 92.6075C118.369 92.5441 118.49 92.6075 118.622 92.8498C118.658 92.9031 118.688 92.959 118.715 93.0171C118.751 93.1192 118.754 93.2302 118.723 93.334C118.692 93.4378 118.628 93.529 118.542 93.594C118.29 93.8527 118.009 94.0811 117.705 94.2748C117.397 94.4433 117.079 94.5936 116.753 94.7248C116.257 94.9094 115.749 95.0652 115.242 95.2383L115.259 95.1921Z" fill="#3B2C7D"/>
<path d="M126.51 129.71C124.291 130.584 121.92 131.009 119.535 130.961C117.086 130.979 114.697 130.202 112.728 128.746C111.291 127.619 110.246 126.069 109.739 124.315C109.358 122.844 109.176 121.329 109.197 119.81C109.214 118.338 109.31 116.869 109.485 115.408L110.022 111.11C110.189 109.69 110.293 108.271 110.351 106.84C110.351 106.263 110.391 105.686 110.397 105.11C110.415 104.544 110.397 103.977 110.345 103.413C110.287 102.836 110.207 102.26 110.097 101.711L109.935 100.852L109.895 100.633C109.895 100.558 109.895 100.494 109.843 100.367L109.745 99.698C109.745 99.6172 109.745 99.5307 109.745 99.4557L109.785 99.2365C109.814 99.173 109.785 99.0865 109.855 99.0403C109.882 98.9666 109.93 98.9025 109.993 98.8557C110.234 98.6811 110.501 98.5449 110.784 98.4518C110.92 98.4005 111.058 98.3562 111.199 98.3192L111.499 98.2326L112.693 97.9095L115.041 97.2634L117.349 96.5884C118.084 96.3656 118.801 96.0879 119.495 95.7576C119.922 95.5845 120.13 95.5211 120.21 95.6249C120.291 95.7288 120.21 95.9999 119.974 96.4442C119.036 97.7148 117.703 98.638 116.184 99.0692C115.168 99.3692 114.153 99.6461 113.155 99.8711L111.695 100.24C111.655 100.24 111.695 100.24 111.666 100.24V100.575L111.753 101.429C111.805 102.006 111.914 102.583 111.96 103.211C112.016 103.825 112.031 104.442 112.007 105.058C112.007 105.635 112.007 106.211 111.949 106.788C111.831 109.133 111.585 111.469 111.21 113.786C110.888 115.77 110.726 117.777 110.726 119.786C110.681 121.734 111.088 123.665 111.914 125.429C112.43 126.331 113.124 127.118 113.956 127.741C114.788 128.365 115.738 128.811 116.749 129.052C118.856 129.589 121.063 129.589 123.17 129.052C125.798 128.48 128.222 127.204 130.18 125.36C131.645 124 132.628 122.199 132.978 120.231C133.219 118.247 132.814 116.238 131.824 114.502C130.341 111.71 128.114 109.419 126.124 106.846C125.685 106.269 125.241 105.721 124.832 105.115C123.378 102.773 123.36 101.717 123.637 101.077C123.689 100.927 123.718 100.736 123.759 100.65C123.799 100.563 123.995 100.679 124.335 101.054C124.79 101.596 125.199 102.175 125.559 102.785C126.332 103.938 127.185 105.029 128.097 106.154C129.009 107.279 129.972 108.404 130.912 109.615C131.897 110.851 132.765 112.176 133.503 113.573C134.313 115.071 134.803 116.721 134.939 118.419C135.017 119.722 134.836 121.028 134.409 122.261C133.975 123.471 133.332 124.596 132.51 125.585C130.888 127.447 128.834 128.883 126.528 129.767L126.51 129.71Z" fill="#3B2C7D"/>
<path d="M87.891 152.573C85.2261 153.221 82.459 153.332 79.7506 152.902C76.9567 152.545 74.3545 151.29 72.3371 149.325C70.8726 147.822 69.9196 145.896 69.614 143.821C69.4121 142.094 69.4392 140.348 69.6948 138.628C69.9351 136.953 70.2722 135.292 70.7044 133.655L71.9737 128.832C72.3833 127.24 72.7236 125.63 73.0179 124.009C73.1333 123.352 73.2371 122.688 73.3352 122.025C73.4472 121.382 73.5147 120.732 73.5371 120.08C73.5371 119.428 73.5371 118.771 73.5371 118.102L73.4852 117.086V116.832C73.4852 116.74 73.4852 116.682 73.4852 116.532C73.4852 116.273 73.4852 116.019 73.4852 115.753C73.4903 115.66 73.5019 115.568 73.5198 115.477L73.5948 115.24C73.616 115.16 73.647 115.082 73.6871 115.009C73.7297 114.934 73.7842 114.865 73.8487 114.807C74.4202 114.544 75.0332 114.382 75.6602 114.328L77.0736 114.144C78.0025 114.028 78.9313 113.907 79.8486 113.775L82.5717 113.359C83.4455 113.218 84.3076 113.012 85.1506 112.742C85.6698 112.609 85.9121 112.563 85.9871 112.69C86.0621 112.817 85.9467 113.123 85.589 113.584C84.8737 114.49 83.0563 115.592 80.8583 115.973C79.6525 116.157 78.4583 116.29 77.2813 116.417C76.7044 116.48 76.1275 116.538 75.5506 116.613H75.4987V117.011L75.464 117.998C75.464 118.667 75.464 119.359 75.4294 120.063C75.3982 120.771 75.3211 121.477 75.1986 122.175C75.0948 122.838 74.9852 123.507 74.8583 124.171C74.616 125.498 74.3333 126.823 74.0102 128.146C73.6756 129.467 73.3063 130.759 72.9371 132.04C72.2649 134.255 71.771 136.52 71.4602 138.813C71.1056 141.03 71.2695 143.299 71.939 145.442C72.3883 146.553 73.061 147.56 73.9154 148.401C74.7699 149.241 75.7879 149.898 76.9063 150.328C79.226 151.272 81.7445 151.621 84.2333 151.344C87.3215 151.097 90.2847 150.017 92.8063 148.217C94.725 146.929 96.1305 145.008 96.7779 142.79C97.4253 140.572 97.2734 138.196 96.3487 136.078C95.091 132.663 92.8871 129.703 91.0294 126.461C90.6198 125.74 90.1987 125.036 89.8352 124.269C88.5313 121.384 88.6813 120.173 89.0852 119.452C89.1717 119.284 89.2294 119.077 89.2871 118.978C89.3448 118.88 89.5467 119.048 89.864 119.555C90.2974 120.251 90.6736 120.98 90.989 121.736C91.6929 123.144 92.489 124.546 93.3602 125.971C94.2313 127.396 95.1487 128.855 96.0313 130.361C96.9632 131.921 97.7473 133.565 98.3736 135.271C99.0693 137.111 99.372 139.076 99.2621 141.04C99.1487 142.536 98.7409 143.995 98.0621 145.332C97.3836 146.635 96.4792 147.807 95.391 148.794C93.2569 150.668 90.6954 151.989 87.9313 152.642L87.891 152.573Z" fill="#3B2C7D"/>
<path d="M117.638 118.056C117.392 118.847 117.241 119.664 117.188 120.49C117.188 120.692 117.188 120.888 117.188 121.067C117.181 121.161 117.181 121.256 117.188 121.35C117.188 121.442 117.216 121.54 117.188 121.529C117.188 121.61 117.245 121.737 117.361 121.713C117.389 121.722 117.419 121.722 117.447 121.713C117.484 121.693 117.512 121.66 117.528 121.621C117.544 121.603 117.556 121.581 117.563 121.558L117.626 121.379C117.711 121.086 117.773 120.787 117.811 120.485C117.945 119.306 117.96 118.118 117.857 116.937C117.77 115.731 117.62 114.519 117.424 113.313C117.242 112.247 117.002 111.192 116.703 110.152C116.282 108.848 115.959 107.492 115.428 106.275C115.249 105.923 115.393 105.842 115.768 106.056C116.322 106.437 116.763 106.961 117.043 107.573C117.193 107.908 117.343 108.248 117.482 108.583C117.62 108.917 117.713 109.275 117.816 109.627C118.018 110.325 118.197 111.023 118.353 111.733C118.669 113.152 118.881 114.592 118.988 116.042C119.045 116.913 119.12 117.802 119.143 118.708C119.202 119.644 119.131 120.584 118.93 121.5C118.893 121.66 118.843 121.816 118.78 121.967C118.745 122.065 118.703 122.159 118.653 122.25L118.463 122.533C118.338 122.711 118.177 122.861 117.99 122.971C117.803 123.082 117.594 123.151 117.378 123.173C117.123 123.209 116.863 123.158 116.639 123.029C116.423 122.884 116.248 122.685 116.132 122.452C116.074 122.331 116.026 122.205 115.988 122.077C115.948 121.954 115.917 121.829 115.895 121.702C115.867 121.511 115.85 121.318 115.843 121.125C115.831 120.398 115.904 119.672 116.063 118.962C116.301 117.737 116.756 116.564 117.407 115.5C117.668 115.079 118.002 114.708 118.393 114.404C118.602 114.236 118.838 114.105 119.091 114.017C119.339 113.954 119.582 113.908 119.83 113.856C120.83 113.772 121.826 114.06 122.628 114.663C123.831 115.53 124.792 116.69 125.42 118.033C125.564 118.334 125.684 118.647 125.778 118.967C125.818 119.123 125.853 119.262 125.882 119.394C125.911 119.527 125.911 119.66 125.916 119.775C125.939 119.969 125.921 120.165 125.864 120.352C125.841 120.489 125.778 120.616 125.684 120.719C125.59 120.821 125.468 120.894 125.334 120.929C125.227 120.972 125.114 120.993 124.999 120.992C124.91 120.977 124.826 120.939 124.756 120.881C124.686 120.823 124.633 120.748 124.601 120.663C124.553 120.564 124.511 120.462 124.474 120.358C124.434 120.237 124.416 120.104 124.364 119.931C124.233 119.411 124.039 118.91 123.788 118.437C123.542 117.935 123.258 117.453 122.939 116.994C122.293 116.1 121.451 115.298 120.516 115.125C120.344 115.1 120.171 115.087 119.997 115.085L119.472 115.171C119.167 115.284 118.902 115.485 118.711 115.748C118.21 116.446 117.839 117.227 117.614 118.056H117.638Z" fill="#3B2C7D"/>
<path d="M36.6077 89.7518C36.7178 89.1085 36.926 88.4858 37.225 87.9056C37.502 87.3497 37.8386 86.8254 38.2289 86.3422C38.5177 85.963 38.8552 85.6236 39.2327 85.3326C39.6023 85.0394 40.0381 84.8413 40.5019 84.7556C40.7241 84.7302 40.9476 84.7186 41.1712 84.721C41.3939 84.742 41.6154 84.7747 41.8346 84.8191C42.6409 85.0727 43.3459 85.5757 43.8481 86.2556C44.2694 86.779 44.6549 87.3303 45.0019 87.9056C45.4251 88.5818 45.8103 89.2809 46.1558 89.9999C46.2596 90.2076 46.0577 90.3633 45.7173 90.3402C45.4971 90.3232 45.2832 90.258 45.0908 90.1494C44.8984 90.0407 44.7322 89.8912 44.6039 89.7114C44.1712 89.0306 43.7327 88.3556 43.2943 87.6749C42.931 87.0823 42.4427 86.5763 41.8635 86.1922C41.5207 86.0158 41.1288 85.959 40.75 86.0306C40.3751 86.148 40.0372 86.3607 39.7693 86.6479C39.041 87.3833 38.4939 88.278 38.1712 89.2614C38.1246 89.4092 38.0861 89.5594 38.0558 89.7114C38.0305 89.8313 38.0132 89.9527 38.0039 90.0749C38.0039 90.2306 38.0039 90.4729 38.2116 90.5076C38.6474 90.5663 39.0876 90.5856 39.5269 90.5652C40.0462 90.5652 40.5654 90.5306 41.0846 90.4902C41.8923 90.4268 42.6769 90.2595 43.4731 90.1268C43.6462 90.0979 43.8193 90.0576 43.9981 90.0345C44.6558 89.9595 44.8923 90.0345 45.0539 90.4787C45.0936 90.573 45.1282 90.6692 45.1577 90.7672C45.2212 91.0845 44.9846 91.3787 44.5116 91.4999C43.0504 91.8744 41.5488 92.0682 40.0404 92.0768C39.7462 92.0768 39.4635 92.0768 39.1577 92.0768H38.7077H38.4769L38.1077 92.0364C37.8507 92 37.6013 91.9221 37.3692 91.8056C37.1228 91.7044 36.9189 91.5209 36.7923 91.2864C36.6638 91.0528 36.5834 90.7958 36.5558 90.5306C36.5558 90.3922 36.5269 90.2595 36.5558 90.121C36.5491 90.0077 36.5491 89.894 36.5558 89.7806L36.6077 89.7518Z" fill="#3B2C7D"/>
<path d="M40.01 92.7862C40.4715 92.7862 40.933 92.7458 41.4004 92.74C41.5677 92.74 41.735 92.6939 41.9023 92.6939C42.4792 92.6939 43.108 92.6939 43.7023 92.6939C43.9671 92.6796 44.231 92.6507 44.4927 92.6073C44.8256 92.5197 45.1725 92.4981 45.5138 92.5439C45.7273 92.59 45.5138 93.5131 45.1677 93.5939C44.4994 93.7275 43.8182 93.7856 43.1369 93.7669C42.7158 93.7822 42.2969 93.8343 41.885 93.9227C41.4234 93.9804 40.9619 94.015 40.4946 94.0496L39.635 94.1131C39.2023 94.1535 38.7638 94.1823 38.3369 94.24C38.0023 94.2804 37.685 94.4304 37.3446 94.4419C37.2754 94.4419 37.2003 94.4419 37.1253 94.4419C37.0742 94.4501 37.0219 94.4481 36.9715 94.436C36.9211 94.4239 36.8736 94.4019 36.8318 94.3713C36.79 94.3407 36.7546 94.3022 36.7277 94.2579C36.7009 94.2135 36.6831 94.1643 36.6754 94.1131C36.6754 94.0612 36.6407 94.0035 36.6292 93.9516C36.6163 93.8583 36.6333 93.7633 36.6779 93.6803C36.7225 93.5974 36.7923 93.5307 36.8773 93.49C37.1407 93.3108 37.4256 93.1654 37.7254 93.0573C38.0299 92.9751 38.3405 92.9172 38.6542 92.8842C39.11 92.8266 39.5715 92.8035 40.033 92.7573L40.01 92.7862Z" fill="#3B2C7D"/>
<path d="M40.1453 123.559C41.9638 123.883 43.8323 123.789 45.6087 123.282C47.3615 122.82 48.9079 121.782 49.9991 120.334C50.3671 119.806 50.6476 119.221 50.8299 118.603C50.9978 117.98 51.0907 117.339 51.1068 116.694C51.1414 114.352 50.3395 111.963 49.4395 109.655C48.5395 107.348 47.4491 105.04 46.6645 102.594C46.3472 101.63 46.0356 100.707 45.7529 99.7092C45.6295 99.2051 45.5332 98.6948 45.4645 98.1804L45.3491 97.4535L45.2568 96.9689L45.2222 96.8015C45.2222 96.7438 45.1241 96.7554 45.0779 96.7496C44.9915 96.7438 44.9048 96.7438 44.8183 96.7496L44.3337 96.7842L43.2722 96.865C42.5568 96.9169 41.8356 96.9688 41.1145 96.9919C40.3834 97.0332 39.6501 97.0139 38.9222 96.9342C38.1636 96.885 37.4167 96.7216 36.7068 96.4496C36.2568 96.2246 36.1299 96.0112 36.1818 95.9304C36.2337 95.8496 36.5049 95.8323 36.9029 95.7515C37.301 95.6708 37.8145 95.59 38.4318 95.4804C38.7433 95.4285 39.0722 95.3765 39.4299 95.3304L40.0068 95.2554H40.5837C41.4779 95.2554 42.3779 95.1862 43.301 95.1342C43.7626 95.1342 44.2241 95.0765 44.7087 95.0708C45.1269 95.0601 45.5445 95.1087 45.9491 95.215C46.0445 95.2503 46.137 95.2927 46.226 95.3419C46.226 95.3823 46.2953 95.4169 46.3241 95.4573V95.4919C46.3241 95.5208 46.3645 95.4515 46.3587 95.4573L46.3991 95.515C46.5326 95.6614 46.6295 95.8374 46.6818 96.0285L46.7914 96.7727L46.8318 97.24L46.8895 97.9958C46.9326 98.4543 47.0078 98.9093 47.1145 99.3573C47.2183 99.7785 47.3741 100.269 47.5126 100.736L47.9626 102.144C48.5395 104.019 49.2953 105.825 50.051 107.7C50.7639 109.376 51.3898 111.088 51.926 112.828C52.5171 114.653 52.644 116.596 52.2953 118.482C52.0522 119.534 51.5794 120.519 50.9106 121.367C50.2437 122.209 49.4259 122.919 48.4991 123.461C46.6908 124.473 44.6679 125.041 42.5972 125.117C40.0549 125.248 37.5268 124.664 35.2991 123.432C33.588 122.466 32.2329 120.976 31.4337 119.18C30.729 117.365 30.5745 115.383 30.9895 113.48C31.526 110.596 32.6106 107.977 33.4356 105.34C33.6145 104.763 33.7645 104.186 33.9203 103.609C34.2318 102.542 34.3818 101.844 34.526 101.353C34.5962 101.157 34.6771 100.964 34.7683 100.777C34.8722 100.615 34.9645 100.482 35.051 100.361C35.1376 100.24 35.201 100.102 35.2587 100.032C35.3164 99.9631 35.4433 100.09 35.6279 100.528C35.8377 101.19 35.891 101.891 35.7837 102.577C35.6284 103.888 35.3365 105.18 34.9126 106.43C34.5203 107.677 34.076 108.9 33.6722 110.117C32.8703 112.528 32.126 114.998 32.5183 117.253C32.8743 118.926 33.8256 120.412 35.1953 121.436C36.6406 122.539 38.3415 123.257 40.1395 123.525L40.1453 123.559Z" fill="#3B2C7D"/>
<path d="M81.1387 136.863C80.269 137.351 79.5489 138.067 79.056 138.934C78.8146 139.312 78.6595 139.739 78.6016 140.184C78.5438 140.628 78.5847 141.08 78.7214 141.508L78.8079 141.721L78.8541 141.796C78.8806 141.839 78.9137 141.878 78.9522 141.911C78.9679 141.931 78.9884 141.946 79.0116 141.955C79.0349 141.964 79.0601 141.967 79.0848 141.963C79.1297 141.944 79.1664 141.909 79.1887 141.865C79.2723 141.729 79.3291 141.578 79.356 141.421C79.4483 141.098 79.5175 140.752 79.581 140.406C79.7079 139.708 79.7945 138.992 79.8637 138.271C79.9775 136.824 80.0044 135.371 79.9445 133.921C79.8941 132.629 79.7766 131.341 79.5925 130.061C79.3675 128.429 78.981 126.819 78.7214 125.186C78.6406 124.679 78.8079 124.702 79.1079 125.077C79.5833 125.679 79.9166 126.381 80.0829 127.131C80.8762 130.495 81.2196 133.951 81.1041 137.406C81.0406 138.461 80.9772 139.506 80.8445 140.59C80.8099 140.856 80.7695 141.127 80.7175 141.404C80.6627 141.717 80.5895 142.028 80.4983 142.333C80.4003 142.733 80.2017 143.103 79.9214 143.406C79.7903 143.533 79.6327 143.629 79.4598 143.688C79.2711 143.74 79.0717 143.74 78.8829 143.688C78.6869 143.623 78.5049 143.521 78.3464 143.388C78.1906 143.221 78.0233 143.077 77.8848 142.898C77.7493 142.713 77.6241 142.52 77.5099 142.321C77.4257 142.168 77.3543 142.007 77.2964 141.842C77.0663 141.186 77.0204 140.48 77.1637 139.8C77.4498 138.547 78.1097 137.41 79.056 136.54C80.1488 135.426 81.5903 134.719 83.1406 134.538C83.7521 134.486 84.3678 134.564 84.9464 134.769C85.5183 134.98 86.0421 135.304 86.4868 135.721C87.3238 136.533 87.9736 137.517 88.3906 138.606C88.6655 139.271 88.8705 139.963 89.0022 140.671C89.0837 141.05 89.1262 141.437 89.1291 141.825C89.1358 142.097 89.0826 142.366 88.9733 142.615C88.8634 142.845 88.6809 143.031 88.4541 143.146C88.2079 143.257 87.9313 143.282 87.6695 143.215H88.0733C87.9246 143.243 87.7743 143.263 87.6233 143.273C87.48 143.262 87.3375 143.243 87.1964 143.215L86.8329 143.077C86.7291 143.026 86.6289 142.968 86.5329 142.904C86.1453 142.646 85.8136 142.312 85.5579 141.923C84.7387 140.579 84.9175 139.927 85.3502 139.54C85.4413 139.448 85.5516 139.377 85.6733 139.333C85.7613 139.315 85.8526 139.327 85.9329 139.367C86.0254 139.408 86.111 139.462 86.1868 139.529C86.4336 139.752 86.6456 140.01 86.8156 140.296C87.0111 140.607 87.2501 140.889 87.5252 141.133C87.6053 141.202 87.6946 141.26 87.7906 141.306L87.7618 141.369C87.7457 141.412 87.7322 141.457 87.7214 141.502C87.7191 141.521 87.7191 141.54 87.7214 141.559C87.7182 141.584 87.7182 141.61 87.7214 141.634V141.675L88.0733 141.906C88.0485 141.954 88.0328 142.007 88.0272 142.061C88.0272 142.119 88.0272 142.194 88.0272 142.177C88.012 142.141 87.9857 142.11 87.9522 142.09C87.9522 142.09 87.8656 142.027 87.7964 141.986C87.7267 141.95 87.6532 141.921 87.5772 141.9C87.4712 141.853 87.3611 141.816 87.2483 141.79H87.1675C87.1778 141.637 87.1778 141.482 87.1675 141.329C87.1278 140.89 87.0565 140.454 86.9541 140.025C86.7455 139.159 86.367 138.343 85.8406 137.625C85.5796 137.265 85.262 136.949 84.9002 136.69C84.5767 136.462 84.2025 136.315 83.8098 136.263C82.888 136.186 81.9666 136.417 81.1906 136.921L81.1387 136.863Z" fill="#3B2C7D"/>
<path d="M39.3239 113.077C38.9071 113.645 38.5712 114.268 38.3258 114.929C38.2039 115.257 38.1037 115.592 38.0258 115.933C37.9912 116.106 37.9681 116.267 37.945 116.435V116.492V116.596C37.9426 116.63 37.9476 116.664 37.9595 116.696C37.9715 116.728 37.9901 116.757 38.0143 116.781C38.0387 116.803 38.0706 116.815 38.1037 116.815C38.1368 116.815 38.1687 116.803 38.1931 116.781C38.2417 116.744 38.2811 116.697 38.3085 116.642V116.602L38.3431 116.515C38.3893 116.412 38.4297 116.308 38.47 116.198C38.6304 115.745 38.7634 115.283 38.8681 114.813C39.0861 113.861 39.2536 112.899 39.37 111.929C39.4508 111.065 39.4508 110.196 39.37 109.333C39.272 108.225 39.0816 107.117 38.9374 106.004C38.8912 105.652 38.995 105.681 39.1566 105.952C39.4098 106.395 39.5945 106.873 39.7047 107.371C39.968 108.508 40.1282 109.667 40.1835 110.833C40.2094 111.427 40.192 112.023 40.1316 112.615C40.0624 113.192 39.9758 113.769 39.872 114.346C39.7393 115.038 39.6124 115.754 39.4162 116.475L39.3354 116.746L39.22 117.081C39.115 117.352 38.9775 117.61 38.8104 117.848C38.6684 118.06 38.468 118.226 38.2335 118.327C38.125 118.381 38.0079 118.417 37.8874 118.431C37.7631 118.432 37.6392 118.418 37.5181 118.39C37.2648 118.268 37.0513 118.076 36.9023 117.837C36.7533 117.598 36.6748 117.322 36.6758 117.04C36.6445 116.757 36.6445 116.47 36.6758 116.187C36.7006 115.974 36.7411 115.764 36.797 115.558C36.9961 114.747 37.313 113.969 37.7374 113.25C37.9887 112.805 38.2886 112.389 38.6316 112.01C38.9861 111.602 39.4305 111.282 39.9297 111.075C40.294 110.91 40.6846 110.81 41.0835 110.781C41.5216 110.756 41.9568 110.867 42.3297 111.098C43.019 111.576 43.5256 112.273 43.7662 113.077C44.1244 114.161 44.3851 115.275 44.545 116.406C44.5797 116.648 44.6258 116.89 44.6547 117.133C44.7124 118.044 44.6547 118.321 44.3662 118.552C44.3078 118.607 44.2461 118.659 44.1816 118.708C43.9797 118.829 43.7027 118.465 43.5527 117.802C43.3104 116.821 43.2181 115.829 43.0162 114.871C42.9082 113.974 42.6006 113.113 42.1162 112.35C41.9787 112.173 41.7889 112.044 41.5739 111.981C41.3256 111.925 41.0672 111.935 40.8239 112.01C40.6697 112.049 40.5192 112.101 40.3739 112.165C40.2452 112.213 40.126 112.283 40.022 112.373C39.7659 112.574 39.5404 112.811 39.3527 113.077H39.3239Z" fill="#3B2C7D"/>
<path d="M86.6021 74.0307C85.9746 76.0644 84.9814 77.9667 83.6714 79.6441C83.4579 79.9614 83.1925 80.221 82.9617 80.5384C82.7316 80.8433 82.479 81.1306 82.206 81.398C81.2764 82.2249 80.3997 83.1093 79.581 84.046C78.8245 84.9764 78.219 86.0199 77.7867 87.1383C77.401 88.1315 77.2053 89.1883 77.2098 90.2537C77.2783 91.6236 77.5147 92.9799 77.9137 94.2922C78.0117 94.7134 77.6714 94.8172 77.2041 94.5864C76.9153 94.4424 76.6553 94.2469 76.4367 94.0095C76.1759 93.6845 75.98 93.3124 75.8598 92.9134C75.435 91.3367 75.366 89.6853 75.6579 88.0787C75.9765 86.4847 76.6597 84.9859 77.6541 83.6999C78.2328 82.9356 78.851 82.2019 79.506 81.5018L80.0079 80.9884L80.4579 80.5153C80.7521 80.198 81.0694 79.8922 81.3348 79.5518C82.5948 78.1288 83.5929 76.494 84.2829 74.723L84.5829 73.898L84.8079 73.0499C84.9505 72.48 85.0584 71.902 85.131 71.3191C85.3423 69.5407 85.2309 67.7387 84.8021 65.9999C84.756 65.8268 84.7214 65.6595 84.6752 65.4922L84.4964 65.0076C84.381 64.6845 84.2598 64.3614 84.1271 64.0441L83.6771 63.121L83.4694 62.6537L83.2271 62.2037C83.0887 61.9326 82.9387 61.6845 82.806 61.4076C82.281 60.4153 82.229 60.023 82.5521 59.5557C82.6159 59.4451 82.6872 59.3391 82.7656 59.2384C83.0252 58.9441 83.5444 59.198 84.1271 59.8903C84.9818 60.9692 85.6719 62.1688 86.1752 63.4499C86.6819 64.7928 87.0173 66.1942 87.1733 67.621C87.4156 69.7832 87.2353 71.9719 86.6425 74.0653L86.6021 74.0307Z" fill="#3B2C7D"/>
<path d="M114.465 66.6574C114.182 67.7993 113.782 68.909 113.271 69.9689C113.098 70.3439 112.977 70.7362 112.792 71.1227C112.093 72.3237 111.476 73.5708 110.946 74.8554C110.744 75.4133 110.616 75.9952 110.565 76.5862C110.542 77.3196 110.565 78.0538 110.634 78.7843C110.634 79.0151 110.334 79.0958 109.971 78.9631C109.754 78.8914 109.557 78.771 109.394 78.6112C109.227 78.4242 109.115 78.1945 109.071 77.9478C108.886 76.168 109.244 74.374 110.098 72.8016C110.559 71.8958 110.865 70.9151 111.252 70.0035C111.711 69.0456 112.096 68.0543 112.406 67.0381C112.585 66.434 112.69 65.8101 112.717 65.1804C112.762 64.2419 112.563 63.3078 112.14 62.4689C111.775 61.8396 111.3 61.2808 110.738 60.8189C110.617 60.7093 110.49 60.617 110.375 60.5016C109.959 60.0689 109.936 59.7978 110.075 59.4228C110.098 59.3336 110.129 59.2467 110.167 59.1631C110.294 58.9093 110.658 58.8862 111.165 59.0708C111.352 59.1339 111.528 59.2275 111.684 59.3478C111.852 59.4574 112.013 59.5728 112.175 59.6881C112.494 59.9497 112.79 60.2393 113.058 60.5535C113.631 61.2187 114.07 61.9887 114.35 62.8208C114.546 63.4584 114.649 64.1211 114.656 64.7881C114.656 65.4273 114.595 66.0649 114.471 66.692L114.465 66.6574Z" fill="#3B2C7D"/>
<path d="M48.5277 67.921C48.024 69.0226 47.2549 69.982 46.2892 70.7133C45.9719 70.9902 45.6373 71.2325 45.3027 71.4748C44.1394 72.1864 43.153 73.1531 42.4181 74.3017C42.0605 74.8886 41.8251 75.5417 41.726 76.2218C41.6268 76.9018 41.666 77.5949 41.8411 78.2594C41.8988 78.4902 41.8065 78.496 41.6508 78.3229C41.4029 78.0324 41.2463 77.6751 41.2008 77.296C41.0983 76.4281 41.2112 75.5483 41.5296 74.7344C41.8364 73.9293 42.2837 73.185 42.8508 72.5364C43.1911 72.1498 43.5431 71.7633 43.9238 71.3825C44.1142 71.1979 44.3104 71.0248 44.5008 70.8575L45.0777 70.3729C45.8871 69.7245 46.5814 68.9444 47.1315 68.0652C47.4433 67.5178 47.6506 66.9172 47.7431 66.2941C47.8801 65.3037 47.9014 64.3008 47.8065 63.3056C47.7604 62.5152 47.6104 61.7421 47.5642 60.946C47.5497 60.7713 47.5497 60.5957 47.5642 60.421C47.6219 59.7691 47.7258 59.5556 47.9681 59.4229C48.016 59.3859 48.0683 59.3549 48.1238 59.3306C48.2969 59.2671 48.4585 59.5325 48.5969 59.9998C48.8079 60.6864 48.9528 61.3915 49.0296 62.1056C49.1421 62.8467 49.2038 63.5946 49.2142 64.3441C49.271 65.5634 49.0745 66.7813 48.6373 67.921H48.5277Z" fill="#3B2C7D"/>
<path d="M45.1279 60.8885C44.7356 60.8885 44.3491 60.8885 43.9741 60.8885C43.8299 60.8885 43.6914 60.8885 43.5472 60.8885C43.0387 60.8459 42.5337 60.7688 42.0356 60.6577C41.8164 60.6173 41.5972 60.5827 41.3722 60.5597C41.0794 60.5541 40.7932 60.4726 40.5414 60.3231C40.3972 60.2135 40.8933 59.4116 41.1587 59.4693C41.6606 59.5731 42.151 59.6712 42.6818 59.827C43.0068 59.8889 43.339 59.9044 43.6683 59.8731C44.0318 59.8731 44.4068 59.8731 44.7818 59.8731L45.4741 59.8327C45.826 59.8327 46.1779 59.775 46.5299 59.7347C46.8818 59.6943 47.0606 59.625 47.3318 59.5847H47.5106C47.7356 59.5847 47.8106 59.6308 47.8799 59.827C47.896 59.8703 47.9095 59.9147 47.9202 59.9597C47.9351 60.0345 47.9244 60.1121 47.8899 60.1801C47.8554 60.2481 47.799 60.3025 47.7299 60.3347C47.4991 60.4558 47.2683 60.5712 47.0318 60.6693C46.802 60.7839 46.5541 60.8581 46.2991 60.8885C45.9183 60.9289 45.5318 60.9462 45.1453 60.9693L45.1279 60.8885Z" fill="#3B2C7D"/>
<path d="M116.709 57.5076C116.207 57.5076 115.705 57.5537 115.214 57.6114C115.03 57.6114 114.863 57.698 114.684 57.721C114.049 57.7783 113.419 57.8766 112.797 58.0153C112.527 58.087 112.265 58.1896 112.018 58.321C111.724 58.5299 111.39 58.6771 111.038 58.7537C110.795 58.7537 110.432 57.5018 110.841 57.2653C111.551 56.8695 112.339 56.6333 113.149 56.573C113.624 56.4932 114.094 56.3873 114.557 56.2557C115.076 56.1576 115.595 56.0941 116.109 56.0364L117.061 55.9614C117.539 55.9268 118.024 55.9153 118.491 55.8403C118.855 55.7826 119.201 55.6499 119.553 55.5576C119.63 55.5329 119.709 55.5136 119.789 55.4999C120.084 55.471 120.193 55.546 120.303 55.8345L120.378 56.0307C120.411 56.1387 120.406 56.2548 120.364 56.3597C120.322 56.4646 120.246 56.5521 120.147 56.6076C119.55 56.9668 118.894 57.215 118.209 57.3403C117.718 57.4635 117.219 57.5446 116.714 57.5826L116.709 57.5076Z" fill="#3B2C7D"/>
<path d="M78.2665 60.1327C78.8598 60.2047 79.4573 60.2356 80.0549 60.225C80.2799 60.225 80.4934 60.15 80.7184 60.1384C81.5327 60.0848 82.3423 59.975 83.1415 59.8096C83.4991 59.7231 83.8511 59.6192 84.203 59.5096C84.6491 59.3311 85.12 59.2222 85.5991 59.1865C85.7549 59.1865 85.8011 59.4058 85.7607 59.6711C85.7464 59.8159 85.7033 59.9562 85.6339 60.0841C85.5646 60.2119 85.4704 60.3245 85.3568 60.4154C84.937 60.6643 84.5036 60.8896 84.0588 61.0904C83.5841 61.2461 83.0952 61.3543 82.5991 61.4134C82.0222 61.4769 81.4453 61.7308 80.7991 61.8404C80.1173 61.9607 79.4261 62.0206 78.7338 62.0192C78.3035 62.0097 77.874 61.977 77.4472 61.9211C77.1244 61.8883 76.8044 61.8324 76.4895 61.7538C76.1722 61.6904 75.8549 61.6269 75.5434 61.5346C75.0588 61.425 74.5684 61.3269 74.0722 61.1942C73.9652 61.168 73.8636 61.1231 73.7722 61.0615C73.7005 61.029 73.6361 60.9821 73.5832 60.9237C73.5302 60.8653 73.4898 60.7967 73.4644 60.7221C73.439 60.6475 73.4291 60.5685 73.4354 60.4899C73.4418 60.4114 73.4641 60.335 73.5011 60.2654C73.522 60.1827 73.549 60.1017 73.5818 60.0231C73.6458 59.898 73.7422 59.7924 73.861 59.7173C73.9797 59.6422 74.1164 59.6004 74.2568 59.5961H74.5914C74.6914 59.5902 74.7915 59.5902 74.8914 59.5961C75.0934 59.5961 75.2838 59.6308 75.4684 59.6596C75.653 59.6885 75.8491 59.7 76.0453 59.7346C76.2414 59.7692 76.403 59.8269 76.6222 59.85C76.8415 59.8731 77.1645 59.9711 77.4472 60C77.7317 60.0465 78.0188 60.0754 78.3068 60.0865L78.2665 60.1327Z" fill="#3B2C7D"/>
<path d="M75.6232 102.011C74.7043 103.137 74.1063 104.491 73.8924 105.929C73.8246 106.458 73.8052 106.993 73.8347 107.527C73.8347 107.74 73.8347 107.936 73.8693 108.138L73.9097 108.409C73.9097 108.467 73.9097 108.49 73.9097 108.53C73.9149 108.597 73.942 108.661 73.9868 108.711C74.0317 108.761 74.0918 108.795 74.1578 108.807C74.2306 108.817 74.3043 108.817 74.377 108.807C74.5532 108.794 74.7285 108.771 74.902 108.738C75.6463 108.605 76.454 108.38 77.279 108.161C78.236 107.915 79.2097 107.74 80.1924 107.636C81.3672 107.486 82.5546 107.461 83.7347 107.561C84.0174 107.561 84.1732 107.85 83.9309 108.311C83.7668 108.576 83.5533 108.807 83.302 108.992C83.1617 109.105 83.0088 109.202 82.8463 109.28C82.6818 109.346 82.509 109.389 82.3328 109.407C81.0867 109.534 79.9501 109.644 78.8713 109.823C77.7924 110.002 76.6386 110.4 75.2886 110.59C75.052 110.619 74.8616 110.654 74.5732 110.677C74.4043 110.691 74.2344 110.691 74.0655 110.677C73.9007 110.677 73.7362 110.659 73.5751 110.625C73.2525 110.567 72.9493 110.43 72.6924 110.227C72.5701 110.119 72.4633 109.995 72.3751 109.857C72.329 109.788 72.2886 109.719 72.2424 109.655L72.1328 109.43L71.9886 109.009C71.9886 108.934 71.954 108.871 71.9367 108.802L71.902 108.646C71.8585 108.44 71.8258 108.232 71.804 108.023C71.7639 107.624 71.7523 107.223 71.7693 106.823C71.8611 105 72.4064 103.229 73.3559 101.671C73.6601 101.186 74.0182 100.737 74.4232 100.332C74.8581 99.8618 75.4187 99.5255 76.0386 99.3631C76.9613 99.1869 77.9165 99.3574 78.7213 99.842C79.4412 100.25 80.1127 100.737 80.7232 101.296C81.6536 102.103 82.5322 102.968 83.354 103.886C83.5328 104.094 83.7174 104.284 83.8847 104.504C84.502 105.317 84.4963 105.721 84.1963 106.136C84.133 106.234 84.0616 106.327 83.9828 106.413C83.7117 106.667 83.2617 106.482 82.7655 105.998C82.0732 105.248 81.3693 104.469 80.6367 103.742C79.9366 103.021 79.1632 102.375 78.329 101.815C77.8691 101.482 77.326 101.282 76.7597 101.238C76.5779 101.239 76.4 101.291 76.2463 101.388C76.0184 101.553 75.8129 101.747 75.6347 101.965L75.6232 102.011Z" fill="#3B2C7D"/>
<path d="M181.208 87.2478C181.403 87.6919 181.467 88.1822 181.393 88.6613C181.342 89.0124 181.231 89.352 181.064 89.6651C181.006 89.7748 180.966 89.8901 180.914 90.0055C180.855 90.1373 180.777 90.2598 180.683 90.369C180.59 90.4779 180.483 90.5748 180.366 90.6574C180.243 90.7583 180.107 90.8417 179.962 90.9055C179.659 91.0561 179.318 91.1143 178.981 91.0728C178.715 91.0402 178.459 90.95 178.231 90.8085C178.002 90.6671 177.808 90.4777 177.66 90.2536C177.437 89.9487 177.269 89.607 177.164 89.244C177.026 88.8113 176.968 88.2113 177.395 87.9286C177.522 87.8305 178.012 88.1421 178.514 88.4305C178.738 88.5649 178.971 88.6826 179.212 88.7824L179.351 88.8344H179.408H179.362C179.229 88.8344 179.247 88.8344 179.201 88.8344C179.08 88.9174 178.995 89.0432 178.964 89.1863C178.935 89.2613 178.993 89.3421 178.924 89.1863L178.877 89.1228C178.845 89.0856 178.808 89.0526 178.768 89.0248C178.727 89.0248 178.652 88.9267 178.595 88.8921L178.664 88.8228L178.733 88.7132C178.779 88.644 178.802 88.6094 178.837 88.5921C178.908 88.577 178.974 88.5476 179.033 88.5055C179.033 88.5055 179.033 88.6324 179.033 88.5748C179.022 88.5675 179.009 88.5637 178.996 88.5637C178.982 88.5637 178.969 88.5675 178.958 88.5748C178.906 88.6382 179.016 88.8286 179.102 88.9497C179.102 88.9786 179.16 89.0132 179.16 89.0305C179.189 89.1344 178.964 89.1228 178.226 89.0824H177.724C177.147 89.0824 176.697 88.9036 176.57 88.5978C176.472 88.3547 176.427 88.0934 176.439 87.8317C176.451 87.5699 176.519 87.3137 176.639 87.0805C176.795 86.7671 177.014 86.4897 177.283 86.2662C177.553 86.0426 177.866 85.8778 178.202 85.7824C178.797 85.6244 179.428 85.6732 179.991 85.9209C180.571 86.1775 181.046 86.6256 181.335 87.1901L181.208 87.2478Z" fill="#3B2C7D"/>
<path d="M177.514 84.4035C178.933 83.7285 180.745 84.8651 181.98 85.4939C183.214 86.1227 184.316 84.2593 183.07 83.6247C180.981 82.5689 178.726 81.4439 176.424 82.5343C175.166 83.1112 176.262 84.992 177.514 84.4035Z" fill="#3B2C7D"/>
<path d="M205.681 88.2692C205.875 88.7155 205.94 89.2068 205.871 89.6884C205.814 90.038 205.704 90.3767 205.543 90.6922C205.485 90.8029 205.433 90.9166 205.387 91.0326C205.328 91.1626 205.25 91.2831 205.156 91.3903C205.063 91.501 204.956 91.5999 204.839 91.6845C204.448 91.9964 203.952 92.1452 203.454 92.0999C203.188 92.0651 202.933 91.974 202.705 91.8327C202.477 91.6915 202.282 91.5033 202.133 91.2807C201.913 90.9738 201.745 90.6327 201.637 90.2711C201.504 89.8326 201.441 89.2384 201.868 88.9499C201.995 88.8519 202.491 89.1692 202.987 89.4576C203.213 89.591 203.448 89.7086 203.691 89.8095L203.823 89.8615H203.887H203.841C203.708 89.8615 203.725 89.8615 203.679 89.8615C203.558 89.9445 203.474 90.0703 203.443 90.2134C203.414 90.2884 203.471 90.3692 203.402 90.2134L203.356 90.1499C203.325 90.1112 203.288 90.0781 203.246 90.0519C203.212 90.0519 203.131 89.9538 203.073 89.9192C203.093 89.8944 203.114 89.8713 203.137 89.8499L203.206 89.7461C203.252 89.6769 203.275 89.6365 203.31 89.6249C203.489 89.5846 203.535 89.498 203.506 89.5384C203.477 89.5788 203.506 89.6653 203.506 89.6019C203.506 89.5384 203.454 89.6019 203.431 89.6365C203.408 89.6711 203.489 89.8903 203.575 90.0115C203.575 90.0115 203.633 90.0749 203.633 90.0922C203.668 90.1961 203.443 90.1845 202.704 90.1442H202.196C201.62 90.1442 201.17 89.9596 201.043 89.6596C200.945 89.4155 200.9 89.1532 200.912 88.8905C200.924 88.6278 200.992 88.3707 201.112 88.1365C201.268 87.8237 201.488 87.5468 201.757 87.3233C202.026 87.0999 202.339 86.9348 202.675 86.8384C203.27 86.6862 203.899 86.7348 204.464 86.9769C205.045 87.2373 205.521 87.6867 205.814 88.2519L205.681 88.2692Z" fill="#3B2C7D"/>
<path d="M201.411 85.3846C203.626 84.1903 205.242 85.298 206.811 86.8903C207.792 87.8769 209.326 86.348 208.346 85.3557C206.038 83.048 203.401 81.8538 200.321 83.5211C199.098 84.1788 200.188 86.048 201.411 85.3846Z" fill="#3B2C7D"/>
<path d="M203.198 73.1939C203.112 72.7901 203.198 72.5651 203.36 72.4613C203.459 72.3734 203.547 72.2725 203.619 72.1613C203.689 72.0805 203.746 71.9766 203.833 71.9536C204.098 71.8531 204.325 71.6739 204.485 71.4401C204.648 71.2754 204.845 71.1475 205.062 71.0651C205.37 70.9199 205.688 70.7965 206.014 70.6959C206.491 70.6136 206.972 70.5596 207.456 70.5343C207.629 70.5343 207.987 70.4939 208.316 70.4593C208.56 70.4618 208.801 70.4127 209.025 70.3151C209.198 70.1478 210.069 70.217 210.294 70.0843C210.384 70.0501 210.482 70.0501 210.571 70.0843C210.975 70.142 211.356 69.6113 211.766 69.6747C212.013 69.6949 212.262 69.6949 212.51 69.6747C212.567 69.6747 212.631 69.6747 212.689 69.6747C213.317 69.8766 213.964 69.6343 214.592 69.7555L214.979 69.8363C215.06 69.8363 215.141 69.8939 215.221 69.8363C215.674 69.7548 216.142 69.8344 216.542 70.0613C216.6 70.0613 216.652 70.1478 216.716 70.1132C217.067 69.9055 217.367 70.1939 217.702 70.1709C217.81 70.1765 217.915 70.2019 218.014 70.2459C218.094 70.2459 218.164 70.3382 218.25 70.3209C218.624 70.3073 218.998 70.352 219.358 70.4536C219.358 70.4536 219.404 70.4536 219.427 70.4536C219.871 70.3093 220.2 70.6439 220.541 70.9555C220.748 71.1401 220.956 71.2959 221.256 71.1343C221.319 71.0997 221.383 71.0882 221.417 71.1343C221.577 71.3734 221.772 71.5873 221.994 71.7689C221.994 71.7689 221.994 71.8151 221.994 71.8324C221.928 72.158 221.837 72.4781 221.723 72.7901C221.66 72.9286 220.817 74.8036 220.766 74.8843C220.726 74.9311 220.684 74.9754 220.639 75.017C220.529 75.0689 220.402 75.1901 220.229 75.5478C220.131 75.7382 220.067 75.8016 220.027 75.7786C219.756 75.4613 219.329 75.5363 218.983 75.3574C218.821 75.3133 218.654 75.2919 218.487 75.2939C218.083 75.2189 217.65 75.1613 217.235 75.0747C216.819 74.9882 216.387 74.9478 215.96 74.8959C215.797 74.8818 215.643 74.8195 215.516 74.717C215.395 74.6207 215.248 74.5625 215.094 74.5497C214.852 74.5151 214.604 74.5497 214.356 74.5497L213.312 74.4747C212.735 74.4286 212.158 74.4055 211.581 74.3939C211.581 74.3939 211.535 74.3939 211.517 74.3939C211.177 74.7574 210.11 74.6536 210.041 74.6651C209.738 74.7295 209.432 74.7738 209.123 74.7978C208.83 74.8574 208.533 74.8998 208.235 74.9247C207.977 74.929 207.723 74.9819 207.485 75.0805C207.45 75.0805 207.416 75.1209 207.381 75.1151H207.162C207.062 75.1062 206.962 75.1062 206.862 75.1151C206.642 75.1151 206.383 75.1151 206.129 75.1151C205.8 75.1462 205.476 75.21 205.16 75.3055C205.119 75.3055 205.056 75.2766 204.952 75.1728C204.87 75.0968 204.783 75.0256 204.692 74.9593C204.6 74.8728 204.473 74.717 204.387 74.6536C204.3 74.5901 204.242 74.6016 204.162 74.5613C204.021 74.4642 203.904 74.3359 203.821 74.1863C203.717 74.0016 203.308 73.3843 203.198 73.1939Z" fill="#3B2C7D"/>
<path d="M183.866 75.7498C183.526 76.0845 183.382 76.1998 183.341 76.1652C183.301 76.1306 183.226 76.1998 183.174 76.2172C183.122 76.2345 183.076 76.2748 183.059 76.2172C183.041 76.1595 182.874 76.1768 182.724 76.2748C182.574 76.3729 182.343 76.2748 182.118 76.1825C181.893 76.0902 181.663 75.9402 181.611 75.9229C181.559 75.9056 181.034 75.6633 180.936 75.7787C180.838 75.8941 180.503 75.6171 180.359 75.7383C180.352 75.749 180.343 75.7579 180.331 75.764C180.32 75.7701 180.308 75.7733 180.295 75.7733C180.283 75.7733 180.27 75.7701 180.259 75.764C180.248 75.7579 180.239 75.749 180.232 75.7383C180.088 75.5768 179.741 76.1595 179.591 76.0325C179.495 75.9682 179.384 75.9304 179.268 75.9229C179.268 75.9229 179.211 75.9229 179.188 75.9229C178.957 75.6172 178.611 75.8595 178.339 75.7095L178.172 75.6056C178.138 75.6056 178.109 75.5306 178.063 75.5652C177.82 75.7614 177.653 75.5075 177.486 75.3345C177.486 75.3345 177.445 75.2364 177.411 75.2825C177.313 75.4268 177.238 75.421 177.168 75.3748C177.099 75.3287 177.03 75.2364 176.949 75.2595C176.868 75.2825 176.857 75.2133 176.811 75.1787C176.764 75.1441 176.747 75.0806 176.707 75.1095C176.522 75.2133 176.372 75.046 176.205 75.0633C176.205 75.0633 176.205 75.0633 176.17 75.0633C175.974 75.2941 175.824 74.971 175.663 74.6768C175.564 74.4806 175.461 74.3306 175.351 74.5383C175.351 74.5787 175.305 74.6018 175.288 74.5383C175.189 74.3018 175.08 74.2787 174.97 74.1806C174.972 74.1634 174.972 74.1459 174.97 74.1287C174.97 74.0883 174.924 73.2056 174.918 73.0152C174.913 72.8248 174.982 70.5402 175.005 70.4537C175.015 70.3933 175.034 70.3349 175.063 70.2806C175.174 70.0835 175.234 69.8611 175.236 69.6345C175.236 69.4152 175.305 69.3402 175.339 69.3633C175.408 69.3945 175.483 69.4107 175.559 69.4107C175.634 69.4107 175.709 69.3945 175.778 69.3633C175.849 69.3313 175.922 69.3043 175.997 69.2825C176.069 69.2804 176.142 69.2901 176.211 69.3114C176.332 69.3633 176.459 69.2768 176.58 69.271C176.886 69.271 177.186 69.271 177.486 69.271H177.936C178.086 69.271 178.23 69.3172 178.38 69.3345C178.441 69.3455 178.499 69.3712 178.548 69.4094C178.597 69.4476 178.637 69.4971 178.663 69.5537C178.687 69.6051 178.724 69.6501 178.769 69.6852C178.814 69.7202 178.866 69.7443 178.922 69.7556C179.084 69.796 179.257 69.7556 179.424 69.7902C179.654 69.8364 179.881 69.8941 180.105 69.9633C180.486 70.0787 180.866 70.1998 181.259 70.3383C181.259 70.3383 181.259 70.3383 181.299 70.3383C181.645 69.9633 182.32 70.3902 182.366 70.396C182.592 70.427 182.812 70.4911 183.018 70.5864C183.209 70.7191 183.451 70.7479 183.595 70.9441C183.753 71.0805 183.932 71.1897 184.126 71.2671C184.126 71.2671 184.189 71.2671 184.213 71.3018C184.443 71.5829 184.694 71.847 184.963 72.0921L185.655 72.7845C185.689 72.7845 185.655 72.9056 185.597 73.0614C185.539 73.2171 185.528 73.2921 185.459 73.4306C185.389 73.5691 185.268 73.7652 185.216 73.8806C185.191 73.9575 185.174 74.0367 185.164 74.1172C185.07 74.2962 184.954 74.4628 184.818 74.6133L183.866 75.7498Z" fill="#3B2C7D"/>
<path d="M187.502 126.629C191.656 128.169 194.321 124.494 196.571 121.609C197.414 120.525 195.896 118.984 195.037 120.081C193.341 122.267 191.31 125.74 188.073 124.54C186.77 124.056 186.204 126.144 187.496 126.629H187.502Z" fill="#3B2C7D"/>
<path d="M212.804 105.536C214.653 105.312 216.442 104.739 218.077 103.846L218.948 103.327L219.767 102.715C220.012 102.541 220.244 102.348 220.46 102.138L221.135 101.561L221.752 100.904L222.064 100.575L222.34 100.217L222.917 99.5016C223.09 99.2535 223.258 98.9997 223.425 98.7458C223.761 98.2397 224.069 97.7158 224.348 97.1766C224.602 96.6978 224.81 96.1958 225.035 95.7055C225.26 95.2151 225.421 94.6958 225.612 94.1881C225.814 93.5247 226.021 92.8612 226.189 92.192L226.725 90.1785C226.846 89.7631 226.99 89.8497 227.083 90.242C227.204 90.8723 227.19 91.5212 227.042 92.1458C226.413 95.0078 225.195 97.7074 223.465 100.073C222.411 101.537 221.123 102.818 219.652 103.863C217.487 105.297 215.002 106.176 212.417 106.425C212.116 106.473 211.811 106.498 211.506 106.5C211.202 106.517 210.898 106.517 210.594 106.5C208.749 106.411 206.944 105.931 205.298 105.092C204.027 104.466 202.86 103.649 201.837 102.669C201.611 102.453 201.398 102.226 201.196 101.988C200.464 101.071 200.354 100.69 200.412 100.373C200.422 100.301 200.437 100.229 200.458 100.159C200.562 99.9805 200.896 100.309 201.41 100.927C202.977 102.813 205.033 104.232 207.352 105.029C209.105 105.641 210.983 105.803 212.815 105.502L212.804 105.536Z" fill="#3B2C7D"/>
<path d="M212.217 168.058C212.385 167.837 212.607 167.664 212.862 167.554C213.117 167.445 213.396 167.404 213.671 167.435C213.873 167.435 214.196 167.74 214.139 167.913C214.023 168.242 213.902 168.577 213.752 168.9C213.386 169.447 212.989 169.973 212.564 170.475C212.235 170.844 211.883 171.237 211.548 171.565C211.214 171.894 210.925 172.2 210.723 172.396C209.936 173.15 209.079 173.826 208.162 174.415C206.317 175.647 204.36 176.702 202.317 177.565C201.859 177.757 201.387 177.911 200.904 178.027C199.254 178.419 197.615 178.835 195.931 179.181C195.643 179.212 195.362 179.283 195.094 179.394C194.167 179.63 193.212 179.739 192.256 179.717C191.24 179.74 190.225 179.641 189.233 179.423C187.672 178.99 186.198 178.289 184.877 177.352C184.667 177.242 184.49 177.079 184.364 176.879C184.119 176.435 183.79 176.043 183.394 175.725C183.181 175.46 182.979 175.183 182.783 174.906C182.603 174.619 182.454 174.313 182.339 173.994C182.292 173.65 182.265 173.303 182.258 172.956C182.258 172.662 182.5 172.696 182.581 172.754C182.8 172.944 182.812 172.69 182.892 172.627C182.922 172.598 182.957 172.577 182.996 172.563C182.996 172.563 183.198 172.708 183.481 172.898C183.608 172.996 183.798 173.083 183.96 173.192C184.121 173.302 184.277 173.435 184.45 173.55C184.802 173.763 185.16 173.96 185.442 174.127C185.725 174.294 185.927 174.387 186.019 174.427C186.201 174.562 186.394 174.682 186.596 174.785C187.045 175.019 187.514 175.212 187.998 175.362C188.834 175.616 189.698 175.764 190.571 175.8C190.837 175.827 191.1 175.879 191.356 175.956C192.005 175.97 192.655 175.939 193.3 175.863C194.246 175.765 195.192 175.563 195.262 175.558C196.021 175.393 196.793 175.298 197.569 175.275C197.727 175.271 197.883 175.242 198.031 175.188C199.323 174.825 200.644 174.496 201.937 174.035C202.587 173.785 203.225 173.502 203.846 173.187C203.962 173.135 204.094 173.112 204.21 173.065C204.364 173.02 204.515 172.962 204.66 172.892C206.153 172.161 207.568 171.279 208.883 170.262C209.638 169.796 210.366 169.287 211.064 168.738C211.254 168.554 212.091 168.254 212.217 168.058Z" fill="#3B2C7D"/>
<path d="M61.5174 152.308C60.1962 153.548 59.2501 155.129 57.877 156.311C56.8155 157.223 58.3559 158.746 59.4059 157.846C60.7789 156.658 61.7135 155.077 63.0462 153.836C64.0674 152.879 62.5328 151.35 61.5174 152.308Z" fill="#3B2C7D"/>
<path d="M86.0226 164.833C85.6378 166.476 85.5017 168.168 85.6188 169.852C85.7399 171.231 87.9265 171.242 87.7822 169.852C87.6677 168.361 87.7766 166.862 88.1053 165.404C88.388 164.048 86.3053 163.465 86.0226 164.827V164.833Z" fill="#3B2C7D"/>
<path d="M109.18 142.609C110.487 143.458 111.914 144.104 113.415 144.525C114.568 144.877 115.065 143.071 113.911 142.713C112.566 142.339 111.289 141.755 110.126 140.982C109.134 140.296 108.193 141.917 109.18 142.604V142.609Z" fill="#3B2C7D"/>
<path d="M141.199 120C142.479 119.469 143.851 119.19 145.237 119.18C145.436 119.163 145.621 119.073 145.756 118.926C145.891 118.779 145.966 118.587 145.966 118.387C145.966 118.188 145.891 117.996 145.756 117.849C145.621 117.702 145.436 117.611 145.237 117.594C143.708 117.587 142.192 117.875 140.772 118.442C139.843 118.823 140.247 120.357 141.193 119.971L141.199 120Z" fill="#3B2C7D"/>
<path d="M229.392 49.2981C229.311 46.7193 229.842 44.2558 231.994 42.6289C232.277 42.4154 230.984 42.5423 230.713 42.75C228.475 44.4346 227.886 46.9962 227.973 49.6731C227.973 49.8981 229.404 49.6731 229.392 49.2923V49.2981Z" fill="#3B2C7D"/>
<path d="M46.1537 62.6538C45.7539 62.6182 45.3569 62.5565 44.9652 62.4692C44.8196 62.4531 44.6751 62.4281 44.5325 62.3942C44.0324 62.227 43.5628 61.9795 43.1421 61.6615C42.9517 61.5346 42.7671 61.3961 42.5652 61.2692C42.3633 61.1423 42.3287 61.0904 42.2191 60.9923C42.1164 60.8829 42.0377 60.7532 41.9883 60.6115C41.9883 60.5192 42.1614 60.3923 42.3921 60.3C42.6229 60.2077 42.8825 60.1269 42.9691 60.2019C43.3094 60.4557 43.6556 60.6519 44.0364 60.9346C44.2962 61.0643 44.5779 61.1445 44.8671 61.1711C45.1913 61.2481 45.5213 61.2983 45.8537 61.3211C46.063 61.3356 46.2731 61.3356 46.4825 61.3211C46.8075 61.326 47.1321 61.299 47.4517 61.2404C47.6888 61.1627 47.9185 61.0642 48.1383 60.9461L48.2825 60.8827C48.4729 60.825 48.5594 60.8827 48.6979 61.1307L48.7902 61.2981C48.8367 61.3796 48.8561 61.4738 48.8458 61.567C48.8354 61.6603 48.7957 61.7479 48.7325 61.8173C48.3463 62.1947 47.8596 62.453 47.3306 62.5615C47.141 62.6086 46.9482 62.6414 46.7537 62.6596C46.5517 62.6596 46.3556 62.6596 46.1767 62.6596L46.1537 62.6538Z" fill="#3B2C7D"/>
</svg>
