<svg width="300" height="300" viewBox="0 0 300 300" fill="none" xmlns="http://www.w3.org/2000/svg">
<path d="M160.153 214.119L159.893 202.35L159.766 198.064C159.674 193.016 159.616 187.973 159.565 182.925C159.565 180.687 159.495 178.437 159.461 176.216C159.415 173.366 159.293 170.498 159.461 167.648C159.507 166.76 159.691 166.875 159.911 167.648C160.055 168.161 160.171 168.681 160.257 169.206C160.392 169.939 160.461 170.682 160.465 171.427C160.568 177.248 160.666 183.064 160.649 188.937C160.649 192.45 160.793 196.102 160.88 199.696C160.976 203.642 161.072 207.592 161.168 211.546C161.226 213.977 161.286 216.408 161.347 218.839C161.434 222.525 161.52 226.223 161.607 229.875C161.699 232.719 161.791 235.506 161.884 238.316C161.884 238.933 161.936 239.539 161.941 240.162C161.976 242.469 161.872 243.214 161.601 243.71C161.549 243.826 161.485 243.936 161.411 244.039C161.197 244.264 161.007 243.317 160.915 241.627C160.695 236.614 160.568 231.323 160.43 226.016C160.332 222.069 160.228 218.106 160.124 214.148L160.153 214.119Z" fill="#3B2C7D"/>
<path d="M117.201 242.706L103.355 239.244L98.3013 237.998L80.532 233.383L72.6397 231.398C69.2878 230.55 65.8955 229.777 62.584 228.762C61.5513 228.456 61.7301 228.34 62.659 228.381C63.1263 228.381 63.7782 228.456 64.5628 228.548C65.46 228.649 66.3501 228.805 67.2282 229.015C74.1166 230.608 80.9705 232.321 87.8532 234.15C91.9724 235.24 96.2936 236.244 100.545 237.289L114.513 240.75L123.115 242.815C127.459 243.842 131.826 244.887 136.159 245.81C139.528 246.537 142.851 247.142 146.203 247.748L148.407 248.135C151.159 248.631 152.019 248.879 152.538 249.387C152.664 249.488 152.78 249.602 152.884 249.727C153.092 250.085 151.92 250.125 149.884 249.831C143.832 248.925 137.544 247.564 131.249 246.127C126.576 245.06 121.897 243.923 117.23 242.787L117.201 242.706Z" fill="#3B2C7D"/>
<path d="M199.359 146.06L185.513 151.114L180.476 152.989L162.69 159.439L160.711 160.16L160.215 160.339C160.042 160.402 159.811 160.477 159.609 160.535L159.292 160.616C159.205 160.616 159.124 160.616 159.038 160.616L158.519 160.564C157.134 160.431 155.726 160.333 154.342 160.183C150.753 159.873 147.207 159.188 143.761 158.141C142.688 157.8 142.913 157.598 143.888 157.616C145.461 157.693 147.027 157.886 148.573 158.193C150.344 158.533 152.126 158.77 153.926 159C155.726 159.231 157.515 159.318 159.378 159.531C159.54 159.485 159.609 159.393 159.736 159.358L160.348 159.139L161.634 158.677L164.219 157.754L169.411 155.914C173.565 154.46 177.834 152.81 182.051 151.252L195.978 146.118L204.546 142.95C208.867 141.346 213.199 139.748 217.492 138.116C220.821 136.852 224.051 135.543 227.299 134.256L229.451 133.396C232.151 132.358 233.04 132.098 233.738 132.185C233.891 132.189 234.044 132.208 234.194 132.243C234.534 132.352 233.513 132.993 231.557 133.8C225.748 136.218 219.546 138.571 213.315 140.908L199.376 146.1L199.359 146.06Z" fill="#3B2C7D"/>
<path d="M144.876 177.479C145.556 176.296 146.283 175.142 147.028 174.017C147.305 173.608 147.547 173.169 147.83 172.765C148.854 171.338 149.958 169.968 151.135 168.664L152.699 166.933C153.342 166.171 154.079 165.492 154.891 164.914C155.405 164.573 155.572 165.981 154.805 166.737C153.431 168.11 152.168 169.581 150.812 171.035C150.03 171.964 149.317 172.95 148.678 173.983C147.928 175.09 147.224 176.233 146.537 177.392C146.122 178.108 145.706 178.829 145.32 179.562C144.743 180.669 144.166 181.794 143.647 182.937C143.255 183.825 142.972 184.742 142.626 185.637C142.551 185.833 142.493 186.035 142.412 186.214C142.112 186.946 141.928 187.137 141.535 187.16C141.447 187.168 141.358 187.168 141.27 187.16C140.993 187.125 140.912 186.744 141.051 186.167C141.266 185.302 141.532 184.451 141.847 183.617C142.181 182.775 142.545 181.933 142.949 181.102C143.526 179.867 144.178 178.65 144.841 177.45L144.876 177.479Z" fill="#3B2C7D"/>
<path d="M99.7015 182.885C96.24 181.829 92.7784 180.773 89.2765 179.758C88.0015 179.383 86.7207 179.054 85.4515 178.685C80.9746 177.393 76.4803 176.158 71.9573 175.027C69.9496 174.519 67.9188 174.035 65.9227 173.568C63.338 172.991 60.7765 172.31 58.2438 171.571C57.4534 171.335 57.5977 171.214 58.313 171.202C59.4953 171.205 60.675 171.313 61.838 171.525L63.8227 171.906C64.4861 172.033 65.138 172.2 65.7957 172.344L69.7303 173.279C72.3496 173.919 75.0034 174.543 77.6169 175.298C80.7496 176.198 84.038 177.029 87.24 177.929C90.7592 178.927 94.2669 179.971 97.7688 181.027L104.242 182.971C107.507 183.946 110.784 184.939 114.05 185.856C116.582 186.566 119.086 187.189 121.607 187.818L123.263 188.227C125.334 188.758 125.969 189.023 126.326 189.462C126.415 189.552 126.494 189.651 126.563 189.756C126.696 190.056 125.802 190.039 124.255 189.716C119.698 188.735 114.967 187.408 110.242 186.046L99.7015 182.919V182.885Z" fill="#3B2C7D"/>
<path d="M171.465 174.808C170.984 173.784 170.428 172.797 169.804 171.854C169.567 171.514 169.33 171.173 169.077 170.844C168.219 169.648 167.272 168.518 166.244 167.464C165.789 166.992 165.31 166.545 164.807 166.125C164.161 165.589 163.492 165.087 162.863 164.521C162.673 164.348 162.788 164.233 163.071 164.227C163.483 164.229 163.886 164.355 164.225 164.591C165.699 165.558 167.025 166.736 168.159 168.087C168.494 168.496 168.846 168.906 169.209 169.304C169.573 169.702 169.913 170.135 170.236 170.567C170.947 171.525 171.589 172.531 172.157 173.579C172.325 173.902 172.504 174.225 172.671 174.554L173.121 175.552C173.557 176.567 173.927 177.61 174.229 178.673L174.43 179.279L174.598 179.896C174.713 180.3 174.846 180.71 174.944 181.125C174.979 181.31 175.025 181.489 175.048 181.702C175.14 182.4 175.048 182.637 174.754 182.804C174.689 182.847 174.621 182.885 174.552 182.919C174.327 183 174.084 182.741 173.917 182.267C173.804 181.919 173.712 181.565 173.64 181.206C173.536 180.848 173.432 180.496 173.346 180.133L173.213 179.591L173.04 179.054L172.711 177.975C172.521 177.444 172.33 176.919 172.134 176.389C171.938 175.858 171.702 175.344 171.442 174.837L171.465 174.808Z" fill="#3B2C7D"/>
<path d="M205.517 172.108L214.171 168.647L217.327 167.36L228.513 162.998C230.175 162.358 231.819 161.666 233.457 161.02C235.544 160.125 237.678 159.345 239.85 158.683C240.531 158.481 240.496 158.683 240.011 159.07C239.218 159.714 238.348 160.256 237.421 160.685C233.181 162.514 228.882 164.187 224.509 165.802C221.896 166.766 219.236 167.925 216.594 168.998L207.894 172.5L202.534 174.675C199.829 175.783 197.106 176.885 194.457 178.022C192.386 178.91 190.384 179.85 188.354 180.768L187.015 181.373C185.331 182.095 184.748 182.216 184.257 182.072C184.147 182.047 184.038 182.013 183.934 181.968C183.675 181.806 184.281 181.316 185.481 180.704C189.052 178.927 192.923 177.277 196.811 175.645L205.523 172.056L205.517 172.108Z" fill="#3B2C7D"/>
<path d="M193.889 239.735L198.793 238.206C199.37 238.016 199.947 237.791 200.57 237.629L206.916 235.731C207.845 235.443 208.78 235.125 209.697 234.814C210.876 234.369 212.095 234.039 213.337 233.827C213.735 233.77 213.707 233.972 213.441 234.248C213.031 234.651 212.545 234.966 212.01 235.177C210.857 235.662 209.633 236.037 208.433 236.447C207.233 236.856 206.01 237.231 204.782 237.6C203.305 238.022 201.822 238.627 200.339 239.123L195.418 240.733L192.389 241.725C190.866 242.227 189.326 242.712 187.814 243.243C186.66 243.652 185.507 244.137 184.353 244.57C184.099 244.662 183.851 244.766 183.591 244.852C182.622 245.17 182.276 245.152 181.964 244.852C181.888 244.786 181.818 244.713 181.757 244.633C181.583 244.368 181.912 244.01 182.582 243.722C184.655 242.826 186.773 242.036 188.928 241.356L193.849 239.752L193.889 239.735Z" fill="#3B2C7D"/>
<path d="M240.306 212.556C240.306 212.556 255.941 212.556 255.941 217.656C255.941 224.452 225.485 232.414 198.797 238.547L240.058 221.585L240.306 212.556Z" fill="#3B2C7D"/>
<path opacity="0.2" d="M140.551 110.285C140.412 111.225 140.297 158.1 140.297 158.1L159.145 160.558L236.782 132.035C236.782 132.035 239.96 129.883 230.712 128.187L140.551 110.285Z" fill="#3B2C7D"/>
<path d="M53.9424 203.371L54.0174 195.779C54.0174 194.856 53.9597 193.938 53.9712 193.015L54.0635 188.129L54.1847 183.248C54.1847 181.8 54.1847 180.363 54.1847 178.915C54.0963 177.072 54.1522 175.224 54.352 173.388C54.427 172.812 54.802 172.887 55.2116 173.388C55.7561 174.092 56.0884 174.937 56.1693 175.823L56.2789 177.231L56.3366 177.929V178.633C56.3366 179.573 56.3366 180.508 56.3366 181.448C56.3366 183.329 56.2904 185.21 56.1981 187.108C56.0712 189.369 56.1981 191.723 56.1981 194.031V201.675C56.1981 203.244 56.1981 204.813 56.1981 206.383C56.1981 208.76 56.1981 211.148 56.2558 213.502C56.2962 215.337 56.5154 217.131 56.5847 218.948C56.5847 219.346 56.6308 219.738 56.6308 220.137C56.6545 220.67 56.6 221.205 56.4693 221.723C56.3618 222.016 56.1585 222.264 55.8924 222.427C55.7892 222.508 55.6791 222.579 55.5635 222.64C55.3789 222.715 55.2116 222.6 55.0443 222.329C54.8097 221.952 54.6601 221.529 54.6058 221.088C54.0289 217.858 54.0289 214.454 53.9251 211.033C53.8847 208.488 53.9251 205.933 53.8789 203.383L53.9424 203.371Z" fill="#3B2C7D"/>
<path d="M116.434 241.656L101.434 237.825L95.9533 236.469L76.7302 231.462C73.886 230.718 71.0071 230.031 68.1744 229.321C64.5341 228.41 60.8591 227.591 57.2821 226.437C56.1629 226.091 56.3648 225.935 57.386 225.941C57.8937 225.941 58.6091 225.975 59.4629 226.056C60.4344 226.142 61.3984 226.299 62.3475 226.523C69.8475 228.208 77.2494 230.043 84.7091 232.033C89.1744 233.227 93.8591 234.294 98.4456 235.425L113.573 239.169L122.89 241.477C127.592 242.631 132.311 243.785 137.001 244.841C140.642 245.666 144.242 246.358 147.859 247.079L150.242 247.541C153.213 248.158 154.13 248.475 154.661 249.133C154.791 249.269 154.907 249.418 155.007 249.577C155.209 250.039 153.928 250.102 151.724 249.733C145.194 248.625 138.409 247.056 131.601 245.435C126.553 244.229 121.494 242.96 116.44 241.708L116.434 241.656Z" fill="#3B2C7D"/>
<path d="M158.791 214.506C158.791 210.017 158.78 205.525 158.756 201.029L158.67 196.113L158.618 178.806C158.618 176.238 158.583 173.66 158.531 171.115C158.497 167.844 158.306 164.562 158.635 161.308C158.722 160.292 159.033 160.431 159.403 161.308C159.639 161.887 159.832 162.483 159.98 163.09C160.08 163.486 160.159 163.886 160.216 164.29C160.269 164.737 160.298 165.185 160.303 165.635C160.406 172.304 160.516 178.962 160.378 185.694C160.303 189.733 160.476 193.904 160.522 198.017L160.626 211.604V219.963C160.626 224.187 160.562 228.427 160.545 232.621C160.545 235.881 160.591 239.077 160.545 242.302C160.545 243.012 160.545 243.71 160.545 244.425C160.464 247.079 160.239 247.915 159.749 248.464C159.648 248.595 159.534 248.714 159.408 248.821C159.033 249.052 158.774 247.962 158.716 246.023C158.653 240.254 158.716 234.237 158.756 228.138C158.756 223.621 158.797 219.087 158.756 214.558L158.791 214.506Z" fill="#3B2C7D"/>
<path d="M219.71 228.6C222.848 227.381 225.979 226.15 229.102 224.908C230.666 224.285 232.223 223.656 233.77 223.01C235.316 222.364 236.873 221.712 238.345 221.031L238.731 220.846C238.731 220.846 238.818 220.846 238.806 220.789V219.185C238.806 217.956 238.806 216.727 238.835 215.498L239.325 189.537C239.389 185.695 239.372 181.829 239.383 177.998C239.383 173.095 239.268 168.191 239.643 163.275C239.752 161.752 240.173 161.954 240.641 163.246C240.942 164.119 241.175 165.014 241.339 165.923C241.596 167.18 241.729 168.46 241.737 169.743C241.783 174.75 241.87 179.752 241.783 184.743C241.697 189.733 241.575 194.775 241.391 199.823C241.172 205.858 241.252 212.141 241.177 218.314L241.148 221.054V222.11V222.237C241.114 222.261 241.077 222.283 241.039 222.3L240.802 222.416L240.335 222.652L239.498 223.068L238.922 223.362C237.352 224.054 235.783 224.735 234.208 225.375C231.064 226.685 227.908 227.943 224.752 229.2L213.07 233.77L195.381 240.618C190.829 242.395 186.422 244.264 181.922 246.041C180.935 246.433 179.977 246.843 178.968 247.195L177.675 247.662C177.277 247.789 176.908 247.887 176.573 247.985C175.898 248.158 175.345 248.285 174.883 248.36C174.502 248.428 174.116 248.468 173.729 248.481C173.45 248.484 173.171 248.453 172.898 248.389C172.691 248.362 172.486 248.315 172.287 248.25C172.073 248.141 172.345 247.904 172.962 247.552L174.156 246.889C174.652 246.623 175.229 246.341 175.887 246.035C176.85 245.539 177.86 245.152 178.864 244.737L181.91 243.485L188.077 241.01C192.243 239.337 196.483 237.675 200.729 236.002L219.698 228.548L219.71 228.6Z" fill="#3B2C7D"/>
<path d="M169.971 158.279L163.267 160.691L161.582 161.268L160.74 161.568L160.527 161.643L160.181 161.752C159.944 161.821 159.702 161.879 159.465 161.925L159.286 161.954C159.237 161.965 159.186 161.965 159.136 161.954L158.917 161.92L158.467 161.856L157.573 161.723L155.802 161.441C151.082 160.662 146.398 159.808 141.713 158.943C138.292 158.314 134.865 157.725 131.456 157.068C119.432 154.733 107.438 152.252 95.4728 149.625C90.1651 148.471 84.8286 147.318 79.5728 146.071C76.192 145.287 72.8113 144.485 69.4536 143.579C66.0644 142.719 62.7391 141.624 59.5017 140.302C57.4824 139.321 58.019 139.073 59.8247 139.414C62.833 139.906 65.8139 140.553 68.7555 141.352C75.5459 143.175 82.4286 144.745 89.3228 146.314C96.217 147.883 103.169 149.395 110.092 150.929C118.417 152.746 127.146 154.327 135.713 155.92C140.427 156.796 145.14 157.65 149.859 158.487C152.219 158.896 154.579 159.306 156.938 159.675L158.704 159.941L159.148 160.004C159.292 160.004 159.465 160.068 159.511 160.004C159.582 159.954 159.657 159.912 159.736 159.877L159.857 159.831L160.071 159.756L163.452 158.539L180.09 152.481C188.479 149.4 196.913 146.325 205.215 143.198C211.671 140.77 217.954 138.266 224.306 135.785L228.477 134.141C233.715 132.139 235.429 131.62 236.761 131.729C237.055 131.732 237.347 131.753 237.638 131.793C238.279 131.971 236.288 133.183 232.481 134.729C221.196 139.345 209.167 143.891 197.069 148.385L170.006 158.314L169.971 158.279Z" fill="#3B2C7D"/>
<path d="M109.245 121.079C105.068 122.456 100.895 123.854 96.7262 125.273L92.18 126.877C86.8204 128.694 81.455 130.506 76.1127 132.375C73.7415 133.194 71.3704 134.071 69.0396 134.948L64.5396 136.679C63.0396 137.256 61.5108 137.735 59.9877 138.213C59.03 138.508 59.0473 138.173 59.7165 137.567C60.8266 136.634 62.0764 135.88 63.4204 135.335C69.5242 132.975 75.6684 130.719 81.9454 128.706C85.7011 127.483 89.5319 126.012 93.3396 124.667C97.5281 123.202 101.724 121.754 105.928 120.323L113.688 117.692L125.434 113.735L134.382 110.567C135.045 110.348 135.686 110.112 136.355 109.898C137.231 109.588 138.135 109.364 139.055 109.229C139.504 109.147 139.968 109.214 140.376 109.419C140.532 109.489 140.681 109.574 140.82 109.673C141.155 110.013 140.243 110.613 138.443 111.213C133.165 113.088 127.545 115.021 121.892 116.902L109.268 121.142L109.245 121.079Z" fill="#3B2C7D"/>
<path d="M199.977 122.308L185.23 119.371L179.842 118.373L160.879 114.606C158.08 114.029 155.254 113.516 152.461 112.996C150.667 112.668 148.867 112.339 147.079 111.981C146.179 111.808 145.284 111.618 144.39 111.404C143.496 111.191 142.613 110.995 141.707 110.695C140.554 110.337 140.888 110.043 141.909 109.927C143.53 109.792 145.162 109.875 146.761 110.175L157.723 112.16C159.552 112.495 161.386 112.852 163.215 113.233L168.707 114.387C173.092 115.345 177.707 116.118 182.213 116.966L197.086 119.85L206.23 121.662L220.077 124.437C223.642 125.129 227.15 125.741 230.68 126.45C231.459 126.618 232.221 126.756 232.988 126.935C233.755 127.114 234.309 127.229 234.805 127.396C235.215 127.529 235.618 127.683 236.011 127.858C236.476 128.039 236.893 128.325 237.229 128.695C237.346 128.817 237.454 128.948 237.552 129.087C237.73 129.462 236.479 129.439 234.373 129.087C228.107 127.887 221.467 126.612 214.821 125.279L199.948 122.343L199.977 122.308Z" fill="#3B2C7D"/>
<path d="M247.881 142.31C247.36 141.228 246.745 140.195 246.041 139.223C245.793 138.86 245.464 138.56 245.193 138.208C244.216 136.975 243.129 135.833 241.945 134.798C241.42 134.328 240.863 133.896 240.277 133.506C239.539 132.987 238.754 132.554 238.045 131.983C237.82 131.804 237.97 131.619 238.299 131.527C238.747 131.412 239.222 131.461 239.637 131.665C241.363 132.504 242.925 133.643 244.252 135.029C244.656 135.444 245.066 135.86 245.487 136.275C245.916 136.681 246.323 137.111 246.704 137.562C247.547 138.55 248.3 139.612 248.954 140.735C249.168 141.074 249.361 141.427 249.531 141.79C249.71 142.148 249.901 142.5 250.068 142.858L250.731 144.554C250.91 145.131 251.066 145.708 251.251 146.285C251.412 146.723 251.481 147.185 251.626 147.629L251.816 148.304L251.914 148.644L251.972 148.99C252.001 149.192 252.047 149.388 252.07 149.596C252.127 150.369 251.96 150.617 251.493 150.785C251.395 150.824 251.295 150.859 251.193 150.888C250.858 150.958 250.541 150.663 250.345 150.156C250.213 149.781 250.119 149.395 250.062 149.002C249.981 148.621 249.849 148.252 249.768 147.848C249.687 147.444 249.624 147.081 249.485 146.694C249.347 146.308 249.254 145.938 249.145 145.54C248.797 144.407 248.355 143.305 247.824 142.246L247.881 142.31Z" fill="#3B2C7D"/>
<path d="M172.085 174.866C171.785 174.289 171.508 173.712 171.197 173.135C170.885 172.558 170.539 172.021 170.175 171.485C169.91 171.093 169.599 170.735 169.333 170.331C168.352 168.965 167.278 167.668 166.12 166.448C165.602 165.906 165.051 165.398 164.47 164.925C163.737 164.319 162.947 163.771 162.225 163.194C162 163.021 162.116 162.825 162.456 162.739C162.943 162.637 163.45 162.724 163.875 162.981C165.621 164.036 167.172 165.383 168.462 166.962C168.843 167.441 169.264 167.891 169.668 168.369C170.072 168.848 170.504 169.298 170.868 169.806L171.479 170.625C171.675 170.908 171.854 171.202 172.056 171.485L172.633 172.344L173.141 173.239C173.574 173.966 173.92 174.739 174.295 175.5C174.817 176.667 175.253 177.87 175.599 179.1C175.674 179.337 175.754 179.568 175.835 179.804L175.962 180.577C176.083 181.056 176.245 181.529 176.349 182.014C176.377 182.233 176.429 182.446 176.452 182.666C176.516 183.485 176.349 183.756 175.927 183.929C175.832 183.972 175.734 184.009 175.633 184.039C175.304 184.114 174.993 183.802 174.797 183.266C174.673 182.872 174.575 182.471 174.502 182.066C174.381 181.673 174.272 181.269 174.174 180.866L174.035 180.26L173.839 179.683L173.475 178.466C173.239 177.889 173.043 177.277 172.818 176.683C172.593 176.089 172.304 175.529 172.022 174.952L172.085 174.866Z" fill="#3B2C7D"/>
<path d="M206.22 170.464L217.118 166.275L221.081 164.706L235.135 159.427C237.212 158.648 239.277 157.8 241.337 157.004L245.3 155.464L246.304 155.1L247.32 154.783C247.995 154.569 248.687 154.379 249.379 154.206C250.245 153.987 250.193 154.235 249.587 154.783C249.281 155.042 248.837 155.36 248.295 155.735C248.024 155.919 247.718 156.11 247.406 156.312L246.904 156.6C246.725 156.681 246.547 156.762 246.327 156.837L242.329 158.487C240.997 159.064 239.652 159.571 238.291 160.073C235.599 161.108 232.874 162.11 230.116 163.079C226.827 164.233 223.493 165.658 220.175 166.962L209.214 171.237L202.499 173.839C199.106 175.189 195.685 176.527 192.345 177.929C189.749 179.019 187.245 180.196 184.706 181.344C184.129 181.598 183.61 181.864 183.045 182.112C180.945 183.017 180.224 183.173 179.583 182.948C179.438 182.912 179.296 182.859 179.162 182.792C178.816 182.562 179.56 181.916 181.049 181.114C185.531 178.846 190.383 176.816 195.258 174.808C198.887 173.325 202.55 171.883 206.22 170.429V170.464Z" fill="#3B2C7D"/>
<path d="M46.3085 154.039C46.6719 153.393 47.0239 152.741 47.4219 152.118L47.9989 151.177L48.6104 150.254C48.9104 149.804 49.1873 149.325 49.4873 148.898C50.618 147.368 51.8784 145.937 53.2546 144.623C53.5662 144.335 53.8604 144.046 54.1662 143.741L55.1065 142.881C55.4931 142.506 55.9431 142.183 56.37 141.843C56.8204 141.518 57.3161 141.261 57.8412 141.081C58.17 140.96 58.3142 141.381 58.2854 141.906C58.2869 142.179 58.2295 142.449 58.1169 142.698C58.0044 142.947 57.8395 143.169 57.6335 143.348C56.0573 144.614 54.5494 145.962 53.1162 147.387C52.668 147.841 52.2535 148.327 51.8758 148.841C51.5008 149.366 51.1546 149.914 50.7739 150.433C50.3931 150.952 49.9892 151.616 49.62 152.216C49.2508 152.816 48.8642 153.427 48.5296 154.056L47.895 155.21C47.6931 155.602 47.5085 156 47.3181 156.393C46.7347 157.589 46.2354 158.825 45.8239 160.091C45.5623 161.068 45.3695 162.063 45.2469 163.068C45.2123 163.287 45.1835 163.5 45.1546 163.719C45.0392 164.521 44.8662 164.758 44.3412 164.873C44.2241 164.909 44.1045 164.936 43.9835 164.954C43.5912 164.989 43.3315 164.602 43.3085 163.939C43.2844 163.446 43.2979 162.952 43.3489 162.462C43.3791 161.963 43.4505 161.467 43.5623 160.979C43.786 160 44.0731 159.036 44.4219 158.094C44.9605 156.696 45.5768 155.328 46.2681 153.998L46.3085 154.039Z" fill="#3B2C7D"/>
<path d="M143.706 177.035C144.548 175.702 145.437 174.41 146.389 173.129C146.735 172.662 147.041 172.177 147.392 171.721C148.667 170.134 150.035 168.624 151.489 167.198L153.404 165.294C154.184 164.445 155.075 163.704 156.052 163.091C156.369 162.912 156.577 163.264 156.6 163.771C156.616 164.062 156.57 164.353 156.465 164.625C156.359 164.897 156.197 165.143 155.989 165.346C154.333 166.864 152.792 168.473 151.114 170.043C150.149 171.055 149.269 172.145 148.483 173.302C147.548 174.531 146.677 175.812 145.823 177.104C145.316 177.918 144.791 178.714 144.323 179.55C143.96 180.179 143.591 180.802 143.25 181.448C142.91 182.094 142.564 182.723 142.264 183.381C141.785 184.391 141.45 185.452 141.029 186.473C140.942 186.704 140.873 186.929 140.775 187.16C140.417 187.996 140.198 188.21 139.685 188.204C139.571 188.213 139.458 188.213 139.344 188.204C138.981 188.141 138.86 187.685 139.027 187.016C139.272 186.01 139.588 185.023 139.973 184.062C140.371 183.093 140.827 182.129 141.317 181.177C142.039 179.769 142.835 178.379 143.666 177.023L143.706 177.035Z" fill="#3B2C7D"/>
<path d="M97.4969 181.211C93.1412 179.948 88.7854 178.69 84.4123 177.496C82.82 177.058 81.2104 176.683 79.6123 176.256C76.8008 175.487 73.9835 174.756 71.1604 174.063C68.3508 173.377 65.5008 172.777 62.645 172.177C60.1123 171.646 57.545 171.156 55.0296 170.59C54.2162 170.411 53.4085 170.215 52.6008 170.013C51.7931 169.811 50.9969 169.558 50.2008 169.298C48.6229 168.782 47.081 168.161 45.5854 167.44C44.6508 166.985 44.8758 166.829 45.7815 166.898C47.2411 167.035 48.689 167.276 50.1142 167.619C50.9277 167.804 51.7296 168 52.5489 168.162C53.3681 168.323 54.1642 168.548 54.9777 168.738C56.5989 169.108 58.2373 169.454 59.8815 169.783C63.17 170.452 66.5046 171.069 69.8277 171.912C73.7912 172.944 77.9046 173.856 81.9431 174.923C86.3681 176.077 90.7758 177.329 95.1719 178.575L103.289 180.883C107.391 182.036 111.493 183.248 115.578 184.344C118.757 185.192 121.924 185.902 125.057 186.652C125.755 186.813 126.441 186.958 127.139 187.131C129.73 187.777 130.52 188.117 130.953 188.758C131.063 188.89 131.156 189.035 131.23 189.19C131.385 189.635 130.249 189.681 128.345 189.323C122.616 188.215 116.691 186.635 110.76 184.996L97.5431 181.258L97.4969 181.211Z" fill="#3B2C7D"/>
<path d="M140.856 141.254L140.954 134.469V131.994L141.098 123.271C141.098 121.985 141.098 120.687 141.098 119.406C141.098 117.762 141.063 116.106 141.219 114.456C141.311 113.435 142.05 114.762 142.061 116.648C142.061 120 142.061 123.352 141.911 126.738C141.836 128.763 141.911 130.869 141.871 132.94L141.808 139.777C141.808 141.179 141.779 142.581 141.761 143.983C141.761 146.106 141.715 148.24 141.698 150.329C141.698 151.967 141.698 153.577 141.738 155.198C141.738 155.556 141.738 155.908 141.738 156.271C141.738 157.61 141.513 158.002 141.317 158.302C141.278 158.365 141.234 158.425 141.184 158.481C141.115 158.544 141.058 158.435 140.994 158.192C140.904 157.827 140.846 157.454 140.821 157.079C140.706 154.194 140.746 151.142 140.763 148.079C140.763 145.806 140.804 143.521 140.827 141.237L140.856 141.254Z" fill="#3B2C7D"/>
<path d="M139.613 139.535L139.659 132.225C139.659 131.337 139.613 130.448 139.619 129.56L139.729 120.156C139.729 118.766 139.729 117.364 139.729 115.979C139.729 115.091 139.729 114.202 139.729 113.308C139.728 112.396 139.815 111.486 139.988 110.591C140.19 109.892 140.49 110.233 140.761 110.694C141.166 111.396 141.379 112.192 141.379 113.002C141.379 114.785 141.431 116.591 141.379 118.396C141.327 120.202 141.309 122.019 141.229 123.842C141.136 126.029 141.229 128.296 141.263 130.529V142.431C141.263 144.739 141.263 147.046 141.263 149.296C141.263 151.062 141.384 152.798 141.39 154.564C141.39 154.95 141.39 155.331 141.39 155.717C141.35 157.189 140.946 157.656 140.548 157.904C140.468 157.961 140.381 158.005 140.288 158.037C140.167 158.037 140.092 157.916 140.023 157.667C139.988 157.535 139.942 157.373 139.896 157.183C139.847 156.959 139.814 156.731 139.798 156.502C139.648 153.456 139.642 150.156 139.625 146.873C139.625 144.427 139.625 141.964 139.625 139.512L139.613 139.535Z" fill="#3B2C7D"/>
<path d="M109.88 121.263L97.9894 125.423L93.674 126.987L78.4144 132.415C76.1644 133.229 73.9086 134.071 71.6875 134.913L67.3952 136.54C65.9644 137.071 64.5105 137.573 63.0682 138.046C62.1625 138.34 62.2086 138.11 62.8894 137.631C64.0223 136.871 65.233 136.235 66.5009 135.733C72.3278 133.5 78.1663 131.325 84.1144 129.277C87.6682 128.054 91.3259 126.652 94.9432 125.342L106.897 121.073L114.264 118.483L125.434 114.606C128.318 113.602 131.105 112.563 133.955 111.583L135.824 110.937C138.189 110.175 138.98 110.048 139.58 110.221C139.719 110.248 139.854 110.291 139.984 110.348C140.284 110.538 139.407 111.035 137.676 111.623L121.891 117.115L109.897 121.292L109.88 121.263Z" fill="#3B2C7D"/>
<path d="M168.155 126.179L163.142 124.968L161.307 124.558L154.857 123.035C153.899 122.816 152.936 122.614 151.973 122.423C150.744 122.187 149.515 121.933 148.286 121.731C147.905 121.668 147.957 121.622 148.286 121.598C148.844 121.559 149.405 121.578 149.959 121.656C152.503 122.008 155.024 122.423 157.534 122.989C159.034 123.347 160.609 123.635 162.149 123.97L167.226 125.089L170.365 125.77C171.94 126.116 173.521 126.485 175.09 126.802C176.307 127.05 177.519 127.241 178.724 127.477C178.99 127.523 179.255 127.575 179.521 127.633C180.507 127.864 180.807 127.997 180.969 128.268C181.013 128.322 181.05 128.382 181.078 128.447C181.142 128.631 180.703 128.689 179.965 128.608C178.857 128.493 177.744 128.314 176.613 128.106C175.482 127.898 174.357 127.627 173.221 127.368L168.155 126.179Z" fill="#3B2C7D"/>
<path d="M163.735 131.936L161.554 131.388L160.758 131.21L157.948 130.517C157.533 130.419 157.112 130.333 156.696 130.252C156.157 130.167 155.624 130.049 155.098 129.9C154.775 129.796 155.3 129.404 155.912 129.525C157.002 129.744 158.087 129.986 159.171 130.292C159.818 130.471 160.51 130.592 161.179 130.742L163.383 131.267L164.739 131.602L166.787 132.11C167.318 132.231 167.843 132.323 168.373 132.433L168.72 132.502C169.146 132.606 169.296 132.681 169.296 132.865C169.311 132.907 169.322 132.949 169.331 132.992C169.331 133.125 169.135 133.183 168.812 133.131C167.86 132.986 166.885 132.744 165.927 132.502L163.729 131.954L163.735 131.936Z" fill="#3B2C7D"/>
<path d="M220.326 80.7695C220.015 81.3727 219.627 81.9331 219.172 82.4368C218.701 82.9282 218.173 83.3602 217.597 83.7233C216.506 84.3736 215.306 84.8212 214.055 85.0445C213.224 85.222 212.384 85.3549 211.539 85.4426C210.167 85.5346 208.801 85.7099 207.449 85.9676C206.167 86.2099 204.946 86.7083 203.861 87.433C202.935 88.0877 202.198 88.9753 201.726 90.006C201.453 90.6233 201.302 91.2874 201.282 91.9618C201.255 92.582 201.407 93.1968 201.72 93.733C201.922 94.0791 201.657 94.4253 200.987 94.4137C200.789 94.413 200.593 94.3718 200.411 94.2926C200.184 94.2136 199.976 94.09 199.799 93.9291C199.335 93.539 199.027 92.9938 198.934 92.3945C198.829 91.8456 198.829 91.2819 198.934 90.733C199.029 90.2245 199.178 89.7275 199.378 89.2503C199.76 88.3305 200.301 87.485 200.976 86.7522C202.32 85.3876 204.032 84.4435 205.903 84.0349C207.948 83.5684 210.019 83.2236 212.105 83.0022C214.187 82.7772 216.224 82.2176 217.441 80.7464C217.827 80.2913 218.137 79.777 218.359 79.2234C218.479 78.9376 218.581 78.6448 218.664 78.3464C218.737 78.0749 218.782 77.7964 218.797 77.5157C218.884 75.7849 217.799 73.9791 216.27 72.9003C215.133 72.0867 213.748 71.695 212.353 71.7926C212.086 71.8288 211.821 71.8847 211.562 71.9599C211.226 72.0698 210.877 72.1376 210.524 72.1618C210.232 72.1495 209.95 72.0534 209.711 71.8849C209.57 71.817 209.433 71.7419 209.301 71.6599C209.105 71.5214 209.047 71.3022 209.134 70.9618C209.188 70.7628 209.291 70.5804 209.434 70.431C209.614 70.2226 209.824 70.0418 210.057 69.8945C210.859 69.4239 211.769 69.1676 212.699 69.1503C213.615 69.1152 214.53 69.2562 215.393 69.5657C217.102 70.1919 218.595 71.2976 219.691 72.7503C220.577 73.8836 221.127 75.2429 221.278 76.6733C221.347 77.4287 221.283 78.1904 221.087 78.9233C220.908 79.571 220.665 80.1992 220.361 80.7983L220.326 80.7695Z" fill="#3B2C7D"/>
<path d="M199.413 98.775C199.26 99.184 199.253 99.6336 199.394 100.047C199.535 100.461 199.815 100.812 200.186 101.042C200.565 101.223 200.991 101.282 201.405 101.209C201.819 101.137 202.199 100.937 202.494 100.639C202.851 100.281 203.09 99.8235 203.18 99.3266C203.269 98.8297 203.205 98.3172 202.996 97.8577C202.875 97.5969 202.686 97.3737 202.448 97.2122C202.21 97.0506 201.933 96.9567 201.646 96.9404C201.36 96.9419 201.077 97.0068 200.819 97.1305C200.56 97.2542 200.333 97.4336 200.152 97.6558C199.944 97.8639 199.827 98.1461 199.827 98.4404C199.827 98.7347 199.944 99.017 200.152 99.225C200.36 99.4331 200.642 99.55 200.936 99.55C201.231 99.55 201.513 99.4331 201.721 99.225C201.769 99.1671 201.821 99.1131 201.877 99.0635C201.779 99.1385 201.779 99.1327 201.877 99.0635C201.78 99.116 201.672 99.1435 201.562 99.1435C201.453 99.1435 201.344 99.116 201.248 99.0635C201.152 99.0135 201.072 98.9375 201.017 98.8443C201.063 98.9193 201.058 98.925 201.017 98.8443C200.977 98.752 200.971 98.7693 201.017 98.8443C201.017 98.677 201.017 98.6539 201.017 98.7866C201.017 98.9193 201.017 98.902 201.017 98.9597C201.017 98.8097 201.017 98.8039 201.017 98.9308C201.017 99.0577 201.017 99.0347 200.965 99.0866C201.04 98.925 201.046 98.8962 200.994 99L200.965 99.052C200.896 99.1443 200.919 99.1212 201.029 98.9712L200.948 99.0577C200.861 99.1327 200.89 99.1097 201.04 98.9885L200.948 99.0462C200.844 99.0981 200.885 99.0808 201.069 99L200.925 99.0404C201.138 99.0404 201.19 99.0116 201.075 99.0404H200.983C201.202 99.075 201.254 99.0808 201.144 99.0404C201.035 99 201.086 99.0404 201.288 99.0981C201.127 99.0174 201.49 99.2943 201.375 99.1674C201.496 99.3404 201.531 99.375 201.467 99.2827C201.542 99.4789 201.565 99.5193 201.525 99.4154C201.485 99.3116 201.525 99.3462 201.525 99.5481C201.519 99.506 201.519 99.4633 201.525 99.4212C201.473 99.7904 201.525 99.4212 201.554 99.3577C201.63 99.0739 201.591 98.7713 201.444 98.5165C201.298 98.2617 201.056 98.0756 200.772 97.9991C200.488 97.9226 200.186 97.962 199.931 98.1086C199.676 98.2552 199.49 98.497 199.413 98.7808V98.775Z" fill="#3B2C7D"/>
<path d="M99.5488 59.5098C99.6887 59.9475 99.8825 60.3661 100.126 60.7559C100.393 61.1399 100.704 61.4905 101.055 61.8002C101.863 62.4407 102.785 62.9223 103.772 63.2194C104.569 63.4538 105.378 63.6464 106.195 63.7963C107.761 64.1324 109.303 64.5718 110.81 65.1117C112.385 65.6794 113.838 66.5408 115.091 67.6502C115.647 68.1589 116.153 68.7191 116.603 69.3232C117.044 69.9337 117.415 70.5916 117.71 71.2848C118.13 72.2111 118.328 73.2225 118.287 74.2386C118.245 74.7791 118.088 75.3043 117.828 75.7797C117.567 76.2551 117.208 76.6698 116.776 76.9963C116.199 77.3713 116.066 76.8925 116.032 76.2521C116.032 76.0963 116.032 75.9175 115.991 75.7386C115.991 75.6521 115.991 75.5656 115.991 75.479C115.991 75.3925 115.991 75.3059 115.945 75.2136C115.878 74.8997 115.832 74.5817 115.807 74.2617C115.742 72.9177 115.249 71.6298 114.399 70.5867C113.467 69.3683 112.267 68.3811 110.891 67.7021C109.16 66.7732 106.957 66.5021 104.787 66.029C103.511 65.7655 102.276 65.3348 101.112 64.7482C99.8769 64.1313 98.8173 63.2126 98.0315 62.0771C97.5576 61.3823 97.2009 60.6144 96.9757 59.804C96.8591 59.4135 96.7647 59.0167 96.693 58.6156C96.6642 58.4021 96.6354 58.1829 96.618 57.9636C96.6065 57.7465 96.6065 57.5289 96.618 57.3117C96.696 56.0237 97.1359 54.7838 97.8873 53.7348C98.5977 52.7298 99.4806 51.8587 100.495 51.1617C102.048 49.9803 103.928 49.3055 105.878 49.229C106.338 49.2282 106.796 49.2785 107.245 49.379C107.869 49.4987 108.434 49.8261 108.849 50.3079C108.968 50.4526 109.047 50.6254 109.08 50.8098C109.094 50.9907 109.075 51.1727 109.022 51.3463C108.991 51.5044 108.945 51.659 108.883 51.8079C108.647 52.2348 107.914 52.2232 107.153 52.0732C105.982 51.8754 104.78 52.0217 103.691 52.4944C102.492 52.9501 101.417 53.6813 100.553 54.629C99.9421 55.2757 99.5124 56.0715 99.3065 56.9367C99.2209 57.3152 99.2033 57.7059 99.2546 58.0906C99.3274 58.5685 99.4472 59.0381 99.6123 59.4925L99.5488 59.5098Z" fill="#3B2C7D"/>
<path d="M115.615 82.1023C115.667 82.3446 115.586 81.8484 115.615 82.183C115.707 81.9061 115.615 82.3907 115.615 82.183C115.702 81.9984 115.725 81.9465 115.679 82.0215C115.632 82.0965 115.679 82.0561 115.788 81.883C115.702 81.9638 115.742 81.935 115.915 81.7907C115.811 81.8484 115.863 81.8311 116.071 81.7388C115.806 81.8253 116.331 81.7388 116.14 81.7388C115.95 81.7388 116.452 81.8023 116.244 81.7388C116.44 81.8484 116.036 81.6753 116.244 81.7388L116.14 81.6753C116.29 81.7965 116.331 81.8253 116.261 81.7676L116.192 81.6984C116.111 81.6119 116.134 81.6407 116.256 81.7907C116.227 81.7545 116.202 81.7159 116.181 81.6753C116.129 81.5657 116.14 81.5946 116.215 81.7676L116.146 81.5253C116.215 81.7965 116.146 81.4503 116.146 81.3638C116.146 81.5311 116.146 81.5484 116.146 81.4215C116.071 81.5773 116.065 81.6003 116.146 81.485C116.227 81.3696 115.996 81.6407 115.956 81.6638C115.856 81.7247 115.742 81.7598 115.625 81.7659C115.508 81.7719 115.392 81.7487 115.286 81.6984C115.171 81.6061 115.177 81.6003 115.286 81.6984C115.345 81.7559 115.399 81.8176 115.448 81.883C115.558 81.9929 115.688 82.0801 115.832 82.1396C115.975 82.1991 116.129 82.2297 116.284 82.2297C116.44 82.2297 116.594 82.1991 116.737 82.1396C116.881 82.0801 117.011 81.9929 117.121 81.883C117.333 81.6563 117.452 81.3572 117.452 81.0465C117.452 80.7357 117.333 80.4366 117.121 80.2099C116.937 79.9627 116.699 79.7609 116.425 79.6199C116.151 79.4789 115.848 79.4025 115.54 79.3965C115.233 79.4114 114.935 79.5081 114.677 79.6764C114.42 79.8447 114.212 80.0787 114.075 80.3542C113.837 80.8378 113.751 81.3821 113.828 81.9154C113.906 82.4488 114.142 82.9463 114.507 83.3426C114.781 83.6444 115.134 83.863 115.525 83.9732C115.917 84.0834 116.332 84.0808 116.723 83.9657C117.819 83.5965 118.108 82.4657 117.877 81.4446C117.792 81.1433 117.592 80.8877 117.319 80.7333C117.047 80.5788 116.725 80.5379 116.423 80.6196C116.124 80.7083 115.871 80.9093 115.718 81.1803C115.564 81.4514 115.521 81.7714 115.598 82.0734L115.615 82.1023Z" fill="#3B2C7D"/>
<g opacity="0.3">
<path d="M141.237 57.5023C141.099 57.2311 141.347 56.9946 141.814 56.8042C142.038 56.7345 142.277 56.7345 142.501 56.8042C142.63 56.9368 142.746 57.0817 142.847 57.2369C142.887 57.3234 143.182 58.7311 143.32 59.1984C143.443 59.6535 143.524 60.1189 143.562 60.5888C143.672 61.5407 143.828 62.4869 143.978 63.433C144.012 63.6466 144.024 63.8632 144.012 64.0792C143.993 64.8152 144.083 65.55 144.278 66.26C144.29 66.3851 144.336 66.5045 144.41 66.6061C144.692 67.3701 144.885 68.1637 144.987 68.9715C144.981 69.6187 145.01 70.2658 145.074 70.91C145.074 71.0023 145.132 71.0888 145.074 71.1927C144.924 71.435 145.016 71.608 145.074 71.8042C145.125 72.0751 145.162 72.3486 145.183 72.6234C145.171 72.7791 145.138 72.9324 145.085 73.0792C145.051 73.2177 144.768 73.2523 144.722 73.2234C144.676 73.1946 144.508 73.2753 144.405 73.3215C144.367 73.3399 144.329 73.3553 144.289 73.3677C144.076 73.1513 143.883 72.9157 143.712 72.6638C143.492 72.3949 143.299 72.1051 143.135 71.7984C143.135 71.7984 142.922 71.2215 142.703 70.5927C142.483 69.9638 142.282 69.3523 142.23 69.2254C142.19 69.0868 142.176 68.942 142.189 68.7984C142.189 68.7292 141.612 66.8888 141.612 66.8138C141.504 66.4274 141.478 66.0224 141.537 65.6254C141.558 65.5478 141.558 65.4664 141.537 65.3888C141.418 64.7215 141.345 64.0469 141.318 63.3696C141.318 63.0234 141.22 62.683 141.18 62.3369C141.174 62.2736 141.174 62.2098 141.18 62.1465C141.188 62.0679 141.188 61.9886 141.18 61.91C141.058 61.0965 141.076 60.2715 140.926 59.4523C140.926 59.2619 141.053 58.3446 141.018 58.1254C140.989 58.0215 141.289 57.6119 141.237 57.5023Z" fill="#3B2C7D"/>
</g>
<path d="M172.985 86.6829C172.95 86.9137 172.673 86.8906 172.246 86.7175C172.061 86.6216 171.902 86.4808 171.785 86.3079C171.76 86.1612 171.748 86.0125 171.75 85.8637C171.75 85.7829 172.246 84.8483 172.385 84.5137C172.53 84.2023 172.71 83.9082 172.921 83.6367C173.325 83.0598 173.706 82.4829 174.075 81.906C174.167 81.7785 174.273 81.6624 174.392 81.5598C174.793 81.1945 175.13 80.7657 175.391 80.2906C175.449 80.2188 175.482 80.1294 175.483 80.0367C175.731 79.4863 176.064 78.9782 176.469 78.531C176.879 78.2367 177.237 77.9079 177.623 77.6021C177.681 77.5617 177.71 77.4925 177.814 77.4867C177.896 77.4821 177.975 77.4583 178.047 77.4172C178.118 77.3761 178.178 77.3189 178.223 77.2502C178.37 77.1018 178.528 76.9648 178.696 76.8406C178.8 76.7845 178.911 76.7419 179.025 76.7137C179.129 76.6791 179.267 76.8464 179.267 76.8867C179.267 76.9271 179.394 77.0021 179.469 77.0483C179.499 77.0608 179.526 77.0783 179.55 77.1002C179.523 77.3202 179.48 77.538 179.423 77.7521C179.354 78.081 179.285 78.4214 179.256 78.4791C179.227 78.5367 179.204 78.5887 179.135 78.7387C179.066 78.8887 178.962 79.0906 178.864 79.3156C178.667 79.7252 178.46 80.1464 178.414 80.2329C178.36 80.3209 178.287 80.3957 178.2 80.4521C178.171 80.4867 177.542 81.6925 177.502 81.7329C177.323 81.9521 177.219 82.2233 176.925 82.356C176.867 82.356 176.844 82.431 176.816 82.4829C176.54 82.8906 176.233 83.2764 175.898 83.6367C175.737 83.8271 175.61 84.0464 175.46 84.2425C175.46 84.2829 175.385 84.3002 175.35 84.329C175.316 84.3579 175.252 84.3983 175.223 84.4502C174.883 84.9348 174.456 85.3502 174.15 85.8637C174.081 85.9848 173.516 86.3714 173.435 86.5098C173.354 86.6483 172.996 86.5964 172.985 86.6829Z" fill="#3B2C7D"/>
<g opacity="0.3">
<path d="M75.8141 95.6946C75.5891 95.6081 75.6295 95.3369 75.8141 94.9561C75.8718 94.8292 76.1545 94.5811 76.2411 94.5927C76.3953 94.6043 76.548 94.6313 76.6968 94.6734C76.7776 94.6734 77.7353 95.4465 78.0757 95.6946C78.3944 95.9337 78.6864 96.2064 78.9468 96.5081L80.5853 98.285C80.7034 98.4192 80.8059 98.5663 80.8911 98.7234C81.1914 99.2586 81.5642 99.7497 81.9987 100.183C82.0584 100.272 82.1456 100.339 82.2468 100.373C82.7673 100.814 83.2151 101.334 83.5737 101.914C83.7872 102.422 84.0411 102.9 84.2776 103.391C84.3122 103.46 84.3814 103.506 84.3526 103.616C84.2949 103.864 84.4218 103.973 84.5084 104.112C84.6335 104.307 84.7397 104.514 84.8257 104.729C84.8493 104.865 84.8493 105.003 84.8257 105.139C84.8257 105.266 84.5487 105.404 84.5026 105.398C84.3641 105.398 84.3007 105.525 84.2084 105.612L84.1045 105.693C83.6248 105.48 83.1701 105.215 82.7487 104.902L82.0622 104.164C81.7103 103.795 81.3468 103.414 81.2603 103.339C81.1845 103.251 81.1275 103.149 81.093 103.039C81.093 102.998 80.0084 101.885 79.9795 101.85C79.7599 101.618 79.5978 101.337 79.5064 101.031C79.4903 100.969 79.4562 100.913 79.4084 100.87C79.0698 100.448 78.7558 100.007 78.468 99.5484C78.318 99.3177 78.1218 99.1215 77.9545 98.9023C77.9265 98.8596 77.9051 98.8129 77.8911 98.7638C77.8673 98.7045 77.8363 98.6483 77.7988 98.5965C77.3718 98.1061 77.0257 97.5465 76.5526 97.0965C76.443 96.9927 76.1199 96.3234 75.9757 96.2081C75.8314 96.0927 75.9064 95.7292 75.8141 95.6946Z" fill="#3B2C7D"/>
</g>
<path d="M80.769 186.623L77.7055 185.92C77.3305 185.827 76.9555 185.77 76.5517 185.677C75.2478 185.343 73.944 184.985 72.6517 184.621C72.0747 184.466 71.4978 184.321 70.9209 184.183C70.17 184.043 69.4327 183.838 68.717 183.571C68.2786 183.387 69.0863 182.695 69.9343 182.879C71.4459 183.22 72.9343 183.606 74.4228 184.091C75.3113 184.379 76.269 184.541 77.1978 184.748L80.2728 185.418L82.1709 185.81C83.1343 185.995 84.0978 186.202 85.0555 186.387C85.8055 186.514 86.5497 186.589 87.294 186.704C87.4613 186.704 87.6228 186.739 87.7901 186.773C88.367 186.9 88.569 187.021 88.6209 187.35C88.6404 187.426 88.652 187.503 88.6555 187.581C88.6555 187.829 88.3613 187.962 87.917 187.921C86.5455 187.778 85.1821 187.564 83.8324 187.281L80.769 186.652V186.623Z" fill="#3B2C7D"/>
<path d="M76.4885 194.856L75.0058 194.527C74.8269 194.492 74.6423 194.469 74.4577 194.429C73.8231 194.291 73.1827 194.129 72.5481 193.967C72.2654 193.898 71.9712 193.835 71.6943 193.777C71.3202 193.722 70.9565 193.611 70.6154 193.448C70.4077 193.333 70.9039 192.831 71.2846 192.946C71.9827 193.137 72.6981 193.31 73.425 193.523C73.8577 193.656 74.325 193.702 74.7808 193.794L76.2808 194.1L77.2096 194.296L78.6058 194.619C78.9693 194.7 79.3327 194.752 79.6962 194.839C79.777 194.839 79.8577 194.867 79.9327 194.896C80.227 194.994 80.3019 195.075 80.2962 195.271C80.2962 195.312 80.2962 195.358 80.2962 195.398C80.2962 195.542 80.1116 195.606 79.8981 195.577C79.2635 195.485 78.6231 195.346 77.9654 195.191L76.4885 194.862V194.856Z" fill="#3B2C7D"/>
</svg>
