<svg width="300" height="300" viewBox="0 0 300 300" fill="none" xmlns="http://www.w3.org/2000/svg">
<path d="M90.1039 170.412C89.9135 170.729 89.7173 171.041 89.527 171.352C89.4577 171.467 89.4058 171.594 89.325 171.704C89.0416 172.096 88.7333 172.47 88.402 172.823C88.2577 172.985 88.1193 173.146 87.9924 173.319C87.8512 173.573 87.6329 173.775 87.3693 173.896C87.2827 173.925 87.1327 173.706 87.0231 173.464C86.9135 173.221 86.8327 172.95 86.9193 172.887C87.2424 172.558 87.5654 172.217 87.9635 171.877C88.1795 171.649 88.3603 171.391 88.5 171.11C88.6847 170.816 88.8693 170.533 89.077 170.21C89.1808 170.019 89.2904 169.829 89.3885 169.633C89.5433 169.339 89.682 169.036 89.8039 168.727C89.8847 168.479 89.9308 168.225 90 167.977C90.0132 167.921 90.0325 167.867 90.0577 167.816C90.1616 167.631 90.2712 167.602 90.4847 167.642L90.6231 167.671C90.6992 167.696 90.7663 167.743 90.8164 167.805C90.8666 167.868 90.8976 167.944 90.9058 168.023C90.9636 168.517 90.8753 169.016 90.652 169.46C90.5077 169.794 90.3347 170.123 90.1673 170.452L90.1039 170.412Z" fill="#3B2C7D"/>
<path d="M164.516 131.931C164.354 131.532 164.161 131.146 163.939 130.777C163.853 130.644 163.737 130.529 163.651 130.384C163.333 129.894 162.99 129.42 162.624 128.965C162.446 128.77 162.253 128.588 162.047 128.423C161.774 128.232 161.524 128.009 161.303 127.759C161.239 127.673 161.355 127.529 161.534 127.431C161.626 127.373 161.73 127.337 161.838 127.326C161.946 127.315 162.055 127.329 162.157 127.367C162.789 127.736 163.337 128.234 163.766 128.827C164.02 129.179 164.343 129.496 164.614 129.854C164.908 130.251 165.168 130.672 165.393 131.111C165.535 131.383 165.662 131.662 165.774 131.948C165.941 132.376 166.068 132.818 166.155 133.269C166.201 133.448 166.235 133.633 166.27 133.846C166.311 134.035 166.327 134.229 166.316 134.423C166.325 134.513 166.325 134.604 166.316 134.694C166.284 134.817 166.208 134.923 166.103 134.994C165.992 135.028 165.873 135.028 165.762 134.994C165.704 134.986 165.646 134.975 165.589 134.959C165.497 134.928 165.416 134.872 165.353 134.798C165.274 134.725 165.215 134.634 165.18 134.533C165.035 134.019 165.024 133.609 164.891 133.084C164.796 132.687 164.661 132.301 164.487 131.931H164.516Z" fill="#3B2C7D"/>
<path d="M100.445 118.483C100.782 117.886 101.212 117.346 101.72 116.885L102.377 116.221L102.481 116.112L102.516 116.071C102.545 116.071 102.556 115.99 102.516 115.985C102.492 115.968 102.464 115.956 102.435 115.95L102.181 115.887C101.989 115.872 101.796 115.872 101.604 115.887C100.829 115.956 100.067 116.137 99.3427 116.423C98.5668 116.707 97.7751 116.946 96.9716 117.138C96.2204 117.313 95.4366 117.287 94.6985 117.064C94.4378 116.997 94.1943 116.876 93.9844 116.708C93.7744 116.54 93.6029 116.328 93.4812 116.089C93.2823 115.596 93.2823 115.046 93.4812 114.554C93.5908 114.26 93.7466 114.369 93.8504 114.64C93.9543 114.912 94.0524 115.344 94.162 115.667C94.218 115.821 94.3085 115.96 94.4265 116.073C94.5445 116.186 94.6869 116.27 94.8427 116.319C95.2237 116.458 95.6259 116.528 96.0312 116.527C96.9243 116.453 97.8033 116.259 98.6447 115.95C99.187 115.783 99.735 115.575 100.312 115.408C100.911 115.215 101.543 115.144 102.17 115.2C102.317 115.214 102.462 115.245 102.602 115.292C102.803 115.351 102.997 115.432 103.179 115.535L103.37 115.714C103.421 115.788 103.441 115.878 103.427 115.967C103.391 116.155 103.308 116.329 103.185 116.475C103.087 116.596 102.983 116.711 102.874 116.821L102.608 117.098C102.25 117.462 101.893 117.814 101.581 118.189C101.347 118.44 101.175 118.742 101.079 119.071C101.064 119.13 101.066 119.192 101.086 119.249C101.105 119.306 101.141 119.357 101.189 119.394L101.374 119.556L101.604 119.677C102.126 119.9 102.687 120.018 103.254 120.023C103.832 120.051 104.41 120.034 104.985 119.971C105.877 119.862 106.761 119.7 107.633 119.487L108.21 119.342C108.931 119.169 109.162 119.129 109.364 119.198C109.404 119.198 109.456 119.227 109.485 119.244C109.514 119.262 109.312 119.469 108.793 119.654C107.182 120.251 105.489 120.595 103.774 120.675C103.088 120.715 102.401 120.647 101.737 120.473C101.556 120.423 101.38 120.355 101.212 120.271C101.125 120.219 101.039 120.185 100.958 120.127L100.71 119.925C100.604 119.836 100.517 119.726 100.454 119.602C100.392 119.478 100.355 119.342 100.347 119.204C100.336 118.967 100.383 118.731 100.485 118.517L100.445 118.483Z" fill="#3B2C7D"/>
<path d="M123.055 113.377C123.403 113.257 123.732 113.086 124.03 112.869C124.107 112.8 124.171 112.718 124.22 112.627C124.399 112.373 124.122 111.9 123.787 111.548C123.634 111.383 123.466 111.232 123.285 111.098C123.037 110.935 122.81 110.741 122.61 110.521C122.495 110.377 122.991 110.14 123.257 110.336C123.779 110.694 124.224 111.153 124.566 111.686C124.683 111.878 124.765 112.089 124.808 112.309C124.845 112.559 124.783 112.814 124.635 113.019C124.345 113.363 123.971 113.627 123.551 113.786C123.32 113.896 123.089 113.988 122.858 114.086C122.628 114.184 122.357 114.3 122.282 114.346L122.189 114.398C122.189 114.398 122.126 114.438 122.189 114.467C122.247 114.527 122.316 114.576 122.391 114.611L122.449 114.64L122.541 114.704C122.602 114.748 122.659 114.796 122.714 114.848C122.768 114.889 122.818 114.936 122.864 114.986C123.037 115.182 123.043 115.298 122.968 115.407C122.893 115.517 122.933 115.459 122.91 115.477C122.887 115.494 122.726 115.477 122.599 115.413C122.472 115.35 122.408 115.292 122.305 115.234C122.201 115.177 122.195 115.182 122.143 115.148L122.068 115.096L121.924 114.986C121.716 114.842 121.514 114.657 121.491 114.496C121.468 114.334 121.589 114.156 121.699 114.011L121.785 113.965L122.045 113.827L122.178 113.757L122.258 113.717L122.541 113.59L123.118 113.348L123.055 113.377Z" fill="#3B2C7D"/>
<path d="M117.418 125.129C117.366 124.996 117.389 125.244 117.302 125.308C117.277 125.325 117.25 125.341 117.222 125.354C117.193 125.325 117.17 125.319 117.152 125.279L117.187 125.1C117.201 125.06 117.228 125.027 117.264 125.005C117.3 124.983 117.342 124.974 117.383 124.979C117.383 124.938 117.533 125.048 117.383 124.938C117.322 124.894 117.253 124.864 117.18 124.848C117.106 124.832 117.031 124.832 116.957 124.848C116.884 124.863 116.815 124.894 116.754 124.938C116.693 124.982 116.642 125.038 116.605 125.103C116.567 125.168 116.543 125.24 116.535 125.315C116.527 125.389 116.535 125.465 116.557 125.536C116.58 125.607 116.618 125.673 116.668 125.729C116.717 125.785 116.778 125.83 116.847 125.861C116.939 125.93 117.044 125.981 117.156 126.009C117.268 126.037 117.384 126.044 117.498 126.027C117.612 126.01 117.722 125.971 117.821 125.912C117.92 125.853 118.007 125.775 118.076 125.683C118.187 125.499 118.228 125.281 118.192 125.069C118.156 124.857 118.045 124.665 117.879 124.529C117.245 123.986 116.027 124.529 116.408 125.417C116.447 125.553 116.538 125.668 116.661 125.738C116.784 125.808 116.929 125.828 117.066 125.792C117.202 125.753 117.316 125.662 117.386 125.539C117.455 125.416 117.473 125.271 117.435 125.134L117.418 125.129Z" fill="#3B2C7D"/>
<path d="M179.286 221.539C179.853 221.555 180.405 221.724 180.884 222.029C181.016 222.11 180.953 222.242 180.774 222.225C180.422 222.196 180.076 222.144 179.724 222.127C179.05 222.082 178.373 222.082 177.699 222.127C176.794 222.219 175.902 222.413 175.039 222.704C173.977 223.069 172.949 223.531 171.97 224.083C169.965 225.238 168.103 226.625 166.42 228.214L165.266 229.258C163.965 230.467 162.744 231.758 161.609 233.123C161.418 233.348 161.216 233.579 161.032 233.81L159.237 236.117L157.426 238.535C156.474 239.764 155.568 241.033 154.686 242.319C154.559 242.498 154.437 242.706 154.305 242.862C154.009 243.227 153.739 243.612 153.497 244.016C153.139 244.592 152.782 245.135 152.424 245.706L151.847 246.525C151.68 246.767 151.697 246.594 151.737 246.496C151.87 246.225 151.737 246.421 151.674 246.427C151.611 246.433 151.639 246.427 151.639 246.427L151.714 246.271L151.916 245.867C152.095 245.533 152.326 245.089 152.557 244.639C153.036 243.733 153.578 242.804 153.711 242.625L154.212 241.817L155.309 240.087C156.134 238.829 157.039 237.537 157.218 237.277C157.397 237.017 157.616 236.735 157.83 236.475C157.876 236.412 158.562 235.466 159.278 234.537C159.993 233.608 160.737 232.691 160.801 232.627C161.39 231.898 162.02 231.203 162.687 230.544C162.82 230.417 162.947 230.273 163.074 230.135C164.175 228.95 165.346 227.832 166.582 226.789C167.205 226.252 167.851 225.727 168.509 225.225L168.884 224.971L169.351 224.654C170.96 223.502 172.729 222.591 174.601 221.948L175.178 221.769C175.443 221.694 175.755 221.642 176.107 221.579C176.421 221.516 176.739 221.474 177.059 221.452C177.347 221.452 177.578 221.389 177.711 221.394C177.843 221.4 178.178 221.394 178.489 221.429C178.801 221.464 179.153 221.567 179.286 221.539Z" fill="#3B2C7D"/>
<path d="M212.747 244.835C213.107 245.116 213.379 245.494 213.531 245.925C213.539 245.954 213.539 245.985 213.529 246.014C213.519 246.043 213.501 246.068 213.476 246.086C213.452 246.104 213.423 246.115 213.392 246.116C213.362 246.117 213.332 246.109 213.306 246.092C213.064 245.942 212.816 245.792 212.579 245.631L212.147 245.302L211.247 244.696C210.635 244.32 209.999 243.985 209.343 243.692C208.568 243.332 207.755 243.061 206.92 242.885C206.082 242.73 205.226 242.705 204.381 242.81C203.533 242.952 202.706 243.198 201.918 243.542C201.577 243.721 201.214 243.86 200.868 244.05C199.66 244.697 198.565 245.534 197.625 246.531C197.454 246.685 197.299 246.857 197.164 247.044C197.06 247.2 196.368 247.956 195.716 248.775C195.064 249.594 194.447 250.477 194.291 250.667C193.541 251.637 192.86 252.664 192.191 253.696C192.103 253.849 192.005 253.996 191.897 254.135C191.655 254.43 191.448 254.751 191.279 255.092L190.489 256.477C190.356 256.702 190.2 256.915 190.056 257.135C189.912 257.354 189.895 257.175 189.918 257.094C189.993 256.864 189.866 257.019 189.82 257.019C189.773 257.019 189.779 257.019 189.773 257.019L189.82 256.881L189.941 256.546L190.339 255.514C190.633 254.746 190.991 253.967 191.072 253.817L191.418 253.142C191.625 252.75 191.902 252.225 192.208 251.706C192.785 250.656 193.5 249.6 193.639 249.398C193.792 249.174 193.958 248.958 194.135 248.752C194.17 248.706 194.712 247.927 195.289 247.189C195.866 246.45 196.523 245.729 196.581 245.677C196.847 245.406 197.112 245.129 197.4 244.875C197.678 244.607 197.981 244.367 198.306 244.16C198.434 244.072 198.555 243.976 198.67 243.871C199.717 243.028 200.899 242.367 202.166 241.915L203.164 241.61C203.504 241.535 203.85 241.471 204.197 241.408C204.323 241.408 204.45 241.408 204.577 241.408H205.056C206.706 241.384 208.337 241.766 209.804 242.521C209.885 242.562 210.047 242.654 210.237 242.769L210.554 242.954L210.872 243.196C211.298 243.531 211.731 243.86 211.887 244.004C212.043 244.148 212.585 244.708 212.747 244.835Z" fill="#3B2C7D"/>
<path d="M131.495 273.975C128.162 274.134 124.842 274.502 121.554 275.077L119.76 275.434L117.977 275.838C115.883 276.294 113.824 276.906 111.706 277.448C109.595 277.999 107.458 278.444 105.302 278.781C103.392 279.079 101.466 279.258 99.5332 279.317C97.0502 279.417 94.5642 279.212 92.1313 278.706C91.3813 278.544 91.5544 278.267 92.2236 278.088C93.2934 277.867 94.391 277.812 95.4774 277.927C97.9195 278.14 100.376 278.129 102.816 277.892C105.279 277.628 107.724 277.214 110.137 276.652C113.022 276.017 116.045 274.921 119.097 274.344C122.437 273.622 125.824 273.134 129.233 272.884C130.277 272.781 131.333 272.769 132.377 272.706C133.422 272.642 134.477 272.659 135.527 272.642C138.706 272.642 141.874 272.838 145.029 273.127C147.464 273.34 149.858 273.588 152.252 273.934L153.833 274.171C155.795 274.529 156.395 274.748 156.752 275.129C156.839 275.204 156.918 275.287 156.989 275.377C157.133 275.631 156.297 275.654 154.86 275.469C150.608 274.892 146.131 274.315 141.591 274.056C138.231 273.854 134.862 273.842 131.501 274.021L131.495 273.975Z" fill="#3B2C7D"/>
<path d="M125.448 268.99C123.845 269.025 95.31 273.865 98.9446 277.644C100.629 279.415 122.443 274.419 124.168 272.631C125.096 271.69 125.131 270.04 125.448 268.99Z" fill="#3B2C7D"/>
<path d="M105.906 278.435C104.753 278.59 103.599 278.717 102.376 278.786C101.77 278.818 101.164 278.818 100.558 278.786C100.234 278.777 99.9098 278.746 99.5891 278.694C99.3934 278.661 99.2005 278.613 99.0122 278.55C98.7705 278.465 98.5501 278.33 98.366 278.152C98.1419 277.931 97.9846 277.652 97.9122 277.345C97.8397 277.039 97.855 276.719 97.9564 276.421C98.1321 275.96 98.4365 275.56 98.8333 275.267C99.7864 274.576 100.839 274.033 101.954 273.658C102.889 273.317 103.829 273.029 104.77 272.763C105.71 272.498 106.651 272.221 107.597 271.979C109.483 271.488 111.387 271.079 113.297 270.686C114.987 270.34 116.683 269.971 118.362 269.648C120.518 269.169 122.707 268.856 124.91 268.713C125.256 268.713 125.429 268.748 125.418 268.811C125.406 268.875 125.245 268.973 124.974 269.106C124.703 269.238 124.31 269.406 123.82 269.59C123.583 269.683 123.329 269.781 123.053 269.873L122.631 270.011L122.181 270.11C117.808 271.015 113.418 271.84 109.033 272.792C107.718 273.081 106.391 273.415 105.081 273.831C103.783 274.248 102.512 274.743 101.274 275.313C100.694 275.575 100.146 275.902 99.641 276.288C99.4576 276.425 99.3061 276.601 99.1968 276.802C99.1742 276.864 99.1703 276.932 99.1857 276.997C99.2011 277.061 99.235 277.12 99.2833 277.165C99.3295 277.263 99.716 277.344 100.085 277.379C100.478 277.417 100.873 277.428 101.268 277.413C102.076 277.413 102.895 277.327 103.708 277.24C105.549 277.038 107.395 276.744 109.224 276.41C111.993 275.885 114.774 275.29 117.474 274.54C118.52 274.252 119.545 273.925 120.549 273.56C121.531 273.23 122.483 272.814 123.393 272.319C123.482 272.264 123.565 272.201 123.641 272.129C123.785 271.943 123.905 271.739 123.999 271.523C124.287 270.848 124.379 270.271 124.541 269.896C124.633 269.582 124.839 269.312 125.118 269.14C125.221 269.068 125.334 269.01 125.453 268.967C125.626 268.938 125.718 269.106 125.77 269.423C125.824 269.929 125.803 270.441 125.706 270.94C125.595 271.765 125.255 272.542 124.726 273.185C124.524 273.391 124.293 273.567 124.039 273.704C123.831 273.831 123.629 273.929 123.433 274.027C123.035 274.217 122.643 274.379 122.245 274.535C121.454 274.846 120.653 275.111 119.845 275.365C118.224 275.867 116.574 276.294 114.912 276.686C111.928 277.39 108.91 277.967 105.86 278.417L105.906 278.435Z" fill="#3B2C7D"/>
<path d="M126.216 269.106C127.808 268.904 155.062 269.913 152.651 273.092C151.179 275.048 129.366 274.067 127.404 272.544C126.889 272.153 126.501 271.617 126.289 271.005C126.078 270.393 126.052 269.732 126.216 269.106Z" fill="#3B2C7D"/>
<path d="M145.576 273.283C146.73 273.283 147.883 273.283 149.037 273.179C149.614 273.133 150.191 273.087 150.728 272.994C150.992 272.956 151.254 272.904 151.512 272.839C151.583 272.826 151.652 272.8 151.714 272.764C151.742 272.75 151.763 272.726 151.774 272.697C151.785 272.668 151.784 272.636 151.772 272.608C151.744 272.552 151.7 272.506 151.645 272.475H151.605L151.472 272.406C151.362 272.366 151.258 272.308 151.143 272.267C150.918 272.175 150.682 272.1 150.439 272.025C149.96 271.875 149.458 271.748 148.957 271.621C148.068 271.402 147.162 271.217 146.251 271.044C145.339 270.871 144.416 270.767 143.493 270.646C141.647 270.41 139.795 270.202 137.937 270.035C136.293 269.885 134.626 269.798 132.987 269.723L129.82 269.591C128.77 269.591 127.714 269.423 126.67 269.366C126.341 269.366 126.214 269.302 126.214 269.239C126.214 269.175 126.37 269.071 126.647 268.967C127.024 268.836 127.41 268.73 127.801 268.65C128.043 268.598 128.303 268.546 128.585 268.506L129.012 268.448H129.462C133.824 268.45 138.18 268.751 142.501 269.348L146.453 269.925C147.802 270.091 149.141 270.335 150.462 270.658C150.762 270.739 151.068 270.825 151.368 270.929L151.824 271.096C151.991 271.164 152.155 271.241 152.314 271.327C152.738 271.526 153.088 271.856 153.312 272.267C153.394 272.471 153.416 272.693 153.376 272.908C153.33 273.121 153.23 273.32 153.087 273.485C152.967 273.592 152.838 273.689 152.701 273.773C152.568 273.87 152.42 273.944 152.262 273.992L152.026 274.079L151.824 274.142L151.489 274.223C151.039 274.321 150.595 274.385 150.156 274.437C149.28 274.535 148.426 274.587 147.537 274.627C145.72 274.696 143.903 274.685 142.097 274.627C139.357 274.564 136.61 274.391 133.899 274.171C132.843 274.085 131.793 274.004 130.749 273.9C130.224 273.842 129.699 273.785 129.168 273.698C128.611 273.623 128.062 273.494 127.53 273.312C126.923 273.051 126.407 272.615 126.049 272.06C125.69 271.506 125.505 270.857 125.516 270.196C125.516 270.024 125.557 269.854 125.635 269.701C125.713 269.547 125.827 269.415 125.966 269.314C126.066 269.238 126.174 269.174 126.289 269.123C126.462 269.083 126.56 269.25 126.647 269.533C126.736 269.924 126.847 270.309 126.982 270.687C127.107 271.018 127.304 271.317 127.558 271.564C127.676 271.685 127.81 271.79 127.956 271.875H128.008L128.118 271.91C128.207 271.942 128.297 271.969 128.389 271.991C129.277 272.192 130.177 272.338 131.083 272.429C132.964 272.648 134.908 272.81 136.853 272.937C139.737 273.127 142.668 273.254 145.564 273.231L145.576 273.283Z" fill="#3B2C7D"/>
<path d="M95.5508 162.259C95.5508 162.259 107.885 240.467 108.41 243.213C108.935 245.959 114.18 270.438 114.18 270.438L126.191 269.106C126.191 269.106 134.983 267.698 136.414 268.638C136.414 268.638 135.307 202.777 134.107 194.515L131.222 161.054C127.02 163.148 122.586 164.738 118.01 165.79C109.83 167.746 95.5508 162.259 95.5508 162.259Z" fill="#3B2C7D"/>
<path d="M76.4214 81.6348C76.4214 81.6348 73.3175 83.7809 72.5618 83.7348C71.806 83.6886 72.0483 86.4578 75.7118 86.7809C77.9259 86.2818 79.8871 85.0043 81.2387 83.1809C81.2387 83.1809 76.0983 83.4059 76.4214 81.6348Z" fill="#3B2C7D"/>
<path d="M73.847 73.4019C73.847 73.4019 74.3547 70.5635 77.9489 71.5385C81.5431 72.5135 83.3547 76.4942 84.9066 76.2058C84.9066 76.2058 88.2066 76.2058 87.6643 75.2538C87.122 74.3019 82.472 68.3308 82.772 62.6135C82.772 62.6135 82.3393 58.6615 84.0643 56.2673C84.0643 56.2673 104.141 54.5827 109.051 51.6C130.178 38.7115 116.274 23.7519 114.982 22.5C114.982 22.5 111.843 26.9423 108.497 28.6962C108.497 28.6962 95.6431 22.8577 87.7623 29.0769C85.3753 30.9125 83.3876 33.2155 81.9205 35.8451C80.4535 38.4747 79.5379 41.3758 79.2297 44.3712C79.2297 44.3712 71.02 44.1173 67.3566 46.7596C67.3566 46.7596 61.5873 50.2212 61.0104 56.2385C60.4335 62.2558 64.1777 70.875 73.847 73.4019Z" fill="#3B2C7D"/>
<path d="M113.234 95.7343C111.887 96.2987 110.453 96.6285 108.994 96.7093C107.57 96.7673 106.144 96.6647 104.742 96.4036L103.236 96.0805C102.74 95.942 102.238 95.8266 101.759 95.6536C100.058 95.0739 98.4211 94.3219 96.8729 93.4093C95.3541 92.484 93.9024 91.4526 92.5287 90.3228C91.2822 89.3476 90.1133 88.277 89.0326 87.1209C88.3422 86.3697 87.7223 85.5567 87.1806 84.692C86.6281 83.8407 86.217 82.9055 85.9633 81.9228C85.8076 81.3055 86.0037 81.3459 86.4249 81.7266C86.6326 81.9228 86.9095 82.1997 87.2326 82.5228C87.56 82.8994 87.8607 83.2985 88.1326 83.717C88.6581 84.5309 89.2464 85.3025 89.8922 86.0247C90.5301 86.7579 91.2121 87.4515 91.9345 88.1016C93.4154 89.4248 94.9761 90.6559 96.6076 91.7882C98.6433 93.1162 100.88 94.1078 103.231 94.7247C105.773 95.5003 108.47 95.6194 111.071 95.0709C112.637 94.6943 114.083 93.926 115.271 92.8382C116.135 91.9893 116.793 90.9529 117.192 89.8093C117.584 88.6371 117.79 87.4107 117.804 86.1747C117.784 84.2447 117.643 82.3179 117.383 80.4055C117.342 79.9728 117.29 79.5574 117.261 79.1189C117.227 77.4978 117.359 76.967 117.573 76.6151C117.613 76.5363 117.659 76.461 117.711 76.3901C117.867 76.2401 118.006 76.8863 118.254 78.0286C118.45 78.8766 118.606 79.7593 118.756 80.6247L118.986 81.9632C119.05 82.419 119.09 82.8747 119.131 83.3363C119.328 85.2621 119.236 87.2066 118.859 89.1055C118.54 90.6001 117.867 91.9966 116.898 93.1786C115.907 94.3358 114.661 95.2464 113.258 95.8382L113.234 95.7343Z" fill="#3B2C7D"/>
<path d="M117.474 72.5076C117.26 71.9648 116.945 71.4676 116.545 71.0422C116.106 70.544 115.631 70.0775 115.126 69.646C114.751 69.323 114.341 69.0691 113.972 68.723C112.593 67.6095 111.134 66.5422 109.72 65.3941C109.091 64.8807 108.451 64.3787 107.851 63.8249C107.446 63.4722 107.084 63.0733 106.772 62.6364C106.436 62.1715 106.236 61.6221 106.195 61.0499C106.195 60.6749 106.42 60.7557 106.686 60.9749C107.02 61.2353 107.331 61.5249 107.615 61.8403C108.244 62.5687 108.943 63.2335 109.703 63.8249L112.126 65.723C113.101 66.5076 114.226 67.1768 115.265 67.9614C116.473 68.8101 117.54 69.8439 118.426 71.0249C118.707 71.4406 118.916 71.9009 119.043 72.3864L119.118 72.7903C119.128 72.9529 119.114 73.1161 119.078 73.2749C119.006 73.5666 118.863 73.8361 118.663 74.0595C118.146 74.612 117.487 75.0113 116.759 75.2134C116.087 75.4204 115.39 75.5349 114.688 75.5537C113.605 75.6026 112.523 75.458 111.491 75.1268C111.261 75.0518 111.041 74.971 110.816 74.873C110.02 74.4576 109.876 74.146 109.951 73.7191C109.965 73.6234 109.986 73.5289 110.015 73.4364C110.136 73.1422 110.54 73.1537 111.076 73.321C111.838 73.6017 112.63 73.7952 113.436 73.898C114.226 73.9862 115.026 73.9551 115.807 73.8057C116.331 73.7147 116.832 73.5184 117.278 73.2287C117.389 73.1526 117.485 73.0568 117.561 72.946C117.561 72.946 117.561 72.946 117.561 72.8537C117.548 72.7429 117.521 72.6343 117.48 72.5307L117.474 72.5076Z" fill="#3B2C7D"/>
<path d="M114.855 63.3288C114.905 63.7986 114.905 64.2724 114.855 64.7422C114.824 65.3074 114.612 65.8475 114.25 66.2826C113.948 66.6179 113.541 66.8398 113.096 66.9115C112.439 66.9647 111.782 66.8071 111.221 66.4615C110.727 66.1796 110.264 65.8491 109.836 65.4749L108.728 64.523C108.253 64.1333 107.83 63.6834 107.471 63.1845C107.361 63.023 107.505 62.9134 107.753 62.8961C108.067 62.8696 108.38 62.9555 108.636 63.1384C109.577 63.9172 110.453 64.7307 111.394 65.3768C111.666 65.5603 111.972 65.6877 112.294 65.7518C112.559 65.8094 112.835 65.7914 113.09 65.6999C113.546 65.5788 113.702 64.823 113.667 64.0441C113.626 63.5522 113.547 63.0642 113.43 62.5845C113.257 61.8346 113.041 61.0949 112.784 60.3691C112.577 59.7922 112.282 59.2788 112.052 58.7134C112.005 58.5865 111.953 58.4595 111.919 58.3268C111.775 57.8249 111.878 57.5884 112.155 57.4441C112.213 57.4135 112.273 57.3866 112.334 57.3634C112.386 57.3537 112.44 57.3549 112.491 57.3668C112.543 57.3787 112.592 57.4011 112.634 57.4326C112.76 57.5032 112.864 57.607 112.934 57.7326L113.344 58.4076C113.459 58.6441 113.575 58.8922 113.684 59.1461C113.903 59.6576 114.096 60.1884 114.261 60.7384C114.531 61.5788 114.724 62.442 114.838 63.3172L114.855 63.3288Z" fill="#3B2C7D"/>
<path d="M105.307 69.0114C105.223 69.7051 104.92 70.3538 104.442 70.8633C104.179 71.1134 103.869 71.3094 103.53 71.4402C103.221 71.5531 102.896 71.6211 102.567 71.6421C102.119 71.6864 101.667 71.6572 101.228 71.5556C100.512 71.3672 99.8398 71.0398 99.2496 70.5921C98.6856 70.1857 98.1621 69.7259 97.6862 69.2191C97.2708 68.7748 96.8496 68.3422 96.4746 67.8748C95.9604 67.3005 95.5311 66.6555 95.1996 65.9595C95.1016 65.7402 95.2747 65.6825 95.54 65.7575C95.8809 65.8633 96.1849 66.0633 96.417 66.3345C97.3765 67.4321 98.4284 68.4455 99.5612 69.3633C100.227 69.8905 101.026 70.2221 101.869 70.321C102.277 70.3861 102.696 70.3403 103.08 70.1883C103.252 70.1164 103.406 70.0079 103.532 69.8704C103.657 69.7329 103.751 69.5697 103.807 69.3921C103.981 68.8486 104.036 68.2742 103.969 67.7075C103.875 66.7704 103.682 65.846 103.392 64.9498C103.178 64.2402 102.861 63.5768 102.596 62.8672C102.527 62.7152 102.472 62.5567 102.434 62.3941C102.307 61.7652 102.434 61.4941 102.74 61.3325C102.804 61.2906 102.874 61.2576 102.948 61.2345C103.007 61.2214 103.069 61.2236 103.128 61.2407C103.186 61.2579 103.239 61.2894 103.282 61.3325C103.427 61.4354 103.543 61.5721 103.623 61.7306C103.954 62.3054 104.227 62.9123 104.436 63.5421C104.682 64.2089 104.89 64.8888 105.059 65.5787C105.353 66.6956 105.449 67.8556 105.342 69.0056L105.307 69.0114Z" fill="#3B2C7D"/>
<path d="M75.5082 70.4711C76.3125 70.1406 77.1858 70.013 78.051 70.0995C78.9162 70.186 79.7469 70.484 80.4698 70.9672C81.0729 71.4563 81.6398 71.9885 82.1659 72.5595C82.6528 73.0592 83.1691 73.5292 83.7121 73.9672C84.0833 74.2704 84.4855 74.5334 84.9121 74.7518C85.2784 74.9581 85.6867 75.0784 86.1063 75.1037C86.2649 75.1155 86.4243 75.1038 86.5794 75.0691C86.7582 74.9941 86.8044 75.0057 86.8563 74.9595C86.9082 74.9134 86.989 74.8903 86.9659 74.8153C86.9498 74.7387 86.9226 74.6648 86.8852 74.5961C86.4929 73.823 85.9736 73.0153 85.5063 72.2018C84.5113 70.579 83.6636 68.8702 82.9736 67.0961C82.3398 65.5042 81.9508 63.8256 81.8198 62.1172C81.6536 59.8985 82.2656 57.6913 83.5506 55.8749C83.9602 55.3326 84.0352 55.5114 83.914 56.0826C83.7929 56.6537 83.5563 57.6461 83.3025 58.7537C82.8783 60.7434 82.9556 62.8072 83.5275 64.7595C84.1371 66.7699 84.9712 68.7051 86.014 70.5288C86.5909 71.6826 87.3582 72.7268 88.0563 73.9903C88.21 74.2068 88.3135 74.4547 88.3594 74.7161C88.4053 74.9776 88.3924 75.246 88.3217 75.5018C88.1458 75.694 87.9527 75.8698 87.7448 76.0268C87.5451 76.1855 87.3184 76.3067 87.0755 76.3845C86.2769 76.634 85.4143 76.5806 84.6525 76.2345C83.1063 75.5711 82.0332 74.4518 80.989 73.4018L80.2275 72.6114C80.1005 72.4903 79.9852 72.4038 79.864 72.2941C79.7493 72.1835 79.6191 72.0902 79.4775 72.0172C78.9393 71.6596 78.3118 71.4598 77.6659 71.4403C76.8558 71.3937 76.0504 71.5922 75.3547 72.01C74.6591 72.4278 74.1054 73.0455 73.7659 73.7826C73.5378 74.3534 73.4603 74.9732 73.5409 75.5826L73.7025 76.5461L74.0025 77.4691C74.4602 78.6721 75.307 79.6875 76.4082 80.3538C77.2677 80.8272 78.2258 81.0936 79.2063 81.1317C80.1869 81.1697 81.1627 80.9784 82.0563 80.573L82.6332 80.3191L83.2102 79.9903C83.5083 79.8265 83.7954 79.6434 84.0698 79.4422C84.3063 79.2864 84.5255 79.1999 84.6813 79.0903C84.9251 78.9383 85.1985 78.84 85.4832 78.8018C85.5842 78.7821 85.6864 78.7686 85.789 78.7614C85.9159 78.7614 85.8813 78.9172 85.714 79.2057C85.4634 79.6441 85.1372 80.0347 84.7505 80.3595C84.5602 80.5153 84.3698 80.6768 84.1736 80.8268L83.5275 81.2249C83.0852 81.4858 82.6221 81.7097 82.1429 81.8941C81.1377 82.2555 80.0714 82.4162 79.0044 82.3672C77.8925 82.3085 76.8098 81.9904 75.8429 81.4384C74.8774 80.8622 74.0564 80.0728 73.4429 79.1307C73.2294 78.773 73.0563 78.398 72.8659 78.0288C72.6756 77.6595 72.6006 77.2499 72.4736 76.8749L72.2602 75.6749C72.1997 75.2327 72.1997 74.7844 72.2602 74.3422C72.3872 73.4438 72.7697 72.6007 73.3621 71.9134C73.942 71.252 74.6693 70.7363 75.4852 70.4076L75.5082 70.4711Z" fill="#3B2C7D"/>
<path d="M111.192 25.6442C111.956 24.8746 112.634 24.0233 113.212 23.1057C113.517 22.6384 113.788 22.1596 114.112 21.6519L114.238 21.4557L114.394 21.2192C114.541 21.0083 114.711 20.8148 114.902 20.6423C115.081 20.478 115.3 20.3628 115.537 20.3077C115.772 20.2627 116.015 20.2826 116.24 20.3653L116.737 20.6538L117.181 21.0403C117.356 21.2236 117.522 21.4162 117.677 21.6173C117.966 21.9852 118.232 22.3706 118.473 22.7711C118.94 23.5492 119.353 24.3588 119.708 25.1942C120.403 26.861 120.901 28.6037 121.19 30.3865C121.576 32.5401 121.607 34.7421 121.283 36.9057C120.98 38.8144 120.37 40.6614 119.477 42.375C119.035 43.2263 118.521 44.0388 117.942 44.8038C117.378 45.5713 116.766 46.3017 116.108 46.9903C113.466 49.6925 110.267 51.7854 106.733 53.123C103.634 54.3256 100.416 55.1921 97.1327 55.7076C92.9587 56.3824 88.7302 56.6606 84.5038 56.5384C83.1885 56.5096 83.35 56.2961 84.4692 56.0596C86.3 55.7352 88.1469 55.5099 90.0019 55.3846C94.2258 55.102 98.4125 54.4122 102.504 53.325C103.502 52.9961 104.529 52.748 105.492 52.3211C105.983 52.1307 106.479 51.9577 106.958 51.7442L108.383 51.075C110.266 50.1568 112.026 49.0054 113.621 47.648C113.858 47.4403 114.112 47.2557 114.337 47.0307L114.994 46.3557L115.658 45.6692C115.883 45.45 116.05 45.173 116.235 44.9307C116.61 44.4173 117.037 43.9326 117.388 43.3903C117.739 42.857 118.058 42.3041 118.346 41.7346C119.482 39.4344 120.089 36.9093 120.123 34.3442C120.164 32.0274 119.814 29.7203 119.09 27.5192C118.737 26.4174 118.289 25.3481 117.752 24.323C117.487 23.819 117.188 23.3333 116.858 22.8692C116.7 22.6431 116.529 22.4273 116.344 22.223L116.212 22.073L116.137 22.0038C116.091 21.9604 116.04 21.9218 115.987 21.8884C115.965 21.8707 115.94 21.8576 115.913 21.8499C115.886 21.8423 115.858 21.8403 115.831 21.8441C115.803 21.8479 115.776 21.8574 115.753 21.872C115.729 21.8866 115.708 21.9059 115.692 21.9288C115.653 21.9704 115.616 22.0147 115.583 22.0615L115.531 22.1365L115.433 22.2923L114.619 23.625C113.672 25.2216 112.442 26.6329 110.99 27.7903C110.62 28.076 110.235 28.3417 109.837 28.5865L109.225 28.9384L108.787 29.1634L108.573 29.2788C108.573 29.2788 108.538 29.2788 108.515 29.2788H108.458L108.348 29.2269L106.975 28.5923C106.571 28.4134 106.156 28.2634 105.752 28.1019C104.511 27.6226 103.231 27.2501 101.927 26.9884C101.281 26.8384 100.623 26.7692 99.9654 26.6769C99.3077 26.5846 98.6558 26.5384 97.9692 26.5384C94.6137 26.478 91.3125 27.3913 88.4651 29.1677C85.6177 30.9442 83.3461 33.5076 81.925 36.548C81.7288 36.9461 81.5673 37.35 81.3827 37.748C81.1981 38.1461 81.0596 38.5557 80.9154 38.9769C80.3731 40.5346 80.1538 41.6019 79.9346 42.3403C79.8423 42.7153 79.75 43.0096 79.6635 43.2577C79.5987 43.4693 79.5177 43.6757 79.4211 43.875C79.3524 44.0328 79.2754 44.1868 79.1904 44.3365C79.075 44.498 79 44.2269 78.9481 43.598C78.8974 42.6335 78.9516 41.6663 79.1096 40.7134C79.4667 38.8024 80.1064 36.9552 81.0077 35.2326C81.9462 33.4652 83.1528 31.8538 84.5846 30.4557C87.5465 27.5756 91.3744 25.7509 95.4769 25.2634C96.9937 25.0818 98.5256 25.0644 100.046 25.2115C101.556 25.3781 103.048 25.6773 104.506 26.1057C105.227 26.3423 105.954 26.5615 106.646 26.8557C106.998 27 107.356 27.1211 107.69 27.2827L108.204 27.5192L108.463 27.6403C108.463 27.6403 108.463 27.6403 108.504 27.6403H108.55L108.769 27.5134C109.063 27.3519 109.346 27.1673 109.623 26.9769C110.175 26.5942 110.691 26.1616 111.163 25.6846L111.192 25.6442Z" fill="#3B2C7D"/>
<path d="M63.7514 51.0346C62.5354 52.9905 61.8494 55.2293 61.761 57.5307C61.761 57.9519 61.761 58.373 61.761 58.7942L61.9052 60.0461C62.126 61.5207 62.5715 62.9527 63.2264 64.2923C63.3841 64.6338 63.5594 64.9669 63.7514 65.2904L64.3283 66.2423C64.766 66.8522 65.246 67.4305 65.7648 67.973C66.6972 68.9477 67.7522 69.7971 68.9033 70.5C70.386 71.4 71.9841 72.0461 73.5533 72.8077C74.0321 73.0846 73.8994 73.298 73.3514 73.4365C72.9958 73.5295 72.6282 73.5683 72.261 73.5519C72.0286 73.5457 71.797 73.5206 71.5687 73.4769C71.3204 73.4153 71.0773 73.3343 70.8418 73.2346C70.4091 73.0442 69.9648 72.8769 69.5437 72.6577L68.2918 71.9827C67.8798 71.7395 67.483 71.4717 67.1033 71.1807C66.9071 71.0423 66.711 70.9096 66.5264 70.7596L65.9841 70.2923C64.5074 69.0483 63.2783 67.5374 62.361 65.8384C61.2146 63.7863 60.5037 61.5199 60.2725 59.1807C60.2389 58.8588 60.2254 58.5351 60.2321 58.2115C60.2321 57.8942 60.2321 57.5711 60.2321 57.248C60.2704 56.6071 60.3494 55.9693 60.4687 55.3384C60.6892 54.0752 61.0773 52.8471 61.6225 51.6865C62.3168 50.2718 63.2475 48.9861 64.3744 47.8846C66.0422 46.1886 68.1093 44.9388 70.386 44.25C72.1069 43.7 73.8989 43.4046 75.7052 43.373C76.0975 43.373 76.4898 43.373 76.8591 43.4192C78.3475 43.5115 78.7687 43.8634 79.0168 44.198C79.0775 44.2699 79.1316 44.3472 79.1783 44.4288C79.2244 44.5442 79.0918 44.625 78.8206 44.6942C78.4286 44.7919 78.0229 44.8231 77.6206 44.7865C74.5513 44.5362 71.4704 45.1015 68.6898 46.425C66.6562 47.4858 64.9506 49.0816 63.7571 51.0404L63.7514 51.0346Z" fill="#3B2C7D"/>
<path d="M75.6925 87.5652C74.5975 87.5595 73.5379 87.1765 72.6925 86.4806C72.3766 86.2407 72.0985 85.9548 71.8675 85.6325C71.6763 85.3414 71.5103 85.0345 71.3713 84.7152C71.3373 84.6256 71.3122 84.5328 71.2963 84.4383C71.2963 84.3114 71.2271 84.1844 71.2098 84.0633C71.1679 83.8348 71.1981 83.5988 71.2963 83.3883C71.4119 83.188 71.5793 83.0226 71.7809 82.9094C71.8858 82.8536 71.9937 82.8036 72.104 82.7594C72.1586 82.7387 72.2145 82.7214 72.2713 82.7075L72.3925 82.6787C72.704 82.6037 72.9694 82.5517 73.2752 82.4883C73.7498 82.397 74.2035 82.219 74.6136 81.9633C74.8527 81.8037 75.0666 81.6092 75.2482 81.3864C75.4467 81.1721 75.628 80.9425 75.7905 80.6998C75.9002 80.5441 76.0963 80.6133 76.2521 80.8671C76.3533 81.0425 76.4067 81.2415 76.4067 81.4441C76.4067 81.6466 76.3533 81.8456 76.2521 82.021C75.7788 82.7147 75.0859 83.2288 74.2848 83.4806C73.9405 83.6043 73.5876 83.7026 73.229 83.7748L72.7617 83.8787C72.6694 83.8787 72.6578 83.8787 72.6405 83.8787H72.5655C72.5338 83.8785 72.5031 83.8903 72.4796 83.9117C72.4561 83.933 72.4415 83.9624 72.4386 83.9941C72.4386 84.0806 72.4386 84.0287 72.4963 84.2479C72.5928 84.5877 72.7711 84.8987 73.0155 85.1537C73.5489 85.7562 74.2913 86.1336 75.0925 86.2094C75.6061 86.2667 76.1259 86.2316 76.6271 86.1056C77.0218 86.0141 77.4079 85.8887 77.7809 85.7306C78.1522 85.5585 78.5074 85.3539 78.8425 85.1191C79.1001 84.9342 79.3431 84.7297 79.5694 84.5075L80.2213 83.8152C80.3078 83.7114 80.3828 83.5902 80.4809 83.4921C80.6094 83.3481 80.7751 83.2423 80.9598 83.1864C81.1143 83.1713 81.2701 83.1992 81.4098 83.2671C81.479 83.3017 81.554 83.3248 81.6175 83.3594C81.6691 83.3911 81.7109 83.4364 81.7384 83.4904C81.7659 83.5444 81.7779 83.6048 81.7732 83.6652C81.7878 83.8485 81.7455 84.0318 81.6521 84.1902C80.9633 85.331 79.9485 86.2393 78.7386 86.7979C77.7936 87.285 76.7497 87.5494 75.6867 87.571L75.6925 87.5652Z" fill="#3B2C7D"/>
<path d="M114.23 117.115C112.542 117.052 110.876 116.713 109.298 116.111L108.444 115.806C108.167 115.696 107.867 115.569 107.619 115.448C105.716 114.541 103.92 113.424 102.265 112.119L101.186 111.236L100.136 110.331C99.2198 109.563 98.4277 108.658 97.7879 107.648C97.5918 107.336 97.7533 107.284 98.0937 107.406C98.5889 107.607 99.0471 107.89 99.4495 108.242C101.136 109.852 102.947 111.326 104.867 112.65C106.061 113.451 107.34 114.118 108.68 114.64C110.125 115.256 111.65 115.662 113.209 115.846C113.684 115.903 114.162 115.922 114.64 115.904C114.876 115.903 115.111 115.881 115.344 115.84C115.574 115.806 115.817 115.788 116.042 115.736C116.703 115.633 117.303 115.29 117.726 114.773C117.907 114.505 118.026 114.201 118.075 113.881C118.124 113.562 118.101 113.236 118.009 112.927C117.875 112.403 117.655 111.906 117.357 111.456C117.061 110.989 116.736 110.542 116.382 110.117L115.903 109.54C115.759 109.361 115.632 109.211 115.546 109.079C115.471 108.962 115.41 108.836 115.367 108.704C115.297 108.518 115.297 108.313 115.367 108.127C115.388 108.043 115.417 107.962 115.453 107.884C115.58 107.665 116.001 107.815 116.555 108.271C117.345 109.046 118.022 109.928 118.569 110.89C118.878 111.43 119.106 112.014 119.244 112.621C119.427 113.31 119.397 114.038 119.157 114.709C119.065 114.973 118.935 115.222 118.771 115.448C118.609 115.656 118.43 115.849 118.234 116.025C117.842 116.365 117.384 116.622 116.89 116.781C116.665 116.853 116.435 116.913 116.203 116.959L115.54 117.046C115.321 117.046 115.101 117.109 114.882 117.121H114.23V117.115Z" fill="#3B2C7D"/>
<path d="M66.1214 155.192L65.7753 154.321L65.683 154.108C65.683 154.027 65.6253 153.923 65.6022 153.836C65.5474 153.659 65.505 153.478 65.4753 153.294C65.3838 152.633 65.3664 151.963 65.4233 151.298C65.5224 150.052 65.7152 148.816 66.0003 147.6C66.5667 145.22 67.2718 142.876 68.1118 140.579C68.6887 138.911 69.3291 137.244 70.033 135.617C72.4772 129.865 75.4719 124.362 78.9753 119.186C80.535 116.884 82.271 114.707 84.1676 112.673C85.3949 111.365 86.7695 110.203 88.2637 109.211C89.7939 108.156 91.598 107.569 93.456 107.521C94.6099 107.596 94.3849 107.879 93.4907 108.138C93.0407 108.294 92.4407 108.496 91.7599 108.796C90.9803 109.147 90.2214 109.542 89.4868 109.979C88.0107 110.878 86.6539 111.959 85.4483 113.198C84.2114 114.446 83.0552 115.772 81.9868 117.167C79.8323 120.009 77.8684 122.991 76.108 126.092C73.9535 129.918 72.0812 133.896 70.506 137.994C69.6233 140.238 68.8099 142.517 68.1233 144.825C67.783 145.979 67.4772 147.133 67.2233 148.315C66.9647 149.471 66.8064 150.646 66.7503 151.829C66.7355 152.179 66.747 152.53 66.7849 152.879C66.8038 153.042 66.8327 153.204 66.8714 153.363C66.9144 153.527 66.9704 153.687 67.0387 153.842L67.4483 154.858C67.5983 155.192 67.7657 155.521 67.9214 155.856C68.5695 157.183 69.3037 158.466 70.1195 159.698C72.6041 163.455 75.5074 166.917 78.7733 170.019C79.4599 170.677 80.1637 171.3 80.8733 171.911L81.958 172.794L83.0253 173.608C83.0627 173.636 83.1056 173.656 83.1513 173.667C83.197 173.678 83.2444 173.679 83.2906 173.671C83.2906 173.671 83.406 173.671 83.481 173.631C83.5593 173.61 83.6364 173.585 83.7118 173.556C84.0477 173.428 84.3704 173.267 84.6753 173.077C85.312 172.679 85.9107 172.223 86.4637 171.715C86.999 171.226 87.4948 170.696 87.9464 170.129C88.5429 169.396 89.0557 168.599 89.4753 167.752C89.6528 167.353 89.8591 166.967 90.0926 166.598C90.1626 166.467 90.2396 166.34 90.3233 166.217C90.4387 166.073 90.5714 166.298 90.5945 166.863C90.5848 167.723 90.3692 168.568 89.9656 169.327C89.2574 170.693 88.3007 171.916 87.1445 172.933C86.562 173.467 85.9282 173.942 85.2522 174.352C84.8888 174.584 84.502 174.777 84.0983 174.929C83.9834 174.971 83.8659 175.006 83.7464 175.033C83.6826 175.053 83.6169 175.066 83.5503 175.073L83.2791 175.108C83.1002 175.11 82.9217 175.089 82.7483 175.044C82.6595 175.03 82.5749 174.996 82.5003 174.946C82.4185 174.909 82.3394 174.867 82.2637 174.819L81.1618 173.965L80.1464 173.117C79.4772 172.54 78.808 171.963 78.1676 171.352C76.8753 170.14 75.6349 168.869 74.4464 167.538C72.7865 165.705 71.2449 163.769 69.831 161.74C68.3762 159.706 67.1313 157.529 66.1156 155.244L66.1214 155.192Z" fill="#3B2C7D"/>
<path d="M82.4436 146.002C83.0205 144.848 83.6955 143.694 84.3474 142.54C84.5897 142.131 84.809 141.704 85.0628 141.294C85.957 139.864 86.9032 138.462 87.9474 137.123C88.3859 136.512 88.8647 135.929 89.3032 135.329L90.2205 134.215C90.5467 133.858 90.8996 133.527 91.2763 133.223C91.5128 133.033 91.6513 133.223 91.6455 133.604C91.6314 134.058 91.4507 134.491 91.1378 134.821C89.9032 136.229 88.784 137.758 87.6301 139.304C87.2721 139.77 86.9463 140.259 86.6551 140.769C86.3494 141.277 86.0782 141.796 85.7724 142.315C85.1263 143.44 84.509 144.589 83.9205 145.748C83.5513 146.458 83.2051 147.185 82.8647 147.906C82.3628 149.014 81.8493 150.121 81.434 151.258C81.1297 152.133 80.8697 153.022 80.6551 153.923C80.6032 154.119 80.5628 154.315 80.5051 154.5C80.2743 155.215 80.1128 155.417 79.732 155.481C79.6482 155.498 79.5634 155.509 79.4782 155.515C79.207 155.515 79.0859 155.152 79.1494 154.575C79.4645 152.845 79.9936 151.161 80.7244 149.562C81.2378 148.344 81.8263 147.15 82.4147 145.962L82.4436 146.002Z" fill="#3B2C7D"/>
<path d="M89.3487 166.546C88.3507 165.542 87.3641 164.533 86.3949 163.5C86.043 163.125 85.6622 162.773 85.3218 162.386C84.0926 161.036 82.9463 159.612 81.8891 158.123C81.4276 157.454 80.9487 156.796 80.5218 156.098C80.2379 155.655 79.9816 155.194 79.7545 154.719C79.5371 154.222 79.4045 153.691 79.3622 153.15C79.3333 152.81 79.5295 152.844 79.7891 153.058C80.1377 153.359 80.4391 153.711 80.6834 154.102C81.67 155.865 82.8028 157.542 84.0699 159.115C84.8532 160.127 85.697 161.09 86.5968 162C87.5545 163.027 88.5353 164.042 89.5333 165.035C90.1449 165.646 90.7622 166.258 91.3968 166.858C92.3487 167.763 93.3064 168.675 94.2814 169.535C95.0487 170.204 95.8507 170.798 96.641 171.427C96.8141 171.565 96.993 171.692 97.1603 171.836C97.7834 172.385 97.9045 172.644 97.8237 172.99C97.8129 173.064 97.7975 173.137 97.7776 173.21C97.7083 173.406 97.2814 173.377 96.768 173.042C95.2386 171.964 93.7852 170.783 92.418 169.506C91.368 168.554 90.341 167.567 89.3141 166.581L89.3487 166.546Z" fill="#3B2C7D"/>
<path d="M137.457 125.769C136.171 123.79 134.93 121.788 133.644 119.838C133.177 119.123 132.663 118.442 132.19 117.738C130.565 115.243 128.641 112.955 126.461 110.925C125.966 110.496 125.446 110.097 124.903 109.731C124.35 109.382 123.771 109.073 123.173 108.808C121.658 108.153 120.042 107.762 118.396 107.654C117.877 107.602 117.923 107.377 118.396 107.146C118.704 106.993 119.029 106.879 119.365 106.806C119.836 106.732 120.316 106.72 120.79 106.771C122.629 107.075 124.371 107.804 125.878 108.9C127.356 109.956 128.687 111.203 129.836 112.61C131.203 114.26 132.577 115.996 133.811 117.802C135.161 119.763 136.43 121.771 137.723 123.75C138.519 124.967 139.315 126.179 140.152 127.362C141.383 129.17 142.742 130.888 144.219 132.502C145.363 133.7 146.623 134.782 147.98 135.733C148.275 135.94 148.557 136.142 148.875 136.31C149.192 136.477 149.388 136.65 149.573 136.788C149.738 136.892 149.896 137.005 150.046 137.129C150.234 137.29 150.373 137.503 150.444 137.74C150.475 137.833 150.5 137.927 150.519 138.023C150.519 138.156 150.386 138.202 150.115 138.167C149.714 138.109 149.325 137.988 148.961 137.81C147.534 137.091 146.204 136.194 145.003 135.138C143.793 134.053 142.672 132.873 141.652 131.608C140.123 129.744 138.767 127.765 137.428 125.781L137.457 125.769Z" fill="#3B2C7D"/>
<path d="M157.422 145.887C156.377 146.844 155.264 147.725 154.093 148.523C152.899 149.365 151.57 149.999 150.164 150.398C149.623 150.538 149.067 150.618 148.508 150.635C148.231 150.635 147.931 150.635 147.689 150.6C147.447 150.565 147.147 150.525 146.881 150.485C145.064 150.052 143.359 149.238 141.88 148.096C140.437 147.009 139.097 145.792 137.876 144.462C136.78 143.308 135.741 142.102 134.731 140.902C134.085 140.129 133.422 139.373 132.805 138.594C132.214 137.81 131.576 137.063 130.895 136.356C130.48 136.015 130.566 135.86 131.149 136.01C132.016 136.36 132.792 136.905 133.416 137.602C136.214 140.637 138.666 143.856 141.718 146.492C143.541 148.033 145.82 149.29 148.174 149.377C148.805 149.416 149.439 149.34 150.043 149.152C150.675 148.969 151.286 148.722 151.866 148.413C153.057 147.757 154.18 146.984 155.218 146.106C156.521 145.033 157.752 143.877 158.905 142.644C160.664 140.769 162.315 138.795 163.849 136.731C165.031 135.133 166.087 133.488 167.137 131.821L167.812 130.719C168.678 129.358 169.093 128.988 169.543 128.873C169.641 128.844 169.745 128.781 169.814 128.769C169.883 128.758 169.924 128.896 169.878 129.213C169.787 129.672 169.625 130.114 169.399 130.523C167.601 133.755 165.52 136.821 163.18 139.685C161.411 141.898 159.483 143.979 157.41 145.91L157.422 145.887Z" fill="#3B2C7D"/>
<path d="M164.539 119.827C164.539 120.808 164.539 121.8 164.499 122.844C164.499 123.174 164.439 123.501 164.32 123.808C164.207 124.077 164.074 124.337 163.922 124.587C163.636 125.035 163.323 125.467 162.987 125.879C162.508 126.456 162.029 127.033 161.51 127.581C159.672 129.441 157.7 131.163 155.608 132.733C154.685 133.437 153.756 134.14 152.816 134.798C151.63 135.708 150.302 136.417 148.887 136.898C148.431 137.014 148.454 136.898 148.726 136.541C149.137 136.024 149.63 135.577 150.185 135.219C152.665 133.621 155.046 131.876 157.316 129.992C158.711 128.824 160.013 127.549 161.21 126.179C161.875 125.47 162.468 124.697 162.981 123.871C163.092 123.689 163.182 123.496 163.252 123.294C163.277 123.21 163.292 123.123 163.299 123.035V122.671V121.154C163.299 120.525 163.299 119.896 163.356 119.256C163.374 118.918 163.42 118.582 163.495 118.252C163.587 117.915 163.727 117.592 163.91 117.294C164.426 116.46 165.033 115.686 165.722 114.987C166.384 114.296 167.081 113.639 167.81 113.019C168.902 112.019 170.109 111.152 171.404 110.435C171.722 110.265 172.065 110.147 172.42 110.083C172.611 110.051 172.806 110.051 172.997 110.083C173.089 110.116 173.18 110.154 173.268 110.198C173.34 110.25 173.408 110.308 173.47 110.371C173.566 110.493 173.636 110.632 173.677 110.781C173.677 110.919 173.706 111.041 173.712 111.15C173.682 111.287 173.633 111.419 173.568 111.542C173.507 111.622 173.435 111.692 173.354 111.75C173.301 111.797 173.245 111.842 173.187 111.883C173.112 111.923 173.072 111.814 173.008 111.6C172.974 111.485 172.951 111.369 172.922 111.242C172.909 111.168 172.87 111.1 172.812 111.052C172.754 110.942 172.097 111.167 171.595 111.467C171.049 111.787 170.525 112.142 170.026 112.529C168.99 113.342 168.007 114.221 167.083 115.16C166.402 115.843 165.777 116.58 165.214 117.364C164.968 117.7 164.774 118.072 164.637 118.466C164.554 118.907 164.517 119.355 164.527 119.804L164.539 119.827Z" fill="#3B2C7D"/>
<path d="M176.025 121.76C175.259 122.319 174.372 122.691 173.435 122.844C173.221 122.867 173.004 122.852 172.795 122.798C172.666 122.769 172.545 122.713 172.439 122.633C172.334 122.553 172.247 122.452 172.183 122.337C172.111 122.114 172.111 121.873 172.183 121.65C172.233 121.49 172.299 121.336 172.379 121.189C172.525 120.934 172.687 120.689 172.864 120.456C173.208 120.012 173.582 119.591 173.983 119.198C174.335 118.852 174.687 118.506 175.05 118.177C175.283 117.968 175.53 117.775 175.789 117.6C176.057 117.385 176.374 117.24 176.712 117.179C176.845 117.179 176.92 117.248 176.891 117.277C176.862 117.306 176.799 117.341 176.741 117.41C176.58 117.615 176.405 117.807 176.216 117.987C175.32 118.824 174.471 119.71 173.672 120.641C173.431 120.914 173.225 121.216 173.06 121.541C173.022 121.614 172.991 121.692 172.968 121.771C172.951 121.81 172.939 121.851 172.933 121.892C172.928 121.924 172.934 121.957 172.951 121.985C172.968 122.013 172.994 122.033 173.025 122.042C173.154 122.074 173.289 122.074 173.418 122.042C173.602 122.016 173.783 121.966 173.954 121.892C174.322 121.735 174.674 121.542 175.004 121.316C175.425 121.029 175.821 120.707 176.187 120.352C176.756 119.842 177.238 119.242 177.612 118.575C177.735 118.339 177.81 118.08 177.831 117.814C177.831 117.577 177.774 117.485 177.664 117.416C177.639 117.409 177.613 117.409 177.589 117.416C177.556 117.411 177.523 117.411 177.491 117.416C177.191 117.358 177.029 117.277 176.943 116.937C176.943 116.862 176.885 116.781 176.868 116.706C176.854 116.645 176.858 116.581 176.879 116.522C176.899 116.463 176.935 116.411 176.983 116.371C177.052 116.309 177.133 116.261 177.222 116.233C177.31 116.204 177.404 116.194 177.497 116.204C177.693 116.204 177.888 116.237 178.074 116.302L178.397 116.469C178.498 116.546 178.594 116.629 178.685 116.717C178.764 116.822 178.835 116.932 178.899 117.046L179.02 117.427V117.814C179.02 117.923 179.02 118.027 178.985 118.131C178.824 118.802 178.508 119.427 178.062 119.954C177.485 120.675 176.804 121.306 176.043 121.829L176.025 121.76Z" fill="#3B2C7D"/>
<path d="M168.798 118.846C168.732 118.661 168.703 118.465 168.712 118.269C168.7 118.123 168.71 117.975 168.74 117.831C168.74 117.687 168.792 117.542 168.821 117.404L168.96 117.017C169.154 116.537 169.41 116.083 169.721 115.667C169.934 115.372 170.163 115.089 170.408 114.819C170.847 114.364 171.328 113.95 171.844 113.585C172.364 113.201 172.932 112.889 173.535 112.656C173.684 112.607 173.836 112.568 173.99 112.541C174.153 112.518 174.318 112.518 174.481 112.541C174.634 112.544 174.786 112.562 174.937 112.592C175.128 112.627 175.309 112.704 175.467 112.817C175.573 112.89 175.66 112.986 175.722 113.098C175.785 113.21 175.82 113.336 175.825 113.464C175.829 113.728 175.748 113.987 175.594 114.202C175.372 114.524 175.07 114.783 174.717 114.952C174.51 115.056 174.458 114.917 174.487 114.669C174.512 114.358 174.58 114.051 174.688 113.758L174.723 113.689C174.723 113.689 174.723 113.689 174.677 113.689C174.55 113.659 174.421 113.637 174.29 113.625C174.051 113.636 173.816 113.693 173.598 113.792C173.302 113.911 173.015 114.05 172.738 114.208C172.043 114.636 171.426 115.18 170.915 115.817C170.317 116.441 169.904 117.218 169.721 118.062C169.721 118.177 169.721 118.304 169.721 118.402C169.718 118.475 169.729 118.548 169.756 118.616C169.756 118.679 169.796 118.771 169.877 118.783C169.952 118.781 170.025 118.761 170.09 118.725L170.24 118.633C170.321 118.575 170.408 118.517 170.488 118.448C170.656 118.321 170.817 118.177 170.979 118.033C171.296 117.744 171.602 117.456 171.896 117.116C172.358 116.625 172.744 116.077 173.177 115.564C173.281 115.46 173.379 115.344 173.488 115.246C173.915 114.883 174.146 114.831 174.342 114.871C174.382 114.873 174.421 114.883 174.458 114.9C174.498 114.9 174.492 114.981 174.458 115.085C174.415 115.237 174.355 115.384 174.279 115.523C174.14 115.794 173.985 116.06 173.817 116.325C173.65 116.591 173.425 116.804 173.24 117.041C172.825 117.519 172.381 117.981 171.908 118.437C171.578 118.756 171.225 119.051 170.852 119.319L170.644 119.464C170.559 119.525 170.471 119.581 170.379 119.631C170.204 119.739 170.006 119.802 169.802 119.816C169.622 119.831 169.442 119.79 169.286 119.699C169.13 119.609 169.006 119.472 168.931 119.308L168.775 118.881L168.798 118.846Z" fill="#3B2C7D"/>
<path d="M174.507 119.59C174.122 119.91 173.715 120.203 173.29 120.467C172.851 120.756 172.373 120.982 171.871 121.136C171.66 121.197 171.443 121.234 171.224 121.246C170.95 121.266 170.677 121.19 170.451 121.033C170.36 120.965 170.275 120.89 170.198 120.808C170.122 120.71 170.057 120.606 170.001 120.496C169.919 120.281 169.897 120.048 169.938 119.821C170.01 119.47 170.153 119.139 170.359 118.846C170.714 118.326 171.12 117.843 171.571 117.404L172.724 116.25C173.232 115.783 173.717 115.315 174.265 114.877C174.449 114.744 174.467 114.825 174.403 115.009C174.309 115.314 174.165 115.6 173.976 115.858L173.319 116.694C173.094 116.959 172.84 117.196 172.609 117.45C172.136 117.952 171.651 118.436 171.224 118.944C170.982 119.216 170.813 119.546 170.734 119.902C170.734 120.04 170.734 120.127 170.838 120.184C170.881 120.222 170.93 120.253 170.982 120.277C171.026 120.279 171.071 120.279 171.115 120.277C171.501 120.222 171.871 120.084 172.199 119.873C172.59 119.65 172.962 119.398 173.313 119.117C173.757 118.765 174.174 118.379 174.559 117.963C175.144 117.387 175.619 116.708 175.961 115.961C176.056 115.725 176.071 115.463 176.001 115.217C175.967 115.148 175.907 115.094 175.834 115.067C175.787 115.039 175.736 115.015 175.684 114.998L175.517 114.946C175.419 114.946 175.355 114.946 175.309 114.946C175.2 114.949 175.091 114.967 174.986 114.998C174.858 115.012 174.728 114.99 174.611 114.934L174.438 114.865C174.363 114.813 174.334 114.727 174.346 114.583C174.359 114.481 174.393 114.382 174.445 114.294C174.498 114.206 174.568 114.129 174.651 114.069C174.847 113.9 175.087 113.792 175.344 113.758C175.59 113.736 175.838 113.768 176.071 113.85C176.172 113.882 176.27 113.923 176.365 113.971C176.486 114.03 176.601 114.104 176.705 114.19C176.942 114.39 177.111 114.658 177.19 114.958C177.298 115.424 177.264 115.912 177.092 116.359C176.967 116.715 176.801 117.054 176.596 117.369C176.023 118.217 175.331 118.979 174.542 119.631L174.507 119.59Z" fill="#3B2C7D"/>
<path d="M164.881 131.1C164.617 130.656 164.318 130.234 163.987 129.837C163.872 129.687 163.716 129.571 163.589 129.427C163.149 128.904 162.683 128.403 162.193 127.927C161.969 127.717 161.73 127.524 161.477 127.35C161.139 127.155 160.823 126.923 160.537 126.658C160.45 126.566 160.566 126.398 160.762 126.277C160.862 126.209 160.976 126.164 161.096 126.146C161.216 126.128 161.339 126.137 161.454 126.173C162.213 126.533 162.897 127.034 163.468 127.65C163.808 128.025 164.223 128.342 164.581 128.706C164.972 129.119 165.337 129.556 165.672 130.016C165.873 130.298 166.075 130.592 166.248 130.887C166.526 131.346 166.775 131.822 166.993 132.312C167.198 132.683 167.375 133.068 167.523 133.466C167.564 133.554 167.595 133.647 167.616 133.742C167.63 133.88 167.597 134.018 167.523 134.135C167.432 134.221 167.318 134.281 167.195 134.308L167.004 134.354C166.898 134.363 166.792 134.341 166.698 134.291C166.585 134.244 166.487 134.166 166.416 134.066C166.107 133.522 165.833 132.959 165.597 132.381C165.377 131.934 165.129 131.502 164.852 131.089L164.881 131.1Z" fill="#3B2C7D"/>
<path d="M90.964 188.042C90.4389 188.07 89.9123 188.037 89.3947 187.944C89.1336 187.893 88.8756 187.827 88.6217 187.748C88.489 187.702 88.3851 187.667 88.2294 187.598C88.0736 187.529 87.8601 187.413 87.6524 187.321C87.1794 187.004 86.787 186.652 86.8505 186.167C86.8867 185.996 86.9779 185.842 87.1101 185.729L87.6409 185.463C88.0159 185.365 88.4428 185.25 88.6217 185.209L89.3197 185.048C89.7813 184.938 90.2486 184.829 90.7044 184.708C91.2162 184.581 91.7146 184.405 92.1928 184.183C92.7697 183.906 93.0409 183.427 93.6178 182.954C93.7794 182.804 93.8486 182.867 93.9005 183.109C93.9376 183.277 93.9645 183.446 93.9813 183.617C93.9802 183.843 93.9097 184.062 93.7794 184.246C93.5068 184.593 93.1649 184.88 92.7755 185.088C92.4272 185.272 92.0645 185.426 91.6909 185.55C90.9914 185.753 90.2806 185.915 89.5621 186.034C89.1409 186.104 88.5294 186.271 88.4774 186.283C88.414 186.298 88.3521 186.319 88.2928 186.346C88.2236 186.392 88.264 186.473 88.2928 186.519C88.3456 186.577 88.4081 186.626 88.4774 186.663C88.5239 186.69 88.572 186.713 88.6217 186.733C88.7197 186.773 88.8294 186.802 88.9332 186.836C89.3638 186.968 89.81 187.042 90.2601 187.056C90.8226 187.079 91.3856 187.025 91.9332 186.894C92.7736 186.695 93.5672 186.335 94.2697 185.833C94.7966 185.427 95.2713 184.958 95.6832 184.436C95.7697 184.315 95.8505 184.2 95.9428 184.084C96.2774 183.658 96.4447 183.571 96.7332 183.634C96.7967 183.634 96.8659 183.634 96.9294 183.681C97.1255 183.761 97.1197 184.05 96.9294 184.431C96.2108 185.598 95.1955 186.553 93.9871 187.2C93.0472 187.697 92.0134 187.992 90.9524 188.065L90.964 188.042Z" fill="#3B2C7D"/>
<path d="M87.1459 185.256C86.6695 184.983 86.2488 184.623 85.9055 184.194C85.7299 183.98 85.5772 183.748 85.4497 183.502C85.279 183.17 85.1677 182.811 85.1209 182.44C85.0855 182.188 85.1112 181.931 85.1959 181.69C85.2333 181.574 85.2962 181.468 85.38 181.379C85.4639 181.29 85.5666 181.221 85.6805 181.177C85.878 181.105 86.0945 181.105 86.2921 181.177C86.3995 181.202 86.504 181.239 86.6036 181.287L86.8747 181.448L87.4055 181.777L87.7632 181.973C88.2469 182.221 88.7738 182.374 89.3151 182.423C89.7982 182.458 90.2823 182.371 90.7228 182.169C91.2946 181.889 91.8494 181.575 92.3844 181.229C92.5632 181.119 92.6728 181.229 92.6843 181.523C92.6908 181.698 92.6714 181.873 92.6267 182.042C92.5619 182.244 92.4444 182.426 92.2863 182.567C91.6735 183.132 90.901 183.494 90.0746 183.602C89.2483 183.711 88.4087 183.561 87.6709 183.173C87.3102 183.004 86.9614 182.812 86.6267 182.596C86.554 182.537 86.4721 182.49 86.3844 182.458C86.3685 182.451 86.3515 182.448 86.3343 182.448C86.3172 182.449 86.3003 182.452 86.2847 182.459C86.2691 182.467 86.255 182.477 86.2434 182.489C86.2318 182.502 86.2228 182.517 86.217 182.533C86.1935 182.608 86.1935 182.688 86.217 182.763C86.2468 182.887 86.2955 183.006 86.3613 183.115C86.569 183.474 86.8454 183.787 87.1747 184.038C87.3817 184.205 87.6061 184.348 87.844 184.465C87.9651 184.529 88.0863 184.575 88.2132 184.627C88.331 184.671 88.4527 184.704 88.5767 184.725C89.4048 184.847 90.2503 184.766 91.0401 184.488C91.6471 184.286 92.2206 183.994 92.742 183.623C92.8517 183.537 92.967 183.467 93.0651 183.381C93.4574 183.075 93.5959 182.988 93.792 182.971C93.8343 182.969 93.8767 182.969 93.919 182.971C93.9767 182.971 93.994 183.029 93.9882 183.15C93.9799 183.334 93.9199 183.512 93.8151 183.663C93.4459 184.256 92.9316 184.744 92.3209 185.083C91.7204 185.443 91.0532 185.679 90.3594 185.775C89.8287 185.873 89.2872 185.898 88.7497 185.85C88.4538 185.815 88.162 185.751 87.8786 185.66C87.6215 185.562 87.3726 185.445 87.1344 185.308L87.1459 185.256Z" fill="#3B2C7D"/>
<path d="M89.6854 177.364C89.7283 177.684 89.8363 177.992 90.0027 178.269C90.1815 178.621 90.3777 178.846 90.6892 179.533C90.7834 179.745 90.8268 179.976 90.8161 180.208C90.8071 180.321 90.7741 180.431 90.7194 180.53C90.6647 180.63 90.5895 180.716 90.4988 180.785C90.1335 181.004 89.7018 181.086 89.2815 181.016C89.0911 181.016 88.9642 180.975 88.8315 180.958L88.4334 180.883C87.931 180.773 87.4224 180.694 86.9104 180.646C86.7666 180.62 86.6184 180.636 86.4834 180.692C86.3738 180.756 86.4142 180.906 86.4431 180.992C86.4815 181.095 86.5298 181.194 86.5873 181.287C86.6511 181.389 86.7266 181.484 86.8123 181.569C86.9662 181.751 87.1652 181.888 87.3892 181.967C87.5277 182.019 87.5392 182.169 87.3546 182.319C87.2001 182.428 87.0157 182.486 86.8267 182.486C86.6377 182.486 86.4534 182.428 86.2988 182.319C85.9838 182.065 85.7411 181.733 85.595 181.356C85.4837 181.084 85.4556 180.784 85.5142 180.496C85.5493 180.362 85.6135 180.237 85.7022 180.13C85.7909 180.024 85.9021 179.938 86.0277 179.879C86.1596 179.826 86.297 179.787 86.4373 179.764C86.5084 179.759 86.5797 179.759 86.6508 179.764H86.7892C86.9591 179.767 87.1286 179.781 87.2969 179.804C87.62 179.844 87.9258 179.902 88.2258 179.96C88.4046 179.994 88.5834 180.017 88.7623 180.041C88.9411 180.064 89.1488 180.069 89.2527 180.069C89.3158 180.078 89.3799 180.078 89.4431 180.069C89.5008 180.069 89.57 180.035 89.5873 179.971C89.5873 179.816 89.5873 179.798 89.3277 179.394C89.0982 179.029 88.905 178.643 88.7508 178.241C88.5255 177.672 88.5255 177.038 88.7508 176.469C88.8388 176.263 88.9532 176.069 89.0911 175.892C89.1315 175.829 89.195 175.771 89.1892 175.69C89.1812 175.616 89.151 175.546 89.1027 175.489L89.0277 175.402L88.895 175.275L88.6008 175.033C88.1508 174.687 87.6027 174.456 87.1123 174.087C87.0027 174.006 86.8873 173.925 86.7777 173.827C86.3623 173.469 86.3623 173.037 86.5931 172.875C86.6403 172.835 86.6953 172.806 86.7546 172.789C86.844 172.791 86.933 172.802 87.02 172.823C87.1267 172.827 87.2312 172.854 87.3258 172.904C87.6661 173.123 88.1565 173.342 88.595 173.648C88.82 173.798 89.0508 173.96 89.2873 174.144C89.4027 174.231 89.5238 174.335 89.645 174.439L89.8296 174.617C89.9277 174.716 90.0027 174.831 90.0892 174.935C90.241 175.147 90.3327 175.396 90.3546 175.656C90.3579 175.915 90.2769 176.168 90.1238 176.377L89.9623 176.614L89.8931 176.741C89.8475 176.822 89.8089 176.907 89.7777 176.994C89.7304 177.153 89.7147 177.32 89.7315 177.485L89.6854 177.364Z" fill="#3B2C7D"/>
<path d="M118.674 166.379C116.619 166.587 114.551 166.626 112.489 166.494C111.739 166.448 110.989 166.425 110.245 166.327C107.632 165.992 105.053 165.431 102.537 164.648L100.87 164.129L99.2201 163.552C97.8041 163.091 96.4377 162.49 95.1413 161.758C94.7432 161.521 94.922 161.302 95.3951 161.215C96.0713 161.13 96.758 161.217 97.3913 161.469C98.7643 162.017 100.149 162.502 101.545 162.981C102.941 163.459 104.366 163.852 105.809 164.238C107.578 164.662 109.381 164.928 111.197 165.034C113.195 165.207 115.202 165.226 117.203 165.092C118.433 165.011 119.657 164.851 120.866 164.613C122.701 164.286 124.485 163.721 126.174 162.935C127.435 162.323 128.587 161.508 129.584 160.523C129.797 160.315 130.005 160.108 130.201 159.877C130.464 159.579 130.752 159.303 131.06 159.052C131.222 158.908 131.423 158.816 131.637 158.786C131.724 158.786 131.816 158.735 131.874 158.729C131.932 158.723 131.995 158.833 131.989 159.092C131.958 159.459 131.839 159.813 131.643 160.125C131.299 160.744 130.876 161.316 130.385 161.827C129.866 162.316 129.306 162.762 128.712 163.159C127.512 163.938 126.222 164.57 124.87 165.04C122.876 165.734 120.808 166.194 118.709 166.413L118.674 166.379Z" fill="#3B2C7D"/>
<path d="M114.66 271.471L113.697 271.65L113.454 271.696C113.42 271.696 113.362 271.737 113.35 271.696L113.322 271.569L113.206 271.073L112.848 269.567C112.681 268.869 112.537 268.171 112.381 267.473C112.07 266.077 111.804 264.681 111.498 263.285C110.929 260.492 110.377 257.696 109.843 254.896C108.777 249.3 107.752 243.696 106.768 238.085C106.041 233.988 105.297 229.904 104.604 225.808C102.177 211.369 99.9215 196.9 97.8369 182.4C96.9254 175.962 96.0196 169.5 95.1946 163.096C94.6869 158.989 94.1734 154.864 93.7869 150.727C93.3463 146.588 93.1421 142.428 93.1754 138.265C93.3311 135.646 93.6081 136.05 93.8042 138.225C94.0004 140.4 94.4965 144.375 94.9581 149.112C95.7254 157.506 96.81 165.889 97.9465 174.271C99.0831 182.654 100.312 191.054 101.57 199.483C103.075 209.562 104.898 220.015 106.693 230.285C108.677 241.575 110.731 252.871 113.039 264.092C113.397 265.823 113.766 267.554 114.164 269.256L114.372 270.144C114.372 270.225 114.452 270.144 114.498 270.144L114.666 270.115L115.127 270.023C115.987 269.862 116.858 269.671 117.712 269.487C119.448 269.068 121.212 268.781 122.991 268.627C123.441 268.587 123.885 268.569 124.335 268.546H124.998H125.575C125.575 268.546 125.575 268.546 125.575 268.512V268.425L125.535 268.09L125.373 266.838C124.733 261.525 124.22 256.188 123.718 250.863C123.216 245.538 122.731 240.225 122.247 234.94C121.473 226.725 120.718 218.677 119.939 210.56C119.777 208.771 119.616 207.017 119.448 205.217C119.148 201.871 118.993 199.667 118.952 198.11C118.886 197.048 118.915 195.982 119.039 194.925C119.085 194.59 119.12 194.152 119.177 193.962C119.356 193.298 119.795 196.01 120.331 200.885C121.779 215.394 123.129 230.706 124.577 246.064C125.12 251.764 125.662 257.481 126.308 263.187C126.475 264.606 126.62 266.037 126.81 267.45L127.035 269.181L127.104 269.706V269.839H125.148H124.854H124.329L123.279 269.896C121.886 270.001 120.501 270.205 119.137 270.508L117.037 270.964L115.97 271.189L114.718 271.431L114.66 271.471Z" fill="#3B2C7D"/>
<path d="M134.539 188.654C135.069 196.154 135.479 203.711 135.831 211.246C135.981 213.992 136.114 216.738 136.212 219.484L136.46 226.754L136.621 234.023C136.748 238.869 136.789 243.715 136.846 248.561C136.846 250.713 136.898 252.871 136.927 255.023C136.956 257.175 136.962 259.321 136.979 261.455C136.979 262.823 136.979 264.196 137.025 265.569V267.629V268.904V269.481H135.981H131.816C130.448 269.481 129.075 269.509 127.731 269.584C126.894 269.636 126.577 269.648 126.548 269.532C126.519 269.417 126.929 269.198 127.65 269.002C130.037 268.462 132.479 268.208 134.925 268.246H135.825V266.515L135.791 262.315C135.791 259.515 135.777 256.717 135.75 253.921C135.681 248.317 135.61 242.698 135.537 237.063C135.479 233.694 135.381 230.255 135.271 226.794C135.162 223.332 134.977 219.871 134.833 216.409C134.677 212.619 134.458 208.829 134.256 205.038C134.054 201.248 133.8 197.463 133.581 193.679C133.246 189.017 132.941 184.355 132.537 179.705C131.96 172.655 131.302 165.582 130.581 158.596C130.004 153.167 129.364 147.854 128.85 142.471C128.746 141.282 128.643 140.123 128.533 138.923C128.256 134.469 128.441 133.027 128.781 132.075C128.84 131.863 128.912 131.655 128.994 131.452C129.104 131.244 129.202 131.59 129.329 132.392C129.456 133.194 129.491 134.446 129.664 136.061C130.016 140.838 130.558 145.759 131.094 150.755C131.631 155.752 132.162 160.823 132.658 165.906C133.379 173.463 134.043 181.067 134.573 188.659L134.539 188.654Z" fill="#3B2C7D"/>
<path d="M174.059 187.99L173.153 171.444L172.755 165.41L171.572 144.133C171.388 140.989 171.157 137.827 170.92 134.712C170.586 130.708 170.28 126.687 170.199 122.665C170.199 121.413 170.517 121.558 170.932 122.59C171.548 124.283 171.936 126.051 172.086 127.846C172.293 129.889 172.443 131.937 172.588 133.985L173.003 140.123C173.268 144.225 173.505 148.339 173.69 152.469C173.915 157.414 174.376 162.542 174.711 167.59L175.767 184.252C175.974 187.671 176.18 191.09 176.384 194.51C176.69 199.702 177.001 204.894 177.307 210.035C177.601 214.027 177.884 217.95 178.178 221.896C178.242 222.767 178.311 223.627 178.345 224.504C178.495 227.769 178.345 228.825 177.768 229.523C177.661 229.689 177.537 229.843 177.399 229.985C177.001 230.29 176.592 228.969 176.442 226.61C175.893 219.583 175.42 212.152 174.982 204.687C174.659 199.142 174.336 193.564 174.007 188.002L174.059 187.99Z" fill="#3B2C7D"/>
<path d="M166.31 65.9478C166.23 62.694 166.172 59.4343 166.172 56.1747C166.172 52.9151 166.201 49.6497 166.483 46.367L166.61 44.9132V44.867H166.656H166.749L166.939 44.8093L167.308 44.6997L168.012 44.5036C168.589 44.342 169.166 44.1632 169.743 44.019L171.474 43.5747L173.205 43.1824C181.456 41.5295 189.857 40.7426 198.272 40.8343C201.999 40.8343 205.743 40.967 209.424 41.267C211.795 41.4632 214.166 41.694 216.52 42.1036C217.674 42.3113 218.874 42.542 220.033 42.8536C221.213 43.1411 222.361 43.545 223.46 44.0593C223.633 44.1516 223.778 44.2266 223.899 44.3074C223.996 44.3779 224.089 44.455 224.176 44.5382C224.308 44.6651 224.343 44.7516 224.297 44.792C224.251 44.8324 224.13 44.8382 223.945 44.792L223.628 44.7228L223.206 44.6536C221.989 44.3997 219.745 44.1228 217.108 43.7074C212.382 42.976 207.616 42.5367 202.835 42.392C198.035 42.242 193.218 42.2882 188.412 42.594C182.518 42.9749 176.672 43.9 170.949 45.3574C170.164 45.5478 169.38 45.7555 168.601 45.9863L168.249 46.0786C168.185 46.0786 168.087 46.0786 168.11 46.1882L168.03 47.0363C167.914 48.6401 167.868 50.267 167.839 51.8997C167.805 55.1613 167.828 58.4305 167.908 61.7074C167.993 65.7266 168.124 69.7516 168.301 73.7824C168.56 79.8747 168.843 85.9959 169.23 92.042C169.535 96.7382 169.951 101.336 170.343 105.975C170.43 106.996 170.516 108 170.603 109.027C170.891 112.846 170.856 114.075 170.401 114.929C170.321 115.13 170.223 115.323 170.106 115.506C169.778 115.892 169.31 114.352 169.028 111.565C168.156 103.28 167.568 94.517 167.095 85.7132C166.737 79.1767 166.46 72.5997 166.258 66.0286L166.31 65.9478Z" fill="#3B2C7D"/>
<path d="M206.04 65.0421L203.991 66.196L201.886 67.2229C200.495 67.9325 199.059 68.5441 197.628 69.1614C196.595 69.6402 195.545 70.0729 194.484 70.4767C192.626 71.2267 190.705 71.7979 188.807 72.4325C186.874 72.9575 184.959 73.5517 182.997 73.9498C181.266 74.3767 179.507 74.6537 177.776 74.9767C176.657 75.1556 175.526 75.2767 174.401 75.4037C173.826 75.4536 173.248 75.471 172.67 75.4556C172.093 75.4556 171.516 75.4556 170.968 75.4267C170.265 75.3921 170.363 75.2364 170.968 75.0114C171.91 74.6641 172.89 74.4336 173.888 74.3248C178.402 73.7166 182.868 72.7853 187.249 71.5383C189.946 70.7592 192.591 69.8131 195.17 68.7056C195.891 68.4344 196.595 68.1287 197.299 67.7883L199.422 66.8421C200.813 66.1729 202.197 65.4748 203.57 64.771C205.232 63.8364 206.922 62.9537 208.515 61.8864C209.12 61.4998 209.743 61.1248 210.343 60.7325L212.115 59.4864C213.315 58.6844 214.422 57.7556 215.524 56.8498C216.368 56.1415 217.173 55.3885 217.936 54.5941C218.743 53.8498 219.424 53.0017 220.157 52.1883C220.468 51.8248 220.786 51.4787 221.091 51.1037C221.455 50.5819 221.872 50.1004 222.338 49.6671C222.565 49.4487 222.842 49.2884 223.145 49.1998C223.253 49.163 223.363 49.1341 223.474 49.1133C223.757 49.1133 223.474 49.8171 222.793 50.9998C220.543 54.3748 217.382 57.346 214.007 59.896C211.468 61.7761 208.815 63.4967 206.063 65.0479L206.04 65.0421Z" fill="#3B2C7D"/>
<path d="M177.413 222.456C175.525 222.356 173.642 222.733 171.938 223.552C170.165 224.375 168.508 225.428 167.011 226.685C165.904 227.623 164.849 228.621 163.849 229.673C160.341 233.456 157.2 237.563 154.468 241.938C153.222 243.871 152.068 245.873 150.943 247.858C149.478 250.402 148.145 253.05 146.547 255.502C146.051 256.275 145.918 256.079 146.063 255.26C146.165 254.718 146.304 254.184 146.478 253.662C146.702 252.922 147 252.207 147.367 251.527C150.115 246.131 153.313 240.976 156.926 236.117C159.105 233.083 161.51 230.217 164.12 227.544C165.589 226.077 167.203 224.763 168.938 223.621C170.687 222.445 172.645 221.615 174.707 221.175L175.682 221.019C176.005 220.99 176.34 220.985 176.663 220.962C176.99 220.948 177.318 220.958 177.643 220.99L178.624 221.065C179.259 221.192 179.905 221.279 180.528 221.458L181.457 221.74L181.918 221.885L182.363 222.075C184.168 222.795 185.869 223.751 187.422 224.919C188.218 225.496 188.94 226.108 189.678 226.719C190.042 227.037 190.382 227.371 190.734 227.694C191.086 228.017 191.438 228.346 191.761 228.698C193.837 230.777 195.712 233.047 197.363 235.477C197.74 236.001 198.086 236.546 198.401 237.11C199.555 239.221 199.734 239.994 199.63 240.629C199.63 240.767 199.63 240.935 199.63 241.015C199.601 241.287 198.805 240.594 197.899 239.14C196.451 237.029 194.974 234.888 193.284 232.858C191.637 230.792 189.79 228.894 187.768 227.192C186.276 225.938 184.644 224.86 182.905 223.979C181.194 223.126 179.331 222.62 177.424 222.49L177.413 222.456Z" fill="#3B2C7D"/>
<path d="M209.84 243.606C208.747 242.945 207.536 242.502 206.275 242.302C205.027 242.113 203.752 242.238 202.565 242.666C201.685 243.004 200.857 243.466 200.108 244.039C197.264 246.046 194.86 248.614 193.046 251.585C192.228 252.907 191.502 254.283 190.871 255.704C190.063 257.527 189.325 259.385 188.517 261.219C188.263 261.796 188.125 261.652 188.113 261.087C188.128 260.175 188.286 259.272 188.581 258.41C189.232 256.435 190.052 254.52 191.033 252.687C192.009 250.829 193.192 249.088 194.558 247.494C196.214 245.488 198.158 243.739 200.327 242.302C201.583 241.503 203.014 241.019 204.498 240.892C205.982 240.766 207.474 241 208.848 241.575C210.486 242.24 212.003 243.172 213.336 244.333C215.32 246.055 217.092 248.007 218.615 250.148C219.823 251.743 220.927 253.414 221.921 255.15C222.14 255.537 222.348 255.912 222.544 256.304C223.248 257.804 223.288 258.364 223.121 258.796C223.096 258.896 223.061 258.992 223.017 259.085C222.856 259.31 222.44 258.762 221.863 257.752C220.11 254.625 218.093 251.652 215.834 248.867C214.159 246.787 212.135 245.015 209.852 243.629L209.84 243.606Z" fill="#3B2C7D"/>
<path d="M100.721 118.269C100.735 118.185 100.755 118.103 100.779 118.021C100.779 117.952 100.825 117.894 100.848 117.836C100.898 117.728 100.954 117.622 101.015 117.519C101.124 117.341 101.246 117.172 101.379 117.011C101.618 116.718 101.874 116.439 102.146 116.175L102.527 115.788L102.654 115.661L102.7 115.627C102.727 115.604 102.751 115.577 102.769 115.546C102.798 115.506 102.769 115.494 102.723 115.471C102.686 115.452 102.647 115.437 102.607 115.425H102.457C102.375 115.416 102.292 115.416 102.209 115.425C101.594 115.469 100.986 115.585 100.398 115.771C99.3017 116.077 98.1882 116.492 96.9363 116.711C96.3047 116.844 95.6525 116.844 95.0209 116.711C94.6904 116.64 94.3745 116.513 94.0863 116.336C93.7676 116.145 93.5142 115.861 93.3594 115.523C93.151 114.943 93.151 114.309 93.3594 113.729C93.5295 113.207 93.7578 112.705 94.0401 112.234C94.7122 111.032 95.6208 109.978 96.7113 109.136C97.0863 108.888 97.1728 109.136 97.069 109.558C96.9083 110.132 96.6204 110.662 96.2267 111.109C95.8057 111.591 95.4201 112.102 95.0728 112.638C94.7342 113.136 94.4736 113.683 94.2997 114.259C94.2348 114.486 94.2191 114.724 94.2536 114.958C94.2676 115.049 94.2998 115.138 94.3484 115.217C94.3969 115.296 94.4608 115.365 94.5363 115.419C95.0025 115.71 95.5445 115.857 96.094 115.84C96.8829 115.793 97.6605 115.63 98.4017 115.356C99.1863 115.102 99.9882 114.779 100.842 114.611C101.259 114.507 101.687 114.447 102.117 114.433C102.23 114.424 102.344 114.424 102.457 114.433H102.625H102.861C103.157 114.518 103.446 114.624 103.727 114.75L103.906 114.917C103.963 114.975 104.032 115.015 104.056 115.108C104.088 115.27 104.064 115.44 103.986 115.586C103.794 115.911 103.557 116.206 103.282 116.463C102.913 116.833 102.55 117.19 102.238 117.565C102.061 117.763 101.912 117.985 101.794 118.223C101.753 118.298 101.73 118.38 101.725 118.465C101.726 118.501 101.734 118.537 101.748 118.569C101.763 118.602 101.785 118.631 101.811 118.656C101.863 118.69 101.938 118.771 102.025 118.829L102.319 118.973C102.546 119.046 102.78 119.099 103.017 119.129C103.843 119.209 104.676 119.192 105.498 119.077C106.34 118.979 107.177 118.834 108.019 118.69L109.173 118.488C109.363 118.454 109.559 118.419 109.75 118.402L110.044 118.361H110.2C110.275 118.361 110.35 118.361 110.419 118.361C110.514 118.356 110.61 118.366 110.702 118.39L110.834 118.431L110.95 118.506C111.017 118.571 111.069 118.65 111.101 118.738C111.133 118.826 111.144 118.92 111.134 119.013C111.138 119.115 111.123 119.217 111.088 119.313C111.07 119.409 111.039 119.502 110.996 119.59C110.941 119.725 110.877 119.856 110.806 119.983C110.653 120.243 110.481 120.492 110.292 120.727C109.565 121.586 109.202 121.736 108.919 121.748C108.856 121.757 108.792 121.757 108.729 121.748C108.573 121.696 108.884 121.396 109.363 120.819C109.673 120.446 109.94 120.04 110.159 119.608C110.206 119.498 110.257 119.394 110.292 119.29C110.327 119.186 110.292 119.25 110.292 119.227C110.292 119.204 110.252 119.227 110.234 119.227C110.217 119.227 110.038 119.227 109.9 119.284L109.415 119.365L108.417 119.55C107.742 119.688 107.061 119.821 106.363 119.948C105.529 120.103 104.684 120.197 103.836 120.231C103.617 120.231 103.392 120.231 103.167 120.231C102.942 120.231 102.706 120.184 102.469 120.144C102.219 120.095 101.975 120.018 101.742 119.913C101.613 119.863 101.489 119.799 101.373 119.723L100.981 119.417C100.846 119.272 100.747 119.099 100.69 118.91C100.633 118.721 100.62 118.522 100.652 118.327L100.721 118.269Z" fill="#3B2C7D"/>
<path d="M121.306 113.313L121.79 113.077L122.062 112.956L122.552 112.731C122.831 112.605 123.086 112.433 123.308 112.223C123.349 112.189 123.379 112.143 123.396 112.092C123.412 112.041 123.414 111.986 123.4 111.935C123.257 111.586 123.017 111.285 122.708 111.069C122.348 110.783 121.961 110.532 121.554 110.319C121.184 110.132 120.798 109.979 120.4 109.863C119.898 109.725 119.356 109.638 118.912 109.535C118.785 109.5 118.744 109.269 118.912 109.038C119.005 108.902 119.134 108.796 119.285 108.73C119.436 108.665 119.603 108.644 119.765 108.669C120.948 108.892 122.062 109.387 123.019 110.117C123.323 110.345 123.612 110.591 123.885 110.856C124.066 111.018 124.211 111.216 124.31 111.438C124.41 111.659 124.461 111.899 124.462 112.142C124.424 112.424 124.299 112.686 124.104 112.892C123.95 113.059 123.775 113.207 123.585 113.331C123.249 113.551 122.896 113.743 122.529 113.908L122.373 113.988L122.292 114.017L122.131 114.086L121.964 114.161C121.917 114.161 121.802 114.219 121.871 114.277C121.94 114.335 122.125 114.485 122.315 114.64C122.617 114.871 122.893 115.132 123.14 115.419C123.358 115.664 123.519 115.953 123.614 116.267C123.704 116.61 123.669 116.974 123.515 117.294C123.458 117.427 123.384 117.553 123.296 117.669C122.962 118.073 122.777 118.096 122.564 117.998C122.513 117.98 122.465 117.956 122.419 117.929C122.275 117.825 122.333 117.606 122.465 117.352C122.558 117.185 122.615 117 122.633 116.81C122.641 116.685 122.625 116.559 122.587 116.44C122.429 116.122 122.195 115.849 121.906 115.644L121.71 115.488L121.312 115.2C121.02 115.037 120.773 114.805 120.59 114.525C120.389 114.086 120.59 113.619 121.34 113.302L121.306 113.313Z" fill="#3B2C7D"/>
<path d="M175.53 230.302C175.472 230.406 175.357 230.302 175.195 230.054C175.128 229.936 175.083 229.807 175.062 229.673C175.077 229.589 175.102 229.508 175.138 229.431C175.321 229.273 175.513 229.126 175.714 228.992C175.856 228.892 176.014 228.817 176.182 228.773C176.511 228.669 176.857 228.565 177.209 228.49C177.289 228.479 177.371 228.479 177.451 228.49C177.732 228.531 178.018 228.531 178.299 228.49C178.35 228.488 178.4 228.472 178.443 228.444C178.769 228.361 179.11 228.361 179.436 228.444C179.685 228.565 179.926 228.704 180.157 228.859C180.186 228.859 180.232 228.859 180.238 228.946C180.238 229.102 180.33 229.119 180.393 229.171C180.486 229.236 180.564 229.318 180.624 229.413C180.653 229.475 180.669 229.542 180.67 229.609C180.67 229.673 180.566 229.788 180.543 229.794C180.52 229.8 180.457 229.892 180.422 229.95L180.382 230.002C180.277 230.024 180.171 230.036 180.064 230.036C179.914 230.036 179.77 230.094 179.747 230.088L179.43 230.031C179.305 230.02 179.18 230.02 179.055 230.031C179.014 230.031 178.986 230.002 178.945 229.985C178.751 229.995 178.558 230.02 178.368 230.059C178.259 230.059 178.155 230.1 178.028 230.008C178.028 230.008 177.982 230.008 177.959 230.008C177.756 230.037 177.552 230.054 177.347 230.059C177.243 230.074 177.141 230.097 177.041 230.129C177.02 230.132 176.999 230.132 176.978 230.129C176.953 230.123 176.928 230.123 176.903 230.129C176.648 230.177 176.398 230.253 176.159 230.354C176.107 230.354 175.789 230.354 175.732 230.394C175.674 230.434 175.553 230.256 175.53 230.302Z" fill="#3B2C7D"/>
<path d="M196.733 242.486C197.005 242.314 197.332 242.248 197.65 242.302C197.674 242.309 197.695 242.322 197.712 242.34C197.729 242.357 197.741 242.379 197.748 242.403C197.754 242.426 197.754 242.451 197.748 242.475C197.742 242.499 197.73 242.52 197.714 242.538C197.56 242.665 197.404 242.786 197.246 242.902C196.5 243.346 195.803 243.871 195.169 244.465C194.944 244.667 194.725 244.881 194.517 245.106C194.31 245.331 194.079 245.533 193.866 245.752C193.456 246.225 193.029 246.669 192.654 247.177C192.458 247.419 192.256 247.661 192.077 247.91L191.541 248.654L191.039 249.329C190.451 250.087 189.939 250.9 189.51 251.758C189.428 251.898 189.362 252.047 189.314 252.202C189.164 252.531 188.16 254.781 188.004 255.086C187.625 255.836 187.288 256.607 186.994 257.394C186.965 257.512 186.914 257.623 186.844 257.723C186.699 257.94 186.6 258.186 186.556 258.444C186.446 258.785 186.342 259.131 186.244 259.477C186.182 259.649 186.105 259.815 186.014 259.973C186.005 259.995 185.989 260.015 185.969 260.028C185.949 260.042 185.925 260.049 185.901 260.049C185.877 260.049 185.853 260.042 185.833 260.028C185.813 260.015 185.798 259.995 185.789 259.973C185.789 259.8 185.667 259.921 185.598 259.927C185.576 259.933 185.552 259.933 185.529 259.927C185.516 259.81 185.516 259.692 185.529 259.575L185.564 258.79C185.627 258.213 185.714 257.636 185.748 257.51L185.898 257.002C185.991 256.702 186.089 256.304 186.233 255.911C186.492 255.11 186.81 254.296 186.879 254.129C186.951 253.956 187.034 253.789 187.127 253.627L187.675 252.398C187.946 251.821 188.252 251.244 188.252 251.181C188.486 250.714 188.769 250.273 189.094 249.865C189.158 249.784 189.213 249.697 189.262 249.606C189.737 248.845 190.259 248.115 190.825 247.419C191.096 247.056 191.402 246.698 191.685 246.346C191.737 246.283 191.8 246.231 191.858 246.167C191.935 246.099 192.008 246.025 192.077 245.948C192.452 245.55 192.833 245.163 193.231 244.794C193.629 244.425 194.033 244.061 194.471 243.727C194.569 243.652 194.875 243.45 195.181 243.248C195.487 243.046 195.839 242.89 195.954 242.804C196.069 242.717 196.594 242.544 196.733 242.486Z" fill="#3B2C7D"/>
<path d="M206.054 65.6828L204.173 66.7155L202.258 67.6616C200.989 68.3136 199.673 68.8674 198.375 69.4501C197.435 69.8943 196.477 70.2924 195.49 70.6789C193.8 71.377 192.029 71.9309 190.327 72.5309C188.625 73.1309 186.831 73.6097 185.054 74.0366C183.49 74.4693 181.887 74.7751 180.323 75.1443C179.302 75.3289 178.281 75.5193 177.26 75.6809C176.239 75.8424 175.189 75.8539 174.156 75.8828C173.51 75.8828 173.579 75.7328 174.11 75.4732C174.94 75.0731 175.821 74.7878 176.729 74.6251C180.808 73.8751 184.806 72.8251 188.844 71.6712C191.297 70.9197 193.702 70.018 196.044 68.9712C196.702 68.7174 197.348 68.3943 197.989 68.1232L199.915 67.2405C201.19 66.6289 202.448 65.9828 203.706 65.3366C205.223 64.4886 206.769 63.6751 208.229 62.7289C208.806 62.377 209.354 62.0424 209.902 61.6789L211.535 60.5251C212.637 59.8039 213.652 58.9674 214.685 58.1597C216.222 56.8736 217.671 55.4859 219.023 54.0059C219.323 53.6828 219.629 53.377 219.917 53.0424C220.272 52.5797 220.683 52.1631 221.14 51.802C221.363 51.6119 221.632 51.4844 221.919 51.4328C222.023 51.4061 222.13 51.3887 222.237 51.3809C222.514 51.3809 222.237 52.0501 221.562 53.1116C219.225 56.1416 216.453 58.8089 213.335 61.027C210.994 62.7191 208.559 64.2773 206.042 65.6943L206.054 65.6828Z" fill="#3B2C7D"/>
<path d="M188.308 41.8501C189.67 41.7808 191.026 41.7058 192.387 41.7001L194.429 41.6597H196.472C197.464 41.6597 198.456 41.6597 199.443 41.6943C202.939 41.8097 206.424 42.0981 209.891 42.5077C210.658 42.5943 211.431 42.6808 212.199 42.7904C212.966 42.9001 213.739 42.9693 214.506 43.0962C216.475 43.3381 218.42 43.7434 220.322 44.3077C220.899 44.4866 220.783 44.6539 220.229 44.7289C219.351 44.7997 218.467 44.759 217.599 44.6077C213.676 43.9212 209.712 43.4193 205.697 43.0327C204.497 42.9001 203.262 42.8597 202.028 42.7962C200.793 42.7327 199.541 42.7501 198.306 42.7154H194.233C192.878 42.7616 191.516 42.7731 190.16 42.8481C188.493 42.9462 186.82 43.0212 185.158 43.2058L183.266 43.3847L181.379 43.627L179.499 43.8808L177.641 44.2154C175.708 44.5385 173.868 45.0751 171.999 45.5424C171.589 45.6577 171.203 45.802 170.787 45.9174C169.27 46.3558 168.762 46.4193 168.335 46.1885C168.24 46.1464 168.147 46.0982 168.058 46.0443C167.839 45.8597 168.404 45.4674 169.524 45.0866C172.968 43.9394 176.512 43.1185 180.11 42.6347C182.828 42.2424 185.574 41.9712 188.314 41.8039L188.308 41.8501Z" fill="#3B2C7D"/>
<path d="M197.389 61.0905C198.081 60.8367 198.774 60.5713 199.455 60.2828C200.135 59.9944 200.81 59.7059 201.485 59.3886C201.981 59.1694 202.443 58.8924 202.928 58.6559C204.644 57.8262 206.308 56.8937 207.912 55.8636C208.633 55.4194 209.303 54.8886 209.972 54.3867L211.218 53.354C211.621 52.9952 212.043 52.6581 212.481 52.3444C213.058 51.9578 213.058 53.2501 212.089 54.0751C210.361 55.5306 208.486 56.801 206.493 57.8655C205.299 58.5059 204.093 59.2271 202.858 59.8501C202.183 60.1963 201.485 60.4963 200.799 60.8194C200.112 61.1424 199.408 61.3963 198.705 61.7021C197.833 62.0424 196.974 62.3771 196.08 62.6771C194.747 63.1501 193.38 63.5309 192.041 63.929C190.991 64.2232 189.97 64.5463 188.926 64.8059C188.695 64.8636 188.47 64.9328 188.233 64.9732C187.362 65.1463 187.08 65.1348 186.843 64.9386C186.789 64.8988 186.739 64.8544 186.693 64.8059C186.583 64.6444 186.906 64.4309 187.524 64.229C189.353 63.6924 191.268 63.1559 193.166 62.4982C194.574 62.0194 195.987 61.5348 197.378 60.9982L197.389 61.0905Z" fill="#3B2C7D"/>
<path d="M89.2869 61.2807C91.1157 58.9268 94.9869 57.3749 97.9407 58.1538C98.149 58.1974 98.3661 58.1601 98.5478 58.0493C98.7295 57.9385 98.8621 57.7627 98.9187 57.5576C98.9753 57.3525 98.9517 57.1335 98.8525 56.9452C98.7533 56.7569 98.5861 56.6135 98.385 56.5442C94.9234 55.6211 90.308 57.2826 88.1273 60.098C87.4696 60.9403 88.6465 62.1288 89.2811 61.2518L89.2869 61.2807Z" fill="#3B2C7D"/>
<path d="M105.542 55.9613C106.598 54.5536 108.283 54.0171 109.927 53.6536C110.977 53.4171 110.533 51.8017 109.483 52.0382C107.348 52.5171 105.444 53.3305 104.1 55.119C103.454 55.9844 104.902 56.8152 105.542 55.9671V55.9613Z" fill="#3B2C7D"/>
<path d="M114.681 80.7694C114.294 82.5001 111.514 81.5136 110.51 80.879C109.598 80.3021 108.779 81.7501 109.667 82.3271C111.629 83.5674 115.621 84.2309 116.296 81.2136C116.527 80.1694 114.917 79.7194 114.681 80.7694Z" fill="#3B2C7D"/>
<path d="M118.996 124.362C118.946 124.912 118.731 125.435 118.379 125.862C118.258 126.03 118.112 126.18 117.946 126.306C117.774 126.424 117.577 126.502 117.37 126.533C117.163 126.564 116.952 126.547 116.752 126.485C116.565 126.419 116.395 126.312 116.255 126.171C116.115 126.03 116.009 125.859 115.945 125.671C115.848 125.404 115.778 125.128 115.737 124.846C115.649 124.506 115.663 124.146 115.777 123.814C115.823 123.704 116.071 123.773 116.296 123.889C116.521 124.004 116.746 124.154 116.741 124.304C116.706 124.736 116.769 125.169 116.925 125.573C117.052 125.729 117.266 125.66 117.502 125.475C117.767 125.236 117.954 124.922 118.039 124.575C118.103 124.388 118.103 124.185 118.039 123.998C117.981 123.85 117.887 123.72 117.765 123.619C117.643 123.518 117.497 123.45 117.341 123.421C117.217 123.401 117.09 123.411 116.971 123.45C116.856 123.45 116.764 123.56 116.77 123.589C116.775 123.617 116.683 123.519 116.7 123.525C116.718 123.531 116.643 123.496 116.648 123.496C116.655 123.499 116.662 123.501 116.669 123.501C116.676 123.501 116.682 123.499 116.689 123.496C116.689 123.496 116.764 123.496 116.787 123.496C116.74 123.571 116.688 123.643 116.631 123.71L116.527 123.854C116.501 123.893 116.466 123.924 116.425 123.945C116.383 123.967 116.337 123.977 116.291 123.975C116.22 123.971 116.153 123.948 116.095 123.907C116.038 123.866 115.994 123.81 115.968 123.744C115.92 123.657 115.892 123.56 115.885 123.46C115.878 123.361 115.893 123.261 115.927 123.167C115.989 122.997 116.097 122.847 116.239 122.735C116.437 122.593 116.667 122.502 116.908 122.469C117.331 122.417 117.76 122.502 118.131 122.712C118.418 122.879 118.655 123.12 118.818 123.41C118.896 123.552 118.958 123.703 119.002 123.86C119.043 124.024 119.062 124.193 119.06 124.362H118.996Z" fill="#3B2C7D"/>
<path d="M217.146 23.2382C217.03 23.192 217.146 23.0594 217.417 22.8747C217.544 22.7939 217.685 22.7354 217.832 22.7017C217.922 22.7106 218.011 22.728 218.097 22.7536C218.275 22.9353 218.44 23.128 218.594 23.3305C218.704 23.4621 218.79 23.6126 218.847 23.7747C218.969 24.0978 219.101 24.4151 219.211 24.7382C219.235 24.8126 219.245 24.8909 219.24 24.969C219.237 25.2335 219.292 25.4954 219.401 25.7363C219.401 25.7767 219.401 25.8228 219.476 25.8517C219.626 26.1034 219.719 26.3851 219.747 26.6767C219.713 26.919 219.707 27.1555 219.672 27.3978C219.672 27.4324 219.672 27.4613 219.644 27.5017C219.615 27.542 219.563 27.6574 219.563 27.7324C219.577 27.8319 219.577 27.9329 219.563 28.0324C219.563 28.0844 219.488 28.142 219.442 28.1997C219.367 28.2453 219.28 28.2637 219.194 28.2517C219.124 28.2228 219.049 28.2517 218.974 28.292H218.894C218.703 28.1459 218.531 27.9773 218.38 27.7901L218.207 27.4094C218.132 27.219 218.046 27.017 218.022 26.9824C217.999 26.9478 218.022 26.8901 218.022 26.8382C218.022 26.7863 217.751 26.2613 217.746 26.2267C217.746 26.0997 217.636 25.9959 217.711 25.8401C217.718 25.8289 217.722 25.8159 217.722 25.8026C217.722 25.7893 217.718 25.7763 217.711 25.7651C217.638 25.5553 217.586 25.3389 217.555 25.119C217.526 25.0107 217.49 24.9046 217.446 24.8017C217.446 24.8017 217.446 24.7613 217.446 24.7382C217.451 24.7116 217.451 24.684 217.446 24.6574C217.375 24.4001 217.278 24.1507 217.157 23.9132C217.128 23.8613 217.157 23.5382 217.099 23.4805C217.042 23.4228 217.192 23.2555 217.146 23.2382Z" fill="#3B2C7D"/>
<path d="M227.527 30.069C227.527 30.2421 227.342 30.2998 227.03 30.294C226.894 30.273 226.767 30.2106 226.667 30.1152C226.636 30.0034 226.613 29.8897 226.598 29.7748C226.598 29.7113 226.857 28.8286 226.961 28.5286C227.047 28.2383 227.163 27.9579 227.307 27.6921C227.607 27.1556 227.884 26.6132 228.253 26.0998C228.329 25.9818 228.418 25.8733 228.519 25.7767C228.851 25.4435 229.153 25.0805 229.419 24.6921C229.476 24.6328 229.516 24.559 229.534 24.4786C229.815 24.0281 230.159 23.6201 230.555 23.2671C230.913 23.0363 231.248 22.7882 231.623 22.5863C231.675 22.5863 231.709 22.4998 231.79 22.5113C231.859 22.5159 231.928 22.5059 231.992 22.482C232.057 22.4582 232.116 22.421 232.165 22.3729C232.32 22.2814 232.482 22.2023 232.65 22.1363C232.746 22.1141 232.845 22.1044 232.944 22.1075C233.03 22.1075 233.094 22.2632 233.082 22.2921C233.071 22.3209 233.146 22.4075 233.192 22.4594C233.21 22.478 233.226 22.4994 233.238 22.5229C233.161 22.6856 233.074 22.8435 232.978 22.9959C232.894 23.1749 232.791 23.345 232.673 23.5036C232.673 23.5036 232.43 23.7748 232.188 24.0344C231.946 24.294 231.698 24.6113 231.657 24.6575C231.602 24.7198 231.536 24.7708 231.461 24.8075C231.421 24.8075 230.78 25.7075 230.757 25.7421C230.602 25.9036 230.503 26.1113 230.273 26.2209C230.227 26.2209 230.203 26.2786 230.175 26.319C229.961 26.6421 229.696 26.9306 229.453 27.2363C229.327 27.3921 229.234 27.5767 229.119 27.744C229.119 27.744 229.067 27.7902 229.044 27.819C229.009 27.8493 228.977 27.8843 228.952 27.9229C228.684 28.319 228.445 28.7335 228.236 29.1632C228.19 29.2613 227.838 29.6709 227.798 29.7921C227.757 29.9132 227.521 29.9998 227.527 30.069Z" fill="#3B2C7D"/>
<path d="M235.145 39.7557C235.111 39.8596 234.99 39.7557 234.811 39.4788C234.734 39.3506 234.674 39.2129 234.632 39.0692C234.623 38.9867 234.623 38.9035 234.632 38.8211C234.632 38.7807 234.961 38.498 235.065 38.3884C235.163 38.2911 235.281 38.2163 235.411 38.1692L236.161 37.8346C236.219 37.8103 236.282 37.7985 236.345 37.7999C236.55 37.7943 236.749 37.7346 236.922 37.6269C236.957 37.6269 236.992 37.6269 237.003 37.5519C237.185 37.4005 237.401 37.2956 237.632 37.2461C237.824 37.2569 238.017 37.2569 238.209 37.2461C238.209 37.2461 238.255 37.2461 238.295 37.2461C238.336 37.2461 238.434 37.298 238.492 37.2865C238.572 37.2775 238.653 37.2775 238.734 37.2865C238.79 37.3064 238.843 37.3357 238.89 37.373C238.939 37.4339 238.969 37.5083 238.976 37.5865C238.976 37.6499 239.022 37.7134 239.051 37.7769C239.063 37.7988 239.073 37.8221 239.08 37.8461C238.992 38.0325 238.884 38.2085 238.757 38.3711L238.469 38.573L238.151 38.8153C238.151 38.8153 238.076 38.8153 238.03 38.8153C237.984 38.8153 237.586 39.1269 237.563 39.1326C237.54 39.1384 237.384 39.248 237.24 39.1903C237.24 39.1903 237.199 39.1903 237.176 39.1903C237.011 39.2713 236.837 39.3314 236.657 39.3692C236.567 39.3992 236.48 39.4379 236.397 39.4846C236.397 39.4846 236.363 39.4846 236.345 39.4846C236.328 39.4846 236.294 39.4846 236.276 39.4846C236.077 39.5586 235.884 39.6493 235.699 39.7557C235.659 39.7903 235.376 39.7557 235.33 39.8019C235.284 39.848 235.157 39.7096 235.145 39.7557Z" fill="#3B2C7D"/>
</svg>
