<svg width="300" height="300" viewBox="0 0 300 300" fill="none" xmlns="http://www.w3.org/2000/svg">
<path d="M96.4023 120.207L98.335 118.344C98.8014 117.878 99.3389 117.488 99.9273 117.19L101.231 116.527L99.5004 115.044L96.5812 118.061L96.4023 120.207Z" fill="#3B2C7D"/>
<path d="M125.421 169.211C116.254 167.065 118.596 147.634 118.596 147.634L122.94 146.302C122.94 146.302 119.634 157.263 121.596 161.584C123.558 165.906 125.421 169.211 125.421 169.211Z" fill="#3B2C7D"/>
<path d="M93.7889 127.84C93.962 126.888 94.1178 125.925 94.2678 124.956C94.3197 124.604 94.3255 124.246 94.3889 123.888C94.5908 122.636 94.862 121.384 95.1678 120.144C95.2985 119.586 95.4312 119.032 95.5658 118.482C95.7102 117.753 95.9922 117.058 96.3966 116.434C96.5293 116.244 96.7312 116.394 96.8755 116.671C97.045 116.987 97.0942 117.354 97.0139 117.704C96.6331 119.007 96.437 120.386 96.0966 121.794C95.9489 122.665 95.8487 123.543 95.7966 124.425C95.6928 125.4 95.5889 126.381 95.462 127.361C95.3928 127.967 95.3005 128.579 95.2139 129.184C95.0687 130.117 94.8762 131.041 94.637 131.954C94.5015 132.727 94.2237 133.468 93.8178 134.14C93.7168 134.307 93.5947 134.46 93.4543 134.596C92.8774 135.104 92.5428 135.057 92.3005 134.711C92.2339 134.636 92.1741 134.555 92.1216 134.469C92.0547 134.325 92.0345 134.164 92.0639 134.007C92.0976 133.865 92.1541 133.728 92.2312 133.604C92.4756 133.194 92.6584 132.751 92.7735 132.288C92.9587 131.742 93.1128 131.185 93.2351 130.621C93.437 129.732 93.6274 128.792 93.7716 127.834L93.7889 127.84Z" fill="#3B2C7D"/>
<path d="M82.7866 112.35C83.5591 110.773 84.4561 109.261 85.4693 107.827C86.45 106.402 87.4827 105.04 88.55 103.679L89.7039 102.208L90.9154 100.771C92.3981 99.1212 93.9443 97.5462 95.5308 96.0174C97.1173 94.4885 98.802 93.0577 100.521 91.6674C102.067 90.4674 103.625 89.2616 105.252 88.2058C106.296 87.5135 107.358 86.8327 108.471 86.2443C109.032 85.9476 109.61 85.6855 110.202 85.4597C110.784 85.2162 111.382 85.01 111.99 84.8424C112.746 84.6174 112.717 84.8943 112.204 85.3904C111.868 85.71 111.509 86.005 111.131 86.2731C110.632 86.6667 110.106 87.0234 109.556 87.3404C107.395 88.5424 105.327 89.9059 103.371 91.4193C101.398 92.9424 99.4481 94.5116 97.5558 96.1847C95.2782 98.2599 93.157 100.501 91.2097 102.889C90.6327 103.535 90.1366 104.204 89.6 104.862C89.0635 105.519 88.5673 106.2 88.0654 106.898C87.0568 108.255 86.1209 109.665 85.2616 111.121C84.206 112.888 83.4277 114.807 82.9539 116.81C82.213 119.902 81.6353 123.031 81.2231 126.185C80.9058 128.625 80.727 131.031 80.5077 133.46C80.4558 133.996 80.427 134.521 80.3462 135.058C80.0693 137.048 79.8673 137.665 79.452 138.046C79.3668 138.14 79.272 138.225 79.1693 138.3C78.8808 138.456 78.7481 137.614 78.7827 136.142C78.7827 133.956 79.0193 131.729 79.2327 129.462C79.4462 127.194 79.752 124.898 80.1039 122.596C80.3693 120.865 80.6808 119.181 81.05 117.479C81.2404 116.631 81.425 115.777 81.7077 114.889C81.9814 114.024 82.3109 113.178 82.6943 112.356L82.7866 112.35Z" fill="#3B2C7D"/>
<path d="M103.846 124.783C103.711 123.898 103.518 123.023 103.269 122.163C103.171 121.846 103.044 121.54 102.929 121.223C102.562 120.093 102.107 118.993 101.567 117.934C101.314 117.469 101.033 117.021 100.725 116.59C100.309 116.063 99.9233 115.512 99.5709 114.94C99.4728 114.75 99.6863 114.6 100.009 114.571C100.196 114.55 100.386 114.573 100.563 114.637C100.74 114.701 100.9 114.805 101.031 114.94C101.978 116.033 102.756 117.262 103.338 118.586C103.673 119.388 104.146 120.156 104.492 120.975C104.875 121.88 105.175 122.819 105.386 123.779C105.45 124.073 105.525 124.356 105.577 124.667L105.709 125.567C105.784 126.023 105.773 126.496 105.807 126.952C105.842 127.408 105.807 127.886 105.807 128.348C105.767 128.711 105.75 129.069 105.738 129.438C105.696 129.806 105.627 130.171 105.531 130.529C105.506 130.691 105.458 130.848 105.386 130.996C105.115 131.573 104.913 131.677 104.481 131.573C104.383 131.552 104.286 131.525 104.192 131.492C104.041 131.417 103.919 131.293 103.846 131.14C103.773 130.988 103.752 130.815 103.788 130.65C103.904 130.113 103.875 129.548 103.956 129.029C103.956 128.758 104.002 128.486 104.042 128.221V127.384C104.042 126.969 104.002 126.536 104.002 126.109C104.002 125.683 103.904 125.244 103.823 124.806L103.846 124.783Z" fill="#3B2C7D"/>
<path d="M143.934 143.584C143.934 143.584 144.886 178.523 143.178 179.838C141.47 181.154 138.32 181.54 138.32 181.54C138.32 181.54 143.588 169.425 142.238 159.069C141.228 151.344 138.972 151.338 138.972 151.338L143.934 143.584Z" fill="#3B2C7D"/>
<path d="M123.286 200.054C123.2 200.348 123.748 200.429 124.711 200.365C133.492 199.754 140.144 206.077 140.629 214.869C141.084 223.182 137.744 233.388 137.744 233.388L144.09 229.182L144.592 191.105L123.286 200.054Z" fill="#3B2C7D"/>
<path d="M226.832 117.813C226.832 117.813 241.624 109.886 241.14 83.9189L256.642 96.542C256.642 96.542 252.505 97.7882 251.772 103.863C251.04 109.938 252.505 114.029 249.344 117.813C246.182 121.598 240.113 120.38 239.87 124.511C239.628 128.642 236.472 126.969 236.472 126.969L226.832 117.813Z" fill="#3B2C7D"/>
<path d="M108.788 86.1001C98.8594 90.2886 92.4844 98.8386 92.4844 98.8386L93.3844 99.2713L108.788 86.1001Z" fill="#3B2C7D"/>
<path d="M117.112 128.959L119.587 129.709C119.887 129.802 120.198 129.865 120.498 129.957L123.689 130.927L125.108 131.319C125.721 131.467 126.325 131.646 126.919 131.856C127.104 131.925 127.052 132.046 126.868 132.138C126.591 132.257 126.287 132.294 125.991 132.248C125.362 132.132 124.721 132.052 124.093 131.925C123.464 131.798 122.852 131.573 122.235 131.348C121.502 131.1 120.706 130.956 119.927 130.771L117.406 130.09L115.854 129.669C115.069 129.456 114.285 129.231 113.5 129.057C112.894 128.919 112.277 128.85 111.666 128.746C111.53 128.734 111.395 128.713 111.262 128.682C110.766 128.567 110.627 128.457 110.593 128.157C110.584 128.09 110.584 128.023 110.593 127.956C110.593 127.736 110.841 127.615 111.221 127.632C112.366 127.729 113.498 127.936 114.602 128.25C115.444 128.463 116.281 128.706 117.118 128.936L117.112 128.959Z" fill="#3B2C7D"/>
<path d="M86.0749 239.492C77.5768 239.729 55.9422 237.288 54.5922 233.607C53.4903 230.602 66.7941 229.355 66.7941 229.355L67.1576 233.607L86.0749 239.492Z" fill="#3B2C7D"/>
<path d="M88.0233 240.386C85.6118 239.721 83.2079 239.011 80.8118 238.258C79.9406 237.975 79.0522 237.761 78.1925 237.45C75.1005 236.445 72.1009 235.175 69.2272 233.654L68.7541 233.388L68.5118 233.261C68.4021 233.196 68.3013 233.116 68.2118 233.025C67.9092 232.712 67.6874 232.329 67.5656 231.911C67.3406 231.2 67.2012 230.464 67.1502 229.719C67.0381 227.9 67.0208 226.076 67.0983 224.256C67.0983 223.725 67.2541 223.742 67.5137 224.204C67.8594 224.961 68.0702 225.774 68.1368 226.604C68.2175 227.527 68.2983 228.438 68.4252 229.321C68.5125 230.139 68.6945 230.945 68.9675 231.721C69.0151 231.83 69.0794 231.931 69.1579 232.021L69.2329 232.056L69.5272 232.211L70.7156 232.84C71.5464 233.209 72.3483 233.631 73.2022 233.994C75.2887 234.863 77.4229 235.612 79.5945 236.238C81.9829 236.977 84.3829 237.692 86.8002 238.344C88.2887 238.748 89.7772 239.146 91.2772 239.498C93.5445 240.075 95.8233 240.652 98.0964 241.096C99.8618 241.459 101.616 241.673 103.369 242.008C103.756 242.071 104.131 242.123 104.523 242.198C105.96 242.469 106.404 242.631 106.664 243.006C106.731 243.081 106.789 243.165 106.837 243.254C106.935 243.513 106.312 243.623 105.227 243.554C103.623 243.427 101.973 243.283 100.323 243.017C98.6733 242.752 97.0118 242.44 95.3445 242.123C92.8695 241.638 90.4118 241.027 87.9714 240.392L88.0233 240.386Z" fill="#3B2C7D"/>
<path d="M80.3703 137.769C80.1817 137.725 80.0021 137.649 79.8396 137.544C79.7934 137.544 79.8396 137.469 79.88 137.481L80.2492 137.538C80.3242 137.538 81.5127 137.815 81.9165 137.879L83.0703 138.104C83.8665 138.26 84.6627 138.398 85.4646 138.519C85.6434 138.548 85.8223 138.583 85.9953 138.623C86.5971 138.76 87.2056 138.866 87.8184 138.94C87.9202 138.949 88.0225 138.949 88.1242 138.94C88.2915 138.94 89.9473 139.142 90.1607 139.194C90.6857 139.304 91.2165 139.39 91.753 139.477C91.83 139.48 91.9059 139.496 91.978 139.523C92.1349 139.576 92.2977 139.608 92.4627 139.621L93.1492 139.731C93.2621 139.751 93.3738 139.778 93.4838 139.811C93.5877 139.84 93.53 139.892 93.4838 139.898C93.4377 139.904 93.4838 139.95 93.4838 139.973C93.4838 139.996 93.4838 139.973 93.4838 140.002H93.2646L92.78 140.031C92.5129 140.047 92.2451 140.047 91.978 140.031L90.9396 139.956L89.7857 139.858C89.669 139.845 89.5533 139.824 89.4396 139.794L87.7723 139.575C87.4506 139.53 87.1324 139.463 86.8203 139.373C86.7603 139.353 86.6985 139.34 86.6357 139.333C86.0588 139.24 85.5396 139.108 85.003 138.975L84.1723 138.779L84.0223 138.738L83.8377 138.686C83.18 138.525 82.5338 138.346 81.8819 138.179L80.855 137.867C80.7684 137.913 80.4569 137.786 80.3703 137.769Z" fill="#3B2C7D"/>
<path d="M85.5979 135.525C85.4373 135.493 85.2879 135.42 85.1652 135.312C85.1248 135.312 85.1652 135.225 85.2056 135.231L85.5171 135.271C85.5805 135.271 86.5671 135.508 86.9075 135.548L87.8882 135.715L89.8902 136.015L90.3344 136.085C90.8421 136.183 91.3556 136.252 91.869 136.304C91.9555 136.31 92.0422 136.31 92.1286 136.304C92.2671 136.304 93.6632 136.454 93.8594 136.483L95.1921 136.731C95.2571 136.735 95.3212 136.749 95.3825 136.771C95.5108 136.825 95.6474 136.856 95.7863 136.863L96.3632 136.973C96.4576 137 96.5501 137.032 96.6402 137.071C96.7209 137.071 96.6402 137.163 96.6402 137.163C96.6402 137.163 96.6402 137.215 96.6402 137.244V137.273H96.4556H96.0575L95.394 137.238L94.5402 137.14L93.5652 137.042C93.4701 137.033 93.3757 137.017 93.2825 136.996L91.8863 136.852C91.6183 136.825 91.3524 136.781 91.0902 136.719H90.9286C90.4671 136.662 90.0113 136.581 89.5498 136.5L88.8459 136.385H88.7248L88.5632 136.344C87.9863 136.24 87.4613 136.108 86.9132 135.987C86.7863 135.987 86.1921 135.773 86.0479 135.733C85.9036 135.692 85.6671 135.537 85.5979 135.525Z" fill="#3B2C7D"/>
<path d="M93.2577 133.217C93.1906 133.224 93.1227 133.215 93.0596 133.191C92.9965 133.167 92.9399 133.128 92.8943 133.079C92.8597 133.079 92.8943 132.958 92.8943 132.946L93.1366 132.883C93.1885 132.883 93.9904 132.836 94.2904 132.836C94.5547 132.831 94.8189 132.847 95.0808 132.883C95.6116 132.952 96.1424 133.021 96.6674 133.113C96.7842 133.133 96.8998 133.16 97.0135 133.194C97.4058 133.309 97.8039 133.39 98.202 133.465C98.2671 133.474 98.333 133.474 98.3981 133.465C98.8417 133.521 99.2811 133.606 99.7135 133.719L100.717 134.048C100.769 134.053 100.819 134.071 100.862 134.1C100.95 134.164 101.053 134.205 101.162 134.221C101.312 134.256 101.456 134.296 101.6 134.342C101.671 134.372 101.738 134.409 101.802 134.452C101.86 134.492 101.802 134.573 101.802 134.579C101.802 134.584 101.802 134.642 101.802 134.682C101.802 134.723 101.802 134.682 101.802 134.717C101.472 134.74 101.14 134.74 100.81 134.717L99.3962 134.469C99.3215 134.454 99.2482 134.433 99.177 134.406L98.1097 134.198C97.9128 134.157 97.7198 134.099 97.5327 134.025C97.495 134.005 97.4539 133.994 97.4116 133.99C97.0597 133.921 96.7135 133.829 96.3674 133.748C96.1885 133.702 96.0097 133.679 95.8308 133.644L95.7328 133.615H95.6116C95.1904 133.546 94.7635 133.465 94.3366 133.425C94.2385 133.425 93.7597 133.309 93.6616 133.309C93.5298 133.267 93.3947 133.237 93.2577 133.217Z" fill="#3B2C7D"/>
<path d="M100.629 130.754C100.479 130.754 100.37 130.679 100.277 130.517C100.277 130.465 100.277 130.333 100.318 130.315C100.405 130.289 100.493 130.268 100.583 130.252C100.635 130.252 101.46 130.292 101.737 130.321C102.007 130.341 102.275 130.382 102.539 130.442C103.081 130.552 103.618 130.667 104.148 130.794C104.267 130.819 104.382 130.854 104.495 130.898C104.886 131.04 105.287 131.153 105.695 131.238C105.759 131.262 105.828 131.274 105.897 131.273C106.347 131.355 106.792 131.465 107.229 131.602C107.564 131.735 107.904 131.85 108.245 131.965C108.297 131.965 108.348 131.965 108.389 132.023C108.478 132.093 108.583 132.139 108.695 132.156C108.845 132.202 108.995 132.242 109.139 132.294C109.212 132.327 109.282 132.367 109.347 132.415C109.41 132.45 109.347 132.531 109.347 132.537C109.347 132.542 109.318 132.606 109.318 132.64V132.692C109.156 132.702 108.994 132.702 108.833 132.692C108.653 132.706 108.471 132.706 108.291 132.692L106.825 132.433C106.749 132.416 106.673 132.393 106.6 132.363L105.498 132.138C105.286 132.098 105.08 132.028 104.887 131.931C104.848 131.909 104.805 131.895 104.76 131.89C104.402 131.798 104.056 131.683 103.698 131.573C103.52 131.515 103.335 131.481 103.156 131.435L103.058 131.394C103.02 131.376 102.979 131.362 102.937 131.354C102.504 131.256 102.077 131.123 101.639 131.06C101.541 131.06 101.062 130.887 100.958 130.875C100.854 130.863 100.687 130.742 100.629 130.754Z" fill="#3B2C7D"/>
<path d="M108.92 129.375C108.822 129.41 108.758 129.317 108.695 129.15C108.67 129.073 108.67 128.99 108.695 128.914C108.749 128.871 108.81 128.836 108.873 128.81C109.13 128.783 109.388 128.771 109.647 128.775C109.825 128.774 110.003 128.793 110.177 128.833C110.535 128.902 110.887 128.977 111.233 129.069C111.309 129.088 111.383 129.115 111.452 129.15C111.696 129.27 111.954 129.357 112.22 129.41C112.263 129.425 112.309 129.425 112.352 129.41C112.643 129.454 112.929 129.526 113.206 129.623C113.408 129.739 113.622 129.819 113.829 129.923C113.858 129.923 113.898 129.923 113.916 129.975C113.933 130.027 114.037 130.073 114.106 130.096C114.2 130.128 114.293 130.164 114.383 130.206C114.429 130.238 114.47 130.277 114.504 130.321C114.545 130.356 114.504 130.46 114.504 130.466C114.504 130.471 114.475 130.546 114.475 130.592C114.475 130.639 114.475 130.627 114.475 130.639C114.248 130.693 114.016 130.724 113.783 130.731C113.783 130.731 112.918 130.592 112.825 130.569C112.776 130.557 112.729 130.535 112.687 130.506L111.977 130.385C111.84 130.356 111.711 130.299 111.597 130.217C111.57 130.212 111.542 130.212 111.516 130.217C111.291 130.16 111.072 130.067 110.847 129.987C110.737 129.946 110.616 129.929 110.506 129.894C110.397 129.86 110.466 129.894 110.443 129.866H110.368C110.101 129.782 109.826 129.724 109.548 129.692C109.409 129.641 109.267 129.598 109.122 129.566C109.081 129.485 108.96 129.358 108.92 129.375Z" fill="#3B2C7D"/>
<path d="M92.0336 134.342C91.9602 134.346 91.8874 134.328 91.8253 134.288C91.7633 134.249 91.715 134.191 91.6875 134.123C91.6586 134.077 91.6875 133.95 91.7278 133.938L91.9817 133.875C92.0336 133.875 92.8471 133.921 93.1355 133.938C93.4007 133.959 93.6645 133.994 93.9259 134.042L95.5125 134.313C95.6278 134.337 95.7432 134.365 95.8586 134.4C96.2497 134.512 96.649 134.593 97.0528 134.642C97.1196 134.654 97.188 134.654 97.2548 134.642C97.7026 134.674 98.1478 134.736 98.5875 134.827C98.9278 134.919 99.274 134.988 99.6201 135.058C99.6699 135.06 99.7188 135.072 99.7644 135.092C99.8608 135.148 99.9702 135.178 100.082 135.179C100.232 135.179 100.382 135.208 100.532 135.237C100.609 135.254 100.683 135.283 100.751 135.323C100.82 135.352 100.786 135.45 100.751 135.456C100.716 135.462 100.751 135.537 100.751 135.577C100.751 135.617 100.751 135.606 100.751 135.617C100.421 135.696 100.085 135.748 99.7471 135.773H99.0548L98.2701 135.727C98.1915 135.719 98.1141 135.701 98.0394 135.675C98.0048 135.675 96.9663 135.56 96.9317 135.542C96.718 135.515 96.5086 135.461 96.3086 135.381C96.2677 135.366 96.2251 135.356 96.1817 135.352C95.8182 135.288 95.4663 135.19 95.1086 135.104C94.9298 135.058 94.7452 135.023 94.5317 134.988C94.4981 134.98 94.4654 134.968 94.4336 134.954L94.3125 134.919C93.8798 134.833 93.4528 134.717 93.0202 134.66C92.9163 134.66 92.4432 134.498 92.3394 134.492C92.2355 134.487 92.0913 134.337 92.0336 134.342Z" fill="#3B2C7D"/>
<path d="M99.4363 132.029C99.3209 132.029 99.2575 131.931 99.2344 131.735C99.2344 131.665 99.2805 131.492 99.3151 131.481C99.3816 131.447 99.4512 131.42 99.5228 131.4C99.5632 131.4 100.146 131.452 100.348 131.458C100.543 131.47 100.736 131.501 100.925 131.55L102.079 131.786C102.164 131.803 102.247 131.829 102.327 131.861C102.602 131.976 102.891 132.054 103.186 132.092C103.235 132.107 103.287 132.107 103.336 132.092C103.669 132.114 103.996 132.18 104.311 132.288C104.548 132.41 104.796 132.508 105.038 132.611C105.073 132.611 105.113 132.611 105.136 132.669C105.159 132.727 105.275 132.773 105.356 132.802C105.462 132.837 105.566 132.879 105.667 132.929C105.719 132.967 105.765 133.011 105.806 133.061C105.846 133.108 105.806 133.217 105.771 133.223C105.736 133.229 105.736 133.315 105.731 133.367C105.725 133.419 105.731 133.402 105.731 133.413C105.484 133.463 105.232 133.49 104.981 133.494L104.49 133.425C104.242 133.396 103.982 133.361 103.913 133.361C103.858 133.354 103.805 133.334 103.757 133.304L102.956 133.194C102.8 133.175 102.65 133.122 102.517 133.038C102.488 133.033 102.459 133.033 102.431 133.038C102.168 132.985 101.91 132.914 101.657 132.825C101.525 132.785 101.386 132.761 101.254 132.727H101.19C101.164 132.709 101.134 132.695 101.104 132.686C100.786 132.617 100.481 132.502 100.157 132.45C100.082 132.45 99.7594 132.26 99.6728 132.248C99.5863 132.236 99.4825 132.023 99.4363 132.029Z" fill="#3B2C7D"/>
<path d="M106.849 130.05C106.733 130.05 106.67 129.963 106.63 129.825C106.627 129.795 106.631 129.766 106.641 129.738C106.651 129.71 106.667 129.684 106.687 129.663C106.755 129.658 106.822 129.658 106.889 129.663L107.703 129.796C107.893 129.825 108.083 129.871 108.28 129.917L109.433 130.182C109.52 130.202 109.604 130.227 109.687 130.257C109.971 130.363 110.262 130.446 110.558 130.505C110.608 130.514 110.659 130.514 110.708 130.505C111.04 130.575 111.366 130.669 111.683 130.788L112.416 131.134C112.451 131.134 112.491 131.134 112.514 131.192C112.573 131.252 112.647 131.296 112.728 131.319C112.834 131.365 112.938 131.417 113.039 131.475C113.085 131.504 113.126 131.55 113.172 131.584C113.218 131.619 113.172 131.671 113.143 131.671C113.114 131.671 113.143 131.717 113.108 131.746C113.108 131.746 112.941 131.746 112.768 131.7C112.595 131.654 112.416 131.654 112.382 131.642L111.903 131.515L111.326 131.394C111.271 131.383 111.218 131.364 111.17 131.336C111.17 131.336 110.403 131.192 110.374 131.186C110.219 131.159 110.069 131.108 109.93 131.036C109.903 131.022 109.873 131.012 109.843 131.007C109.578 130.944 109.324 130.857 109.064 130.777L108.666 130.673C108.642 130.667 108.618 130.657 108.597 130.644C108.568 130.629 108.537 130.617 108.505 130.609C108.187 130.529 107.876 130.419 107.558 130.35C107.483 130.35 107.149 130.177 107.062 130.154C106.976 130.13 106.895 130.05 106.849 130.05Z" fill="#3B2C7D"/>
<path d="M85.8377 136.938C85.7291 136.913 85.6274 136.865 85.5397 136.796C85.4519 136.727 85.3804 136.64 85.3301 136.54C85.2954 136.477 85.3589 136.356 85.4281 136.362C85.4974 136.367 85.7051 136.362 85.8377 136.408C85.9704 136.454 87.1647 136.806 87.6031 136.869L88.8493 137.152C89.7031 137.337 90.5801 137.487 91.4281 137.619C91.6185 137.648 91.8089 137.683 92.0051 137.729C92.6603 137.873 93.3228 137.983 93.9897 138.058C94.1009 138.069 94.213 138.069 94.3243 138.058C94.4166 138.058 94.9012 138.11 95.4204 138.179C95.9397 138.248 96.4358 138.369 96.5743 138.398C97.1512 138.571 97.7281 138.704 98.3051 138.906C98.3907 138.922 98.4728 138.953 98.5474 138.998C98.7043 139.093 98.8759 139.161 99.0551 139.2C99.2974 139.275 99.5397 139.362 99.7762 139.46C99.8906 139.512 100.002 139.569 100.111 139.633C100.209 139.685 100.111 139.731 100.111 139.731C100.111 139.731 100.07 139.777 100.076 139.806C100.082 139.835 100.076 139.806 100.076 139.84H99.8397L99.3204 139.777C98.9454 139.731 98.5416 139.702 98.4666 139.685C98.3916 139.667 97.8897 139.615 97.3704 139.517C96.8512 139.419 96.2166 139.356 96.1243 139.35C95.9994 139.332 95.876 139.305 95.7551 139.269L93.9608 139.038C93.6132 138.996 93.2697 138.924 92.9339 138.825C92.8659 138.806 92.7964 138.792 92.7262 138.785C92.1493 138.698 91.5377 138.577 90.9435 138.45L90.032 138.271L89.8704 138.225L89.6685 138.167C88.9474 138.017 88.2378 137.821 87.5224 137.631C87.3551 137.596 86.6051 137.279 86.4147 137.221C86.2358 137.181 85.9589 136.962 85.8377 136.938Z" fill="#3B2C7D"/>
<path d="M110.231 130.384C110.655 130.22 111.086 130.078 111.524 129.958C111.651 129.958 111.656 129.986 111.524 130.056C111.253 130.177 110.987 130.321 110.704 130.436C110.624 130.471 109.897 130.759 109.06 131.013C108.224 131.267 107.272 131.55 106.793 131.677C105.864 131.931 104.929 132.144 103.989 132.358C102.086 132.761 100.205 133.26 98.3525 133.852L97.1179 134.25C95.7044 134.694 94.3025 135.184 92.9006 135.692C92.6698 135.779 92.4275 135.859 92.2083 135.958C91.8506 136.125 88.0371 137.452 87.5237 137.584C86.2833 137.965 85.0314 138.329 83.7679 138.652C83.589 138.698 83.3987 138.756 83.2314 138.784C82.8423 138.857 82.4572 138.95 82.0775 139.061C81.5352 139.194 80.9871 139.327 80.4448 139.436C80.1737 139.494 79.9025 139.534 79.6371 139.581C79.3717 139.627 79.516 139.546 79.5967 139.523C79.839 139.448 79.6314 139.477 79.5967 139.459L80.0987 139.315C80.3929 139.234 80.791 139.125 81.2006 138.998C82.0083 138.767 82.8506 138.479 83.0179 138.421L83.7679 138.184L85.3717 137.659C86.5256 137.267 87.7775 136.846 88.0256 136.754C88.2737 136.661 88.5564 136.581 88.8217 136.5L92.6064 135.15C93.339 134.902 94.066 134.636 94.8102 134.423C94.9544 134.383 95.1044 134.331 95.2544 134.279C96.5121 133.848 97.7833 133.442 99.0679 133.061C99.7256 132.871 100.389 132.704 101.053 132.542L101.416 132.467L101.872 132.369C103.447 132.017 105.028 131.723 106.591 131.348C106.954 131.267 108.668 130.863 109.072 130.719C109.279 130.684 110.035 130.488 110.231 130.384Z" fill="#3B2C7D"/>
<path d="M107.335 132.035C107.675 131.846 108.05 131.727 108.437 131.683C108.552 131.683 108.581 131.769 108.471 131.838L107.814 132.225C107.687 132.317 105.448 133.379 104.664 133.69C103.879 134.002 103.158 134.302 102.391 134.585C100.839 135.161 99.2694 135.681 97.6886 136.154C97.3367 136.263 96.9848 136.367 96.6271 136.454C95.4098 136.771 94.204 137.123 93.004 137.486C92.8021 137.55 92.6001 137.608 92.4271 137.683C92.1155 137.804 88.8617 138.79 88.4405 138.906C87.3848 139.188 86.3405 139.483 85.2905 139.817C85.1434 139.868 84.9931 139.908 84.8405 139.938C84.5102 140 84.1859 140.091 83.8713 140.21C83.4213 140.354 82.9828 140.51 82.5328 140.642C82.3078 140.711 82.0828 140.763 81.8578 140.821C81.6328 140.879 81.7424 140.786 81.8059 140.752C81.9963 140.654 81.8059 140.688 81.8059 140.677L83.0751 140.048C83.7271 139.748 84.4194 139.471 84.5578 139.396L85.1809 139.154L86.5309 138.675L88.7924 137.931C89.0117 137.861 89.2424 137.804 89.4732 137.746L92.7213 136.748C93.3501 136.575 93.9732 136.367 94.6136 136.24C94.7405 136.24 94.8674 136.177 94.9886 136.142L98.2251 135.208C98.8021 135.052 99.3155 134.867 99.8636 134.694L100.164 134.619L100.539 134.51C101.825 134.083 103.117 133.679 104.375 133.177C104.669 133.073 106.066 132.565 106.394 132.415C106.544 132.317 107.179 132.115 107.335 132.035Z" fill="#3B2C7D"/>
<path d="M98.681 131.827C98.9993 131.676 99.3372 131.571 99.6848 131.515C99.7829 131.515 99.8002 131.573 99.6848 131.631C99.4829 131.74 99.2868 131.856 99.0733 131.959C99.0098 131.994 98.4618 132.236 97.8271 132.49C97.1925 132.744 96.4829 132.986 96.0964 133.113C95.3925 133.356 94.6829 133.575 93.9675 133.777L89.6637 135L88.706 135.259C87.6098 135.554 86.5252 135.917 85.4521 136.304C85.2733 136.373 85.0887 136.431 84.9214 136.511C84.6502 136.638 81.7368 137.711 81.3502 137.832C80.3983 138.132 79.4464 138.467 78.4656 138.727C78.3291 138.769 78.1904 138.803 78.0502 138.831C77.7477 138.886 77.449 138.962 77.156 139.056C76.7406 139.171 76.3252 139.275 75.9041 139.373C75.6964 139.419 75.4887 139.448 75.281 139.482C75.0733 139.517 75.1829 139.436 75.2464 139.413C75.4252 139.344 75.2464 139.356 75.2464 139.338L75.6214 139.211L76.4579 138.923C77.0694 138.704 77.7041 138.456 77.831 138.415L79.6194 137.769L81.6444 137.025C81.8406 136.95 82.0483 136.886 82.256 136.817L85.1406 135.744C85.7175 135.554 86.2656 135.34 86.8714 135.167L87.2118 135.063C88.1868 134.74 89.1848 134.486 90.1829 134.215L91.7002 133.817L91.9771 133.754L92.3233 133.679C93.5233 133.367 94.7291 133.102 95.906 132.709C96.1771 132.634 97.481 132.254 97.7868 132.132C97.9483 132.052 98.531 131.902 98.681 131.827Z" fill="#3B2C7D"/>
<path d="M105.856 134.879C106.031 134.779 106.233 134.739 106.433 134.764C106.446 134.766 106.458 134.771 106.468 134.78C106.478 134.789 106.485 134.8 106.489 134.813C106.493 134.826 106.493 134.839 106.489 134.852C106.485 134.865 106.478 134.876 106.467 134.885L106.156 135.087C106.092 135.133 105.002 135.629 104.627 135.785C104.252 135.941 103.9 136.085 103.531 136.223C102.781 136.5 102.031 136.771 101.275 137.031C101.108 137.089 100.935 137.146 100.767 137.192C100.191 137.36 99.6136 137.55 99.0367 137.769C98.9399 137.799 98.8454 137.836 98.754 137.879C98.604 137.954 97.0521 138.456 96.8444 138.542C96.3367 138.687 95.8348 138.848 95.3271 139.004C95.2585 139.033 95.1869 139.054 95.1136 139.067C94.9515 139.094 94.7928 139.138 94.6405 139.2L94.0002 139.419C93.8901 139.45 93.7784 139.475 93.6655 139.494C93.5675 139.494 93.5963 139.431 93.6252 139.414C93.654 139.396 93.6252 139.356 93.6252 139.333L93.8155 139.229L94.2367 139.021C94.554 138.871 94.8829 138.721 94.9521 138.698L96.9194 137.885C97.0232 137.844 97.1329 137.821 97.2425 137.787L98.7944 137.21C99.0944 137.117 99.3713 137.002 99.7002 136.939L99.879 136.887C100.392 136.708 100.912 136.546 101.431 136.385L102.216 136.114L102.36 136.073L102.539 136.016C103.156 135.791 103.779 135.589 104.385 135.335C104.523 135.283 105.21 135.058 105.366 134.983C105.521 134.908 105.781 134.925 105.856 134.879Z" fill="#3B2C7D"/>
<path d="M103.672 130.327C103.981 130.154 104.316 130.034 104.665 129.969C104.768 129.969 104.797 130.038 104.699 130.108C104.601 130.177 104.318 130.379 104.122 130.5C104.059 130.535 103.545 130.823 102.905 131.112C102.265 131.4 101.572 131.688 101.215 131.838C100.516 132.115 99.8126 132.363 99.1088 132.606C97.6665 133.062 96.253 133.569 94.8222 134.071C94.5049 134.181 94.1876 134.285 93.8645 134.383C92.7626 134.723 91.6722 135.081 90.5876 135.467C90.4053 135.525 90.2262 135.593 90.0511 135.669C89.7741 135.802 86.8261 136.823 86.4395 136.956C85.4818 137.256 84.5299 137.579 83.5838 137.908C83.4496 137.959 83.3129 138.003 83.1741 138.04C82.8743 138.109 82.5809 138.204 82.2972 138.323L81.0857 138.773C80.8838 138.842 80.6761 138.894 80.4742 138.952C80.2722 139.01 80.3588 138.894 80.4165 138.86C80.5838 138.767 80.4165 138.79 80.4165 138.767C80.4165 138.744 80.4165 138.767 80.4165 138.738L80.5145 138.687L80.7741 138.56L81.5818 138.173C82.1588 137.896 82.8049 137.596 82.9318 137.562L86.7453 136.044C86.9472 135.963 87.1549 135.9 87.3568 135.837L90.2761 134.735C90.853 134.538 91.4299 134.313 92.0068 134.158C92.1222 134.129 92.2318 134.083 92.3472 134.042C93.3222 133.702 94.303 133.396 95.2838 133.079L96.7838 132.571L97.0607 132.496L97.4068 132.392C98.5953 132 99.8011 131.683 100.972 131.273C101.243 131.187 102.541 130.777 102.841 130.638C102.945 130.581 103.528 130.385 103.672 130.327Z" fill="#3B2C7D"/>
<path d="M85.1645 198.115C87.403 198.629 89.6415 199.119 91.8915 199.558C92.7165 199.719 93.5415 199.846 94.3665 199.99C97.2511 200.567 100.17 201.017 103.09 201.433C104.388 201.606 105.697 201.704 106.99 201.808L109.488 201.911C110.318 201.911 111.143 201.911 111.98 201.986C112.493 202.015 112.436 202.229 111.98 202.454C111.276 202.764 110.517 202.931 109.747 202.944C106.294 202.933 102.848 202.638 99.4434 202.061C98.4222 201.871 97.378 201.721 96.328 201.565L93.1895 201.063L89.7626 200.411L86.353 199.708L82.1645 198.779C80.0588 198.3 77.9472 197.775 75.8588 197.273C74.2376 196.875 72.6222 196.575 71.0184 196.119C70.6607 196.021 70.3145 195.94 69.9569 195.836C69.483 195.695 69.0263 195.502 68.5953 195.259C68.376 195.107 68.2137 194.886 68.1338 194.631C68.0989 194.548 68.0775 194.46 68.0703 194.371C68.0703 194.25 68.2261 194.209 68.4799 194.209C68.6305 194.211 68.7809 194.223 68.9299 194.244C69.1444 194.267 69.3566 194.308 69.5645 194.365L78.3915 196.5C80.6299 197.042 82.8857 197.579 85.1472 198.069L85.1645 198.115Z" fill="#3B2C7D"/>
<path d="M131.716 197.982C130.539 198.455 129.357 198.913 128.168 199.355C127.735 199.523 127.308 199.713 126.876 199.863C125.337 200.413 123.776 200.9 122.191 201.323C121.493 201.525 120.783 201.709 120.085 201.9C119.192 202.184 118.259 202.327 117.322 202.321C117.028 202.321 117.057 202.136 117.27 201.888C117.541 201.533 117.933 201.291 118.372 201.207L119.705 200.896L121.037 200.55L123.743 199.846C124.843 199.516 125.925 199.131 126.985 198.692C128.166 198.246 129.347 197.786 130.528 197.313L132.697 196.413C133.782 195.952 134.883 195.49 135.957 195.017C136.793 194.642 137.583 194.221 138.414 193.863L138.991 193.632C139.695 193.373 139.943 193.355 140.145 193.465C140.193 193.483 140.24 193.507 140.283 193.534C140.399 193.621 140.168 193.857 139.707 194.146L138.651 194.792L137.543 195.369C136.799 195.75 136.032 196.125 135.235 196.523C134.082 197.042 132.928 197.538 131.722 198.034L131.716 197.982Z" fill="#3B2C7D"/>
<path d="M144.587 219.617C144.316 222.704 144.01 225.779 143.624 228.848L143.497 229.702L143.457 229.927C143.457 230.042 143.382 230.152 143.341 230.267C143.318 230.32 143.289 230.37 143.255 230.417C143.255 230.498 143.185 230.509 143.151 230.561C143.064 230.628 142.974 230.69 142.88 230.746C142.401 231.057 141.922 231.363 141.432 231.646C137.97 233.665 134.428 235.471 130.828 237.184C129.23 237.934 127.632 238.707 126.034 239.429C123.994 240.398 121.9 241.249 119.762 241.979C119.087 242.198 119.11 241.979 119.595 241.58C120.401 240.983 121.279 240.489 122.209 240.109C126.409 238.315 130.516 236.307 134.659 234.271C137.134 233.048 139.632 231.611 142.009 230.123L142.424 229.863C142.439 229.857 142.452 229.847 142.461 229.834C142.471 229.82 142.476 229.804 142.476 229.788V229.742V229.615C142.539 229.246 142.591 228.859 142.643 228.461L142.909 226.154C143.07 224.607 143.22 223.056 143.353 221.509C143.514 219.6 143.664 217.69 143.791 215.78C143.982 212.896 144.155 210.011 144.224 207.127C144.282 204.888 144.224 202.696 144.178 200.492C144.178 200.007 144.143 199.529 144.12 199.044C144.08 197.227 144.12 196.65 144.38 196.246C144.421 196.154 144.47 196.065 144.524 195.981C144.651 195.796 144.968 196.523 145.101 197.867C145.386 201.982 145.423 206.111 145.21 210.23C145.078 213.346 144.853 216.473 144.634 219.588L144.587 219.617Z" fill="#3B2C7D"/>
<path d="M113.941 229.466C114.045 227.516 114.137 225.56 114.207 223.61L114.247 221.469C114.322 218.96 114.42 216.444 114.466 213.929C114.466 212.816 114.466 211.696 114.466 210.589C114.466 209.164 114.397 207.739 114.437 206.319C114.437 205.875 114.593 205.927 114.76 206.319C115.011 206.915 115.159 207.549 115.199 208.194C115.415 211.099 115.477 214.012 115.383 216.923C115.332 218.654 115.383 220.506 115.349 222.3C115.318 224.273 115.268 226.246 115.199 228.219L115.055 231.86C114.985 233.7 114.853 235.546 114.76 237.369C114.714 238.079 114.685 238.783 114.668 239.487L114.553 241.598C114.518 241.916 114.495 242.221 114.455 242.533C114.414 242.844 114.38 243.064 114.333 243.266C114.289 243.433 114.233 243.597 114.166 243.756C114.128 243.861 114.069 243.957 113.993 244.038C113.916 244.12 113.824 244.185 113.722 244.229C113.649 244.273 113.571 244.309 113.491 244.339C113.278 244.391 113.11 243.866 113.208 243.069C113.33 240.571 113.462 237.975 113.595 235.362L113.889 229.466H113.941Z" fill="#3B2C7D"/>
<path d="M125.3 188.827L122.756 189.635C122.444 189.733 122.144 189.86 121.838 189.958L118.561 190.962C118.077 191.117 117.598 191.29 117.125 191.469C116.53 191.719 115.919 191.929 115.296 192.098C114.904 192.19 115.204 191.44 115.873 191.146C117.091 190.64 118.335 190.197 119.6 189.819C120.361 189.6 121.123 189.242 121.908 188.994L124.44 188.135L126.004 187.604C126.788 187.327 127.579 187.067 128.352 186.767C128.929 186.531 129.506 186.248 130.083 185.988C130.209 185.931 130.331 185.867 130.463 185.815C130.948 185.619 131.127 185.625 131.329 185.815C131.378 185.862 131.424 185.913 131.467 185.965C131.588 186.144 131.467 186.381 131.109 186.571C130.064 187.128 128.974 187.595 127.85 187.967C127.008 188.267 126.119 188.544 125.3 188.833V188.827Z" fill="#3B2C7D"/>
<path d="M101.941 191.671L97.499 190.731C96.9567 190.615 96.4086 190.546 95.8721 190.419C93.9682 189.998 92.0701 189.542 90.1778 189.092C89.3355 188.89 88.4817 188.717 87.6394 188.556C86.5495 188.374 85.4765 188.102 84.4317 187.742C84.1028 187.615 84.2124 187.367 84.5586 187.165C85.0339 186.912 85.5807 186.827 86.1105 186.923C87.2182 187.102 88.3028 187.362 89.3932 187.621C90.4836 187.881 91.574 188.164 92.6644 188.469C93.974 188.833 95.3644 189.046 96.7028 189.323L101.18 190.217C102.097 190.39 103.02 190.569 103.937 190.731C105.334 190.979 106.736 191.233 108.132 191.417C109.216 191.562 110.295 191.608 111.368 191.694C111.605 191.694 111.841 191.694 112.078 191.735C112.393 191.77 112.701 191.848 112.995 191.965C113.161 192.051 113.295 192.189 113.376 192.358C113.416 192.426 113.451 192.497 113.48 192.571C113.514 192.681 113.434 192.773 113.261 192.854C113.018 192.969 112.755 193.034 112.487 193.044C110.461 193.074 108.437 192.896 106.447 192.514C104.941 192.277 103.436 191.989 101.93 191.706L101.941 191.671Z" fill="#3B2C7D"/>
<path d="M75.4889 142.079L74.4043 142.01C74.2716 142.01 74.1389 142.01 74.0062 142.01C73.5302 141.969 73.0578 141.894 72.5928 141.785L71.9754 141.652C71.705 141.607 71.4451 141.513 71.2081 141.375C71.0639 141.289 71.4331 140.96 71.6985 141.017C72.1889 141.127 72.6793 141.191 73.1928 141.289C73.5103 141.329 73.8308 141.341 74.1504 141.323H75.2293H75.9043C76.2447 141.323 76.5908 141.323 76.9312 141.323C77.2716 141.323 77.462 141.289 77.7331 141.323C77.7927 141.32 77.8524 141.32 77.912 141.323C78.1312 141.375 78.1889 141.444 78.1947 141.635C78.1947 141.675 78.1947 141.721 78.1947 141.762C78.185 141.831 78.1525 141.895 78.1024 141.944C78.0523 141.994 77.9874 142.025 77.9178 142.033C77.4695 142.135 77.0076 142.162 76.5504 142.114L75.4831 142.067L75.4889 142.079Z" fill="#3B2C7D"/>
<path d="M85.9148 144.629C87.9648 145.09 90.0206 145.531 92.0822 145.95L94.3495 146.359C97.0033 146.879 99.6629 147.392 102.334 147.831C103.517 148.021 104.711 148.177 105.894 148.304C107.417 148.471 108.946 148.609 110.451 148.881C110.919 148.967 110.832 149.227 110.405 149.458C109.758 149.776 109.036 149.912 108.317 149.85C106.742 149.746 105.184 149.533 103.626 149.273C102.069 149.013 100.523 148.748 98.9706 148.419C97.1187 148.027 95.1687 147.761 93.2706 147.404C91.1783 147.019 89.0918 146.604 87.011 146.158L83.1687 145.384L77.3995 144.063C75.9052 143.723 74.4225 143.486 72.9456 143.077C72.6168 142.996 72.2937 142.921 71.9648 142.817C71.5244 142.689 71.1061 142.495 70.7245 142.24C70.5184 142.096 70.3742 141.88 70.3206 141.634C70.3046 141.547 70.3046 141.457 70.3206 141.369C70.3206 141.265 70.511 141.248 70.6841 141.259C70.8232 141.261 70.962 141.273 71.0995 141.294C71.2936 141.318 71.4862 141.352 71.6764 141.398C74.2379 141.975 77.0072 142.609 79.7533 143.25C81.8129 143.723 83.8841 144.202 85.9552 144.64L85.9148 144.629Z" fill="#3B2C7D"/>
<path d="M144.389 167.798C144.187 170.809 143.968 173.815 143.668 176.832C143.61 177.381 143.564 177.929 143.489 178.494L143.454 178.719C143.454 178.829 143.379 178.938 143.345 179.048C143.327 179.102 143.3 179.153 143.264 179.198C143.264 179.198 143.223 179.198 143.264 179.256L143.235 179.284L143.171 179.342C143.085 179.42 142.99 179.487 142.889 179.544L142.185 179.982C138.805 181.917 135.315 183.651 131.731 185.175C130.15 185.867 128.57 186.565 126.995 187.229C124.97 188.082 122.956 188.959 120.839 189.6C119.535 190.009 120.92 188.729 123.239 187.782C127.375 186.109 131.448 184.321 135.533 182.429C136.75 181.852 137.973 181.275 139.179 180.582C139.756 180.248 140.385 179.913 140.968 179.556C141.262 179.377 141.545 179.209 141.85 179.025L142.283 178.748L142.41 178.667C142.423 178.662 142.435 178.654 142.443 178.643C142.451 178.631 142.456 178.618 142.456 178.604C142.456 178.604 142.502 178.35 142.52 178.182L142.589 177.606L142.704 176.481L142.9 174.219C143.021 172.707 143.125 171.196 143.223 169.684C143.343 167.819 143.446 165.956 143.535 164.094C143.662 161.273 143.783 158.434 143.806 155.631C143.806 153.45 143.766 151.315 143.679 149.163L143.61 147.756C143.558 145.984 143.61 145.448 143.858 145.027C143.903 144.938 143.954 144.851 144.008 144.767C144.135 144.588 144.446 145.298 144.585 146.602C144.88 150.612 144.953 154.635 144.804 158.654C144.729 161.694 144.568 164.74 144.395 167.786L144.389 167.798Z" fill="#3B2C7D"/>
<path d="M113.719 176.584C113.812 174.577 113.898 172.546 113.95 170.55V168.346C114.008 165.761 114.094 163.154 114.117 160.581C114.117 159.427 114.117 158.273 114.077 157.119C114.042 155.654 113.979 154.188 114.002 152.723C114.002 152.261 114.152 152.313 114.325 152.694C114.582 153.306 114.743 153.954 114.804 154.615C115.062 157.614 115.158 160.624 115.092 163.633C115.052 165.438 115.092 167.319 115.092 169.171C115.092 171.202 115.054 173.234 114.977 175.269C114.938 176.523 114.9 177.773 114.862 179.019C114.804 180.917 114.683 182.815 114.608 184.696C114.538 186.161 114.533 187.581 114.452 189.058C114.452 189.375 114.406 189.692 114.371 190.015C114.337 190.338 114.302 190.592 114.267 190.771C114.226 190.943 114.174 191.113 114.112 191.279C114.077 191.386 114.021 191.486 113.948 191.572C113.875 191.658 113.785 191.729 113.685 191.781C113.611 191.828 113.534 191.868 113.454 191.902C113.24 191.965 113.056 191.434 113.137 190.604C113.2 188.065 113.327 185.365 113.425 182.642C113.512 180.623 113.592 178.604 113.679 176.567L113.719 176.584Z" fill="#3B2C7D"/>
<path d="M114.106 175.604C114.147 173.463 114.164 171.317 114.164 169.177C114.164 168.392 114.106 167.613 114.106 166.829C114.106 164.071 114.106 161.313 114.106 158.55C114.106 157.327 114.02 156.098 113.974 154.886C113.899 153.329 113.801 151.759 113.824 150.202C113.824 149.717 114.02 149.763 114.256 150.161C114.597 150.793 114.813 151.485 114.891 152.198C115.265 155.379 115.458 158.578 115.468 161.781C115.468 163.708 115.612 165.704 115.67 167.671C115.728 169.84 115.756 172.004 115.768 174.173C115.768 175.506 115.768 176.838 115.768 178.171C115.768 180.19 115.716 182.209 115.699 184.229C115.699 185.786 115.751 187.321 115.699 188.884C115.699 189.231 115.699 189.565 115.653 189.917C115.638 190.384 115.542 190.845 115.37 191.279C115.323 191.4 115.25 191.509 115.156 191.598C115.063 191.688 114.95 191.756 114.828 191.798C114.734 191.849 114.635 191.889 114.533 191.919C114.251 191.977 113.956 191.394 114.026 190.523C113.991 187.852 113.991 184.967 114.026 182.077C114.026 179.931 114.083 177.767 114.083 175.609L114.106 175.604Z" fill="#3B2C7D"/>
<path d="M105.876 130.385C102.887 131.154 99.9047 131.946 96.9278 132.762L93.6855 133.702C89.8393 134.752 86.0162 135.829 82.2162 136.933C80.5259 137.429 78.8412 137.971 77.1855 138.525L70.8682 140.712C70.2912 140.937 70.147 140.665 70.5624 140.135C70.8488 139.793 71.1876 139.499 71.5662 139.263C72.0615 138.929 72.5964 138.658 73.1586 138.456C75.3278 137.654 77.5086 136.927 79.7066 136.235C81.9047 135.542 84.1143 134.89 86.3586 134.308C89.0412 133.604 91.7759 132.698 94.4989 131.913C97.4932 131.048 100.499 130.223 103.505 129.404L109.066 127.933C110.485 127.569 111.876 127.217 113.33 126.883C113.575 126.811 113.835 126.811 114.08 126.883L114.622 127.062L115.66 127.402L117.691 128.077C118.759 128.423 119.82 128.74 120.882 129.058L124.043 130.033C124.51 130.177 124.966 130.304 125.434 130.46C127.135 131.1 127.643 131.4 127.92 131.81C127.991 131.898 128.055 131.993 128.11 132.092C128.22 132.358 127.43 132.363 126.103 132.092C125.116 131.925 124.141 131.665 123.16 131.406C122.18 131.146 121.187 130.869 120.201 130.581C118.234 129.963 116.249 129.288 114.276 128.637L113.734 128.458H113.635L112.637 128.694C111.887 128.867 111.137 129.063 110.382 129.271C108.876 129.646 107.37 130.038 105.87 130.425L105.876 130.385Z" fill="#3B2C7D"/>
<path d="M145.381 168.461C145.249 172.079 145.139 175.65 144.845 179.313C144.845 179.371 144.845 179.544 144.799 179.683C144.783 179.823 144.758 179.961 144.724 180.098C144.695 180.158 144.662 180.215 144.626 180.271L144.568 180.352L144.539 180.386L144.58 180.415L144.268 180.663L143.195 181.24C142.618 181.535 142.001 181.817 141.401 182.094C139.272 183.046 137.126 183.929 134.974 184.8C132.822 185.671 130.664 186.531 128.495 187.333L122.755 189.565C120.325 190.578 117.84 191.452 115.312 192.185C114.516 192.392 114.533 192.052 115.093 191.544C116.001 190.796 117.032 190.211 118.139 189.813C123.112 187.921 128.051 185.913 133.081 184.015C136.093 182.861 139.139 181.477 142.081 180.069L142.687 179.775L143.172 179.527L143.281 179.475C143.3 179.441 143.312 179.404 143.316 179.365V179.227L143.345 178.904C143.414 178.015 143.46 177.11 143.506 176.21C143.587 174.41 143.657 172.598 143.708 170.786C143.772 168.56 143.824 166.333 143.853 164.1C143.893 160.731 143.928 157.333 143.853 153.986C143.795 151.385 143.61 148.835 143.408 146.279C143.356 145.702 143.31 145.165 143.258 144.6C143.114 142.5 143.143 141.836 143.535 141.335C143.602 141.221 143.675 141.111 143.755 141.006C143.945 140.769 144.476 141.583 144.701 143.152C145.305 147.924 145.594 152.73 145.566 157.54C145.595 161.175 145.52 164.821 145.439 168.461H145.381Z" fill="#3B2C7D"/>
<path d="M114.473 228.462C114.558 226.381 114.621 224.294 114.663 222.202C114.663 221.44 114.663 220.679 114.663 219.894C114.704 217.206 114.779 214.517 114.796 211.817C114.796 210.623 114.756 209.429 114.733 208.246C114.687 206.723 114.617 205.2 114.658 203.683C114.658 203.215 114.86 203.256 115.09 203.642C115.414 204.262 115.61 204.941 115.667 205.638C115.994 208.744 116.131 211.868 116.077 214.99C116.048 216.865 116.146 218.815 116.158 220.731C116.158 222.842 116.158 224.954 116.123 227.077C116.123 228.375 116.071 229.673 116.048 230.971C116.013 232.938 115.91 234.917 115.846 236.873C115.806 238.39 115.846 239.885 115.76 241.408C115.76 241.748 115.725 242.077 115.685 242.412C115.662 242.87 115.555 243.32 115.367 243.738C115.315 243.859 115.235 243.965 115.135 244.05C115.035 244.135 114.917 244.196 114.79 244.229C114.693 244.272 114.593 244.307 114.49 244.333C114.213 244.373 113.954 243.796 114.023 242.96C114.052 240.358 114.11 237.548 114.185 234.738C114.248 232.644 114.317 230.538 114.381 228.438L114.473 228.462Z" fill="#3B2C7D"/>
<path d="M66.442 228.133C66.1477 221.25 65.992 214.361 66.0785 207.461C66.1189 204.946 66.142 202.425 66.3381 199.898C66.4477 198.577 66.5804 197.256 66.8227 195.923C66.8862 195.588 66.9554 195.248 67.042 194.908C67.1317 194.544 67.2473 194.187 67.3881 193.84C67.562 193.334 67.9067 192.903 68.3631 192.623C68.5904 192.506 68.8477 192.459 69.1016 192.49C69.3583 192.551 69.6051 192.648 69.8343 192.779L70.0131 192.859L70.1343 192.906L70.3823 192.998L70.9073 193.177C71.2708 193.292 71.6285 193.408 72.0035 193.506C72.7362 193.725 73.4862 193.921 74.2362 194.117C75.7304 194.504 77.242 194.873 78.7477 195.231C81.7708 195.942 84.8035 196.623 87.8458 197.273C91.6708 198.098 95.542 198.848 99.3843 199.581C104.294 200.481 109.232 201.358 114.119 202.344C115.642 202.65 115.382 202.973 114.021 203.123C111.792 203.294 109.551 203.18 107.352 202.783C102.303 201.969 97.29 200.983 92.2823 199.938C87.2747 198.894 82.2612 197.781 77.2823 196.517L73.3477 195.513C72.69 195.34 72.0266 195.161 71.3573 194.971L70.3477 194.665L69.84 194.492L69.367 194.308C69.3058 194.271 69.2397 194.244 69.1708 194.227C69.1352 194.23 69.1008 194.241 69.0707 194.26C69.0405 194.279 69.0155 194.305 68.9977 194.336C68.956 194.395 68.923 194.459 68.8996 194.527C68.8299 194.716 68.7702 194.908 68.7208 195.104C68.5133 195.933 68.3649 196.775 68.2766 197.625C68.0746 199.356 67.9708 201.138 67.8958 202.904C67.6304 209.781 67.7804 216.704 68.0285 223.609C68.1016 225.733 68.1977 227.848 68.317 229.956L68.4093 231.548L68.4496 232.246C68.4603 232.312 68.4842 232.375 68.5199 232.432C68.5556 232.488 68.6024 232.537 68.6573 232.575C69.0425 232.867 69.4585 233.117 69.8977 233.319C70.3535 233.544 70.8323 233.752 71.317 233.942C74.319 235.071 77.3769 236.045 80.4785 236.861C83.5823 237.709 86.7035 238.477 89.8246 239.169C94.6708 240.265 99.4708 241.136 104.305 241.979L107.484 242.504C109.469 242.873 110.773 243.121 111.678 243.363C112.319 243.513 112.934 243.758 113.502 244.09C113.688 244.19 113.867 244.301 114.038 244.425C114.211 244.586 113.882 244.684 113.132 244.725C111.996 244.773 110.857 244.727 109.728 244.586C107.525 244.367 105.309 244.009 103.077 243.652C100.844 243.294 98.6054 242.867 96.3496 242.411C91.8439 241.5 87.2977 240.467 82.7631 239.302C79.3997 238.425 76.042 237.496 72.7016 236.342C71.8708 236.054 71.0343 235.765 70.2035 235.39C69.2937 235.039 68.4313 234.576 67.6362 234.011C67.5735 233.967 67.5138 233.919 67.4573 233.867C67.3742 233.793 67.2953 233.714 67.2208 233.631C67.0817 233.474 66.9616 233.302 66.8631 233.117C66.8133 233.024 66.7801 232.922 66.765 232.817V232.742V232.702V232.552L66.7304 232.096L66.6554 230.792L66.517 228.184L66.442 228.133Z" fill="#3B2C7D"/>
<path d="M132.395 196.731L128.31 198.329C127.814 198.525 127.335 198.756 126.839 198.946C125.077 199.615 123.31 200.264 121.537 200.89L119.189 201.773C118.681 201.952 118.197 202.171 117.672 202.35C117.154 202.553 116.6 202.649 116.045 202.633C115.693 202.633 115.716 202.396 115.929 202.056C116.174 201.587 116.586 201.226 117.083 201.046C118.07 200.706 119.068 200.308 120.072 199.939C121.075 199.569 122.114 199.24 123.158 198.912C124.404 198.531 125.633 197.942 126.868 197.441L130.958 195.802L133.473 194.787L137.275 193.229C138.25 192.819 139.173 192.329 140.16 191.925C140.379 191.839 140.581 191.746 140.806 191.671C141.625 191.394 141.925 191.4 142.179 191.562C142.24 191.592 142.297 191.626 142.352 191.665C142.485 191.792 142.22 192.087 141.677 192.415L140.46 193.16L139.173 193.823C138.302 194.25 137.443 194.677 136.52 195.092C135.175 195.669 133.808 196.246 132.447 196.789L132.395 196.731Z" fill="#3B2C7D"/>
<path d="M120.481 147.254L119.195 147.669C119.033 147.721 118.895 147.807 118.739 147.854L117.06 148.367C116.817 148.446 116.58 148.543 116.35 148.656C116.065 148.826 115.75 148.942 115.422 148.996C115.208 148.996 115.127 148.119 115.45 147.94C116.041 147.625 116.666 147.381 117.314 147.213C117.71 147.094 118.096 146.944 118.468 146.763L119.749 146.284L120.533 145.99C120.931 145.84 121.335 145.702 121.722 145.529C122.108 145.356 122.299 145.182 122.587 145.027C122.651 144.989 122.716 144.954 122.783 144.923C123.037 144.819 123.152 144.877 123.302 145.171C123.339 145.236 123.371 145.304 123.4 145.373C123.444 145.468 123.458 145.573 123.44 145.676C123.423 145.779 123.375 145.875 123.302 145.95C122.847 146.326 122.327 146.615 121.768 146.804C121.352 146.965 120.925 147.109 120.504 147.265L120.481 147.254Z" fill="#3B2C7D"/>
<path d="M79.5735 189.738C78.6505 190.015 77.7274 190.315 76.8159 190.604C76.4812 190.713 76.1582 190.858 75.8235 190.967L72.2697 192.121C71.7447 192.294 71.237 192.508 70.7178 192.698C70.0676 192.969 69.396 193.185 68.7101 193.344C68.4909 193.385 68.4562 193.188 68.5601 192.935C68.699 192.607 68.9537 192.342 69.2755 192.19C70.5775 191.58 71.9284 191.08 73.3139 190.696C74.1447 190.46 74.9639 190.079 75.7889 189.767L78.5351 188.781C79.112 188.579 79.6889 188.383 80.237 188.204C81.0966 187.915 81.9678 187.627 82.8216 187.338C83.4793 187.096 84.1139 186.831 84.7716 186.6C84.9159 186.554 85.0543 186.49 85.2043 186.45C85.7812 186.283 85.9601 186.335 86.1389 186.525C86.1824 186.566 86.2229 186.611 86.2601 186.658C86.3639 186.813 86.1851 187.033 85.8216 187.235C84.694 187.835 83.5258 188.355 82.3255 188.792C81.4197 189.127 80.5139 189.461 79.5966 189.785L79.5735 189.738Z" fill="#3B2C7D"/>
<path d="M145.729 209.942C145.671 214.333 145.533 218.717 145.343 223.096C145.268 224.7 145.233 226.298 145.129 227.896L145.054 228.958L145.014 229.488V229.771C145.019 229.846 145.019 229.921 145.014 229.996L144.944 230.198C144.944 230.262 144.898 230.337 144.869 230.4L144.823 230.487C144.777 230.487 144.887 230.527 144.869 230.527L144.835 230.567C144.74 230.676 144.629 230.769 144.506 230.844L143.975 231.185C143.669 231.375 143.398 231.571 143.069 231.762C141.852 232.494 140.618 233.198 139.377 233.873C136.896 235.229 134.375 236.504 131.837 237.733C129.587 238.823 127.319 239.919 125.069 240.969C122.171 242.404 119.171 243.623 116.093 244.615C115.118 244.887 115.152 244.5 115.839 243.912C116.948 243.025 118.183 242.308 119.502 241.783C125.444 239.267 131.306 236.498 137.127 233.556C138.858 232.662 140.589 231.692 142.291 230.637L143.491 229.858L143.594 229.788C143.597 229.748 143.597 229.708 143.594 229.667L143.641 228.998C143.693 227.994 143.744 226.996 143.802 225.998C144.016 221.608 144.16 217.2 144.235 212.798C144.281 210.087 144.298 207.375 144.264 204.669C144.265 200.581 144.035 196.495 143.577 192.433C143.525 192.04 143.468 191.654 143.398 191.279L143.358 191.065C143.358 191.013 143.358 190.956 143.312 190.915C143.269 190.881 143.223 190.852 143.173 190.829L142.994 190.742C142.319 190.437 141.575 190.165 140.843 189.923C139.371 189.427 137.877 188.965 136.389 188.498L134.421 187.881C131.975 187.079 131.219 186.727 130.798 186.231C130.694 186.134 130.603 186.023 130.527 185.902C130.377 185.59 131.427 185.735 133.256 186.219C135.962 186.946 138.725 187.742 141.529 188.683C142.233 188.931 142.919 189.162 143.669 189.508C143.935 189.658 144.344 189.813 144.483 190.125L144.518 190.183V190.212C144.489 190.212 144.564 190.212 144.558 190.212L144.604 190.333C144.638 190.413 144.665 190.496 144.685 190.581L144.766 191.019C144.835 191.394 144.898 191.763 144.95 192.138C145.164 193.633 145.325 195.127 145.423 196.621C145.718 201.058 145.746 205.5 145.729 209.931V209.942Z" fill="#3B2C7D"/>
<path d="M92.068 189.057C92.1497 189.009 92.2444 188.987 92.3392 188.994C92.3453 188.997 92.3506 189.001 92.3543 189.007C92.358 189.012 92.3599 189.019 92.3599 189.026C92.3599 189.032 92.358 189.039 92.3543 189.045C92.3506 189.05 92.3453 189.055 92.3392 189.057L92.1892 189.161C92.1603 189.161 91.6122 189.456 91.4507 189.536C91.2892 189.617 91.0988 189.692 90.9199 189.767L89.8238 190.188C89.743 190.223 89.6565 190.246 89.5757 190.275C89.2926 190.361 89.0152 190.466 88.7449 190.586C88.6987 190.601 88.6557 190.625 88.618 190.656L87.7411 191.077L87.043 191.388C87.0127 191.408 86.9797 191.424 86.9449 191.434C86.8658 191.451 86.7911 191.485 86.7257 191.532C86.6334 191.584 86.5411 191.648 86.4488 191.706C86.3985 191.732 86.3464 191.755 86.293 191.775C86.2469 191.775 86.2469 191.746 86.2526 191.734C86.2584 191.723 86.2526 191.7 86.2526 191.694L86.4892 191.446C86.6161 191.325 86.7545 191.204 86.7834 191.181C86.8239 191.146 86.8663 191.113 86.9103 191.082L87.1988 190.886L87.7065 190.615L87.868 190.557C87.868 190.557 88.5834 190.234 88.6122 190.229C88.7584 190.169 88.9088 190.121 89.0622 190.084L89.1545 190.056C89.4026 189.969 89.6622 189.894 89.9161 189.813L90.3026 189.686H90.3776L90.4642 189.657C90.7699 189.554 91.0757 189.461 91.3699 189.34C91.4392 189.34 91.7795 189.207 91.8545 189.167C91.9295 189.127 92.0276 189.081 92.068 189.057Z" fill="#3B2C7D"/>
<path d="M94.9956 189.392C95.0797 189.357 95.1699 189.34 95.261 189.34C95.261 189.34 95.2956 189.369 95.261 189.387L95.1052 189.479L94.3725 189.831C94.2001 189.911 94.0228 189.98 93.8418 190.038L92.7629 190.431L92.5206 190.506C92.2413 190.58 91.9691 190.678 91.7072 190.8C91.6604 190.814 91.6171 190.837 91.5802 190.869C91.511 190.91 90.8245 191.256 90.7322 191.29C90.5056 191.384 90.2841 191.49 90.0687 191.608C90.0411 191.629 90.0098 191.644 89.9764 191.654C89.8981 191.662 89.825 191.697 89.7687 191.752C89.6833 191.814 89.5947 191.872 89.5033 191.925C89.4505 191.944 89.3965 191.959 89.3418 191.971C89.2898 191.971 89.261 191.919 89.2668 191.902C89.2725 191.885 89.2379 191.856 89.2148 191.838C89.2736 191.732 89.3432 191.631 89.4225 191.538C89.5089 191.437 89.6035 191.342 89.7052 191.256C90.0032 191.053 90.3156 190.871 90.6398 190.713C90.6894 190.688 90.7416 190.669 90.7956 190.656C90.7956 190.656 91.511 190.35 91.5398 190.344C91.6857 190.29 91.8364 190.249 91.9898 190.223H92.0764C92.3302 190.142 92.5841 190.073 92.8379 190.01L93.2245 189.9H93.2995H93.386C93.6918 189.808 93.9975 189.733 94.2975 189.64C94.3668 189.64 94.7072 189.548 94.7879 189.519C94.8606 189.483 94.9301 189.44 94.9956 189.392Z" fill="#3B2C7D"/>
<path d="M97.7857 189.669C97.8338 189.648 97.8859 189.637 97.9386 189.637C97.9913 189.637 98.0434 189.648 98.0915 189.669C98.1261 189.669 98.1376 189.744 98.0915 189.762L97.9184 189.865C97.8838 189.865 97.2953 190.102 97.0992 190.194C96.903 190.287 96.7184 190.35 96.5222 190.419C96.1299 190.564 95.7434 190.719 95.3684 190.881C95.2842 190.919 95.1975 190.952 95.1088 190.979C94.8049 191.066 94.5095 191.18 94.2261 191.319C94.1758 191.338 94.129 191.366 94.0876 191.4C94.0184 191.452 93.2626 191.833 93.1588 191.879C92.9049 191.977 92.6568 192.092 92.4088 192.214C92.3742 192.214 92.3453 192.26 92.3049 192.254C92.2172 192.263 92.1344 192.299 92.0684 192.358L91.7684 192.537C91.711 192.561 91.651 192.578 91.5895 192.589C91.5319 192.589 91.4972 192.519 91.5088 192.496C91.5203 192.473 91.4742 192.439 91.4453 192.415C91.5156 192.309 91.5947 192.209 91.6819 192.115C91.78 192.01 91.884 191.91 91.9934 191.815L92.4549 191.515C92.6915 191.371 92.9453 191.233 92.9972 191.204C93.0508 191.172 93.1093 191.148 93.1703 191.135C93.1703 191.135 93.9261 190.748 93.9607 190.742C94.115 190.669 94.2778 190.615 94.4453 190.581L94.5434 190.552C94.8133 190.443 95.091 190.354 95.3742 190.287L95.8011 190.154H95.8761H95.9799L96.9895 189.871C97.0645 189.871 97.4453 189.785 97.5319 189.756C97.6184 189.727 97.7453 189.687 97.7857 189.669Z" fill="#3B2C7D"/>
<path d="M100.815 190.258C100.902 190.206 101.004 190.186 101.104 190.2C101.109 190.203 101.113 190.208 101.115 190.213C101.118 190.218 101.119 190.223 101.119 190.229C101.119 190.235 101.118 190.24 101.115 190.245C101.113 190.25 101.109 190.255 101.104 190.258L100.96 190.385L100.181 190.766C100.002 190.858 99.8173 190.939 99.6038 191.019L98.4788 191.51L98.225 191.608C97.9312 191.711 97.6441 191.832 97.3654 191.971C97.3163 191.991 97.2698 192.016 97.2269 192.046C97.1577 192.092 96.4135 192.491 96.3154 192.531C96.0673 192.629 95.8192 192.744 95.5712 192.854C95.5365 192.854 95.5077 192.894 95.4673 192.894C95.3813 192.897 95.2976 192.923 95.225 192.969C95.122 193.023 95.016 193.071 94.9077 193.114C94.85 193.133 94.7896 193.142 94.7288 193.142C94.6769 193.142 94.6596 193.062 94.6712 193.044C94.6827 193.027 94.6423 192.987 94.625 192.958V192.929C94.8022 192.747 94.9953 192.581 95.2019 192.433L95.6692 192.196C95.9058 192.087 96.1481 191.971 96.2115 191.948C96.2651 191.923 96.3212 191.904 96.3788 191.891L97.1635 191.562C97.3118 191.493 97.4664 191.439 97.625 191.4C97.6577 191.395 97.6891 191.383 97.7173 191.366C97.9769 191.262 98.2481 191.175 98.5077 191.083L98.9115 190.933H98.9865L99.0788 190.904C99.3962 190.783 99.7192 190.679 100.031 190.552C100.1 190.552 100.458 190.408 100.538 190.373C100.619 190.339 100.775 190.275 100.815 190.258Z" fill="#3B2C7D"/>
<path d="M104.422 190.916C104.487 190.878 104.564 190.868 104.636 190.887C104.636 190.887 104.67 190.927 104.636 190.939L104.52 191.019C104.52 191.019 104.088 191.233 103.944 191.291L103.528 191.464L102.692 191.787L102.507 191.85C102.291 191.915 102.08 191.998 101.878 192.098C101.843 192.11 101.81 192.127 101.78 192.15C101.728 192.185 101.203 192.467 101.128 192.502C100.955 192.583 100.782 192.669 100.615 192.767C100.615 192.767 100.574 192.802 100.545 192.808C100.485 192.819 100.429 192.847 100.384 192.889L100.182 193.033C100.144 193.054 100.103 193.07 100.061 193.079C100.02 193.079 99.9974 193.039 100.003 193.027C100.009 193.016 99.9743 192.987 99.957 192.969C100.059 192.807 100.183 192.659 100.326 192.531C100.551 192.364 100.786 192.212 101.03 192.075C101.071 192.055 101.114 192.038 101.157 192.023C101.157 192.023 101.705 191.758 101.734 191.758C101.844 191.706 101.96 191.669 102.08 191.648H102.149C102.34 191.573 102.542 191.521 102.726 191.464L103.026 191.366H103.078H103.147C103.384 191.291 103.62 191.227 103.851 191.141C103.909 191.141 104.169 191.054 104.226 191.031C104.295 190.998 104.36 190.959 104.422 190.916Z" fill="#3B2C7D"/>
<path d="M108.68 191.03C108.728 191.001 108.784 190.985 108.841 190.985C108.898 190.985 108.954 191.001 109.003 191.03C109.043 191.03 109.066 191.14 109.037 191.163L108.882 191.302L108.068 191.717C107.883 191.819 107.69 191.908 107.491 191.982L106.291 192.461L106.014 192.554C105.699 192.638 105.39 192.746 105.091 192.877C105.037 192.896 104.987 192.923 104.941 192.957C104.615 193.119 104.278 193.256 103.932 193.367L103.095 193.581C103.055 193.592 103.013 193.592 102.974 193.581C102.881 193.568 102.786 193.584 102.703 193.627C102.585 193.664 102.466 193.694 102.345 193.719C102.28 193.728 102.214 193.728 102.149 193.719C102.085 193.719 102.08 193.615 102.091 193.598C102.103 193.581 102.091 193.523 102.051 193.488V193.454C102.265 193.287 102.492 193.138 102.732 193.009L103.81 192.559C103.868 192.559 103.932 192.53 103.989 192.513L104.814 192.179C104.973 192.11 105.14 192.064 105.31 192.04L105.414 192.011C105.685 191.902 105.991 191.821 106.257 191.734L106.678 191.584H106.758H106.862L107.872 191.232C107.947 191.204 108.333 191.123 108.449 191.088C108.527 191.074 108.604 191.054 108.68 191.03Z" fill="#3B2C7D"/>
<path d="M110.917 192.115C110.949 192.086 110.989 192.067 111.031 192.059C111.074 192.051 111.118 192.054 111.159 192.069C111.159 192.069 111.217 192.132 111.199 192.15L111.095 192.271C111.095 192.271 110.663 192.582 110.518 192.681C110.374 192.779 110.236 192.854 110.092 192.934C109.797 193.09 109.515 193.246 109.203 193.39C109.138 193.425 109.071 193.454 109.001 193.477C108.761 193.557 108.528 193.655 108.303 193.771C108.262 193.783 108.224 193.805 108.193 193.834C107.949 193.97 107.695 194.086 107.432 194.181L106.797 194.365C106.767 194.374 106.735 194.374 106.705 194.365C106.637 194.345 106.565 194.345 106.497 194.365L106.22 194.429C106.171 194.434 106.12 194.434 106.07 194.429C106.024 194.429 106.024 194.359 106.03 194.348C106.036 194.336 106.03 194.296 106.03 194.273C106.03 194.273 106.14 194.181 106.255 194.082C106.34 194.01 106.431 193.945 106.526 193.886L107.345 193.54L107.484 193.506L108.107 193.24C108.225 193.187 108.349 193.148 108.476 193.125C108.501 193.131 108.526 193.131 108.551 193.125C108.759 193.038 108.972 192.969 109.18 192.888L109.492 192.756H109.549H109.624C109.872 192.64 110.12 192.542 110.357 192.409C110.409 192.381 110.686 192.277 110.749 192.236C110.813 192.196 110.888 192.156 110.917 192.115Z" fill="#3B2C7D"/>
<path d="M114.13 192.006C114.176 191.981 114.226 191.969 114.277 191.969C114.329 191.969 114.379 191.981 114.425 192.006C114.436 192.019 114.443 192.037 114.443 192.055C114.443 192.073 114.436 192.09 114.425 192.104L114.275 192.213C114.24 192.213 113.732 192.513 113.571 192.635C113.409 192.756 113.242 192.842 113.075 192.935C112.734 193.131 112.365 193.333 112.002 193.511C111.923 193.548 111.842 193.579 111.759 193.604C111.471 193.69 111.189 193.798 110.917 193.927C110.869 193.945 110.826 193.972 110.79 194.008C110.727 194.065 110.011 194.406 109.919 194.446C109.677 194.524 109.44 194.616 109.209 194.723C109.18 194.723 109.152 194.763 109.111 194.758C109.071 194.752 108.955 194.798 108.886 194.833C108.796 194.894 108.702 194.948 108.603 194.994C108.549 195.018 108.49 195.031 108.43 195.035C108.378 195.035 108.327 194.948 108.332 194.931C108.338 194.913 108.286 194.861 108.257 194.833L108.223 194.798C108.358 194.572 108.528 194.368 108.725 194.192C108.725 194.192 109.59 193.667 109.688 193.615C109.741 193.59 109.797 193.572 109.855 193.563C109.855 193.563 110.577 193.217 110.605 193.211C110.754 193.15 110.909 193.105 111.067 193.079C111.096 193.084 111.125 193.084 111.153 193.079C111.405 192.983 111.661 192.9 111.921 192.831C112.053 192.79 112.169 192.738 112.296 192.686H112.371H112.457C112.752 192.56 113.034 192.444 113.352 192.3C113.421 192.265 113.773 192.161 113.853 192.127C113.934 192.092 114.09 192.029 114.13 192.006Z" fill="#3B2C7D"/>
<path d="M123.846 190.073C123.989 190.009 124.14 189.966 124.296 189.946C124.342 189.946 124.348 189.975 124.296 189.998L124.025 190.137L122.744 190.714C122.444 190.846 122.167 190.973 121.838 191.094L119.998 191.85L119.588 192.012C119.117 192.177 118.657 192.37 118.209 192.589C118.134 192.624 118.06 192.665 117.99 192.71C117.869 192.785 116.68 193.419 116.525 193.5C116.132 193.685 115.757 193.898 115.371 194.112C115.321 194.148 115.267 194.177 115.209 194.198C115.079 194.238 114.957 194.303 114.851 194.389C114.696 194.487 114.551 194.602 114.384 194.694C114.3 194.738 114.211 194.773 114.119 194.798C114.038 194.833 114.015 194.735 114.032 194.706C114.05 194.677 113.998 194.642 113.969 194.614V194.585L114.084 194.446C114.169 194.342 114.26 194.241 114.355 194.146C114.569 193.939 114.811 193.742 114.857 193.708C114.929 193.651 115.004 193.599 115.082 193.552L115.578 193.235L116.426 192.75C116.512 192.705 116.6 192.666 116.692 192.635C116.726 192.6 117.892 192.058 117.944 192.058C118.189 191.951 118.442 191.863 118.7 191.792C118.751 191.78 118.801 191.763 118.85 191.741C119.276 191.579 119.709 191.441 120.142 191.296L120.8 191.071L120.921 191.037L121.071 190.996C121.59 190.817 122.115 190.656 122.634 190.471C122.75 190.431 123.326 190.252 123.465 190.2C123.603 190.148 123.782 190.102 123.846 190.073Z" fill="#3B2C7D"/>
<path d="M126.949 190.223C127.107 190.136 127.287 190.096 127.468 190.108C127.48 190.11 127.491 190.116 127.5 190.124C127.509 190.133 127.515 190.143 127.519 190.155C127.522 190.167 127.523 190.179 127.52 190.191C127.517 190.203 127.511 190.214 127.502 190.223C127.412 190.299 127.318 190.37 127.22 190.436C127.162 190.488 126.129 191.013 125.772 191.129C125.414 191.244 125.085 191.411 124.745 191.544C124.404 191.677 124.047 191.809 123.718 191.954C123.389 192.098 123.066 192.271 122.72 192.427C122.57 192.496 122.414 192.559 122.258 192.617C121.725 192.816 121.207 193.051 120.706 193.321C120.617 193.358 120.534 193.406 120.458 193.465C120.343 193.569 118.964 194.267 118.779 194.348C118.318 194.527 117.862 194.729 117.4 194.925C117.34 194.965 117.271 194.989 117.199 194.994C117.042 195.008 116.892 195.059 116.76 195.144C116.572 195.23 116.379 195.308 116.183 195.375C116.079 195.405 115.973 195.426 115.866 195.438C115.768 195.438 115.774 195.358 115.797 195.334C115.82 195.311 115.797 195.259 115.756 195.236C115.716 195.213 115.756 195.236 115.756 195.202C115.801 195.151 115.852 195.104 115.906 195.063L116.252 194.763C116.433 194.598 116.626 194.445 116.829 194.308L118.624 193.321C118.719 193.275 118.817 193.234 118.918 193.2L120.297 192.484C120.565 192.349 120.845 192.237 121.133 192.15C121.191 192.135 121.247 192.113 121.3 192.086C121.762 191.867 122.247 191.677 122.725 191.509L123.475 191.221L123.62 191.192L123.793 191.146C124.37 190.95 125.004 190.811 125.587 190.621C125.725 190.581 126.383 190.425 126.533 190.361C126.674 190.323 126.813 190.277 126.949 190.223Z" fill="#3B2C7D"/>
<path d="M91.9031 189.629C91.7668 189.591 91.638 189.531 91.5223 189.45C91.4877 189.421 91.5223 189.386 91.5511 189.398L91.8281 189.444C91.88 189.444 92.7511 189.663 93.0569 189.698L93.9281 189.836L95.705 190.113L96.0973 190.188C96.5473 190.28 96.9973 190.35 97.4531 190.407C97.5298 190.416 97.6071 190.416 97.6838 190.407C97.8108 190.407 99.0454 190.592 99.2011 190.632L100.355 190.932C100.412 190.937 100.467 190.955 100.517 190.984C100.629 191.042 100.75 191.083 100.874 191.105C101.042 191.146 101.203 191.198 101.37 191.255C101.45 191.288 101.527 191.327 101.601 191.371C101.611 191.374 101.62 191.381 101.626 191.39C101.633 191.399 101.636 191.409 101.636 191.42C101.636 191.431 101.633 191.441 101.626 191.45C101.62 191.459 101.611 191.465 101.601 191.469C101.52 191.469 101.572 191.515 101.572 191.55C101.575 191.559 101.575 191.569 101.572 191.579H101.411L101.065 191.532L100.488 191.457L99.7435 191.313L98.8954 191.175C98.8096 191.161 98.7248 191.142 98.6415 191.117C98.6069 191.117 97.4877 190.955 97.4185 190.944C97.1809 190.915 96.9456 190.868 96.7146 190.805H96.5761C96.1665 190.742 95.7627 190.661 95.3588 190.586L94.7358 190.471L94.6261 190.442L94.4877 190.407C93.9973 190.304 93.5127 190.171 93.0338 190.044C92.9185 190.044 92.3992 189.836 92.2723 189.796C92.1454 189.755 91.9665 189.646 91.9031 189.629Z" fill="#3B2C7D"/>
<path d="M91.9783 191.175C91.6148 191.175 91.3263 191.175 91.0436 191.175C90.9571 191.175 90.9513 191.112 91.0436 191.077C91.247 191.007 91.4582 190.962 91.6725 190.944C92.0872 190.923 92.5031 190.946 92.9129 191.013C93.5302 191.1 94.1994 191.256 94.534 191.325C95.1975 191.469 95.809 191.59 96.484 191.671C97.8283 191.85 99.1725 192.063 100.522 192.248C100.817 192.294 101.099 192.346 101.411 192.404C102.426 192.6 103.447 192.762 104.474 192.912C104.643 192.939 104.812 192.959 104.982 192.969C105.259 192.969 108.034 193.413 108.392 193.488L111.051 193.996C111.178 194.015 111.304 194.044 111.426 194.083C111.692 194.168 111.964 194.23 112.24 194.267C112.621 194.331 113.001 194.412 113.394 194.498C113.584 194.538 113.763 194.596 113.971 194.648C114.178 194.7 114.034 194.752 113.971 194.746C113.797 194.746 113.93 194.798 113.942 194.827C113.953 194.856 113.942 194.827 113.942 194.856H113.578L112.776 194.798C112.199 194.752 111.571 194.688 111.449 194.671L107.809 194.14C107.619 194.14 107.428 194.071 107.232 194.031L104.463 193.621C103.932 193.529 103.396 193.465 102.876 193.333L102.559 193.275C101.642 193.137 100.736 192.969 99.8244 192.808L98.4225 192.583L98.1687 192.531L97.8513 192.473L96.2013 192.179C95.6244 192.092 95.0475 191.942 94.5398 191.804C94.2917 191.729 93.1206 191.383 92.809 191.348C92.5364 191.272 92.2588 191.214 91.9783 191.175Z" fill="#3B2C7D"/>
<path d="M102.892 191.538C102.698 191.489 102.516 191.403 102.355 191.284C102.309 191.256 102.355 191.227 102.396 191.244L102.765 191.336C102.84 191.365 104.069 191.602 104.496 191.636C104.923 191.671 105.315 191.734 105.719 191.809L108.211 192.202C108.396 192.231 108.574 192.265 108.788 192.306C109.411 192.45 110.04 192.554 110.68 192.64C110.786 192.652 110.892 192.652 110.998 192.64C111.706 192.722 112.409 192.845 113.103 193.009L114.73 193.454C114.809 193.466 114.885 193.492 114.955 193.529C115.107 193.62 115.272 193.684 115.446 193.719C115.68 193.779 115.911 193.852 116.138 193.938C116.25 193.985 116.358 194.041 116.461 194.106C116.559 194.157 116.461 194.215 116.461 194.215C116.461 194.215 116.421 194.273 116.426 194.307C116.432 194.342 116.426 194.336 116.426 194.342C116.426 194.348 116.074 194.342 115.711 194.302C115.348 194.261 114.961 194.256 114.886 194.244L114.551 194.192L113.836 194.071L112.642 193.886C112.524 193.866 112.409 193.837 112.296 193.8C112.238 193.8 110.646 193.552 110.565 193.517C110.236 193.458 109.911 193.373 109.596 193.263C109.532 193.242 109.466 193.226 109.399 193.217C108.823 193.102 108.28 192.957 107.726 192.825L106.867 192.634L106.711 192.588L106.521 192.536C105.84 192.386 105.165 192.219 104.49 192.04L103.428 191.711C103.296 191.7 102.978 191.538 102.892 191.538Z" fill="#3B2C7D"/>
<path d="M92.2539 191.919C92.0035 191.873 91.7621 191.787 91.5385 191.665C91.475 191.631 91.5039 191.59 91.5846 191.608C91.6654 191.625 91.9019 191.671 92.0693 191.694C92.2366 191.717 93.7596 192 94.302 192.075L95.8712 192.358L99.0616 192.935C99.2981 192.975 99.5346 193.021 99.7654 193.079C100.567 193.258 101.381 193.402 102.188 193.552C102.327 193.552 102.465 193.604 102.598 193.615C102.817 193.615 105.01 194.054 105.292 194.123L107.392 194.625C107.493 194.642 107.591 194.669 107.687 194.706C107.893 194.788 108.108 194.85 108.327 194.89C108.627 194.96 108.904 195.029 109.227 195.11C109.371 195.15 109.515 195.208 109.66 195.26C109.804 195.312 109.7 195.346 109.66 195.34C109.521 195.34 109.625 195.386 109.66 195.41L107.687 195.167L107.26 195.098L106.337 194.931L104.802 194.66L104.352 194.556L102.113 194.192C101.692 194.106 101.265 194.036 100.856 193.91C100.775 193.882 100.692 193.862 100.608 193.852C99.8866 193.702 99.1654 193.535 98.4443 193.379L97.3423 193.142L97.1404 193.09L96.8923 193.033L94.2789 192.456L92.8943 192.104C92.7846 192.115 92.3693 191.942 92.2539 191.919Z" fill="#3B2C7D"/>
<path d="M114.009 192.732C113.966 192.723 113.927 192.7 113.898 192.666C113.869 192.633 113.851 192.592 113.848 192.548C113.848 192.519 113.848 192.45 113.9 192.45H114.055C114.084 192.45 114.528 192.594 114.684 192.623C114.84 192.652 114.984 192.698 115.128 192.744C115.423 192.83 115.705 192.905 116.028 192.975L116.23 193.038C116.455 193.117 116.687 193.173 116.923 193.205C116.963 193.211 117.004 193.211 117.044 193.205C117.308 193.227 117.57 193.268 117.828 193.327C118.025 193.396 118.227 193.448 118.405 193.511C118.436 193.512 118.467 193.522 118.492 193.54C118.516 193.564 118.545 193.583 118.577 193.596C118.608 193.609 118.642 193.615 118.677 193.615L118.936 193.69C118.979 193.713 119.02 193.74 119.057 193.771C119.092 193.8 119.057 193.875 119.057 193.88C119.057 193.886 119.057 193.938 119.057 193.973C119.06 193.984 119.06 193.996 119.057 194.007C118.867 194.039 118.673 194.052 118.48 194.048L117.627 193.927C117.581 193.917 117.536 193.901 117.494 193.88L116.848 193.771C116.722 193.746 116.601 193.708 116.484 193.655C116.462 193.648 116.437 193.648 116.415 193.655C116.202 193.601 115.992 193.536 115.786 193.459L115.463 193.367L115.411 193.338L115.342 193.309C115.088 193.229 114.84 193.13 114.592 193.044C114.534 193.044 114.275 192.882 114.211 192.859C114.148 192.836 114.044 192.738 114.009 192.732Z" fill="#3B2C7D"/>
<path d="M118.454 191.631C118.356 191.631 118.292 191.579 118.234 191.441C118.234 191.4 118.234 191.279 118.269 191.267L118.442 191.198C118.477 191.198 119.019 191.198 119.192 191.233C119.367 191.249 119.541 191.279 119.711 191.325C120.057 191.412 120.398 191.498 120.738 191.596C120.813 191.62 120.886 191.649 120.957 191.683C121.197 191.794 121.446 191.883 121.702 191.948C121.746 191.957 121.791 191.957 121.834 191.948C122.121 192.004 122.403 192.083 122.677 192.185C122.884 192.289 123.092 192.369 123.306 192.462C123.334 192.462 123.369 192.462 123.392 192.508C123.415 192.554 123.513 192.589 123.582 192.612L123.859 192.716C123.905 192.741 123.946 192.774 123.981 192.814C124.021 192.842 123.981 192.923 123.981 192.929C123.981 192.935 123.981 192.992 123.981 193.027C123.981 193.062 123.981 193.056 123.981 193.067C123.759 193.098 123.535 193.108 123.311 193.096C123.311 193.096 122.463 192.912 122.371 192.889C122.322 192.877 122.275 192.857 122.232 192.831L121.54 192.646C121.404 192.617 121.275 192.562 121.159 192.485C121.135 192.469 121.107 192.459 121.079 192.456C120.854 192.392 120.634 192.3 120.415 192.219C120.304 192.179 120.19 192.144 120.075 192.116H120L119.925 192.081C119.656 191.997 119.382 191.927 119.106 191.873C119.048 191.873 118.754 191.746 118.679 191.741C118.604 191.735 118.488 191.625 118.454 191.631Z" fill="#3B2C7D"/>
<path d="M121.624 190.483C121.566 190.487 121.507 190.474 121.456 190.445C121.405 190.416 121.363 190.373 121.336 190.321C121.336 190.281 121.336 190.183 121.336 190.171C121.404 190.146 121.473 190.127 121.544 190.113C121.584 190.113 122.253 190.113 122.478 190.148C122.697 190.164 122.915 190.195 123.13 190.24C123.563 190.327 123.996 190.419 124.422 190.529C124.517 190.551 124.609 190.58 124.699 190.615C125.011 190.732 125.332 190.827 125.657 190.898C125.711 190.906 125.765 190.906 125.819 190.898C126.177 190.97 126.532 191.062 126.88 191.175C127.146 191.284 127.422 191.377 127.694 191.469C127.735 191.476 127.774 191.492 127.809 191.515C127.879 191.571 127.963 191.607 128.051 191.619L128.409 191.734C128.467 191.76 128.522 191.789 128.576 191.821C128.584 191.824 128.59 191.829 128.595 191.836C128.599 191.843 128.602 191.85 128.602 191.858C128.602 191.867 128.599 191.874 128.595 191.881C128.59 191.888 128.584 191.893 128.576 191.896C128.519 191.896 128.576 191.936 128.576 191.959H128.455L128.19 191.994C128.042 192.002 127.894 192.002 127.746 191.994C127.746 191.994 126.678 191.821 126.563 191.798C126.501 191.787 126.44 191.768 126.384 191.74C126.355 191.74 125.53 191.567 125.501 191.55C125.331 191.509 125.166 191.447 125.011 191.365C124.98 191.35 124.947 191.339 124.913 191.331C124.63 191.256 124.336 191.152 124.071 191.059C123.926 191.013 123.776 190.984 123.632 190.944L123.557 190.909L123.459 190.961C123.119 190.867 122.774 190.79 122.426 190.731C122.346 190.731 121.971 190.604 121.878 190.598C121.786 190.592 121.671 190.471 121.624 190.483Z" fill="#3B2C7D"/>
<path d="M125.396 189.733C125.321 189.733 125.287 189.669 125.269 189.548C125.252 189.427 125.298 189.404 125.321 189.398C125.366 189.378 125.412 189.362 125.46 189.352C125.46 189.352 125.858 189.404 125.991 189.421C126.112 189.441 126.231 189.47 126.348 189.508L127.069 189.727L127.219 189.791C127.389 189.878 127.57 189.944 127.756 189.987C127.786 189.995 127.818 189.995 127.848 189.987C128.045 190.019 128.238 190.069 128.425 190.137C128.571 190.216 128.721 190.287 128.875 190.35C128.875 190.35 128.921 190.35 128.939 190.385C128.956 190.419 129.025 190.448 129.077 190.466C129.144 190.483 129.21 190.507 129.273 190.535C129.308 190.557 129.339 190.584 129.366 190.616C129.394 190.616 129.366 190.708 129.366 190.714C129.366 190.719 129.366 190.771 129.366 190.8C129.207 190.836 129.044 190.856 128.881 190.858L128.194 190.754C128.159 190.745 128.126 190.729 128.096 190.708L127.583 190.598C127.484 190.575 127.39 190.534 127.306 190.477C127.297 190.473 127.287 190.471 127.277 190.471C127.267 190.471 127.257 190.473 127.248 190.477C127.085 190.424 126.926 190.362 126.769 190.292C126.689 190.258 126.602 190.241 126.521 190.212H126.481L126.423 190.183C126.227 190.119 126.042 190.033 125.846 189.987C125.8 189.987 125.598 189.86 125.546 189.848C125.494 189.837 125.425 189.727 125.396 189.733Z" fill="#3B2C7D"/>
<path d="M82.4579 215.688C83.0348 215.112 83.5829 214.587 84.1483 214.044C84.356 213.842 84.5463 213.629 84.7252 213.433L86.9579 211.396C87.2867 211.096 87.5925 210.773 87.8925 210.444C88.255 210.007 88.6545 209.601 89.0867 209.233C89.3752 209.019 89.6925 209.942 89.2367 210.421C88.4339 211.271 87.5742 212.065 86.6636 212.798C86.0867 213.242 85.6252 213.779 85.1117 214.275C84.5983 214.771 83.9579 215.36 83.4213 215.913C83.081 216.26 82.7406 216.6 82.4117 216.952C81.9156 217.483 81.4194 218.031 80.9694 218.596C80.6233 219.04 80.3233 219.502 80.0175 219.963L79.8156 220.269C79.5617 220.644 79.4348 220.731 79.2386 220.708C79.1887 220.711 79.1386 220.711 79.0886 220.708C78.9444 220.662 78.9444 220.437 79.0886 220.131C79.5452 219.171 80.1272 218.277 80.8194 217.471C81.3329 216.86 81.881 216.271 82.429 215.7L82.4579 215.688Z" fill="#3B2C7D"/>
<path d="M94.3424 214.217L95.6578 213.092C95.8193 212.954 95.9578 212.798 96.1193 212.665L97.8501 211.246C98.0982 211.033 98.3347 210.802 98.5597 210.565C98.8244 210.24 99.1309 209.951 99.4712 209.706C99.702 209.573 100.077 210.438 99.7251 210.779C99.1024 211.375 98.433 211.921 97.7232 212.411C97.3022 212.731 96.8978 213.072 96.5116 213.433L95.1905 214.546L94.377 215.244C93.9674 215.596 93.5578 215.954 93.177 216.329C92.877 216.617 92.6001 216.906 92.3462 217.246L92.1674 217.448C91.9366 217.696 91.8212 217.736 91.6366 217.65L91.5097 217.592C91.3828 217.511 91.3943 217.327 91.5385 217.119C91.9963 216.497 92.51 215.917 93.0732 215.388C93.4885 214.984 93.927 214.592 94.3539 214.2L94.3424 214.217Z" fill="#3B2C7D"/>
<path d="M80.7338 161.954L82.0665 160.586C82.228 160.419 82.378 160.24 82.5453 160.073C83.1223 159.496 83.6992 158.919 84.3223 158.388C84.5876 158.134 84.8415 157.875 85.0896 157.615C85.3894 157.261 85.7259 156.94 86.0934 156.658C86.3357 156.496 86.5434 157.234 86.1742 157.615C85.5223 158.284 84.8473 158.931 84.1261 159.542C83.6934 159.911 83.3242 160.367 82.9203 160.783L81.6165 162.167C81.3511 162.456 81.0857 162.744 80.8319 163.038C80.4453 163.488 80.0299 163.921 79.678 164.383C79.3953 164.74 79.1473 165.115 78.8876 165.484C78.8299 165.565 78.778 165.646 78.7146 165.727C78.478 166.009 78.3626 166.079 78.2011 166.056C78.1646 166.059 78.1279 166.059 78.0915 166.056C77.9819 166.015 77.9992 165.836 78.0915 165.588C78.479 164.83 78.9368 164.109 79.4588 163.436C79.8454 162.92 80.2615 162.427 80.7049 161.959L80.7338 161.954Z" fill="#3B2C7D"/>
<path d="M88.4464 164.515L89.3002 163.685C89.4041 163.586 89.4964 163.477 89.6003 163.379L90.7541 162.369C90.9214 162.219 91.0829 162.063 91.2329 161.902C91.417 161.683 91.6284 161.49 91.8618 161.325C92.0118 161.227 92.2022 161.758 91.9772 161.988C91.5705 162.401 91.1368 162.787 90.6791 163.142C90.4111 163.375 90.1569 163.624 89.9176 163.886L89.0926 164.723C88.9195 164.896 88.7579 165.069 88.5964 165.248C88.3483 165.519 88.1003 165.79 87.881 166.079C87.7209 166.308 87.5726 166.544 87.4368 166.788L87.3445 166.944C87.2176 167.135 87.1426 167.169 86.9752 167.111L86.8599 167.065C86.7387 167.008 86.7099 166.869 86.7791 166.708C87.0097 166.231 87.3047 165.788 87.656 165.392C87.9156 165.086 88.1868 164.815 88.4637 164.504L88.4464 164.515Z" fill="#3B2C7D"/>
<path d="M145.672 140.417C143.459 144.411 141.479 148.529 139.742 152.752C139.297 153.807 138.859 154.869 138.438 155.936L138.115 156.738C138.022 156.986 137.936 157.223 137.849 157.483C137.682 157.996 137.538 158.538 137.388 159.086C136.856 161.388 136.164 163.649 135.317 165.854C134.962 166.715 134.505 167.531 133.955 168.282C133.35 169.139 132.511 169.802 131.538 170.192C131.027 170.374 130.488 170.466 129.945 170.463L129.236 170.434C128.999 170.434 128.763 170.371 128.526 170.342C127.576 170.185 126.66 169.863 125.82 169.39C124.394 168.54 123.211 167.336 122.388 165.894C121.595 164.529 121.001 163.059 120.622 161.527C120.244 160.03 120.01 158.499 119.924 156.958C119.821 155.414 119.91 153.864 120.19 152.342C120.463 150.83 120.885 149.348 121.447 147.917C121.987 146.506 122.601 145.126 123.288 143.781C124.626 141.092 126.126 138.536 127.395 135.888C127.965 134.726 128.472 133.534 128.913 132.317C129.334 131.117 129.68 129.836 130.015 128.584C130.687 126.086 131.139 123.534 131.365 120.958C131.405 120.138 131.469 119.319 131.428 118.506C131.413 116.057 130.977 113.63 130.142 111.329C129.876 110.56 129.564 109.809 129.207 109.079C128.861 108.34 128.411 107.654 128.053 106.921C127.218 105.491 126.238 104.151 125.128 102.923C123.749 101.382 124.049 101.44 125.48 102.536C125.917 102.854 126.331 103.201 126.72 103.575L127.459 104.261C127.742 104.506 128.01 104.768 128.261 105.046C129.566 106.33 130.629 107.839 131.399 109.5C131.597 109.906 131.774 110.322 131.93 110.746L132.178 111.381L132.305 111.692L132.397 112.021L132.761 113.331C132.882 113.769 132.94 114.219 133.032 114.663C133.192 115.553 133.305 116.45 133.372 117.352C133.372 117.796 133.401 118.246 133.413 118.696V119.371L133.384 120.04L133.326 121.379L133.182 122.706C133.107 123.6 132.934 124.436 132.795 125.336C132.444 127.067 132.034 128.798 131.538 130.448L131.169 131.7L130.736 132.981C130.424 133.817 130.09 134.648 129.72 135.45C128.994 137.065 128.18 138.611 127.355 140.129C125.717 143.169 124.032 146.134 122.884 149.267C122.171 151.127 121.768 153.092 121.69 155.083C121.646 157.113 121.885 159.14 122.399 161.106C122.856 163.04 123.761 164.841 125.042 166.361C125.656 167.069 126.42 167.631 127.278 168.008C128.136 168.385 129.066 168.567 130.003 168.542C130.454 168.526 130.896 168.405 131.292 168.187C131.687 167.97 132.027 167.663 132.282 167.29C132.918 166.435 133.414 165.485 133.753 164.475C134.526 162.381 134.982 160.119 135.594 157.834C135.755 157.257 135.928 156.681 136.17 156.104L136.805 154.471C137.24 153.386 137.68 152.306 138.126 151.229C139.02 149.071 139.967 146.925 140.976 144.813C143.368 139.521 146.398 134.542 149.999 129.986C150.761 129.124 151.63 128.362 152.584 127.719C153.507 127.084 154.444 126.496 155.394 125.954C157.292 124.852 159.219 123.836 161.134 122.827C164.982 120.807 168.801 118.788 172.488 116.625C175.331 114.956 178.081 113.134 180.726 111.167C183.355 109.24 185.814 107.092 188.076 104.746C188.561 104.227 189.051 103.719 189.49 103.171C189.928 102.623 190.384 102.115 190.794 101.538C192.415 99.4556 193.297 97.9729 193.972 96.9575C194.251 96.5346 194.553 96.1281 194.878 95.7402C195.098 95.4552 195.35 95.1959 195.628 94.9671C195.844 94.7575 196.075 94.5646 196.32 94.3902C196.649 94.2287 196.69 94.696 196.465 95.7056C196.407 95.9594 196.344 96.2479 196.245 96.5652C196.147 96.8825 196.009 97.2113 195.865 97.5806C195.524 98.4304 195.117 99.2521 194.647 100.038C193.051 102.692 191.126 105.135 188.919 107.308C186.698 109.512 184.308 111.539 181.77 113.371C176.633 117.005 171.233 120.254 165.617 123.092L159.449 126.346C157.442 127.383 155.498 128.539 153.628 129.808L152.988 130.286L152.411 130.783C152.238 130.95 152.088 131.117 151.92 131.279C151.753 131.44 151.569 131.711 151.39 131.925C151.032 132.358 150.68 132.802 150.345 133.257C150.011 133.713 149.665 134.158 149.347 134.631C148.042 136.491 146.833 138.416 145.724 140.4L145.672 140.417Z" fill="#3B2C7D"/>
<path d="M104.255 109.961C105.905 108.9 107.567 107.867 109.257 106.886C109.875 106.529 110.463 106.125 111.092 105.779C113.29 104.55 115.54 103.413 117.83 102.352C118.851 101.89 119.861 101.394 120.9 100.961C121.562 100.666 122.247 100.423 122.948 100.234C123.667 100.027 124.415 99.9359 125.163 99.9632C125.648 99.9632 125.55 100.263 125.209 100.586C124.738 101.016 124.195 101.359 123.605 101.602C123.288 101.723 122.976 101.861 122.659 101.988L122.186 102.207L121.701 102.398C121.061 102.663 120.421 102.94 119.775 103.229L115.892 105.04C114.321 105.84 112.796 106.726 111.323 107.694C109.661 108.709 108.011 109.744 106.373 110.798C105.369 111.45 104.365 112.107 103.384 112.794C101.89 113.827 100.39 114.877 98.9937 116.007C97.9351 116.894 96.9241 117.835 95.9649 118.829L95.3476 119.481C94.563 120.271 94.2514 120.404 93.7091 120.248C93.5834 120.224 93.4599 120.189 93.3399 120.144C92.9649 120 93.0284 119.377 93.5591 118.661C95.2669 116.65 97.2184 114.859 99.3687 113.331C100.95 112.142 102.588 111.023 104.226 109.921L104.255 109.961Z" fill="#3B2C7D"/>
<path d="M132.562 58.6269C144.251 59.3176 155.974 59.1884 167.645 58.2403L170.83 57.9345L173.991 57.5134C176.109 57.2711 178.191 56.8442 180.291 56.5211C182.137 56.1922 183.955 55.7711 185.795 55.4019C186.759 55.2288 187.711 55.0038 188.68 54.8711L190.145 54.7153C190.631 54.6518 191.12 54.6171 191.611 54.6115C195.53 54.4737 199.442 55.0604 203.149 56.3422L204.516 56.8269C204.975 56.9778 205.426 57.153 205.866 57.3519L208.509 58.5057L211.064 59.8326L211.705 60.1615L212.305 60.5769L213.539 61.3038C215.212 62.2442 216.77 63.3461 218.374 64.3788C219.159 64.9153 219.92 65.4865 220.682 66.0345C221.443 66.5826 222.239 67.1307 222.989 67.7249C228.366 71.798 233.547 76.1653 238.514 80.6192L239.72 81.6807C240.107 82.0269 240.511 82.373 240.92 82.7134L243.395 84.7384L248.403 88.7769C251.749 91.4595 255.061 94.1769 258.211 97.0961C259.168 98.0422 259.509 98.5557 259.364 98.6249C259.22 98.6942 258.637 98.3769 257.634 97.8345C256.63 97.2922 255.245 96.4442 253.595 95.3942C252.782 94.8634 251.899 94.2865 250.987 93.6345C250.076 92.9826 249.141 92.2557 248.178 91.4884L243.066 87.3807C241.364 85.9903 239.674 84.6345 237.978 83.1288L233.103 78.7961C231.441 77.3942 229.82 75.9403 228.13 74.573C226.439 73.2057 224.778 71.8038 223.041 70.4999C222.176 69.848 221.339 69.1499 220.451 68.5326L217.809 66.6345C214.282 64.1356 210.554 61.9338 206.662 60.0519L204.897 59.2615C204.32 58.9903 203.686 58.8115 203.08 58.5865L202.168 58.2576C201.865 58.1415 201.555 58.0451 201.239 57.9692L199.364 57.473C199.052 57.3837 198.734 57.3162 198.412 57.2711L197.495 57.1153C196.859 56.9879 196.215 56.9031 195.568 56.8615C194.922 56.8153 194.27 56.7519 193.624 56.7288L191.674 56.7692H191.184L190.699 56.8211L189.73 56.9307L188.755 57.0403L187.791 57.2365C187.145 57.3692 186.528 57.4845 185.853 57.6345L183.845 58.0672C181.18 58.6961 178.48 59.0999 175.803 59.5326C169.889 60.3807 163.941 60.8307 157.999 61.0845C152.057 61.3384 146.103 61.3499 140.161 61.1942C136.503 61.1076 132.851 60.9345 129.199 60.7326L123.741 60.398H123.078C122.886 60.3852 122.693 60.3852 122.501 60.398C122.107 60.4408 121.719 60.5319 121.347 60.6692C120.528 60.9711 119.732 61.3316 118.964 61.748C116.575 63.0728 114.264 64.5328 112.041 66.1211C109.791 67.7019 107.582 69.3519 105.412 71.048C101.068 74.4345 96.8567 77.9711 92.8067 81.6576C89.6624 84.5134 86.6394 87.4269 83.7836 90.4961C82.3586 92.0249 80.974 93.5826 79.7048 95.2095C79.0836 96.0087 78.5059 96.8407 77.974 97.7019C77.7203 98.1071 77.4985 98.5315 77.3105 98.9711C77.2269 99.1562 77.1631 99.3495 77.1201 99.548C77.1105 99.6246 77.1105 99.7022 77.1201 99.7788C77.1201 99.8365 77.1201 100.004 77.1201 100.108C77.2624 101.848 77.669 103.556 78.3259 105.173C78.8337 106.501 79.4115 107.801 80.0567 109.067C80.5817 110.117 81.0317 110.96 81.3951 111.658C81.9373 112.604 82.3855 113.601 82.7336 114.635C82.8259 114.986 83.0221 115.402 83.0451 115.638C83.2009 116.44 80.8182 114.542 78.2855 109.985C77.3241 108.274 76.5134 106.482 75.8625 104.631C75.5316 103.666 75.277 102.676 75.1009 101.671C75.0605 101.411 75.0144 101.158 74.9855 100.892L74.9336 100.085C74.9052 99.7426 74.9285 99.3984 75.0028 99.0634C75.0685 98.7533 75.1632 98.45 75.2855 98.1576C75.7105 97.1811 76.2385 96.2528 76.8605 95.3884C77.4374 94.5519 78.0548 93.7557 78.6894 92.9826C79.9528 91.4422 81.2855 89.9711 82.6528 88.5288C88.2106 82.7947 94.0995 77.3912 100.289 72.3461C104.889 68.4976 109.704 64.9148 114.712 61.6153C116.005 60.7779 117.339 60.0077 118.711 59.3076C119.453 58.9311 120.225 58.6147 121.018 58.3615C121.489 58.2055 121.977 58.1105 122.472 58.0788H122.691C122.743 58.0759 122.795 58.0759 122.847 58.0788H123.153L123.73 58.1076C126.718 58.2865 129.655 58.4826 132.609 58.6095L132.562 58.6269Z" fill="#3B2C7D"/>
<path d="M91.4349 99.0347C91.342 98.8028 91.23 98.579 91.1002 98.3655C91.0599 98.2847 90.9791 98.2443 90.9329 98.1636C90.7737 97.8845 90.5799 97.6267 90.356 97.3963C90.2529 97.3025 90.1337 97.2283 90.0041 97.177C89.8368 97.1078 89.6579 97.102 89.5368 96.9174C89.4156 96.7328 89.9637 95.8963 90.2233 95.9655C90.6664 96.087 91.0549 96.3555 91.3252 96.727C91.5022 96.9217 91.6952 97.1012 91.9022 97.2636C92.0973 97.4731 92.2766 97.6968 92.4387 97.9328C92.5425 98.0713 92.6233 98.2213 92.7214 98.3655C92.8449 98.5859 92.9857 98.7962 93.1425 98.9943C93.281 99.1328 93.4425 99.2482 93.581 99.3809C93.6099 99.4097 93.6502 99.4328 93.6733 99.4616C93.7656 99.5886 93.6733 99.7039 93.4772 99.9116L93.3272 100.05C93.2565 100.119 93.1723 100.172 93.08 100.207C92.9877 100.242 92.8891 100.257 92.7906 100.252C92.5903 100.207 92.3965 100.138 92.2137 100.044C92.0626 99.9489 91.933 99.8232 91.8329 99.6751C91.6714 99.479 91.5445 99.2597 91.3945 99.0636L91.4349 99.0347Z" fill="#3B2C7D"/>
<path d="M224.451 117.992C222.431 116.262 220.326 114.635 218.179 113.065C217.401 112.488 216.552 112.004 215.762 111.444C212.952 109.482 210.032 107.683 207.016 106.056L206.012 105.513C205.672 105.346 205.32 105.19 204.979 105.035L202.902 104.112L200.191 103.085C199.279 102.762 198.368 102.456 197.479 102.058C196.902 101.815 197.104 101.481 197.71 101.244C198.609 100.971 199.569 100.971 200.468 101.244C204.323 102.515 208.005 104.259 211.429 106.437L214.585 108.375C215.658 109.004 216.714 109.685 217.747 110.377C220.014 111.894 222.189 113.544 224.335 115.223L226.279 116.821C226.931 117.346 227.566 117.888 228.201 118.442L229.637 119.694L231.039 120.987C231.979 121.835 232.891 122.717 233.802 123.588L235.96 125.654C236.676 126.306 237.356 126.998 238.037 127.702C238.331 128.008 238.614 128.279 238.926 128.625C239.941 129.877 240.154 130.356 239.952 130.933C239.918 131.068 239.87 131.2 239.808 131.325C239.583 131.683 238.914 131.388 238.077 130.598C237.501 130.021 236.831 129.444 236.214 128.815L235.285 127.898L234.327 126.992C233.07 125.758 231.749 124.552 230.456 123.312C229.464 122.417 228.506 121.488 227.485 120.617L225.979 119.29L224.422 118.033L224.451 117.992Z" fill="#3B2C7D"/>
<path d="M236.461 105.819C236.961 104.949 237.412 104.052 237.811 103.131L238.388 101.746L238.872 100.315C238.997 99.9676 239.103 99.6132 239.189 99.2539C239.264 98.8962 239.345 98.5327 239.438 98.1808C239.767 96.9182 240.021 95.6371 240.199 94.3443L240.361 92.3885C240.395 92.0609 240.407 91.7312 240.395 91.402V90.4212V89.5443C240.395 89.25 240.326 88.9673 240.286 88.6731C240.205 88.0962 240.13 87.5193 240.026 86.9423C239.836 86.227 239.651 85.5058 239.449 84.7847C239.247 84.0635 238.97 83.3827 238.797 82.65C238.682 82.1943 238.982 82.1193 239.42 82.3731C240.043 82.7852 240.529 83.3737 240.816 84.0635C241.957 87.109 242.389 90.3742 242.08 93.6116C241.924 95.5769 241.647 97.5307 241.249 99.4616C241.132 99.9905 240.986 100.512 240.811 101.025C240.649 101.544 240.499 102.064 240.32 102.577L239.703 104.077C239.509 104.582 239.286 105.075 239.034 105.554L238.122 107.331L237.078 109.038C236.939 109.252 236.818 109.471 236.674 109.679L236.218 110.285L235.318 111.49C234.684 112.275 233.997 113.008 233.345 113.769C232.768 114.317 232.255 114.865 231.724 115.431C231.193 115.996 230.57 116.458 229.993 116.965L229.601 117.3C229.468 117.404 229.324 117.496 229.18 117.594C228.084 118.269 227.651 118.35 227.155 117.987C227.038 117.909 226.926 117.825 226.82 117.733C226.52 117.404 226.774 116.827 227.438 116.262C229.46 114.584 231.333 112.732 233.034 110.729C233.367 110.364 233.677 109.978 233.963 109.575L234.868 108.381L235.664 107.106C235.948 106.691 236.202 106.257 236.426 105.808L236.461 105.819Z" fill="#3B2C7D"/>
<path d="M41.1269 140.192C40.9366 140.273 40.8327 140.036 40.775 139.615C40.7648 139.416 40.8044 139.218 40.8904 139.038C40.9974 138.948 41.1134 138.868 41.2366 138.802C41.3058 138.767 42.3212 138.755 42.6731 138.744C43.0033 138.74 43.3327 138.777 43.6539 138.854L45.5808 139.257C45.7241 139.287 45.8622 139.337 45.9904 139.407C46.4318 139.636 46.9104 139.785 47.4039 139.846C47.4861 139.874 47.5755 139.874 47.6577 139.846C48.1987 139.86 48.7349 139.951 49.25 140.117C49.6366 140.33 50.0289 140.486 50.4039 140.694C50.4616 140.694 50.5308 140.694 50.5654 140.798C50.6577 141.011 50.7962 141 50.9173 141.04C51.0972 141.086 51.2714 141.152 51.4366 141.236C51.5308 141.307 51.611 141.395 51.6731 141.496C51.6942 141.56 51.7016 141.629 51.6946 141.696C51.6877 141.764 51.6666 141.829 51.6327 141.888C51.5404 141.969 51.5923 142.107 51.5808 142.229C51.5842 142.269 51.5842 142.309 51.5808 142.35C51.1687 142.541 50.7317 142.673 50.2827 142.742L49.4289 142.69C49.0019 142.644 48.5577 142.592 48.4654 142.592C48.3685 142.573 48.2775 142.532 48.2 142.471C48.1539 142.471 46.8904 142.304 46.8442 142.286C46.5962 142.2 46.325 142.205 46.1173 141.975C46.0776 141.939 46.0265 141.919 45.9731 141.917C45.5401 141.811 45.1158 141.672 44.7039 141.502C44.4897 141.434 44.2721 141.379 44.0519 141.334C44.0129 141.315 43.9761 141.292 43.9423 141.265C43.8992 141.236 43.8527 141.213 43.8039 141.196C43.2984 141.042 42.784 140.918 42.2635 140.827C42.1423 140.827 41.6173 140.509 41.4789 140.504C41.3404 140.498 41.2019 140.157 41.1269 140.192Z" fill="#3B2C7D"/>
<path d="M60.3573 134.423C60.5938 134.55 60.4207 134.833 60.0111 135.231C59.8119 135.402 59.5744 135.523 59.3188 135.583C59.1404 135.545 58.9663 135.489 58.7996 135.415C58.3862 134.967 58.0009 134.493 57.6457 133.996C57.3933 133.658 57.1876 133.287 57.0342 132.894C56.7169 132.104 56.388 131.325 56.1111 130.523C56.0471 130.337 56.0101 130.143 56.0015 129.946C55.9525 129.3 55.8107 128.665 55.5803 128.06C55.5457 127.956 55.5342 127.846 55.4246 127.771C55.1152 127.117 54.9201 126.414 54.8477 125.694C54.9053 125.117 54.888 124.54 54.9573 123.964C54.9573 123.877 54.9227 123.796 55.015 123.71C55.2284 123.508 55.1707 123.346 55.1707 123.173C55.17 122.927 55.1951 122.681 55.2457 122.44C55.3036 122.305 55.3835 122.18 55.4823 122.071C55.5688 121.956 55.9034 121.985 55.9438 122.019C55.9842 122.054 56.2092 122.019 56.3477 121.99C56.3975 121.985 56.4478 121.985 56.4977 121.99C56.6717 122.182 56.8227 122.393 56.9477 122.619C57.1092 122.849 57.2539 123.09 57.3803 123.34C57.3803 123.34 57.4092 123.467 57.4669 123.646C57.5246 123.825 57.588 124.056 57.6573 124.298C57.7957 124.783 57.9515 125.279 57.9977 125.377C58.0265 125.489 58.0265 125.606 57.9977 125.717C57.9977 125.775 58.5284 127.183 58.5746 127.24C58.6265 127.546 58.7938 127.817 58.6784 128.175C58.6553 128.234 58.6553 128.3 58.6784 128.36C58.8416 128.872 58.9727 129.394 59.0707 129.923C59.1493 130.186 59.2417 130.444 59.3477 130.696C59.3535 130.748 59.3535 130.8 59.3477 130.852C59.3388 130.915 59.3388 130.979 59.3477 131.042C59.5444 131.66 59.7913 132.26 60.0861 132.837C60.1611 132.964 60.2303 133.714 60.34 133.852C60.4496 133.99 60.265 134.36 60.3573 134.423Z" fill="#3B2C7D"/>
<path d="M67.6838 176.36C67.3088 169.621 67.303 162.911 67.5626 156.167C67.6665 153.715 67.7645 151.263 68.0299 148.811C68.1898 147.205 68.4344 145.609 68.7626 144.029C68.9284 143.206 69.1639 142.4 69.4665 141.617C69.6377 141.169 69.8749 140.749 70.1703 140.371C70.3638 140.103 70.6285 139.895 70.9344 139.769C71.2402 139.644 71.5751 139.606 71.9011 139.661L79.8972 141.692L87.8011 143.665C91.5049 144.565 95.2491 145.396 98.9472 146.198C101.324 146.688 103.707 147.179 106.09 147.652C107.284 147.871 108.472 148.125 109.661 148.327C110.849 148.529 112.043 148.754 113.209 148.904C114.605 149.008 114.53 149.365 113.209 149.694C111.03 150.009 108.813 149.949 106.655 149.515C101.728 148.673 96.8761 147.565 92.0299 146.411C87.1838 145.258 82.3492 144.023 77.5088 142.725L74.6242 141.963L71.7741 141.248C71.735 141.239 71.6943 141.237 71.6546 141.244C71.6149 141.251 71.577 141.266 71.5434 141.288C71.5104 141.313 71.4812 141.342 71.4568 141.375C71.4016 141.437 71.3533 141.505 71.3126 141.577C71.09 141.964 70.9157 142.376 70.7934 142.806C70.5153 143.752 70.3013 144.715 70.153 145.69C69.8415 147.681 69.6568 149.729 69.5068 151.748C69.0827 158.447 68.996 165.163 69.2472 171.871C69.3222 173.936 69.4261 176.002 69.5991 178.05C69.6395 178.563 69.6915 179.077 69.7434 179.585C69.7434 179.74 69.7434 179.752 69.778 179.827C69.7935 179.89 69.8254 179.947 69.8703 179.994C70.0065 180.128 70.1575 180.246 70.3203 180.346C71.1772 180.851 72.0792 181.276 73.0145 181.615C75.8991 182.711 78.9338 183.577 81.9568 184.408C84.9799 185.238 88.0203 185.971 91.0549 186.663C95.7741 187.731 100.441 188.585 105.149 189.433L108.247 189.969C110.174 190.35 111.443 190.615 112.32 190.869C112.934 191.033 113.518 191.292 114.051 191.636C114.229 191.741 114.401 191.856 114.565 191.983C114.732 192.156 114.403 192.242 113.676 192.265C112.569 192.282 111.462 192.216 110.365 192.069C108.23 191.827 106.078 191.492 103.915 191.106C101.751 190.719 99.5645 190.321 97.3722 189.871C92.9876 188.977 88.5626 187.967 84.1491 186.842C80.8722 185.994 77.6011 185.111 74.3415 183.998C73.528 183.721 72.7145 183.421 71.9011 183.104C71.0495 182.774 70.2257 182.377 69.4376 181.915C69.2056 181.769 68.9839 181.607 68.7741 181.431C68.4586 181.173 68.2193 180.834 68.0818 180.45C68.0153 180.264 67.9764 180.07 67.9665 179.873L67.9261 179.55L67.8626 178.91C67.7818 178.056 67.7184 177.179 67.6607 176.354L67.6838 176.36Z" fill="#3B2C7D"/>
</svg>
