<svg width="300" height="300" viewBox="0 0 300 300" fill="none" xmlns="http://www.w3.org/2000/svg">
<path d="M124.162 99.5423C124.162 99.5423 123.533 103.662 122.298 103.61C121.064 103.558 121.023 97.8115 121.023 97.8115L124.162 99.5423Z" fill="#3B2C7D"/>
<path d="M121.586 102.692C121.632 102.842 121.697 102.986 121.782 103.119C121.845 103.159 121.88 103.246 121.972 103.275C122.042 103.319 122.118 103.352 122.197 103.373C122.246 103.39 122.299 103.39 122.347 103.373C122.399 103.373 122.445 103.344 122.503 103.327C122.768 103.202 122.989 103.001 123.138 102.75C123.33 102.452 123.481 102.13 123.588 101.792C123.681 101.479 123.731 101.155 123.738 100.828C123.738 100.413 123.674 100.009 123.674 99.64C123.674 99.5246 123.894 99.4323 124.147 99.4785C124.29 99.5066 124.421 99.5765 124.524 99.6792C124.626 99.7819 124.696 99.9129 124.724 100.055C124.87 101.07 124.682 102.105 124.188 103.003C124.028 103.287 123.851 103.561 123.657 103.823C123.435 104.133 123.129 104.374 122.774 104.515C122.362 104.66 121.912 104.66 121.499 104.515C121.296 104.446 121.102 104.351 120.922 104.232C120.757 104.108 120.611 103.961 120.49 103.794C120.229 103.416 120.06 102.984 119.994 102.53C119.914 101.918 119.901 101.299 119.953 100.684C119.982 100.223 119.953 99.7612 120.017 99.2939C120.018 99.1884 120.033 99.0836 120.063 98.9823C120.079 98.9131 120.109 98.8479 120.15 98.7903C120.192 98.7327 120.245 98.684 120.305 98.647C120.366 98.6099 120.434 98.5853 120.504 98.5746C120.574 98.5638 120.646 98.5671 120.715 98.5842H120.922C121.136 98.6362 121.274 98.8439 121.372 99.115C121.457 99.4934 121.486 99.8821 121.459 100.269C121.459 100.632 121.459 100.99 121.43 101.342C121.393 101.797 121.442 102.255 121.574 102.692H121.586Z" fill="#3B2C7D"/>
<path d="M126.098 128.273C126.098 128.273 136.961 129 136.413 133.921C135.865 138.842 129.311 135.738 128.63 139.2C127.95 142.661 126.098 128.273 126.098 128.273Z" fill="#3B2C7D"/>
<path d="M58.6043 276.005L58.0736 275.342C58.0101 275.267 57.9293 275.204 57.8659 275.129C57.6466 274.84 57.4447 274.552 57.2197 274.28C57.1185 274.162 57.0021 274.057 56.8736 273.969C56.7178 273.854 56.5274 273.773 56.4409 273.577C56.3543 273.38 57.064 272.861 57.2659 273C57.6036 273.266 57.8841 273.598 58.0909 273.975C58.2364 274.185 58.4047 274.378 58.5928 274.552L59.1236 275.192C59.2332 275.319 59.3428 275.452 59.4582 275.573C59.6372 275.764 59.83 275.941 60.0351 276.104C60.2 276.205 60.3716 276.296 60.5486 276.375L60.6582 276.432C60.7851 276.519 60.7909 276.6 60.6928 276.807L60.6293 276.946C60.5981 277.013 60.5473 277.07 60.4835 277.108C60.4196 277.146 60.3458 277.164 60.2716 277.159C59.8735 277.093 59.5062 276.903 59.2216 276.617C59.0024 276.427 58.8063 276.213 58.6101 276.005H58.6043Z" fill="#3B2C7D"/>
<path d="M59.0957 272.486L58.1899 271.332L57.8495 270.923C57.463 270.427 57.0707 269.931 56.6957 269.434C56.5226 269.215 56.338 269.007 56.1534 268.8C55.9063 268.544 55.6787 268.27 55.4726 267.981C55.3514 267.79 55.8245 267.756 56.0957 268.061C56.5687 268.609 57.0303 269.169 57.463 269.763C57.7168 270.121 58.0399 270.456 58.3111 270.796L59.2399 271.95L59.8168 272.654C60.1053 273.011 60.3937 273.369 60.6937 273.709C60.9937 274.05 61.1784 274.217 61.4149 274.477L61.5707 274.644C61.7611 274.863 61.7957 274.95 61.7437 275.077C61.7357 275.105 61.7241 275.132 61.7091 275.157C61.6572 275.238 61.5187 275.198 61.363 275.059C60.8696 274.624 60.4142 274.147 60.0014 273.634L59.0668 272.481L59.0957 272.486Z" fill="#3B2C7D"/>
<path d="M60.3048 271.385L59.226 269.746L58.8106 269.169C58.3433 268.471 57.8817 267.773 57.3914 267.098C57.1721 266.798 56.9298 266.521 56.6875 266.239C56.3585 265.901 56.0521 265.543 55.7702 265.165C55.6029 264.917 56.3471 264.71 56.751 265.125C57.4193 265.85 58.018 266.636 58.5394 267.473C58.851 267.975 59.249 268.437 59.5952 268.927L60.749 270.554L61.4356 271.558C61.7875 272.06 62.1279 272.573 62.4971 273.058C62.7798 273.433 63.074 273.773 63.4144 274.125C63.4779 274.2 63.5529 274.275 63.6164 274.356C63.8529 274.656 63.876 274.789 63.7433 274.996C63.7172 275.044 63.6863 275.088 63.651 275.129C63.5356 275.267 63.3221 275.227 63.1087 275.037C62.4747 274.433 61.9115 273.76 61.4298 273.029L60.3106 271.396L60.3048 271.385Z" fill="#3B2C7D"/>
<path d="M57.6305 265.108C57.4286 264.819 57.2324 264.531 57.019 264.248C56.944 264.15 56.8401 264.069 56.7651 263.965C56.4997 263.602 56.2401 263.233 55.9516 262.887C55.8192 262.737 55.6702 262.604 55.5074 262.489C55.3055 262.333 55.0632 262.229 54.9305 261.975C54.8555 261.819 55.6978 261.115 55.9459 261.312C56.379 261.656 56.7415 262.081 57.0132 262.563C57.2044 262.837 57.4186 263.094 57.6536 263.331C57.8786 263.614 58.092 263.908 58.3113 264.202L58.692 264.744C58.8882 265.021 59.0786 265.321 59.269 265.552C59.4498 265.739 59.6426 265.914 59.8459 266.077C59.8863 266.117 59.9324 266.152 59.967 266.192C60.0997 266.354 60.094 266.446 59.967 266.631L59.8632 266.752C59.8092 266.814 59.7363 266.856 59.6559 266.871C59.5755 266.887 59.4921 266.875 59.419 266.838C58.9988 266.6 58.6222 266.292 58.3055 265.927C58.0632 265.667 57.8382 265.396 57.6016 265.131L57.6305 265.108Z" fill="#3B2C7D"/>
<path d="M54.4572 257.994C54.2438 257.659 54.0303 257.325 53.8111 257.002C53.7303 256.88 53.6207 256.782 53.5457 256.661C53.263 256.24 52.9688 255.807 52.6976 255.398C52.5609 255.221 52.4084 255.057 52.2418 254.907C52.0062 254.74 51.8094 254.523 51.6649 254.273C51.5899 254.1 52.4207 253.592 52.6803 253.823C53.1272 254.225 53.5036 254.698 53.7938 255.225C54.0011 255.524 54.2285 255.81 54.4745 256.079C54.7226 256.39 54.9592 256.719 55.1957 257.036L55.6284 257.613C55.8592 257.902 56.0668 258.19 56.3149 258.484C56.5195 258.682 56.7394 258.864 56.9726 259.027L57.1226 259.142C57.2899 259.304 57.2784 259.413 57.0765 259.655L56.938 259.823C56.8744 259.911 56.7823 259.975 56.6772 260.003C56.5721 260.032 56.4605 260.023 56.3611 259.979C55.8836 259.727 55.4633 259.379 55.1265 258.957C54.8553 258.657 54.6418 258.317 54.3995 258L54.4572 257.994Z" fill="#3B2C7D"/>
<path d="M56.2048 270.64C56.2048 269.758 56.251 268.881 56.2741 268.004C56.2741 267.687 56.2741 267.369 56.2741 267.052C56.2741 265.933 56.3145 264.813 56.2279 263.7C56.1907 263.207 56.1213 262.718 56.0202 262.235L55.801 261.346C55.7116 261.044 55.6479 260.736 55.6106 260.423C55.5702 260.025 56.5337 260.261 56.7645 261C57.0814 262.306 57.2192 263.649 57.1741 264.992C57.1741 265.788 57.2145 266.613 57.2087 267.421C57.2029 268.229 57.2087 269.198 57.1452 270.081C57.1452 270.623 57.1048 271.165 57.1048 271.708C57.1048 272.527 57.1048 273.352 57.1625 274.16C57.226 274.788 57.3298 275.394 57.4337 276.006C57.4337 276.144 57.4798 276.271 57.5087 276.41C57.5895 276.911 57.5433 277.085 57.4337 277.223C57.4337 277.252 57.3818 277.292 57.3529 277.315C57.3241 277.338 57.1337 277.2 56.9779 276.836C56.7789 276.282 56.6246 275.713 56.5164 275.135C56.4183 274.558 56.3491 273.94 56.3087 273.34C56.2395 272.446 56.2221 271.546 56.2164 270.658L56.2048 270.64Z" fill="#3B2C7D"/>
<path d="M58.5691 272.21C58.5287 271.662 58.5056 271.108 58.4883 270.56C58.4883 270.358 58.4883 270.162 58.4883 269.983C58.4883 269.279 58.4883 268.569 58.5344 267.865C58.5344 267.554 58.5344 267.242 58.5344 266.931C58.5045 266.532 58.5239 266.131 58.5921 265.737C58.6498 265.494 59.2441 265.84 59.2383 266.285C59.2383 267.087 59.2383 267.877 59.1575 268.685C59.1413 269.177 59.1567 269.671 59.2037 270.162C59.2037 270.704 59.2671 271.246 59.3133 271.788C59.3133 272.117 59.3767 272.452 59.4229 272.781C59.4716 273.284 59.5467 273.785 59.6479 274.281C59.7402 274.662 59.8556 275.025 59.9537 275.394L60.0229 275.642C60.0979 275.948 60.0864 276.058 59.971 276.162C59.9488 276.188 59.9237 276.211 59.896 276.231C59.8094 276.294 59.6883 276.19 59.5729 275.977C59.3994 275.654 59.2453 275.32 59.1114 274.979C58.9923 274.624 58.896 274.262 58.8229 273.894C58.706 273.348 58.6232 272.795 58.5748 272.238L58.5691 272.21Z" fill="#3B2C7D"/>
<path d="M60.5781 272.094C60.5781 271.667 60.63 271.252 60.6589 270.836C60.6589 270.68 60.6589 270.536 60.6589 270.38C60.705 269.85 60.7685 269.325 60.7916 268.8C60.7964 268.568 60.7868 268.337 60.7627 268.107C60.7013 267.819 60.6799 267.524 60.6993 267.23C60.7339 267.04 61.507 267.167 61.5704 267.536C61.6599 268.16 61.6599 268.793 61.5704 269.417C61.5464 269.801 61.5464 270.187 61.5704 270.571C61.5704 270.98 61.5704 271.39 61.5416 271.805C61.5416 272.053 61.5416 272.307 61.5416 272.555C61.5401 272.942 61.569 273.327 61.6281 273.709C61.6944 273.988 61.7792 274.261 61.882 274.528L61.9454 274.696C62.0204 274.915 61.9858 275.002 61.8243 275.117L61.7147 275.198C61.6799 275.215 61.6419 275.226 61.603 275.229C61.564 275.232 61.5249 275.227 61.4878 275.215C61.4508 275.202 61.4165 275.183 61.3871 275.157C61.3577 275.131 61.3338 275.1 61.3166 275.065C60.973 274.582 60.7549 274.021 60.682 273.432C60.6142 273.005 60.5833 272.573 60.5897 272.14L60.5781 272.094Z" fill="#3B2C7D"/>
<path d="M132.532 274.102C132.423 273.888 132.336 273.664 132.238 273.444C132.198 273.364 132.146 273.3 132.111 273.219C131.984 272.942 131.863 272.642 131.713 272.394C131.642 272.278 131.559 272.17 131.465 272.071C131.349 271.95 131.199 271.858 131.148 271.679C131.096 271.5 131.724 271.183 131.874 271.344C132.134 271.627 132.33 271.961 132.451 272.325C132.547 272.525 132.657 272.718 132.78 272.902C132.89 273.121 132.999 273.346 133.098 273.571L133.276 273.992C133.374 274.2 133.461 274.408 133.576 274.604L133.865 275.031C133.889 275.059 133.911 275.09 133.928 275.123C133.959 275.166 133.972 275.22 133.964 275.273C133.957 275.325 133.93 275.373 133.888 275.406L133.83 275.464C133.792 275.493 133.745 275.508 133.698 275.508C133.65 275.508 133.603 275.493 133.565 275.464C133.423 275.365 133.288 275.257 133.161 275.14C133.047 275.019 132.948 274.883 132.867 274.737C132.734 274.529 132.619 274.31 132.498 274.102H132.532Z" fill="#3B2C7D"/>
<path d="M129.809 274.511C129.619 274.119 129.423 273.733 129.267 273.329C129.203 273.185 129.128 273.046 129.071 272.896C128.875 272.377 128.69 271.852 128.494 271.333C128.407 271.096 128.321 270.871 128.234 270.646C128.111 270.356 128.017 270.054 127.952 269.746C127.917 269.556 128.28 269.7 128.425 270.017C128.678 270.594 128.95 271.171 129.175 271.748C129.328 272.103 129.503 272.448 129.7 272.781L130.277 273.906C130.403 274.136 130.525 274.367 130.657 274.592C130.859 274.933 131.061 275.273 131.28 275.602C131.5 275.931 131.661 276.069 131.857 276.294L131.99 276.444C132.128 276.652 132.134 276.744 132.065 276.871C132.065 276.9 132.065 276.935 132.019 276.958C131.973 276.981 131.828 277.015 131.661 276.911C131.189 276.563 130.774 276.143 130.432 275.665C130.189 275.294 129.968 274.908 129.769 274.511H129.809Z" fill="#3B2C7D"/>
<path d="M127.408 275.896C127.246 275.463 127.079 275.037 126.917 274.61C126.854 274.454 126.773 274.31 126.715 274.148C126.508 273.6 126.306 273.046 126.086 272.504C125.986 272.265 125.872 272.032 125.746 271.806C125.566 271.528 125.418 271.23 125.308 270.917C125.256 270.71 125.925 270.652 126.121 270.987C126.463 271.582 126.743 272.21 126.958 272.862C127.107 273.255 127.278 273.641 127.471 274.015C127.65 274.437 127.829 274.858 128.013 275.279C128.129 275.538 128.238 275.798 128.354 276.052C128.526 276.446 128.719 276.831 128.931 277.206C129.096 277.486 129.279 277.756 129.479 278.013L129.606 278.187C129.659 278.263 129.682 278.355 129.673 278.447C129.663 278.539 129.621 278.625 129.554 278.688C129.532 278.722 129.507 278.753 129.479 278.781C129.455 278.8 129.427 278.813 129.396 278.819C129.366 278.825 129.335 278.824 129.306 278.815C129.209 278.807 129.117 278.771 129.04 278.712C128.802 278.509 128.596 278.272 128.429 278.008C128.256 277.748 128.102 277.476 127.967 277.194C127.765 276.773 127.586 276.34 127.39 275.913L127.408 275.896Z" fill="#3B2C7D"/>
<path d="M124.928 275.51L124.444 274.356C124.38 274.217 124.311 274.079 124.259 273.935L123.74 272.394C123.659 272.169 123.573 271.95 123.48 271.731C123.351 271.454 123.252 271.164 123.186 270.865C123.146 270.681 123.59 270.773 123.763 271.079C124.044 271.623 124.292 272.184 124.507 272.758C124.65 273.106 124.818 273.443 125.009 273.767C125.182 274.148 125.361 274.523 125.54 274.921L125.875 275.613C126.053 275.954 126.227 276.311 126.411 276.646C126.596 276.981 126.763 277.131 126.913 277.385L127.005 277.558C127.109 277.783 127.098 277.875 127.005 277.99C126.986 278.018 126.964 278.045 126.942 278.071C126.861 278.146 126.728 278.106 126.578 277.985C126.141 277.624 125.773 277.186 125.494 276.692C125.28 276.329 125.113 275.936 124.917 275.538L124.928 275.51Z" fill="#3B2C7D"/>
<path d="M128.538 276.006L128.204 275.815L128.077 275.769C127.938 275.683 127.806 275.585 127.673 275.492L127.488 275.383C127.402 275.347 127.324 275.294 127.258 275.227C127.223 275.181 127.437 274.996 127.523 275.048C127.677 275.149 127.824 275.261 127.962 275.383C128.05 275.451 128.145 275.511 128.244 275.562L128.567 275.746L128.769 275.856C128.879 275.908 128.983 275.96 129.087 276C129.172 276.027 129.258 276.048 129.346 276.064H129.404C129.473 276.064 129.49 276.11 129.485 276.179V276.225C129.48 276.249 129.467 276.27 129.448 276.284C129.428 276.298 129.404 276.303 129.381 276.3C129.209 276.287 129.041 276.244 128.885 276.173C128.763 276.127 128.648 276.069 128.533 276.017L128.538 276.006Z" fill="#3B2C7D"/>
<path d="M127.986 273.854C127.663 273.698 127.345 273.537 127.022 273.387L126.659 273.231C126.243 273.04 125.822 272.862 125.39 272.7C125.202 272.623 125.009 272.557 124.813 272.504C124.565 272.429 124.311 272.371 124.068 272.285C123.826 272.198 124.155 272.094 124.455 272.146C124.986 272.251 125.504 272.412 126.001 272.625C126.295 272.752 126.618 272.856 126.924 272.983C127.23 273.11 127.593 273.265 127.922 273.415L128.528 273.692L129.451 274.114C129.688 274.217 129.93 274.298 130.167 274.39L130.328 274.448C130.524 274.529 130.57 274.581 130.576 274.69C130.579 274.715 130.579 274.741 130.576 274.765C130.576 274.84 130.461 274.864 130.311 274.823C129.846 274.7 129.393 274.537 128.955 274.339L127.98 273.865L127.986 273.854Z" fill="#3B2C7D"/>
<path d="M129.288 272.792L128.013 272.215C127.857 272.146 127.696 272.088 127.54 272.007C127.003 271.736 126.473 271.43 125.942 271.148C125.705 271.021 125.469 270.9 125.226 270.784C124.909 270.65 124.611 270.475 124.338 270.265C124.176 270.121 124.719 269.746 125.053 269.93C125.63 270.248 126.242 270.577 126.836 270.946C127.209 271.15 127.595 271.331 127.99 271.488L129.265 272.065L130.061 272.4C130.465 272.567 130.869 272.74 131.278 272.884C131.601 272.994 131.93 273.063 132.253 273.15C132.323 273.15 132.398 273.178 132.467 273.202C132.726 273.288 132.796 273.363 132.778 273.571C132.781 273.617 132.781 273.663 132.778 273.709C132.749 273.859 132.599 273.934 132.398 273.905C131.787 273.789 131.19 273.611 130.615 273.375C130.176 273.202 129.738 273.017 129.305 272.832L129.288 272.792Z" fill="#3B2C7D"/>
<path d="M129.231 271.852L128.019 271.211L127.569 270.998L126 270.19L125.296 269.855C124.991 269.721 124.695 269.569 124.408 269.4C124.229 269.29 124.581 269.18 124.927 269.342C125.538 269.625 126.15 269.919 126.756 270.236C127.113 270.427 127.511 270.588 127.909 270.767L129.156 271.373L129.911 271.759L131.065 272.336C131.359 272.492 131.642 272.619 131.959 272.763L132.15 272.861C132.392 272.994 132.45 273.063 132.433 273.196C132.439 273.226 132.439 273.258 132.433 273.288C132.433 273.386 132.271 273.398 132.086 273.288C131.556 273.052 131.025 272.757 130.483 272.463L129.271 271.811L129.231 271.852Z" fill="#3B2C7D"/>
<path d="M127.799 274.373L126.876 273.733C126.767 273.658 126.64 273.6 126.53 273.519C126.149 273.225 125.78 272.942 125.405 272.619C125.24 272.485 125.064 272.364 124.88 272.256C124.631 272.142 124.412 271.972 124.24 271.76C124.142 271.615 124.846 271.05 125.088 271.223C125.534 271.519 125.948 271.861 126.322 272.244C126.572 272.465 126.845 272.658 127.136 272.821L128.047 273.427C128.238 273.554 128.428 273.675 128.624 273.79C128.919 273.963 129.201 274.142 129.519 274.286C129.768 274.378 130.022 274.455 130.28 274.517L130.447 274.558C130.649 274.633 130.684 274.725 130.615 274.979C130.615 275.037 130.586 275.1 130.563 275.158C130.542 275.243 130.492 275.318 130.421 275.371C130.351 275.423 130.264 275.45 130.176 275.446C129.678 275.381 129.198 275.219 128.763 274.967C128.428 274.794 128.111 274.598 127.788 274.39L127.799 274.373Z" fill="#3B2C7D"/>
<path d="M127.159 275.671L126.328 275.146L126.017 274.956C125.671 274.719 125.324 274.471 124.99 274.212L124.54 273.877C124.328 273.745 124.134 273.586 123.963 273.404C123.865 273.294 124.199 273.202 124.413 273.364L125.567 274.212C125.81 274.377 126.063 274.529 126.323 274.667L127.176 275.146L127.707 275.435C127.973 275.579 128.244 275.729 128.515 275.862C128.786 275.994 128.953 276.035 129.178 276.121L129.323 276.179C129.496 276.26 129.536 276.323 129.49 276.485C129.49 276.519 129.49 276.56 129.49 276.594C129.465 276.65 129.418 276.694 129.361 276.717C129.304 276.739 129.241 276.739 129.184 276.716C128.78 276.581 128.393 276.401 128.03 276.179L127.176 275.683L127.159 275.671Z" fill="#3B2C7D"/>
<path d="M125.873 277.604L125.4 277.275C125.342 277.235 125.279 277.211 125.221 277.171L124.615 276.738C124.522 276.681 124.426 276.629 124.327 276.583C124.193 276.541 124.071 276.47 123.969 276.375C123.906 276.306 124.229 275.948 124.373 276.023C124.631 276.148 124.87 276.309 125.083 276.502C125.224 276.605 125.372 276.697 125.527 276.779L126.017 277.09L126.317 277.281C126.466 277.382 126.62 277.474 126.779 277.558C126.906 277.613 127.037 277.659 127.171 277.696L127.258 277.725C127.361 277.771 127.373 277.817 127.327 277.956L127.292 278.048C127.278 278.093 127.249 278.131 127.211 278.157C127.172 278.183 127.125 278.196 127.079 278.192C126.825 278.147 126.582 278.053 126.363 277.915L125.867 277.61L125.873 277.604Z" fill="#3B2C7D"/>
<path d="M192.804 274.725C192.313 274.886 191.829 275.06 191.344 275.244C191.165 275.313 190.998 275.4 190.825 275.469C190.202 275.706 189.585 275.96 188.985 276.242C188.713 276.363 188.46 276.513 188.206 276.658C187.892 276.872 187.565 277.065 187.225 277.235C187.006 277.327 187.023 276.796 187.387 276.542C188.04 276.112 188.734 275.744 189.458 275.446C189.896 275.267 190.323 275.025 190.756 274.823C191.188 274.621 191.725 274.408 192.215 274.211L193.121 273.86L194.5 273.346C194.852 273.213 195.181 273.023 195.538 272.913C195.613 272.88 195.69 272.853 195.769 272.833C196.069 272.74 196.179 272.775 196.288 272.89L196.358 272.965C196.415 273.046 196.329 273.196 196.138 273.323C195.853 273.517 195.554 273.691 195.244 273.842C194.933 273.981 194.61 274.113 194.287 274.246L192.815 274.76L192.804 274.725Z" fill="#3B2C7D"/>
<path d="M193.714 276.15L192.514 276.537L192.081 276.692L190.523 277.171C190.292 277.246 190.067 277.333 189.848 277.419C189.566 277.539 189.277 277.641 188.983 277.725C188.798 277.777 188.931 277.471 189.242 277.298C189.8 277.005 190.379 276.752 190.973 276.542C191.325 276.415 191.683 276.248 192.04 276.104L193.194 275.648L193.927 275.371C194.296 275.233 194.677 275.117 195.04 274.962C195.317 274.846 195.583 274.702 195.854 274.569L196.039 274.494C196.281 274.425 196.367 274.437 196.46 274.529C196.484 274.545 196.505 274.564 196.523 274.587C196.575 274.656 196.523 274.765 196.362 274.887C196.148 275.069 195.912 275.223 195.658 275.342C195.41 275.475 195.15 275.59 194.89 275.712L194.314 275.96L193.708 276.167L193.714 276.15Z" fill="#3B2C7D"/>
<path d="M190.686 274.038L189.867 274.332L189.573 274.448C189.227 274.581 188.875 274.713 188.528 274.863C188.378 274.927 188.228 275.002 188.084 275.077C187.899 275.186 187.706 275.282 187.507 275.365C187.38 275.406 187.392 275.077 187.611 274.956C187.996 274.747 188.398 274.57 188.811 274.425C189.059 274.338 189.302 274.217 189.555 274.119C189.809 274.021 190.103 273.906 190.38 273.807L190.894 273.623L191.673 273.357L192.25 273.132L192.377 273.086C192.538 273.034 192.596 273.034 192.653 273.086C192.711 273.138 192.653 273.086 192.688 273.121C192.723 273.156 192.688 273.219 192.555 273.277C192.221 273.45 191.857 273.606 191.494 273.761L190.669 274.056L190.686 274.038Z" fill="#3B2C7D"/>
<path d="M193.565 278.169C193.253 278.244 192.948 278.313 192.648 278.394C192.532 278.423 192.434 278.481 192.325 278.509C191.933 278.599 191.548 278.712 191.171 278.85C191.009 278.914 190.856 278.997 190.715 279.098C190.54 279.244 190.346 279.367 190.138 279.461C189.994 279.507 189.723 278.913 189.942 278.7C190.33 278.372 190.785 278.134 191.275 278.002C191.563 277.927 191.823 277.771 192.105 277.679C192.388 277.586 192.728 277.488 193.04 277.402L193.617 277.24C193.902 277.164 194.181 277.07 194.453 276.957C194.657 276.854 194.85 276.733 195.03 276.594C195.071 276.565 195.105 276.531 195.146 276.507C195.301 276.415 195.376 276.444 195.526 276.652L195.625 276.79C195.675 276.854 195.703 276.934 195.703 277.015C195.703 277.097 195.675 277.176 195.625 277.24C195.299 277.551 194.903 277.778 194.471 277.904C194.165 278.019 193.848 278.1 193.542 278.192L193.565 278.169Z" fill="#3B2C7D"/>
<path d="M190.272 277.5L189.441 276.461C189.343 276.335 189.227 276.219 189.129 276.092L188.091 274.748C187.929 274.552 187.762 274.367 187.595 274.171C187.36 273.952 187.149 273.708 186.966 273.444C186.862 273.271 187.416 273.115 187.67 273.386C188.121 273.865 188.535 274.376 188.91 274.915C189.135 275.238 189.429 275.527 189.689 275.833L190.543 276.854L191.074 277.471C191.345 277.783 191.61 278.1 191.899 278.388C192.187 278.677 192.366 278.81 192.602 279.017L192.764 279.15C192.943 279.335 192.972 279.427 192.914 279.56L192.879 279.652C192.827 279.744 192.689 279.733 192.516 279.652C192.022 279.322 191.568 278.935 191.166 278.498C190.854 278.181 190.549 277.852 190.26 277.506L190.272 277.5Z" fill="#3B2C7D"/>
<path d="M191.361 275.769C191.142 275.475 190.929 275.192 190.727 274.869C190.657 274.754 190.565 274.656 190.496 274.54L189.752 273.34C189.639 273.166 189.516 272.998 189.382 272.838C189.2 272.646 189.046 272.429 188.927 272.192C188.863 272.036 189.452 271.858 189.648 272.088C189.999 272.499 190.308 272.943 190.571 273.415C190.743 273.695 190.936 273.961 191.148 274.211C191.361 274.506 191.58 274.788 191.788 275.094C191.915 275.279 192.048 275.458 192.186 275.631C192.388 275.902 192.603 276.162 192.832 276.41L193.409 276.929L193.536 277.038C193.686 277.188 193.704 277.263 193.64 277.402C193.627 277.434 193.612 277.465 193.594 277.494C193.536 277.592 193.409 277.604 193.259 277.529C192.805 277.311 192.399 277.005 192.065 276.629C191.805 276.358 191.569 276.052 191.338 275.781L191.361 275.769Z" fill="#3B2C7D"/>
<path d="M193.216 274.459C193.095 274.252 192.997 274.027 192.882 273.819C192.841 273.738 192.778 273.68 192.738 273.605C192.605 273.328 192.478 273.028 192.328 272.792C192.261 272.678 192.175 272.577 192.074 272.492C191.947 272.377 191.786 272.307 191.751 272.111C191.716 271.915 192.507 271.407 192.668 271.534C192.939 271.799 193.138 272.129 193.245 272.492C193.335 272.699 193.451 272.893 193.591 273.069L193.949 273.698C194.018 273.83 194.082 273.963 194.157 274.09C194.261 274.283 194.383 274.467 194.52 274.638C194.636 274.759 194.774 274.863 194.895 274.973L194.976 275.042C195.063 275.146 195.045 275.215 194.93 275.377L194.849 275.48C194.811 275.534 194.757 275.574 194.696 275.597C194.634 275.62 194.567 275.623 194.503 275.607C194.329 275.555 194.163 275.481 194.007 275.388C193.865 275.292 193.737 275.177 193.626 275.048C193.459 274.863 193.32 274.655 193.17 274.471L193.216 274.459Z" fill="#3B2C7D"/>
<path d="M183.342 44.8153L183.076 50.2846C183.048 50.948 183.076 51.6173 183.024 52.2807C182.892 54.623 182.753 56.9653 182.673 59.3019C182.632 60.3403 182.673 61.3846 182.673 62.4173C182.673 63.7384 182.765 65.0596 182.673 66.3865C182.644 66.7961 182.378 66.7557 182.096 66.4211C181.713 65.9209 181.486 65.3188 181.444 64.6903C181.253 61.9658 181.277 59.2305 181.513 56.5096C181.646 54.8769 181.605 53.1749 181.669 51.5019L181.888 45.998L182.009 42.6057C182.055 40.8749 182.107 39.1788 182.078 37.4826C182.078 36.1615 181.951 34.8749 181.871 33.5769C181.871 33.2942 181.83 32.9999 181.819 32.723C181.761 31.6615 181.819 31.3153 182.148 31.0672C182.211 31.0046 182.281 30.9486 182.355 30.8999C182.592 30.7788 182.823 31.1999 182.967 31.9903C183.179 33.1792 183.324 34.3792 183.399 35.5846C183.492 36.8134 183.509 38.0538 183.503 39.2942C183.503 41.1346 183.434 42.9865 183.376 44.8269L183.342 44.8153Z" fill="#3B2C7D"/>
<path d="M242.114 148.223C242.037 154.342 242.26 160.462 242.783 166.581C242.973 168.808 243.239 171.029 243.504 173.244C244.444 181.067 245.921 188.821 247.444 196.592C248.125 200.054 248.817 203.515 249.492 206.908C250.34 211.304 251.183 215.729 251.65 220.177C251.789 221.567 251.65 221.4 251.269 220.258C250.702 218.362 250.241 216.436 249.89 214.489C249.077 210.006 248.114 205.552 247.208 201.069C246.302 196.587 245.39 192.092 244.577 187.552C243.608 182.123 242.569 176.464 241.923 170.85C241.199 164.675 240.801 158.467 240.729 152.25C240.683 148.427 240.75 144.604 240.931 140.781C241.202 135.012 241.756 129.242 242.154 123.508C242.471 119.065 242.639 114.704 242.662 110.319C242.662 109.35 242.662 108.41 242.662 107.435C242.61 103.829 242.662 102.687 243.008 101.89C243.072 101.708 243.153 101.532 243.25 101.365C243.515 100.996 243.873 102.462 244.04 105.133C244.473 113.065 243.798 121.402 243.14 129.698C242.65 135.871 242.2 142.039 242.171 148.217L242.114 148.223Z" fill="#3B2C7D"/>
<path d="M244.887 278.654C223.507 278.833 218.926 269.025 218.926 269.025C218.926 269.025 227.435 276.167 235.772 276.727C244.108 277.286 248.614 277.304 248.614 277.304L247.916 277.742C247.009 278.318 245.961 278.633 244.887 278.654Z" fill="#3B2C7D"/>
<path d="M194.22 280.512C194.22 280.512 179.999 277.5 181.447 272.7C182.895 267.9 194.999 271.206 196.955 272.567C196.955 272.567 186.674 271.494 186.426 274.298C186.149 277.338 194.22 280.512 194.22 280.512Z" fill="#3B2C7D"/>
<path d="M213.532 233.89C213.532 233.89 212.125 242.682 213.532 248.89C214.94 255.098 216.503 266.198 215.303 269.74C213.342 275.55 205.052 275.192 199.727 273.144C199.727 273.144 210.359 277.898 213.359 275.55C216.359 273.202 218.702 270.64 218.125 265.471C217.548 260.302 214.034 249.617 213.775 244.338C213.515 239.059 213.532 233.89 213.532 233.89Z" fill="#3B2C7D"/>
<path d="M182.226 213.923C182.619 207.778 182.901 201.6 183.132 195.461C183.19 193.211 183.253 190.961 183.311 188.711C183.536 180.784 183.617 172.852 183.432 164.925C183.398 163.165 183.317 161.405 183.253 159.646C183.19 157.886 183.075 156.132 182.942 154.39C182.861 153.277 182.78 152.152 182.705 151.032L182.434 147.675C182.209 145.442 182.059 143.203 181.857 140.965C181.748 139.569 181.857 139.748 182.14 140.902C182.67 142.828 183.065 144.788 183.323 146.769C183.588 149.077 183.842 151.338 184.015 153.634C184.188 155.93 184.298 158.25 184.401 160.523C184.609 165.138 184.644 169.753 184.603 174.369C184.551 179.902 184.534 185.665 184.373 191.325C184.2 197.544 183.923 203.769 183.605 209.982C183.392 213.807 183.138 217.638 182.775 221.452C182.255 227.221 181.54 233.019 180.865 238.759C180.346 243.202 179.884 247.563 179.573 251.953C179.521 252.923 179.457 253.869 179.423 254.838C179.209 258.45 179.226 259.586 178.984 260.382C178.943 260.56 178.893 260.735 178.834 260.907C178.748 261.086 178.65 260.809 178.534 260.152C178.482 259.823 178.419 259.396 178.361 258.882C178.303 258.369 178.298 257.769 178.275 257.1C178.275 256.102 178.246 255.098 178.275 254.088C178.303 253.079 178.367 252.069 178.448 251.053C178.592 249.028 178.782 246.98 179.025 244.932C179.463 240.83 179.976 236.682 180.461 232.534C181.171 226.367 181.828 220.171 182.192 213.969L182.226 213.923Z" fill="#3B2C7D"/>
<path d="M45.9721 223.592C46.3254 227.368 46.8878 231.122 47.6567 234.836C47.9452 236.192 48.3029 237.525 48.6317 238.875C49.2086 241.234 49.8894 243.588 50.6567 245.896L53.0798 252.848C53.7952 254.919 54.4817 257.025 55.0413 259.136C55.3875 260.498 55.7279 261.865 55.9759 263.244C56.2291 264.623 56.4025 266.016 56.4952 267.415C56.5529 268.286 56.3336 268.2 55.9759 267.508C55.7503 267.043 55.5538 266.565 55.3875 266.077C55.112 265.407 54.8921 264.717 54.7298 264.011C54.4125 262.638 54.0836 261.277 53.6913 259.938C53.299 258.6 52.9298 257.244 52.4856 255.9C51.6259 253.229 50.5759 250.598 49.6759 247.852C48.574 244.615 47.4721 241.154 46.6471 237.727C45.7536 233.951 45.0737 230.127 44.6106 226.275C44.4894 225.086 44.3509 223.904 44.2471 222.715C44.1433 221.527 44.0394 220.338 43.9933 219.15C43.7625 215.544 43.7509 211.921 43.8144 208.344C43.8144 206.954 43.8836 205.575 43.9009 204.202C43.9183 202.829 44.0221 201.461 44.1375 200.088C44.1894 199.483 44.2298 198.894 44.2933 198.283C44.5817 196.038 44.8125 195.34 45.1644 194.896C45.2352 194.792 45.3164 194.695 45.4067 194.608C45.6548 194.423 45.7413 195.358 45.6894 197.008C45.6433 198.225 45.6202 199.465 45.5567 200.706C45.4933 201.946 45.4875 203.209 45.4586 204.479C45.3894 207.006 45.3202 209.573 45.3721 212.14C45.4183 215.954 45.6086 219.784 46.0125 223.586L45.9721 223.592Z" fill="#3B2C7D"/>
<path d="M59.8984 281.671C60.5332 281.768 61.179 281.768 61.8138 281.671C73.56 278.723 82.8888 283.327 83.16 283.223C83.2979 283.181 83.4153 283.09 83.4889 282.966C83.5626 282.842 83.5873 282.695 83.5581 282.554C83.506 282.444 83.4321 282.346 83.3408 282.265C83.2496 282.185 83.1429 282.124 83.0273 282.086C79.1273 280.269 74.4254 279.023 70.0984 279.49C66.6325 279.864 63.2144 280.595 59.8984 281.671Z" fill="#3B2C7D"/>
<path d="M103.484 217.234C104.39 221.169 104.638 224.977 106.172 228.657C107.874 232.696 110.332 236.584 111.474 240.825C113.24 247.356 116.02 255.248 116.211 261.998C116.418 269.342 114.757 267.767 114.734 268.067C114.711 268.367 109.968 240.582 106.611 233.89C103.253 227.198 103.484 217.234 103.484 217.234Z" fill="#3B2C7D"/>
<path d="M82.8516 244.327C82.8516 244.598 85.3496 261.542 86.9535 266.002C88.5573 270.461 89.3996 276.45 88.3958 278.723C87.3919 280.996 87.1785 279.992 87.1785 279.992C87.1785 279.992 85.7535 264.992 84.7035 259.454C83.6535 253.915 82.8516 244.327 82.8516 244.327Z" fill="#3B2C7D"/>
<path d="M88.2695 282.692C88.4484 282.635 89.3022 281.844 90.0926 281.902C90.883 281.96 97.6215 283.465 102.358 282.392C105.145 281.758 109.073 279.335 110.845 276.935C110.845 276.935 105.554 282.248 101.85 283.154C98.1465 284.06 88.2695 282.692 88.2695 282.692Z" fill="#3B2C7D"/>
<path d="M79.269 156.882C79.3555 159.219 79.5286 161.538 79.719 163.875C79.7824 164.729 79.8805 165.577 79.9324 166.431C80.1517 169.452 80.1517 172.484 79.9324 175.505C79.8343 176.85 79.6497 178.182 79.4767 179.504C79.2497 181.192 79.0074 182.877 78.7497 184.557C78.669 185.082 78.5593 185.002 78.4786 184.557C78.3826 183.791 78.3826 183.016 78.4786 182.25C78.942 178.824 79.2289 175.378 79.3382 171.923C79.3728 169.84 79.1536 167.671 78.9805 165.542C78.7959 163.194 78.5824 160.84 78.4497 158.475C78.3805 157.015 78.317 155.59 78.167 154.142C77.9536 151.961 77.6593 149.781 77.3074 147.629C77.0305 145.956 76.6843 144.329 76.4017 142.673C76.3382 142.309 76.269 141.952 76.217 141.582C76.0209 140.209 76.0324 139.765 76.217 139.442C76.2529 139.367 76.2954 139.296 76.344 139.229C76.4997 139.073 76.7132 139.615 76.9209 140.602C77.5555 143.527 78.0747 146.636 78.5651 149.786C78.9055 152.129 79.142 154.506 79.292 156.888L79.269 156.882Z" fill="#3B2C7D"/>
<path d="M120.66 270.375C120.66 270.375 132.943 271.113 133.231 274.292C133.502 277.338 123.666 278.965 123.389 278.723C123.112 278.481 130.601 281.608 135.377 278.723C140.154 275.838 140.726 274.39 137.056 272.7C133.387 271.01 123.297 268.921 120.66 270.375Z" fill="#3B2C7D"/>
<path d="M130.522 231.19C130.206 229.838 129.973 228.468 129.824 227.088C129.68 225.732 129.542 224.371 129.455 223.009C129.242 220.292 129.149 217.569 129.092 214.846C129.057 212.861 129.011 210.877 129.028 208.898C129.097 201.911 129.449 194.954 129.507 187.996C129.507 184.909 129.467 181.811 129.294 178.765C129.115 174.854 128.538 170.936 128.301 167.002C128.226 165.773 128.503 165.905 128.907 166.909C129.53 168.559 129.945 170.28 130.142 172.032C130.378 174.04 130.597 176.071 130.719 178.09C130.84 180.109 130.88 182.129 130.903 184.159C130.938 188.198 130.834 192.236 130.667 196.315C130.471 201.173 130.419 206.215 130.43 211.165C130.406 216.604 130.69 222.039 131.278 227.446C131.503 229.089 131.826 230.717 132.247 232.321C132.651 233.936 133.113 235.552 133.58 237.161C135.005 242.036 136.528 246.923 137.907 251.786C138.986 255.571 140.047 259.286 140.792 263.134C140.936 263.982 141.08 264.819 141.23 265.679C141.38 266.538 141.38 267.155 141.432 267.715C141.471 268.18 141.471 268.647 141.432 269.111C141.43 269.643 141.307 270.168 141.074 270.646C141.003 270.804 140.916 270.955 140.815 271.096C140.665 271.246 140.521 270.992 140.399 270.421C140.336 270.138 140.284 269.775 140.232 269.336C140.18 268.898 140.122 268.396 140.036 267.825C139.153 261.057 137.071 254.048 134.988 247.055C133.442 241.834 131.74 236.63 130.442 231.236L130.522 231.19Z" fill="#3B2C7D"/>
<path d="M122.829 122.123C122.406 119.388 121.967 116.652 121.514 113.913L120.971 110.931L119.2 100.385C118.929 98.821 118.623 97.2633 118.3 95.723C117.919 93.7441 117.458 91.7653 117.273 89.746C117.216 89.1172 117.492 89.1691 117.85 89.6249C118.418 90.3621 118.813 91.2179 119.004 92.1287L119.662 95.146C119.869 96.1557 120.042 97.171 120.239 98.1864C120.596 100.223 120.931 102.265 121.225 104.319C121.583 106.783 122.119 109.315 122.558 111.819C123.039 114.577 123.5 117.336 123.942 120.098C124.214 121.829 124.479 123.496 124.75 125.198L125.05 127.131L125.194 128.077C125.252 128.388 125.292 128.694 125.373 129.006C125.656 130.252 126.037 131.492 126.417 132.727C126.994 134.648 127.692 136.511 128.148 138.496C128.258 138.929 128.362 139.356 128.437 139.806C128.714 141.479 128.535 142.113 128.131 142.419C128.047 142.501 127.954 142.573 127.854 142.633C127.698 142.69 127.566 142.552 127.467 142.263C127.35 141.847 127.261 141.423 127.202 140.994C126.862 139.257 126.417 137.543 125.869 135.86C125.339 134.129 124.75 132.34 124.237 130.488C124.036 129.782 123.873 129.066 123.746 128.342L123.423 126.271L122.76 122.129L122.829 122.123Z" fill="#3B2C7D"/>
<path d="M110.937 45.4093C110.712 43.4362 110.498 41.4573 110.319 39.4727C110.256 38.7516 110.152 38.0304 110.1 37.3093C109.916 34.7554 109.843 32.1919 109.881 29.6189V27.8881L109.95 26.1573C109.998 24.695 110.215 23.243 110.596 21.8304C110.723 21.3919 110.92 21.5016 111.087 21.9227C111.32 22.5425 111.397 23.2102 111.312 23.8669C111.07 26.7516 110.948 29.6362 110.948 32.5785C110.948 33.4612 110.994 34.3612 111.064 35.2669C111.133 36.1727 111.219 37.0785 111.3 37.9785C111.479 39.9573 111.681 41.9362 111.918 43.9208L112.362 47.5727C112.604 49.4189 112.835 51.2766 113.106 53.1054C113.32 54.5246 113.585 55.9093 113.816 57.3169C113.868 57.6227 113.925 57.9285 113.966 58.24C114.116 59.3939 114.075 59.7862 113.787 60.0689C113.725 60.1366 113.658 60.1984 113.585 60.2535C113.354 60.3919 113.095 59.9419 112.927 59.0996C112.437 56.6131 112.044 53.9766 111.669 51.3169C111.408 49.3362 111.145 47.3535 110.879 45.3689L110.937 45.4093Z" fill="#3B2C7D"/>
<path d="M110.488 72.0347C109.911 72.0347 109.397 73.5347 109.224 73.9443C108.647 75.3289 108.918 77.3481 110.747 76.3501C111.751 75.7731 109.467 75.6462 110.17 73.8462C110.874 72.0462 110.493 72.0404 110.488 72.0347Z" fill="#3B2C7D"/>
<path d="M110.492 75.8076C110.492 75.8076 108.237 79.1768 109.512 80.3422C110.787 81.5076 112.396 80.3422 112.396 80.3422C112.396 80.3422 109.575 80.3941 110.775 77.7922C111.975 75.1903 111.352 75.8076 111.352 75.8076H110.492Z" fill="#3B2C7D"/>
<path d="M111.718 80.296C111.718 80.296 110.495 83.3941 112.427 84.5479C113.823 85.3787 115.22 83.6479 115.22 83.6479C115.22 83.6479 112.162 83.5729 112.912 81.4152C113.662 79.2575 112.86 79.7941 112.86 79.7941L111.718 80.296Z" fill="#3B2C7D"/>
<path d="M125.255 158.59C125.255 158.59 124.92 159.848 126.409 160.517C127.897 161.186 129.963 160.211 129.963 160.211C129.963 160.211 127.141 160.558 126.501 159.583L125.861 158.608L125.255 158.59Z" fill="#3B2C7D"/>
<path d="M126.156 158.59C123.272 159.605 122.378 156.184 122.978 156.127L124.443 155.977C124.443 155.977 123.289 157.505 125.337 158.1L126.156 158.59Z" fill="#3B2C7D"/>
<path d="M123.733 146.388C123.733 146.388 125.856 147.277 125.787 148.038C125.717 148.8 121.523 150.559 120.808 152.625C120.092 154.69 121.339 155.78 122.51 156.127C122.51 156.127 120.987 153.49 122.746 152.117C124.506 150.744 128.348 149.111 128.608 148.038C129.006 146.388 123.733 146.388 123.733 146.388Z" fill="#3B2C7D"/>
<path d="M124.173 88.269C124.173 88.269 127.946 87.2363 128.673 90.3055C129.4 93.3748 130.104 98.8844 131.863 98.8267C133.623 98.769 134.321 96.2536 134.592 93.219C134.863 90.1844 138.792 85.2171 142.092 84.0286C145.392 82.8401 153.798 80.9363 158.027 84.0286C162.256 87.1209 164.95 89.769 163.317 94.8459C161.685 99.9228 156.717 110.129 159.723 113.769C162.729 117.409 170.229 118.309 171.567 117.807C172.286 117.543 173.018 117.316 173.76 117.127C173.76 117.127 170.927 115.938 171.452 113.746C171.977 111.554 172.179 109.367 175.733 104.452C179.287 99.5363 180.706 92.0709 177.302 86.7286C173.84 81.294 167.829 79.3151 161.523 79.8748C161.465 79.8748 161.454 73.5863 156.423 69.4382C150.983 64.9613 139.923 62.0305 127.958 70.5575C121.929 74.8555 124.035 76.494 124.138 81.9517C124.242 87.4094 124.358 88.6728 124.358 88.6728" fill="#3B2C7D"/>
<path d="M147.965 123.115C146.464 124.132 144.847 124.965 143.148 125.596C142.531 125.84 141.901 126.05 141.261 126.225C138.993 126.773 136.637 126.85 134.338 126.45C133.836 126.352 133.329 126.288 132.832 126.15C132.333 126.046 131.84 125.915 131.356 125.758C131.044 125.66 130.732 125.567 130.427 125.458L129.521 125.083C128.925 124.824 128.355 124.509 127.819 124.142C127.484 123.917 127.675 123.698 128.107 123.565C128.688 123.455 129.288 123.511 129.838 123.727C130.415 123.935 130.992 124.165 131.598 124.304C132.204 124.442 132.752 124.661 133.369 124.817C134.572 125.109 135.801 125.283 137.038 125.336C138.573 125.355 140.099 125.109 141.55 124.61C143.171 124.103 144.722 123.393 146.165 122.498C147.067 121.939 147.935 121.328 148.767 120.669C150.027 119.657 151.198 118.539 152.269 117.329C152.679 116.861 153.059 116.371 153.423 115.869C153.786 115.367 154.144 114.877 154.502 114.369L154.957 113.7C155.534 112.881 155.834 112.685 156.204 112.661C156.286 112.653 156.369 112.653 156.452 112.661C156.688 112.702 156.631 113.158 156.307 113.867C155.78 114.913 155.173 115.916 154.49 116.867C153.757 117.825 152.965 118.736 152.119 119.596C150.841 120.891 149.447 122.065 147.954 123.104L147.965 123.115Z" fill="#3B2C7D"/>
<path d="M161.482 87.9574C160.671 86.8754 159.626 85.9917 158.424 85.3728C157.14 84.7295 155.784 84.2396 154.385 83.9132C151.57 83.1906 148.629 83.1078 145.778 83.6709C143.738 84.1216 141.823 85.018 140.17 86.2959C138.712 87.438 137.47 88.831 136.501 90.4094C136.282 90.8132 136.016 91.2401 135.826 91.6151C135.644 91.994 135.514 92.3957 135.439 92.8093C135.3 93.7397 135.223 94.6783 135.208 95.619C135.194 96.7052 134.94 97.7749 134.464 98.7517C134.319 99.0208 134.141 99.2708 133.933 99.4959C133.687 99.748 133.39 99.9447 133.062 100.073C132.719 100.191 132.352 100.219 131.995 100.154C131.682 100.096 131.382 99.9848 131.107 99.8247C130.126 99.2529 129.372 98.3605 128.972 97.2978C128.761 96.7913 128.625 96.2569 128.568 95.7113L128.447 94.2401C128.392 93.4059 128.277 92.5767 128.101 91.7594C127.962 91.006 127.632 90.3008 127.143 89.7113C126.902 89.4654 126.603 89.2838 126.273 89.183C125.944 89.0822 125.594 89.0655 125.257 89.1344C124.885 89.1964 124.52 89.2929 124.166 89.4228C123.824 89.5739 123.502 89.7678 123.208 89.9997C122.46 90.6634 121.891 91.5051 121.554 92.447C121.218 93.3889 121.124 94.4005 121.282 95.3882C121.446 96.3599 121.917 97.2535 122.626 97.9382C122.99 98.282 123.395 98.5803 123.832 98.8267C124.289 99.0642 124.768 99.2574 125.262 99.4036C126.52 99.744 126.364 99.9805 125.13 100.05C124.249 100.053 123.379 99.8557 122.585 99.4728C121.354 98.883 120.405 97.8322 119.943 96.5478C119.524 95.2915 119.453 93.9449 119.739 92.6516C120.024 91.3583 120.655 90.1666 121.564 89.2036C122.039 88.7027 122.595 88.2853 123.208 87.969C123.523 87.8102 123.854 87.6846 124.195 87.594C124.529 87.5114 124.868 87.4498 125.21 87.4093C125.783 87.3535 126.361 87.4103 126.912 87.5767C127.103 87.6517 127.287 87.7382 127.489 87.8247C128.161 88.2103 128.709 88.7785 129.07 89.4632C129.621 90.6089 129.954 91.8474 130.051 93.1151C130.114 93.692 130.155 94.269 130.189 94.8459L130.224 95.2555C130.224 95.394 130.224 95.5267 130.258 95.6247C130.278 95.8686 130.32 96.1101 130.385 96.3459C130.614 97.202 131.155 97.9411 131.903 98.417C132.03 98.5006 132.173 98.5557 132.324 98.5786C132.417 98.5954 132.513 98.5791 132.595 98.5324C132.897 98.3111 133.121 98.0002 133.235 97.644C133.68 96.6286 133.633 95.2843 133.732 93.8478C133.772 93.0881 133.905 92.3362 134.13 91.6093C134.256 91.2369 134.419 90.8775 134.614 90.5363L135.145 89.5901C136.276 87.6143 137.827 85.9106 139.688 84.5988C141.549 83.2871 143.675 82.3992 145.916 81.9978C147.479 81.7025 149.071 81.6017 150.658 81.6978C152.232 81.7844 153.792 82.0318 155.314 82.4363C156.857 82.8225 158.344 83.4041 159.739 84.167C160.183 84.4151 160.564 84.744 160.974 85.0036C161.369 85.3123 161.741 85.6498 162.087 86.0132C162.441 86.3693 162.763 86.7554 163.051 87.167L163.437 87.8305C163.564 88.0497 163.645 88.2978 163.755 88.5286C164.42 90.4255 164.51 92.4767 164.014 94.4247C163.408 97.3093 162.22 99.9401 161.285 102.606C160.801 103.921 160.415 105.271 160.132 106.644C159.83 107.97 159.791 109.342 160.016 110.682C160.2 111.689 160.593 112.647 161.17 113.492C161.759 114.317 162.511 115.012 163.38 115.534C165.173 116.557 167.212 117.071 169.276 117.023C170.185 117.02 171.092 116.939 171.987 116.781C172.698 116.665 173.401 116.509 174.093 116.313L175.512 115.927C176.051 115.746 176.612 115.642 177.18 115.615C177.372 115.598 177.565 115.598 177.757 115.615C177.987 115.656 177.814 115.915 177.283 116.348C176.451 116.972 175.524 117.459 174.537 117.79C172.569 118.462 170.494 118.763 168.416 118.679C166.213 118.615 164.067 117.962 162.203 116.786C161.237 116.143 160.401 115.322 159.739 114.369C159.087 113.397 158.629 112.307 158.389 111.161C158.015 108.944 158.183 106.67 158.88 104.532C159.733 101.469 161.014 98.6651 161.839 95.8382C162.283 94.4908 162.526 93.0853 162.56 91.667C162.568 91.009 162.477 90.3536 162.289 89.7228C162.201 89.4159 162.087 89.1168 161.949 88.8286C161.88 88.6844 161.793 88.5517 161.712 88.4132C161.64 88.268 161.553 88.1307 161.453 88.0036L161.482 87.9574Z" fill="#3B2C7D"/>
<path d="M179.252 83.9366C180.146 85.2324 180.838 86.6563 181.305 88.1597C181.535 88.9038 181.71 89.6635 181.83 90.4328C181.96 91.1961 182.041 91.9669 182.073 92.7405C182.073 93.3174 182.073 93.8655 182.073 94.4251C182.073 94.9847 181.986 95.5443 181.934 96.0982C181.632 98.0434 181.059 99.9368 180.232 101.723C180.013 102.156 179.823 102.612 179.575 103.033L178.848 104.29C178.311 105.121 177.734 105.865 177.169 106.598C176.166 107.896 175.269 109.271 174.486 110.712C174.019 111.591 173.668 112.528 173.442 113.498C173.334 113.942 173.288 114.398 173.303 114.854C173.298 115.3 173.37 115.743 173.517 116.164C173.753 116.671 173.517 116.873 172.865 116.573C172.423 116.335 172.05 115.987 171.78 115.564C171.437 114.946 171.3 114.234 171.388 113.533C171.458 112.903 171.613 112.286 171.85 111.698C172.062 111.141 172.309 110.598 172.588 110.071C173.136 109.071 173.749 108.107 174.423 107.187C175.075 106.281 175.755 105.421 176.407 104.567C176.736 104.146 177.053 103.725 177.342 103.304L178.178 101.989C179.407 99.7354 180.126 97.2402 180.284 94.6789C180.39 93.2772 180.317 91.8677 180.065 90.4847L179.978 89.9655C179.938 89.7924 179.886 89.6251 179.84 89.4578L179.557 88.4424C179.327 87.7821 179.051 87.1383 178.732 86.5155C177.327 83.7827 175.048 81.5979 172.259 80.3078C171.045 79.7989 169.758 79.4854 168.446 79.3789C166.402 79.2603 164.352 79.4234 162.353 79.8635C161.903 79.9501 161.477 80.0597 161.027 80.1462C160.44 80.2999 159.838 80.3851 159.232 80.4001C158.927 80.4202 158.622 80.3564 158.35 80.2155C158.248 80.1678 158.15 80.1138 158.055 80.0539C157.836 79.8693 158.453 79.4424 159.653 78.9635C161.525 78.3279 163.459 77.8965 165.423 77.677C167.531 77.4304 169.667 77.599 171.711 78.1732C172.092 78.3116 172.484 78.4212 172.865 78.5828C173.246 78.7443 173.621 78.9001 173.973 79.1078C174.677 79.4981 175.352 79.9397 175.992 80.4289C176.316 80.6623 176.622 80.9187 176.909 81.1962C177.198 81.4732 177.486 81.7212 177.786 82.0155C178.336 82.5977 178.843 83.2185 179.303 83.8732L179.252 83.9366Z" fill="#3B2C7D"/>
<path d="M129.995 67.6211C131.463 66.6577 133.047 65.8824 134.708 65.3134C136.355 64.7559 138.054 64.3692 139.78 64.1596C140.408 64.0904 141.037 64.0096 141.666 63.9807C142.292 63.9317 142.92 63.9201 143.547 63.9461C145.758 64.0142 147.953 64.3493 150.083 64.9442C150.614 65.1057 151.139 65.2731 151.664 65.4461C152.189 65.6192 152.72 65.8384 153.216 66.0923C154.235 66.5686 155.201 67.1486 156.101 67.823C157.694 69.0017 159.077 70.4412 160.191 72.0807C161.307 73.6455 162.022 75.46 162.274 77.3654C162.341 77.9959 162.351 78.6312 162.303 79.2634C162.239 80.0538 161.91 79.9154 161.518 79.298C161.322 78.9923 161.114 78.5711 160.855 78.0923C160.594 77.563 160.363 77.0198 160.162 76.4654C159.378 74.3288 158.138 72.3884 156.529 70.7786C154.921 69.1687 152.981 67.928 150.845 67.1423C148.067 66.177 145.129 65.7559 142.191 65.9019C138.957 65.9421 135.77 66.6842 132.851 68.0769C131.07 68.9577 129.463 70.154 128.108 71.6077C127.069 72.6776 126.241 73.9342 125.668 75.3115C125.118 76.6976 124.863 78.1829 124.918 79.6731C124.918 80.8269 125.108 81.9807 125.247 83.1981C125.454 84.4488 125.436 85.7265 125.195 86.9711C125.061 87.5614 124.825 88.1237 124.497 88.6327C124.077 89.3054 123.478 89.847 122.766 90.1961C122.444 90.3787 122.064 90.4303 121.705 90.3404C121.574 90.3138 121.446 90.2732 121.324 90.2192C121.168 90.1211 121.231 89.9134 121.462 89.6423C121.578 89.5038 121.733 89.348 121.901 89.1577L122.189 88.8692C122.281 88.7654 122.38 88.65 122.489 88.5404C122.793 88.2142 123.044 87.8424 123.233 87.4384C123.422 87.0402 123.543 86.6131 123.591 86.175C123.678 85.1783 123.643 84.1748 123.487 83.1865C123.366 82.1077 123.205 80.9711 123.176 79.7769C123.129 78.5477 123.245 77.3177 123.522 76.1192C123.748 75.2144 124.075 74.3378 124.497 73.5057C124.92 72.688 125.425 71.9149 126.003 71.1981C127.133 69.7976 128.465 68.5727 129.955 67.5634L129.995 67.6211Z" fill="#3B2C7D"/>
<path d="M131.639 232.212C131.286 230.745 131.013 229.26 130.82 227.763C130.675 226.287 130.502 224.815 130.416 223.338C130.179 220.385 130.081 217.431 130.035 214.483C130 212.331 129.948 210.179 129.983 208.033C130.093 200.463 130.514 192.935 130.508 185.412C130.508 182.077 130.404 178.713 130.087 175.436C129.729 171.208 129.06 166.967 128.887 162.681C128.841 161.348 129.187 161.498 129.66 162.583C130.384 164.353 130.869 166.211 131.102 168.11C131.385 170.273 131.679 172.436 131.887 174.623C132.002 175.719 132.072 176.821 132.135 177.929L132.25 181.223C132.36 185.619 132.25 190.015 132.072 194.412C131.847 199.667 131.777 205.131 131.777 210.49C131.715 216.369 132.017 222.246 132.683 228.087C132.962 229.86 133.33 231.618 133.785 233.354C134.235 235.085 134.72 236.856 135.216 238.598C136.722 243.894 138.279 249.219 139.577 254.55C140.575 258.704 141.539 262.8 141.822 267.092C141.89 268.039 141.909 268.988 141.879 269.937C141.857 271.221 141.633 272.494 141.216 273.71C141.078 274.032 140.914 274.343 140.725 274.638C140.567 274.844 140.371 275.018 140.148 275.152C139.994 275.277 139.823 275.38 139.641 275.458C139.404 275.521 139.358 275.192 139.462 274.598C139.566 274.004 139.733 273.092 139.889 271.91C140.071 270.089 140.071 268.255 139.889 266.435C139.716 264.571 139.433 262.69 139.075 260.798C138.354 257.013 137.391 253.194 136.341 249.381C134.806 243.704 133.012 238.062 131.587 232.229L131.639 232.212Z" fill="#3B2C7D"/>
<path d="M122.976 120.398C122.532 117.444 122.076 114.49 121.586 111.548C121.413 110.469 121.176 109.402 121.009 108.329L119.14 96.9517C118.851 95.2671 118.511 93.5882 118.17 91.9324C117.694 89.8046 117.342 87.651 117.115 85.4824C117.063 84.8017 117.403 84.8305 117.87 85.3267C118.548 86.087 119.019 87.0088 119.238 88.0036L119.953 91.2574C120.178 92.342 120.363 93.4382 120.53 94.5344C120.911 96.7267 121.263 98.9247 121.563 101.146C121.926 103.806 122.52 106.529 122.988 109.223C123.499 112.192 123.992 115.167 124.465 118.148C124.753 119.982 125.042 121.817 125.324 123.652C125.549 125.042 125.717 126.438 125.993 127.782C126.27 129.127 126.599 130.511 126.922 131.867C127.424 133.984 128.024 136.032 128.44 138.173C128.532 138.646 128.63 139.107 128.693 139.592C128.93 141.398 128.74 142.05 128.22 142.402C128.113 142.491 127.994 142.566 127.868 142.627C127.672 142.69 127.505 142.534 127.378 142.229C127.225 141.783 127.116 141.323 127.055 140.856C126.755 139.044 126.317 137.163 125.861 135.242C125.405 133.321 124.938 131.354 124.47 129.386C124.303 128.648 124.142 127.904 123.997 127.125C123.853 126.346 123.761 125.619 123.64 124.863L122.936 120.404L122.976 120.398Z" fill="#3B2C7D"/>
<path d="M111.186 44.8095C111.099 42.3691 111.047 39.9345 111.013 37.4941C111.013 36.6056 110.949 35.7172 110.949 34.8287C110.978 31.6902 111.076 28.5518 111.29 25.4133L111.422 23.3249C111.451 22.6268 111.497 21.9287 111.561 21.2364L111.676 19.8979C111.728 19.4537 111.797 19.0095 111.861 18.5652C111.921 18.119 112.003 17.6761 112.109 17.2383C112.218 16.7999 112.368 16.3672 112.518 15.9402C112.709 15.4037 113.015 15.571 113.274 16.1133C113.427 16.4453 113.541 16.7937 113.615 17.1518C113.654 17.365 113.675 17.5812 113.678 17.7979C113.701 18.0378 113.701 18.2793 113.678 18.5191L113.545 19.8287C113.499 20.2614 113.488 20.7114 113.453 21.1499C113.418 21.5883 113.367 22.0268 113.32 22.471L113.222 23.7979L113.107 25.1306L113.015 26.4749L112.807 29.1691C112.726 30.2479 112.703 31.3499 112.72 32.4633C112.738 33.5768 112.755 34.6902 112.778 35.7979C112.778 38.2326 112.859 40.6729 112.951 43.1133C112.997 44.6133 113.078 46.1191 113.153 47.6191C113.292 49.8864 113.418 52.171 113.649 54.421C113.834 56.1518 114.134 57.8826 114.399 59.6133C114.463 59.9883 114.52 60.3576 114.584 60.7672C114.78 62.1864 114.705 62.6479 114.243 63.0114C114.147 63.1041 114.041 63.1854 113.926 63.2537C113.557 63.4383 113.176 62.8902 112.945 61.8576C112.289 58.683 111.846 55.4681 111.618 52.2345C111.411 49.7883 111.278 47.3306 111.151 44.8729L111.186 44.8095Z" fill="#3B2C7D"/>
<path d="M118.661 81.173C117.926 81.9759 117.133 82.724 116.289 83.4115C115.96 83.7063 115.6 83.9654 115.216 84.1846L114.899 84.3173C114.795 84.3634 114.634 84.3923 114.501 84.4327C114.233 84.4959 113.955 84.5076 113.682 84.4673C113.417 84.4232 113.166 84.3164 112.95 84.1559C112.734 83.9953 112.56 83.7856 112.441 83.5442C112.32 83.309 112.238 83.0557 112.199 82.7942C112.164 82.5865 112.15 82.3758 112.159 82.1653C112.177 81.7868 112.237 81.4115 112.338 81.0461C112.486 80.3997 112.735 79.7807 113.076 79.2115C113.499 78.5393 114.077 77.9777 114.761 77.573C114.963 77.4519 115.159 77.6884 115.245 78.0577C115.356 78.47 115.3 78.9093 115.089 79.2807C114.98 79.425 114.888 79.5692 114.795 79.7077C114.719 79.8402 114.635 79.9674 114.541 80.0884C114.382 80.3191 114.248 80.5667 114.143 80.8269C113.935 81.3489 113.807 81.8993 113.763 82.4596C113.75 82.4949 113.746 82.5325 113.75 82.5697C113.754 82.6069 113.767 82.6426 113.787 82.6742C113.807 82.7058 113.834 82.7326 113.865 82.7523C113.897 82.7721 113.933 82.7844 113.97 82.7884C114.048 82.7922 114.125 82.7764 114.195 82.7423C114.346 82.6665 114.49 82.5797 114.628 82.4827C115.401 81.8948 116.114 81.2319 116.757 80.5038C117.168 80.0531 117.553 79.5792 117.911 79.0846C118.465 78.3716 118.891 77.5672 119.168 76.7077C119.258 76.4537 119.282 76.1808 119.237 75.9151C119.191 75.6495 119.078 75.3999 118.909 75.1903C118.857 75.1269 118.764 75.1038 118.707 75.0519C118.649 75 118.603 74.9653 118.545 74.925C118.508 74.8576 118.486 74.7826 118.482 74.7057C118.446 74.5151 118.446 74.3194 118.482 74.1288C118.482 74.0134 118.482 73.898 118.522 73.7942C118.539 73.7059 118.577 73.6229 118.632 73.5518C118.687 73.4806 118.758 73.4234 118.839 73.3846C119.078 73.2609 119.354 73.232 119.613 73.3038C120.112 73.5123 120.532 73.8739 120.813 74.3365C121.09 74.8071 121.239 75.3422 121.245 75.8884C121.236 76.7708 121.019 77.6386 120.611 78.4211C120.084 79.4266 119.437 80.3642 118.684 81.2134L118.661 81.173Z" fill="#3B2C7D"/>
<path d="M111.745 79.1593H111.786L111.936 79.09C112.039 79.0439 112.137 79.015 112.241 78.9573C112.451 78.8469 112.655 78.7256 112.853 78.5939C113.262 78.3155 113.647 78.0049 114.007 77.665C114.289 77.4169 114.526 77.1227 114.797 76.8573C115.278 76.3811 115.735 75.8804 116.164 75.3573C116.384 75.0919 116.591 74.8266 116.782 74.5496C116.964 74.2997 117.131 74.0397 117.284 73.7708C117.473 73.2463 117.555 72.6892 117.526 72.1323C117.518 71.8071 117.45 71.4862 117.324 71.1862C117.191 70.9439 117.151 70.8804 116.903 70.7881C116.764 70.742 116.655 70.4246 116.903 70.0958C116.984 69.987 117.09 69.9 117.213 69.8426C117.336 69.7852 117.471 69.7592 117.607 69.767C117.801 69.7815 117.989 69.8412 118.157 69.9413C118.324 70.0415 118.466 70.1793 118.57 70.3439C118.863 70.8268 119.035 71.3729 119.072 71.9362C119.112 72.4114 119.096 72.8896 119.026 73.3612C118.994 73.6055 118.942 73.8468 118.87 74.0823C118.83 74.228 118.78 74.3707 118.72 74.5093L118.547 74.8381C118.318 75.2196 118.053 75.5788 117.757 75.9112C117.082 76.6958 116.493 77.567 115.761 78.3285C114.947 79.1861 114 79.9069 112.957 80.4631L112.432 80.6996L111.722 80.9073C111.483 80.955 111.236 80.9391 111.005 80.8612C110.774 80.7832 110.568 80.6459 110.407 80.4631C110.172 80.173 110.022 79.8235 109.974 79.4535C109.95 79.291 109.937 79.1272 109.934 78.9631C109.939 78.8048 109.952 78.6469 109.974 78.49C110.092 77.9204 110.313 77.3769 110.626 76.8862C111.038 76.1579 111.532 75.4786 112.097 74.8612C112.224 74.7343 112.339 74.5958 112.484 74.4746C113.061 74.0823 113.309 74.065 113.603 74.2266C113.67 74.2562 113.734 74.2929 113.793 74.3362C113.972 74.4804 113.88 74.792 113.643 75.2016C113.466 75.5016 113.273 75.7924 113.066 76.0727C112.887 76.3612 112.703 76.6496 112.524 76.9093C112.18 77.3918 111.913 77.9251 111.734 78.49C111.688 78.6288 111.657 78.7719 111.641 78.9169C111.641 79.1419 111.641 79.0669 111.641 79.09C111.641 79.1131 111.641 79.1535 111.705 79.1246L111.745 79.1593Z" fill="#3B2C7D"/>
<path d="M111.572 74.6941H111.607H111.665C111.712 74.7054 111.761 74.7054 111.809 74.6941C111.96 74.6427 112.101 74.5645 112.224 74.4633C112.585 74.1624 112.919 73.8304 113.222 73.471C113.47 73.1883 113.736 72.8133 114.036 72.5306C115.103 71.5383 116.182 70.7999 116.574 69.646C116.667 69.4008 116.713 69.1408 116.713 68.8787C116.706 68.6141 116.661 68.3518 116.58 68.0999C116.501 67.8049 116.348 67.5349 116.136 67.3153C116.055 67.2314 115.955 67.169 115.844 67.1337C115.733 67.0985 115.615 67.0915 115.501 67.1133C115.328 67.1133 115.184 66.8941 115.311 66.5364C115.354 66.4267 115.421 66.3278 115.506 66.247C115.592 66.1662 115.695 66.1054 115.807 66.0691C115.976 66.0132 116.155 65.9972 116.332 66.0222C116.508 66.0472 116.676 66.1126 116.822 66.2133C117.273 66.5563 117.611 67.0266 117.792 67.5633C117.96 68.0332 118.042 68.5296 118.034 69.0287C117.982 70.0057 117.595 70.935 116.938 71.6595C116.228 72.4614 115.536 73.1826 114.965 73.8806C114.394 74.5787 113.765 75.7499 112.357 76.2922C112.131 76.354 111.899 76.3927 111.665 76.4076C111.418 76.3984 111.174 76.3477 110.944 76.2576C110.502 76.0795 110.138 75.7503 109.917 75.3287C109.625 74.766 109.538 74.1199 109.668 73.4999C109.718 73.2123 109.795 72.9303 109.899 72.6576C110.013 72.3982 110.142 72.1458 110.286 71.9018C110.72 71.1638 111.278 70.5061 111.936 69.9576C112.08 69.8422 112.219 69.721 112.374 69.6172C112.951 69.2826 113.234 69.3056 113.528 69.6172C113.6 69.6919 113.668 69.7709 113.73 69.8537C113.815 70.0134 113.84 70.1987 113.798 70.375C113.757 70.5513 113.653 70.7065 113.505 70.8114C113.038 71.2672 112.611 71.6999 112.236 72.1326C111.896 72.5238 111.634 72.9761 111.463 73.4653C111.366 73.7391 111.342 74.0333 111.394 74.3191C111.414 74.3595 111.429 74.4021 111.44 74.446C111.469 74.446 111.474 74.5153 111.492 74.5268C111.509 74.5383 111.492 74.573 111.526 74.5614C111.561 74.5499 111.526 74.5614 111.561 74.5614L111.572 74.6941Z" fill="#3B2C7D"/>
<path d="M123.577 151.315C124.569 150.698 125.573 150.161 126.525 149.584C126.991 149.318 127.442 149.025 127.875 148.707C128.069 148.561 128.252 148.401 128.423 148.229C128.533 148.115 128.625 147.985 128.694 147.842C128.711 147.797 128.711 147.748 128.694 147.704C128.681 147.698 128.667 147.694 128.654 147.692L128.515 147.571L128.434 147.502C128.196 147.32 127.923 147.188 127.632 147.115C126.976 146.945 126.306 146.833 125.63 146.781C124.921 146.717 124.2 146.659 123.455 146.55C123.066 146.505 122.681 146.434 122.302 146.336C121.781 146.245 121.312 145.968 120.98 145.557C120.852 145.316 120.799 145.043 120.828 144.771C120.857 144.5 120.966 144.243 121.142 144.034C121.384 143.683 121.675 143.368 122.007 143.1C123.123 142.273 124.448 141.778 125.832 141.669C127.527 141.428 129.256 141.626 130.852 142.246C131.348 142.454 131.204 142.592 130.736 142.661C130.021 142.763 129.301 142.819 128.579 142.829C127.782 142.829 126.992 142.869 126.225 142.961C125.474 143.052 124.738 143.236 124.032 143.509C123.396 143.741 122.834 144.139 122.405 144.663L122.342 144.732L122.307 144.767C122.3 144.784 122.297 144.801 122.297 144.819C122.297 144.837 122.3 144.855 122.307 144.871C122.326 144.906 122.354 144.936 122.388 144.957C122.388 144.957 122.486 144.992 122.527 145.015L122.78 145.084C123.675 145.298 124.719 145.321 125.763 145.454C126.288 145.511 126.825 145.581 127.373 145.696C127.968 145.801 128.538 146.019 129.052 146.336C129.147 146.405 129.238 146.48 129.323 146.561L129.357 146.596C129.509 146.713 129.642 146.853 129.75 147.011C129.886 147.18 129.982 147.377 130.032 147.588C130.068 147.797 130.061 148.011 130.012 148.217C129.964 148.423 129.874 148.617 129.75 148.788C129.385 149.281 128.933 149.703 128.417 150.034C127.5 150.692 126.548 151.217 125.619 151.765C125.042 152.117 124.43 152.475 123.888 152.856C123.617 153.042 123.359 153.247 123.115 153.467C123 153.569 122.892 153.679 122.792 153.796C122.712 153.889 122.641 153.99 122.579 154.096C122.542 154.156 122.52 154.224 122.514 154.294C122.508 154.363 122.518 154.434 122.544 154.499C122.57 154.565 122.61 154.623 122.662 154.67C122.714 154.717 122.776 154.752 122.844 154.771C123.032 154.822 123.226 154.845 123.421 154.84C123.663 154.832 123.904 154.807 124.142 154.765C125.14 154.563 126.109 154.237 127.027 153.796C128.439 153.15 129.738 152.281 130.875 151.223C131.077 151.005 131.252 150.763 131.394 150.502C131.561 150.169 131.685 149.816 131.763 149.452C131.784 149.337 131.817 149.225 131.861 149.117C131.886 149.022 131.923 148.931 131.971 148.846C132.008 148.766 132.051 148.689 132.098 148.615C132.173 148.517 132.282 148.581 132.45 148.817C132.697 149.193 132.819 149.637 132.796 150.086C132.761 150.541 132.635 150.985 132.427 151.39C132.218 151.775 131.965 152.133 131.671 152.457C131.106 153.047 130.459 153.552 129.75 153.957C128.399 154.823 126.935 155.497 125.4 155.959C124.775 156.146 124.13 156.255 123.479 156.282C123.039 156.304 122.601 156.231 122.192 156.069C122.063 156.021 121.942 155.953 121.834 155.867C121.719 155.793 121.612 155.706 121.517 155.607C121.42 155.511 121.338 155.4 121.275 155.279C121.223 155.157 121.177 155.031 121.113 154.909C121.048 154.64 121.037 154.36 121.082 154.087C121.127 153.814 121.225 153.552 121.373 153.317C121.568 152.997 121.811 152.709 122.094 152.463C122.563 152.054 123.065 151.684 123.594 151.356L123.577 151.315Z" fill="#3B2C7D"/>
<path d="M127.012 156.992C127.766 156.893 128.506 156.713 129.222 156.456C129.487 156.358 129.735 156.213 130.001 156.104C130.94 155.721 131.83 155.225 132.649 154.627C132.995 154.354 133.296 154.029 133.543 153.663C133.851 153.223 134.095 152.741 134.27 152.233C134.327 152.077 134.506 152.077 134.702 152.233C134.822 152.346 134.913 152.487 134.968 152.642C135.044 152.825 135.064 153.025 135.026 153.219C134.876 153.927 134.53 154.579 134.027 155.1C133.579 155.604 133.056 156.036 132.476 156.381C131.783 156.767 131.131 157.252 130.41 157.604C129.614 157.985 128.778 158.278 127.918 158.475C127.374 158.6 126.82 158.671 126.262 158.688C125.804 158.701 125.347 158.633 124.912 158.486C124.668 158.396 124.445 158.259 124.254 158.083C124.152 157.992 124.061 157.889 123.983 157.777C123.914 157.667 123.868 157.575 123.804 157.471C123.692 157.285 123.619 157.078 123.589 156.863C123.56 156.648 123.574 156.429 123.631 156.219C123.775 155.835 124.041 155.509 124.387 155.29C124.499 155.205 124.617 155.128 124.739 155.059C125.206 154.869 125.374 154.898 125.599 155.059L125.743 155.152C125.881 155.256 125.806 155.533 125.558 155.844C125.31 156.156 125.189 156.271 125.068 156.421C125.012 156.485 124.974 156.562 124.958 156.646C124.952 156.654 124.948 156.664 124.948 156.675C124.948 156.685 124.952 156.696 124.958 156.704C124.921 156.683 124.883 156.666 124.843 156.652H124.895C124.958 156.656 125.022 156.656 125.085 156.652C125.085 156.652 125.149 156.686 125.183 156.733C125.322 156.911 125.299 156.819 125.356 156.848C125.558 156.916 125.767 156.959 125.979 156.975C126.317 156.995 126.656 156.974 126.989 156.911L127.012 156.992Z" fill="#3B2C7D"/>
<path d="M131.754 160.009C131.135 160.197 130.508 160.353 129.873 160.477C129.643 160.511 129.423 160.598 129.181 160.621C128.755 160.679 128.324 160.696 127.894 160.673C127.667 160.67 127.44 160.639 127.219 160.581C126.993 160.526 126.774 160.445 126.568 160.338C126.361 160.23 126.178 160.081 126.031 159.9C125.885 159.705 125.795 159.473 125.771 159.231C125.728 158.735 125.83 158.238 126.066 157.8C126.129 157.673 126.314 157.736 126.475 157.904C126.562 157.991 126.63 158.096 126.675 158.211C126.72 158.326 126.74 158.449 126.735 158.573C126.713 158.745 126.713 158.92 126.735 159.092C126.741 159.174 126.776 159.252 126.833 159.311C126.927 159.392 127.037 159.453 127.156 159.49C127.323 159.559 127.496 159.577 127.681 159.634C128.201 159.681 128.724 159.634 129.227 159.496C129.811 159.377 130.389 159.229 130.958 159.052C131.316 158.936 131.673 158.821 132.025 158.677C132.556 158.477 133.071 158.238 133.566 157.961C133.931 157.739 134.268 157.474 134.569 157.171C134.644 157.107 134.696 157.038 134.76 156.986C134.834 156.898 134.939 156.841 135.053 156.826C135.167 156.811 135.283 156.84 135.377 156.906L135.568 156.986C135.764 157.079 135.81 157.327 135.637 157.627C135.396 158.016 135.078 158.352 134.702 158.613C134.346 158.888 133.958 159.12 133.548 159.306C132.96 159.583 132.355 159.824 131.737 160.027L131.754 160.009Z" fill="#3B2C7D"/>
<path d="M137.393 276.53C137.696 276.316 137.987 276.085 138.264 275.838C138.536 275.602 138.778 275.261 139.009 275.059C139.029 275.038 139.043 275.012 139.048 274.983C139.054 274.954 139.05 274.924 139.038 274.898C138.931 274.68 138.784 274.484 138.605 274.321C138.129 273.896 137.604 273.53 137.041 273.23C136.35 272.873 135.639 272.553 134.913 272.273C132.292 271.255 129.55 270.586 126.755 270.282C125.51 270.144 124.257 270.098 123.005 270.144C121.413 270.213 119.82 270.375 118.228 270.6C117.732 270.663 117.761 270.507 118.141 270.248C118.77 269.843 119.468 269.559 120.201 269.411C121.862 269.075 123.555 268.928 125.249 268.973C126.948 268.981 128.64 269.174 130.297 269.55C132.338 269.953 134.339 270.532 136.28 271.28C137.203 271.666 138.083 272.147 138.905 272.717C139.345 273.028 139.735 273.406 140.059 273.836C140.146 273.968 140.225 274.105 140.295 274.246C140.374 274.415 140.422 274.597 140.439 274.782C140.478 275.156 140.371 275.53 140.139 275.827L139.418 276.64C138.375 277.647 137.152 278.449 135.813 279.005C133.823 279.822 131.707 280.287 129.559 280.379C127.922 280.507 126.276 280.458 124.649 280.234C124.29 280.192 123.934 280.131 123.582 280.05C122.266 279.68 121.914 279.357 121.764 278.942C121.727 278.849 121.698 278.752 121.678 278.654C121.678 278.359 122.255 278.325 123.155 278.463C124.535 278.667 125.926 278.792 127.32 278.838C128.737 278.892 130.157 278.818 131.561 278.619C133.626 278.349 135.6 277.604 137.33 276.444L137.393 276.53Z" fill="#3B2C7D"/>
<path d="M108.279 242.256C107.211 238.702 106.04 235.177 104.973 231.577C104.771 230.931 104.592 230.256 104.396 229.592C104.2 228.929 104.055 228.225 103.929 227.55C103.104 222.762 102.913 217.938 102.671 213.162C102.613 212.1 102.55 211.038 102.475 209.983C102.4 208.927 102.348 207.837 102.336 206.775C102.255 204.04 102.504 201.34 102.596 198.652C102.596 197.81 102.821 197.913 103.075 198.623C103.432 199.793 103.626 201.006 103.652 202.229L103.709 204.306C103.709 204.992 103.709 205.679 103.709 206.36C103.709 207.733 103.784 209.042 103.894 210.438C104.084 213.213 104.211 215.977 104.373 218.746C104.576 222.106 105.053 225.444 105.798 228.727C106.727 232.287 107.961 235.852 109.08 239.429C109.773 241.638 110.454 243.848 111.094 246.075C112.063 249.444 112.929 252.865 113.65 256.275C113.961 257.596 114.186 258.923 114.48 260.233L114.821 262.217C114.936 262.875 115.057 263.538 115.121 264.208C115.184 264.877 115.277 265.362 115.323 265.973C115.461 268.194 115.323 268.915 114.907 269.388C114.829 269.502 114.738 269.606 114.636 269.7C114.336 269.908 114.025 269.019 113.84 267.45C113.788 266.873 113.696 266.296 113.592 265.69C113.488 265.085 113.43 264.537 113.355 263.913C113.159 262.725 112.967 261.527 112.779 260.319C112.317 257.913 111.832 255.479 111.227 253.05C110.35 249.444 109.334 245.844 108.221 242.273L108.279 242.256Z" fill="#3B2C7D"/>
<path d="M98.309 283.056C98.6973 283.023 99.0829 282.963 99.4629 282.877C99.8379 282.802 100.219 282.744 100.588 282.658L101.696 282.34C101.88 282.283 102.065 282.237 102.272 282.173L102.803 281.965C103.325 281.761 103.836 281.528 104.332 281.267C106.148 280.432 107.821 279.314 109.288 277.956C109.605 277.644 109.917 277.321 110.228 276.998C110.384 276.841 110.527 276.671 110.655 276.49L111.071 275.965C111.809 275.089 112.363 274.085 113.09 273.185C113.315 272.908 113.482 273.046 113.517 273.427C113.543 273.986 113.413 274.541 113.142 275.031C111.946 277.198 110.271 279.063 108.244 280.483C107.632 280.904 106.997 281.308 106.38 281.758C105.763 282.208 105.071 282.531 104.39 282.86C103.639 283.203 102.869 283.499 102.082 283.748L100.888 284.112L99.6763 284.365C99.1799 284.478 98.677 284.558 98.1706 284.608C97.6695 284.682 97.165 284.73 96.659 284.752L95.5052 284.81L94.3513 284.781H93.7744L93.1975 284.735L92.0436 284.642C91.4667 284.556 90.8898 284.521 90.3129 284.44L89.4359 284.308C89.1431 284.278 88.8535 284.222 88.5706 284.14C88.3167 284.071 88.0629 284.014 87.8148 283.939C87.4688 283.855 87.1519 283.68 86.8975 283.431C86.7487 283.29 86.6529 283.103 86.6263 282.9C86.6263 282.808 86.5859 282.721 86.5859 282.652C86.5859 282.444 87.0532 282.317 87.7398 282.369C88.7263 282.537 89.7186 282.687 90.7109 282.871L92.2282 283.079L93.7629 283.217C94.1436 283.217 94.5302 283.217 94.9167 283.246H95.4936H96.0706C96.4513 283.246 96.8379 283.246 97.2244 283.194L98.3782 283.05L98.309 283.056Z" fill="#3B2C7D"/>
<path d="M84.8069 264.104C84.4203 261.796 83.953 259.517 83.5434 257.181C83.3934 256.333 83.2088 255.49 83.0934 254.636L82.5165 250.154C82.3088 248.659 82.1184 247.154 81.98 245.642C81.8588 244.304 81.7434 242.948 81.703 241.604C81.632 239.88 81.7558 238.154 82.0723 236.458C82.1703 235.927 82.3088 236.019 82.4357 236.458C82.6228 237.202 82.7292 237.964 82.753 238.731C82.8396 240.461 82.8453 242.14 83.0184 243.848C83.1915 245.556 83.428 247.263 83.5953 249.006C83.7107 250.05 83.878 251.106 84.0453 252.173C84.2126 253.24 84.3857 254.296 84.5588 255.352C84.9396 257.659 85.43 259.967 85.8742 262.275C86.1453 263.7 86.3703 265.159 86.6011 266.584C86.953 268.754 87.2992 270.952 87.553 273.138C87.8003 274.827 87.918 276.532 87.905 278.238C87.9046 278.624 87.8834 279.009 87.8415 279.392C87.68 280.806 87.4319 281.233 87.0915 281.458C87.0177 281.513 86.9385 281.562 86.855 281.602C86.6011 281.671 86.5723 281.094 86.6069 280.113C86.6426 277.072 86.4148 274.034 85.9261 271.033C85.753 269.879 85.5626 268.725 85.3492 267.571C85.1357 266.417 84.9742 265.223 84.7723 264.109L84.8069 264.104Z" fill="#3B2C7D"/>
<path d="M80.7687 157.557C80.8668 160.58 80.8783 163.609 80.7687 166.627C80.7341 167.734 80.7687 168.836 80.6764 169.938C80.4514 173.815 80.0014 177.686 79.4706 181.517C79.2514 183.219 79.0322 184.927 78.8937 186.617C78.686 188.786 78.5706 190.961 78.4841 193.136C78.4553 193.811 78.2707 193.713 78.0687 193.136C77.7682 192.191 77.6259 191.203 77.6476 190.211C77.6764 187.95 77.8322 185.705 78.0514 183.473C78.2706 181.24 78.6283 179.03 78.8764 176.809C79.211 174.15 79.286 171.357 79.3783 168.617C79.4822 165.605 79.4976 162.59 79.4245 159.571C79.3783 157.707 79.2976 155.861 79.113 154.021C78.8476 151.229 78.4322 148.425 77.9591 145.661C77.6014 143.515 77.1456 141.421 76.8053 139.275C76.7303 138.807 76.6553 138.346 76.5976 137.867C76.413 136.09 76.4937 135.507 76.811 135.104C76.8717 135.005 76.9433 134.914 77.0245 134.832C77.2841 134.648 77.5553 135.352 77.786 136.615C78.4841 140.377 79.1937 144.34 79.8168 148.39C80.301 151.418 80.6169 154.471 80.763 157.534L80.7687 157.557Z" fill="#3B2C7D"/>
<path d="M68.5097 278.728C69.9231 278.659 71.3424 278.665 72.7616 278.728C73.275 278.728 73.7943 278.728 74.3135 278.798C76.143 278.961 77.9484 279.329 79.6962 279.894C80.491 280.133 81.2632 280.442 82.0039 280.817C82.9778 281.257 83.8294 281.928 84.4847 282.773C84.6808 283.044 84.4847 283.153 84.1097 283.125C83.6481 283.076 83.2039 282.922 82.8116 282.675C81.9905 282.156 81.1114 281.736 80.1924 281.423C79.2671 281.063 78.3211 280.759 77.3597 280.511C76.1421 280.247 74.9016 280.102 73.6558 280.078C72.2827 280.003 70.8981 280.003 69.5077 280.05C68.6539 280.084 67.777 280.13 66.952 280.217C65.6611 280.331 64.3768 280.51 63.1039 280.753C62.1231 280.955 61.1827 281.25 60.2193 281.521L59.602 281.711C58.8174 281.919 58.552 281.907 58.2866 281.63C58.2224 281.569 58.1627 281.504 58.1077 281.434C57.9577 281.209 58.2231 280.903 58.7885 280.655C59.644 280.288 60.5228 279.978 61.4193 279.727C62.3366 279.496 63.277 279.305 64.2231 279.15C65.6308 278.925 67.0558 278.786 68.4808 278.688L68.5097 278.728Z" fill="#3B2C7D"/>
<path d="M45.8317 222.739C46.324 227.292 47.0087 231.827 47.8856 236.342C48.1856 237.987 48.6067 239.614 48.9471 241.252C49.5875 244.137 50.2394 247.021 51.1048 249.825C51.9702 252.629 52.9106 255.444 53.8221 258.283C54.6356 260.792 55.4202 263.342 56.0779 265.887C57.0067 269.273 56.5625 272.723 57.4163 275.833C57.7394 276.767 57.5202 276.779 56.9317 276.04C56.09 274.731 55.5737 273.24 55.426 271.69C55.3033 270.03 55.0662 268.38 54.7163 266.752C54.2721 265.119 53.8164 263.487 53.3144 261.865C52.3164 258.617 51.1279 255.398 50.1298 252.058C49.5529 250.062 48.9356 248.019 48.399 245.948C48.1279 244.915 47.8856 243.877 47.6317 242.839C47.3779 241.8 47.1413 240.767 46.9279 239.729C45.9529 235.165 45.1567 230.556 44.5683 225.929L44.3029 223.789L44.0894 221.642C43.9337 220.212 43.8356 218.758 43.7317 217.35C43.4375 213.006 43.3856 208.633 43.5183 204.317C43.5804 200.99 43.8115 197.669 44.2106 194.365C44.3087 193.639 44.4125 192.929 44.5106 192.196C44.661 191.238 44.8789 190.291 45.1625 189.364C45.2753 188.93 45.4713 188.522 45.7394 188.164C45.8189 188.044 45.9097 187.931 46.0106 187.829C46.276 187.615 46.2644 188.746 46.0106 190.714C45.8664 192.173 45.7164 193.656 45.5664 195.15C45.5087 195.894 45.4567 196.65 45.399 197.406L45.3183 198.56L45.2663 199.714L45.1279 202.021C45.1279 202.789 45.0817 203.556 45.0529 204.329C44.9837 205.864 45.0529 207.415 45.001 208.944C45.0486 213.562 45.3356 218.174 45.8606 222.762L45.8317 222.739Z" fill="#3B2C7D"/>
<path d="M181.018 215.192C181.468 208.269 181.802 201.306 182.056 194.365C182.131 191.827 182.183 189.294 182.241 186.761C182.466 177.825 182.529 168.877 182.183 159.958C182.051 156 181.762 152.025 181.399 148.113C180.96 143.077 180.245 138.063 179.622 133.05C179.42 131.486 179.558 131.671 179.974 132.952C180.729 135.08 181.308 137.266 181.704 139.488C182.102 142.056 182.489 144.629 182.76 147.208C182.904 148.5 182.997 149.792 183.101 151.09C183.204 152.388 183.302 153.675 183.366 154.973C183.533 157.569 183.626 160.165 183.712 162.767C183.799 165.369 183.804 167.96 183.787 170.585C183.787 176.827 183.787 183.323 183.62 189.704C183.429 196.713 183.124 203.729 182.754 210.733C182.518 215.048 182.212 219.358 181.86 223.661C181.335 230.181 180.654 236.711 180.129 243.173C179.68 248.123 179.487 253.093 179.552 258.063C179.581 259.154 179.651 260.21 179.754 261.288C179.853 262.701 180.028 264.107 180.279 265.5C180.406 266.127 180.495 266.761 180.545 267.398C180.545 267.606 180.602 267.877 180.591 268.015C180.591 268.252 180.326 268.015 179.91 267.352C179.355 266.308 178.955 265.188 178.722 264.029C178.257 261.774 178.025 259.477 178.029 257.175C177.983 254.867 178.058 252.56 178.179 250.211C178.427 245.556 178.86 240.86 179.287 236.163C179.927 229.188 180.579 222.19 181.018 215.198V215.192Z" fill="#3B2C7D"/>
<path d="M214.928 220.962C214.738 225.577 214.536 230.239 214.438 234.865C214.392 237.173 214.369 239.481 214.438 241.789C214.5 244.052 214.82 246.301 215.39 248.492C215.794 250.102 216.319 251.712 216.786 253.362C217.253 255.012 217.657 256.685 217.992 258.358C218.652 261.345 218.93 264.404 218.817 267.462C218.743 269.048 218.395 270.609 217.79 272.077C217.145 273.603 216.024 274.88 214.594 275.717C213.877 276.103 213.113 276.392 212.321 276.577C211.54 276.749 210.743 276.831 209.944 276.819C208.4 276.776 206.866 276.552 205.375 276.15C202.468 275.346 199.619 274.346 196.848 273.156C195.619 272.66 194.413 272.152 193.167 271.777C191.935 271.387 190.667 271.12 189.382 270.981C188.119 270.842 186.842 270.888 185.592 271.119C184.979 271.255 184.38 271.449 183.803 271.696C183.515 271.808 183.235 271.941 182.967 272.094C182.71 272.217 182.469 272.372 182.251 272.556C182.022 272.756 181.878 273.036 181.85 273.339C181.822 273.642 181.912 273.944 182.101 274.183C182.518 274.839 183.052 275.412 183.676 275.873C184.989 276.861 186.427 277.672 187.951 278.285C189.483 278.923 191.068 279.425 192.688 279.785C194.302 280.161 195.952 280.354 197.609 280.362C198.636 280.362 199.086 280.362 199.075 280.465C199.063 280.569 198.567 280.777 197.667 280.939C194.616 281.426 191.491 281.13 188.586 280.079C186.882 279.503 185.252 278.728 183.728 277.771C182.929 277.268 182.193 276.672 181.536 275.994C181.176 275.606 180.873 275.169 180.636 274.696C180.333 274.111 180.239 273.439 180.371 272.792C180.538 272.128 180.94 271.546 181.501 271.154L181.853 270.906L182.165 270.733C182.378 270.623 182.58 270.496 182.8 270.404C183.662 270.003 184.574 269.716 185.511 269.55C187.339 269.249 189.206 269.284 191.021 269.654C192.783 269.999 194.505 270.523 196.161 271.217C197.776 271.869 199.357 272.527 200.961 273.133C202.548 273.744 204.168 274.268 205.813 274.702C207.4 275.152 209.045 275.36 210.694 275.319C211.653 275.263 212.593 275.024 213.463 274.615C214.314 274.22 215.057 273.626 215.632 272.885C216.786 271.367 217.248 269.331 217.363 267.294C217.438 265.21 217.295 263.124 216.936 261.069C216.601 258.992 216.14 256.91 215.621 254.885C215.044 252.646 214.294 250.431 213.746 248.1C213.471 246.936 213.263 245.757 213.123 244.569C212.978 243.381 212.932 242.187 212.892 241.01C212.8 236.29 212.978 231.612 213.14 226.933C213.378 221.164 213.617 215.408 213.855 209.665C214.196 200.954 214.507 192.196 214.507 183.548C214.507 180.19 214.444 176.858 214.317 173.55C214.184 170.239 214 166.939 213.671 163.644C213.619 162.917 213.515 162.208 213.434 161.492C213.353 160.777 213.273 160.056 213.169 159.329C212.448 153.952 211.98 152.308 211.813 151.125C211.773 150.854 211.703 150.508 211.692 150.34C211.605 149.764 212.846 151.748 213.844 155.717C214.514 158.682 214.981 161.689 215.24 164.717C215.532 167.771 215.734 170.848 215.846 173.948C216.105 180.167 216.094 186.467 215.973 192.773C215.794 202.137 215.396 211.529 215.003 220.898L214.928 220.962Z" fill="#3B2C7D"/>
<path d="M240.389 278.273C239.327 278.146 238.265 278.1 237.221 277.875C236.172 277.719 235.132 277.505 234.106 277.234C233.725 277.142 233.35 277.056 232.952 276.975C232.573 276.902 232.2 276.798 231.839 276.663C230.541 276.247 229.272 275.75 228.037 275.175C227.419 274.886 226.79 274.633 226.19 274.315L224.425 273.317C223.352 272.775 222.371 272.059 221.356 271.442L220.387 270.819L219.487 270.109C218.91 269.631 218.333 269.129 217.756 268.598C217.415 268.263 217.658 268.084 218.165 268.102C218.874 268.149 219.555 268.393 220.133 268.806C220.729 269.265 221.354 269.687 222.002 270.069C222.642 270.467 223.265 270.888 223.889 271.304C224.512 271.719 225.198 272.048 225.844 272.458L226.825 273.034C227.154 273.236 227.506 273.369 227.846 273.548C228.187 273.727 228.671 273.934 229.092 274.125C229.514 274.322 229.95 274.487 230.396 274.621C231.29 274.886 232.179 275.198 233.079 275.434L234.573 275.798C235.069 275.933 235.572 276.043 236.079 276.127L237.596 276.386C237.85 276.427 238.104 276.479 238.358 276.508L239.125 276.583C239.754 276.64 240.389 276.709 241.017 276.756L242.921 276.808C243.885 276.836 244.848 276.767 245.806 276.744C246.764 276.721 247.727 276.6 248.69 276.438C249.423 276.329 250.15 276.208 250.865 276.029L251.939 275.781L253 275.504L253.935 275.261C255.089 275.008 255.544 275.071 255.867 275.261C255.945 275.3 256.018 275.346 256.087 275.4C256.254 275.567 255.827 275.896 255.002 276.306C253.726 276.849 252.404 277.274 251.05 277.575C249.66 277.922 248.244 278.154 246.815 278.267C245.754 278.4 244.675 278.383 243.602 278.434C243.065 278.434 242.529 278.434 241.992 278.4C241.456 278.365 240.914 278.4 240.383 278.325L240.389 278.273Z" fill="#3B2C7D"/>
<path d="M243.416 150C243.4 157.248 243.801 164.491 244.616 171.692C244.916 174.329 245.32 176.931 245.712 179.556C247.068 188.787 248.597 198.052 249.97 207.312C250.587 211.425 251.216 215.556 251.758 219.646C252.104 222.254 252.618 224.839 253.033 227.481C253.508 230.111 253.731 232.781 253.697 235.454C253.61 237.121 253.449 236.873 253.247 235.483C253.045 234.092 252.572 231.554 252.064 228.612C251.626 225.964 251.066 223.315 250.651 220.615L249.456 212.59C248.633 207.244 247.808 201.881 246.981 196.5C246.001 190.056 244.772 183.381 243.774 176.769C242.688 169.488 242.05 162.148 241.864 154.789C241.749 150.258 241.791 145.731 241.991 141.208C242.303 134.36 243.001 127.517 243.439 120.756C243.795 115.572 243.888 110.373 243.716 105.179C243.687 104.025 243.601 102.929 243.531 101.781C243.485 100.719 243.399 99.8366 243.358 99.1039C243.318 98.3712 243.312 97.7654 243.289 97.2693C243.235 96.577 243.309 95.8806 243.508 95.2154C243.57 94.9961 243.649 94.782 243.745 94.5751C243.895 94.3443 244.091 94.6558 244.322 95.4174C244.644 96.5812 244.868 97.7699 244.991 98.9712C245.506 103.761 245.673 108.581 245.493 113.394C245.343 118.281 244.962 123.202 244.576 128.123C243.999 135.433 243.422 142.725 243.474 150.046L243.416 150Z" fill="#3B2C7D"/>
<path d="M127.772 148.552C127.803 148.419 127.803 148.281 127.772 148.148C127.772 148.085 127.72 148.038 127.714 147.975C127.686 147.75 127.663 147.502 127.611 147.26C127.587 147.156 127.54 147.059 127.472 146.977C127.391 146.861 127.259 146.769 127.328 146.59C127.397 146.411 128.545 146.106 128.614 146.227C128.756 146.471 128.809 146.756 128.764 147.035C128.764 147.231 128.868 147.363 128.914 147.542C128.97 147.752 129.009 147.966 129.03 148.183C129.041 148.33 129.041 148.479 129.03 148.627C129 148.855 128.94 149.078 128.851 149.29C128.776 149.44 128.793 149.636 128.695 149.758C128.679 149.788 128.659 149.817 128.638 149.844C128.534 149.925 128.441 149.902 128.234 149.758L128.095 149.66C127.969 149.566 127.869 149.441 127.807 149.296C127.718 149.116 127.671 148.919 127.668 148.719C127.668 148.679 127.714 148.656 127.726 148.563L127.772 148.552Z" fill="#3B2C7D"/>
<path d="M182.585 44.2672L182.446 50.7692C182.446 51.5595 182.446 52.3557 182.446 53.1461C182.377 55.9384 182.279 58.7249 182.285 61.5115C182.285 62.7518 182.354 63.9922 182.417 65.2095C182.469 65.9942 182.515 66.7788 182.59 67.5576C182.625 67.9442 182.654 68.3365 182.671 68.7115C182.688 69.0865 182.74 69.4788 182.758 69.8653C182.758 70.3499 182.469 70.3557 182.1 69.9922C181.574 69.4364 181.241 68.7267 181.148 67.9672C180.74 64.7264 180.634 61.4546 180.831 58.1942C180.917 56.2442 180.831 54.2192 180.831 52.2288L180.917 45.6634C180.917 44.3192 180.952 42.9692 180.946 41.6249C180.946 39.5884 180.946 37.5403 180.865 35.5268C180.796 33.9576 180.635 32.423 180.473 30.9115C180.438 30.5768 180.392 30.2422 180.369 29.9018C180.248 28.6442 180.312 28.2403 180.652 27.9172C180.723 27.8383 180.803 27.7668 180.888 27.7038C181.154 27.5422 181.465 28.0326 181.667 28.9672C181.985 30.3758 182.209 31.8039 182.337 33.2422C182.498 34.7018 182.55 36.1788 182.585 37.6557C182.631 39.8538 182.619 42.0576 182.613 44.2499L182.585 44.2672Z" fill="#3B2C7D"/>
<path d="M150.063 99.7443C149.486 97.2751 145.171 96.7905 143.175 96.8597C142.252 96.8885 142.246 98.3308 143.175 98.302C144.288 98.2604 145.399 98.4067 146.463 98.7347C147.144 98.9424 148.488 99.3116 148.673 100.125C148.886 101.031 150.277 100.644 150.063 99.7443Z" fill="#3B2C7D"/>
<path d="M148.48 100.869C148.284 102.156 146.749 103.35 145.434 102.929C140.991 101.538 149.247 95.8499 148.48 100.869Z" fill="#3B2C7D"/>
<path d="M159.521 103.609C159.469 100.552 156.146 100.725 153.925 100.407C153.013 100.275 152.621 101.665 153.538 101.798C154.883 101.982 158.044 101.671 158.079 103.609C158.079 103.801 158.155 103.984 158.29 104.119C158.425 104.254 158.609 104.33 158.8 104.33C158.991 104.33 159.175 104.254 159.31 104.119C159.445 103.984 159.521 103.801 159.521 103.609Z" fill="#3B2C7D"/>
<path d="M157.791 104.423C157.56 105.704 156.447 106.546 155.2 105.929C151.618 104.158 158.806 98.8384 157.791 104.423Z" fill="#3B2C7D"/>
<path d="M153.164 90.0862C151.86 86.1285 147.395 86.0189 144.118 87.5074C143.103 87.9632 143.985 89.4574 144.989 89.0016C147.187 88.0035 150.58 87.7728 151.491 90.5478C151.837 91.5978 153.51 91.1247 153.164 90.0862Z" fill="#3B2C7D"/>
<path d="M158.59 93.9808C158.961 93.7533 159.382 93.6202 159.816 93.593C160.251 93.5659 160.685 93.6455 161.082 93.8251C162.126 94.2174 162.576 92.5443 161.543 92.152C160.924 91.9061 160.255 91.8083 159.591 91.8664C158.927 91.9245 158.286 92.1369 157.718 92.4866C156.79 93.0924 157.655 94.5924 158.59 93.9808Z" fill="#3B2C7D"/>
<path d="M151.454 110.567C151.391 111.383 151.196 112.184 150.877 112.938L150.663 113.377C150.582 113.527 150.485 113.668 150.375 113.798C150.277 113.921 150.163 114.03 150.035 114.121C149.918 114.225 149.791 114.316 149.654 114.392C149.39 114.536 149.106 114.639 148.812 114.698C148.227 114.806 147.623 114.734 147.081 114.49C146.666 114.322 146.261 114.129 145.869 113.913C145.401 113.663 144.967 113.355 144.577 112.996C144.467 112.875 144.606 112.656 144.86 112.488C144.993 112.393 145.146 112.331 145.307 112.307C145.469 112.283 145.634 112.298 145.788 112.35C146.81 112.806 147.519 113.4 148.24 113.452C148.472 113.463 148.701 113.394 148.887 113.256C148.996 113.192 149.054 113.106 149.152 113.042C149.25 112.979 149.296 112.852 149.383 112.759C149.731 112.213 149.953 111.596 150.035 110.954C150.103 110.526 150.146 110.094 150.162 109.661C150.189 108.99 150.168 108.317 150.098 107.648C150.018 107.136 149.908 106.63 149.769 106.131C149.74 106.019 149.719 105.905 149.706 105.79C149.697 105.7 149.697 105.609 149.706 105.519C149.719 105.45 149.744 105.383 149.781 105.323C149.841 105.22 149.929 105.136 150.035 105.081C150.082 105.049 150.132 105.022 150.185 105C150.335 104.936 150.531 105.086 150.762 105.369C150.985 105.81 151.144 106.28 151.235 106.765C151.337 107.259 151.412 107.758 151.46 108.259C151.526 109.027 151.536 109.798 151.488 110.567H151.454Z" fill="#3B2C7D"/>
<path d="M139.205 117.444C138.819 117.623 138.51 117.935 138.334 118.322C138.159 118.71 138.128 119.147 138.247 119.556C138.309 119.754 138.409 119.937 138.543 120.096C138.677 120.254 138.842 120.383 139.028 120.476C139.213 120.569 139.415 120.623 139.622 120.635C139.829 120.648 140.037 120.618 140.232 120.548C140.654 120.405 141.024 120.138 141.293 119.782C141.561 119.426 141.716 118.997 141.738 118.552C141.719 118.186 141.566 117.84 141.309 117.579C141.051 117.319 140.707 117.162 140.342 117.138C139.361 117.069 138.721 117.929 138.513 118.788C138.305 119.648 139.667 120.075 139.903 119.175C139.903 119.077 139.955 118.979 139.984 118.881C140.019 118.794 140.013 118.782 139.984 118.881L140.042 118.771C140.042 118.736 140.082 118.702 140.105 118.673C140.047 118.742 140.042 118.748 140.105 118.673L140.215 118.569C140.076 118.702 140.215 118.569 140.261 118.569C140.215 118.604 140.105 118.673 140.261 118.569C140.146 118.569 140.099 118.638 140.261 118.569C140.376 118.569 140.105 118.534 140.261 118.569C140.417 118.604 140.151 118.517 140.261 118.569C140.434 118.707 140.371 118.621 140.261 118.569L140.342 118.65C140.284 118.586 140.203 118.523 140.342 118.65C140.301 118.586 140.238 118.482 140.342 118.65C140.342 118.557 140.278 118.465 140.342 118.65C140.342 118.742 140.342 118.679 140.342 118.569C140.344 118.6 140.344 118.631 140.342 118.661C140.343 118.692 140.343 118.723 140.342 118.754C140.382 118.65 140.382 118.661 140.342 118.754C140.301 118.857 140.18 118.973 140.284 118.852L140.146 119.002C140.098 119.053 140.043 119.097 139.984 119.134C139.984 119.134 139.707 119.273 139.863 119.204H139.753C139.857 119.204 139.869 119.204 139.788 119.204C139.707 119.204 139.609 119.152 139.788 119.204C139.592 119.14 139.851 119.256 139.742 119.204C139.632 119.152 139.834 119.319 139.713 119.175C139.811 119.279 139.592 119.031 139.713 119.175C139.695 119.149 139.68 119.122 139.667 119.094C139.707 119.192 139.713 119.209 139.667 119.134C139.664 119.104 139.664 119.073 139.667 119.042C139.667 119.152 139.667 119.169 139.667 119.088C139.667 118.898 139.621 119.14 139.667 119.036C139.713 118.932 139.696 118.938 139.713 118.892C139.626 119.117 139.828 118.759 139.713 118.927C139.713 118.927 139.909 118.742 139.788 118.834C139.863 118.781 139.942 118.735 140.024 118.696C140.178 118.584 140.282 118.416 140.313 118.228C140.344 118.04 140.301 117.848 140.192 117.692C140.092 117.53 139.934 117.413 139.75 117.365C139.567 117.316 139.371 117.34 139.205 117.432V117.444Z" fill="#3B2C7D"/>
<path d="M195.001 84.069C195.001 84.2767 194.73 84.2421 194.292 84.069C194.097 83.9691 193.926 83.8296 193.79 83.6594C193.747 83.5223 193.718 83.3812 193.703 83.2382C193.703 83.1632 194.095 82.3151 194.217 82.0151C194.341 81.7372 194.502 81.4772 194.695 81.2421L195.815 79.794C195.897 79.6846 195.999 79.5908 196.115 79.5171C196.494 79.2454 196.818 78.9025 197.067 78.5074C197.123 78.4481 197.156 78.3701 197.159 78.2882C197.385 77.8307 197.685 77.4136 198.047 77.0536C198.405 76.8228 198.711 76.5574 199.04 76.3036C199.086 76.269 199.103 76.2055 199.201 76.2113C199.432 76.2113 199.478 76.119 199.565 76.0267C199.684 75.8967 199.82 75.7824 199.969 75.6863C200.076 75.6415 200.192 75.6198 200.309 75.6228C200.419 75.6228 200.626 75.819 200.638 75.8594C200.649 75.8998 200.811 76.0094 200.915 76.0728C200.951 76.095 200.986 76.1201 201.019 76.1478C201.007 76.5693 200.935 76.987 200.805 77.3882L200.401 78.0574C200.194 78.3921 199.98 78.744 199.945 78.8248C199.894 78.8985 199.824 78.958 199.744 78.9978C199.709 78.9978 199.109 80.0421 199.074 80.0767C198.907 80.2555 198.809 80.4921 198.497 80.5671C198.44 80.5671 198.417 80.6305 198.388 80.6709C198.135 80.9992 197.853 81.3042 197.545 81.5824C197.405 81.7402 197.274 81.9058 197.153 82.0786C197.153 82.1074 197.084 82.119 197.049 82.1421C197.007 82.166 196.969 82.195 196.934 82.2286C196.603 82.5938 196.294 82.9791 196.011 83.3824C195.953 83.4863 195.434 83.7863 195.394 83.9074C195.353 84.0286 195.001 83.9882 195.001 84.069Z" fill="#3B2C7D"/>
<path d="M199.421 91.7308C199.265 91.8173 199.167 91.6039 199.098 91.2C199.083 91.014 199.108 90.827 199.173 90.6519C199.26 90.5612 199.354 90.4782 199.456 90.4038C199.513 90.3635 200.373 90.2827 200.667 90.2423C200.946 90.2141 201.227 90.2238 201.504 90.2712C202.081 90.3519 202.617 90.4212 203.165 90.5135C203.288 90.5327 203.407 90.5717 203.517 90.6288C203.899 90.8112 204.312 90.9208 204.734 90.9519C204.805 90.9796 204.883 90.9796 204.954 90.9519C205.419 90.94 205.883 91.0144 206.321 91.1712C206.65 91.3673 206.99 91.5115 207.325 91.6731C207.371 91.6731 207.429 91.6731 207.463 91.7654C207.538 91.9558 207.654 91.95 207.763 91.9788C207.917 92.022 208.064 92.084 208.202 92.1635C208.281 92.2306 208.346 92.313 208.392 92.4058C208.45 92.4865 208.392 92.7404 208.346 92.7635C208.3 92.7865 208.3 92.9654 208.294 93.075C208.288 93.1846 208.294 93.1615 208.294 93.1904C207.948 93.3556 207.581 93.474 207.204 93.5423L206.488 93.4962C206.136 93.4962 205.761 93.45 205.686 93.4558C205.605 93.4437 205.528 93.412 205.461 93.3635C205.421 93.3635 204.359 93.2942 204.308 93.2712C204.094 93.2077 203.869 93.2308 203.69 93.0289C203.674 93.0135 203.655 93.0015 203.634 92.9936C203.614 92.9856 203.591 92.9819 203.569 92.9827C203.202 92.9131 202.842 92.8147 202.49 92.6885C202.301 92.6393 202.108 92.6027 201.913 92.5789C201.881 92.5631 201.85 92.5437 201.821 92.5212C201.783 92.4993 201.742 92.4819 201.7 92.4692C201.27 92.3602 200.832 92.285 200.39 92.2442C200.286 92.2442 199.813 91.9904 199.709 91.9962C199.606 92.0019 199.484 91.7308 199.421 91.7308Z" fill="#3B2C7D"/>
<path d="M239.644 64.0381C239.746 63.9231 239.822 63.787 239.865 63.6395C239.909 63.4919 239.92 63.3365 239.897 63.1843C239.847 62.7168 239.72 62.2608 239.522 61.8343C239.441 61.6622 239.351 61.4946 239.251 61.3324C239.152 61.2037 239.062 61.0688 238.98 60.9285C238.626 60.4465 238.135 60.0821 237.572 59.8825C237.008 59.6829 236.397 59.6574 235.819 59.8093C235.274 59.9375 234.794 60.2594 234.469 60.7151C234.09 61.3161 233.89 62.0124 233.892 62.7228C233.857 62.9593 233.563 62.9939 233.245 62.7978C233.058 62.6743 232.901 62.5082 232.79 62.3131C232.665 62.0613 232.615 61.779 232.645 61.4997C232.727 60.9509 232.927 60.4265 233.231 59.9631C233.536 59.4997 233.939 59.1086 234.411 58.817C235.326 58.2329 236.433 58.0261 237.497 58.2401C238.772 58.4805 239.899 59.2172 240.63 60.2881C240.974 60.8286 241.249 61.4101 241.449 62.0189C241.693 62.6935 241.745 63.4224 241.599 64.1247C241.34 64.9796 240.753 65.6973 239.967 66.1208C238.951 66.7439 237.907 67.0612 237.007 67.5689C236.356 67.9222 235.8 68.4268 235.386 69.0401C235.311 69.1612 235.259 69.2881 235.178 69.3978C235.123 69.4887 235.061 69.5754 234.994 69.6574C234.926 69.7176 234.848 69.7646 234.763 69.7958C234.582 69.8768 234.384 69.9143 234.186 69.9054C234.084 69.911 233.982 69.911 233.88 69.9054C233.798 69.9015 233.719 69.8753 233.651 69.8295C233.583 69.7838 233.528 69.7202 233.494 69.6458C233.364 69.406 233.313 69.1314 233.349 68.8612C233.579 67.9196 234.151 67.0971 234.953 66.5535C235.647 66.0649 236.394 65.6566 237.18 65.3362C237.711 65.1054 238.224 64.8978 238.657 64.6785C239.015 64.5226 239.335 64.2925 239.597 64.0035L239.644 64.0381Z" fill="#3B2C7D"/>
<path d="M233.763 73.298C233.819 73.672 233.748 74.054 233.561 74.3826C233.413 74.6308 233.217 74.8467 232.984 75.0173C232.857 75.1334 232.717 75.2359 232.569 75.323C232.436 75.3923 232.303 75.4326 232.176 75.4846L231.946 75.5826H231.859C231.589 75.5501 231.327 75.4679 231.086 75.3403C230.906 75.2405 230.76 75.09 230.665 74.9076C230.622 74.8082 230.593 74.7034 230.578 74.5961C230.572 74.5058 230.572 74.4152 230.578 74.325C230.649 74.0451 230.76 73.7769 230.907 73.5288C231.063 73.2576 231.207 72.9519 231.536 72.8653C231.64 72.8653 231.853 73.1192 232.032 73.4423C232.211 73.7653 232.372 74.0538 232.309 74.1403C232.246 74.2269 232.067 74.4576 232.003 74.5211C231.94 74.5846 232.038 74.5557 231.83 74.5211H231.628C231.582 74.5174 231.536 74.5174 231.49 74.5211H231.432C231.507 74.4634 231.524 74.4057 231.611 74.2384C231.611 74.2096 231.611 74.273 231.669 74.2788H231.824L231.513 74.3538C231.634 74.2903 231.744 74.2096 231.853 74.1461C232.035 74.0586 232.188 73.9229 232.297 73.7538C232.314 73.7147 232.32 73.6715 232.313 73.6295C232.305 73.5875 232.286 73.5485 232.257 73.5173C232.208 73.4498 232.142 73.3962 232.067 73.3615C231.986 73.3615 231.986 73.3615 231.974 73.3038C231.963 73.2461 232.021 73.35 232.044 73.3615L232.078 73.4134L232.188 73.6096C232.188 73.6442 232.24 73.6788 232.257 73.7192C232.286 73.8634 232.159 73.9673 231.824 74.1173L231.588 74.2269C231.475 74.2838 231.349 74.309 231.223 74.2998C231.097 74.2907 230.976 74.2475 230.872 74.175C230.731 74.0304 230.625 73.8554 230.562 73.6634C230.499 73.4713 230.481 73.2674 230.509 73.0673C230.528 72.883 230.584 72.7044 230.673 72.542C230.763 72.3795 230.883 72.2365 231.028 72.1211C231.343 71.8735 231.743 71.7595 232.142 71.8038C232.551 71.8541 232.931 72.0411 233.221 72.3346C233.499 72.611 233.688 72.9648 233.763 73.35V73.298Z" fill="#3B2C7D"/>
<path d="M169.326 41.9478C169.585 41.8148 169.804 41.6158 169.961 41.3709C170.134 41.0662 170.241 40.7278 170.272 40.3786C170.287 40.2367 170.287 40.0936 170.272 39.9517C170.281 39.8114 170.281 39.6708 170.272 39.5305C170.269 39.0479 170.151 38.5731 169.926 38.1459C169.706 37.7215 169.351 37.3825 168.916 37.1824C168.504 37.0128 168.05 36.9686 167.613 37.0555C167.037 37.2169 166.481 37.4434 165.957 37.7305C165.778 37.7997 165.622 37.5747 165.605 37.2517C165.593 37.0518 165.637 36.8526 165.73 36.6757C165.824 36.4987 165.964 36.3507 166.136 36.2478C166.868 35.8338 167.71 35.6545 168.547 35.7344C168.985 35.7829 169.408 35.9212 169.791 36.1406C170.173 36.3599 170.506 36.6557 170.768 37.0094C171.376 37.8051 171.726 38.7671 171.772 39.7671C171.798 40.2934 171.744 40.8206 171.611 41.3305C171.464 41.8863 171.173 42.3937 170.768 42.8017C170.284 43.2675 169.688 43.6012 169.038 43.7709C168.143 44.0478 167.266 44.1113 166.482 44.3478C165.928 44.484 165.424 44.774 165.028 45.1844C164.953 45.2594 164.918 45.3574 164.855 45.4267C164.647 45.7036 164.503 45.7555 164.041 45.692C163.938 45.692 163.84 45.6921 163.747 45.6632C163.67 45.6517 163.596 45.6208 163.534 45.5734C163.471 45.526 163.422 45.4636 163.39 45.3921C163.344 45.2894 163.32 45.1784 163.32 45.0661C163.32 44.9538 163.344 44.8427 163.39 44.7401C163.536 44.3463 163.775 43.9939 164.088 43.7132C164.383 43.4469 164.718 43.2271 165.08 43.0613C165.707 42.7833 166.369 42.5893 167.047 42.4844C167.823 42.412 168.582 42.2173 169.297 41.9074L169.326 41.9478Z" fill="#3B2C7D"/>
<path d="M161.537 48.8595C161.601 48.8595 161.664 48.7384 161.636 48.5711C161.605 48.5327 161.572 48.4962 161.537 48.4615L162.316 48.8076H162.264C162.042 48.7616 161.811 48.7899 161.607 48.8884C161.577 48.9177 161.555 48.9546 161.544 48.9952C161.533 49.0357 161.532 49.0785 161.543 49.1192C161.543 49.2461 161.676 49.3499 161.584 49.5518C161.369 49.6833 161.125 49.7605 160.874 49.7768C160.528 49.8288 160.159 49.7768 160.112 49.5922C160.021 49.2204 160.056 48.8289 160.211 48.4788C160.291 48.2911 160.41 48.1225 160.56 47.9843C160.71 47.8461 160.888 47.7413 161.082 47.6768C161.403 47.554 161.733 47.4538 162.068 47.3768L162.582 47.3076L162.761 47.6884L162.789 47.7403C162.982 48.1132 163.056 48.5357 163.003 48.9518C162.968 49.2345 162.851 49.501 162.668 49.7192C162.516 49.9124 162.302 50.0486 162.062 50.1057C161.919 50.1373 161.771 50.1339 161.629 50.0957C161.487 50.0575 161.357 49.9858 161.249 49.8865C161.113 49.7618 160.998 49.6156 160.909 49.4538C160.825 49.32 160.763 49.174 160.724 49.0211C160.697 48.9647 160.68 48.9043 160.672 48.8422C160.672 48.623 160.816 48.5595 161.186 48.5595H161.439C161.671 48.5736 161.895 48.645 162.091 48.7672C162.14 48.8335 162.201 48.8902 162.27 48.9345L162.339 48.9807H162.293C162.239 48.9989 162.187 49.0221 162.138 49.0499L162.034 49.0903C161.999 49.1051 161.966 49.1245 161.936 49.148C161.907 49.1826 161.884 49.2057 161.872 49.2057C161.861 49.2057 161.809 49.3095 161.814 49.2576C161.801 49.1493 161.75 49.0491 161.67 48.9749C161.603 48.9176 161.524 48.8745 161.439 48.848L161.537 48.8595Z" fill="#3B2C7D"/>
<path d="M113.168 125.308C112.978 123.819 112.77 122.337 112.528 120.854L112.239 119.239C111.939 117.329 111.622 115.419 111.241 113.521C111.08 112.679 110.878 111.842 110.664 111.012C110.405 109.95 110.088 108.894 109.938 107.804C109.834 107.129 110.791 107.804 111.126 109.004C111.703 111.173 112.211 113.354 112.58 115.587C112.805 116.925 113.157 118.292 113.399 119.654C113.682 121.148 113.895 122.654 114.109 124.165C114.236 125.094 114.351 126.023 114.461 126.952C114.634 128.365 114.755 129.785 114.899 131.187C115.014 132.277 115.141 133.344 115.228 134.423C115.228 134.66 115.28 134.896 115.286 135.133C115.32 136.027 115.286 136.315 115.026 136.512C114.978 136.562 114.923 136.607 114.864 136.644C114.686 136.731 114.513 136.373 114.414 135.733C114.132 133.823 113.872 131.821 113.676 129.808C113.514 128.314 113.341 126.808 113.128 125.314L113.168 125.308Z" fill="#3B2C7D"/>
<path d="M122.804 201.236L122.994 197.844L123.029 196.604C123.116 195.15 123.208 193.719 123.294 192.248C123.329 191.602 123.329 190.955 123.329 190.315C123.298 189.492 123.314 188.667 123.375 187.846C123.433 187.332 124.189 187.984 124.217 188.936C124.262 190.624 124.218 192.313 124.085 193.996C124.01 195.005 124.021 196.061 123.981 197.1L123.819 200.521L123.727 202.621C123.681 203.682 123.618 204.75 123.6 205.8C123.6 206.619 123.6 207.427 123.646 208.234V208.765C123.646 209.434 123.566 209.648 123.381 209.786C123.34 209.823 123.295 209.855 123.248 209.884C123.11 209.948 122.989 209.671 122.925 209.186C122.765 207.684 122.69 206.174 122.7 204.663C122.7 203.509 122.7 202.355 122.764 201.236H122.804Z" fill="#3B2C7D"/>
<path d="M192.203 177.733C192.203 175.673 192.203 173.613 192.151 171.554C192.151 170.804 192.07 170.054 192.041 169.304C191.983 167.994 191.897 166.65 191.885 165.311V161.325C191.885 160.171 191.822 158.971 191.718 157.811C191.583 156.332 191.33 154.866 190.962 153.427C190.847 152.977 190.991 152.988 191.245 153.323C191.64 153.888 191.915 154.528 192.053 155.204C192.722 158.273 192.745 161.388 192.768 164.463C192.768 165.386 192.768 166.321 192.872 167.256C192.976 168.19 193.033 169.159 193.079 170.106C193.195 172.188 193.247 174.277 193.27 176.359C193.27 177.646 193.27 178.927 193.27 180.208C193.27 182.152 193.229 184.102 193.206 186.023C193.206 187.523 193.281 188.988 193.264 190.465V191.44C193.264 192.658 193.178 193.044 192.976 193.304C192.937 193.367 192.89 193.425 192.837 193.477C192.687 193.592 192.554 193.096 192.479 192.208C192.226 189.559 192.208 186.767 192.191 183.975L192.156 177.733H192.203Z" fill="#3B2C7D"/>
<path d="M236.627 129.462C236.789 128.487 236.939 127.512 237.071 126.537C237.123 126.179 237.141 125.821 237.187 125.464C237.354 124.212 237.527 122.954 237.654 121.69C237.712 121.114 237.735 120.571 237.752 120.012C237.746 119.293 237.776 118.575 237.845 117.86C237.896 117.415 238.502 117.981 238.537 118.817C238.576 120.3 238.503 121.783 238.318 123.254C238.202 124.137 238.156 125.06 238.058 125.965C237.948 126.958 237.816 127.944 237.677 128.937L237.418 130.76C237.291 131.677 237.129 132.6 237.02 133.512C236.933 134.221 236.904 134.931 236.846 135.635C236.846 135.79 236.846 135.946 236.812 136.102C236.748 136.679 236.656 136.852 236.396 136.944C236.339 136.97 236.279 136.99 236.218 137.002C236.021 137.037 235.895 136.777 235.895 136.344C235.908 135.03 236.007 133.717 236.189 132.415C236.304 131.429 236.46 130.442 236.604 129.456L236.627 129.462Z" fill="#3B2C7D"/>
</svg>
