<svg width="300" height="300" viewBox="0 0 300 300" fill="none" xmlns="http://www.w3.org/2000/svg">
<g opacity="0.3">
<path d="M53.7173 77.308C47.8847 87.3407 44.4231 98.8503 44.3885 110.47C44.4173 122.254 47.7729 133.791 54.0693 143.752C58.147 150.086 63.2925 155.665 69.277 160.241C71.94 162.27 74.7604 164.083 77.7116 165.664C80.6444 167.253 83.7004 168.604 86.85 169.702C94.927 172.546 103.46 173.695 111.958 173.741C114.606 173.741 114.34 174.554 112.067 175.408C111.395 175.67 110.702 175.876 109.996 176.025C109.194 176.193 108.265 176.354 107.267 176.481C106.269 176.608 105.162 176.62 103.99 176.637C102.819 176.654 101.59 176.516 100.31 176.377C91.2397 175.17 82.5018 172.165 74.6077 167.539C66.6988 162.92 59.8254 156.722 54.4154 149.331C47.9308 140.527 43.2693 129.808 41.9077 118.679L41.7577 117.525L41.6654 116.371L41.4866 114.064C41.452 112.529 41.3654 111 41.4289 109.448C41.4923 107.896 41.5673 106.391 41.677 104.833C41.7404 104.071 41.85 103.316 41.9308 102.554L42.075 101.4L42.2597 100.246C42.7374 97.2271 43.4256 94.2448 44.3193 91.3214C45.1929 88.3982 46.2547 85.5345 47.4981 82.7484C52.9219 70.7116 61.3543 60.2745 71.9827 52.4426C80.0823 46.5171 89.3108 42.3152 99.0981 40.0965C103.334 39.1483 107.653 38.6245 111.992 38.533C113.908 38.4984 115.789 38.533 117.721 38.6715C120.259 38.8304 122.773 39.2558 125.221 39.9407C126.357 40.2113 127.413 40.7471 128.302 41.5041C128.601 41.7434 128.876 42.012 129.121 42.3061C129.358 42.6984 128.752 42.8311 127.483 42.7388C126.213 42.6465 124.263 42.3753 121.765 42.0753C114.219 41.154 106.57 41.5444 99.1558 43.2291C91.5569 44.9676 84.3157 48.0066 77.752 52.2118C67.8721 58.5515 59.6623 67.1749 53.8154 77.3541L53.7173 77.308Z" fill="#3B2C7D"/>
</g>
<g opacity="0.3">
<path d="M72.052 88.1598C68.2194 94.9138 66.269 102.572 66.4039 110.337C66.5115 113.154 66.9078 115.954 67.5866 118.691C68.1493 121.116 68.9214 123.489 69.8943 125.781C72.9328 132.715 77.6641 138.776 83.6539 143.406C84.525 144.104 85.4597 144.727 86.3885 145.356C87.3174 145.985 88.2866 146.544 89.2731 147.087C91.2315 148.152 93.2774 149.047 95.3885 149.764C100.783 151.627 106.5 152.216 112.165 152.106C113.931 152.066 113.827 152.873 112.333 153.767C110.839 154.662 107.862 155.55 104.319 155.175C98.0789 154.477 92.0608 152.449 86.6712 149.227C81.2991 146.029 76.6303 141.776 72.9462 136.725C70.7183 133.677 68.8029 130.413 67.2289 126.981C65.6628 123.496 64.5462 119.826 63.9058 116.06C63.26 111.927 63.2076 107.723 63.75 103.575C64.2973 99.4472 65.3956 95.4112 67.0154 91.5751C72.0346 79.6641 81.3905 70.1041 93.1904 64.829C98.5812 62.357 104.387 60.9149 110.308 60.5771C111.612 60.5194 112.898 60.4905 114.214 60.5771C115.947 60.6362 117.666 60.9114 119.331 61.3963C120.134 61.5953 120.853 62.0437 121.385 62.6771C121.585 62.89 121.76 63.1263 121.904 63.3809C122.169 64.1367 120.214 64.0502 116.885 63.7559C106.611 62.9027 96.3504 65.5456 87.7674 71.2559C81.2588 75.5529 75.8882 81.3628 72.1154 88.1886L72.052 88.1598Z" fill="#3B2C7D"/>
</g>
<path d="M182.538 161.222C182.538 161.222 183.946 159.975 183.259 158.914C182.573 157.852 182.105 160.518 182.105 160.518L182.538 161.222Z" fill="#3B2C7D"/>
<path d="M193.443 135.577C187.98 134.216 184.172 128.516 184.172 128.516L191.943 133.419L193.443 135.577Z" fill="#3B2C7D"/>
<path d="M171.762 142.5C171.762 142.5 177.9 141.491 179.089 138.577L179.585 141.606L172.316 143.337L171.762 142.5Z" fill="#3B2C7D"/>
<path d="M177.426 153.075C177.426 153.075 181.707 153.075 183.807 150.6L182.814 149.908L177.426 153.075Z" fill="#3B2C7D"/>
<path d="M236.008 216.618C228.577 232.968 204.75 240.848 204.75 240.848C204.75 240.848 212.423 258.122 217.24 261.318C217.24 261.318 223.552 259.945 227.446 252.087C230.937 245.048 238.858 247.593 242.873 245.129C248.977 241.385 249.369 233.689 248.908 233.17C248.446 232.65 236.008 216.618 236.008 216.618Z" fill="#3B2C7D"/>
<path d="M210.786 137.47L215.401 139.056L217.091 139.593C219.07 140.268 221.043 140.948 223.028 141.589C223.911 141.871 224.805 142.12 225.693 142.35L229.08 143.187C229.241 143.227 229.276 143.296 229.282 143.4C229.272 143.478 229.242 143.551 229.196 143.614C229.149 143.676 229.088 143.726 229.016 143.758C228.498 144.028 227.897 144.094 227.332 143.943C224.978 143.346 222.659 142.617 220.386 141.762C219.018 141.248 217.559 140.845 216.145 140.377L211.495 138.802L208.611 137.827C207.163 137.343 205.726 136.835 204.272 136.379C203.153 136.021 202.034 135.727 200.915 135.41L200.176 135.202C199.259 134.92 198.993 134.758 198.884 134.423C198.855 134.351 198.834 134.275 198.82 134.198C198.82 133.962 199.224 133.916 199.911 134.077C201.947 134.55 204.036 135.231 206.13 135.889L210.791 137.441L210.786 137.47Z" fill="#3B2C7D"/>
<path d="M211.979 139.881C213.341 140.458 214.708 141.087 216.081 141.658L217.598 142.235C219.37 142.973 221.141 143.7 222.935 144.381C223.725 144.687 224.539 144.958 225.346 145.206C226.373 145.523 227.446 145.783 228.416 146.158C228.446 146.167 228.476 146.18 228.502 146.198L228.531 146.227C228.531 146.227 228.531 146.227 228.531 146.262C228.538 146.311 228.549 146.359 228.566 146.406C228.595 146.487 228.612 146.521 228.606 146.51C228.6 146.498 228.56 146.383 228.577 146.452C228.584 146.481 228.584 146.51 228.577 146.539C228.521 146.609 228.45 146.666 228.37 146.706C227.883 146.939 227.326 146.978 226.812 146.816C224.672 146.157 222.572 145.373 220.523 144.468C219.295 143.925 217.973 143.469 216.704 142.956C215.308 142.383 213.92 141.794 212.539 141.191L209.989 140.037L206.158 138.306C205.166 137.862 204.179 137.469 203.193 137.037L202.546 136.748C201.75 136.368 201.531 136.171 201.491 135.837C201.482 135.76 201.482 135.683 201.491 135.606C201.491 135.375 201.918 135.381 202.518 135.606C204.295 136.304 206.118 137.135 207.952 137.966C209.32 138.577 210.693 139.2 212.071 139.794L211.979 139.881Z" fill="#3B2C7D"/>
<path d="M252.74 153.075C252.74 153.075 249.619 141.929 238.744 141.214C238.744 141.214 232.501 141.554 228.578 144.998L252.74 153.075Z" fill="#3B2C7D"/>
<path d="M180.339 135.577C180.54 137.358 180.927 139.114 181.492 140.815C182.035 142.546 182.692 144.306 183.379 146.048C184.752 149.51 186.264 153.017 187.504 156.669C188.505 159.359 189.143 162.17 189.402 165.029C189.431 165.565 189.431 166.102 189.402 166.638C189.399 166.91 189.382 167.182 189.35 167.452L189.258 168.317C189.114 168.86 189.033 168.975 188.946 169.258L188.692 170.002C188.531 170.504 188.375 171.012 188.231 171.525C187.948 172.546 187.683 173.573 187.469 174.617C187.027 176.7 186.734 178.811 186.592 180.935C186.279 185.187 186.668 189.461 187.746 193.587C188.316 195.614 189.073 197.584 190.008 199.471C190.25 199.938 190.515 200.394 190.769 200.856L191.156 201.542L191.583 202.2C191.877 202.638 192.16 203.083 192.454 203.51L193.4 204.762C195.068 206.894 196.957 208.844 199.037 210.577C201.134 212.29 203.328 213.881 205.608 215.342C207.004 216.3 206.675 216.496 205.204 216.121C204.835 216.029 204.39 215.913 203.889 215.763C203.327 215.603 202.782 215.389 202.262 215.123C201.685 214.852 201.056 214.546 200.404 214.188C199.752 213.831 199.094 213.34 198.46 212.885C196.133 211.134 194.005 209.134 192.114 206.919C190.25 204.649 188.687 202.147 187.464 199.477C185.056 194.116 183.966 188.257 184.285 182.388C184.408 179.916 184.697 177.455 185.15 175.021C185.375 173.798 185.646 172.575 185.964 171.363C186.125 170.758 186.298 170.152 186.483 169.552C186.569 169.252 186.673 168.975 186.771 168.652L186.927 168.202L186.996 168C186.999 167.977 186.999 167.954 186.996 167.931L187.065 167.273C187.1 167.042 187.065 166.806 187.1 166.563C187.129 166.09 187.1 165.612 187.1 165.133C187.025 164.164 186.89 163.2 186.696 162.248C185.969 158.654 184.585 155.129 183.183 151.61C181.781 148.09 180.252 144.565 179.144 140.844C178.39 138.52 178.026 136.087 178.065 133.644C178.12 132.373 178.409 131.123 178.919 129.958C179.058 129.663 179.231 129.381 179.387 129.087C179.579 128.802 179.787 128.529 180.01 128.267C180.137 128.146 180.281 128.031 180.414 127.915C180.544 127.792 180.689 127.685 180.846 127.598L181.331 127.338C181.498 127.265 181.672 127.209 181.85 127.171C182.865 126.934 183.928 127.007 184.902 127.379C185.793 127.696 186.641 128.12 187.429 128.642C188.199 129.135 188.942 129.669 189.656 130.24C190.374 130.817 191.051 131.443 191.681 132.115C193.548 134.105 195.06 136.4 196.152 138.9C196.51 139.737 196.821 140.562 197.133 141.398C199.031 146.59 200.369 151.829 201.933 156.975C202.279 158.129 202.66 159.19 203.04 160.298C203.512 161.712 204.104 163.083 204.812 164.394C205.262 165.213 205.533 165.635 205.769 166.09C205.867 166.315 206.087 166.512 206.167 166.667C206.248 166.823 206.167 166.887 205.983 166.904C205.847 166.922 205.709 166.922 205.573 166.904C205.375 166.848 205.183 166.777 204.996 166.69C204.472 166.412 204.001 166.043 203.606 165.6C203.088 165.011 202.639 164.364 202.267 163.673C201.125 161.427 200.203 159.076 199.515 156.652C198.783 154.263 198.119 151.852 197.415 149.446C196.712 147.04 195.979 144.652 195.108 142.315C194.675 141.162 194.231 139.979 193.717 138.935C193.185 137.866 192.567 136.841 191.871 135.871C190.847 134.438 189.637 133.148 188.271 132.035C187.576 131.478 186.85 130.962 186.096 130.488C185.411 130.047 184.673 129.696 183.898 129.444C183.341 129.23 182.724 129.23 182.167 129.444C181.644 129.749 181.238 130.22 181.014 130.783C180.691 131.517 180.479 132.294 180.385 133.09C180.292 133.93 180.292 134.778 180.385 135.617L180.339 135.577Z" fill="#3B2C7D"/>
<path d="M219.808 130.137C222.838 134.201 225.646 138.426 228.22 142.794C229.512 144.969 230.758 147.173 231.935 149.417C232.512 150.571 233.089 151.685 233.631 152.85C233.897 153.427 234.162 154.004 234.398 154.662C234.529 155.01 234.637 155.367 234.722 155.729C234.802 156.092 234.837 156.427 234.895 156.779C235.046 158.667 235.071 160.564 234.97 162.456C234.9 164.308 234.779 166.148 234.618 167.977C234.041 174.427 233.32 180.831 232.777 187.24C232.506 190.442 232.287 193.65 232.2 196.846C232.154 198.444 232.137 200.042 232.2 201.629C232.232 203.198 232.389 204.763 232.668 206.308C232.731 206.642 232.823 206.965 232.898 207.294C232.973 207.623 233.112 207.912 233.216 208.223C233.487 208.858 233.793 209.51 234.081 210.156C234.693 211.431 235.327 212.7 236.02 213.94C237.391 216.414 238.888 218.818 240.502 221.14C242.568 224.112 244.829 226.956 247.143 229.76C249.456 232.563 251.902 235.258 254.129 238.154C255.548 239.931 255.173 239.885 253.552 238.731C252.75 238.154 251.591 237.369 250.298 236.296C248.85 235.046 247.5 233.686 246.26 232.229C243.783 229.387 241.457 226.418 239.291 223.333C237.107 220.231 235.13 216.99 233.372 213.629C232.95 212.769 232.518 211.927 232.12 211.062L231.543 209.758C231.445 209.533 231.347 209.331 231.254 209.094L230.977 208.327C230.798 207.813 230.712 207.323 230.585 206.821C230.458 206.319 230.406 205.835 230.343 205.344C230.222 204.369 230.147 203.406 230.095 202.46C229.984 198.662 230.094 194.862 230.423 191.077C230.775 186.571 231.197 181.996 231.612 177.404C232.027 172.812 232.448 168.173 232.714 163.644C232.783 162.398 232.835 161.146 232.841 159.912C232.874 158.717 232.798 157.522 232.616 156.34C232.616 156.202 232.552 156.092 232.523 155.971C232.496 155.839 232.455 155.709 232.402 155.585C232.298 155.308 232.189 155.008 232.068 154.748C231.825 154.171 231.566 153.594 231.295 153.063C230.758 151.944 230.187 150.831 229.593 149.729C227.216 145.315 224.614 140.994 221.822 136.817C220.091 134.25 218.302 131.735 216.358 129.352C215.401 128.163 214.378 127.028 213.295 125.954C212.314 124.903 211.138 124.052 209.833 123.45L209.504 123.375L209.354 123.329L209.129 123.254L208.927 123.185C208.685 123.094 208.436 123.02 208.183 122.965C207.647 122.821 207.07 122.706 206.498 122.585C205.345 122.36 204.191 122.152 203.037 121.95L196.068 120.796C193.76 120.41 191.412 120.029 189.093 119.596C187.939 119.383 186.785 119.152 185.631 118.881C185.054 118.742 184.431 118.563 183.9 118.413C183.359 118.271 182.81 118.157 182.256 118.073C181.413 117.938 180.557 117.903 179.706 117.969C178.925 118.007 178.169 118.252 177.514 118.679C177.231 118.887 177.001 119.158 176.841 119.47C176.681 119.783 176.595 120.128 176.591 120.479C176.54 121.231 176.717 121.981 177.098 122.631C177.872 123.975 179.297 125.002 180.779 125.815C182.312 126.63 183.921 127.289 185.585 127.783C187.059 128.231 188.555 128.601 190.068 128.89C192.906 129.467 194.798 129.617 196.114 129.767C197.033 129.845 197.944 130.002 198.837 130.235C199.131 130.333 199.523 130.379 199.72 130.465C199.916 130.552 199.87 130.644 199.668 130.783C199.311 130.997 198.921 131.149 198.514 131.233C196.841 131.593 195.121 131.681 193.42 131.492C190.08 131.212 186.786 130.527 183.612 129.45C181.951 128.9 180.357 128.166 178.858 127.263C178.063 126.781 177.318 126.218 176.637 125.585C175.899 124.878 175.299 124.041 174.866 123.115C174.405 122.086 174.264 120.943 174.462 119.833L174.531 119.412C174.572 119.267 174.629 119.123 174.681 118.979C174.775 118.682 174.911 118.401 175.085 118.142C175.239 117.867 175.434 117.616 175.662 117.398L176.008 117.069C176.125 116.972 176.248 116.884 176.377 116.804C177.293 116.219 178.34 115.87 179.423 115.788C180.385 115.708 181.353 115.737 182.308 115.875C183.23 115.992 184.141 116.185 185.031 116.452C185.758 116.66 186.554 116.844 187.339 117.029C188.966 117.363 190.633 117.64 192.295 117.929C197.262 118.771 202.247 119.469 207.295 120.456L208.264 120.669C208.593 120.744 208.939 120.842 209.279 120.929C209.464 120.987 209.735 121.096 209.948 121.183C209.989 121.183 209.781 121.131 209.747 121.125L210.093 121.206C210.51 121.305 210.915 121.452 211.298 121.644C211.645 121.829 211.968 122.019 212.285 122.221C212.602 122.423 212.862 122.637 213.15 122.85L213.947 123.513L214.691 124.2C216.546 126.038 218.262 128.01 219.825 130.102L219.808 130.137Z" fill="#3B2C7D"/>
<path d="M205.996 139.858C205.506 139.229 205.05 138.577 204.589 137.937C204.427 137.7 204.219 137.492 204.064 137.25C203.516 136.391 203.002 135.519 202.512 134.631C202.292 134.239 202.044 133.864 201.796 133.477C201.433 133.03 201.159 132.516 200.989 131.966C200.942 131.787 201.277 131.637 201.664 131.591C202.05 131.544 202.506 131.591 202.679 131.844C203.339 132.754 203.918 133.719 204.41 134.729C204.753 135.329 205.157 135.891 205.616 136.408C206.071 137.014 206.544 137.614 207.029 138.202C207.329 138.56 207.606 138.929 207.952 139.264C208.403 139.803 208.895 140.306 209.423 140.769C209.859 141.094 210.322 141.38 210.808 141.623C210.912 141.681 211.021 141.727 211.125 141.791C211.494 142.021 211.529 142.206 211.327 142.662C211.287 142.768 211.241 142.872 211.189 142.973C211.119 143.131 210.992 143.257 210.834 143.326C210.676 143.395 210.498 143.403 210.335 143.348C209.312 142.97 208.38 142.38 207.6 141.617C207.002 141.085 206.447 140.506 205.939 139.887L205.996 139.858Z" fill="#3B2C7D"/>
<path d="M212.215 148.385C212.318 148.947 212.448 149.503 212.608 150.052C212.66 150.254 212.769 150.433 212.827 150.629C213.026 151.343 213.272 152.043 213.565 152.723C213.705 153.019 213.869 153.303 214.056 153.571C214.331 153.892 214.548 154.26 214.696 154.656C214.725 154.794 214.448 154.979 214.119 155.083C213.79 155.187 213.369 155.21 213.196 155.014C212.886 154.662 212.619 154.274 212.4 153.86C212.192 153.443 212.028 153.006 211.91 152.556C211.724 152.028 211.51 151.51 211.269 151.004C211.056 150.427 210.883 149.85 210.727 149.244C210.629 148.881 210.548 148.517 210.462 148.148C210.323 147.6 210.254 147.029 210.11 146.487C210.012 146.06 209.862 145.65 209.764 145.223C209.736 145.132 209.715 145.04 209.7 144.946C209.654 144.589 209.792 144.456 210.11 144.369C210.179 144.369 210.254 144.312 210.329 144.294C210.453 144.272 210.582 144.287 210.698 144.337C210.814 144.387 210.912 144.471 210.981 144.577C211.398 145.232 211.704 145.951 211.887 146.706C212.031 147.254 212.123 147.814 212.262 148.367L212.215 148.385Z" fill="#3B2C7D"/>
<path d="M167.151 139.927C166.827 139.169 166.689 138.344 166.747 137.521C166.754 137.053 166.855 136.59 167.045 136.161C167.236 135.733 167.511 135.348 167.855 135.029C168.265 134.617 168.736 134.271 169.251 134.002C170.073 133.622 170.931 133.326 171.813 133.119C172.661 132.912 173.492 132.721 174.322 132.577C175.061 132.439 175.788 132.254 176.492 132.052C177.372 131.749 178.272 131.507 179.186 131.325C179.474 131.285 179.59 131.671 179.497 132.139C179.448 132.405 179.335 132.656 179.168 132.87C179.001 133.083 178.786 133.254 178.54 133.367C177.611 133.703 176.666 133.99 175.707 134.227C175.234 134.348 174.767 134.458 174.294 134.556L172.88 134.787C171.794 134.984 170.757 135.388 169.822 135.975C169.412 136.203 169.077 136.546 168.859 136.962C168.819 137.054 168.79 137.151 168.772 137.25C168.756 137.378 168.747 137.507 168.744 137.637C168.732 137.771 168.732 137.906 168.744 138.041C168.745 138.178 168.76 138.316 168.79 138.45C168.906 139.141 169.189 139.792 169.615 140.348C170.302 141.232 171.278 141.845 172.372 142.079C173.227 142.239 174.105 142.219 174.951 142.021C175.142 141.987 175.32 141.929 175.528 141.906C175.785 141.852 176.051 141.863 176.301 141.941C176.495 142.045 176.651 142.206 176.751 142.402C176.812 142.493 176.868 142.588 176.919 142.685C176.954 142.767 176.968 142.858 176.956 142.947C176.945 143.037 176.91 143.121 176.855 143.192C176.718 143.413 176.516 143.586 176.278 143.689C175.389 144.055 174.429 144.217 173.469 144.162C172.427 144.12 171.405 143.863 170.469 143.406C168.993 142.681 167.813 141.468 167.128 139.973L167.151 139.927Z" fill="#3B2C7D"/>
<path d="M169.29 152.885C168.242 152.483 167.286 151.873 166.48 151.091C166.01 150.647 165.638 150.11 165.389 149.514C165.139 148.917 165.018 148.275 165.032 147.629C165.076 147.101 165.239 146.59 165.511 146.135C165.747 145.731 166.058 145.376 166.429 145.091C167.528 144.338 168.756 143.793 170.052 143.481C171.246 143.152 172.423 142.904 173.588 142.639C174.621 142.408 175.642 142.131 176.617 141.814C177.229 141.613 177.83 141.38 178.417 141.116C178.944 140.899 179.449 140.63 179.923 140.314C180.13 140.164 180.575 140.314 180.679 140.96C180.694 141.364 180.594 141.764 180.389 142.112C180.185 142.461 179.885 142.744 179.525 142.927C176.75 144.289 174.055 144.658 171.407 145.235C170.626 145.392 169.866 145.644 169.146 145.985C168.521 146.249 167.958 146.642 167.496 147.139C167.336 147.327 167.241 147.562 167.225 147.808C167.225 147.877 167.225 147.935 167.225 148.01C167.225 148.085 167.259 148.154 167.271 148.229C167.282 148.304 167.392 148.529 167.438 148.685C167.818 149.354 168.38 149.9 169.059 150.26C169.973 150.773 170.979 151.1 172.019 151.223C173.664 151.42 175.332 151.283 176.923 150.82C177.54 150.641 178.139 150.404 178.711 150.11C179 149.977 179.288 149.85 179.577 149.706L180.419 149.245C180.661 149.106 180.898 148.968 181.157 148.846C182.104 148.385 182.484 148.391 182.963 148.771C183.078 148.849 183.188 148.933 183.292 149.025C183.592 149.343 183.379 149.873 182.744 150.439C182.502 150.646 182.265 150.86 182.011 151.056C181.757 151.252 181.475 151.408 181.204 151.575C180.932 151.743 180.627 151.916 180.355 152.066C180.084 152.216 179.779 152.348 179.461 152.481C178.197 152.972 176.878 153.307 175.532 153.479C173.431 153.757 171.294 153.56 169.279 152.902L169.29 152.885Z" fill="#3B2C7D"/>
<path d="M171.122 160.875C170.816 161.389 170.661 161.979 170.678 162.577C170.694 162.79 170.777 162.992 170.915 163.154C170.966 163.258 171.076 163.321 171.157 163.414C171.268 163.495 171.385 163.567 171.509 163.627C171.946 163.803 172.411 163.897 172.882 163.904C173.83 163.977 174.782 163.845 175.674 163.518C175.905 163.448 176.118 163.333 176.343 163.241C176.568 163.148 176.765 163.027 176.99 162.871C177.44 162.6 177.866 162.294 178.293 161.977C179.038 161.409 179.708 160.75 180.29 160.016C180.652 159.552 180.985 159.066 181.288 158.562C181.438 158.314 181.576 158.06 181.738 157.823C181.899 157.587 182.084 157.344 182.245 157.096C182.407 156.848 182.793 156.929 183.059 157.391C183.223 157.672 183.329 157.984 183.37 158.308C183.451 158.702 183.387 159.111 183.191 159.462C182.532 160.695 181.676 161.814 180.659 162.773C180.167 163.25 179.638 163.688 179.078 164.083C178.496 164.492 177.878 164.847 177.232 165.144C176.419 165.503 175.573 165.779 174.705 165.969C173.812 166.18 172.887 166.212 171.982 166.062C171.455 165.97 170.945 165.796 170.47 165.548C169.957 165.279 169.511 164.896 169.166 164.429C168.819 163.947 168.606 163.382 168.549 162.791C168.514 162.254 168.572 161.715 168.722 161.198C169.091 160.096 169.647 159.065 170.366 158.152C171.394 156.846 172.539 155.637 173.788 154.541C174.696 153.645 175.687 152.838 176.747 152.129C176.983 151.964 177.237 151.825 177.503 151.714C178.513 151.293 178.98 151.414 179.274 151.714C179.343 151.768 179.405 151.83 179.459 151.898C179.528 152.002 179.459 152.123 179.338 152.279C179.167 152.492 178.974 152.686 178.761 152.856C178.005 153.577 177.191 154.246 176.453 155.025C175.715 155.804 174.826 156.462 174.065 157.241C172.919 158.312 171.946 159.553 171.18 160.921L171.122 160.875Z" fill="#3B2C7D"/>
<path d="M183.109 162.727C183.144 163.125 183.144 163.54 183.213 163.95C183.213 164.1 183.311 164.233 183.334 164.383C183.418 164.933 183.531 165.478 183.675 166.015C183.739 166.256 183.822 166.491 183.923 166.719C184.081 167 184.18 167.31 184.211 167.631C184.211 167.74 183.992 167.827 183.732 167.862C183.473 167.896 183.155 167.862 183.034 167.717C182.82 167.461 182.627 167.187 182.457 166.898C182.296 166.598 182.198 166.268 182.169 165.929C182.064 165.534 181.927 165.148 181.759 164.775C181.623 164.328 181.52 163.871 181.453 163.408C181.413 163.125 181.396 162.831 181.361 162.554C181.326 162.127 181.321 161.694 181.263 161.285C181.2 160.973 181.13 160.65 181.061 160.327C181.053 160.258 181.053 160.188 181.061 160.119C181.09 159.854 181.2 159.767 181.54 159.704L181.765 159.658C181.881 159.642 182 159.657 182.109 159.701C182.218 159.744 182.314 159.815 182.388 159.906C182.771 160.368 182.997 160.94 183.034 161.539C183.075 161.942 183.098 162.346 183.155 162.744L183.109 162.727Z" fill="#3B2C7D"/>
<path d="M207.656 223.644L208.81 226.385C208.954 226.719 209.145 227.019 209.289 227.354C209.774 228.508 210.264 229.702 210.824 230.816C211.073 231.319 211.351 231.808 211.654 232.281C212.069 232.869 212.414 233.505 212.681 234.173C212.75 234.392 212.468 234.537 212.104 234.548C211.897 234.567 211.689 234.539 211.494 234.466C211.299 234.393 211.123 234.277 210.979 234.127C210.052 232.954 209.302 231.652 208.752 230.262C208.418 229.431 207.887 228.664 207.466 227.856C207.045 227.048 206.56 226.067 206.145 225.156L205.377 223.483C204.974 222.641 204.604 221.752 204.154 220.979C203.802 220.35 203.341 219.796 202.954 219.202C202.868 219.069 202.77 218.948 202.695 218.816C202.406 218.302 202.452 218.071 202.879 217.714C202.97 217.627 203.066 217.546 203.168 217.471C203.331 217.355 203.532 217.303 203.732 217.326C203.931 217.35 204.115 217.447 204.247 217.598C204.717 218.07 205.139 218.588 205.504 219.144C205.856 219.721 206.168 220.298 206.468 220.875C206.912 221.764 207.316 222.681 207.737 223.581L207.656 223.644Z" fill="#3B2C7D"/>
<path d="M218.124 233.285C219.968 232.077 221.742 230.765 223.438 229.356C224.049 228.837 224.591 228.272 225.22 227.729C227.355 225.844 229.344 223.8 231.168 221.614C231.965 220.638 232.682 219.6 233.315 218.51C233.73 217.818 234.07 217.097 234.44 216.393C234.63 216.047 234.832 215.7 235.016 215.348L235.299 214.818L235.559 214.281C235.79 213.837 236.026 213.958 236.199 214.472C236.445 215.257 236.445 216.098 236.199 216.883C236.13 217.091 236.066 217.304 235.991 217.512L235.703 218.089C235.518 218.481 235.311 218.868 235.126 219.243C234.941 219.618 234.693 219.998 234.463 220.362C234.232 220.725 233.995 221.095 233.747 221.447C232.773 222.869 231.67 224.2 230.453 225.422C228.999 226.875 227.597 228.479 226.051 229.898C224.354 231.453 222.564 232.904 220.691 234.243C219.538 235.073 218.384 235.841 217.155 236.591C215.316 237.704 213.411 238.702 211.449 239.579C209.939 240.283 208.375 240.862 206.77 241.31C206.413 241.391 206.061 241.5 205.686 241.558C204.295 241.737 203.822 241.558 203.528 241.073C203.452 240.972 203.388 240.861 203.338 240.745C203.216 240.364 203.741 240.047 204.624 239.81C205.967 239.436 207.282 238.967 208.559 238.408C209.211 238.125 209.863 237.831 210.509 237.514C211.155 237.197 211.818 236.897 212.476 236.579C214.431 235.582 216.319 234.461 218.13 233.222L218.124 233.285Z" fill="#3B2C7D"/>
<path d="M209.601 249.508C210.242 250.697 210.94 251.85 211.649 252.97C211.903 253.397 212.226 253.76 212.503 254.17C212.965 254.908 213.478 255.6 213.975 256.31C214.471 257.02 215.024 257.689 215.619 258.318C216.129 258.883 216.689 259.403 217.292 259.87C218.092 260.405 218.862 260.982 219.6 261.6C219.819 261.814 219.599 262.131 219.196 262.333C218.939 262.456 218.658 262.52 218.374 262.52C218.089 262.52 217.808 262.456 217.551 262.333C215.746 261.171 214.191 259.661 212.976 257.891C212.249 256.858 211.361 255.9 210.617 254.862C210.196 254.285 209.826 253.708 209.434 253.131C209.042 252.554 208.707 251.931 208.344 251.337C207.923 250.587 207.484 249.843 207.08 249.087C206.769 248.51 206.463 247.933 206.169 247.356L205.269 245.625L204.53 244.322C204.276 243.895 204.028 243.462 203.803 243.012C203.7 242.816 203.584 242.631 203.492 242.435C203.163 241.673 203.203 241.373 203.584 241.039C203.665 240.959 203.752 240.886 203.844 240.82C204.155 240.618 204.565 240.82 204.911 241.293C205.932 242.769 206.855 244.311 207.674 245.908C208.321 247.091 208.944 248.302 209.642 249.462L209.601 249.508Z" fill="#3B2C7D"/>
<path d="M74.4225 51.1271C66.6218 56.3259 59.8583 62.933 54.4783 70.6098C51.7922 74.4504 49.4742 78.5358 47.5552 82.8117C47.0475 83.8675 46.6552 84.9694 46.1994 86.0482C45.7437 87.1271 45.3917 88.2694 44.9994 89.3482C44.6071 90.4271 44.2898 91.5809 43.9841 92.7059L43.5456 94.4079L43.3264 95.2559L43.1417 96.1098C42.3913 99.4411 41.9262 102.83 41.7514 106.241C41.5581 109.645 41.6275 113.059 41.9591 116.452C43.114 128.514 47.6739 139.999 55.1071 149.567C60.4685 156.496 67.1842 162.261 74.8452 166.511C82.5062 170.761 90.9522 173.408 99.6687 174.289C111.899 175.467 124.216 173.232 135.253 167.833C138.342 166.351 141.323 164.652 144.173 162.75C147.029 160.857 149.761 158.784 152.353 156.542C153.969 155.141 154.759 154.621 154.921 154.875C155.082 155.129 154.58 156.127 153.444 157.627C151.865 159.679 150.074 161.558 148.101 163.235C145.288 165.659 142.206 167.753 138.917 169.477C132.444 172.891 125.477 175.274 118.269 176.539C111.052 177.782 103.683 177.874 96.4379 176.81C81.8398 174.615 68.3687 167.68 58.1014 157.073C51.9096 150.682 47.012 143.153 43.6783 134.902C40.3211 126.551 38.694 117.605 38.8956 108.606C39.1627 98.7629 41.4855 89.0846 45.7148 80.1925C49.9196 71.3351 55.7561 63.3496 62.9187 56.654C71.7211 48.382 82.4183 42.3955 94.0725 39.2194C102.894 36.8308 112.113 36.2887 121.153 37.6271C130.142 38.994 138.771 42.1316 146.538 46.8579C152.5 50.4824 157.895 54.9673 162.548 60.1675C164.876 62.7491 166.998 65.5095 168.894 68.4232C170.78 71.3492 172.439 74.4159 173.855 77.5963C175.093 80.4054 176.134 83.2969 176.971 86.2502C177.138 86.9482 177.305 87.6175 177.461 88.2579C177.617 88.8982 177.773 89.5098 177.871 90.104C177.969 90.6982 178.084 91.2579 178.182 91.8348L178.326 92.6252L178.424 93.3867C178.54 94.379 178.655 95.279 178.73 96.0925C178.805 96.9059 178.805 97.6444 178.828 98.3079C178.949 100.128 178.754 101.955 178.251 103.708C178.107 104.251 177.923 104.783 177.703 105.3C177.386 105.831 177.178 104.942 176.965 102.923C176.751 100.904 176.48 97.7309 175.811 93.7732C175.311 90.7893 174.589 87.8466 173.653 84.9694C172.715 82.0724 171.558 79.2508 170.192 76.529C167.465 70.9987 163.969 65.8825 159.807 61.3329C151.321 52.0163 140.366 45.2985 128.215 41.9598C119.15 39.4938 109.652 39.0643 100.401 40.7021C91.122 42.3786 82.2857 45.9426 74.4398 51.1732L74.4225 51.1271Z" fill="#3B2C7D"/>
<path d="M82.5291 71.8097C77.0657 76.0916 72.5479 81.458 69.2598 87.5712C67.6301 90.6278 66.3268 93.8475 65.3714 97.177C64.436 100.507 63.8844 103.933 63.7271 107.389C63.623 109.911 63.7563 112.437 64.1252 114.935C64.4858 117.435 65.0511 119.901 65.8156 122.308C68.5609 130.861 73.9001 138.347 81.0925 143.729C88.3092 149.153 97.0268 152.212 106.05 152.487C114.068 152.721 122 150.771 128.994 146.844C133.446 144.355 137.483 141.189 140.96 137.458C144.438 133.731 147.408 129.56 149.793 125.054C151.223 122.239 151.737 122.862 151.194 125.677C150.753 127.589 150.089 129.442 149.216 131.198C147.952 133.702 146.382 136.039 144.543 138.156C142.712 140.218 140.736 142.146 138.629 143.925C136.495 145.673 134.235 147.262 131.868 148.679C129.474 150.06 126.978 151.256 124.402 152.256C123.087 152.7 121.794 153.19 120.462 153.554C119.129 153.917 117.779 154.246 116.423 154.506C110.972 155.538 105.382 155.608 99.906 154.714C94.4386 153.783 89.1824 151.88 84.3868 149.094C78.579 145.708 73.5348 141.157 69.5714 135.727C65.5833 130.223 62.8858 123.891 61.6791 117.202C61.0155 113.553 60.8082 109.836 61.0617 106.137C61.1771 104.285 61.4006 102.441 61.731 100.615C62.0757 98.8013 62.5225 97.0081 63.0694 95.2443C64.1706 91.717 65.6564 88.3216 67.5002 85.1193C69.3072 81.9156 71.4459 78.9106 73.881 76.1539C79.8725 69.3104 87.5791 64.1866 96.2079 61.3097C99.4664 60.2469 102.83 59.539 106.241 59.1982C116.651 58.3125 127.062 60.8981 135.849 66.5517C144.635 72.2052 151.303 80.6085 154.812 90.4501C155.558 92.6395 156.137 94.8825 156.543 97.1597C157.071 100.186 157.189 103.269 156.894 106.327C156.807 107.711 156.43 109.062 155.787 110.29C155.594 110.682 155.366 111.054 155.106 111.404C154.748 111.75 154.61 111.064 154.581 109.552C154.552 108.04 154.581 105.687 154.414 102.698C154.131 98.231 153.158 93.8345 151.529 89.6655C149.842 85.4408 147.506 81.5051 144.606 78.0001C141.681 74.4343 138.214 71.3505 134.331 68.8616C130.443 66.3321 126.179 64.4354 121.696 63.2424C114.998 61.462 107.968 61.3353 101.21 62.8732C97.8221 63.6591 94.5326 64.8201 91.4021 66.3347C88.2782 67.8646 85.3252 69.7211 82.5925 71.8732L82.5291 71.8097Z" fill="#3B2C7D"/>
<path d="M116.268 105.917C116.33 107.614 115.84 109.286 114.872 110.68C113.903 112.075 112.509 113.119 110.897 113.654C110.437 113.798 109.963 113.896 109.484 113.948C108.545 114.054 107.594 113.968 106.689 113.694C105.785 113.421 104.945 112.966 104.222 112.358C103.499 111.75 102.907 111 102.482 110.156C102.058 109.312 101.81 108.39 101.753 107.446C101.703 105.662 102.264 103.914 103.344 102.492C104.424 101.07 105.957 100.06 107.69 99.629C108.069 99.5398 108.455 99.4838 108.843 99.4617C110.622 99.3535 112.375 99.9248 113.748 101.06C115.121 102.195 116.012 103.81 116.24 105.577C116.251 105.692 116.257 105.808 116.268 105.917Z" fill="#3B2C7D"/>
<path d="M88.7745 93.0119C87.5846 94.6494 86.5731 96.4094 85.7572 98.2619C85.3656 99.1927 85.0247 100.144 84.7361 101.112C84.5976 101.597 84.4418 102.081 84.3207 102.572L84.0322 104.054C83.9861 104.302 83.9226 104.55 83.888 104.798L83.8187 105.548L83.6687 107.054V109.322L83.7495 110.077L83.8937 111.589C83.9341 112.091 84.0841 112.575 84.1707 113.077C84.2572 113.579 84.3495 114.07 84.4995 114.554L84.9611 115.997C85.951 118.785 87.4386 121.371 89.3514 123.629L89.9918 124.368C90.1947 124.622 90.4165 124.862 90.6553 125.083L92.0745 126.439C93.0712 127.283 94.1278 128.055 95.2361 128.747L96.0668 129.277L96.938 129.722L97.8207 130.166L98.2591 130.385L98.7149 130.564L100.555 131.273L102.453 131.793C107.645 133.035 113.097 132.605 118.03 130.564C120.211 129.64 122.26 128.432 124.123 126.97L125.49 125.816L126.753 124.575C127.174 124.162 127.572 123.726 127.948 123.272L128.525 122.602C128.715 122.377 128.876 122.135 129.05 121.898C132.649 117.04 134.7 111.209 134.934 105.168C135.009 103.31 135.736 103.437 136.469 105.122C136.933 106.264 137.197 107.478 137.248 108.71C137.263 109.528 137.234 110.347 137.161 111.162C137.031 112.072 136.839 112.973 136.584 113.856C134.556 120.413 130.408 126.111 124.792 130.056C121.986 132.009 118.863 133.459 115.561 134.343C113.913 134.775 112.226 135.041 110.525 135.139C109.671 135.139 108.794 135.202 107.969 135.208L105.425 135.018C101.323 134.535 97.3732 133.173 93.8457 131.025C90.2715 128.876 87.2457 125.925 85.0072 122.406C82.6148 118.523 81.2269 114.106 80.9688 109.552C80.9688 108.975 80.9688 108.398 80.9688 107.85V107.002C80.9688 106.72 81.0149 106.425 81.038 106.16L81.2053 104.47C81.2861 103.893 81.4072 103.362 81.5111 102.808L81.6726 101.977C81.7245 101.7 81.8168 101.435 81.8918 101.158L82.3591 99.5369C82.538 99.0061 82.7572 98.4869 82.9361 97.9561C83.123 97.4276 83.3427 96.9112 83.5937 96.41C84.7463 93.9061 86.2435 91.5758 88.0418 89.4869C89.8092 87.3736 91.8592 85.5138 94.1341 83.96C97.5628 81.5839 101.466 79.9797 105.575 79.2581C109.694 78.6109 113.907 78.9047 117.898 80.1177C124.072 82.0009 129.413 85.9481 133.025 91.2984C133.82 92.4723 134.519 93.7091 135.113 94.9965C135.559 96.0261 135.923 97.089 136.203 98.1754C136.416 98.909 136.549 99.6633 136.601 100.425C136.653 101.666 136.567 102.387 136.209 102.97C136.086 103.24 135.933 103.495 135.753 103.731C135.176 104.239 134.744 102.214 133.659 98.8907C132.359 95.1197 130.198 91.7034 127.348 88.9126C124.498 86.1217 121.037 84.0329 117.24 82.8119C114.677 81.9912 111.991 81.6241 109.301 81.7273C108.3 81.7345 107.301 81.8193 106.313 81.9811C105.817 82.0619 105.321 82.1542 104.83 82.2581C104.34 82.3619 103.861 82.5234 103.376 82.6504C102.406 82.914 101.454 83.2416 100.526 83.6311C100.057 83.8167 99.5988 84.0286 99.1534 84.2657C98.7034 84.4965 98.2303 84.6811 97.8034 84.9523C94.2512 86.9508 91.184 89.7087 88.8207 93.0292L88.7745 93.0119Z" fill="#3B2C7D"/>
<path d="M252.737 157.414C252.737 157.414 246.143 161.452 236.035 157.206C236.035 157.206 228.575 153.075 229.331 145.558C233.3 151.829 243.76 156.762 252.737 157.414Z" fill="#3B2C7D"/>
<path d="M220.281 143.821C215.208 141.898 210.149 139.939 205.103 137.942C203.256 137.216 201.393 136.552 199.558 135.814C193.085 133.194 186.649 130.491 180.249 127.702C177.41 126.456 174.537 125.244 171.745 123.952L169.039 122.694C168.145 122.267 167.251 121.823 166.368 121.367C164.548 120.47 162.858 119.331 161.343 117.981C160.408 117.006 160.858 116.966 161.868 117.323C162.11 117.421 162.445 117.502 162.785 117.612C163.126 117.721 163.501 117.86 163.939 117.987C164.907 118.275 165.848 118.649 166.749 119.106C170.279 120.889 173.989 122.406 177.641 124.062L188.689 128.989C193.126 130.962 197.885 132.692 202.501 134.516C207.583 136.5 212.672 138.485 217.772 140.423C220.91 141.617 224.054 142.812 227.204 143.971C231.976 145.737 236.77 147.514 241.547 149.164C245.256 150.439 248.943 151.546 252.647 152.7C253.466 152.954 254.268 153.179 255.087 153.444C256.171 153.765 257.232 154.163 258.26 154.633C258.762 154.863 259.189 155.229 259.495 155.689C259.616 155.848 259.722 156.018 259.812 156.196C259.893 156.45 259.593 156.566 258.987 156.56C258.084 156.527 257.188 156.38 256.322 156.121C249.589 154.31 242.654 151.962 235.714 149.516C230.568 147.692 225.422 145.789 220.287 143.885L220.281 143.821Z" fill="#3B2C7D"/>
<path d="M234.415 155.475C234.742 155.735 235.085 155.974 235.442 156.191C235.8 156.404 236.14 156.652 236.521 156.837C236.902 157.021 237.271 157.246 237.646 157.414C238.021 157.581 238.402 157.76 238.8 157.875C239.088 157.967 239.377 158.054 239.677 158.129C239.977 158.204 240.282 158.244 240.577 158.319C242.749 158.786 244.986 158.872 247.188 158.573C248.17 158.434 249.136 158.2 250.073 157.875C250.377 157.783 250.676 157.673 250.967 157.546C251.261 157.431 251.544 157.316 251.844 157.183L252.277 157.004C252.418 156.936 252.565 156.88 252.715 156.837L253.638 156.571C254.031 156.468 254.157 156.75 254.048 157.252C253.975 157.57 253.855 157.876 253.69 158.158C253.599 158.329 253.486 158.488 253.356 158.631C253.212 158.765 253.049 158.876 252.871 158.96C250.307 160.219 247.469 160.814 244.615 160.691C242.873 160.692 241.135 160.53 239.423 160.206C238.95 160.114 238.494 159.941 238.032 159.808C237.571 159.675 237.132 159.462 236.682 159.283L235.413 158.648C234.986 158.441 234.594 158.158 234.184 157.921C233.934 157.774 233.693 157.61 233.463 157.431L232.788 156.923C232.338 156.554 231.894 156.167 231.473 155.769C230.213 154.528 229.152 153.1 228.329 151.535C227.653 150.363 227.111 149.118 226.713 147.825C226.614 147.546 226.541 147.258 226.494 146.966C226.419 146.575 226.419 146.174 226.494 145.783C226.572 145.555 226.714 145.355 226.904 145.206C226.984 145.148 227.059 145.067 227.129 145.027C227.198 144.987 227.383 145.027 227.55 145.2C227.774 145.427 227.949 145.698 228.063 145.996C228.288 146.521 228.531 147.029 228.727 147.548C228.923 148.067 229.188 148.564 229.408 149.066C229.855 150.073 230.392 151.038 231.011 151.95C231.956 153.307 233.127 154.492 234.473 155.452L234.415 155.475Z" fill="#3B2C7D"/>
<path d="M240.001 139.488C241.893 139.577 243.758 139.966 245.528 140.642C245.856 140.746 246.174 140.879 246.491 141C246.808 141.121 247.131 141.242 247.431 141.404C249.599 142.458 251.503 143.984 253.005 145.869C253.652 146.69 254.255 147.545 254.81 148.431C255.162 149.008 255.508 149.55 255.814 150.127C255.973 150.412 256.114 150.707 256.235 151.01C256.339 151.321 256.437 151.633 256.512 151.962C256.558 152.383 256.339 152.435 255.855 152.296C255.563 152.212 255.284 152.09 255.024 151.933C254.869 151.849 254.724 151.748 254.591 151.633C254.466 151.506 254.358 151.365 254.268 151.212C253.628 150.092 252.981 149.013 252.278 148.015C251.569 147.026 250.771 146.103 249.895 145.258C248.734 144.26 247.403 143.479 245.966 142.95C244.408 142.274 242.76 141.829 241.074 141.629C240.027 141.501 238.97 141.474 237.918 141.548C236.307 141.659 234.719 141.991 233.199 142.535C232.617 142.751 232.05 143.008 231.503 143.302C230.926 143.562 230.412 143.879 229.87 144.173C229.639 144.312 229.414 144.467 229.172 144.583C228.93 144.698 228.751 144.785 228.595 144.86C228.448 144.911 228.294 144.944 228.139 144.958C227.922 144.984 227.702 144.948 227.505 144.854C227.422 144.82 227.341 144.781 227.262 144.738C227.055 144.6 227.262 144.162 227.839 143.538C228.751 142.736 229.756 142.046 230.833 141.485C231.962 140.927 233.143 140.483 234.358 140.158C236.205 139.662 238.113 139.433 240.024 139.477L240.001 139.488Z" fill="#3B2C7D"/>
<path d="M116.347 97.9734C116.232 98.2093 116.057 98.4104 115.839 98.5563C115.621 98.7023 115.369 98.7878 115.107 98.8042C114.928 98.8331 114.611 98.585 114.657 98.4234C114.745 98.1126 114.849 97.8064 114.968 97.5061C115.032 97.3157 116.699 94.7658 117.276 93.9234C117.837 93.0987 118.439 92.3034 119.082 91.5407C120.38 89.9831 121.678 88.4369 123.011 86.9254C123.311 86.5907 123.588 86.2677 123.945 85.9619C125.052 84.9007 126.1 83.7798 127.084 82.6042C127.263 82.4334 127.418 82.2394 127.545 82.0273C128.592 80.6953 129.707 79.4185 130.886 78.2023C131.866 77.2965 132.801 76.3504 133.77 75.4042C133.885 75.2506 134.026 75.1179 134.186 75.0119C134.539 74.794 134.846 74.51 135.091 74.1754C135.472 73.7542 135.841 73.3215 136.245 72.9119C136.458 72.7179 136.686 72.5404 136.926 72.3811C137.14 72.2311 137.261 72.4907 137.226 72.5831C137.134 72.8311 137.359 72.7446 137.457 72.7907C137.493 72.8035 137.524 72.8254 137.549 72.8542C136.976 73.9617 136.344 75.0382 135.657 76.0792L134.076 78.11L132.27 80.3888C132.096 80.6103 131.903 80.8168 131.693 81.0061L129.022 84.1792C128.51 84.792 127.945 85.3577 127.332 85.8696C127.209 85.9712 127.097 86.0853 126.997 86.21C126.097 87.2427 125.134 88.2177 124.199 89.2042C123.715 89.7119 123.276 90.2542 122.815 90.7734C122.734 90.8657 122.63 90.9465 122.543 91.0331C122.424 91.1407 122.311 91.2543 122.203 91.3734C121.147 92.6311 120.011 93.8311 119.047 95.1581C118.811 95.4581 117.553 96.7619 117.316 97.1311C117.115 97.2927 116.434 97.7715 116.347 97.9734Z" fill="#3B2C7D"/>
<path d="M78.9275 142.846C78.8141 143.082 78.64 143.283 78.423 143.429C78.206 143.575 77.954 143.661 77.6929 143.677C77.5083 143.677 77.1967 143.458 77.2429 143.296C77.3285 142.985 77.4325 142.678 77.5544 142.379C77.6179 142.189 79.2852 139.639 79.8621 138.796C80.4233 137.971 81.028 137.175 81.6737 136.414C82.9717 134.856 84.2698 133.304 85.6025 131.798C85.8977 131.46 86.2096 131.136 86.5371 130.829C87.6422 129.768 88.6898 128.65 89.6756 127.477C89.8501 127.302 90.0049 127.109 90.1371 126.9C91.1821 125.567 92.2971 124.29 93.4775 123.075C94.4583 122.169 95.3929 121.223 96.3621 120.271C96.4766 120.121 96.615 119.99 96.7717 119.885C97.1271 119.67 97.4353 119.386 97.6775 119.048C98.0583 118.621 98.4333 118.189 98.8313 117.785C99.045 117.589 99.2746 117.412 99.5179 117.254C99.7313 117.098 99.8467 117.364 99.8179 117.45C99.7198 117.704 99.9448 117.618 100.049 117.664C100.085 117.674 100.118 117.697 100.141 117.727C99.566 118.835 98.9324 119.912 98.2429 120.952L96.6679 122.977L94.8621 125.285C94.6872 125.506 94.4942 125.713 94.2852 125.902L91.6198 129.075C91.1074 129.69 90.5397 130.255 89.9237 130.766C89.8007 130.867 89.6885 130.981 89.589 131.106C88.6948 132.139 87.7314 133.108 86.791 134.1C86.3121 134.608 85.8737 135.15 85.4121 135.669C85.3256 135.762 85.2275 135.843 85.1352 135.929C85.018 136.035 84.9063 136.146 84.8006 136.264C83.739 137.527 82.6083 138.721 81.639 140.054C81.4083 140.354 80.1506 141.658 79.9083 142.027C79.7179 142.166 79.0371 142.639 78.9275 142.846Z" fill="#3B2C7D"/>
<path d="M100.2 95.8963C100.392 96.0813 100.543 96.305 100.643 96.5527C100.742 96.8003 100.788 97.0662 100.777 97.3329C100.777 97.5002 100.517 97.6732 100.379 97.5752C100.108 97.3732 99.8423 97.1713 99.5942 96.9463C99.45 96.8078 97.3384 94.4309 96.5769 93.6578C95.8153 92.8848 95.1692 92.1117 94.4884 91.3155L90.2827 86.4982C89.9711 86.1348 89.6711 85.7655 89.3884 85.3848C88.425 84.0694 87.3807 82.8175 86.3307 81.5655C86.159 81.3537 85.9656 81.1604 85.7538 80.9886C85.137 80.3407 84.559 79.6568 84.023 78.9405C83.2615 77.9598 82.523 76.9444 82.3673 76.6963L81.2596 74.8444L80.1865 72.9694C80.0612 72.7955 79.9692 72.5999 79.9154 72.3925C79.7971 71.9609 79.6016 71.5543 79.3384 71.1925C79.0285 70.6609 78.7454 70.114 78.4904 69.554C78.3754 69.2688 78.281 68.9757 78.2077 68.6771C78.1327 68.4117 78.4211 68.4175 78.4904 68.4867C78.698 68.6886 78.6865 68.4348 78.7615 68.3655C78.8365 68.2963 78.8192 68.3079 78.848 68.3079C78.9857 68.4427 79.1112 68.5894 79.223 68.7463L80.0019 69.7271C80.5788 70.454 81.1961 71.1925 81.2942 71.354C81.2942 71.354 81.4788 71.654 81.7788 72.0521L82.8519 73.529C83.6769 74.5963 84.5134 75.7213 84.7038 75.9348C84.8896 76.1727 85.0556 76.4254 85.2 76.6905C85.2577 76.829 87.8596 79.9329 87.9634 80.0598C88.5105 80.6986 89.0118 81.3753 89.4634 82.0848C89.5502 82.2302 89.6528 82.3656 89.7692 82.4886C90.7038 83.5963 91.575 84.7559 92.475 85.8982C92.9365 86.4752 93.4269 87.0521 93.9 87.629C93.9865 87.7328 94.0557 87.8482 94.1365 87.9579C94.2173 88.0675 94.3269 88.2348 94.4365 88.3675C95.5904 89.7117 96.6403 91.1136 97.7942 92.4521C98.0653 92.7578 99.15 94.379 99.4557 94.7598C99.6807 94.9213 100.033 95.7348 100.2 95.8963Z" fill="#3B2C7D"/>
<path d="M138.364 146.175C138.554 146.359 138.703 146.58 138.802 146.824C138.902 147.068 138.949 147.331 138.941 147.594C138.941 147.767 138.687 147.952 138.549 147.848C138.278 147.652 138.007 147.456 137.753 147.237C137.597 147.104 135.445 144.733 134.724 143.942C134.003 143.152 133.334 142.367 132.67 141.56L128.586 136.633C128.286 136.269 128.009 135.894 127.726 135.479C126.791 134.152 125.776 132.883 124.726 131.642C124.556 131.429 124.363 131.235 124.149 131.066C123.797 130.794 121.022 127.373 120.687 126.9L118.276 123.381C118.143 123.227 118.034 123.054 117.953 122.867C117.791 122.459 117.559 122.082 117.266 121.754C116.903 121.264 116.545 120.773 116.211 120.26C116.056 119.998 115.923 119.724 115.812 119.441C115.697 119.192 115.98 119.152 116.061 119.21C116.291 119.377 116.245 119.129 116.309 119.048C116.372 118.967 116.361 118.985 116.389 118.979C116.546 119.092 116.692 119.217 116.828 119.354L117.745 120.225C118.414 120.871 119.112 121.552 119.234 121.702L123.001 126.075C123.196 126.31 123.373 126.559 123.532 126.819L126.364 130.166C126.912 130.811 127.411 131.495 127.859 132.214C127.943 132.359 128.044 132.495 128.159 132.617C129.076 133.771 129.924 134.925 130.795 136.079C131.239 136.656 131.712 137.233 132.168 137.81C132.255 137.919 132.318 138.035 132.393 138.144C132.468 138.254 132.578 138.433 132.682 138.56C133.784 139.933 134.811 141.358 135.947 142.702C136.207 143.008 137.28 144.623 137.586 144.975C137.834 145.206 138.191 146.019 138.364 146.175Z" fill="#3B2C7D"/>
<path d="M187.643 50.3885C187.822 50.5154 187.504 50.625 186.899 50.8096C186.614 50.882 186.32 50.9073 186.028 50.8846C185.863 50.8051 185.71 50.7042 185.572 50.5846C185.387 50.1133 185.237 49.6294 185.122 49.1366C185.044 48.8195 185.027 48.4908 185.07 48.1673C185.128 47.5269 185.179 46.8923 185.266 46.2635C185.286 46.1205 185.335 45.983 185.41 45.8596C185.657 45.4362 185.798 44.959 185.82 44.4693C185.82 44.3885 185.86 44.3135 185.779 44.2154C185.738 43.6661 185.833 43.115 186.056 42.6116C186.345 42.2423 186.581 41.8616 186.858 41.4577C186.899 41.4058 186.887 41.325 187.014 41.3077C187.32 41.2731 187.314 41.1346 187.389 41.0077C187.486 40.8247 187.615 40.6606 187.77 40.5231C187.902 40.4546 188.048 40.4153 188.197 40.4077C188.335 40.4077 188.676 40.6385 188.704 40.6846C188.785 40.8173 188.981 40.8519 189.137 40.9327L189.299 41.0193C189.467 41.3888 189.595 41.7757 189.679 42.1731L189.639 42.3923C189.639 42.5135 189.599 42.6923 189.57 42.8712C189.531 43.1447 189.508 43.4201 189.501 43.6962C189.501 43.7769 189.42 43.8404 189.362 43.9096C189.304 43.9789 189.299 45.0635 189.287 45.1096C189.212 45.3289 189.287 45.5769 188.987 45.7558C188.929 45.7904 188.935 45.8366 188.929 45.8827C188.865 46.278 188.756 46.665 188.606 47.0366C188.558 47.2355 188.527 47.4381 188.514 47.6423C188.514 47.6769 188.468 47.7058 188.451 47.7404C188.416 47.7773 188.392 47.8233 188.381 47.8731C188.275 48.3348 188.223 48.8071 188.226 49.2808C188.226 49.3846 187.926 49.8577 187.966 49.9904C188.006 50.1231 187.574 50.325 187.643 50.3885Z" fill="#3B2C7D"/>
<path d="M196.875 57.6465C196.777 57.935 196.431 57.8138 195.894 57.4734C195.666 57.2968 195.487 57.0643 195.375 56.7984C195.386 56.5898 195.419 56.3828 195.473 56.1811C195.93 55.6076 196.421 55.0624 196.944 54.5484C197.302 54.202 197.701 53.9016 198.133 53.6542C198.987 53.1234 199.835 52.6042 200.694 52.1196C200.885 52.01 201.091 51.9284 201.306 51.8773C202.031 51.681 202.722 51.3735 203.354 50.9657C203.458 50.8965 203.579 50.8561 203.642 50.7119C204.295 50.2093 205.018 49.805 205.788 49.5119C206.446 49.3907 207.081 49.2292 207.721 49.0792C207.813 49.0792 207.883 48.9811 208.01 49.0446C208.11 49.096 208.223 49.1193 208.335 49.1122C208.448 49.1051 208.557 49.0678 208.65 49.0042C208.911 48.9004 209.181 48.8231 209.458 48.7734C209.63 48.7756 209.8 48.8088 209.96 48.8715C210.121 48.9119 210.242 49.2927 210.225 49.3504C210.173 49.5177 210.346 49.6388 210.433 49.7773C210.464 49.8267 210.491 49.8789 210.513 49.9331C210.17 50.4877 209.761 50.999 209.296 51.4561L207.075 52.8984C206.952 52.9702 206.813 53.0098 206.671 53.0138C206.608 53.0138 205.056 54.0465 204.987 54.0696C204.662 54.2856 204.285 54.411 203.896 54.4331C203.816 54.4363 203.74 54.4646 203.677 54.5138C203.11 54.8109 202.524 55.071 201.923 55.2927C201.617 55.4254 201.346 55.61 201.052 55.7657C200.994 55.7853 200.934 55.7988 200.873 55.8061C200.797 55.8169 200.723 55.8403 200.654 55.8754C199.963 56.2176 199.299 56.613 198.669 57.0581C198.542 57.1734 197.683 57.4042 197.55 57.56C197.417 57.7157 196.91 57.5311 196.875 57.6465Z" fill="#3B2C7D"/>
</svg>
