<svg width="300" height="300" viewBox="0 0 300 300" fill="none" xmlns="http://www.w3.org/2000/svg">
<path d="M100.84 259.281C93.103 259.736 72.7607 256.811 69.9454 252.629C66.1204 246.952 90.305 248.135 90.305 248.135C90.305 248.135 92.6761 254.186 96.0223 256.113C97.7076 257.043 99.3182 258.102 100.84 259.281Z" fill="#3B2C7D"/>
<path d="M192.279 169.679C192.279 169.679 196.231 167.919 194.154 165.548C192.077 163.177 184 158.342 184 158.342C184 158.342 195.302 162.508 196.571 166.881C197.84 171.254 194.108 171.254 194.108 171.254L192.279 169.679Z" fill="#3B2C7D"/>
<path d="M101.752 163.015C101.331 163.69 98.9659 160.967 98.8217 160.771C96.2832 157.31 112.489 152.302 114.399 151.961C114.399 151.961 99.9755 154.563 96.9063 158.036C93.8371 161.51 99.9006 164.723 99.9006 164.723C100.599 164.249 101.223 163.673 101.752 163.015Z" fill="#3B2C7D"/>
<path opacity="0.2" d="M125.713 156.888C125.713 156.888 103.848 161.019 101.846 163.996C99.8442 166.973 131.027 175.015 136.837 174.455C142.646 173.896 125.713 156.888 125.713 156.888Z" fill="#3B2C7D"/>
<path d="M188.399 183C188.399 183 201.045 180.479 202.066 178.05C203.087 175.621 200.941 176.371 200.941 176.371L186.91 180.986L188.399 183Z" fill="#3B2C7D"/>
<path d="M87.9102 166.425C88.937 167.603 90.0792 168.676 91.3198 169.627C95.064 172.321 116.127 184.211 159.131 185.308L162.766 185.059L161.064 182.44C161.064 182.44 112.256 182.44 94.4986 169.5L87.9102 166.425Z" fill="#3B2C7D"/>
<path d="M154.442 245.683C149.793 243.425 145.316 240.829 141.046 237.917L138.738 236.314C137.965 235.777 137.163 235.275 136.431 234.669L132.554 231.554L128.861 228.219C127.615 227.135 126.461 225.912 125.319 224.758L121.915 221.198C119.907 219.087 117.877 216.992 115.84 214.939C114.525 213.627 113.229 212.298 111.952 210.952C111.317 210.277 110.665 209.614 110.054 208.915L108.231 206.81C107.481 205.933 107.74 205.881 108.663 206.337C109.131 206.562 109.759 206.914 110.498 207.364C110.861 207.594 111.259 207.842 111.652 208.137C112.044 208.431 112.436 208.765 112.834 209.129L114.917 211.067L115.956 212.042L116.965 213.046L120.963 217.085L128.867 225.254C130.465 226.835 132.207 228.352 133.961 229.869L136.713 231.998C137.636 232.708 138.536 233.44 139.5 234.081L142.621 236.267C143.134 236.648 143.682 236.971 144.219 237.312L145.84 238.321C147.969 239.723 150.242 240.877 152.457 242.129L156.68 244.194C158.105 244.864 159.565 245.446 161.002 246.069C165.401 247.856 169.927 249.314 174.542 250.431C178.079 251.196 181.668 251.699 185.279 251.937C186.069 251.983 186.842 252.006 187.632 252.064C189.098 252.115 190.067 252.162 190.748 252.26C191.254 252.32 191.741 252.491 192.173 252.762C192.33 252.843 192.481 252.938 192.623 253.044C192.79 253.206 192.571 253.373 192.046 253.581C191.235 253.904 190.374 254.086 189.502 254.117C187.81 254.238 186.113 254.263 184.419 254.192L181.857 253.985C180.998 253.904 180.127 253.76 179.284 253.65C177.554 253.437 175.863 253.039 174.144 252.71C173.29 252.519 172.442 252.289 171.594 252.081C170.746 251.873 169.863 251.671 169.05 251.389C164.034 249.905 159.147 248.018 154.436 245.746L154.442 245.683Z" fill="#3B2C7D"/>
<path d="M169.991 183.185C169.991 183.185 173.689 185.192 175.835 185.371C177.982 185.55 177.624 191.481 179.441 190.471C181.368 189.404 185.914 185.308 185.545 182.44C184.933 177.646 188.891 181.54 187.587 185.971C187.01 187.858 183.047 187.286 182.493 190.494C181.939 193.702 183.999 197.238 179.412 197.694C176.182 198.017 174.024 196.258 172.864 192.161C171.214 186.34 166.426 189.588 163.674 185.971C160.345 181.604 163.045 182.44 163.045 182.44L169.991 183.185Z" fill="#3B2C7D"/>
<path d="M68.9137 263.711C68.9137 263.711 74.1983 265.54 73.2291 266.936C72.2598 268.332 77.9656 268.142 79.9098 268.142C81.8541 268.142 86.0425 266.567 88.4714 268.511C90.9002 270.455 92.3887 270.686 87.2252 270.871C82.0617 271.055 71.0021 271.534 69.5367 270.144C68.0714 268.754 71.8848 267.807 70.2291 266.936C68.5733 266.065 67.5117 266.002 63.8137 265.644C60.1156 265.286 56.8041 263.204 58.8002 262.944C60.7964 262.684 68.9137 263.711 68.9137 263.711Z" fill="#3B2C7D"/>
<path d="M221.538 264.681C221.538 264.681 225.242 265.108 224.694 266.504C224.146 267.9 234.594 269.481 234.958 268.811C235.321 268.142 229.615 265.108 231.981 264.986C234.346 264.865 240.162 266.071 241.212 268.021C242.262 269.971 243.577 272.758 237.502 272.215C231.427 271.673 221.885 269.746 217.69 268.921C213.496 268.096 209.187 266.284 211.863 265.396C214.54 264.508 221.538 264.681 221.538 264.681Z" fill="#3B2C7D"/>
<path d="M190.009 253.396C186.804 257.923 182.217 261.287 176.936 262.985C168.236 265.685 145.984 266.936 145.984 266.936C145.984 266.936 176.89 266.988 184.54 263.348C192.19 259.708 192.657 252.963 192.657 252.963L190.009 253.396Z" fill="#3B2C7D"/>
<path d="M190.008 238.298C199.925 238.846 208.683 237.479 210.414 229.281L209.317 226.546C208.159 229.56 205.983 232.074 203.167 233.654C198.569 236.111 190.008 238.298 190.008 238.298Z" fill="#3B2C7D"/>
<path d="M88.2188 112.973C88.2188 112.973 89.8284 114.79 90.763 114.006C91.6976 113.221 113.344 100.961 112.963 100.021C112.673 99.3779 112.253 98.8023 111.728 98.3306C110.593 98.9598 109.546 99.7357 108.613 100.638C107.234 102.034 106.738 101.596 104.863 102.663C102.988 103.731 101.24 105.259 99.7053 106.125C98.1707 106.99 95.938 107.625 94.7841 108.825C93.6303 110.025 94.4668 110.031 92.5341 110.879C90.6014 111.727 88.2188 112.973 88.2188 112.973Z" fill="#3B2C7D"/>
<path d="M119.493 126.098C118.593 130.136 110.839 133.257 110.839 133.257L108.531 130.915L119.493 123.854V126.098Z" fill="#3B2C7D"/>
<path d="M106.793 132.3C106.793 132.3 111.57 135.15 114.587 139.575C117.605 144 136.833 174.456 136.833 174.456L141.974 175.54C141.974 175.54 115.914 136.425 113.255 133.731C109.216 129.692 108.512 130.915 108.512 130.915L106.793 132.3Z" fill="#3B2C7D"/>
<path d="M166.943 69.3809C167.687 70.4482 168.01 72.1616 168.339 73.3847C169.213 76.4579 169.558 79.6573 169.36 82.8462C169.194 85.978 168.237 89.0167 166.579 91.6789C164.076 95.4462 159.656 96.5309 155.41 96.8135C155.41 96.8135 162.662 98.8386 166.527 94.102C170.393 89.3655 171.783 81.2539 170.451 76.8809C169.641 74.228 168.46 71.703 166.943 69.3809Z" fill="#3B2C7D"/>
<path d="M160.83 99.3517C156.215 100.869 150.445 96.5479 150.445 96.5479L150.768 95.394C150.768 95.394 157.368 99.669 160.83 98.2787V99.3517Z" fill="#3B2C7D"/>
<path d="M138.462 161.613C138.462 161.613 140.602 138.138 144.733 128.556C148.864 118.973 151.373 109.206 150.866 108.179L149.175 106.673C149.175 106.673 144.831 122.1 142.927 125.452C141.023 128.804 136.581 147.629 136.252 153.213C135.923 158.798 136.402 158.625 136.402 158.625L138.462 161.613Z" fill="#3B2C7D"/>
<path d="M156.347 110.729C152.124 110.971 150.457 109.621 150.457 109.621L150.82 107.521L158.234 109.188V109.471C158.222 110.561 157.426 110.671 156.347 110.729Z" fill="#3B2C7D"/>
<path d="M209.227 100.015C209.06 100.229 210.871 93.4094 209.227 94.5286C207.583 95.6478 210.912 89.1113 211.754 89.6421C212.596 90.1728 210.323 98.6536 209.227 100.015Z" fill="#3B2C7D"/>
<path d="M201.85 97.0094C201.85 97.0094 202.703 92.971 200.303 95.7575C197.903 98.5441 202.034 89.8556 203.961 88.9498C205.888 88.0441 205.409 89.9594 204.619 92.1287C203.884 93.8553 202.955 95.4927 201.85 97.0094Z" fill="#3B2C7D"/>
<path d="M189.27 92.3941C189.403 92.1229 190.932 84.0749 188.693 86.0826C186.455 88.0903 184.188 93.1845 184.188 93.1845C184.188 93.1845 190.816 80.4345 192.264 81.9806C193.712 83.5268 189.27 92.3941 189.27 92.3941Z" fill="#3B2C7D"/>
<path d="M173.412 120.375L169.991 119.273C169.991 119.273 167.204 125.983 169.252 130.165C171.3 134.348 174.6 135.358 174.6 135.358C174.6 135.358 158.821 172.661 158.383 176.319L160.829 176.371L178.056 135.438C178.316 134.758 176.383 132.917 175.835 132.438C169.76 127.131 173.412 120.375 173.412 120.375Z" fill="#3B2C7D"/>
<path d="M200.814 133.731C200.814 133.731 194.63 131.769 188.382 129.433C180.305 126.427 172.943 121.661 172.003 121.477C170.18 121.113 175.833 120.9 175.833 120.9C175.833 120.9 198.385 132.438 201.12 132.127C203.855 131.815 200.814 133.731 200.814 133.731Z" fill="#3B2C7D"/>
<path d="M122.85 266.105C117.857 265.263 112.929 264.067 108.104 262.529C105.693 261.75 103.31 260.867 100.973 259.869C99.8195 259.367 98.6657 258.83 97.5118 258.271C96.2699 257.656 95.1635 256.799 94.258 255.75C93.0116 254.278 91.9837 252.634 91.2061 250.869C90.4378 249.158 89.7995 247.391 89.2964 245.584C88.434 242.437 87.7712 239.238 87.3118 236.007C86.8388 232.794 86.4926 229.575 86.233 226.35C85.7138 219.9 85.5003 213.444 85.4022 206.994C85.3214 201.271 85.2811 195.513 85.2811 189.842L85.2464 178.88V173.423C85.2464 171.611 85.2176 169.788 85.0388 168.034C84.9291 166.938 84.8426 166.563 85.0388 166.511C85.1138 166.511 85.2464 166.586 85.4195 166.805C85.6372 167.135 85.8153 167.49 85.9503 167.861C86.6541 169.748 87.2657 173.33 87.3868 177.542C87.5541 192.461 87.0926 207.288 87.8253 222.225C88.0387 226.75 88.4816 231.262 89.1522 235.742C89.774 240.244 90.8785 244.665 92.4464 248.93C93.2642 251.2 94.5252 253.285 96.1561 255.063L96.8022 255.64L97.4945 256.148C97.7426 256.286 97.9791 256.43 98.2388 256.569L99.0811 256.979C100.2 257.521 101.343 258.023 102.496 258.507C107.132 260.404 111.918 261.909 116.804 263.007C122.835 264.376 128.957 265.309 135.121 265.8C144.46 266.573 153.848 266.521 163.177 265.644C166.777 265.286 170.325 264.79 173.821 264.115C177.293 263.486 180.709 262.585 184.039 261.421C185.447 260.925 186.791 260.263 188.043 259.448C188.524 259.113 188.945 258.699 189.289 258.225C189.652 257.769 189.946 257.336 190.212 256.938C190.629 256.272 190.999 255.578 191.32 254.861C191.833 253.707 192.087 252.998 192.427 252.409C192.583 252.144 192.721 251.769 192.848 251.602C193.056 251.313 193.304 251.775 193.333 252.929C193.292 254.704 192.783 256.438 191.856 257.954C191.419 258.699 190.92 259.405 190.362 260.065C189.728 260.76 188.983 261.345 188.158 261.796C186.66 262.616 185.085 263.289 183.456 263.804C180.248 264.833 176.97 265.633 173.648 266.198C166.932 267.342 160.141 267.998 153.329 268.159C143.135 268.473 132.935 267.809 122.868 266.175L122.85 266.105Z" fill="#3B2C7D"/>
<path d="M201.577 197.187L200.769 206.123C200.683 207.208 200.631 208.298 200.521 209.383C200.137 213.229 199.716 217.058 199.258 220.869C199.068 222.565 198.877 224.273 198.681 225.963C198.571 227.048 198.433 228.138 198.266 229.223C198.109 230.314 197.872 231.392 197.556 232.448C197.371 233.106 197.054 232.927 196.835 232.292C196.705 231.888 196.628 231.47 196.604 231.046C196.573 230.484 196.593 229.92 196.662 229.362C197.239 225.023 197.637 220.615 198.173 216.179C198.491 213.525 198.589 210.744 198.75 208.015L199.494 199.038C199.644 197.192 199.794 195.34 199.939 193.494C200.158 190.696 200.435 187.887 200.643 185.1C200.735 184.021 200.804 182.942 200.856 181.869C200.908 180.796 201.012 179.723 201.121 178.644C201.185 178.171 201.237 177.704 201.318 177.225C201.373 176.85 201.448 176.478 201.543 176.112C201.626 175.853 201.73 175.602 201.854 175.361C201.99 175.049 202.242 174.803 202.558 174.675C202.674 174.615 202.796 174.567 202.921 174.531C203.285 174.485 203.446 175.275 203.291 176.475C203.262 177.427 203.146 178.356 203.094 179.319C203.043 180.283 202.956 181.258 202.881 182.244C202.714 184.217 202.546 186.219 202.379 188.221C202.125 191.215 201.877 194.221 201.623 197.215L201.577 197.187Z" fill="#3B2C7D"/>
<path d="M165.34 183.461C160.534 183.652 155.722 183.681 150.917 183.519C146.111 183.358 141.317 183.017 136.551 182.417C134.821 182.238 133.09 181.984 131.359 181.742C129.628 181.5 127.897 181.211 126.167 180.9C120.091 179.77 114.093 178.259 108.207 176.377C106.747 175.875 105.271 175.419 103.822 174.883L99.4897 173.244C96.5651 172.161 93.7473 170.809 91.0724 169.206C89.8612 168.457 88.747 167.562 87.7551 166.54C86.7084 165.486 85.9341 164.193 85.4993 162.773C85.0786 161.315 85.1007 159.765 85.5628 158.319C86.056 156.933 86.8432 155.669 87.8705 154.615C89.1174 153.301 90.5337 152.158 92.082 151.217C93.6 150.279 95.1941 149.471 96.8474 148.8C100.129 147.417 103.633 146.636 107.192 146.492C108.305 146.521 108.784 146.671 108.755 146.786C108.726 146.902 108.178 147.063 107.301 147.363C106.424 147.663 105.178 148.033 103.724 148.517C102.27 149.002 100.597 149.671 98.7917 150.323C95.6186 151.552 92.532 153.208 90.1378 155.406C88.9899 156.421 88.1085 157.703 87.5705 159.138C87.3603 159.813 87.282 160.522 87.3397 161.227C87.3983 161.944 87.5941 162.643 87.9167 163.286C88.6818 164.671 89.7485 165.866 91.0378 166.783C92.407 167.794 93.8717 168.669 95.4109 169.396C96.9686 170.158 98.5897 170.821 100.24 171.496L105.201 173.406C113.396 176.272 121.843 178.357 130.43 179.631C132.796 179.965 135.161 180.335 137.538 180.565C139.915 180.796 142.303 181.027 144.686 181.229C145.88 181.315 147.074 181.356 148.269 181.425C149.463 181.494 150.663 181.552 151.857 181.563L155.451 181.638H159.04C164.936 181.552 170.832 181.194 176.688 180.542C178.903 180.265 181.13 180.034 183.328 179.677C185.526 179.319 187.724 178.915 189.882 178.396C192.037 177.889 194.157 177.244 196.228 176.463C198.271 175.72 200.201 174.697 201.963 173.423C203.282 172.493 204.316 171.214 204.951 169.731C205.093 169.374 205.201 169.005 205.274 168.629C205.327 168.247 205.349 167.861 205.338 167.475C205.308 166.698 205.156 165.931 204.888 165.202C204.305 163.699 203.43 162.327 202.315 161.163C201.176 159.988 199.902 158.952 198.519 158.077C197.29 157.281 196.021 156.549 194.717 155.885C192.276 154.598 190.592 153.825 189.467 153.167C188.653 152.748 187.919 152.189 187.297 151.517C187.09 151.304 186.897 151.076 186.72 150.836C186.57 150.531 187.049 150.542 188.042 150.836C189.551 151.275 191.03 151.815 192.467 152.452C193.88 153.063 195.305 153.721 196.707 154.465C198.129 155.225 199.501 156.075 200.815 157.009C202.175 157.999 203.415 159.145 204.507 160.425C205.648 161.78 206.507 163.349 207.034 165.04C207.097 165.265 207.172 165.479 207.219 165.71L207.334 166.402C207.404 166.875 207.432 167.354 207.42 167.833C207.39 168.805 207.18 169.763 206.803 170.659C206.04 172.359 204.847 173.831 203.342 174.929C201.971 175.977 200.482 176.86 198.905 177.559C197.376 178.247 195.805 178.841 194.203 179.336C189.507 180.727 184.695 181.693 179.826 182.221L176.209 182.654L172.58 182.994C171.374 183.115 170.163 183.202 168.951 183.271C167.74 183.34 166.528 183.438 165.317 183.49L165.34 183.461Z" fill="#3B2C7D"/>
<path d="M124.932 172.344C128.717 173.054 132.542 173.637 136.384 174.173C140.226 174.71 144.045 175.206 147.922 175.535C150.732 175.777 153.542 175.887 156.351 175.99C161.304 176.182 166.263 176.099 171.207 175.742C176.139 175.394 181.039 174.696 185.872 173.654C187.994 173.199 190.068 172.54 192.063 171.687C193.01 171.283 193.894 170.745 194.688 170.089C195.029 169.794 195.314 169.44 195.53 169.044C195.708 168.704 195.77 168.315 195.709 167.937C195.601 167.387 195.357 166.873 194.999 166.442L194.688 166.085L194.336 165.715C194.105 165.462 193.851 165.231 193.609 164.994C192.615 164.047 191.554 163.172 190.436 162.375C188.169 160.782 185.787 159.359 183.311 158.117C181.765 157.333 182.192 156.889 183.795 156.992C186.392 157.309 188.871 158.26 191.013 159.762C192.268 160.61 193.462 161.547 194.584 162.565C195.161 163.085 195.692 163.615 196.211 164.181C196.499 164.486 196.769 164.807 197.018 165.144C197.308 165.523 197.55 165.936 197.74 166.373C197.956 166.869 198.087 167.397 198.126 167.937C198.154 168.51 198.066 169.083 197.867 169.621C197.49 170.538 196.884 171.343 196.107 171.958C194.826 172.935 193.399 173.704 191.878 174.237C189.066 175.235 186.17 175.977 183.224 176.452C180.34 176.96 177.409 177.317 174.484 177.577C167.349 178.247 160.175 178.411 153.017 178.067C149.082 177.86 145.159 177.49 141.253 177.029C137.347 176.567 133.482 175.996 129.593 175.385C124.801 174.67 120.048 173.708 115.355 172.5C113.584 172.027 111.813 171.514 110.065 170.919C108.317 170.325 106.603 169.696 104.872 168.946C103.175 168.216 101.519 167.393 99.9108 166.483C98.2479 165.592 96.7241 164.463 95.3877 163.131C94.8224 162.554 94.3927 161.858 94.13 161.094C93.9876 160.665 93.9462 160.209 94.0089 159.762C94.0449 159.536 94.1009 159.314 94.1762 159.098C94.2685 158.896 94.3666 158.7 94.4762 158.521L94.857 158.014L95.2954 157.587C95.4421 157.452 95.5983 157.329 95.7627 157.217C95.907 157.108 96.0512 157.004 96.2012 156.906C96.7781 156.49 97.3896 156.11 98.0012 155.752C100.449 154.32 103.03 153.13 105.709 152.198C106.863 151.783 108.017 151.385 109.251 151.044C110.826 150.573 112.437 150.238 114.068 150.04C114.823 149.917 115.596 149.982 116.318 150.231C116.565 150.3 116.803 150.396 117.028 150.519C117.282 150.71 116.965 150.981 116.186 151.292C115.407 151.604 114.155 151.967 112.557 152.394C110.168 153.01 107.812 153.751 105.501 154.615C103.175 155.488 100.93 156.563 98.7916 157.829C98.2608 158.14 97.7473 158.481 97.2512 158.827L96.882 159.098L96.7897 159.162L96.6858 159.265C96.547 159.394 96.4249 159.539 96.3223 159.698C96.2587 159.802 96.2193 159.918 96.2073 160.039C96.1953 160.16 96.211 160.282 96.2531 160.396C96.3979 160.818 96.6254 161.206 96.9223 161.539C97.7346 162.381 98.6495 163.117 99.6454 163.731C100.71 164.404 101.81 165.02 102.94 165.577C104.63 166.419 106.401 167.198 108.161 167.885C109.92 168.571 111.79 169.148 113.636 169.702C117.358 170.767 121.132 171.639 124.943 172.315L124.932 172.344Z" fill="#3B2C7D"/>
<path d="M162.491 159.715C161.828 159.565 161.159 159.421 160.484 159.3C160.236 159.26 159.982 159.3 159.74 159.231C158.868 159.069 158.009 158.896 157.109 158.781C156.726 158.738 156.34 158.728 155.955 158.752C155.455 158.847 154.941 158.83 154.449 158.7C154.143 158.573 154.541 156.79 155.147 156.779C156.207 156.758 157.264 156.902 158.28 157.206C158.914 157.333 159.556 157.414 160.201 157.448C160.905 157.552 161.603 157.679 162.301 157.817L163.593 158.083L165.543 158.504C166.051 158.59 166.576 158.602 167.101 158.671C167.22 158.677 167.338 158.694 167.453 158.723C167.88 158.838 167.966 159.006 167.868 159.496C167.868 159.606 167.828 159.715 167.793 159.825C167.758 159.985 167.674 160.13 167.553 160.24C167.433 160.351 167.281 160.421 167.118 160.442C166.239 160.443 165.362 160.345 164.505 160.148C163.847 160.027 163.184 159.877 162.509 159.762L162.491 159.715Z" fill="#3B2C7D"/>
<path d="M114.589 159.53C113.297 159.799 112.021 160.134 110.764 160.534C110.308 160.684 109.864 160.875 109.408 161.036C107.796 161.587 106.221 162.242 104.695 162.998C104.027 163.347 103.386 163.746 102.779 164.192C102.042 164.802 101.272 165.37 100.472 165.894C100.223 166.032 99.8946 165.68 99.785 165.161C99.7127 164.879 99.7179 164.583 99.8002 164.304C99.8825 164.024 100.039 163.773 100.252 163.575C101.903 162.286 103.752 161.275 105.727 160.58C106.91 160.171 108.035 159.571 109.241 159.15C110.548 158.699 111.876 158.314 113.222 157.996C114.052 157.8 114.877 157.598 115.714 157.454C116.972 157.177 118.252 157.038 119.504 156.807C120.485 156.686 121.431 156.398 122.389 156.265C122.602 156.23 122.81 156.184 123.029 156.161C123.837 156.075 124.102 156.161 124.293 156.663C124.342 156.77 124.385 156.88 124.42 156.992C124.512 157.367 124.2 157.702 123.635 157.852C122.798 158.077 121.945 158.209 121.079 158.382C120.647 158.463 120.208 158.532 119.77 158.596C119.331 158.659 118.898 158.752 118.454 158.821C117.802 158.93 117.15 159.034 116.504 159.179C115.858 159.323 115.195 159.421 114.554 159.594L114.589 159.53Z" fill="#3B2C7D"/>
<path d="M127.154 224.717C125.712 223.442 124.27 222.173 122.879 220.84L120.779 218.867C120.081 218.204 119.412 217.517 118.725 216.842L116.683 214.817C116.002 214.136 115.35 213.432 114.681 212.74L112.691 210.657L111.716 209.642C111.387 209.313 111.052 208.99 110.706 208.667C109.333 207.369 107.862 206.117 106.501 204.68C105.047 203.236 103.916 201.5 103.183 199.586C102.449 197.579 102.39 195.387 103.016 193.344C103.357 192.293 103.931 191.333 104.695 190.534C105.461 189.751 106.383 189.136 107.4 188.729C108.879 188.153 110.488 187.996 112.05 188.273C113.55 188.542 114.987 189.084 116.291 189.871C116.949 190.26 117.569 190.71 118.143 191.215C118.703 191.72 119.217 192.274 119.677 192.871C120.595 194.025 121.333 195.23 122.112 196.332C122.458 196.817 122.81 197.279 123.179 197.705C123.564 198.131 123.976 198.53 124.414 198.9L127.189 201.317C129.024 202.944 130.927 204.49 132.791 206.082C136.587 209.186 140.4 212.267 144.358 215.157C152.239 220.961 160.512 226.332 169.362 230.44C173.278 232.292 177.367 233.755 181.57 234.807C183.654 235.327 185.776 235.68 187.916 235.863C190.029 236.065 192.158 236.025 194.262 235.742C194.937 235.679 195.589 235.505 196.252 235.396L197.233 235.136C197.556 235.05 197.879 234.957 198.197 234.842C199.468 234.421 200.687 233.858 201.831 233.163C202.974 232.481 204.025 231.655 204.958 230.706C205.893 229.829 206.596 228.735 207.006 227.521C207.385 226.296 207.468 224.999 207.249 223.736C207.025 222.427 206.638 221.152 206.095 219.94C205.545 218.693 204.909 217.487 204.191 216.329C203.47 215.175 202.754 213.98 201.935 212.867C199.881 210.092 200.343 210.3 202.402 212.423C203.857 213.884 205.187 215.465 206.377 217.148C207.192 218.318 207.881 219.571 208.431 220.886C209.084 222.455 209.393 224.144 209.337 225.842C209.294 226.662 209.145 227.472 208.893 228.254C208.629 229.032 208.269 229.775 207.82 230.463C207.372 231.122 206.858 231.733 206.285 232.286C206.022 232.564 205.742 232.826 205.449 233.071C205.16 233.325 204.872 233.579 204.566 233.804C203.36 234.746 202.032 235.522 200.62 236.111C199.927 236.429 199.206 236.654 198.491 236.902C198.133 237.011 197.764 237.098 197.401 237.196C197.037 237.294 196.674 237.386 196.299 237.444C193.377 237.999 190.389 238.121 187.431 237.807C184.522 237.498 181.648 236.918 178.847 236.077C177.445 235.696 176.083 235.2 174.71 234.732C173.337 234.265 171.999 233.717 170.672 233.117C168.006 231.998 165.433 230.682 162.883 229.344C157.824 226.586 152.931 223.535 148.229 220.205C142.599 216.242 137.031 211.973 131.579 207.513C130.224 206.388 128.874 205.252 127.541 204.121L123.531 200.659C123.191 200.359 122.879 200.082 122.522 199.765C122.173 199.44 121.845 199.094 121.541 198.727C120.965 198.022 120.426 197.289 119.925 196.529C119.056 195.09 118.01 193.766 116.81 192.588C115.45 191.433 113.834 190.62 112.097 190.217C110.41 189.813 108.632 190.082 107.141 190.967C106.4 191.392 105.766 191.979 105.285 192.685C104.804 193.39 104.49 194.195 104.366 195.04C104.119 196.818 104.419 198.629 105.225 200.232C106.107 201.862 107.251 203.336 108.612 204.594C109.962 205.932 111.427 207.179 112.824 208.569L116.827 212.746C118.154 214.136 119.551 215.457 120.906 216.819C121.737 217.661 122.637 218.452 123.474 219.265C124.31 220.079 125.204 220.892 126.075 221.677C127.847 223.24 129.595 224.838 131.429 226.327C133.264 227.815 135.099 229.309 136.956 230.769C138.814 232.229 140.735 233.607 142.725 234.917C145.656 236.971 148.714 238.846 151.812 240.64C154.91 242.434 158.129 244.009 161.395 245.457C167.9 248.367 174.796 250.311 181.864 251.227C184.578 251.546 187.314 251.644 190.045 251.521C191.401 251.463 192.745 251.307 194.083 251.117C195.408 250.907 196.718 250.615 198.006 250.24C198.641 250.038 199.27 249.825 199.876 249.571C200.481 249.317 201.081 248.994 201.687 248.723C202.293 248.452 202.841 248.065 203.418 247.725L204.231 247.148C204.508 246.974 204.772 246.781 205.022 246.571C207.094 244.969 208.711 242.853 209.712 240.432C210.117 239.36 210.407 238.248 210.577 237.115C210.758 235.97 210.845 234.813 210.837 233.654V232.857C210.837 232.6 210.82 232.346 210.785 232.096C210.75 231.846 210.733 231.604 210.733 231.369C210.704 231.132 210.676 230.896 210.652 230.671C210.595 230.209 210.549 229.782 210.468 229.413C210.387 229.044 210.289 228.64 210.191 228.259C209.781 226.8 209.372 225.623 209.037 224.659C208.374 222.721 207.987 221.619 207.71 220.679C207.573 220.262 207.411 219.853 207.226 219.455C207.145 219.225 207.226 219.202 207.554 219.404C208.049 219.777 208.475 220.234 208.812 220.754C210.237 222.905 211.32 225.264 212.026 227.746C212.215 228.375 212.367 229.014 212.481 229.661C212.55 230.296 212.666 230.919 212.706 231.559C212.747 232.2 212.81 232.84 212.799 233.492C212.799 233.815 212.799 234.138 212.799 234.461L212.741 235.436C212.588 238.119 211.801 240.727 210.444 243.045C209.087 245.364 207.199 247.328 204.935 248.775C204.652 248.959 204.387 249.161 204.099 249.352L203.227 249.836C202.654 250.17 202.06 250.468 201.45 250.73C201.145 250.869 200.874 251.013 200.539 251.14L199.616 251.538C198.981 251.746 198.341 251.948 197.695 252.115C192.531 253.402 187.2 253.442 181.979 252.859C176.752 252.208 171.61 250.991 166.645 249.23C162.967 247.918 159.376 246.376 155.891 244.615C154.16 243.761 152.429 242.804 150.727 241.863L148.218 240.375C147.37 239.884 146.55 239.365 145.731 238.834C142.425 236.775 139.275 234.479 136.154 232.159C133.033 229.84 130.05 227.342 127.137 224.769L127.154 224.717Z" fill="#3B2C7D"/>
<path d="M169.386 150.173C168.413 152.323 167.451 154.488 166.501 156.669C166.161 157.465 165.878 158.284 165.532 159.075C164.297 161.867 163.086 164.665 161.932 167.492C161.418 168.744 160.986 170.036 160.524 171.294C159.989 172.939 159.363 174.553 158.649 176.129C158.413 176.619 158.101 176.434 157.905 175.88C157.653 175.088 157.641 174.239 157.87 173.44C158.828 170.026 160.043 166.69 161.505 163.459C162.388 161.509 163.057 159.421 163.859 157.367C164.741 155.14 165.705 152.936 166.657 150.738L168.44 146.7C168.901 145.684 169.368 144.663 169.83 143.642C170.291 142.621 170.776 141.611 171.215 140.596C171.936 139.021 172.507 137.411 173.274 135.865C173.441 135.525 173.574 135.179 173.759 134.838C173.987 134.383 174.285 133.966 174.641 133.604C174.876 133.409 175.174 133.308 175.478 133.321C175.608 133.309 175.74 133.309 175.87 133.321C176.066 133.361 176.159 133.546 176.182 133.852C176.198 134.263 176.121 134.674 175.957 135.052C175.674 135.744 175.409 136.459 175.132 137.18C174.855 137.902 174.555 138.617 174.261 139.338C173.62 140.769 172.968 142.223 172.322 143.671C171.347 145.829 170.361 148.004 169.438 150.196L169.386 150.173Z" fill="#3B2C7D"/>
<path d="M180.334 153.802C179.407 155.76 178.504 157.727 177.623 159.704C177.305 160.431 177.046 161.175 176.711 161.896L173.33 169.564C172.829 170.717 172.373 171.871 171.888 172.99C171.582 173.723 171.271 174.456 170.913 175.171C170.579 175.894 170.194 176.592 169.759 177.26C169.482 177.681 169.304 177.496 169.269 177C169.243 176.276 169.371 175.554 169.644 174.883L170.088 173.775C170.227 173.4 170.365 173.025 170.515 172.656L171.438 170.435C172.061 168.958 172.684 167.464 173.359 165.987C174.167 164.221 174.819 162.3 175.563 160.454C176.382 158.423 177.227 156.402 178.096 154.39C178.627 153.15 179.18 151.921 179.74 150.687C180.582 148.823 181.471 146.983 182.371 145.148C183.075 143.723 183.657 142.264 184.402 140.873C184.563 140.562 184.707 140.256 184.898 139.956C185.636 138.86 185.988 138.594 186.553 138.664C186.682 138.67 186.81 138.689 186.934 138.721C187.315 138.848 187.292 139.471 186.905 140.302C186.761 140.614 186.605 140.908 186.467 141.231C186.329 141.554 186.196 141.871 186.034 142.177C185.723 142.8 185.4 143.417 185.094 144.064L184.113 145.962C183.796 146.608 183.479 147.26 183.155 147.912L181.73 150.86L180.357 153.819L180.334 153.802Z" fill="#3B2C7D"/>
<path d="M199.299 115.638C200.839 116.186 202.385 116.711 203.96 117.369C204.353 117.536 204.751 117.71 205.149 117.917C205.588 118.136 206.004 118.399 206.389 118.702C206.672 118.919 206.903 119.197 207.064 119.515C207.141 119.681 207.203 119.852 207.249 120.029C207.283 120.166 207.31 120.304 207.33 120.444C207.381 120.927 207.381 121.415 207.33 121.898C207.227 123.163 206.985 124.413 206.608 125.625C205.953 127.685 205.074 129.668 203.989 131.538C202.909 133.425 201.597 135.17 200.083 136.731C198.748 138.134 197.212 139.331 195.526 140.285C194.428 140.892 193.246 141.333 192.018 141.594C190.788 141.854 189.52 141.882 188.28 141.675C187.512 141.536 187.703 141.173 188.337 140.85C189.271 140.42 190.25 140.099 191.257 139.892C193.42 139.383 195.426 138.353 197.101 136.892C198.849 135.381 200.377 133.634 201.641 131.7C203.236 129.291 204.386 126.616 205.039 123.802C205.228 123.062 205.35 122.307 205.403 121.546C205.435 121.223 205.43 120.898 205.385 120.577C205.372 120.496 205.341 120.419 205.293 120.352C205.293 120.317 205.247 120.312 205.201 120.265C205.144 120.214 205.082 120.167 205.016 120.127C204.379 119.716 203.7 119.373 202.991 119.106C202.247 118.806 201.48 118.529 200.712 118.252L194.978 116.244C192.093 115.206 189.208 114.04 186.405 112.783C184.23 111.802 182.083 110.844 180.012 109.679C179.551 109.425 179.101 109.177 178.657 108.894C178.049 108.551 177.492 108.126 177.001 107.631C176.878 107.47 176.777 107.293 176.701 107.106C176.652 106.946 176.621 106.782 176.608 106.615C176.608 106.477 176.551 106.327 176.551 106.235C176.551 106.142 176.753 106.067 177.162 106.096C177.711 106.169 178.236 106.366 178.697 106.673C182.389 108.782 186.217 110.646 190.155 112.252C193.143 113.475 196.218 114.56 199.339 115.61L199.299 115.638Z" fill="#3B2C7D"/>
<path d="M170.318 119.065C169.889 120.572 169.611 122.118 169.487 123.681C169.458 124.257 169.458 124.835 169.487 125.411C169.5 127.428 169.967 129.416 170.855 131.227C171.263 132.028 171.781 132.768 172.395 133.425C173.211 134.246 174.076 135.017 174.986 135.732C175.262 135.981 175.084 136.194 174.662 136.257C174.051 136.341 173.432 136.186 172.932 135.825C170.724 134.334 169.135 132.09 168.461 129.513C168.023 127.989 167.761 126.419 167.682 124.834C167.659 123.114 167.835 121.397 168.207 119.717C168.437 118.696 168.726 117.686 169.049 116.7C169.558 115.212 170.145 113.752 170.809 112.327C171.305 111.225 171.755 110.111 172.314 109.032C172.441 108.796 172.545 108.554 172.684 108.323C173.209 107.469 173.52 107.29 174.045 107.417C174.169 107.44 174.29 107.473 174.409 107.515C174.778 107.677 174.807 108.184 174.512 108.807C173.641 110.671 172.689 112.581 171.864 114.577C171.245 116.044 170.731 117.554 170.324 119.094L170.318 119.065Z" fill="#3B2C7D"/>
<path d="M211.608 106.286L210.454 108.946C210.322 109.269 210.218 109.609 210.079 109.932C209.577 111.086 209.052 112.194 208.516 113.319C208.285 113.821 208.06 114.329 207.852 114.836C207.593 115.497 207.246 116.12 206.82 116.688C206.681 116.861 206.52 116.74 206.41 116.469C206.269 116.138 206.251 115.768 206.358 115.425C206.583 114.762 206.847 114.113 207.149 113.481C207.431 112.834 207.725 112.2 208.054 111.559C208.408 110.762 208.716 109.945 208.977 109.113L209.981 106.402L210.599 104.729C210.893 103.881 211.233 103.038 211.504 102.184C211.718 101.515 211.845 100.834 212.047 100.171C212.093 100.021 212.122 99.8767 212.174 99.7324C212.375 99.1901 212.543 99.0632 212.958 99.1036C213.051 99.1043 213.144 99.114 213.235 99.1325C213.541 99.1959 213.691 99.5074 213.639 99.9228C213.549 100.546 213.426 101.165 213.27 101.775C213.091 102.381 212.877 102.986 212.658 103.592C212.341 104.498 211.966 105.392 211.614 106.292L211.608 106.286Z" fill="#3B2C7D"/>
<path d="M212.14 88.0326C212.304 87.9966 212.473 87.9966 212.636 88.0326C212.85 88.095 213.036 88.2296 213.161 88.4134C213.402 88.9057 213.506 89.4537 213.461 89.9999C213.452 90.4177 213.411 90.8342 213.34 91.2461L213.225 91.9268C213.184 92.1576 213.121 92.3941 213.069 92.6249L212.907 93.323L212.781 93.7672L212.561 94.5518C212.342 95.3076 212.14 96.0634 211.892 96.8076C211.004 99.4211 210 102 209.007 104.533L207.692 107.925C207.145 109.383 206.511 110.806 205.794 112.188C205.557 112.621 205.413 112.477 205.384 112.021C205.364 111.313 205.466 110.607 205.684 109.933C206.602 106.91 207.784 104.002 208.956 101.042C209.665 99.3115 210.202 97.3788 210.75 95.5268L211.194 93.998L211.5 92.8441C211.65 92.3739 211.727 91.8838 211.731 91.3903C211.728 91.307 211.711 91.2249 211.679 91.148C211.604 91.148 211.563 91.2057 211.511 91.2461C211.419 91.3512 211.333 91.4609 211.252 91.5749C211.084 91.8057 210.917 92.0711 210.738 92.3595L210.542 92.6884L210.179 93.323L209.457 94.6153C208.967 95.4865 208.494 96.3461 208.05 97.2461C207.352 98.6191 206.775 100.015 206.152 101.4C206.002 101.7 205.875 101.977 205.719 102.3C205.142 103.413 204.894 103.713 204.519 103.852C204.444 103.892 204.364 103.925 204.282 103.95C204.161 103.95 204.109 103.84 204.109 103.586C204.116 103.222 204.176 102.86 204.288 102.513C204.49 101.844 204.698 101.175 204.929 100.506C205.159 99.8365 205.465 99.1961 205.754 98.5441C206.331 97.2345 206.954 95.9307 207.606 94.6326C207.854 94.1538 208.096 93.6691 208.356 93.1961L209.232 91.673C209.769 90.773 210.306 89.8557 210.831 89.1172C211.042 88.8024 211.292 88.5155 211.575 88.2634C211.744 88.1235 211.94 88.0212 212.152 87.9634L212.14 88.0326Z" fill="#3B2C7D"/>
<path d="M200.031 92.9885C200.695 91.9616 201.376 90.9404 202.097 89.9366C202.626 89.1934 203.205 88.4861 203.828 87.8193C204.259 87.2717 204.874 86.8987 205.558 86.7693C205.717 86.7532 205.877 86.775 206.026 86.8327C206.188 86.9033 206.326 87.0195 206.424 87.1674C206.536 87.3982 206.61 87.6456 206.643 87.9001C206.649 88.2022 206.61 88.5035 206.528 88.7943L206.412 89.2501L206.251 89.7347C206.153 90.0635 206.037 90.3751 205.922 90.6866L205.633 91.4481L205.42 92.025L204.543 94.2001L202.755 98.5212C202.241 99.8077 201.722 101.094 201.208 102.369L200.193 104.792C199.876 105.617 199.443 106.396 199.039 107.187C198.78 107.671 198.693 107.556 198.71 107.06C198.72 106.726 198.747 106.393 198.791 106.062C198.791 105.854 198.849 105.635 198.889 105.404L198.958 105.046C198.999 104.931 199.033 104.815 199.074 104.694C199.651 102.998 200.256 101.302 200.897 99.6231C201.537 97.9443 202.23 96.277 202.933 94.6097C203.331 93.6577 203.695 92.677 204.041 91.6847L204.428 90.5308C204.48 90.3693 204.537 90.202 204.583 90.0404C204.583 89.9885 204.583 89.9654 204.624 89.9251C204.668 89.8194 204.68 89.7029 204.658 89.5904C204.601 89.4693 204.474 89.5558 204.405 89.5904C204.239 89.7199 204.088 89.867 203.955 90.0289L203.73 90.3001L203.222 90.9808C202.87 91.4712 202.53 91.9674 202.189 92.4693C201.358 93.7039 200.556 94.9674 199.783 96.2481C198.63 98.1866 197.476 100.154 196.426 102.15C195.624 103.702 194.931 105.277 194.245 106.858C194.095 107.204 193.962 107.55 193.789 107.89C193.584 108.349 193.342 108.791 193.068 109.212C192.921 109.421 192.722 109.588 192.491 109.696C192.406 109.74 192.317 109.776 192.226 109.806C192.099 109.806 192.047 109.69 192.047 109.408C192.063 108.996 192.137 108.588 192.266 108.196C192.747 106.665 193.343 105.172 194.049 103.731C194.735 102.254 195.491 100.789 196.27 99.3347C197.424 97.177 198.681 95.0481 199.98 92.9539L200.031 92.9885Z" fill="#3B2C7D"/>
<path d="M196.026 92.3075C195.368 93.3979 194.722 94.4998 194.11 95.6191C193.885 96.0287 193.706 96.4556 193.487 96.871C192.714 98.3191 191.941 99.7556 191.22 101.244C190.891 101.896 190.643 102.577 190.331 103.234C189.979 104.102 189.556 104.939 189.068 105.738C188.901 105.986 188.733 105.859 188.624 105.542C188.479 105.106 188.465 104.636 188.583 104.192C189.108 102.357 189.839 100.588 190.764 98.9191C191.312 97.9095 191.705 96.7787 192.189 95.7056C192.703 94.5518 193.251 93.3575 193.816 92.1921C194.168 91.4768 194.508 90.7614 194.883 90.0575C195.46 88.9845 196.037 87.9344 196.585 86.8614C196.995 86.0191 197.324 85.1306 197.814 84.3344C197.918 84.1498 198.005 83.9652 198.126 83.7575C198.587 83.1056 198.882 82.9902 199.349 83.1806C199.457 83.214 199.563 83.2545 199.666 83.3018C199.989 83.4864 200.047 83.9306 199.862 84.4152C199.597 85.1595 199.32 85.9268 199.014 86.7229C198.708 87.5191 198.276 88.2229 197.86 88.9671L196.978 90.6518L196.533 91.4998L196.055 92.3306L196.026 92.3075Z" fill="#3B2C7D"/>
<path d="M187.32 86.042C188.081 84.8881 188.86 83.7747 189.702 82.6728L190.02 82.2574C190.077 82.1824 190.112 82.1305 190.187 82.0439L190.412 81.7843L190.862 81.2651C190.897 81.2247 190.931 81.1785 190.972 81.1381L191.139 81.0112L191.468 80.7516C191.661 80.576 191.892 80.4477 192.143 80.3766C192.366 80.3044 192.601 80.2769 192.835 80.2958C193.07 80.313 193.296 80.3927 193.49 80.5266C193.684 80.6605 193.838 80.8437 193.937 81.0574C194.071 81.3578 194.111 81.6915 194.052 82.0151L193.781 82.8862L193.233 84.617L193.112 85.0035L192.991 85.3208L192.76 85.9324L192.293 87.1612L191.329 89.6016C190.666 91.2228 189.997 92.8381 189.304 94.442L187.499 98.7401C187.112 99.6516 186.749 100.563 186.385 101.475L185.866 102.83C185.68 103.263 185.539 103.714 185.445 104.175C185.416 104.688 185.295 104.752 185.07 104.175C184.928 103.536 184.905 102.877 185.001 102.23C185.053 101.954 185.126 101.682 185.22 101.417C186.593 97.5574 188.197 93.917 189.766 90.1843C190.245 89.0708 190.666 87.9112 191.081 86.7228L192.16 83.5151L192.42 82.7651L192.466 82.6208C192.466 82.592 192.466 82.5631 192.466 82.5285C192.483 82.4682 192.483 82.4043 192.466 82.3439C192.438 82.2886 192.391 82.2459 192.333 82.2244C192.275 82.203 192.211 82.2044 192.154 82.2285C192.036 82.2722 191.929 82.3434 191.843 82.4362C191.767 82.5129 191.696 82.5938 191.629 82.6785L191.387 82.9612L190.776 83.7458C190.372 84.2824 189.974 84.8362 189.587 85.3901C188.629 86.7516 187.712 88.1593 186.829 89.5785C185.481 91.722 184.243 93.9325 183.12 96.2016C182.278 97.9319 181.568 99.7236 180.997 101.561C180.87 101.959 180.726 102.346 180.627 102.75C180.183 104.238 180.108 104.688 179.727 105C179.651 105.074 179.57 105.143 179.485 105.207C179.364 105.277 179.272 105.144 179.214 104.838C179.18 104.648 179.161 104.455 179.156 104.261C179.144 103.989 179.161 103.716 179.208 103.448C179.283 103.004 179.347 102.554 179.433 102.104C179.52 101.654 179.658 101.221 179.768 100.777C179.877 100.332 180.056 99.9112 180.206 99.4728C180.356 99.0343 180.512 98.6016 180.697 98.1804C181.389 96.4497 182.208 94.7997 183.074 93.1554C184.366 90.7208 185.797 88.3497 187.297 86.0247L187.32 86.042Z" fill="#3B2C7D"/>
<path d="M182.808 123.525C184.424 124.315 186.045 125.088 187.683 125.833C188.26 126.098 188.901 126.317 189.501 126.588C191.606 127.529 193.729 128.458 195.847 129.317C196.799 129.692 197.774 130.033 198.731 130.327C199.978 130.731 201.27 130.944 202.441 131.579C202.81 131.769 202.689 132.029 202.268 132.271C202.003 132.413 201.722 132.524 201.431 132.6C201.258 132.648 201.08 132.679 200.901 132.692C200.706 132.692 200.512 132.666 200.324 132.617C197.688 131.948 195.124 131.025 192.668 129.859C191.197 129.156 189.593 128.625 188.053 127.979C186.374 127.263 184.706 126.513 183.056 125.746L180.004 124.309L175.418 122.083C174.235 121.506 173.024 121.056 171.835 120.508C171.568 120.402 171.31 120.277 171.062 120.133C170.156 119.556 169.908 119.25 169.954 118.754C169.954 118.65 169.954 118.54 169.954 118.454C169.995 118.188 170.531 118.084 171.304 118.321C172.434 118.66 173.533 119.091 174.593 119.608C175.672 120.104 176.768 120.623 177.858 121.148C179.485 121.915 181.106 122.729 182.751 123.49L182.808 123.525Z" fill="#3B2C7D"/>
<path d="M176.769 116.025C176.886 115.749 177.017 115.48 177.161 115.217C177.207 115.125 177.23 115.016 177.282 114.923C177.467 114.594 177.663 114.277 177.83 113.954C177.906 113.81 177.962 113.657 177.998 113.498C178.014 113.291 178.085 113.091 178.205 112.921C178.303 112.812 179.094 113.216 179.036 113.469C178.926 113.902 178.73 114.308 178.459 114.664C178.324 114.887 178.214 115.125 178.13 115.373L177.767 116.152C177.692 116.308 177.617 116.464 177.553 116.625C177.452 116.866 177.373 117.115 177.317 117.369C177.308 117.469 177.308 117.57 177.317 117.669C177.329 117.767 177.329 117.866 177.317 117.964C177.317 118.01 177.317 118.05 177.317 118.091C177.288 118.252 177.207 118.298 177.052 118.327H176.948C176.885 118.329 176.823 118.312 176.771 118.276C176.719 118.241 176.68 118.19 176.659 118.131C176.468 117.744 176.425 117.301 176.538 116.885C176.6 116.582 176.681 116.283 176.78 115.991L176.769 116.025Z" fill="#3B2C7D"/>
<path d="M181.846 117.219C181.944 117.012 182.082 116.821 182.186 116.642C182.232 116.567 182.25 116.487 182.296 116.417C182.446 116.163 182.607 115.915 182.751 115.662C182.814 115.548 182.865 115.428 182.901 115.304C182.93 115.14 183.001 114.986 183.109 114.86C183.19 114.779 183.738 115.165 183.686 115.344C183.583 115.667 183.425 115.969 183.219 116.238C183.111 116.421 183.022 116.615 182.953 116.815C182.855 117.017 182.751 117.219 182.648 117.427L182.44 117.79C182.335 117.977 182.241 118.17 182.157 118.367C182.094 118.517 182.059 118.679 182.007 118.829C181.993 118.863 181.982 118.897 181.973 118.933C181.915 119.054 181.834 119.065 181.713 119.048H181.632C181.585 119.033 181.544 119.004 181.514 118.965C181.484 118.925 181.467 118.878 181.465 118.829C181.439 118.516 181.478 118.202 181.58 117.906C181.655 117.687 181.748 117.479 181.834 117.265L181.846 117.219Z" fill="#3B2C7D"/>
<path d="M185.569 119.458C185.656 119.308 185.748 119.163 185.834 119.008C185.863 118.95 185.869 118.881 185.898 118.823L186.261 118.246C186.309 118.153 186.342 118.054 186.359 117.952C186.394 117.825 186.359 117.669 186.527 117.588C186.694 117.508 187.363 117.981 187.323 118.108C187.246 118.353 187.114 118.578 186.936 118.765C186.843 118.898 186.774 119.046 186.734 119.204C186.659 119.365 186.579 119.533 186.492 119.694L186.348 120C186.273 120.156 186.169 120.3 186.106 120.456C186.042 120.611 186.059 120.733 185.99 120.848C185.98 120.876 185.967 120.904 185.95 120.929C185.881 121.015 185.811 121.015 185.644 120.929L185.534 120.877C185.431 120.825 185.352 120.733 185.315 120.623C185.248 120.391 185.262 120.142 185.356 119.919C185.408 119.761 185.476 119.608 185.557 119.463L185.569 119.458Z" fill="#3B2C7D"/>
<path d="M195.034 123.9L195.236 123.6C195.236 123.565 195.236 123.519 195.282 123.484C195.368 123.358 195.472 123.236 195.553 123.11C195.589 123.053 195.607 122.986 195.605 122.919C195.605 122.833 195.576 122.729 195.697 122.683C195.818 122.636 196.597 123.017 196.58 123.11C196.562 123.198 196.527 123.283 196.477 123.358C196.426 123.433 196.361 123.498 196.286 123.548C196.187 123.617 196.193 123.733 196.141 123.831C196.089 123.929 196.026 124.033 195.968 124.131C195.911 124.229 195.893 124.258 195.864 124.321C195.836 124.385 195.766 124.517 195.732 124.615C195.723 124.702 195.723 124.789 195.732 124.875C195.732 124.875 195.732 124.915 195.732 124.933C195.732 124.95 195.651 125.002 195.437 124.933L195.299 124.898C195.174 124.871 195.06 124.809 194.97 124.719C194.918 124.644 194.881 124.56 194.862 124.471C194.843 124.381 194.843 124.289 194.861 124.2C194.9 124.089 194.946 123.981 194.999 123.877L195.034 123.9Z" fill="#3B2C7D"/>
<path d="M154.317 153.461C154.894 150.184 155.28 146.879 155.626 143.561C155.77 142.35 155.799 141.132 155.92 139.921C156.305 135.644 156.59 131.354 156.774 127.05C156.867 125.14 156.895 123.219 156.93 121.321C156.908 118.87 157.068 116.421 157.409 113.994C157.518 113.232 157.772 113.365 157.986 114.029C158.31 115.081 158.479 116.175 158.488 117.277C158.488 119.752 158.407 122.232 158.349 124.725C158.292 127.217 158.159 129.715 157.968 132.225C157.755 135.225 157.686 138.363 157.449 141.456C157.207 144.836 156.797 148.206 156.33 151.563C156.192 152.596 155.99 153.623 155.828 154.656C155.667 155.688 155.499 156.715 155.251 157.736C154.674 160.84 153.895 163.932 153.024 166.967L152.015 170.469C151.63 171.623 151.234 172.767 150.826 173.902C150.665 174.409 150.473 174.907 150.249 175.39C150.036 175.84 149.845 176.215 149.672 176.544C149.514 176.79 149.337 177.024 149.142 177.242C148.93 177.514 148.66 177.735 148.351 177.888C148.25 177.946 148.146 177.998 148.04 178.044C147.901 178.044 147.878 177.888 147.913 177.507C147.979 176.946 148.089 176.39 148.242 175.846C149.061 173.907 149.701 171.807 150.451 169.765C151.028 167.648 151.767 165.542 152.251 163.35L152.857 160.927L153.353 158.469C153.515 157.644 153.711 156.831 153.843 156.006L154.242 153.525L154.317 153.461Z" fill="#3B2C7D"/>
<path d="M137.956 137.51C138.711 134.827 139.548 132.173 140.413 129.537C140.725 128.573 140.99 127.604 141.336 126.652C142.49 123.277 143.806 119.96 145.086 116.642C145.663 115.171 146.188 113.671 146.708 112.2C147.336 110.29 148.081 108.41 148.825 106.569C149.056 105.992 149.281 106.131 149.402 106.725C149.543 107.65 149.482 108.595 149.223 109.494C148.692 111.502 147.936 113.412 147.244 115.344C146.552 117.277 145.802 119.192 145.034 121.114C144.123 123.421 143.361 125.867 142.565 128.262C141.683 130.898 140.834 133.54 140.061 136.206C139.577 137.844 139.131 139.492 138.723 141.15C138.088 143.649 137.586 146.179 137.217 148.731C136.978 150.675 136.882 152.634 136.929 154.592C136.929 155.019 136.958 155.441 136.963 155.867C136.963 157.46 136.963 157.962 136.577 158.354C136.505 158.445 136.428 158.532 136.346 158.614C136.109 158.804 135.74 158.175 135.515 156.952L135.308 155.585C135.267 155.129 135.256 154.662 135.238 154.194C135.238 153.265 135.238 152.325 135.308 151.39C135.432 149.497 135.669 147.613 136.017 145.748C136.513 142.973 137.171 140.227 137.909 137.51H137.956Z" fill="#3B2C7D"/>
<path d="M162.901 105.986C162.81 106.678 162.569 107.341 162.197 107.931C162.095 108.091 161.979 108.241 161.851 108.381C161.712 108.519 161.568 108.652 161.424 108.779C161.11 109.006 160.759 109.176 160.386 109.281C160.065 109.38 159.734 109.442 159.399 109.465C159.087 109.5 158.787 109.511 158.482 109.517C157.888 109.527 157.295 109.502 156.705 109.442C155.852 109.377 155.004 109.26 154.166 109.09C152.693 108.78 151.259 108.306 149.891 107.677C148.452 107.079 147.192 106.119 146.234 104.89C145.807 104.28 145.572 103.557 145.559 102.813C145.585 102.115 145.732 101.426 145.991 100.777C146.274 99.9381 146.704 99.1566 147.261 98.4691C147.554 98.1011 147.919 97.7967 148.333 97.5745C148.748 97.3524 149.203 97.217 149.672 97.1768C150.249 97.1768 150.134 97.471 149.77 97.8056C149.407 98.1402 148.939 98.6018 148.432 99.1614C147.946 99.7076 147.566 100.34 147.312 101.025C147.168 101.378 147.049 101.74 146.955 102.109C146.903 102.306 146.897 102.438 146.862 102.594C146.851 102.742 146.851 102.89 146.862 103.038C146.96 103.704 147.284 104.315 147.78 104.769C148.333 105.307 148.953 105.77 149.626 106.148C151.406 107.059 153.334 107.645 155.32 107.879C156.403 108.053 157.5 108.124 158.597 108.092C159.099 108.092 159.599 108.018 160.08 107.873C160.483 107.707 160.817 107.408 161.026 107.025C161.303 106.468 161.454 105.858 161.47 105.236C161.506 104.571 161.473 103.904 161.372 103.246C161.292 102.732 161.174 102.225 161.02 101.729C161.02 101.683 160.986 101.636 160.968 101.584C160.951 101.533 160.968 101.533 160.934 101.521H160.859C160.762 101.55 160.664 101.573 160.564 101.59L160.062 101.665C159.866 101.688 159.674 101.706 159.486 101.717C158.716 101.759 157.943 101.734 157.178 101.642C155.479 101.493 153.825 101.015 152.309 100.234C151.971 100.064 151.645 99.8716 151.334 99.6575C150.18 98.8037 149.995 98.3421 150.087 97.8691C150.113 97.7555 150.125 97.6393 150.122 97.5229C150.122 97.471 150.076 97.4306 150.122 97.396C150.168 97.3614 150.214 97.3268 150.347 97.396C150.459 97.3945 150.571 97.4141 150.676 97.4537C151.012 97.5949 151.331 97.7729 151.628 97.9844C152.754 98.7513 153.994 99.3355 155.303 99.7152C156.644 100.09 158.036 100.251 159.428 100.194C159.595 100.194 159.757 100.194 159.912 100.148C160.142 100.122 160.37 100.08 160.593 100.021C160.682 99.9937 160.773 99.9725 160.864 99.9575L161.107 99.9979C161.244 100.03 161.376 100.08 161.499 100.148L161.655 100.217L161.764 100.009L161.805 100.05L161.886 100.119L162.047 100.263L162.128 100.338L162.191 100.448C162.338 100.794 162.465 101.149 162.572 101.509C162.637 101.724 162.691 101.941 162.734 102.161C162.826 102.571 162.895 102.985 162.941 103.402C163.054 104.256 163.054 105.121 162.941 105.975L162.901 105.986Z" fill="#3B2C7D"/>
<path d="M167.369 94.6152C165.501 96.6135 162.989 97.8901 160.273 98.221C157.637 98.5753 154.953 98.2167 152.502 97.1825C150.689 96.4602 149.065 95.3335 147.754 93.8883C145.446 91.3152 144.535 87.4152 145.844 84.1614C146.428 82.6146 147.182 81.1381 148.094 79.7595C149 78.3748 150.01 77.1229 151.008 75.8652C152.807 73.7018 154.433 71.4005 155.871 68.9825C157.631 65.9133 158.589 62.371 157.752 58.9787C157.498 57.9287 157.781 57.9287 158.358 58.771C158.536 59.0215 158.694 59.2858 158.831 59.5614C158.964 59.8902 159.096 60.2652 159.235 60.7152C159.269 60.8191 159.304 60.9287 159.333 61.0383L159.385 61.3902C159.419 61.6268 159.454 61.8748 159.483 62.1287C159.542 62.6686 159.526 63.2141 159.437 63.7498C159.111 65.6867 158.457 67.5539 157.504 69.271C156.587 70.9364 155.548 72.5312 154.394 74.0421C153.275 75.5479 152.087 76.9845 150.985 78.4383C150.408 79.171 149.877 79.8864 149.392 80.6364C148.908 81.3864 148.441 82.1652 148.031 82.9441C147.519 83.876 147.131 84.871 146.877 85.9037C146.761 86.4007 146.715 86.9113 146.739 87.421C146.738 87.6834 146.756 87.9455 146.791 88.2056C146.813 88.4681 146.855 88.7285 146.917 88.9845C147.401 91.0654 148.61 92.9062 150.327 94.1768C152.245 95.6272 154.528 96.5178 156.921 96.7498C159.305 97.0542 161.724 96.6107 163.844 95.4806C166.446 94.1018 168.073 91.3902 168.962 88.5575C169.296 87.4647 169.547 86.348 169.712 85.2172C169.868 84.0814 169.949 82.9366 169.954 81.7902C169.981 79.5078 169.638 77.2362 168.939 75.0633C167.753 71.7403 166.195 68.5623 164.294 65.5902C163.885 64.9383 163.452 64.321 163.008 63.6864C162.194 62.5325 161.606 61.7998 161.237 61.2806C160.979 60.9151 160.751 60.5292 160.556 60.1268C160.48 59.9863 160.391 59.8531 160.291 59.7287C160.244 59.6364 160.291 59.5787 160.412 59.5556C160.643 59.5332 160.876 59.5731 161.087 59.671C161.909 60.0198 162.633 60.5668 163.192 61.2633C165.337 63.832 167.148 66.6623 168.581 69.6864C169.343 71.2285 169.995 72.8229 170.531 74.4575C171.078 76.141 171.419 77.8844 171.546 79.6498C171.653 80.9592 171.653 82.2751 171.546 83.5845C171.464 84.8964 171.271 86.1991 170.969 87.4787C170.671 88.7776 170.234 90.0407 169.666 91.246C169.103 92.4873 168.354 93.6352 167.444 94.6498L167.369 94.6152Z" fill="#3B2C7D"/>
<path d="M161.041 67.2171C161.135 66.6452 161.173 66.0656 161.156 65.4863C161.156 65.2728 161.104 65.0651 161.081 64.8517C161.026 64.0876 160.891 63.3315 160.677 62.5959C160.626 62.4332 160.567 62.2734 160.498 62.117L160.262 61.667C160.009 61.3177 159.791 60.9449 159.61 60.5536C159.57 60.4209 159.806 60.242 160.112 60.1613C160.259 60.1068 160.418 60.0941 160.572 60.1247C160.726 60.1552 160.868 60.2278 160.983 60.3344C161.603 61.1406 162.001 62.0955 162.137 63.1036C162.2 63.6805 162.408 64.2574 162.472 64.8863C162.541 65.5499 162.541 66.2188 162.472 66.8824C162.441 67.2909 162.387 67.6974 162.31 68.0997C162.229 68.3997 162.154 68.6767 162.062 68.994C161.97 69.3113 161.866 69.5709 161.745 69.8651C161.623 70.1594 161.577 70.3151 161.497 70.5401C161.416 70.7651 161.283 70.967 161.168 71.1805C161.117 71.275 161.058 71.3639 160.989 71.4459C160.729 71.7459 160.579 71.7863 160.331 71.6767C160.276 71.6552 160.222 71.6301 160.17 71.6017C160.089 71.532 160.033 71.4385 160.009 71.3348C159.985 71.2311 159.995 71.1226 160.037 71.0247C160.175 70.6613 160.227 70.2632 160.354 69.9228C160.481 69.5824 160.591 69.2305 160.666 68.8613C160.802 68.3211 160.909 67.7742 160.989 67.2228L161.041 67.2171Z" fill="#3B2C7D"/>
<path d="M164.389 66.9922C164.466 66.6244 164.484 66.2464 164.44 65.873C164.414 65.7345 164.379 65.5977 164.337 65.4633C164.214 64.9466 164.02 64.4495 163.76 63.9864C163.642 63.78 163.503 63.5866 163.344 63.4095C163.107 63.1883 162.912 62.9265 162.767 62.6364C162.687 62.4403 163.494 62.0595 163.794 62.3191C164.335 62.7846 164.748 63.3803 164.994 64.0499C165.121 64.4768 165.381 64.8518 165.485 65.3076C165.615 65.7922 165.66 66.2959 165.617 66.796C165.597 67.0971 165.552 67.3961 165.485 67.6903C165.37 68.1198 165.223 68.5402 165.046 68.948C164.919 69.2537 164.85 69.5884 164.723 69.8999C164.694 69.9691 164.677 70.0383 164.642 70.1076C164.51 70.3499 164.389 70.3787 164.117 70.2749C164.055 70.2553 163.993 70.2322 163.933 70.2057C163.841 70.1642 163.765 70.0952 163.714 70.0084C163.663 69.9216 163.641 69.8212 163.65 69.721C163.747 69.18 163.88 68.6461 164.048 68.123C164.092 67.9279 164.146 67.7353 164.21 67.546C164.25 67.3672 164.302 67.1826 164.325 66.9691L164.389 66.9922Z" fill="#3B2C7D"/>
<path d="M158.076 99.1497C157.133 99.056 156.203 98.8626 155.301 98.5728C154.978 98.4631 154.637 98.4055 154.326 98.267C153.773 98.0445 153.235 97.7862 152.716 97.4939C152.451 97.3612 152.203 97.2055 151.949 97.0555L151.574 96.8189L151.401 96.692C151.288 96.6048 151.17 96.5239 151.049 96.4497C151.02 96.4497 151.049 96.4497 151.014 96.4958V96.5708L150.985 96.7266C150.969 96.8027 150.957 96.8798 150.951 96.9574C150.941 97.0571 150.922 97.1557 150.893 97.2516C150.818 97.5666 150.7 97.8695 150.541 98.1516C150.328 98.5035 149.047 97.5747 149.243 96.8824L149.647 95.5093C149.808 94.9785 149.976 94.4478 150.143 93.917L151.112 94.6439L152.035 95.3074L152.26 95.4516L152.393 95.5439L152.612 95.6997L153.051 96.017C153.708 96.4201 154.416 96.7344 155.156 96.9516C155.955 97.2353 156.778 97.4458 157.614 97.5805C158.13 97.6546 158.651 97.6855 159.172 97.6728C159.364 97.6865 159.557 97.6865 159.749 97.6728C159.962 97.6728 160.083 97.6439 160.441 97.5862C161.018 97.4766 161.595 97.2978 162.143 97.1939C162.097 97.6382 162.08 98.0593 162.062 98.5208V99.2305V99.7439C162.062 99.8824 162.062 100.021 162.062 100.165C162.028 100.684 161.906 100.834 161.485 100.898C161.391 100.92 161.294 100.934 161.197 100.938C160.88 100.938 160.62 100.713 160.591 100.321C160.51 99.8189 160.539 98.8958 160.47 99.1151C160.461 99.1094 160.451 99.1063 160.441 99.1063C160.431 99.1063 160.421 99.1094 160.412 99.1151H160.308C160.06 99.1151 159.818 99.1901 159.57 99.2016C159.082 99.2276 158.593 99.2276 158.105 99.2016L158.076 99.1497Z" fill="#3B2C7D"/>
<path d="M118.579 108.582C119.692 110.711 120.777 112.834 121.787 115.038C121.914 115.315 122.035 115.615 122.156 115.892C122.223 116.06 122.281 116.231 122.329 116.405C122.385 116.583 122.427 116.764 122.456 116.948C122.511 117.309 122.522 117.675 122.491 118.038L122.439 118.569L122.323 119.071C121.973 120.325 121.386 121.5 120.592 122.532C119.523 123.992 118.275 125.312 116.877 126.461C114.45 128.466 111.725 130.08 108.8 131.244C107.317 131.836 105.767 132.247 104.185 132.467C102.57 132.713 100.919 132.575 99.3675 132.063C99.0215 131.931 98.6843 131.777 98.3578 131.602C98.0405 131.423 97.7405 131.192 97.4348 130.984C97.129 130.777 96.8578 130.482 96.6328 130.211C96.4078 129.94 96.1828 129.634 95.9694 129.375C95.1444 128.261 94.3828 127.136 93.6213 126.017C91.7117 123.132 89.7559 120.219 88.1232 117.155C87.6271 116.192 87.9098 116.186 88.6598 116.792C89.8534 117.796 90.8882 118.975 91.729 120.288L94.6655 124.696C95.6405 126.144 96.6155 127.661 97.6309 128.977C97.8662 129.266 98.1248 129.537 98.404 129.784C98.6958 130.007 99.0089 130.2 99.3386 130.361C99.6766 130.533 100.03 130.672 100.394 130.777C100.585 130.829 100.775 130.857 100.971 130.904C101.161 130.949 101.354 130.978 101.548 130.99C102.363 131.079 103.185 131.079 104 130.99C104.84 130.878 105.671 130.707 106.487 130.477C108.52 129.891 110.462 129.025 112.256 127.904C114.078 126.785 115.771 125.47 117.304 123.98C118.14 123.182 118.892 122.301 119.548 121.35C120.2 120.456 120.663 119.439 120.91 118.361C121.001 117.869 120.982 117.362 120.852 116.879C120.781 116.617 120.686 116.362 120.569 116.117L120.206 115.309C119.698 114.236 119.162 113.163 118.619 112.096C117.275 109.477 115.891 106.869 114.396 104.342C114.108 103.869 113.819 103.39 113.525 102.934L113.3 102.588L113.098 102.3C113.023 102.174 112.927 102.061 112.816 101.965C112.674 102.016 112.537 102.078 112.406 102.15L111.673 102.513L110.191 103.269C108.217 104.313 106.256 105.386 104.329 106.482C101.335 108.213 98.4617 109.979 95.5886 111.807L93.7021 113.077C91.3425 114.582 90.5636 114.992 89.8425 115.004C89.6814 115.021 89.5189 115.021 89.3578 115.004C88.954 114.917 89.7328 114.011 91.4117 112.782C96.6453 109.162 102.081 105.843 107.692 102.842C108.748 102.265 109.81 101.688 110.889 101.111L111.754 100.667C112.025 100.54 112.296 100.396 112.562 100.304L112.666 100.269H112.758C112.821 100.271 112.883 100.283 112.942 100.304L113.104 100.355H113.185H113.219C113.289 100.084 113.219 100.28 113.254 100.223L113.294 100.252L113.906 100.725C114.112 100.92 114.292 101.141 114.442 101.382C114.633 101.648 114.8 101.907 114.967 102.173C116.294 104.261 117.454 106.373 118.602 108.519L118.579 108.582Z" fill="#3B2C7D"/>
<path d="M106.356 97.4653L105.341 95.2268L104.954 94.4192C104.516 93.4672 104.071 92.5095 103.593 91.5749C103.385 91.1595 103.154 90.7557 102.929 90.3518C102.629 89.8384 102.318 89.3307 102.041 88.8057C101.868 88.4768 102.341 88.7365 102.727 89.3076C103.396 90.3289 104.005 91.3884 104.55 92.4807C104.879 93.1384 105.26 93.8018 105.612 94.4653L106.766 96.6634L107.464 98.0076C107.821 98.6826 108.185 99.3634 108.577 100.015C108.889 100.517 109.246 100.979 109.598 101.44L109.835 101.746C110.118 102.133 110.141 102.294 109.956 102.536C109.91 102.594 109.87 102.652 109.823 102.704C109.662 102.86 109.402 102.796 109.166 102.519C108.477 101.661 107.895 100.721 107.435 99.7211C107.066 98.9768 106.72 98.2211 106.362 97.4768L106.356 97.4653Z" fill="#3B2C7D"/>
<path d="M102.404 97.7882C101.971 96.819 101.561 95.9074 101.082 94.9786C100.909 94.644 100.702 94.3266 100.506 93.9863C99.894 92.8324 99.2652 91.6151 98.6305 90.4324C98.3479 89.9074 98.0536 89.3939 97.7421 88.8805C97.3346 88.2347 96.987 87.553 96.7036 86.844C96.5363 86.394 97.4594 86.6016 97.9094 87.3343C98.6825 88.6555 99.4844 89.9536 100.217 91.3382C100.65 92.169 101.215 92.9651 101.7 93.7901C102.184 94.6151 102.744 95.6247 103.229 96.5709C103.517 97.1478 103.806 97.7247 104.123 98.3016C104.584 99.1613 105.04 100.032 105.531 100.88C105.911 101.538 106.35 102.15 106.748 102.802C106.834 102.946 106.932 103.084 107.013 103.234C107.232 103.811 107.192 104.059 106.909 104.319C106.853 104.378 106.793 104.434 106.731 104.486C106.529 104.63 106.188 104.486 105.888 104.157C105.665 103.91 105.471 103.637 105.311 103.344C105.132 103.061 104.959 102.767 104.792 102.473C104.457 101.896 104.134 101.273 103.806 100.655C103.321 99.7324 102.844 98.792 102.375 97.8343L102.404 97.7882Z" fill="#3B2C7D"/>
<path d="M99.9179 100.211C99.5602 99.2998 99.1679 98.3941 98.7352 97.5114C98.5852 97.1825 98.3948 96.8768 98.239 96.5537C97.6621 95.3998 97.0852 94.2864 96.4505 93.1729C96.1679 92.6825 95.8736 92.1979 95.5679 91.7248C95.1647 91.1234 94.793 90.5014 94.4544 89.8614C94.2467 89.4575 94.9736 89.6768 95.4582 90.3575C96.3148 91.5664 97.1063 92.8201 97.8294 94.1133C98.2563 94.8921 98.7813 95.6652 99.2371 96.4614C99.6929 97.2575 100.206 98.2325 100.645 99.1383C100.916 99.7152 101.17 100.292 101.418 100.834C101.799 101.7 102.122 102.565 102.468 103.459C102.733 104.134 103.045 104.792 103.304 105.467C103.37 105.612 103.427 105.76 103.477 105.911C103.559 106.11 103.59 106.326 103.57 106.54C103.514 106.694 103.406 106.823 103.264 106.904C103.198 106.954 103.128 107 103.056 107.042C102.995 107.069 102.928 107.08 102.862 107.074C102.795 107.067 102.731 107.045 102.676 107.008C102.511 106.917 102.381 106.775 102.306 106.604C101.778 105.424 101.316 104.217 100.922 102.986C100.61 102.063 100.27 101.134 99.8948 100.223L99.9179 100.211Z" fill="#3B2C7D"/>
<path d="M95.3431 102.79C95.0257 101.948 94.6969 101.106 94.3219 100.275C94.1892 99.975 94.0104 99.6981 93.8777 99.3923C93.3873 98.3308 92.9373 97.2404 92.3892 96.1961C92.1527 95.7288 91.8873 95.2788 91.6219 94.8346C91.2522 94.2819 90.9226 93.7035 90.6354 93.1038C90.5546 92.9134 90.7046 92.85 90.9354 92.9134C91.2538 93.0037 91.5336 93.1963 91.7315 93.4615C92.5716 94.5506 93.3185 95.7086 93.9642 96.9231C94.3392 97.6558 94.8469 98.3596 95.2392 99.1096C95.6315 99.8596 96.0873 100.771 96.4738 101.619L97.1661 103.194C97.4892 104.002 97.8181 104.804 98.1411 105.606C98.4065 106.217 98.7181 106.76 99.0527 107.388C99.1219 107.515 99.1969 107.642 99.2546 107.775C99.3535 107.95 99.3901 108.153 99.3584 108.352C99.2842 108.521 99.1565 108.661 98.995 108.75C98.9084 108.808 98.8277 108.871 98.7411 108.917C98.5958 108.989 98.4282 109.002 98.2738 108.952C98.0911 108.906 97.9326 108.792 97.8296 108.635C97.2029 107.606 96.6793 106.518 96.2661 105.387C95.9373 104.544 95.6431 103.656 95.3027 102.842L95.3431 102.79Z" fill="#3B2C7D"/>
<path d="M91.7323 103.46L90.4169 100.575C90.2554 100.229 90.0592 99.8944 89.8977 99.5482L88.2015 95.8559C87.9419 95.3194 87.6592 94.7828 87.3708 94.2636C87.0015 93.6001 86.615 92.9367 86.2977 92.2444C86.2054 92.0251 86.3496 91.9732 86.5919 92.0597C86.9345 92.2001 87.2276 92.4391 87.4342 92.7463C88.32 94.045 89.1106 95.4063 89.7996 96.8194C90.1861 97.6847 90.7111 98.5155 91.1554 99.3694L92.6092 102.202L93.4919 103.933C93.9477 104.81 94.3861 105.704 94.8708 106.558C95.2515 107.216 95.7015 107.821 96.1284 108.45C96.2269 108.584 96.3156 108.725 96.3938 108.871C96.6765 109.419 96.6708 109.644 96.3938 109.944C96.3348 110.016 96.2712 110.083 96.2034 110.146C95.9727 110.337 95.6265 110.233 95.315 109.887C95.0716 109.637 94.8478 109.369 94.6458 109.085C94.4496 108.796 94.265 108.508 94.0688 108.196C93.7169 107.591 93.3881 106.962 93.0708 106.321C92.5919 105.375 92.1477 104.412 91.6861 103.437L91.7323 103.46Z" fill="#3B2C7D"/>
<path d="M88.4868 106.961C88.0829 106.096 87.6618 105.231 87.2118 104.388C87.0502 104.083 86.8541 103.811 86.6926 103.483C86.1156 102.375 85.5964 101.256 85.0195 100.16C84.7599 99.675 84.4829 99.2019 84.206 98.7288C83.8372 98.1317 83.5039 97.5133 83.2079 96.8769C83.1214 96.6749 83.2426 96.6403 83.4502 96.7326C83.7446 96.8832 83.998 97.1029 84.1887 97.373C85.0177 98.5316 85.7879 99.7312 86.4964 100.967C86.906 101.729 87.4714 102.433 87.9156 103.188C88.3599 103.944 88.9022 104.867 89.3752 105.715L90.2291 107.296C90.656 108.098 91.0541 108.923 91.4868 109.713C91.8214 110.331 92.231 110.896 92.5656 111.513C92.6464 111.646 92.7272 111.773 92.7964 111.911C92.9083 112.092 92.9551 112.306 92.9291 112.517C92.8905 112.68 92.7942 112.824 92.6579 112.921C92.5887 112.985 92.5252 113.048 92.456 113.1C92.2195 113.256 91.8791 113.146 91.5791 112.835C91.1936 112.339 90.8446 111.817 90.5349 111.271C90.2291 110.694 89.9579 110.117 89.6868 109.54C89.2772 108.681 88.8733 107.81 88.4406 106.956L88.4868 106.961Z" fill="#3B2C7D"/>
<path d="M84.097 108.611C83.6239 107.788 83.1604 106.958 82.7066 106.119C82.5335 105.813 82.3374 105.542 82.1816 105.219C81.6047 104.14 81.1085 103.021 80.5835 101.919C80.3527 101.429 80.0931 100.95 79.8393 100.483C79.478 99.8938 79.1784 99.2694 78.945 98.6192C78.8124 98.2038 79.8681 98.2846 80.2777 98.9538C80.9902 100.153 81.641 101.387 82.2277 102.652C82.5797 103.419 83.0758 104.14 83.5027 104.885C83.9297 105.629 84.4431 106.523 84.9335 107.331C85.2335 107.827 85.5104 108.329 85.8508 108.813C86.3239 109.558 86.797 110.308 87.3277 111.006C87.7431 111.542 88.1989 112.038 88.6374 112.546C88.7377 112.654 88.8321 112.768 88.9201 112.886C89.2374 113.342 89.2604 113.544 89.07 113.838C89.0345 113.906 88.992 113.97 88.9431 114.029C88.7816 114.219 88.4758 114.167 88.1412 113.908C87.1482 113.107 86.2944 112.148 85.6143 111.069C85.072 110.279 84.57 109.454 84.0681 108.635L84.097 108.611Z" fill="#3B2C7D"/>
<path d="M102.959 86.5381C102.768 86.3247 102.578 86.1285 102.382 85.9208L101.903 85.442C101.903 85.442 101.863 85.4074 101.845 85.4074H101.713H101.505C101.222 85.4074 100.928 85.3727 100.68 85.367C99.6325 85.3265 98.5931 85.5654 97.6685 86.0593C97.3146 86.2451 96.9752 86.4573 96.6531 86.6939L96.1512 87.0574L95.8973 87.242L95.5916 87.4497C94.8729 87.8698 94.0949 88.1791 93.2839 88.367C92.6168 88.5133 91.979 88.7707 91.3973 89.1285C91.12 89.3212 90.8646 89.5436 90.6358 89.792L89.88 90.5766C89.5926 90.8742 89.2799 91.1464 88.9454 91.3901C88.5975 91.6277 88.2215 91.8214 87.8262 91.967C86.4589 92.4689 85.0973 92.5439 84.0012 93.0804C82.5562 93.8415 81.3337 94.9647 80.4531 96.3401C80.1473 96.767 80.0435 96.6401 80.1012 96.1497C80.2195 95.3443 80.5324 94.5799 81.0127 93.9228C81.3027 93.5401 81.6251 93.183 81.9762 92.8554C82.155 92.6881 82.3454 92.5324 82.5531 92.3824C82.7579 92.2445 82.9697 92.1174 83.1877 92.0016C84.0304 91.5787 84.9272 91.2739 85.8531 91.0958C86.6098 90.952 87.3384 90.687 88.0108 90.3112C88.6663 89.825 89.273 89.2763 89.8223 88.6727C90.0402 88.4678 90.2694 88.2752 90.5089 88.0958C90.758 87.9137 91.0224 87.7535 91.2992 87.617C91.8232 87.3812 92.3653 87.1882 92.9204 87.0401C93.405 86.9014 93.8777 86.7239 94.3339 86.5093C94.5357 86.4061 94.7286 86.2865 94.9108 86.1516L95.5627 85.6785C97.0609 84.4605 98.9528 83.8326 100.882 83.9131C101.193 83.9131 101.493 83.9131 101.799 83.9593L102.422 84.0112C102.59 84.1439 102.792 84.2997 102.93 84.4208C103.989 85.4598 104.979 86.566 105.895 87.7324C107.297 89.4631 108.578 91.2804 109.801 93.1151C110.776 94.5144 111.675 95.9645 112.495 97.4593C112.674 97.7939 112.853 98.117 113.003 98.4689C113.153 98.8208 113.228 99.0804 113.309 99.3112C113.362 99.5105 113.402 99.7128 113.43 99.917C113.447 100.057 113.447 100.198 113.43 100.338C113.408 100.451 113.369 100.56 113.315 100.661C113.274 100.748 113.245 100.852 113.211 100.904C113.124 101.065 112.605 100.644 112.161 99.7497C111.393 98.4862 110.678 97.1708 109.853 95.8727C109.028 94.5747 108.168 93.2881 107.263 92.0189C105.911 90.1305 104.461 88.3146 102.918 86.5785L102.959 86.5381Z" fill="#3B2C7D"/>
<path d="M101.256 132.444H101.222L101.181 132.404H101.152C101.172 132.308 101.198 132.214 101.227 132.121C101.227 132.121 101.262 132.15 101.273 132.19C101.285 132.231 101.273 132.19 101.302 132.219L101.337 132.254H101.372C101.372 132.254 101.372 132.254 101.372 132.317C101.374 132.344 101.374 132.371 101.372 132.398C101.365 132.41 101.356 132.42 101.345 132.427C101.334 132.434 101.321 132.438 101.308 132.438H101.273L101.256 132.444Z" fill="#3B2C7D"/>
<path d="M123.587 156.923C122.133 154.304 120.702 151.679 119.243 149.094C118.706 148.154 118.089 147.254 117.558 146.325C116.595 144.681 115.614 143.054 114.581 141.461C113.617 139.881 112.47 138.419 111.166 137.106C110.012 135.953 108.679 134.995 107.22 134.267C106.301 133.812 105.333 133.461 104.335 133.223C103.851 133.085 103.354 133.027 102.852 132.929L102.102 132.848L101.335 132.704C100.683 132.565 100.706 132.352 101.249 131.885C101.672 131.499 102.178 131.215 102.728 131.055C103.278 130.895 103.857 130.863 104.422 130.961L105.345 131.123C105.645 131.186 105.922 131.279 106.239 131.354C106.835 131.516 107.415 131.734 107.97 132.006C109.065 132.524 110.102 133.159 111.062 133.898C112.941 135.348 114.564 137.103 115.862 139.09L116.439 139.973L116.981 140.85L118.095 142.581C118.833 143.735 119.583 144.923 120.264 146.123C121.781 148.748 123.195 151.413 124.631 154.056C125.514 155.683 126.362 157.31 127.308 158.908C128.676 161.342 130.158 163.736 131.676 166.073C132.858 167.885 134.127 169.592 135.356 171.346C135.627 171.733 135.893 172.108 136.147 172.5C137.076 173.994 137.266 174.536 137.001 175.148C136.964 175.278 136.917 175.405 136.862 175.529C136.706 175.829 135.904 175.477 135.131 174.461C134.52 173.711 133.879 172.973 133.308 172.154C132.737 171.335 132.154 170.556 131.577 169.736C130.424 168.092 129.339 166.402 128.243 164.7C126.61 162.179 125.064 159.508 123.558 156.911L123.587 156.923Z" fill="#3B2C7D"/>
<path d="M133.374 155.192C131.551 152.431 129.753 149.648 127.98 146.844C127.34 145.811 126.647 144.819 126.024 143.781C124.922 141.952 123.843 140.111 122.822 138.231C122.309 137.29 121.801 136.344 121.328 135.381C120.824 134.422 120.373 133.436 119.978 132.427C119.217 130.598 118.825 128.638 118.824 126.658C118.847 125.402 119.023 124.154 119.349 122.942C119.713 121.656 120.411 120.634 120.763 119.608C120.959 118.967 121.242 119.031 121.449 119.746C121.551 120.23 121.573 120.727 121.513 121.217C121.447 121.826 121.347 122.431 121.213 123.029C121.155 123.265 121.126 123.571 121.068 123.854C121.011 124.136 120.953 124.431 120.895 124.702C120.794 125.257 120.727 125.817 120.693 126.381C120.62 127.491 120.71 128.607 120.959 129.692C121.233 130.814 121.608 131.909 122.078 132.963C122.309 133.506 122.58 134.054 122.84 134.608C123.099 135.161 123.347 135.715 123.63 136.258C124.911 138.9 126.601 141.45 128.182 144.04C129.913 146.867 131.724 149.665 133.542 152.452L136.934 157.575C138.665 160.148 140.395 162.767 142.126 165.277C143.493 167.244 144.907 169.125 146.28 171.046C146.58 171.479 146.886 171.888 147.18 172.321C148.27 173.948 148.501 174.542 148.334 175.131C148.312 175.265 148.275 175.397 148.224 175.523C148.034 175.858 147.37 175.338 146.528 174.196C144.001 170.815 141.44 167.169 138.901 163.477C137.009 160.742 135.14 157.967 133.27 155.204L133.374 155.192Z" fill="#3B2C7D"/>
<path d="M149.63 102.744L149.757 102.508C149.757 102.479 149.757 102.444 149.791 102.415C149.826 102.386 149.918 102.213 149.97 102.121C149.992 102.076 150.005 102.027 150.011 101.977C150.011 101.913 150.011 101.838 150.08 101.798C150.149 101.758 150.582 101.971 150.564 102.04C150.531 102.174 150.459 102.294 150.357 102.386C150.293 102.45 150.288 102.536 150.253 102.606L150.126 102.848L150.051 102.998C150.013 103.071 149.981 103.146 149.953 103.223C149.947 103.288 149.947 103.354 149.953 103.419V103.46C149.953 103.511 149.901 103.517 149.791 103.46H149.716C149.682 103.455 149.649 103.442 149.621 103.423C149.592 103.404 149.567 103.379 149.549 103.35C149.515 103.227 149.515 103.098 149.549 102.975C149.549 102.888 149.618 102.808 149.653 102.727L149.63 102.744Z" fill="#3B2C7D"/>
<path d="M152.123 103.483L152.285 103.171C152.285 103.131 152.285 103.09 152.331 103.056C152.412 102.929 152.504 102.808 152.585 102.687C152.621 102.635 152.645 102.576 152.654 102.514C152.654 102.433 152.654 102.34 152.77 102.3C152.885 102.26 153.393 102.612 153.347 102.687C153.299 102.836 153.206 102.967 153.081 103.062C152.995 103.125 152.995 103.223 152.96 103.31C152.925 103.396 152.868 103.494 152.822 103.587C152.775 103.679 152.77 103.702 152.752 103.76C152.708 103.847 152.677 103.94 152.66 104.037C152.664 104.112 152.68 104.186 152.706 104.256C152.706 104.256 152.706 104.29 152.706 104.302C152.706 104.314 152.66 104.377 152.498 104.383H152.389C152.341 104.389 152.293 104.385 152.247 104.371C152.202 104.357 152.159 104.334 152.123 104.302C152.024 104.161 151.977 103.99 151.991 103.817C151.996 103.699 152.021 103.581 152.066 103.471L152.123 103.483Z" fill="#3B2C7D"/>
<path d="M157.938 104.527C157.944 104.452 157.944 104.377 157.938 104.302C157.938 104.302 157.938 104.255 157.938 104.227C157.944 104.123 157.944 104.019 157.938 103.915C157.93 103.874 157.907 103.837 157.874 103.811C157.828 103.777 157.747 103.765 157.805 103.667C157.863 103.569 158.613 103.159 158.671 103.229C158.718 103.289 158.748 103.361 158.759 103.437C158.77 103.512 158.762 103.59 158.734 103.661C158.699 103.765 158.769 103.823 158.78 103.904C158.789 103.996 158.789 104.088 158.78 104.18C158.78 104.238 158.78 104.296 158.78 104.348C158.771 104.428 158.771 104.51 158.78 104.59C158.816 104.649 158.858 104.703 158.907 104.752C158.907 104.752 158.936 104.752 158.942 104.792C158.947 104.832 158.901 104.867 158.688 104.913L158.538 104.942C158.416 104.968 158.29 104.968 158.169 104.942C158.107 104.929 158.049 104.902 157.998 104.864C157.947 104.826 157.905 104.778 157.874 104.723C157.84 104.665 157.874 104.59 157.874 104.521L157.938 104.527Z" fill="#3B2C7D"/>
<path d="M155.493 80.2558C155.134 80.8656 154.814 81.4976 154.535 82.1482C154.441 82.3896 154.36 82.6361 154.293 82.8866C153.977 83.7514 153.821 84.6662 153.831 85.5866C153.842 85.9994 153.889 86.4105 153.97 86.8155L154.154 87.5885C154.241 87.8424 154.31 88.0962 154.374 88.3616C154.408 88.5289 154.31 88.552 154.154 88.4655C153.913 88.3294 153.713 88.1299 153.577 87.8885C153.308 87.3615 153.105 86.8035 152.972 86.227C152.899 85.9367 152.866 85.6378 152.874 85.3385C152.857 85.0397 152.873 84.7399 152.92 84.4443C152.978 83.723 153.082 83.0062 153.231 82.2981C153.335 81.9174 153.462 81.5424 153.6 81.1731C153.751 80.8107 153.92 80.4563 154.108 80.1116C154.327 79.6789 154.581 79.2751 154.829 78.8655C155.216 78.2597 155.637 77.6712 156.064 77.1058C156.393 76.6674 156.67 76.1943 157.01 75.7674C157.083 75.6736 157.162 75.5849 157.247 75.502C157.575 75.1905 157.731 75.1385 157.956 75.2135C158.007 75.2255 158.057 75.2409 158.106 75.2597C158.25 75.3347 158.239 75.5655 158.106 75.877L157.812 76.5635C157.691 76.777 157.564 76.9847 157.437 77.1924C157.195 77.6135 156.929 78.0289 156.675 78.4443C156.26 79.0212 155.868 79.6385 155.522 80.2616L155.493 80.2558Z" fill="#3B2C7D"/>
<path d="M158.751 83.6537C158.515 84.1478 158.322 84.6612 158.174 85.1883C158.116 85.3844 158.105 85.5806 158.059 85.7652C157.891 86.4561 157.815 87.1661 157.834 87.8767C157.847 88.1953 157.89 88.512 157.961 88.8229C158.041 89.221 158.18 89.6017 158.238 90.0171C158.278 90.271 157.718 90.1267 157.522 89.6594C157.207 88.8201 157.073 87.9235 157.13 87.0287C157.13 86.7517 157.159 86.4864 157.17 86.2152C157.181 85.9421 157.212 85.6702 157.263 85.4017C157.373 84.8104 157.539 84.2309 157.759 83.671C157.886 83.3248 158.036 82.9902 158.186 82.6671C158.434 82.171 158.705 81.6979 158.964 81.219C159.166 80.8556 159.322 80.469 159.541 80.1056C159.588 80.0248 159.628 79.9498 159.68 79.869C159.87 79.5864 159.98 79.5287 160.176 79.5748C160.221 79.5783 160.266 79.588 160.309 79.6037C160.447 79.6556 160.47 79.8402 160.389 80.0767C160.128 80.7783 159.821 81.4623 159.472 82.1248C159.218 82.621 159.011 83.1344 158.78 83.6364L158.751 83.6537Z" fill="#3B2C7D"/>
<path d="M95.3838 119.463C95.4919 119.807 95.6949 120.114 95.9695 120.347C96.244 120.581 96.579 120.732 96.9358 120.784C97.3213 120.832 97.7109 120.736 98.0301 120.514C98.3493 120.293 98.5759 119.962 98.6665 119.584C98.743 119.308 98.7067 119.013 98.5655 118.763C98.4243 118.514 98.1898 118.331 97.9136 118.254C97.6375 118.178 97.3422 118.214 97.0928 118.355C96.8434 118.497 96.6603 118.731 96.5838 119.007C96.5377 119.18 96.63 118.921 96.6761 118.869C96.7223 118.817 96.8723 118.702 96.8435 118.719C96.8146 118.736 96.8435 118.719 96.9819 118.661H97.1665C96.9877 118.661 97.3973 118.707 97.2646 118.661C97.23 118.661 97.0858 118.615 97.2646 118.661C97.3627 118.702 97.3569 118.702 97.2646 118.661L97.3915 118.759C97.3656 118.728 97.3367 118.699 97.305 118.673C97.4031 118.805 97.4261 118.834 97.3858 118.765C97.3454 118.696 97.3858 118.73 97.4319 118.88C97.3499 118.607 97.1656 118.376 96.9173 118.235C96.669 118.094 96.3759 118.055 96.0992 118.125C95.8254 118.204 95.5934 118.387 95.4523 118.635C95.3112 118.883 95.2721 119.176 95.3434 119.452L95.3838 119.463Z" fill="#3B2C7D"/>
<path d="M111.132 111.283C111.131 111.551 111.19 111.816 111.305 112.059C111.419 112.302 111.587 112.515 111.796 112.685C112.02 112.84 112.276 112.943 112.546 112.986C112.816 113.029 113.092 113.011 113.353 112.933C113.629 112.855 113.863 112.671 114.005 112.421C114.146 112.172 114.184 111.877 114.109 111.6C114.026 111.327 113.841 111.097 113.593 110.956C113.345 110.816 113.053 110.776 112.776 110.844C112.984 110.844 112.54 110.902 112.776 110.844C112.961 110.873 112.996 110.879 112.886 110.844C112.97 110.866 113.047 110.907 113.111 110.965C113.197 111.04 113.186 111.035 113.111 110.965C113.178 111.015 113.227 111.086 113.249 111.167C113.29 111.265 113.284 111.26 113.249 111.167C113.249 111.34 113.249 111.363 113.249 111.237C113.229 110.963 113.107 110.708 112.906 110.521C112.705 110.335 112.442 110.231 112.168 110.231C111.894 110.231 111.63 110.335 111.429 110.521C111.229 110.708 111.106 110.963 111.086 111.237L111.132 111.283Z" fill="#3B2C7D"/>
<path d="M165.261 152.954C164.823 152.769 164.379 152.596 163.923 152.446C163.755 152.388 163.577 152.394 163.415 152.337C162.838 152.146 162.232 151.904 161.632 151.76C161.366 151.694 161.093 151.659 160.819 151.656C160.465 151.693 160.108 151.647 159.775 151.523C159.671 151.465 159.688 151.137 159.775 150.808C159.861 150.479 160.069 150.144 160.282 150.121C161.038 150.03 161.805 150.109 162.527 150.352C162.973 150.465 163.425 150.547 163.882 150.6C164.373 150.71 164.863 150.848 165.348 150.992L166.242 151.275C166.698 151.408 167.136 151.587 167.598 151.69C167.955 151.771 168.342 151.765 168.752 151.823C168.837 151.821 168.921 151.837 169 151.869C169.271 152.025 169.3 152.204 169.155 152.665C169.128 152.771 169.095 152.875 169.057 152.977C169.008 153.123 168.928 153.257 168.823 153.37C168.717 153.482 168.589 153.571 168.446 153.629C168.135 153.736 167.801 153.764 167.477 153.71C167.173 153.669 166.875 153.593 166.588 153.485C166.15 153.346 165.717 153.162 165.261 153.017V152.954Z" fill="#3B2C7D"/>
<path d="M188.279 168.121C187.576 167.625 186.843 167.146 186.087 166.707C185.81 166.552 185.51 166.436 185.233 166.281C184.247 165.704 183.26 165.127 182.216 164.7C181.759 164.498 181.286 164.334 180.803 164.209C180.191 164.048 179.551 163.904 179.02 163.719C178.887 163.667 178.841 163.402 179.02 163.142C179.138 162.989 179.293 162.868 179.471 162.79C179.648 162.712 179.842 162.681 180.035 162.698C180.723 162.794 181.398 162.964 182.049 163.206C182.694 163.422 183.321 163.69 183.924 164.007C184.651 164.388 185.458 164.636 186.231 165.006C187.004 165.375 187.853 165.859 188.637 166.332C189.122 166.627 189.589 166.95 190.056 167.267C190.766 167.757 191.435 168.306 192.104 168.854C192.661 169.259 193.18 169.713 193.656 170.209C193.766 170.326 193.868 170.449 193.962 170.579C194.285 171.098 194.239 171.363 193.887 171.617C193.813 171.683 193.731 171.741 193.645 171.79C193.504 171.855 193.347 171.874 193.195 171.845C193.043 171.816 192.904 171.74 192.797 171.629C192.047 170.994 191.251 170.313 190.356 169.627C189.699 169.125 188.995 168.623 188.262 168.167L188.279 168.121Z" fill="#3B2C7D"/>
<path d="M111.46 197.215C111.213 197.817 111.151 198.479 111.282 199.117C111.414 199.754 111.733 200.338 112.198 200.792C113.041 201.698 114.506 202.24 115.562 201.306C116.028 200.813 116.325 200.183 116.408 199.509C116.491 198.836 116.356 198.153 116.023 197.562C115.707 197.066 115.251 196.676 114.713 196.44C114.175 196.203 113.579 196.132 113 196.235C112.696 196.272 112.404 196.377 112.147 196.544C111.889 196.71 111.673 196.933 111.514 197.195C111.355 197.457 111.258 197.752 111.229 198.058C111.201 198.363 111.242 198.671 111.35 198.958C111.433 199.23 111.618 199.461 111.866 199.601C112.114 199.742 112.406 199.782 112.683 199.713C112.958 199.637 113.192 199.454 113.334 199.206C113.476 198.957 113.513 198.663 113.439 198.386C113.419 198.296 113.392 198.207 113.358 198.121C113.439 198.265 113.358 198.121 113.358 198.311C113.41 198.023 113.283 198.473 113.358 198.311C113.289 198.231 113.191 198.698 113.358 198.311C113.427 198.392 113.098 198.34 113.358 198.311C113.664 198.311 113.416 198.311 113.358 198.311H113.6C113.854 198.311 113.393 198.248 113.641 198.311L113.883 198.381C113.606 198.288 114.206 198.64 113.998 198.45C114.067 198.508 114.129 198.574 114.183 198.646C114.039 198.45 114.183 198.698 114.212 198.733C114.154 198.496 114.212 198.831 114.212 198.842C114.258 199.165 114.212 198.635 114.212 198.987C114.219 199.195 114.183 199.403 114.108 199.598C114.166 199.448 114.033 199.713 114.027 199.725C114.079 199.587 113.941 199.725 114.102 199.633C114.264 199.54 114.01 199.633 114.275 199.592C114.212 199.592 113.958 199.592 114.241 199.592C114.177 199.592 113.952 199.477 114.166 199.592C114.081 199.551 114 199.503 113.923 199.448C113.739 199.327 114.004 199.54 113.831 199.367C113.754 199.297 113.68 199.221 113.612 199.142C113.71 199.252 113.612 199.142 113.56 199.067C113.501 198.98 113.447 198.89 113.398 198.796C113.37 198.682 113.333 198.57 113.289 198.461C113.289 198.577 113.289 198.288 113.289 198.254C113.289 198.219 113.289 198.185 113.289 198.294C113.329 198.173 113.323 198.167 113.289 198.294C113.425 198.045 113.46 197.754 113.388 197.479C113.317 197.205 113.143 196.968 112.902 196.817C112.654 196.672 112.359 196.631 112.081 196.704C111.803 196.776 111.565 196.956 111.42 197.204L111.46 197.215Z" fill="#3B2C7D"/>
<path d="M183.348 195.432C183.303 195.918 183.132 196.383 182.852 196.782C182.579 197.146 182.231 197.445 181.831 197.659C181.174 198.005 180.449 198.202 179.707 198.236C178.36 198.292 177.023 197.983 175.836 197.342C174.967 196.898 174.2 196.279 173.581 195.525C173.319 195.185 173.085 194.824 172.882 194.446C172.699 194.072 172.541 193.687 172.409 193.292C172.156 192.531 172.006 191.792 171.769 191.163C171.572 190.551 171.209 190.005 170.719 189.588C170.626 189.505 170.521 189.435 170.407 189.381C170.257 189.34 170.136 189.277 169.957 189.242C169.629 189.161 169.259 189.104 168.896 189.046C167.51 188.898 166.15 188.558 164.857 188.036C164.021 187.639 163.282 187.062 162.694 186.346C162.412 185.977 162.174 185.576 161.984 185.152C161.888 184.945 161.803 184.733 161.731 184.517L161.569 183.865C161.448 183.288 161.765 183.334 162.192 183.663C162.729 184.14 163.225 184.661 163.675 185.221C164.569 186.375 165.948 186.952 167.529 187.292C168.325 187.459 169.15 187.534 170.096 187.725L170.454 187.806L170.857 187.938C171.154 188.049 171.43 188.211 171.671 188.417C172.078 188.758 172.423 189.166 172.692 189.623C173.332 190.719 173.511 191.832 173.881 192.756C174.201 193.644 174.741 194.438 175.45 195.063C176.235 195.751 177.188 196.219 178.213 196.419C179.185 196.664 180.213 196.538 181.098 196.067C181.288 195.951 181.434 195.774 181.513 195.565C181.591 195.317 181.609 195.054 181.565 194.798C181.425 194.122 181.232 193.459 180.988 192.813C180.779 192.237 180.662 191.632 180.642 191.019C180.647 190.661 180.731 190.308 180.89 189.986C181.057 189.682 181.276 189.409 181.536 189.179C182.552 188.331 183.7 188.129 184.617 187.684C184.956 187.544 185.27 187.349 185.546 187.107C185.815 186.849 186.051 186.558 186.25 186.242C186.628 185.63 186.839 184.93 186.861 184.211C186.859 183.906 186.83 183.601 186.775 183.3C186.682 182.723 186.544 182.382 186.538 182.094C186.538 181.821 186.618 181.554 186.769 181.327C186.844 181.217 186.902 181.084 186.977 180.992C187.052 180.9 187.311 180.848 187.554 180.992C187.927 181.257 188.206 181.636 188.35 182.071C188.676 182.927 188.781 183.852 188.656 184.759C188.518 185.704 188.145 186.599 187.571 187.361C187.435 187.561 187.289 187.754 187.132 187.938C186.972 188.119 186.8 188.291 186.619 188.452C186.232 188.774 185.803 189.041 185.344 189.248C184.525 189.617 183.769 189.825 183.209 190.125C182.806 190.327 182.511 190.569 182.488 190.754C182.475 190.853 182.475 190.954 182.488 191.054C182.491 191.248 182.516 191.442 182.563 191.631C182.661 192.098 182.857 192.64 183.036 193.24C183.284 193.945 183.396 194.691 183.365 195.438L183.348 195.432Z" fill="#3B2C7D"/>
<path d="M156.007 228.346C156.007 228.196 155.978 228.046 155.966 227.896C155.952 227.847 155.94 227.796 155.932 227.746C155.932 227.555 155.932 227.371 155.891 227.169C155.881 227.09 155.851 227.015 155.805 226.95C155.753 226.863 155.66 226.8 155.695 226.673C155.73 226.546 156.439 226.309 156.514 226.442C156.631 226.663 156.676 226.915 156.641 227.163C156.641 227.304 156.662 227.444 156.705 227.579C156.705 227.734 156.739 227.879 156.751 228.029C156.762 228.179 156.751 228.213 156.751 228.3C156.76 228.434 156.787 228.566 156.832 228.692C156.879 228.783 156.933 228.869 156.993 228.952L157.034 229.004C157.034 229.079 157.034 229.119 156.895 229.205L156.803 229.263C156.763 229.293 156.716 229.312 156.666 229.318C156.616 229.324 156.566 229.317 156.52 229.298C156.321 229.182 156.171 228.997 156.099 228.779C156.041 228.629 156.007 228.473 155.966 228.329L156.007 228.346Z" fill="#3B2C7D"/>
<path d="M162.847 232.321C162.847 232.125 162.893 231.934 162.905 231.744C162.905 231.675 162.905 231.611 162.905 231.548C162.935 231.309 162.949 231.068 162.945 230.827C162.941 230.723 162.915 230.621 162.87 230.527C162.813 230.411 162.72 230.313 162.766 230.157C162.813 230.002 163.643 229.823 163.736 229.99C163.878 230.275 163.927 230.599 163.874 230.913C163.867 231.096 163.886 231.278 163.932 231.455C163.932 231.652 163.932 231.848 163.932 232.032C163.932 232.217 163.932 232.269 163.932 232.384C163.914 232.561 163.914 232.739 163.932 232.915L164.059 233.296C164.071 233.322 164.081 233.349 164.088 233.377C164.088 233.486 164.041 233.532 163.845 233.602L163.713 233.642C163.651 233.666 163.585 233.675 163.52 233.668C163.455 233.661 163.392 233.638 163.338 233.602C163.214 233.52 163.109 233.415 163.027 233.292C162.944 233.169 162.887 233.031 162.859 232.886C162.819 232.696 162.795 232.503 162.789 232.309L162.847 232.321Z" fill="#3B2C7D"/>
<path d="M170.849 235.137L170.814 234.675C170.814 234.617 170.779 234.571 170.779 234.519C170.779 234.323 170.779 234.133 170.779 233.942C170.766 233.861 170.739 233.783 170.699 233.712C170.647 233.619 170.554 233.55 170.612 233.423C170.67 233.296 171.46 233.112 171.518 233.238C171.616 233.459 171.642 233.706 171.593 233.942C171.586 234.079 171.605 234.217 171.651 234.346L171.702 234.785C171.702 234.877 171.702 234.963 171.743 235.05C171.762 235.183 171.797 235.312 171.847 235.437C171.9 235.523 171.962 235.604 172.031 235.679L172.077 235.731C172.112 235.8 172.077 235.846 171.899 235.956L171.777 236.031C171.727 236.067 171.67 236.093 171.61 236.106C171.549 236.119 171.486 236.119 171.426 236.106C171.315 236.062 171.215 235.994 171.134 235.907C171.052 235.82 170.99 235.717 170.952 235.604C170.904 235.453 170.868 235.299 170.843 235.142L170.849 235.137Z" fill="#3B2C7D"/>
<path d="M178.744 238.321C178.773 238.154 178.802 237.981 178.819 237.813C178.819 237.75 178.79 237.698 178.819 237.64C178.856 237.425 178.879 237.207 178.888 236.988C178.883 236.897 178.853 236.809 178.802 236.734C178.738 236.631 178.623 236.561 178.703 236.406C178.784 236.25 179.857 235.904 179.961 236.059C180.038 236.19 180.087 236.336 180.105 236.487C180.123 236.638 180.109 236.791 180.065 236.936C180.013 237.121 180.111 237.271 180.123 237.444C180.134 237.617 180.123 237.807 180.123 237.992V238.321C180.102 238.482 180.102 238.645 180.123 238.806C180.174 238.928 180.242 239.042 180.325 239.146C180.344 239.166 180.36 239.19 180.371 239.215C180.4 239.307 180.313 239.354 179.996 239.434L179.771 239.486C179.584 239.551 179.381 239.551 179.194 239.486C179.078 239.418 178.979 239.325 178.904 239.215C178.828 239.104 178.777 238.978 178.755 238.846C178.714 238.678 178.699 238.505 178.709 238.332L178.744 238.321Z" fill="#3B2C7D"/>
<path d="M188.972 239.359V238.898C188.972 238.846 188.932 238.8 188.932 238.742C188.932 238.546 188.932 238.35 188.932 238.165C188.923 238.083 188.896 238.004 188.851 237.934C188.793 237.842 188.69 237.773 188.765 237.64C188.84 237.508 189.803 237.265 189.866 237.392C189.971 237.61 189.99 237.859 189.918 238.09C189.872 238.246 189.959 238.367 189.976 238.5C189.993 238.633 190.005 238.8 190.022 238.944C190.04 239.088 190.022 239.129 190.051 239.215C190.061 239.351 190.091 239.485 190.138 239.613C190.189 239.706 190.253 239.792 190.328 239.867C190.328 239.867 190.363 239.896 190.368 239.919C190.374 239.942 190.368 240.04 190.138 240.156L189.993 240.231C189.87 240.304 189.724 240.328 189.584 240.3C189.471 240.262 189.367 240.2 189.281 240.119C189.194 240.037 189.126 239.937 189.082 239.827C189.028 239.681 188.988 239.53 188.961 239.377L188.972 239.359Z" fill="#3B2C7D"/>
<path d="M242.534 271.425C242.387 271.537 242.233 271.639 242.072 271.73C241.939 271.805 241.801 271.886 241.674 271.944C241.419 272.068 241.157 272.178 240.889 272.273C240.63 272.376 240.364 272.46 240.093 272.527C239.822 272.59 239.557 272.677 239.291 272.711C238.247 272.897 237.184 272.961 236.124 272.902C234.125 272.77 232.141 272.467 230.193 271.996C228.78 271.684 227.424 271.419 226.034 271.159C223.57 270.675 221.124 270.19 218.672 269.844C217.461 269.671 216.191 269.567 214.911 269.33C214.257 269.209 213.613 269.039 212.984 268.823C212.661 268.706 212.345 268.571 212.038 268.419L211.553 268.148C211.386 268.044 211.184 267.871 210.976 267.738C210.672 267.471 210.459 267.116 210.364 266.723C210.334 266.526 210.345 266.325 210.395 266.133C210.446 265.94 210.536 265.76 210.659 265.604C210.912 265.281 211.223 265.01 211.576 264.802C211.839 264.644 212.11 264.501 212.389 264.375C213.452 263.905 214.562 263.553 215.701 263.325C217.154 262.995 218.651 262.909 220.132 263.071C221.62 263.236 223.055 263.716 224.343 264.479C225.128 264.992 224.845 265.148 224.061 265.055L222.509 264.934L220.443 264.825C219.11 264.762 217.774 264.841 216.457 265.061C215.8 265.181 215.153 265.345 214.518 265.552C213.902 265.736 213.305 265.98 212.736 266.279L212.551 266.388H212.522C212.51 266.392 212.501 266.4 212.494 266.411C212.488 266.421 212.486 266.434 212.488 266.446C212.485 266.452 212.483 266.459 212.483 266.466C212.483 266.473 212.485 266.48 212.488 266.486C212.488 266.486 212.488 266.486 212.557 266.532C212.801 266.685 213.057 266.816 213.324 266.925C214.608 267.396 215.945 267.706 217.305 267.848C219.036 268.096 220.841 268.379 222.613 268.673C224.384 268.967 226.155 269.25 227.943 269.602C229.888 270 231.78 270.461 233.678 270.755C235.52 271.096 237.409 271.096 239.251 270.755C239.787 270.627 240.309 270.445 240.809 270.213C240.93 270.155 241.039 270.086 241.149 270.029C241.226 269.982 241.299 269.93 241.368 269.873C241.489 269.788 241.577 269.663 241.616 269.521C241.631 269.372 241.588 269.223 241.495 269.105C241.447 269.041 241.393 268.981 241.334 268.927C241.242 268.842 241.146 268.763 241.045 268.69C240.59 268.364 240.107 268.079 239.603 267.836C238.802 267.453 237.982 267.112 237.145 266.815C236.196 266.578 235.286 266.209 234.439 265.719C234.185 265.537 233.966 265.31 233.793 265.05C233.619 264.77 233.524 264.45 233.516 264.121C233.516 263.815 233.545 263.59 233.516 263.434C233.516 263.294 233.478 263.157 233.407 263.036C233.141 262.505 232.311 262.165 231.509 261.975C230.863 261.819 230.188 261.732 229.478 261.634C228.768 261.536 228.116 261.467 227.436 261.415C226.068 261.323 224.701 261.311 223.322 261.334L221.505 261.386C219.197 261.438 218.482 261.323 217.98 260.809C217.856 260.701 217.746 260.579 217.651 260.446C217.42 260.03 218.349 259.667 220.034 259.517C222.631 259.25 225.247 259.216 227.851 259.413C228.526 259.465 229.201 259.557 229.876 259.655C230.562 259.74 231.244 259.859 231.918 260.013C232.752 260.2 233.537 260.558 234.226 261.063C234.679 261.408 235.033 261.865 235.253 262.39C235.377 262.687 235.445 263.003 235.455 263.325C235.467 263.54 235.467 263.756 235.455 263.971C235.455 264.161 235.455 264.075 235.455 264.092C235.455 264.109 235.455 264.092 235.507 264.138C235.794 264.324 236.107 264.468 236.436 264.565C236.845 264.709 237.289 264.825 237.814 264.992C237.936 265.027 238.109 265.09 238.224 265.13L238.576 265.263L239.291 265.546C240.314 265.927 241.283 266.437 242.176 267.063C242.466 267.28 242.732 267.525 242.972 267.796C243.287 268.144 243.508 268.567 243.613 269.025C243.711 269.475 243.659 269.946 243.463 270.363C243.251 270.78 242.95 271.145 242.58 271.43L242.534 271.425Z" fill="#3B2C7D"/>
<path d="M75.2308 271.794C74.3366 271.794 73.3731 271.886 72.3808 271.875C71.8739 271.876 71.3674 271.849 70.8635 271.794C70.5957 271.763 70.3298 271.717 70.0673 271.655C69.7533 271.587 69.4476 271.484 69.1558 271.35C68.7675 271.17 68.4448 270.873 68.2327 270.502C68.0407 270.126 67.9857 269.696 68.0769 269.284C68.2514 268.656 68.6065 268.092 69.0981 267.663L69.2019 267.565C69.2222 267.549 69.2397 267.529 69.2539 267.507C69.2729 267.49 69.2863 267.468 69.2925 267.443C69.2987 267.419 69.2973 267.393 69.2885 267.369C69.2668 267.321 69.2305 267.28 69.1846 267.253L69.1154 267.207L68.8616 267.086C67.6669 266.668 66.4056 266.472 65.1404 266.509C63.9519 266.457 62.7289 266.475 61.4481 266.319C60.7928 266.248 60.148 266.101 59.5269 265.88L59.0712 265.713L58.8173 265.609L58.4769 265.465C58.0462 265.287 57.6543 265.026 57.3231 264.698C57.1796 264.562 57.0688 264.395 56.9988 264.21C56.9289 264.026 56.9017 263.827 56.9193 263.63C56.9679 263.437 57.0561 263.255 57.1782 263.098C57.3003 262.94 57.4538 262.809 57.6289 262.713C58.0259 262.483 58.456 262.316 58.9039 262.217L59.2212 262.13L59.4635 262.09C59.6196 262.055 59.7775 262.028 59.9366 262.009C61.1823 261.855 62.44 261.82 63.6923 261.905C64.7827 261.957 65.8558 262.038 66.9173 262.061C67.4285 262.09 67.9408 262.09 68.4519 262.061C68.9596 262.015 69.4789 261.934 69.9981 261.848C71.3983 261.535 72.8346 261.415 74.2673 261.49C74.6633 261.536 75.0514 261.635 75.4212 261.784C75.8521 261.954 76.222 262.25 76.4827 262.632C76.6175 262.843 76.7078 263.078 76.7481 263.325C76.7769 263.527 76.7866 263.732 76.7769 263.936C76.747 264.237 76.747 264.541 76.7769 264.842C76.8404 265.142 76.8693 265.303 76.7481 265.378C76.6269 265.453 76.3673 265.379 76.0904 265.044C75.9349 264.835 75.8213 264.598 75.7558 264.346C75.6916 264.094 75.6086 263.847 75.5077 263.607C75.4039 263.417 75.3 263.452 75.1443 263.4L75 263.365C74.9419 263.348 74.8818 263.338 74.8212 263.336L74.6366 263.279L74.4289 263.238C73.8449 263.144 73.2503 263.134 72.6635 263.209C72.0289 263.273 71.3654 263.388 70.6789 263.509C69.9923 263.63 69.2885 263.757 68.5154 263.832C67.7685 263.89 67.0181 263.89 66.2712 263.832C64.8404 263.746 63.4673 263.607 62.1289 263.584C61.4719 263.566 60.8144 263.595 60.1616 263.671C59.8254 263.701 59.4919 263.755 59.1635 263.832C59.1116 263.832 59.0481 263.89 59.0366 263.942C59.0316 263.969 59.0337 263.998 59.0428 264.024C59.0519 264.05 59.0676 264.074 59.0885 264.092C59.1764 264.174 59.2779 264.241 59.3885 264.288C59.475 264.329 59.7 264.415 59.8789 264.479C60.0577 264.542 60.2596 264.6 60.4558 264.652C60.8337 264.753 61.2198 264.82 61.6096 264.853C63.2366 265.015 64.9962 264.854 66.8019 265.032C67.8482 265.101 68.8721 265.367 69.8193 265.817C70.4481 266.152 71.1462 266.677 71.1058 267.421C71.0776 267.784 70.9247 268.126 70.6731 268.39C70.4077 268.696 70.1769 268.909 70.0558 269.036C69.927 269.153 69.8145 269.287 69.7212 269.434C69.6605 269.516 69.6299 269.616 69.6346 269.717C69.6363 269.765 69.6486 269.812 69.6705 269.855C69.6925 269.898 69.7235 269.936 69.7616 269.965C69.8596 270.042 69.9711 270.101 70.0904 270.138C70.9475 270.343 71.8302 270.419 72.7096 270.363C73.2866 270.363 73.8635 270.305 74.4404 270.271L76.2116 270.213C77.3654 270.213 78.5596 270.179 79.7308 270.184C81.5077 270.184 83.2904 270.236 85.0616 270.3C85.9443 270.3 86.8558 270.386 87.6981 270.398C88.1031 270.406 88.5082 270.383 88.9096 270.329C89.1615 270.319 89.3997 270.211 89.5731 270.028C89.6168 269.942 89.6346 269.845 89.6243 269.749C89.6141 269.653 89.5763 269.561 89.5154 269.486C89.4638 269.402 89.4038 269.322 89.3366 269.25L89.0596 268.95C88.6179 268.531 88.1114 268.186 87.5596 267.929C86.4028 267.407 85.1661 267.085 83.9019 266.977C83.325 266.902 82.7827 266.884 82.2058 266.85C80.0712 266.78 79.3846 266.763 78.8654 266.273C78.75 266.186 78.6 266.117 78.5308 266.048C78.4616 265.979 78.5712 265.8 78.9635 265.569C79.5512 265.286 80.1922 265.13 80.8443 265.113C82.125 264.997 83.4143 265.011 84.6923 265.154C86.0651 265.327 87.3957 265.745 88.6212 266.388C88.9429 266.563 89.2549 266.756 89.5558 266.965L89.9943 267.334C90.1518 267.464 90.2985 267.607 90.4327 267.761C90.5827 267.929 90.7269 268.102 90.8712 268.275C91.048 268.514 91.1988 268.771 91.3212 269.042C91.4429 269.298 91.5094 269.576 91.5164 269.86C91.5233 270.143 91.4706 270.425 91.3616 270.686C91.2381 270.946 91.0637 271.177 90.8485 271.368C90.6334 271.558 90.3821 271.703 90.1096 271.794C89.8141 271.899 89.5087 271.975 89.1981 272.019C88.9443 272.054 88.7827 272.065 88.5923 272.082C87.9078 272.114 87.2219 272.104 86.5385 272.054C82.7943 271.88 78.9866 271.742 75.2308 271.84V271.794Z" fill="#3B2C7D"/>
<path opacity="0.2" d="M164.196 160.644C160.481 157.304 154.319 158.036 154.319 158.036C154.319 158.036 151.377 174.767 150.027 175.54C148.677 176.313 158.681 176.942 160.856 175.54C163.031 174.138 164.196 160.644 164.196 160.644Z" fill="#3B2C7D"/>
<path opacity="0.2" d="M170.191 175.54C170.191 175.54 175.666 162.906 176.457 162.479C177.247 162.052 189.853 167.261 192.749 171.761C195.645 176.261 170.347 176.804 170.347 176.804" fill="#3B2C7D"/>
<path d="M101.464 44.244C101.516 47.4517 96.1797 47.7979 96.1797 44.244C96.1797 41.019 101.043 40.7825 101.441 43.9094C101.453 44.0248 101.459 44.1344 101.464 44.244Z" fill="#3B2C7D"/>
<path d="M185.499 29.798C185.545 32.4114 181.195 32.6826 181.195 29.798C181.195 27.173 185.159 26.9884 185.482 29.5326C185.493 29.6206 185.499 29.7092 185.499 29.798Z" fill="#3B2C7D"/>
<path d="M198.731 46.7308C198.771 48.8365 195.27 49.0673 195.27 46.7308C195.27 44.6077 198.466 44.4577 198.731 46.5115C198.725 46.5635 198.731 46.6385 198.731 46.7308Z" fill="#3B2C7D"/>
<path d="M128.759 50.1923C128.759 51.8076 126.105 51.9807 126.105 50.1923C126.105 48.5711 128.552 48.4615 128.748 50.0249C128.754 50.0884 128.759 50.1461 128.759 50.1923Z" fill="#3B2C7D"/>
<path d="M218.429 62.9766C218.458 64.5228 215.879 64.7074 215.879 62.9766C215.879 61.4189 218.227 61.3093 218.417 62.8208C218.424 62.8725 218.428 62.9245 218.429 62.9766Z" fill="#3B2C7D"/>
<path d="M117.232 61.1538C117.272 63.4615 113.453 63.698 113.453 61.1538C113.453 58.8461 116.915 58.6845 117.215 60.9172C117.226 60.9956 117.232 61.0746 117.232 61.1538Z" fill="#3B2C7D"/>
<path opacity="0.23" d="M158.077 96.2597C153.381 95.0655 150.71 90.8597 150.496 86.1231C150.265 80.9308 154.535 76.9962 157.465 73.2347C160.31 69.5943 159.115 63.4731 159.115 63.4731C159.115 63.4731 153.796 73.4308 151.188 77.7981C151.188 77.7981 145.494 83.6135 145.996 86.8905C146.498 90.1674 149.198 95.8962 155.412 96.8135C161.625 97.7308 158.077 96.2597 158.077 96.2597Z" fill="#3B2C7D"/>
<path opacity="0.23" d="M110.666 102.479C110.666 102.479 120.099 115.009 117.808 118.488C115.518 121.967 111.306 127.304 97.6562 129.288C97.6562 129.288 99.4274 130.788 103.114 131.544C106.8 132.3 118.95 125.244 120.866 120.877C122.781 116.509 116.464 106.84 116.464 106.84L113.002 101.325L110.666 102.479Z" fill="#3B2C7D"/>
<path opacity="0.23" d="M178.055 122.671C182.814 125.088 195.432 129.231 198.178 127.044C200.035 125.556 201.726 119.002 201.062 117.779C201.062 117.779 205.101 118.563 206.024 120.877C206.947 123.19 201.466 131.602 201.466 131.602L178.055 122.671Z" fill="#3B2C7D"/>
</svg>
