<svg width="300" height="300" viewBox="0 0 300 300" fill="none" xmlns="http://www.w3.org/2000/svg">
<path d="M73.5663 164.238C73.7798 165.179 73.9875 166.113 74.1836 167.054C74.3798 167.994 74.5702 168.935 74.7605 169.875C74.899 170.562 75.0663 171.242 75.1875 171.935C75.6375 174.358 76.024 176.792 76.4221 179.221C76.6067 180.3 76.7971 181.379 76.999 182.452C77.1202 183.133 77.2644 183.819 77.3682 184.506C77.4721 185.192 77.5413 185.89 77.6163 186.583C77.6567 187.015 77.524 186.981 77.3048 186.652C76.9597 186.117 76.6953 185.533 76.5202 184.921C76.1682 183.537 75.9432 182.135 75.6778 180.738C75.4125 179.342 75.2278 177.929 75.0259 176.51C74.7836 174.813 74.3855 173.077 74.0394 171.363C73.6586 169.483 73.2605 167.596 72.8336 165.721C72.5509 164.567 72.2971 163.413 71.9855 162.26C71.7548 161.394 71.5355 160.529 71.2817 159.663C71.0278 158.798 70.8028 157.933 70.5086 157.096C70.2894 156.444 70.0759 155.792 69.8278 155.158C69.5798 154.523 69.3086 153.9 69.0894 153.254C68.9913 152.971 68.8702 152.677 68.7605 152.423C68.3625 151.379 68.3048 151.01 68.3798 150.692C68.3898 150.626 68.4052 150.56 68.4259 150.496C68.4951 150.352 68.8009 150.721 69.199 151.454C70.4029 153.736 71.3806 156.13 72.1182 158.602C72.4009 159.525 72.6952 160.465 72.9028 161.406C73.1105 162.346 73.3932 163.287 73.6125 164.233L73.5663 164.238Z" fill="#3B2C7D"/>
<path d="M86.0146 149.342C85.8649 147.615 85.8649 145.877 86.0146 144.15C86.0723 143.515 86.13 142.886 86.2338 142.258C86.554 140.026 87.3149 137.881 88.4723 135.946C89.0009 135.084 89.6697 134.315 90.4511 133.673C90.9546 133.258 91.5115 132.913 92.1069 132.646C92.4048 132.514 92.7163 132.416 93.0357 132.352L93.5088 132.254L93.9934 132.213C94.3915 132.213 94.3454 132.317 94.0454 132.525C93.5893 132.816 93.1174 133.082 92.6319 133.321C90.4511 134.261 88.9338 136.31 87.9704 138.6C87.4092 140.036 87.0368 141.539 86.8627 143.071C86.6327 144.765 86.5497 146.475 86.6146 148.183C86.6499 149.234 86.752 150.282 86.9204 151.321C87.1416 152.892 87.7177 154.391 88.605 155.706C89.296 156.694 90.1212 157.581 91.0569 158.342C91.2646 158.515 91.4665 158.677 91.68 158.838C92.4473 159.456 92.6665 159.692 92.7473 159.958C92.7711 160.017 92.7885 160.079 92.7992 160.142C92.7992 160.298 92.3954 160.183 91.7377 159.802C90.7493 159.193 89.8585 158.438 89.0954 157.563C88.3108 156.654 87.6688 155.631 87.1915 154.529C86.8205 153.71 86.5474 152.85 86.378 151.967C86.2165 151.096 86.0954 150.236 86.0088 149.354L86.0146 149.342Z" fill="#3B2C7D"/>
<path d="M105.612 181.39C104.273 181.794 102.946 182.25 101.631 182.746C101.152 182.925 100.69 183.144 100.212 183.323C98.5328 183.987 96.8597 184.696 95.2039 185.435C94.4712 185.764 93.7501 186.139 93.0405 186.496C92.1174 186.946 91.2058 187.425 90.2597 187.835C89.9655 187.962 89.9597 187.835 90.1443 187.633C90.4583 187.286 90.8172 186.984 91.2116 186.733C91.6558 186.456 92.1001 186.156 92.5558 185.896C93.0116 185.637 93.4847 185.4 93.952 185.152C94.8808 184.662 95.8501 184.229 96.8366 183.802C98.0193 183.317 99.202 182.723 100.402 182.233C101.723 181.656 103.067 181.177 104.44 180.71C105.271 180.421 106.119 180.167 106.962 179.914C108.251 179.543 109.558 179.241 110.879 179.008C111.387 178.904 111.906 178.846 112.414 178.754C112.938 178.688 113.466 178.657 113.994 178.662C114.232 178.652 114.469 178.666 114.704 178.702C115.615 178.817 115.858 179.146 115.898 179.464C115.906 179.536 115.906 179.61 115.898 179.683C115.864 179.89 115.471 179.965 114.958 179.879C113.189 179.753 111.411 179.906 109.69 180.335C108.335 180.617 106.979 180.987 105.652 181.408L105.612 181.39Z" fill="#3B2C7D"/>
<path d="M105.087 223.69C105.087 223.69 98.5679 225.346 99.3179 233.815C99.8314 239.712 104.297 239.487 106.281 238.719C108.635 237.808 111.047 234.006 109.449 230.164C107.851 226.321 107.885 223.69 105.087 223.69Z" fill="#3B2C7D"/>
<path d="M59.7997 165.375C60.5208 167.844 61.1958 170.319 61.8478 172.806C62.0843 173.711 62.367 174.6 62.592 175.511C62.892 176.74 63.1689 177.969 63.4401 179.209C63.5728 179.827 63.6997 180.45 63.8208 181.073C63.8785 181.39 63.9362 181.702 63.9881 182.025C63.9881 182.181 64.0401 182.336 64.0631 182.504L64.0978 182.752V182.873C64.0978 182.873 64.0978 182.919 64.0978 182.908C64.1035 182.973 64.1035 183.038 64.0978 183.104V183.156H64.1381L64.2304 183.202C64.3112 183.254 64.8708 183.456 65.2978 183.606C66.7033 184.097 68.0771 184.675 69.4112 185.336C70.2593 185.763 71.1074 186.184 71.9151 186.675C72.3247 186.911 72.717 187.171 73.1093 187.431C73.4923 187.71 73.8565 188.015 74.1997 188.342C74.6324 188.752 74.4304 188.919 73.8362 188.919C73.4502 188.927 73.0642 188.902 72.6824 188.844C72.2021 188.756 71.7399 188.588 71.3151 188.348C70.0458 187.644 68.7535 186.992 67.4497 186.421C66.7978 186.127 66.1516 185.844 65.4824 185.573L64.4554 185.186L63.9189 184.979L63.5035 184.811L63.0304 184.604C62.9134 184.393 62.8093 184.175 62.7189 183.952L62.4593 183.288L62.4304 183.202C62.4263 183.169 62.4263 183.136 62.4304 183.104V183.017V182.833C62.4304 182.711 62.4304 182.59 62.3901 182.463L62.2862 181.69C61.8622 179.407 61.3231 177.146 60.6708 174.917C60.0247 172.436 59.3554 169.95 58.6401 167.481C58.2016 165.963 57.7516 164.446 57.2728 162.934C56.5458 160.656 55.8074 158.365 54.9651 156.156C54.2939 154.469 53.5234 152.824 52.6574 151.229L52.0804 150.202L51.6016 149.423C51.5043 149.237 51.4214 149.044 51.3535 148.846C51.2845 148.58 51.2707 148.304 51.3131 148.033C51.3131 147.923 51.3131 147.796 51.3131 147.721C51.3131 147.646 51.4689 147.594 51.8093 147.721C52.0187 147.781 52.2146 147.881 52.3862 148.015C52.6113 148.172 52.8066 148.367 52.9631 148.592C53.9994 149.982 54.8615 151.493 55.5304 153.092C56.2401 154.679 56.8689 156.306 57.4574 157.956C58.3401 160.396 59.1131 162.877 59.8747 165.358L59.7997 165.375Z" fill="#3B2C7D"/>
<path d="M91.9532 107.192C91.9532 107.192 91.5032 106.684 90.2628 107.423C88.532 108.467 88.2724 111.052 88.532 112.477C88.7916 113.902 92.4897 112.252 92.4897 112.252C92.4897 112.252 88.3878 114.092 87.6897 114.098C86.9916 114.104 86.0801 112.563 86.8647 109.54C87.6493 106.517 88.3243 105.952 89.1724 105.652C90.0205 105.352 91.0013 105.184 91.6532 105.906C91.8371 106.058 91.966 106.266 92.0202 106.498C92.0744 106.731 92.0508 106.974 91.9532 107.192Z" fill="#3B2C7D"/>
<path d="M88.5977 77.1519C92.6361 96.7672 112.494 113.936 118.436 115.286C120.005 115.638 123.784 113.296 124.384 111.686C124.8 110.579 122.965 110.533 120.507 109.765C118.05 108.998 110.019 104.198 106.794 100.269C103.569 96.3403 92.44 83.6538 91.7303 81.398C91.0207 79.1422 88.5977 77.1519 88.5977 77.1519Z" fill="#3B2C7D"/>
<path d="M88.5004 75.6689C88.5004 75.6689 85.1543 77.7632 78.4158 78.1093C71.6774 78.4555 63.762 77.0882 63.4158 76.5112C63.0697 75.9343 62.1062 78.4901 62.1062 78.4901C62.1062 78.4901 59.6543 89.5209 56.5389 95.2612C53.4235 101.002 46.3966 111.992 43.4024 115.713C40.4081 119.434 32.9428 127.719 31.3966 127.661C29.8504 127.604 31.3562 129.392 34.9793 131.123C41.3254 134.157 56.5274 133.044 60.7678 131.7C65.0081 130.355 69.0697 124.725 71.4639 121.413C73.8581 118.102 82.7947 105.79 85.7312 95.9189C88.4716 86.792 88.8466 78.2363 88.5004 75.6689ZM69.7043 103.442C66.8543 106.95 64.6158 106.904 62.9889 106.24C61.8351 105.779 61.5639 104.509 61.3504 103.529C61.3504 103.529 57.3697 107.03 54.9466 106.523C53.0774 106.13 53.7928 104.129 54.0235 103.719C54.249 103.468 54.514 103.256 54.8081 103.09C54.9408 103.58 53.6197 105.652 55.9043 105.455C58.1889 105.259 61.962 101.354 62.0254 101.7C62.1639 102.415 62.1408 105.046 64.3331 105.069C66.6408 105.104 68.1235 103.598 69.7331 102.254C69.9178 102.063 69.7504 103.384 69.7043 103.442ZM78.2889 92.6305C77.7132 93.4911 76.9625 94.2206 76.0856 94.7714C75.2088 95.3221 74.2257 95.6817 73.2004 95.8266C70.737 96.1266 69.537 94.5286 69.0639 92.3651C69.0639 92.3651 64.4485 96.4036 61.6678 95.8266C59.5043 95.3709 60.3062 93.0516 60.6004 92.5843C60.8519 92.2943 61.1503 92.0486 61.4831 91.8574C61.6389 92.4343 60.1101 94.817 62.7524 94.5862C65.3947 94.3555 69.7504 89.8497 69.8254 90.2478C69.987 91.0728 70.0389 94.1824 72.5601 94.2113C75.2081 94.2459 76.4197 92.8266 78.2831 91.2689C78.537 91.0439 78.3351 92.5612 78.2889 92.6305Z" fill="#3B2C7D"/>
<path d="M72.6935 77.4055C74.0173 77.4863 75.3448 77.4863 76.6685 77.4055C77.1532 77.4055 77.632 77.2959 78.1166 77.2555C79.8344 77.1272 81.5431 76.898 83.2339 76.569C83.9768 76.4045 84.7074 76.1886 85.4205 75.9228C85.8762 75.7555 86.3147 75.5536 86.7532 75.3459C87.1916 75.1382 87.6474 75.0171 88.0916 74.844C88.3743 74.7574 88.4955 74.994 88.4262 75.3863C88.3781 75.626 88.2862 75.8549 88.1551 76.0613C88.0172 76.3442 87.7956 76.5778 87.5205 76.7305C85.6235 77.6396 83.5876 78.2246 81.4974 78.4613C80.2628 78.6055 78.9993 78.8709 77.7358 78.9921C76.3456 79.1218 74.9492 79.1738 73.5532 79.1478C72.6935 79.1478 71.8224 79.0786 70.9743 79.0094C69.6732 78.8866 68.3818 78.6765 67.1089 78.3805C66.0974 78.1908 65.1064 77.9049 64.1493 77.5267C63.9348 77.4373 63.7249 77.3372 63.5205 77.2267C62.7647 76.7709 62.6551 76.4305 62.7935 76.0036C62.8212 75.9032 62.8559 75.8049 62.8974 75.7094C63.0647 75.4209 63.4743 75.4151 63.982 75.6113C65.5266 76.2168 67.1265 76.6709 68.7589 76.9671C70.05 77.1937 71.3549 77.3324 72.6647 77.3824L72.6935 77.4055Z" fill="#3B2C7D"/>
<path d="M45.6128 110.688C47.4397 108.13 49.157 105.494 50.7647 102.779C51.3416 101.78 51.8724 100.765 52.4205 99.7555C54.4182 96.2293 56.2022 92.5862 57.7628 88.8459C58.4551 87.1843 59.0378 85.4709 59.5685 83.769C59.8859 82.667 60.2205 81.5709 60.5147 80.4632C60.8089 79.3555 61.1262 78.2536 61.5416 77.169C61.8243 76.4997 62.032 76.6382 62.2397 77.3132C62.365 77.7582 62.448 78.2141 62.4878 78.6747C62.5251 79.2931 62.4687 79.9136 62.3205 80.5151C62.0551 81.669 61.7435 82.8228 61.3974 83.9766C61.0512 85.1305 60.6474 86.2497 60.2089 87.3632C59.3667 89.6059 58.4037 91.8014 57.3243 93.9401C56.0378 96.4959 54.8089 99.2305 53.3724 101.769C51.8032 104.584 50.1012 107.325 48.3012 109.996C47.1935 111.64 46.0282 113.244 44.8397 114.83C43.0339 117.23 41.0955 119.538 39.0705 121.754C37.555 123.509 35.9162 125.153 34.1666 126.675C33.7628 126.998 33.3762 127.332 32.932 127.627C32.3607 128.057 31.7126 128.374 31.0224 128.561C30.8348 128.614 30.638 128.626 30.4455 128.596C30.279 128.554 30.121 128.483 29.9782 128.388C29.8606 128.326 29.7503 128.25 29.6493 128.163C29.5282 128.036 29.6493 127.852 29.8801 127.586C30.2326 127.257 30.6194 126.967 31.0339 126.721C32.6601 125.576 34.171 124.276 35.5455 122.838C36.9993 121.379 38.4301 119.815 39.7801 118.223C41.7993 115.817 43.7435 113.302 45.5493 110.723L45.6128 110.688Z" fill="#3B2C7D"/>
<path d="M65.2843 128.209C68.6869 124.642 71.7915 120.803 74.567 116.729C75.617 115.263 76.4882 113.682 77.4516 112.165C80.7847 106.752 83.4484 100.953 85.3843 94.8978C85.7651 93.5421 86.2266 92.1978 86.4805 90.8132L86.9132 88.7478C86.9766 88.4017 87.0689 88.0613 87.1151 87.7151L87.2536 86.6767L87.6112 84.0113C87.7151 83.1171 87.7266 82.2171 87.7959 81.3228C87.9689 79.5344 87.9055 77.7459 88.0555 75.9459C88.1132 74.8267 88.3959 74.9478 88.7478 75.8882C89.3753 77.4322 89.6664 79.0921 89.6016 80.7575C89.3232 88.3288 87.5302 95.7676 84.3285 102.634C83.4401 104.717 82.3959 106.765 81.3862 108.848C80.8093 109.869 80.2843 110.884 79.7305 111.906C79.1766 112.927 78.5478 113.896 77.9593 114.882C75.269 119.177 72.234 123.247 68.8843 127.05L67.3266 128.781C66.7959 129.357 66.242 129.9 65.6997 130.459C64.6382 131.613 63.4728 132.634 62.342 133.707L61.9497 134.077L61.4478 134.296C61.1651 134.429 60.8709 134.521 60.5882 134.631C60.0112 134.832 59.4343 134.994 58.8574 135.138C57.6946 135.415 56.5179 135.631 55.3324 135.784C52.9938 136.081 50.6397 136.241 48.2824 136.263C44.6594 136.374 41.0336 136.164 37.4478 135.634C36.6574 135.49 35.8728 135.357 35.0824 135.144C32.1516 134.284 31.292 133.413 31.0959 132.623C31.0395 132.458 31.0008 132.288 30.9805 132.115C30.9805 131.902 31.2747 131.959 31.742 132.115C32.2093 132.271 32.8959 132.565 33.8939 132.859C36.9454 133.686 40.0808 134.164 43.2401 134.284C46.5177 134.477 49.805 134.435 53.0766 134.157C55.4726 133.987 57.8395 133.53 60.1266 132.796C60.2535 132.744 60.3978 132.704 60.5189 132.646L60.8593 132.496C60.8997 132.496 60.8247 132.536 60.9574 132.415L61.2978 132.098L62.6478 130.823C63.1093 130.407 63.542 129.969 63.9689 129.519L65.2612 128.181L65.2843 128.209Z" fill="#3B2C7D"/>
<path d="M107.056 101.429C105.054 99.5479 103.168 97.5633 101.328 95.5383C100.647 94.8056 99.9718 94.0672 99.3257 93.3114C97.0531 90.624 94.9693 87.7826 93.0891 84.8075C92.2237 83.5152 91.4449 82.1479 90.6314 80.8268C90.1468 79.9556 89.6968 79.0556 89.2468 78.1672C88.8319 77.2503 88.5054 76.296 88.2718 75.3172C88.116 74.7402 88.3757 74.7402 88.8487 75.0806C89.1613 75.3206 89.4546 75.5849 89.7257 75.871C89.8995 76.0527 90.0613 76.2454 90.2103 76.4479C90.3545 76.6556 90.4814 76.8922 90.6141 77.1287L92.0853 79.6787C92.6103 80.5037 93.118 81.346 93.6256 82.1941C94.6987 83.8441 95.7718 85.5114 96.8968 87.1729C97.5704 88.1796 98.3065 89.143 99.1007 90.0576C99.868 91.0152 100.722 91.9152 101.529 92.8383C103.306 94.8749 105.181 96.8249 107.12 98.7114C107.697 99.2883 108.337 99.8652 108.943 100.442C109.549 101.019 110.16 101.596 110.806 102.098C111.781 102.9 112.716 103.754 113.731 104.498L115.237 105.652C115.739 106.033 116.27 106.356 116.789 106.708C117.193 106.973 117.603 107.233 118.012 107.486C118.422 107.74 118.854 107.942 119.276 108.167L120.539 108.831C120.96 109.05 121.404 109.217 121.831 109.408C122.258 109.598 122.593 109.725 122.985 109.904C124.399 110.481 124.774 110.867 124.935 111.444C124.984 111.571 125.02 111.703 125.045 111.836C125.074 112.229 124.364 112.292 123.153 112.038C122.704 111.955 122.266 111.82 121.849 111.634L120.579 111.109C119.731 110.745 118.905 110.331 118.105 109.869C117.701 109.638 117.285 109.425 116.893 109.177L115.739 108.415C114.954 107.908 114.17 107.394 113.431 106.823L111.753 105.577C111.204 105.144 110.679 104.694 110.143 104.25C109.064 103.379 108.049 102.433 107.022 101.498L107.056 101.429Z" fill="#3B2C7D"/>
<path d="M105.677 109.973C103.412 107.699 101.292 105.285 99.3309 102.744C98.6155 101.821 97.8886 100.904 97.2194 99.9403C94.8811 96.5395 92.9031 92.9045 91.3174 89.0942C90.6078 87.4096 89.9847 85.673 89.4367 83.9423C88.6793 81.7224 88.2195 79.4118 88.0694 77.0711C88.029 76.3442 88.4097 76.4134 88.8424 76.973C89.1092 77.3265 89.3266 77.7147 89.4886 78.1269C89.7254 78.6703 89.9052 79.2368 90.0251 79.8173C91.0261 84.3296 92.5944 88.697 94.6924 92.8153C96.0206 95.3511 97.5647 97.7678 99.3078 100.038C101.177 102.592 103.212 105.021 105.4 107.308C106.75 108.71 108.158 110.065 109.623 111.346C111.814 113.311 114.187 115.065 116.708 116.585C117.198 116.861 117.694 117.127 118.196 117.358C118.317 117.421 118.444 117.479 118.571 117.531L118.854 117.646L118.958 117.681C118.992 117.681 119.027 117.681 119.056 117.681L119.327 117.577C120.354 117.215 121.345 116.757 122.287 116.21C122.678 115.974 123.054 115.714 123.412 115.431C123.861 115.071 124.288 114.686 124.692 114.277C124.91 114.05 125.185 113.886 125.489 113.804C125.614 113.752 125.743 113.711 125.875 113.683C126.071 113.683 126.169 113.861 126.135 114.26C126.037 114.852 125.782 115.408 125.396 115.869C124.675 116.763 123.777 117.5 122.76 118.033C121.782 118.56 120.758 118.998 119.702 119.342L118.964 119.579C118.842 119.66 118.727 119.544 118.606 119.51L118.254 119.354L117.752 119.129C117.619 119.071 117.498 119.008 117.371 118.944C116.869 118.702 116.379 118.436 115.894 118.16C114.942 117.583 114.008 117.006 113.114 116.365C110.467 114.467 107.972 112.365 105.654 110.077L105.677 109.973Z" fill="#3B2C7D"/>
<path d="M73.3184 167.769C72.9895 166.413 72.6953 165.052 72.3376 163.702C71.9799 162.352 71.6107 161.013 71.1838 159.663C70.878 158.688 70.5203 157.736 70.2203 156.779C69.0665 153.375 67.878 149.994 66.4184 146.717C65.7434 145.275 65.0453 143.833 64.278 142.454C64.0472 142.004 63.7818 141.571 63.5222 141.138C63.2626 140.706 63.0203 140.256 62.7434 139.84C62.2299 138.975 61.7511 138.069 61.2088 137.261C60.8799 136.765 61.0818 136.627 61.653 136.858C61.8264 136.927 61.9943 137.01 62.1549 137.106C62.3222 137.215 62.5126 137.342 62.7318 137.492C63.1793 137.82 63.5792 138.208 63.9203 138.646C65.106 140.409 66.1719 142.25 67.1107 144.156C67.5665 145.113 68.0107 146.071 68.403 147.04C68.7953 148.009 69.2049 149.002 69.5568 150.006C69.9838 151.206 70.4684 152.406 70.9068 153.629L71.5992 155.452C71.8184 156.063 72.0203 156.686 72.2222 157.298L72.8799 159.329C73.0876 160.009 73.2722 160.702 73.4568 161.383L74.0338 163.436C74.2242 164.123 74.3799 164.821 74.553 165.508L75.1761 168.058L75.7184 170.625L76.128 172.575C76.2665 173.221 76.3588 173.879 76.4742 174.531C76.6934 175.84 76.9588 177.133 77.1607 178.431C77.3165 179.44 77.4953 180.438 77.6799 181.431L77.9626 182.919C78.0492 183.421 78.1126 183.917 78.1876 184.419C78.2626 184.921 78.3261 185.29 78.378 185.74C78.4319 186.088 78.4551 186.439 78.4472 186.79C78.4462 187.032 78.4269 187.273 78.3895 187.511C78.3576 187.817 78.2282 188.104 78.0203 188.331C77.945 188.422 77.862 188.507 77.7722 188.584C77.4953 188.763 77.1434 188.117 76.8261 186.934C76.4107 185.204 76.2492 183.363 75.8799 181.534C75.7357 180.617 75.5857 179.694 75.4415 178.765C75.2972 177.836 75.1068 176.919 74.9453 175.99C74.478 173.227 73.9011 170.469 73.2722 167.734L73.3184 167.769Z" fill="#3B2C7D"/>
<path d="M58.5197 162.115C59.489 165.277 60.2505 168.461 60.9255 171.715C61.162 172.869 61.4044 174.069 61.6178 175.252C61.8717 176.717 62.0332 178.194 62.2467 179.665C62.3563 180.398 62.4082 181.142 62.489 181.88L62.6044 182.982L62.662 183.559V183.819C62.662 183.854 62.662 183.882 62.662 183.929C62.662 183.975 62.6621 184.079 62.7313 184.09L62.9217 184.159L63.7467 184.396L65.5582 184.927C67.3582 185.469 69.164 186.052 70.9063 186.744C73.1217 187.661 75.3774 188.752 77.1255 190.511C77.6563 191.088 77.3505 191.204 76.6928 191.013C75.6919 190.703 74.7253 190.291 73.8082 189.784C72.875 189.268 71.9118 188.807 70.9236 188.405C69.9255 187.996 68.9217 187.592 67.889 187.252C66.8563 186.911 65.8178 186.559 64.7678 186.242L63.1755 185.775L62.189 185.48L61.8428 185.348C61.7572 185.276 61.6798 185.194 61.612 185.105L61.5659 185.042V185.007L61.4909 185.065L61.4332 184.909C61.3865 184.804 61.3517 184.694 61.3294 184.58C61.2832 184.402 61.2832 184.2 61.2544 184.004L61.2255 183.692L61.1736 183.069C61.0524 181.621 60.8909 180.144 60.6313 178.673L60.2678 176.463C60.1294 175.725 59.9851 174.992 59.8467 174.265C59.2697 171.046 58.4851 167.861 57.614 164.705C57.3255 163.742 57.037 162.767 56.7486 161.821L55.7851 158.936C54.7589 156.065 53.5567 153.26 52.1851 150.536C51.1049 148.477 49.8868 146.494 48.539 144.6L47.6505 143.371C46.5601 141.819 46.2544 141.294 46.3063 140.723C46.305 140.595 46.3166 140.467 46.3409 140.342C46.4447 140.013 47.1486 140.463 48.1178 141.536C49.5449 143.184 50.8157 144.961 51.914 146.844C53.0578 148.766 54.094 150.75 55.0178 152.786C56.3779 155.837 57.5625 158.963 58.5659 162.15L58.5197 162.115Z" fill="#3B2C7D"/>
<path d="M116.937 178.506L117.012 179.492L116.804 180.283C116.804 180.283 116.665 180.185 116.729 180.237V180.283L116.688 180.364C116.667 180.425 116.624 180.476 116.567 180.508C116.446 180.587 116.314 180.647 116.175 180.687C115.848 180.76 115.517 180.812 115.183 180.842L114.548 180.923C113.85 181.015 113.158 181.119 112.46 181.24C111.069 181.483 109.685 181.789 108.306 182.135C107.233 182.406 106.177 182.746 105.11 183.058C101.341 184.158 97.6333 185.46 94.0038 186.958C92.3827 187.621 90.7904 188.36 89.2327 189.121C87.2307 190.096 85.2692 191.175 83.2211 192.058C81.9404 192.635 82.8808 190.604 85.1769 189.398C89.2568 187.262 93.4827 185.417 97.8231 183.877C100.442 182.971 103.131 181.921 105.854 181.114C107.354 180.669 108.865 180.271 110.394 179.931C111.156 179.758 111.929 179.608 112.702 179.464L113.856 179.273L114.433 179.187L114.698 179.146H114.831L115.154 179.106C115.235 179.106 115.217 179.042 115.212 178.99V178.846L114.871 174.854C114.617 171.969 114.427 169.085 114.294 166.2C114.185 163.962 114.04 161.764 114.04 159.537C114.04 159.046 114.04 158.567 114.04 158.071C114.185 156.242 114.427 155.677 114.894 155.337C114.992 155.249 115.098 155.172 115.212 155.106C115.552 154.967 115.788 155.735 115.84 157.05C115.91 158.031 115.904 159.012 115.921 160.004C115.938 160.996 115.967 162 115.985 163.01C116.042 165.029 116.129 167.083 116.262 169.137C116.362 170.675 116.473 172.214 116.596 173.752L117 178.494L116.937 178.506Z" fill="#3B2C7D"/>
<path d="M102.118 209.665C102.049 207.473 101.974 205.281 101.853 203.1C101.807 202.304 101.703 201.507 101.657 200.717C101.489 197.907 101.293 195.109 100.912 192.334C100.739 191.11 100.495 189.896 100.18 188.7C99.9547 187.95 99.7586 187.183 99.4874 186.461C99.3605 186.092 99.2509 185.717 99.1355 185.348C99.0011 184.987 98.8856 184.619 98.7893 184.246C98.6682 183.784 99.1182 183.623 99.7124 183.825C100.101 183.971 100.452 184.203 100.739 184.502C101.026 184.802 101.243 185.162 101.374 185.556C102.4 188.749 102.993 192.065 103.139 195.415C103.232 197.406 103.561 199.454 103.716 201.456C103.884 203.671 104.005 205.886 104.109 208.096C104.172 209.463 104.241 210.825 104.305 212.186C104.409 214.246 104.472 216.317 104.616 218.359C104.737 219.946 104.974 221.492 105.159 223.056C105.199 223.402 105.251 223.736 105.274 224.088C105.366 225.375 105.274 225.819 104.732 226.108C104.622 226.185 104.506 226.255 104.386 226.315C103.982 226.465 103.607 225.957 103.411 225.017C102.858 222.144 102.517 219.234 102.389 216.311C102.251 214.107 102.187 211.892 102.072 209.683L102.118 209.665Z" fill="#3B2C7D"/>
<path d="M109.108 237.738C108.222 238.842 107.011 239.64 105.647 240.017C104.3 240.353 102.88 240.233 101.608 239.677C101.38 239.591 101.158 239.489 100.945 239.371L100.622 239.204L100.328 239.013C99.9148 238.771 99.5281 238.487 99.1739 238.165C97.9303 237.048 97.0249 235.605 96.5604 234C96.1182 232.436 96.0412 230.792 96.3354 229.194C96.6069 227.809 97.0669 226.468 97.7027 225.207C98.4858 223.591 99.6794 222.208 101.164 221.198C101.62 220.881 101.741 221.198 101.62 221.729C101.54 222.059 101.42 222.379 101.262 222.681C101.086 223.072 100.866 223.442 100.605 223.782C99.6318 225.057 98.8648 226.476 98.3316 227.988C97.8226 229.5 97.657 231.106 97.847 232.69C97.9761 233.403 98.1992 234.096 98.5104 234.75L98.8854 235.379C99.432 236.192 100.134 236.89 100.951 237.432C101.375 237.754 101.843 238.013 102.341 238.2C102.819 238.394 103.326 238.505 103.841 238.529C104.352 238.562 104.865 238.5 105.353 238.344C105.847 238.194 106.31 237.955 106.72 237.64C107.239 237.241 107.686 236.755 108.041 236.204C108.393 235.633 108.663 235.015 108.843 234.369C109.342 232.33 109.099 230.181 108.157 228.306C107.436 226.838 106.514 225.478 105.416 224.267L104.695 223.459C103.801 222.438 103.633 222.011 103.864 221.417C103.916 221.29 103.939 221.146 103.997 221.042C104.055 220.938 104.297 220.834 104.574 220.909C104.977 221.027 105.34 221.253 105.624 221.561C106.783 222.673 107.804 223.92 108.664 225.277C109.598 226.729 110.281 228.328 110.683 230.007C110.987 231.334 111.017 232.708 110.77 234.046C110.514 235.406 109.941 236.687 109.097 237.784L109.108 237.738Z" fill="#3B2C7D"/>
<path d="M88.3112 108.652C87.8664 109.594 87.591 110.608 87.4977 111.646C87.4798 111.838 87.4798 112.031 87.4977 112.223C87.4977 112.407 87.4977 112.592 87.5381 112.765C87.5785 112.938 87.5381 112.892 87.5381 112.961C87.5329 113.021 87.5329 113.081 87.5381 113.14C87.5372 113.155 87.5396 113.17 87.5451 113.185C87.5507 113.199 87.5592 113.211 87.5702 113.222C87.5812 113.232 87.5944 113.24 87.6088 113.245C87.6232 113.25 87.6384 113.251 87.6535 113.25H87.8323C87.921 113.238 88.0081 113.217 88.092 113.186L88.6112 113.002L89.667 112.621C90.2958 112.384 90.9247 112.136 91.5766 111.923C92.4225 111.55 93.3581 111.43 94.2708 111.577C94.5766 111.657 94.4554 111.992 94.2189 112.315C94.0091 112.678 93.6842 112.96 93.2958 113.117C92.538 113.335 91.7943 113.599 91.0689 113.907C90.29 114.184 89.5054 114.484 88.6112 114.727C88.2078 114.874 87.7901 114.978 87.365 115.038C87.1715 115.056 86.9763 115.041 86.7881 114.992C86.6958 114.963 86.6083 114.92 86.5285 114.865C86.4477 114.813 86.4131 114.709 86.3554 114.634L86.1997 114.392C86.1341 114.314 86.0885 114.221 86.067 114.121L85.8708 113.504C85.8177 113.315 85.7829 113.122 85.767 112.927C85.7395 112.78 85.7259 112.631 85.7266 112.482C85.6919 111.221 85.8874 109.964 86.3035 108.773C86.5494 108.036 86.8866 107.332 87.3073 106.679C87.6531 106.16 88.0935 105.712 88.6054 105.357C89.163 104.969 89.8371 104.783 90.515 104.832C91.0381 104.902 91.5358 105.1 91.9631 105.409C92.358 105.685 92.7099 106.017 93.0073 106.396C93.1368 106.553 93.2581 106.717 93.3708 106.886C93.74 107.544 93.6996 107.821 93.342 108.132C93.2648 108.208 93.1819 108.277 93.0939 108.34C92.7881 108.53 92.4247 108.386 92.1189 108.034C91.736 107.557 91.2918 107.132 90.7977 106.771C90.6516 106.673 90.4828 106.613 90.3073 106.598C90.1505 106.599 89.9968 106.643 89.8631 106.725C89.5312 106.899 89.2477 107.152 89.0381 107.463C88.7431 107.84 88.5006 108.256 88.317 108.698L88.3112 108.652Z" fill="#3B2C7D"/>
<path d="M85.537 152.267C84.7368 149.274 84.4789 146.161 84.7755 143.077C84.8558 141.956 85.0139 140.841 85.2486 139.742C85.6629 137.748 86.4989 135.865 87.7005 134.221C88.344 133.365 89.1774 132.67 90.1351 132.19C91.1118 131.7 92.2157 131.523 93.2966 131.682C95.105 132.016 96.7555 132.929 97.9986 134.284C98.7868 135.089 99.4675 135.993 100.024 136.973C100.587 137.935 101.007 138.975 101.27 140.059C101.431 140.729 101.195 140.7 100.756 140.256C100.099 139.571 99.5188 138.816 99.0255 138.006C98.0264 136.252 96.5526 134.816 94.7736 133.863C93.9761 133.443 93.0703 133.273 92.1748 133.376C91.2792 133.479 90.4356 133.85 89.7543 134.44C88.8463 135.276 88.1536 136.319 87.7351 137.481C87.2707 138.7 86.9342 139.965 86.7313 141.254C86.2514 144.12 86.269 147.047 86.7832 149.907C87.0865 151.663 87.6565 153.361 88.4736 154.944C89.092 156.123 89.9188 157.181 90.914 158.065C91.8733 158.94 93.0583 159.53 94.3351 159.767C95.296 159.885 96.2695 159.695 97.1159 159.225C97.9637 158.753 98.7059 158.113 99.2966 157.344C99.5537 157.004 99.7888 156.647 100 156.277C100.768 154.886 100.97 154.425 101.477 154.171C101.584 154.103 101.696 154.043 101.812 153.992C101.991 153.94 102.1 154.096 102.147 154.459C102.192 154.997 102.119 155.539 101.933 156.046C101.586 157.057 101.049 157.993 100.352 158.804C99.626 159.672 98.7234 160.376 97.7043 160.869C96.6069 161.389 95.3852 161.589 94.1793 161.446C93.8793 161.394 93.5736 161.348 93.2793 161.273L92.4139 160.979L91.6409 160.615L90.9024 160.182C90.1985 159.722 89.5483 159.184 88.964 158.579C88.4 157.974 87.8922 157.319 87.4466 156.623C86.6022 155.254 85.9518 153.774 85.514 152.227L85.537 152.267Z" fill="#3B2C7D"/>
<path d="M88.9405 147.115C88.8477 148.025 88.8826 148.944 89.0443 149.844C89.1179 150.17 89.2084 150.491 89.3155 150.807C89.6611 151.948 90.2018 153.019 90.9136 153.975C91.2219 154.408 91.5758 154.806 91.9693 155.163C92.4586 155.612 93.0011 156 93.5847 156.317C93.7578 156.409 93.729 156.502 93.5155 156.559C93.169 156.64 92.805 156.589 92.4944 156.415C91.8454 156.038 91.261 155.558 90.7636 154.996C90.2578 154.449 89.8377 153.828 89.5174 153.156C89.0853 152.36 88.7299 151.526 88.4559 150.663C88.2024 149.698 88.0936 148.701 88.1328 147.704C88.1578 147.099 88.2175 146.496 88.3117 145.898C88.4662 144.995 88.7276 144.114 89.0905 143.273C89.3477 142.61 89.7101 141.992 90.1636 141.444C90.2607 141.321 90.3688 141.207 90.4867 141.104C90.5963 141 90.6828 140.919 90.7636 140.856C90.8381 140.812 90.9152 140.774 90.9943 140.74C91.0856 140.695 91.1871 140.675 91.2886 140.683C91.3248 140.676 91.3619 140.676 91.3982 140.683C91.479 140.683 91.3463 140.919 91.0924 141.225C90.3321 142.153 89.7687 143.227 89.4367 144.381C89.1882 145.27 89.0297 146.182 88.9636 147.104L88.9405 147.115Z" fill="#3B2C7D"/>
<path d="M95.5702 146.798C95.5246 146.988 95.4918 147.181 95.4721 147.375C95.4721 147.438 95.4721 147.508 95.4721 147.571C95.4558 147.816 95.4831 148.062 95.5528 148.298C95.5953 148.398 95.6496 148.493 95.7144 148.581C95.8093 148.687 95.8836 148.811 95.9336 148.944C95.9336 148.996 95.8413 149.1 95.7029 149.181C95.5644 149.262 95.3798 149.319 95.2875 149.256C95.1267 149.145 94.9951 148.996 94.9037 148.824C94.8124 148.651 94.7639 148.459 94.7625 148.263C94.7625 148.033 94.6644 147.819 94.6471 147.594C94.6371 147.352 94.6565 147.11 94.7048 146.873C94.7048 146.729 94.774 146.585 94.8144 146.446C94.8548 146.308 94.9644 146.037 95.0336 145.835C95.1028 145.633 95.1028 145.506 95.1663 145.344C95.1768 145.308 95.1923 145.273 95.2125 145.24C95.2932 145.131 95.3625 145.125 95.5298 145.2L95.6452 145.258C95.6985 145.286 95.7446 145.326 95.7797 145.375C95.8147 145.424 95.8378 145.481 95.8471 145.54C95.8608 145.801 95.8155 146.061 95.7144 146.302C95.6625 146.475 95.6105 146.654 95.5759 146.833L95.5702 146.798Z" fill="#3B2C7D"/>
<path d="M89.3047 151.246C88.7057 148.928 88.7057 146.496 89.3047 144.179C89.9335 142.038 91.1566 139.932 93.3028 138.819C93.8052 138.593 94.3585 138.503 94.9066 138.559C95.4336 138.621 95.9433 138.785 96.4066 139.044C96.9858 139.359 97.4867 139.801 97.872 140.336C98.2394 140.863 98.5144 141.448 98.6855 142.067C98.7951 142.442 98.6855 142.407 98.4835 142.159C98.1313 141.755 97.7577 141.37 97.3643 141.005C96.969 140.624 96.5293 140.29 96.0547 140.013C95.622 139.77 95.1316 139.648 94.6355 139.661C94.1593 139.686 93.6988 139.84 93.3028 140.105C92.8318 140.429 92.4 140.807 92.0162 141.23C91.5331 141.762 91.1325 142.363 90.8278 143.013C89.8428 145.201 89.4891 147.621 89.8066 150C89.9599 151.005 90.2735 151.979 90.7355 152.884C91.086 153.566 91.535 154.192 92.0681 154.742C92.5841 155.284 93.2449 155.667 93.972 155.844C94.2447 155.903 94.5245 155.923 94.8028 155.902L95.2066 155.815L95.4085 155.775L95.6047 155.688L95.9797 155.521C96.1035 155.453 96.223 155.378 96.3374 155.296C96.5756 155.153 96.7964 154.982 96.9951 154.788C97.1641 154.621 97.3185 154.439 97.4566 154.246C97.9989 153.513 98.1778 153.23 98.4951 153.173C98.5616 153.147 98.6316 153.132 98.7028 153.127C98.8989 153.127 98.8585 153.554 98.5181 154.234C98.2514 154.774 97.8716 155.25 97.4047 155.63C96.9183 156.017 96.3703 156.32 95.7835 156.525C95.4705 156.614 95.1499 156.673 94.8258 156.704C94.496 156.715 94.1662 156.682 93.8451 156.605C93.2132 156.458 92.622 156.173 92.1143 155.769C91.4089 155.192 90.8213 154.485 90.3835 153.686C89.9327 152.921 89.5633 152.111 89.2816 151.269L89.3047 151.246Z" fill="#3B2C7D"/>
<path d="M90.5787 151.154C90.2571 149.884 90.1269 148.573 90.1922 147.265C90.2041 146.787 90.2542 146.31 90.3421 145.84C90.5073 145.008 90.7992 144.207 91.2075 143.463C91.6124 142.684 92.2361 142.041 93.0018 141.611C93.3525 141.422 93.7391 141.308 94.1366 141.277C94.5341 141.246 94.9337 141.299 95.3095 141.432C96.2051 141.805 96.9447 142.476 97.4037 143.331C97.5479 143.579 97.4441 143.607 97.2018 143.492C96.835 143.321 96.487 143.112 96.1633 142.869C95.9021 142.592 95.5762 142.383 95.2148 142.262C94.8534 142.142 94.4677 142.112 94.0921 142.177C93.7266 142.264 93.3791 142.414 93.0652 142.621C92.7358 142.859 92.4458 143.147 92.2056 143.475C91.6131 144.377 91.2506 145.411 91.1498 146.486C90.9996 147.691 91.0425 148.912 91.2768 150.104C91.4164 150.825 91.682 151.517 92.0614 152.146C92.3176 152.615 92.6791 153.019 93.1175 153.325C93.5559 153.632 94.0594 153.832 94.5883 153.911C94.9766 153.895 95.3554 153.787 95.6942 153.596C96.033 153.406 96.3222 153.138 96.5383 152.815C96.6449 152.677 96.7431 152.532 96.8325 152.382C96.9601 152.181 97.1155 151.998 97.2941 151.84C97.4326 151.759 97.5892 151.713 97.7498 151.707C97.8248 151.707 97.9056 151.707 97.9691 151.707C98.0325 151.707 98.1364 151.806 98.1652 151.979C98.2092 152.217 98.1769 152.463 98.0729 152.682C97.8908 153.107 97.6371 153.497 97.3229 153.836C96.9893 154.21 96.5855 154.513 96.1345 154.731C95.6405 154.967 95.095 155.076 94.5479 155.048C94.0112 154.998 93.4915 154.833 93.0248 154.563C91.8055 153.779 90.9308 152.56 90.5787 151.154Z" fill="#3B2C7D"/>
<path d="M92.3079 152.031C91.7605 151.075 91.4168 150.016 91.2983 148.921C91.2521 148.538 91.2309 148.153 91.2348 147.767C91.2614 147.078 91.3778 146.395 91.581 145.736C91.7767 145.056 92.1238 144.429 92.5964 143.902C93.0229 143.421 93.6012 143.102 94.2348 142.996C94.6229 142.921 95.0228 142.934 95.4052 143.033C95.7876 143.133 96.1428 143.318 96.4445 143.573C96.6233 143.729 96.5772 143.729 96.3868 143.677C96.0792 143.601 95.7632 143.564 95.4464 143.567C94.8038 143.538 94.1725 143.743 93.6695 144.144C93.1569 144.527 92.7694 145.053 92.556 145.656C92.2782 146.479 92.1683 147.35 92.2329 148.217C92.2509 149.177 92.471 150.123 92.8791 150.992C93.1007 151.523 93.4377 151.998 93.8656 152.383C94.1661 152.648 94.5495 152.801 94.9502 152.815C95.3575 152.81 95.7498 152.66 96.0579 152.394C96.5667 151.941 96.9788 151.389 97.2695 150.773L97.4714 150.369C97.7252 149.856 97.806 149.688 97.9675 149.602C98.0079 149.602 98.0425 149.55 98.0714 149.538C98.1002 149.527 98.2214 149.763 98.1349 150.219C98.0243 150.925 97.7816 151.605 97.4195 152.221C97.22 152.558 96.9754 152.867 96.6925 153.138C96.5359 153.286 96.3659 153.42 96.1849 153.536C95.9802 153.645 95.7633 153.728 95.5387 153.784C95.1986 153.865 94.8457 153.875 94.5015 153.815C94.1573 153.754 93.8291 153.624 93.5368 153.433C93.0286 153.088 92.6031 152.634 92.2906 152.106L92.3079 152.031Z" fill="#3B2C7D"/>
<path d="M93.3079 149.631C93.0932 149.06 92.9762 148.457 92.9617 147.848C92.9503 147.633 92.9503 147.417 92.9617 147.202C92.9801 146.811 93.044 146.424 93.1521 146.048C93.2653 145.672 93.4387 145.318 93.6656 144.998C93.8659 144.695 94.1347 144.444 94.4502 144.265C94.6515 144.154 94.8766 144.093 95.1065 144.087C95.3364 144.081 95.5644 144.13 95.7713 144.231C95.8982 144.294 95.8348 144.386 95.7021 144.473C95.5512 144.575 95.3884 144.658 95.2175 144.721C95.0765 144.759 94.9449 144.826 94.8309 144.917C94.773 144.962 94.7189 145.013 94.6694 145.067C94.6117 145.102 94.5598 145.159 94.4963 145.206C94.2585 145.452 94.0635 145.737 93.9194 146.048C93.7533 146.488 93.6844 146.958 93.7175 147.427C93.7073 147.953 93.7734 148.477 93.9136 148.984C94.0021 149.287 94.1384 149.573 94.3175 149.832C94.4197 150.003 94.5577 150.15 94.7219 150.262C94.8862 150.375 95.0729 150.45 95.2692 150.484C95.4654 150.517 95.6666 150.508 95.8588 150.456C96.0511 150.404 96.2299 150.312 96.3829 150.184C96.4388 150.141 96.4909 150.093 96.5386 150.04C96.7348 149.861 96.8156 149.827 97.0348 149.913L97.1848 149.965C97.3348 150.034 97.3752 150.242 97.1848 150.484C96.8927 150.856 96.4861 151.121 96.0282 151.238C95.5702 151.354 95.0865 151.317 94.6521 151.131C94.3112 150.991 94.0114 150.766 93.7809 150.479C93.572 150.222 93.401 149.936 93.2732 149.631H93.3079Z" fill="#3B2C7D"/>
<path d="M94.3613 148.344C94.2549 148.024 94.1985 147.689 94.194 147.352C94.1853 147.233 94.1853 147.113 94.194 146.994C94.2414 146.561 94.3961 146.147 94.644 145.788C94.7504 145.619 94.8784 145.464 95.0248 145.327C95.1449 145.218 95.2962 145.149 95.4575 145.131C95.5398 145.124 95.6226 145.136 95.6996 145.166C95.7766 145.196 95.8457 145.243 95.9017 145.304C95.9652 145.373 95.8498 145.477 95.7229 145.587C95.5959 145.696 95.4921 145.852 95.5209 145.829C95.5498 145.806 95.5209 145.881 95.5209 145.91C95.5209 145.938 95.4402 145.979 95.3882 146.037C95.2656 146.168 95.1537 146.309 95.0536 146.458C94.9473 146.662 94.8994 146.892 94.9152 147.121C94.9025 147.39 94.9219 147.659 94.9729 147.923C95.0075 148.083 95.0617 148.238 95.1344 148.385C95.2238 148.603 95.3959 148.777 95.6132 148.869C95.7798 148.907 95.9542 148.889 96.1094 148.817L96.2132 148.777C96.3459 148.719 96.4094 148.742 96.5075 148.858C96.5322 148.883 96.5553 148.91 96.5767 148.938C96.6517 149.031 96.6286 149.146 96.5075 149.244C96.3177 149.413 96.075 149.511 95.8209 149.521C95.5324 149.531 95.2493 149.441 95.019 149.267C94.7205 149.028 94.4948 148.711 94.3671 148.35L94.3613 148.344Z" fill="#3B2C7D"/>
<path d="M87.4163 150.236C87.154 148.485 87.1755 146.702 87.4797 144.957C87.5628 144.329 87.6783 143.705 87.8259 143.088C88.0977 142.002 88.4665 140.941 88.9278 139.921C89.3852 138.875 90.0173 137.916 90.797 137.082C91.1494 136.684 91.5769 136.359 92.0551 136.127C92.5333 135.894 93.0527 135.758 93.5836 135.727C94.2536 135.726 94.9096 135.919 95.4718 136.284C96.034 136.648 96.4784 137.168 96.7509 137.78C96.9009 138.155 96.8028 138.127 96.5605 137.896C96.1813 137.553 95.7512 137.27 95.2855 137.059C94.8099 136.83 94.2835 136.727 93.7566 136.759C93.2653 136.769 92.7877 136.924 92.3836 137.203C91.4693 137.873 90.7309 138.754 90.2316 139.771C89.5729 141.11 89.1234 142.542 88.8989 144.017C88.5779 145.636 88.4597 147.289 88.547 148.938C88.6313 149.937 88.8526 150.919 89.2047 151.857C89.7142 153.295 90.5563 154.592 91.6624 155.642C92.4756 156.404 93.5322 156.854 94.6451 156.911L95.3316 156.859C96.1739 156.692 96.4855 156.709 96.797 156.928C96.8663 156.98 96.9586 157.021 97.0105 157.067C97.0624 157.113 97.0739 157.269 96.9297 157.436C96.7222 157.68 96.4561 157.866 96.1566 157.978C95.5446 158.183 94.8981 158.264 94.2545 158.218C93.611 158.171 92.9829 157.998 92.4066 157.707C91.2696 157.129 90.2897 156.284 89.5509 155.244C88.9994 154.51 88.542 153.709 88.1893 152.861C87.825 152.02 87.5542 151.142 87.3816 150.242L87.4163 150.236Z" fill="#3B2C7D"/>
<path d="M92.4761 150.502C92.2063 149.859 92.0126 149.188 91.8991 148.5C91.8645 148.246 91.8184 147.998 91.8068 147.744C91.7442 146.836 91.8943 145.925 92.2453 145.085C92.4054 144.708 92.6129 144.353 92.8626 144.029C93.1752 143.596 93.6087 143.265 94.1088 143.077C94.2645 143.025 94.3049 143.181 94.2645 143.388C94.2137 143.611 94.0947 143.813 93.9242 143.965C93.2351 144.555 92.737 145.336 92.4934 146.21C92.3485 146.774 92.2959 147.359 92.3376 147.94C92.365 148.606 92.4775 149.265 92.6722 149.902C92.7835 150.305 92.9444 150.692 93.1511 151.056C93.4375 151.595 93.8615 152.049 94.3799 152.371C94.5529 152.473 94.7475 152.533 94.9479 152.546C95.1483 152.559 95.349 152.525 95.5338 152.446L95.7588 152.325C95.8692 152.27 95.9829 152.222 96.0992 152.181C96.1847 152.164 96.2733 152.174 96.353 152.21L96.4741 152.25C96.578 152.296 96.5549 152.504 96.3357 152.775C96.1485 152.99 95.9063 153.151 95.635 153.239C95.3637 153.328 95.0734 153.341 94.7953 153.277C94.2676 153.125 93.805 152.802 93.4799 152.36C93.0622 151.773 92.7137 151.14 92.4415 150.473L92.4761 150.502Z" fill="#3B2C7D"/>
<path d="M116.76 125.625C116.575 126.392 116.425 127.183 116.31 127.973C116.27 128.267 116.27 128.55 116.229 128.85C116.102 129.877 115.895 130.91 115.802 131.954C115.756 132.415 115.756 132.883 115.75 133.344C115.784 133.938 115.757 134.533 115.67 135.121C115.629 135.306 115.41 135.283 115.179 135.121C115.045 135.032 114.931 134.915 114.844 134.779C114.758 134.643 114.701 134.49 114.677 134.331C114.55 133.115 114.55 131.889 114.677 130.673C114.764 129.935 114.723 129.167 114.804 128.412C114.885 127.656 115 126.756 115.145 125.931C115.22 125.423 115.346 124.915 115.445 124.408C115.618 123.64 115.837 122.885 116.079 122.1C116.183 121.812 116.264 121.523 116.385 121.223L116.546 120.785C116.614 120.642 116.693 120.505 116.783 120.375C116.858 120.254 116.921 120.133 117.008 120.017C117.133 119.859 117.301 119.741 117.493 119.677C117.611 119.631 117.743 119.631 117.862 119.677C117.918 119.691 117.972 119.712 118.023 119.74C118.168 119.827 118.162 120.104 118.093 120.438C117.954 120.917 117.873 121.396 117.746 121.869C117.677 122.094 117.643 122.348 117.579 122.59C117.516 122.833 117.423 123.063 117.354 123.312C117.123 124.055 116.931 124.81 116.777 125.573L116.76 125.625Z" fill="#3B2C7D"/>
<path d="M107.187 184.898C106.064 185.229 104.945 185.588 103.829 185.977C103.42 186.115 103.028 186.288 102.624 186.432C101.193 186.946 99.7391 187.442 98.3314 187.984C97.6968 188.221 97.0679 188.48 96.4506 188.74C95.6647 189.102 94.8551 189.41 94.0276 189.663C93.5083 189.807 93.8891 188.896 94.7949 188.509C96.4103 187.823 98.0314 187.148 99.716 186.571C100.72 186.225 101.729 185.769 102.756 185.417C103.879 185.005 105.014 184.621 106.16 184.263C106.87 184.05 107.579 183.836 108.295 183.652C109.374 183.363 110.476 183.132 111.566 182.902C112.414 182.746 113.239 182.55 114.093 182.446C114.283 182.446 114.462 182.394 114.67 182.388C115.374 182.388 115.604 182.388 115.76 182.538C115.797 182.566 115.832 182.597 115.864 182.63C115.933 182.734 115.656 182.85 115.154 182.954C114.785 183.029 114.416 183.104 114.041 183.207C113.666 183.311 113.285 183.34 112.887 183.432L111.733 183.68L110.579 183.969C110.003 184.107 109.426 184.275 108.878 184.43L107.181 184.938L107.187 184.898Z" fill="#3B2C7D"/>
<path d="M223.611 108.369C226.701 108.873 229.75 109.604 232.732 110.556C233.817 110.908 234.902 111.236 235.969 111.629C237.856 112.298 239.69 113.083 241.542 113.769C242.471 114.11 243.4 114.433 244.34 114.675C245.254 114.948 246.212 115.044 247.161 114.958C247.973 114.806 248.715 114.402 249.284 113.804C249.899 113.207 250.427 112.527 250.854 111.785C251.41 110.822 251.894 109.819 252.302 108.785C252.72 107.747 253.077 106.686 253.369 105.606C253.554 104.931 253.594 105.029 253.554 105.635C253.487 106.643 253.311 107.641 253.029 108.611C252.699 109.742 252.25 110.835 251.69 111.871C251.142 112.958 250.399 113.936 249.498 114.756C249.01 115.189 248.441 115.522 247.825 115.736C247.197 115.904 246.544 115.955 245.898 115.886C244.704 115.76 243.53 115.489 242.402 115.079C239.748 114.156 237.059 113.152 234.388 112.246C231.463 111.229 228.469 110.421 225.429 109.829C223.557 109.47 221.668 109.206 219.769 109.038C216.891 108.79 213.997 108.767 211.115 108.969C208.914 109.147 206.724 109.445 204.556 109.863L203.136 110.14C201.354 110.469 200.771 110.498 200.332 110.325C200.231 110.295 200.133 110.256 200.038 110.21C199.825 110.06 200.517 109.736 201.815 109.356C205.84 108.295 209.982 107.739 214.144 107.7C217.31 107.658 220.474 107.875 223.606 108.346L223.611 108.369Z" fill="#3B2C7D"/>
<path d="M202.384 150.173C201.548 150.785 200.683 151.362 199.8 151.904C199.477 152.106 199.165 152.325 198.831 152.51C197.65 153.159 196.402 153.679 195.109 154.062C194.533 154.229 193.956 154.379 193.379 154.494C192.622 154.67 191.839 154.701 191.071 154.587C190.829 154.54 190.886 154.304 191.071 154.067C191.316 153.796 191.649 153.621 192.011 153.571C192.716 153.504 193.414 153.383 194.1 153.208C194.807 153.052 195.506 152.859 196.194 152.631C197.045 152.307 197.857 151.891 198.617 151.39C199.483 150.877 200.348 150.317 201.156 149.723C201.663 149.354 202.171 148.985 202.667 148.569C203.423 147.992 204.179 147.415 204.923 146.792C205.485 146.283 206.092 145.823 206.734 145.419C206.899 145.327 207.073 145.253 207.254 145.2C207.402 145.146 207.561 145.128 207.718 145.148C207.874 145.168 208.024 145.226 208.154 145.315C208.225 145.359 208.278 145.426 208.305 145.505C208.333 145.584 208.332 145.67 208.304 145.748C208.288 145.808 208.262 145.864 208.229 145.915C208.09 146.048 207.842 145.95 207.704 146.037C207.481 146.121 207.273 146.24 207.086 146.389C206.85 146.573 206.602 146.752 206.348 146.965L204.808 148.269C204.038 148.927 203.233 149.575 202.39 150.214L202.384 150.173Z" fill="#3B2C7D"/>
<path d="M198.041 97.4077L197.914 99.3865C196.641 99.8624 195.517 100.667 194.657 101.719C193.796 102.771 193.23 104.033 193.016 105.375C192.012 111.208 195.566 111.721 195.566 111.721C195.566 111.721 190.876 108.502 191.355 104.279C191.833 100.056 194.464 98.3308 195.555 97.8404C196.348 97.5368 197.192 97.3899 198.041 97.4077Z" fill="#3B2C7D"/>
<path d="M208.699 144.392C208.699 144.56 208.699 144.744 208.699 144.929C208.699 144.992 208.745 145.044 208.745 145.113C208.761 145.359 208.801 145.603 208.866 145.84C208.901 145.944 208.958 146.039 209.034 146.117C209.126 146.221 209.259 146.296 209.247 146.475C209.236 146.654 208.341 147.11 208.209 146.965C207.982 146.704 207.846 146.376 207.822 146.031C207.78 145.831 207.714 145.638 207.626 145.454C207.57 145.232 207.532 145.006 207.511 144.779C207.511 144.64 207.511 144.502 207.511 144.363C207.511 144.225 207.511 143.954 207.511 143.752C207.511 143.55 207.413 143.446 207.418 143.29C207.413 143.258 207.413 143.225 207.418 143.192C207.459 143.065 207.534 143.031 207.747 143.019H207.886C208.026 143.016 208.163 143.068 208.266 143.163C208.376 143.253 208.467 143.363 208.533 143.488C208.599 143.613 208.64 143.75 208.653 143.89L208.722 144.41L208.699 144.392Z" fill="#3B2C7D"/>
<path d="M203.13 111.877C204.584 114.392 203.407 119.769 202.623 120.473C201.838 121.177 206.338 116.515 207.498 117.409C208.657 118.304 207.953 123.756 204.036 127.961C204.036 127.961 207.313 135.017 205.005 138.508C205.005 138.508 207.601 138.427 208.276 137.567C208.276 137.567 207.503 136.633 209.228 134.867C209.943 134.059 210.752 133.34 211.64 132.727C211.64 132.727 208.524 131.608 209.557 130.148C210.59 128.688 213.596 127.033 213.596 127.033C213.596 127.033 212.298 125.533 213.596 122.74C214.894 119.948 222.665 114.086 223.334 112.806C224.003 111.525 222.296 111.029 222.296 111.029L212.73 110.769L203.13 111.877Z" fill="#3B2C7D"/>
<path d="M237.559 88.2692C236.826 87.8192 238.372 79.1769 240.588 75.75C242.371 72.9923 239.019 84.0807 242.78 89.1173C242.901 89.2904 242.619 89.498 242.417 89.4519L237.559 88.2692Z" fill="#3B2C7D"/>
<path d="M248.616 108.813C243.707 103.246 243.707 95.6421 243.707 95.6421L240.066 98.9248C240.066 98.9248 243.609 104.902 244.682 106.592C245.755 108.282 248.616 108.813 248.616 108.813Z" fill="#3B2C7D"/>
<path d="M127.317 146.665C126.936 147.3 126.561 147.946 126.198 148.604C126.071 148.846 125.973 149.1 125.84 149.342C125.355 150.185 124.859 151.023 124.351 151.858C124.126 152.227 123.925 152.613 123.728 153.012C123.519 153.535 123.209 154.014 122.817 154.419C122.551 154.656 121.755 153.56 122.061 153.069C122.603 152.152 123.151 151.217 123.792 150.306C124.151 149.724 124.471 149.119 124.749 148.494C125.096 147.825 125.459 147.156 125.834 146.492L126.538 145.263C126.901 144.646 127.288 144.04 127.692 143.44L128.124 142.719C128.26 142.468 128.414 142.226 128.586 141.998C128.661 141.9 128.724 141.785 128.805 141.687C129.163 141.352 129.353 141.335 129.659 141.554C129.723 141.6 129.792 141.635 129.844 141.681C129.932 141.784 129.987 141.912 130 142.047C130.013 142.182 129.985 142.318 129.919 142.437C129.474 143.221 128.961 143.977 128.453 144.802C128.073 145.413 127.692 146.042 127.334 146.694L127.317 146.665Z" fill="#3B2C7D"/>
<path d="M107.46 145.829C107.143 145.5 106.814 145.165 106.474 144.842C106.358 144.721 106.208 144.629 106.093 144.507L104.824 143.186C104.641 142.994 104.449 142.811 104.247 142.638C103.956 142.449 103.704 142.206 103.503 141.923C103.451 141.825 103.601 141.681 103.814 141.588C103.911 141.534 104.018 141.501 104.129 141.493C104.24 141.485 104.351 141.502 104.454 141.542C105.034 141.911 105.558 142.359 106.012 142.875C106.317 143.175 106.647 143.45 106.999 143.694C107.362 143.994 107.708 144.317 108.06 144.64L108.701 145.217C109.035 145.517 109.341 145.846 109.681 146.129C110.022 146.411 110.258 146.515 110.547 146.706C110.611 146.747 110.671 146.796 110.726 146.85C110.928 147.063 110.876 147.225 110.679 147.479C110.628 147.536 110.587 147.6 110.535 147.652C110.457 147.736 110.357 147.798 110.246 147.831C110.136 147.863 110.018 147.865 109.906 147.836C109.618 147.734 109.351 147.582 109.116 147.386C108.879 147.202 108.66 147 108.435 146.809L107.443 145.857L107.46 145.829Z" fill="#3B2C7D"/>
<path d="M163.143 148.304C162.481 147.784 161.826 147.254 161.176 146.711C160.939 146.515 160.674 146.348 160.449 146.134C159.618 145.425 158.851 144.646 158.089 143.873C157.754 143.521 157.403 143.186 157.079 142.829C156.598 142.413 156.249 141.866 156.076 141.254C156.012 141.057 155.983 141.115 156.128 141.202C156.245 141.262 156.372 141.303 156.503 141.323C156.578 141.323 156.716 141.323 156.803 141.323C156.88 141.363 156.955 141.407 157.028 141.455C157.53 141.801 158.012 142.177 158.47 142.58C158.891 143.007 159.335 143.429 159.751 143.89C160.296 144.413 160.874 144.901 161.481 145.35C162.128 145.875 162.779 146.4 163.443 146.907C163.853 147.219 164.262 147.536 164.683 147.83C165.318 148.286 165.953 148.748 166.61 149.157C167.129 149.475 167.678 149.734 168.214 149.994C168.329 150.052 168.451 150.104 168.566 150.173C168.732 150.255 168.869 150.386 168.958 150.548C168.984 150.608 168.998 150.673 168.999 150.738C168.986 150.818 168.969 150.897 168.947 150.975C168.935 151.041 168.918 151.107 168.895 151.171C168.811 151.284 168.691 151.366 168.555 151.403C168.419 151.44 168.274 151.429 168.145 151.373C167.106 150.961 166.12 150.426 165.208 149.78C164.504 149.313 163.818 148.811 163.131 148.304H163.143Z" fill="#3B2C7D"/>
<path d="M112.548 146.307C111.314 147.461 110.039 148.615 108.775 149.717C108.314 150.132 107.881 150.565 107.414 150.969L106.156 152.007C105.948 152.18 105.729 152.348 105.516 152.509L105.077 152.85C104.927 152.995 104.751 153.11 104.558 153.19L104.304 153.305L104.177 153.357C104.177 153.259 104.177 153.357 104.177 153.305H104.062C103.873 153.279 103.696 153.197 103.554 153.069C103.389 152.934 103.232 152.787 103.087 152.63L102.694 152.307C102.325 151.921 101.95 151.546 101.541 151.188C100.86 150.553 100.117 149.987 99.3252 149.498C98.304 148.892 97.2829 148.344 96.2386 147.767C95.9156 147.588 96.0483 147.311 96.4694 147.121C97.0559 146.873 97.7159 146.862 98.3098 147.092C99.531 147.597 100.666 148.29 101.673 149.146C102.177 149.556 102.661 149.991 103.121 150.45C103.346 150.68 103.571 150.911 103.785 151.148L103.923 151.298L103.952 151.355L104.016 151.471L104.067 151.54C104.096 151.54 104.108 151.54 104.131 151.54L104.269 151.459H104.304L104.408 151.379L104.627 151.194L105.071 150.83L106.802 149.342C108.094 148.275 109.335 147.138 110.541 145.973C111.285 145.263 112.017 144.536 112.721 143.78C113.811 142.665 114.832 141.484 115.779 140.244C116.472 139.286 117.085 138.273 117.614 137.215C117.735 136.99 117.833 136.754 117.948 136.529C118.094 136.219 118.289 135.934 118.525 135.686C118.605 135.61 118.702 135.554 118.808 135.525C118.915 135.486 119.029 135.471 119.142 135.479C119.273 135.467 119.404 135.467 119.535 135.479C120.002 135.582 119.985 136.055 119.766 136.777C118.881 138.912 117.636 140.879 116.085 142.592C114.971 143.913 113.777 145.154 112.548 146.354V146.307Z" fill="#3B2C7D"/>
<path d="M136.22 147.559C134.94 146.538 133.624 145.552 132.286 144.594C131.801 144.242 131.288 143.931 130.797 143.579L125.605 139.869L123.297 138.242C122.791 137.888 122.308 137.502 121.849 137.088C121.331 136.675 120.918 136.145 120.644 135.542C120.505 135.029 120.811 135.156 121.14 135.306C121.632 135.466 122.095 135.704 122.513 136.009C122.974 136.361 123.459 136.696 123.955 137.036C124.451 137.377 124.924 137.746 125.42 138.104C126.407 138.813 127.399 139.534 128.386 140.284C129.54 141.179 130.89 141.969 132.142 142.829C133.519 143.767 134.878 144.74 136.22 145.748C137.045 146.365 137.865 146.994 138.667 147.64C139.89 148.615 141.067 149.659 142.197 150.738C143.107 151.554 143.953 152.438 144.73 153.381C144.898 153.599 145.054 153.826 145.197 154.061C145.402 154.378 145.537 154.734 145.595 155.106C145.594 155.313 145.527 155.515 145.405 155.683C145.366 155.751 145.32 155.815 145.267 155.873C145.186 155.948 145.065 155.908 144.897 155.786C144.798 155.718 144.704 155.643 144.615 155.561C144.56 155.516 144.513 155.461 144.476 155.4C144.42 155.342 144.368 155.28 144.32 155.215C143.033 153.574 141.589 152.062 140.011 150.698C138.799 149.619 137.536 148.563 136.226 147.565L136.22 147.559Z" fill="#3B2C7D"/>
<path d="M160.385 136.771L157.333 141.225C156.964 141.767 156.635 142.332 156.26 142.875L152.32 148.581C151.743 149.423 151.166 150.311 150.653 151.159L149.637 152.832L149.112 153.657C148.933 153.934 148.703 154.177 148.535 154.43C148.368 154.684 148.155 154.632 148.12 154.223C148.095 153.948 148.095 153.672 148.12 153.398C148.184 153.052 148.303 152.719 148.472 152.411C149.757 150.055 151.179 147.777 152.73 145.586C153.676 144.282 154.507 142.823 155.401 141.444L158.378 136.898L160.218 134.105C161.141 132.692 162.082 131.284 162.947 129.848C163.616 128.734 164.187 127.586 164.822 126.473C164.96 126.225 165.082 125.977 165.243 125.74C165.82 124.857 166.103 124.632 166.507 124.586C166.597 124.578 166.688 124.578 166.778 124.586C167.043 124.627 167.014 125.111 166.737 125.85C165.828 128.073 164.697 130.199 163.362 132.196C162.405 133.736 161.401 135.254 160.414 136.777L160.385 136.771Z" fill="#3B2C7D"/>
<path d="M173.108 134.457C172.56 133.805 172.041 133.13 171.545 132.45C171.366 132.202 171.141 131.988 170.968 131.728C170.35 130.846 169.814 129.905 169.283 128.988C169.035 128.584 168.77 128.192 168.499 127.834C168.144 127.348 167.842 126.826 167.599 126.277C167.529 126.098 167.685 126.023 167.933 126.04C168.252 126.066 168.552 126.198 168.787 126.415C169 126.634 169.214 126.853 169.416 127.084C169.618 127.315 169.785 127.563 169.964 127.811C170.327 128.298 170.666 128.802 170.979 129.323C171.39 129.929 171.841 130.508 172.329 131.053C172.843 131.682 173.35 132.317 173.899 132.917C174.233 133.286 174.574 133.65 174.931 133.996C175.461 134.537 176.03 135.038 176.633 135.496C177.119 135.814 177.624 136.103 178.145 136.361C178.262 136.414 178.375 136.474 178.485 136.54C178.866 136.823 178.929 136.996 178.75 137.446C178.716 137.544 178.687 137.636 178.652 137.717C178.571 137.862 178.443 137.975 178.289 138.037C178.134 138.099 177.963 138.106 177.804 138.057C176.702 137.734 175.698 137.139 174.885 136.327C174.245 135.749 173.641 135.135 173.074 134.486L173.108 134.457Z" fill="#3B2C7D"/>
<path d="M144.538 128.821C147.423 132.011 150.348 135.167 153.371 138.202C156.356 141.261 159.511 144.15 162.821 146.855C164.016 147.82 165.269 148.712 166.571 149.527C166.894 149.729 167.223 149.919 167.551 150.104L168.001 150.352C168.047 150.363 168.094 150.363 168.14 150.352C168.405 150.317 168.662 150.239 168.901 150.121C169.223 149.979 169.535 149.817 169.836 149.636C170.968 148.938 172.035 148.14 173.026 147.254C174.042 146.365 175.023 145.419 175.951 144.427C177.823 142.441 179.531 140.307 181.057 138.046C181.826 136.915 182.536 135.752 183.186 134.555C183.509 133.979 183.884 133.315 184.259 132.715L184.882 131.827C185.096 131.532 185.344 131.25 185.574 130.979C186.535 129.868 187.69 128.943 188.984 128.25C190.255 127.62 191.572 127.089 192.924 126.663C194.046 126.301 195.112 125.785 196.092 125.129C197.078 124.419 198.048 123.669 198.976 122.89C200.869 121.344 202.623 119.654 204.492 118.032C204.803 117.773 205.109 117.519 205.449 117.271C205.624 117.144 205.805 117.027 205.992 116.919C206.245 116.768 206.522 116.66 206.811 116.602C207.099 116.55 207.396 116.61 207.642 116.769C207.873 116.957 208.055 117.198 208.173 117.473C208.29 117.668 208.39 117.872 208.473 118.084L208.674 118.713C208.738 118.923 208.777 119.14 208.79 119.359C208.823 119.571 208.842 119.785 208.848 120C208.85 120.429 208.811 120.858 208.732 121.28C208.692 121.488 208.657 121.702 208.605 121.904L208.415 122.48C208.285 122.876 208.127 123.261 207.942 123.634C206.488 126.623 204.053 128.89 201.399 130.638C199.669 131.677 199.807 131.29 201.007 130.142C201.584 129.565 202.415 128.717 203.315 127.661C203.528 127.39 203.759 127.084 203.99 126.825C204.221 126.565 204.434 126.213 204.682 125.913C204.93 125.613 205.138 125.267 205.38 124.938C205.623 124.609 205.83 124.252 206.044 123.888C206.806 122.691 207.229 121.309 207.267 119.89C207.244 119.574 207.188 119.26 207.099 118.955C207.058 118.803 207.008 118.652 206.949 118.505L206.834 118.304V118.252L206.661 118.355C206.523 118.442 206.384 118.546 206.24 118.655C205.086 119.561 203.898 120.704 202.698 121.771C201.498 122.838 200.269 123.917 198.994 124.927C198.353 125.44 197.707 125.93 197.032 126.415C196.311 126.918 195.537 127.342 194.724 127.679C193.155 128.342 191.615 128.752 190.282 129.409C188.949 130.035 187.768 130.942 186.821 132.069C186.331 132.642 185.886 133.252 185.488 133.892L184.911 134.884L184.334 135.963C182.331 139.418 179.957 142.645 177.255 145.586C175.887 147.086 174.408 148.48 172.83 149.757C172.019 150.411 171.15 150.991 170.234 151.488C169.725 151.777 169.174 151.985 168.601 152.105C168.203 152.183 167.79 152.145 167.413 151.996C167.323 151.97 167.238 151.931 167.159 151.88L166.986 151.794L166.651 151.604C164.732 150.487 162.908 149.214 161.199 147.796C159.469 146.417 157.853 144.957 156.249 143.469C153.059 140.486 150.013 137.365 147.019 134.186L144.163 131.094L142.744 129.542L142.305 129.063C142.248 129.017 142.19 128.907 142.121 128.913L141.919 129.069L141.74 129.219L141.469 129.461L140.771 130.165C140.332 130.604 139.905 131.059 139.484 131.521C138.648 132.455 137.846 133.43 137.067 134.405C134.598 137.573 132.324 140.925 130.098 144.3L126.774 149.423L125.101 151.955C124.819 152.377 124.524 152.798 124.236 153.213L123.78 153.83L123.544 154.142C123.457 154.246 123.388 154.332 123.261 154.477C123.047 154.75 122.785 154.983 122.488 155.163C122.421 155.211 122.345 155.244 122.264 155.26C122.184 155.276 122.101 155.274 122.021 155.255L121.565 155.088L120.457 154.465L119.523 153.917C118.899 153.548 118.288 153.167 117.682 152.763C116.476 151.984 115.288 151.182 114.128 150.352C111.821 148.696 109.553 146.942 107.355 145.119L105.798 143.809L104.321 142.534L104.003 142.263C104.003 142.263 103.951 142.205 103.934 142.229L103.899 142.309C103.899 142.361 103.848 142.413 103.83 142.465L103.738 142.644L103.646 142.817C103.605 142.907 103.556 142.994 103.501 143.077C103.307 143.395 103.081 143.693 102.826 143.965C102.435 144.371 101.983 144.716 101.488 144.986C100.929 145.301 100.323 145.524 99.6937 145.65C99.4471 145.712 99.1965 145.759 98.9437 145.788C98.661 145.788 98.9437 145.494 99.6822 144.923C100.034 144.634 100.513 144.288 100.992 143.838C101.52 143.359 101.934 142.767 102.203 142.107C102.238 142.032 102.365 141.761 102.457 141.53C102.549 141.3 102.659 141.052 102.763 140.809L102.901 140.555C102.948 140.486 102.988 140.354 103.046 140.342L103.357 140.134L103.438 140.082C103.438 140.03 103.536 140.509 103.496 140.307H103.536H103.703L103.888 140.267H103.992H104.044L104.101 140.296C104.44 140.506 104.757 140.75 105.048 141.023L105.774 141.64L107.978 143.475C109.461 144.686 110.973 145.886 112.519 147.052C114.065 148.217 115.64 149.359 117.267 150.444C118.074 150.986 118.896 151.515 119.73 152.03L120.982 152.78L121.617 153.144L121.894 153.3L122.055 153.098L122.401 152.63C122.869 151.99 123.33 151.304 123.786 150.617L126.509 146.4C128.615 143.134 130.749 139.857 133.04 136.661C134.194 135.063 135.348 133.482 136.634 131.948C137.269 131.18 137.926 130.425 138.613 129.692C138.965 129.323 139.317 128.959 139.686 128.607L140.263 128.082L140.499 127.875L140.771 127.644L141.348 127.2C141.496 127.09 141.672 127.024 141.855 127.009L142.109 126.952H142.173C142.173 127.055 142.173 126.727 142.173 127.177H142.576C142.663 127.177 142.761 127.148 142.842 127.205C142.93 127.254 143.013 127.312 143.09 127.379L143.326 127.609L144.082 128.417L144.555 128.925L144.538 128.821Z" fill="#3B2C7D"/>
<path d="M204.267 133.523C204.305 134.163 204.288 134.806 204.216 135.444C204.175 135.68 204.216 135.911 204.141 136.142C203.959 136.946 203.67 137.723 203.281 138.45C203.125 138.767 202.969 139.079 202.819 139.39C202.651 139.803 202.404 140.179 202.092 140.498C201.885 140.682 201.256 139.834 201.469 139.43C201.862 138.698 202.214 137.988 202.583 137.255C202.688 137.03 202.762 136.791 202.802 136.546C202.802 136.298 202.866 136.055 202.883 135.807C202.932 135.255 202.932 134.699 202.883 134.146C202.842 133.805 202.814 133.459 202.739 133.113C202.644 132.584 202.502 132.064 202.312 131.561C202.136 131.18 201.922 130.819 201.671 130.482C201.614 130.411 201.562 130.336 201.516 130.257C201.354 129.952 201.412 129.813 201.804 129.565C201.891 129.513 201.977 129.45 202.069 129.404C202.192 129.318 202.339 129.277 202.488 129.286C202.637 129.295 202.778 129.355 202.889 129.455C203.421 130.09 203.791 130.844 203.967 131.654C204.121 132.275 204.227 132.908 204.285 133.546L204.267 133.523Z" fill="#3B2C7D"/>
<path d="M202.531 115.921C202.531 116.365 202.497 116.815 202.474 117.259C202.482 117.421 202.482 117.582 202.474 117.744C202.433 118.321 202.358 118.898 202.295 119.475C202.278 119.724 202.278 119.975 202.295 120.225C202.36 120.544 202.339 120.875 202.231 121.182C202.139 121.373 200.956 121.067 200.928 120.727C200.877 120.103 200.916 119.476 201.043 118.863C201.078 118.478 201.065 118.091 201.003 117.709L200.951 116.429C200.951 116.163 200.951 115.898 200.899 115.638C200.876 115.237 200.824 114.838 200.743 114.444C200.639 114.144 200.507 113.855 200.351 113.579C200.322 113.515 200.276 113.457 200.253 113.394C200.183 113.152 200.304 113.048 200.749 112.909C200.849 112.873 200.951 112.842 201.054 112.817C201.19 112.766 201.336 112.749 201.479 112.77C201.622 112.79 201.758 112.846 201.874 112.932C202.247 113.403 202.467 113.977 202.503 114.577C202.554 115.015 202.554 115.465 202.572 115.915L202.531 115.921Z" fill="#3B2C7D"/>
<path d="M214.65 119.423C215.309 118.569 216.03 117.765 216.807 117.017C217.084 116.746 217.332 116.44 217.627 116.198C218.671 115.309 219.767 114.531 220.84 113.757C221.319 113.411 221.763 113.025 222.196 112.656C222.467 112.419 222.727 112.159 222.957 111.923C223.067 111.807 223.177 111.686 223.246 111.6C223.315 111.513 223.298 111.531 223.315 111.536C223.327 111.497 223.327 111.455 223.315 111.415C223.315 111.346 223.506 111.19 224.013 111.323C224.151 111.372 224.269 111.465 224.348 111.589C224.428 111.712 224.464 111.858 224.452 112.004C224.463 112.313 224.367 112.616 224.181 112.863C223.912 113.194 223.619 113.505 223.304 113.792C223.021 114.062 222.722 114.314 222.409 114.548C221.798 115.015 221.181 115.442 220.54 115.852C219.796 116.392 219.105 117 218.475 117.669C217.742 118.353 217.053 119.081 216.409 119.85C216.022 120.325 215.663 120.824 215.336 121.344C214.842 122.126 214.454 122.97 214.182 123.854C214.012 124.536 213.933 125.239 213.946 125.942C213.946 126.092 213.946 126.242 213.946 126.398C213.946 126.975 213.79 127.131 213.369 127.263L213.081 127.35C212.757 127.407 212.469 127.159 212.354 126.681C212.155 125.194 212.368 123.681 212.971 122.307C213.404 121.286 213.954 120.318 214.609 119.423H214.65Z" fill="#3B2C7D"/>
<path d="M229.191 113.285C225.029 112.456 220.804 111.985 216.562 111.877C212.312 111.782 208.063 112.083 203.87 112.777C202.329 113.008 200.812 113.354 199.208 113.585L198.602 113.677C198.395 113.706 198.164 113.717 197.945 113.735C197.456 113.789 196.962 113.756 196.485 113.637C195.582 113.394 194.746 112.95 194.039 112.338C192.867 111.341 191.938 110.09 191.322 108.681C190.686 107.28 190.395 105.746 190.474 104.21C190.577 102.656 191.115 101.163 192.025 99.9C192.478 99.2894 192.999 98.732 193.577 98.2385C194.161 97.7453 194.809 97.3338 195.504 97.0154C196.819 96.4598 198.168 95.9877 199.543 95.602C200.858 95.1923 202.168 94.7827 203.449 94.3039C206.024 93.353 208.538 92.2452 210.977 90.9866C215.314 88.7246 219.482 86.1546 223.45 83.2962C226.018 81.5654 228.493 79.5635 231.21 77.8962C232.564 77.0429 233.977 76.2871 235.439 75.6346C236.93 74.9428 238.535 74.5321 240.175 74.4231C240.565 74.3946 240.957 74.4417 241.329 74.5616C241.566 74.6366 241.652 74.7116 241.624 74.7923C241.595 74.8731 241.45 74.9423 241.214 75.0231C240.977 75.1039 240.637 75.1443 240.262 75.2943C238.681 75.7154 236.125 77.025 233.108 78.8654C230.408 80.452 227.916 82.3558 225.25 84.2193C222.585 86.0827 219.931 87.8712 217.145 89.5269L215.056 90.7673L212.916 91.9212C212.206 92.3193 211.474 92.6712 210.741 93.0346C210.008 93.3981 209.281 93.7558 208.531 94.0789C205.556 95.4197 202.486 96.54 199.347 97.4308C197.512 98.0077 195.689 98.5096 194.466 99.7385C193.812 100.332 193.273 101.04 192.874 101.827C192.492 102.614 192.272 103.469 192.227 104.342C192.183 106.148 192.734 107.918 193.797 109.379C194.3 110.109 194.931 110.742 195.66 111.248C196 111.48 196.371 111.663 196.762 111.79C196.939 111.845 197.12 111.882 197.304 111.9C197.396 111.906 197.489 111.906 197.581 111.9H197.91C198.874 111.819 199.97 111.594 201.025 111.41C202.081 111.225 203.172 111.029 204.256 110.833C206.425 110.51 208.606 110.256 210.799 110.1C215.185 109.81 219.589 109.934 223.952 110.469C229.306 111.142 234.58 112.344 239.697 114.058L242.581 115.05C243.077 115.223 243.487 115.362 243.954 115.477C244.414 115.577 244.881 115.643 245.35 115.673C246.28 115.737 247.212 115.619 248.097 115.327C248.512 115.185 248.902 114.976 249.25 114.71C249.331 114.647 249.408 114.58 249.481 114.508C249.556 114.433 249.637 114.329 249.712 114.242L250.185 113.694C251.382 112.15 252.266 110.386 252.787 108.502C253.327 106.609 253.639 104.659 253.716 102.692C253.786 101.166 253.744 99.6371 253.589 98.1173C253.444 96.6046 253.209 95.1019 252.885 93.6173C252.574 92.136 252.177 90.674 251.697 89.2385C251.233 87.8019 250.676 86.397 250.029 85.0327C249.473 83.8376 248.837 82.6811 248.125 81.5712C247.234 80.0992 246.164 78.7428 244.941 77.5327C244.162 76.7423 243.672 76.3154 243.279 75.9C243.078 75.737 242.886 75.5637 242.702 75.3808C242.512 75.1616 242.933 75.1443 243.885 75.4385C245.3 75.9649 246.565 76.8283 247.572 77.9539C249.537 80.1015 251.119 82.5699 252.25 85.252C253.442 87.9415 254.34 90.7521 254.927 93.6346C255.23 95.1016 255.448 96.5848 255.579 98.077C255.717 99.5766 255.754 101.084 255.689 102.588C255.641 104.118 255.463 105.641 255.158 107.14C254.859 108.676 254.385 110.173 253.745 111.6C253.259 112.686 252.656 113.715 251.945 114.669C251.772 114.912 251.564 115.131 251.368 115.362L251.074 115.708C251.025 115.768 250.973 115.826 250.918 115.881L250.699 116.088C250.158 116.56 249.534 116.926 248.858 117.167C247.643 117.595 246.352 117.762 245.068 117.658C244.443 117.611 243.823 117.508 243.216 117.352C242.916 117.277 242.639 117.179 242.322 117.075L241.543 116.81L238.502 115.765L237.741 115.506L236.968 115.287L235.422 114.848C233.374 114.213 231.274 113.798 229.185 113.325L229.191 113.285Z" fill="#3B2C7D"/>
<path d="M238.367 89.3825C238.59 91.4329 239.007 93.4574 239.614 95.4286C239.839 96.1556 240.15 96.8479 240.41 97.5517C241.355 100.069 242.638 102.447 244.223 104.619C244.923 105.588 245.709 106.491 246.571 107.319C247.103 107.848 247.682 108.327 248.302 108.75C248.887 109.177 249.541 109.501 250.235 109.707C250.65 109.811 250.627 110.025 250.171 110.204C249.794 110.317 249.398 110.352 249.007 110.306C248.616 110.26 248.239 110.135 247.898 109.938C246.438 109.097 245.133 108.012 244.039 106.731C242.938 105.514 241.961 104.192 241.119 102.784C240.096 101.056 239.188 99.2617 238.402 97.4133C237.592 95.3654 236.998 93.2385 236.631 91.0671C236.412 89.7314 236.286 88.3819 236.256 87.0286C236.208 84.9585 236.453 82.8919 236.983 80.8902C237.362 79.3225 237.954 77.8142 238.742 76.4075C238.927 76.1017 239.117 75.8306 239.319 75.5133C240.162 74.4633 240.606 74.2844 241.142 74.4517C241.264 74.4807 241.384 74.5192 241.5 74.5671C241.835 74.7575 241.708 75.3517 241.235 76.0729C240.555 77.1722 239.975 78.3308 239.504 79.5344C239.025 80.7639 238.684 82.0429 238.489 83.3479C238.2 85.3576 238.182 87.397 238.437 89.4113L238.367 89.3825Z" fill="#3B2C7D"/>
<path d="M243.211 93.3805C243.607 92.8108 243.766 92.1096 243.655 91.4248C243.571 91.2072 243.442 91.0103 243.274 90.8478C242.923 90.455 242.498 90.1355 242.022 89.9075C241.491 89.6348 240.942 89.3996 240.378 89.2036C239.865 89.019 239.328 88.8632 238.797 88.6901C238.067 88.5184 237.391 88.1675 236.83 87.669C236.657 87.4902 236.83 87.3228 237.153 87.2132C237.475 87.0812 237.828 87.049 238.169 87.1209C238.745 87.3228 239.432 87.4728 240.119 87.6517C240.828 87.8495 241.521 88.1041 242.19 88.4132C242.599 88.6151 243.038 88.7998 243.482 89.0478C243.963 89.2892 244.388 89.6293 244.728 90.0459C245.124 90.5408 245.359 91.1445 245.403 91.7767C245.44 92.3665 245.348 92.9573 245.132 93.5075C244.895 94.1174 244.59 94.6981 244.22 95.2382C243.679 96.0026 243.092 96.7328 242.461 97.4248C242.005 98.0017 241.595 98.5786 241.128 99.0921C241.034 99.2164 240.934 99.3358 240.828 99.4498C240.39 99.8363 240.153 99.8478 239.755 99.5651C239.66 99.5064 239.569 99.4409 239.484 99.369C239.355 99.2402 239.276 99.0696 239.261 98.8877C239.246 98.7059 239.296 98.5247 239.403 98.3767C240.066 97.3473 240.823 96.3816 241.665 95.4921C242.242 94.8566 242.745 94.158 243.165 93.4094L243.211 93.3805Z" fill="#3B2C7D"/>
<path d="M213.013 131.013C214.568 131.021 216.109 130.729 217.553 130.154C218.079 129.932 218.589 129.678 219.082 129.392C219.437 129.209 219.773 128.993 220.086 128.746C220.211 128.646 220.328 128.538 220.438 128.423C220.492 128.368 220.531 128.3 220.553 128.227C220.553 128.169 220.553 128.059 220.553 127.95C220.553 127.841 220.542 127.733 220.519 127.627C220.522 127.571 220.522 127.515 220.519 127.459L220.461 127.298C220.426 127.182 220.38 127.07 220.323 126.963C220.059 126.492 219.711 126.074 219.296 125.729C218.58 125.158 217.787 124.69 216.942 124.338C216.394 124.102 215.834 123.888 215.263 123.686C214.692 123.484 214.15 123.202 213.59 122.936C213.244 122.763 213.359 122.515 213.757 122.29C214.325 121.989 214.972 121.872 215.609 121.955C216.259 122.106 216.899 122.299 217.525 122.532C217.842 122.636 218.159 122.775 218.471 122.907C218.782 123.04 219.082 123.225 219.382 123.415C220.014 123.788 220.595 124.24 221.113 124.759C221.683 125.344 222.109 126.053 222.359 126.83C222.411 127.09 222.457 127.355 222.498 127.615C222.538 127.875 222.498 128.129 222.498 128.469C222.464 128.708 222.392 128.94 222.284 129.155C222.18 129.364 222.048 129.559 221.892 129.732C221.657 130.002 221.396 130.247 221.113 130.465C220.605 130.856 220.06 131.196 219.486 131.48C217.855 132.275 216.098 132.779 214.294 132.969C213.13 133.108 211.949 132.996 210.832 132.64C210.494 132.516 210.17 132.353 209.869 132.155C209.714 132.059 209.569 131.947 209.436 131.821C209.275 131.678 209.127 131.521 208.992 131.354C208.507 130.777 208.675 129.946 208.946 129.386C209.199 128.875 209.55 128.419 209.978 128.042C210.993 127.142 212.23 126.53 213.561 126.271C213.844 126.201 214.131 126.151 214.421 126.121C215.505 126.017 215.84 126.271 216.03 126.732C216.079 126.836 216.118 126.944 216.146 127.055C216.209 127.396 215.782 127.719 215.113 127.823C214.141 127.954 213.195 128.234 212.309 128.654C211.924 128.858 211.567 129.112 211.248 129.409L211.046 129.623C210.982 129.698 210.936 129.779 210.878 129.848C210.799 129.964 210.731 130.088 210.676 130.217C210.676 130.217 210.676 130.217 210.728 130.263C210.796 130.33 210.871 130.388 210.953 130.436C211.134 130.551 211.328 130.643 211.53 130.713C212.02 130.864 212.53 130.938 213.042 130.932L213.013 131.013Z" fill="#3B2C7D"/>
<path d="M209.724 137.25C210.202 137.402 210.706 137.457 211.206 137.412C211.79 137.372 212.369 137.281 212.937 137.14C213.362 137.023 213.78 136.883 214.189 136.719C215.643 136.155 216.947 135.265 218.003 134.117C218.488 133.611 218.901 133.04 219.231 132.421C219.425 132.04 219.583 131.642 219.705 131.233C219.837 130.844 219.934 130.445 219.993 130.038C220.039 129.79 220.305 129.733 220.633 129.958C220.841 130.106 221.008 130.305 221.118 130.535C221.185 130.675 221.237 130.822 221.274 130.973C221.294 131.134 221.294 131.297 221.274 131.458C220.801 133.765 219.312 135.404 217.639 136.615C217.131 136.973 216.63 137.354 216.07 137.7C215.528 138.052 214.947 138.341 214.339 138.56C213.007 139.056 211.587 139.27 210.168 139.188C209.683 139.153 209.209 139.026 208.772 138.813C208.536 138.698 208.316 138.55 208.12 138.375C207.927 138.184 207.761 137.969 207.624 137.735C207.425 137.365 207.337 136.947 207.37 136.529C207.407 136.147 207.525 135.777 207.716 135.444C208.056 134.862 208.488 134.34 208.997 133.898C209.719 133.223 210.505 132.62 211.345 132.098C211.531 131.982 211.724 131.876 211.922 131.781C212.666 131.4 213.076 131.596 213.289 131.908C213.345 131.976 213.397 132.047 213.445 132.121C213.468 132.189 213.473 132.261 213.461 132.332C213.449 132.402 213.42 132.469 213.376 132.525C213.262 132.72 213.109 132.889 212.926 133.021C212.26 133.427 211.618 133.872 211.005 134.354C210.417 134.801 209.897 135.329 209.458 135.923C209.347 136.087 209.26 136.266 209.199 136.454C209.17 136.546 209.17 136.644 209.199 136.737C209.199 136.806 209.291 136.904 209.349 136.99C209.462 137.092 209.596 137.167 209.741 137.21L209.724 137.25Z" fill="#3B2C7D"/>
<path d="M208.022 142.58C209.131 142.692 210.251 142.625 211.339 142.384C211.749 142.292 212.135 142.136 212.533 142.021C213.94 141.658 215.232 140.946 216.289 139.95C216.709 139.52 217 138.98 217.125 138.392C217.167 138.212 217.182 138.028 217.172 137.844C217.172 137.752 217.172 137.659 217.172 137.567C217.152 137.476 217.14 137.383 217.137 137.29C217.137 136.915 217.027 136.54 216.981 136.107C216.981 135.842 217.189 135.744 217.558 135.83C217.797 135.884 218.023 135.986 218.222 136.13C218.457 136.317 218.636 136.565 218.741 136.846C218.889 137.414 218.921 138.006 218.836 138.587C218.751 139.167 218.55 139.725 218.245 140.227C217.667 141.135 216.853 141.868 215.891 142.35C214.852 142.951 213.757 143.448 212.62 143.832C211.37 144.212 210.072 144.407 208.766 144.409C207.921 144.427 207.08 144.29 206.285 144.005C205.94 143.868 205.63 143.657 205.374 143.388C205.23 143.241 205.118 143.066 205.045 142.875C204.981 142.687 204.935 142.494 204.906 142.298C204.921 141.587 205.141 140.895 205.541 140.307C206.055 139.499 206.701 138.781 207.45 138.184C207.618 138.057 207.774 137.919 207.952 137.809C208.202 137.665 208.484 137.586 208.772 137.579C208.96 137.605 209.135 137.69 209.274 137.821C209.333 137.866 209.389 137.917 209.441 137.971C209.504 138.057 209.487 138.167 209.441 138.329C209.373 138.544 209.256 138.741 209.1 138.905C208.856 139.178 208.598 139.438 208.327 139.684C208.068 139.932 207.825 140.198 207.6 140.457C207.198 140.874 206.911 141.389 206.77 141.952C206.77 141.992 206.77 142.038 206.77 142.079V142.13C206.77 142.13 206.654 142.096 206.937 142.263C207.289 142.414 207.663 142.506 208.045 142.534L208.022 142.58Z" fill="#3B2C7D"/>
<path d="M213.542 147.559C212.851 147.736 212.143 147.834 211.43 147.854C211.151 147.86 210.871 147.846 210.594 147.813C210.338 147.76 210.091 147.677 209.855 147.565L209.509 147.381C209.399 147.306 209.295 147.223 209.197 147.133C208.997 146.97 208.826 146.775 208.69 146.556C208.539 146.354 208.42 146.13 208.338 145.892C208.177 145.481 208.104 145.041 208.124 144.6C208.135 144.298 208.218 144.003 208.367 143.74C208.534 143.473 208.786 143.27 209.082 143.163C209.267 143.111 209.313 143.319 209.342 143.573C209.365 143.804 209.403 144.033 209.457 144.259C209.457 144.386 209.457 144.479 209.457 144.617C209.457 144.756 209.509 144.883 209.526 145.033C209.548 145.186 209.585 145.336 209.636 145.483C209.682 145.627 209.792 145.754 209.849 145.927C209.995 146.086 210.174 146.213 210.373 146.296C210.572 146.38 210.787 146.419 211.003 146.411C211.584 146.461 212.17 146.41 212.734 146.261C213.108 146.184 213.476 146.082 213.836 145.956C214.397 145.774 214.947 145.556 215.48 145.304C215.89 145.096 216.259 144.813 216.663 144.565C216.749 144.508 216.836 144.444 216.928 144.392C217.28 144.219 217.453 144.271 217.655 144.617C217.709 144.691 217.755 144.771 217.794 144.854C217.864 144.972 217.89 145.111 217.866 145.246C217.843 145.382 217.772 145.504 217.667 145.592C217.011 146.13 216.278 146.566 215.492 146.884C214.869 147.148 214.231 147.375 213.582 147.565L213.542 147.559Z" fill="#3B2C7D"/>
<path d="M195.245 152.729C196.515 152.292 197.744 151.739 198.914 151.079C199.352 150.836 199.756 150.542 200.195 150.294C200.979 149.838 201.7 149.423 202.421 148.909C203.143 148.396 203.887 147.86 204.683 147.369C205.401 146.898 206.177 146.519 206.991 146.244C207.531 146.066 208.102 146.003 208.668 146.061C209.233 146.119 209.781 146.295 210.273 146.579C210.573 146.758 210.389 146.977 210.037 147.156C209.837 147.242 209.631 147.312 209.42 147.363C209.196 147.426 208.965 147.461 208.733 147.467C207.123 147.467 205.531 148.563 203.789 149.729C203.264 150.069 202.756 150.473 202.196 150.854C201.637 151.235 201.118 151.586 200.552 151.915C199.325 152.666 198.043 153.322 196.716 153.877C196.3 154.038 195.891 154.211 195.452 154.338C195.239 154.402 195.025 154.477 194.812 154.534L194.154 154.696C192.812 154.993 191.428 155.056 190.064 154.881L189.671 154.84L189.279 154.771L188.5 154.638C187.987 154.527 187.482 154.381 186.989 154.2C186.769 154.127 186.555 154.038 186.348 153.935C185.61 153.485 185.443 153.225 185.46 152.844C185.451 152.76 185.451 152.675 185.46 152.59C185.523 152.336 185.933 152.302 186.51 152.446C186.72 152.509 186.934 152.557 187.15 152.59C187.364 152.631 187.566 152.706 187.768 152.763C188.177 152.885 188.593 152.96 188.996 153.086C189.813 153.27 190.646 153.369 191.483 153.381C192.765 153.376 194.036 153.147 195.239 152.706L195.245 152.729Z" fill="#3B2C7D"/>
<path d="M207.445 139.165C207.073 139.307 206.686 139.405 206.291 139.459C206.153 139.493 206.012 139.518 205.87 139.534C205.373 139.534 204.879 139.468 204.399 139.338C204.197 139.275 203.984 139.257 203.782 139.211C203.507 139.204 203.243 139.105 203.032 138.929C202.968 138.865 203.101 138.6 203.268 138.352C203.436 138.104 203.643 137.884 203.759 137.919C204.182 138.033 204.598 138.172 205.005 138.334C205.27 138.401 205.547 138.401 205.813 138.334C206.115 138.305 206.413 138.241 206.701 138.144C206.884 138.086 207.06 138.009 207.226 137.913C207.488 137.781 207.726 137.606 207.93 137.394C208.072 137.218 208.191 137.024 208.282 136.817C208.301 136.772 208.322 136.727 208.345 136.684C208.455 136.54 208.564 136.54 208.824 136.684L209.003 136.765C209.091 136.802 209.165 136.865 209.217 136.945C209.268 137.026 209.294 137.12 209.291 137.215C209.26 137.484 209.175 137.743 209.042 137.979C208.91 138.215 208.731 138.422 208.518 138.588C208.201 138.847 207.85 139.061 207.474 139.223L207.445 139.165Z" fill="#3B2C7D"/>
<path d="M198.931 100.904C198.869 101.479 198.869 102.059 198.931 102.635C198.931 102.848 199.035 103.044 199.064 103.252C199.184 103.997 199.403 104.723 199.716 105.41C199.873 105.713 200.067 105.996 200.293 106.252C200.437 106.413 200.587 106.558 200.726 106.719C200.885 106.866 201.023 107.035 201.135 107.221C201.199 107.342 201.014 107.538 200.749 107.66C200.617 107.729 200.468 107.762 200.319 107.755C200.17 107.748 200.025 107.701 199.901 107.619C199.152 106.928 198.603 106.05 198.308 105.075C198.216 104.787 198.106 104.498 198.014 104.215C197.903 103.932 197.814 103.641 197.749 103.344C197.612 102.695 197.54 102.034 197.535 101.371C197.535 100.962 197.558 100.554 197.604 100.148C197.675 99.5381 197.793 98.9344 197.956 98.3423C198.05 97.8686 198.183 97.4035 198.354 96.9519C198.387 96.8463 198.43 96.744 198.481 96.6462C198.695 96.3 198.862 96.2539 199.191 96.3981C199.266 96.4327 199.341 96.4616 199.41 96.5019C199.519 96.5669 199.606 96.6635 199.658 96.779C199.711 96.8945 199.727 97.0232 199.704 97.1481C199.658 97.3269 199.624 97.5058 199.595 97.6904C199.566 97.875 199.508 98.0365 199.485 98.2212C199.393 98.5731 199.301 98.9192 199.202 99.2712C199.078 99.8135 199.001 100.366 198.972 100.921L198.931 100.904Z" fill="#3B2C7D"/>
<path d="M228.464 85.0153C228.948 84.6 229.439 84.1961 229.941 83.798C230.119 83.6538 230.292 83.4923 230.477 83.3538L230.967 82.9903C231.121 82.875 231.277 82.7538 231.435 82.6269C231.746 82.373 232.069 82.1134 232.398 81.8596C232.727 81.6057 232.975 81.4038 233.292 81.1846C233.692 80.8451 234.199 80.6572 234.723 80.6538C234.908 80.6538 234.85 80.9019 234.752 81.1269C234.654 81.3519 234.544 81.5769 234.36 81.6461C233.577 82.0469 232.83 82.514 232.127 83.0423C231.885 83.198 231.654 83.3827 231.406 83.5615L230.708 84.0807C230.194 84.45 229.681 84.825 229.179 85.2346C228.867 85.4711 228.562 85.7192 228.262 85.9673C227.806 86.348 227.35 86.7288 226.923 87.1211C226.589 87.4326 226.283 87.7673 225.966 88.0903L225.758 88.3038C225.487 88.5577 225.383 88.6211 225.262 88.6096H225.175C225.106 88.6096 225.175 88.4365 225.337 88.2173C225.87 87.5512 226.448 86.9227 227.067 86.3365C227.523 85.8865 227.996 85.448 228.475 85.0153H228.464Z" fill="#3B2C7D"/>
<path d="M252.17 71.1056C252.17 71.3249 251.916 71.371 251.512 71.3249C251.333 71.2826 251.169 71.1907 251.039 71.0595C250.991 70.9264 250.954 70.7894 250.93 70.6499C250.93 70.5749 251.184 69.5479 251.241 69.1845C251.307 68.8418 251.41 68.5072 251.547 68.1864L252.32 66.2018C252.382 66.054 252.467 65.9175 252.574 65.7979C252.916 65.364 253.192 64.8819 253.393 64.3672C253.449 64.2862 253.473 64.1879 253.462 64.0902C253.646 63.4903 253.93 62.9264 254.305 62.4229C254.685 62.0768 255.026 61.7076 255.401 61.3672C255.453 61.3153 255.476 61.2403 255.585 61.2403C255.674 61.2416 255.762 61.2225 255.842 61.1845C255.922 61.1465 255.992 61.0905 256.047 61.021C256.207 60.8748 256.383 60.747 256.572 60.6403C256.692 60.592 256.818 60.5628 256.947 60.5537C257.062 60.5537 257.218 60.7326 257.218 60.7787C257.218 60.8249 257.362 60.9229 257.449 60.9864C257.481 61.0048 257.51 61.0281 257.535 61.0556C257.523 61.2809 257.492 61.5047 257.443 61.7249C257.397 62.0595 257.374 62.4172 257.345 62.4691C257.316 62.521 257.282 62.5614 257.212 62.6999L256.93 63.2018C256.739 63.5826 256.543 63.9806 256.514 64.0729C256.485 64.1652 256.393 64.2229 256.318 64.2864C256.243 64.3499 255.793 65.521 255.77 65.5672C255.62 65.7922 255.562 66.0691 255.28 66.2306C255.256 66.2449 255.235 66.2641 255.219 66.287C255.203 66.3099 255.192 66.3359 255.187 66.3633C254.984 66.7922 254.744 67.2032 254.472 67.5922C254.339 67.7941 254.247 68.0249 254.132 68.2383C254.132 68.2787 254.068 68.3076 254.039 68.3422C253.995 68.3794 253.958 68.4244 253.93 68.4749C253.682 68.9941 253.353 69.4787 253.134 70.0268C253.082 70.1537 252.614 70.6499 252.557 70.7941C252.499 70.9383 252.17 71.0133 252.17 71.1056Z" fill="#3B2C7D"/>
<path d="M258.822 73.3211C258.788 73.448 258.626 73.373 258.389 73.1826C258.287 73.0842 258.204 72.9666 258.147 72.8365C258.138 72.7482 258.138 72.6593 258.147 72.5711C258.147 72.5249 258.488 72.0865 258.591 71.9249C258.695 71.7767 258.819 71.6446 258.961 71.5326L259.791 70.8057C259.855 70.7514 259.927 70.7084 260.005 70.6788C260.273 70.5661 260.518 70.4036 260.726 70.1999C260.75 70.1881 260.77 70.171 260.786 70.15C260.802 70.129 260.813 70.1047 260.818 70.0788C261.036 69.8355 261.301 69.6392 261.597 69.5018C261.863 69.4384 262.116 69.3518 262.376 69.2884C262.416 69.2884 262.439 69.2422 262.497 69.2884C262.555 69.3345 262.688 69.2884 262.763 69.2884C262.868 69.2479 262.979 69.2227 263.091 69.2134C263.164 69.2273 263.234 69.2526 263.299 69.2884C263.364 69.3579 263.405 69.4472 263.414 69.5422C263.414 69.6172 263.472 69.6865 263.513 69.7615L263.547 69.8365C263.443 70.0615 263.311 70.2727 263.155 70.4653C262.9 70.6413 262.657 70.834 262.428 71.0422C262.393 71.0826 262.336 71.0826 262.284 71.0941C262.232 71.1057 261.782 71.5672 261.759 71.5845C261.643 71.6538 261.563 71.7807 261.378 71.7749C261.343 71.7749 261.326 71.7749 261.309 71.8153C261.117 71.9682 260.915 72.107 260.703 72.2307C260.6 72.3031 260.502 72.3821 260.409 72.4672C260.409 72.4672 260.363 72.4672 260.339 72.4672C260.316 72.4672 260.276 72.4672 260.259 72.5076C260.012 72.6869 259.775 72.8794 259.549 73.0845C259.503 73.1422 259.157 73.2461 259.105 73.3095C259.053 73.373 258.834 73.2691 258.822 73.3211Z" fill="#3B2C7D"/>
<path d="M261.797 80.9827C261.629 80.9827 261.572 80.8039 261.595 80.4981C261.62 80.355 261.684 80.2215 261.779 80.1116C261.873 80.0678 261.969 80.0312 262.068 80.002C262.125 80.002 262.841 80.0943 263.095 80.077C263.329 80.0768 263.563 80.1 263.793 80.1462C264.272 80.2096 264.756 80.25 265.258 80.2731C265.372 80.2832 265.484 80.3045 265.593 80.3366C265.966 80.4506 266.357 80.4975 266.747 80.475C266.816 80.4857 266.887 80.4735 266.949 80.4404C267.399 80.3818 267.856 80.4032 268.299 80.5039C268.645 80.6423 268.991 80.7577 269.337 80.8962C269.389 80.8962 269.447 80.8962 269.481 80.977C269.562 81.1443 269.672 81.1385 269.781 81.1731C269.933 81.2193 270.079 81.2852 270.214 81.3693C270.285 81.4311 270.343 81.5054 270.387 81.5885C270.433 81.6635 270.335 81.8539 270.312 81.8712C270.289 81.8885 270.249 82.0327 270.231 82.1193C270.235 82.148 270.235 82.1771 270.231 82.2058C269.915 82.3023 269.59 82.3718 269.262 82.4135C269.197 82.4077 269.131 82.4077 269.066 82.4135H268.639C268.327 82.4135 267.993 82.4135 267.924 82.4135C267.851 82.4075 267.781 82.3879 267.716 82.3558C267.716 82.3558 266.712 82.3558 266.666 82.3558C266.455 82.3659 266.246 82.318 266.06 82.2173C266.021 82.2037 265.978 82.2037 265.939 82.2173C265.577 82.1926 265.218 82.1367 264.866 82.05C264.681 82.05 264.491 82.0039 264.289 81.9808C264.255 81.9698 264.222 81.9563 264.191 81.9404C264.151 81.9244 264.111 81.9109 264.07 81.9C263.625 81.8366 263.193 81.6923 262.737 81.6231C262.627 81.6231 262.16 81.3289 262.068 81.3058C261.975 81.2827 261.86 80.977 261.797 80.9827Z" fill="#3B2C7D"/>
</svg>
