<svg width="300" height="300" viewBox="0 0 300 300" fill="none" xmlns="http://www.w3.org/2000/svg">
<path d="M177.322 205.333C177.565 205.194 177.813 205.067 178.061 204.946C178.147 204.9 178.222 204.831 178.315 204.79C178.638 204.646 178.99 204.565 179.324 204.479C179.474 204.438 179.607 204.369 179.745 204.323C179.93 204.271 180.115 204.219 180.328 204.26C180.397 204.271 180.42 204.375 180.42 204.513C180.42 204.646 180.403 204.848 180.334 204.94C180.109 205.315 179.803 205.413 179.457 205.511C179.249 205.563 179.082 205.713 178.903 205.829C178.701 205.95 178.494 206.065 178.297 206.198C178.176 206.279 178.055 206.36 177.94 206.458C177.767 206.602 177.588 206.74 177.461 206.919C177.369 207.063 177.334 207.254 177.27 207.415C177.259 207.45 177.253 207.49 177.236 207.525C177.167 207.64 177.069 207.623 176.763 207.45L176.555 207.335C176.324 207.196 176.174 207.017 176.169 206.873C176.163 206.654 176.203 206.458 176.278 206.279C176.37 206.117 176.497 205.967 176.63 205.835C176.832 205.638 177.063 205.471 177.294 205.31L177.317 205.333H177.322Z" fill="#3B2C7D"/>
<path d="M183.306 207.184C183.479 207.075 183.658 206.971 183.831 206.861C183.895 206.821 183.941 206.763 184.004 206.729C184.235 206.602 184.471 206.492 184.708 206.383C184.812 206.336 184.904 206.267 184.991 206.198C185.1 206.111 185.198 205.996 185.371 205.99C185.475 205.99 185.764 206.636 185.666 206.752C185.464 206.948 185.268 207.133 184.968 207.196C184.794 207.242 184.685 207.386 184.546 207.484C184.396 207.594 184.235 207.704 184.085 207.813C183.993 207.883 183.894 207.952 183.808 208.027C183.669 208.136 183.519 208.24 183.41 208.373C183.323 208.477 183.26 208.598 183.179 208.708C183.162 208.731 183.15 208.759 183.127 208.783C183.046 208.863 182.983 208.852 182.827 208.754L182.723 208.684C182.608 208.604 182.544 208.494 182.556 208.384C182.585 208.079 182.654 207.767 182.856 207.577C182.989 207.421 183.139 207.277 183.306 207.156L183.323 207.173L183.306 207.184Z" fill="#3B2C7D"/>
<path d="M202.79 214.339C203.367 213.3 240.982 270.502 240.982 270.502C240.982 270.502 240.232 271.339 238.352 269.36C229.392 259.91 201.832 216.064 202.79 214.339Z" fill="#3B2C7D"/>
<path d="M98.3281 103.87C99.7531 105.329 101.519 112.454 99.2685 116.597C99.2685 116.597 103.169 116.752 102.897 114.848C102.626 112.945 100.994 112.535 101.519 108.768C102.044 105.006 102.332 104.256 102.332 104.256L98.3281 103.87Z" fill="#3B2C7D"/>
<path d="M88.1875 103.443C88.1875 103.443 90.6798 105.831 91.2279 110.446C91.776 115.062 89.7106 117.606 89.7106 117.606C89.7106 117.606 96.9106 117.964 98.3356 114.571C100.268 109.962 97.8048 104.741 96.6683 103.171C95.5317 101.602 88.6837 102.641 88.6837 102.641L88.1933 103.443H88.1875Z" fill="#3B2C7D"/>
<path d="M98.4175 103.021C98.7002 103.09 98.9829 103.165 99.2772 103.206C99.381 103.223 99.4849 103.194 99.5945 103.206C99.9695 103.275 100.356 103.333 100.743 103.373C100.916 103.396 101.083 103.373 101.25 103.35C101.464 103.304 101.683 103.321 101.931 103.483C102.006 103.535 102.023 103.65 101.994 103.835C101.966 104.002 101.908 104.331 101.798 104.458C101.596 104.665 101.366 104.717 101.135 104.758C100.904 104.81 100.662 104.781 100.419 104.706C100.131 104.619 99.8425 104.717 99.5483 104.706C99.231 104.694 98.9079 104.665 98.5906 104.625C98.3945 104.602 98.1983 104.573 98.0079 104.55C97.7137 104.515 97.4252 104.452 97.1368 104.452C96.9118 104.452 96.6752 104.561 96.4502 104.596C96.3983 104.596 96.3464 104.625 96.3002 104.619C96.1214 104.573 96.0926 104.377 96.0983 104.019V103.771C96.1214 103.506 96.2252 103.269 96.381 103.102C96.6002 102.9 96.8022 102.836 96.9925 102.819C97.1887 102.802 97.3791 102.819 97.5752 102.836C97.8579 102.871 98.1406 102.94 98.4233 102.981V103.021H98.4175Z" fill="#3B2C7D"/>
<path d="M92.9652 101.366C93.8364 101.458 94.7075 101.602 95.6249 101.885C96.0518 102.023 96.4787 102.191 96.7672 102.485C97.2979 102.987 97.6095 103.552 97.846 104.1C98.0825 104.654 98.2325 105.202 98.3537 105.75C98.4575 106.235 98.5845 106.708 98.6595 107.187C98.6998 107.492 98.7402 107.804 98.7518 108.116C98.7345 108.427 98.6595 108.744 98.5672 109.05C98.5037 109.241 98.3941 109.212 98.2095 109.062C98.0364 108.906 97.7075 108.646 97.5287 108.346C97.0902 107.262 96.8768 106.206 96.5306 105.196C96.3287 104.596 95.8325 104.123 95.4402 103.939C95.3306 103.864 95.2441 103.835 95.1114 103.777C94.9383 103.731 94.7652 103.673 94.5806 103.639C94.2172 103.552 93.8364 103.494 93.4441 103.442C92.9652 103.385 92.4749 103.35 91.9845 103.339C91.2402 103.327 90.4787 103.316 89.7345 103.414C89.1575 103.494 88.5979 103.685 88.0325 103.823C87.9056 103.852 87.7902 103.904 87.6575 103.904C87.1787 103.898 87.0056 103.742 86.8441 103.327C86.8095 103.235 86.7691 103.154 86.7402 103.073C86.6595 102.825 86.8095 102.45 87.1383 102.214C88.1133 101.533 89.2383 101.406 90.3806 101.319C91.2287 101.262 92.0941 101.285 92.971 101.331V101.383L92.9652 101.366Z" fill="#3B2C7D"/>
<path d="M93.7265 116.429C94.315 116.336 94.9092 116.163 95.4804 115.875C95.5842 115.823 95.6823 115.754 95.7804 115.685L95.8496 115.633L95.8842 115.604C95.8842 115.604 95.9304 115.569 95.9592 115.558C96.1669 115.431 96.4035 115.131 96.6112 114.785C96.8189 114.433 96.9862 114.029 97.1246 113.608C97.2573 113.233 97.3208 112.84 97.3669 112.442C97.4419 111.935 97.5458 111.427 97.7592 110.913C97.8285 110.752 98.0015 110.786 98.2092 110.936C98.4112 111.086 98.7054 111.363 98.7919 111.681C98.8554 111.963 98.9304 112.246 98.9535 112.535C98.9535 112.817 98.9362 113.1 98.8958 113.388C98.8381 113.965 98.6477 114.531 98.3708 115.09C98.2035 115.419 98.0535 115.777 97.8573 116.14C97.6438 116.498 97.3785 116.885 96.9689 117.179C96.3112 117.617 95.5669 117.975 94.7996 118.211C94.3208 118.35 93.8362 118.46 93.3515 118.511C92.6131 118.61 91.8688 118.558 91.1535 118.523C90.5938 118.494 90.0227 118.546 89.4573 118.494C89.3304 118.483 89.2092 118.477 89.0881 118.442C88.8746 118.361 88.7362 118.292 88.6785 118.136C88.6323 117.94 88.6381 117.75 88.6669 117.531C88.6842 117.427 88.69 117.329 88.7073 117.242C88.7419 117.092 88.8169 116.977 88.9438 116.838C89.0073 116.769 89.0823 116.7 89.1688 116.619C89.2612 116.527 89.3246 116.533 89.4054 116.51L89.7573 116.452C89.8727 116.423 89.9881 116.406 90.0919 116.411L90.7265 116.423C91.1304 116.446 91.54 116.469 91.9438 116.492C92.5381 116.504 93.1265 116.504 93.7092 116.377L93.7265 116.423V116.429Z" fill="#3B2C7D"/>
<path d="M87.5992 115.172C87.9627 115.725 88.4588 116.227 88.9608 116.516C89.0185 116.545 89.0877 116.602 89.1339 116.614C89.1915 116.631 89.1569 116.637 89.1858 116.648C89.2204 116.666 89.2608 116.666 89.3012 116.66C89.3819 116.654 89.5262 116.55 89.6646 116.337C89.8781 116.031 89.9704 115.535 90.0915 115.045C90.3108 114.162 90.3685 113.17 90.3569 112.183C90.3454 111.191 90.2358 110.187 90.0512 109.206C89.8954 108.329 89.6473 107.464 89.3012 106.668C88.7992 105.693 88.4127 104.608 87.5762 104.054C87.305 103.922 87.2877 103.823 87.6569 103.702C87.8358 103.65 88.1358 103.627 88.4704 103.702C88.8223 103.766 89.1858 103.945 89.4858 104.222C89.7454 104.464 89.9819 104.718 90.1954 104.983C90.4088 105.248 90.5531 105.548 90.7088 105.837C91.0088 106.42 91.2512 107.02 91.4473 107.625C91.5512 107.925 91.6319 108.237 91.7185 108.543C91.7819 108.854 91.8454 109.166 91.8915 109.477C91.9896 110.106 92.0415 110.735 92.0589 111.37C92.0819 112.131 92.1108 112.898 92.0992 113.689C92.0819 114.479 92.0358 115.287 91.7935 116.112C91.6319 116.562 91.4704 117.018 91.13 117.462C90.8012 117.895 90.2992 118.327 89.6358 118.431C89.3127 118.5 88.9896 118.483 88.6781 118.368C88.3492 118.258 88.1877 118.143 87.9627 118.016C87.7608 117.889 87.5819 117.739 87.3915 117.6L86.8954 117.133C86.1165 116.337 85.5627 115.368 85.205 114.358C84.6396 112.823 84.5646 111.191 84.6685 109.645C84.7262 108.433 84.8704 107.25 85.1589 106.085C85.2108 105.825 85.2569 105.572 85.355 105.323C85.7012 104.406 85.9723 104.175 86.3935 104.123C86.4915 104.112 86.5954 104.089 86.6819 104.095C86.9762 104.118 87.0858 104.573 87.0165 105.266C86.9992 105.525 86.9415 105.768 86.8896 106.016C86.8319 106.264 86.8204 106.518 86.78 106.766C86.7165 107.268 86.6012 107.764 86.5781 108.26C86.5262 108.756 86.4281 109.252 86.4281 109.743L86.3877 110.481L86.4223 111.208C86.5031 112.633 86.8435 114.047 87.6396 115.137L87.605 115.166L87.5992 115.172Z" fill="#3B2C7D"/>
<path d="M98.6117 115.702C98.9694 115.714 99.3213 115.725 99.679 115.719C99.806 115.719 99.9329 115.679 100.06 115.685C100.516 115.685 100.983 115.748 101.439 115.748C101.641 115.748 101.842 115.725 102.039 115.696C102.292 115.667 102.552 115.673 102.818 115.737C102.904 115.76 102.904 115.864 102.858 116.002C102.812 116.135 102.714 116.337 102.581 116.423C102.46 116.492 102.339 116.573 102.217 116.625C102.091 116.66 101.964 116.689 101.837 116.712C101.577 116.758 101.318 116.781 101.052 116.769C100.735 116.758 100.417 116.867 100.1 116.902C99.7483 116.937 99.3963 116.96 99.0444 116.989C98.8252 117.006 98.606 117.017 98.3925 117.035C98.0637 117.058 97.729 117.064 97.406 117.127C97.1579 117.173 96.9213 117.3 96.6848 117.387C96.6329 117.404 96.581 117.433 96.5233 117.439C96.3213 117.473 96.2406 117.392 96.1483 117.087C96.1252 117.017 96.1021 116.948 96.0848 116.879C96.0271 116.642 96.0848 116.429 96.2175 116.319C96.6213 115.973 97.0829 115.887 97.5502 115.789C97.8963 115.731 98.2483 115.673 98.606 115.667V115.702H98.6117Z" fill="#3B2C7D"/>
<path d="M87.3003 109.875C87.3522 109.696 87.4214 109.518 87.5022 109.344C87.5311 109.281 87.5368 109.212 87.5657 109.148C87.6638 108.923 87.7734 108.704 87.8599 108.473C87.9003 108.375 87.9118 108.266 87.9465 108.168C87.9868 108.041 88.033 107.908 88.1253 107.787C88.1541 107.752 88.2234 107.769 88.2926 107.827C88.3618 107.879 88.4599 107.971 88.4772 108.052C88.5638 108.358 88.4541 108.618 88.333 108.877C88.2522 109.033 88.2522 109.212 88.2061 109.373C88.1541 109.558 88.108 109.737 88.0388 109.916C87.9984 110.025 87.958 110.135 87.9176 110.244C87.8657 110.412 87.8022 110.579 87.7676 110.752C87.7445 110.885 87.733 111.018 87.7099 111.15C87.7041 111.179 87.7041 111.208 87.6926 111.237C87.6638 111.341 87.6061 111.364 87.4849 111.364H87.4041C87.3234 111.352 87.2426 111.289 87.2195 111.202C87.1445 110.937 87.0868 110.666 87.1561 110.423C87.1907 110.239 87.2368 110.054 87.283 109.869H87.3003V109.875Z" fill="#3B2C7D"/>
<path d="M88.5284 111.629C88.5861 111.45 88.6438 111.266 88.7015 111.087C88.7188 111.023 88.7303 110.954 88.7477 110.885C88.8227 110.654 88.9034 110.423 88.9842 110.187C89.0188 110.083 89.0419 109.979 89.0592 109.875C89.088 109.742 89.0996 109.604 89.163 109.477C89.1977 109.396 89.4227 109.552 89.4227 109.714C89.4053 109.996 89.3707 110.273 89.2842 110.544C89.2207 110.706 89.2092 110.879 89.1746 111.052C89.1284 111.237 89.0823 111.421 89.0419 111.606C89.013 111.721 88.9842 111.837 88.9553 111.946C88.915 112.119 88.8688 112.292 88.8457 112.466C88.8284 112.604 88.8457 112.742 88.8342 112.875C88.8342 112.904 88.8342 112.933 88.8342 112.967C88.8169 113.077 88.7765 113.106 88.638 113.1H88.5457C88.4419 113.089 88.3611 113.025 88.3438 112.939C88.2803 112.679 88.3092 112.425 88.3784 112.177C88.4188 111.992 88.4765 111.808 88.5284 111.623H88.54L88.5284 111.629Z" fill="#3B2C7D"/>
<path d="M171.809 208.142C171.809 208.142 177.047 205.892 185.112 210.081C189.555 212.388 187.882 212.584 187.882 212.584C187.882 212.584 187.287 212.896 185.978 212.902C185.978 212.902 181.27 208.142 171.814 208.142H171.809Z" fill="#3B2C7D"/>
<path d="M197.168 140.417C196.845 140.308 184.136 138.941 178.384 145.471C175.545 148.685 177.53 142.927 179.693 141.941C181.857 140.954 187.995 138.762 191.74 138.952C195.484 139.142 197.168 140.423 197.168 140.423V140.417Z" fill="#3B2C7D"/>
<path d="M177.053 145.096C173.961 154.46 168.976 157.829 165.163 158.204C160.94 158.619 157.218 156.514 156.445 155.273C156.445 155.273 159.676 160.719 166.08 160.846C172.49 160.973 174.607 155.844 174.607 155.844L177.053 145.096Z" fill="#3B2C7D"/>
<path d="M208.553 171.525C207.999 172.944 212.741 177.681 213.999 179.054C216.151 181.396 208.685 170.031 208.605 169.927C208.558 169.875 208.749 171.012 208.553 171.525Z" fill="#3B2C7D"/>
<path d="M147.887 192.006C149.11 190.535 152.041 186.461 152.571 184.754C153.102 183.046 151.994 182.181 151.994 182.181L147.887 192.006Z" fill="#3B2C7D"/>
<path d="M105.01 160.436C104.064 160.044 103.135 159.629 102.218 159.179C101.883 159.011 101.543 158.867 101.22 158.683C100.077 158.036 98.9755 157.327 97.8966 156.606C97.4236 156.271 96.9274 155.965 96.4716 155.619C96.1774 155.394 95.8659 155.198 95.5947 154.95C95.3351 154.685 95.0813 154.408 94.8274 154.136C94.6716 153.963 94.7005 153.981 94.8851 154.056C95.0697 154.136 95.4505 154.223 95.8486 154.379C96.5293 154.69 97.1351 155.1 97.7813 155.458C98.3986 155.85 99.0159 156.242 99.6447 156.64C100.395 157.119 101.249 157.483 102.068 157.863C102.974 158.279 103.868 158.723 104.797 159.092C105.362 159.335 105.945 159.542 106.522 159.756C107.404 160.05 108.293 160.356 109.199 160.546C109.55 160.627 109.902 160.685 110.254 160.719C110.606 160.76 110.952 160.811 111.304 160.846C111.46 160.863 111.61 160.875 111.766 160.898C112.331 161.013 112.504 161.123 112.608 161.377C112.631 161.435 112.666 161.486 112.677 161.538C112.718 161.7 112.464 161.85 112.008 161.913C111.668 161.977 111.333 161.965 110.993 161.96C110.652 161.954 110.306 161.936 109.966 161.879C109.285 161.775 108.604 161.625 107.935 161.435C106.937 161.169 105.962 160.811 104.993 160.46L105.004 160.431L105.01 160.436Z" fill="#3B2C7D"/>
<path d="M107.613 161.591C107.613 161.591 113.158 165.242 115.448 162.548C116.861 160.892 108.715 156.571 108.715 156.571L107.613 161.585V161.591Z" fill="#3B2C7D"/>
<path d="M166.821 116.602C166.821 116.602 166.354 124.396 168.154 126.791C169.954 129.185 171.194 130.316 172.971 129.554C174.748 128.792 186.708 119.152 189.806 108.023C192.904 96.8944 194.081 87.929 192.188 82.2406C188.692 71.7233 176.64 67.0906 168.333 71.7233C168.333 71.7233 163.688 66.8021 160.198 64.6502C151.994 59.5906 140.3 56.354 128.733 66.6002C124.106 70.6963 124.077 77.6483 124.077 77.6483C124.077 77.6483 111.01 71.7233 106.919 82.2117C103.371 91.2983 116.369 95.504 120.442 94.4771C120.442 94.4771 134.219 93.9637 138.817 90.0406C143.415 86.1175 149.819 86.931 153.298 87.7444C156.771 88.5579 158.842 92.6021 158.744 96.5944C158.646 100.587 157.221 105.473 158.831 106.033C160.44 106.592 161.588 107.123 164.231 103.702C166.873 100.281 170.606 102.987 171.148 103.691C171.69 104.4 173.548 106.685 171.84 110.81C169.735 115.893 166.827 116.585 166.827 116.585L166.821 116.602Z" fill="#3B2C7D"/>
<path d="M165.058 68.4231C165.001 67.8346 164.88 67.2461 164.689 66.6634C164.626 66.45 164.493 66.2654 164.418 66.0519C164.135 65.3077 163.783 64.5692 163.339 63.8711C163.137 63.5654 162.906 63.2769 162.658 63.0115C162.37 62.6423 162.053 62.2961 161.833 61.8577C161.764 61.7192 161.914 61.6038 162.151 61.5519C162.387 61.5 162.739 61.4942 162.976 61.65C163.183 61.7942 163.385 61.95 163.581 62.1115C163.772 62.2731 163.922 62.4808 164.083 62.6711C164.401 63.0634 164.683 63.4904 164.914 63.9519C165.185 64.5058 165.601 64.9961 165.883 65.5673C166.201 66.1846 166.443 66.8481 166.628 67.5288L166.778 68.1577L166.893 68.7923C166.991 69.4384 166.991 70.0904 167.026 70.725C167.055 71.2211 167.158 71.7173 167.199 72.2192C167.216 72.3346 167.199 72.4384 167.176 72.5481C167.153 72.6461 167.124 72.7269 167.089 72.7961C167.043 72.8596 166.974 72.9058 166.91 72.9461C166.778 73.0211 166.633 73.05 166.443 73.0558C166.356 73.0558 166.27 73.0673 166.195 73.0673C165.947 73.0615 165.699 72.8538 165.48 72.5538C165.405 72.3461 165.289 72.1269 165.266 71.9308C165.231 71.7288 165.214 71.5327 165.203 71.3365C165.162 70.9442 165.174 70.5519 165.139 70.1654C165.11 69.5884 165.081 69.0115 165.001 68.4288L165.041 68.4173L165.058 68.4231Z" fill="#3B2C7D"/>
<path d="M169.544 67.223C170.035 66.7961 170.56 66.4038 171.073 66.0057C171.258 65.8615 171.413 65.6826 171.61 65.5442C172.29 65.0653 173 64.6269 173.698 64.1826C173.998 63.9865 174.298 63.7442 174.65 63.548C174.869 63.4211 175.1 63.2711 175.383 63.2192C175.665 63.1788 175.971 63.2076 176.237 63.3345C176.404 63.4211 176.34 63.5711 176.213 63.7845C176.081 63.9922 175.96 64.3499 175.856 64.5115C175.827 64.5461 175.804 64.5865 175.775 64.6153L175.677 64.6788L175.475 64.8288C175.331 64.9326 175.192 65.0711 175.019 65.1865C174.662 65.4288 174.263 65.6768 173.848 65.8845C173.352 66.1442 172.971 66.5826 172.55 66.9461C172.083 67.3499 171.61 67.748 171.154 68.1692C170.871 68.4288 170.583 68.6768 170.317 68.9538C169.908 69.3634 169.492 69.773 169.152 70.2403C168.875 70.5922 168.708 71.0134 168.454 71.3711C168.402 71.4518 168.356 71.5384 168.292 71.6134C168.067 71.8961 167.906 71.9249 167.56 71.7807C167.479 71.7461 167.398 71.723 167.329 71.6826C167.087 71.5557 166.977 71.2961 167.035 70.9961C167.185 70.0961 167.565 69.2711 168.165 68.6192C168.587 68.1115 169.054 67.6499 169.521 67.1884L169.556 67.2172L169.544 67.223Z" fill="#3B2C7D"/>
<path d="M135.912 139.719C137.118 140.908 138.474 141.964 139.985 142.731C140.262 142.864 140.545 142.996 140.833 143.106C141.122 143.21 141.41 143.319 141.699 143.435C143.735 144.191 145.962 144.531 148.178 144.306C149.164 144.231 150.139 143.983 151.08 143.694C151.68 143.487 152.268 143.256 152.856 143.008C153.456 142.8 154.056 142.575 154.714 142.442C155.124 142.362 155.158 142.529 154.985 142.933C154.899 143.135 154.755 143.406 154.57 143.717C154.374 144.017 154.097 144.277 153.751 144.479C151.276 145.806 148.322 146.366 145.472 145.996C143.781 145.771 142.022 145.483 140.406 144.825C138.63 144.121 137.026 143.054 135.595 141.837C134.724 141.075 133.922 140.239 133.183 139.362C132.076 138.017 131.147 136.535 130.351 135.017C129.733 133.835 129.122 132.664 128.678 131.406C128.585 131.129 128.476 130.864 128.406 130.569C128.135 129.502 128.222 129.127 128.562 128.827C128.643 128.758 128.718 128.677 128.805 128.631C129.087 128.481 129.428 128.856 129.71 129.554C129.93 130.073 130.155 130.592 130.403 131.106C130.628 131.625 130.853 132.144 131.106 132.658C131.603 133.685 132.139 134.706 132.768 135.669C133.674 137.117 134.724 138.485 135.947 139.673L135.918 139.708L135.912 139.719Z" fill="#3B2C7D"/>
<path d="M128.462 121.102C128.255 121.575 128.047 122.06 127.932 122.458C127.811 122.873 127.782 123.26 127.839 123.479C127.851 123.566 127.886 123.629 127.932 123.687C127.961 123.716 128.001 123.739 128.03 123.773C128.059 123.808 128.087 123.848 128.145 123.877C128.457 124.148 129.068 124.344 129.686 124.431C130.314 124.535 130.995 124.535 131.67 124.506C132.27 124.483 132.87 124.35 133.47 124.264L134.612 124.033C134.987 123.935 135.403 123.958 135.795 123.917C136.049 123.906 136.049 124.004 135.899 124.223C135.824 124.333 135.714 124.483 135.576 124.644C135.507 124.725 135.426 124.812 135.339 124.892C135.299 124.933 135.247 124.967 135.207 125.014L135.051 125.094C134.67 125.267 134.278 125.423 133.886 125.573C133.487 125.717 133.089 125.862 132.668 125.919C131.837 126.069 130.978 126.15 130.089 126.075C129.559 126.023 129.016 126.006 128.434 125.885C127.862 125.764 127.211 125.596 126.662 125.048C126.362 124.777 126.137 124.379 126.022 123.998C125.918 123.612 125.907 123.237 125.936 122.896C125.999 122.216 126.207 121.621 126.426 121.096C126.691 120.45 126.986 119.816 127.297 119.198C127.77 118.258 128.318 117.358 128.884 116.475C129.334 115.794 129.726 115.056 130.355 114.439C130.487 114.3 130.637 114.167 130.799 114.052C131.428 113.625 131.768 113.677 132.051 114.035C132.114 114.116 132.189 114.196 132.236 114.283C132.386 114.594 132.259 114.923 132.016 115.217C131.33 116.146 130.562 117.162 129.864 118.35C129.351 119.221 128.884 120.156 128.497 121.119L128.451 121.102H128.462Z" fill="#3B2C7D"/>
<path d="M124.743 93.2424C126.456 93.0405 128.17 92.7405 129.866 92.3251C131.487 91.9444 133.079 91.2694 134.712 90.5597C137.966 89.1405 141.254 87.4963 144.906 86.5674C146.227 86.204 147.623 86.0078 149.031 85.927C149.746 85.9559 150.462 85.904 151.177 86.0597C151.535 86.1232 151.893 86.1578 152.245 86.2501L153.289 86.579C154.506 86.9886 155.666 87.6694 156.612 88.5924C157.57 89.504 158.273 90.6405 158.758 91.8174C159.698 94.2001 159.82 96.6867 159.693 99.0578C159.629 100.246 159.479 101.429 159.323 102.566L159.22 103.396C159.185 103.65 159.202 103.904 159.185 104.158C159.202 104.642 159.266 105.133 159.433 105.433C159.606 105.721 159.773 105.808 160.102 105.825C160.431 105.814 160.846 105.623 161.129 105.364C161.181 105.294 161.268 105.231 161.291 105.162C161.314 105.121 161.325 105.116 161.366 105.046L161.481 104.839C161.631 104.556 161.804 104.291 161.989 104.025C162.364 103.506 162.802 103.021 163.31 102.617C164.21 101.896 165.329 101.412 166.489 101.296C167.648 101.169 168.796 101.371 169.864 101.873C170.92 102.381 171.785 103.223 172.373 104.187C172.968 105.15 173.325 106.235 173.47 107.331C173.671 108.739 173.493 110.21 172.916 111.56C172.76 111.883 172.575 112.235 172.385 112.517C172.2 112.806 171.998 113.089 171.791 113.366C171.364 113.914 170.896 114.444 170.36 114.912C169.293 115.846 167.995 116.527 166.656 116.908C165.323 117.317 163.939 117.392 162.6 117.317C160.933 117.162 161.187 116.989 162.531 116.562C163.2 116.325 164.135 115.979 165.168 115.546C166.2 115.119 167.337 114.635 168.375 113.879C169.31 113.227 170.071 112.339 170.735 111.312C171.277 110.441 171.56 109.356 171.514 108.242C171.485 107.135 171.173 106.016 170.596 105.139C170.037 104.227 169.189 103.65 168.237 103.396C167.204 103.148 166.16 103.246 165.26 103.725C164.81 103.962 164.395 104.291 164.037 104.689C163.858 104.891 163.691 105.104 163.535 105.329C163.466 105.444 163.385 105.56 163.316 105.681L163.218 105.866L163.068 106.131C162.768 106.65 162.387 106.985 161.971 107.256C161.562 107.527 161.1 107.717 160.575 107.81C160.068 107.908 159.433 107.856 158.873 107.591C158.579 107.464 158.348 107.273 158.129 107.06C157.927 106.852 157.766 106.616 157.633 106.385C157.166 105.45 157.131 104.602 157.16 103.835C157.177 103.021 157.316 102.381 157.396 101.717C157.616 100.154 157.777 98.5905 157.725 97.0386C157.679 95.4924 157.437 93.952 156.866 92.579C156.295 91.2117 155.377 90.052 154.137 89.2963C153.525 88.9097 152.839 88.627 152.123 88.4309C151.945 88.379 151.771 88.3097 151.593 88.2694L151.039 88.1828C150.67 88.1251 150.306 88.0444 149.925 88.0559C148.275 87.9636 146.562 88.229 144.889 88.7136C143.21 89.1924 141.56 89.8328 139.916 90.5367C138.271 91.2347 136.639 92.0136 134.96 92.7347C134.118 93.0924 133.27 93.4501 132.387 93.7617C131.51 94.079 130.575 94.3328 129.693 94.529C125.291 95.5444 120.641 95.954 116.129 95.0078C112.737 94.2982 109.402 92.7059 107.02 90.0578C104.62 87.479 103.287 83.7982 103.904 80.2617C104.135 78.8944 104.654 77.5732 105.473 76.4424C105.877 75.877 106.345 75.352 106.875 74.902C107.395 74.4405 107.971 74.0482 108.577 73.7251C111.006 72.3982 113.827 72.052 116.521 72.3924C117.71 72.5482 118.864 72.8078 120 73.2463C122.1 74.077 123.306 75.0347 124.027 75.7847C124.725 76.5751 124.973 77.1578 125.089 77.6655C125.135 77.902 125.227 78.179 125.227 78.329C125.221 78.5886 124.904 78.4097 124.287 77.977C123.664 77.5501 122.729 76.8982 121.506 76.154C119.671 75.0694 117.537 74.452 115.385 74.3194C113.239 74.204 111.035 74.6078 109.252 75.6578C107.47 76.6963 106.246 78.4328 105.9 80.4809C105.531 82.5059 105.97 84.6924 107.02 86.5501C107.781 87.9463 108.912 89.1405 110.193 90.1386C111.502 91.1078 112.996 91.852 114.583 92.3713C117.768 93.427 121.281 93.5597 124.725 93.1963L124.743 93.2482V93.2424Z" fill="#3B2C7D"/>
<path d="M135.155 60.1731C135.905 59.8731 136.655 59.5731 137.422 59.3308L138.594 59.0135C138.79 58.9616 138.98 58.9039 139.176 58.8635L139.776 58.7654L140.971 58.5693C141.369 58.5174 141.778 58.5116 142.182 58.4828C142.996 58.4078 143.78 58.4481 144.565 58.4712C145.707 58.5289 146.855 58.5635 147.986 58.7597C149.976 59.0943 151.932 59.6135 153.807 60.3347C155.682 61.0674 157.482 61.9731 159.167 63.0578C160.661 64.027 162.069 65.1462 163.361 66.3577C163.759 66.7674 164.146 67.1885 164.532 67.6097C164.89 68.0597 165.236 68.5154 165.576 68.977C166.222 69.9231 166.713 70.9731 167.047 72.0635C167.267 72.7385 166.973 72.7443 166.396 72.3808C166.107 72.1962 165.732 71.9366 165.363 71.602C165.178 71.4289 164.947 71.2674 164.746 71.077C164.642 70.9789 164.538 70.8808 164.434 70.7828C164.347 70.6731 164.255 70.5577 164.169 70.4366C163.857 70.0154 163.494 69.6289 163.159 69.2251C162.83 68.8154 162.415 68.4808 162.069 68.0943C161.336 67.3443 160.557 66.6347 159.715 65.9943C158.047 64.6962 156.19 63.5943 154.217 62.6712C151.846 61.5635 149.134 61.0327 146.48 60.7327C145.747 60.6866 145.015 60.577 144.276 60.577L143.169 60.5481L142.09 60.6116C141.363 60.6116 140.653 60.7847 139.938 60.8885C139.574 60.9289 139.228 61.0558 138.876 61.1424C138.524 61.2404 138.172 61.327 137.821 61.4308C136.119 62.0135 134.48 62.8097 132.963 63.8077C130.69 65.3424 128.682 67.3443 127.263 69.6808C126.161 71.4924 125.469 73.4885 125.186 75.5251C125.076 75.9635 125.099 76.4135 125.042 76.8635C125.001 77.2847 124.932 77.6251 124.903 77.9193C124.88 78.2135 124.857 78.4443 124.799 78.6462C124.673 79.0385 124.499 79.2751 124.251 79.477C124.136 79.5693 124.032 79.6904 123.923 79.7481C123.744 79.8462 123.576 79.7193 123.409 79.3904C123.248 79.0616 123.069 78.5308 123.011 77.8328C122.901 75.7731 123.276 73.627 124.015 71.5789C124.811 69.5597 125.971 67.6616 127.372 65.977C129.49 63.4962 132.167 61.5174 135.126 60.1443L135.155 60.1904V60.1731Z" fill="#3B2C7D"/>
<path d="M168.363 124.546C168.455 125.123 168.536 125.706 168.669 126.277C168.778 126.854 168.917 127.425 169.067 127.991C169.165 128.406 169.338 128.804 169.453 129.214C169.857 130.673 170.33 132.127 170.971 133.517C171.103 133.829 171.265 134.129 171.432 134.423C171.594 134.717 171.75 135.023 171.923 135.312C172.396 136.033 172.84 136.777 173.151 137.619C173.25 137.885 173.065 137.977 172.719 137.942C172.384 137.902 171.83 137.758 171.421 137.4C171.236 137.244 171.092 137.066 170.953 136.875L170.532 136.316C170.255 135.941 169.996 135.554 169.776 135.144C169.35 134.314 168.98 133.454 168.703 132.56C168.357 131.498 167.855 130.454 167.503 129.369C167.301 128.775 167.169 128.164 167.007 127.564C166.886 126.952 166.73 126.346 166.632 125.729L166.442 124.598L166.292 123.462C166.142 122.314 166.078 121.154 165.986 120.012C165.969 119.567 165.928 119.129 165.882 118.685C165.848 118.246 165.825 117.802 165.801 117.364C165.79 117.167 165.778 116.977 165.79 116.781C165.801 116.596 165.819 116.446 165.842 116.325C165.876 116.198 165.934 116.1 165.986 116.019C166.096 115.858 166.228 115.771 166.407 115.708C166.488 115.679 166.563 115.639 166.638 115.621C166.875 115.569 167.105 115.881 167.296 116.4C167.428 117.167 167.567 117.935 167.665 118.714C167.792 119.492 167.89 120.271 167.953 121.056C168 121.639 168.086 122.221 168.138 122.804C168.23 123.381 168.294 123.969 168.409 124.546L168.363 124.558V124.546Z" fill="#3B2C7D"/>
<path d="M194.263 84.9752C195.106 90.1963 194.517 95.4233 193.34 100.391C192.896 102.208 192.411 104.014 191.777 105.768C191.211 107.314 190.577 108.831 189.873 110.314C189.158 111.808 188.373 113.227 187.571 114.641C185.956 117.468 184.202 120.237 182.119 122.769C180.279 125.019 178.213 127.131 175.813 128.821C175.035 129.375 174.158 129.837 173.188 130.114C172.225 130.391 171.083 130.408 170.09 129.935C169.098 129.473 168.388 128.614 167.956 127.725C167.736 127.281 167.569 126.814 167.471 126.341C167.408 126.11 167.361 125.873 167.327 125.637L167.275 125.285L167.246 125.112C167.246 125.083 167.217 125.06 167.258 125.019V124.927C167.321 124.327 167.367 124.073 167.419 124.085C167.477 124.096 167.563 124.368 167.817 124.806C168.083 125.239 168.383 125.856 168.821 126.491C169.236 127.125 169.738 127.818 170.373 128.227C170.927 128.602 171.561 128.712 172.277 128.591C172.986 128.464 173.719 128.112 174.423 127.679C174.769 127.443 175.121 127.212 175.467 126.923L175.992 126.514L176.494 126.075C177.169 125.498 177.81 124.864 178.427 124.218C179.667 122.919 180.798 121.5 181.877 120.029C182.961 118.564 183.977 117.023 184.952 115.448C186.106 113.568 187.208 111.543 188.136 109.5C189.077 107.446 189.844 105.294 190.508 103.143C191.956 98.406 192.786 93.4329 192.51 88.5117C192.325 85.4944 191.696 82.4887 190.415 79.7829C189.429 77.7463 188.085 75.8771 186.4 74.3656C185.967 74.0021 185.558 73.6098 185.085 73.2925L184.398 72.7964L183.671 72.3521C182.708 71.7464 181.686 71.2906 180.619 70.9387C177.302 69.8425 173.702 69.9752 170.569 71.1983C169.883 71.481 169.231 71.7867 168.59 72.1675C167.379 72.8194 166.646 73.3675 166.069 73.6906C165.775 73.8406 165.544 73.9733 165.325 74.054C165.1 74.129 164.886 74.1579 164.685 74.1752C164.494 74.1867 164.281 74.2444 164.142 74.2271C163.906 74.204 163.952 73.9329 164.211 73.4021C164.448 72.8483 165.042 72.179 165.913 71.406C168.544 69.1675 172.167 67.956 175.802 67.9502C177.625 67.9502 179.46 68.2329 181.219 68.7983C181.663 68.9252 182.096 69.0925 182.523 69.2771C182.956 69.4387 183.377 69.6463 183.792 69.8598C184.219 70.056 184.606 70.304 184.998 70.5348L185.586 70.8867L186.152 71.2848C187.288 72.0463 188.31 72.9925 189.244 73.9963C190.161 75.0233 190.969 76.1425 191.656 77.331C193.006 79.7137 193.871 82.3213 194.31 84.9521L194.258 84.9694L194.263 84.9752Z" fill="#3B2C7D"/>
<path d="M116.729 135.196C116.902 134.325 117.07 133.454 117.11 132.594C117.162 131.729 117.11 130.898 117 129.981C116.948 129.508 116.873 129.012 116.885 128.452C116.873 128.181 116.92 127.892 116.943 127.61C117 127.339 117.041 127.05 117.127 126.791C117.445 125.741 117.935 124.841 118.46 124.021C119.256 122.752 120.133 121.719 120.981 120.652C121.725 119.729 122.487 118.794 123.006 117.86C123.162 117.566 123.15 117.583 123.191 117.462C123.214 117.375 123.214 117.248 123.127 117.191C123.052 117.133 122.931 117.121 122.822 117.092C122.579 117.069 122.308 117.006 122.048 117.023C121.004 116.983 119.954 117.329 119.077 117.952C118.2 118.581 117.479 119.464 116.972 120.473C116.735 120.917 116.539 121.385 116.377 121.869L116.262 122.233L116.204 122.417C116.17 122.516 116.135 122.619 116.089 122.706C115.898 123.064 115.645 123.294 115.408 123.479C114.923 123.848 114.445 124.102 113.983 124.367C113.522 124.633 113.072 124.892 112.65 125.175C111.566 125.914 110.597 126.767 109.881 127.852C109.16 128.925 108.71 130.183 108.445 131.492C108.295 132.312 108.162 132.202 108.047 131.458C107.96 130.731 107.885 129.277 108.589 127.696C108.9 127.004 109.316 126.352 109.8 125.758C110.043 125.458 110.302 125.175 110.573 124.91C110.856 124.656 111.15 124.419 111.456 124.194C112.056 123.75 112.691 123.369 113.291 123.012C113.591 122.833 113.879 122.666 114.133 122.492C114.387 122.331 114.6 122.146 114.67 122.048C114.698 122.019 114.681 122.014 114.698 122.008L114.745 122.025H114.768L114.773 122.031C114.848 122.054 114.675 122.008 114.693 122.008V121.991L114.716 121.921L114.877 121.379C114.975 121.016 115.137 120.664 115.27 120.306C115.587 119.608 115.945 118.916 116.441 118.298C117.381 117.046 118.754 116.025 120.347 115.639C120.82 115.529 121.304 115.46 121.789 115.448C122.031 115.454 122.279 115.437 122.516 115.471L122.879 115.512C122.943 115.517 122.995 115.523 123.064 115.535L123.318 115.604L123.82 115.737L124.068 115.806L124.281 115.933C124.552 116.117 124.766 116.406 124.835 116.735C124.916 117.058 124.875 117.41 124.783 117.75C124.725 117.923 124.685 118.091 124.604 118.258C124.547 118.391 124.5 118.489 124.443 118.598C123.998 119.452 123.479 120.167 122.954 120.877C122.429 121.581 121.887 122.262 121.362 122.931C121.073 123.3 120.785 123.664 120.514 124.027C120.243 124.391 120.018 124.748 119.781 125.146C119.325 125.919 118.916 126.71 118.748 127.494C118.65 127.887 118.645 128.279 118.656 128.7C118.685 129.127 118.748 129.577 118.812 130.062C118.939 131.019 118.985 132.041 118.904 133.021C118.893 133.327 118.852 133.627 118.812 133.927C118.777 134.227 118.737 134.527 118.679 134.821C118.581 135.41 118.454 136.004 118.281 136.598C117.935 137.781 117.375 138.906 116.7 139.91C115.668 141.427 114.479 142.708 113.498 144.127C112.512 145.541 111.67 147.035 111.047 148.627C110.048 151.096 109.5 153.687 109.039 156.277C108.958 156.848 108.877 157.414 108.791 157.991C108.525 160.131 108.254 160.777 107.845 161.239C107.747 161.342 107.648 161.481 107.556 161.544C107.268 161.764 106.945 160.835 106.898 159.15C106.991 156.681 107.343 154.166 108.023 151.685C108.698 149.216 109.639 146.7 111.041 144.398C112.056 142.685 113.354 141.156 114.462 139.725C115.587 138.3 116.343 136.875 116.689 135.179H116.735L116.729 135.196Z" fill="#3B2C7D"/>
<path d="M96.849 139.811C96.7567 137.873 96.8144 135.888 97.1432 133.938C97.2067 133.586 97.2586 133.229 97.3163 132.871C97.3682 132.513 97.4721 132.167 97.5586 131.821C97.6451 131.515 97.7259 131.209 97.8182 130.904L98.1471 130.015L98.4759 129.133L98.8682 128.279C99.3586 127.131 99.9874 126.029 100.645 124.979C101.228 124.061 101.816 123.133 102.399 122.221C103.149 121.061 103.743 119.832 104.747 118.846C105.076 118.546 105.174 118.656 105.249 119.117C105.347 119.59 105.416 120.427 105.03 121.148C103.564 123.623 101.909 125.815 100.622 128.215C99.8374 129.669 99.3701 131.325 99.0067 132.952C98.6259 134.752 98.4874 136.598 98.5221 138.473C98.5336 139.621 98.6201 140.786 98.7182 141.952C98.8797 143.717 99.0355 145.511 99.1624 147.288C99.2663 148.673 99.3874 150.04 99.2951 151.425C99.2836 151.731 99.2894 152.031 99.2547 152.336C99.1855 152.902 99.0932 153.271 98.9663 153.519C98.8509 153.767 98.724 153.906 98.5682 154.004C98.4932 154.05 98.424 154.113 98.3605 154.136C98.1528 154.217 97.997 153.733 97.8932 152.919C97.8817 152.319 97.824 151.713 97.7778 151.108C97.749 150.502 97.674 149.89 97.6105 149.279C97.524 148.056 97.4432 146.809 97.3278 145.558C97.149 143.688 96.9355 141.784 96.8086 139.829H96.849V139.811Z" fill="#3B2C7D"/>
<path d="M111.705 163.662C109.652 163.315 107.771 162.664 105.936 161.919C105.267 161.648 104.592 161.4 103.946 161.094C101.661 159.998 99.492 158.706 97.444 157.252C96.5324 156.617 95.6267 155.954 94.7555 155.279C94.1959 154.84 93.6478 154.391 93.117 153.912C92.6151 153.404 92.1536 152.862 91.7209 152.291C91.4555 151.933 91.5882 151.898 91.969 152.042C92.1593 152.117 92.419 152.227 92.7074 152.377C93.0017 152.521 93.342 152.694 93.6651 152.925C95.8343 154.702 98.1766 156.225 100.6 157.696C102.048 158.585 103.692 159.26 105.302 159.894C107.067 160.598 108.884 161.204 110.719 161.585C111.838 161.81 113.009 161.971 114.03 161.81C114.134 161.804 114.209 161.764 114.302 161.746C114.388 161.723 114.486 161.706 114.532 161.677C114.654 161.637 114.757 161.567 114.85 161.492C115.034 161.314 115.08 161.065 115 160.777C114.919 160.471 114.74 160.091 114.504 159.762C114.284 159.421 114.002 159.092 113.713 158.787C112.79 157.829 111.659 157.09 110.534 156.392C110.28 156.248 110.032 156.104 109.779 155.96C109.334 155.648 109.052 155.44 108.902 155.204C108.769 154.933 108.729 154.708 108.729 154.442C108.729 154.321 108.705 154.2 108.717 154.102C108.74 153.935 108.879 153.848 109.15 153.791C109.421 153.733 109.842 153.698 110.246 153.877C110.88 154.085 111.469 154.402 112.04 154.748C112.617 155.089 113.171 155.481 113.707 155.902C114.25 156.323 114.752 156.819 115.242 157.35C115.727 157.887 116.188 158.487 116.581 159.237C116.656 159.369 116.725 159.519 116.782 159.681L116.875 159.917C116.904 159.992 116.932 160.073 116.95 160.194L117.065 160.835L117.025 161.55C116.909 162.514 116.079 163.281 115.213 163.558C114.861 163.679 114.527 163.76 114.221 163.783C113.909 163.829 113.615 163.835 113.332 163.835C112.761 163.835 112.225 163.783 111.7 163.708V163.662H111.705Z" fill="#3B2C7D"/>
<path d="M110.41 179.965C110.756 178.194 111.154 176.435 111.633 174.715C111.8 174.086 111.921 173.446 112.112 172.823C112.752 170.625 113.548 168.496 114.137 166.333C114.39 165.369 114.575 164.388 114.708 163.419C114.829 162.802 114.852 162.173 114.927 161.55C115.048 160.927 115.112 160.304 115.238 159.669C115.319 159.271 115.487 159.311 115.723 159.646C115.844 159.813 115.983 160.056 116.133 160.356C116.271 160.656 116.438 161.019 116.479 161.406C116.519 162.773 116.444 164.158 116.121 165.473C115.838 166.794 115.458 168.081 115.013 169.338C114.488 170.85 114.125 172.442 113.681 173.988C113.213 175.69 112.746 177.386 112.412 179.111C112.181 180.167 112.019 181.24 111.869 182.308C111.754 183.121 111.708 183.94 111.627 184.754C111.552 185.573 111.575 186.392 111.552 187.206C111.529 187.84 111.615 188.463 111.667 189.086C111.742 189.71 111.771 190.327 111.875 190.944C111.915 191.215 111.956 191.481 111.985 191.758C112.083 192.779 111.967 193.119 111.621 193.39C111.54 193.454 111.471 193.529 111.39 193.569C111.148 193.702 110.825 193.315 110.612 192.56C110.462 192 110.3 191.429 110.185 190.846C110.081 190.263 110.017 189.669 109.948 189.069C109.787 187.869 109.775 186.64 109.798 185.411C109.821 184.5 109.919 183.588 109.988 182.677C110.098 181.771 110.225 180.86 110.358 179.96H110.404L110.41 179.965Z" fill="#3B2C7D"/>
<path d="M87.9353 165.11L88.5526 162.358C88.6218 162.023 88.6507 161.683 88.7257 161.348C89.0026 160.171 89.2853 158.994 89.5622 157.823C89.6776 157.298 89.7584 156.768 89.8276 156.243C89.891 155.908 89.9372 155.568 90.0064 155.233C90.093 154.898 90.2141 154.575 90.3468 154.252C90.4334 154.05 90.5718 154.108 90.7334 154.316C90.8834 154.523 91.1199 154.898 91.1718 155.308C91.1776 155.66 91.1545 156.012 91.143 156.358C91.1141 156.704 91.0507 157.044 90.9987 157.391C90.8834 158.077 90.7391 158.758 90.5545 159.439C90.3353 160.252 90.266 161.123 90.1103 161.966L89.5737 164.741L89.2449 166.448C89.0891 167.314 88.9103 168.179 88.8007 169.044C88.6968 169.714 88.7026 170.383 88.6276 171.052C88.5987 171.196 88.5872 171.341 88.5526 171.485C88.4141 172.021 88.2814 172.183 87.9699 172.258C87.9007 172.275 87.8257 172.304 87.7622 172.31C87.543 172.333 87.3814 172.085 87.3064 171.664C87.2603 171.352 87.2026 171.041 87.168 170.723C87.168 170.412 87.168 170.1 87.1795 169.783C87.1968 169.154 87.2603 168.519 87.3757 167.896C87.5314 166.962 87.7276 166.033 87.9064 165.104H87.9468L87.9353 165.11Z" fill="#3B2C7D"/>
<path d="M98.4704 166.633C99.2897 167.1 100.155 167.504 101.049 167.856C101.378 167.983 101.719 168.064 102.053 168.179C103.219 168.594 104.436 168.946 105.676 169.131C106.224 169.217 106.784 169.252 107.338 169.252C108.047 169.223 108.745 169.217 109.467 169.287C109.692 169.31 109.697 169.5 109.536 169.748C109.374 169.991 109.045 170.331 108.613 170.452C107.072 170.787 105.486 170.671 103.986 170.256C103.092 170.008 102.14 169.887 101.228 169.616C100.23 169.327 99.2666 168.917 98.332 168.456C97.7551 168.173 97.2012 167.856 96.6531 167.516C95.8224 167.008 95.0608 166.385 94.3397 165.721C93.7801 165.208 93.2089 164.694 92.782 164.025C92.6897 163.875 92.5858 163.737 92.5224 163.575C92.3031 162.952 92.3724 162.704 92.6204 162.496C92.6781 162.45 92.7301 162.392 92.7878 162.358C92.9839 162.248 93.2435 162.421 93.5147 162.716C94.3454 163.575 95.1301 164.371 96.1397 165.092C96.8781 165.612 97.6455 166.148 98.4878 166.581L98.4704 166.621V166.633Z" fill="#3B2C7D"/>
<path d="M98.2038 164.648C98.1691 164.377 98.1461 164.106 98.1403 163.841C98.1403 163.743 98.0999 163.65 98.1114 163.552C98.1403 163.206 98.2038 162.871 98.273 162.543C98.2961 162.398 98.3076 162.254 98.3134 162.11C98.3249 161.925 98.3076 161.735 98.4345 161.568C98.5095 161.469 99.2018 161.752 99.2191 161.925C99.2307 162.248 99.2249 162.554 99.1384 162.889C99.0807 163.091 99.1672 163.287 99.1903 163.483C99.2076 163.702 99.2249 163.927 99.2653 164.146C99.2884 164.285 99.3172 164.418 99.3576 164.55C99.4153 164.752 99.4788 164.96 99.5941 165.133C99.6749 165.277 99.8076 165.381 99.9172 165.496C99.9403 165.525 99.9691 165.543 99.9922 165.571C100.056 165.681 100.015 165.762 99.8307 165.935L99.7038 166.056C99.5595 166.183 99.3922 166.235 99.2595 166.189C99.0576 166.125 98.9018 166.016 98.7461 165.894C98.6768 165.831 98.6018 165.768 98.5441 165.693C98.498 165.612 98.4576 165.525 98.4172 165.444C98.3076 165.191 98.2384 164.919 98.1749 164.654L98.2038 164.643V164.648Z" fill="#3B2C7D"/>
<path d="M101.814 165.767C101.802 165.496 101.808 165.225 101.814 164.96C101.814 164.862 101.779 164.775 101.791 164.677C101.831 164.337 101.912 163.996 101.97 163.673C101.993 163.529 101.999 163.385 101.993 163.241C101.993 163.056 101.941 162.866 102.079 162.692C102.154 162.589 103.066 162.831 103.095 163.01C103.129 163.339 103.129 163.656 103.014 163.996C102.939 164.204 103.043 164.4 103.049 164.608C103.06 164.833 103.066 165.064 103.089 165.289C103.101 165.427 103.118 165.571 103.147 165.71C103.187 165.917 103.222 166.137 103.32 166.327C103.389 166.477 103.556 166.581 103.654 166.714C103.672 166.742 103.706 166.766 103.718 166.8C103.77 166.921 103.701 167.002 103.424 167.175L103.233 167.296C103.02 167.423 102.801 167.469 102.662 167.412C102.218 167.256 102.039 166.921 101.935 166.575C101.854 166.316 101.82 166.044 101.785 165.773H101.82L101.814 165.767Z" fill="#3B2C7D"/>
<path d="M200.884 141.779C196.021 140.019 190.644 139.685 185.584 140.925C183.738 141.375 181.961 142.085 180.259 142.898L179.705 143.181L179.428 143.325L179.221 143.441C179.174 143.464 179.111 143.487 179.094 143.544L179.059 143.625C179.059 143.625 179.007 143.792 178.978 143.879C178.748 144.675 178.523 145.529 178.298 146.371C177.842 148.062 177.357 149.758 176.803 151.437C176.244 153.116 175.615 154.783 174.801 156.404C174.392 157.212 173.936 158.008 173.359 158.752C173.065 159.121 172.759 159.491 172.384 159.819C172.026 160.166 171.576 160.442 171.167 160.667C169.638 161.481 167.896 161.694 166.263 161.556C164.619 161.417 163.055 160.956 161.59 160.344C157.857 158.741 154.43 156.248 152.209 152.856C151.523 151.8 151.788 151.835 152.671 152.446C153.553 153.075 155.249 154.016 156.98 155.308C158.492 156.491 160.13 157.517 161.849 158.296C163.563 159.069 165.386 159.594 167.14 159.617C168.871 159.641 170.573 159.087 171.565 157.835C172.678 156.491 173.515 154.667 174.242 152.844C175.107 150.641 175.759 148.275 176.348 145.869L176.792 144.046C176.873 143.741 176.948 143.429 177.046 143.106C177.063 143.042 177.115 142.875 177.155 142.766L177.299 142.408C177.374 142.304 177.444 142.2 177.536 142.108L177.553 142.091C177.507 142.044 177.542 142.073 177.536 142.062H177.548L177.582 142.027L177.657 141.969L177.807 141.854L178.378 141.519L178.811 141.289C179.099 141.133 179.388 140.983 179.682 140.844C180.265 140.556 180.859 140.308 181.453 140.066C186.715 137.989 192.588 137.539 198.08 138.756C198.923 138.941 199.753 139.189 200.584 139.419C201.398 139.714 202.217 139.967 203.019 140.302C203.809 140.66 204.617 140.977 205.361 141.404L206.498 142.01C206.867 142.223 207.23 142.454 207.594 142.673C209.803 144.029 211.886 145.569 213.848 147.225C215.826 148.869 217.719 150.594 219.524 152.383C222.34 155.158 225.069 157.927 227.515 160.991C228.063 161.654 228.588 162.317 229.084 163.039C230.89 165.721 231.305 166.679 231.334 167.481C231.351 167.654 231.403 167.867 231.409 167.977C231.438 168.317 230.394 167.446 228.905 165.669C228.34 165.017 227.769 164.366 227.169 163.731C226.863 163.419 226.592 163.079 226.303 162.75L225.426 161.769C224.844 161.112 224.255 160.454 223.644 159.814C223.044 159.162 222.461 158.492 221.844 157.852C219.415 155.244 216.853 152.694 214.142 150.323C212.128 148.569 210.04 146.879 207.83 145.419C205.615 143.948 203.336 142.685 200.873 141.854L200.884 141.802V141.779Z" fill="#3B2C7D"/>
<path d="M128.296 180.877C129.501 178.021 130.678 175.137 131.919 172.269C132.369 171.219 132.784 170.158 133.263 169.119C134.971 165.473 136.869 161.873 139.269 158.579C140.336 157.119 141.496 155.706 142.817 154.454C143.665 153.652 144.571 152.896 145.58 152.273C146.076 151.95 146.607 151.679 147.167 151.471C147.709 151.235 148.286 151.079 148.886 151.033C149.624 150.958 149.549 151.125 149.082 151.604C148.621 152.117 147.853 152.942 146.855 153.594C145.038 154.725 143.474 156.265 142.078 157.973C140.647 159.658 139.372 161.533 138.167 163.471C136.719 165.802 135.594 168.45 134.463 171.04C133.217 173.89 132.046 176.792 130.869 179.694C130.142 181.483 129.409 183.271 128.647 185.048C127.494 187.742 126.247 190.425 124.782 192.981C123.634 194.954 122.434 196.927 120.565 198.485C120.363 198.658 120.144 198.808 119.93 198.969C119.711 199.119 119.469 199.252 119.226 199.379C118.303 199.829 117.599 199.933 117.121 199.915C116.872 199.881 116.682 199.835 116.526 199.771C116.371 199.696 116.249 199.61 116.14 199.517C116.042 199.431 115.921 199.35 115.869 199.269C115.782 199.137 115.926 199.004 116.226 198.837C116.376 198.762 116.561 198.652 116.774 198.537C116.988 198.427 117.224 198.317 117.496 198.196C119.036 197.4 120.351 196.131 121.488 194.55C122.624 192.981 123.605 191.198 124.517 189.358C125.867 186.617 127.067 183.739 128.249 180.848L128.296 180.86V180.877Z" fill="#3B2C7D"/>
<path d="M213.417 179.261C213.134 178.465 212.828 177.663 212.447 176.89C212.315 176.607 212.142 176.342 211.997 176.059C211.524 175.05 210.982 174.052 210.382 173.088C210.122 172.656 209.822 172.252 209.517 171.854C209.13 171.34 208.657 170.896 208.432 170.25C208.357 170.054 208.524 169.944 208.824 169.921C208.974 169.909 209.159 169.909 209.355 169.944C209.557 169.967 209.742 170.036 209.874 170.175C210.832 171.109 211.743 172.113 212.349 173.354C212.724 174.081 213.267 174.732 213.693 175.454C214.155 176.25 214.553 177.081 214.911 177.934C215.142 178.454 215.326 178.996 215.528 179.521C215.667 179.931 215.788 180.346 215.92 180.756C216.018 181.177 216.151 181.586 216.261 182.002C216.336 182.331 216.434 182.642 216.543 182.965C216.63 183.288 216.717 183.617 216.763 183.946C216.78 184.09 216.797 184.234 216.792 184.39C216.768 184.95 216.607 185.129 216.243 185.244C216.163 185.273 216.082 185.302 216.007 185.319C215.874 185.342 215.753 185.302 215.632 185.209C215.511 185.117 215.372 184.979 215.292 184.8C215.159 184.534 215.038 184.281 214.882 184.027C214.767 183.767 214.674 183.513 214.599 183.254C214.409 182.734 214.27 182.209 214.126 181.673C213.918 180.877 213.67 180.075 213.376 179.279L213.417 179.256V179.261Z" fill="#3B2C7D"/>
<path d="M146.799 191.654C147.18 190.794 147.538 189.906 147.89 189.006C148.017 188.677 148.097 188.331 148.23 188.002C148.467 187.425 148.72 186.842 148.992 186.265C149.274 185.694 149.568 185.129 149.874 184.563C150.145 184.061 150.417 183.559 150.722 183.075C151.109 182.457 151.547 181.823 152.199 181.419C152.401 181.292 152.54 181.506 152.597 181.829C152.626 181.99 152.638 182.175 152.626 182.359C152.62 182.55 152.58 182.734 152.488 182.89C152.159 183.45 151.893 184.05 151.628 184.661C151.322 185.256 151.017 185.873 150.682 186.49C150.284 187.234 150.059 188.1 149.765 188.925C149.436 189.831 149.095 190.748 148.738 191.665C148.518 192.231 148.282 192.79 148.04 193.356C147.665 194.204 147.249 195.046 146.753 195.859C146.372 196.488 146.015 197.152 145.455 197.723C145.328 197.844 145.201 197.965 145.063 198.069C144.78 198.242 144.572 198.334 144.388 198.3C144.209 198.282 144.076 198.196 143.943 198.052C143.88 197.988 143.817 197.925 143.77 197.856C143.62 197.625 143.724 197.302 143.926 196.973C144.249 196.529 144.532 196.113 144.815 195.652C145.097 195.19 145.345 194.677 145.617 194.152C146.026 193.373 146.413 192.531 146.759 191.648L146.799 191.659V191.654Z" fill="#3B2C7D"/>
<path d="M166.04 220.529C166.115 219.087 166.38 217.691 166.813 216.329C166.986 215.839 167.107 215.325 167.35 214.846C167.759 214.004 168.261 213.185 168.959 212.492C169.046 212.406 169.127 212.314 169.213 212.233L169.502 211.996L169.79 211.766L169.934 211.65L170.125 211.535C170.615 211.229 171.296 211.073 171.902 211.2C172.444 211.292 172.877 211.552 173.252 211.817C173.638 212.089 173.932 212.406 174.221 212.729C174.855 213.589 175.577 214.512 175.271 215.671C175.248 216.006 175.046 216.006 174.671 215.856C174.463 215.792 174.296 215.654 173.88 215.596C173.69 215.562 173.615 215.475 173.494 215.406C173.384 215.331 173.28 215.256 173.205 215.158C172.98 214.806 172.778 214.454 172.536 214.171C172.311 213.877 172.098 213.606 171.89 213.439C171.677 213.266 171.567 213.214 171.452 213.179C171.423 213.162 171.382 213.162 171.342 213.167C171.302 213.156 171.25 213.179 171.192 213.196C171.163 213.208 171.14 213.202 171.1 213.225L170.973 213.306L170.713 213.462C169.877 214.004 169.357 215.054 168.936 216.075C168.463 217.217 168.146 218.464 167.99 219.721C167.938 220.108 167.915 220.5 167.903 220.887C167.903 221.077 167.892 221.279 167.903 221.469L167.938 221.994C167.955 222.156 167.979 222.323 168.03 222.491C168.088 222.641 168.152 222.848 168.336 222.889C168.509 222.923 168.671 222.819 168.803 222.71C168.942 222.6 169.057 222.462 169.161 222.323C169.686 221.619 170.038 220.742 170.35 219.9C170.413 219.71 170.471 219.525 170.534 219.335C170.702 219.006 170.846 218.81 171.007 218.694C171.088 218.637 171.169 218.591 171.261 218.562C171.365 218.539 171.475 218.527 171.584 218.516C171.682 218.504 171.775 218.481 171.85 218.475C172.052 218.441 172.409 218.902 172.352 219.554C172.334 220.039 172.19 220.483 172.028 220.921C171.867 221.36 171.671 221.792 171.44 222.214C171.209 222.641 170.95 223.05 170.627 223.466C170.084 224.146 169.398 224.781 168.688 224.942C168.186 225.087 167.557 224.971 167.142 224.642C167.027 224.573 166.957 224.446 166.859 224.354C166.779 224.244 166.657 224.175 166.611 224.025L166.427 223.616C166.363 223.477 166.294 223.35 166.271 223.177L166.063 222.231L166.011 221.637C165.994 221.262 165.977 220.892 165.988 220.523H166.034L166.04 220.529Z" fill="#3B2C7D"/>
<path d="M162.241 221.4C162.328 220.079 162.524 218.804 162.772 217.534C162.864 217.073 162.905 216.6 163.026 216.144C163.234 215.336 163.482 214.54 163.799 213.738C163.96 213.334 164.128 212.942 164.376 212.527C164.641 212.1 165.005 211.656 165.512 211.384C165.957 211.154 166.435 211.044 166.891 211.021C167.335 211.021 167.768 211.044 168.16 211.165C169.141 211.459 170.145 211.771 170.641 212.746C170.78 213.063 170.664 213.138 170.272 213.283C169.857 213.461 169.199 213.738 168.772 213.6C168.034 213.288 167.278 213.15 166.862 213.109C166.649 213.109 166.539 213.109 166.372 213.202C166.28 213.236 166.205 213.334 166.095 213.444C165.991 213.577 165.882 213.75 165.772 213.923C165.253 214.8 165.074 215.948 164.832 217.015C164.572 218.204 164.353 219.421 164.237 220.633C164.168 221.377 164.116 222.133 164.157 222.859C164.185 223.408 164.249 223.961 164.41 224.4C164.485 224.608 164.601 224.786 164.67 224.821C164.687 224.821 164.699 224.827 164.716 224.844C164.739 224.844 164.757 224.844 164.774 224.844C164.832 224.827 164.924 224.821 164.993 224.775L165.051 224.746C165.23 224.625 165.385 224.331 165.524 223.95C165.662 223.581 165.784 223.171 165.957 222.744C166.037 222.548 166.107 222.34 166.228 222.138C166.441 221.758 166.707 221.533 166.943 221.446C167.203 221.383 167.399 221.434 167.578 221.567C167.659 221.625 167.739 221.677 167.797 221.74C167.889 221.85 167.889 222 167.889 222.161C167.889 222.248 167.889 222.334 167.889 222.433C167.889 222.525 167.866 222.611 167.837 222.698C167.705 223.108 167.572 223.615 167.393 224.209C167.301 224.509 167.191 224.827 167.012 225.184L166.857 225.461L166.649 225.761C166.464 225.992 166.228 226.2 165.968 226.361C165.553 226.552 165.218 226.765 164.566 226.708C164.266 226.702 163.949 226.575 163.684 226.431C163.447 226.275 163.216 226.084 163.095 225.911C162.697 225.409 162.553 224.971 162.443 224.584C162.334 224.186 162.282 223.823 162.241 223.459C162.166 222.744 162.166 222.063 162.189 221.394H162.235L162.241 221.4Z" fill="#3B2C7D"/>
<path d="M156.602 222.958C156.706 221.469 157.046 220.067 157.484 218.712C157.64 218.215 157.773 217.713 157.963 217.235C158.65 215.544 159.527 213.958 160.49 212.446C160.929 211.76 161.413 211.021 162.163 210.45C162.406 210.271 162.683 210.11 163.006 209.988C163.334 209.89 163.709 209.856 164.079 209.937C164.258 209.988 164.448 210.04 164.598 210.144C164.754 210.248 164.886 210.375 164.996 210.508C165.215 210.779 165.342 211.079 165.406 211.367C165.475 211.742 165.221 211.737 164.846 211.644C164.661 211.598 164.419 211.552 164.2 211.563C164.096 211.563 163.986 211.592 163.911 211.621C163.871 211.633 163.836 211.662 163.808 211.685C163.79 211.685 163.773 211.696 163.756 211.702C163.709 211.708 163.675 211.742 163.606 211.783C163.542 211.812 163.427 211.852 163.306 211.921C163.058 212.065 162.769 212.331 162.509 212.642C162.371 212.792 162.256 212.977 162.117 213.15L161.696 213.762C161.419 214.171 161.142 214.587 160.859 215.002C160.196 216 159.769 217.177 159.348 218.308C158.886 219.56 158.506 220.846 158.309 222.15C158.194 222.952 158.142 223.765 158.252 224.527C158.292 224.81 158.361 225.092 158.459 225.323C158.54 225.513 158.633 225.652 158.8 225.738C159.175 225.883 159.44 225.617 159.838 225.121C160.392 224.377 160.732 223.46 161.171 222.565C161.269 222.363 161.35 222.162 161.465 221.96C161.961 221.262 162.359 221.083 162.757 221.262C162.85 221.302 162.948 221.342 163.011 221.4C163.207 221.631 163.196 221.908 163.023 222.415C162.908 222.802 162.729 223.183 162.533 223.581C162.342 223.979 162.134 224.388 161.904 224.804C161.673 225.219 161.402 225.635 161.084 226.067C160.917 226.281 160.738 226.5 160.502 226.719C160.184 227.013 159.763 227.279 159.331 227.365C158.679 227.515 157.992 227.262 157.525 226.777C157.404 226.662 157.306 226.523 157.208 226.379C157.109 226.24 157.034 226.073 156.983 225.975C156.884 225.75 156.809 225.531 156.752 225.317C156.538 224.475 156.521 223.696 156.55 222.94H156.59L156.602 222.958Z" fill="#3B2C7D"/>
<path d="M151.764 222.946C151.972 221.458 152.335 220.05 152.791 218.665C152.958 218.163 153.085 217.644 153.287 217.148C154.02 215.423 154.885 213.715 156.293 212.29C156.922 211.685 157.677 211.033 158.716 210.837C159.039 210.773 159.379 210.75 159.714 210.785C160.014 210.819 160.285 210.854 160.62 210.963C160.943 211.067 161.289 211.304 161.526 211.587C161.652 211.719 161.727 211.892 161.768 212.048C161.82 212.21 161.843 212.36 161.866 212.51C161.895 212.89 161.67 212.913 161.231 212.856C161.012 212.833 160.712 212.792 160.435 212.856C160.17 212.885 160.083 213 159.985 213.012C159.904 213.012 159.749 212.965 159.541 212.948C159.42 212.931 159.385 212.937 159.322 212.937C159.264 212.937 159.212 212.942 159.154 212.954C158.935 212.988 158.687 213.104 158.376 213.271C157.758 213.629 157.095 214.31 156.483 215.06C155.745 215.971 155.324 217.171 154.897 218.325C154.429 219.6 154.043 220.915 153.789 222.254C153.639 223.062 153.529 223.938 153.547 224.671C153.547 224.838 153.558 225.017 153.599 225.196C153.639 225.369 153.714 225.571 153.887 225.64C154.06 225.692 154.256 225.629 154.395 225.513C154.545 225.404 154.66 225.254 154.77 225.104L154.92 224.862C154.983 224.763 155.041 224.654 155.099 224.55C155.214 224.342 155.324 224.117 155.433 223.892C155.647 223.442 155.866 222.981 156.126 222.513C156.252 222.306 156.345 222.098 156.512 221.896C156.656 221.717 156.812 221.573 156.956 221.469C157.089 221.365 157.233 221.29 157.366 221.262C157.626 221.21 157.845 221.285 158.001 221.4C158.076 221.458 158.151 221.504 158.191 221.562C158.266 221.66 158.237 221.798 158.197 221.965C158.179 222.046 158.156 222.127 158.133 222.248C158.116 222.369 158.064 222.427 158.018 222.554C157.712 223.2 157.366 224.008 156.979 224.867C156.876 225.087 156.777 225.3 156.651 225.531C156.587 225.646 156.535 225.756 156.466 225.871L156.362 226.044C156.304 226.131 156.247 226.235 156.177 226.327C155.618 227.077 154.908 227.677 154.152 227.758C154.014 227.787 153.87 227.787 153.726 227.787H153.506L153.293 227.746C153.01 227.665 152.751 227.521 152.543 227.331C152.127 226.962 151.851 226.39 151.729 225.715C151.66 225.392 151.631 225.017 151.62 224.7C151.614 224.492 151.62 224.296 151.62 224.094C151.631 223.696 151.66 223.315 151.701 222.935H151.747L151.764 222.946Z" fill="#3B2C7D"/>
<path d="M145.673 214.293C145.5 214.068 145.368 213.854 145.212 213.577C144.993 213.202 144.877 212.798 144.831 212.4C144.785 211.996 144.889 211.593 145.091 211.258C145.322 210.935 145.633 210.675 145.997 210.514C146.129 210.45 146.268 210.404 146.406 210.358C146.579 210.306 146.66 210.289 146.775 210.266C146.995 210.225 147.202 210.202 147.41 210.202C147.6 210.202 147.762 210.225 147.906 210.237C148.062 210.248 148.212 210.271 148.362 210.3C148.668 210.346 148.973 210.404 149.273 210.468C149.879 210.594 150.479 210.75 151.062 210.935C151.581 211.096 152.112 211.229 152.608 211.419C152.931 211.535 153.26 211.644 153.566 211.789C153.866 211.956 154.137 212.187 154.397 212.423C154.552 212.579 154.448 212.741 154.183 212.896C153.923 213.046 153.479 213.266 153.087 213.266C152.764 213.208 152.458 213.116 152.147 213.052C151.835 212.977 151.529 212.925 151.235 212.816C150.635 212.625 150.035 212.441 149.423 212.244C149.054 212.129 148.662 212.083 148.264 212.066L147.664 212.043C147.485 212.037 147.329 212.037 147.173 212.043C147.098 212.043 146.989 212.06 146.96 212.066C146.925 212.066 146.879 212.077 146.845 212.089C146.764 212.112 146.683 212.158 146.631 212.233C146.527 212.394 146.556 212.573 146.672 212.793C146.902 213.219 147.22 213.618 147.606 213.958C148.189 214.471 148.898 214.881 149.672 215.1C150.283 215.279 150.889 215.279 151.5 215.256C151.639 215.256 151.772 215.227 151.91 215.233C152.429 215.256 152.597 215.377 152.689 215.816C152.712 215.914 152.741 216.018 152.752 216.116C152.787 216.45 152.562 216.721 152.152 216.819C151.552 216.975 150.877 216.987 150.185 216.883C149.493 216.773 148.858 216.577 148.2 216.277C147.248 215.827 146.331 215.187 145.633 214.304L145.662 214.275L145.673 214.293Z" fill="#3B2C7D"/>
<path d="M181.875 209.4L181.171 209.158L180.444 208.961C179.965 208.817 179.463 208.736 178.967 208.638C178.603 208.558 178.234 208.575 177.871 208.517C176.584 208.327 175.263 208.217 173.953 208.269C173.371 208.269 172.788 208.361 172.217 208.454C171.853 208.517 171.502 208.638 171.132 208.69C170.948 208.708 170.769 208.748 170.584 208.771C170.4 208.8 170.198 208.765 170.002 208.759C169.748 208.731 169.725 208.575 169.84 208.275C169.898 208.125 169.99 207.929 170.117 207.721C170.25 207.525 170.428 207.363 170.642 207.259C172.194 206.683 173.855 206.521 175.482 206.729C176.452 206.838 177.461 206.804 178.448 206.925C178.99 206.977 179.526 207.104 180.063 207.19C180.594 207.3 181.125 207.444 181.65 207.577C182.29 207.784 182.936 207.963 183.553 208.229C183.79 208.321 184.032 208.408 184.263 208.511L184.95 208.852C185.417 209.054 185.844 209.342 186.294 209.579C186.963 209.994 187.69 210.346 188.296 210.906C188.428 211.027 188.584 211.119 188.694 211.269C189.103 211.817 189.046 212.123 188.855 212.417C188.809 212.486 188.769 212.556 188.723 212.613C188.642 212.706 188.515 212.723 188.353 212.711C188.192 212.694 187.978 212.648 187.788 212.538C187.632 212.469 187.523 212.371 187.396 212.279L186.986 212.042C186.715 211.886 186.502 211.679 186.219 211.529C185.948 211.373 185.717 211.171 185.423 211.027L184.586 210.559C183.715 210.144 182.827 209.723 181.863 209.452L181.875 209.411V209.4Z" fill="#3B2C7D"/>
<path d="M178.49 201.242C178.871 201.173 179.246 201.098 179.644 201.081L180.209 201.04C180.342 201.04 180.509 201.029 180.682 201.017C181.375 200.971 182.107 200.954 182.828 200.965C183.353 200.977 183.884 200.954 184.409 201.012C186.255 201.242 188.05 201.767 189.717 202.523C190.08 202.708 190.444 202.887 190.813 203.054C191.177 203.233 191.528 203.429 191.886 203.608C192.792 204.081 193.698 204.635 194.246 205.569C194.43 205.846 194.292 205.938 193.917 206.002C193.727 206.037 193.473 206.065 193.184 206.094C193.046 206.106 192.884 206.129 192.746 206.112C192.613 206.088 192.486 206.048 192.359 205.985L191.69 205.702C191.471 205.61 191.28 205.465 191.061 205.373C190.634 205.177 190.225 204.935 189.792 204.756C189.365 204.56 188.938 204.369 188.511 204.173C188.09 203.96 187.646 203.781 187.202 203.585C186.128 203.14 184.917 203.054 183.746 202.973C182.459 202.863 181.127 202.973 179.782 203.071C179.021 203.158 178.248 203.325 177.498 203.625C176.361 204.046 175.236 204.617 174.238 205.344C173.846 205.627 173.494 205.944 173.148 206.267C172.802 206.59 172.467 206.919 172.138 207.254C172 207.404 171.861 207.548 171.717 207.698C171.163 208.223 170.915 208.287 170.494 208.171C170.396 208.142 170.292 208.131 170.205 208.096C169.917 207.992 169.911 207.531 170.217 206.948C170.696 206.123 171.313 205.396 171.988 204.704C172.698 204.052 173.482 203.469 174.325 202.944C175.577 202.177 176.944 201.531 178.478 201.19L178.49 201.237V201.242Z" fill="#3B2C7D"/>
<path d="M204.757 44.8384C201.763 42.7846 198.613 40.973 195.411 39.2769C192.175 37.6384 188.863 36.1499 185.459 34.8749C182.044 33.6403 178.588 32.5096 175.046 31.6903C173.292 31.2172 171.498 30.9172 169.721 30.5365C168.827 30.3749 167.927 30.248 167.027 30.098C166.127 29.9538 165.232 29.8038 164.327 29.7172C157.109 28.8346 149.782 28.6788 142.519 29.3422C135.238 29.9769 128.055 31.2576 121.127 33.5076C111.007 36.7788 101.494 41.8269 92.8573 48.0115C89.0612 50.7634 85.4612 53.7807 82.0458 56.9884C78.6246 60.2019 75.5035 63.7096 72.5842 67.373C66.7631 74.7173 62.1419 83.0019 58.8362 91.7769C52.1554 109.333 51.1342 128.925 55.5131 147.208C56.5054 151.263 57.7458 155.256 59.2342 159.167C60.7285 163.073 62.5227 166.863 64.5016 170.538C66.4746 174.225 68.7535 177.727 71.1939 181.102L72.1169 182.36C72.4227 182.781 72.7285 183.202 73.0689 183.588L75.0535 185.965L75.5496 186.56L76.0862 187.119L77.165 188.233L78.2381 189.346L78.7746 189.9L79.3458 190.419L82.2939 193.09L85.3977 195.588L86.1765 196.211L86.99 196.794L88.6112 197.954L90.2323 199.113L91.9112 200.192L93.5958 201.271C94.1554 201.635 94.715 201.992 95.2977 202.315L98.765 204.3C99.9362 204.935 101.136 205.523 102.319 206.135C103.496 206.763 104.713 207.3 105.925 207.854C108.33 209.008 110.823 209.942 113.298 210.935L117.071 212.244L118.017 212.567L118.975 212.85L120.89 213.415C126.002 214.869 131.205 216.029 136.478 216.56C143.038 217.044 142.253 217.517 136.502 217.979C135.786 217.99 134.99 217.996 134.125 217.979C133.259 217.956 132.313 217.985 131.321 217.892C129.336 217.702 127.063 217.546 124.634 217.073C122.177 216.704 119.58 216.006 116.811 215.267C115.45 214.829 114.048 214.373 112.617 213.911C111.192 213.421 109.767 212.821 108.302 212.244C103.155 210.075 98.1477 207.583 93.3592 204.692C88.5939 201.767 84.0304 198.502 79.79 194.81L76.6804 191.96L73.7496 188.902L73.3862 188.521L73.0458 188.111L72.365 187.292L71.0092 185.654L70.3342 184.835L69.7169 183.986L68.4766 182.29C65.2227 177.733 62.3612 172.898 59.9266 167.85C55.0516 157.76 51.9131 146.827 50.7189 135.675C49.5131 124.523 50.2285 113.152 52.8996 102.236C56.0554 89.1807 62.0669 76.523 70.5766 65.6884C74.8112 60.2596 79.6285 55.2749 84.8958 50.8269C90.1515 46.373 95.8342 42.4326 101.811 39.0807C103.432 38.123 105.134 37.3096 106.813 36.4442C107.644 35.9999 108.515 35.6365 109.369 35.2442L111.948 34.0846C115.438 32.6653 118.963 31.3153 122.598 30.2884C123.503 30.0288 124.403 29.7461 125.315 29.5096L128.067 28.8519L129.446 28.523C129.907 28.4249 130.375 28.3499 130.836 28.2576L133.623 27.7442C134.552 27.5711 135.486 27.4788 136.415 27.3403C137.35 27.2192 138.278 27.0692 139.213 26.9711L142.023 26.6999L143.425 26.5672L144.832 26.4865C152.338 26.0307 159.913 26.2442 167.355 27.4211C168.284 27.5711 169.219 27.7038 170.142 27.8711L172.911 28.4307C173.84 28.6038 174.752 28.8288 175.663 29.0596C176.575 29.2903 177.492 29.498 178.403 29.7519C180.209 30.2884 182.027 30.7788 183.798 31.4192C184.686 31.7365 185.586 32.0019 186.463 32.3538L189.094 33.3807C197.673 36.8942 205.738 41.6538 212.932 47.4865C220.121 53.3307 226.455 60.1961 231.752 67.7711C233.759 70.6384 235.6 73.6269 237.319 76.6788C237.746 77.4461 238.144 78.2249 238.553 78.998C238.969 79.7711 239.373 80.5499 239.742 81.3403L240.884 83.7057L241.917 86.1346C244.64 92.6192 246.498 99.4326 247.623 106.338C249.878 120.156 249.452 134.36 246.417 147.911L245.967 149.885L245.742 150.871L245.465 151.846C245.102 153.144 244.732 154.436 244.369 155.735C243.503 158.279 242.713 160.852 241.663 163.315C240.728 165.831 239.523 168.225 238.403 170.66C237.117 173.008 235.928 175.408 234.457 177.64C233.107 179.954 231.498 182.088 229.957 184.275C229.138 185.331 228.278 186.358 227.442 187.396C227.015 187.91 226.611 188.446 226.161 188.942L224.794 190.413L223.427 191.885C222.971 192.375 222.527 192.877 222.025 193.321L219.094 196.073L218.361 196.76L217.582 197.394L216.025 198.669C214.98 199.506 213.971 200.4 212.852 201.144C210.913 202.5 209.044 203.919 207.007 205.079C206.003 205.69 205.005 206.302 203.996 206.913C202.952 207.456 201.896 207.998 200.84 208.546C199.853 209.036 198.925 209.561 198.002 209.965C197.073 210.363 196.178 210.744 195.325 211.108C194.471 211.471 193.657 211.811 192.878 212.14C192.1 212.463 191.327 212.694 190.605 212.948C189.152 213.438 187.836 213.877 186.648 214.281C185.448 214.65 184.34 214.886 183.353 215.14C182.361 215.383 181.473 215.585 180.671 215.763C180.267 215.85 179.886 215.925 179.528 216C179.159 216.046 178.813 216.092 178.478 216.133C177.152 216.283 176.084 216.352 175.127 216.363C174.255 216.375 173.125 216.438 172.611 216.375C171.746 216.265 173.027 215.729 176.05 214.858C176.805 214.638 177.671 214.402 178.64 214.148C179.603 213.888 180.648 213.508 181.802 213.161C182.95 212.804 184.196 212.423 185.528 212.008C186.838 211.523 188.228 211.01 189.705 210.461L191.35 209.861C191.892 209.648 192.423 209.394 192.959 209.163C194.027 208.69 195.1 208.217 196.173 207.744C197.263 207.306 198.278 206.717 199.323 206.181C200.361 205.638 201.405 205.09 202.45 204.542C203.465 203.942 204.457 203.313 205.467 202.702C206.465 202.073 207.503 201.508 208.444 200.786C210.359 199.402 212.338 198.092 214.132 196.529C215.038 195.767 215.99 195.046 216.867 194.244C217.732 193.431 218.598 192.611 219.469 191.798C219.896 191.383 220.357 191.002 220.755 190.558L221.973 189.248C222.78 188.365 223.617 187.511 224.402 186.611C225.157 185.683 225.913 184.754 226.669 183.825C227.038 183.352 227.448 182.913 227.788 182.417L228.832 180.952C229.519 179.965 230.257 179.013 230.903 177.998L232.819 174.929C235.259 170.769 237.486 166.448 239.223 161.908L239.903 160.217C240.128 159.652 240.302 159.069 240.509 158.492L241.686 155.031C242.327 152.677 243.082 150.352 243.567 147.952L243.977 146.163C244.121 145.569 244.253 144.969 244.346 144.363L244.986 140.746C245.2 139.54 245.309 138.317 245.482 137.1L245.719 135.277L245.869 133.442C246.348 128.55 246.365 123.617 246.146 118.708C245.771 111.41 244.663 104.14 242.753 97.0961C240.792 90.0634 237.93 83.3365 234.25 76.9788C226.992 64.2576 216.884 53.1346 204.746 44.9422L204.757 44.8672V44.8384Z" fill="#3B2C7D"/>
<path d="M96.9507 161.336C96.9507 161.515 96.9564 161.7 96.9795 161.884C96.9853 161.954 97.0314 162.006 97.0372 162.069C97.0718 162.3 97.0834 162.554 97.1295 162.802C97.1526 162.911 97.216 162.998 97.268 163.09C97.3372 163.206 97.4295 163.304 97.418 163.483C97.418 163.54 97.2564 163.644 97.0718 163.725C96.8872 163.806 96.6622 163.869 96.5814 163.811C96.2872 163.621 96.143 163.315 96.1084 162.975C96.091 162.773 95.9814 162.606 95.9237 162.415C95.8718 162.208 95.8372 161.988 95.8084 161.781C95.791 161.648 95.7795 161.515 95.768 161.388C95.7507 161.192 95.7564 160.99 95.716 160.8C95.6814 160.656 95.6122 160.511 95.5718 160.361C95.5603 160.327 95.5487 160.298 95.543 160.263C95.543 160.136 95.6122 160.096 95.866 160.061L96.0391 160.038C96.2353 160.021 96.3968 160.067 96.4776 160.136C96.7141 160.361 96.8468 160.575 96.8814 160.806C96.9218 160.979 96.9449 161.146 96.9737 161.325H96.9449L96.9507 161.336Z" fill="#3B2C7D"/>
<path d="M224.602 249.71L218.787 240.606C218.077 239.498 217.299 238.442 216.595 237.335L209.21 225.571C208.114 223.835 206.943 222.133 205.783 220.46C205.033 219.387 204.301 218.302 203.579 217.206L203.049 216.375L202.576 215.51C202.264 214.927 201.964 214.338 201.676 213.744C201.324 213 201.658 212.902 202.402 213.231C202.777 213.392 203.262 213.658 203.793 214.01C204.058 214.188 204.335 214.385 204.618 214.61C204.762 214.719 204.889 214.846 205.039 214.962C205.154 215.1 205.281 215.238 205.397 215.388C206.21 216.45 207.035 217.506 207.826 218.59C208.587 219.687 209.343 220.794 210.081 221.908C211.564 224.14 213.018 226.396 214.374 228.727C215.995 231.525 217.985 234.225 219.791 236.983L225.716 246.11C226.933 247.985 228.145 249.854 229.362 251.729C231.22 254.55 233.049 257.412 234.97 260.163C236.452 262.31 238.085 264.288 239.568 266.4C239.897 266.862 240.249 267.294 240.537 267.79C241.085 268.702 241.426 269.313 241.564 269.815C241.616 270.075 241.645 270.294 241.633 270.49C241.645 270.675 241.622 270.848 241.581 271.01C241.547 271.16 241.535 271.333 241.489 271.437C241.408 271.615 241.195 271.563 240.82 271.35C240.635 271.24 240.404 271.102 240.139 270.923C239.862 270.756 239.631 270.49 239.354 270.213C236.066 266.879 233.36 262.84 230.591 258.825C228.549 255.831 226.558 252.785 224.545 249.762L224.602 249.715V249.71Z" fill="#3B2C7D"/>
<path d="M221.214 252.652L215.78 244.339C215.116 243.329 214.389 242.36 213.737 241.35L206.837 230.596C205.816 229.004 204.737 227.446 203.659 225.906C202.966 224.919 202.286 223.921 201.622 222.917L201.132 222.156L200.693 221.36C200.405 220.829 200.122 220.292 199.851 219.75C199.516 219.069 199.805 218.994 200.468 219.312C200.797 219.467 201.23 219.721 201.709 220.056C201.945 220.223 202.199 220.414 202.447 220.621C202.568 220.731 202.695 220.84 202.822 220.95C202.932 221.077 203.041 221.204 203.145 221.342C203.889 222.323 204.645 223.292 205.372 224.285L207.461 227.325C208.834 229.367 210.184 231.433 211.459 233.562C212.976 236.112 214.822 238.587 216.512 241.108L222.051 249.444C223.187 251.158 224.318 252.871 225.455 254.579C227.186 257.164 228.893 259.777 230.664 262.304C232.037 264.271 233.532 266.1 234.899 268.039C235.205 268.465 235.522 268.864 235.793 269.319C236.301 270.156 236.618 270.715 236.757 271.165C236.861 271.639 236.866 271.95 236.814 272.239C236.791 272.371 236.786 272.527 236.751 272.619C236.687 272.775 236.497 272.723 236.162 272.521C236.001 272.417 235.793 272.285 235.551 272.117C235.303 271.956 235.095 271.714 234.841 271.454C231.864 268.356 229.361 264.658 226.799 260.977C224.907 258.237 223.049 255.45 221.174 252.687L221.22 252.646L221.214 252.652Z" fill="#3B2C7D"/>
<path d="M137.592 107.763C137.529 107.613 137.592 107.763 137.609 107.833C137.632 107.908 137.655 107.988 137.679 108.063C137.725 108.242 137.759 108.421 137.788 108.6C137.805 108.709 137.788 108.583 137.788 108.565C137.794 108.611 137.8 108.652 137.805 108.698C137.817 108.802 137.829 108.906 137.834 109.009C137.852 109.206 137.857 109.402 137.863 109.604C137.886 110.359 137.857 111.115 137.886 111.871C137.915 112.627 137.996 113.365 138.342 114.029C138.688 114.692 139.294 115.061 139.986 115.206C142.779 115.806 144.48 112.823 145.392 110.671C145.819 109.656 146.182 108.611 146.454 107.538C146.748 106.367 144.942 105.871 144.648 107.042C144.44 107.856 144.18 108.652 143.886 109.436C143.84 109.558 143.794 109.679 143.742 109.794C143.713 109.863 143.69 109.927 143.661 109.996C143.754 109.777 143.661 110.002 143.644 110.042C143.523 110.313 143.402 110.579 143.263 110.844C142.998 111.363 142.698 111.859 142.352 112.333C142.496 112.136 142.277 112.419 142.242 112.465C142.155 112.569 142.063 112.667 141.971 112.759C141.879 112.852 141.786 112.938 141.688 113.019C141.659 113.048 141.625 113.071 141.59 113.1C141.798 112.927 141.579 113.1 141.532 113.134C141.434 113.198 141.325 113.25 141.221 113.313C141.054 113.423 141.423 113.256 141.232 113.313C141.198 113.325 141.157 113.342 141.123 113.354C141.013 113.388 140.904 113.411 140.788 113.434C141.054 113.377 140.886 113.423 140.805 113.423C140.725 113.423 140.65 113.423 140.569 113.423C140.54 113.423 140.35 113.394 140.511 113.423C140.673 113.452 140.477 113.411 140.454 113.406C140.327 113.371 140.2 113.336 140.079 113.29C140.309 113.383 140.125 113.313 140.079 113.279C139.911 113.152 140.246 113.417 140.084 113.284C140.055 113.261 140.032 113.227 140.004 113.204C140.182 113.359 140.038 113.233 139.98 113.152C139.946 113.1 139.882 112.915 139.969 113.152C139.946 113.088 139.923 113.031 139.905 112.967C139.865 112.846 139.842 112.719 139.813 112.592C139.802 112.529 139.79 112.471 139.784 112.408C139.819 112.65 139.784 112.384 139.784 112.344C139.767 112.148 139.755 111.958 139.75 111.761C139.692 110.1 139.877 108.404 139.202 106.84C139 106.373 138.319 106.269 137.921 106.506C137.442 106.788 137.384 107.319 137.586 107.786L137.592 107.763Z" fill="#3B2C7D"/>
<path d="M136.315 133.339C136.493 133.056 136.522 133.004 136.759 132.756C136.995 132.508 137.013 132.491 137.284 132.346C137.33 132.323 137.48 132.271 137.359 132.312C137.417 132.294 137.48 132.277 137.538 132.26C137.555 132.26 137.682 132.231 137.595 132.243C137.688 132.225 137.786 132.219 137.884 132.214C138.178 132.191 138.472 132.179 138.772 132.202C138.83 132.202 138.888 132.214 138.945 132.219C139.095 132.231 138.801 132.196 138.945 132.219C139.067 132.237 139.182 132.26 139.303 132.289C139.54 132.341 139.77 132.416 140.001 132.491C140.572 132.675 141.132 132.871 141.715 133.021C142.205 133.148 142.73 132.86 142.868 132.369C143.007 131.879 142.707 131.348 142.217 131.216C140.982 130.887 139.805 130.344 138.507 130.321C137.745 130.31 136.938 130.385 136.268 130.777C135.611 131.158 135.115 131.758 134.711 132.393C134.44 132.819 134.618 133.425 135.045 133.673C135.495 133.939 136.055 133.766 136.326 133.339H136.315Z" fill="#3B2C7D"/>
<path d="M139.396 98.7805C139.926 98.4863 140.463 98.2036 141.005 97.9382C141.259 97.8171 141.519 97.6959 141.772 97.5805C141.882 97.5286 141.992 97.4825 142.107 97.4305C142.182 97.3959 142.257 97.3671 142.332 97.3325C142.24 97.3671 142.263 97.3613 142.39 97.3094C143.474 96.8594 144.582 96.4728 145.707 96.1498C146.284 95.9825 146.705 95.3305 146.515 94.7305C146.324 94.1305 145.719 93.744 145.096 93.9228C142.713 94.6152 140.405 95.5786 138.236 96.7844C137.705 97.0786 137.492 97.8459 137.821 98.3651C138.167 98.9017 138.836 99.0921 139.401 98.7805H139.396Z" fill="#3B2C7D"/>
<path d="M133.281 98.4233C131.845 97.4829 130.408 96.5483 128.972 95.6079C128.464 95.2791 127.674 95.4868 127.391 96.0233C127.085 96.6002 127.264 97.2464 127.806 97.6041C129.243 98.5445 130.679 99.4791 132.116 100.419C132.624 100.748 133.414 100.541 133.697 100.004C134.002 99.4272 133.824 98.781 133.281 98.4233Z" fill="#3B2C7D"/>
<path d="M168.837 168.657C169.057 169.021 169.276 169.378 169.489 169.742C169.559 169.869 169.651 169.967 169.766 170.048C169.87 170.146 169.991 170.209 170.136 170.244C170.28 170.29 170.424 170.296 170.568 170.261C170.712 170.255 170.845 170.209 170.972 170.134L171.191 169.967C171.324 169.834 171.416 169.673 171.468 169.488L171.509 169.2C171.509 169.003 171.457 168.825 171.359 168.651C171.139 168.288 170.92 167.93 170.707 167.567C170.638 167.44 170.545 167.342 170.43 167.261C170.326 167.163 170.205 167.1 170.061 167.065C169.916 167.019 169.772 167.013 169.628 167.048C169.484 167.053 169.351 167.1 169.224 167.175L169.005 167.342C168.872 167.475 168.78 167.636 168.728 167.821L168.688 168.109C168.688 168.305 168.739 168.484 168.837 168.657Z" fill="#3B2C7D"/>
<path d="M167.874 168.64C167.845 168.259 167.851 167.919 167.99 167.446C168.122 167.019 168.359 166.638 168.67 166.361C168.895 166.165 169.144 165.969 169.444 165.911C169.974 165.779 170.511 166.05 170.892 166.396C170.978 166.511 171.07 166.604 171.145 166.707C171.232 166.806 171.272 166.944 171.347 167.042C171.451 167.261 171.503 167.388 171.567 167.544C171.676 167.804 171.809 168.057 171.947 168.3C172.126 168.611 172.322 168.911 172.403 169.281C172.426 169.396 172.27 169.477 172.057 169.5C171.844 169.523 171.555 169.5 171.399 169.35C171.134 169.084 170.874 168.813 170.644 168.531C170.528 168.392 170.43 168.225 170.344 168.081C170.315 168.023 170.24 167.919 170.263 167.913C170.269 167.89 170.274 167.856 170.274 167.821C170.263 167.619 170.067 167.579 169.934 167.636C169.853 167.654 169.778 167.711 169.715 167.786C169.686 167.821 169.657 167.867 169.634 167.913L169.605 167.982C169.594 168.023 169.594 168.063 169.588 168.104C169.57 168.311 169.588 168.536 169.669 168.744C169.79 169.061 170.009 169.356 170.332 169.477C170.586 169.581 170.874 169.477 171.094 169.413C171.145 169.402 171.192 169.373 171.238 169.367C171.284 169.367 171.319 169.361 171.359 169.367C171.399 169.39 171.44 169.436 171.474 169.482C171.555 169.575 171.624 169.69 171.722 169.852L171.849 170.059C171.97 170.267 171.965 170.573 171.734 170.879C170.961 171.525 169.744 171.34 168.913 170.648C168.29 170.129 167.938 169.402 167.828 168.646L167.869 168.634L167.874 168.64Z" fill="#3B2C7D"/>
<path d="M172.416 176.469C172.71 176.827 173.004 177.19 173.293 177.548C173.391 177.652 173.506 177.727 173.639 177.773C173.766 177.842 173.904 177.871 174.054 177.865C174.204 177.865 174.343 177.842 174.469 177.773C174.602 177.727 174.718 177.658 174.816 177.548C175.006 177.34 175.144 177.069 175.133 176.781L175.093 176.492C175.041 176.308 174.948 176.152 174.816 176.014C174.521 175.656 174.227 175.292 173.939 174.935C173.841 174.831 173.725 174.756 173.593 174.71C173.466 174.64 173.327 174.612 173.177 174.617C173.027 174.617 172.889 174.64 172.762 174.71C172.629 174.756 172.514 174.825 172.416 174.935C172.225 175.142 172.087 175.414 172.098 175.702L172.139 175.99C172.191 176.175 172.283 176.331 172.416 176.469Z" fill="#3B2C7D"/>
<path d="M171.555 175.968C171.492 175.662 171.463 175.368 171.457 175.079C171.457 174.929 171.457 174.808 171.463 174.635C171.469 174.421 171.509 174.225 171.584 174.012C171.642 173.856 171.705 173.683 171.861 173.481C172.005 173.285 172.311 173.06 172.651 173.031C172.922 172.996 173.222 173.094 173.378 173.21C173.545 173.319 173.632 173.429 173.701 173.51L173.967 173.908C174.14 174.168 174.313 174.421 174.492 174.669C174.659 174.883 174.838 175.085 175.022 175.281C175.259 175.529 175.519 175.754 175.669 176.089C175.715 176.193 175.565 176.325 175.351 176.418C175.138 176.504 174.844 176.568 174.665 176.469C174.359 176.279 174.059 176.083 173.788 175.864C173.528 175.627 173.292 175.368 173.09 175.068C172.974 174.894 172.801 174.733 172.657 174.612C172.645 174.6 172.634 174.594 172.622 174.589H172.617C172.617 174.589 172.611 174.594 172.617 174.583L172.657 174.525C172.761 174.369 172.795 174.283 172.807 174.237C172.813 174.225 172.813 174.173 172.807 174.237C172.807 174.214 172.807 174.191 172.807 174.191C172.807 174.179 172.807 174.202 172.853 174.254C172.899 174.306 172.986 174.364 173.095 174.416L173.176 174.45C173.176 174.45 173.17 174.456 173.165 174.468C173.147 174.496 173.136 174.548 173.124 174.6C173.113 174.802 173.113 175.004 173.136 175.206C173.165 175.448 173.211 175.691 173.303 175.904C173.447 176.227 173.638 176.527 173.949 176.66C174.065 176.712 174.203 176.723 174.324 176.712C174.445 176.712 174.555 176.694 174.653 176.677C174.699 176.666 174.734 176.643 174.774 176.637C174.919 176.619 174.988 176.694 175.207 177.023L175.363 177.243C175.53 177.479 175.536 177.785 175.27 177.993C174.884 178.281 174.365 178.425 173.863 178.391C173.372 178.31 172.917 178.079 172.53 177.744C171.965 177.237 171.676 176.596 171.509 175.991L171.549 175.979L171.555 175.968Z" fill="#3B2C7D"/>
<path d="M117.757 115.904C121.692 110.74 117.492 102.64 115.848 102.398C115.848 102.398 132.365 105.392 133.207 106.223C134.044 107.054 134.978 110.879 133.207 112.742C131.436 114.606 130.219 114.848 130.219 114.848L117.757 115.904Z" fill="#3B2C7D"/>
<path d="M116.342 114.791C119.792 108.225 114.358 101.914 114.358 101.914C114.358 101.914 106.379 100.489 104.371 101.406C104.371 101.406 107.244 104.285 107.613 106.644C107.983 109.004 107.769 114.277 105.104 116.285C105.104 116.285 111.006 116.527 112.298 116.412C112.967 116.354 113.89 116.239 114.629 116.141C115.402 116.037 115.979 115.483 116.342 114.791Z" fill="#3B2C7D"/>
<path d="M131.314 104.423C131.7 104.533 132.081 104.648 132.479 104.787C132.675 104.85 132.877 104.931 133.096 105.018C133.183 105.058 133.396 105.139 133.529 105.243C133.685 105.335 133.817 105.445 133.95 105.566C134.158 105.848 134.325 106.241 134.377 106.402C134.458 106.616 134.521 106.823 134.585 107.037C134.7 107.458 134.798 107.885 134.856 108.318C134.971 109.183 134.989 110.083 134.793 110.96C134.596 111.918 134.204 112.858 133.604 113.637C133.316 113.96 133.05 114.3 132.71 114.554L132.225 114.958L131.7 115.287L131.394 115.477C131.268 115.541 131.146 115.679 130.979 115.65L130.281 115.679L129.162 115.725C127.668 115.8 126.167 115.921 124.667 116.031C123.335 116.129 122.002 116.273 120.681 116.423C118.985 116.62 117.289 116.775 115.541 116.666C114.941 116.596 115.096 116.475 115.517 116.291C115.95 116.106 116.735 115.696 117.698 115.489L118.979 115.246L119.619 115.125L120.266 115.039L122.856 114.716C124.587 114.502 126.335 114.37 128.1 114.312C128.631 114.289 129.162 114.26 129.698 114.231L130.512 114.185C130.587 114.179 130.61 114.196 130.65 114.168L130.869 114.023C131.689 113.493 132.369 112.8 132.785 111.975C133.206 111.173 133.368 110.245 133.327 109.298C133.321 108.825 133.229 108.352 133.125 107.879C133.062 107.648 132.998 107.412 132.918 107.193C132.883 107.077 132.831 106.973 132.791 106.87C132.762 106.806 132.75 106.76 132.716 106.708C132.635 106.621 132.566 106.593 132.294 106.495C131.008 106.045 129.566 105.716 128.169 105.398C126.029 104.925 123.871 104.464 121.725 104.089C120.058 103.789 118.391 103.627 116.729 103.368C116.366 103.31 116.002 103.27 115.633 103.195C114.277 102.895 113.885 102.6 113.677 102.168C113.631 102.064 113.562 101.96 113.544 101.873C113.475 101.573 114.081 101.435 115.102 101.446C116.614 101.504 118.137 101.712 119.677 101.96C121.218 102.208 122.775 102.502 124.339 102.808C126.658 103.275 128.971 103.777 131.319 104.395V104.435L131.314 104.423Z" fill="#3B2C7D"/>
<path d="M110.593 100.062C111.545 100.298 112.485 100.621 113.396 101.094C113.564 101.187 113.737 101.244 113.904 101.342C114.071 101.44 114.233 101.544 114.389 101.66C114.989 102.144 115.387 102.721 115.698 103.292C116.01 103.869 116.235 104.452 116.425 105.035C116.593 105.554 116.777 106.056 116.91 106.569C116.991 106.898 117.071 107.227 117.123 107.567C117.152 107.908 117.112 108.26 117.071 108.6C117.037 108.814 116.921 108.802 116.714 108.658C116.523 108.514 116.154 108.26 115.935 107.942C115.346 106.777 114.995 105.612 114.493 104.527C114.343 104.21 114.135 103.91 113.881 103.69C113.621 103.46 113.396 103.321 113.068 103.148C112.404 102.744 111.62 102.421 110.795 102.196C110.287 102.052 109.762 101.942 109.231 101.862C108.429 101.746 107.604 101.665 106.796 101.735C106.168 101.792 105.568 101.977 104.991 102.15C104.864 102.185 104.743 102.248 104.616 102.26C104.125 102.294 103.952 102.185 103.704 101.804C103.652 101.723 103.589 101.648 103.548 101.573C103.416 101.348 103.514 100.944 103.889 100.639C105.002 99.7962 106.37 99.6751 107.673 99.6809C108.654 99.6924 109.629 99.8251 110.598 100.021V100.073L110.593 100.062Z" fill="#3B2C7D"/>
<path d="M110.314 115.886C111.127 115.852 111.958 115.76 112.725 115.575C113.002 115.506 113.268 115.373 113.475 115.298C113.591 115.263 113.625 115.235 113.695 115.211C113.764 115.171 113.839 115.113 113.92 115.056C114.075 114.917 114.248 114.75 114.41 114.56C114.733 114.173 115.021 113.717 115.275 113.238C115.506 112.811 115.679 112.356 115.823 111.9C116.025 111.311 116.25 110.735 116.539 110.158C116.631 109.979 116.798 110.031 116.983 110.238C117.162 110.44 117.398 110.827 117.41 111.225C117.41 111.577 117.41 111.929 117.37 112.275C117.295 112.61 117.202 112.944 117.098 113.273C116.891 113.936 116.545 114.56 116.118 115.154C115.841 115.506 115.61 115.892 115.27 116.273C115.091 116.463 114.906 116.654 114.641 116.827C114.508 116.925 114.404 116.965 114.295 117.029C114.179 117.092 114.07 117.133 113.966 117.173C113.025 117.525 112.125 117.686 111.208 117.813C110.643 117.883 110.077 117.935 109.512 117.958C108.652 118.004 107.793 117.958 106.933 117.906C106.598 117.906 106.264 117.877 105.923 117.888C105.583 117.865 105.237 117.871 104.885 117.813C104.729 117.79 104.579 117.761 104.429 117.715C104.158 117.623 103.991 117.502 103.916 117.34C103.864 117.127 103.87 116.936 103.916 116.711C103.939 116.608 103.95 116.51 103.973 116.423C104.02 116.279 104.118 116.169 104.273 116.054C104.348 115.996 104.441 115.933 104.539 115.863C104.643 115.783 104.718 115.8 104.81 115.783C105.352 115.725 105.837 115.742 106.339 115.783C106.846 115.806 107.36 115.858 107.891 115.869C108.675 115.898 109.495 115.91 110.308 115.835V115.886H110.314Z" fill="#3B2C7D"/>
<path d="M103.3 114.058C103.473 114.375 103.663 114.687 103.883 114.946C103.992 115.073 104.108 115.2 104.223 115.298C104.298 115.367 104.292 115.367 104.304 115.379C104.315 115.391 104.327 115.402 104.344 115.419C104.373 115.442 104.413 115.466 104.448 115.454C104.5 115.431 104.483 115.466 104.638 115.362C104.915 115.206 105.14 114.964 105.371 114.721C105.688 114.341 105.884 113.85 106.109 113.36C106.877 111.594 107.004 109.391 106.663 107.331C106.513 106.414 106.248 105.496 105.844 104.689C105.279 103.673 104.742 102.646 103.75 102.064C103.438 101.896 103.461 101.804 103.848 101.717C103.946 101.689 104.061 101.671 104.2 101.671C104.338 101.671 104.506 101.66 104.673 101.694C105.025 101.735 105.434 101.873 105.769 102.139C106.075 102.364 106.352 102.617 106.6 102.889C106.738 103.016 106.831 103.171 106.929 103.321C107.027 103.471 107.125 103.621 107.211 103.777C107.569 104.394 107.846 105.035 108.059 105.698C108.515 107.008 108.625 108.404 108.567 109.771C108.463 111.398 108.377 113.146 107.569 114.767C107.113 115.639 106.415 116.441 105.509 116.977C105.238 117.127 104.904 117.289 104.586 117.346C104.252 117.392 103.923 117.266 103.634 117.098C103.484 117.023 103.352 116.908 103.213 116.816C103.092 116.706 103.011 116.637 102.919 116.544C102.74 116.366 102.579 116.181 102.434 115.991C101.702 115.056 101.24 113.994 100.946 112.904C100.502 111.242 100.525 109.517 100.756 107.885C100.923 106.61 101.177 105.364 101.604 104.164C101.702 103.898 101.771 103.633 101.886 103.379C102.088 102.894 102.308 102.617 102.492 102.444C102.683 102.271 102.861 102.208 103.081 102.202C103.184 102.202 103.288 102.179 103.375 102.202C103.669 102.254 103.709 102.739 103.542 103.448C103.271 104.492 102.977 105.519 102.781 106.564C102.544 107.596 102.394 108.646 102.371 109.685C102.336 111.219 102.619 112.766 103.334 114.041L103.294 114.064L103.3 114.058Z" fill="#3B2C7D"/>
<path d="M103.501 108.623C103.645 108.375 103.789 108.121 103.928 107.873C103.98 107.781 104.014 107.683 104.066 107.59C104.257 107.273 104.447 106.95 104.632 106.638C104.712 106.494 104.782 106.35 104.845 106.2C104.926 106.009 105.001 105.813 105.128 105.646C105.209 105.542 105.468 105.836 105.405 106.067C105.272 106.471 105.116 106.869 104.891 107.238C104.759 107.458 104.672 107.711 104.557 107.948C104.43 108.202 104.297 108.461 104.17 108.721C104.089 108.883 104.009 109.038 103.934 109.194C103.818 109.436 103.691 109.673 103.593 109.921C103.518 110.111 103.484 110.319 103.432 110.521C103.42 110.567 103.403 110.608 103.38 110.648C103.293 110.792 103.218 110.821 103.057 110.786C103.022 110.781 102.982 110.775 102.947 110.763C102.832 110.729 102.762 110.625 102.751 110.486C102.722 110.273 102.768 110.088 102.837 109.909C102.901 109.731 102.982 109.552 103.062 109.379C103.189 109.119 103.328 108.865 103.461 108.611H103.478L103.501 108.623Z" fill="#3B2C7D"/>
<path d="M104.236 110.319C104.351 110.135 104.472 109.944 104.588 109.76C104.628 109.691 104.651 109.616 104.691 109.546C104.841 109.31 105.003 109.073 105.141 108.831C105.211 108.727 105.263 108.612 105.314 108.502C105.378 108.358 105.43 108.208 105.551 108.087C105.62 108.006 105.914 108.271 105.891 108.462C105.822 108.785 105.747 109.102 105.528 109.362C105.407 109.523 105.361 109.719 105.274 109.904C105.176 110.1 105.078 110.296 104.98 110.492C104.916 110.614 104.859 110.735 104.795 110.856C104.709 111.041 104.599 111.219 104.524 111.404C104.461 111.548 104.461 111.716 104.391 111.854C104.38 111.883 104.368 111.917 104.351 111.946C104.288 112.056 104.224 112.073 104.08 112.044L103.982 112.021C103.878 111.992 103.809 111.906 103.791 111.796C103.78 111.641 103.734 111.467 103.774 111.323C103.803 111.179 103.849 111.041 103.901 110.896C103.964 110.689 104.103 110.504 104.207 110.314H104.224L104.236 110.319Z" fill="#3B2C7D"/>
<path d="M120.719 39.946C116.035 41.5441 111.489 43.5748 107.116 45.9229C102.742 48.271 98.5309 50.9364 94.5328 53.896C93.102 55.0094 91.6424 56.0941 90.2867 57.2998C89.6001 57.8941 88.902 58.471 88.227 59.071L86.2309 60.9114C76.7982 69.5306 69.3617 80.3191 64.7578 92.2787C62.7155 97.5864 61.3194 103.165 60.5059 108.744L60.1597 111.438C60.027 112.333 59.9982 113.244 59.9117 114.144C59.727 115.95 59.704 117.767 59.6232 119.579C59.5828 120.484 59.6174 121.39 59.6059 122.296C59.6059 123.202 59.5828 124.108 59.629 125.013C59.6636 125.919 59.6751 126.825 59.6809 127.731C59.6982 128.636 59.7732 129.542 59.779 130.448C59.7905 132.715 59.3117 132.479 58.5386 130.604C58.1578 129.663 57.6905 128.313 57.3847 126.64C57.2232 125.804 57.0905 124.892 56.9867 123.923C56.9174 122.948 56.8828 121.915 56.8828 120.842C57.0559 105.623 61.2559 90.3344 69.5463 77.4171C72.0213 73.5633 74.7617 69.7844 77.802 66.2075C80.8655 62.6594 84.2117 59.3306 87.7424 56.2844C91.6251 52.9383 95.7732 49.8921 100.123 47.1864C104.473 44.4748 109.014 42.0806 113.716 40.0441C119.508 37.5517 125.548 35.6191 131.733 34.396C132.316 34.2806 132.904 34.1479 133.487 34.0498L135.252 33.7729C136.429 33.5941 137.6 33.3806 138.789 33.2537L142.337 32.8325L145.896 32.5325C150.65 32.2152 155.41 32.1806 160.135 32.4806C161.052 32.5441 161.969 32.6075 162.881 32.671C163.792 32.7691 164.698 32.8729 165.61 32.971C166.066 33.0229 166.516 33.0633 166.971 33.1267L168.321 33.3344C169.221 33.4787 170.127 33.5883 171.021 33.7556C174.604 34.4017 178.141 35.2787 181.631 36.3748C182.392 36.6402 183.142 36.8998 183.898 37.1594C184.654 37.4191 185.41 37.6787 186.154 38.0075C188.952 39.1267 190.7 40.0902 191.9 40.7941C193.071 41.5614 193.666 42.1383 194.064 42.7383C194.242 43.0094 194.508 43.3267 194.583 43.5344C194.704 43.8921 194.185 43.8691 193.152 43.5344C192.633 43.3671 191.992 43.1133 191.242 42.7844C190.487 42.4671 189.598 42.121 188.617 41.6825C188.254 41.5267 187.896 41.3537 187.527 41.2094L186.414 40.7767C185.669 40.4883 184.925 40.1998 184.175 39.9114C183.414 39.6517 182.652 39.3979 181.891 39.1383C181.51 39.0114 181.129 38.8729 180.742 38.7517L179.577 38.4114C178.798 38.1864 178.019 37.9614 177.241 37.7306C176.45 37.5344 175.66 37.3383 174.864 37.1479C174.466 37.0498 174.073 36.946 173.675 36.8594L172.469 36.6171C171.667 36.4556 170.86 36.2941 170.052 36.1325C163.562 35.0191 156.864 34.5402 150.154 34.7883C145.169 34.9383 140.179 35.4806 135.229 36.2941C130.291 37.0902 125.462 38.3133 120.748 39.9748L120.714 39.9229L120.719 39.946Z" fill="#3B2C7D"/>
<path d="M83.6867 96.196C83.8021 96.3518 83.5828 96.4672 83.1617 96.5883C83.029 96.6287 82.6194 96.6287 82.5617 96.5768C82.4521 96.4845 82.3425 96.3864 82.2675 96.2883C82.2098 96.2306 82.0771 95.2672 82.0425 94.9383C82.0021 94.621 82.0309 94.3095 82.0828 94.0037C82.1809 93.3806 82.2905 92.7749 82.429 92.1749C82.4578 92.0422 82.5098 91.9153 82.579 91.7883C82.8155 91.3672 82.9425 90.923 83.0348 90.473C83.0521 90.398 83.0809 90.323 83.0463 90.2364C82.9771 90.0922 83.3405 88.8922 83.4386 88.7595C83.6752 88.4133 83.8655 88.0614 84.079 87.7095C84.1078 87.6576 84.1078 87.5941 84.1944 87.571C84.3963 87.5076 84.4078 87.3864 84.454 87.271C84.5232 87.1153 84.604 86.9653 84.7078 86.821C84.7598 86.7518 84.8809 86.6999 84.979 86.648C85.0713 86.6018 85.3021 86.7172 85.3194 86.7518C85.3713 86.8499 85.504 86.8268 85.6078 86.8556C85.6425 86.8672 85.6886 86.8787 85.7117 86.8903C85.7694 86.9191 85.8905 87.9806 85.8559 88.0787C85.8559 88.0903 85.7809 88.4422 85.7002 88.8114C85.6252 89.1806 85.5559 89.5672 85.5444 89.6479C85.5386 89.7345 85.4752 89.7979 85.429 89.8729C85.4059 89.9076 85.2386 91.021 85.2213 91.0614C85.1463 91.2749 85.1463 91.5172 84.9386 91.696C84.8982 91.7306 84.8982 91.7768 84.8867 91.823C84.8117 92.2095 84.6675 92.5787 84.5463 92.9479C84.4886 93.1383 84.4655 93.3403 84.4251 93.5306C84.4194 93.5653 84.3905 93.5941 84.3732 93.6287C84.3501 93.6691 84.3213 93.7095 84.3155 93.7556C84.2463 94.2172 84.0963 94.6672 84.1136 95.1345C84.1194 95.2383 83.8828 95.7229 83.9117 95.8499C83.9232 95.9191 83.629 96.1268 83.6809 96.1903L83.6867 96.196Z" fill="#3B2C7D"/>
<path d="M80.5169 98.5501C80.6727 98.6078 80.5169 98.7866 80.1592 99.0289C80.0438 99.1039 79.6688 99.2597 79.5996 99.2539C79.4727 99.2424 79.3515 99.2308 79.2534 99.2078C79.2015 99.1905 78.7861 98.7578 78.6246 98.6366C78.4688 98.5155 78.3765 98.3654 78.2784 98.2097C78.0938 97.8981 77.863 97.6097 77.6438 97.327C77.5919 97.2635 77.5573 97.1885 77.5342 97.102C77.4534 96.8078 77.2688 96.5885 77.0496 96.4097C77.015 96.3808 76.9861 96.3404 76.9111 96.352C76.7957 96.3635 76.2303 95.8558 76.1784 95.7578C76.063 95.5039 75.913 95.2905 75.7573 95.0597C75.7342 95.0251 75.6938 95.0251 75.7053 94.9443C75.74 94.7597 75.6592 94.7366 75.6015 94.6789C75.5207 94.5981 75.44 94.5116 75.3765 94.402C75.3476 94.3501 75.3534 94.2347 75.3477 94.1366C75.3477 94.0501 75.5034 93.8481 75.538 93.8366C75.6246 93.7962 75.6534 93.6751 75.7111 93.5828C75.7284 93.5539 75.7515 93.5135 75.7688 93.4905C75.8034 93.4328 76.6342 93.4558 76.7034 93.5135C76.7092 93.5135 76.9457 93.6462 77.1938 93.7847C77.4361 93.9231 77.69 94.0731 77.7534 94.1078C77.8111 94.1366 77.8342 94.2058 77.8688 94.2635C77.8861 94.2808 78.6188 94.7597 78.6419 94.7943C78.7573 94.9328 78.9303 95.0251 78.9419 95.2558C78.9419 95.302 78.9707 95.3251 78.9996 95.3481C79.2303 95.5616 79.3803 95.8385 79.5361 96.1039C79.6111 96.2424 79.7265 96.352 79.8188 96.4847C79.8361 96.5078 79.8303 96.5424 79.8361 96.577C79.8477 96.6116 79.8477 96.6578 79.8707 96.6808C80.0957 96.9751 80.2111 97.3385 80.4534 97.627C80.5169 97.6904 80.5227 98.1404 80.5919 98.2097C80.6323 98.2501 80.4477 98.527 80.5111 98.5501H80.5169Z" fill="#3B2C7D"/>
<path d="M78.8317 100.852C78.9932 100.8 79.0509 101.008 79.0394 101.371C79.0394 101.487 78.924 101.81 78.8721 101.844C78.7682 101.908 78.6701 101.971 78.5778 102.012C78.5201 102.035 77.7644 101.966 77.499 101.96C77.2451 101.954 77.0086 101.896 76.7721 101.833C76.2932 101.7 75.8086 101.591 75.324 101.475C75.2144 101.452 75.1163 101.406 75.0124 101.354C74.6721 101.164 74.3028 101.071 73.9221 101.019C73.8586 101.008 73.8009 100.991 73.7259 101.025C73.6105 101.083 72.6067 100.887 72.4798 100.823C72.174 100.662 71.8567 100.546 71.5451 100.414C71.499 100.396 71.4471 100.408 71.4124 100.339C71.3374 100.183 71.2278 100.189 71.1298 100.16C70.9913 100.119 70.8528 100.079 70.7201 100.01C70.6509 99.9752 70.5932 99.8829 70.5355 99.8137C70.4836 99.7445 70.5471 99.5425 70.5701 99.5195C70.6451 99.4618 70.6048 99.3579 70.6105 99.2656C70.6105 99.2368 70.6105 99.1964 70.6221 99.1733C70.6336 99.1214 71.5221 98.8791 71.6144 98.8964C71.6374 98.8964 72.8548 98.9772 73.0163 98.9887C73.0913 98.9887 73.1548 99.0349 73.224 99.0695C73.2701 99.0695 74.2509 99.1618 74.2855 99.1675C74.4817 99.2252 74.6951 99.2137 74.8682 99.381C74.9028 99.4156 74.9432 99.4156 74.9836 99.4214C75.3298 99.4791 75.6644 99.606 75.9932 99.7156C76.1663 99.7733 76.3394 99.8022 76.5182 99.8425C76.5471 99.8483 76.5759 99.8772 76.6048 99.8945C76.6394 99.9175 76.674 99.9406 76.7144 99.9522C77.1298 100.044 77.5221 100.223 77.9432 100.281C78.0413 100.293 78.4451 100.575 78.5548 100.587C78.6182 100.593 78.7451 100.875 78.8086 100.852H78.8317Z" fill="#3B2C7D"/>
<path d="M147.792 170.804C147.976 170.469 148.167 170.146 148.369 169.823C148.547 169.552 148.749 169.298 148.928 169.027C148.899 169.067 148.784 169.212 148.882 169.09C148.905 169.062 148.928 169.033 148.951 168.998C148.997 168.94 149.049 168.877 149.095 168.819C149.194 168.698 149.297 168.577 149.401 168.462C149.644 168.185 149.892 167.914 150.14 167.637C150.469 167.273 150.526 166.667 150.14 166.31C149.782 165.981 149.165 165.923 148.813 166.31C148.305 166.875 147.797 167.44 147.336 168.04C146.897 168.612 146.517 169.217 146.17 169.852C145.934 170.285 146.049 170.896 146.505 171.133C146.961 171.369 147.538 171.254 147.786 170.798L147.792 170.804Z" fill="#3B2C7D"/>
<path d="M137.283 182.29C138.16 183.335 139.043 184.379 139.92 185.423C140.076 185.613 140.399 185.717 140.635 185.717C140.872 185.717 141.177 185.608 141.351 185.423C141.524 185.238 141.656 184.979 141.645 184.708C141.633 184.437 141.529 184.206 141.351 183.992C140.474 182.948 139.591 181.904 138.714 180.86C138.558 180.669 138.235 180.565 137.999 180.565C137.762 180.565 137.456 180.675 137.283 180.86C137.11 181.044 136.977 181.304 136.989 181.575C137.001 181.846 137.104 182.077 137.283 182.29Z" fill="#3B2C7D"/>
<path d="M159.67 188.008C160.466 188.66 161.262 189.312 162.064 189.958C162.278 190.131 162.491 190.252 162.78 190.252C163.028 190.252 163.322 190.142 163.495 189.958C163.668 189.773 163.801 189.513 163.789 189.242C163.778 188.988 163.697 188.694 163.495 188.527C162.699 187.875 161.903 187.223 161.101 186.577C160.887 186.404 160.674 186.283 160.385 186.283C160.137 186.283 159.843 186.392 159.67 186.577C159.497 186.762 159.364 187.021 159.376 187.292C159.387 187.546 159.468 187.84 159.67 188.008Z" fill="#3B2C7D"/>
<path d="M195.35 159.133C196.198 158.152 196.954 157.09 197.571 155.959C197.825 155.498 197.698 154.84 197.208 154.581C196.717 154.321 196.094 154.448 195.829 154.944C195.402 155.723 194.923 156.461 194.381 157.16L194.537 156.958C194.34 157.211 194.133 157.465 193.919 157.713C193.74 157.915 193.625 158.152 193.625 158.429C193.625 158.677 193.735 158.971 193.919 159.144C194.3 159.49 194.975 159.571 195.344 159.144L195.35 159.133Z" fill="#3B2C7D"/>
<path d="M193.297 171.329C194.342 172.379 195.513 173.302 196.771 174.081C197.221 174.358 197.901 174.19 198.149 173.717C198.397 173.244 198.265 172.633 197.786 172.339C197.267 172.015 196.765 171.669 196.286 171.3L196.488 171.456C195.865 170.977 195.276 170.458 194.722 169.898C194.347 169.523 193.661 169.494 193.297 169.898C192.934 170.302 192.899 170.925 193.297 171.323V171.329Z" fill="#3B2C7D"/>
<path d="M183.927 188.925C184.106 188.59 184.314 188.267 184.544 187.967L184.389 188.169C184.735 187.725 185.133 187.327 185.577 186.975L185.375 187.131C185.491 187.044 185.606 186.958 185.727 186.877C185.946 186.727 186.119 186.536 186.189 186.271C186.258 186.029 186.223 185.706 186.085 185.492C185.946 185.279 185.739 185.088 185.479 185.031C185.219 184.973 184.925 184.979 184.7 185.135C183.656 185.844 182.773 186.779 182.179 187.898C182.052 188.135 182.006 188.411 182.075 188.677C182.139 188.913 182.323 189.167 182.537 189.283C183.004 189.531 183.656 189.421 183.916 188.919L183.927 188.925Z" fill="#3B2C7D"/>
<path d="M199.374 192.231C200.747 193.004 202.235 193.465 203.799 193.661C204.035 193.69 204.353 193.529 204.514 193.367C204.687 193.194 204.82 192.906 204.808 192.652C204.797 192.398 204.71 192.121 204.514 191.936C204.301 191.74 204.082 191.677 203.799 191.642C203.683 191.631 203.707 191.631 203.857 191.648C203.81 191.642 203.764 191.636 203.718 191.625C203.649 191.613 203.58 191.602 203.51 191.59C203.349 191.561 203.187 191.527 203.026 191.492C202.697 191.417 202.368 191.325 202.045 191.221C201.889 191.169 201.733 191.117 201.583 191.054C201.508 191.025 201.433 190.996 201.353 190.961C201.162 190.886 201.543 191.048 201.301 190.938C200.989 190.8 200.689 190.644 200.389 190.477C199.928 190.217 199.264 190.35 199.01 190.84C198.757 191.331 198.883 191.942 199.374 192.219V192.231Z" fill="#3B2C7D"/>
<path d="M217.408 167.336C218.769 168.011 220.131 168.692 221.498 169.367C221.971 169.604 222.612 169.511 222.877 169.004C223.119 168.548 223.021 167.873 222.514 167.625C221.152 166.95 219.791 166.269 218.423 165.594C217.95 165.358 217.31 165.45 217.044 165.958C216.802 166.413 216.9 167.088 217.408 167.336Z" fill="#3B2C7D"/>
</svg>
