<svg width="300" height="300" viewBox="0 0 300 300" fill="none" xmlns="http://www.w3.org/2000/svg">
<path opacity="0.3" d="M263.083 188.723C263.083 188.723 268.979 190.333 272.019 195.952C275.06 201.571 266.758 221.348 259.015 228.687C251.902 235.419 247.5 235.996 247.5 235.996C247.5 235.996 240.392 231.658 239.971 228.017C239.55 224.377 241.165 231.906 249.479 222.606C257.792 213.3 263.083 198.704 263.083 193.714V188.729V188.723Z" fill="#3B2C7D"/>
<path d="M282.589 210.664C281.482 208.956 280.316 207.277 279.099 205.633C278.661 205.027 278.182 204.456 277.737 203.862C276.186 201.739 274.547 199.679 272.787 197.723C272.02 196.846 271.172 196.033 270.341 195.231C269.782 194.746 269.228 194.244 268.668 193.771L267.832 193.039C267.549 192.802 267.249 192.6 266.955 192.369C266.591 192.087 266.672 192.041 267.076 192.139C267.278 192.185 267.561 192.271 267.901 192.387C268.241 192.502 268.593 192.704 268.98 192.929C270.295 193.789 271.403 194.879 272.528 195.935C273.076 196.477 273.607 197.037 274.143 197.596C274.668 198.162 275.17 198.756 275.672 199.344C276.855 200.769 278.164 202.183 279.353 203.654C280.651 205.281 281.868 206.971 283.068 208.673C283.789 209.729 284.511 210.791 285.209 211.864C286.27 213.491 287.28 215.158 288.261 216.814C288.63 217.466 289.016 218.1 289.409 218.729L290.505 220.668C290.666 220.95 290.834 221.227 290.949 221.544C291.411 222.687 291.457 223.091 291.261 223.454C291.214 223.535 291.18 223.639 291.122 223.696C290.943 223.893 290.545 223.523 290.061 222.785C289.345 221.689 288.664 220.546 287.984 219.381C287.262 218.233 286.559 217.062 285.849 215.885C285.336 215.002 284.787 214.137 284.239 213.266C283.703 212.389 283.132 211.535 282.555 210.681L282.584 210.658L282.589 210.664Z" fill="#3B2C7D"/>
<path d="M222.933 184.736C222.933 184.736 224.56 185.388 225.483 186.854C226.1 187.84 219.391 187.777 219.391 187.777L222.933 184.736Z" fill="#3B2C7D"/>
<path d="M218.833 177.883C218.833 177.952 218.943 179.417 219.537 179.74C220.131 180.063 221.274 181.84 221.274 181.84L214.922 182.994C214.922 182.994 217.962 179.573 218.101 178.812C218.239 178.05 218.833 177.877 218.833 177.877V177.883Z" fill="#3B2C7D"/>
<path opacity="0.3" d="M176.181 130.852C170.291 130.852 165.52 135.623 165.52 141.514C165.52 147.404 170.291 152.169 176.181 152.169C182.071 152.169 186.837 147.398 186.837 141.514C186.837 135.629 182.066 130.852 176.181 130.852ZM176.181 147.087C173.36 147.087 171.07 144.796 171.07 141.975C171.07 139.154 173.36 136.869 176.181 136.869C179.002 136.869 181.287 139.154 181.287 141.975C181.287 144.796 179.002 147.087 176.181 147.087Z" fill="#3B2C7D"/>
<path d="M169.609 149.302C170.192 149.781 170.821 150.202 171.525 150.519C171.877 150.675 172.223 150.865 172.598 150.969C172.967 151.096 173.331 151.234 173.711 151.304C175.223 151.667 176.815 151.69 178.338 151.35C179.452 151.09 180.484 150.588 181.442 149.994C182.296 149.475 183.034 148.782 183.692 148.027C184.333 147.254 184.834 146.365 185.227 145.425C185.983 143.509 186.109 141.386 185.55 139.402C185.048 137.642 183.888 136.079 182.481 134.919C181.569 134.175 180.536 133.575 179.434 133.171C178.344 132.744 177.213 132.432 176.048 132.259C175.333 132.127 175.384 131.538 176.111 131.007C176.475 130.742 177.017 130.477 177.681 130.407C178.35 130.286 179.123 130.379 179.919 130.627C181.298 131.14 182.584 131.867 183.744 132.779C184.886 133.707 185.856 134.85 186.623 136.119C187.39 137.394 187.852 138.848 188.065 140.319L188.163 141.432C188.163 141.802 188.134 142.171 188.117 142.54C188.117 142.909 188.048 143.273 187.973 143.631C187.898 143.988 187.852 144.352 187.742 144.698C187.275 146.359 186.513 147.986 185.417 149.382C184.333 150.784 182.908 151.932 181.315 152.677C179.567 153.496 177.634 153.877 175.731 153.825C173.821 153.773 171.946 153.282 170.261 152.434C168.179 151.361 166.419 149.677 165.323 147.629C164.458 146.1 164.008 144.352 163.904 142.609C163.817 140.861 164.163 139.102 164.833 137.504C165.894 135.029 167.752 132.906 170.163 131.619C170.694 131.342 171.225 131.082 171.808 130.886C172.344 130.719 172.8 130.598 173.192 130.557C173.579 130.5 173.896 130.488 174.161 130.529C174.686 130.575 174.992 130.777 175.223 131.077C175.327 131.215 175.465 131.354 175.517 131.492C175.609 131.729 175.448 131.948 175.102 132.132C174.929 132.225 174.715 132.306 174.456 132.404C174.202 132.49 173.908 132.577 173.579 132.681C171.64 133.252 169.858 134.336 168.531 135.836C167.204 137.325 166.35 139.263 166.2 141.259C165.946 144.219 167.233 147.375 169.627 149.256L169.592 149.302H169.609Z" fill="#3B2C7D"/>
<path d="M177.549 138.017V125.221C177.549 123.456 174.809 123.456 174.809 125.221V138.017C174.809 139.783 177.549 139.783 177.549 138.017Z" fill="#3B2C7D"/>
<path d="M177.549 158.885V146.152C177.549 144.387 174.809 144.387 174.809 146.152V158.885C174.809 160.65 177.549 160.65 177.549 158.885Z" fill="#3B2C7D"/>
<path d="M150.195 143.348H172.447C174.212 143.348 174.212 140.608 172.447 140.608H150.195C148.43 140.608 148.43 143.348 150.195 143.348Z" fill="#3B2C7D"/>
<path d="M180.133 143.348H195.686C197.452 143.348 197.452 140.608 195.686 140.608H180.133C178.367 140.608 178.367 143.348 180.133 143.348Z" fill="#3B2C7D"/>
<path d="M177.549 112.881V101.55C177.549 99.7847 174.809 99.7847 174.809 101.55V112.881C174.809 114.646 177.549 114.646 177.549 112.881Z" fill="#3B2C7D"/>
<path d="M208.23 143.348H218.678C220.444 143.348 220.444 140.608 218.678 140.608H208.23C206.465 140.608 206.465 143.348 208.23 143.348Z" fill="#3B2C7D"/>
<path d="M174.348 170.348V182.492C174.348 184.258 177.088 184.258 177.088 182.492V170.348C177.088 168.583 174.348 168.583 174.348 170.348Z" fill="#3B2C7D"/>
<path opacity="0.3" d="M99.402 150.987C91.7346 161.21 81.2173 148.356 76.2846 134.198C73.0885 125.025 74.6923 116.527 75.8923 111.894C77.6346 105.162 85.8327 104.567 85.8327 104.567C85.8327 104.567 81.7827 118.419 86.9577 132.571C92.1327 146.729 99.402 150.987 99.402 150.987Z" fill="#3B2C7D"/>
<path d="M264.942 259.667C264.942 259.667 266.16 251.85 250.415 237.404C249.983 237.011 248.5 235.99 248.5 235.99L255.769 245.025L262.652 257.054L264.942 259.661V259.667Z" fill="#3B2C7D"/>
<path d="M203.141 177.185C203.141 177.185 214.541 170.804 218.1 175.477L216.687 175.852C216.687 175.852 207.629 176.331 207.456 176.833C207.283 177.335 203.146 177.185 203.146 177.185H203.141Z" fill="#3B2C7D"/>
<path d="M259.449 206.429C259.109 207.219 258.78 208.016 258.388 208.777C258.013 209.55 257.638 210.323 257.234 211.079C256.945 211.633 256.72 212.221 256.409 212.764C255.347 214.696 254.17 216.566 252.97 218.406C252.428 219.219 251.891 220.039 251.332 220.829C250.628 221.856 249.838 222.842 248.811 223.598C248.493 223.835 248.511 223.777 248.597 223.425C248.638 223.252 248.695 222.998 248.753 222.687C248.828 222.392 248.949 222.081 249.116 221.769C249.272 221.504 249.399 221.21 249.538 220.933C249.676 220.656 249.849 220.402 250.005 220.137C250.339 219.623 250.622 219.069 250.939 218.539C251.28 218.025 251.62 217.512 251.949 216.981C252.278 216.456 252.641 215.942 252.97 215.412C253.368 214.777 253.743 214.114 254.084 213.421C254.413 212.729 254.747 212.031 255.076 211.339L256.149 209.048L257.17 206.729C257.574 205.771 257.989 204.814 258.341 203.839C258.901 202.367 259.414 200.867 259.784 199.356C259.934 198.767 260.003 198.173 260.095 197.585C260.164 196.996 260.216 196.414 260.303 195.837C260.326 195.583 260.32 195.335 260.349 195.087C260.372 194.856 260.407 194.66 260.436 194.498C260.453 194.342 260.476 194.221 260.528 194.112C260.643 193.898 260.788 193.766 260.984 193.639C261.076 193.581 261.163 193.506 261.243 193.471C261.388 193.408 261.52 193.471 261.664 193.644C261.809 193.823 261.988 194.129 262.051 194.539C262.178 195.698 262.264 196.916 262.051 198.075C261.872 199.241 261.572 200.377 261.255 201.514C260.747 203.181 260.153 204.825 259.507 206.435L259.461 206.417L259.449 206.429Z" fill="#3B2C7D"/>
<path d="M259.298 193.465C259.096 192.981 261.266 187.823 262.05 188.856C264.445 192.006 261.785 198.069 261.785 198.069L259.298 193.465Z" fill="#3B2C7D"/>
<path d="M246.296 213.733C245.661 214.056 238.052 224.643 239.886 226.927C242.725 230.458 249.902 221.348 249.902 221.348L246.296 213.733Z" fill="#3B2C7D"/>
<path d="M156.715 101.936C156.715 101.936 162.461 101.723 163.557 102.45C164.653 103.183 163.557 104.342 163.557 104.342L158.019 103.136L156.715 101.931V101.936Z" fill="#3B2C7D"/>
<path d="M162.633 113.734C162.633 113.734 167.41 111.432 169.475 111.975C171.114 112.407 170.127 113.873 170.127 113.873L162.633 113.729V113.734Z" fill="#3B2C7D"/>
<path d="M86.5887 132.94C86.404 132.029 86.2079 131.123 86.0637 130.206C85.8963 129.294 85.7463 128.383 85.6079 127.465C85.4925 126.802 85.3483 126.138 85.2733 125.469C84.9733 123.104 84.8348 120.721 84.829 118.338C84.8002 117.283 84.8521 116.221 84.8521 115.171C84.8867 114.496 84.904 113.821 84.9848 113.146C85.031 112.812 85.1117 112.477 85.2156 112.154C85.331 111.831 85.4464 111.513 85.5675 111.185C85.7233 110.787 85.7521 110.85 85.8675 111.225C85.9252 111.41 86.0175 111.675 86.1387 111.992C86.1906 112.148 86.2713 112.321 86.3117 112.494C86.3463 112.667 86.3694 112.852 86.3694 113.037C86.3521 115.69 86.381 118.321 86.4271 121.027C86.4502 122.642 86.7733 124.304 87.0329 125.937C87.1887 126.831 87.3444 127.731 87.5175 128.625C87.7194 129.513 87.881 130.413 88.106 131.296C88.2387 131.844 88.3771 132.387 88.4925 132.94L88.9021 134.579C89.3233 136.229 89.8137 137.879 90.3444 139.488C90.7829 140.735 91.2848 141.923 91.781 143.123C91.8906 143.388 92.0002 143.642 92.0925 143.919C92.4387 144.935 92.479 145.292 92.381 145.587C92.3579 145.656 92.3464 145.737 92.3175 145.783C92.231 145.933 91.931 145.587 91.4867 144.912C91.3252 144.658 91.1637 144.41 90.9963 144.156C90.8348 143.896 90.7079 143.625 90.5637 143.36C90.2867 142.823 89.9867 142.281 89.7329 141.721C89.1963 140.608 88.6887 139.46 88.2271 138.294C87.9098 137.417 87.6214 136.529 87.3329 135.64C87.0675 134.74 86.7848 133.852 86.5425 132.946L86.5887 132.935V132.94Z" fill="#3B2C7D"/>
<path d="M92.9884 155.267C92.9884 155.267 56.7807 167.146 45.7327 183.213C45.7327 183.213 44.0884 185.469 44.6596 187.5C45.0519 188.884 48.8942 180.519 62.3423 172.24C75.7904 163.961 92.9884 155.267 92.9884 155.267Z" fill="#3B2C7D"/>
<path d="M47.6953 187.777C47.7126 188.735 45.6414 190.586 45.1338 197.117C44.5395 204.773 47.3318 210.231 47.3318 210.231L47.6953 187.777Z" fill="#3B2C7D"/>
<path d="M89.5269 110.983C88.8403 109.91 87.1269 103.5 85.8577 105.404C83.2269 109.35 84.1211 117 84.2077 116.81L89.5269 110.983Z" fill="#3B2C7D"/>
<path d="M90.5312 141.427C90.5312 141.427 96.6236 152.729 98.7928 151.829C101.337 150.773 96.1159 138.508 96.1159 138.508L90.5312 141.427Z" fill="#3B2C7D"/>
<path d="M154.478 160.598C154.974 159.681 155.349 158.464 155.47 157.368C155.603 156.248 155.511 155.083 155.245 153.923C154.714 151.598 153.532 149.331 152.182 147.156C150.832 144.969 149.28 142.858 147.745 140.683C146.978 139.587 146.228 138.468 145.541 137.256C144.866 136.044 144.22 134.741 143.978 133.148C143.92 132.866 143.914 132.56 143.914 132.254C143.897 131.954 143.943 131.637 143.995 131.325C144.093 130.702 144.347 130.079 144.682 129.543C145.391 128.458 146.28 127.783 147.197 127.212C149.043 126.098 150.987 125.487 152.92 125.014C156.341 124.212 159.768 123.866 163.178 123.606C166.593 123.364 169.997 123.248 173.389 123.156C176.782 123.064 180.168 123.012 183.537 122.873C185.222 122.804 186.901 122.706 188.568 122.591C190.23 122.464 191.897 122.279 193.455 121.898C194.136 121.725 194.816 121.506 195.336 121.189C195.595 121.039 195.82 120.843 195.918 120.687C196.016 120.537 196.068 120.346 196.016 120.168C195.97 119.885 195.445 119.389 194.863 119.066C194.28 118.719 193.611 118.437 192.93 118.189C190.184 117.208 187.236 116.643 184.322 116.164C180.566 115.569 176.753 115.2 172.945 114.912C169.137 114.629 165.312 114.462 161.534 114.444C160.362 114.456 159.855 114.398 159.861 114.219C159.872 114.046 160.426 113.752 161.436 113.458C163.449 112.835 167.245 112.339 171.705 112.598C175.651 112.823 179.586 113.21 183.514 113.798C185.476 114.098 187.437 114.45 189.393 114.9C191.355 115.373 193.305 115.881 195.278 116.833C195.774 117.081 196.27 117.364 196.778 117.762C197.032 117.958 197.286 118.2 197.528 118.5C197.793 118.829 198.041 119.296 198.134 119.746C198.232 120.214 198.197 120.693 198.059 121.143C197.909 121.575 197.626 122.037 197.366 122.302C196.824 122.885 196.253 123.191 195.711 123.45C194.632 123.941 193.599 124.189 192.578 124.402C191.557 124.61 190.553 124.754 189.549 124.869C188.545 124.985 187.547 125.083 186.555 125.141C185.557 125.193 184.564 125.233 183.572 125.262C181.587 125.319 179.609 125.348 177.636 125.366C172.911 125.418 168.105 125.521 163.316 125.896C160.922 126.087 158.534 126.346 156.197 126.75C153.866 127.166 151.541 127.696 149.505 128.631C148.951 128.891 148.414 129.173 147.941 129.514C147.462 129.843 147.036 130.235 146.741 130.61C146.476 131.014 146.257 131.423 146.222 131.919C146.182 132.41 146.211 132.946 146.378 133.506C146.672 134.619 147.255 135.756 147.912 136.858C148.57 137.96 149.314 139.044 150.064 140.129C151.564 142.304 153.174 144.45 154.57 146.781C155.961 149.1 157.207 151.621 157.662 154.437C157.951 156.15 157.847 158.008 157.334 159.669C157.086 160.506 156.757 161.337 156.266 162.127C156.018 162.525 155.724 162.912 155.332 163.252C154.945 163.593 154.455 163.887 153.901 164.019C153.347 164.158 152.77 164.118 152.262 163.979C151.766 163.829 151.316 163.616 150.924 163.362C150.128 162.854 149.505 162.231 148.928 161.591C147.768 160.316 146.862 158.879 145.98 157.506C143.355 153.369 140.389 149.423 136.939 145.962C135.209 144.243 133.386 142.61 131.424 141.179C129.462 139.748 127.386 138.491 125.211 137.464C121.83 135.854 118.207 134.879 114.555 134.602C110.897 134.325 107.222 134.764 103.72 135.808C103.334 135.929 102.953 136.05 102.572 136.166C102.191 136.293 101.822 136.448 101.447 136.587C100.691 136.852 99.9702 137.198 99.2202 137.516C96.4683 138.75 94.7952 139.846 93.5317 140.481C92.2856 141.144 91.4779 141.416 90.7683 141.583C90.4452 141.658 90.0529 141.802 89.8452 141.825C89.4933 141.86 89.776 141.444 90.5375 140.55C91.2875 139.644 92.6894 138.468 94.6798 137.233C97.6452 135.433 100.911 133.933 104.418 133.062C107.909 132.139 111.63 131.862 115.316 132.202C118.997 132.589 122.643 133.593 126.012 135.179C127.714 135.941 129.318 136.887 130.893 137.873C132.434 138.906 133.945 139.991 135.347 141.196C139.564 144.727 143.13 148.933 146.222 153.398C146.62 153.952 146.989 154.518 147.359 155.089L148.461 156.785C149.136 157.864 149.862 158.902 150.653 159.802C151.045 160.258 151.461 160.656 151.87 160.991C152.274 161.331 152.689 161.562 152.972 161.625C153.261 161.689 153.359 161.677 153.612 161.527C153.861 161.371 154.166 160.996 154.42 160.546L154.478 160.564V160.598Z" fill="#3B2C7D"/>
<path d="M166.068 106.31C165.831 106.142 165.601 105.963 165.341 105.825L164.954 105.6L164.545 105.41C164.014 105.144 163.374 104.919 162.779 104.717C162.335 104.573 161.879 104.498 161.429 104.377C159.849 103.944 158.17 103.737 156.468 103.575C155.712 103.512 154.945 103.506 154.195 103.512C153.71 103.529 153.226 103.517 152.735 103.494C152.493 103.477 152.251 103.477 152.002 103.419C151.76 103.356 151.518 103.287 151.27 103.217C150.964 103.119 151.004 102.969 151.264 102.715C151.391 102.588 151.576 102.427 151.795 102.26C151.904 102.179 152.026 102.081 152.152 102.017C152.279 101.965 152.412 101.925 152.556 101.908L153.306 101.815L153.681 101.769H154.056C154.558 101.752 155.06 101.758 155.562 101.769C156.566 101.804 157.581 101.867 158.602 102.063C159.814 102.283 161.118 102.34 162.364 102.652C163.051 102.819 163.72 103.027 164.377 103.263C164.701 103.373 165.035 103.512 165.37 103.656C165.704 103.783 166.027 103.962 166.345 104.129C167.124 104.567 167.868 105.087 168.497 105.738C169.495 106.685 170.17 107.931 170.631 109.188C170.972 110.175 171.272 111.167 171.404 112.194C171.439 112.419 171.462 112.644 171.451 112.869C171.439 113.29 171.376 113.567 171.237 113.752C171.116 113.937 170.92 114.029 170.654 114.092C170.533 114.121 170.424 114.162 170.314 114.173C169.979 114.213 169.587 113.856 169.449 113.308L169.287 112.708C169.235 112.506 169.166 112.315 169.137 112.119C169.102 111.923 169.051 111.733 169.004 111.542C168.964 111.352 168.918 111.162 168.86 110.977C168.768 110.602 168.647 110.244 168.52 109.898C168.439 109.731 168.404 109.546 168.335 109.373L168.127 108.865C167.672 107.89 167.014 106.973 166.039 106.344L166.062 106.304L166.068 106.31Z" fill="#3B2C7D"/>
<path d="M160.24 97.9906C159.548 97.2233 158.66 96.6636 157.61 96.254C157.223 96.104 156.808 96.0233 156.398 95.9021C154.962 95.4579 153.427 95.1579 151.887 94.9617C151.2 94.8752 150.502 94.8579 149.815 94.8348L148.489 94.8002C148.269 94.7829 148.044 94.7944 147.825 94.7367C147.606 94.6733 147.387 94.6098 147.162 94.5406C146.885 94.4483 146.925 94.3213 147.162 94.1021C147.277 93.9925 147.45 93.8483 147.652 93.6925C147.756 93.6175 147.865 93.5252 147.981 93.4733C148.096 93.4329 148.223 93.404 148.35 93.3925C150.179 93.2136 152.031 93.2944 153.883 93.6521C154.985 93.8771 156.162 93.9348 157.304 94.2175C158.539 94.5175 159.86 95.0021 160.944 95.8213C161.625 96.3059 162.208 96.9117 162.715 97.5521C163.477 98.5329 164.008 99.6406 164.498 100.719C164.879 101.556 165.323 102.358 165.6 103.217C165.664 103.408 165.744 103.587 165.773 103.783C165.837 104.152 165.837 104.4 165.767 104.591C165.681 104.787 165.548 104.919 165.364 105.041C165.277 105.098 165.202 105.162 165.127 105.202C164.994 105.271 164.85 105.242 164.677 105.15C164.504 105.058 164.285 104.902 164.146 104.671L163.794 104.169C163.679 104.002 163.598 103.823 163.494 103.656L163.212 103.142C163.114 102.975 163.021 102.802 162.952 102.629C162.64 101.937 162.358 101.233 162.017 100.587C161.533 99.606 160.927 98.7636 160.212 98.0367L160.246 97.9963L160.24 97.9906Z" fill="#3B2C7D"/>
<path d="M126.585 90.2309C122.396 91.3906 118.277 92.8502 114.296 94.6502C113.569 94.9732 112.854 95.3194 112.144 95.6886C111.435 96.0463 110.725 96.4098 110.021 96.779C105.019 99.3233 100.213 102.306 95.8865 105.889C93.9654 107.469 92.1538 109.217 90.5385 111.069C89.4827 112.246 88.5654 113.539 87.6192 114.791C86.7077 116.077 85.8481 117.381 84.9365 118.691C84.5904 119.071 84.4 119.227 84.3365 119.181C84.2673 119.135 84.2962 118.881 84.2904 118.408C84.2788 117.929 84.3423 117.271 84.5038 116.504C84.6654 115.731 85.0173 114.906 85.5019 114.064C85.7038 113.683 85.9519 113.342 86.1769 112.979C86.4135 112.621 86.6269 112.246 86.8981 111.923C87.4231 111.254 87.9308 110.567 88.4904 109.933L89.3212 108.969L90.1923 108.046C90.7635 107.417 91.3865 106.846 91.9865 106.258C94.4269 103.916 97.1558 101.919 99.9885 100.102C103.387 97.9502 106.906 95.6886 110.592 93.8771C112.606 92.8617 114.677 91.9675 116.76 91.1021C118.86 90.2829 120.965 89.4809 123.117 88.8175C125.76 87.9809 128.442 87.2656 131.148 86.6713C135.256 85.8059 139.456 85.2752 143.627 85.1021L144.844 85.0617C145.254 85.0502 145.64 85.0156 146.085 85.0444L146.737 85.0675L147.383 85.1598C147.821 85.2059 148.237 85.3502 148.658 85.454C150.331 85.9963 151.802 87.0463 152.956 88.2867C153.469 88.829 153.954 89.3771 154.352 90.0059C155.102 91.154 155.46 91.9617 155.65 92.5617C155.835 93.1617 155.852 93.5483 155.765 93.9117C155.731 94.079 155.713 94.2752 155.656 94.3906C155.465 94.7829 154.692 93.9636 153.521 92.504C153.106 91.9502 152.662 91.4309 152.212 90.9348C151.756 90.4444 151.317 89.9482 150.827 89.5271C149.863 88.6675 148.802 88.0271 147.671 87.7098L147.244 87.5886C147.1 87.554 146.95 87.5425 146.806 87.5194C146.517 87.4559 146.217 87.4502 145.912 87.4386C145.64 87.4098 145.231 87.4386 144.885 87.4444L143.8 87.4732C142.352 87.5309 140.898 87.629 139.45 87.7848C137.292 88.0098 135.135 88.3213 132.994 88.754C130.848 89.1579 128.719 89.6944 126.613 90.2829L126.59 90.2252L126.585 90.2309Z" fill="#3B2C7D"/>
<path d="M86.3701 125.059C87.0682 128.429 87.9855 131.775 89.1278 135.029C89.5432 136.217 90.0567 137.371 90.5298 138.531C91.3663 140.579 92.2951 142.592 93.3913 144.484C94.4875 146.359 95.7221 148.234 97.3548 149.452C97.5336 149.59 97.7182 149.694 97.9086 149.809L98.1913 149.954C98.2894 150.006 98.3124 150.006 98.3817 150.034C98.4971 150.075 98.6125 150.109 98.7336 150.115C98.8548 150.115 98.9701 150.04 99.0336 149.942C99.1028 149.844 99.149 149.729 99.1778 149.613C99.1951 149.544 99.2009 149.515 99.2182 149.434C99.2413 149.331 99.2528 149.221 99.2701 149.111C99.3221 148.667 99.3394 148.194 99.3394 147.727C99.3221 145.275 98.7855 142.782 98.5201 140.296C98.4971 139.5 98.6586 139.534 99.2355 140.077C99.524 140.348 99.8471 140.775 100.17 141.306C100.326 141.577 100.499 141.871 100.632 142.194C100.759 142.523 100.862 142.875 100.943 143.244C101.22 144.565 101.434 145.898 101.52 147.294C101.561 147.998 101.578 148.707 101.462 149.486C101.434 149.706 101.416 149.815 101.324 150.207C101.289 150.363 101.226 150.513 101.174 150.663C101.128 150.819 101.064 150.958 100.989 151.09C100.712 151.644 100.268 152.071 99.7144 152.284C99.1548 152.486 98.5432 152.394 97.949 152.209L97.5048 152.059C97.3374 152.019 97.2855 151.967 97.1817 151.921C96.9913 151.829 96.8067 151.736 96.6394 151.632C95.9471 151.217 95.3701 150.732 94.8451 150.219C93.8124 149.186 92.999 148.05 92.2778 146.884C90.599 144.075 89.0644 141.121 87.8586 138.081C86.5432 134.74 85.4932 131.313 84.6451 127.84C84.1259 125.7 83.6932 123.542 83.3528 121.373C82.8394 118.079 82.5624 114.721 82.7586 111.369C82.8394 110.123 82.9778 108.882 83.2721 107.642C83.4278 107.025 83.6298 106.402 83.9067 105.802C84.0509 105.502 84.2125 105.207 84.4028 104.919C84.4894 104.769 84.6048 104.636 84.7086 104.498C84.8298 104.319 85.0201 104.152 85.1817 103.979C85.3144 103.857 85.4528 103.748 85.6144 103.661C86.4048 103.252 87.3509 103.581 88.0605 104.152C89.0875 105.052 89.2951 105.831 89.3932 106.367C89.5028 106.898 89.4048 107.238 89.249 107.527C89.1855 107.654 89.1394 107.804 89.0817 107.879C88.9836 108.006 88.8278 107.879 88.5394 107.596C88.3778 107.463 88.2394 107.279 88.0721 107.065C87.9163 106.852 87.6855 106.632 87.4836 106.402C87.3451 106.229 87.1951 106.073 87.0451 105.94C86.9701 105.871 86.8951 105.813 86.8144 105.767C86.7451 105.715 86.7394 105.733 86.7048 105.715C86.5951 105.681 86.474 105.704 86.4336 105.807C86.474 105.773 86.2028 106.177 86.0644 106.459C85.9201 106.782 85.7817 107.111 85.6663 107.469C85.4298 108.179 85.2682 108.957 85.1586 109.765C84.9451 111.381 84.9221 113.106 85.0144 114.836C85.1932 118.223 85.6894 121.667 86.4394 125.054L86.3817 125.071L86.3701 125.059Z" fill="#3B2C7D"/>
<path d="M13.5699 160.65C13.7833 160.217 14.0314 159.796 14.2795 159.375C14.5276 158.954 14.7699 158.527 15.0353 158.146L16.6045 155.804L18.1737 153.461C18.6872 152.677 19.293 151.956 19.8468 151.194L21.5487 148.95L22.3968 147.831C22.6853 147.461 22.9968 147.109 23.2968 146.752C24.5141 145.321 25.7141 143.884 26.943 142.471L29.718 139.454L31.1026 137.942C31.5814 137.452 32.0718 136.979 32.5622 136.506C39.4333 129.761 46.9506 123.727 54.9122 118.373C58.4718 116.042 62.0603 113.7 65.7699 111.669L67.5468 110.665C68.141 110.336 68.7526 110.036 69.3583 109.719C70.5756 109.108 71.7814 108.479 73.0449 107.954C74.3026 107.417 75.5314 106.834 76.8468 106.425L78.791 105.79C79.1141 105.686 79.4603 105.634 79.7949 105.559C80.1353 105.496 80.4641 105.404 80.8045 105.363C81.6526 105.236 82.0218 105.213 82.016 105.277C82.016 105.346 81.6353 105.536 81.0179 105.94C79.766 106.713 77.6026 108.254 74.8622 109.598L73.0449 110.504C72.4391 110.809 71.8506 111.156 71.2564 111.479C70.0679 112.136 68.8506 112.731 67.6795 113.429C66.5083 114.115 65.3026 114.75 64.1487 115.477C62.9891 116.192 61.8295 116.908 60.6583 117.6C56.0429 120.502 51.5199 123.6 47.1064 126.894C41.8506 130.869 36.8545 135.6 32.1872 140.452C27.041 145.777 22.3622 151.563 18.2949 157.748L17.3429 159.167L16.8699 159.877L16.4487 160.598L16.0276 161.319L15.641 162.063L15.2545 162.808L14.9026 163.575C13.9564 165.617 13.1776 167.746 12.5083 169.915C10.518 176.504 9.40449 183.415 8.78718 190.258C8.32564 195.588 8.25641 200.844 8.30833 206.129C8.31987 207.294 8.36603 208.431 8.3718 209.602C8.37757 211.777 8.38334 213.208 8.27949 214.217C8.1468 215.227 7.97372 215.815 7.71987 216.294C7.60449 216.513 7.49487 216.802 7.39103 216.929C7.20641 217.148 7.01026 216.819 6.78526 216.029C6.56603 215.238 6.2891 213.998 6.19103 212.388C5.79295 207.617 5.7641 202.702 5.91987 197.717C6.08718 192.733 6.50257 187.673 7.22372 182.631C7.75449 178.886 8.47564 175.142 9.45641 171.444C9.9641 169.598 10.5064 167.758 11.1814 165.946C11.8506 164.134 12.5891 162.334 13.5122 160.604L13.5699 160.627V160.65Z" fill="#3B2C7D"/>
<path d="M75.1426 165.831C73.683 166.621 72.2118 167.4 70.7811 168.242L68.6234 169.488L66.506 170.798C65.9926 171.121 65.4791 171.444 64.983 171.784C64.4868 172.131 63.9907 172.477 63.483 172.811C61.6772 173.959 59.9522 175.206 58.2041 176.434C56.5022 177.727 54.7887 178.996 53.1734 180.398C51.6907 181.586 50.358 182.948 48.9964 184.246C48.1657 185.123 47.3753 186.034 46.5214 186.888C46.0887 187.309 45.6964 187.771 45.2695 188.198C44.8541 188.636 44.3753 189.023 43.9253 189.438C43.3426 189.934 43.2734 189.756 43.458 189.081C43.5503 188.74 43.6945 188.267 43.8964 187.708C44.1157 187.159 44.433 186.571 44.8484 185.988C48.0387 182.059 51.8291 178.667 55.9426 175.719C58.3945 173.942 60.881 172.015 63.4368 170.29C64.8445 169.344 66.2926 168.45 67.7234 167.544C69.1887 166.684 70.6253 165.79 72.108 164.965L74.8368 163.436L77.5945 161.965C80.3753 160.477 83.2368 159.109 86.0291 157.696C88.2157 156.629 90.2926 155.434 92.456 154.379C92.9349 154.148 93.3907 153.894 93.881 153.681C95.7214 152.936 96.3734 152.867 96.9849 153.225C97.1234 153.306 97.2907 153.375 97.3945 153.473C97.7349 153.796 97.1407 154.454 95.9003 155.209C94.0599 156.329 92.1214 157.338 90.1253 158.313C88.1349 159.288 86.1214 160.281 84.0964 161.267C82.6022 162.017 81.108 162.767 79.608 163.517C78.1311 164.308 76.6253 165.052 75.1714 165.877L75.1426 165.831Z" fill="#3B2C7D"/>
<path d="M45.755 203.608C45.755 202.166 45.7954 200.723 45.8647 199.281C45.8877 198.756 45.8531 198.231 45.905 197.706C46.0262 195.86 46.3147 194.025 46.6147 192.202C46.7531 191.394 46.8339 190.575 46.9954 189.779C47.0935 189.266 47.1916 188.752 47.3416 188.244C47.4858 187.737 47.6935 187.246 47.8897 186.762C48.0224 186.462 48.132 186.537 48.2416 186.843C48.3454 187.148 48.5127 187.696 48.5185 188.291C48.53 190.391 48.2185 192.41 47.93 194.493C47.8377 195.116 47.8089 195.756 47.7743 196.396C47.757 197.043 47.7627 197.689 47.7339 198.329C47.6993 199.743 47.6647 201.156 47.6935 202.569L47.7224 203.879L47.7858 205.183C47.855 206.498 47.9416 207.825 48.1435 209.123C48.3224 210.127 48.582 211.091 48.8358 212.06C48.8935 212.273 48.957 212.481 48.9858 212.7C49.1127 213.514 49.032 213.802 48.6858 214.068C48.605 214.131 48.53 214.2 48.4493 214.246C48.1839 214.396 47.8493 214.125 47.5493 213.554C46.6608 211.858 46.2512 209.914 46.0204 207.969C45.8474 206.521 45.732 205.062 45.7031 203.608H45.755Z" fill="#3B2C7D"/>
<path d="M161.984 168.917C161.148 168.617 160.306 168.248 159.475 167.683C159.065 167.389 158.638 167.06 158.263 166.61C157.79 166.062 157.479 165.323 157.375 164.608C157.363 164.314 157.375 164.013 157.456 163.731C157.496 163.587 157.56 163.454 157.635 163.327C157.698 163.194 157.79 163.073 157.883 162.958C157.969 162.837 158.073 162.733 158.188 162.629C158.292 162.519 158.413 162.427 158.546 162.346L158.927 162.087L159.267 161.908C160.023 161.539 160.721 161.325 161.419 161.129C162.81 160.737 164.177 160.517 165.544 160.315C167.136 160.079 168.717 159.831 170.304 159.687C175.894 159.185 181.467 159 187.034 158.804C189.504 158.717 191.985 158.585 194.431 158.469C196 158.389 197.575 158.308 199.15 158.227C199.935 158.187 200.725 158.175 201.509 158.192C202.3 158.204 203.085 158.192 203.875 158.371C204.371 158.521 204.59 158.631 204.579 158.723C204.573 158.821 204.336 158.937 203.938 159.214C203.136 159.785 201.625 160.454 199.819 160.604C196.611 160.8 193.409 160.996 190.202 161.117C186.994 161.221 183.781 161.296 180.55 161.36C176.685 161.435 172.692 161.879 168.798 162.34C166.998 162.56 165.192 162.808 163.45 163.165C162.584 163.344 161.713 163.54 160.935 163.817C160.738 163.887 160.554 163.962 160.375 164.037L160.184 164.129L160.063 164.204C159.902 164.302 159.763 164.487 159.815 164.689C159.844 164.833 159.902 164.971 159.983 165.098C160.017 165.139 160.104 165.271 160.19 165.358C160.265 165.456 160.381 165.548 160.473 165.64C161.338 166.344 162.573 166.806 163.802 167.158C165.042 167.504 166.34 167.752 167.644 167.942C171.608 168.502 175.681 168.675 179.69 168.646C182.811 168.617 185.869 168.375 188.95 168.15C189.631 168.098 190.288 168.029 190.975 167.983C192.244 167.902 193.086 167.885 193.681 167.965C193.981 168.012 194.217 168.081 194.413 168.167C194.61 168.265 194.771 168.387 194.915 168.514C195.048 168.629 195.215 168.733 195.296 168.831C195.429 168.998 195.238 169.165 194.788 169.408C194.338 169.656 193.623 169.823 192.694 169.944C187.173 170.637 181.3 170.948 175.363 170.798C173.159 170.74 170.944 170.614 168.717 170.36C166.49 170.094 164.252 169.754 161.984 168.992L161.996 168.935L161.984 168.917Z" fill="#3B2C7D"/>
<path d="M198.15 184.806C201.565 185.112 205.056 184.91 208.333 183.958C209.533 183.612 210.669 183.11 211.771 182.573C212.746 182.1 213.669 181.541 214.511 180.906C215.336 180.266 216.109 179.527 216.565 178.714C216.79 178.316 216.923 177.9 216.917 177.571C216.917 177.491 216.9 177.416 216.894 177.341C216.859 177.277 216.865 177.196 216.819 177.139C216.784 177.075 216.756 177.006 216.692 176.948L216.617 176.856C216.617 176.856 216.565 176.816 216.536 176.798C216.317 176.614 215.815 176.487 215.319 176.435C214.811 176.377 214.263 176.389 213.715 176.412C211.754 176.527 209.758 177.023 207.808 177.485C206.55 177.796 205.304 178.166 204.052 178.517L202.165 179.042L201.219 179.296C200.896 179.366 200.573 179.423 200.238 179.452C199.379 179.452 199.5 179.464 200.054 178.944C200.59 178.379 201.663 177.583 203.088 177.035C204.346 176.55 205.621 176.089 206.913 175.667C208.206 175.252 209.515 174.848 210.888 174.617C212.261 174.375 213.646 174.173 215.192 174.254C215.388 174.266 215.579 174.277 215.786 174.312C215.983 174.335 216.196 174.375 216.409 174.427C216.831 174.525 217.304 174.681 217.783 175.021C218.036 175.194 218.215 175.396 218.388 175.598C218.556 175.812 218.706 176.06 218.815 176.308C219.046 176.827 219.086 177.381 219.058 177.877C218.913 179.048 218.4 179.931 217.846 180.681C217.281 181.431 216.634 182.077 215.954 182.654C214.569 183.796 213.029 184.667 211.431 185.342C207.906 186.785 204.121 187.339 200.4 187.292C199.246 187.264 198.133 187.212 196.956 187.062C195.784 186.894 194.636 186.6 193.529 186.144C193.108 185.971 192.698 185.769 192.3 185.533C192.104 185.417 191.902 185.285 191.711 185.152C191.533 185.031 191.348 184.892 191.169 184.754C190.454 184.189 189.784 183.514 189.294 182.683C188.798 181.864 188.509 180.86 188.556 179.879C188.602 178.898 188.919 177.981 189.352 177.179C190.021 175.916 190.927 174.894 191.861 173.942C192.808 172.996 193.823 172.142 194.89 171.364C195.352 171.006 195.813 170.683 196.304 170.36C198.184 169.281 198.888 169.142 199.523 169.356C199.661 169.396 199.823 169.408 199.915 169.448C200.192 169.535 199.673 170.389 198.456 171.317C198.006 171.664 197.579 172.05 197.123 172.391C196.667 172.731 196.223 173.083 195.779 173.441C194.902 174.162 194.036 174.9 193.275 175.696C192.519 176.492 191.821 177.341 191.388 178.206C190.944 179.077 190.8 179.891 190.973 180.594C191.094 181.125 191.394 181.662 191.867 182.169C192.104 182.423 192.369 182.666 192.669 182.896C192.813 183.012 192.986 183.133 193.148 183.242C193.292 183.341 193.442 183.433 193.598 183.525C194.233 183.883 194.977 184.166 195.744 184.373C196.529 184.581 197.29 184.714 198.144 184.76V184.817L198.15 184.806Z" fill="#3B2C7D"/>
<path d="M206.643 191.832C208.922 191.486 211.189 190.875 213.347 189.986C214.131 189.663 214.876 189.248 215.626 188.861C216.953 188.186 218.233 187.402 219.335 186.473C219.883 186.011 220.385 185.498 220.766 184.967C220.968 184.707 221.106 184.436 221.21 184.177C221.291 183.923 221.32 183.698 221.28 183.507C221.199 183.19 220.76 182.792 220.281 182.648C219.785 182.492 219.18 182.521 218.58 182.648C217.801 182.821 217.028 183.161 216.272 183.531C216.081 183.623 215.891 183.715 215.706 183.819C215.51 183.9 215.314 183.992 215.118 184.079L214.524 184.35C214.322 184.436 214.103 184.5 213.889 184.575C213.324 184.719 213.387 184.69 213.606 184.194C213.814 183.686 214.258 182.746 215.158 182.129C215.978 181.627 216.849 181.165 217.853 180.854C218.101 180.773 218.36 180.704 218.637 180.657C218.903 180.594 219.191 180.571 219.485 180.554C219.768 180.519 220.097 180.571 220.403 180.588C220.72 180.657 221.049 180.715 221.36 180.854C221.678 180.998 221.983 181.148 222.249 181.379C222.387 181.494 222.52 181.575 222.647 181.725C222.774 181.875 222.901 182.025 223.016 182.186C223.12 182.365 223.212 182.556 223.293 182.746C223.356 182.942 223.403 183.144 223.443 183.346C223.489 183.744 223.478 184.136 223.403 184.477C223.085 185.838 222.347 186.652 221.608 187.356C219.82 188.971 217.893 190.309 215.81 191.331C213.526 192.432 211.126 193.234 208.668 193.759C207.156 194.082 205.616 194.29 204.076 194.382C202.91 194.452 201.728 194.463 200.516 194.29C199.316 194.117 198.128 193.765 197.043 193.165C196.195 192.721 195.416 192.109 194.781 191.342C194.141 190.586 193.685 189.64 193.506 188.636C193.472 188.417 193.449 188.198 193.426 187.979C193.391 187.759 193.385 187.534 193.408 187.315C193.443 186.9 193.506 186.565 193.61 186.306C193.703 186.04 193.778 185.827 193.893 185.671C194.13 185.359 194.349 185.221 194.608 185.146C194.73 185.111 194.851 185.059 194.955 185.059C195.301 185.048 195.364 185.711 195.416 186.64C195.468 188.025 195.866 189.184 196.668 190.061C197.06 190.506 197.533 190.909 198.11 191.204C198.676 191.509 199.305 191.757 199.98 191.896C200.983 192.127 202.01 192.167 203.199 192.127C204.347 192.092 205.506 191.965 206.649 191.769L206.66 191.827L206.643 191.832Z" fill="#3B2C7D"/>
<path d="M210.985 197.481C213.103 196.973 215.214 196.286 217.233 195.421C217.972 195.104 218.664 194.7 219.368 194.342C220.603 193.696 221.814 192.986 222.835 192.127C223.856 191.284 224.693 190.223 224.705 189.19C224.705 189.075 224.676 188.959 224.664 188.844C224.653 188.734 224.578 188.59 224.572 188.544C224.531 188.394 224.381 188.29 224.231 188.256C224.145 188.232 224.128 188.238 223.972 188.215C223.839 188.215 223.712 188.186 223.574 188.204C223.297 188.204 223.008 188.244 222.72 188.284C221.976 188.411 221.237 188.659 220.528 188.954C219.812 189.248 219.155 189.617 218.422 189.934C218.156 189.992 218.006 189.992 217.96 189.934C217.914 189.871 217.949 189.732 217.995 189.438C218.035 189.132 218.197 188.809 218.422 188.411C218.67 188.048 219.033 187.702 219.489 187.448C220.303 186.998 221.162 186.646 222.097 186.409C222.558 186.288 223.049 186.207 223.58 186.19C223.706 186.179 223.856 186.19 223.995 186.19C224.139 186.19 224.255 186.196 224.456 186.236C224.681 186.282 224.906 186.294 225.08 186.392C225.258 186.484 225.472 186.525 225.622 186.663C225.951 186.894 226.216 187.2 226.406 187.563C226.447 187.661 226.487 187.759 226.528 187.857L226.608 188.071C226.672 188.209 226.683 188.371 226.724 188.521C226.753 188.677 226.787 188.827 226.799 188.982V189.45C226.81 189.767 226.724 190.056 226.672 190.356C226.597 190.644 226.487 190.904 226.372 191.169C226.233 191.4 226.101 191.642 225.945 191.856C225.633 192.277 225.299 192.64 224.941 192.963C224.087 193.731 223.205 194.377 222.293 194.982C221.381 195.582 220.447 196.119 219.483 196.575C217.366 197.573 215.191 198.381 212.964 199.027C211.591 199.419 210.201 199.754 208.764 199.961C208.222 200.036 207.645 200.088 207.068 200.071C206.52 200.054 205.972 200.013 205.424 199.944C204.333 199.806 203.231 199.586 202.181 199.148C201.374 198.802 200.583 198.34 199.931 197.7C199.28 197.077 198.783 196.315 198.403 195.536C198.241 195.19 198.08 194.856 197.953 194.498C197.52 193.171 197.555 192.732 197.918 192.334C197.993 192.248 198.062 192.138 198.137 192.081C198.368 191.884 198.853 192.334 199.216 193.211C199.781 194.498 200.433 195.709 201.339 196.471C201.789 196.823 202.314 197.106 202.908 197.307C203.497 197.515 204.131 197.706 204.806 197.815C205.303 197.902 205.822 197.959 206.341 197.994C206.601 198.011 206.866 198.023 207.131 198.029C207.368 198.029 207.576 198.029 207.83 198C208.822 197.913 209.912 197.682 210.968 197.411L210.985 197.457V197.481Z" fill="#3B2C7D"/>
<path d="M222.345 200.509C223.66 200.359 224.993 200.152 226.308 199.84C226.793 199.731 227.255 199.546 227.733 199.425C229.43 198.986 231.114 198.467 232.77 197.856C233.508 197.59 234.224 197.261 234.922 196.915C235.147 196.806 235.366 196.685 235.585 196.569L236.266 196.258C236.497 196.165 236.722 196.05 236.964 195.981C237.212 195.917 237.46 195.848 237.708 195.784C238.026 195.709 238.066 195.854 237.957 196.194C237.905 196.367 237.812 196.598 237.691 196.858C237.628 196.985 237.564 197.129 237.478 197.25C237.385 197.36 237.282 197.469 237.16 197.561L236.514 198.035C236.295 198.185 236.058 198.306 235.833 198.433C235.372 198.686 234.905 198.923 234.426 199.148C233.947 199.367 233.468 199.586 232.972 199.765C232.47 199.938 231.968 200.094 231.449 200.233C230.22 200.561 229.02 201.098 227.768 201.456C226.395 201.848 224.999 202.165 223.585 202.396C222.714 202.529 221.832 202.621 220.943 202.679C219.599 202.765 218.237 202.702 216.893 202.517C215.849 202.379 214.793 202.16 213.795 201.686C213.582 201.577 213.357 201.485 213.166 201.329C212.982 201.19 212.837 201.069 212.728 200.954C212.618 200.844 212.56 200.711 212.514 200.608C212.428 200.394 212.433 200.221 212.497 200.019C212.526 199.927 212.549 199.835 212.589 199.76C212.728 199.517 213.149 199.563 213.674 199.748C215.191 200.319 216.726 200.55 218.433 200.665C219.691 200.729 221.012 200.654 222.333 200.463L222.345 200.515V200.509Z" fill="#3B2C7D"/>
<path d="M209.817 142.725C211.588 145.436 213.572 147.935 215.949 150.104C218.303 152.285 220.94 154.183 223.72 155.913C225.745 157.183 227.869 158.325 229.963 159.554C231.803 160.638 233.655 161.74 235.461 162.923C237.267 164.106 239.026 165.386 240.728 166.725C242.442 168.058 244.028 169.54 245.597 171.04C246.347 171.825 247.132 172.575 247.836 173.4L248.915 174.617L249.936 175.881C252.336 178.881 254.459 182.111 256.294 185.435C257.488 187.563 258.567 189.756 259.547 191.988C260.055 193.102 260.447 194.256 260.88 195.392C261.099 195.958 261.29 196.54 261.469 197.123C261.642 197.706 261.757 198.311 261.878 198.911C262.005 199.667 262.022 200.008 261.936 200.013C261.844 200.019 261.63 199.702 261.22 199.177C260.338 198.133 259.057 196.136 257.938 193.638C255.999 189.185 253.715 184.898 251.003 180.906C250.357 179.885 249.601 178.944 248.903 177.958C248.142 177.023 247.42 176.054 246.601 175.165C245.02 173.336 243.319 171.606 241.467 170.025C237.07 166.171 231.665 163.258 226.403 160.194C223.513 158.504 220.605 156.75 217.888 154.685C216.515 153.669 215.222 152.544 213.97 151.379C212.753 150.173 211.559 148.938 210.515 147.583C207.878 144.3 205.795 140.654 203.926 136.961C203.217 135.565 202.542 134.146 201.867 132.744C201.532 132.046 201.197 131.342 200.845 130.667C200.494 129.998 200.124 129.317 199.709 128.786C199.605 128.654 199.553 128.608 199.461 128.527C199.38 128.452 199.276 128.406 199.172 128.383C198.953 128.377 198.745 128.486 198.572 128.619C198.111 128.977 197.69 129.6 197.39 130.24C196.772 131.55 196.472 133.044 196.363 134.527C196.201 136.846 196.507 139.177 197.176 141.375C197.845 143.579 198.855 145.661 200.142 147.565C200.419 147.992 200.719 148.39 201.024 148.788C201.319 149.192 201.659 149.567 201.976 149.965C204.503 152.781 205.386 153.629 205.72 154.535C205.801 154.736 205.94 154.967 205.974 155.111C206.026 155.348 205.709 155.267 205.04 154.95C204.699 154.8 204.29 154.563 203.834 154.235C203.372 153.911 202.836 153.525 202.288 153.023C199.057 150.063 196.42 146.111 195.163 141.583C194.522 139.327 194.24 136.944 194.378 134.538C194.453 133.333 194.638 132.127 195.001 130.921C195.186 130.321 195.399 129.721 195.711 129.127C196.022 128.538 196.369 127.944 196.934 127.39C197.026 127.286 197.153 127.188 197.269 127.09C197.43 126.975 197.586 126.813 197.776 126.738L198.33 126.473C198.52 126.404 198.717 126.375 198.913 126.323L199.057 126.288L199.092 126.277C199.103 126.306 199.115 126.283 199.126 126.288H199.201C199.299 126.288 199.403 126.271 199.501 126.283C199.697 126.329 199.894 126.369 200.072 126.456C200.447 126.6 200.77 126.86 201.07 127.142C201.105 127.177 201.145 127.211 201.192 127.24L201.278 127.338L201.417 127.494C201.515 127.604 201.578 127.696 201.665 127.8C201.832 128.002 201.947 128.198 202.08 128.4C202.328 128.792 202.553 129.179 202.767 129.565C203.615 131.094 204.319 132.6 205.057 134.094C206.522 137.077 208.074 139.973 209.874 142.69L209.828 142.731L209.817 142.725Z" fill="#3B2C7D"/>
<path d="M245.272 213.923C245.041 213.415 244.77 212.925 244.533 212.417C244.268 211.921 244.008 211.425 243.726 210.94C243.512 210.588 243.258 210.265 243.039 209.913C242.289 208.667 241.47 207.444 240.576 206.273C240.183 205.748 239.722 205.281 239.289 204.796C238.712 204.19 238.089 203.631 237.772 202.771C237.691 202.488 237.795 202.437 238.147 202.402C238.528 202.344 239.11 202.35 239.532 202.621C240.939 203.671 242.064 205.021 243.022 206.515C243.587 207.415 244.349 208.212 244.966 209.1C245.641 210.081 246.264 211.096 246.835 212.146C247.182 212.792 247.505 213.45 247.822 214.108C248.295 215.112 248.722 216.133 249.149 217.142C249.489 217.921 249.882 218.665 250.228 219.444C250.303 219.617 250.366 219.785 250.412 219.969C250.597 220.638 250.447 220.915 250.095 221.175C250.008 221.233 249.934 221.302 249.847 221.348C249.57 221.498 249.207 221.313 248.855 220.915C248.387 220.304 248.007 219.658 247.66 218.994C247.303 218.337 246.957 217.667 246.662 216.981C246.437 216.473 246.218 215.96 245.976 215.452C245.751 214.938 245.497 214.442 245.237 213.94L245.283 213.912L245.272 213.923Z" fill="#3B2C7D"/>
<path d="M247.304 222.929C249.664 220.552 251.729 217.754 253.541 214.823C254.204 213.75 254.781 212.625 255.387 211.518C257.521 207.612 259.391 203.516 260.694 199.252C261.26 197.36 261.681 195.41 261.854 193.494C261.952 192.271 261.941 191.025 261.658 189.935C261.583 189.669 261.514 189.398 261.421 189.168C261.341 189.006 261.375 189.018 261.277 188.966C261.168 188.943 260.908 188.983 260.654 189.075C260.4 189.173 260.146 189.329 259.916 189.514C259.627 189.744 259.5 189.854 259.443 189.814C259.391 189.773 259.402 189.566 259.529 189.208C259.673 188.856 259.852 188.337 260.458 187.789L260.521 187.737C260.533 187.696 260.562 187.702 260.585 187.679L260.741 187.598C260.839 187.541 260.971 187.5 261.11 187.466C261.237 187.425 261.421 187.425 261.583 187.419C261.762 187.443 261.958 187.466 262.131 187.552C262.506 187.702 262.783 187.985 262.973 188.25L263.048 188.354L263.094 188.429L263.181 188.579C263.239 188.677 263.302 188.781 263.348 188.891C263.683 189.646 263.793 190.402 263.873 191.129C263.948 191.862 263.948 192.571 263.914 193.269C263.839 194.666 263.648 196.021 263.337 197.343C262.714 199.979 261.814 202.512 260.735 204.964C259.443 207.894 258.15 210.952 256.564 213.814C254.816 216.952 252.837 219.975 250.483 222.739C249.018 224.418 247.408 226.016 245.475 227.262C244.743 227.729 243.952 228.139 243.093 228.416C242.239 228.693 241.304 228.843 240.369 228.744C239.925 228.687 239.394 228.6 238.916 228.306C238.443 228.018 238.079 227.562 237.871 227.089C237.473 226.125 237.514 225.191 237.6 224.325C237.756 222.969 238.114 221.712 238.529 220.477C238.944 219.243 239.458 218.06 240.058 216.906C240.323 216.398 240.583 215.902 240.894 215.406C242.037 213.566 242.868 213.243 243.491 213.254C243.641 213.26 243.814 213.254 243.918 213.289C244.096 213.358 244.062 213.577 243.929 213.923C243.785 214.269 243.566 214.794 243.208 215.418C242.118 217.252 241.212 219.329 240.473 221.406C240.116 222.444 239.816 223.512 239.7 224.51C239.643 225.006 239.631 225.491 239.7 225.854C239.769 226.235 239.896 226.391 239.977 226.443C240.018 226.541 240.819 226.691 241.437 226.575C242.089 226.483 242.781 226.246 243.456 225.894C244.812 225.179 246.098 224.1 247.269 222.9L247.31 222.935L247.304 222.929Z" fill="#3B2C7D"/>
<path d="M283.4 211.581C282.16 209.446 280.787 207.386 279.362 205.356C278.837 204.623 278.237 203.942 277.706 203.21C275.791 200.665 273.783 198.173 271.625 195.808C271.164 195.271 270.644 194.775 270.143 194.273C269.629 193.777 269.139 193.269 268.608 192.808C267.927 192.213 267.258 191.602 266.6 190.973C266.266 190.667 265.919 190.373 265.619 190.033C265.319 189.686 265.019 189.335 264.731 188.983C264.373 188.533 264.581 188.394 265.164 188.452C265.458 188.481 265.844 188.55 266.294 188.665C266.514 188.729 266.762 188.786 266.987 188.896C267.206 189.006 267.431 189.144 267.644 189.3C269.15 190.442 270.552 191.711 271.873 193.061C272.548 193.719 273.189 194.417 273.818 195.127C274.452 195.831 275.052 196.563 275.629 197.325C276.327 198.225 277.083 199.102 277.816 200.002L278.941 201.34C279.298 201.802 279.656 202.263 280.008 202.719C281.56 204.744 282.973 206.873 284.352 209.013C285.166 210.358 285.996 211.685 286.746 213.063C287.035 213.583 287.335 214.096 287.618 214.621L288.431 216.208C288.991 217.258 289.464 218.342 289.994 219.398C290.768 221.06 291.639 222.64 292.302 224.336C292.446 224.711 292.625 225.063 292.735 225.45C292.839 225.808 292.914 226.113 292.966 226.367C293.012 226.627 293.018 226.846 293.018 227.025C293.018 227.388 292.948 227.619 292.827 227.821C292.775 227.913 292.729 228.029 292.677 228.086C292.504 228.288 292.066 227.792 291.46 226.869C291.275 226.511 291.068 226.165 290.9 225.802C290.71 225.444 290.519 225.086 290.323 224.729C289.937 224.013 289.637 223.258 289.25 222.531C288.875 221.798 288.541 221.042 288.16 220.31C287.779 219.571 287.404 218.833 287.023 218.088C285.818 215.925 284.698 213.698 283.36 211.598L283.406 211.569L283.4 211.581Z" fill="#3B2C7D"/>
<path d="M256.362 248.152C255.832 247.298 255.295 246.444 254.718 245.619C254.164 244.777 253.553 243.975 252.953 243.167C252.52 242.567 251.983 242.066 251.533 241.483C251.135 240.969 250.703 240.491 250.276 240C249.849 239.51 249.428 239.019 248.972 238.558C248.522 238.091 248.083 237.606 247.622 237.15L246.203 235.812C245.787 235.408 245.32 235.067 244.87 234.704C244.414 234.352 243.964 233.983 243.485 233.671C242.285 232.817 241.045 232.021 239.989 230.919C239.655 230.585 239.782 230.492 240.243 230.481C240.474 230.481 240.803 230.487 241.183 230.521C241.374 230.539 241.582 230.562 241.795 230.596C241.905 230.614 242.003 230.642 242.124 230.654C242.222 230.7 242.32 230.741 242.418 230.793C243.11 231.156 243.768 231.566 244.432 231.981C245.083 232.414 245.684 232.91 246.295 233.4C246.595 233.648 246.901 233.891 247.201 234.144L248.06 234.941C248.632 235.471 249.197 236.019 249.71 236.614C250.357 237.294 251.009 237.987 251.666 238.685C251.995 239.037 252.335 239.371 252.659 239.729C252.97 240.092 253.287 240.456 253.599 240.819C254.291 241.61 254.897 242.469 255.537 243.294C256.143 244.148 256.755 245.002 257.332 245.873L258.376 247.494L259.374 249.139C259.887 249.964 260.337 250.829 260.828 251.666C261.295 252.514 261.762 253.362 262.224 254.204C262.582 254.862 262.962 255.496 263.349 256.131C263.73 256.766 264.087 257.412 264.445 258.058C264.607 258.341 264.774 258.617 264.912 258.912C265.432 260.014 265.432 260.441 265.097 260.879C265.016 260.983 264.947 261.098 264.86 261.173C264.566 261.433 264.064 261.121 263.534 260.4C262.789 259.31 262.068 258.173 261.399 257.002C261.064 256.414 260.735 255.819 260.412 255.219C260.084 254.625 259.749 254.025 259.42 253.425C258.935 252.531 258.41 251.66 257.92 250.771C257.383 249.912 256.887 249.018 256.322 248.175L256.362 248.146V248.152Z" fill="#3B2C7D"/>
<path d="M75.2349 136.391C74.5368 134.314 73.9714 132.196 73.5791 130.05C73.4291 129.266 73.2445 128.492 73.1407 127.702C72.7887 124.916 72.7022 122.094 72.9503 119.302C72.9849 118.685 73.083 118.062 73.1291 117.444C73.233 116.827 73.3022 116.21 73.4349 115.61C73.5791 114.831 73.7695 114.052 73.9887 113.291C74.2714 112.541 74.6349 111.825 75.0445 111.144C75.2984 110.717 75.4022 110.844 75.4657 111.306C75.4945 111.537 75.5234 111.854 75.5349 112.223C75.5464 112.592 75.5868 113.025 75.5349 113.452C75.2176 114.946 75.0214 116.446 74.8714 117.958C74.681 119.469 74.5945 121.004 74.5599 122.562C74.5137 124.431 74.8541 126.358 75.2003 128.233C75.5811 130.304 76.0887 132.358 76.7118 134.377C77.0926 135.623 77.5426 136.852 78.0272 138.058C78.783 139.881 79.6253 141.687 80.6522 143.36C81.4484 144.658 82.4234 145.794 83.381 146.919C83.5887 147.173 83.8253 147.381 84.0387 147.635C84.8407 148.535 85.031 148.869 84.8753 149.423C84.8407 149.55 84.8234 149.689 84.7714 149.798C84.6157 150.162 83.9926 150.058 83.2195 149.452C82.1003 148.546 81.0445 147.496 80.1676 146.302C79.2849 145.114 78.506 143.833 77.808 142.517C76.7695 140.562 75.9214 138.502 75.1714 136.425L75.2176 136.402L75.2349 136.391Z" fill="#3B2C7D"/>
<path d="M78.4958 121.569C78.6919 121.385 78.8939 121.2 79.09 121.021C79.1593 120.958 79.217 120.871 79.292 120.808C79.5516 120.583 79.8458 120.387 80.1227 120.185C80.2496 120.093 80.3593 119.989 80.4689 119.885C80.6073 119.752 80.7458 119.596 80.9593 119.544C81.0227 119.527 81.1035 119.666 81.1496 119.821C81.1958 119.983 81.2304 120.156 81.1612 120.231C80.9131 120.485 80.6535 120.744 80.3304 120.952C80.14 121.079 79.9958 121.275 79.8343 121.437C79.6554 121.616 79.4708 121.8 79.2862 121.979C79.1766 122.094 79.0669 122.204 78.9631 122.325C78.8131 122.51 78.6343 122.677 78.5073 122.879C78.4093 123.035 78.3458 123.208 78.265 123.364C78.2477 123.398 78.2362 123.433 78.2131 123.468C78.1381 123.589 78.0746 123.6 77.9073 123.56L77.7919 123.531C77.6708 123.491 77.6016 123.387 77.6016 123.254C77.6131 123.058 77.6419 122.862 77.6939 122.677C77.7516 122.493 77.8554 122.343 77.9535 122.181C78.0919 121.944 78.2881 121.748 78.4727 121.552L78.49 121.564L78.4958 121.569Z" fill="#3B2C7D"/>
<path d="M80.4042 127.581C80.5254 127.46 80.6754 127.362 80.8081 127.252C80.8542 127.212 80.8946 127.16 80.9407 127.125C81.1196 126.998 81.3042 126.866 81.4773 126.739C81.5523 126.681 81.6215 126.612 81.6907 126.542C81.7773 126.456 81.8523 126.358 81.9734 126.312C82.0484 126.283 82.2388 126.635 82.1581 126.744C82.0081 126.935 81.8465 127.108 81.6388 127.246C81.5119 127.327 81.4369 127.466 81.3388 127.575C81.2292 127.691 81.1196 127.812 81.0042 127.933C80.935 128.002 80.86 128.077 80.7965 128.152C80.6927 128.268 80.5888 128.377 80.5081 128.504C80.4446 128.602 80.4215 128.729 80.3811 128.839C80.3696 128.862 80.3638 128.885 80.3465 128.908C80.2888 128.983 80.2311 128.983 80.0811 128.908L79.9773 128.856C79.8677 128.793 79.7984 128.706 79.7927 128.614C79.7638 128.337 79.9138 128.152 80.0407 127.962C80.1446 127.823 80.2657 127.696 80.3811 127.569L80.3927 127.581H80.4042Z" fill="#3B2C7D"/>
<path d="M82.3045 138.635C82.4603 138.439 82.616 138.242 82.7891 138.058C82.8468 137.989 82.8872 137.908 82.9506 137.844C83.1814 137.619 83.4237 137.406 83.6545 137.187C83.7526 137.089 83.8391 136.979 83.9141 136.864C84.0122 136.719 84.0872 136.546 84.2776 136.483C84.3929 136.442 84.9179 137.094 84.8199 137.25C84.6295 137.527 84.416 137.781 84.1218 137.989C83.9429 138.11 83.8679 138.317 83.741 138.485C83.6026 138.669 83.4583 138.854 83.3199 139.033C83.2333 139.148 83.1468 139.264 83.0718 139.385C82.9506 139.564 82.8352 139.748 82.7487 139.944C82.6852 140.1 82.6737 140.273 82.6391 140.435C82.6333 140.469 82.6333 140.51 82.6218 140.544C82.5756 140.671 82.5006 140.683 82.2526 140.619L82.0852 140.573C81.9006 140.515 81.7679 140.4 81.7449 140.279C81.6872 139.915 81.7449 139.569 81.8833 139.264C81.9929 139.039 82.1372 138.831 82.2756 138.617L82.2987 138.629L82.3045 138.635Z" fill="#3B2C7D"/>
<path d="M263.312 222.756C263.825 222.017 264.385 221.308 264.846 220.523L265.562 219.369L266.214 218.169C266.369 217.875 266.519 217.581 266.664 217.281C266.796 216.975 266.929 216.669 267.073 216.369C268.112 214.264 269.006 212.066 269.802 209.827C270.171 208.841 270.425 207.808 270.708 206.798C270.869 206.146 271.065 205.5 271.256 204.854C271.44 204.202 271.642 203.562 271.931 202.933C272.104 202.541 272.162 202.61 272.242 202.996C272.289 203.239 272.346 203.51 272.398 203.792C272.444 204.116 272.45 204.491 272.41 204.883C272.317 205.575 272.231 206.273 272.115 206.96C271.965 207.641 271.781 208.316 271.608 208.991C271.227 210.335 270.817 211.679 270.258 212.983C269.6 214.541 269.023 216.196 268.296 217.771C267.887 218.631 267.442 219.473 266.987 220.31C266.49 221.123 266.046 221.971 265.487 222.75C265.152 223.235 264.84 223.731 264.483 224.198L263.404 225.594C262.844 226.287 262.227 226.933 261.639 227.596C260.987 228.202 260.381 228.86 259.723 229.442C259.204 229.892 258.714 230.366 258.212 230.833L256.602 232.102C256.365 232.298 256.123 232.46 255.858 232.616C255.737 232.685 255.621 232.748 255.517 232.806C255.408 232.852 255.304 232.887 255.212 232.921C255.021 232.985 254.865 233.025 254.721 233.042C254.444 233.077 254.248 233.025 254.052 232.904C253.96 232.846 253.862 232.806 253.792 232.742C253.573 232.541 253.833 232.079 254.392 231.491C256.164 229.956 258.027 228.508 259.74 226.806C260.41 226.212 260.969 225.508 261.587 224.856C261.898 224.527 262.152 224.158 262.44 223.806C262.712 223.448 263.017 223.108 263.265 222.733L263.306 222.756H263.312Z" fill="#3B2C7D"/>
<path d="M253.834 225.917C253.754 225.71 253.673 225.496 253.598 225.289C253.569 225.214 253.511 225.156 253.488 225.081C253.408 224.804 253.367 224.504 253.286 224.239C253.252 224.117 253.2 224.008 253.142 223.904C253.067 223.765 252.969 223.644 252.986 223.46C252.986 223.35 253.65 223.171 253.771 223.298C253.967 223.535 254.14 223.783 254.204 224.094C254.238 224.285 254.406 224.406 254.481 224.573C254.567 224.758 254.659 224.942 254.752 225.127C254.809 225.242 254.867 225.358 254.931 225.467C255.029 225.629 255.115 225.808 255.236 225.958C255.334 226.067 255.484 226.137 255.588 226.24C255.611 226.264 255.64 226.281 255.663 226.304C255.733 226.402 255.698 226.483 255.519 226.667L255.398 226.794C255.259 226.927 255.098 226.996 254.971 226.979C254.792 226.95 254.613 226.904 254.481 226.823C254.354 226.737 254.244 226.633 254.146 226.517C254.008 226.344 253.921 226.131 253.811 225.935L253.834 225.917Z" fill="#3B2C7D"/>
<path d="M258.778 217.714C258.755 217.598 258.732 217.489 258.703 217.373C258.692 217.333 258.669 217.298 258.657 217.258C258.623 217.114 258.6 216.964 258.553 216.825C258.536 216.762 258.501 216.71 258.473 216.652C258.432 216.583 258.369 216.519 258.38 216.427C258.38 216.369 258.755 216.243 258.819 216.318C258.917 216.45 258.998 216.594 259.026 216.768C259.044 216.871 259.119 216.946 259.165 217.039C259.211 217.143 259.257 217.246 259.298 217.35C259.326 217.414 259.344 217.483 259.367 217.546C259.401 217.644 259.43 217.748 259.476 217.841C259.517 217.91 259.58 217.968 259.626 218.031C259.638 218.043 259.65 218.054 259.661 218.071C259.696 218.129 259.673 218.164 259.575 218.233L259.505 218.279C259.425 218.325 259.344 218.342 259.292 218.314C259.136 218.233 259.032 218.123 258.94 217.996C258.876 217.904 258.813 217.812 258.761 217.708H258.773L258.778 217.714Z" fill="#3B2C7D"/>
<path d="M262.588 207.848C262.542 207.692 262.536 207.525 262.507 207.363C262.496 207.306 262.461 207.26 262.455 207.202C262.432 206.994 262.421 206.781 262.392 206.585C262.38 206.498 262.346 206.417 262.311 206.336C262.265 206.238 262.19 206.146 262.23 206.013C262.248 205.933 262.848 205.806 262.923 205.904C263.044 206.083 263.136 206.273 263.148 206.504C263.148 206.642 263.257 206.746 263.309 206.861C263.367 206.994 263.425 207.127 263.471 207.265C263.5 207.352 263.523 207.438 263.557 207.525C263.609 207.652 263.65 207.785 263.736 207.894C263.805 207.975 263.926 208.021 263.996 208.096C264.013 208.113 264.036 208.125 264.053 208.142C264.1 208.211 264.053 208.275 263.851 208.431L263.713 208.535C263.557 208.65 263.396 208.708 263.298 208.69C263.159 208.662 263.026 208.627 262.94 208.558C262.859 208.483 262.801 208.396 262.75 208.298C262.675 208.16 262.623 208.004 262.565 207.86L262.588 207.848Z" fill="#3B2C7D"/>
<path d="M202.821 102.415C207.298 102.415 211.827 102.415 216.287 102.865C216.54 102.888 216.794 102.917 217.048 102.952C216.685 102.906 217.371 103.004 217.504 103.027C217.665 103.056 217.827 103.096 217.989 103.137C218.046 103.148 218.104 103.183 218.162 103.194C218.375 103.223 217.867 103.038 218.058 103.154C218.017 103.131 217.308 102.306 217.55 102.208C217.539 102.208 217.55 102.392 217.55 102.404C217.527 102.71 217.55 103.027 217.55 103.338C217.556 106.194 217.55 109.056 217.527 111.912C217.498 115.258 217.527 118.627 217.279 121.967C217.227 122.665 217.914 123.265 218.577 123.265C219.321 123.265 219.823 122.671 219.875 121.967C220.1 118.962 220.089 115.933 220.117 112.921C220.146 109.812 220.152 106.702 220.146 103.592C220.146 103.038 220.244 102.358 220.089 101.81C219.806 100.817 218.675 100.587 217.798 100.454C215.012 100.027 212.156 99.9808 209.34 99.9058C207.171 99.8481 204.996 99.8135 202.821 99.8135C201.148 99.8135 201.148 102.41 202.821 102.41V102.415Z" fill="#3B2C7D"/>
<path d="M150.582 182.319C146.105 182.319 141.576 182.319 137.117 181.869C136.863 181.846 136.609 181.817 136.355 181.783C136.719 181.829 136.032 181.731 135.899 181.708C135.738 181.679 135.576 181.638 135.415 181.598C135.357 181.587 135.299 181.552 135.242 181.54C135.028 181.512 135.536 181.696 135.345 181.581C135.386 181.604 136.095 182.429 135.853 182.527C135.865 182.527 135.853 182.342 135.853 182.331C135.876 182.025 135.853 181.708 135.853 181.396C135.847 178.54 135.853 175.679 135.876 172.823C135.905 169.477 135.876 166.108 136.124 162.767C136.176 162.069 135.49 161.469 134.826 161.469C134.082 161.469 133.58 162.063 133.528 162.767C133.303 165.773 133.315 168.802 133.286 171.813C133.257 174.825 133.251 178.033 133.257 181.142C133.257 181.696 133.159 182.377 133.315 182.925C133.597 183.917 134.728 184.148 135.605 184.281C138.392 184.708 141.247 184.754 144.063 184.829C146.232 184.887 148.407 184.921 150.582 184.921C152.255 184.921 152.255 182.325 150.582 182.325V182.319Z" fill="#3B2C7D"/>
<g opacity="0.4">
<path d="M204.763 106.84C207.325 106.84 209.898 106.863 212.448 107.048C212.765 107.071 213.083 107.1 213.394 107.129C213.469 107.135 213.544 107.146 213.613 107.158C213.59 107.158 213.4 107.123 213.567 107.152C213.7 107.175 213.833 107.192 213.96 107.221C214.023 107.238 214.098 107.267 214.167 107.279C214.311 107.296 213.954 107.158 214.058 107.233C213.925 107.14 213.596 106.846 213.671 106.517C213.654 106.598 213.671 106.713 213.671 106.794C213.671 108.271 213.671 109.754 213.665 111.231C213.654 113.215 213.665 115.211 213.521 117.185C213.435 118.39 215.31 118.385 215.396 117.185C215.65 113.735 215.563 110.244 215.552 106.794C215.552 106.304 215.454 105.865 214.981 105.6C214.508 105.335 213.85 105.306 213.319 105.248C211.675 105.075 210.013 105.046 208.358 105.006C207.158 104.983 205.958 104.965 204.758 104.965C203.558 104.965 203.552 106.84 204.758 106.84H204.763Z" fill="#3B2C7D"/>
</g>
<g opacity="0.4">
<path d="M149.187 178.425C146.648 178.425 144.098 178.402 141.565 178.223C141.254 178.2 140.937 178.171 140.625 178.142C140.55 178.136 140.481 178.125 140.406 178.119C140.429 178.119 140.619 178.154 140.452 178.125C140.319 178.102 140.192 178.084 140.06 178.056C139.996 178.038 139.921 178.009 139.858 177.998C139.714 177.981 140.071 178.119 139.967 178.044C140.1 178.136 140.429 178.431 140.354 178.765C140.371 178.684 140.354 178.575 140.354 178.488C140.354 177.023 140.354 175.557 140.36 174.086C140.371 172.119 140.36 170.146 140.504 168.184C140.59 166.979 138.715 166.984 138.629 168.184C138.375 171.6 138.467 175.061 138.479 178.488C138.479 178.973 138.577 179.417 139.05 179.677C139.523 179.936 140.169 179.971 140.706 180.029C142.339 180.202 143.983 180.231 145.621 180.265C146.81 180.288 147.998 180.306 149.187 180.306C150.392 180.306 150.392 178.431 149.187 178.431V178.425Z" fill="#3B2C7D"/>
</g>
<path opacity="0.3" d="M86.9598 54.1097C87.3983 51.9001 89.8271 52.4539 90.479 53.8501C91.5348 56.1058 89.2271 57.0635 87.6579 55.1424C87.456 54.8943 86.9137 54.3405 86.9598 54.1097Z" fill="#3B2C7D"/>
<path d="M274.42 102.589C272.424 100.65 274.633 98.4981 276.52 98.7635C279.572 99.1904 279.012 102.225 275.96 102.56C275.568 102.606 274.628 102.796 274.42 102.589Z" fill="#3B2C7D"/>
<path d="M79.159 190.333C79.5975 188.123 82.0263 188.677 82.6782 190.073C83.734 192.329 81.4263 193.287 79.8571 191.366C79.6552 191.117 79.1129 190.564 79.159 190.333Z" fill="#3B2C7D"/>
<path d="M66.0458 87.9865C67.9035 90.2826 65.3016 92.273 63.3458 91.7538C60.1843 90.9172 61.1593 87.7903 64.4189 87.8249C64.84 87.8249 65.8496 87.7442 66.0458 87.9865Z" fill="#3B2C7D"/>
<path opacity="0.5" d="M136.16 64.079C138.548 65.5617 136.829 68.1578 134.908 68.3078C131.804 68.5444 131.706 65.429 134.642 64.4424C135.023 64.3155 135.906 63.9232 136.154 64.079H136.16Z" fill="#3B2C7D"/>
<path d="M101.1 41.7404C99.6638 42.9116 98.4118 41.2789 98.7349 40.05C99.2599 38.0654 101.221 38.6769 101.198 40.7192C101.198 40.9846 101.977 41.0192 101.095 41.7404H101.1Z" fill="#3B2C7D"/>
<path d="M207.253 71.7809C205.816 72.9521 204.564 71.3194 204.887 70.0905C205.412 68.1059 207.374 68.7175 207.351 70.7598C207.351 71.0252 208.13 71.0598 207.247 71.7809H207.253Z" fill="#3B2C7D"/>
<path opacity="0.3" d="M268.881 110.562C269.146 112.979 266.452 113.192 265.327 111.958C263.516 109.967 265.593 108.237 267.825 109.719C268.114 109.91 268.714 109.079 268.881 110.562Z" fill="#3B2C7D"/>
<path opacity="0.3" d="M189.088 211.419C189.088 212.694 188.055 213.727 186.78 213.727C180.152 213.738 189.082 204.75 189.088 211.419Z" fill="#3B2C7D"/>
<path opacity="0.5" d="M237.097 51.7787C237.317 54.5076 232.603 53.8961 233.399 51.2595C233.97 49.373 236.947 49.9211 237.097 51.7787Z" fill="#3B2C7D"/>
</svg>
