<svg width="300" height="300" viewBox="0 0 300 300" fill="none" xmlns="http://www.w3.org/2000/svg">
<path opacity="0.3" d="M222.883 100.592C222.883 100.592 221.418 95.0941 219.923 95.0826C218.429 95.071 202.229 97.9614 201.323 98.1922C200.418 98.4229 197.273 103.004 197.273 103.004C197.273 103.004 212.008 103.765 218.123 101.59C224.239 99.4152 222.877 100.592 222.877 100.592H222.883Z" fill="#3B2C7D"/>
<path d="M215.855 95.354C215.14 95.4809 221.734 96.0232 221.307 100.789C221.22 101.758 219.536 101.106 219.536 101.106H223.88C223.88 101.106 221.145 95.7751 220.534 95.429C219.922 95.0828 215.855 95.354 215.855 95.354Z" fill="#3B2C7D"/>
<path d="M214.767 96.479C213.123 96.6982 211.485 96.9348 209.852 97.1944L208.069 97.529C205.963 97.8636 203.869 98.2559 201.769 98.6251C200.84 98.7925 199.912 99.0117 198.994 99.2021C197.817 99.4617 196.635 99.7213 195.44 99.9232C195.065 99.9867 195.1 99.9001 195.377 99.7155C195.66 99.5425 196.185 99.2309 196.848 98.9944C199.185 98.1521 201.556 97.4425 204.025 97.0444C205.496 96.8021 207.002 96.4098 208.496 96.1155C210.14 95.7925 211.796 95.504 213.446 95.2213C214.462 95.0482 215.483 94.8925 216.504 94.7367L217.092 94.6444C217.306 94.6155 217.519 94.5982 217.727 94.5925C218.142 94.5809 218.546 94.604 218.933 94.6213L219.504 94.6386H219.781C219.862 94.6328 219.971 94.6328 220.092 94.6386C220.537 94.6098 221.102 94.8059 221.46 95.1694C222.013 95.7578 222.163 96.4155 222.36 96.9809C222.538 97.5578 222.717 98.0944 222.948 98.5848C223.04 98.8098 223.179 98.9828 223.283 99.1848C223.658 99.929 223.808 100.154 223.733 100.552C223.715 100.639 223.715 100.742 223.692 100.817C223.652 100.944 223.525 100.985 223.312 100.933C223.208 100.904 223.075 100.858 222.931 100.783C222.792 100.702 222.648 100.587 222.481 100.448C222.002 100.039 221.656 99.4732 221.431 98.9136C221.188 98.354 221.027 97.7828 220.877 97.2752C220.738 96.7732 220.548 96.3117 220.421 96.2136C220.404 96.2021 220.398 96.179 220.387 96.1732C220.369 96.1732 220.358 96.1732 220.352 96.1617C220.352 96.1328 220.277 96.1559 220.248 96.1271C220.208 96.1098 220.11 96.1271 220.04 96.1155C220.017 96.1155 220.012 96.1155 219.977 96.1155H219.856L219.619 96.1271C218.696 96.1271 217.912 96.0348 217.265 96.1328L214.79 96.5194V96.4848L214.767 96.479Z" fill="#3B2C7D"/>
<path opacity="0.3" d="M104.739 223.673C104.139 223.829 106.937 228.496 106.937 228.496C106.937 228.496 128.139 225.398 139.966 223.673L134.295 220.367L104.652 222.294L104.739 223.673Z" fill="#3B2C7D"/>
<path d="M104.65 225.346L132.803 221.071C132.803 221.071 104.361 221.216 104.136 221.758C103.911 222.3 104.655 225.346 104.655 225.346H104.65Z" fill="#3B2C7D"/>
<path d="M115.022 226.171C117.41 225.791 119.805 225.433 122.193 225.087C123.064 224.954 123.93 224.781 124.801 224.671C127.882 224.285 130.974 223.95 134.06 223.639C135.433 223.512 136.812 223.356 138.168 223.2C139.045 223.102 139.922 223.01 140.81 222.992C141.255 222.981 141.693 222.958 142.137 222.981C142.582 223.033 143.026 223.079 143.476 223.131C144.03 223.206 143.949 223.356 143.493 223.616C143.262 223.748 142.945 223.91 142.564 224.089C142.374 224.175 142.172 224.273 141.947 224.354C141.728 224.429 141.491 224.492 141.243 224.533C140.805 224.614 140.378 224.677 139.939 224.769L139.287 224.902L138.63 224.994L135.993 225.364C134.233 225.629 132.457 225.779 130.662 225.929C128.516 226.096 126.324 226.558 124.149 226.898C121.76 227.273 119.366 227.637 116.983 228.046C115.512 228.289 114.053 228.554 112.587 228.825C111.682 229.004 110.758 229.16 109.858 229.362C109.408 229.46 108.947 229.546 108.508 229.662L107.845 229.829L107.499 229.921L107.026 230.071C106.766 230.112 106.507 230.187 106.253 230.204C105.987 230.158 105.803 229.956 105.641 229.754C105.301 229.298 105.047 228.583 104.908 228.248L104.43 227.019C104.124 226.217 103.812 225.416 103.507 224.614C103.368 224.267 103.23 223.927 103.085 223.581C102.612 222.283 102.624 221.827 102.895 221.36C102.958 221.256 103.01 221.129 103.08 221.048C103.299 220.783 103.87 221.169 104.453 222.104C105.168 223.321 105.664 224.654 106.178 225.958C106.426 226.61 106.668 227.267 106.922 227.867L106.945 227.925H106.957C106.957 227.925 106.962 227.919 106.962 227.914C106.783 227.966 107.418 227.781 107.77 227.683C110.187 227.025 112.564 226.529 114.976 226.108L114.987 226.16L115.022 226.171Z" fill="#3B2C7D"/>
<path opacity="0.3" d="M71.7578 114.11C71.7578 114.11 80.7809 140.394 81.9117 146.054C82.7828 150.433 78.1097 112.789 78.1097 112.789L71.7636 114.11H71.7578Z" fill="#3B2C7D"/>
<path d="M73.3334 123.017L76.0046 129.946C76.3276 130.789 76.6911 131.619 76.9969 132.467C78.0584 135.473 79.0565 138.502 79.9911 141.554C80.4122 142.904 80.8276 144.266 81.2026 145.621C81.7219 147.352 82.1084 149.141 82.2642 150.952C82.3103 151.517 82.143 151.466 81.8488 151.044C81.5661 150.617 81.0872 149.839 80.7296 148.875C80.4065 148.021 80.1296 147.162 79.8411 146.302L78.9526 143.723C78.4161 141.981 77.8796 140.233 77.343 138.473C76.7084 136.362 75.7911 134.256 74.9892 132.144C74.1122 129.825 73.218 127.506 72.3007 125.192C71.7353 123.767 71.1699 122.348 70.5988 120.923C70.1603 119.85 69.7565 118.754 69.3469 117.664C69.1392 117.098 68.9546 116.596 68.7526 115.962C68.6372 115.569 68.5046 115.16 68.5738 114.819C68.6026 114.739 68.6084 114.629 68.6834 114.577C68.7411 114.508 68.8334 114.479 68.9084 114.433C69.0757 114.352 69.2488 114.266 69.4449 114.208C69.9296 114.081 70.4084 113.954 70.8872 113.827C71.3142 113.712 71.7353 113.585 72.1565 113.458C72.993 113.204 73.818 112.921 74.6372 112.621C75.0007 112.494 75.3411 112.339 75.7046 112.212C77.0257 111.681 77.4815 111.623 77.9084 111.796C78.0065 111.837 78.1276 111.866 78.1969 111.917C78.318 112.004 78.2661 112.16 78.0699 112.373C77.8738 112.587 77.5276 112.852 77.043 113.123C75.5892 113.862 74.0257 114.444 72.4219 114.929C71.718 115.137 71.0142 115.35 70.3046 115.558C70.3046 115.558 70.3046 115.564 70.3046 115.569C70.3046 115.569 70.3046 115.569 70.3046 115.575L70.518 116.129C70.968 117.248 71.4642 118.391 71.9488 119.527L73.3507 122.989L73.3103 123.006L73.3334 123.017Z" fill="#3B2C7D"/>
<path d="M64.5223 201.733C64.5223 201.733 67.3665 199.281 69.5646 195.94C69.5646 195.94 75.6281 192.49 77.9242 191.758C80.2204 191.025 75.5358 190.881 75.5358 190.881L69.0108 193.904L62.6992 200.729L64.5223 201.733Z" fill="#3B2C7D"/>
<path d="M62.7295 181.604C62.7295 181.604 73.4833 182.337 79.9968 178.754L77.216 182.389C77.216 182.389 68.516 185.492 63.4737 182.648C61.2698 181.402 62.7352 181.61 62.7352 181.61L62.7295 181.604Z" fill="#3B2C7D"/>
<path d="M75.5352 113.273C75.5352 113.273 80.9582 137.833 80.7102 141.542C80.5198 144.439 80.9755 136.512 80.9755 136.512L78.1025 112.789L75.5352 113.273Z" fill="#3B2C7D"/>
<path opacity="0.2" d="M192.665 164.908C192.665 164.908 190.738 162.623 192.665 158.637C194.592 154.644 210.988 147.444 213.29 147.577C215.592 147.71 218.702 149.735 218.702 149.735L199.698 161.815C199.698 161.815 198.925 160.523 197.528 161.937C196.132 163.35 196.127 164.164 196.127 164.164L192.671 164.908H192.665Z" fill="#3B2C7D"/>
<path opacity="0.2" d="M213.812 161.977C213.812 161.977 218.485 165.225 219.344 168.04C220.204 170.856 221.104 171.415 218.508 172.338C218.508 172.338 210.079 170.596 204.212 165.069C198.339 159.536 198.921 160.529 197.525 161.942C196.129 163.356 196.735 166.506 198.027 169.379C199.319 172.246 212.387 183.179 218.075 185.608C223.764 188.036 230.369 191.936 235.158 190.892C239.946 189.848 241.908 189.548 241.908 189.548C241.908 189.548 252.489 204.185 252.454 205.65C252.419 207.115 262.868 190.217 262.204 188.406C261.541 186.594 252.137 184.506 247.879 177C243.627 169.494 233.773 158.135 231.368 156.404C228.962 154.667 227.387 154.154 227.387 154.154L213.812 162V161.977Z" fill="#3B2C7D"/>
<path d="M187.629 153.375L184.917 127.823C184.917 127.823 172.392 129.767 167.69 138.462C162.988 147.156 164.258 154.8 164.258 154.8L187.629 153.369V153.375Z" fill="#3B2C7D"/>
<path d="M184.235 153.86L176.354 154.54C175.396 154.627 174.439 154.765 173.481 154.846C170.094 155.123 166.696 155.354 163.298 155.527C161.792 155.619 160.275 155.717 158.781 155.827C156.86 155.896 154.921 156.196 152.989 155.775C152.389 155.648 152.469 155.463 152.971 155.129C153.225 154.967 153.577 154.713 154.01 154.535C154.223 154.442 154.454 154.338 154.702 154.275C154.95 154.223 155.21 154.183 155.487 154.171C159.364 153.912 163.246 153.744 167.187 153.606C169.546 153.537 171.981 153.19 174.381 152.96L182.319 152.21C183.952 152.065 185.585 151.921 187.217 151.777C189.692 151.581 192.179 151.385 194.637 151.194C195.594 151.125 196.541 151.033 197.481 150.929C198.427 150.842 199.367 150.756 200.314 150.669C200.729 150.635 201.139 150.583 201.56 150.571C201.952 150.56 202.275 150.554 202.546 150.565C202.817 150.583 203.037 150.629 203.221 150.681C203.4 150.733 203.544 150.796 203.666 150.877C203.787 150.969 203.879 151.079 203.96 151.188C204.035 151.292 204.139 151.379 204.179 151.465C204.329 151.696 203.694 152.175 202.569 152.337C199.223 152.717 195.704 152.942 192.162 153.237C189.531 153.45 186.883 153.658 184.235 153.912V153.865V153.86Z" fill="#3B2C7D"/>
<path d="M163.84 144.092C164.55 141.531 165.738 139.102 167.302 136.962C168.859 134.815 170.78 132.969 172.921 131.435C174.49 130.333 176.157 129.363 177.929 128.642C179.492 128.013 181.102 127.529 182.746 127.183C184.39 126.854 186.057 126.669 187.725 126.629C191.065 126.525 194.411 127.062 197.561 128.158C200.348 129.162 202.996 130.621 205.234 132.548C206.671 133.783 207.986 135.19 209.025 136.788C209.273 137.192 209.509 137.608 209.746 138.017C209.977 138.433 210.161 138.871 210.369 139.298C210.594 139.713 210.698 140.187 210.83 140.642C210.969 141.092 211.061 141.56 211.154 142.021C211.367 143.175 211.171 143.048 210.542 142.252C210.38 142.05 210.19 141.813 209.977 141.548C209.723 141.294 209.486 140.994 209.204 140.688C208.938 140.371 208.679 140.025 208.413 139.656C208.154 139.287 207.877 138.894 207.594 138.49C207.363 138.121 207.092 137.775 206.827 137.429L206.44 136.904L206.019 136.408L205.598 135.912L205.142 135.444C204.842 135.127 204.536 134.821 204.207 134.538C202.921 133.367 201.479 132.369 199.927 131.55C196.817 129.929 193.332 128.931 189.727 128.671C187.569 128.515 185.342 128.688 183.161 129.15C180.986 129.629 178.869 130.402 176.896 131.394C172.575 133.598 168.882 137.187 166.869 141.646C166.223 143.002 165.784 144.456 165.438 145.921C165.104 147.392 164.971 148.91 164.936 150.421C164.907 155.008 166.234 159.646 168.692 163.512C169.655 165.006 170.792 166.367 172.05 167.579C172.673 168.196 173.354 168.738 174.029 169.292L175.09 170.048C175.442 170.308 175.823 170.51 176.192 170.746L176.677 171.046L177.184 171.306C177.525 171.473 177.854 171.663 178.2 171.831C179.492 172.442 180.363 172.788 180.946 173.129C181.24 173.29 181.477 173.412 181.661 173.562C181.846 173.712 181.984 173.862 182.105 174.017C182.215 174.162 182.371 174.312 182.429 174.427C182.527 174.623 182.267 174.698 181.696 174.704C181.407 174.715 181.05 174.675 180.617 174.606C180.196 174.513 179.711 174.387 179.169 174.219C176.007 173.123 172.99 171.242 170.492 168.75C169.252 167.498 168.121 166.119 167.146 164.625C166.182 163.125 165.369 161.521 164.705 159.854C163.748 157.367 163.159 154.731 162.98 152.06C162.813 149.389 163.096 146.677 163.8 144.087H163.852L163.84 144.092Z" fill="#3B2C7D"/>
<path d="M190.593 179.256C190.605 179.706 190.639 180.162 190.685 180.652C190.685 180.837 190.732 181.01 190.72 181.194C190.685 181.852 190.622 182.504 190.576 183.133C190.564 183.415 190.576 183.692 190.599 183.969C190.616 184.148 190.61 184.321 190.599 184.5C190.605 184.679 190.483 184.858 190.414 185.042C190.357 185.158 190.264 185.146 190.103 185.06C190.022 185.019 189.912 184.956 189.797 184.887C189.739 184.852 189.682 184.811 189.624 184.771C189.595 184.748 189.572 184.725 189.537 184.708C189.526 184.685 189.509 184.662 189.503 184.638C189.439 184.465 189.364 184.292 189.312 184.119C189.284 183.946 189.26 183.773 189.243 183.594C189.208 183.248 189.203 182.896 189.232 182.538C189.278 182.111 189.11 181.696 189.035 181.275C188.989 181.044 188.966 180.802 188.96 180.56L188.926 179.804C188.926 179.492 188.914 179.181 188.909 178.875C188.897 178.408 188.932 177.946 188.891 177.49C188.868 177.138 188.747 176.798 188.678 176.452C188.66 176.377 188.632 176.302 188.626 176.221C188.609 176.077 188.637 175.985 188.735 175.915C188.782 175.881 188.834 175.852 188.897 175.835C188.978 175.812 189.076 175.794 189.162 175.777L189.364 175.736C189.497 175.708 189.959 175.817 190.068 176.019C190.374 176.625 190.46 177.26 190.524 177.883C190.57 178.35 190.587 178.806 190.639 179.256H190.599H190.593Z" fill="#3B2C7D"/>
<path d="M186.529 149.25C186.339 146.613 186.125 143.971 185.895 141.334C185.825 140.371 185.704 139.413 185.641 138.45C185.41 135.052 185.162 131.648 184.868 128.25C184.741 126.744 184.568 125.233 184.4 123.738C184.187 121.823 184.008 119.884 184.072 117.946C184.083 117.34 184.175 117.415 184.383 117.906C184.568 118.402 184.972 119.302 185.197 120.392L185.664 123.306C185.785 124.281 185.9 125.261 186.022 126.236C186.247 128.192 186.454 130.159 186.61 132.138C186.789 134.509 187.17 136.956 187.435 139.373L187.643 141.369L187.804 143.371L188.104 147.375C188.214 149.019 188.329 150.663 188.439 152.302C188.583 154.794 188.727 157.292 188.866 159.767C189.004 161.688 189.137 163.575 189.27 165.473C189.298 165.894 189.333 166.304 189.339 166.725C189.362 167.509 189.339 168.029 189.241 168.392C189.2 168.577 189.148 168.715 189.079 168.836C188.998 168.958 188.9 169.05 188.814 169.131C188.733 169.206 188.664 169.309 188.612 169.35C188.479 169.5 188.012 168.859 187.897 167.723C187.579 164.348 187.354 160.8 187.095 157.229C186.91 154.575 186.714 151.909 186.489 149.256H186.529V149.25Z" fill="#3B2C7D"/>
<path d="M246.555 196.834C246.717 197.077 238.23 208.015 241.259 212.561C243.596 216.063 252.446 205.638 252.446 205.638L246.55 196.834H246.555Z" fill="#3B2C7D"/>
<path d="M194.719 164.723C194.759 165.237 194.932 168.052 196.109 169.373C197.286 170.694 198.809 169.373 198.809 169.373L196.132 163.35L194.719 164.723Z" fill="#3B2C7D"/>
<path d="M234.883 140.562C234.883 140.562 237.376 142.673 235.477 144.871C233.031 147.692 204.502 163.627 203.049 163.817C201.595 164.008 205.922 165.877 205.922 165.877C205.922 165.877 237.491 149.533 239.066 146.129C241.72 140.389 234.883 140.562 234.883 140.562Z" fill="#3B2C7D"/>
<path d="M197.51 168.041C197.51 168.041 187.292 174.358 186.45 174.369C185.608 174.381 186.975 176.631 186.975 176.631L199.154 170.06L197.51 168.041Z" fill="#3B2C7D"/>
<path opacity="0.3" d="M12.1484 227.036C12.1484 227.036 16.4523 228.767 18.0734 225.756C19.51 223.084 15.1946 220.927 15.1946 220.927L12.1484 227.036Z" fill="#3B2C7D"/>
<path opacity="0.3" d="M30.3906 234.219C29.5887 234.058 28.7291 234.254 28.0483 234.952C26.8656 236.163 27.0791 238.408 28.4003 239.44C30.0503 240.733 32.8483 239.146 32.831 237.115C32.8195 235.65 31.6772 234.479 30.3906 234.219Z" fill="#3B2C7D"/>
<path opacity="0.3" d="M18.6627 237.981C17.9646 237.842 17.2204 238.009 16.6262 238.615C15.5993 239.665 15.7839 241.615 16.932 242.515C18.3685 243.634 20.7973 242.261 20.78 240.496C20.7685 239.227 19.782 238.206 18.6627 237.981Z" fill="#3B2C7D"/>
<path opacity="0.3" d="M41.837 243.467C41.837 243.467 38.6178 242.694 37.314 244.489C36.0101 246.283 36.2986 249.865 39.5755 250.76C39.5755 250.76 41.7217 246.277 41.837 243.467Z" fill="#3B2C7D"/>
<path d="M17.2773 215.406C17.2773 215.406 21.0389 222.675 32.8312 229.494C35.485 231.029 19.36 215.81 18.9677 213.289C18.5754 210.767 17.2773 215.406 17.2773 215.406Z" fill="#3B2C7D"/>
<path d="M31.1875 226.863C31.1875 226.863 41.4394 234.115 43.7298 233.036C46.4587 231.75 34.0663 220.927 34.0663 220.927L31.1875 226.869V226.863Z" fill="#3B2C7D"/>
<path d="M149.711 120.519C149.711 120.519 150.686 121.091 151.909 120.762C153.132 120.433 160.459 117.421 167.059 104.718C167.059 104.718 175.044 103.033 177.322 101.135C179.601 99.2368 179.255 98.0137 179.255 98.0137C179.255 98.0137 167.296 103.639 166.199 103.079C165.109 102.519 159.571 112.564 157.072 114.952C155.14 116.798 149.717 120.519 149.717 120.519H149.711Z" fill="#3B2C7D"/>
<path d="M194.81 92.746C194.81 92.746 196.518 89.9768 197.758 90.4152C198.999 90.8537 198.595 93.421 197.089 94.2402C195.583 95.0652 194.447 94.8402 194.81 92.746Z" fill="#3B2C7D"/>
<path d="M204.363 82.2113C204.363 82.2113 206.383 85.794 206.787 83.8382C207.19 81.8825 206.29 77.3363 205.575 76.4536C204.86 75.5709 207.248 74.7979 207.248 74.7979C207.248 74.7979 209.06 84.6805 207.906 86.9767C206.752 89.2729 204.952 88.0094 204.819 86.3594C204.687 84.7094 203.625 82.7536 203.625 82.7536L204.358 82.2113H204.363Z" fill="#3B2C7D"/>
<path d="M199.189 58.7364C199.587 59.2326 207.399 70.4076 207.814 78.2307C208.23 86.048 207.786 88.0845 207.786 88.0845C207.786 88.0845 219.168 84.4614 222.959 82.2403C226.749 80.0191 236.712 73.7941 237.601 73.223C238.489 72.6518 236.701 68.8614 232.87 66.7441C229.039 64.6268 229.207 64.1364 230.02 60.6345C230.834 57.1326 230.845 52.898 227.055 51.7557C223.264 50.6134 222.382 48.1211 223.368 46.1595C224.355 44.198 210.976 52.3326 210.647 52.4941C210.318 52.6557 199.184 58.7364 199.184 58.7364H199.189Z" fill="#3B2C7D"/>
<path d="M43.7474 178.31C39.9167 182.74 36.3397 187.402 32.9359 192.196C31.7359 193.973 30.5301 195.744 29.3647 197.544C25.1878 203.844 21.2936 210.346 17.8551 217.085C16.3494 220.085 14.8782 223.125 13.632 226.212C13.2282 227.198 12.784 228.179 12.4205 229.183C12.0513 230.187 11.6878 231.196 11.3013 232.188C10.4763 234.167 9.88205 236.221 9.06282 238.2C8.56667 239.44 8.30705 239.186 8.28974 237.992C8.28397 237.398 8.31282 236.561 8.45705 235.575C8.60705 234.594 8.79743 233.435 9.23013 232.263C12.1263 223.887 15.9686 215.879 20.5378 208.258C21.8647 205.956 23.3071 203.654 24.6859 201.306C25.3782 200.135 26.134 198.992 26.8551 197.833C27.5878 196.679 28.2974 195.513 29.0821 194.4L31.6147 190.702L34.2513 187.073C35.1167 185.856 36.0455 184.685 36.9628 183.502C37.8801 182.325 38.7859 181.131 39.7609 179.994C40.9436 178.586 42.0917 177.144 43.3494 175.794L45.1955 173.74C45.8128 173.054 46.4763 172.413 47.1167 171.75L48.5821 170.25C49.0782 169.76 49.609 169.298 50.1224 168.819L51.6744 167.4C52.1994 166.933 52.7705 166.517 53.3128 166.073C53.8667 165.64 54.3974 165.19 54.9744 164.769C55.5686 164.354 56.1917 163.973 56.8378 163.662C58.1301 163.021 59.509 162.583 60.9051 162.306C63.0744 161.873 65.2609 161.786 67.4128 161.89C69.5705 161.988 71.6936 162.283 73.7994 162.675C74.7282 162.854 75.634 163.021 76.5513 163.235C77.4051 163.437 78.1032 163.615 78.6917 163.777C79.2744 163.944 79.7301 164.117 80.1051 164.262C80.8551 164.55 81.259 164.821 81.5763 165.121C81.7205 165.254 81.9282 165.386 82.009 165.496C82.3205 165.831 80.7628 166.021 78.2417 165.554C74.5378 164.804 70.7878 164.019 66.9917 163.852C65.1051 163.777 63.2128 163.852 61.3955 164.204C59.5897 164.567 57.859 165.19 56.3821 166.206L55.9667 166.488L55.5455 166.829L54.7032 167.504C54.1436 167.96 53.5667 168.392 53.0186 168.871C51.9513 169.869 50.8551 170.827 49.8109 171.86C48.7897 172.915 47.7455 173.954 46.7417 175.027L43.7936 178.327L43.7532 178.298L43.7474 178.31Z" fill="#3B2C7D"/>
<path d="M71.1532 191.948C73.1955 191.083 75.2147 190.344 77.2051 189.548C79.1897 188.746 81.157 187.933 82.9916 186.958C83.6609 186.6 84.3012 186.208 84.8782 185.769C85.4551 185.337 85.9858 184.869 86.3378 184.385C86.6551 183.952 86.782 183.56 86.7243 183.185C86.6724 182.821 86.3435 182.29 86.0032 182.008C85.6512 181.713 85.1724 181.552 84.5897 181.523C84.007 181.5 83.3724 181.569 82.7262 181.685C80.1243 182.21 77.4474 183.185 74.6782 183.744C72.2262 184.258 69.6474 184.535 67.1262 184.194C63.907 183.796 60.6878 182.452 58.4839 180.087C57.8608 179.279 57.9474 179.406 58.7724 179.7C58.9858 179.763 59.2224 179.862 59.5051 179.954C59.7993 180.029 60.0935 180.162 60.4224 180.288C60.7455 180.427 61.0858 180.571 61.4608 180.71C61.8301 180.848 62.1993 181.033 62.6032 181.177C63.9993 181.742 65.4243 182.204 66.9128 182.388C68.3897 182.59 69.9012 182.573 71.407 182.4C72.9185 182.256 74.4416 181.956 75.9705 181.581C77.4993 181.206 79.0397 180.75 80.6378 180.352C81.6012 180.121 82.5935 179.885 83.6782 179.787C83.9435 179.752 84.2378 179.763 84.5147 179.752C84.8032 179.763 85.0974 179.787 85.3916 179.833C85.9916 179.948 86.6205 180.173 87.1397 180.588C87.4051 180.779 87.6128 181.033 87.8205 181.269C87.9878 181.535 88.1782 181.76 88.3051 182.071C88.6166 182.648 88.6916 183.433 88.5474 184.09C88.4089 184.777 88.0628 185.313 87.7109 185.775C87.5262 186 87.3416 186.225 87.1397 186.41C86.9435 186.612 86.7358 186.79 86.5282 186.958C84.6878 188.435 82.6743 189.381 80.6724 190.298C78.6589 191.192 76.6166 191.977 74.6032 192.779C73.3628 193.275 72.1282 193.765 70.9512 194.325C70.3743 194.608 69.7858 194.89 69.3474 195.254C69.2378 195.346 69.1282 195.427 69.0185 195.531L68.6782 195.871C68.4532 196.09 68.2224 196.338 67.9916 196.575C66.607 198.046 65.1532 199.535 63.5608 200.85C61.9628 202.16 60.2724 203.371 58.4493 204.34C55.6397 205.875 52.6108 206.971 49.4378 207.415C48.7455 207.565 48.0532 207.583 47.3435 207.64C46.6858 207.663 46.1378 207.727 45.682 207.669C45.2262 207.623 44.857 207.577 44.5628 207.496C44.2628 207.415 44.032 207.323 43.8416 207.213C43.6512 207.092 43.5128 206.954 43.3858 206.81C43.2705 206.683 43.1205 206.562 43.057 206.458C42.9532 206.279 43.1666 206.14 43.6397 205.944C44.1128 205.737 44.8224 205.656 45.7166 205.644C48.382 205.46 51.0589 205.033 53.6262 204.15C56.1993 203.279 58.6397 201.958 60.8551 200.285C62.5108 199.05 64.0339 197.625 65.5166 196.079L66.6474 194.896C66.832 194.7 67.0397 194.492 67.2532 194.285L67.5647 193.973C67.6801 193.863 67.8301 193.748 67.9628 193.638C68.5108 193.165 69.0647 192.9 69.5839 192.629C70.1089 192.358 70.6224 192.127 71.1358 191.902L71.1647 191.948H71.1532Z" fill="#3B2C7D"/>
<path d="M32.8662 220.61C33.2297 219.779 33.5989 218.954 33.9912 218.129C34.1354 217.829 34.2162 217.506 34.3893 217.211C34.9547 216.179 35.5951 215.175 36.2585 214.206C36.5412 213.767 36.8239 213.329 37.0835 212.885C37.2624 212.608 37.4297 212.319 37.6143 212.042C37.822 211.783 37.9951 211.494 38.3701 211.367C38.6066 211.292 38.7047 211.408 38.8489 211.736C38.9181 211.898 39.022 212.129 39.0624 212.336C39.097 212.538 39.0681 212.723 38.9758 212.873C38.3124 213.952 37.6893 215.031 36.9508 216.098C36.5008 216.733 36.2758 217.523 35.9643 218.25C35.6124 219.052 35.2547 219.86 34.9316 220.685C34.7239 221.192 34.5278 221.7 34.3431 222.219C34.0662 223.004 33.7662 223.783 33.5181 224.579C33.3278 225.196 33.2758 225.842 33.1028 226.46C33.0624 226.592 33.0393 226.731 32.9701 226.858C32.7335 227.336 32.5489 227.452 32.1681 227.44C32.0816 227.44 31.9951 227.44 31.9143 227.435C31.6489 227.4 31.4874 227.117 31.4355 226.702C31.3431 226.079 31.3662 225.473 31.4874 224.896C31.5855 224.308 31.7297 223.725 31.8797 223.142C32.1451 222.288 32.4912 221.446 32.8085 220.592L32.8547 220.61H32.8662Z" fill="#3B2C7D"/>
<path d="M30.2767 224.948C32.169 226.598 34.1824 228.121 36.3228 229.419C37.1074 229.892 37.9324 230.267 38.7401 230.671C39.6286 231.109 40.5401 231.507 41.4459 231.779C41.8959 231.911 42.3459 232.009 42.7497 232.044C43.194 232.056 43.3209 232.061 43.494 231.917C43.5863 231.836 43.6497 231.732 43.6844 231.6C43.7305 231.438 43.742 231.213 43.719 230.977C43.6786 230.498 43.5055 229.95 43.2978 229.425C42.7786 228.15 41.9594 226.938 41.1286 225.773C40.5978 225.017 40.0209 224.29 39.4613 223.534L39.0459 222.963L38.6882 222.346C38.4517 221.931 38.2267 221.504 38.019 221.054C37.7709 220.465 38.0997 220.407 38.6824 220.598C38.9767 220.69 39.3574 220.84 39.7728 221.048C39.9805 221.152 40.1997 221.273 40.4132 221.417C40.517 221.492 40.6267 221.567 40.7363 221.642C40.8286 221.734 40.9209 221.832 41.0017 221.936C42.1901 223.39 43.4132 224.879 44.3767 226.627C44.8613 227.504 45.3228 228.409 45.6344 229.482C45.7844 230.025 45.9055 230.607 45.8824 231.288C45.8767 231.461 45.8651 231.629 45.8247 231.819L45.767 232.096C45.7382 232.2 45.7036 232.298 45.6632 232.396C45.5247 232.8 45.2594 233.14 44.9824 233.446C44.8728 233.533 44.7632 233.631 44.6478 233.706C44.4344 233.838 44.2036 233.942 43.9613 234.011C43.7305 234.081 43.4363 234.121 43.2574 234.127C42.8536 234.15 42.4901 234.115 42.1497 234.063C41.4632 233.965 40.8459 233.786 40.2401 233.59C39.0344 233.192 37.9036 232.69 36.8247 232.113C34.4709 230.832 32.2901 229.315 30.2363 227.659C28.9728 226.638 27.767 225.554 26.6017 224.423C24.8363 222.709 23.2209 220.846 21.7267 218.913C20.567 217.413 19.4305 215.919 18.4728 214.269C18.2594 213.906 18.069 213.542 17.8901 213.161C17.5728 212.446 17.417 211.944 17.3824 211.569C17.3594 211.188 17.4517 210.934 17.6017 210.704C17.6709 210.6 17.7344 210.473 17.8094 210.404C17.9363 210.283 18.1209 210.346 18.3517 210.548C18.5824 210.75 18.8882 211.084 19.1536 211.552C19.5632 212.244 20.042 212.902 20.4632 213.594C20.8959 214.281 21.3517 214.961 21.8247 215.636C22.7709 216.986 23.8036 218.313 24.9113 219.588C26.5555 221.481 28.344 223.275 30.2824 224.907L30.2536 224.948H30.2767Z" fill="#3B2C7D"/>
<path d="M43.1839 243.363C42.8955 244.465 42.6128 245.579 42.2609 246.675C42.1397 247.079 42.0647 247.488 41.9205 247.886C41.4243 249.288 40.8359 250.65 40.2359 251.988C39.9763 252.588 39.7513 253.2 39.5205 253.8C39.2032 254.561 38.9609 255.369 38.2859 255.969C38.0609 256.148 37.9339 256.05 37.7436 255.727C37.5359 255.392 37.2589 254.838 37.3686 254.383C37.4897 253.99 37.6109 253.592 37.7263 253.2C37.8532 252.813 38.032 252.444 38.1878 252.063C38.4993 251.308 38.8455 250.563 39.2089 249.813C39.6589 248.919 39.8378 247.898 40.1205 246.929C40.4089 245.856 40.7263 244.783 40.9916 243.686C41.1589 243.017 41.3205 242.336 41.4705 241.656C41.6955 240.623 41.9551 239.585 42.1397 238.546C42.3013 237.738 42.3705 236.925 42.5205 236.117C42.5493 235.938 42.5897 235.765 42.6474 235.592C42.7051 235.431 42.7628 235.304 42.8147 235.2C42.8782 235.096 42.9647 235.021 43.0397 234.963C43.1897 234.842 43.3455 234.796 43.5301 234.773C43.6166 234.761 43.6974 234.744 43.7724 234.744C44.0089 234.744 44.1763 235.079 44.3089 235.61C44.3205 235.979 44.3724 236.365 44.3493 236.729C44.332 237.098 44.2974 237.461 44.2628 237.831C44.2109 238.569 44.0839 239.308 43.9282 240.04C43.7147 241.136 43.4666 242.244 43.2243 243.363H43.1724H43.1839Z" fill="#3B2C7D"/>
<path d="M156.006 114.738C158.809 111.681 161.354 108.271 163.765 104.752L164.619 103.488L164.838 103.165L164.954 103.004L165.132 102.756C165.271 102.583 165.398 102.398 165.577 102.283L165.721 102.219C165.738 102.144 165.813 102.173 165.859 102.144C165.963 102.11 166.067 102.092 166.165 102.052L167.157 101.931C167.417 101.896 167.682 101.873 167.948 101.827C173.181 101.019 178.252 98.5961 181.927 94.6788C183.594 92.9769 184.863 90.9 185.856 88.7654C186.536 87.4038 187.009 85.9442 187.459 84.4903L187.748 83.3827L188.088 82.2807L188.342 81.1557C188.434 80.7807 188.556 80.4115 188.659 80.0365C188.954 79.1019 188.988 79.2288 189.104 80.0769C189.225 80.9192 189.531 82.5346 189.138 84.3577C189.046 84.7557 188.988 85.1654 188.867 85.5577L188.504 86.7404L188.134 87.923C187.984 88.3096 187.817 88.6904 187.661 89.0711C187.506 89.4577 187.332 89.8327 187.159 90.2134C186.986 90.5884 186.756 90.9403 186.554 91.3038L185.925 92.3827C185.717 92.7404 185.446 93.0692 185.209 93.4096C183.277 96.1327 180.744 98.4288 177.859 100.102C176.14 101.054 174.352 101.965 172.436 102.583C171.969 102.767 171.484 102.894 171 103.033C170.515 103.165 170.036 103.327 169.54 103.413C169.05 103.517 168.554 103.627 168.063 103.719L166.748 103.898C166.748 103.898 166.713 103.898 166.702 103.898C166.656 103.898 166.621 103.927 166.592 103.962L166.494 104.088L166.044 104.74L165.138 106.079C164.532 106.973 163.921 107.873 163.292 108.756C162.029 110.527 160.742 112.287 159.306 113.937C158.423 114.958 157.506 115.95 156.525 116.885C155.538 117.819 154.494 118.708 153.3 119.44C152.394 119.977 151.39 120.467 150.231 120.565C149.065 120.652 147.831 120.248 147.046 119.233C146.959 119.094 146.861 118.967 146.798 118.817L146.636 118.367C146.579 118.062 146.538 117.75 146.561 117.462C146.59 116.873 146.734 116.337 146.919 115.835C147.288 114.831 147.784 113.931 148.298 113.054C149.907 110.354 151.644 107.844 153 105.173C153.3 104.59 153.542 104.002 153.831 103.419C154.811 101.227 154.852 100.535 155.354 100.027C155.446 99.9115 155.532 99.7442 155.607 99.6692C155.734 99.5423 155.85 99.7269 156.017 100.229C156.173 100.725 156.173 101.538 155.959 102.513C155.798 103.229 155.59 103.944 155.331 104.625C155.077 105.317 154.736 105.958 154.407 106.604C153.727 107.885 152.965 109.113 152.192 110.325C151.419 111.531 150.629 112.725 149.907 113.919C149.556 114.513 149.221 115.113 148.938 115.708C148.661 116.296 148.448 116.896 148.39 117.381C148.102 118.506 149.688 119.215 151.327 118.436C152.157 118.09 152.965 117.49 153.738 116.85C154.511 116.198 155.244 115.465 155.954 114.704L155.994 114.733L156.006 114.738Z" fill="#3B2C7D"/>
<path d="M192.183 63.923C187.701 66.2884 183.23 68.6595 178.805 71.1172C177.189 72.0115 175.608 72.9634 174.005 73.8749C168.368 77.0999 162.749 80.3884 157.516 84.1961C155.22 85.898 152.964 87.7384 151.17 89.8499C150.899 90.1961 150.599 90.5307 150.345 90.8826C150.114 91.2519 149.866 91.5922 149.641 91.9788C149.197 92.7692 148.787 93.5711 148.401 94.3846C147.633 96.0172 146.993 97.6903 146.335 99.3807C145.874 100.419 145.683 100.246 145.505 99.1846C145.412 98.6538 145.395 97.9153 145.464 97.0269C145.556 96.1499 145.822 95.1519 146.255 94.1365C146.641 93.2365 147.068 92.3596 147.53 91.4999L147.881 90.8596C148.008 90.6461 148.164 90.4211 148.303 90.2019L148.735 89.5442L149.214 88.9499C150.501 87.3807 151.955 86.0711 153.455 84.8596C156.449 82.4192 159.651 80.3307 162.916 78.3576C166.828 76.0038 170.849 73.4999 174.893 71.1922C179.341 68.6596 183.835 66.2249 188.341 63.8076C191.116 62.3307 193.891 60.848 196.666 59.3711C200.866 57.1269 205.095 54.9057 209.22 52.6095C212.428 50.8269 215.503 48.9519 218.601 47.0826C219.281 46.6672 219.945 46.2576 220.631 45.8422C221.906 45.0749 222.766 44.6019 223.412 44.3365C224.07 44.0942 224.514 44.0538 224.906 44.0884C225.085 44.0999 225.299 44.0826 225.414 44.1057C225.61 44.1519 225.478 44.3826 225.114 44.8269C224.751 45.2769 224.11 45.8769 223.187 46.4711C217.776 50.1288 211.77 53.4403 205.735 56.7345C201.235 59.1403 196.718 61.5634 192.206 63.9749L192.178 63.9345L192.183 63.923Z" fill="#3B2C7D"/>
<path d="M207.628 72.2077C208.205 74.302 208.632 76.4308 208.921 78.5827C209.019 79.3674 209.169 80.1462 209.209 80.9424C209.29 82.3443 209.307 83.752 209.117 85.1943C209.019 85.9154 208.886 86.6308 208.557 87.4097L208.419 87.6981C208.355 87.7962 208.28 87.9001 208.2 88.0212C208.125 88.1424 208.015 88.2116 207.917 88.3039L207.773 88.4366L207.6 88.5347C207.38 88.6674 207.08 88.7539 206.786 88.7712C206.486 88.7712 206.186 88.7135 205.961 88.5981C205.142 88.1712 204.778 87.577 204.398 87.0347C204.04 86.4808 203.746 85.9154 203.509 85.3443C203.192 84.6116 202.898 83.8789 202.661 83.1231L202.494 82.5577L202.396 81.975C202.332 81.5827 202.298 81.1904 202.286 80.7924C202.286 80.2904 202.465 80.3135 202.863 80.625C203.059 80.7808 203.348 80.9943 203.613 81.2712C203.751 81.4097 203.89 81.5597 204.028 81.7212C204.098 81.802 204.155 81.8885 204.23 81.975C204.276 82.0674 204.323 82.1654 204.363 82.2635C204.651 82.9674 204.951 83.6597 205.275 84.3231C205.436 84.652 205.609 84.9693 205.776 85.2808C205.926 85.5981 206.094 85.8924 206.261 86.152C206.423 86.4058 206.607 86.6366 206.711 86.7231C206.734 86.7404 206.757 86.7635 206.757 86.7635C206.757 86.7635 206.757 86.7924 206.746 86.8097L206.734 86.8385C206.717 86.8789 206.705 86.925 206.7 86.977C206.671 87.0808 206.723 87.0808 206.63 86.8616C206.607 86.8212 206.648 86.8443 206.653 86.8385L206.694 86.827C206.694 86.827 206.694 86.827 206.734 86.7981C206.763 86.7635 206.798 86.7 206.832 86.6481C206.907 86.5558 206.959 86.3885 207.028 86.2558L207.178 85.7712C207.392 84.952 207.438 84.0174 207.415 83.0885C207.398 82.1539 207.294 81.2077 207.196 80.2731C206.971 78.2077 206.596 76.1424 206.071 74.1116C205.753 72.8597 205.384 71.6193 204.946 70.402C204.294 68.5558 203.55 66.727 202.603 65.0308C201.876 63.7039 200.976 62.5212 200.071 61.3558C199.886 61.0904 199.678 60.8481 199.482 60.5827C199.303 60.3347 199.165 60.127 199.055 59.9424C198.951 59.7577 198.911 59.5731 198.865 59.4231C198.784 59.1231 198.796 58.9039 198.865 58.6789C198.894 58.575 198.911 58.4597 198.946 58.3789C199.073 58.1193 199.592 58.3443 200.423 58.8808C200.925 59.3712 201.444 59.8674 201.917 60.4154C202.378 60.9693 202.788 61.5635 203.203 62.1693C204.011 63.3866 204.715 64.6904 205.35 66.0231C206.29 68.0077 207.04 70.0847 207.651 72.1904L207.605 72.2077H207.628Z" fill="#3B2C7D"/>
<path d="M219.299 82.9153C220.914 82.1884 222.506 81.3749 224.087 80.5326C224.664 80.2211 225.206 79.8576 225.777 79.5461C227.797 78.4326 229.81 77.2961 231.801 76.1076C232.689 75.5941 233.56 75.0345 234.414 74.4749C235.533 73.7884 236.618 73.0384 237.904 72.623C238.297 72.4788 238.291 72.5768 238.101 72.9172C237.974 73.1307 237.835 73.3672 237.697 73.6153C237.61 73.7538 237.524 73.9153 237.408 74.0538C237.287 74.1864 237.16 74.3134 237.01 74.4345C236.485 74.8557 235.972 75.2941 235.435 75.6922C234.887 76.073 234.327 76.448 233.768 76.8114C232.654 77.5557 231.477 78.2191 230.272 78.848C228.835 79.6038 227.445 80.5614 226.002 81.3807C224.422 82.2922 222.801 83.1461 221.162 83.9653C220.66 84.2249 220.141 84.4499 219.633 84.6922C219.126 84.9345 218.612 85.1768 218.093 85.3961C217.314 85.7422 216.524 86.0826 215.722 86.3768C215.324 86.5268 214.926 86.6941 214.522 86.8384C214.118 86.9826 213.714 87.1211 213.31 87.2595C212.693 87.5018 212.064 87.698 211.441 87.9172C210.824 88.1538 210.183 88.3268 209.537 88.4941C209.254 88.5634 208.977 88.6672 208.683 88.7191C207.581 88.8576 207.212 88.7364 206.952 88.298C206.895 88.1941 206.82 88.0961 206.785 87.998C206.67 87.6518 207.074 87.3057 207.795 87.0864C209.935 86.4864 212.151 85.823 214.372 84.9749C215.191 84.6403 216.022 84.3461 216.835 83.9768L218.064 83.4461L219.276 82.8691L219.299 82.9095V82.9153Z" fill="#3B2C7D"/>
<path d="M201.598 78.5482C200.745 78.9809 199.914 79.454 199.089 79.9559C198.795 80.1463 198.523 80.3771 198.229 80.5617C197.71 80.8963 197.179 81.2252 196.666 81.5771C196.135 81.9117 195.622 82.2636 195.108 82.6271C194.664 82.9559 194.237 83.3194 193.839 83.6944C193.302 84.1559 192.8 84.6521 192.114 84.9579C191.906 85.0559 191.791 84.8944 191.762 84.5886C191.745 84.2944 191.733 83.7752 191.975 83.4233C192.206 83.1348 192.454 82.8521 192.702 82.5752C192.956 82.304 193.245 82.0732 193.527 81.8309C194.093 81.3521 194.698 80.9136 195.339 80.5213C196.112 80.0598 196.804 79.4425 197.566 78.9406C198.397 78.3809 199.268 77.8732 200.139 77.3713C200.681 77.0771 201.223 76.7771 201.772 76.5002C202.597 76.0617 203.462 75.6867 204.281 75.2656C204.927 74.9483 205.522 74.5444 206.162 74.204C206.3 74.129 206.433 74.0367 206.577 73.9732C207.137 73.7771 207.362 73.8406 207.627 74.2156C207.685 74.3021 207.754 74.3829 207.806 74.4752C207.968 74.7752 207.847 75.1271 207.506 75.404C206.491 76.1829 205.325 76.679 204.183 77.2675C203.335 77.7002 202.464 78.1098 201.633 78.5944L201.61 78.5598L201.598 78.5482Z" fill="#3B2C7D"/>
<path d="M196.781 78.7556C196.539 76.4075 196.118 74.0479 195.494 71.746C195.269 70.9037 194.964 70.0902 194.693 69.2652C194.219 67.8114 193.671 66.3806 193.043 65.0018C192.396 63.6402 191.658 62.2844 190.654 61.2402C190.221 60.7614 189.702 60.4037 189.171 60.1671C188.629 59.9364 188.116 59.9421 187.573 60.1383C186.893 60.4037 186.258 60.9287 185.698 61.5344C185.416 61.8344 185.156 62.1691 184.902 62.5037C184.66 62.8498 184.36 63.1671 184.106 63.5248C183.777 63.9633 183.644 63.8364 183.61 63.2883C183.593 63.0114 183.598 62.6306 183.668 62.1748C183.748 61.7248 183.956 61.246 184.273 60.7729C184.868 59.971 185.566 59.1402 186.644 58.6325C187.169 58.3729 187.804 58.2056 188.462 58.2229C188.791 58.2344 189.131 58.2806 189.408 58.3787C189.708 58.4594 190.002 58.5575 190.244 58.7018C191.277 59.2325 192.039 59.9768 192.673 60.7498C193.291 61.5344 193.833 62.3537 194.26 63.2075C195.327 65.2325 196.308 67.3556 197.012 69.5364C197.779 71.9306 198.339 74.3825 198.714 76.8633C198.944 78.3921 199.094 79.9325 199.152 81.4787C199.204 82.6498 199.175 83.8383 199.037 85.021C198.898 86.2037 198.685 87.3979 198.194 88.5575C198.016 89.0075 197.762 89.446 197.473 89.8671C197.3 90.0633 197.156 90.271 196.914 90.4902C196.677 90.7094 196.348 90.8364 196.06 90.9344C194.941 91.2517 193.787 91.0441 192.869 90.4729C192.477 90.2191 192.102 89.9479 191.796 89.6018C190.689 88.3037 190.798 87.6748 191.093 87.1902C191.156 87.0806 191.191 86.9652 191.243 86.9018C191.352 86.7056 192.079 87.046 192.691 87.7094C193.631 88.696 194.952 88.9498 195.541 88.7248C195.541 88.7248 195.546 88.7018 195.552 88.696C195.564 88.6614 195.668 88.5402 195.748 88.4594C195.887 88.2229 196.048 87.9979 196.164 87.6979C196.412 87.1267 196.602 86.4344 196.712 85.7075C197.069 83.5383 196.989 81.1325 196.723 78.7787L196.775 78.7671L196.781 78.7556Z" fill="#3B2C7D"/>
<path d="M198.444 93.7441C198.19 94.1249 197.878 94.448 197.509 94.7191C197.134 94.9787 196.69 95.2037 196.153 95.2614C195.773 95.3076 195.352 95.2961 194.994 95.1288C194.342 94.8345 193.967 94.2345 193.817 93.7211C193.661 93.1961 193.655 92.6884 193.73 92.198C193.811 91.7653 193.95 91.3384 194.175 90.9634C194.313 90.7211 194.492 90.4787 194.746 90.2941C195.017 90.1268 195.38 90.0864 195.675 90.1787C195.859 90.248 195.79 90.3749 195.686 90.5711C195.634 90.6691 195.582 90.7961 195.565 90.9288C195.542 91.0557 195.553 91.1941 195.553 91.2691C195.467 91.4595 195.346 91.748 195.317 92.0364C195.305 92.3076 195.207 92.6307 195.219 92.9537C195.219 93.1499 195.3 93.3114 195.398 93.4095C195.496 93.5018 195.594 93.5364 195.698 93.5653C195.9 93.6461 196.338 93.4903 196.661 93.1211C196.857 92.9018 197.007 92.648 197.088 92.348C197.215 91.898 197.18 91.4249 196.95 91.1595C196.817 90.9864 196.477 91.0441 196.315 91.1422C196.28 91.1653 196.263 91.2057 196.234 91.1999C196.182 91.1999 196.142 91.1711 196.061 91.1538C195.975 91.1249 195.848 91.1076 195.675 91.0845C195.594 91.073 195.513 91.0788 195.432 91.073C195.3 91.0614 195.196 91.0153 195.121 90.8768C195.04 90.7441 195.023 90.5191 195.138 90.2711C195.305 89.9018 195.623 89.6134 195.98 89.4864C196.332 89.3422 196.713 89.2961 197.117 89.3538C197.509 89.4057 197.965 89.6134 198.294 89.9422C198.588 90.2249 198.819 90.5826 198.94 90.9461C199.096 91.4941 199.084 92.0076 198.992 92.4691C198.9 92.9307 198.738 93.3576 198.49 93.7672L198.45 93.7441H198.444Z" fill="#3B2C7D"/>
<path d="M206.857 151.194C205.293 151.852 203.747 152.561 202.213 153.288C201.653 153.559 201.116 153.871 200.563 154.148C198.607 155.111 196.616 156.069 194.799 157.211L194.234 157.615C194.066 157.765 193.951 157.846 193.807 158.025C193.536 158.383 193.299 158.775 193.091 159.184C192.838 159.709 192.607 160.252 192.399 160.8L192.105 161.625C192.064 161.763 192.001 161.896 191.932 162.034C191.862 162.167 191.822 162.306 191.736 162.444C191.493 162.779 191.389 162.744 191.078 162.363C190.916 162.173 190.772 161.896 190.639 161.55C190.536 161.209 190.53 160.823 190.634 160.442C190.83 159.767 191.032 159.092 191.395 158.486C191.568 158.181 191.753 157.881 191.961 157.592C192.064 157.448 192.174 157.304 192.284 157.159C192.411 157.015 192.486 156.888 192.676 156.727C192.838 156.583 193.034 156.398 193.184 156.3L193.622 156.011C193.916 155.809 194.199 155.665 194.493 155.498C195.064 155.163 195.641 154.869 196.224 154.581C197.62 153.9 198.982 153.052 200.378 152.325C201.918 151.529 203.476 150.779 205.045 150.04C206.014 149.59 206.989 149.158 207.964 148.725C208.709 148.402 209.459 148.09 210.226 147.802C210.601 147.652 211.011 147.531 211.397 147.392C211.813 147.277 212.245 147.15 212.661 147.098C213.964 146.902 215.297 146.89 216.589 147.173C216.872 147.236 217.155 147.288 217.426 147.398C217.928 147.606 218.234 147.784 218.412 147.981C218.586 148.188 218.649 148.379 218.655 148.604C218.655 148.708 218.678 148.811 218.666 148.898C218.643 149.042 218.511 149.123 218.297 149.163C218.078 149.198 217.772 149.215 217.426 149.146C216.387 148.996 215.407 148.794 214.414 148.811C213.924 148.811 213.434 148.852 212.949 148.933L212.586 149.002L212.257 149.1C212.055 149.152 211.795 149.256 211.541 149.348C210.036 149.908 208.432 150.559 206.88 151.258L206.857 151.217V151.194Z" fill="#3B2C7D"/>
<path d="M250.692 178.264C253.288 181.292 256.305 183.935 259.749 185.954C260.372 186.329 260.995 186.704 261.659 187.004L263.672 187.985C268.392 190.35 273.088 192.773 277.738 195.283C279.809 196.391 281.892 197.498 283.945 198.6C285.261 199.316 286.588 200.025 287.868 200.821C289.161 201.594 290.436 202.425 291.474 203.573C292.092 204.323 291.947 204.289 291.082 204.139C290.643 204.075 290.078 203.925 289.368 203.787C288.682 203.608 287.995 203.256 287.257 202.846C282.07 199.817 276.722 196.927 271.363 193.962C268.149 192.185 264.676 190.61 261.301 188.942C260.84 188.712 260.361 188.481 259.899 188.221L258.526 187.419L257.159 186.617L255.867 185.7C255.44 185.394 255.001 185.094 254.58 184.777L253.368 183.756C252.97 183.41 252.549 183.087 252.168 182.723L251.043 181.616C250.092 180.733 249.284 179.723 248.413 178.765C248.003 178.269 247.605 177.762 247.201 177.26C246.792 176.764 246.399 176.256 246.024 175.731C243.688 172.621 241.663 169.316 239.418 166.246C237.665 163.869 235.807 161.654 233.701 159.698C233.263 159.237 232.749 158.891 232.288 158.458C231.422 157.656 230.822 157.183 230.459 156.756C230.274 156.548 230.147 156.358 230.061 156.173C229.992 155.966 229.957 155.769 229.928 155.591C229.905 155.423 229.836 155.25 229.824 155.146C229.743 154.852 230.92 154.898 232.432 155.954C234.613 157.558 236.667 159.485 238.461 161.637C240.261 163.783 241.893 166.079 243.468 168.375C245.817 171.773 248.055 175.194 250.715 178.212L250.68 178.252L250.692 178.264Z" fill="#3B2C7D"/>
<path d="M218.012 148.737C220.407 147.277 222.807 145.823 225.23 144.392L228.882 142.269C230.11 141.571 231.333 140.879 232.655 140.239C232.908 140.123 233.122 140.002 233.41 139.892C233.705 139.789 234.01 139.662 234.299 139.604C234.876 139.471 235.493 139.408 236.128 139.454C236.762 139.5 237.42 139.673 238.003 139.996C238.585 140.314 239.076 140.758 239.457 141.242C239.624 141.456 239.774 141.681 239.912 141.9C240.033 142.108 240.16 142.315 240.282 142.552C240.512 143.008 240.766 143.619 240.732 144.317C240.703 145.004 240.449 145.54 240.212 145.99C239.964 146.44 239.699 146.844 239.433 147.225C239.312 147.404 239.087 147.675 238.914 147.854C238.73 148.033 238.545 148.223 238.36 148.367C237.985 148.69 237.61 148.967 237.23 149.239C236.468 149.781 235.695 150.265 234.91 150.744C231.783 152.619 228.593 154.298 225.397 155.971C222.558 157.448 219.72 158.96 216.939 160.471C213.351 162.404 209.866 164.521 206.162 166.217C205.003 166.742 205.072 166.54 205.822 165.704C206.208 165.3 206.705 164.637 207.437 164.054C208.158 163.442 209.035 162.79 210.045 162.173C217.303 158.025 224.762 154.333 232.089 150.369C233.174 149.769 234.258 149.135 235.303 148.448C235.822 148.108 236.33 147.75 236.808 147.375C237.039 147.19 237.276 146.994 237.472 146.804C237.564 146.706 237.685 146.608 237.749 146.515C237.824 146.417 237.893 146.348 237.985 146.204C238.326 145.696 238.666 145.171 238.828 144.715C238.983 144.254 238.96 144.023 238.73 143.527C238.62 143.302 238.453 143.025 238.303 142.789C238.153 142.564 237.985 142.356 237.807 142.183C237.443 141.831 237.028 141.594 236.56 141.479C236.047 141.352 235.47 141.369 234.882 141.502C234.732 141.531 234.587 141.571 234.46 141.629C234.328 141.687 234.201 141.715 234.057 141.779L233.145 142.2C231.916 142.823 230.682 143.492 229.464 144.185C227.018 145.569 224.601 147.017 222.189 148.477C219.218 150.271 216.258 152.089 213.31 153.923C208.874 156.687 204.455 159.439 200.053 162.265C200.001 162.3 199.949 162.323 199.897 162.358C199.574 162.537 199.193 162.554 198.835 162.502C198.674 162.479 198.547 162.45 198.426 162.427C198.305 162.404 198.264 162.398 198.189 162.392C197.895 162.352 197.658 162.589 197.56 162.842C197.382 163.2 197.335 163.765 196.857 164.371C196.735 164.51 196.58 164.637 196.441 164.729L196.13 164.937L195.501 165.358C193.828 166.471 192.155 167.573 190.464 168.658C189.72 169.137 188.999 169.615 188.243 170.089C185.433 171.831 184.493 172.269 183.622 172.229C183.426 172.217 183.183 172.24 183.045 172.194C182.56 172.044 183.53 171.017 185.537 169.662C189.928 166.754 194.485 163.731 199.124 160.662C200.612 159.704 202.124 158.729 203.635 157.748C208.389 154.708 213.189 151.696 218.001 148.708L218.035 148.748L218.012 148.737Z" fill="#3B2C7D"/>
<path d="M183.324 171.594L183.416 171.543C183.468 171.525 183.525 171.514 183.577 171.502L183.658 171.491H183.699L183.722 171.485C183.722 171.473 183.733 171.6 183.727 171.548H183.739L184.114 171.577C184.235 171.577 184.362 171.623 184.489 171.669C184.616 171.704 184.737 171.791 184.864 171.86C184.985 171.929 185.112 172.016 185.233 172.102C185.354 172.189 185.475 172.269 185.585 172.385L185.92 172.702C186.035 172.789 186.156 172.944 186.208 173.002C186.474 173.319 186.739 173.66 186.929 174.058C187.033 174.254 187.114 174.462 187.183 174.669L187.241 174.825C187.241 174.825 187.241 174.848 187.241 174.86V174.918C187.258 174.969 187.241 175.056 187.241 175.131L187.218 175.246C187.218 175.246 187.287 175.229 187.316 175.218C187.385 175.183 187.443 175.148 187.506 175.131L187.697 175.073C187.697 175.073 187.87 174.998 187.974 174.952L188.331 174.785L189.762 174.104C190.714 173.643 191.666 173.175 192.612 172.696C193.454 172.269 194.262 171.785 195.075 171.323C195.595 171.023 196.108 170.706 196.633 170.412C197.187 170.164 197.764 169.962 198.393 169.858C198.854 169.916 198.785 169.898 198.658 170.331C198.525 170.746 198.254 171.456 197.747 171.952C197.25 172.316 196.72 172.616 196.2 172.939C195.675 173.256 195.156 173.573 194.608 173.856C193.524 174.427 192.416 174.969 191.274 175.466C190.593 175.76 189.924 176.118 189.254 176.487L187.968 177.214C187.414 177.525 186.791 177.871 186.341 177.866C186.145 177.883 185.977 177.866 185.827 177.825C185.758 177.814 185.643 177.762 185.643 177.704L185.568 177.543L185.343 177.075C185.314 177.046 185.314 176.966 185.308 176.891L185.291 176.671C185.291 176.521 185.256 176.389 185.274 176.221L185.17 175.593L185.054 175.333C184.968 175.166 184.875 174.993 184.772 174.814L184.599 174.56C184.57 174.519 184.535 174.479 184.5 174.433C184.477 174.404 184.466 174.393 184.449 174.364C184.379 174.277 184.304 174.196 184.212 174.116C184.154 174.064 184.097 174.012 184.027 173.966C183.993 173.943 183.958 173.914 183.924 173.908C183.889 173.919 183.866 173.954 183.843 173.977C183.739 174.087 183.629 174.208 183.52 174.335L183.433 174.433L183.277 174.623L182.954 175.021L181.552 176.798C181.287 177.139 181.004 177.508 180.785 177.86C180.745 177.929 180.704 177.993 180.675 178.056C180.658 178.091 180.647 178.119 180.635 178.154C180.606 178.2 180.699 178.183 180.733 178.189C180.929 178.183 181.12 178.131 181.299 178.079C181.656 177.975 181.945 177.848 182.17 177.756C182.222 177.733 182.268 177.71 182.308 177.687C182.308 177.681 182.389 177.658 182.447 177.635L182.637 177.577C183.11 177.45 183.433 177.387 183.675 177.45C183.924 177.531 184.097 177.698 184.241 177.918C184.31 178.016 184.391 178.102 184.431 178.189C184.506 178.339 184.46 178.494 184.322 178.714C184.189 178.933 183.958 179.158 183.624 179.268L182.874 179.539C182.793 179.573 182.504 179.637 182.279 179.7L181.558 179.879C181.074 179.994 180.595 180.087 180.122 180.156C179.689 180.191 179.279 180.191 178.962 180.133C178.633 180.081 178.425 179.943 178.299 179.735L178.247 179.654V179.643H178.235C178.12 179.712 178.391 179.544 178.362 179.562L178.339 179.539L178.304 179.51L178.189 179.4C178.154 179.366 178.108 179.331 178.074 179.285C178.05 179.233 178.039 179.181 178.027 179.118C177.987 178.881 178.045 178.535 178.299 178.119C178.535 177.704 178.881 177.283 179.077 176.839C179.279 176.51 179.487 176.164 179.718 175.823C179.775 175.737 179.833 175.656 179.897 175.569L180 175.425L180.185 175.171L180.947 174.168L181.72 173.169L182.452 172.218C182.574 172.05 182.7 171.889 182.845 171.773C182.989 171.664 183.139 171.606 183.272 171.525L183.289 171.583L183.324 171.594Z" fill="#3B2C7D"/>
<path d="M247.611 196.569C248.015 197.285 248.413 198 248.834 198.704C248.984 198.964 249.175 199.194 249.325 199.448C249.85 200.36 250.381 201.277 250.906 202.189C251.142 202.592 251.413 202.979 251.684 203.348C252.013 203.844 252.359 204.329 252.596 204.894C252.671 205.073 252.515 205.154 252.261 205.148C252.013 205.137 251.632 205.056 251.367 204.819L250.698 204.173C250.49 203.948 250.311 203.7 250.121 203.458C249.752 202.967 249.411 202.46 249.14 201.9C248.806 201.237 248.304 200.654 247.894 200.025C247.438 199.333 247 198.629 246.561 197.931L245.748 196.639C245.338 195.987 244.957 195.306 244.519 194.683C244.184 194.192 243.757 193.777 243.411 193.292C243.336 193.189 243.25 193.09 243.181 192.981C242.956 192.548 242.973 192.352 243.192 192.092C243.244 192.035 243.284 191.965 243.342 191.919C243.521 191.752 243.809 191.798 244.115 192.017C245.027 192.669 245.65 193.575 246.296 194.469C246.532 194.804 246.763 195.144 246.988 195.49L247.634 196.546L247.6 196.569H247.611Z" fill="#3B2C7D"/>
<path d="M254.895 204.346C253.331 206.273 251.681 208.137 249.812 209.816C249.125 210.427 248.474 211.073 247.712 211.621C247.049 212.106 246.35 212.562 245.583 212.948C244.833 213.341 243.979 213.664 243.01 213.733C242.774 213.767 242.514 213.733 242.26 213.71C242.006 213.704 241.752 213.594 241.504 213.514C241.02 213.329 240.599 213.017 240.27 212.631C239.606 211.841 239.422 210.906 239.335 210.069C239.22 208.569 239.381 207.144 239.612 205.766C239.762 204.883 239.9 204.006 240.102 203.141L240.431 201.86L240.599 201.225C240.656 201.012 240.743 200.81 240.806 200.596C240.985 200.071 241.031 200.135 241.199 200.625C241.4 201.116 241.637 202.05 241.585 203.083C241.574 203.314 241.568 203.539 241.545 203.764L241.464 204.433L241.308 205.76C241.21 206.637 241.147 207.502 241.077 208.333C241.031 209.158 241.043 209.983 241.222 210.641C241.4 211.292 241.7 211.725 242.225 211.898C242.26 211.916 242.295 211.933 242.335 211.944L242.462 211.956C242.549 211.956 242.629 211.991 242.733 211.985C242.935 211.962 243.131 211.962 243.35 211.881C243.46 211.846 243.564 211.829 243.674 211.789L244.002 211.644C244.222 211.564 244.441 211.419 244.66 211.304C245.537 210.791 246.362 210.098 247.164 209.4C248.047 208.627 248.895 207.785 249.708 206.908C250.527 206.037 251.335 205.142 252.102 204.208C253.049 203.066 253.966 201.889 254.831 200.677C256.135 198.837 257.393 196.944 258.449 194.971C259.256 193.431 259.908 191.85 260.497 190.264C260.629 189.917 260.756 189.577 260.889 189.225C261.166 188.591 261.322 188.169 261.552 187.904C261.812 187.65 262.037 187.523 262.274 187.425C262.383 187.385 262.487 187.316 262.568 187.292C262.706 187.258 262.787 187.391 262.885 187.691C262.937 187.841 262.977 188.037 263.024 188.267C263.081 188.504 263.012 188.735 262.983 189.012C262.481 192.277 260.964 195.346 259.222 198.214C257.924 200.348 256.475 202.396 254.935 204.375L254.889 204.346H254.895Z" fill="#3B2C7D"/>
<path d="M256.327 222.917C258.104 223.754 259.932 224.515 261.784 225.225C262.465 225.479 263.157 225.686 263.838 225.934C266.238 226.817 268.644 227.729 271.073 228.588C272.152 228.975 273.236 229.356 274.309 229.736C275.677 230.238 277.107 230.717 278.29 231.692C278.659 231.992 278.521 232.061 278.094 232.038C277.684 231.981 276.911 232.021 276.132 231.796C274.759 231.352 273.334 230.977 271.915 230.573C270.502 230.14 269.1 229.638 267.698 229.107C266.019 228.473 264.213 227.982 262.477 227.359C260.567 226.679 258.675 225.94 256.811 225.132C255.663 224.636 254.527 224.106 253.402 223.552C251.7 222.709 250.044 221.746 248.452 220.713C247.217 219.9 245.988 219.104 244.869 218.094C244.627 217.869 244.361 217.673 244.142 217.413C243.934 217.182 243.767 216.981 243.64 216.802C243.513 216.623 243.467 216.438 243.421 216.294C243.34 215.994 243.381 215.769 243.502 215.532C243.554 215.429 243.6 215.307 243.663 215.227C243.877 214.961 244.425 215.169 245.048 215.694C245.913 216.531 246.877 217.298 247.886 218.048C248.896 218.798 249.975 219.507 251.106 220.165C252.773 221.152 254.532 222.052 256.338 222.859L256.321 222.906L256.327 222.917Z" fill="#3B2C7D"/>
<path d="M76.1891 108.75C76.0968 107.907 76.0103 107.065 75.9468 106.2C75.9122 105.767 75.8891 105.334 75.8776 104.873V104.671C75.8718 104.579 75.8776 104.475 75.8776 104.382C75.8891 104.186 75.8776 103.99 75.9237 103.806C75.941 103.615 75.9929 103.436 76.0564 103.263C76.1314 103.102 76.2814 102.975 76.3679 102.819L77.3083 102.207C77.3833 102.156 77.4699 102.104 77.5506 102.069L77.7814 101.988L78.1333 101.873C78.6122 101.694 79.0449 101.631 79.5006 101.521C80.3949 101.348 81.266 101.244 82.1314 101.169C85.5872 100.892 88.9564 100.944 92.3314 101.025C94.7891 101.082 97.2468 101.117 99.6929 101.227C108.324 101.619 116.92 102.138 125.528 102.271C129.347 102.329 133.183 102.259 136.962 102.081C139.391 102.006 141.82 101.827 144.249 101.659C146.672 101.446 149.095 101.296 151.535 101.238C153.058 101.209 152.879 101.342 151.651 101.844C151.033 102.086 150.162 102.502 149.078 102.825C148.535 102.992 147.953 103.188 147.318 103.338C146.683 103.459 146.008 103.569 145.304 103.65C142.806 103.932 140.303 104.152 137.799 104.302C136.547 104.388 135.289 104.406 134.037 104.44C132.785 104.475 131.528 104.475 130.276 104.486C125.256 104.498 120.243 104.331 115.212 104.059C109.201 103.731 102.947 103.552 96.8141 103.327C93.4449 103.206 90.0756 103.102 86.7295 103.142C85.0564 103.165 83.3833 103.217 81.7506 103.396C80.9372 103.482 80.1295 103.604 79.368 103.788C79.1718 103.823 78.9929 103.886 78.8199 103.944L78.5545 104.031C78.4853 104.054 78.4276 104.065 78.3929 104.088L78.1391 104.215C78.0583 104.273 78.0699 104.388 78.0583 104.475C78.0583 104.532 78.0583 104.59 78.0526 104.648V104.971C78.0699 105.219 78.0814 105.467 78.0987 105.721C78.1333 106.229 78.1795 106.736 78.2314 107.25C78.3295 108.277 78.4506 109.304 78.5718 110.336L79.3564 116.521C79.7545 119.648 80.1583 122.781 80.5564 125.907C80.6718 126.686 80.6949 127.482 80.7872 128.261L81.0583 130.609C81.2314 132.173 81.4045 133.736 81.5776 135.288C82.1083 140.129 82.6737 144.877 82.8641 149.723C82.9045 150.79 82.9449 151.834 82.9276 152.919C82.7603 156.94 82.1718 158.232 81.5833 158.965C81.4391 159.132 81.2833 159.352 81.1679 159.432C80.966 159.565 80.9429 159.236 80.9603 158.532C80.9776 157.817 81.0006 156.721 81.0353 155.319C81.0353 153.219 80.9833 151.073 80.8795 148.904C80.7699 146.734 80.5968 144.536 80.4006 142.321C80.2045 140.106 79.9795 137.879 79.7256 135.634C79.4545 133.396 79.166 131.152 78.866 128.907C78.8141 128.065 78.4795 127.257 78.4103 126.415L78.0872 123.906C77.8679 122.232 77.6487 120.554 77.4237 118.875C76.9853 115.517 76.5237 112.159 76.1256 108.767L76.1776 108.75H76.1891Z" fill="#3B2C7D"/>
<path d="M210.659 103.102C208.057 103.292 205.455 103.448 202.853 103.506C201.901 103.546 200.955 103.598 200.003 103.604C196.651 103.581 193.305 103.448 189.976 103.102C188.499 102.969 187.016 102.842 185.551 102.71C184.61 102.612 183.67 102.537 182.73 102.427C182.262 102.358 181.801 102.248 181.339 102.15C180.878 102.058 180.428 101.862 179.972 101.723C179.407 101.521 179.505 101.435 180.03 101.262C180.341 101.158 180.71 101.037 181.114 100.91C181.559 100.794 182.066 100.737 182.603 100.742C186.393 101.071 190.166 101.319 193.991 101.602C194.562 101.648 195.139 101.683 195.722 101.706C196.305 101.706 196.893 101.706 197.482 101.706C198.659 101.706 199.841 101.631 201.012 101.608C202.305 101.579 203.591 101.498 204.884 101.446C206.17 101.348 207.462 101.296 208.749 101.164C210.335 101.031 211.922 100.869 213.503 100.685C214.703 100.535 215.903 100.379 217.097 100.229C218.291 100.05 219.485 99.877 220.668 99.652C222.503 99.3116 224.274 98.8385 226.068 98.4C226.466 98.3077 226.847 98.1866 227.245 98.1C227.995 97.9789 228.497 97.9385 228.866 97.9904C229.241 98.0597 229.472 98.1866 229.674 98.377C229.766 98.4635 229.882 98.5385 229.945 98.625C230.049 98.7693 229.962 98.9308 229.72 99.1385C229.478 99.3462 229.091 99.6174 228.56 99.8077C227.782 100.137 226.968 100.367 226.143 100.575C225.318 100.789 224.482 100.99 223.639 101.187C221.949 101.55 220.218 101.879 218.482 102.156C215.897 102.577 213.284 102.9 210.67 103.165L210.659 103.114V103.102Z" fill="#3B2C7D"/>
<path d="M231.271 123.86C231.34 121.961 231.346 120.046 231.311 118.131C231.294 117.433 231.225 116.735 231.213 116.036C231.173 113.567 231.086 111.092 231.052 108.611C231.034 107.51 230.954 106.408 230.925 105.317C230.902 104.619 230.856 103.915 230.85 103.211C230.821 102.508 230.925 101.804 230.983 101.1C231.034 100.661 231.156 100.713 231.363 101.077C231.467 101.256 231.6 101.515 231.744 101.821C231.813 101.977 231.888 102.144 231.958 102.323C231.992 102.415 232.015 102.508 232.061 102.6C232.079 102.698 232.096 102.796 232.113 102.894C232.298 104.313 232.54 105.721 232.644 107.146C232.742 108.571 232.84 110.002 232.811 111.444C232.794 113.175 233.013 114.958 233.094 116.723C233.186 118.667 233.233 120.617 233.238 122.567C233.233 123.767 233.221 124.973 233.175 126.173C233.14 127.996 232.944 129.819 232.823 131.625C232.754 132.323 232.719 133.021 232.684 133.719C232.644 134.417 232.569 135.104 232.494 135.796C232.465 136.102 232.436 136.402 232.379 136.708C232.327 136.99 232.275 137.221 232.217 137.417C232.154 137.608 232.067 137.758 231.992 137.879C231.836 138.121 231.669 138.242 231.456 138.323C231.358 138.363 231.259 138.415 231.173 138.433C230.89 138.49 230.7 137.977 230.613 137.129C230.659 135.9 230.625 134.636 230.74 133.385C230.775 132.756 230.821 132.121 230.873 131.486C230.908 130.852 230.948 130.217 230.988 129.577C231.063 127.679 231.219 125.775 231.225 123.86H231.277H231.271Z" fill="#3B2C7D"/>
<path d="M229.805 202.904C229.689 201.796 229.574 200.683 229.481 199.569C229.447 199.159 229.349 198.761 229.337 198.352C229.285 196.904 229.308 195.456 229.372 194.008C229.395 193.367 229.383 192.721 229.418 192.086C229.453 191.677 229.476 191.267 229.522 190.858C229.608 190.454 229.787 190.056 229.937 189.669C230.041 189.427 230.145 189.479 230.306 189.715C230.456 189.952 230.768 190.373 230.901 190.829C231.091 192.427 231.045 193.979 230.981 195.611C230.93 196.586 231.149 197.579 231.253 198.571C231.362 199.661 231.472 200.758 231.616 201.854C231.703 202.529 231.789 203.204 231.887 203.879C232.049 204.9 232.164 205.938 232.366 206.942C232.51 207.727 232.799 208.477 232.955 209.256C232.989 209.429 233.041 209.59 233.064 209.769C233.081 209.931 233.076 210.069 233.064 210.184C233.047 210.3 233.006 210.404 232.966 210.484C232.885 210.652 232.776 210.756 232.626 210.848C232.556 210.888 232.493 210.94 232.43 210.969C232.228 211.061 231.951 210.836 231.633 210.409C230.924 209.106 230.624 207.669 230.295 206.209C230.047 205.131 229.926 204.011 229.753 202.904L229.799 202.892L229.805 202.904Z" fill="#3B2C7D"/>
<path d="M141.489 218.192C145.234 217.725 148.972 217.212 152.722 216.687L158.359 215.919C160.234 215.671 162.178 215.452 164.099 215.36C166.903 215.21 169.689 215.135 172.464 215.187C182.249 215.406 191.941 216.237 201.645 216.519C205.949 216.652 210.276 216.617 214.528 216.381C219.986 216.046 225.409 215.267 230.566 213.698C232.199 213.237 232.043 213.34 230.855 214.281C230.566 214.54 230.18 214.777 229.747 215.077C229.326 215.423 228.784 215.66 228.201 215.937C227.618 216.225 226.966 216.485 226.263 216.721C225.911 216.848 225.547 216.969 225.172 217.073C224.791 217.165 224.405 217.252 224.007 217.338C221.18 217.898 218.336 218.215 215.491 218.417C212.653 218.619 209.814 218.706 206.976 218.694C201.305 218.694 195.657 218.406 189.997 218.054C183.23 217.633 176.186 217.402 169.309 217.46C167.422 217.488 165.53 217.529 163.661 217.667C161.791 217.788 159.934 218.013 158.047 218.279L146.728 219.883C142.072 220.529 137.411 221.123 132.738 221.642C125.659 222.421 118.511 222.958 111.426 223.119C108.674 223.183 105.939 223.188 103.211 223.096C100.482 223.015 97.7529 222.813 95.0183 222.387C94.7183 222.34 94.4183 222.3 94.1183 222.254L93.2241 222.081C92.6299 221.96 92.0299 221.862 91.4356 221.683C90.8818 221.521 90.3799 221.377 89.9183 221.244C89.4568 221.106 89.0472 220.927 88.6722 220.788C88.2972 220.638 87.9626 220.512 87.6626 220.367C87.3683 220.212 87.1029 220.073 86.8722 219.929C86.4164 219.635 86.0529 219.421 85.7991 219.144C85.5453 218.879 85.3606 218.637 85.2164 218.406C85.0837 218.192 84.8876 217.962 84.8299 217.812C84.6453 217.327 86.3703 217.927 89.3645 218.81C93.8645 220.044 98.7453 220.506 103.701 220.673C106.182 220.742 108.686 220.754 111.213 220.679C113.734 220.627 116.266 220.517 118.805 220.367C126.345 219.912 133.926 219.11 141.472 218.112L141.489 218.169V218.192Z" fill="#3B2C7D"/>
<path d="M84.789 211.95C84.7602 212.348 84.7256 212.746 84.6967 213.144C84.6852 213.294 84.7313 213.444 84.7198 213.594C84.6621 214.137 84.5698 214.702 84.414 215.244C84.3794 215.365 84.3679 215.487 84.3448 215.608L84.264 215.971C84.2236 216.121 84.1948 216.277 84.1371 216.427C84.0506 216.565 83.9006 216.687 83.7621 216.802C83.664 216.871 83.5602 216.819 83.3929 216.692C83.2371 216.565 82.9429 216.346 82.8159 216.167C82.764 216.023 82.7467 215.896 82.7179 215.763C82.6948 215.637 82.6429 215.504 82.6659 215.383C82.689 215.14 82.7352 214.887 82.8332 214.621C82.9659 214.292 82.8563 213.952 82.8506 213.6C82.8506 213.202 82.8506 212.798 82.8563 212.4C82.8621 212.146 82.8736 211.892 82.8794 211.638C82.8794 211.252 82.9256 210.865 82.8909 210.485C82.8679 210.19 82.7179 209.89 82.7063 209.59C82.7063 209.527 82.6832 209.458 82.689 209.394C82.689 209.273 82.7756 209.192 82.8679 209.146C82.9198 209.123 82.9775 209.1 83.0467 209.088C83.1332 209.077 83.2371 209.071 83.3294 209.065L83.5544 209.048C83.7102 209.037 84.1717 209.163 84.2929 209.337C84.4198 209.463 84.4775 209.585 84.5583 209.712C84.639 209.833 84.7082 209.96 84.7256 210.081C84.7775 210.323 84.8063 210.571 84.8179 210.819C84.8409 211.188 84.8179 211.563 84.8409 211.95H84.7948H84.789Z" fill="#3B2C7D"/>
<path d="M171.813 183.444C171.813 183.444 171.807 183.444 171.801 183.444C171.784 183.473 171.767 183.479 171.749 183.468C171.305 183.398 170.861 183.416 170.411 183.381C169.961 183.358 169.505 183.335 169.026 183.329C168.553 183.317 168.069 183.329 167.596 183.364C167.128 183.416 166.649 183.364 166.217 183.658C166.199 183.664 166.188 183.698 166.171 183.698C166.171 183.698 166.165 183.698 166.159 183.71C166.13 183.796 166.136 184.108 166.171 184.408C166.205 184.708 166.269 185.014 166.315 185.089C166.315 185.094 166.321 185.1 166.326 185.1C166.344 185.1 166.361 185.123 166.378 185.129C166.419 185.152 166.459 185.192 166.494 185.204H166.603C167.03 185.25 167.44 185.181 167.849 185.175C168.259 185.164 168.657 185.169 169.073 185.187C169.482 185.204 169.909 185.239 170.342 185.273C170.774 185.291 171.207 185.371 171.646 185.337C171.663 185.325 171.68 185.337 171.692 185.366C171.692 185.371 171.698 185.371 171.703 185.371C171.744 185.285 171.801 184.783 171.819 184.408C171.836 184.033 171.836 183.531 171.801 183.439L171.813 183.444Z" fill="#242021"/>
<path d="M162.693 183.842C162.693 183.842 162.687 183.842 162.681 183.848C162.664 183.877 162.646 183.888 162.623 183.883C162.093 183.894 161.573 184.004 161.048 184.062L159.473 184.269L157.898 184.477C157.379 184.569 156.843 184.54 156.341 184.84C156.323 184.846 156.306 184.881 156.289 184.881C156.289 184.881 156.283 184.881 156.277 184.892C156.243 184.979 156.248 185.29 156.283 185.59C156.318 185.89 156.393 186.196 156.439 186.271C156.439 186.277 156.45 186.283 156.45 186.283C156.468 186.283 156.496 186.306 156.514 186.312C156.56 186.335 156.606 186.375 156.652 186.387H156.779C157.293 186.415 157.794 186.317 158.296 186.271L159.808 186.104L161.319 185.937C161.821 185.867 162.329 185.856 162.831 185.74C162.848 185.729 162.871 185.74 162.889 185.763C162.889 185.763 162.9 185.769 162.9 185.763C162.929 185.665 162.906 185.163 162.866 184.794C162.825 184.425 162.727 183.929 162.675 183.842H162.693Z" fill="#242021"/>
<path d="M153.485 185.146C153.485 185.146 153.479 185.146 153.473 185.152C153.462 185.181 153.445 185.198 153.422 185.187C152.943 185.227 152.487 185.36 152.02 185.429C151.552 185.515 151.091 185.596 150.629 185.665C150.168 185.74 149.7 185.804 149.227 185.862C148.76 185.942 148.275 185.902 147.825 186.185C147.808 186.19 147.797 186.225 147.779 186.225C147.779 186.225 147.773 186.225 147.768 186.237C147.739 186.323 147.739 186.635 147.768 186.935C147.797 187.235 147.86 187.54 147.906 187.615C147.906 187.621 147.912 187.627 147.918 187.627C147.935 187.627 147.958 187.65 147.975 187.656C148.016 187.679 148.062 187.719 148.102 187.731H148.224C148.691 187.777 149.152 187.69 149.62 187.65C150.087 187.604 150.554 187.546 151.016 187.483C151.483 187.419 151.945 187.35 152.406 187.275C152.868 187.189 153.329 187.154 153.779 187.015C153.797 187.004 153.814 187.01 153.837 187.033C153.837 187.033 153.843 187.039 153.849 187.033C153.872 186.935 153.808 186.439 153.739 186.069C153.67 185.7 153.543 185.215 153.491 185.129L153.485 185.146Z" fill="#242021"/>
<path d="M144.519 186.173C144.519 186.173 144.513 186.173 144.507 186.173C144.496 186.202 144.478 186.213 144.461 186.202C144.023 186.185 143.602 186.265 143.169 186.294L141.877 186.415L140.584 186.537C140.157 186.6 139.719 186.537 139.303 186.813C139.286 186.819 139.275 186.854 139.257 186.848C139.257 186.848 139.252 186.848 139.246 186.86C139.217 186.946 139.211 187.258 139.228 187.558C139.246 187.858 139.298 188.163 139.338 188.244C139.338 188.25 139.344 188.256 139.35 188.256C139.367 188.256 139.384 188.279 139.402 188.285C139.436 188.313 139.477 188.354 139.511 188.365H139.621C140.042 188.429 140.457 188.354 140.878 188.337L142.13 188.256L143.382 188.175C143.798 188.135 144.219 188.146 144.634 188.06C144.652 188.048 144.669 188.06 144.686 188.083C144.686 188.083 144.692 188.088 144.698 188.083C144.727 187.99 144.703 187.488 144.669 187.113C144.634 186.738 144.559 186.242 144.519 186.156V186.173Z" fill="#242021"/>
<path d="M136.94 186.358C136.94 186.358 136.94 186.358 136.934 186.358C136.922 186.387 136.911 186.398 136.893 186.387C136.553 186.346 136.218 186.404 135.878 186.41L134.863 186.456L133.847 186.502C133.507 186.542 133.166 186.456 132.832 186.704C132.82 186.704 132.809 186.744 132.797 186.739C132.797 186.739 132.797 186.739 132.791 186.75C132.763 186.831 132.745 187.142 132.751 187.442C132.757 187.742 132.78 188.054 132.809 188.135C132.809 188.141 132.815 188.146 132.815 188.146C132.826 188.146 132.843 188.175 132.855 188.181C132.884 188.21 132.913 188.25 132.941 188.267L133.028 188.279C133.357 188.36 133.691 188.308 134.02 188.319L135.013 188.308L136.005 188.296C136.334 188.279 136.668 188.319 136.997 188.256C137.009 188.244 137.02 188.256 137.038 188.285C137.038 188.29 137.038 188.29 137.043 188.285C137.066 188.192 137.061 187.691 137.043 187.316C137.026 186.941 136.974 186.439 136.945 186.352L136.94 186.358Z" fill="#242021"/>
<path d="M153.538 170.718C153.538 170.718 153.532 170.718 153.526 170.723C153.515 170.752 153.497 170.769 153.48 170.758C153.001 170.798 152.546 170.931 152.078 171C151.611 171.087 151.149 171.167 150.688 171.237C150.226 171.312 149.759 171.375 149.286 171.433C148.819 171.514 148.334 171.473 147.884 171.756C147.867 171.762 147.855 171.796 147.838 171.796C147.838 171.796 147.832 171.796 147.826 171.808C147.797 171.894 147.797 172.206 147.826 172.506C147.855 172.806 147.919 173.112 147.965 173.187C147.965 173.193 147.971 173.198 147.976 173.198C147.994 173.198 148.017 173.221 148.034 173.227C148.074 173.25 148.121 173.291 148.161 173.302H148.282C148.749 173.348 149.211 173.262 149.678 173.221C150.146 173.175 150.613 173.117 151.074 173.054C151.542 172.991 152.003 172.921 152.465 172.846C152.926 172.76 153.388 172.725 153.838 172.587C153.855 172.575 153.872 172.581 153.896 172.604C153.896 172.604 153.907 172.61 153.907 172.604C153.93 172.506 153.867 172.01 153.797 171.641C153.728 171.271 153.601 170.787 153.549 170.7L153.538 170.718Z" fill="#242021"/>
<path d="M144.566 171.738C144.566 171.738 144.56 171.738 144.554 171.738C144.543 171.767 144.525 171.779 144.508 171.767C144.075 171.75 143.648 171.831 143.216 171.86L141.923 171.981L140.631 172.102C140.204 172.165 139.766 172.102 139.35 172.379C139.333 172.385 139.322 172.419 139.304 172.414C139.304 172.414 139.298 172.413 139.293 172.425C139.264 172.512 139.258 172.823 139.275 173.123C139.293 173.423 139.345 173.729 139.385 173.81C139.385 173.815 139.391 173.821 139.397 173.821C139.414 173.821 139.431 173.844 139.448 173.85C139.483 173.873 139.523 173.919 139.558 173.931H139.668C140.089 173.994 140.504 173.919 140.925 173.902L142.177 173.821L143.429 173.74C143.845 173.7 144.266 173.712 144.681 173.625C144.698 173.614 144.716 173.625 144.733 173.648C144.733 173.648 144.739 173.654 144.745 173.648C144.773 173.556 144.75 173.054 144.716 172.679C144.681 172.304 144.606 171.808 144.566 171.721V171.738Z" fill="#242021"/>
<path d="M136.986 171.929C136.986 171.929 136.986 171.929 136.981 171.929C136.969 171.957 136.958 171.969 136.94 171.957C136.6 171.917 136.265 171.975 135.925 171.981L134.91 172.027L133.894 172.073C133.554 172.113 133.213 172.027 132.879 172.275C132.867 172.275 132.856 172.315 132.844 172.309C132.844 172.309 132.844 172.309 132.838 172.321C132.81 172.402 132.792 172.713 132.798 173.013C132.804 173.313 132.827 173.625 132.856 173.706C132.856 173.711 132.861 173.717 132.861 173.717C132.873 173.717 132.89 173.746 132.902 173.752C132.931 173.781 132.96 173.821 132.988 173.838L133.075 173.85C133.404 173.931 133.738 173.879 134.067 173.89L135.06 173.879L136.052 173.867C136.381 173.85 136.715 173.89 137.044 173.827C137.056 173.815 137.067 173.827 137.085 173.856C137.085 173.861 137.085 173.861 137.09 173.856C137.113 173.763 137.108 173.261 137.09 172.886C137.073 172.511 137.021 172.009 136.992 171.923L136.986 171.929Z" fill="#242021"/>
<path d="M197.371 163.563C197.331 163.984 197.4 164.498 197.538 165.017C197.688 165.542 197.896 166.073 198.144 166.604C198.64 167.665 199.304 168.692 200.007 169.696C201.432 171.698 203.123 173.55 204.934 175.275C206.261 176.533 207.692 177.681 209.129 178.811C211.673 180.808 214.384 182.579 217.211 184.177C220.027 185.781 222.992 187.108 226.084 188.054C228.825 188.89 231.692 189.358 234.531 189.433C234.986 189.456 235.442 189.433 235.898 189.433C236.354 189.415 236.809 189.438 237.265 189.386C238.177 189.306 239.088 189.271 239.988 189.115C241.811 188.931 243.577 188.481 245.429 188.296C246.606 188.233 246.473 188.296 245.613 188.879C245.4 189.035 245.134 189.202 244.834 189.409C244.759 189.461 244.679 189.508 244.598 189.577C244.511 189.623 244.431 189.669 244.338 189.715C244.159 189.813 243.975 189.906 243.773 189.981C243.369 190.148 242.925 190.315 242.446 190.477C242.204 190.552 241.956 190.633 241.707 190.713C241.448 190.765 241.182 190.811 240.906 190.852C237.04 191.469 233.048 191.458 229.182 190.702C228.213 190.546 227.267 190.281 226.309 190.05C225.375 189.761 224.423 189.508 223.511 189.15C221.659 188.498 219.882 187.679 218.152 186.779C214.032 184.615 209.879 182.1 206.209 179.059C204.196 177.392 202.286 175.586 200.544 173.613C198.813 171.634 197.198 169.517 196.113 167.008C195.75 166.119 195.438 165.184 195.381 164.146C195.357 163.627 195.404 163.079 195.571 162.542C195.767 162 196.079 161.509 196.534 161.111C196.915 160.771 197.481 160.633 197.942 160.65C198.392 160.667 198.779 160.765 199.136 160.892C199.852 161.152 200.475 161.498 201.081 161.861C203.192 163.142 205.102 164.608 207.04 166.027C208.973 167.446 210.9 168.859 212.931 170.031C214.021 170.654 215.14 171.208 216.282 171.531C216.848 171.681 217.425 171.784 217.95 171.75C218.469 171.733 218.959 171.536 219.271 171.271C219.369 171.184 219.427 171.075 219.444 170.936C219.467 170.786 219.456 170.579 219.415 170.365C219.329 169.927 219.138 169.459 218.902 169.009C218.561 168.363 218.117 167.769 217.673 167.158C216.819 166.033 216.132 165.415 215.694 164.942C215.267 164.44 215.019 164.123 214.817 163.817C214.725 163.673 214.575 163.534 214.517 163.436C214.413 163.281 214.679 163.223 215.29 163.327C215.89 163.436 216.819 163.777 217.719 164.561C218.244 164.994 218.729 165.467 219.184 165.981C219.409 166.24 219.634 166.5 219.842 166.783C220.044 167.065 220.229 167.365 220.407 167.671C220.754 168.294 221.071 168.958 221.261 169.759C221.348 170.163 221.411 170.613 221.342 171.144C221.273 171.675 220.984 172.333 220.488 172.708C220.269 172.863 220.171 172.95 219.992 173.048C219.831 173.146 219.663 173.227 219.49 173.296C219.144 173.434 218.786 173.527 218.446 173.567C217.748 173.654 217.096 173.596 216.49 173.469C215.284 173.215 214.234 172.754 213.231 172.246C211.24 171.219 209.452 169.979 207.698 168.721C205.869 167.411 204.098 166.044 202.304 164.792C201.854 164.481 201.404 164.175 200.954 163.886C200.498 163.604 200.025 163.361 199.569 163.142C199.113 162.929 198.652 162.75 198.277 162.669C198.092 162.623 197.919 162.606 197.861 162.617C197.838 162.617 197.838 162.617 197.821 162.617C197.613 162.819 197.452 163.125 197.417 163.569H197.365L197.371 163.563Z" fill="#3B2C7D"/>
<path opacity="0.2" d="M117.009 144.173C117.009 144.173 112.538 189.196 92.9454 202.857C89.3338 205.373 84.3319 205.742 79.6992 205.742C79.6992 205.742 97.9588 216.957 100.445 212.302C102.932 207.64 109.849 173.163 110.49 172.332C111.13 171.502 117.003 144.173 117.003 144.173H117.009Z" fill="#3B2C7D"/>
<path d="M111.075 169.627L108.473 179.561L107.538 183.19C106.39 187.442 105.208 191.682 103.996 195.911C103.471 197.792 102.94 199.684 102.415 201.548C101.729 203.942 101.111 206.365 100.211 208.696C99.8307 209.388 99.8769 209.296 99.8711 208.609C99.8711 207.923 99.9865 206.7 100.39 205.321C101.758 200.429 103.165 195.559 104.59 190.638C105.456 187.702 106.2 184.598 107.002 181.569L109.61 171.565C110.14 169.511 110.671 167.457 111.202 165.404C112.004 162.294 112.811 159.167 113.608 156.081C113.908 154.875 114.202 153.686 114.49 152.498C114.796 151.315 115.096 150.132 115.402 148.944C115.54 148.425 115.673 147.911 115.811 147.386C116.083 146.411 116.267 145.777 116.429 145.338C116.596 144.9 116.729 144.657 116.856 144.467C116.913 144.381 116.971 144.259 117.011 144.213C117.075 144.132 117.069 144.294 117.035 144.663C117 145.032 116.919 145.604 116.752 146.325C116.267 148.465 115.777 150.657 115.275 152.884C114.727 155.1 114.173 157.344 113.619 159.594C112.777 162.934 111.935 166.286 111.092 169.638H111.069L111.075 169.627Z" fill="#3B2C7D"/>
<path d="M117.007 144.173L118.801 143.815C119.615 143.815 106.207 200.365 102.97 210.248C102.693 211.084 100.449 212.301 100.449 212.301L117.007 144.173Z" fill="#3B2C7D"/>
<path d="M97.8711 207.288L101.038 209.048L101.581 207.109L98.4134 205.742L97.8711 207.288Z" fill="#3B2C7D"/>
<path d="M101.582 194.561L104.744 196.315L105.292 194.382L102.124 193.009L101.582 194.561Z" fill="#3B2C7D"/>
<path d="M105.75 179.452L108.917 181.212L109.46 179.273L106.292 177.906L105.75 179.452Z" fill="#3B2C7D"/>
<path d="M109.277 164.059L112.439 165.813L112.981 163.88L109.82 162.513L109.277 164.059Z" fill="#3B2C7D"/>
<path d="M98.8008 200.746L102.891 202.857L103.433 200.925L99.3431 199.2L98.8008 200.746Z" fill="#3B2C7D"/>
<path d="M102.969 187.044L107.059 189.156L107.607 187.223L103.511 185.492L102.969 187.044Z" fill="#3B2C7D"/>
<path d="M106.488 171.323L110.584 173.435L111.127 171.502L107.036 169.777L106.488 171.323Z" fill="#3B2C7D"/>
<path d="M96.734 155.486C93.6705 157.563 90.6128 159.64 87.5782 161.752C86.4705 162.519 85.4032 163.35 84.2955 164.117C80.3955 166.834 76.5013 169.557 72.682 172.379C70.9859 173.631 69.3243 174.946 67.709 176.267C66.6763 177.127 65.6493 177.992 64.5878 178.823C64.0628 179.244 63.5378 179.659 63.0013 180.069L62.1878 180.669C61.9109 180.865 61.5936 181.004 61.3109 181.188C60.5897 181.627 60.4974 181.35 60.7974 180.606C60.959 180.242 61.1378 179.671 61.507 179.163C61.8647 178.632 62.3263 178.067 62.9032 177.548C64.9455 175.684 67.1263 173.994 69.3128 172.309C71.4993 170.625 73.7494 169.009 76.057 167.457C78.809 165.594 81.5378 163.471 84.307 161.509C87.3532 159.352 90.4224 157.234 93.4917 155.111C95.3782 153.807 97.2705 152.504 99.157 151.206C102.007 149.221 104.892 147.254 107.672 145.217C109.83 143.631 111.861 141.957 113.944 140.319C114.399 139.956 114.844 139.598 115.305 139.234C116.165 138.571 116.765 138.173 117.249 137.977C117.486 137.873 117.694 137.815 117.878 137.792C118.074 137.781 118.259 137.804 118.432 137.838C118.588 137.873 118.767 137.873 118.876 137.919C119.217 138.023 118.83 138.986 117.636 140.065C114.088 143.25 110.044 146.215 105.959 149.129C102.924 151.292 99.832 153.409 96.7686 155.544L96.734 155.504V155.486Z" fill="#3B2C7D"/>
<path d="M76.1953 204.467L81.9299 206.798C82.628 207.08 83.3491 207.311 84.0357 207.611C86.4818 208.655 88.8934 209.786 91.2876 210.952C92.3549 211.454 93.4222 211.979 94.4895 212.463C95.1703 212.792 95.8626 213.104 96.5261 213.461C97.1838 213.836 97.8068 214.286 98.4068 214.759C98.7761 215.059 98.528 215.342 97.9857 215.498C97.4434 215.648 96.5838 215.711 95.8049 215.394C93.0761 214.159 90.3588 212.89 87.653 211.442C86.0318 210.582 84.2203 209.977 82.478 209.273C80.5626 208.5 78.6472 207.732 76.7203 206.977L73.1549 205.604C71.3491 204.929 69.5376 204.219 67.7261 203.602C66.3126 203.123 64.8934 202.748 63.4799 202.304C63.1684 202.205 62.8568 202.13 62.5453 202.015C61.4203 201.53 61.1203 201.248 61.0684 200.665C61.0568 200.538 61.0222 200.405 61.028 200.296C61.0453 199.944 61.6511 199.754 62.5338 199.921C65.1414 200.417 67.7549 201.3 70.3741 202.24C72.3184 202.932 74.2626 203.682 76.2068 204.409L76.1895 204.461L76.1953 204.467Z" fill="#3B2C7D"/>
<path d="M112.537 169.252L109.641 180.409C109.289 181.765 108.989 183.138 108.614 184.488C107.293 189.254 105.926 194.002 104.553 198.744C103.941 200.85 103.376 202.979 102.81 205.079C102.453 206.429 102.089 207.784 101.726 209.134C101.541 209.809 101.334 210.479 101.103 211.142L100.757 212.134C100.63 212.463 100.462 212.775 100.295 213.092C99.8105 213.859 99.8336 213.744 99.7066 212.942C99.5278 212.123 99.4297 210.686 99.8278 209.129C101.305 203.63 102.805 198.144 104.455 192.64C105.453 189.352 106.22 185.855 107.085 182.452C108.043 178.707 109.001 174.963 109.959 171.219C110.53 168.911 111.101 166.598 111.672 164.29C112.52 160.788 113.38 157.269 114.17 153.784C114.476 152.429 114.747 151.079 115.012 149.729C115.272 148.379 115.537 147.034 115.849 145.696C115.982 145.107 116.097 144.525 116.247 143.93C116.512 142.829 116.737 142.119 116.962 141.629C117.182 141.144 117.378 140.879 117.614 140.682C117.724 140.596 117.834 140.469 117.926 140.423C118.226 140.267 118.272 141.225 118.11 142.886C117.522 147.79 116.472 152.867 115.307 157.944C114.435 161.711 113.507 165.484 112.584 169.246H112.532L112.537 169.252Z" fill="#3B2C7D"/>
<path d="M95.0452 182.181C96.5856 178.54 98.051 174.888 99.2279 171.15C99.4356 170.527 99.6029 169.898 99.776 169.269L100.059 168.231L100.088 168.138C100.105 168.058 100.157 167.971 100.157 167.884C100.105 167.809 100.013 167.861 99.9433 167.873C99.7818 167.925 99.6491 167.983 99.4414 168.086C98.351 168.675 97.2606 169.333 96.1818 169.996C94.0241 171.329 91.8837 172.713 89.7549 174.115C87.8625 175.356 85.9933 176.654 84.1414 177.935C82.9529 178.754 81.7702 179.59 80.5645 180.398C79.9645 180.808 79.3472 181.188 78.7183 181.546L77.7722 182.083C77.4491 182.25 77.1029 182.377 76.7568 182.504C75.8568 182.763 75.9549 182.688 76.4222 181.996C76.8606 181.258 77.7722 180.104 79.1279 179.158C83.9798 175.863 88.7914 172.465 93.8741 169.338C95.2183 168.513 96.5683 167.648 97.9702 166.806L98.501 166.494L98.9106 166.263C99.0606 166.183 99.2049 166.096 99.3549 166.021C99.9433 165.709 100.561 165.438 101.051 165.381C101.299 165.346 101.518 165.352 101.72 165.398C101.824 165.421 101.922 165.45 102.032 165.513C102.141 165.571 102.245 165.686 102.28 165.767C102.326 165.831 102.314 165.975 102.326 166.084L102.349 166.431L102.395 167.123C102.309 167.469 102.222 167.815 102.141 168.161L102.014 168.681C101.974 168.842 101.916 169.056 101.893 169.131C101.351 171.075 100.734 173.002 100.07 174.9C99.3952 176.798 98.6741 178.679 97.9241 180.536C97.001 182.827 96.0318 185.094 95.0972 187.361C94.526 188.752 93.9548 190.142 93.4068 191.538C93.1356 192.236 92.8645 192.935 92.6048 193.638L92.2183 194.688L91.7568 196.021L91.4222 196.586L91.3356 196.725C91.2664 196.702 91.2318 196.754 91.1856 196.759C91.0933 196.788 90.9837 196.771 90.8741 196.765C90.4298 196.725 89.9222 196.506 89.4549 196.344C88.0818 195.848 86.7548 195.381 85.4106 194.936C84.0664 194.498 82.7337 194.059 81.3895 193.621C80.7952 193.436 80.2183 193.258 79.6241 193.067C77.4202 192.386 76.7625 192.029 76.3529 191.567C76.2606 191.458 76.1279 191.348 76.0818 191.256C75.9087 190.961 76.9125 190.875 78.6491 191.134C79.7799 191.342 80.9106 191.596 82.0472 191.879C82.6125 192.023 83.1779 192.173 83.7491 192.317C84.3145 192.479 84.8741 192.658 85.4395 192.842C86.5645 193.206 87.6895 193.592 88.8087 193.984L89.6452 194.279L90.0606 194.423C90.1587 194.458 90.1298 194.446 90.1356 194.446C90.1414 194.446 90.1356 194.434 90.1356 194.434L90.2049 194.227L90.5106 193.367C91.8779 189.56 93.4933 185.861 94.9991 182.175L95.051 182.192L95.0452 182.181Z" fill="#3B2C7D"/>
<path d="M265.137 208.8C264.353 209.821 263.545 210.825 262.679 211.783C262.356 212.129 262.085 212.51 261.745 212.844C260.574 214.021 259.281 215.1 257.868 215.983C257.551 216.173 257.245 216.386 256.928 216.571C256.604 216.75 256.281 216.929 255.958 217.108C255.537 217.327 255.087 217.488 254.649 217.667C254.204 217.835 253.72 217.898 253.258 217.973C252.964 218.008 252.964 217.788 253.137 217.5C253.316 217.211 253.645 216.836 254.095 216.64L255.249 216.006C255.618 215.763 256.004 215.561 256.379 215.331C256.743 215.077 257.112 214.835 257.487 214.586C257.839 214.315 258.208 214.05 258.589 213.802C259.022 213.473 259.443 213.104 259.841 212.706C260.222 212.29 260.614 211.886 260.983 211.46C261.393 210.992 261.814 210.542 262.201 210.046C262.599 209.567 262.985 209.077 263.354 208.575C263.822 207.963 264.26 207.329 264.704 206.694C265.351 205.719 265.997 204.733 266.551 203.706C266.972 202.904 267.306 202.079 267.681 201.265C267.762 201.086 267.826 200.902 267.935 200.735C268.322 200.106 268.529 199.944 268.864 199.933C268.939 199.933 269.02 199.915 269.089 199.927C269.314 199.956 269.36 200.319 269.245 200.873C268.91 202.517 268.103 204.046 267.249 205.552C266.614 206.671 265.899 207.756 265.166 208.823L265.131 208.8H265.137Z" fill="#3B2C7D"/>
</svg>
