<svg width="300" height="300" viewBox="0 0 300 300" fill="none" xmlns="http://www.w3.org/2000/svg">
<g opacity="0.5">
<path d="M72.4629 97.9441C73.4552 97.5172 74.4013 96.9748 75.2956 96.3287C76.1956 95.6998 77.0494 94.9729 77.8456 94.1825C79.4552 92.6133 80.8513 90.7902 82.0975 88.8691C83.3437 86.9422 84.4283 84.8941 85.3744 82.7825C86.3206 80.6768 87.1398 78.4845 87.7398 76.2922C88.184 74.7402 88.311 73.1422 88.034 71.6364C87.7687 70.1479 86.9437 68.8095 85.836 68.7633C85.3398 68.7114 84.7456 68.8845 84.1744 69.196C83.609 69.5191 83.0552 69.9402 82.5417 70.4306C81.509 71.3998 80.5975 72.5768 79.7725 73.7998C78.9533 75.0345 78.186 76.3152 77.4821 77.6479C77.1244 78.3056 76.7956 78.9864 76.4552 79.6556L75.9937 80.6652L75.5783 81.6922C74.5283 84.4614 73.8879 87.3979 73.7725 90.3518C73.6629 93.2941 74.0956 96.2825 75.336 98.9248C76.4263 101.256 78.1802 103.315 80.4706 104.4C81.6013 104.948 82.8417 105.248 84.0937 105.3C85.3456 105.352 86.6033 105.138 87.7975 104.729C89.3379 104.209 90.7744 103.367 92.0783 102.346C93.3937 101.336 94.5879 100.154 95.684 98.8729C96.7687 97.5864 97.7956 96.2364 98.7071 94.8056C99.6244 93.3748 100.484 91.9037 101.355 90.4268C102.417 88.5691 102.336 88.8345 101.828 90.5998C101.338 92.3652 100.323 95.6941 97.9167 99.046C96.8494 100.517 95.6552 101.925 94.2821 103.188C92.909 104.446 91.2994 105.496 89.5283 106.258L88.859 106.534L88.1667 106.759C87.711 106.927 87.2206 107.008 86.7475 107.123C85.7783 107.284 84.786 107.394 83.7937 107.308C83.2975 107.302 82.8013 107.192 82.311 107.123C81.8263 106.996 81.336 106.898 80.8744 106.708C79.9283 106.384 79.0456 105.906 78.2379 105.352C77.4129 104.804 76.709 104.117 76.0456 103.408C75.4167 102.669 74.834 101.896 74.3667 101.059C73.3975 99.4095 72.7744 97.5979 72.411 95.7633C71.6898 92.0825 71.984 88.3325 72.884 84.796C73.4379 82.6845 74.1994 80.596 75.1802 78.6172C76.1321 76.6556 77.1706 74.7114 78.4052 72.8479C79.6571 71.0075 81.0071 69.1556 83.0552 67.8229C83.2975 67.6498 83.5975 67.5229 83.8687 67.3729C84.1687 67.2575 84.4571 67.1191 84.7917 67.0556C85.4321 66.8825 86.1821 66.8825 86.8687 67.1133C87.561 67.3383 88.1494 67.7825 88.5821 68.2902C89.0263 68.7979 89.309 69.3748 89.5456 69.946C90.5033 72.4845 90.1917 75.196 89.4994 77.5441C88.8187 79.8922 87.9417 82.1537 86.9263 84.3633C85.911 86.5672 84.7513 88.7075 83.3898 90.7325C82.0398 92.7575 80.4879 94.6787 78.6821 96.3575C76.4725 98.4229 73.7783 100.113 70.7494 100.84C69.2437 101.209 67.686 101.336 66.1398 101.221C64.5821 101.14 63.0417 100.684 61.6398 99.9864C60.5552 99.4787 59.6263 98.7056 58.7667 97.8979C58.3744 97.4537 57.9475 97.0441 57.6187 96.5537C57.4456 96.3172 57.261 96.0864 57.1052 95.8383L56.6552 95.0883C55.4725 93.0633 54.8379 90.8018 54.509 88.5287C54.2033 86.2498 54.3071 83.9191 54.7167 81.6979C55.1033 79.4595 55.761 77.3018 56.5398 75.2018C57.7802 71.9479 59.3379 68.8614 61.259 65.9883C62.2225 64.5575 63.2725 63.1787 64.4783 61.9037C65.7014 60.6518 67.0456 59.4518 68.7879 58.6845C69.5783 58.3729 70.409 58.1364 71.3956 58.2287L71.7706 58.2633C71.909 58.2922 72.0648 58.3383 72.2033 58.3902C72.4802 58.5114 72.7456 58.6672 72.9475 58.8979C73.3687 59.3248 73.536 60.0287 73.5302 60.5537C73.5187 61.4768 73.2763 62.1518 73.0456 62.7575C72.8033 63.3575 72.5379 63.8652 72.2725 64.3095C71.736 65.1979 71.1879 65.8268 70.7148 66.3172C70.236 66.8075 69.809 67.1422 69.4283 67.3787C69.0417 67.6095 68.6898 67.7422 68.3783 67.8402C68.0898 67.9268 67.7379 68.0479 67.559 68.0595C66.9417 68.0825 68.8456 66.7614 70.6629 63.3806C70.9917 62.7633 71.2687 62.1114 71.4302 61.4883C71.511 61.1768 71.5571 60.871 71.5571 60.6229C71.5571 60.4787 71.5456 60.4325 71.5283 60.3979C71.5167 60.3575 71.4937 60.3229 71.4648 60.2883C71.436 60.2595 71.4014 60.2364 71.361 60.2306C71.3437 60.2248 71.3206 60.2248 71.3033 60.2191H71.1533L70.9917 60.2018C70.934 60.2018 70.859 60.2191 70.7898 60.2248C70.6513 60.2422 70.5187 60.2422 70.3744 60.2883C69.809 60.4095 69.2033 60.6922 68.6321 61.0614C67.4725 61.7825 66.411 62.8268 65.4244 63.9287C64.4437 65.0422 63.5379 66.2595 62.7071 67.5402C61.0456 70.096 59.6494 72.871 58.5648 75.7499C57.486 78.6287 56.6956 81.646 56.5225 84.6287C56.4187 86.8268 56.6667 89.0595 57.3475 91.1364C57.4917 91.6672 57.7283 92.1518 57.9187 92.6595C58.1725 93.1325 58.3687 93.6402 58.6687 94.0787C59.1937 95.0075 59.8802 95.8152 60.6244 96.5248L61.2071 97.0325L61.836 97.471C61.9398 97.5402 62.0437 97.621 62.1533 97.6902L62.4937 97.8691C62.7244 97.9845 62.9379 98.1172 63.1744 98.2152C63.659 98.3825 64.1206 98.6075 64.634 98.6941C64.8879 98.746 65.136 98.8268 65.3898 98.8672L66.1687 98.9537L66.561 98.9999H66.9648C67.2302 98.9999 67.5013 99.0172 67.7667 99.0056C68.2975 98.9595 68.834 98.9422 69.359 98.8325C69.8898 98.7633 70.4033 98.6018 70.9225 98.4748C71.4302 98.2902 71.9437 98.1402 72.434 97.8979L72.4687 97.9441H72.4629Z" fill="#3B2C7D"/>
</g>
<path opacity="0.45" d="M123.267 143.071L120.209 142.085L117.919 144.6L117.954 141.242L114.867 140.169C115.744 139.783 117.775 139.015 117.775 139.015C117.775 139.015 118.363 136.973 118.329 135.906L120.411 138.133C120.411 138.133 123.238 137.913 123.406 137.89C123.209 138.329 121.606 140.221 121.606 140.221C121.606 140.221 122.575 141.738 123.273 143.071H123.267Z" fill="#3B2C7D"/>
<path d="M186.91 202.131L186.039 199.038L182.676 198.525L185.491 196.696L184.672 193.529C185.48 194.042 187.245 195.311 187.245 195.311C187.245 195.311 189.27 194.671 190.141 194.048L189.437 197.019C189.437 197.019 191.185 199.252 191.295 199.373C190.822 199.454 188.358 199.165 188.358 199.165C188.358 199.165 187.632 200.815 186.91 202.131Z" fill="#3B2C7D"/>
<path opacity="0.45" d="M258.434 95.1751L257.689 92.527L254.816 92.0886L257.222 90.5251L256.524 87.8193C257.216 88.2578 258.722 89.3424 258.722 89.3424C258.722 89.3424 260.453 88.7943 261.197 88.2636L260.597 90.802C260.597 90.802 262.091 92.7116 262.189 92.8155C261.786 92.8847 259.68 92.6366 259.68 92.6366C259.68 92.6366 259.057 94.0443 258.439 95.1751H258.434Z" fill="#3B2C7D"/>
<path d="M249.889 82.2289L245.764 80.8154L242.724 84.2769V79.6212L238.559 78.0923C239.73 77.5673 242.453 76.5288 242.453 76.5288C242.453 76.5288 243.214 73.7077 243.151 72.2192L245.984 75.3404C245.984 75.3404 249.78 75.075 250.005 75.0404C249.745 75.6519 247.611 78.2481 247.611 78.2481C247.611 78.2481 248.932 80.3712 249.889 82.2289Z" fill="#3B2C7D"/>
<path d="M29.7304 212.44L28.4669 208.621L24.2266 208.315L27.6477 205.719L26.4477 201.808C27.4862 202.373 29.7708 203.792 29.7708 203.792C29.7708 203.792 32.2689 202.777 33.3246 201.906L32.615 205.725C32.615 205.725 34.9285 208.367 35.0727 208.511C34.4843 208.661 31.3862 208.546 31.3862 208.546C31.3862 208.546 30.5669 210.698 29.7362 212.44H29.7304Z" fill="#3B2C7D"/>
<path d="M140.821 48.1846L136.736 48.7788L135.669 53.0077L133.661 49.0904L129.496 49.6038C130.258 48.6577 132.098 46.6038 132.098 46.6038C132.098 46.6038 131.521 43.8981 130.829 42.675L134.556 44.0769C134.556 44.0769 137.636 42.2134 137.81 42.0923C137.856 42.7154 137.181 45.825 137.181 45.825C137.181 45.825 139.211 47.0365 140.821 48.1904V48.1846Z" fill="#3B2C7D"/>
<path d="M202.373 124.904L176.654 116.083L168.589 115.142L165.15 111.889L129.496 99.0405C129.496 99.0405 126.531 101.441 127.131 104.885L173.966 121.881C173.966 121.881 181.691 120.542 187.616 124.004C187.616 124.004 193.05 127.316 196.973 126.45C200.896 125.585 202.379 124.898 202.379 124.898L202.373 124.904Z" fill="#3B2C7D"/>
<path d="M128.899 100.8C128.674 101.008 128.437 101.233 128.281 101.533C128.212 101.637 128.212 101.77 128.155 101.879C127.947 102.283 127.785 102.745 127.67 103.241C127.624 103.46 127.618 103.685 127.635 103.91L127.658 104.123C127.658 104.198 127.647 104.268 127.641 104.343C127.63 104.418 127.624 104.487 127.583 104.568C127.537 104.643 127.485 104.723 127.433 104.798C127.358 104.897 127.208 104.897 126.972 104.839C126.851 104.81 126.706 104.764 126.556 104.706C126.481 104.677 126.401 104.643 126.343 104.608C126.291 104.568 126.251 104.527 126.228 104.487C126.141 104.331 126.072 104.17 126.066 104.002C126.043 103.841 126.043 103.668 126.043 103.5C126.043 103.166 126.112 102.82 126.274 102.491C126.453 102.098 126.458 101.66 126.62 101.25C126.799 100.806 127.047 100.373 127.358 99.9985C127.537 99.7619 127.762 99.56 127.976 99.3638C128.31 99.0696 128.697 98.8619 129.049 98.6427C129.32 98.4581 129.58 98.2677 129.862 98.1004C129.926 98.0715 129.983 98.0254 130.053 98.0138C130.312 97.9619 130.428 98.0311 130.578 98.3254C130.612 98.3888 130.647 98.4523 130.676 98.51C130.762 98.7061 130.745 98.9773 130.635 99.1446C130.289 99.6408 129.978 100.004 129.631 100.247C129.389 100.448 129.147 100.616 128.928 100.829L128.893 100.8H128.899Z" fill="#3B2C7D"/>
<path d="M107.712 98.9714C107.551 98.8906 107.406 98.8503 107.228 98.7291C107.043 98.6079 106.876 98.4637 106.714 98.3079C106.408 97.9906 106.183 97.6099 106.039 97.2349C105.745 96.4733 105.733 95.7406 105.797 95.0599C105.872 94.3791 106.051 93.7329 106.31 93.1214C106.576 92.5099 106.91 91.9214 107.418 91.3849C107.672 91.1195 107.972 90.8599 108.364 90.6579C108.739 90.456 109.287 90.3233 109.766 90.3926C110.603 90.5656 111.053 90.7791 111.624 90.9753C112.703 91.3791 113.758 91.7945 114.814 92.2156L127.443 97.2695C130.518 98.4868 133.616 99.6464 136.691 100.841C141.393 102.664 146.112 104.441 150.849 106.177C153.22 107.037 155.591 107.896 157.968 108.727L161.539 109.968L165.249 111.231C165.318 111.26 165.381 111.294 165.445 111.323L165.543 111.369C165.543 111.369 165.595 111.364 165.572 111.416L165.612 111.45C165.67 111.496 165.716 111.548 165.768 111.6L165.872 111.796C165.924 111.935 165.982 112.079 166.028 112.218L166.12 112.483C166.247 112.823 166.385 113.141 166.564 113.429C166.91 114.006 167.395 114.462 168.001 114.71C168.485 114.923 169.074 114.993 169.697 115.039C170.32 115.079 170.955 115.091 171.601 115.096C172.893 115.108 174.208 115.102 175.553 115.258C176.216 115.339 176.92 115.489 177.56 115.702L179.401 116.302C180.63 116.694 181.853 117.087 183.076 117.479C186.22 118.466 189.376 119.452 192.526 120.439L197.233 121.991L199.576 122.793C200.355 123.069 201.105 123.427 201.872 123.733C203.77 124.552 203.47 124.558 201.728 124.298C200.862 124.154 199.587 124.085 198.128 123.744C196.657 123.439 194.955 123.029 193.132 122.493C190.628 121.771 188.153 120.958 185.666 120.173C183.185 119.377 180.705 118.575 178.224 117.75L177.295 117.439L176.828 117.283L176.435 117.168C175.899 117.029 175.305 116.948 174.699 116.891C173.47 116.787 172.189 116.804 170.857 116.775C170.187 116.758 169.507 116.741 168.774 116.637C168.589 116.608 168.393 116.573 168.208 116.539C168.007 116.481 167.799 116.435 167.608 116.36C167.216 116.216 166.835 116.025 166.489 115.777C165.785 115.287 165.26 114.6 164.914 113.902C164.741 113.556 164.597 113.198 164.487 112.869L164.453 112.771V112.754L164.441 112.725C164.441 112.702 164.418 112.696 164.401 112.685C163.022 112.212 161.643 111.733 160.258 111.254C158.81 110.735 157.362 110.216 155.908 109.696C148.264 106.916 140.303 104.048 132.549 101.043C128.291 99.3868 124.039 97.7022 119.799 96.0003L113.435 93.4618C112.38 93.0464 111.306 92.6253 110.262 92.2618C109.974 92.1522 109.801 92.1291 109.581 92.0541C109.431 92.0253 109.305 92.0541 109.131 92.1464C108.797 92.3195 108.462 92.7003 108.203 93.1156C107.88 93.6406 107.655 94.2464 107.539 94.8579C107.424 95.4637 107.43 96.0983 107.62 96.5887C107.712 96.8368 107.851 97.0387 108.03 97.1887C108.07 97.2291 108.128 97.2579 108.174 97.2926C108.231 97.3272 108.312 97.3503 108.376 97.3849L108.797 97.5695L110.747 98.3368C113.366 99.3464 116.003 100.321 118.633 101.296C126.618 104.244 134.649 107.193 142.61 110.019C148.801 112.212 154.91 114.26 161.06 116.348C162.416 116.804 163.743 117.254 165.105 117.716C170.153 119.464 171.728 120.11 172.651 120.952C172.864 121.137 173.158 121.344 173.268 121.483C173.655 121.927 171.468 121.587 167.747 120.369C156.682 116.821 145.131 112.754 133.558 108.594C129.266 107.031 124.968 105.468 120.664 103.904L114.22 101.516L111.001 100.304L109.391 99.6868L108.583 99.3695L108.18 99.2137L107.701 99.006V98.9599L107.712 98.9714Z" fill="#3B2C7D"/>
<path opacity="0.25" d="M243.565 165.727C242.93 168.871 230.22 181.223 226.932 177.369C223.349 173.169 236.982 158.406 236.982 158.406L243.565 165.727Z" fill="#3B2C7D"/>
<path d="M225.037 177.075C225.037 177.075 232.595 175.494 237.193 171.698C241.791 167.902 249.62 162.993 252.747 151.639C252.747 151.639 271.722 166.991 273.106 167.971C274.491 168.958 271.104 173.735 264.585 177.427C258.072 181.119 260.235 182.781 258.931 188.643C257.627 194.504 249.983 197.752 246.724 198.658C243.464 199.564 234.481 188.291 230.529 182.856C226.577 177.427 225.031 177.069 225.031 177.069L225.037 177.075Z" fill="#3B2C7D"/>
<path d="M186.484 81.1731C185.573 80.4 184.65 79.65 183.75 78.8596C183.421 78.5711 183.069 78.3173 182.746 78.0231C181.598 76.9961 180.456 75.9692 179.325 74.9308C178.817 74.475 178.304 74.025 177.784 73.5865C177.121 73.0269 176.509 72.3981 175.933 71.7461C175.754 71.5385 175.823 71.5154 176.065 71.5904C176.302 71.6711 176.729 71.8211 177.15 72.0923C177.923 72.5481 178.604 73.1019 179.29 73.6558C179.983 74.2038 180.663 74.7635 181.321 75.3635C182.106 76.0788 183.023 76.7135 183.883 77.3827C184.829 78.1154 185.758 78.8769 186.686 79.6384L188.411 81.0288C189.288 81.7211 190.136 82.4654 191.019 83.1404C191.706 83.6596 192.404 84.1442 193.073 84.6808C193.223 84.7961 193.367 84.9058 193.511 85.0269C194.042 85.4942 194.152 85.7077 194.163 85.9385C194.163 85.9904 194.175 86.0538 194.163 86.0942C194.134 86.2384 193.834 86.1577 193.361 85.9269C192.675 85.5635 191.994 85.1654 191.308 84.7615C190.633 84.3404 189.981 83.8673 189.317 83.4058C188.833 83.0538 188.336 82.7135 187.869 82.3385L186.461 81.2077L186.479 81.1788L186.484 81.1731Z" fill="#3B2C7D"/>
<path d="M189.082 105.698C185.372 106.529 181.674 107.406 177.988 108.34C176.147 108.813 174.313 109.281 172.501 109.846L169.784 110.677C168.901 110.965 167.995 111.248 167.245 111.588C166.888 111.738 166.501 112.015 166.559 111.992C166.536 112.021 166.518 112.073 166.524 112.096V112.165C166.524 112.212 166.536 112.252 166.536 112.292C166.547 112.373 166.547 112.46 166.57 112.535C166.691 113.163 167.072 113.642 167.713 114.035C168.347 114.421 169.178 114.663 170.032 114.825C170.891 114.987 171.797 115.062 172.715 115.096C176.39 115.2 180.163 114.71 183.901 114.167C186.641 113.763 189.365 113.267 192.14 112.852C193.541 112.656 194.897 112.431 196.461 112.437C198.036 112.506 199.536 112.927 200.903 113.694C203.286 115.05 205.045 117.381 205.616 120.087C205.755 120.767 205.813 121.477 205.72 122.221C205.616 122.954 205.374 123.756 204.751 124.408C204.613 124.569 204.411 124.713 204.249 124.829L203.834 125.083C203.557 125.25 203.291 125.435 202.997 125.579C202.709 125.729 202.42 125.885 202.126 126.023L201.22 126.41C199.997 126.877 198.693 127.171 197.384 127.252C196.074 127.338 194.77 127.229 193.507 126.992C190.98 126.513 188.655 125.585 186.37 124.725C184.086 123.86 181.83 123.012 179.505 122.608C178.345 122.4 177.174 122.308 176.009 122.36C174.855 122.412 173.69 122.631 172.541 122.942C171.982 123.11 171.416 123.277 170.92 123.513C170.424 123.738 169.963 124.033 169.743 124.338C169.674 124.413 169.668 124.483 169.622 124.552C169.622 124.621 169.576 124.685 169.599 124.76C169.582 124.898 169.663 125.088 169.755 125.29C169.865 125.492 170.015 125.694 170.193 125.896C170.274 126 170.372 126.087 170.465 126.179C170.563 126.265 170.649 126.363 170.765 126.444C171.636 127.131 172.703 127.69 173.782 128.198C174.866 128.706 175.991 129.162 177.122 129.6C181.155 131.129 185.326 132.381 189.491 133.627C191.574 134.25 193.657 134.885 195.734 135.542C196.772 135.877 197.811 136.217 198.843 136.598C199.363 136.788 199.876 136.996 200.395 137.233C200.943 137.492 201.382 137.763 201.872 138.029C203.09 138.733 204.284 139.488 205.426 140.29C206.58 141.087 207.693 141.9 208.841 142.627C211.115 144.092 213.653 145.154 216.255 145.881C217.559 146.238 218.903 146.44 220.247 146.562C221.597 146.688 222.953 146.683 224.297 146.55C226.986 146.319 229.622 145.517 231.855 144.052C232.19 143.81 232.484 143.602 232.732 143.429C232.968 143.238 233.159 143.088 233.309 142.967C233.62 142.737 233.782 142.65 233.805 142.708C233.834 142.765 233.718 142.962 233.482 143.296C233.361 143.458 233.222 143.671 233.02 143.879C232.813 144.087 232.576 144.323 232.316 144.588C232.045 144.848 231.711 145.09 231.347 145.373C230.984 145.644 230.551 145.881 230.107 146.163C229.172 146.642 228.082 147.156 226.818 147.485C224.303 148.206 221.182 148.437 217.893 147.912C216.445 147.687 214.98 147.323 213.601 146.85C212.216 146.388 210.843 145.829 209.528 145.142C208.213 144.462 206.966 143.665 205.79 142.869C204.607 142.067 203.459 141.306 202.288 140.579C201.699 140.215 201.111 139.863 200.505 139.535C200.205 139.373 199.888 139.188 199.634 139.073C199.357 138.946 199.057 138.813 198.745 138.692C197.493 138.208 196.149 137.781 194.811 137.36C192.128 136.529 189.399 135.744 186.693 134.885C183.982 134.037 181.265 133.165 178.565 132.196C177.215 131.706 175.87 131.192 174.532 130.621C173.193 130.038 171.866 129.438 170.563 128.602C169.922 128.198 169.23 127.673 168.67 126.992C168.532 126.837 168.399 126.646 168.272 126.444C168.14 126.265 168.03 126.012 167.926 125.781C167.741 125.279 167.626 124.61 167.851 123.981C168.07 123.381 168.463 122.925 168.838 122.642C169.218 122.337 169.599 122.135 169.974 121.956C170.724 121.615 171.457 121.408 172.19 121.223C173.626 120.894 175.138 120.612 176.661 120.629C178.178 120.629 179.678 120.831 181.12 121.177C184.582 121.996 187.738 123.502 190.963 124.535C192.572 125.042 194.205 125.44 195.838 125.504C197.47 125.602 199.091 125.313 200.609 124.725C201.359 124.408 202.103 124.056 202.795 123.594L203.061 123.427C203.141 123.375 203.263 123.306 203.286 123.277C203.384 123.202 203.476 123.115 203.551 123C203.707 122.781 203.816 122.481 203.874 122.14C203.995 121.465 203.897 120.681 203.678 119.942C203.453 119.198 203.107 118.477 202.663 117.825C201.774 116.515 200.499 115.483 199.034 114.912C198.301 114.623 197.528 114.444 196.738 114.375C196.016 114.306 195.151 114.404 194.309 114.496C192.445 114.721 190.553 115.05 188.661 115.35C186.768 115.656 184.865 115.962 182.949 116.227C181.034 116.492 179.113 116.723 177.174 116.873C175.236 117.017 173.274 117.081 171.284 116.913C170.291 116.821 169.288 116.665 168.284 116.354C167.297 116.031 166.253 115.546 165.48 114.606C165.099 114.144 164.828 113.573 164.701 112.996C164.666 112.852 164.638 112.708 164.626 112.563C164.609 112.413 164.591 112.287 164.597 112.119C164.586 111.912 164.603 111.727 164.649 111.542C164.666 111.352 164.77 111.185 164.857 111.023C164.972 110.873 165.076 110.717 165.232 110.59C165.399 110.44 165.503 110.36 165.63 110.285C165.878 110.112 166.12 109.996 166.357 109.881C166.836 109.65 167.309 109.483 167.776 109.321C169.663 108.715 171.497 108.254 173.361 107.74C175.218 107.227 177.076 106.725 178.94 106.252C183.526 105.075 188.136 103.99 192.757 102.969C195.07 102.462 197.384 101.971 199.715 101.527C200.309 101.429 200.863 101.29 201.491 101.233L202.415 101.123C202.72 101.088 203.032 101.112 203.343 101.1C204.584 101.06 205.813 101.279 207.013 101.55C208.818 102.017 210.515 102.796 212.095 103.725C213.676 104.66 215.153 105.75 216.526 106.938C219.29 109.31 221.724 111.998 224.003 114.785C228.572 120.358 232.518 126.346 236.69 132.063C238.316 134.296 239.99 136.413 241.813 138.462C243.607 140.521 245.424 142.552 247.276 144.542C250.968 148.535 254.793 152.377 258.797 156.046C259.668 156.865 260.574 157.627 261.457 158.417C262.357 159.185 263.263 159.958 264.18 160.737C267.601 163.61 269.961 165.358 271.565 166.667C272.366 167.325 272.984 167.856 273.486 168.323C273.993 168.773 274.38 169.165 274.72 169.529C275.026 169.863 275.453 170.267 275.615 170.487C275.886 170.856 275.228 170.585 273.774 169.812C272.315 169.044 270.111 167.694 267.457 165.71C263.522 162.762 259.715 159.537 256.028 156.115C252.347 152.683 248.799 149.042 245.343 145.287C243.624 143.4 241.916 141.49 240.238 139.546C239.407 138.588 238.541 137.59 237.734 136.563C236.915 135.542 236.141 134.504 235.368 133.46C232.305 129.283 229.42 125.019 226.351 120.912C224.072 117.86 221.713 114.883 219.14 112.137C216.566 109.408 213.768 106.863 210.595 105.069C209.009 104.192 207.33 103.523 205.605 103.212C204.745 103.056 203.874 102.987 203.003 103.015C202.138 103.05 201.295 103.177 200.332 103.356C196.588 104.065 192.826 104.885 189.088 105.727L189.059 105.687L189.082 105.698Z" fill="#3B2C7D"/>
<path d="M237.38 159.883C236.717 159 236.053 158.118 235.361 157.252C235.107 156.935 234.825 156.652 234.571 156.341C233.682 155.227 232.788 154.125 231.865 153.041C231.455 152.562 231.005 152.112 230.561 151.673C229.978 151.12 229.425 150.537 228.928 149.891C228.778 149.689 228.917 149.585 229.205 149.585C229.494 149.591 229.95 149.677 230.336 149.954C231.023 150.433 231.634 150.998 232.228 151.581C232.817 152.164 233.394 152.77 233.919 153.421C234.536 154.212 235.303 154.916 235.984 155.677C236.728 156.514 237.455 157.373 238.171 158.239L239.486 159.837C240.144 160.645 240.778 161.487 241.459 162.266C241.978 162.883 242.596 163.402 243.109 164.014C243.225 164.147 243.351 164.268 243.455 164.406C243.848 164.937 243.836 165.208 243.646 165.531C243.6 165.606 243.565 165.687 243.519 165.75C243.363 165.952 242.994 165.9 242.567 165.629C242.255 165.427 241.99 165.179 241.701 164.948C241.419 164.712 241.142 164.464 240.9 164.193C240.398 163.65 239.919 163.085 239.44 162.508C238.73 161.654 238.038 160.789 237.351 159.912L237.38 159.883Z" fill="#3B2C7D"/>
<path d="M189.837 75.8021C192.006 77.4694 194.123 79.2002 196.206 80.9944C196.967 81.6521 197.758 82.2752 198.49 82.9848C198.813 83.2963 199.137 83.6194 199.454 83.9656C199.604 84.1329 199.823 84.4098 199.938 84.5829C200.065 84.7733 200.198 84.9694 200.319 85.1598C200.798 85.9156 201.248 86.6714 201.692 87.4329L204.323 91.9848C205.102 93.329 205.921 94.656 206.74 95.9598C207.271 96.7906 207.802 97.6271 208.333 98.4637C208.84 99.3117 209.313 100.183 209.752 101.071C209.977 101.654 209.763 101.7 209.198 101.441C208.644 101.175 207.796 100.569 207.11 99.6521C204.865 96.2829 202.76 92.8387 200.758 89.3021C200.163 88.2406 199.506 87.1906 198.813 86.1867C198.727 86.0598 198.64 85.9444 198.554 85.8233C198.467 85.7079 198.375 85.5694 198.306 85.4944C198.185 85.3271 197.925 85.0964 197.723 84.9002C197.285 84.4906 196.823 84.0867 196.362 83.6829C194.325 81.9117 192.173 80.2213 190.027 78.5425C188.7 77.5098 187.367 76.4829 186.012 75.4906C183.958 73.9906 181.892 72.4733 179.758 71.1463C179.342 70.8925 178.921 70.6444 178.506 70.4252C178.298 70.3098 178.085 70.2117 177.883 70.1194C177.779 70.079 177.681 70.0271 177.635 70.0214C177.577 70.004 177.513 69.9867 177.456 69.9983C176.902 70.1194 176.654 70.4021 176.694 71.2213C176.735 71.5617 176.804 71.9079 176.942 72.254C177.173 72.9117 177.41 73.3098 177.49 73.6214C177.525 73.7829 177.537 73.9329 177.537 74.0598C177.531 74.1925 177.496 74.3483 177.479 74.4694C177.462 74.5906 177.479 74.7233 177.473 74.8214C177.456 74.9829 177.288 75.0175 176.885 74.9021C176.492 74.7983 176.048 74.429 175.708 73.8463C175.442 73.4252 175.246 72.9637 175.073 72.4733C174.923 71.9714 174.756 71.4579 174.75 70.8348C174.75 70.229 174.888 69.4213 175.512 68.7694C175.667 68.6252 175.84 68.4694 176.019 68.3598C176.198 68.2733 176.383 68.1867 176.573 68.1175C176.671 68.0771 176.758 68.054 176.844 68.0425L176.971 68.0194L177.15 67.9964C177.271 67.979 177.392 67.956 177.508 67.9502C177.617 67.9502 177.721 67.9906 177.831 67.9906C178.05 68.0137 178.252 68.106 178.465 68.1579L178.875 68.3425C179.1 68.4579 179.331 68.5733 179.538 68.6887C179.965 68.9194 180.369 69.1617 180.773 69.404C181.575 69.8944 182.354 70.4021 183.133 70.9214C185.429 72.4617 187.656 74.1002 189.865 75.7502L189.837 75.7964V75.8021Z" fill="#3B2C7D"/>
<path d="M170.151 78.127C170.007 77.8558 169.909 77.5558 169.794 77.2616C169.713 76.9789 169.597 76.7193 169.528 76.4366C169.361 75.8827 169.24 75.3173 169.142 74.7346C169.049 74.152 169.009 73.5462 169.044 72.9C169.055 72.577 169.113 72.2423 169.211 71.8904C169.269 71.7116 169.309 71.5385 169.413 71.3481L169.551 71.0712C169.609 70.9789 169.684 70.8693 169.759 70.777C170.047 70.3789 170.469 70.102 170.924 69.9404C171.409 69.8077 171.853 69.7847 172.303 69.9C172.419 69.9347 172.528 69.9693 172.638 70.0096C172.747 70.05 172.869 70.0962 172.92 70.1308L173.319 70.3443C173.595 70.4885 173.815 70.6327 174.057 70.777C175.003 71.3596 175.88 71.9654 176.769 72.5712C178.055 73.4654 179.359 74.3193 180.622 75.2366C182.844 76.852 185.047 78.4904 187.24 80.1289L190.534 82.5808L192.184 83.8039L193.009 84.4154C193.292 84.675 193.632 84.9173 193.863 85.2C194.769 86.1693 195.455 87.2077 196.119 88.2577C196.782 89.302 197.394 90.3693 197.994 91.425C199.528 94.1366 201.028 96.8712 202.303 99.5885C202.476 100.021 202.534 100.252 202.47 100.292C202.401 100.338 202.199 100.217 201.761 100.021C200.907 99.6173 199.586 98.5558 198.657 97.0039C197.867 95.6077 197.088 94.2346 196.355 92.8443C195.611 91.4654 194.867 90.0981 194.059 88.8116L193.442 87.8712C193.222 87.5827 193.009 87.277 192.79 87C192.565 86.7577 192.34 86.4462 192.115 86.2731C191.988 86.1693 191.924 86.077 191.751 85.9558L191.272 85.5981C189.997 84.6404 188.74 83.6654 187.482 82.6789C184.476 80.3193 181.205 78.075 178.032 75.8193C176.29 74.5904 174.53 73.3385 172.759 72.2481C172.534 72.1039 172.332 72.0116 172.113 71.8846L172.032 71.8385L171.992 71.827C171.992 71.827 171.94 71.8039 171.911 71.7923L171.894 71.7808H171.882V71.775V71.7231L171.899 71.6077L171.911 71.4923V71.4346L171.917 71.4058C171.963 71.0539 171.853 71.85 171.865 71.7693H171.853H171.83H171.726C171.478 71.7577 171.311 71.8558 171.178 72.1385C171.028 72.45 170.953 72.9173 170.93 73.3846C170.907 73.8577 170.942 74.3596 171.011 74.8558C171.097 75.4673 171.236 76.0846 171.42 76.6846C171.605 77.2385 171.899 77.7808 172.24 78.3C172.926 79.3385 173.832 80.2673 174.778 81.1385C177.697 83.775 181.095 85.9327 184.361 88.2289C184.995 88.6789 185.624 89.1346 186.242 89.6193C186.853 90.1096 187.465 90.6116 188.013 91.2808C188.526 91.9904 188.872 92.6308 189.265 93.3116C189.645 93.9808 190.009 94.65 190.372 95.325C190.69 95.9193 191.019 96.4904 191.33 97.0904C191.861 98.227 192.201 98.977 192.369 99.5423C192.432 99.8366 192.472 100.067 192.49 100.275C192.524 100.471 192.53 100.638 192.524 100.794C192.524 100.933 192.542 101.112 192.524 101.204C192.49 101.36 192.317 101.238 191.982 100.892C191.815 100.713 191.613 100.488 191.365 100.223C191.105 99.9577 190.903 99.6 190.649 99.2135C189.894 98.0654 189.23 96.8481 188.561 95.625C188.226 95.0193 187.886 94.4135 187.545 93.802L187.032 92.9193C186.945 92.7693 186.859 92.6481 186.772 92.5097C186.686 92.3943 186.634 92.3077 186.53 92.1923C186.155 91.7654 185.647 91.3212 185.122 90.9058C184.592 90.4847 184.032 90.075 183.455 89.6654C182.301 88.852 181.107 88.05 179.913 87.2308C178.136 86.0135 176.353 84.7558 174.651 83.3308C173.803 82.6154 172.967 81.8654 172.188 81.0231C171.409 80.1808 170.676 79.2577 170.122 78.1327L170.157 78.1096L170.151 78.127Z" fill="#3B2C7D"/>
<path d="M236.804 192.917C235.673 191.706 234.577 190.46 233.539 189.179C233.158 188.712 232.731 188.29 232.362 187.812C231.046 186.15 229.806 184.431 228.56 182.729C228 181.979 227.44 181.223 226.892 180.473L226.35 179.758C226.177 179.51 226.015 179.262 225.854 179.008C225.698 178.754 225.525 178.512 225.398 178.229C225.277 177.952 225.156 177.675 225.035 177.392C224.89 177.04 224.954 177.058 225.26 177.225C225.462 177.329 225.681 177.444 225.9 177.56C226.033 177.629 226.183 177.698 226.321 177.79C226.448 177.889 226.575 177.998 226.696 178.119C228.387 179.867 229.806 181.806 231.202 183.808C232.039 185.002 233.083 186.104 234.052 187.229C235.125 188.464 236.204 189.692 237.312 190.887L238.344 191.983C238.696 192.34 239.054 192.692 239.412 193.039C240.502 194.1 241.627 195.127 242.833 196.021C243.289 196.39 243.802 196.656 244.292 196.956C244.777 197.262 245.285 197.515 245.781 197.787C246 197.902 246.214 198.017 246.439 198.133C247.269 198.519 247.471 198.773 247.5 199.235C247.506 199.339 247.529 199.448 247.517 199.546C247.494 199.858 247.027 199.956 246.294 199.754C246.029 199.673 245.746 199.61 245.492 199.506L244.719 199.183C244.2 198.958 243.664 198.739 243.202 198.415C242.221 197.827 241.333 197.117 240.439 196.402C239.81 195.842 239.164 195.294 238.558 194.712C237.964 194.117 237.34 193.546 236.769 192.935L236.798 192.9L236.804 192.917Z" fill="#3B2C7D"/>
<path d="M241.378 169.973C239.041 171.992 236.555 173.85 233.808 175.333C232.805 175.864 231.795 176.417 230.687 176.792C229.718 177.127 228.72 177.41 227.658 177.514C227.399 177.554 227.133 177.566 226.862 177.571L226.458 177.583H226.355L226.21 177.571L225.928 177.537C225.547 177.45 225.16 177.283 224.878 177.017C224.589 176.764 224.387 176.458 224.249 176.164C223.735 174.964 223.845 173.867 224.001 172.841C224.18 171.814 224.468 170.839 224.849 169.91C225.512 168.254 226.366 166.696 227.312 165.242C227.924 164.308 228.587 163.408 229.314 162.554C229.672 162.127 230.058 161.723 230.445 161.319C230.837 160.921 231.282 160.581 231.714 160.235C232.268 159.814 232.297 159.981 232.06 160.558C231.939 160.846 231.76 161.239 231.553 161.712C231.322 162.162 231.016 162.646 230.647 163.142C229.337 164.885 228.183 166.725 227.272 168.652C226.816 169.616 226.441 170.608 226.141 171.6C225.841 172.587 225.651 173.619 225.685 174.537C225.691 175.079 225.876 175.575 226.06 175.702C226.107 175.737 226.153 175.766 226.21 175.777C226.233 175.794 226.274 175.789 226.308 175.794C226.332 175.806 226.407 175.8 226.487 175.794C226.793 175.771 227.099 175.783 227.416 175.719C228.668 175.546 229.92 175.102 231.132 174.577C233.791 173.394 236.295 171.716 238.597 169.817C240.016 168.646 241.378 167.394 242.653 166.067C244.585 164.054 246.408 161.891 247.914 159.571C249.085 157.766 249.98 155.844 250.695 153.889C250.833 153.456 250.966 153.029 251.099 152.591C251.341 151.777 251.497 151.258 251.728 150.906C251.93 150.554 252.155 150.364 252.437 150.219C252.564 150.156 252.685 150.058 252.795 150.023C252.974 149.966 253.101 150.116 253.222 150.479C253.36 150.842 253.401 151.402 253.308 152.089C252.945 154.114 252.16 156.058 251.203 157.91C250.239 159.762 249.057 161.516 247.782 163.177C245.878 165.652 243.714 167.914 241.395 169.996L241.36 169.962L241.378 169.973Z" fill="#3B2C7D"/>
<path opacity="0.25" d="M101.381 201.721C80.7098 203.141 82.0136 182.792 84.1078 182.51C84.1078 182.51 68.4559 184.373 68.3867 183.606C68.3175 182.839 69.2001 199.016 69.2001 199.016C69.2001 199.016 78.7828 201.3 83.854 201.987C90.4771 202.887 101.381 201.721 101.381 201.721Z" fill="#3B2C7D"/>
<path d="M88.0665 181.604C86.4569 182.048 84.8415 182.475 83.203 182.81C82.6088 182.948 82.0146 183.081 81.4088 183.179C79.2915 183.548 77.1454 183.79 74.9934 183.848C74.5204 183.877 74.0415 183.889 73.5627 183.889C73.0838 183.889 72.6107 183.912 72.1377 183.906C71.5319 183.883 70.9204 183.889 70.3088 183.837C70.003 183.802 69.703 183.756 69.403 183.71C69.103 183.669 68.8088 183.554 68.5146 183.479C68.1511 183.364 68.2088 183.329 68.5377 183.237C68.7511 183.173 68.9877 183.098 69.2184 183.029C69.4954 182.96 69.8184 182.948 70.1588 182.96C70.7646 182.96 71.3704 182.971 71.9761 183.012C72.5819 183.046 73.1877 183.012 73.7992 183.029C75.0165 183.017 76.2338 182.977 77.4627 182.885C78.9338 182.798 80.4453 182.492 81.9223 182.21C82.7357 182.054 83.5492 181.869 84.3569 181.685C85.1646 181.477 85.978 181.298 86.7742 181.067C87.7665 180.802 88.7473 180.514 89.728 180.202C91.2107 179.735 92.6934 179.239 94.1357 178.702C95.2492 178.264 96.3511 177.837 97.453 177.404C97.6953 177.312 97.9377 177.219 98.18 177.121C99.0973 176.781 99.4088 176.723 99.6569 176.792C99.7146 176.81 99.7838 176.815 99.8242 176.839C99.9511 176.914 99.6223 177.15 98.9761 177.467C98.0184 177.935 97.0261 178.402 96.0165 178.864C95.0011 179.319 93.9396 179.689 92.878 180.075C91.2973 180.64 89.6877 181.148 88.0723 181.627V181.604H88.0665Z" fill="#3B2C7D"/>
<path opacity="0.35" d="M90.6892 170.163C76.618 167.619 96.6315 160.177 102.037 160.177C102.037 160.177 77.818 160.333 70.4219 169.869C70.4219 169.869 84.4642 170.913 90.695 170.163H90.6892Z" fill="#3B2C7D"/>
<path d="M146.619 169.292C144.576 164.198 135.824 160.108 131.301 158.579C126.772 157.056 110.353 152.734 96.0743 153.998C81.9512 155.25 68.1743 159.513 62.6589 162.19C57.1493 164.867 55.0493 167.481 55.0493 167.481C50.3704 170.429 51.1666 180.652 77.8781 181.465C77.8781 181.465 88.9435 181.638 96.6108 178.869C104.278 176.1 114.449 174.825 119.134 174.692C123.813 174.565 134.117 176.129 141.507 172.886C144.599 171.531 147.472 171.421 146.619 169.292ZM108.842 166.713C101.509 168.19 90.057 170.434 85.6897 170.804C81.3166 171.173 74.9762 171.081 73.5281 170.515C72.08 169.95 71.6185 168.213 71.6185 168.213C71.6185 168.213 80.4281 161.492 93.5704 160.609C106.713 159.721 110.717 160.033 118.113 162.086C125.515 164.146 126.582 166.004 126.582 166.004C126.582 166.004 116.174 165.236 108.842 166.713Z" fill="#3B2C7D"/>
<path d="M71.4777 198.883C71.4777 198.883 72.6777 207.652 72.268 223.604C71.9796 234.929 71.5238 242.244 69.868 249.433C68.5123 255.323 99.0488 257.59 101.639 257.515C104.23 257.44 128.98 253.777 134.241 249.323C134.241 249.323 129.118 195.133 129.862 190.834C129.862 190.834 120.862 199.211 110.841 201.052C100.826 202.892 93.7873 203.25 88.3815 202.725C82.9757 202.2 71.4719 198.877 71.4719 198.877L71.4777 198.883Z" fill="#3B2C7D"/>
<path d="M107.669 201.796C104.421 202.35 101.144 202.708 97.8613 202.898L96.0671 203.008C95.4671 203.037 94.8728 203.06 94.2728 203.071C92.1613 203.094 90.0498 203.054 87.944 202.904C86.8882 202.852 85.8382 202.731 84.7882 202.638C83.744 202.5 82.694 202.402 81.6497 202.223C79.7978 201.958 77.9459 201.6 76.1344 201.202L74.3921 200.763L72.6728 200.238C72.1017 200.048 71.5421 199.835 70.994 199.598C70.4401 199.362 69.9209 199.05 69.3901 198.773C68.7382 198.41 68.894 198.323 69.5517 198.363C69.8805 198.381 70.3421 198.433 70.8786 198.502C71.1498 198.537 71.4498 198.554 71.7498 198.612C72.0498 198.675 72.3613 198.762 72.6786 198.865C73.8151 199.2 74.9632 199.5 76.1171 199.76C76.6882 199.915 77.2767 200.019 77.8536 200.152C78.4305 200.285 79.019 200.394 79.6074 200.492C81.9498 200.913 84.3267 201.237 86.7267 201.456C89.5998 201.733 92.6171 201.652 95.5651 201.508C98.8132 201.358 102.056 201.029 105.269 200.515C107.248 200.21 109.209 199.806 111.159 199.35C114.102 198.635 117.032 197.758 119.79 196.581C121.931 195.658 123.921 194.515 125.75 193.188C126.165 192.912 126.517 192.571 126.927 192.288C127.307 192.029 127.59 191.775 127.85 191.59C128.104 191.4 128.334 191.267 128.513 191.146C128.877 190.915 129.159 190.852 129.477 190.875C129.621 190.887 129.782 190.869 129.898 190.898C130.094 190.95 130.106 191.164 129.956 191.521C129.806 191.873 129.488 192.381 128.963 192.894C127.457 194.504 125.554 195.721 123.592 196.777C121.613 197.827 119.513 198.675 117.384 199.402C114.211 200.458 110.952 201.231 107.675 201.825L107.663 201.785L107.669 201.796Z" fill="#3B2C7D"/>
<path d="M75.2363 254.654C76.3729 254.891 77.5036 255.144 78.6517 255.335C79.794 255.542 80.9421 255.744 82.0959 255.9C82.9382 256.021 83.7805 256.125 84.6228 256.217C87.5882 256.627 90.5709 256.91 93.5652 257.089C94.8921 257.152 96.2305 257.187 97.5459 257.164C99.2421 257.181 100.927 256.95 102.634 257.146C103.177 257.308 103.102 257.221 102.669 257.446C102.242 257.712 101.423 258.058 100.436 258.133C96.9344 258.312 93.4382 258.185 89.9363 257.827C88.8921 257.706 87.8248 257.619 86.7459 257.527C85.6729 257.417 84.594 257.319 83.5267 257.187C82.3555 257.014 81.1844 256.864 80.019 256.673C78.8536 256.46 77.6825 256.292 76.5286 256.044L74.3882 255.606C73.6729 255.456 72.969 255.271 72.2652 255.104C71.1863 254.867 70.1248 254.556 69.0632 254.256C67.9959 253.979 66.9575 253.604 65.9132 253.275C65.094 253.039 64.3152 252.71 63.5132 252.433C62.7113 252.173 61.9498 251.798 61.1825 251.435C60.8479 251.273 60.5075 251.129 60.1729 250.95C58.9729 250.212 58.6671 249.86 58.5286 249.537C58.4998 249.462 58.4479 249.375 58.4421 249.317C58.419 249.127 58.9844 249.294 59.8844 249.71C60.219 249.871 60.5248 250.062 60.8767 250.2C61.2229 250.339 61.569 250.483 61.9209 250.621C62.2671 250.766 62.6132 250.91 62.9652 251.054C63.3229 251.181 63.6863 251.296 64.044 251.435C65.4632 252.006 66.9575 252.456 68.4459 252.935C70.6844 253.569 72.9459 254.169 75.2421 254.631V254.66L75.2363 254.654Z" fill="#3B2C7D"/>
<path d="M95.8764 257.815C91.5322 258.681 49.9937 253.431 56.0514 247.015C58.0764 244.875 67.2552 243.9 67.2552 243.871L66.8456 250.01L76.3533 253.863L95.8764 257.821V257.815Z" fill="#3B2C7D"/>
<path d="M92.687 168.594C95.612 168.15 98.5427 167.654 101.473 167.135C102.541 166.944 103.602 166.708 104.675 166.529C108.454 165.894 112.262 165.34 116.098 164.96C117.8 164.792 119.52 164.631 121.233 164.608C122.329 164.585 123.448 164.585 124.585 164.769C125.15 164.856 125.716 165.017 126.247 165.265C126.512 165.386 126.772 165.519 127.02 165.669C127.268 165.825 127.464 166.056 127.677 166.24C128.185 166.748 128.023 166.76 127.423 166.65C126.766 166.592 125.75 166.581 124.666 166.442C123.691 166.286 122.647 166.281 121.573 166.321C120.506 166.361 119.433 166.436 118.354 166.511C116.191 166.667 114.01 166.91 111.806 167.152C109.17 167.446 106.464 168.04 103.787 168.519C100.839 169.05 97.885 169.581 94.9196 170.071C93.0966 170.377 91.262 170.654 89.4331 170.913C86.6523 171.3 83.8427 171.606 81.0446 171.738C78.8696 171.836 76.7062 171.929 74.4908 171.577C74.0062 171.485 73.5216 171.398 73.0312 171.254C71.2139 170.671 70.7696 170.019 70.7812 169.396C70.7754 169.263 70.7408 169.125 70.7523 169.033C70.7754 168.877 70.9716 168.865 71.3293 168.871C71.5196 168.86 71.6985 168.917 71.912 168.986C72.1427 169.027 72.385 169.119 72.6446 169.223C74.2658 169.777 76.1235 169.933 78.0158 169.973C79.9139 170.008 81.8754 169.892 83.8485 169.713C86.7735 169.448 89.7331 169.033 92.6754 168.548L92.687 168.594Z" fill="#3B2C7D"/>
<path d="M91.7739 159.779C94.9124 159.254 98.0855 158.919 101.264 158.833C101.847 158.81 102.424 158.787 103.007 158.775C103.589 158.758 104.166 158.746 104.749 158.769C108.839 158.873 112.918 159.375 116.887 160.339C118.647 160.765 120.412 161.25 122.114 161.862C123.205 162.26 124.295 162.698 125.339 163.269C126.355 163.858 127.387 164.573 128.016 165.698C128.143 166.096 128.149 166.275 128.091 166.298C128.028 166.327 127.872 166.2 127.56 166.079C127.376 166.038 127.226 165.952 127.018 165.889C126.805 165.825 126.603 165.739 126.343 165.675C125.876 165.514 125.345 165.306 124.803 165.035C122.905 163.979 120.77 163.2 118.601 162.56C116.426 161.925 114.182 161.44 111.909 161.037C109.18 160.575 106.284 160.506 103.451 160.54C100.335 160.575 97.2086 160.788 94.1105 161.233C92.2009 161.487 90.3028 161.844 88.422 162.265C85.572 162.871 82.7739 163.771 80.0624 164.815C77.9624 165.64 75.9605 166.61 74.0393 167.683C73.6182 167.919 73.2201 168.173 72.8162 168.427C72.072 168.9 71.6105 169.206 71.2932 169.362C70.9759 169.54 70.8201 169.54 70.5893 169.621C70.4739 169.662 70.4162 169.783 70.3643 169.887C70.3182 169.973 70.2547 170.014 70.1393 169.944C70.0874 169.91 70.0066 169.84 69.9662 169.737C69.9316 169.644 69.8855 169.46 69.9086 169.338C69.972 168.738 70.3816 168.19 70.9239 167.694C72.6201 166.321 74.4951 165.387 76.422 164.475C78.3547 163.587 80.3566 162.808 82.3989 162.104C83.9105 161.59 85.4682 161.106 87.0432 160.742C87.8278 160.558 88.6066 160.367 89.397 160.212C90.1816 160.039 90.972 159.888 91.7624 159.75L91.7739 159.796V159.779Z" fill="#3B2C7D"/>
<path d="M91.4176 155.66C88.8445 155.988 86.2369 156.571 83.6638 157.177C81.0849 157.794 78.5176 158.487 75.9734 159.248C70.8907 160.783 65.8657 162.548 61.1234 164.85C59.3984 165.692 57.7195 166.627 56.1445 167.677C54.5811 168.739 53.1157 169.938 51.9907 171.329C51.4888 171.935 51.1599 172.517 51.0503 173.152C50.9465 173.775 51.0676 174.41 51.3849 175.021C52.0253 176.262 53.3061 177.306 54.6792 178.056C56.1157 178.812 57.6445 179.446 59.2311 179.902C60.8176 180.363 62.4734 180.64 64.1349 180.837C67.4695 181.217 70.8792 181.125 74.2888 180.929C75.9965 180.831 77.7099 180.698 79.4234 180.577C81.1138 180.438 82.8099 180.271 84.4945 180.012C90.4888 179.146 96.4253 177.577 102.356 176.279C106.17 175.442 110.035 174.687 113.958 174.306C117.87 173.942 121.804 173.752 125.71 174.087C126.927 174.335 127.446 174.473 127.406 174.519C127.371 174.571 126.771 174.583 125.745 174.825C123.691 175.258 119.952 175.777 115.556 176.215C111.656 176.619 107.802 177.219 103.943 178.056C100.083 178.863 96.2234 179.81 92.3061 180.635C88.3888 181.465 84.408 182.187 80.3522 182.521C76.3599 182.821 72.3561 183.15 68.2657 183.069C65.8253 183.012 63.3388 182.815 60.8695 182.331C58.4061 181.835 55.9368 181.079 53.6638 179.81C52.5099 179.158 51.4368 178.338 50.5368 177.277C50.0926 176.74 49.7061 176.129 49.4292 175.442C49.1465 174.756 49.0368 173.965 49.1061 173.204C49.158 172.425 49.4695 171.721 49.8215 171.092C50.208 170.463 50.6349 169.985 51.0734 169.488C51.9618 168.525 52.9657 167.729 53.9811 166.973C56.2368 165.352 58.6542 164.042 61.1176 162.871C63.5868 161.706 66.108 160.696 68.658 159.767C73.7638 157.927 78.9734 156.415 84.2465 155.187C85.8734 154.812 87.5061 154.465 89.1561 154.171C90.8176 153.877 92.4792 153.71 94.1407 153.525C97.4638 153.185 100.804 153.017 104.139 153.029C106.666 153.046 109.198 153.15 111.72 153.363C114.241 153.583 116.756 153.912 119.248 154.35C124.233 155.221 129.143 156.531 133.816 158.4C135.633 159.127 137.41 159.946 139.129 160.863C140.848 161.787 142.521 162.813 144.045 164.077C144.818 164.7 145.533 165.404 146.179 166.212C146.502 166.615 146.791 167.054 147.045 167.55C147.287 168.052 147.466 168.617 147.495 169.235C147.523 169.846 147.379 170.487 147.096 171.029C146.814 171.571 146.421 172.015 146 172.385C145.152 173.117 144.2 173.573 143.248 173.942C141.564 174.583 139.891 174.94 138.166 175.194C131.756 175.979 129.725 175.425 128.375 174.923C128.07 174.796 127.666 174.669 127.487 174.548C127.193 174.346 127.689 174.185 128.825 174.023C129.968 173.85 131.745 173.677 134.012 173.521C135.691 173.388 137.37 173.192 139.014 172.881C140.646 172.569 142.279 172.131 143.623 171.421C144.293 171.075 144.858 170.625 145.146 170.175C145.435 169.725 145.475 169.31 145.296 168.744C145.118 168.196 144.65 167.533 144.137 166.956C143.629 166.356 143 165.808 142.36 165.277C139.729 163.177 136.579 161.538 133.32 160.217C130.054 158.896 126.639 157.846 123.166 157.05C112.839 154.679 101.993 154.327 91.4234 155.712L91.4061 155.665L91.4176 155.66Z" fill="#3B2C7D"/>
<path d="M81.587 254.406C86.7331 255.704 92.0524 256.361 97.3831 256.517C100.049 256.609 102.725 256.546 105.391 256.396C108.056 256.24 110.722 255.981 113.37 255.594C117.235 255.046 121.054 254.198 124.781 253.113C126.402 252.652 128 252.104 129.552 251.486C130.331 251.181 131.093 250.84 131.825 250.471C132.189 250.281 132.558 250.102 132.893 249.883C133.066 249.779 133.239 249.681 133.406 249.571L133.729 249.334C133.775 249.311 133.81 249.277 133.81 249.219C133.816 249.161 133.816 249.138 133.816 249.052C133.816 248.763 133.793 248.44 133.77 248.129C133.724 247.494 133.66 246.848 133.591 246.202C133.458 244.909 133.302 243.617 133.147 242.319L132.189 234.536C131.554 229.344 130.96 224.14 130.435 218.931C129.829 212.792 129.275 206.613 128.889 200.498C128.641 196.569 128.491 192.623 128.456 188.677C128.422 184.731 128.537 180.767 129.212 176.867C129.402 175.65 129.518 175.131 129.564 175.165C129.616 175.206 129.616 175.806 129.691 176.85C129.754 177.888 129.991 179.371 130.141 181.148C130.222 182.036 130.343 183 130.4 184.015C130.447 185.036 130.475 186.115 130.493 187.24C130.55 191.221 130.735 195.208 130.966 199.188C131.168 203.175 131.439 207.161 131.756 211.154C132.408 219.133 133.193 227.129 134.07 235.159C134.347 237.577 134.624 240.023 134.9 242.481C135.039 243.715 135.177 244.956 135.316 246.196C135.379 246.819 135.437 247.448 135.483 248.088C135.506 248.411 135.524 248.723 135.529 249.086C135.518 249.34 135.518 249.611 135.46 249.854C135.42 249.969 135.362 250.084 135.293 250.188C135.264 250.315 135.137 250.379 135.068 250.477L134.52 250.875C134.387 250.979 134.249 251.071 134.104 251.152C133.827 251.319 133.55 251.498 133.268 251.654C132.702 251.954 132.131 252.254 131.549 252.502C130.395 253.038 129.218 253.471 128.035 253.892C125.664 254.706 123.258 255.363 120.835 255.9C115.475 257.088 110.029 257.809 104.56 258.092C101.825 258.219 99.0793 258.236 96.3447 258.132C93.6043 258.029 90.8754 257.769 88.1581 257.388C81.4889 256.425 74.8716 254.55 68.9177 251.284C68.5543 251.088 68.2081 250.869 67.8562 250.667L66.6793 249.969L66.4485 249.779L66.3908 249.733C66.4254 249.686 66.3735 249.681 66.3735 249.657C66.3504 249.611 66.3274 249.571 66.3101 249.525C66.2466 249.334 66.2466 249.115 66.2524 248.902C66.2524 248.659 66.2639 248.538 66.2697 248.383L66.2985 247.938L66.4427 246.184L66.7716 242.694C66.9793 240.369 67.1928 238.05 67.4004 235.725C67.7928 231.081 68.1101 226.442 68.3293 221.827C68.6985 214.021 68.7331 206.365 68.4735 198.658C68.4158 196.961 68.3293 195.3 68.2485 193.592C68.0928 190.425 67.9658 188.336 67.9543 186.865C67.9658 186.127 67.9831 185.544 68.0235 185.059C68.0697 184.575 68.1389 184.182 68.2081 183.836C68.2716 183.519 68.3178 183.104 68.3697 182.919C68.462 182.602 68.612 183.086 68.8889 184.223C69.1658 185.359 69.4543 187.165 69.6274 189.496C70.7293 203.336 70.3831 218.002 69.2985 232.627C69.0851 235.494 68.8428 238.356 68.5774 241.223L68.1793 245.515L67.9947 247.65C67.9658 248.002 67.9427 248.354 67.9254 248.688V248.746C67.9254 248.746 67.9254 248.752 67.9254 248.757L69.2927 249.565C69.8293 249.888 70.4004 250.148 70.9543 250.442L71.7908 250.875L72.6504 251.261C73.2274 251.509 73.7927 251.786 74.3812 252.017C76.712 252.969 79.1293 253.719 81.5697 254.359V254.406H81.587Z" fill="#3B2C7D"/>
<path d="M118.106 185.233C118.141 184.938 118.17 184.638 118.187 184.344C118.193 184.235 118.187 184.131 118.187 184.021C118.221 183.64 118.256 183.254 118.262 182.867C118.262 182.694 118.245 182.527 118.233 182.36C118.216 182.146 118.198 181.927 118.233 181.708C118.245 181.638 118.325 181.638 118.423 181.685C118.516 181.731 118.643 181.823 118.689 181.944C118.856 182.377 118.885 182.827 118.862 183.283C118.845 183.554 118.902 183.831 118.92 184.108C118.937 184.413 118.92 184.713 118.92 185.019C118.92 185.204 118.908 185.394 118.902 185.579C118.896 185.861 118.879 186.144 118.879 186.427C118.879 186.646 118.943 186.86 118.943 187.079C118.943 187.125 118.954 187.171 118.948 187.223C118.937 187.402 118.873 187.454 118.689 187.483C118.648 187.488 118.602 187.5 118.562 187.5C118.423 187.511 118.308 187.436 118.25 187.304C118.066 186.917 118.025 186.525 118.02 186.121C118.037 185.827 118.06 185.527 118.077 185.233H118.1H118.106Z" fill="#3B2C7D"/>
<path d="M112.585 186.664C112.614 186.323 112.637 185.977 112.642 185.637C112.642 185.51 112.619 185.389 112.619 185.267C112.637 184.823 112.654 184.379 112.637 183.94C112.637 183.744 112.585 183.554 112.562 183.358C112.521 183.115 112.446 182.873 112.498 182.608C112.515 182.527 112.683 182.504 112.873 182.539C113.058 182.573 113.271 182.66 113.323 182.798C113.514 183.294 113.577 183.814 113.537 184.344C113.514 184.662 113.606 184.979 113.629 185.296C113.658 185.648 113.669 186 113.675 186.352C113.675 186.571 113.681 186.785 113.687 187.004C113.687 187.333 113.669 187.662 113.704 187.985C113.739 188.221 113.773 188.481 113.808 188.729C113.814 188.787 113.825 188.839 113.825 188.89C113.825 189.098 113.75 189.162 113.514 189.208C113.462 189.219 113.404 189.231 113.352 189.237C113.173 189.26 113.017 189.173 112.937 189.029C112.712 188.596 112.544 188.146 112.556 187.69C112.539 187.35 112.539 187.01 112.55 186.664H112.579H112.585Z" fill="#3B2C7D"/>
</svg>
