<svg width="300" height="300" viewBox="0 0 300 300" fill="none" xmlns="http://www.w3.org/2000/svg">
<path d="M117.297 94.5115L113.835 94.9384L112.976 95.048L112.116 95.1865L110.385 95.4692C109.232 95.6653 108.078 95.8384 106.959 96.0461L103.56 96.7615C99.0423 97.7105 94.6057 99.0126 90.2912 100.656C87.1849 101.867 84.2131 103.398 81.4239 105.225L80.547 105.86C80.2585 106.073 79.9701 106.304 79.7162 106.523L79.5316 106.685C79.4797 106.713 79.4912 106.765 79.497 106.817V106.892L79.5316 107.129L79.6124 107.66C79.8547 109.096 80.1893 110.544 80.4951 112.015C81.147 114.935 81.8451 117.854 82.5547 120.767L86.8816 138.248C88.1797 143.44 89.4893 148.633 90.7758 153.744C91.5951 157.044 92.4258 160.35 93.1643 163.679C93.5393 165.346 93.8855 167.013 94.1855 168.704C94.5123 170.4 94.7301 172.115 94.8374 173.838C94.8673 174.262 94.8244 174.687 94.7105 175.096C94.6182 175.373 94.5258 175.471 94.4393 175.431C94.2547 175.338 94.1335 174.785 93.8335 173.942C92.8811 171.103 92.0838 168.214 91.4451 165.288C89.9797 158.544 88.3124 151.817 86.6682 145.096C85.0239 138.375 83.3508 131.59 81.747 124.783C80.772 120.71 79.7797 116.556 78.7816 112.373C78.5393 111.323 78.3085 110.267 78.0893 109.206C77.9855 108.663 77.8701 108.138 77.7893 107.573L77.7258 107.158C77.7258 106.979 77.697 106.725 77.6797 106.511V106.177C77.6797 106.119 77.6797 106.056 77.6797 106.01L77.7951 105.888C77.9566 105.727 78.1008 105.571 78.2797 105.415L78.4874 105.219L78.6489 105.075L78.9778 104.81C79.1896 104.625 79.411 104.452 79.6412 104.29C80.0912 103.961 80.5355 103.621 81.0028 103.333C81.9201 102.715 82.8778 102.179 83.8297 101.654C88.0735 99.4736 92.5295 97.7337 97.1278 96.4615C99.4355 95.8845 101.709 95.2384 104.051 94.7942C105.205 94.5576 106.359 94.2749 107.512 94.0845L111.014 93.5076C112.445 93.2422 113.899 93.0692 115.33 92.8903C116.76 92.7115 118.214 92.5153 119.657 92.3653L124.001 91.9845L126.164 91.7942C126.891 91.7249 127.618 91.7076 128.339 91.6615L134.916 91.3153C137.068 91.1668 139.196 90.7798 141.262 90.1615C145.405 88.9015 149.438 87.3038 153.32 85.3845C159.412 82.4653 165.251 79.2807 171.516 76.7307C172.895 76.1538 174.251 75.6461 175.682 75.1788C177.55 74.5321 179.471 74.0457 181.422 73.7249C182.306 73.561 183.213 73.5708 184.093 73.7538C184.373 73.8025 184.649 73.8739 184.918 73.9672C185.201 74.123 184.797 74.3538 183.845 74.6422L179.495 75.8653C173.841 77.5038 168.303 80.048 162.73 82.7884C157.157 85.5288 151.543 88.4711 145.497 90.7442C143.231 91.6121 140.896 92.2857 138.516 92.7576C137.303 92.9904 136.075 93.1388 134.841 93.2018L131.316 93.3922C128.98 93.5249 126.632 93.6057 124.301 93.848C121.97 94.0903 119.628 94.2172 117.314 94.5576L117.297 94.5115Z" fill="#3B2C7D"/>
<path d="M112.213 91.6843C111.059 91.8458 109.951 92.0766 108.82 92.2612C107.69 92.4458 106.553 92.642 105.434 92.8843L102.076 93.6516C101.499 93.7785 100.922 93.8939 100.397 94.0381L98.7416 94.5054C94.3067 95.6724 89.9915 97.2544 85.8532 99.2304C85.0859 99.5593 84.3763 99.992 83.6378 100.384C82.8993 100.777 82.1955 101.209 81.4859 101.636C80.0805 102.49 78.7455 103.455 77.4936 104.521C77.3543 104.632 77.2214 104.752 77.0955 104.878L76.882 105.075C76.8301 105.103 76.882 105.161 76.882 105.236L76.9455 105.709C77.0666 106.396 77.234 107.14 77.3724 107.85C77.7013 109.292 78.0243 110.734 78.382 112.177C79.0743 115.061 79.8013 117.946 80.534 120.83C81.9916 126.6 83.482 132.353 85.0051 138.092C86.3436 143.192 87.7397 148.309 89.1186 153.363C90.884 159.848 92.7359 166.35 94.2705 172.898C95.2166 176.982 92.6263 172.159 90.6243 164.677C87.082 151.407 83.5224 138.138 80.1763 124.713C79.1667 120.675 78.134 116.59 77.1013 112.465C76.5878 110.4 76.0859 108.329 75.659 106.211C75.607 105.934 75.5782 105.634 75.532 105.346L75.457 104.717V104.63L75.509 104.573L75.6243 104.452L75.8493 104.209L76.2128 103.857C76.3109 103.759 76.4147 103.673 76.5186 103.58L77.1417 103.044L78.4282 102.04L79.7666 101.128C83.7543 98.618 88.0242 96.5867 92.4878 95.0766C96.9192 93.5541 101.449 92.334 106.045 91.4246C108.884 90.9227 111.705 90.3573 114.567 90.0343C115.992 89.8612 117.417 89.6304 118.847 89.492L123.14 89.1112C125.303 88.8747 127.478 88.7996 129.659 88.69L132.919 88.5343C133.495 88.5343 133.997 88.4766 134.522 88.442C135.047 88.4073 135.572 88.3266 136.092 88.2112C138.191 87.7761 140.243 87.1385 142.219 86.3073C144.209 85.4997 146.159 84.5766 148.097 83.6535C154.115 80.7285 159.936 77.6246 166.161 75.2304C167.528 74.6939 168.884 74.2093 170.292 73.7477C172.141 73.1356 174.03 72.6518 175.945 72.2996C176.805 72.1223 177.686 72.0756 178.559 72.1612C178.828 72.1861 179.096 72.2246 179.361 72.2766C179.938 72.5016 177.757 72.9804 173.955 74.042C168.198 75.7724 162.6 77.9961 157.224 80.6881L148.847 84.7439C146.018 86.164 143.107 87.4162 140.13 88.4939C138.997 88.8865 137.841 89.2083 136.669 89.4573C136.369 89.515 136.092 89.5785 135.769 89.6247L134.857 89.7516C134.24 89.8035 133.605 89.8381 133.04 89.867L126.082 90.2131C123.774 90.3862 121.467 90.6227 119.159 90.79C116.851 90.9573 114.544 91.367 112.236 91.6843H112.213Z" fill="#3B2C7D"/>
<path d="M78.6079 122.55L82.3694 135.461L83.7886 140.157L88.554 156.779C89.2579 159.236 89.9906 161.7 90.7117 164.134C91.6406 167.261 92.6271 170.394 93.3021 173.59C93.7117 175.586 91.7963 173.411 90.7925 169.811C88.9983 163.419 87.1579 157.027 85.4213 150.548C84.3771 146.671 83.1136 142.69 81.9598 138.75C80.6906 134.423 79.4175 130.092 78.1406 125.757C77.3713 123.088 76.6021 120.419 75.8329 117.75L74.1021 111.669C73.5252 109.632 72.9483 107.631 72.4867 105.559C72.3801 105.1 72.3049 104.633 72.2617 104.163C72.3842 103.928 72.5353 103.709 72.7117 103.511L73.1098 103.038C73.6521 102.428 74.23 101.85 74.8406 101.307C76.0452 100.2 77.3531 99.2112 78.7463 98.3536C79.3521 97.9613 79.9694 97.6151 80.6156 97.2805C83.0386 96.0805 83.9213 95.9651 84.5733 96.1267C84.721 96.1504 84.866 96.1891 85.0059 96.242C85.1675 96.3344 85.0059 96.5305 84.6079 96.7843C84.2098 97.0382 83.5233 97.3613 82.6752 97.7767C80.0943 98.995 77.7071 100.587 75.5906 102.502C75.0713 102.992 74.5579 103.5 74.0906 104.036L73.7559 104.44L73.6752 104.544L73.8079 105.207C74.1309 106.632 74.5348 108.092 74.9617 109.552C76.1733 113.884 77.4425 118.206 78.7233 122.573L78.6079 122.55Z" fill="#3B2C7D"/>
<path d="M99.8073 177.606C101.018 176.265 102.027 174.755 102.802 173.123C102.976 172.72 103.128 172.308 103.257 171.888C103.402 171.473 103.448 171.034 103.552 170.607C103.622 170.174 103.666 169.737 103.684 169.298C103.729 168.879 103.715 168.455 103.644 168.04C103.585 167.484 103.386 166.953 103.067 166.494C102.948 166.321 102.784 166.185 102.593 166.098C102.402 166.012 102.191 165.979 101.982 166.004C101.76 166.03 101.542 166.088 101.336 166.177C101.294 166.184 101.256 166.204 101.227 166.234L101.152 166.275L100.921 166.517C100.572 166.97 100.253 167.444 99.963 167.936C99.3342 168.963 98.6938 170.019 98.0246 171.052C96.6887 173.12 95.2142 175.096 93.6111 176.965L92.5438 178.206L91.4419 179.417C91.0784 179.827 90.6919 180.207 90.288 180.606L89.7111 181.182C89.538 181.379 89.365 181.546 89.2092 181.759C87.5823 183.79 86.6707 186.554 84.5938 188.642C83.9246 189.271 83.7573 188.867 83.9592 188.065C84.2718 186.897 84.7394 185.775 85.3496 184.731C86.0394 183.454 86.8102 182.222 87.6573 181.044C87.8988 180.734 88.1568 180.438 88.4303 180.156L89.1688 179.406C89.6592 178.915 90.1438 178.425 90.6111 177.911C92.516 175.886 94.2852 173.737 95.9073 171.479C96.888 170.123 97.7592 168.663 98.6534 167.146C98.8727 166.771 99.1092 166.39 99.3688 165.992C99.5119 165.791 99.6659 165.599 99.8303 165.415C99.9227 165.317 100.009 165.219 100.119 165.121C100.256 165.018 100.399 164.921 100.546 164.832C101.038 164.59 101.578 164.46 102.127 164.452C102.73 164.463 103.311 164.688 103.765 165.086C104.206 165.484 104.542 165.983 104.746 166.54C104.935 167.043 105.059 167.569 105.115 168.104C105.143 168.366 105.156 168.63 105.155 168.894C105.155 169.148 105.121 169.396 105.103 169.65L105.052 170.406C105.052 170.654 104.959 170.896 104.919 171.144C104.509 173.105 103.678 174.953 102.484 176.561C101.105 178.546 99.3688 180.184 98.0534 182.042C97.5497 182.724 97.1331 183.466 96.813 184.252C96.7414 184.44 96.6836 184.632 96.64 184.829C96.5731 185.016 96.5248 185.209 96.4957 185.406C96.4452 185.823 96.4163 186.243 96.4092 186.663C96.4092 188.446 96.3457 190.24 96.1784 192.023C95.8842 194.769 95.4515 197.55 94.0611 200.1C93.7632 200.658 93.4197 201.19 93.0342 201.692C92.7036 202.074 92.3491 202.434 91.9727 202.771C91.7007 202.979 91.4176 203.171 91.1246 203.348C90.7765 203.551 90.3703 203.633 89.9707 203.579C89.8327 203.569 89.6967 203.54 89.5669 203.492C89.3996 203.406 89.4861 203.186 89.7573 202.886C89.9295 202.712 90.1105 202.546 90.2996 202.39C90.5015 202.171 90.7438 201.934 91.0207 201.686C91.8026 200.866 92.4526 199.93 92.9477 198.911C93.443 197.841 93.8295 196.724 94.1015 195.577C94.3684 194.384 94.5611 193.176 94.6784 191.959C94.7938 190.731 94.8573 189.479 94.8804 188.215V186.802C94.88 186.273 94.9108 185.746 94.9727 185.221C95.1594 184.147 95.5511 183.118 96.1265 182.192C97.1938 180.375 98.5611 178.979 99.7496 177.531L99.8073 177.606Z" fill="#3B2C7D"/>
<path d="M76.5514 204.542C77.5764 200.819 78.4045 197.045 79.0321 193.235C79.2571 191.85 79.3667 190.454 79.4937 189.063C79.9379 184.056 80.5783 179.077 81.4552 174.127C81.8533 171.935 82.2571 169.725 82.7821 167.561C83.0994 166.154 83.506 164.769 83.9994 163.413C84.4678 161.974 85.275 160.668 86.3533 159.606C87.236 158.994 87.2187 159.508 86.9302 160.183C86.6417 160.858 86.3533 162.121 85.7764 163.552C84.7915 166.195 84.0311 168.916 83.5033 171.686C82.9264 174.49 82.436 177.329 81.9744 180.19C81.7033 181.921 81.4956 183.652 81.3283 185.435C81.2533 186.323 81.1783 187.211 81.0975 188.1C81.0168 188.988 80.9648 189.888 80.8725 190.788C80.4001 194.71 79.6658 198.596 78.6744 202.419C78.0975 204.767 77.4571 207.098 76.8167 209.429C76.3264 211.16 75.8706 212.959 75.2937 214.719C74.7167 216.479 74.0764 218.181 73.3725 219.877C72.2764 222.49 71.111 225.023 69.7725 227.498C69.4725 228.04 69.1956 228.577 68.8783 229.113C67.7244 231.104 67.1821 231.652 66.5706 231.836C66.4387 231.89 66.3013 231.928 66.161 231.952C65.7687 231.952 66.0802 231.046 66.8879 229.586C69.4276 225.162 71.5873 220.53 73.3437 215.74C73.9898 213.923 74.4975 212.094 75.011 210.185C75.5244 208.275 76.0494 206.4 76.5341 204.508L76.5514 204.542Z" fill="#3B2C7D"/>
<path d="M84.2838 229.275C84.5665 227.723 84.8146 226.154 85.0281 224.579C85.1031 224.002 85.1261 223.425 85.2011 222.848C85.4723 220.817 85.7435 218.81 85.98 216.733C86.0838 215.827 86.1358 214.91 86.1877 213.998C86.2627 212.844 86.1877 211.65 86.6954 210.433C86.8742 210.035 87.2723 210.288 87.6646 210.686C87.8842 210.887 88.0574 211.132 88.172 211.406C88.2866 211.68 88.3399 211.976 88.3281 212.273C88.0858 214.552 87.8665 216.94 87.4165 219.306C87.1569 220.719 87.1165 222.219 86.9377 223.679C86.7473 225.283 86.5223 226.892 86.2627 228.49C86.1011 229.475 85.9281 230.46 85.7434 231.444C85.4665 232.933 85.1204 234.415 84.7569 235.886C84.5172 237.046 84.2149 238.192 83.8511 239.319C83.7531 239.567 83.6723 239.821 83.5627 240.069C83.1184 240.986 82.7723 241.194 82.2646 241.067C82.1469 241.046 82.0311 241.015 81.9185 240.975C81.5665 240.802 81.5435 240.335 81.7627 239.752C82.4111 237.846 82.9428 235.902 83.355 233.931C83.6896 232.402 83.9954 230.844 84.2377 229.275H84.2838Z" fill="#3B2C7D"/>
<path d="M80.2399 219.635C79.45 219.361 78.6791 219.035 77.9322 218.66C77.647 218.545 77.3678 218.416 77.0957 218.273C76.1525 217.723 75.2822 217.056 74.5053 216.288C74.3264 216.133 74.1649 215.942 73.9803 215.781C73.7957 215.619 73.6284 215.44 73.4611 215.256L73.1322 214.915C73.0284 214.788 72.9303 214.656 72.8322 214.523C72.6378 214.256 72.5129 213.945 72.4688 213.617C72.4687 213.404 72.9014 213.271 73.3918 213.225C73.8822 213.179 74.3611 213.173 74.5053 213.381C75.0896 214.202 75.7398 214.973 76.4495 215.688C76.9618 216.141 77.547 216.504 78.1803 216.762C78.8569 217.115 79.5543 217.427 80.2688 217.696C80.7149 217.864 81.1693 218.008 81.6303 218.129C82.3255 218.332 83.0382 218.469 83.7591 218.538C84.3148 218.555 84.8708 218.522 85.4207 218.44C85.5418 218.44 85.663 218.388 85.7841 218.383C86.2341 218.383 86.3611 218.487 86.4764 218.96C86.5078 219.071 86.5309 219.185 86.5457 219.3C86.5782 219.472 86.5453 219.649 86.4535 219.797C86.3616 219.946 86.2175 220.055 86.0495 220.102C84.9664 220.387 83.8339 220.43 82.7322 220.229C81.8961 220.097 81.0708 219.905 80.263 219.652L80.2399 219.635Z" fill="#3B2C7D"/>
<path d="M78.5828 227.885C79.0674 226.327 79.5636 224.775 80.0193 223.235L80.2847 222.317C80.2993 222.251 80.2993 222.182 80.2847 222.115C80.2847 222.046 80.2443 221.965 80.1751 221.948C80.1059 221.931 79.9617 222.063 79.904 222.185L79.8232 222.392L79.6963 222.767L79.5174 223.344C79.0443 224.879 78.6001 226.448 78.1443 228.011C77.8097 229.165 77.4809 230.319 77.1174 231.473C76.7645 232.654 76.3347 233.81 75.8309 234.935C75.5841 235.497 75.2619 236.023 74.8732 236.498C74.7329 236.653 74.5762 236.792 74.4059 236.913C74.142 237.093 73.831 237.192 73.5117 237.196C73.326 237.195 73.1422 237.16 72.9693 237.092L72.652 236.919C72.4374 236.781 72.2529 236.6 72.1097 236.388C71.8719 236.02 71.7438 235.592 71.7405 235.154C71.7417 234.824 71.7745 234.496 71.8386 234.173C71.9611 233.637 72.1113 233.107 72.2886 232.586L72.4905 231.842L72.7213 231.069C72.879 230.558 73.0463 230.05 73.2232 229.546C73.5809 228.542 73.9617 227.567 74.3194 226.592C74.677 225.617 75.0232 224.654 75.3001 223.679C75.577 222.704 75.7674 221.711 75.9693 220.679C76.0674 220.171 76.1597 219.669 76.2174 219.179C76.2524 218.942 76.2736 218.703 76.2809 218.463C76.2955 218.286 76.2839 218.107 76.2463 217.933C76.2463 217.933 76.2001 217.933 76.3155 217.892C76.3571 217.875 76.3959 217.851 76.4309 217.823L76.5059 217.783L76.5636 217.725H76.5924C76.5938 217.715 76.5938 217.706 76.5924 217.696C76.5893 217.731 76.5893 217.765 76.5924 217.8C76.6024 217.868 76.6159 217.935 76.6328 218.002C76.6432 218.036 76.6567 218.069 76.6732 218.1C76.5096 218.21 76.3604 218.34 76.229 218.486C75.9573 218.833 75.7466 219.223 75.6059 219.64C74.9367 221.308 74.4059 223.102 73.8405 224.873C73.2751 226.644 72.6924 228.415 72.0578 230.192L71.7347 231.006C71.6136 231.288 71.5328 231.502 71.3078 231.952C71.2175 232.15 71.1154 232.343 71.002 232.529L70.8405 232.811L70.6617 233.054C70.604 233.135 70.5463 233.221 70.4828 233.296L70.2924 233.486C70.1682 233.608 70.0352 233.72 69.8943 233.821C69.6728 233.978 69.4119 234.07 69.1409 234.088C68.87 234.105 68.5995 234.047 68.3597 233.919C68.154 233.752 67.9838 233.545 67.8589 233.312C67.7341 233.078 67.6572 232.822 67.6328 232.558C67.5507 231.884 67.5682 231.201 67.6847 230.533L67.7482 230.14L67.8117 229.794C67.8578 229.563 67.904 229.333 67.9559 229.108C68.1686 228.206 68.4345 227.318 68.752 226.448C69.0578 225.563 69.444 224.707 69.9059 223.892C70.0592 223.603 70.2786 223.354 70.5463 223.165C70.638 223.104 70.7426 223.064 70.852 223.05C70.9386 223.05 70.9732 223.05 70.9847 223.119C70.9963 223.188 70.9213 223.379 70.904 223.575C70.8867 223.771 70.8405 224.031 70.7943 224.348C70.6443 225.6 70.2174 227.844 69.7617 230.348L69.7155 230.608V230.729L69.8193 230.492C69.9174 230.279 70.0097 230.048 70.102 229.829C70.4655 228.923 70.8001 227.977 71.129 227.025L73.0501 221.215C73.3738 220.193 73.7591 219.191 74.204 218.215C74.2742 218.067 74.3532 217.922 74.4405 217.783C74.5458 217.61 74.6696 217.449 74.8097 217.304C75.0423 217.045 75.3058 216.817 75.5943 216.623C75.8734 216.426 76.2046 216.315 76.5463 216.306H76.754C76.8359 216.319 76.9169 216.339 76.9963 216.363C77.1517 216.41 77.2967 216.487 77.4232 216.588C77.6145 216.742 77.7651 216.94 77.8617 217.165C77.9638 217.394 78.0281 217.637 78.052 217.886C78.052 218.083 78.052 218.244 78.052 218.4C77.9829 219.491 77.8189 220.574 77.5617 221.636C77.4578 222.127 77.3482 222.658 77.2155 223.177C77.0828 223.696 76.9386 224.21 76.777 224.717C76.3155 226.148 75.7674 227.538 75.254 228.917C75.0001 229.604 74.752 230.296 74.527 230.988C74.4193 231.335 74.3155 231.681 74.2155 232.027L73.9213 233.117C73.8117 233.504 73.702 233.838 73.6155 234.167C73.5356 234.461 73.4891 234.763 73.477 235.067C73.4758 235.163 73.4875 235.258 73.5117 235.35C73.5117 235.396 73.5117 235.425 73.5578 235.425C73.604 235.425 73.5578 235.425 73.5982 235.454C73.5463 235.575 73.7078 235.183 73.4828 235.725C73.4794 235.738 73.4794 235.752 73.4828 235.765C73.4708 235.644 73.4292 235.527 73.3617 235.425C73.3617 235.425 73.3617 235.425 73.4136 235.379C73.6067 235.173 73.7681 234.94 73.8924 234.686C74.0585 234.383 74.2087 234.071 74.3424 233.752C74.6193 233.094 74.8674 232.408 75.104 231.715C76.1424 228.658 76.9443 225.479 77.9367 222.323L78.1732 221.602C78.2713 221.302 78.3867 220.985 78.4963 220.685C78.6766 220.151 78.9394 219.649 79.2751 219.196C79.5235 218.856 79.8697 218.601 80.2674 218.463C80.494 218.388 80.7344 218.365 80.9713 218.394C81.2136 218.425 81.4398 218.532 81.6174 218.7C81.9416 219.023 82.1642 219.434 82.2578 219.883C82.3097 220.116 82.3387 220.353 82.3443 220.592C82.3585 220.862 82.3449 221.133 82.304 221.4C82.2636 221.694 82.1886 221.977 82.1193 222.311L81.8943 223.177L81.5482 224.371L79.777 230.14C79.4943 231.104 79.2001 232.067 78.9693 233.025C78.8482 233.504 78.7328 233.988 78.629 234.473L78.5367 234.923L78.4732 235.315C78.4422 235.506 78.4249 235.699 78.4213 235.892C78.4041 236.091 78.442 236.291 78.5309 236.469C78.5644 236.507 78.605 236.538 78.6506 236.56C78.6961 236.582 78.7455 236.595 78.796 236.597C78.8465 236.6 78.897 236.593 78.9446 236.575C78.9922 236.558 79.0359 236.532 79.0732 236.498C79.2315 236.375 79.3613 236.22 79.454 236.042C79.6463 235.675 79.799 235.288 79.9097 234.888C80.1174 234.179 80.279 233.423 80.4866 232.69C81.0924 229.748 81.5482 226.696 82.2174 223.719C82.3443 223.142 82.4828 222.565 82.6443 221.988C82.7251 221.7 82.8117 221.411 82.9155 221.111C83.0233 220.78 83.1726 220.465 83.3597 220.171C83.4392 220.063 83.5323 219.966 83.6367 219.883C83.7312 219.816 83.8366 219.768 83.9482 219.738C84.0251 219.717 84.1049 219.707 84.1847 219.71C84.3384 219.709 84.4905 219.74 84.6321 219.799C84.7738 219.859 84.9022 219.946 85.0097 220.056C85.2762 220.372 85.4447 220.759 85.4943 221.169C85.5897 221.791 85.6206 222.421 85.5867 223.05C85.4335 225.4 85.1523 227.74 84.7443 230.06C84.5828 231.069 84.427 232.061 84.2655 233.083C83.6424 236.861 83.4405 237.975 83.1117 238.69C83.0748 238.769 83.0627 238.858 83.077 238.944C83.077 239.025 83.204 239.088 83.279 239.117C83.354 239.146 83.4693 239.267 83.2097 239.406C83.1065 239.439 82.9956 239.439 82.8924 239.406C82.7588 239.366 82.6389 239.29 82.5463 239.186C82.4 239.007 82.2937 238.799 82.2347 238.575C82.0144 237.459 81.9929 236.312 82.1713 235.188C82.4078 233.088 82.7482 231 83.0597 228.9C83.4111 226.846 83.6461 224.773 83.7636 222.692C83.7842 222.256 83.7552 221.818 83.677 221.388C83.677 221.313 83.6251 221.279 83.677 221.256C83.9046 221.177 84.1048 221.035 84.254 220.846C84.2491 220.861 84.2491 220.877 84.254 220.892C84.254 220.892 84.254 220.956 84.254 221.002C84.2512 221.025 84.2512 221.048 84.254 221.071C84.0924 219.986 84.2078 220.777 84.1732 220.54C84.1704 220.554 84.1704 220.567 84.1732 220.581C84.1775 220.608 84.1895 220.634 84.2078 220.656C84.2078 220.685 84.2367 220.656 84.2713 220.742C84.3323 220.837 84.4083 220.92 84.4963 220.99C84.5713 221.025 84.7213 221.181 84.854 221.273C84.7713 221.439 84.7 221.611 84.6405 221.786C84.5655 222.006 84.4905 222.248 84.4213 222.49C84.2828 222.981 84.1559 223.5 84.0405 224.019C83.5732 226.113 83.204 228.271 82.8174 230.446C82.6674 231.254 82.529 232.056 82.3559 232.898L82.2809 233.227L82.2059 233.544L82.0617 234.121C81.9636 234.525 81.8655 234.94 81.7443 235.361L81.6809 235.586L81.5886 235.875L81.3982 236.452C81.2683 236.813 81.12 237.167 80.954 237.513C80.6958 238.069 80.3312 238.569 79.8809 238.985C79.7031 239.129 79.5096 239.253 79.304 239.354C79.0928 239.439 78.8718 239.497 78.6463 239.527C78.5204 239.55 78.3914 239.55 78.2655 239.527C78.1302 239.523 77.9961 239.5 77.8674 239.458C77.6364 239.381 77.4227 239.259 77.2386 239.1C76.9123 238.791 76.6905 238.387 76.604 237.946C76.4833 237.289 76.4697 236.617 76.5636 235.956C76.6097 235.569 76.6674 235.177 76.7424 234.802L76.852 234.225L76.9213 233.913C77.0078 233.498 77.1059 233.088 77.2097 232.679C77.6193 231.046 78.0924 229.46 78.5655 227.879L78.5828 227.885Z" fill="#3B2C7D"/>
<path d="M198.995 126.386C198.38 122.156 197.71 117.925 196.987 113.694C196.716 112.154 196.41 110.625 196.122 109.079C195.153 103.667 194.12 98.2557 192.874 92.9249C192.591 91.7423 192.297 90.5596 191.98 89.3769C191.662 88.1942 191.305 87.0346 190.964 85.8749C190.024 82.9211 188.991 79.9846 187.93 77.1115C187.624 76.2057 188.103 76.1134 188.841 76.6903C189.317 77.0801 189.737 77.5345 190.087 78.0403C190.564 78.7249 190.942 79.4725 191.212 80.2615L191.628 81.4153L191.991 82.5692L192.707 84.8769C193.128 86.4288 193.578 87.9749 193.953 89.5326C194.722 92.6519 195.391 95.7961 195.96 98.9653C196.664 102.756 197.524 106.661 198.268 110.533C199.037 114.794 199.747 119.063 200.397 123.34C200.782 125.971 201.166 128.604 201.551 131.238C201.845 133.235 202.128 135.236 202.37 137.233L202.768 140.227C202.907 141.208 203.074 142.183 203.287 143.146C203.945 146.146 205.018 148.973 205.999 151.91C206.212 152.556 206.432 153.19 206.622 153.854C207.297 156.346 207.251 157.235 206.841 157.835C206.759 157.977 206.663 158.111 206.553 158.233C206.189 158.504 205.808 157.54 205.318 155.815C204.574 153.248 203.558 150.623 202.693 147.871C202.26 146.486 201.862 145.067 201.539 143.619C201.366 142.892 201.233 142.16 201.107 141.421L200.939 140.308L200.789 139.235C200.212 134.965 199.635 130.679 198.955 126.415L198.995 126.386Z" fill="#3B2C7D"/>
<path d="M204.002 165.058C203.238 164.481 202.427 163.967 201.579 163.523C200.669 162.983 199.807 162.367 199 161.683C197.385 160.319 196.005 158.7 194.915 156.888C194.513 156.219 194.164 155.518 193.871 154.794C193.541 154.019 193.368 153.185 193.363 152.342C193.368 152.123 193.397 151.904 193.45 151.69C193.48 151.569 193.523 151.451 193.577 151.339L193.663 151.16L193.75 151.027C193.993 150.635 194.333 150.311 194.736 150.087C195.152 149.89 195.61 149.799 196.069 149.821C196.463 149.856 196.851 149.941 197.223 150.075C198.485 150.617 199.653 151.355 200.684 152.262C201.706 153.11 202.663 153.992 203.604 154.904L205 156.254C205.431 156.69 205.896 157.091 206.39 157.454C207.308 158.031 208.363 158.55 209.373 159.092C210.383 159.635 211.409 160.177 212.408 160.754C213.712 161.48 214.969 162.289 216.169 163.177L217.052 163.904C217.334 164.158 217.629 164.435 217.883 164.7C218.136 164.965 218.384 165.277 218.627 165.6L218.944 166.113C219.058 166.28 219.151 166.461 219.221 166.65C219.602 167.642 219.123 167.539 218.483 167.042C217.842 166.546 216.752 165.831 215.523 164.833C213.186 163.085 210.704 161.541 208.104 160.217C207.446 159.854 206.794 159.508 206.113 159.11C205.952 159.017 205.767 158.896 205.594 158.792C205.407 158.671 205.228 158.538 205.058 158.394C204.734 158.123 204.481 157.858 204.175 157.592C203.079 156.531 202.046 155.463 200.961 154.448C200.319 153.832 199.641 153.254 198.931 152.717C198.259 152.195 197.514 151.773 196.721 151.465C196.399 151.338 196.05 151.29 195.706 151.327C195.572 151.349 195.445 151.4 195.332 151.476C195.22 151.551 195.125 151.65 195.054 151.765C194.725 152.117 194.858 153.029 195.106 153.808C195.761 155.633 196.775 157.308 198.088 158.735C199.396 160.202 200.933 161.447 202.64 162.421C202.906 162.56 203.165 162.704 203.459 162.883C203.748 163.042 204.027 163.217 204.296 163.408C204.83 163.789 205.333 164.212 205.802 164.671C206.705 165.59 207.504 166.606 208.184 167.7C209.223 169.321 210.083 171.023 211.023 172.638C211.885 174.27 212.996 175.758 214.317 177.046C216.396 178.942 218.889 180.325 221.598 181.085C222.175 181.263 222.752 181.338 223.369 181.46C225.608 181.76 226.317 181.644 226.831 182.037C226.961 182.11 227.084 182.195 227.2 182.29C227.333 182.44 227.171 182.596 226.733 182.752C226.457 182.843 226.175 182.917 225.89 182.971C225.544 183.006 225.134 183.035 224.673 183.046C223.291 183.02 221.919 182.807 220.594 182.412C219.255 181.985 217.969 181.404 216.763 180.681C215.537 179.96 214.389 179.115 213.336 178.16C212.791 177.668 212.285 177.134 211.825 176.562C211.375 175.985 210.965 175.408 210.579 174.831C209.425 173.06 208.513 171.237 207.504 169.529C207.01 168.689 206.47 167.876 205.888 167.094C205.312 166.352 204.661 165.671 203.944 165.063L204.002 165.058Z" fill="#3B2C7D"/>
<path d="M225.34 164.423C226.483 166.082 227.72 167.675 229.043 169.194C230.399 170.682 231.842 172.148 233.284 173.596C234.334 174.652 235.43 175.673 236.486 176.723C240.224 180.431 243.988 184.121 247.776 187.794C249.461 189.421 251.186 191.019 252.893 192.588C255.086 194.613 257.347 196.569 259.401 198.756C260.047 199.442 259.667 199.632 258.824 199.367C257.556 198.89 256.4 198.157 255.426 197.215C250.972 193.061 246.576 188.85 242.267 184.465C239.688 181.846 236.872 179.273 234.19 176.613C232.72 175.159 231.259 173.692 229.805 172.211C229.09 171.456 228.363 170.729 227.67 169.904C226.978 169.079 226.332 168.294 225.692 167.469C224.14 165.427 222.703 163.315 221.29 161.198C219.149 157.984 217.107 154.702 214.903 151.592C213.241 149.2 211.382 146.95 209.347 144.865C208.897 144.415 208.442 144.006 207.968 143.584C207.097 142.806 206.48 142.373 206.082 142.009C205.767 141.772 205.511 141.466 205.332 141.115C205.256 140.986 205.196 140.849 205.153 140.706C205.113 140.509 205.338 140.463 205.805 140.567C206.49 140.766 207.135 141.08 207.715 141.496C209.938 143.146 211.916 145.104 213.588 147.311C215.318 149.486 216.899 151.788 218.451 154.102C220.759 157.563 222.963 161.025 225.374 164.377L225.34 164.423Z" fill="#3B2C7D"/>
<path d="M240.825 203.244C240.069 201.963 239.267 200.723 238.413 199.5C238.101 199.056 237.744 198.646 237.426 198.202C236.307 196.65 235.119 195.104 233.965 193.586C233.428 192.917 232.857 192.271 232.28 191.648C231.494 190.882 230.779 190.046 230.146 189.15C229.776 188.573 231.467 188.25 232.303 189.19C233.806 190.863 235.205 192.626 236.492 194.469C237.259 195.588 238.223 196.644 239.019 197.769C239.925 198.998 240.784 200.267 241.598 201.565L243.057 203.965C243.796 205.165 244.517 206.377 245.365 207.479C246.013 208.311 246.735 209.084 247.523 209.786L248.042 210.236C248.671 210.813 248.821 211.038 248.7 211.483C248.7 211.581 248.653 211.69 248.619 211.783C248.486 212.083 248.042 212.054 247.465 211.673C245.783 210.43 244.347 208.884 243.23 207.115C242.365 205.834 241.592 204.513 240.796 203.244H240.825Z" fill="#3B2C7D"/>
<path d="M245.305 192C244.589 192.673 243.817 193.283 242.997 193.823C242.703 194.025 242.42 194.238 242.103 194.4C240.98 195.011 239.764 195.431 238.503 195.64C237.931 195.74 237.352 195.79 236.772 195.79C235.994 195.852 235.22 195.622 234.603 195.144C234.407 194.988 234.666 194.677 235.007 194.417C235.17 194.291 235.346 194.183 235.532 194.094C235.673 194.012 235.839 193.983 235.999 194.013C237.142 194.264 238.329 194.238 239.461 193.938C240.23 193.721 240.957 193.376 241.612 192.917C242.382 192.455 243.108 191.924 243.782 191.331C244.194 190.975 244.579 190.589 244.935 190.177C245.493 189.566 245.94 188.864 246.257 188.1C246.362 187.848 246.416 187.577 246.416 187.304C246.416 187.03 246.362 186.76 246.257 186.508C246.237 186.467 246.214 186.429 246.187 186.392C246.159 186.358 246.124 186.329 246.101 186.294C245.911 186.058 245.859 185.948 245.985 185.527C246.014 185.435 246.037 185.336 246.066 185.244C246.087 185.17 246.128 185.103 246.185 185.052C246.242 185.001 246.313 184.967 246.389 184.956C246.5 184.938 246.613 184.945 246.721 184.976C246.828 185.007 246.928 185.061 247.012 185.135C247.378 185.408 247.652 185.786 247.797 186.219C247.862 186.43 247.909 186.646 247.936 186.865C247.95 187.073 247.95 187.281 247.936 187.488C247.844 188.237 247.601 188.96 247.22 189.611C246.702 190.496 246.067 191.307 245.334 192.023L245.305 192Z" fill="#3B2C7D"/>
<path d="M251.649 203.792C250.9 202.875 250.24 201.89 249.676 200.85C249.099 199.875 248.591 198.9 248.055 197.936C247.518 196.973 246.993 196.027 246.416 195.15C246.151 194.732 245.852 194.336 245.522 193.967C245.455 193.888 245.381 193.815 245.303 193.748C245.247 193.693 245.185 193.644 245.118 193.604C245.083 193.569 245.078 193.604 245.072 193.575C245.079 193.527 245.091 193.481 245.106 193.436C245.113 193.402 245.113 193.367 245.106 193.332C245.109 193.305 245.109 193.278 245.106 193.252L245.389 193.315C245.408 193.328 245.43 193.338 245.453 193.344H245.499C245.499 193.344 245.499 193.344 245.499 193.39C245.492 193.424 245.492 193.46 245.499 193.494C245.514 193.727 245.563 193.956 245.643 194.175C245.94 194.972 246.327 195.733 246.797 196.442C247.276 197.198 247.801 197.936 248.331 198.669C249.278 199.979 250.276 201.213 251.314 202.529C251.884 203.228 252.353 204.005 252.705 204.836C252.809 205.106 252.871 205.39 252.889 205.679C252.903 205.872 252.887 206.067 252.843 206.255C252.78 206.467 252.674 206.664 252.531 206.832C252.395 206.997 252.224 207.129 252.03 207.219L251.77 207.329C251.696 207.351 251.621 207.368 251.545 207.38C251.218 207.464 250.874 207.464 250.547 207.38C250.053 207.197 249.604 206.91 249.231 206.538C248.905 206.24 248.594 205.924 248.303 205.592C247.726 204.946 247.235 204.277 246.751 203.602C245.787 202.246 244.905 200.861 244.028 199.477L242.874 197.648L242.58 197.204L242.43 196.99L242.297 196.811C242.19 196.664 242.064 196.532 241.922 196.419C241.859 196.358 241.776 196.321 241.689 196.315C241.601 196.309 241.514 196.333 241.443 196.384C241.324 196.513 241.251 196.677 241.235 196.852C241.227 196.936 241.227 197.021 241.235 197.105C241.235 197.221 241.235 197.382 241.235 197.532C241.258 197.853 241.306 198.171 241.38 198.484C241.853 200.194 242.59 201.82 243.566 203.302C244.519 204.811 245.627 206.217 246.872 207.496C247.651 208.263 247.27 208.563 246.208 208.252C244.565 207.611 243.17 206.46 242.228 204.969C241.087 203.301 240.213 201.466 239.637 199.529C239.479 199 239.375 198.457 239.326 197.907C239.326 197.763 239.326 197.63 239.297 197.475V196.99L239.378 196.304C239.418 196.084 239.493 195.877 239.545 195.657C239.597 195.438 239.724 195.277 239.816 195.08C239.924 194.919 240.05 194.769 240.191 194.636C240.471 194.365 240.835 194.196 241.224 194.157C241.415 194.131 241.609 194.131 241.801 194.157C241.996 194.206 242.189 194.265 242.378 194.336C242.551 194.44 242.724 194.573 242.897 194.688C243.072 194.825 243.232 194.98 243.376 195.15C243.633 195.403 243.861 195.683 244.056 195.986L244.466 196.604L245.228 197.815L246.722 200.215C247.676 201.788 248.744 203.288 249.918 204.704C250.219 205.059 250.571 205.369 250.962 205.621C251.008 205.647 251.056 205.668 251.106 205.684C251.144 205.693 251.184 205.693 251.222 205.684C251.222 205.684 251.303 205.684 251.308 205.684L251.337 205.725C251.406 205.869 251.528 205.909 251.401 205.852C251.401 205.852 251.401 205.852 251.326 205.852H251.239V205.811C251.233 205.735 251.219 205.66 251.199 205.586C251.121 205.369 251.025 205.158 250.91 204.957C250.643 204.491 250.338 204.047 249.999 203.63C248.47 201.83 247.033 199.952 245.695 198.005C245.17 197.218 244.703 196.392 244.299 195.536C244.077 195.066 243.915 194.57 243.814 194.059C243.758 193.744 243.758 193.422 243.814 193.107C243.876 192.695 244.08 192.318 244.391 192.04L244.501 191.948H244.57C244.778 191.861 245.002 191.82 245.228 191.827C245.334 191.831 245.44 191.845 245.545 191.867C245.632 191.89 245.716 191.919 245.799 191.954C245.947 192.009 246.087 192.085 246.214 192.179C246.331 192.249 246.439 192.332 246.537 192.427C246.886 192.741 247.201 193.091 247.478 193.471C247.981 194.167 248.447 194.889 248.874 195.634C249.722 197.082 250.489 198.554 251.308 199.973C251.725 200.711 252.18 201.427 252.67 202.119C252.893 202.431 253.148 202.72 253.431 202.979L253.61 203.105C253.651 203.105 253.708 203.157 253.72 203.152C253.731 203.146 253.72 203.152 253.72 203.186L253.789 203.325C253.737 203.25 253.633 203.267 253.657 203.244C253.662 203.213 253.662 203.182 253.657 203.152C253.654 203.03 253.635 202.91 253.599 202.794C253.519 202.49 253.411 202.195 253.276 201.911C252.991 201.296 252.674 200.697 252.324 200.117C251.118 198.104 249.739 196.154 248.435 194.129C248.112 193.615 247.795 193.102 247.495 192.548C247.328 192.252 247.194 191.939 247.097 191.613C247.066 191.496 247.047 191.376 247.039 191.255C247.044 191.151 247.063 191.048 247.097 190.95C247.117 190.892 247.142 190.836 247.172 190.782C247.288 190.526 247.493 190.321 247.749 190.205C248.018 190.101 248.316 190.101 248.585 190.205C248.771 190.282 248.945 190.383 249.105 190.505C249.367 190.712 249.608 190.944 249.826 191.198C250.227 191.664 250.599 192.156 250.939 192.669C251.199 193.05 251.447 193.436 251.683 193.823L252.041 194.4C252.162 194.584 252.295 194.809 252.405 194.977C252.849 195.784 253.235 196.58 253.645 197.359C254.033 198.124 254.468 198.864 254.949 199.575C255.141 199.875 255.38 200.142 255.658 200.365C255.688 200.388 255.721 200.406 255.756 200.417C255.756 200.388 255.722 200.567 255.722 200.573C255.722 200.579 255.722 200.665 255.722 200.619C255.711 200.582 255.696 200.547 255.676 200.515C255.661 200.487 255.642 200.461 255.618 200.44C255.618 200.44 255.653 200.382 255.687 200.342L255.831 200.157L255.889 200.284C255.889 200.284 255.889 200.284 255.849 200.284C255.811 200.27 255.773 200.259 255.733 200.25C255.739 200.209 255.739 200.169 255.733 200.129C255.7 199.991 255.652 199.857 255.589 199.73C255.433 199.412 255.258 199.104 255.064 198.807C254.285 197.654 253.668 196.84 253.333 196.223C253.037 195.788 252.886 195.271 252.901 194.746C252.894 194.561 252.931 194.377 253.01 194.209C253.178 194.071 253.333 194.134 253.72 194.475C254.328 195.035 254.895 195.638 255.416 196.28C255.918 196.879 256.384 197.507 256.812 198.161C257.06 198.542 257.267 198.948 257.43 199.373C257.533 199.66 257.59 199.962 257.597 200.267C257.605 200.369 257.605 200.471 257.597 200.573C257.597 200.682 257.551 200.798 257.516 200.907C257.422 201.154 257.276 201.378 257.089 201.565L257.262 201.357C257.184 201.477 257.099 201.593 257.008 201.704C256.886 201.84 256.744 201.959 256.587 202.055C256.393 202.179 256.175 202.259 255.947 202.292C255.725 202.322 255.499 202.306 255.283 202.246C255.109 202.205 254.941 202.137 254.787 202.044C254.669 201.977 254.557 201.9 254.453 201.813C254.274 201.674 254.11 201.517 253.962 201.346C253.494 200.792 253.082 200.193 252.733 199.557C252.058 198.404 251.499 197.163 250.916 196.061C250.841 195.923 250.772 195.79 250.697 195.669L250.46 195.282L249.941 194.452C249.601 193.915 249.249 193.39 248.885 192.917C248.706 192.688 248.514 192.471 248.308 192.265C248.23 192.18 248.145 192.101 248.055 192.029C248.014 191.988 247.985 191.977 247.956 191.948H247.928L247.956 191.884C248.085 191.671 248.145 191.423 248.13 191.175C248.164 191.239 248.211 191.296 248.268 191.342C248.325 191.4 248.391 191.449 248.464 191.486C248.557 191.557 248.658 191.617 248.764 191.665L247.795 191.232C247.839 191.259 247.888 191.275 247.939 191.279C247.985 191.29 248.032 191.29 248.078 191.279H248.343C248.434 191.271 248.525 191.257 248.614 191.238L248.741 191.198L248.828 191.169V191.204C248.828 191.204 248.828 191.273 248.874 191.325C248.92 191.377 248.92 191.429 248.955 191.492C249.458 192.425 250.015 193.328 250.622 194.198L252.491 197.002C253.114 197.959 253.731 198.917 254.308 199.95C254.608 200.486 254.878 201.039 255.116 201.605C255.253 201.94 255.356 202.288 255.422 202.644C255.471 202.881 255.488 203.123 255.474 203.365C255.455 203.537 255.422 203.706 255.376 203.873C255.297 204.079 255.191 204.273 255.058 204.45L255.024 204.496L254.978 204.536C254.819 204.672 254.65 204.794 254.47 204.9C254.247 204.993 254.012 205.056 253.772 205.084C253.556 205.083 253.342 205.058 253.131 205.009C252.976 204.952 252.82 204.888 252.67 204.819C252.277 204.584 251.925 204.288 251.626 203.942L251.649 203.792Z" fill="#3B2C7D"/>
<path d="M204.866 149.677L203.776 145.742C203.643 145.263 203.476 144.796 203.355 144.312C202.905 142.621 202.484 140.913 202.097 139.2C201.941 138.433 201.734 137.677 201.584 136.892C201.491 136.402 201.353 135.917 201.307 135.404C201.278 135.144 201.255 134.89 201.238 134.637C201.22 134.383 201.278 134.1 201.313 133.835C201.347 133.569 201.636 133.61 201.889 133.887C202.204 134.225 202.406 134.652 202.466 135.11C202.697 137.002 203.17 138.969 203.551 140.954C203.788 142.148 204.191 143.348 204.526 144.548L205.639 148.5L206.332 150.935C206.672 152.169 207.018 153.41 207.359 154.633C207.63 155.585 207.936 156.508 208.178 157.471C208.224 157.685 208.282 157.892 208.328 158.112C208.401 158.402 208.419 158.703 208.38 159C208.368 159.082 208.339 159.161 208.294 159.23C208.249 159.3 208.19 159.359 208.12 159.404C208.065 159.453 208.003 159.494 207.936 159.525C207.722 159.594 207.509 159.283 207.399 158.746C206.995 157.131 206.464 155.377 205.974 153.617L204.82 149.677H204.866Z" fill="#3B2C7D"/>
<path d="M61.9702 162.634L65.1837 161.423C65.576 161.278 65.951 161.094 66.3376 160.95L70.4856 159.461C71.0972 159.236 71.6972 158.977 72.2856 158.705C73.0219 158.319 73.795 158.008 74.5933 157.777C74.8356 157.719 74.9683 158.053 74.9049 158.457C74.8761 158.684 74.7921 158.899 74.6603 159.085C74.5285 159.271 74.3529 159.422 74.1491 159.525C72.5873 160.202 70.9841 160.78 69.3491 161.255C68.3625 161.538 67.4049 162.005 66.4299 162.409L63.2106 163.644L61.2318 164.423C60.2395 164.827 59.2414 165.219 58.2779 165.669C57.5337 166.027 56.8414 166.453 56.1491 166.863C55.9933 166.95 55.8549 167.053 55.7049 167.14C55.1279 167.469 55.001 167.463 54.6433 167.255C54.5625 167.203 54.476 167.163 54.401 167.111C54.3409 167.072 54.2963 167.013 54.2752 166.945C54.2541 166.876 54.2578 166.802 54.2856 166.736C54.3202 166.64 54.3709 166.55 54.4356 166.471C54.5141 166.369 54.6052 166.278 54.7068 166.2C55.9616 165.299 57.3168 164.548 58.7452 163.961C59.801 163.494 60.8799 163.067 61.9472 162.628L61.9702 162.634Z" fill="#3B2C7D"/>
<path d="M64.0411 176.567C65.2372 177.694 66.4372 178.815 67.6411 179.931C68.0853 180.334 68.5526 180.709 68.9911 181.119C70.543 182.55 72.0834 184.004 73.6526 185.411C74.3507 186.04 75.0776 186.64 75.7988 187.229C76.7623 187.932 77.6743 188.703 78.5276 189.536C79.0353 190.084 77.4545 190.506 76.3872 189.623C74.5065 188.059 72.6834 186.432 70.9411 184.679C69.8968 183.634 68.7026 182.677 67.5834 181.667L63.9199 178.298L61.6815 176.209L58.2719 173.077C57.3949 172.263 56.4834 171.519 55.6122 170.7C55.4161 170.521 55.2257 170.348 55.0353 170.157C54.3545 169.431 54.2103 169.061 54.4122 168.669C54.4492 168.581 54.4998 168.499 54.5622 168.427C54.793 168.248 55.1392 168.386 55.6122 168.842C57.1238 170.198 58.7795 171.681 60.3949 173.186L64.0411 176.538V176.567Z" fill="#3B2C7D"/>
<path d="M62.6091 177.692C63.7975 178.782 64.9918 179.873 66.1975 180.946L67.5418 182.1C69.0937 183.49 70.6341 184.886 72.1975 186.253C72.8956 186.83 73.6168 187.442 74.3322 187.984C75.284 188.679 76.1915 189.432 77.0495 190.24C77.5687 190.771 76.0918 191.105 75.036 190.24C73.1668 188.728 71.3495 187.153 69.5956 185.469C68.5514 184.459 67.3629 183.53 66.2495 182.55L62.5975 179.29L60.3649 177.265L57.0014 174.23C56.1245 173.446 55.2302 172.713 54.3706 171.923C54.1802 171.75 53.9899 171.577 53.7937 171.392C53.1187 170.682 52.9745 170.325 53.1418 169.955C53.1733 169.877 53.216 169.803 53.2687 169.736C53.4706 169.563 53.7706 169.736 54.261 170.175L58.9918 174.432L62.6149 177.698L62.6091 177.692Z" fill="#3B2C7D"/>
<path d="M62.0379 178.102C63.2264 179.163 64.4206 180.225 65.6264 181.269L66.9706 182.382C68.5168 183.732 70.0572 185.088 71.6206 186.421C72.3187 186.998 73.0398 187.575 73.7552 188.123C74.7078 188.791 75.6155 189.522 76.4725 190.309C76.986 190.823 75.5264 191.186 74.4706 190.361C72.6014 188.896 70.7841 187.367 69.036 185.746C67.9918 184.765 66.8033 183.865 65.6898 182.913L62.0379 179.746L59.811 177.773L56.4475 174.773C55.5764 174.005 54.7168 173.296 53.8283 172.511C53.6379 172.344 53.4475 172.171 53.2514 171.992C52.5822 171.294 52.4322 170.936 52.6052 170.573C52.6345 170.493 52.6774 170.419 52.7322 170.354C52.9341 170.186 53.2283 170.354 53.7129 170.78L58.4264 174.923L62.0437 178.102H62.0379Z" fill="#3B2C7D"/>
<path d="M102.024 111.663C100.51 111.976 99.0204 112.392 97.5642 112.909C96.1058 113.446 94.682 114.072 93.3007 114.784C92.2911 115.304 91.3219 115.904 90.37 116.515L89.9373 116.792L89.8507 116.85V116.942V116.994V117.092L89.9604 117.461L90.1738 118.194L91.045 121.125L92.7757 126.992C93.295 128.723 93.8604 130.454 94.4257 132.184C95.1469 134.371 95.943 136.552 96.4969 138.796C96.843 140.192 95.02 138.859 94.1892 136.327C92.7469 131.844 91.3796 127.332 90.1507 122.746C89.7757 121.379 89.3546 119.994 88.9161 118.598L88.5873 117.559L88.3334 116.752L88.27 116.532L88.2354 116.423C88.2354 116.423 88.1892 116.342 88.2354 116.331L88.5988 116.054L88.9681 115.788L89.2796 115.575L89.7411 115.269C90.0584 115.067 90.37 114.871 90.6873 114.692C93.4809 113.027 96.4817 111.737 99.6123 110.856C101.56 110.308 103.559 109.96 105.578 109.817C108.56 109.575 111.56 109.523 114.514 109.373C116.77 109.273 119.017 109.046 121.247 108.692C121.72 108.594 122.193 108.507 122.66 108.386C123.128 108.265 123.451 108.19 123.733 108.098C123.878 108.052 124.01 108.017 124.132 107.988C124.253 107.959 124.345 107.913 124.443 107.89C124.603 107.845 124.768 107.814 124.933 107.798C125.063 107.778 125.196 107.778 125.326 107.798C125.449 107.804 125.573 107.818 125.695 107.838C125.862 107.896 125.839 108.075 125.585 108.415C125.522 108.49 125.447 108.577 125.355 108.669L125.032 108.894C124.91 108.975 124.778 109.056 124.628 109.142C124.478 109.229 124.322 109.281 124.149 109.35C123.144 109.735 122.099 110.008 121.033 110.163C119.978 110.348 118.916 110.452 117.849 110.55C115.714 110.729 113.568 110.804 111.428 110.902C109.835 110.971 108.249 111.046 106.662 111.15C105.112 111.236 103.57 111.429 102.047 111.727L102.024 111.663Z" fill="#3B2C7D"/>
<path d="M116.92 132.721C119.625 132.374 122.304 131.848 124.939 131.146C125.848 130.861 126.725 130.486 127.558 130.027C127.726 129.923 127.905 129.825 128.066 129.715L128.528 129.357L128.908 128.953C128.955 128.896 129.024 128.775 129.041 128.757L129.099 128.688V128.59L129.041 128.307L128.903 127.655L128.62 126.357L127.466 121.165C127.12 119.63 126.728 118.096 126.312 116.584C125.793 114.652 125.222 112.696 124.806 110.78C124.777 110.69 124.777 110.593 124.806 110.503C124.819 110.47 124.837 110.439 124.858 110.411L124.91 110.371C124.974 110.33 124.991 110.313 124.974 110.33C124.956 110.348 124.945 110.33 124.974 110.33H125.026H125.158C125.29 110.375 125.41 110.448 125.51 110.544C126.195 111.195 126.676 112.031 126.895 112.95C127.939 116.93 128.839 120.928 129.612 125.002C129.728 125.607 129.86 126.219 129.993 126.836L130.201 127.759L130.305 128.221L130.385 128.567C130.425 128.69 130.448 128.818 130.455 128.948L130.051 129.6C129.953 129.757 129.837 129.903 129.705 130.032C129.466 130.305 129.2 130.55 128.908 130.765C128.631 130.978 128.331 131.146 128.043 131.342C127.755 131.538 127.466 131.659 127.137 131.786C125.813 132.328 124.442 132.747 123.041 133.038C121.662 133.35 120.283 133.615 118.905 133.811L113.828 134.607C111.277 134.972 108.749 135.486 106.258 136.148C104.386 136.664 102.596 137.441 100.939 138.455C100.581 138.675 100.27 138.934 99.9296 139.171C98.7353 140.123 98.4642 140.486 97.9392 140.527C97.8247 140.546 97.7091 140.557 97.593 140.561C97.4257 140.561 97.3969 140.365 97.5065 140.053C97.58 139.854 97.6708 139.661 97.7776 139.477C97.9449 139.246 98.124 139.025 98.3142 138.813C99.6892 137.478 101.328 136.444 103.126 135.778C104.905 135.096 106.736 134.558 108.601 134.169C111.358 133.563 114.139 133.165 116.885 132.721H116.92Z" fill="#3B2C7D"/>
<path d="M169.339 155.608C168.333 155.887 167.348 156.236 166.39 156.652C165.912 156.86 165.433 157.085 164.948 157.315C164.549 157.551 164.112 157.713 163.656 157.794C163.563 157.797 163.47 157.787 163.379 157.765C163.331 157.757 163.285 157.739 163.245 157.712C163.204 157.685 163.169 157.65 163.142 157.61L162.79 157.154L161.827 154.269L161.014 151.754C160.587 150.387 160.125 149.025 159.744 147.64C159.427 146.487 159.115 145.333 158.856 144.144C158.717 143.567 158.602 142.99 158.481 142.379L158.319 141.485L158.273 141.254L158.227 140.931L158.129 140.285C158.143 140.067 158.182 139.853 158.244 139.644C158.419 139.494 158.633 139.396 158.862 139.362C159.115 139.315 159.404 139.292 159.652 139.263L160.148 139.223C160.812 139.165 161.464 139.108 162.115 139.038C163.408 138.923 164.688 138.705 165.946 138.387C166.452 138.248 166.942 138.054 167.406 137.81L168.854 136.973C169.829 136.396 170.821 135.871 171.825 135.381C173.127 134.726 174.477 134.171 175.864 133.719C177.263 133.254 178.727 133.011 180.202 132.998C181.131 132.998 180.975 133.373 180.254 133.748C179.141 134.279 177.982 134.709 176.792 135.035C174.089 135.886 171.493 137.048 169.056 138.496L168.087 139.038C167.716 139.231 167.33 139.391 166.933 139.517C166.196 139.749 165.445 139.928 164.683 140.054C163.194 140.302 161.712 140.417 160.246 140.515L159.779 140.544H159.646C159.599 140.536 159.55 140.536 159.502 140.544C159.496 140.588 159.496 140.633 159.502 140.677L159.537 140.942V141.012V141.138L159.583 141.398C159.652 141.75 159.71 142.102 159.79 142.454C159.94 143.163 160.114 143.867 160.287 144.571C160.65 145.985 161.06 147.392 161.481 148.788C161.85 150.046 162.248 151.292 162.635 152.544L163.789 156.006L163.846 156.202C163.904 156.237 163.973 156.202 164.037 156.162L164.221 156.081L164.602 155.896C165.179 155.608 165.808 155.319 166.425 155.083C167.577 154.617 168.763 154.243 169.973 153.963C170.55 153.825 171.19 153.715 171.802 153.629C172.414 153.542 173.042 153.502 173.631 153.433C175.434 153.269 177.216 152.923 178.95 152.4C180.64 151.858 182.348 151.102 183.519 149.862C183.621 149.756 183.713 149.642 183.796 149.521C183.854 149.446 183.923 149.36 183.871 149.256L183.664 148.315C183.508 147.629 183.352 146.942 183.202 146.262C182.885 144.894 182.573 143.533 182.262 142.165C182.123 141.588 181.985 140.977 181.846 140.371C181.362 138.11 181.304 137.371 181.569 136.817C181.617 136.688 181.679 136.564 181.754 136.448C181.99 136.177 182.406 137.025 182.827 138.692C183.45 141.121 184.033 143.625 184.592 146.192C184.731 146.833 184.875 147.467 185.014 148.113L185.256 149.267L185.285 149.504C185.285 149.579 185.325 149.665 185.285 149.729C185.216 149.875 185.137 150.015 185.048 150.15C184.972 150.275 184.887 150.394 184.794 150.508C184.731 150.583 184.667 150.669 184.598 150.738C183.578 151.79 182.345 152.61 180.981 153.144C179.075 153.92 177.075 154.442 175.033 154.696C174.035 154.829 172.985 154.915 172.079 155.025C171.143 155.152 170.218 155.345 169.31 155.602L169.339 155.608Z" fill="#3B2C7D"/>
<path d="M167.818 193.125C165.228 194.036 162.626 194.954 160.024 195.819C157.422 196.684 154.722 197.434 152.04 198.092C150.084 198.571 148.128 199.056 146.149 199.431C139.172 200.836 132.055 201.43 124.942 201.202C121.774 201.109 118.622 200.723 115.526 200.048C113.526 199.62 111.575 198.986 109.705 198.156C107.815 197.316 106.078 196.167 104.565 194.757C103.63 193.857 104.12 193.656 105.205 193.979C106.824 194.559 108.406 195.24 109.942 196.015C113.508 197.656 117.328 198.678 121.238 199.038C123.224 199.273 125.221 199.405 127.22 199.436C129.228 199.471 131.259 199.436 133.278 199.344C138.242 199.015 143.171 198.287 148.018 197.169C150.695 196.592 153.361 195.934 155.992 195.173C158.622 194.411 161.213 193.5 163.82 192.594L173.415 189.161C178.255 187.431 183.136 185.7 187.97 184.027C191.732 182.74 195.401 181.407 199.226 180.346C200.068 180.115 200.893 179.89 201.77 179.706C202.933 179.415 204.133 179.299 205.33 179.359C205.638 179.364 205.942 179.435 206.22 179.568C206.498 179.702 206.744 179.894 206.94 180.132C207.07 180.295 207.132 180.502 207.113 180.709C207.078 180.819 206.974 180.836 206.87 180.848C206.767 180.859 206.628 180.848 206.42 180.848C205.624 180.871 204.831 180.958 204.049 181.107C202.347 181.433 200.664 181.849 199.007 182.354C197.305 182.856 195.592 183.404 193.867 183.969C190.405 185.123 186.943 186.317 183.436 187.557L167.859 193.171L167.818 193.125Z" fill="#3B2C7D"/>
<path d="M102.404 146.89C102.52 147.082 102.595 147.296 102.624 147.519C102.652 147.741 102.634 147.968 102.571 148.183C102.54 148.301 102.526 148.424 102.531 148.546C102.532 148.562 102.539 148.577 102.549 148.59C102.559 148.602 102.573 148.611 102.588 148.615C102.771 148.605 102.945 148.532 103.079 148.408C103.511 148.062 103.921 147.508 104.452 146.988C104.701 146.736 104.984 146.52 105.294 146.348C105.486 146.244 105.695 146.176 105.911 146.146C106.103 146.117 106.297 146.117 106.488 146.146C106.852 146.192 107.152 146.285 107.423 146.342L107.821 146.417C107.934 146.43 108.048 146.43 108.161 146.417C108.573 146.364 108.968 146.218 109.315 145.99C109.736 145.748 110.169 145.471 110.648 145.206C110.905 145.067 111.174 144.949 111.45 144.854C111.605 144.803 111.763 144.762 111.923 144.733C112.011 144.727 112.1 144.727 112.188 144.733H112.321H112.413C112.897 144.74 113.381 144.715 113.861 144.658C114.957 144.559 116.012 144.19 116.931 143.585C117.011 143.538 117.081 143.463 117.173 143.452C117.421 143.417 117.663 143.717 117.646 144.029C117.646 144.104 117.646 144.219 117.611 144.242C117.231 144.473 117.11 145.067 116.631 145.246C115.763 145.612 114.858 145.881 113.931 146.048C113.562 146.097 113.189 146.114 112.817 146.1L112.465 146.071H112.194C112.032 146.061 111.869 146.082 111.715 146.135C111.474 146.221 111.241 146.327 111.017 146.452C110.683 146.625 110.261 146.89 109.725 147.173C109.424 147.338 109.104 147.468 108.773 147.56C108.569 147.621 108.357 147.648 108.144 147.64C107.95 147.637 107.757 147.616 107.567 147.577C106.852 147.444 106.165 147.179 105.836 147.363C105.324 147.68 104.86 148.069 104.458 148.517C104.222 148.752 103.965 148.964 103.69 149.152C103.394 149.368 103.041 149.492 102.675 149.51C102.476 149.526 102.278 149.479 102.108 149.375C101.938 149.272 101.805 149.117 101.729 148.933C101.678 148.77 101.667 148.599 101.694 148.431C101.708 148.328 101.73 148.225 101.758 148.125C101.813 147.94 101.88 147.759 101.96 147.583C102.115 147.363 102.236 147.19 102.404 146.89Z" fill="#3B2C7D"/>
<path d="M104.032 153.409C104.098 153.531 104.183 153.64 104.286 153.732C104.332 153.732 104.361 153.79 104.401 153.79H104.453C104.493 153.79 104.482 153.761 104.522 153.721C104.563 153.68 104.522 153.721 104.557 153.686C104.595 153.68 104.634 153.68 104.672 153.686C105.054 153.679 105.432 153.611 105.792 153.484L106.063 153.386H106.097C106.143 153.507 106.005 153.127 106.195 153.652C106.172 153.575 106.143 153.5 106.109 153.427L106.184 153.363C106.317 153.248 106.472 153.092 106.628 152.936C106.913 152.645 107.22 152.375 107.545 152.128L107.707 152.025C107.781 151.976 107.861 151.936 107.943 151.903C108.1 151.805 108.278 151.746 108.463 151.73C108.695 151.75 108.925 151.791 109.149 151.852C109.83 152.002 110.47 152.255 110.845 152.105C111.431 151.965 111.997 151.752 112.53 151.471C112.865 151.303 113.205 151.125 113.557 150.928C113.893 150.718 114.251 150.546 114.624 150.415C114.656 150.401 114.689 150.389 114.722 150.38C114.765 150.386 114.806 150.4 114.843 150.421C114.945 150.456 115.03 150.527 115.083 150.621C115.136 150.714 115.153 150.823 115.132 150.928C115.132 150.98 115.132 151.061 115.103 151.078C114.843 151.217 114.826 151.725 114.567 151.857C114.07 152.088 113.638 152.434 113.113 152.775C112.9 152.898 112.673 152.997 112.438 153.069C112.123 153.151 111.803 153.213 111.48 153.253C111.37 153.253 111.163 153.305 110.903 153.334H110.793H110.62C110.514 153.329 110.408 153.318 110.303 153.3C110.108 153.268 109.915 153.224 109.726 153.167C109.357 153.063 108.953 152.93 108.572 152.861C108.505 152.856 108.438 152.856 108.37 152.861C108.36 152.857 108.35 152.855 108.339 152.855C108.328 152.855 108.317 152.857 108.307 152.861C108.146 152.968 107.993 153.087 107.851 153.219C107.522 153.507 107.222 153.796 106.836 154.107C106.79 154.148 106.726 154.188 106.668 154.228C106.593 154.27 106.514 154.305 106.432 154.332C106.322 154.367 106.218 154.402 106.115 154.425C105.925 154.473 105.732 154.51 105.538 154.534C105.226 154.575 104.91 154.575 104.597 154.534C104.413 154.513 104.235 154.449 104.078 154.35C104.002 154.292 103.939 154.219 103.894 154.136C103.848 154.052 103.82 153.96 103.813 153.865C103.81 153.766 103.83 153.667 103.87 153.577C103.919 153.516 103.973 153.46 104.032 153.409Z" fill="#3B2C7D"/>
<path d="M114.036 180.086C113.986 179.97 113.979 179.84 114.014 179.719C114.05 179.598 114.127 179.493 114.232 179.423C114.351 179.332 114.495 179.278 114.645 179.268C114.794 179.258 114.944 179.291 115.074 179.365C115.402 179.552 115.701 179.785 115.963 180.058L116.044 180.138H116.078C116.078 180.138 116.078 180.138 116.142 180.098C116.645 179.767 117.096 179.362 117.48 178.898C117.661 178.669 117.871 178.463 118.103 178.286L118.322 178.108C118.415 178.038 118.536 177.94 118.646 177.871C118.853 177.732 119.09 177.645 119.338 177.617C119.569 177.591 119.801 177.657 119.984 177.802C120.166 177.949 120.293 178.151 120.347 178.379C120.383 178.515 120.408 178.654 120.422 178.794V178.846L120.371 178.806L120.151 178.661L119.932 178.517L119.822 178.448C119.822 178.281 119.719 179.706 119.759 179.1C119.767 179.072 119.767 179.042 119.759 179.013C119.736 178.973 119.716 178.93 119.701 178.886C119.684 178.83 119.661 178.776 119.632 178.725C119.61 178.671 119.583 178.619 119.551 178.569C119.494 178.465 119.517 178.5 119.517 178.494H119.574L119.926 178.275C120.807 177.703 121.768 177.264 122.776 176.971C123.052 176.898 123.334 176.851 123.619 176.833C123.768 176.824 123.919 176.824 124.069 176.833H124.421C124.85 176.852 125.28 176.817 125.701 176.729C126.173 176.613 126.616 176.398 126.999 176.1L128.257 175.102C128.326 175.044 128.396 174.958 128.488 174.94C128.747 174.883 129.019 175.159 129.065 175.517C129.065 175.598 129.105 175.713 129.065 175.736C128.736 176.013 128.799 176.636 128.419 176.89C128.038 177.144 127.709 177.409 127.299 177.663C126.88 177.929 126.42 178.124 125.938 178.24C125.56 178.329 125.171 178.36 124.784 178.333C124.55 178.321 124.317 178.294 124.086 178.252C123.915 178.215 123.741 178.197 123.567 178.2C122.904 178.266 122.261 178.462 121.674 178.777C121.444 178.886 121.207 179.019 120.959 179.163L120.146 179.654L120.036 179.711H119.99C119.923 179.736 119.853 179.75 119.782 179.752C119.782 179.867 119.459 179.458 119.309 179.308V179.238C119.309 179.209 119.309 179.169 119.263 179.163C119.233 179.153 119.2 179.153 119.171 179.163L119.049 179.261C118.611 179.677 118.051 180.081 117.549 180.484C117.29 180.68 117.014 180.852 116.724 180.998C116.65 181.039 116.573 181.076 116.494 181.108L116.153 181.217H115.992H115.911C115.911 181.217 115.876 181.246 115.876 181.188H115.836C115.73 181.177 115.629 181.135 115.547 181.067C115.464 181.002 115.386 180.928 115.317 180.848L115.178 180.704L114.976 180.484C114.877 180.377 114.767 180.281 114.647 180.196C114.592 180.151 114.53 180.116 114.463 180.092C114.451 180.069 114.435 180.047 114.417 180.029C114.376 179.942 114.261 179.896 114.036 180.086Z" fill="#3B2C7D"/>
<path d="M163.313 95.2328C163.607 95.8097 163.624 96.1847 163.682 96.1904C163.739 96.1962 163.728 96.2539 163.976 96.2597C164.09 96.2573 164.204 96.2438 164.316 96.2193L164.42 96.1789L164.541 96.1097C164.97 95.7838 165.372 95.423 165.741 95.0308C166.12 94.648 166.531 94.2986 166.97 93.9866C167.229 93.811 167.51 93.6712 167.807 93.5712C167.946 93.5253 168.089 93.4887 168.234 93.4616L168.614 93.3808C169.486 93.1847 170.345 93.0058 171.199 92.8501C172.053 92.6943 172.884 92.5212 173.691 92.2731C174.163 92.1468 174.626 91.9887 175.076 91.8001C175.494 91.6129 175.894 91.3869 176.27 91.1251C176.334 91.0789 176.38 91.0097 176.461 91.0039C176.668 91.0039 176.928 91.2635 176.951 91.5808C176.951 91.6501 176.951 91.7597 176.951 91.7827C176.639 92.002 176.582 92.5731 176.184 92.7462C175.457 93.0577 174.753 93.427 174.009 93.6751C173.713 93.7693 173.41 93.8406 173.103 93.8885C172.716 93.9462 172.318 93.9635 171.949 94.0097L169.988 94.3039C169.509 94.3847 168.978 94.4597 168.436 94.5866C168.324 94.6075 168.214 94.6364 168.107 94.6731C167.999 94.719 167.895 94.773 167.795 94.8347C167.57 94.9753 167.356 95.1335 167.155 95.3077C166.728 95.6712 166.318 96.0866 165.88 96.4616C165.659 96.6534 165.421 96.8252 165.17 96.9751C165.035 97.0534 164.892 97.1172 164.743 97.1654L164.489 97.2231H164.293C164.031 97.245 163.767 97.2176 163.514 97.1424C163.245 97.0629 163.017 96.8806 162.88 96.6347C162.79 96.4565 162.756 96.2555 162.782 96.0577C162.792 95.9776 162.81 95.8984 162.834 95.8212C162.946 95.5906 163.11 95.3892 163.313 95.2328Z" fill="#3B2C7D"/>
<path d="M164.426 101.827C164.531 102.062 164.651 102.292 164.784 102.513C164.823 102.605 164.856 102.699 164.882 102.796C164.893 102.866 164.909 102.935 164.928 103.003C164.931 103.04 164.943 103.076 164.963 103.107C165.055 103.107 165.049 103.107 165.141 103.038C165.329 102.901 165.501 102.744 165.655 102.571C166.047 102.116 166.471 101.69 166.924 101.296C167.071 101.185 167.228 101.086 167.391 101.002C167.575 100.914 167.769 100.85 167.968 100.811C168.331 100.744 168.702 100.744 169.064 100.811C169.728 100.95 170.218 101.175 170.663 101.203C171.291 101.284 172.076 100.782 172.861 100.24C173.3 99.9235 173.774 99.6583 174.274 99.4496C174.77 99.2548 175.281 99.1023 175.803 98.9938C176.38 98.8611 176.957 98.7919 177.534 98.6823C178.111 98.5727 178.572 98.4515 179.063 98.3304C179.149 98.3304 179.224 98.2727 179.316 98.3015C179.454 98.3559 179.565 98.4611 179.628 98.5953C179.69 98.7295 179.698 98.8825 179.651 99.0227C179.651 99.0977 179.622 99.2188 179.582 99.2304C179.178 99.3804 178.947 99.9919 178.48 100.078C177.662 100.214 176.854 100.407 176.063 100.655L175.18 100.875C174.809 100.947 174.446 101.055 174.095 101.198C173.899 101.261 173.322 101.7 172.364 102.161C172.106 102.285 171.838 102.387 171.563 102.467C171.226 102.555 170.876 102.581 170.53 102.542C169.945 102.433 169.367 102.291 168.799 102.115C168.587 102.069 168.368 102.059 168.153 102.086C168.066 102.102 167.981 102.127 167.899 102.161C167.805 102.208 167.714 102.262 167.628 102.323C167.249 102.626 166.889 102.951 166.549 103.298C166.38 103.464 166.201 103.62 166.013 103.765C165.921 103.837 165.825 103.902 165.724 103.961L165.568 104.048C165.522 104.048 165.43 104.094 165.366 104.117C165.182 104.188 164.983 104.212 164.787 104.188C164.59 104.164 164.403 104.092 164.241 103.978C164.137 103.885 164.057 103.768 164.005 103.638C163.982 103.511 163.972 103.381 163.976 103.252C163.966 103.156 163.966 103.059 163.976 102.963V102.842V102.657C164.065 102.351 164.218 102.068 164.426 101.827Z" fill="#3B2C7D"/>
<path d="M166.875 164.775C167.077 164.615 167.305 164.492 167.55 164.412C167.715 164.347 167.892 164.316 168.069 164.319C169.183 164.244 170.21 163.529 171.404 162.935C172.496 162.334 173.756 162.115 174.987 162.312L175.183 162.34H175.298C175.375 162.352 175.452 162.352 175.529 162.34C175.692 162.32 175.85 162.271 175.996 162.196C176.368 161.994 176.713 161.746 177.023 161.458C177.413 161.109 177.827 160.789 178.263 160.5C178.522 160.355 178.797 160.243 179.083 160.165C179.317 160.092 179.554 160.023 179.792 159.958C180.369 159.831 180.912 159.744 181.431 159.606C181.916 159.495 182.391 159.342 182.85 159.15C182.918 159.102 182.998 159.072 183.081 159.063C183.312 159.063 183.531 159.404 183.496 159.738C183.496 159.813 183.496 159.929 183.45 159.946C183.075 160.125 182.919 160.737 182.463 160.869C181.633 161.112 180.825 161.371 180.063 161.579C179.908 161.613 179.758 161.642 179.602 161.665L179.181 161.729C178.851 161.785 178.539 161.918 178.269 162.115C178.154 162.188 177.946 162.344 177.646 162.583C177.245 162.914 176.796 163.183 176.313 163.379C175.971 163.506 175.604 163.553 175.24 163.517L174.75 163.437C174.623 163.437 174.496 163.379 174.363 163.373C173.796 163.335 173.227 163.421 172.696 163.627C171.577 164.031 170.487 164.735 169.483 165.029C168.884 165.225 168.245 165.267 167.625 165.15C167.358 165.063 167.105 164.936 166.875 164.775Z" fill="#3B2C7D"/>
<path d="M168.957 170.931C169.262 170.856 169.559 170.753 169.845 170.625C170.157 170.509 170.422 170.094 170.745 169.759C170.907 169.575 171.063 169.384 171.247 169.183C171.35 169.073 171.457 168.969 171.571 168.871C171.639 168.808 171.715 168.751 171.796 168.704C171.865 168.659 171.938 168.62 172.015 168.588C172.252 168.461 172.506 168.369 172.771 168.317C173.096 168.254 173.433 168.28 173.746 168.392C173.997 168.497 174.232 168.636 174.444 168.808C174.58 168.912 174.729 169 174.888 169.067C175.468 169.209 176.08 169.146 176.619 168.888C177.282 168.623 177.926 168.31 178.546 167.954L179.699 167.313C180.082 167.072 180.493 166.878 180.922 166.736C180.996 166.701 181.077 166.681 181.159 166.679C181.39 166.713 181.505 166.99 181.447 167.256C181.447 167.313 181.447 167.411 181.401 167.423C181.095 167.538 181.055 168.075 180.767 168.225C180.208 168.526 179.669 168.861 179.151 169.229C178.927 169.365 178.691 169.483 178.447 169.581C178.13 169.708 177.796 169.8 177.461 169.904C177.351 169.944 177.132 170.019 176.826 170.111C176.434 170.228 176.029 170.296 175.621 170.313C175.051 170.338 174.487 170.194 173.999 169.898C173.751 169.742 173.549 169.581 173.422 169.511C173.298 169.44 173.153 169.418 173.013 169.448C172.812 169.483 172.618 169.547 172.436 169.638C172.361 169.663 172.293 169.702 172.234 169.754C172.165 169.806 172.084 169.886 172.009 169.956C171.697 170.267 171.392 170.602 171.074 170.873C170.778 171.1 170.438 171.265 170.076 171.358C169.887 171.406 169.689 171.406 169.499 171.358C169.277 171.278 169.086 171.128 168.957 170.931Z" fill="#3B2C7D"/>
<path d="M140.441 96.375C141.141 98.1117 141.719 99.8948 142.172 101.712C143.839 108.006 145.241 114.404 146.389 120.808C147.376 126.329 148.086 131.902 148.772 137.469C149.349 142.263 149.77 147.052 150.653 151.76C151.091 154.117 151.613 156.454 152.216 158.769C152.857 161.077 153.538 163.385 154.374 165.612C155.348 168.264 156.469 170.861 157.732 173.388C158.955 175.794 160.303 178.133 161.77 180.398C162.03 180.779 162.307 181.165 162.514 181.552C163.091 182.567 162.999 182.948 162.359 182.348C162.189 182.218 162.036 182.066 161.903 181.898C161.603 181.465 161.326 181.062 161.003 180.675L160.12 179.521C159.826 179.135 159.543 178.742 159.232 178.327C158.92 177.912 158.655 177.456 158.395 176.965C157.374 175.16 156.434 173.308 155.511 171.438C154.588 169.569 153.78 167.648 153.093 165.669C152.811 164.885 152.516 164.106 152.28 163.31C152.043 162.513 151.766 161.723 151.559 160.921L151.143 159.381L150.78 157.835C150.526 156.802 150.324 155.763 150.105 154.725C149.816 153.306 149.009 149.244 148.426 143.879C147.843 138.513 147.059 131.954 146.066 125.538C145.559 122.337 145.045 119.192 144.503 116.215C143.961 113.238 143.401 110.533 142.916 108.179C141.964 103.465 141.186 100.281 141.151 99.9692C140.989 98.9827 140.77 97.9731 140.441 96.375Z" fill="#3B2C7D"/>
<path d="M162.555 196.154C160.196 197.008 157.813 197.885 155.384 198.577C152.955 199.269 150.521 199.944 148.063 200.515C146.269 200.937 144.474 201.346 142.663 201.669C139.467 202.246 136.247 202.696 133.011 202.962C129.773 203.244 126.519 203.302 123.272 203.135C120.382 203.008 117.509 202.622 114.688 201.981C112.88 201.549 111.116 200.948 109.421 200.187C107.708 199.424 106.126 198.398 104.73 197.146C103.859 196.362 104.211 196.246 105.14 196.621C105.412 196.729 105.678 196.852 105.936 196.99C106.247 197.123 106.588 197.273 106.946 197.458C107.303 197.642 107.696 197.833 108.099 198.035C108.503 198.237 108.936 198.479 109.397 198.687C110.194 199.102 111.036 199.425 111.872 199.765C112.709 200.106 113.603 200.342 114.469 200.579C116.232 201.055 118.027 201.404 119.84 201.623C121.668 201.851 123.507 201.985 125.349 202.027C127.196 202.085 129.053 202.062 130.917 201.969C135.476 201.699 140.007 201.074 144.469 200.1C149.413 199.112 154.285 197.794 159.053 196.154C161.984 195.133 164.897 194.037 167.811 192.94L181.028 187.95C184.432 186.663 187.749 185.348 191.136 184.113L193.363 183.3C196.172 182.342 197.107 182.146 197.811 182.279C197.969 182.296 198.126 182.327 198.278 182.371C198.619 182.533 197.528 183.075 195.497 183.813C189.48 186.017 183.157 188.429 176.799 190.846C172.08 192.646 167.338 194.458 162.572 196.217L162.555 196.154Z" fill="#3B2C7D"/>
<path d="M65.5618 169.206C65.4403 169.225 65.3162 169.219 65.1971 169.188C65.078 169.157 64.9665 169.102 64.8695 169.027C64.815 168.959 64.7776 168.879 64.7605 168.794C64.7435 168.708 64.7472 168.62 64.7714 168.536C64.8503 168.264 65.009 168.02 65.2272 167.838C65.4014 167.688 65.5955 167.561 65.8041 167.463C66.1737 167.302 66.5609 167.184 66.9579 167.111C67.6099 166.985 68.256 166.979 68.8272 166.858C69.3103 166.743 69.7759 166.565 70.2118 166.327L71.6541 165.583C71.9483 165.433 72.231 165.3 72.5772 165.156L73.0387 164.96L73.281 164.867L73.5406 164.821C73.5983 164.821 73.656 164.786 73.7195 164.821C73.8868 164.89 73.9502 165.173 73.8925 165.398C73.8925 165.45 73.8925 165.536 73.8522 165.548C73.6156 165.6 73.5637 166.09 73.3445 166.125C72.933 166.276 72.5446 166.484 72.1906 166.742C72.0348 166.836 71.8706 166.915 71.7002 166.979C71.4752 167.065 71.2387 167.123 71.0079 167.21C70.7772 167.296 70.431 167.475 69.8195 167.694C69.1184 167.907 68.3973 168.048 67.6675 168.115C67.0692 168.17 66.4842 168.324 65.9368 168.571C65.8733 168.629 65.7868 168.663 65.7695 168.71L65.7175 168.761C65.7175 168.761 65.7175 168.796 65.7175 168.808C65.7175 168.819 65.7175 168.906 65.7175 168.911C65.6471 168.999 65.5942 169.098 65.5618 169.206Z" fill="#3B2C7D"/>
<path d="M69.3656 172.679C68.9502 172.211 68.9617 172.01 69.0367 171.923C69.2841 171.639 69.5889 171.411 69.931 171.254C70.2078 171.144 70.4935 171.057 70.7848 170.994C71.2694 170.856 71.7425 170.735 72.2156 170.636C72.354 170.602 72.4983 170.585 72.631 170.55C72.7603 170.511 72.8874 170.465 73.0117 170.412C73.0117 170.412 73.0521 170.371 73.0809 170.412C73.1786 170.588 73.2283 170.787 73.2252 170.988C73.2252 171.04 73.2252 171.127 73.2252 171.127C73.1271 171.161 73.1156 171.565 73.006 171.571C72.8037 171.62 72.6094 171.698 72.429 171.802C72.3543 171.834 72.2737 171.849 72.1925 171.848C72.0886 171.848 71.979 171.819 71.8809 171.848C71.4231 171.915 70.9742 172.033 70.5425 172.2C70.2992 172.286 70.0653 172.396 69.8444 172.529C69.6771 172.638 69.5906 172.713 69.579 172.719C69.5675 172.725 69.4694 172.685 69.3656 172.679Z" fill="#3B2C7D"/>
<path d="M38.0781 179.008L32.5108 179.135C31.8358 179.135 31.1608 179.21 30.4858 179.221L23.3319 179.302C22.2704 179.302 21.2088 179.377 20.1588 179.44C18.8172 179.575 17.4679 179.617 16.1204 179.567C15.2781 179.51 16.2935 178.131 17.8512 178.062C20.5973 177.935 23.3492 177.889 26.13 177.964C27.7915 178.01 29.5165 177.877 31.2127 177.831L36.8088 177.681L40.2704 177.571C42.0012 177.502 43.7319 177.439 45.4627 177.312C46.7954 177.208 48.0992 177.017 49.4088 176.839L50.2627 176.706C51.3473 176.579 51.6242 176.59 51.9473 176.919C52.021 176.988 52.0904 177.061 52.155 177.139C52.3396 177.392 51.93 177.715 51.0992 177.923C48.6612 178.398 46.1907 178.688 43.7088 178.789C41.8396 178.904 39.9646 178.967 38.0954 179.042L38.0781 179.008Z" fill="#3B2C7D"/>
<path d="M268.847 177.64L262.818 177.721C262.086 177.721 261.353 177.785 260.62 177.796L252.866 177.865C251.713 177.865 250.559 177.935 249.434 178.004C247.974 178.139 246.508 178.186 245.043 178.142C244.132 178.085 245.234 176.706 246.918 176.631C249.907 176.498 252.895 176.446 255.907 176.527C257.713 176.573 259.588 176.446 261.428 176.406L267.509 176.296L271.247 176.227C273.134 176.181 275.032 176.152 276.907 176.065C278.361 175.996 279.791 175.846 281.228 175.731C281.539 175.731 281.851 175.667 282.174 175.65C283.357 175.586 283.732 175.65 283.991 176.025C284.057 176.1 284.115 176.181 284.164 176.267C284.28 176.55 283.801 176.804 282.936 176.919C280.363 177.265 277.651 177.398 274.934 177.496L268.847 177.692V177.64Z" fill="#3B2C7D"/>
<path d="M64.102 92.1807C61.2174 92.3076 59.2386 96.5364 59.7867 99.1037C59.954 99.8653 61.627 99.4326 61.4597 98.6537C61.3146 97.6085 61.4981 96.544 61.9847 95.6076C62.3136 94.8634 62.9943 93.4499 63.9463 93.4095C64.8982 93.3691 65.2386 92.1518 64.102 92.198V92.1807Z" fill="#3B2C7D"/>
<path d="M60.3591 89.9018C57.9591 91.4538 56.038 93.8999 55.663 96.7903C55.5822 97.3672 57.2611 97.0845 57.3303 96.5595C57.5186 95.2925 57.9765 94.0807 58.6732 93.0058C59.3699 91.9309 60.2891 91.018 61.3687 90.3288C62.3149 89.7518 60.8495 89.5788 60.3534 89.9018H60.3591Z" fill="#3B2C7D"/>
<path d="M200.697 63.2247C202.641 63.0459 204.159 65.3017 204.326 67.0209C204.384 67.7017 206.057 67.3151 205.993 66.5709C205.774 64.067 203.42 61.8747 200.876 62.1113C199.982 62.192 199.549 63.3286 200.697 63.2247Z" fill="#3B2C7D"/>
<path d="M205.561 59.5844C208.261 59.1402 208.774 64.5402 209.184 66.2941C209.345 66.9979 211.018 66.5652 210.851 65.8441C210.234 63.1614 209.657 57.8133 205.734 58.4594C204.863 58.6037 204.418 59.7748 205.561 59.6133V59.5844Z" fill="#3B2C7D"/>
<path d="M168.699 208.454C167.429 208.226 166.119 208.401 164.954 208.956C163.778 209.573 162.783 210.488 162.07 211.609C161.527 212.462 161.081 213.371 160.737 214.321C160.587 214.748 160.443 215.175 160.31 215.608C160.178 216.04 160.068 216.479 159.993 216.929C159.918 217.379 159.814 217.823 159.774 218.279L159.699 218.925V219.184V219.317C159.699 219.358 159.699 219.433 159.733 219.427C159.821 219.424 159.908 219.412 159.993 219.392H160.126L160.345 219.346L161.043 219.179C161.972 218.959 162.918 218.763 163.876 218.602C165.577 218.32 167.304 218.219 169.028 218.302C170.146 218.365 171.254 218.559 172.328 218.879C173.413 219.202 174.43 219.722 175.328 220.413C175.904 220.863 175.541 221.111 174.872 221.111C173.942 221.09 173.022 220.917 172.149 220.598C170.201 219.97 168.147 219.737 166.108 219.911C165.055 219.98 164.007 220.111 162.97 220.304C162.445 220.396 161.92 220.5 161.389 220.615L160.593 220.788C160.141 220.916 159.677 220.999 159.208 221.036C158.994 221.038 158.784 220.984 158.597 220.881C158.556 220.852 158.493 220.817 158.476 220.765V220.581L158.441 220.206L158.372 219.473L158.331 219.109C158.317 218.993 158.317 218.874 158.331 218.758C158.372 218.411 158.406 218.065 158.447 217.719C158.487 217.373 158.556 217.027 158.614 216.681C158.859 215.289 159.273 213.933 159.849 212.642C160.49 211.196 161.425 209.899 162.595 208.834C163.799 207.748 165.319 207.075 166.933 206.913C167.178 206.884 167.425 206.868 167.672 206.867L168.404 206.913H168.768L169.126 206.977L169.841 207.115C170.781 207.361 171.678 207.751 172.501 208.269C173.723 209.086 174.727 210.189 175.426 211.483C176.109 212.742 176.577 214.107 176.81 215.521C176.856 215.867 176.92 216.208 176.954 216.548C176.989 216.888 177.012 217.073 177.018 217.252V217.517C177.018 217.552 177.018 217.627 177.053 217.621C177.099 217.608 177.144 217.588 177.185 217.563C177.358 217.477 177.52 217.402 177.681 217.338C178.426 217.091 179.204 216.957 179.989 216.94C180.493 216.922 180.997 216.953 181.495 217.033C182.152 217.132 182.784 217.355 183.358 217.69C183.639 217.847 183.846 218.108 183.935 218.417C183.98 218.534 184.011 218.656 184.028 218.781C184.028 219.15 183.295 218.988 182.17 218.706C181.193 218.458 180.178 218.407 179.181 218.556C178.936 218.596 178.693 218.65 178.454 218.717L178.085 218.827C177.817 218.913 177.553 219.013 177.295 219.127C177.115 219.252 176.906 219.326 176.688 219.344C176.47 219.361 176.251 219.32 176.054 219.225C176.026 219.189 176.001 219.15 175.979 219.109C175.887 219.242 175.951 219.15 175.933 219.179V219.15V219.121L175.904 219.058L175.778 218.804L175.524 218.296C175.524 217.898 175.524 217.471 175.483 217.079C175.483 216.831 175.483 216.686 175.431 216.502C175.374 216.127 175.333 215.752 175.247 215.383C175.096 214.646 174.876 213.926 174.589 213.231C174.082 212.005 173.291 210.918 172.281 210.058C171.266 209.232 170.046 208.697 168.751 208.511L168.699 208.454Z" fill="#3B2C7D"/>
<path d="M185.429 216.842C185.48 216.523 185.547 216.208 185.631 215.896C185.712 215.584 185.764 215.267 185.873 214.956C186.069 214.331 186.31 213.722 186.595 213.133C187.15 211.909 187.977 210.828 189.012 209.971C189.188 209.803 189.382 209.654 189.589 209.527L190.218 209.117L190.962 208.846L191.314 208.702C191.433 208.664 191.554 208.635 191.677 208.615C193.376 208.248 195.148 208.451 196.72 209.192C197.475 209.523 198.199 209.921 198.883 210.381C199.579 210.872 200.186 211.479 200.677 212.175C201.506 213.383 202.106 214.732 202.449 216.156C202.928 217.921 203.08 219.759 202.899 221.579C202.829 222.156 202.431 222.04 202.062 221.579C201.562 220.894 201.273 220.078 201.231 219.231C200.972 215.833 200.043 212.394 196.956 210.848C196.736 210.722 196.509 210.608 196.275 210.508C196.051 210.389 195.818 210.288 195.577 210.208C195.1 210.041 194.604 209.933 194.1 209.884C193.606 209.821 193.106 209.821 192.612 209.884L191.891 210.052C191.654 210.109 191.435 210.236 191.204 210.317C190.207 210.797 189.349 211.524 188.712 212.429C188.066 213.388 187.575 214.443 187.258 215.556C187.092 216.172 186.963 216.798 186.872 217.431C186.837 217.748 186.768 218.059 186.75 218.383L186.704 219.138C186.704 219.231 186.67 219.334 186.704 219.421C186.739 219.508 186.975 219.508 187.12 219.508H187.385L187.806 219.467C188.383 219.409 188.96 219.358 189.537 219.323C192.487 219.177 195.441 219.502 198.289 220.286C198.664 220.402 199.039 220.488 199.408 220.633C200.793 221.14 201.139 221.463 201.272 221.959C201.306 222.07 201.327 222.184 201.335 222.3C201.335 222.652 200.689 222.617 199.714 222.3C196.78 221.289 193.696 220.782 190.593 220.8C189.802 220.8 189.018 220.875 188.204 220.961L187.581 221.025H187.385H187.079C186.887 221.041 186.694 221.041 186.502 221.025C186.143 221.012 185.8 220.873 185.533 220.633C185.415 220.515 185.321 220.376 185.256 220.223C185.208 220.051 185.174 219.875 185.152 219.698L185.233 218.042L185.4 216.79L185.429 216.842Z" fill="#3B2C7D"/>
<path d="M160.017 221.579C159.942 221.617 159.865 221.652 159.786 221.682L159.607 221.763L159.25 221.919L158.534 222.231L157.103 222.836L154.219 224.042C153.521 224.336 152.84 224.665 152.136 224.948C149.65 225.929 147.151 226.869 144.59 227.7C144.013 227.879 143.436 228.063 142.859 228.236C142.565 228.323 142.282 228.398 141.971 228.473C141.65 228.555 141.325 228.613 140.996 228.646C140.779 228.687 140.555 228.673 140.345 228.605C140.135 228.536 139.946 228.415 139.796 228.254C139.721 228.161 139.657 228.063 139.588 227.965C139.529 227.87 139.475 227.772 139.426 227.671C139.345 227.502 139.279 227.327 139.23 227.146C139.132 226.799 139.083 226.439 139.086 226.079C139.097 225.403 139.248 224.737 139.53 224.123C139.744 223.661 140.107 223.892 140.326 224.377C140.59 224.953 140.744 225.573 140.782 226.206C140.784 226.401 140.813 226.595 140.869 226.782C140.893 226.863 140.922 226.942 140.955 227.019C141.218 226.993 141.478 226.948 141.734 226.886C142.311 226.765 142.888 226.598 143.465 226.425C144.619 226.079 145.836 225.692 147.042 225.311C148.773 224.734 150.544 223.944 152.292 223.217C154.207 222.421 156.128 221.613 158.032 220.777L159.803 219.992C160.422 219.74 161.058 219.533 161.707 219.375C163.657 218.917 165.671 218.796 167.661 219.017C169.185 219.144 170.691 219.43 172.155 219.871C172.473 219.975 172.796 220.067 173.113 220.182C174.267 220.661 174.584 220.956 174.642 221.429C174.65 221.536 174.65 221.644 174.642 221.752C174.601 222.081 174.065 222.104 173.217 221.815C170.76 220.922 168.169 220.456 165.555 220.436C164.586 220.441 163.62 220.542 162.671 220.736C161.738 220.915 160.831 221.21 159.971 221.613L160.017 221.579Z" fill="#3B2C7D"/>
<path d="M199.912 224.821L199.185 225.133L198.769 225.311L197.944 225.681C197.368 225.934 196.848 226.194 196.3 226.459C195.204 226.994 194.118 227.546 193.041 228.115C192.25 228.531 191.483 228.992 190.693 229.408C187.912 230.884 185.137 232.384 182.327 233.844C181.069 234.484 179.841 235.165 178.514 235.742C178.294 235.834 178.087 235.921 177.833 236.002C177.512 236.118 177.17 236.165 176.829 236.14C176.667 236.105 176.515 236.035 176.383 235.935C176.25 235.836 176.141 235.709 176.062 235.563C175.97 235.416 175.889 235.261 175.819 235.102C175.763 234.971 175.717 234.836 175.681 234.698C175.442 233.703 175.544 232.657 175.969 231.727C176.212 231.179 176.546 231.427 176.766 231.975C177.002 232.651 177.17 233.348 177.268 234.058C177.279 234.132 177.296 234.205 177.319 234.277C177.316 234.309 177.316 234.342 177.319 234.375V234.438H177.354L177.631 234.346C178.393 234.063 179.212 233.677 180.014 233.284L184.894 230.856C186.868 229.886 188.823 228.692 190.802 227.625C192.983 226.471 195.187 225.317 197.448 224.25L198.573 223.748L199.15 223.529L199.675 223.338L199.808 223.298C199.831 223.29 199.852 223.278 199.871 223.263C199.876 223.254 199.878 223.244 199.878 223.234C199.878 223.225 199.876 223.215 199.871 223.206C199.802 223.154 199.727 223.111 199.646 223.079C199.371 222.97 199.09 222.875 198.804 222.796L198.579 222.733L198.187 222.634L197.35 222.444C196.237 222.208 195.112 222.011 193.993 221.867C192.269 221.671 190.53 221.642 188.8 221.781C188.425 221.809 188.068 221.867 187.698 221.913C186.331 222.098 185.939 222.156 185.523 221.85C185.423 221.791 185.328 221.724 185.241 221.648C184.987 221.417 185.489 220.898 186.591 220.609C188.227 220.23 189.909 220.082 191.587 220.171C193.279 220.246 194.964 220.438 196.629 220.748C197.206 220.846 197.737 220.961 198.285 221.088L199.3 221.331C199.831 221.469 200.35 221.619 200.823 221.786C201.231 221.904 201.611 222.1 201.943 222.363C202.129 222.53 202.257 222.753 202.306 222.998C202.316 223.073 202.316 223.148 202.306 223.223C202.31 223.263 202.31 223.304 202.306 223.344C202.299 223.431 202.273 223.516 202.231 223.592L202.162 223.736L201.994 223.915C201.941 223.981 201.879 224.04 201.81 224.088L201.481 224.256C200.904 224.452 200.414 224.654 199.912 224.867V224.821Z" fill="#3B2C7D"/>
<path opacity="0.2" d="M91.8867 118.378C91.8867 118.378 97.6559 134.094 97.6559 136.84C97.6559 139.586 99.3463 132.859 115.223 131.769C115.223 131.769 121.991 131.342 123.173 129.577C124.356 127.811 120.127 112.944 120.127 112.944C115.8 113.982 99.4271 111.346 91.8867 118.378Z" fill="#3B2C7D"/>
<path opacity="0.2" d="M161.281 141.738C161.281 141.738 164.241 154.932 165.072 154.696C165.902 154.459 167.749 153.265 173.725 152.769C179.702 152.273 180.983 149.654 180.983 149.654L178.272 137.423C177.787 135.98 169.312 140.007 168.199 140.446C165.995 141.308 163.648 141.747 161.281 141.738Z" fill="#3B2C7D"/>
<path opacity="0.2" d="M159.809 218.85C159.809 218.85 161.211 209.803 165.786 209.221C170.361 208.638 173.286 211.153 174.168 219.375C174.168 219.375 170.603 217.58 166.986 217.748C164.565 217.902 162.164 218.271 159.809 218.85Z" fill="#3B2C7D"/>
<path opacity="0.2" d="M186.746 219.588C186.746 219.588 187.49 210.732 193.473 210.732C197.286 210.732 199.756 213.617 200.5 220.656C200.5 220.656 197.004 218.729 193.386 218.757C191.151 218.808 188.926 219.086 186.746 219.588Z" fill="#3B2C7D"/>
<path d="M106.068 123.565C106.823 122.395 107.49 121.17 108.064 119.902C108.122 119.746 108.168 119.596 108.209 119.452C108.23 119.382 108.245 119.311 108.255 119.238V119.117C108.255 119.065 108.255 118.95 108.18 118.944C108.146 118.933 108.11 118.933 108.076 118.944C108.006 118.983 107.942 119.031 107.886 119.088C107.643 119.312 107.418 119.553 107.211 119.81C106.57 120.583 106.005 121.46 105.382 122.302C104.835 123.067 104.246 123.801 103.616 124.5C103.286 124.87 102.917 125.203 102.514 125.492C102.291 125.649 102.049 125.777 101.793 125.873C101.458 125.994 101.093 126.008 100.749 125.913C100.667 125.887 100.588 125.852 100.513 125.81C100.43 125.781 100.356 125.731 100.299 125.665C100.181 125.539 100.102 125.38 100.074 125.21C100.048 125.034 100.048 124.855 100.074 124.679L100.143 124.419C100.161 124.355 100.182 124.291 100.207 124.229C100.383 123.78 100.596 123.346 100.841 122.931C101.297 122.112 101.782 121.333 102.232 120.542C102.642 119.864 102.986 119.147 103.259 118.402C103.386 118.092 103.431 117.754 103.391 117.421C103.358 117.328 103.29 117.251 103.201 117.208C103.091 117.168 102.971 117.168 102.861 117.208C102.421 117.344 102.017 117.577 101.678 117.888C101.296 118.208 100.939 118.557 100.611 118.933C99.9342 119.662 99.3616 120.481 98.9087 121.367C98.7876 121.638 98.7126 121.742 98.6203 121.719C98.5279 121.696 98.4529 121.517 98.4414 121.206C98.4941 120.208 98.8732 119.255 99.5202 118.494C99.8719 118.055 100.258 117.644 100.674 117.265C101.125 116.848 101.644 116.511 102.209 116.267C102.595 116.095 103.028 116.058 103.438 116.163C103.691 116.235 103.918 116.379 104.089 116.579L104.205 116.717L104.303 116.879C104.377 116.996 104.422 117.128 104.436 117.265C104.491 117.625 104.469 117.993 104.372 118.344C104.298 118.636 104.201 118.921 104.084 119.198C103.631 120.194 103.11 121.158 102.526 122.083C102.249 122.538 101.949 122.988 101.718 123.444C101.586 123.669 101.464 123.894 101.349 124.113C101.297 124.229 101.239 124.338 101.193 124.448C101.147 124.558 101.147 124.558 101.13 124.61L101.084 124.719C101.084 124.8 101.02 124.915 101.118 124.956C101.162 124.965 101.207 124.965 101.251 124.956C101.278 124.96 101.305 124.96 101.332 124.956C101.386 124.945 101.438 124.928 101.488 124.904C102.005 124.634 102.463 124.261 102.832 123.808C103.667 122.817 104.45 121.785 105.18 120.715C105.607 120.138 106.034 119.562 106.524 118.985C106.775 118.678 107.058 118.397 107.366 118.148C107.587 117.975 107.84 117.847 108.111 117.773C108.366 117.726 108.631 117.767 108.861 117.888C109.031 118.09 109.152 118.328 109.216 118.584C109.28 118.84 109.285 119.107 109.23 119.365C109.165 119.761 109.055 120.149 108.901 120.519C108.614 121.201 108.285 121.864 107.914 122.504C107.476 123.283 107.02 124.044 106.599 124.812C106.387 125.186 106.195 125.571 106.022 125.965C105.947 126.154 105.884 126.346 105.832 126.542C105.806 126.654 105.806 126.771 105.832 126.883C106.011 127.2 106.455 127.113 106.986 126.727C107.484 126.325 107.931 125.864 108.318 125.354C109.149 124.327 109.888 123.208 110.701 122.135C111.024 121.719 111.347 121.304 111.716 120.906C112.091 120.473 112.551 120.122 113.066 119.873C113.386 119.735 113.74 119.697 114.082 119.763L114.324 119.844L114.497 119.89C114.717 119.96 114.908 120.1 115.039 120.288C115.228 120.619 115.292 121.006 115.218 121.379C115.183 121.657 115.123 121.931 115.039 122.198L114.659 123.496C114.422 124.281 114.33 124.76 114.255 125.083C114.21 125.332 114.124 125.571 114.001 125.792C113.943 125.89 113.92 126.012 113.868 126.092C113.816 126.173 113.597 126.179 113.401 125.838C113.171 125.333 113.108 124.767 113.222 124.223C113.378 123.231 113.741 122.325 113.926 121.5C113.968 121.336 113.989 121.167 113.989 120.998C113.995 120.979 113.995 120.959 113.989 120.94L114.116 120.894C114.261 120.831 114.203 120.825 114.157 120.923C114.111 121.021 114.088 121.108 114.053 121.067H114.007L113.839 121.01C113.822 121.014 113.805 121.014 113.788 121.01H113.736C113.632 121.017 113.531 121.049 113.441 121.102C113.113 121.293 112.819 121.537 112.57 121.823C112.261 122.151 111.97 122.496 111.699 122.856C111.122 123.594 110.591 124.39 110.009 125.163C109.569 125.767 109.095 126.345 108.589 126.894C108.31 127.201 107.998 127.478 107.661 127.719C107.569 127.789 107.472 127.852 107.372 127.91C107.268 127.974 107.158 128.028 107.043 128.071C106.922 128.13 106.794 128.175 106.663 128.204C106.571 128.227 106.479 128.244 106.386 128.256H106.155H105.895C105.814 128.256 105.734 128.204 105.653 128.181L105.416 128.106L105.197 127.985C105.128 127.944 105.053 127.904 104.989 127.858L104.874 127.644C104.792 127.501 104.736 127.345 104.707 127.183C104.684 127.012 104.684 126.84 104.707 126.669C104.721 126.507 104.75 126.347 104.793 126.19C104.852 125.994 104.921 125.802 105.001 125.613C105.307 124.922 105.657 124.251 106.051 123.606L106.068 123.565Z" fill="#3B2C7D"/>
<path d="M170.567 148.373L169.834 146.354C169.707 146.031 169.58 145.707 169.442 145.402C169.381 145.249 169.31 145.1 169.228 144.957C169.199 144.9 169.13 144.848 169.072 144.894C169.031 144.94 168.998 144.993 168.974 145.05L168.94 145.131C168.94 145.211 168.893 145.286 168.865 145.396C168.836 145.506 168.83 145.575 168.813 145.644C168.795 145.713 168.813 145.829 168.813 145.915C168.813 146.319 168.888 146.775 168.934 147.236C169.007 147.737 169.019 148.244 168.968 148.748C168.937 148.905 168.889 149.057 168.824 149.204L168.692 149.434C168.634 149.498 168.565 149.556 168.501 149.619C168.437 149.681 168.357 149.725 168.27 149.746C168.19 149.746 168.115 149.832 168.022 149.821H167.763H167.636H167.538L167.18 149.746C167.054 149.699 166.931 149.645 166.811 149.584C166.59 149.448 166.395 149.274 166.234 149.071C165.983 148.704 165.788 148.302 165.657 147.877C165.365 146.876 165.124 145.861 164.936 144.836C164.855 144.571 165.005 144.496 165.293 144.686C165.68 145.014 165.96 145.45 166.095 145.938C166.251 146.446 166.395 146.948 166.574 147.404C166.687 147.823 166.883 148.216 167.151 148.557C167.203 148.632 167.261 148.65 167.313 148.696C167.365 148.742 167.382 148.748 167.486 148.759L167.699 148.806H167.757C167.757 148.806 167.797 148.806 167.809 148.806C167.815 148.789 167.815 148.77 167.809 148.754C167.813 148.721 167.813 148.688 167.809 148.656C167.833 148.435 167.833 148.213 167.809 147.992C167.78 147.415 167.624 146.757 167.578 146.025C167.559 145.819 167.559 145.613 167.578 145.407C167.607 145.213 167.648 145.02 167.699 144.831C167.791 144.336 168.035 143.882 168.397 143.532C168.494 143.454 168.607 143.399 168.728 143.371C168.849 143.343 168.974 143.343 169.095 143.371C169.337 143.438 169.554 143.574 169.718 143.763C169.908 143.975 170.07 144.21 170.203 144.461C170.278 144.594 170.313 144.675 170.353 144.761L170.474 145.021C170.78 145.702 171.051 146.388 171.282 147.063C171.438 147.479 171.593 147.888 171.755 148.292C171.836 148.494 171.922 148.69 172.015 148.869C172.057 148.977 172.116 149.078 172.188 149.169C172.214 149.205 172.253 149.23 172.297 149.238C172.343 149.238 172.372 149.204 172.407 149.186C172.442 149.169 172.586 149.14 172.643 149.077L172.776 148.979C172.821 148.931 172.864 148.881 172.903 148.829C172.992 148.72 173.066 148.599 173.122 148.471C173.365 147.888 173.513 147.271 173.561 146.642C173.682 145.627 173.63 144.6 173.78 143.538C173.809 143.303 173.851 143.07 173.907 142.84C173.97 142.521 174.096 142.217 174.276 141.946C174.392 141.801 174.56 141.708 174.743 141.686C174.82 141.678 174.898 141.678 174.974 141.686C175.199 141.727 175.222 142.102 175.147 142.656C175.032 143.492 175.038 144.386 174.951 145.332C174.907 146.348 174.764 147.356 174.524 148.344C174.396 148.793 174.191 149.217 173.918 149.596C173.832 149.7 173.757 149.804 173.659 149.902L173.492 150.034L173.272 150.196C173.118 150.288 172.956 150.365 172.788 150.427C172.636 150.5 172.48 150.564 172.32 150.617C172.178 150.631 172.035 150.615 171.899 150.571C171.751 150.518 171.614 150.438 171.495 150.334C171.253 150.091 171.058 149.806 170.918 149.492C170.728 149.111 170.595 148.777 170.457 148.431L170.567 148.373Z" fill="#3B2C7D"/>
<path d="M164.682 215.089C164.561 214.812 164.59 214.714 164.647 214.65L165.259 213.998C165.438 213.819 165.64 213.652 165.836 213.473L166.332 213.012C166.497 212.853 166.675 212.709 166.863 212.579C166.972 212.498 167.094 212.435 167.209 212.36C167.324 212.285 167.428 212.221 167.544 212.158C167.544 212.158 167.584 212.129 167.607 212.129C167.63 212.129 167.728 212.215 167.734 212.308C167.74 212.4 167.734 212.36 167.734 212.365C167.734 212.371 167.659 212.579 167.578 212.637C167.432 212.751 167.3 212.883 167.186 213.029C167.137 213.083 167.081 213.129 167.019 213.167C166.938 213.219 166.851 213.26 166.771 213.317C166.425 213.602 166.093 213.905 165.778 214.223C165.351 214.644 164.907 215.031 164.878 215.042C164.815 215.065 164.749 215.081 164.682 215.089Z" fill="#3B2C7D"/>
<path d="M166.848 215.083C166.756 214.835 166.785 214.754 166.848 214.708C167.015 214.552 167.188 214.402 167.367 214.263C167.546 214.125 167.69 214.05 167.852 213.935L168.659 213.358L168.908 213.19L169.133 213.017C169.133 213.017 169.133 212.988 169.173 213.017C169.213 213.046 169.3 213.104 169.329 213.196C169.358 213.288 169.329 213.248 169.329 213.254C169.329 213.26 169.329 213.461 169.248 213.508C169.137 213.6 169.033 213.7 168.936 213.808C168.895 213.847 168.849 213.88 168.798 213.906L168.59 214.004C168.417 214.102 167.038 215.088 166.998 215.106C166.947 215.103 166.897 215.095 166.848 215.083Z" fill="#3B2C7D"/>
<path d="M190.658 215.192C190.589 214.95 190.658 214.846 190.721 214.777C190.981 214.54 191.24 214.309 191.512 214.084C191.783 213.859 191.996 213.727 192.238 213.548C192.655 213.225 193.09 212.929 193.542 212.659L193.952 212.44L194.367 212.267C194.396 212.267 194.413 212.267 194.442 212.267C194.486 212.288 194.522 212.324 194.543 212.368C194.564 212.412 194.569 212.462 194.558 212.509C194.454 212.567 194.448 212.746 194.35 212.815C194.252 212.884 193.998 213.075 193.831 213.213C193.762 213.265 193.687 213.306 193.612 213.352C193.537 213.398 193.398 213.432 193.3 213.484C192.85 213.747 192.415 214.033 191.996 214.344C191.419 214.748 190.889 215.14 190.842 215.157C190.782 215.174 190.72 215.185 190.658 215.192Z" fill="#3B2C7D"/>
<path d="M191.824 215.85C191.863 215.727 191.935 215.617 192.032 215.533C192.343 215.227 192.661 214.956 192.99 214.656C193.318 214.356 193.567 214.194 193.878 213.975C194.393 213.586 194.944 213.246 195.522 212.959C195.695 212.873 195.874 212.798 196.047 212.723C196.216 212.647 196.392 212.587 196.572 212.544H196.665C196.682 212.543 196.699 212.547 196.714 212.556C196.729 212.564 196.741 212.576 196.75 212.591C196.758 212.606 196.762 212.623 196.761 212.64C196.761 212.657 196.755 212.674 196.745 212.688C196.749 212.703 196.749 212.719 196.745 212.734C196.613 212.775 196.543 212.919 196.411 212.971C196.159 213.062 195.915 213.176 195.684 213.311L195.401 213.456C195.274 213.513 195.147 213.559 195.02 213.623C194.454 213.927 193.91 214.272 193.393 214.656C192.701 215.158 192.084 215.7 192.049 215.723C191.977 215.77 191.902 215.812 191.824 215.85Z" fill="#3B2C7D"/>
</svg>
