<svg width="300" height="300" viewBox="0 0 300 300" fill="none" xmlns="http://www.w3.org/2000/svg">
<path d="M181.43 76.0675C181.055 76.9444 180.611 77.7867 180.045 78.554C180.155 78.4098 179.993 78.6175 179.959 78.6579C179.901 78.7271 179.843 78.7963 179.78 78.8598C179.67 78.9809 179.549 79.1021 179.428 79.2175C179.37 79.2694 179.313 79.3213 179.255 79.3675C179.232 79.3848 179.197 79.4252 179.168 79.4367C179.336 79.3502 179.266 79.3675 179.214 79.3963C179.093 79.4771 178.978 79.5579 178.857 79.6271C178.811 79.6559 178.759 79.679 178.713 79.7021C178.845 79.6617 178.516 79.8002 178.713 79.7021C178.603 79.7367 178.493 79.7713 178.378 79.8002C178.193 79.8463 178.378 79.7655 178.436 79.8002C178.413 79.7886 178.32 79.8059 178.286 79.8117C178.239 79.8117 178.188 79.8117 178.141 79.8117C177.945 79.8117 178.326 79.8579 178.182 79.8117C178.141 79.8002 177.968 79.7309 177.934 79.7425C178.026 79.7079 178.141 79.8521 177.986 79.7598C177.939 79.7367 177.899 79.7078 177.853 79.6848C177.836 79.6732 177.818 79.6559 177.795 79.6444C177.709 79.5982 177.951 79.7886 177.888 79.7194C177.864 79.6905 177.824 79.6675 177.801 79.6386C177.766 79.604 177.738 79.5694 177.703 79.5405C177.564 79.4021 177.801 79.6963 177.72 79.5636C177.663 79.4655 177.605 79.3732 177.553 79.2752C177.478 79.1309 177.622 79.4828 177.553 79.2867C177.536 79.229 177.513 79.1713 177.495 79.1136C177.478 79.0559 177.461 78.9925 177.449 78.9348C177.437 78.8944 177.409 78.6694 177.426 78.8367C177.443 79.004 177.426 78.7732 177.42 78.7329C177.42 78.6579 177.414 78.5771 177.414 78.5021C177.414 78.0521 177.016 77.6136 176.549 77.6367C176.082 77.6598 175.678 78.0175 175.684 78.5021C175.689 79.7367 176.261 81.0059 177.495 81.4271C178.828 81.8829 180.184 81.0059 181.032 80.0425C181.88 79.079 182.428 78.0578 182.907 76.9444C183.091 76.5175 183.034 76.0155 182.595 75.7617C182.232 75.5482 181.597 75.6405 181.413 76.0732L181.43 76.0675Z" fill="#3B2C7D"/>
<path d="M177.884 74.0769C177.504 75.0231 177.227 76.0269 177.082 77.0539C177.048 77.2443 177.048 77.4289 177.042 77.6192L177.013 78.1846C176.898 79.5173 176.967 80.8962 177.336 82.2058C177.498 82.7885 177.757 83.3366 178.04 83.8616C178.138 84.0231 178.236 84.1904 178.34 84.3519C178.444 84.5135 178.571 84.6577 178.657 84.8308C178.854 85.1712 179.044 85.5 179.252 85.8519C179.373 86.0769 179.24 86.175 178.934 86.175C178.634 86.175 178.098 86.1 177.677 85.7769C177.481 85.6442 177.336 85.4654 177.198 85.2866C177.048 85.1135 176.927 84.9231 176.794 84.7385C176.661 84.5539 176.546 84.3577 176.431 84.1616C176.315 83.9654 176.206 83.7635 176.125 83.55C175.779 82.7135 175.559 81.825 175.479 80.9366C175.386 79.875 175.207 78.7904 175.254 77.7058C175.323 76.5173 175.548 75.3519 175.9 74.2269C176.125 73.5346 176.396 72.8654 176.702 72.2077C177.181 71.2154 177.809 70.3039 178.502 69.45C179.05 68.7981 179.604 68.1346 180.307 67.5981C180.463 67.4827 180.602 67.3443 180.781 67.2519C181.415 66.8827 181.709 66.9462 182.004 67.3327C182.073 67.425 182.148 67.5116 182.206 67.6039C182.384 67.9327 182.252 68.3135 181.923 68.5846C180.942 69.4269 180.111 70.3616 179.332 71.4289C178.779 72.2366 178.294 73.1308 177.936 74.0885L177.89 74.0769H177.884Z" fill="#3B2C7D"/>
<path d="M71.1814 263.019L67.9275 263.042C67.5295 263.054 67.1372 263.089 66.7391 263.089C65.3429 263.089 63.941 263.089 62.5449 263.083C61.9276 263.083 61.3045 263.129 60.6872 263.152C59.8968 263.181 59.1064 263.221 58.3102 263.129C58.0622 263.1 58.091 262.927 58.2929 262.731C58.4949 262.541 58.8699 262.304 59.3199 262.246C60.9179 261.998 62.5218 261.981 64.1487 262.01C65.1237 262.039 66.1275 261.912 67.1199 261.866C68.2102 261.819 69.3064 261.796 70.3968 261.767L72.416 261.721C73.4372 261.692 74.4641 261.692 75.4737 261.646C76.2641 261.612 77.0314 261.502 77.816 261.433C77.9891 261.421 78.1564 261.387 78.3295 261.387C78.9756 261.387 79.1776 261.479 79.3102 261.837C79.3391 261.917 79.3795 261.998 79.3968 262.079C79.4545 262.35 79.1891 262.575 78.7218 262.662C77.3429 262.921 75.9006 262.939 74.4352 262.985C73.3506 263.008 72.2545 263.031 71.1699 263.048V263.014L71.1814 263.019Z" fill="#3B2C7D"/>
<path d="M71.9208 261.583L69.2497 261.537C68.9266 261.537 68.6035 261.571 68.2747 261.56C67.1266 261.542 65.9727 261.485 64.8247 261.416C64.317 261.392 63.8035 261.375 63.2958 261.364C62.6439 261.364 61.9862 261.289 61.3458 261.098C61.1497 261.041 61.1958 260.919 61.3804 260.787C61.5708 260.654 61.8939 260.492 62.2574 260.464C63.5497 260.4 64.8362 260.377 66.1574 260.417C66.9477 260.464 67.767 260.36 68.5747 260.319L71.2516 260.216L72.9074 260.169C73.7439 260.146 74.5862 260.152 75.417 260.112C76.0631 260.089 76.6977 259.962 77.3554 259.939C77.4997 259.939 77.6381 259.916 77.7824 259.921C78.3247 259.962 78.4862 260.071 78.567 260.429C78.5843 260.51 78.6131 260.591 78.6189 260.671C78.642 260.942 78.4112 261.156 78.0362 261.231C76.9227 261.508 75.7689 261.514 74.5804 261.56C73.692 261.577 72.8035 261.6 71.9151 261.617V261.583H71.9208Z" fill="#3B2C7D"/>
<path d="M77.5482 263.989C76.4636 263.942 75.379 263.931 74.2944 263.914C73.8963 263.902 73.504 263.931 73.1059 263.914C71.704 263.873 70.3021 263.85 68.9001 263.862C68.2771 263.862 67.654 263.896 67.0367 263.925C66.2463 263.977 65.4501 263.994 64.654 263.942C64.4059 263.925 64.4348 263.816 64.6367 263.683C64.8386 263.55 65.2194 263.377 65.6694 263.308C67.2732 263.094 68.8886 262.996 70.5213 262.979C71.4963 262.979 72.5117 262.864 73.5098 262.812C74.6059 262.754 75.7078 262.766 76.8098 262.76L78.8463 262.783C79.8732 262.794 80.9059 262.835 81.9271 262.864C82.3251 262.864 82.7232 262.864 83.1155 262.864C83.5136 262.852 83.9059 262.846 84.3098 262.864C84.4886 262.864 84.6617 262.864 84.8405 262.875C85.504 262.95 85.7002 263.089 85.7636 263.469C85.7752 263.556 85.804 263.648 85.804 263.735C85.804 264.029 85.4982 264.214 85.0482 264.214C83.6982 264.237 82.2675 264.173 80.8078 264.116C79.729 264.081 78.6386 264.029 77.5425 264.023V263.994L77.5482 263.989Z" fill="#3B2C7D"/>
<path d="M99.6215 261.871C100.383 261.917 101.145 261.963 101.906 261.986C102.183 261.998 102.46 261.975 102.737 261.986C103.718 262.021 104.704 262.061 105.685 262.096C106.123 262.107 106.556 262.084 106.989 262.067C107.543 262.05 108.102 262.073 108.662 262.107C108.835 262.119 108.812 262.142 108.673 262.2C108.529 262.257 108.27 262.384 107.952 262.471C107.675 262.54 107.393 262.621 107.11 262.679L106.262 262.788C105.697 262.852 105.125 262.898 104.554 262.898C103.868 262.904 103.158 262.967 102.454 263.002C101.681 263.025 100.914 263.031 100.141 263.031H98.7158C97.9946 263.031 97.2735 263.002 96.5638 263.031C96.01 263.048 95.4677 263.146 94.9138 263.204C94.7927 263.215 94.6773 263.244 94.5504 263.25C94.1004 263.273 93.9561 263.181 93.8638 262.823C93.8408 262.742 93.8177 262.661 93.8061 262.575C93.7658 262.298 93.9561 262.073 94.285 261.992C95.26 261.779 96.2869 261.773 97.3138 261.779C98.0811 261.784 98.8484 261.819 99.6158 261.848V261.877L99.6215 261.871Z" fill="#3B2C7D"/>
<path d="M100.701 260.896C101.174 260.913 101.647 260.919 102.131 260.913C102.305 260.913 102.478 260.89 102.656 260.896C103.28 260.919 103.908 260.936 104.537 260.936C104.814 260.936 105.091 260.919 105.368 260.919C105.72 260.913 106.078 260.907 106.435 260.982C106.545 261.006 106.533 261.086 106.447 261.19C106.36 261.288 106.193 261.438 105.997 261.49C105.651 261.582 105.305 261.698 104.958 261.756C104.606 261.796 104.255 261.825 103.891 261.825C103.458 261.825 103.02 261.94 102.581 261.998C102.097 262.061 101.606 262.067 101.11 262.084C100.805 262.09 100.505 262.096 100.199 262.102C99.7372 262.107 99.2757 262.084 98.8142 262.102C98.4565 262.119 98.1045 262.194 97.7468 262.234C97.6661 262.246 97.5911 262.263 97.5103 262.263C97.2161 262.263 97.1295 262.165 97.1065 261.807C97.1065 261.727 97.0892 261.64 97.0949 261.559C97.0949 261.282 97.2392 261.063 97.4411 261.006C98.0526 260.838 98.6642 260.844 99.293 260.85C99.7545 260.861 100.228 260.873 100.701 260.867V260.896Z" fill="#3B2C7D"/>
<path d="M99.8036 260.054C100.254 260.065 100.704 260.077 101.154 260.089C101.315 260.089 101.482 260.077 101.644 260.083C102.221 260.106 102.804 260.135 103.38 260.14C103.634 260.14 103.894 260.129 104.148 260.112C104.477 260.1 104.8 260.089 105.129 260.123C105.232 260.135 105.221 260.198 105.146 260.273C105.065 260.348 104.915 260.458 104.73 260.504C104.079 260.671 103.409 260.706 102.734 260.712C102.33 260.712 101.915 260.781 101.505 260.815C101.055 260.85 100.6 260.862 100.15 260.879C99.8728 260.89 99.5901 260.902 99.3132 260.914C98.892 260.937 98.4709 260.942 98.0497 260.994C97.7266 261.035 97.4093 261.127 97.092 261.202C97.0228 261.219 96.9536 261.242 96.8843 261.254C96.6189 261.294 96.5324 261.237 96.4632 260.965C96.4459 260.902 96.4286 260.844 96.417 260.781C96.3824 260.567 96.4805 260.389 96.6709 260.314C97.2363 260.106 97.8363 260.071 98.442 260.048C98.892 260.031 99.3478 260.042 99.7978 260.037V260.06L99.8036 260.054Z" fill="#3B2C7D"/>
<path d="M92.8919 262.754L95.6842 262.829C96.0246 262.834 96.365 262.8 96.6996 262.811L98.4996 262.875L100.3 262.984C100.565 262.99 100.836 263.013 101.102 263.031C101.367 263.042 101.632 263.054 101.898 263.094C102.578 263.175 103.265 263.244 103.934 263.452C104.142 263.509 104.107 263.515 103.923 263.544C103.738 263.561 103.409 263.654 103.023 263.734C102.342 263.821 101.655 264.086 100.975 264.121C100.294 264.202 99.6015 264.156 98.9092 264.133C98.0784 264.075 97.213 264.161 96.365 264.179L93.5553 264.196H91.8246C90.9477 264.213 90.0707 264.196 89.1996 264.236C88.5246 264.265 87.8611 264.381 87.1746 264.433C87.0246 264.444 86.8746 264.467 86.7188 264.467C86.1477 264.467 85.9515 264.329 85.888 263.902C85.8707 263.804 85.8477 263.706 85.8477 263.608C85.8477 263.279 86.0957 263.031 86.465 262.967C87.6015 262.759 88.8419 262.713 90.088 262.708C91.0169 262.708 91.9573 262.713 92.8919 262.719V262.754Z" fill="#3B2C7D"/>
<path d="M172.083 97.1079C167.115 100.368 158.94 100.916 158.94 100.916L157.25 97.4194L168.304 97.1079H172.088H172.083Z" fill="#3B2C7D"/>
<path opacity="0.45" d="M84.8365 256.823C84.8365 256.823 91.7999 262.154 87.3115 262.835C82.8288 263.51 67.7769 254.74 67.7769 254.74L66.4961 249.375L72.7961 248.371L84.8365 256.823Z" fill="#3B2C7D"/>
<path opacity="0.45" d="M75.5898 248.942L83.1591 248.729C83.1591 248.729 94.4033 256.148 96.2264 258.992C98.0495 261.837 89.9898 261.185 89.9898 261.185C89.9898 261.185 84.0648 256.275 82.2302 254.989C80.3956 253.702 75.5898 248.942 75.5898 248.942Z" fill="#3B2C7D"/>
<path d="M73.3744 248.365C72.9186 247.69 66.4802 250.137 66.4802 250.137L58.0859 199.131L68.5629 199.142C67.0802 214.719 73.3744 248.365 73.3744 248.365Z" fill="#3B2C7D"/>
<path d="M70.6445 198.825C70.6445 198.825 73.1772 247.956 75.5945 248.942C77.6138 249.767 81.4907 247.165 81.4907 247.165L80.2965 198.035L70.6445 198.825Z" fill="#3B2C7D"/>
<path d="M97.7299 192C98.1453 191.804 98.5434 191.585 98.9299 191.365C99.1088 191.25 99.3107 191.135 99.4722 191.025L99.5876 190.938L99.6165 190.921C99.6165 190.921 99.6511 190.898 99.6742 190.887C99.7088 190.869 99.6972 190.835 99.6915 190.806V190.76L99.628 190.575L99.3222 189.629C99.1376 189.069 98.9069 188.521 98.7222 187.962C98.0703 185.971 97.4299 183.975 96.8588 181.956C96.6165 181.056 96.3684 180.15 96.1261 179.262C95.9761 178.685 95.8319 178.108 95.7165 177.519C95.6242 176.925 95.5953 176.319 95.5953 175.719C95.6011 175.344 95.653 175.39 95.7915 175.69C95.9184 175.99 96.2299 176.51 96.5011 177.127C96.8588 178.258 97.2511 179.377 97.6549 180.502C97.8511 181.067 98.0703 181.621 98.2492 182.198C98.4165 182.775 98.5895 183.352 98.7569 183.935C99.1549 185.331 99.7549 186.715 100.268 188.106L100.799 189.571L101.065 190.344C101.209 190.742 101.284 191.14 101.116 191.481C100.961 191.66 100.834 191.85 100.643 191.988L100.418 192.173C100.355 192.231 100.286 192.277 100.222 192.317C99.9569 192.49 99.6972 192.675 99.4319 192.825C98.5376 193.362 97.6203 193.806 96.6915 194.233C95.2896 194.89 93.8472 195.444 92.3992 195.969C91.2742 196.373 90.1665 196.788 88.9665 197.06C88.7011 197.112 88.4472 197.198 88.1646 197.221C87.1319 197.331 86.7453 197.106 86.6011 196.644C86.5665 196.535 86.5203 196.425 86.5088 196.321C86.4857 195.952 86.878 195.71 87.478 195.588C89.3242 195.208 91.303 194.452 93.3222 193.806C94.8165 193.287 96.3165 192.698 97.7126 191.971L97.7357 192.006L97.7299 192Z" fill="#3B2C7D"/>
<path d="M94.4323 143.943L94.0458 143.244L93.7169 142.518C93.4804 142.044 93.3419 141.525 93.1573 141.035C93.0419 140.666 92.9265 140.302 92.8284 139.927C92.7419 139.598 92.7131 139.258 92.6554 138.923L92.5861 138.421L92.5573 137.914C92.5054 137.239 92.5573 136.569 92.5861 135.9L92.6727 135.018C92.6958 134.723 92.7188 134.429 92.7708 134.141C92.84 133.771 92.8573 133.391 92.9669 133.027C93.0765 132.669 93.2092 132.312 93.3592 131.966C93.4573 131.752 93.6073 131.833 93.74 132.069C93.8669 132.306 94.0054 132.704 93.965 133.108C93.7977 134.544 93.6534 135.946 93.6708 137.394C93.6881 137.827 93.6881 138.271 93.7919 138.704L93.9188 139.362C93.9707 139.581 94.04 139.789 94.0919 140.002C94.3227 140.954 94.6977 141.86 95.1246 142.743C95.4188 143.273 95.7073 143.804 96.0765 144.294C96.6015 145.056 97.2246 145.748 97.8996 146.371C98.1765 146.596 98.465 146.804 98.7534 147.006C99.0477 147.202 99.3592 147.364 99.6534 147.548C99.7861 147.629 99.9188 147.693 100.052 147.779C100.294 147.935 100.444 148.05 100.525 148.177C100.6 148.316 100.617 148.437 100.611 148.581C100.611 148.644 100.611 148.714 100.605 148.766C100.588 148.858 100.513 148.904 100.375 148.927C100.236 148.95 100.034 148.956 99.8208 148.875C99.4977 148.771 99.1631 148.656 98.8746 148.466C98.5746 148.287 98.2631 148.125 97.9804 147.912C97.6977 147.698 97.415 147.479 97.1381 147.254L96.3592 146.51C95.9842 146.123 95.6438 145.708 95.3092 145.287C95.0034 144.843 94.6688 144.421 94.4092 143.948L94.4323 143.931V143.943Z" fill="#3B2C7D"/>
<path d="M119.042 128.129C117.911 128.354 116.78 128.521 115.655 128.7C115.246 128.763 114.842 128.856 114.427 128.913C112.979 129.098 111.53 129.282 110.088 129.467C109.448 129.554 108.807 129.669 108.184 129.796C107.377 129.94 106.592 130.206 105.738 130.142C105.45 130.009 105.49 130.056 105.663 129.807C105.83 129.559 106.171 129.225 106.632 129.081C108.271 128.677 109.921 128.313 111.617 128.163C112.627 128.065 113.654 127.823 114.675 127.644C115.794 127.454 116.907 127.246 118.015 127.021C118.696 126.877 119.377 126.727 120.046 126.554C121.061 126.288 122.088 126.011 123.063 125.642C123.438 125.492 123.807 125.331 124.171 125.157L125.238 124.604C125.394 124.523 125.55 124.442 125.711 124.367C126.317 124.107 126.548 124.113 126.819 124.35C126.882 124.402 126.952 124.454 126.998 124.511C127.165 124.707 127.004 125.013 126.594 125.313C125.394 126.225 123.911 126.773 122.429 127.275C121.321 127.644 120.184 127.909 119.048 128.152L119.036 128.123L119.042 128.129Z" fill="#3B2C7D"/>
<path d="M145.821 120.571L147.252 122.498C147.431 122.729 147.627 122.948 147.8 123.185C148.394 124.039 148.954 124.921 149.473 125.821C149.715 126.214 149.94 126.623 150.171 127.021C150.298 127.287 150.465 127.535 150.552 127.823C150.638 128.112 150.702 128.406 150.771 128.694C150.806 128.879 150.748 128.873 150.598 128.769C150.454 128.665 150.16 128.492 149.935 128.244C149.185 127.339 148.637 126.364 148.019 125.36C147.667 124.748 147.148 124.223 146.704 123.658L145.21 121.783L144.281 120.623C143.808 120.04 143.363 119.423 142.885 118.846C142.515 118.39 142.112 117.975 141.748 117.514C141.667 117.415 141.575 117.323 141.506 117.214C141.246 116.804 141.223 116.637 141.494 116.36C141.546 116.302 141.592 116.239 141.644 116.198C141.788 116.065 142.181 116.06 142.394 116.314C143.115 117.023 143.756 117.825 144.39 118.673C144.863 119.296 145.342 119.937 145.838 120.56L145.815 120.583L145.821 120.571Z" fill="#3B2C7D"/>
<path d="M134.589 95.5269C135.419 95.3019 136.273 95.1173 137.127 94.9846C137.444 94.9442 137.744 94.8519 138.068 94.8289C139.187 94.7366 140.329 94.8116 141.437 95.025C141.927 95.1173 142.423 95.2212 142.891 95.3885C143.191 95.4981 143.496 95.6077 143.779 95.7577C144.056 95.9308 144.287 96.1789 144.494 96.4212C144.621 96.5769 144.552 96.6231 144.339 96.6519C144.131 96.6692 143.756 96.75 143.41 96.7443C142.868 96.5827 142.331 96.4731 141.777 96.375C141.235 96.2481 140.669 96.1558 140.081 96.0693C139.377 95.9654 138.644 96.1212 137.912 96.2019C137.11 96.3 136.308 96.45 135.506 96.6519C135.016 96.7789 134.525 96.9116 134.046 97.0789C133.314 97.3212 132.581 97.5866 131.883 97.9096C131.335 98.1577 130.839 98.475 130.314 98.7635C130.198 98.8269 130.094 98.9019 129.973 98.9596C129.535 99.1789 129.356 99.1673 129.125 98.925C129.073 98.8731 129.016 98.8212 128.969 98.7577C128.825 98.5616 128.918 98.2904 129.206 98.0596C130.071 97.3904 131.052 96.8019 132.119 96.3577C132.91 96.0231 133.729 95.7346 134.56 95.4808L134.571 95.5154L134.589 95.5269Z" fill="#3B2C7D"/>
<path d="M115.714 97.5171C114.121 98.094 112.541 98.7228 110.966 99.3574C110.394 99.594 109.841 99.8767 109.264 100.113C107.25 100.961 105.231 101.821 103.252 102.767C102.375 103.188 101.51 103.638 100.656 104.094L99.0232 104.988C98.4809 105.288 97.9213 105.565 97.3155 105.75C96.877 105.761 96.9174 105.727 97.0732 105.329C97.1424 105.121 97.2924 104.902 97.4771 104.654C97.6617 104.406 97.904 104.163 98.2155 103.979C99.3059 103.321 100.408 102.675 101.539 102.081C102.681 101.509 103.846 100.979 105.041 100.488C106.466 99.9055 107.873 99.1498 109.316 98.5151C110.891 97.8113 112.5 97.1651 114.11 96.5363C115.108 96.1613 116.1 95.7747 117.098 95.4228C118.61 94.8632 120.15 94.3671 121.662 93.8421C122.839 93.4382 123.975 92.9767 125.146 92.5844C125.406 92.4978 125.648 92.394 125.914 92.319C126.894 92.0421 127.235 92.0536 127.541 92.4055C127.61 92.4805 127.696 92.5555 127.742 92.6305C127.904 92.8844 127.575 93.2767 126.889 93.5363C124.864 94.3382 122.706 95.0421 120.537 95.7978C118.933 96.369 117.312 96.9228 115.725 97.5517L115.708 97.5171H115.714Z" fill="#3B2C7D"/>
<path d="M181.977 71.9769C187.106 75.45 206.86 70.9673 199.308 51.9807C199.308 51.9807 195.315 48.2423 189.737 45.2192C181.931 40.9903 173.26 46.1653 173.26 46.1653C173.26 46.1653 174.846 43.7134 169.677 39.4211C164.508 35.1288 154.475 35.5846 148.446 38.2384C142.417 40.8923 130.388 47.8846 127.648 50.9307C124.913 53.9769 118.354 61.9442 117.944 63.6288C116.715 68.6769 116.381 73.2634 119.71 75.3634C123.038 77.4634 135.021 87.6173 142.354 87.0865C145.135 86.8846 139.51 84.548 145.412 78.525C145.412 78.525 141.783 73.8923 142.394 70.9615C143.006 68.0307 144.396 68.0307 145.735 66.7269C147.073 65.423 149.767 66.8826 150.212 67.7711C150.656 68.6596 152.208 74.0423 153.154 74.2673C154.1 74.4923 157.625 72.2365 158.987 70.3673C160.348 68.498 164.092 65.2384 165.396 63.6288C166.7 62.0192 169.51 60.2653 171.719 60.0403C173.935 59.8096 174.806 59.8615 176.577 65.4115C178.348 70.9615 181.977 71.9711 181.977 71.9711V71.9769Z" fill="#3B2C7D"/>
<path d="M62.2091 223.275C62.6995 226.569 63.2187 229.863 63.836 233.146C64.0495 234.346 64.3322 235.529 64.563 236.729C65.3476 240.952 66.1437 245.186 66.9918 249.409C67.361 251.284 67.7995 253.154 68.2091 255.006C68.463 256.2 68.7226 257.394 68.9764 258.588C69.1033 259.188 69.2014 259.788 69.2764 260.4C69.3572 261.006 69.438 261.611 69.4841 262.223C69.5072 262.996 69.2764 262.933 68.8091 262.373C68.5726 262.09 68.3072 261.681 68.0303 261.179C67.8918 260.925 67.7591 260.648 67.6264 260.354C67.563 260.204 67.4995 260.048 67.436 259.892C67.3899 259.731 67.338 259.563 67.2976 259.396C66.0341 254.59 65.0707 249.721 64.211 244.777C63.7034 241.817 62.9476 238.783 62.3591 235.765C61.7187 232.448 61.1187 229.113 60.5937 225.773C60.2591 223.719 59.9764 221.654 59.688 219.594C59.4687 218.031 59.3072 216.461 59.111 214.892C58.9495 213.323 58.788 211.754 58.6322 210.196C58.5226 208.984 58.3899 207.784 58.2399 206.59C58.1303 205.39 58.0149 204.196 57.9053 202.99C57.8534 202.459 57.8014 201.94 57.7899 201.404C57.7091 199.419 57.8591 198.779 58.413 198.352C58.5283 198.254 58.6264 198.127 58.7245 198.069C58.886 197.977 59.036 198.127 59.2437 198.484C59.4687 198.842 59.5899 199.396 59.6649 200.111C60.086 204.358 60.4264 208.811 60.9457 213.288C61.1014 214.95 61.3495 216.611 61.5399 218.279C61.7649 219.94 62.0014 221.608 62.2553 223.269L62.2091 223.281V223.275Z" fill="#3B2C7D"/>
<path d="M72.9062 218.008C73.085 220.598 73.2812 223.189 73.5408 225.779C73.6273 226.725 73.7889 227.66 73.8812 228.606L74.3658 233.608C74.5273 235.275 74.6773 236.948 74.8619 238.616C75.0235 240.093 75.2081 241.581 75.4158 243.041C75.6696 244.921 76.0619 246.791 75.8946 248.729C75.785 249.341 75.7215 249.271 75.3523 248.816C75.1677 248.591 74.9081 248.268 74.6831 247.864C74.5677 247.662 74.4465 247.443 74.3369 247.212C74.2792 247.096 74.2331 246.975 74.1754 246.848C74.1408 246.721 74.1062 246.589 74.0831 246.456C73.7081 244.552 73.3504 242.648 73.0389 240.733C72.7273 238.818 72.5658 236.873 72.41 234.918C72.2485 232.581 71.8504 230.175 71.5908 227.793C71.3139 225.173 71.0773 222.548 70.8696 219.918C70.7369 218.302 70.6273 216.681 70.5177 215.06C70.3446 212.608 70.2581 210.139 70.1023 207.704C70.0042 205.812 69.785 203.954 69.6812 202.073C69.6523 201.658 69.6062 201.254 69.6062 200.833C69.6004 200.06 69.6292 199.546 69.7446 199.189C69.8773 198.831 70.0735 198.629 70.3562 198.473C70.4831 198.398 70.6042 198.306 70.7254 198.266C70.9273 198.196 71.1062 198.323 71.2908 198.606C71.4754 198.889 71.6312 199.327 71.6831 199.881C72.0408 203.193 72.1908 206.666 72.4215 210.168C72.5023 211.466 72.5831 212.769 72.6696 214.073C72.7735 215.377 72.8542 216.687 72.9696 217.991H72.9177L72.9062 218.008Z" fill="#3B2C7D"/>
<path d="M80.6244 217.362C80.6475 219.963 80.7455 222.565 80.8667 225.173C80.9071 226.125 81.0282 227.071 81.0744 228.023C81.2532 231.375 81.4552 234.738 81.709 238.096C81.8071 239.585 81.9629 241.085 82.1186 242.556C82.2225 243.502 82.2917 244.454 82.3609 245.412C82.4302 246.363 82.4359 247.327 82.3205 248.29C82.234 248.896 82.159 248.821 81.8705 248.342C81.7263 248.106 81.5071 247.765 81.3052 247.35C81.2071 247.142 81.0859 246.917 80.9994 246.681C80.9244 246.438 80.8552 246.179 80.809 245.908C80.6417 244.95 80.4513 243.992 80.3129 243.029C80.2032 242.065 80.0936 241.096 79.984 240.127C79.7648 238.188 79.6609 236.238 79.5917 234.271C79.5109 231.917 79.1936 229.494 79.0263 227.088C78.9282 225.767 78.8706 224.446 78.7898 223.125C78.7379 221.798 78.6802 220.477 78.6513 219.15C78.6109 217.517 78.5879 215.885 78.5879 214.258C78.5705 211.788 78.6744 209.302 78.7379 206.85C78.8302 204.946 78.784 203.06 78.9455 201.167C78.9802 200.752 78.9859 200.342 79.0552 199.927C79.159 199.154 79.3206 198.652 79.4648 198.312C79.5398 198.138 79.6205 198.012 79.7186 197.908C79.834 197.804 79.9552 197.729 80.0648 197.665C80.1686 197.608 80.2609 197.521 80.3302 197.487C80.5032 197.365 80.9359 198.075 80.9186 199.194C80.9879 202.54 80.6821 205.99 80.6532 209.504C80.6417 210.808 80.6244 212.112 80.6129 213.421C80.6359 214.731 80.6129 216.04 80.6705 217.35H80.6186L80.6244 217.362Z" fill="#3B2C7D"/>
<path d="M104.117 93.3231C100.632 93.5135 97.1531 93.8481 93.7031 94.3385C92.4454 94.5288 91.205 94.7885 89.9589 95.025C87.7724 95.4404 85.58 95.9135 83.532 96.6288C83.2781 96.7211 83.0185 96.8077 82.7704 96.9058L82.0377 97.2173L81.357 97.575C81.1724 97.7077 80.9474 97.8404 80.7916 97.9788C80.7224 98.0481 80.6474 98.1173 80.5724 98.1865C80.4974 98.2615 80.405 98.3942 80.3243 98.4981L79.8224 99.1558C79.4993 99.6058 79.1762 100.056 78.8762 100.517C77.8031 102.162 76.9031 103.938 76.2166 105.767C75.7666 106.938 75.3858 108.138 75.057 109.35L74.8147 110.262C74.7339 110.567 74.6762 110.873 74.5666 111.173L74.0185 112.996C73.7762 113.758 73.5743 113.625 73.3435 112.904C73.2281 112.54 73.1127 112.033 73.032 111.41C72.9974 111.104 72.9512 110.763 72.9627 110.412C72.9858 110.065 73.0262 109.696 73.1127 109.327C73.4012 108.006 73.7589 106.696 74.2147 105.415C74.6877 104.14 75.2358 102.894 75.882 101.694C76.5224 100.494 77.2377 99.3346 78.0339 98.2269C78.23 97.95 78.4435 97.6846 78.6454 97.4077L78.9627 96.9981C79.1243 96.825 79.2858 96.6577 79.4531 96.4961C80.1166 95.9481 80.7801 95.6019 81.4377 95.325C83.007 94.6558 84.5877 94.2 86.1858 93.7673C87.7839 93.3404 89.3935 92.9769 91.0031 92.7C94.5397 92.0769 98.0935 91.6846 101.653 91.4077C103.845 91.2346 106.038 91.1308 108.23 91.0558C111.553 90.9404 114.894 90.9808 118.194 91.0961C120.761 91.1942 123.288 91.2462 125.838 91.5635C126.397 91.6269 126.945 91.7135 127.511 91.8173C128.555 92.0077 129.224 92.2442 129.669 92.4865C130.113 92.7346 130.344 92.9596 130.494 93.2308C130.563 93.3519 130.667 93.4846 130.695 93.5885C130.788 93.9519 129.905 93.9692 128.411 93.8769C127.869 93.8019 127.315 93.7442 126.755 93.6981C126.201 93.6346 125.636 93.6058 125.076 93.5654C123.951 93.4558 122.815 93.3692 121.661 93.3058C119.359 93.1673 117.017 93.0865 114.657 93.0692C111.161 93.0462 107.63 93.1269 104.122 93.375V93.3231H104.117Z" fill="#3B2C7D"/>
<path d="M167.958 106.027C167.572 106.408 167.15 106.736 166.741 107.059C166.585 107.175 166.458 107.313 166.302 107.423C165.737 107.786 165.12 108.058 164.514 108.311C164.249 108.433 163.989 108.559 163.741 108.704C163.418 108.877 163.083 109.067 162.656 108.963C162.524 108.934 162.495 108.79 162.506 108.548C162.512 108.427 162.529 108.283 162.547 108.127C162.575 107.988 162.622 107.879 162.697 107.815C162.945 107.561 163.25 107.452 163.533 107.279C163.822 107.123 164.127 106.984 164.445 106.852C164.641 106.777 164.808 106.661 164.964 106.517L165.443 106.119C165.806 105.842 166.152 105.542 166.481 105.225C166.672 105.023 166.879 104.827 167.041 104.602C167.306 104.273 167.549 103.915 167.699 103.534C167.808 103.234 167.802 102.9 167.785 102.6C167.785 102.536 167.774 102.467 167.768 102.404C167.716 102.167 168.033 102.127 168.397 102.092L168.65 102.069C168.789 102.063 168.91 102.092 169.037 102.156C169.158 102.219 169.32 102.329 169.377 102.461C169.591 103.24 169.354 104.059 168.991 104.723C168.702 105.213 168.356 105.658 167.981 106.056L167.947 106.033L167.958 106.027Z" fill="#3B2C7D"/>
<path d="M162.489 114.75C161.422 115.494 160.338 116.187 159.264 116.879C158.872 117.133 158.514 117.433 158.122 117.675C156.732 118.535 155.336 119.371 153.98 120.254C153.38 120.646 152.809 121.09 152.278 121.546C151.574 122.129 150.911 122.712 149.993 123.069C149.682 123.156 149.665 123.092 149.659 122.74C149.659 122.573 149.624 122.279 149.682 122.025C149.728 121.765 149.815 121.483 149.97 121.24C150.103 121.015 150.259 120.831 150.426 120.652C150.593 120.467 150.755 120.283 150.934 120.121C151.303 119.804 151.684 119.51 152.07 119.221C152.843 118.639 153.657 118.137 154.516 117.698C155.538 117.162 156.455 116.412 157.424 115.771C158.486 115.067 159.553 114.381 160.591 113.66C161.226 113.215 161.861 112.765 162.461 112.281C163.366 111.554 164.266 110.792 164.947 109.904C165.466 109.217 165.807 108.41 165.847 107.717C165.847 107.567 165.847 107.417 165.83 107.285C165.83 107.158 165.83 107.054 165.824 106.967C165.824 106.881 165.853 106.806 165.893 106.731C165.98 106.581 166.124 106.454 166.343 106.292C166.441 106.217 166.534 106.131 166.632 106.067C166.793 105.958 166.972 105.94 167.18 106.039C167.382 106.137 167.659 106.35 167.739 106.719C167.918 107.256 167.913 107.839 167.838 108.387C167.734 108.923 167.561 109.437 167.33 109.887C166.868 110.798 166.245 111.542 165.605 112.212C164.641 113.198 163.58 114.017 162.53 114.808L162.495 114.767L162.489 114.75Z" fill="#3B2C7D"/>
<path d="M171.254 101.088C170.522 101.671 169.754 102.213 168.947 102.681C168.664 102.865 168.387 103.061 168.087 103.217C167.02 103.754 165.912 104.169 164.816 104.544C164.314 104.677 163.841 104.879 163.362 105.04C163.045 105.121 162.739 105.231 162.422 105.3C162.099 105.358 161.758 105.363 161.429 105.381C161.222 105.381 161.21 105.254 161.314 105.023C161.424 104.804 161.614 104.411 161.914 104.152L162.739 103.604C163.022 103.442 163.31 103.327 163.593 103.188C164.164 102.911 164.77 102.738 165.381 102.559C166.12 102.346 166.772 101.884 167.424 101.486C167.793 101.279 168.133 101.031 168.497 100.806C168.837 100.552 169.195 100.321 169.524 100.05C169.945 99.7325 170.337 99.3806 170.729 99.0229C171.301 98.4575 171.883 97.8864 172.356 97.2345C172.737 96.7383 172.974 96.1441 173.291 95.6133C173.36 95.4979 173.412 95.371 173.493 95.2556C173.793 94.846 174.035 94.8114 174.456 94.9614C174.554 94.996 174.653 95.0249 174.745 95.0652C175.045 95.2095 175.166 95.5441 175.085 95.9595C174.831 97.1768 174.07 98.1575 173.285 99.1268C172.697 99.8422 171.999 100.488 171.306 101.123L171.272 101.088H171.254Z" fill="#3B2C7D"/>
<path d="M171.041 95.4866L172.363 94.9674C172.582 94.8751 172.812 94.8116 173.02 94.6905L173.649 94.3501C174.064 94.1135 174.503 93.9174 174.907 93.652L176.095 92.827C176.239 92.7232 176.384 92.6251 176.522 92.5155L176.914 92.1578C177.174 91.9155 177.434 91.6789 177.705 91.4482C179.586 89.7866 181.253 87.8366 182.747 85.7424C183.076 85.2751 183.376 84.7847 183.676 84.3001C183.982 83.8155 184.276 83.3251 184.53 82.8174L185.038 81.8424C185.211 81.5193 185.412 81.2135 185.586 80.8905C185.949 80.2501 186.307 79.6097 186.739 78.9982C187.011 78.6174 187.126 78.7385 187.172 79.1885C187.218 79.6385 187.218 80.4347 186.953 81.2655C186.728 82.0039 186.428 82.7135 186.082 83.4001C185.764 84.0982 185.389 84.7732 185.003 85.4424C184.264 86.7982 183.359 88.0732 182.314 89.2443C181.686 89.9424 181.114 90.6982 180.445 91.3962L179.476 92.4693C179.118 92.7982 178.766 93.127 178.409 93.4559L177.814 93.9866C177.612 94.1539 177.388 94.3039 177.174 94.4655L175.882 95.4058L174.497 96.202C174.266 96.3347 174.036 96.4674 173.799 96.5943L173.066 96.9116L172.161 97.2982L171.711 97.4885L171.237 97.627C170.609 97.8059 169.986 98.0078 169.357 98.1751C167.418 98.5559 165.439 98.752 163.501 98.6885C161.984 98.7232 160.512 98.6193 159.007 98.5212C158.684 98.4693 158.361 98.4405 158.032 98.377C156.82 98.1462 156.48 97.8808 156.376 97.2635C156.353 97.1193 156.312 96.9751 156.312 96.8424C156.318 96.3866 156.889 96.127 157.749 96.1674C160.282 96.4212 162.866 96.6232 165.428 96.4905C165.901 96.4501 166.38 96.4385 166.853 96.3924L168.255 96.1501C168.486 96.1097 168.728 96.0809 168.959 96.0289L169.639 95.8328C170.095 95.7001 170.557 95.5847 171.007 95.4347L171.03 95.4809L171.041 95.4866Z" fill="#3B2C7D"/>
<path d="M149.579 89.2674C148.702 89.6135 147.819 89.7347 146.902 89.7174C145.985 89.7001 145.016 89.3943 144.243 88.852C143.683 88.4539 143.158 87.9866 142.829 87.4155C142.212 86.4174 141.941 85.3212 141.889 84.2424C141.843 83.1636 141.946 82.0674 142.489 81.0462C142.944 80.1982 143.504 79.4539 144.173 78.8078C144.6 78.3866 145.108 78.0347 145.696 77.7982C146.273 77.5674 146.977 77.4866 147.589 77.7059C147.975 77.8559 147.808 78.0232 147.496 78.202C147.341 78.277 147.15 78.4212 146.971 78.5424C146.879 78.6232 146.787 78.6866 146.694 78.7559C146.602 78.8424 146.504 78.9001 146.406 78.9693C146.221 79.0905 146.048 79.2347 145.881 79.3847C145.719 79.5578 145.558 79.7135 145.379 79.8693C145.039 80.1982 144.727 80.5789 144.456 80.9712C144.185 81.3636 143.954 81.7905 143.821 82.1712C143.706 82.5635 143.579 83.0655 143.544 83.5501C143.487 84.1386 143.568 84.7616 143.752 85.3328C143.943 85.9039 144.248 86.4232 144.606 86.8501C145.385 87.7962 146.689 88.177 148.039 87.8597C148.869 87.7328 149.614 87.3578 150.133 86.7751C150.519 86.3309 150.814 85.777 150.906 85.1539C150.993 84.8539 150.964 84.5251 150.987 84.2078C150.946 83.8905 150.941 83.5616 150.843 83.2501C150.606 82.2636 150.029 81.4097 149.377 80.7059C149.227 80.5559 149.089 80.4001 148.939 80.2559C148.385 79.7078 148.241 79.5232 148.344 79.0097C148.368 78.8943 148.373 78.7732 148.408 78.6693C148.506 78.3232 149.002 78.2597 149.677 78.6347C149.908 78.7847 150.156 78.9405 150.381 79.1136C150.594 79.2982 150.808 79.4943 151.021 79.6962C151.206 79.9155 151.379 80.1462 151.552 80.3828C151.719 80.6193 151.852 80.8847 152.002 81.1385C152.539 82.1885 152.85 83.3943 152.804 84.6693C152.758 85.6039 152.527 86.6136 151.927 87.4616C151.356 88.2982 150.514 88.9847 149.619 89.3078L149.596 89.2674H149.579Z" fill="#3B2C7D"/>
<path d="M119.352 59.0768C120.968 56.6479 122.843 54.4556 124.85 52.4191C126.864 50.3883 129.016 48.5133 131.272 46.7768C132.922 45.5191 134.583 44.2729 136.343 43.171C139.435 41.221 142.712 39.5537 146.127 38.2152C147.829 37.5287 149.589 36.9922 151.36 36.5075C153.154 36.0922 154.954 35.6998 156.806 35.5672C158.439 35.3941 160.095 35.4172 161.745 35.5383L162.979 35.6998L163.597 35.7806L164.202 35.9191L165.414 36.196L166.597 36.5941C167.606 36.9114 168.61 37.4306 169.504 38.0248C170.41 38.6306 171.247 39.3402 171.968 40.171C172.695 40.996 173.306 41.9537 173.664 43.0498C173.745 43.3268 173.843 43.5922 173.877 43.8864C173.935 44.1748 173.975 44.4575 173.97 44.7575C174.01 45.0518 173.918 45.346 173.837 45.6345C173.774 45.9229 173.652 46.1941 173.525 46.4479C173.387 46.7768 173.185 46.9614 173.087 47.0825C172.977 47.2037 172.914 47.2441 172.879 47.2152C172.799 47.1575 172.897 46.8229 172.85 46.2806C172.85 45.7268 172.452 45.0345 172.147 44.3595C172.106 44.2729 172.06 44.1864 172.014 44.0998C171.956 44.0133 171.904 43.9268 171.847 43.8345C171.795 43.7479 171.737 43.6556 171.685 43.5691C171.622 43.4825 171.558 43.3902 171.489 43.2979C171.368 43.1133 171.229 42.9287 171.074 42.7498C170.947 42.5537 170.785 42.3691 170.635 42.1672C169.527 40.7768 167.964 39.646 166.297 38.971C164.543 38.2672 162.656 37.8633 160.724 37.7191C159.754 37.621 158.774 37.6614 157.787 37.6729C156.8 37.7652 155.808 37.8172 154.822 37.9902C153.829 38.1114 152.849 38.3595 151.856 38.5556C150.881 38.821 149.889 39.046 148.92 39.3748C144.235 40.8172 139.718 43.3902 135.558 46.2229C130.983 49.3498 126.725 53.0248 123.218 57.3114C121.112 59.9595 119.197 62.8614 118.354 66.0575L118.164 66.9633C118.106 67.2633 118.106 67.5691 118.072 67.8748C118.06 68.0248 118.037 68.1806 118.037 68.3248L118.06 68.7402C118.106 69.0229 118.152 69.2998 118.245 69.5825C118.545 70.7364 119.237 71.8268 119.993 72.8364C121.545 74.8556 123.483 76.6095 125.52 78.1729C128.716 80.5902 132.206 82.4595 135.829 84.0229C136.631 84.3633 137.427 84.6633 138.241 84.9806C139.758 85.5575 140.756 85.9325 141.443 86.2441C142.129 86.5729 142.499 86.8441 142.758 87.196C142.879 87.3575 143.047 87.5306 143.104 87.6749C143.306 88.1422 141.893 88.1364 139.533 87.4268C136.043 86.3595 132.587 84.8422 129.287 82.9268C125.993 81.0056 122.797 78.7498 120.027 75.8883C119.012 74.8152 118.037 73.6672 117.247 72.3056C116.872 71.6249 116.445 70.921 116.191 70.0902C116.127 69.8825 116.07 69.6748 116.035 69.4498C115.995 69.2248 115.949 69.0114 115.943 68.7691C115.891 68.2672 115.949 67.8922 115.977 67.4825C116.116 65.8672 116.566 64.3556 117.172 62.9768C117.749 61.5691 118.504 60.2883 119.283 59.0306L119.329 59.0537L119.352 59.0768Z" fill="#3B2C7D"/>
<path d="M55.8915 132.669L57.8992 130.119C58.2453 129.704 58.6261 129.294 58.9895 128.884C59.353 128.475 59.7222 128.059 60.1145 127.684L61.2741 126.525C61.6607 126.138 62.0703 125.786 62.4684 125.411C63.2588 124.661 64.0895 123.963 64.9203 123.271C68.2491 120.496 71.7799 118.004 75.3972 115.684C78.0511 114.011 80.6991 112.327 83.4511 110.832C88.2799 108.156 93.2415 105.738 98.278 103.517C103.32 101.302 108.443 99.271 113.653 97.4767C118.274 95.8844 122.965 94.4133 127.672 93.219C130.695 92.4517 133.753 91.7479 136.857 91.2806C137.63 91.1363 138.415 91.0844 139.193 90.9979L140.365 90.8825L141.541 90.819C142.326 90.7729 143.111 90.7383 143.901 90.7498C144.686 90.7671 145.476 90.7729 146.255 90.8998C147.23 91.0613 147.645 91.1652 147.611 91.2402C147.582 91.3152 147.097 91.3844 146.284 91.5748C144.645 91.9613 141.726 92.5844 138.276 93.2479C135.201 93.744 132.138 94.3556 129.097 95.0998C126.051 95.8325 123.04 96.7209 120.028 97.6267C114.016 99.4786 108.068 101.619 102.184 104.013C95.1395 106.869 88.0895 110.504 81.3972 114.432C77.7165 116.596 74.1222 118.898 70.6838 121.413C67.2568 123.934 63.9568 126.646 61.0607 129.721L59.7684 131.175C59.3415 131.665 58.9549 132.202 58.5453 132.709L56.1165 135.802C55.3607 136.875 54.6338 137.965 53.8953 139.044C53.5318 139.586 53.1453 140.123 52.7991 140.677L51.8011 142.367C47.7338 149.181 44.5088 156.577 42.5126 164.215C40.9434 170.152 40.1357 176.14 39.8703 182.175C39.778 183.502 39.8357 184.806 39.8068 186.144C39.8011 187.384 39.8472 188.411 39.8415 189.277C39.853 190.136 39.8818 190.829 39.8645 191.406C39.8472 191.982 39.8126 192.438 39.7665 192.819C39.7088 193.2 39.6165 193.511 39.5126 193.794C39.4145 194.054 39.328 194.388 39.2299 194.544C39.0568 194.809 38.8376 194.446 38.5549 193.546C38.2434 192.646 38.0472 191.204 37.8857 189.34C37.1472 178.281 38.9934 166.477 43.1242 155.475C46.1184 147.271 50.4972 139.552 55.8453 132.64L55.8972 132.663L55.8915 132.669Z" fill="#3B2C7D"/>
<path d="M101.759 189.594L102.013 190.477L102.134 190.938L102.192 191.186L102.267 191.584C102.365 192.121 102.359 192.652 102.203 193.108C102.111 193.327 101.973 193.563 101.8 193.679C101.725 193.748 101.586 193.788 101.477 193.846L101.303 193.927L101.217 193.967L101.176 193.984L101.153 193.996H101.142V194.002C101.176 194.048 101.067 193.904 101.217 194.1C101.067 193.904 101.171 194.048 101.136 194.002H101.125H101.102L101.055 194.019L100.963 194.042L100.784 194.083L100.421 194.163C100.132 194.233 100.08 194.233 99.9246 194.267C99.665 194.325 99.4111 194.4 99.1515 194.469L97.6053 194.879L94.4957 195.64C92.4188 196.119 90.3361 196.581 88.2419 196.979C87.2727 197.181 86.2919 197.359 85.3169 197.544C84.3419 197.729 83.3669 197.913 82.3861 198.046C78.9304 198.594 75.4457 198.934 71.9611 199.223C68.4707 199.465 64.9804 199.609 61.49 199.609C59.938 199.627 58.3861 199.575 56.84 199.575C55.288 199.523 53.7419 199.471 52.2073 199.419C48.2669 199.206 44.2919 199.009 40.4265 198.121C39.2207 197.85 39.4111 197.706 40.4784 197.538C41.5515 197.348 43.4842 197.158 45.7342 197.273C49.7092 197.648 53.69 197.815 57.6823 197.908C61.6746 198.017 65.6784 197.931 69.6938 197.763C74.5054 197.55 79.4784 196.829 84.3246 195.975C85.6573 195.733 86.99 195.502 88.3169 195.219L90.3073 194.815L92.2919 194.365C93.6188 194.077 94.9284 193.742 96.2438 193.408C96.9015 193.246 97.5592 193.079 98.2111 192.894L99.1919 192.629L99.9188 192.409H99.9246L99.8784 192.346C99.9707 192.467 99.9073 192.381 99.9246 192.404H99.9304H99.9477L99.9823 192.386L100.052 192.363C100.098 192.346 100.132 192.329 100.173 192.306C100.236 192.231 100.225 192.127 100.219 192.034C100.213 191.942 100.19 191.844 100.173 191.752L100.109 191.509L100.023 191.227C99.7861 190.459 99.5034 189.681 99.2207 188.896L97.5303 184.171C95.8342 179.365 94.3746 174.421 93.4284 169.413C92.7073 165.525 92.2053 161.625 92.4419 157.644C92.4996 156.767 92.5573 155.908 92.7188 155.031C93.013 153.409 93.3419 152.359 93.6765 151.667C94.04 150.981 94.363 150.634 94.7092 150.398C94.865 150.288 95.0265 150.127 95.1361 150.075C95.3265 149.988 95.3611 150.271 95.338 150.865C95.3265 151.465 95.2169 152.348 95.015 153.456C93.9073 160.056 94.8477 167.204 96.6996 174.144C97.3861 176.729 98.1938 179.29 99.0707 181.846C99.5092 183.121 99.9707 184.396 100.438 185.677L101.142 187.604C101.361 188.256 101.58 188.913 101.788 189.583L101.742 189.606L101.759 189.594Z" fill="#3B2C7D"/>
<path d="M99.4502 149.654C97.5232 148.915 95.6656 147.744 94.2406 146.129C93.5309 145.321 92.9367 144.415 92.4809 143.44C92.0367 142.46 91.7194 141.421 91.5521 140.365C91.2406 138.248 91.4829 136.131 92.0136 134.169C92.5386 132.196 93.3117 130.35 94.2175 128.579C95.5675 125.965 97.2002 123.606 98.9598 121.344C102.087 117.392 105.577 113.769 109.292 110.406C113.014 107.048 117 103.967 121.292 101.354C123.196 100.188 125.164 99.1153 127.217 98.198C129.266 97.2807 131.389 96.5019 133.581 95.9942C134.291 95.8442 134.994 95.6769 135.721 95.6019C136.085 95.5557 136.442 95.4865 136.806 95.4634L137.908 95.4057C138.271 95.3711 138.641 95.3884 139.01 95.4057C139.379 95.423 139.748 95.4288 140.117 95.4577L141.219 95.6134C141.404 95.6423 141.589 95.6596 141.773 95.7L142.333 95.8384C143.077 96.0115 143.81 96.3173 144.514 96.7153C145.2 97.1423 145.817 97.7192 146.291 98.3942C146.521 98.7346 146.717 99.0923 146.867 99.4673L147.041 100.038C147.087 100.229 147.121 100.419 147.162 100.61C147.283 101.371 147.329 102.11 147.283 102.831C147.202 103.725 147.127 104.094 147.046 104.083C146.96 104.065 146.839 103.638 146.573 102.923C146.296 102.219 145.956 101.169 145.252 100.315C144.906 99.8942 144.571 99.4961 144.127 99.1788C144.012 99.1038 143.896 99.0288 143.781 98.948C143.654 98.8846 143.527 98.8153 143.394 98.7519C143.279 98.6711 143.123 98.6192 142.991 98.55C142.852 98.4865 142.714 98.4115 142.552 98.3596C142.275 98.2615 142.004 98.1519 141.698 98.0884L141.254 97.973L140.775 97.9038L139.812 97.7596L138.831 97.7134L138.341 97.6903L137.844 97.7134L136.852 97.7538C136.189 97.8519 135.525 97.8865 134.862 98.0307C132.208 98.5211 129.594 99.4557 127.073 100.633C122.031 103.01 117.335 106.275 112.904 109.875C110.262 112.044 107.712 114.45 105.323 117.023C102.929 119.59 100.673 122.319 98.6598 125.158C97.5579 126.721 96.5309 128.331 95.7175 130.015C94.8925 131.723 94.1771 133.483 93.7559 135.294C93.5367 136.194 93.404 137.112 93.3694 138.023C93.3348 138.935 93.3809 139.846 93.5886 140.723C93.9694 142.477 94.8636 144.121 96.1502 145.39C97.7309 146.971 99.8598 147.981 102.092 148.563C104.337 149.152 106.691 149.36 109.044 149.371C112.616 149.388 116.21 148.944 119.746 148.298C123.289 147.635 126.779 146.74 130.2 145.673C135.514 144.006 140.573 141.911 145.506 139.506C146.591 138.975 147.635 138.421 148.708 137.856C152.683 135.733 153.871 135.006 155.008 134.948C155.262 134.925 155.573 134.861 155.752 134.89C156.358 134.96 155.066 136.436 152.164 138.208C147.871 140.815 143.204 142.996 138.358 144.9C133.506 146.792 128.452 148.379 123.271 149.556C119.423 150.421 115.494 151.056 111.496 151.252C109.494 151.35 107.481 151.321 105.456 151.108C103.437 150.888 101.406 150.473 99.4444 149.723V149.677L99.4502 149.654Z" fill="#3B2C7D"/>
<path d="M93.9807 258.496C92.7691 257.244 91.4249 256.05 90.0518 254.902C89.5499 254.481 89.0076 254.112 88.4999 253.702C86.6999 252.254 84.8999 250.771 83.0307 249.427L82.7191 249.214C82.6153 249.144 82.4999 249.069 82.4653 249.052C82.4134 249.017 82.3441 249.017 82.2864 249.012C82.2057 249 82.0557 249 81.946 248.994C81.4557 248.983 80.9364 249 80.4345 249.029C79.7826 249.064 79.1249 249.093 78.4672 249.127C77.8095 249.156 77.1518 249.162 76.4826 249.052C76.0672 248.971 76.1076 248.723 76.4307 248.371C76.5922 248.193 76.8287 247.996 77.1172 247.806C77.4057 247.633 77.7518 247.506 78.1326 247.46C78.8076 247.379 79.4826 247.304 80.1634 247.252C80.8557 247.218 81.5191 247.194 82.2864 247.229C82.3672 247.241 82.5691 247.241 82.7249 247.281C82.8864 247.316 83.0422 247.35 83.1922 247.425L83.4057 247.541L83.5326 247.621L83.7634 247.771C84.0576 247.967 84.3403 248.164 84.623 248.366C85.1826 248.769 85.7249 249.185 86.2557 249.618C87.5364 250.644 88.9499 251.585 90.2711 252.617C91.7134 253.76 93.1268 254.948 94.4884 256.217C95.3249 257.002 96.1384 257.81 96.8884 258.739C97.0326 258.912 97.1653 259.096 97.298 259.292C97.4076 259.46 97.6095 259.771 97.7249 260.042C97.8518 260.319 97.9326 260.614 97.9441 260.902C97.9441 261.191 97.8749 261.496 97.6845 261.721L97.0268 262.327C96.7614 262.489 96.5884 262.604 96.3518 262.714C95.896 262.916 95.4172 263.071 94.9268 263.118C93.4037 263.291 91.9787 262.904 90.7153 262.379C90.4326 262.264 90.1614 262.154 89.8845 262.016C88.9211 261.456 88.7249 261.127 88.8114 260.556C88.8345 260.423 88.8403 260.285 88.8749 260.169C89.0018 259.771 89.5557 259.725 90.2884 259.973C90.8364 260.146 91.3557 260.354 91.8691 260.533C92.3826 260.706 92.8845 260.85 93.3634 260.948C94.3211 261.116 95.1057 261.017 95.6711 260.619C95.6999 260.602 95.6826 260.619 95.6941 260.614C95.6941 260.614 95.6941 260.614 95.6999 260.608L95.6595 260.533L95.5845 260.423C95.1634 259.812 94.5576 259.16 93.9403 258.548L93.9749 258.508L93.9807 258.496Z" fill="#3B2C7D"/>
<path d="M201.16 52.2403C203.998 56.1922 205.227 61.2864 204.235 66.0633C203.871 67.7999 203.225 69.5076 202.187 70.9845C201.264 72.2768 200.087 73.3903 198.731 74.198C197.387 75.0287 195.887 75.5364 194.381 75.8249C191.346 76.4364 188.185 75.9056 185.416 74.7056C182.964 73.5922 180.806 71.9133 179.046 69.946C178.758 69.6345 178.475 69.3172 178.233 68.971C177.985 68.6306 177.719 68.296 177.483 67.9441C177.039 67.223 176.571 66.5076 176.225 65.7345C175.504 64.1999 174.991 62.5614 174.841 60.8883C174.737 59.8499 174.789 59.9941 175.106 60.8191C175.193 61.0326 175.291 61.2749 175.394 61.5518C175.527 61.8287 175.677 62.1345 175.839 62.4633C176.133 63.1383 176.6 63.871 177.033 64.673C178.614 67.5056 180.794 69.9691 183.425 71.7633L184.441 72.3922C184.781 72.5999 185.144 72.7499 185.496 72.9345C185.675 73.021 185.848 73.1191 186.027 73.1999L186.581 73.4133C186.95 73.5403 187.308 73.7364 187.694 73.8172C189.2 74.3191 190.793 74.4691 192.373 74.4287C194.277 74.3653 196.216 73.7941 197.837 72.7614C199.464 71.7287 200.744 70.1883 201.546 68.4403C202.441 66.5133 202.793 64.321 202.677 62.1576C202.562 59.9883 201.985 57.8364 201.01 55.8806C199.793 53.4922 197.993 51.3518 195.898 49.6095C192.731 46.9614 188.802 45.1095 184.718 44.6191C181.55 44.221 178.377 44.7749 175.579 46.0556C175.268 46.1883 174.968 46.3441 174.679 46.5114C174.385 46.673 174.085 46.8287 173.796 47.0133C172.7 47.648 172.037 48.1556 171.494 48.4268C171.212 48.548 170.981 48.6345 170.773 48.6922C170.56 48.7441 170.358 48.7556 170.168 48.7499C169.989 48.7499 169.787 48.7787 169.66 48.7556C169.446 48.7153 169.493 48.4614 169.735 47.9826C169.966 47.4922 170.473 46.8403 171.287 46.2056C173.681 44.273 176.744 42.9518 179.981 42.5364C183.218 42.1095 186.575 42.548 189.662 43.6326C194.254 45.248 198.344 48.2422 201.2 52.2114L201.16 52.246V52.2403Z" fill="#3B2C7D"/>
<path d="M152.811 96.3577C153.197 97.3615 153.636 98.4115 153.97 99.5365C154.299 100.662 154.582 101.885 154.42 103.24C154.369 103.725 154.219 104.244 154.034 104.694C153.861 105.087 153.699 105.444 153.515 105.808C152.863 107.077 152.194 108.335 151.467 109.575C151.092 110.204 150.745 110.81 150.255 111.45L150.036 111.704L149.84 111.9C149.707 112.033 149.58 112.16 149.442 112.281C149.176 112.535 148.899 112.771 148.622 113.008C147.636 113.844 146.586 114.6 145.519 115.287C144.832 115.725 144.134 116.152 143.407 116.527C142.674 116.885 141.895 117.15 141.111 117.375C140.62 117.508 140.597 117.277 140.869 116.85C141.145 116.435 141.67 115.76 142.397 115.229C143.753 114.415 145.063 113.544 146.274 112.575C146.88 112.096 147.492 111.617 148.063 111.098C148.207 110.971 148.351 110.838 148.484 110.706L148.692 110.51L148.824 110.365C149.032 110.112 149.257 109.788 149.47 109.46C150.515 107.867 151.305 105.952 152.142 104.163C153.007 102.571 152.292 100.442 151.513 98.4404L150.757 96.5308C150.63 96.2019 150.515 95.8615 150.411 95.5096C150.365 95.325 150.313 95.1461 150.278 94.95C150.255 94.8577 150.238 94.725 150.226 94.5981C150.209 94.4711 150.197 94.35 150.209 94.2231C150.209 93.8481 150.301 93.4731 150.526 93.1731C150.751 92.8731 151.086 92.6884 151.438 92.5846C152.205 92.3711 152.834 92.4635 153.405 92.6538C154.553 93.0519 155.413 93.8077 156.157 94.6038C157.288 95.8558 158.217 97.2461 158.794 98.8385C158.92 99.1904 159.042 99.5365 159.122 99.9058C159.278 100.592 159.267 101.071 159.186 101.406C159.099 101.74 158.949 101.925 158.719 102.063C158.615 102.127 158.511 102.208 158.413 102.242C158.072 102.34 157.83 101.827 157.542 101.008C157.172 99.7788 156.572 98.5961 155.88 97.4884C155.176 96.4096 154.305 95.3538 153.353 94.8C153.007 94.6038 152.672 94.4827 152.401 94.4654C152.211 94.4596 152.297 94.4538 152.269 94.4538C152.269 94.4538 152.257 94.4538 152.251 94.4538C152.251 94.5115 152.182 94.2923 152.326 94.875C152.447 95.3135 152.644 95.8096 152.845 96.3058L152.799 96.3288L152.811 96.3577Z" fill="#3B2C7D"/>
<path d="M151.724 67.702C152.445 69.3577 152.652 70.927 153.114 72.1847C153.327 72.8077 153.599 73.2693 153.789 73.3443C153.887 73.402 154.066 73.4366 154.32 73.4077C154.441 73.3962 154.562 73.3443 154.683 73.3212L155.064 73.1481C155.82 72.7097 156.524 71.9135 157.21 71.0885C158.433 69.6347 159.593 68.002 160.885 66.4673C162.177 64.9327 163.608 63.4616 165.264 62.2558C166.741 61.2058 168.362 60.2827 170.116 59.7923C171.229 59.4462 172.395 59.2904 173.554 59.2212H174.425C174.714 59.2212 175.002 59.2731 175.285 59.3135C175.568 59.3597 175.856 59.3885 176.139 59.4462C176.416 59.5212 176.699 59.5904 176.964 59.7173C177.293 59.8904 177.431 59.9712 177.42 60C177.402 60.0347 177.229 60.0347 176.918 60.1443C176.295 60.3462 175.21 60.6866 174.022 60.8366C173.485 60.8539 172.966 60.9577 172.441 61.027C171.927 61.1481 171.408 61.2347 170.912 61.4077C170.41 61.5462 169.931 61.7539 169.435 61.9212C168.956 62.1289 168.477 62.3366 168.022 62.5904C166.17 63.5885 164.525 65.0135 163.008 66.6404C162.091 67.6097 161.26 68.7116 160.441 69.8539C159.61 70.9904 158.82 72.1789 157.799 73.2808C157.233 73.875 156.604 74.475 155.756 74.9077L155.439 75.0635C155.324 75.1039 155.202 75.1385 155.087 75.1789C154.856 75.2654 154.608 75.2943 154.354 75.3231C153.858 75.3923 153.229 75.3231 152.716 75.0116C152.208 74.7116 151.874 74.2847 151.625 73.8866C151.372 73.4827 151.21 73.0789 151.072 72.6866C150.795 71.8962 150.61 71.1404 150.402 70.4135C150.149 69.525 149.872 68.6654 149.439 68.0077C149.006 67.3443 148.435 67.0327 147.674 67.0327C147.097 67.0443 146.462 67.2 145.845 67.4597C145.274 67.6731 144.8 68.0366 144.391 68.5212C143.577 69.4847 143.087 70.8058 143.041 72.0866C143.018 72.5827 143.081 73.0789 143.22 73.5231C143.364 73.9731 143.589 74.4289 143.854 74.8327C144.402 75.6462 145.141 76.3039 145.983 76.7654C146.364 76.9558 146.745 77.1173 147.154 77.2385C147.91 77.475 148.429 77.5847 148.804 77.7116C149.174 77.85 149.393 78.0058 149.583 78.2654C149.67 78.3808 149.785 78.502 149.843 78.6173C149.935 78.8135 149.802 78.9923 149.45 79.1366C149.277 79.2116 149.047 79.275 148.77 79.3039C148.493 79.3443 148.164 79.35 147.795 79.3154C145.602 79.1654 143.283 77.8673 141.997 75.75C141.668 75.2193 141.408 74.6827 141.218 74.0308C141.022 73.3789 140.947 72.727 140.958 72.0923C140.958 71.4577 141.045 70.8289 141.2 70.2231C141.345 69.6173 141.564 69.0231 141.852 68.4577C142.279 67.6154 142.862 66.8077 143.687 66.1558C143.912 66.0058 144.12 65.8443 144.362 65.7173C144.604 65.5962 144.87 65.4577 145.066 65.3943C145.481 65.227 145.925 65.0885 146.399 64.9789C146.883 64.8808 147.391 64.8058 147.956 64.8462C148.51 64.8577 149.122 65.0308 149.664 65.302C150.212 65.5847 150.65 65.9943 150.997 66.4154C151.337 66.8366 151.574 67.2693 151.781 67.6962L151.735 67.725L151.724 67.702Z" fill="#3B2C7D"/>
<path d="M139.026 118.327C137.647 118.956 136.239 119.734 134.843 120.502L130.631 122.844C129.605 123.415 128.595 124.027 127.551 124.569C123.87 126.496 120.091 128.267 116.168 129.686C114.431 130.321 112.66 130.915 110.883 131.4C109.741 131.711 108.57 131.954 107.387 132.115C106.793 132.19 106.199 132.265 105.599 132.254C104.999 132.231 104.399 132.196 103.805 132.104C103.066 131.959 103.176 131.879 103.787 131.625C104.128 131.481 104.549 131.307 105.022 131.106C105.276 131.007 105.541 130.875 105.83 130.782C106.118 130.707 106.424 130.627 106.741 130.575C107.872 130.373 108.991 130.079 110.105 129.773C111.224 129.49 112.337 129.156 113.445 128.792C115.66 128.065 117.858 127.206 120.051 126.294C122.681 125.209 125.266 123.732 127.828 122.313C130.649 120.761 133.418 119.117 136.285 117.554C137.018 117.161 137.762 116.775 138.553 116.423C138.755 116.336 138.951 116.256 139.164 116.175L139.487 116.065C139.591 116.031 139.712 115.996 139.874 115.956C140.174 115.892 140.485 115.852 140.78 115.904C141.091 115.938 141.316 116.152 141.535 116.354C141.599 116.469 141.697 116.556 141.772 116.654L141.933 116.85L142.262 117.248C144.178 119.596 146.035 121.99 147.968 124.257C149.48 126.006 151.078 127.609 152.803 129.057C153.178 129.381 153.564 129.675 153.951 129.981C154.66 130.569 155.139 130.938 155.416 131.279C155.693 131.619 155.797 131.902 155.814 132.225C155.82 132.375 155.855 132.536 155.837 132.657C155.803 132.865 155.589 132.917 155.214 132.842C154.845 132.761 154.297 132.571 153.714 132.156C151.943 130.984 150.293 129.531 148.793 127.944C147.281 126.363 145.885 124.661 144.518 122.971C143.797 122.088 143.099 121.182 142.36 120.317L141.253 119.025L140.693 118.384L140.41 118.067L140.295 117.934C140.295 117.934 140.312 117.906 140.278 117.94C140.306 117.894 140.278 117.917 140.278 117.906H140.266C140.266 117.906 140.289 117.894 140.214 117.917C139.88 118.009 139.47 118.182 139.072 118.367L139.049 118.327H139.026Z" fill="#3B2C7D"/>
<path d="M85.8593 262.091C86.4074 262.085 86.9554 262.067 87.4689 261.946C87.7343 261.906 87.9766 261.814 88.2247 261.739L88.4035 261.664C88.467 261.641 88.5304 261.612 88.542 261.612L88.6285 261.589C88.6747 261.566 88.7554 261.531 88.7554 261.462C88.7554 261.398 88.7324 261.335 88.7035 261.277C88.6978 261.266 88.6862 261.248 88.6689 261.219L88.6458 261.185L88.5766 261.092C88.4843 260.971 88.3747 260.85 88.2708 260.729C88.0574 260.487 87.8208 260.244 87.5785 260.002C86.9035 259.339 86.1304 258.739 85.3862 258.104C82.7497 255.848 80.0151 253.748 77.1247 251.787C76.4843 251.354 75.8324 250.933 75.1747 250.529L74.1881 249.929L73.7035 249.646L73.6516 249.617C73.6516 249.612 73.617 249.606 73.6054 249.6C73.5593 249.589 73.4958 249.583 73.4208 249.577C73.017 249.56 72.4978 249.606 72.0131 249.641C71.5228 249.687 71.0266 249.698 70.5304 249.704C69.5381 249.721 68.5401 249.704 67.542 249.652C66.9189 249.617 66.9939 249.439 67.5016 249.167C68.0093 248.908 68.9439 248.487 70.0631 248.256C70.5593 248.169 71.0554 248.048 71.5631 247.991C72.0708 247.933 72.5612 247.869 73.1381 247.835C73.2881 247.829 73.4381 247.823 73.6343 247.835C73.8304 247.852 74.0439 247.864 74.3497 247.996C74.5458 248.089 74.5458 248.094 74.6208 248.129L74.8055 248.227L75.1516 248.412C75.6074 248.654 76.0343 248.937 76.4728 249.196C78.2093 250.275 79.8997 251.423 81.5381 252.681C82.5247 253.425 83.5285 254.181 84.5381 254.942C85.542 255.704 86.5516 256.466 87.5208 257.291C88.3112 257.971 89.0901 258.664 89.8285 259.477C90.0189 259.691 90.1631 259.858 90.4285 260.216C90.6651 260.55 90.8612 260.908 90.9651 261.266C91.0228 261.444 91.0401 261.629 91.0574 261.814C91.0574 261.906 91.0401 261.992 91.0285 262.085C91.0228 262.177 90.9997 262.269 90.9593 262.356C90.8439 262.725 90.5324 262.95 90.2324 263.175C90.0016 263.308 89.7766 263.487 89.5401 263.579L88.9747 263.816C88.5997 263.931 88.2304 264.058 87.8439 264.127C85.992 264.514 84.1574 264.26 82.467 263.804C79.8881 263.106 77.5516 261.877 75.3247 260.591C73.5939 259.581 71.9093 258.577 70.2997 257.417C69.942 257.164 69.5901 256.921 69.2439 256.65C67.9862 255.606 67.7324 255.098 67.7958 254.521C67.8131 254.389 67.8074 254.239 67.8478 254.129C67.9862 253.76 68.667 253.979 69.6535 254.591C72.5093 256.483 75.492 258.491 78.6708 260.014C79.8478 260.579 81.0478 261.075 82.2593 261.433C83.4708 261.802 84.6939 262.016 85.8651 262.01V262.067L85.8593 262.091Z" fill="#3B2C7D"/>
<path d="M199.13 243.19C199.834 243.352 200.538 243.514 201.253 243.652C201.513 243.704 201.778 243.704 202.038 243.756C202.955 243.946 203.878 244.142 204.795 244.333C205.205 244.419 205.62 244.46 206.03 244.5C206.289 244.535 206.561 244.512 206.82 244.604C207.08 244.673 207.334 244.771 207.588 244.892C207.743 244.973 207.703 245.129 207.541 245.319C207.38 245.504 207.091 245.781 206.78 245.867C206.641 245.89 206.503 245.948 206.37 245.948H205.966C205.701 245.937 205.43 245.925 205.164 245.902C204.899 245.879 204.628 245.856 204.363 245.815C204.097 245.769 203.832 245.706 203.566 245.631C202.932 245.458 202.251 245.487 201.588 245.406C200.861 245.319 200.134 245.21 199.407 245.1L198.068 244.892C197.388 244.794 196.713 244.662 196.038 244.598C195.513 244.546 194.976 244.61 194.439 244.621C194.324 244.621 194.203 244.644 194.088 244.633C193.655 244.587 193.545 244.414 193.551 243.871C193.551 243.75 193.551 243.623 193.557 243.502C193.591 243.092 193.822 242.781 194.151 242.7C195.114 242.498 196.061 242.602 197.013 242.752C197.716 242.873 198.426 243.029 199.141 243.156V243.202L199.13 243.19Z" fill="#3B2C7D"/>
<path d="M191.767 243.017C192.546 242.861 193.325 242.694 194.098 242.515C194.381 242.452 194.652 242.348 194.94 242.29C195.944 242.077 196.954 241.863 197.958 241.65C198.402 241.552 198.846 241.431 199.285 241.315C199.85 241.183 200.444 241.131 201.033 241.119C201.217 241.119 201.2 241.16 201.067 241.269C200.935 241.373 200.692 241.581 200.392 241.742C200.127 241.881 199.867 242.025 199.596 242.152L198.76 242.411C198.2 242.579 197.629 242.735 197.046 242.861C196.354 243.011 195.662 243.288 194.964 243.496C194.196 243.727 193.423 243.94 192.65 244.154L191.219 244.54C190.498 244.736 189.76 244.91 189.044 245.117C188.485 245.285 187.954 245.527 187.389 245.711C187.262 245.752 187.14 245.81 187.014 245.838C186.523 245.948 186.344 245.856 186.206 245.429C186.177 245.331 186.137 245.238 186.114 245.14C186.044 244.806 186.206 244.506 186.506 244.385C187.4 243.998 188.41 243.756 189.442 243.519C190.215 243.346 190.994 243.173 191.767 243L191.779 243.029L191.767 243.017Z" fill="#3B2C7D"/>
<path d="M198.25 243.104L207.365 240.889C207.533 240.848 207.694 240.814 207.867 240.791L239.656 236.227L207.781 246.502L198.256 243.098L198.25 243.104Z" fill="#3B2C7D"/>
<path opacity="0.45" d="M194.914 243.571L166.547 251.775L206.678 246.11L194.914 243.571Z" fill="#3B2C7D"/>
<path d="M179.044 243.196C179.367 243.583 182.569 244.725 181.651 245.527C180.567 246.473 176.332 248.1 176.332 248.1C176.332 248.1 187.986 245.123 185.517 244.5C183.047 243.877 179.049 243.196 179.049 243.196H179.044Z" fill="#3B2C7D"/>
<path d="M221.09 242.037C219.544 242.712 217.963 243.577 219.434 244.956C220.611 246.058 221.649 246.473 221.649 246.473L213.953 244.027L221.09 242.037Z" fill="#3B2C7D"/>
<path d="M255.67 253.99C255.82 254.117 255.964 254.238 256.109 254.377C256.161 254.423 256.23 254.429 256.282 254.481C256.466 254.654 256.639 254.838 256.83 254.982C256.911 255.057 257.003 255.104 257.095 255.144C257.216 255.19 257.337 255.242 257.412 255.398C257.436 255.45 257.378 255.571 257.286 255.709C257.193 255.842 257.055 256.015 256.968 256.05C256.662 256.113 256.386 256.125 256.195 255.894C256.074 255.767 255.895 255.79 255.751 255.732C255.589 255.669 255.434 255.588 255.278 255.496C255.18 255.444 255.087 255.386 254.989 255.334C254.839 255.265 254.701 255.167 254.539 255.144C254.412 255.127 254.257 255.202 254.118 255.242C254.089 255.254 254.049 255.277 254.02 255.277C253.911 255.277 253.916 255.156 254.032 254.7L254.112 254.388C254.211 254.036 254.337 253.759 254.441 253.69C254.747 253.482 254.984 253.552 255.209 253.656C255.376 253.731 255.532 253.852 255.687 253.95L255.676 253.984L255.67 253.99Z" fill="#3B2C7D"/>
<path d="M169.673 239.475L174.086 240.733C174.623 240.889 175.177 240.987 175.713 241.142C177.606 241.696 179.492 242.267 181.379 242.85C182.215 243.104 183.069 243.312 183.917 243.514C184.459 243.641 185.008 243.756 185.544 243.912C185.815 243.987 186.081 244.073 186.346 244.166C186.611 244.252 186.871 244.356 187.125 244.506C187.436 244.685 187.338 244.881 186.981 245.094C186.617 245.331 186 245.544 185.371 245.441C184.24 245.279 183.144 244.996 182.036 244.731C180.934 244.454 179.833 244.154 178.742 243.785C177.444 243.323 176.036 243.069 174.681 242.706C173.186 242.314 171.704 241.875 170.215 241.454L167.469 240.664C166.079 240.277 164.694 239.844 163.309 239.487C162.236 239.198 161.152 239.019 160.067 238.789C159.831 238.737 159.588 238.708 159.352 238.644C158.469 238.414 158.227 238.217 158.186 237.71C158.175 237.594 158.152 237.473 158.163 237.364C158.192 236.989 158.636 236.81 159.288 236.908C160.258 237.058 161.244 237.26 162.231 237.502C163.223 237.727 164.221 237.975 165.219 238.241C166.702 238.639 168.196 239.037 169.684 239.435L169.673 239.475Z" fill="#3B2C7D"/>
<path d="M214.587 243.323L221.942 241.217C222.837 240.963 223.713 240.658 224.613 240.404C227.769 239.521 230.937 238.656 234.104 237.796C235.506 237.41 236.902 236.971 238.281 236.538C239.163 236.256 240.046 235.962 240.94 235.708C241.385 235.581 241.835 235.454 242.285 235.339C242.735 235.217 243.19 235.119 243.652 235.056C244.235 234.975 244.217 235.2 243.842 235.627C243.467 236.077 242.712 236.683 241.708 237.052C239.937 237.727 238.125 238.281 236.313 238.846C234.502 239.406 232.673 239.937 230.821 240.404C228.6 240.946 226.35 241.731 224.112 242.389C221.648 243.121 219.173 243.813 216.704 244.523C215.181 244.956 213.658 245.394 212.14 245.827C210.987 246.15 209.827 246.479 208.667 246.802C208.512 246.842 208.396 246.877 208.206 246.923C208.021 246.952 207.837 247.033 207.617 246.992C207.202 246.935 206.96 246.854 206.648 246.773C206.06 246.612 205.488 246.438 204.912 246.271C203.135 245.735 201.375 245.279 199.61 244.777C199.223 244.667 198.837 244.575 198.45 244.448C197.013 243.998 196.598 243.727 196.448 243.173C196.413 243.046 196.356 242.913 196.356 242.798C196.338 242.406 197.019 242.325 198.087 242.59C199.673 242.977 201.283 243.438 202.904 243.929C203.717 244.165 204.531 244.402 205.35 244.644L206.567 244.996C206.96 245.106 207.398 245.227 207.71 245.279H207.733L207.785 245.262C207.813 245.25 207.825 245.25 207.894 245.233L208.119 245.169L209.031 244.91L210.877 244.367L214.575 243.271L214.592 243.312L214.587 243.323Z" fill="#3B2C7D"/>
<path d="M225.657 238.916C223.217 239.239 220.776 239.579 218.336 239.931C217.448 240.058 216.565 240.237 215.676 240.364L206.255 241.679C204.865 241.881 203.469 242.135 202.101 242.394C201.219 242.568 200.342 242.746 199.453 242.891C198.565 243.023 197.682 243.196 196.771 243.202C196.205 243.208 196.24 242.989 196.65 242.608C197.059 242.21 197.85 241.696 198.853 241.454C200.636 241.004 202.436 240.681 204.242 240.346C206.048 240.023 207.865 239.735 209.705 239.51C211.909 239.268 214.159 238.794 216.398 238.448C218.855 238.068 221.325 237.733 223.788 237.398C225.305 237.196 226.823 236.994 228.34 236.793C230.636 236.481 232.95 236.21 235.228 235.881C237 235.633 238.725 235.293 240.473 234.998C240.859 234.935 241.234 234.848 241.621 234.802C243.069 234.606 243.542 234.669 243.9 235.102C243.98 235.2 244.084 235.298 244.136 235.402C244.315 235.748 243.755 236.112 242.711 236.331C241.165 236.648 239.567 236.919 237.946 237.162C236.325 237.427 234.68 237.664 233.03 237.906C230.578 238.258 228.115 238.61 225.657 238.956L225.646 238.916H225.657Z" fill="#3B2C7D"/>
<path d="M180.379 249.796L187.631 248.769C188.514 248.642 189.385 248.469 190.268 248.348C193.383 247.921 196.498 247.512 199.614 247.113C200.998 246.929 202.377 246.698 203.745 246.462C204.621 246.306 205.498 246.144 206.375 246.023C206.814 245.96 207.258 245.902 207.702 245.856C208.146 245.804 208.591 245.769 209.041 245.775C209.6 245.781 209.56 246 209.145 246.369C208.735 246.762 207.939 247.252 206.941 247.471C205.17 247.881 203.381 248.169 201.593 248.475C199.798 248.769 197.998 249.035 196.181 249.242C194 249.462 191.768 249.923 189.552 250.258C187.118 250.633 184.677 250.962 182.237 251.308C180.737 251.515 179.231 251.729 177.731 251.937C175.458 252.265 173.173 252.554 170.923 252.912C169.175 253.183 167.473 253.546 165.748 253.875C165.368 253.95 164.998 254.037 164.618 254.094C163.193 254.325 162.72 254.267 162.356 253.846C162.27 253.748 162.166 253.656 162.114 253.552C161.929 253.206 162.471 252.831 163.504 252.594C165.033 252.242 166.608 251.942 168.212 251.671C169.816 251.383 171.443 251.117 173.075 250.863C175.504 250.494 177.945 250.125 180.379 249.756L180.391 249.796H180.379Z" fill="#3B2C7D"/>
<path d="M181.818 240.398L175.905 239.527C175.184 239.423 174.462 239.371 173.741 239.261L166.137 238.119C165.012 237.958 163.876 237.865 162.751 237.767C162.03 237.715 161.303 237.681 160.587 237.6C159.866 237.513 159.145 237.479 158.435 237.271C157.991 237.144 158.066 236.936 158.464 236.665C158.868 236.371 159.595 236.06 160.443 236.06C161.937 236.06 163.42 236.186 164.903 236.325C166.385 236.469 167.862 236.654 169.339 236.913C171.105 237.242 172.962 237.369 174.774 237.611C176.77 237.871 178.755 238.183 180.745 238.477L184.414 239.019C186.266 239.285 188.13 239.573 189.976 239.786C191.412 239.954 192.832 240.017 194.257 240.104C194.568 240.121 194.88 240.127 195.197 240.156C196.368 240.265 196.72 240.415 196.916 240.917C196.962 241.033 197.026 241.148 197.043 241.258C197.112 241.633 196.599 241.875 195.734 241.875C194.447 241.869 193.132 241.777 191.81 241.65C190.484 241.54 189.145 241.39 187.801 241.229C185.81 240.986 183.814 240.704 181.818 240.444V240.398Z" fill="#3B2C7D"/>
<path d="M221.635 249.542C223.573 249.819 225.517 250.085 227.462 250.339C228.171 250.431 228.887 250.471 229.59 250.564C232.088 250.898 234.587 251.233 237.085 251.533C238.192 251.648 239.317 251.74 240.419 251.781C241.129 251.804 241.844 251.827 242.554 251.879C243.263 251.931 243.973 251.942 244.683 252.121C245.121 252.231 245.063 252.439 244.683 252.727C244.302 253.033 243.592 253.373 242.762 253.408C242.023 253.442 241.29 253.437 240.558 253.408C239.825 253.39 239.092 253.35 238.36 253.298C236.894 253.2 235.435 253.05 233.969 252.831C232.227 252.537 230.392 252.456 228.604 252.242C226.637 252.017 224.675 251.735 222.713 251.464L219.09 250.956C217.262 250.708 215.433 250.419 213.61 250.206C212.196 250.039 210.8 249.969 209.392 249.871C209.081 249.848 208.775 249.842 208.463 249.808C207.31 249.687 206.963 249.519 206.773 249.012C206.733 248.896 206.681 248.781 206.669 248.671C206.64 248.296 207.113 248.065 207.967 248.088C209.231 248.117 210.517 248.215 211.815 248.342C213.119 248.458 214.435 248.602 215.756 248.764C217.712 249.012 219.679 249.26 221.64 249.508V249.554L221.635 249.542Z" fill="#3B2C7D"/>
<path d="M232.17 250.131L227.249 248.758C226.649 248.591 226.037 248.481 225.437 248.314L219.108 246.514C218.174 246.254 217.216 246.041 216.276 245.839C215.67 245.712 215.058 245.596 214.458 245.446C213.858 245.285 213.252 245.164 212.676 244.875C212.318 244.702 212.416 244.506 212.797 244.281C213.183 244.039 213.852 243.814 214.562 243.912C215.825 244.067 217.066 244.35 218.306 244.621C219.547 244.904 220.775 245.221 221.999 245.608C223.458 246.092 225.022 246.375 226.539 246.767C228.206 247.194 229.862 247.673 231.518 248.135L234.576 248.994C236.122 249.427 237.668 249.883 239.208 250.287C240.408 250.598 241.608 250.817 242.808 251.083C243.074 251.141 243.339 251.187 243.604 251.256C244.585 251.521 244.862 251.741 244.914 252.254C244.925 252.369 244.954 252.491 244.949 252.606C244.92 252.981 244.441 253.142 243.72 253.016C242.647 252.831 241.562 252.589 240.46 252.323C239.358 252.075 238.245 251.787 237.131 251.498C235.475 251.06 233.814 250.621 232.158 250.183L232.17 250.137V250.131Z" fill="#3B2C7D"/>
<path d="M208.298 230.141C206.648 230.164 204.998 230.169 203.342 230.256L200.867 230.36L198.392 230.533C197.187 230.608 195.992 230.769 194.787 230.885C190.546 231.254 186.312 231.762 182.094 232.414C180.219 232.685 178.362 233.094 176.521 233.475C175.344 233.735 174.173 234.046 172.99 234.289L171.214 234.652C170.919 234.721 170.614 234.75 170.308 234.773C170.002 234.796 169.702 234.837 169.39 234.848C168.612 234.848 168.704 234.802 169.258 234.387C169.535 234.173 169.933 233.896 170.412 233.556C170.902 233.25 171.508 232.996 172.177 232.783C174.571 232.108 177.006 231.589 179.446 231.092C181.892 230.625 184.356 230.216 186.848 229.939C189.831 229.616 192.906 229.131 195.958 228.825C197.637 228.664 199.315 228.548 200.994 228.427C202.679 228.352 204.358 228.231 206.042 228.202L209.152 228.133L212.262 228.15C213.831 228.133 215.406 228.242 216.975 228.283C218.544 228.341 220.108 228.479 221.665 228.548C222.871 228.646 224.071 228.733 225.271 228.796C226.471 228.866 227.66 229.016 228.86 229.131C229.385 229.189 229.91 229.212 230.435 229.316C232.396 229.639 232.979 229.95 233.29 230.51C233.36 230.637 233.464 230.775 233.492 230.891C233.596 231.294 232.742 231.467 231.323 231.358C227.123 230.942 222.721 230.492 218.262 230.319C216.606 230.244 214.944 230.216 213.289 230.169C211.627 230.181 209.96 230.141 208.298 230.198V230.146V230.141Z" fill="#3B2C7D"/>
<path d="M251.602 244.742C251.331 245.112 251.083 245.487 250.771 245.798C250.621 245.96 250.483 246.127 250.327 246.277L249.848 246.71C249.629 246.929 249.41 247.142 249.162 247.327C248.735 247.662 248.25 247.904 247.8 248.175C247.321 248.4 246.854 248.637 246.369 248.81C246.156 248.896 245.948 248.989 245.746 249.087L245.123 249.352C244.61 249.606 244.044 249.75 243.462 249.808C243.277 249.819 243.248 249.629 243.312 249.375C243.381 249.121 243.537 248.769 243.796 248.59L244.148 248.365C244.258 248.279 244.373 248.204 244.494 248.14L245.204 247.754C245.435 247.615 245.666 247.489 245.908 247.367C246.15 247.246 246.369 247.108 246.618 246.992C247.212 246.727 247.673 246.231 248.135 245.787C248.406 245.556 248.614 245.279 248.868 245.031C249.069 244.748 249.318 244.494 249.485 244.189C249.721 243.831 249.906 243.45 250.091 243.064C250.293 242.464 250.518 241.823 250.448 241.183C250.419 240.681 250.189 240.219 249.964 239.798C249.912 239.706 249.877 239.614 249.825 239.515C249.675 239.158 249.785 238.99 250.275 238.673C250.385 238.604 250.494 238.523 250.61 238.454C250.991 238.229 251.4 238.264 251.683 238.569C252.543 239.464 252.733 240.842 252.577 242.106C252.543 242.342 252.502 242.579 252.456 242.81L252.243 243.485C252.179 243.715 252.075 243.923 251.971 244.137C251.868 244.344 251.781 244.564 251.654 244.754L251.608 244.731L251.602 244.742Z" fill="#3B2C7D"/>
<path d="M208.178 261.427C205.12 261.658 202.051 261.733 198.982 261.784C197.862 261.813 196.743 261.848 195.63 261.848C191.689 261.796 187.749 261.606 183.832 261.248C182.095 261.098 180.341 260.977 178.622 260.809C177.514 260.694 176.407 260.596 175.299 260.463C174.197 260.296 173.089 260.146 172.01 259.881C171.353 259.586 171.457 259.534 172.08 259.286C172.703 259.044 173.805 258.859 175.074 258.952C177.318 259.096 179.562 259.234 181.807 259.379C182.926 259.477 184.051 259.54 185.176 259.609C186.301 259.69 187.432 259.777 188.562 259.84C189.243 259.875 189.924 259.915 190.61 259.95C191.297 259.967 191.995 259.967 192.687 259.967C194.078 259.979 195.48 259.933 196.864 259.909C199.916 259.881 202.968 259.736 206.02 259.569C207.895 259.442 209.776 259.321 211.645 259.131C214.483 258.865 217.328 258.531 220.126 258.086C222.295 257.723 224.401 257.227 226.518 256.742C226.985 256.633 227.441 256.523 227.908 256.413C229.657 256.044 230.251 256.102 230.73 256.529C230.839 256.627 230.978 256.719 231.047 256.823C231.295 257.169 230.643 257.642 229.38 258.052C225.612 259.188 221.528 259.938 217.414 260.509C214.357 260.925 211.264 261.242 208.178 261.484V261.433V261.427Z" fill="#3B2C7D"/>
<path d="M153.3 247.506V246.883C153.317 246.675 153.352 246.462 153.375 246.254C153.41 245.839 153.56 245.429 153.652 245.025C153.762 244.737 153.825 244.437 153.946 244.16C154.442 243.196 155.152 242.406 155.954 241.812C156.133 241.685 156.306 241.546 156.473 241.408C156.646 241.269 156.842 241.177 157.021 241.062C157.258 240.923 157.477 240.75 157.731 240.658C157.985 240.56 158.262 240.49 158.527 240.427C158.694 240.392 158.717 240.496 158.671 240.698C158.614 240.894 158.521 241.24 158.337 241.483C158.146 241.662 157.973 241.846 157.806 242.037L157.304 242.573C157.137 242.74 156.952 242.89 156.785 243.052C156.629 243.225 156.462 243.387 156.265 243.531C156.075 243.733 155.89 243.964 155.769 244.217C155.665 244.483 155.533 244.737 155.464 245.014C155.233 245.596 155.164 246.237 155.135 246.883L155.146 247.489C155.164 247.69 155.198 247.898 155.227 248.1C155.267 248.412 155.365 248.717 155.435 249.029C155.539 249.329 155.642 249.635 155.787 249.917C155.902 250.137 156.052 250.339 156.19 250.54C156.346 250.737 156.519 250.915 156.646 251.123C156.704 251.215 156.785 251.29 156.842 251.383C157.05 251.723 157.01 251.902 156.698 252.231C156.629 252.306 156.56 252.381 156.485 252.45C156.237 252.675 155.902 252.687 155.608 252.49C155.164 252.202 154.777 251.833 154.471 251.4C154.183 250.956 153.946 250.471 153.762 249.952C153.606 249.583 153.531 249.162 153.421 248.769C153.364 248.354 153.271 247.95 153.254 247.523H153.3V247.506Z" fill="#3B2C7D"/>
<path d="M250.902 231.986C251.046 231.709 251.133 231.652 251.225 231.548C251.312 231.461 251.392 231.392 251.462 231.334C251.612 231.207 251.75 231.109 251.888 231.006C251.958 230.971 251.987 230.965 252.056 230.936C252.177 230.884 252.338 230.804 252.517 230.694C252.581 230.654 252.621 230.619 252.65 230.584L252.696 230.527C252.696 230.527 252.667 230.527 252.667 230.509C252.644 230.504 252.621 230.498 252.581 230.492C252.488 230.475 252.321 230.469 252.09 230.475L251.906 230.486H251.802L251.623 230.515L250.596 230.648C249.887 230.746 249.183 230.884 248.485 231.023C247.59 231.196 246.696 231.415 245.767 231.404C245.473 231.386 245.485 231.213 245.681 230.948C245.877 230.665 246.258 230.319 246.765 230.186C247.66 229.932 248.571 229.736 249.488 229.563C249.95 229.477 250.406 229.396 250.873 229.321L251.623 229.211C252.044 229.125 252.477 229.073 252.875 229.015C254.133 228.842 255.344 228.646 256.763 228.392L256.723 228.582V228.709V228.836C256.74 228.842 256.688 228.911 256.648 228.963L256.544 229.107C256.331 229.379 256.129 229.598 255.91 229.84L255.569 230.209C255.442 230.336 255.281 230.481 255.113 230.619C254.773 230.907 254.335 231.202 253.925 231.49L253.308 231.923L252.777 232.309C252.633 232.419 252.477 232.54 252.385 232.632L252.338 232.679C252.338 232.679 252.338 232.684 252.327 232.679C252.292 232.661 252.275 232.644 252.252 232.632C252.212 232.604 252.171 232.581 252.125 232.563C252.015 232.529 251.981 232.5 251.923 232.5C251.848 232.5 251.9 232.534 251.975 232.344C252.004 232.269 251.998 232.188 252.033 232.05C252.033 232.05 252.033 232.05 252.038 232.05H251.952L253.071 231.923C254.237 231.773 255.419 231.698 256.579 231.519C257.479 231.386 258.344 231.15 259.227 230.954C259.423 230.913 259.608 230.85 259.804 230.821C260.531 230.694 260.779 230.786 260.998 231.248C261.05 231.352 261.108 231.456 261.142 231.559C261.258 231.923 260.998 232.263 260.473 232.436C258.921 232.95 257.242 233.198 255.558 233.406C254.992 233.475 254.427 233.538 253.862 233.584L252.154 233.682H252.004L251.992 233.688C251.906 233.688 251.825 233.671 251.738 233.659C251.698 233.659 251.594 233.625 251.531 233.602L251.421 233.561C251.392 233.55 251.352 233.532 251.277 233.481C251.144 233.394 251.023 233.279 250.931 233.146C250.821 232.984 250.746 232.765 250.735 232.575C250.735 232.442 250.746 232.321 250.775 232.194L250.798 232.102L250.815 232.056L250.856 231.969L250.896 231.981L250.902 231.986Z" fill="#3B2C7D"/>
<path d="M147.259 234.623C146.618 234.658 145.978 234.681 145.326 234.686L145.095 234.698L144.807 234.721C144.61 234.721 144.409 234.738 144.23 234.721C143.907 234.692 143.63 234.629 143.434 234.513C143.335 234.45 143.266 234.375 143.191 234.265C143.174 234.26 143.191 234.225 143.145 234.236L143.134 234.196C143.134 234.196 143.122 234.144 143.122 234.115C143.11 234.069 143.122 234.011 143.134 233.954C143.134 233.527 143.578 232.863 143.935 232.379C144.172 232.061 144.345 231.756 144.564 231.456C144.835 231.069 145.078 230.671 145.51 230.377C145.649 230.285 145.77 230.452 145.845 230.688C145.92 230.913 145.984 231.225 145.868 231.444C145.649 231.837 145.47 232.263 145.205 232.633L145.014 232.915C144.974 232.979 144.968 232.967 144.962 232.973L144.934 232.985C144.893 233.002 144.83 233.036 144.743 233.111C144.691 233.158 144.645 233.204 144.616 233.256C144.576 233.319 144.651 233.331 144.685 233.336C144.778 233.348 144.87 233.331 144.962 233.336C144.997 233.354 145.395 233.313 145.689 233.29L146.63 233.204C147.016 233.169 147.408 233.135 147.795 233.088C148.383 233.019 148.978 232.967 149.56 232.852C150.01 232.765 150.443 232.586 150.893 232.448C150.991 232.419 151.089 232.385 151.193 232.373C151.574 232.327 151.712 232.431 151.828 232.829C151.851 232.921 151.885 233.008 151.903 233.1C151.96 233.411 151.834 233.683 151.585 233.821C150.853 234.254 150.022 234.346 149.18 234.479C148.551 234.565 147.91 234.611 147.276 234.675V234.64L147.259 234.623Z" fill="#3B2C7D"/>
<path d="M152.456 235.725L150.368 235.956C150.241 235.967 150.114 235.99 149.987 236.008L149.797 236.037L149.497 236.06C149.237 236.083 148.995 236.065 148.729 236.117C148.504 236.042 148.268 236.019 148.06 235.921C147.876 235.742 147.847 235.517 147.818 235.263C147.806 234.998 147.864 234.698 147.922 234.421C147.956 234.277 148.002 234.138 148.043 234.006L148.152 233.7C148.297 233.308 148.435 232.921 148.602 232.54C148.816 232.062 149.064 231.513 149.635 231.219C149.826 231.133 149.912 231.381 149.97 231.652C150.028 231.929 150.108 232.223 150.004 232.413C149.808 232.76 149.647 233.186 149.497 233.619L149.387 233.948L149.335 234.11C149.318 234.167 149.295 234.225 149.295 234.213C149.26 234.236 149.208 234.288 149.156 234.381C149.122 234.444 149.087 234.525 149.104 234.588C149.151 234.611 149.214 234.577 149.278 234.565C149.301 234.6 149.37 234.565 149.41 234.565C149.474 234.554 149.468 234.565 149.624 234.531L151.643 234.202L152.901 233.971C153.535 233.844 154.187 233.746 154.816 233.596C155.306 233.475 155.779 233.261 156.27 233.106C156.379 233.071 156.483 233.019 156.593 233.008C157.008 232.95 157.158 233.071 157.285 233.538C157.314 233.642 157.349 233.752 157.372 233.856C157.441 234.213 157.303 234.536 157.037 234.692C156.241 235.148 155.387 235.269 154.493 235.448C153.818 235.558 153.137 235.667 152.462 235.777L152.451 235.736L152.456 235.725Z" fill="#3B2C7D"/>
<path d="M153.38 259.229C153.582 259.511 153.703 259.477 153.512 259.442C153.507 259.442 153.472 259.442 153.426 259.431C153.386 259.431 153.345 259.431 153.305 259.431L153.028 259.448C153.028 259.448 153.039 259.407 153.039 259.361C153.051 259.315 152.959 258.981 152.93 258.721C152.907 258.456 152.924 258.196 153.005 257.948C153.126 257.59 153.374 257.296 153.686 257.059C153.836 256.973 153.957 256.846 154.13 256.8C154.309 256.725 154.436 256.673 154.568 256.644C154.834 256.575 155.093 256.552 155.341 256.546C155.843 256.546 156.305 256.656 156.726 256.8C157.101 256.927 157.47 257.054 157.816 257.221C158.261 257.423 158.734 257.659 158.987 258.132C159.068 258.282 158.797 258.484 158.48 258.652C158.162 258.807 157.811 258.969 157.643 258.877C157.009 258.559 156.345 258.306 155.705 258.132C155.509 258.081 155.318 258.115 155.157 258.179C155.116 258.184 155.07 258.231 155.053 258.231C155.041 258.231 155.018 258.236 155.001 258.254L154.886 258.329C154.782 258.381 154.736 258.496 154.747 258.611V258.704L154.805 258.963C154.839 259.154 154.886 259.431 154.782 259.777C154.661 260.221 154.239 260.504 154.043 260.573C153.818 260.682 153.587 260.757 153.357 260.804C152.653 260.954 151.989 260.832 151.372 260.723C150.887 260.636 150.386 260.596 149.895 260.452C149.786 260.417 149.67 260.4 149.566 260.354C149.18 260.175 149.151 259.961 149.416 259.477C149.474 259.367 149.532 259.252 149.601 259.148C149.832 258.802 150.155 258.594 150.391 258.606C151.101 258.646 151.684 258.859 152.243 258.94C152.445 258.969 152.641 258.981 152.803 258.969C152.884 258.963 152.964 258.957 153.028 258.94C153.062 258.934 153.097 258.929 153.126 258.917L153.172 258.9H153.195L153.391 259.223L153.38 259.229Z" fill="#3B2C7D"/>
<path d="M251.618 254.74C252.086 254.279 252.645 253.858 253.199 253.471C253.568 253.235 253.886 253.056 254.243 252.86C254.503 252.727 254.739 252.548 255.022 252.433C255.518 252.242 256.061 252.052 256.712 252.035C257.336 252.017 257.918 252.156 258.414 252.375C258.853 252.589 259.257 252.802 259.643 253.027C259.886 253.177 260.134 253.31 260.353 253.483C260.566 253.656 260.751 253.858 260.912 254.077C261.005 254.215 260.849 254.435 260.566 254.608C260.284 254.775 259.851 254.919 259.562 254.821C259.066 254.631 258.634 254.423 258.218 254.285C257.803 254.169 257.486 253.962 257.128 253.852C256.712 253.685 256.216 253.996 255.668 254.262C255.368 254.412 255.068 254.573 254.768 254.746L254.543 254.879C254.468 254.919 254.382 254.983 254.364 254.989C254.295 255.023 254.22 255.064 254.145 255.11C253.961 255.225 253.736 255.364 253.545 255.548C253.522 255.577 253.453 255.629 253.487 255.664C253.516 255.687 253.551 255.71 253.586 255.727C253.655 255.767 253.73 255.808 253.811 255.848C253.972 255.929 254.145 256.004 254.341 256.067L254.462 256.102C254.497 256.108 254.549 256.119 254.618 256.142L255.011 256.235C255.276 256.292 255.541 256.344 255.807 256.414C255.922 256.442 256.043 256.46 256.159 256.5C256.586 256.656 256.672 256.864 256.505 257.371C256.47 257.481 256.447 257.59 256.407 257.683C256.28 257.983 255.945 258.283 255.639 258.254C254.601 258.156 254.186 258.081 251.964 257.187L251.584 256.921C251.48 256.829 251.411 256.737 251.318 256.639C251.255 256.552 251.139 256.471 251.111 256.379C251.07 256.287 251.047 256.206 251.03 256.102V256.09C250.972 256.102 251.111 256.073 251.099 256.079V256.044V255.998L251.087 255.917L251.076 255.762C251.064 255.658 251.064 255.548 251.099 255.439C251.18 255.214 251.336 254.965 251.561 254.729L251.618 254.74Z" fill="#3B2C7D"/>
<path d="M190.47 245.827C188.042 246.433 185.607 247.05 183.184 247.69C182.295 247.921 181.43 248.21 180.542 248.435C177.42 249.248 174.305 250.061 171.195 250.91C169.822 251.296 168.449 251.735 167.111 252.19C165.386 252.773 163.684 253.431 161.901 253.84C161.336 253.944 161.33 253.725 161.676 253.281C162.017 252.819 162.726 252.156 163.713 251.758C165.444 251.025 167.226 250.436 169.009 249.86C170.797 249.288 172.597 248.769 174.426 248.319C176.624 247.806 178.846 247.061 181.067 246.456C183.507 245.781 185.965 245.169 188.422 244.546C189.934 244.171 191.451 243.79 192.963 243.415L194.688 242.994L195.559 242.792C195.83 242.729 196.269 242.631 196.586 242.683C197.803 242.792 198.957 242.96 200.128 243.115C201.94 243.369 203.728 243.56 205.522 243.865C205.92 243.935 206.307 243.986 206.705 244.079C208.176 244.408 208.615 244.69 208.776 245.233C208.811 245.354 208.869 245.486 208.874 245.602C208.886 246 208.24 246.081 207.196 245.902C204.097 245.371 200.769 244.858 197.451 244.494C197.145 244.46 196.834 244.431 196.557 244.413L196.361 244.402C196.361 244.402 196.338 244.402 196.326 244.402C196.326 244.402 196.326 244.413 196.315 244.39L196.257 243.675C196.257 243.675 196.217 243.144 196.24 243.433V243.531L196.257 243.727L196.28 244.119L196.292 244.315V244.408L196.274 244.413C196.176 244.442 196.153 244.442 195.974 244.488L194.157 244.938L190.488 245.885L190.47 245.844V245.827Z" fill="#3B2C7D"/>
<path d="M149.646 85.4655C149.9 84.8771 150.033 84.2482 149.94 83.5963C149.894 83.3597 149.819 83.1347 149.738 82.8982C149.617 82.4771 149.444 82.0501 149.208 81.6347C149.006 81.2021 148.735 80.7924 148.44 80.3886C148.175 80.0367 147.863 79.7136 147.54 79.4078C147.333 79.2059 147.108 79.0328 146.912 78.8136C146.727 78.5886 146.56 78.3347 146.421 78.0578C146.335 77.8847 146.415 77.8328 146.64 77.8155C146.86 77.804 147.281 77.7578 147.598 77.9021C147.667 77.9367 147.742 77.9655 147.806 78.0001L147.985 78.1386L148.337 78.4213C148.567 78.6174 148.804 78.8136 149.023 79.0328C149.467 79.4597 149.877 79.9501 150.217 80.504C150.61 81.1674 151.071 81.8597 151.319 82.6559C151.585 83.5328 151.631 84.5021 151.4 85.3847C151.337 85.6559 151.233 85.9155 151.146 86.1751C151.054 86.4347 150.91 86.6655 150.8 86.9078C150.431 87.6636 149.779 88.2867 149.063 88.7251C148.51 89.0655 147.892 89.3713 147.194 89.4405C147.044 89.4521 146.888 89.4809 146.733 89.4636C146.156 89.4059 146.006 89.204 146.035 88.7944C146.04 88.6963 146.046 88.604 146.063 88.5117C146.138 88.2001 146.387 88.027 146.658 87.9694C147.067 87.9001 147.419 87.7444 147.748 87.5944C148.077 87.4386 148.383 87.2309 148.654 86.977C148.85 86.7867 149.023 86.5674 149.167 86.3251C149.248 86.1982 149.317 86.0367 149.398 85.8982C149.485 85.754 149.548 85.604 149.588 85.454L149.629 85.4655H149.646Z" fill="#3B2C7D"/>
<path d="M60.596 154.004C60.596 158.469 53.2633 156.709 55.4325 152.659C56.7479 150.207 60.596 151.211 60.596 154.004Z" fill="#3B2C7D"/>
<path opacity="0.45" d="M57.8069 185.475C57.8069 189.94 50.4742 188.181 52.6435 184.131C53.9588 181.679 57.8069 182.682 57.8069 185.475Z" fill="#3B2C7D"/>
<path d="M115.69 140.959C115.69 145.425 108.357 143.088 110.526 139.038C111.842 136.586 115.69 138.167 115.69 140.959Z" fill="#3B2C7D"/>
<path d="M90.7145 118.281C90.7145 121.673 85.1356 120.34 86.7856 117.26C87.7837 115.396 90.7145 116.158 90.7145 118.281Z" fill="#3B2C7D"/>
<path opacity="0.45" d="M98.3434 99.0517C98.3434 102.444 92.7645 101.111 94.4145 98.0306C95.4126 96.1671 98.3434 96.9287 98.3434 99.0517Z" fill="#3B2C7D"/>
<path opacity="0.45" d="M83.609 143.417C83.609 146.81 78.0302 145.477 79.6802 142.396C80.6782 140.533 83.609 141.294 83.609 143.417Z" fill="#3B2C7D"/>
<path opacity="0.45" d="M140.562 136.35C140.562 139.742 134.983 138.41 136.633 135.329C137.631 133.465 140.562 134.227 140.562 136.35Z" fill="#3B2C7D"/>
<path d="M131.422 110.792C131.422 114.185 125.843 112.852 127.493 109.771C128.491 107.908 131.422 108.669 131.422 110.792Z" fill="#3B2C7D"/>
<path d="M81.5348 173.457C81.5348 176.85 75.9559 175.517 77.6059 172.436C78.604 170.573 81.5348 171.334 81.5348 173.457Z" fill="#3B2C7D"/>
<path d="M231.163 209.827C231.059 209.717 231.18 209.562 231.423 209.389C231.498 209.331 231.757 209.267 231.809 209.291C231.907 209.342 232.005 209.394 232.08 209.446C232.121 209.481 232.548 210.127 232.727 210.335C232.888 210.537 233.021 210.75 233.107 210.975C233.292 211.431 233.5 211.881 233.702 212.331C233.748 212.429 233.771 212.539 233.782 212.648C233.811 213.035 233.95 213.381 234.14 213.71C234.169 213.762 234.186 213.825 234.273 213.86C234.411 213.912 234.855 214.823 234.861 214.962C234.873 215.308 234.948 215.631 234.965 215.983C234.965 216.035 235.017 216.069 234.948 216.139C234.798 216.312 234.873 216.392 234.896 216.491C234.93 216.629 234.959 216.773 234.953 216.929C234.953 217.004 234.873 217.119 234.815 217.217C234.763 217.31 234.475 217.402 234.434 217.396C234.319 217.379 234.209 217.483 234.1 217.541C234.059 217.558 234.013 217.587 233.978 217.598C233.903 217.627 233.078 217.085 233.05 216.992C233.05 216.992 233.003 216.917 232.94 216.814C232.877 216.71 232.796 216.571 232.721 216.427C232.565 216.139 232.409 215.833 232.369 215.775C232.328 215.712 232.346 215.625 232.346 215.55C232.346 215.516 231.884 214.644 231.878 214.604C231.832 214.402 231.711 214.235 231.798 213.987C231.815 213.941 231.798 213.9 231.78 213.866C231.653 213.542 231.607 213.185 231.544 212.844C231.509 212.666 231.44 212.504 231.394 212.331C231.388 212.302 231.394 212.262 231.394 212.227C231.394 212.187 231.405 212.141 231.394 212.1C231.261 211.702 231.221 211.275 231.094 210.877C231.065 210.785 231.117 210.289 231.077 210.185C231.053 210.127 231.209 209.867 231.163 209.827Z" fill="#3B2C7D"/>
<path d="M241.6 216.877C241.657 217.05 241.403 217.119 241 217.16C240.873 217.171 240.509 217.09 240.463 217.033C240.376 216.917 240.29 216.802 240.226 216.692C240.198 216.629 240.076 215.625 240.059 215.267C240.036 214.927 240.105 214.61 240.192 214.298C240.382 213.675 240.613 213.058 240.89 212.464C240.953 212.331 241.034 212.21 241.144 212.106C241.519 211.742 241.767 211.321 241.992 210.877C242.032 210.802 242.09 210.739 242.061 210.623C241.998 210.421 242.794 209.314 242.961 209.221C243.365 208.99 243.717 208.725 244.115 208.512C244.173 208.483 244.196 208.414 244.311 208.448C244.576 208.529 244.646 208.414 244.75 208.339C244.9 208.235 245.067 208.148 245.251 208.085C245.344 208.056 245.5 208.096 245.632 208.119C245.753 208.142 245.95 208.425 245.955 208.471C245.973 208.604 246.123 208.685 246.221 208.789C246.255 208.823 246.296 208.869 246.319 208.898C246.342 208.933 246.29 209.227 246.226 209.515C246.169 209.81 246.117 210.11 246.082 210.144C246.076 210.179 245.321 211.246 245.28 211.396C245.251 211.471 245.159 211.494 245.084 211.535C245.032 211.546 244.582 212.492 244.565 212.527C244.415 212.683 244.38 212.914 244.092 212.983C244.034 213 244.023 213.04 244 213.081C243.838 213.415 243.584 213.698 243.371 214.01C243.255 214.165 243.209 214.356 243.123 214.523C243.105 214.552 243.065 214.575 243.036 214.598C243.001 214.633 242.961 214.662 242.944 214.702C242.794 215.129 242.476 215.498 242.401 215.954C242.39 216.058 241.951 216.456 241.94 216.583C241.923 216.646 241.565 216.79 241.594 216.865L241.6 216.877Z" fill="#3B2C7D"/>
<path d="M167.007 72.7558C166.857 73.8981 167.065 75.127 167.353 76.2289C167.659 77.4 168.155 78.7212 169.084 79.552C170.013 80.3827 171.398 80.5731 172.465 79.8289C173.457 79.1366 173.982 77.977 174.317 76.852C174.623 75.8366 174.761 74.7808 174.888 73.7308C174.951 73.2289 174.415 72.7962 173.953 72.7962C173.394 72.7962 173.076 73.2289 173.019 73.7308C173.001 73.8693 172.984 74.002 172.967 74.1404C172.967 74.1693 172.961 74.1981 172.955 74.2327C172.932 74.4173 172.99 73.9847 172.961 74.175C172.944 74.2789 172.932 74.3827 172.915 74.4923C172.846 74.9308 172.765 75.3693 172.661 75.802C172.603 76.0327 172.54 76.2577 172.471 76.4885C172.436 76.5981 172.401 76.702 172.361 76.8116C172.338 76.875 172.315 76.9385 172.292 77.002C172.269 77.0539 172.188 77.25 172.286 77.025C172.194 77.2327 172.096 77.4404 171.98 77.6366C171.923 77.7347 171.853 77.827 171.796 77.925C171.767 77.977 171.686 78.0404 171.83 77.8789C171.778 77.9366 171.726 78 171.674 78.0577C171.605 78.127 171.536 78.1904 171.467 78.2539C171.334 78.3866 171.605 78.1789 171.501 78.225C171.461 78.2423 171.421 78.277 171.386 78.3C171.34 78.3289 171.288 78.352 171.242 78.3808C171.167 78.427 171.144 78.3693 171.311 78.352C171.213 78.3635 171.08 78.4616 170.982 78.4385L171.115 78.4212C171.074 78.4212 171.034 78.427 170.994 78.427C170.942 78.427 170.89 78.427 170.838 78.427C170.648 78.427 170.849 78.4616 170.884 78.4385C170.861 78.45 170.751 78.4097 170.728 78.4039C170.728 78.4039 170.63 78.3808 170.624 78.3693C170.653 78.427 170.815 78.4673 170.648 78.3693C170.578 78.3289 170.301 78.1097 170.509 78.2943C170.353 78.1558 170.215 78.0116 170.082 77.8558C170.249 78.0577 170.013 77.752 169.978 77.6943C169.903 77.5731 169.834 77.452 169.765 77.3308C169.696 77.2097 169.644 77.0885 169.586 76.9674C169.563 76.9212 169.546 76.875 169.523 76.8289C169.615 77.0423 169.517 76.8058 169.499 76.7712C169.396 76.5058 169.309 76.2347 169.228 75.9577C169.142 75.6577 169.067 75.352 169.009 75.0404C168.98 74.8904 168.951 74.7404 168.928 74.5847C168.923 74.5443 168.888 74.2904 168.923 74.5385C168.911 74.4635 168.905 74.3943 168.899 74.3193C168.842 73.8 168.824 73.2693 168.888 72.75C168.951 72.2308 168.409 71.8154 167.953 71.8154C167.394 71.8154 167.082 72.2481 167.019 72.75L167.007 72.7558Z" fill="#3B2C7D"/>
<path d="M176.182 66.1501C175.68 65.2501 174.982 64.3732 174.001 63.9809C173.262 63.6866 172.426 63.8309 171.67 63.9866C170.112 64.3155 168.428 64.9155 167.193 65.9424C166.772 66.2943 166.83 67.0097 167.193 67.3674C167.608 67.7828 168.203 67.7193 168.618 67.3674C168.791 67.2232 168.428 67.4886 168.635 67.3559C168.687 67.3213 168.739 67.2809 168.791 67.2463C168.918 67.1655 169.051 67.0847 169.183 67.0097C169.46 66.8597 169.743 66.7213 170.032 66.6001C169.864 66.6693 170.158 66.5482 170.164 66.5482C170.245 66.5193 170.32 66.4847 170.401 66.4559C170.574 66.3924 170.753 66.329 170.932 66.2713C171.26 66.1616 171.595 66.0693 171.935 65.9828C172.085 65.9482 172.235 65.9136 172.385 65.8847C172.455 65.8732 172.53 65.8616 172.599 65.8443C172.87 65.7924 172.391 65.8559 172.651 65.8386C172.772 65.827 172.893 65.8155 173.014 65.8155C173.078 65.8155 173.141 65.8155 173.205 65.8155C173.349 65.827 173.107 65.7751 173.233 65.827C173.285 65.8501 173.43 65.9193 173.314 65.8559C173.407 65.9078 173.493 65.9597 173.58 66.0232C173.499 65.9597 173.603 66.052 173.626 66.0693C173.707 66.1501 173.782 66.2193 173.862 66.3059C174.058 66.5251 174.26 66.8251 174.445 67.154C174.71 67.6328 175.362 67.7886 175.824 67.5174C176.285 67.2463 176.453 66.6174 176.187 66.1386L176.182 66.1501Z" fill="#3B2C7D"/>
<path d="M169.535 92.0941C167.718 92.7345 166.119 91.4595 165.456 89.3307C165.323 88.898 165.312 86.2384 166.223 86.1922C166.927 86.1576 167.262 88.9268 168.323 89.4461C169.385 89.9653 171.837 90.3057 171.15 91.1018C170.712 91.6153 169.991 91.9326 169.535 92.0941Z" fill="#3B2C7D"/>
<path d="M219.761 69.0117C219.628 69.104 219.524 68.8848 219.438 68.5155C219.409 68.3944 219.421 68.0425 219.461 67.9905C219.536 67.8925 219.611 67.7944 219.692 67.7194C219.738 67.679 220.465 67.4482 220.719 67.3328C220.961 67.2175 221.198 67.1944 221.44 67.1944L222.899 67.1367C223.009 67.1367 223.113 67.154 223.223 67.1944C223.586 67.3444 223.955 67.3502 224.324 67.304C224.388 67.2982 224.451 67.3098 224.515 67.229C224.619 67.0963 225.623 67.079 225.749 67.1425C226.061 67.2982 226.378 67.4021 226.696 67.5348C226.742 67.5521 226.794 67.5232 226.828 67.6213C226.909 67.8636 227.013 67.8232 227.111 67.8405C227.249 67.8636 227.382 67.9155 227.515 68.0078C227.578 68.054 227.636 68.1925 227.699 68.3078C227.751 68.4117 227.699 68.7636 227.671 68.7982C227.601 68.9078 227.642 69.0752 227.636 69.2252C227.636 69.2771 227.636 69.3405 227.624 69.3809C227.619 69.4271 227.405 69.6002 227.186 69.7675C226.967 69.929 226.742 70.0559 226.701 70.0502C226.69 70.0502 226.401 70.0732 226.09 70.0963C225.784 70.1194 225.461 70.1482 225.398 70.1655C225.328 70.1828 225.265 70.1194 225.196 70.0848C225.167 70.0675 224.244 70.1713 224.209 70.1598C224.024 70.1194 223.828 70.1771 223.649 69.9694C223.615 69.929 223.574 69.9348 223.54 69.9348C223.211 69.9348 222.894 69.8309 222.571 69.7559C222.403 69.7155 222.236 69.7271 222.074 69.7098C222.046 69.7098 222.017 69.6752 221.988 69.6636C221.953 69.6463 221.913 69.6175 221.878 69.6175C221.486 69.5944 221.094 69.4963 220.696 69.4963C220.603 69.4963 220.176 69.2367 220.073 69.2482C220.015 69.2482 219.83 68.9655 219.778 69.0002L219.761 69.0117Z" fill="#3B2C7D"/>
<path d="M214.396 73.3557C214.217 73.3037 214.315 73.0614 214.569 72.7095C214.65 72.5999 214.961 72.3518 215.036 72.3461C215.181 72.3403 215.319 72.3287 215.44 72.3461C215.515 72.3518 216.248 72.8076 216.502 72.9518C216.75 73.0903 216.952 73.2691 217.142 73.4595C217.529 73.8461 217.932 74.2095 218.331 74.5787C218.417 74.6595 218.486 74.7576 218.544 74.873C218.729 75.2653 219.023 75.5595 219.363 75.8076C219.421 75.848 219.461 75.9057 219.571 75.8941C219.744 75.8768 220.592 76.6037 220.656 76.748C220.817 77.0941 221.007 77.423 221.175 77.7807C221.198 77.8326 221.261 77.8441 221.227 77.9537C221.146 78.2076 221.256 78.2537 221.325 78.3461C221.423 78.473 221.509 78.6057 221.573 78.773C221.602 78.8537 221.573 79.0095 221.556 79.1364C221.544 79.2576 221.284 79.4941 221.238 79.5057C221.111 79.5403 221.042 79.7076 220.956 79.8172C220.927 79.8576 220.886 79.9037 220.857 79.9326C220.794 79.9961 219.681 79.8518 219.606 79.7826C219.594 79.7768 219.3 79.5864 218.988 79.3845C218.688 79.1711 218.388 78.9345 218.319 78.8941C218.244 78.8537 218.227 78.7557 218.198 78.6691C218.181 78.6345 217.298 77.9711 217.275 77.9307C217.142 77.7461 216.929 77.6364 216.923 77.3249C216.923 77.2672 216.882 77.2384 216.848 77.2095C216.565 76.9384 216.363 76.598 216.15 76.2691C216.04 76.1018 215.89 75.9691 215.763 75.8134C215.74 75.7845 215.74 75.7384 215.723 75.7037C215.706 75.6576 215.694 75.6057 215.665 75.5711C215.348 75.2249 215.129 74.798 214.777 74.4864C214.696 74.4114 214.534 73.8807 214.442 73.7941C214.39 73.748 214.482 73.373 214.413 73.3557H214.396Z" fill="#3B2C7D"/>
<path d="M216.237 55.1192C216.26 55.2692 216.029 55.2289 215.654 55.0846C215.533 55.0385 215.221 54.8308 215.193 54.7731C215.141 54.6577 215.089 54.5481 215.06 54.45C215.043 54.3923 215.204 53.7115 215.25 53.4635C215.285 53.2212 215.389 53.025 215.521 52.8462C215.781 52.4827 216.029 52.1077 216.3 51.7558C216.358 51.675 216.439 51.6115 216.531 51.5654C216.854 51.3981 217.079 51.1442 217.275 50.8673C217.31 50.8212 217.356 50.7866 217.339 50.6942C217.304 50.5442 217.939 49.8635 218.066 49.8231C218.371 49.7135 218.648 49.5692 218.937 49.4539C218.977 49.4365 218.989 49.3846 219.081 49.425C219.283 49.5173 219.329 49.4308 219.404 49.3846C219.508 49.3154 219.623 49.2577 219.762 49.2289C219.831 49.2173 219.952 49.2635 220.062 49.2981C220.16 49.3269 220.339 49.5923 220.35 49.6269C220.373 49.7365 220.506 49.8231 220.593 49.9212C220.621 49.9558 220.662 49.9962 220.685 50.025C220.731 50.0942 220.575 50.9365 220.523 50.9769C220.523 50.9769 220.477 51.0289 220.42 51.1039C220.362 51.1789 220.281 51.2769 220.2 51.3808C220.045 51.5885 219.883 51.8077 219.86 51.8596C219.831 51.9115 219.756 51.9173 219.698 51.9404C219.664 51.9462 219.248 52.6096 219.225 52.6327C219.098 52.7308 219.046 52.8981 218.81 52.8981C218.764 52.8981 218.746 52.9269 218.729 52.9558C218.568 53.1808 218.337 53.3365 218.123 53.5212C218.014 53.6135 217.944 53.7404 217.852 53.8442C217.835 53.8616 217.8 53.8673 217.771 53.8789C217.743 53.8962 217.702 53.9077 217.685 53.9308C217.489 54.2019 217.223 54.4212 217.056 54.7154C217.016 54.7789 216.618 54.9519 216.589 55.0385C216.566 55.0846 216.243 55.0616 216.254 55.125L216.237 55.1192Z" fill="#3B2C7D"/>
</svg>
