<svg width="300" height="300" viewBox="0 0 300 300" fill="none" xmlns="http://www.w3.org/2000/svg">
<path d="M74.1241 249.496C74.1241 249.496 69.2606 250.904 69.1106 253.61C68.9376 256.725 86.4587 276.577 86.4587 276.577L74.7356 255.075L74.1241 249.496Z" fill="#3B2C7D"/>
<path d="M43.3214 264.3C42.9752 264.115 35.6137 265.038 37.3618 267.035C39.1099 269.031 51.7445 268.777 51.7445 268.777L43.3214 264.3Z" fill="#3B2C7D"/>
<path opacity="0.2" d="M188.072 80.1174C188.072 80.1174 202.016 50.3135 202.016 48.3289C202.016 44.9943 193.287 40.7424 193.287 40.7424L167.227 31.3154L151.148 66.3577L174.035 51.7731L176.914 68.3077L186.56 64.5058L188.072 80.1174Z" fill="#3B2C7D"/>
<path d="M142.303 71.9769C143.318 72.4904 144.472 72.9519 145.591 73.4077L149.001 74.7461L155.86 77.3942C157.528 78.0404 159.212 78.6519 160.874 79.3154C166.73 81.6519 172.551 84.1096 178.268 86.775C180.806 87.9577 183.345 89.175 185.826 90.4442C187.412 91.2692 189.01 92.0769 190.545 93.0058C191.306 93.4788 192.068 93.9519 192.801 94.4711C193.533 94.9904 194.249 95.5269 194.958 96.075C195.835 96.7673 195.697 96.6981 194.849 96.2711C194.422 96.0634 193.816 95.775 193.066 95.4577C192.316 95.1461 191.451 94.7654 190.545 94.2923C184.193 90.8481 177.628 87.7904 170.935 84.8192C166.931 83.0423 162.662 81.4385 158.48 79.8346C153.881 78.0635 149.249 76.3673 144.639 74.5615C143.958 74.2904 143.283 74.0192 142.603 73.7192C142.262 73.5692 141.928 73.4192 141.581 73.2404C141.356 73.125 141.103 72.975 140.901 72.8134C140.808 72.7211 140.716 72.6346 140.676 72.5135C140.664 72.4846 140.653 72.4558 140.641 72.4211V72.3981C140.589 72.4038 140.618 72.3865 140.612 72.3808V72.3346V72.1558L140.705 71.7231C140.733 71.5904 140.797 71.4115 140.814 71.3365L140.993 70.7596L141.356 69.6231L142.101 67.3673C143.566 63 145.101 58.6385 146.67 54.3404C147.887 51 149.047 47.7115 150.368 44.4461C150.662 43.725 150.956 43.0269 151.251 42.3C152.451 39.6519 153.039 38.8904 153.639 38.5096C153.778 38.4231 153.939 38.2961 154.049 38.2673C154.435 38.1634 154.072 39.3 153.27 41.2327C150.858 46.9673 148.574 53.1577 146.341 59.3885C145.591 61.5288 144.83 63.6692 144.114 65.8269L143.064 69.0692L142.556 70.6904L142.314 71.4981L142.216 71.8269L142.205 71.85C142.205 71.85 142.205 71.8673 142.216 71.8731H142.228C142.228 71.8731 142.199 71.8731 142.314 71.925L142.303 71.9596V71.9769Z" fill="#3B2C7D"/>
<path d="M184.654 56.931C186.582 56.931 188.145 55.3683 188.145 53.4406C188.145 51.5129 186.582 49.9502 184.654 49.9502C182.727 49.9502 181.164 51.5129 181.164 53.4406C181.164 55.3683 182.727 56.931 184.654 56.931Z" fill="#3B2C7D"/>
<path d="M152.84 68.2905L174.561 55.2231L177.924 77.4924L152.84 68.2905Z" fill="#3B2C7D"/>
<path d="M176.914 72.5538L186.56 68.3076L188.072 80.1172L186.872 81.2538L177.924 77.4922L176.914 72.5538Z" fill="#3B2C7D"/>
<path d="M89.3949 273.45C89.4873 273.842 89.6026 274.229 89.7296 274.575C89.793 274.742 89.8623 274.915 89.9315 275.013C90.0007 275.123 90.0065 275.14 90.1276 275.221C90.3469 275.365 90.7276 275.487 91.1026 275.573C91.4834 275.665 91.8873 275.729 92.2969 275.775C92.8969 275.844 93.5084 275.85 94.1257 275.879C96.2949 275.977 98.5046 275.919 100.697 275.763C101.672 275.694 102.653 275.59 103.61 275.458C104.228 275.365 104.845 275.273 105.462 275.181C106.085 275.117 106.714 275.117 107.355 275.163C107.753 275.181 107.706 275.221 107.406 275.412C107.256 275.51 107.043 275.665 106.789 275.862C106.53 276.04 106.218 276.202 105.866 276.329C103.339 276.86 100.766 277.165 98.1526 277.142C96.595 277.137 94.9738 277.258 93.3642 277.177C92.4757 277.125 91.5873 277.05 90.6815 276.837C90.2257 276.715 89.7642 276.6 89.2796 276.265C89.0199 276.087 88.8353 275.815 88.7084 275.596C88.593 275.371 88.4949 275.146 88.4142 274.927C88.0449 273.842 87.8776 272.775 87.7161 271.702C87.4796 270.081 87.3642 268.448 87.243 266.838C87.1449 265.587 87.0526 264.358 87.0469 263.106C87.0469 262.829 87.0584 262.563 87.0815 262.281C87.1853 261.254 87.318 260.925 87.5488 260.735C87.6007 260.688 87.6526 260.631 87.7046 260.608C87.8661 260.533 87.9353 260.954 87.9988 261.687C88.2411 263.862 88.4199 266.14 88.6449 268.431C88.8296 270.121 89.0315 271.835 89.4296 273.438L89.3949 273.45Z" fill="#3B2C7D"/>
<path opacity="0.45" d="M74.7344 190.234L86.1805 203.204L88.0959 276.848L74.7344 253.829V190.234Z" fill="#3B2C7D"/>
<path d="M87.2528 261.392C87.1951 263.377 87.1547 265.367 87.074 267.352C87.0451 268.079 87.0567 268.806 87.0221 269.527L86.999 270.012C86.9759 270.173 86.9355 270.335 86.9297 270.496L86.8778 271.471C86.8605 272.025 86.8201 272.538 86.7913 273.04L86.7509 273.79L86.7278 274.16C86.7221 274.281 86.7163 274.413 86.6932 274.483L84.8759 271.938L83.8144 270.369C83.1855 269.423 82.5509 268.471 81.9394 267.519C81.5528 266.902 81.1374 266.308 80.8086 265.656C80.4567 265.021 80.1798 264.34 79.8798 263.683C79.7009 263.267 79.7413 263.313 79.9894 263.608C80.2259 263.913 80.7624 264.41 81.2759 265.067C81.4894 265.367 81.7259 265.65 81.9221 265.962L82.5163 266.885L83.7278 268.719C84.1432 269.325 84.5528 269.931 84.9682 270.542L85.5971 271.448L85.7471 271.725C85.7817 271.788 85.8221 271.846 85.8682 271.915C85.9028 271.996 85.8913 271.933 85.8971 271.915V271.84L85.9201 271.673C85.9201 271.529 85.9317 271.54 85.9317 271.027V270.433C85.9317 270.237 85.874 270.035 85.8913 269.838C85.8913 269.446 85.8913 269.048 85.8971 268.656L85.9721 262.656L86.024 258.963C86.0528 257.1 86.0759 255.225 86.1048 253.373C86.0874 251.937 86.0759 250.517 86.0586 249.092C86.0586 248.781 86.0586 248.469 86.0759 248.152C86.1278 246.975 86.2432 246.606 86.5028 246.369C86.5663 246.317 86.624 246.242 86.6817 246.213C86.8778 246.11 87.0278 246.6 87.074 247.454C87.2817 249.992 87.2817 252.663 87.3278 255.352C87.3682 257.348 87.2817 259.356 87.2701 261.358H87.2413L87.2528 261.392Z" fill="#3B2C7D"/>
<path opacity="0.75" d="M143.556 181.338L162.883 195.358L86.1806 203.204L73.8633 189.133L76.5921 186.202L143.556 181.338Z" fill="#3B2C7D"/>
<path d="M144.725 185.313C144.748 185.89 144.777 186.467 144.823 187.05C144.841 187.263 144.916 187.465 144.916 187.679C144.927 188.434 144.927 189.196 144.968 189.952C144.985 190.286 145.02 190.621 145.077 190.95C145.106 191.163 145.152 191.371 145.175 191.584C145.17 191.804 145.1 192.029 145.031 192.254C144.979 192.392 144.835 192.398 144.616 192.317C144.402 192.236 144.039 192.081 143.854 191.867C143.687 191.463 143.583 191.048 143.485 190.627C143.393 190.206 143.393 189.773 143.404 189.329C143.427 188.798 143.243 188.279 143.168 187.748C143.104 187.159 143.064 186.571 143.018 185.982L142.937 184.892C142.885 184.344 142.873 183.784 142.787 183.242C142.723 182.821 142.55 182.411 142.452 181.996C142.435 181.904 142.4 181.811 142.395 181.719C142.395 181.632 142.395 181.557 142.406 181.494C142.429 181.431 142.498 181.379 142.545 181.332C142.66 181.246 142.787 181.194 142.966 181.148C143.046 181.125 143.127 181.102 143.202 181.09C143.456 181.044 143.704 181.177 143.981 181.402C144.085 181.575 144.177 181.754 144.264 181.932C144.327 182.111 144.379 182.296 144.42 182.481C144.506 182.85 144.558 183.225 144.604 183.606C144.673 184.171 144.708 184.748 144.771 185.319H144.725V185.313Z" fill="#3B2C7D"/>
<path opacity="0.75" d="M53.2288 260.59L51.7461 267L74.7365 237.531V187.881L65.2519 198.664L53.2288 260.59Z" fill="#3B2C7D"/>
<path d="M73.1209 219.462L73.1555 212.96V210.589C73.1844 207.802 73.2478 205.01 73.3286 202.223C73.3575 200.989 73.3863 199.742 73.4151 198.514C73.444 197.723 73.4382 196.933 73.4844 196.142C73.519 195.75 73.5421 195.352 73.5998 194.96C73.6632 194.567 73.7209 194.175 73.7671 193.783C73.8305 193.292 73.8421 193.362 73.894 193.783C73.9228 193.99 73.9517 194.29 74.0267 194.648C74.0613 194.827 74.1075 195.023 74.1363 195.231C74.1594 195.439 74.1767 195.658 74.1825 195.883C74.1825 199.096 74.0901 202.304 73.9863 205.546C73.9171 207.485 73.9632 209.504 73.969 211.489L73.9978 218.037C74.0094 219.381 74.0209 220.725 74.0267 222.069C74.0498 224.106 74.0555 226.148 74.1017 228.167C74.1363 229.737 74.2286 231.277 74.2921 232.829C74.3094 233.169 74.3209 233.504 74.3382 233.85C74.3498 235.131 74.2401 235.535 73.9978 235.812C73.9401 235.875 73.8882 235.956 73.8421 235.99C73.6805 236.112 73.4901 235.592 73.3921 234.658C73.1786 231.889 73.1844 228.964 73.144 226.027C73.1325 223.846 73.1209 221.654 73.1094 219.467H73.1325L73.1209 219.462Z" fill="#3B2C7D"/>
<path opacity="0.25" d="M85.903 174.577L73.7011 169.858L52.3203 189.191L65.578 195.623L85.903 174.577Z" fill="#3B2C7D"/>
<path opacity="0.75" d="M84.4284 184.598L85.2418 177.594L76.5938 186.202L84.4284 184.598Z" fill="#3B2C7D"/>
<path d="M72.5925 189.646C73.6252 188.527 74.6579 187.408 75.7137 186.306C76.1002 185.902 76.4579 185.475 76.8444 185.077C78.2175 183.669 79.6079 182.285 81.0329 180.929C81.6848 180.346 82.3137 179.741 82.9714 179.169C83.8079 178.437 84.6387 177.669 85.6541 177.167C85.9598 177 85.931 177.041 85.7464 177.289C85.631 177.45 85.5041 177.629 85.3829 177.802C85.3079 177.906 85.2329 178.027 85.1348 178.137C85.031 178.246 84.9271 178.35 84.8175 178.46C83.1791 179.983 81.7079 181.673 80.0406 183.208C79.0598 184.148 78.1483 185.233 77.2137 186.266L74.1156 189.664L72.206 191.752C71.2425 192.814 70.2618 193.858 69.3156 194.919C68.5771 195.739 67.8964 196.587 67.1695 197.412C67.0137 197.596 66.8637 197.781 66.6906 197.954C66.0387 198.577 65.7733 198.721 65.4445 198.664C65.3695 198.652 65.2887 198.646 65.2252 198.623C65.0233 198.542 65.1618 198.156 65.5483 197.625C66.731 196.073 68.1214 194.585 69.4829 193.044C70.5041 191.908 71.5368 190.766 72.5637 189.629L72.5868 189.646H72.5925Z" fill="#3B2C7D"/>
<path d="M54.029 261.704L54.0174 261.767C54.0174 261.767 54.0809 261.767 54.1501 261.715C54.1847 261.687 54.2309 261.652 54.2828 261.606L54.3232 261.565L54.4732 261.387L54.7963 260.983C55.1367 260.562 55.4424 260.112 55.7828 259.69C56.9828 258.196 58.252 256.754 59.4751 255.277C60.0232 254.625 60.5424 253.944 61.0617 253.275C61.4078 252.854 61.7424 252.427 62.1059 252.012C62.2963 251.81 62.4578 251.596 62.677 251.417C62.8963 251.244 63.1097 251.065 63.3578 250.91C63.6578 250.713 63.6809 250.829 63.6001 251.152C63.5482 251.354 63.4963 251.579 63.4386 251.792C63.404 251.919 63.3751 252.063 63.3117 252.196C63.2482 252.323 63.1732 252.456 63.0867 252.583C61.8636 254.388 60.4963 256.125 59.0597 257.827C58.1944 258.842 57.4155 259.99 56.579 261.069L54.9982 263.083C54.254 264.023 53.5443 264.888 52.8693 265.702L52.2751 266.412L52.2578 266.371V266.267L52.2693 266.065L52.2867 265.656L52.327 264.871L52.4194 263.365C52.4713 262.863 52.5117 262.338 52.5809 261.86L52.679 261.133L52.7597 260.608C52.8751 259.915 52.9847 259.223 53.1001 258.531C53.2674 257.458 53.3655 256.396 53.5386 255.346C53.5732 255.115 53.5963 254.885 53.6424 254.648C53.8097 253.788 53.9597 253.535 54.3405 253.413C54.427 253.385 54.5136 253.344 54.6001 253.338C54.8828 253.31 55.0328 253.702 55.004 254.354C54.952 255.317 54.8713 256.292 54.7443 257.273C54.6001 258.248 54.4559 259.229 54.3117 260.215L54.1559 261.312C54.1444 261.375 54.1328 261.456 54.127 261.444C54.1155 261.467 54.0924 261.525 54.0809 261.594L54.0347 261.71L54.029 261.704Z" fill="#3B2C7D"/>
<path d="M45.9847 266.1L43.8905 264.906C43.6367 264.761 43.3655 264.64 43.1174 264.49C42.229 263.965 41.3694 263.383 40.5098 262.8C40.129 262.546 39.7309 262.304 39.3386 262.061C39.0905 261.9 38.8251 261.756 38.5944 261.565C38.479 261.461 38.3694 261.352 38.2655 261.242C38.2136 261.19 38.1617 261.127 38.1155 261.058C38.0694 260.983 38.0694 260.873 38.0521 260.792C38.029 260.556 38.0117 260.625 38.2309 260.625C38.4963 260.59 38.8482 260.538 39.1367 260.677C40.0944 261.242 41.0982 261.86 42.0674 262.54C42.6501 262.944 43.3194 263.267 43.954 263.619L46.0482 264.796L47.3521 265.5C48.0155 265.84 48.679 266.198 49.3597 266.498C49.8847 266.734 50.4444 266.879 50.9694 267.081C51.0847 267.127 51.2059 267.161 51.3213 267.208C51.7482 267.392 51.8578 267.525 51.829 267.836C51.829 267.906 51.829 267.975 51.8174 268.038C51.7771 268.24 51.5174 268.367 51.1713 268.292C50.1213 268.125 49.1232 267.686 48.1424 267.219C47.4097 266.873 46.6944 266.492 45.979 266.117L45.9905 266.088L45.9847 266.1Z" fill="#3B2C7D"/>
<path d="M58.7125 193.2C59.2548 193.563 59.8202 193.898 60.4029 194.215C60.6164 194.331 60.8529 194.394 61.0664 194.509C61.8279 194.896 62.5779 195.334 63.3683 195.698C63.7202 195.854 64.0837 195.981 64.4472 196.102L64.7991 196.206C64.9145 196.252 65.0241 196.309 65.1337 196.367C65.3587 196.477 65.5664 196.633 65.7741 196.8C65.901 196.909 65.8548 197.002 65.6818 197.129C65.5952 197.192 65.4741 197.273 65.3356 197.359C65.1914 197.446 65.0298 197.521 64.8798 197.533C63.7895 197.619 62.826 197.204 61.9087 196.696C61.3606 196.396 60.7375 196.206 60.1606 195.934C59.526 195.634 58.9145 195.288 58.3029 194.936C57.9337 194.711 57.5645 194.486 57.201 194.25C56.6414 193.909 56.1222 193.5 55.5856 193.125C55.176 192.831 54.7202 192.6 54.3048 192.3C54.2125 192.236 54.1087 192.184 54.0337 192.098C53.7452 191.786 53.7279 191.613 53.9183 191.302C53.9645 191.233 53.9991 191.158 54.051 191.094C54.2125 190.881 54.4952 190.829 54.7837 190.933C55.6318 191.233 56.3241 191.7 57.0856 192.121C57.6395 192.45 58.1587 192.842 58.7299 193.159L58.7125 193.2Z" fill="#3B2C7D"/>
<path d="M185.955 70.1944L185.695 68.2271L185.551 67.2405L185.476 66.7501C185.459 66.6405 185.459 66.6405 185.459 66.6232V66.5597C185.459 66.5597 185.453 66.5078 185.442 66.479C185.418 66.404 185.424 66.2597 185.315 66.3117C185.211 66.329 185.147 66.329 184.963 66.3924L183.797 66.8944L181.449 67.9444C180.757 68.2617 180.082 68.6251 179.418 68.9886C178.57 69.4617 177.74 69.9982 176.695 70.1021C176.332 70.0559 176.372 70.0386 176.488 69.6867C176.586 69.3001 176.822 68.752 177.261 68.4001C177.359 68.3251 177.457 68.2386 177.555 68.1694L177.872 67.979L178.513 67.604C178.94 67.3559 179.372 67.1136 179.811 66.877C180.688 66.4155 181.57 65.9482 182.522 65.5963C183.088 65.377 183.642 65.1059 184.201 64.829C185.038 64.4309 186.192 63.7674 186.653 64.4367L187.005 65.0828L187.259 66.404L187.403 67.2636L187.68 68.9886L188.02 71.4694C188.188 72.7213 188.292 73.9905 188.442 75.2367C188.557 76.2059 188.759 77.152 188.892 78.1155C188.92 78.329 188.961 78.5367 188.978 78.7501C189.007 79.1482 188.995 79.4136 188.897 79.5982C188.776 79.7828 188.609 79.8924 188.378 79.9847C188.274 80.0251 188.17 80.077 188.072 80.1001C187.905 80.1405 187.755 80.0828 187.593 79.9386C187.432 79.8001 187.253 79.5809 187.213 79.2982C186.82 77.6309 186.647 75.8886 186.428 74.129C186.267 72.8251 186.117 71.504 185.909 70.1944L185.955 70.1828V70.1944Z" fill="#3B2C7D"/>
<path d="M167.637 54.0752C168.727 53.4002 169.824 52.7367 170.943 52.079L171.947 51.5021C172.449 51.2252 172.962 50.9252 173.435 50.7694C173.672 50.6944 173.879 50.6713 174.07 50.6771C174.249 50.706 174.427 50.6944 174.583 50.8387L175.126 51.8829L175.218 52.7887L175.339 53.8733L175.431 54.606C175.495 55.0963 175.564 55.5867 175.616 56.0771C175.985 59.5387 176.406 63.0117 176.891 66.479C177.099 68.0194 177.387 69.554 177.647 71.0771C177.958 73.0329 178.506 74.9656 178.212 77.0137C178.114 77.3425 178.056 77.481 178.01 77.481C177.964 77.481 177.901 77.3367 177.693 77.1002C177.479 76.8694 177.237 76.529 176.931 76.1252C176.66 75.7156 176.435 75.2194 176.279 74.6656C175.489 70.7136 174.901 66.7098 174.508 62.6367C174.277 60.2021 173.816 57.6925 173.527 55.2002L173.401 54.0233L173.377 53.781V53.6771L173.36 53.4637L173.343 53.181V53.106C173.343 53.0771 173.326 53.0598 173.297 53.0656C173.256 53.0713 173.216 53.0887 173.17 53.106C173.008 53.1752 172.841 53.2617 172.668 53.354L172.12 53.6713L171.491 54.0406L170.239 54.7963C168.802 55.6733 167.372 56.5675 165.958 57.479C163.812 58.8637 161.654 60.2483 159.577 61.7021C157.962 62.8329 156.451 64.0444 154.904 65.2271C154.564 65.4867 154.241 65.7579 153.895 66.0175C153.249 66.4906 152.804 66.7733 152.447 66.9117C152.268 66.981 152.112 67.0098 151.962 67.0098C151.801 66.9867 151.645 66.9406 151.506 66.8887C151.374 66.8425 151.235 66.8194 151.149 66.779C150.895 66.6925 151.068 65.804 152.002 65.0829C154.651 62.7752 157.651 60.6348 160.708 58.5521C162.981 57.006 165.295 55.506 167.626 54.0233L167.654 54.0637L167.637 54.0752Z" fill="#3B2C7D"/>
<path d="M140.326 197.262L152.251 196.021L158.205 195.352L160.841 195.035C161.032 195.006 161.274 195.012 161.453 194.937C161.332 194.798 161.17 194.689 161.008 194.556L160.218 193.979L159.087 193.171C156.168 191.094 153.174 189.11 150.214 187.073L146.291 184.396L144.324 183.063L143.389 182.429C143.343 182.4 143.297 182.342 143.234 182.36L142.853 182.383L133.362 182.983L114.382 184.102C108.768 184.442 103.126 184.817 97.5643 185.221C90.4104 185.717 83.2566 186.456 76.0796 186.583C74.9546 186.519 74.4643 186.485 74.4931 186.45C74.522 186.41 75.0643 186.34 75.9931 186.081C77.845 185.539 81.2777 184.812 85.3912 184.356C92.6893 183.669 99.9873 183.087 107.308 182.567C114.63 182.1 121.968 181.696 129.335 181.31C133.743 181.079 138.232 180.773 142.749 180.421L143.285 180.381L143.643 180.358L143.822 180.346C143.874 180.369 143.92 180.41 143.972 180.439L144.901 181.05L146.32 181.99L149.159 183.877C151.051 185.135 152.932 186.404 154.801 187.679C156.485 188.833 158.17 189.992 159.843 191.169L162.48 193.056C163.137 193.546 163.853 194.048 164.383 194.544C164.649 194.792 164.799 195.035 164.868 195.237C164.955 195.444 165.041 195.617 165.116 195.837C165.105 195.94 165.001 195.975 164.955 196.015L164.77 196.142L164.378 196.419C164.164 196.656 163.559 196.754 162.987 196.84L161.245 197.088L160.08 197.239L155.712 197.764L146.984 198.739C140.903 199.367 134.816 200.002 128.735 200.631C119.522 201.56 110.262 202.413 101.101 203.221C97.5354 203.527 94.0162 203.856 90.4739 204.087C89.5854 204.138 88.7027 204.19 87.7912 204.202H87.0989C86.845 204.19 86.6662 204.196 86.2854 204.138C86.1181 204.11 85.9508 204.069 85.8008 204L85.3623 203.723C85.1258 203.55 84.9758 203.406 84.7796 203.244C83.4123 201.987 82.2412 200.689 81.0412 199.367C79.9912 198.202 78.97 197.065 77.9546 195.865C74.1989 191.406 73.2008 189.819 72.9181 188.452C72.8547 188.14 72.7393 187.754 72.7508 187.535C72.8027 186.796 74.5393 188.435 77.32 191.637C79.3854 194.008 81.4854 196.413 83.6489 198.762C84.1912 199.35 84.7393 199.933 85.2873 200.487C85.5643 200.769 85.8412 201.04 86.1123 201.294C86.2508 201.433 86.3835 201.548 86.5104 201.652L86.7008 201.813C86.7585 201.854 86.7585 201.842 86.7585 201.848C86.7585 201.848 86.7873 201.854 86.8047 201.848C86.9027 201.854 87.1104 201.865 87.2835 201.871C87.6527 201.877 88.045 201.871 88.4373 201.86C89.2277 201.837 90.0354 201.796 90.8489 201.75C97.3508 201.34 103.997 200.717 110.637 200.117C120.509 199.2 130.426 198.242 140.314 197.204L140.332 197.256L140.326 197.262Z" fill="#3B2C7D"/>
<path d="M166.997 239.752C166.985 236.221 166.951 232.69 166.824 229.159C166.789 227.873 166.68 226.586 166.628 225.3C166.46 220.759 166.293 216.208 166.028 211.667C165.918 209.654 165.739 207.629 165.555 205.633C165.434 204.352 165.33 203.065 165.237 201.779L165.18 200.815V199.846V198.877C165.191 198.554 165.33 198.219 165.37 197.89C165.532 197.071 165.468 197.186 165.762 197.844C165.884 198.173 166.31 198.623 166.484 199.194C166.593 199.477 166.709 199.788 166.807 200.117C166.853 200.284 166.905 200.452 166.957 200.625C166.985 200.798 167.014 200.983 167.037 201.167C167.193 202.471 167.355 203.781 167.487 205.09C167.585 206.4 167.678 207.715 167.776 209.031C167.949 211.661 168.082 214.304 168.145 216.958C168.232 220.136 168.537 223.425 168.682 226.673C168.837 230.244 168.947 233.821 168.993 237.398C169.034 239.596 169.028 241.8 169.039 243.998C169.022 245.665 169.005 247.333 168.987 249C168.959 250.667 168.924 252.329 168.895 253.984C168.866 255.271 168.878 256.546 168.884 257.815C168.884 259.084 168.872 260.354 168.872 261.629C168.872 262.188 168.872 262.736 168.849 263.302C168.757 265.396 168.572 266.054 167.972 266.458C167.834 266.55 167.695 266.677 167.562 266.723C167.107 266.89 166.795 266.019 166.766 264.49C166.691 259.961 166.83 255.213 166.893 250.436C166.957 246.888 166.98 243.323 166.945 239.763H166.997V239.752Z" fill="#3B2C7D"/>
<path d="M73.7901 246.369L73.7554 232.644C73.7497 230.977 73.6804 229.31 73.6862 227.637L73.7439 209.989C73.7439 207.381 73.7093 204.756 73.6804 202.165C73.6631 200.504 73.6112 198.837 73.6227 197.169C73.6401 195.502 73.6631 193.835 73.9112 192.173C74.0439 191.654 74.1247 191.429 74.1766 191.446C74.2343 191.464 74.292 191.717 74.4708 192.156C74.6554 192.594 74.8285 193.217 75.0478 193.967C75.2324 194.717 75.3535 195.6 75.4112 196.558C75.5612 199.95 75.6016 203.342 75.6651 206.74C75.6708 210.139 75.6535 213.548 75.5843 216.975C75.4977 221.071 75.6824 225.329 75.7343 229.517C75.7862 234.121 75.8439 238.731 75.8958 243.335C75.942 246.167 75.9824 249.006 76.0285 251.833L76.0631 253.437L76.0804 254.215V254.521C76.092 254.625 76.1381 254.654 76.167 254.746C76.6054 255.681 77.1074 256.65 77.592 257.596C78.5785 259.5 79.5881 261.392 80.6151 263.25C82.2189 266.146 83.9151 268.915 85.5997 271.725C85.9747 272.342 86.3381 272.942 86.7189 273.565C88.0689 275.89 88.3862 276.692 88.1439 277.5C88.092 277.679 88.0689 277.898 87.9997 278.025C87.7747 278.458 86.8285 277.731 85.7497 276.069C82.5016 271.16 79.4785 265.771 76.5362 260.296C75.9881 259.281 75.4516 258.254 74.9208 257.221C74.6497 256.679 74.4074 256.223 74.1074 255.56C74.0554 255.433 74.0035 255.3 73.9574 255.167C73.9054 255.029 73.9228 254.942 73.9054 254.827C73.8881 254.619 73.8708 254.377 73.8651 254.192L73.842 253.321C73.8074 251.008 73.7728 248.694 73.7324 246.381H73.7843L73.7901 246.369Z" fill="#3B2C7D"/>
<path d="M57.4863 191.619C58.144 191.966 58.8132 192.3 59.4998 192.6C59.7479 192.71 60.019 192.767 60.2671 192.883C61.144 193.31 62.0382 193.725 62.9498 194.066C63.3594 194.21 63.769 194.342 64.1902 194.435C64.4555 194.504 64.7267 194.539 64.9921 194.602C65.1248 194.642 65.2459 194.712 65.3671 194.775L65.5517 194.885C65.6094 194.925 65.6555 194.994 65.7132 195.046C65.8575 195.219 65.8575 195.266 65.6959 195.496C65.5171 195.767 65.1594 196.137 64.7902 196.229C64.1844 196.235 63.5959 196.166 63.019 196.062C62.4421 195.958 61.8998 195.71 61.3632 195.456C60.7286 195.133 60.0017 195.035 59.3267 194.798C58.5882 194.527 57.8671 194.204 57.1459 193.875C56.7017 193.679 56.269 193.442 55.8248 193.246L54.8382 192.733C54.5094 192.56 54.1863 192.369 53.8517 192.219C53.3382 191.948 52.7555 191.804 52.2017 191.492C52.0805 191.429 51.9421 191.389 51.8382 191.291C51.4459 190.898 51.4632 190.633 51.8094 190.206C51.8902 190.108 51.9594 190.01 52.0459 189.923C52.3229 189.646 52.744 189.514 53.0498 189.56C53.2575 189.6 53.4998 189.635 53.7017 189.721C53.9036 189.796 54.0882 189.889 54.3075 189.975C54.5209 190.062 54.7113 190.171 54.919 190.275C55.1325 190.373 55.3459 190.483 55.5536 190.592C56.1882 190.91 56.8344 191.262 57.5094 191.567L57.4921 191.619H57.4863Z" fill="#3B2C7D"/>
<path d="M146.319 139.217C149.29 141.583 152.637 143.567 156.092 145.067C157.812 145.794 159.623 146.406 161.325 146.55C162.162 146.625 162.969 146.538 163.465 146.285C163.54 146.267 163.575 146.215 163.633 146.181C163.679 146.14 163.748 146.117 163.783 146.071C163.846 145.985 163.973 145.881 163.973 145.858C164.037 145.788 164.077 145.552 164.037 145.24C163.967 144.606 163.592 143.804 163.125 143.083C162.658 142.35 162.063 141.652 161.423 141C160.137 139.69 158.602 138.583 156.975 137.654C153.704 135.796 150 134.746 146.21 134.388C143.44 134.152 140.631 134.215 137.873 134.642C136.488 134.827 135.127 135.144 133.777 135.479C132.438 135.854 131.106 136.258 129.819 136.783C129.242 136.99 128.694 137.261 128.135 137.498C127.592 137.769 127.033 138.035 126.508 138.323C125.469 138.9 124.477 139.575 123.554 140.336C121.719 141.86 120.127 143.711 119.117 145.806C118.604 146.85 118.281 147.958 118.096 149.077C117.952 150.208 117.992 151.356 118.183 152.492C118.396 153.629 118.788 154.742 119.273 155.815C119.787 156.883 120.421 157.898 121.119 158.879C122.567 160.806 124.333 162.525 126.317 163.933C128.36 165.369 130.477 166.748 132.658 167.931C134.838 169.119 137.117 170.129 139.454 170.677L140.331 170.85L141.058 170.942C141.202 170.965 141.231 170.954 141.312 170.96H141.531C141.675 170.977 141.825 170.96 141.963 170.919C142.102 170.873 142.235 170.769 142.252 170.619C142.275 170.469 142.206 170.331 142.137 170.204C141.975 169.944 141.785 169.765 141.513 169.546C140.735 168.917 139.771 168.369 138.802 167.902C137.821 167.44 136.8 167.036 135.75 166.702C135.225 166.529 134.706 166.396 134.181 166.258C133.65 166.154 133.119 166.027 132.577 165.963C131.498 165.79 130.396 165.727 129.3 165.71C127.102 165.686 124.892 165.883 122.735 166.304C120.577 166.719 118.46 167.336 116.481 168.219C113.942 169.333 111.565 170.913 109.967 173.065C109.171 174.138 108.6 175.35 108.317 176.631C108.04 177.911 108.029 179.261 108.294 180.577C108.34 180.906 108.45 181.235 108.525 181.563L108.646 182.054L108.813 182.538C108.929 182.856 109.027 183.202 109.16 183.49C109.304 183.773 109.408 184.067 109.604 184.333C110.279 185.44 111.288 186.375 112.344 187.258C113.423 188.123 114.612 188.885 115.84 189.571C117.075 190.258 118.344 190.904 119.654 191.463C121.287 192.161 122.013 192.438 121.933 192.513C121.858 192.577 120.987 192.444 119.498 192.081C118.015 191.7 115.881 191.146 113.446 189.981C112.235 189.392 110.913 188.683 109.662 187.615C109.05 187.061 108.427 186.467 107.896 185.706C107.763 185.515 107.625 185.331 107.504 185.129C107.388 184.915 107.279 184.702 107.163 184.483C107.037 184.258 106.967 184.056 106.887 183.848C106.806 183.64 106.725 183.433 106.65 183.219C106.113 181.719 105.779 180.092 105.802 178.419C105.831 176.752 106.235 175.056 106.99 173.556C107.74 172.05 108.802 170.752 109.996 169.673C111.196 168.588 112.523 167.706 113.908 166.967C116.677 165.502 119.654 164.602 122.665 164.054C125.683 163.529 128.758 163.338 131.85 163.65C132.623 163.719 133.396 163.823 134.175 163.979C134.942 164.117 135.744 164.336 136.465 164.556C137.937 165.017 139.396 165.571 140.804 166.321C141.513 166.696 142.188 167.106 142.887 167.636C143.025 167.729 143.337 168.011 143.596 168.231C143.838 168.473 144.104 168.71 144.294 168.975C144.715 169.488 144.992 170.036 145.096 170.567C145.206 171.086 145.154 171.646 144.871 172.148C144.583 172.644 144.162 172.961 143.654 173.169C143.515 173.21 143.388 173.261 143.244 173.296L142.754 173.325L141.779 173.388C141.421 173.429 141.208 173.383 140.948 173.365L140.187 173.302C139.31 173.198 138.577 173.002 137.798 172.794C137.037 172.569 136.298 172.315 135.571 172.027C134.123 171.456 132.744 170.775 131.412 170.042C130.079 169.31 128.787 168.519 127.529 167.694C126.277 166.869 125.037 166.044 123.796 165.058C122.342 163.892 121.004 162.577 119.815 161.106C118.627 159.64 117.594 158.013 116.844 156.225C116.094 154.442 115.627 152.486 115.627 150.49C115.615 148.488 116.14 146.486 117 144.727C117.438 143.844 117.946 143.008 118.512 142.217C119.088 141.433 119.717 140.7 120.387 140.008C121.742 138.635 123.265 137.446 124.927 136.477C126.6 135.536 128.308 134.769 130.079 134.129C131.85 133.506 133.662 133.021 135.49 132.663C139.512 131.89 143.654 131.711 147.727 132.271C151.794 132.819 155.815 134.163 159.294 136.425C161.031 137.55 162.658 138.877 164.031 140.486C164.717 141.294 165.335 142.177 165.808 143.192C166.038 143.706 166.235 144.254 166.327 144.871C166.413 145.477 166.413 146.198 166.062 146.902C165.877 147.271 165.64 147.496 165.41 147.75C165.3 147.883 165.15 147.963 165.023 148.067C164.885 148.16 164.758 148.275 164.608 148.338C164.319 148.471 164.031 148.633 163.737 148.69L163.298 148.811C163.154 148.846 163.01 148.858 162.865 148.881C161.712 149.031 160.627 148.915 159.583 148.731C157.5 148.333 155.573 147.594 153.71 146.758C151.431 145.696 149.267 144.421 147.208 143.002C145.154 141.571 143.198 139.996 141.433 138.185C140.544 137.285 139.719 136.31 138.987 135.248C138.617 134.717 138.277 134.163 137.983 133.569C137.683 132.981 137.44 132.415 137.21 131.815C136.292 129.45 135.698 126.906 135.837 124.292C135.888 123.306 136.05 122.313 136.362 121.356C136.512 120.877 136.713 120.398 136.933 119.96C137.146 119.521 137.394 119.094 137.648 118.679C138.698 117.023 140.054 115.569 141.612 114.415C144.727 112.079 148.448 110.827 152.158 110.14C155.885 109.46 159.681 109.361 163.425 109.679C167.163 110.019 170.885 110.729 174.398 112.165C175.76 112.736 177.092 113.423 178.275 114.438C178.858 114.946 179.412 115.569 179.752 116.383C179.908 116.792 180.029 117.236 180.006 117.715C179.977 118.217 179.867 118.754 179.515 119.146C179.423 119.238 179.331 119.331 179.238 119.417C179.135 119.498 179.025 119.561 178.915 119.636C178.806 119.717 178.708 119.763 178.604 119.81C178.5 119.856 178.396 119.908 178.298 119.936C177.894 120.075 177.496 120.167 177.104 120.213C176.325 120.317 175.563 120.306 174.819 120.248C173.325 120.127 171.883 119.804 170.481 119.365C167.688 118.471 165.035 117.046 162.842 115.004C162.288 114.502 161.787 113.936 161.308 113.348C161.083 113.048 160.846 112.742 160.638 112.425C160.437 112.096 160.229 111.813 160.027 111.375C159.64 110.556 159.548 109.633 159.646 108.785C159.75 107.931 160.038 107.14 160.419 106.431C161.1 105.173 162.046 104.169 163.085 103.327C164.123 102.479 165.277 101.81 166.488 101.267C168.744 100.258 170.74 99.8538 172.396 99.5999C174.058 99.3634 175.408 99.3288 176.515 99.3461C178.731 99.4211 179.977 99.7326 180.963 100.079C181.408 100.252 181.996 100.436 182.244 100.586C182.665 100.846 181.915 100.938 180.248 100.979C178.581 101.048 175.956 101.077 172.725 101.654C170.337 102.098 168 102.871 165.981 104.1C164.971 104.711 164.071 105.456 163.344 106.304C162.629 107.146 162.11 108.127 162.017 109.038C161.965 109.488 162.017 109.91 162.162 110.273C162.231 110.458 162.317 110.596 162.496 110.867C162.646 111.11 162.813 111.346 162.992 111.571C163.69 112.494 164.533 113.325 165.485 114.046C167.383 115.494 169.621 116.573 171.952 117.283C173.117 117.623 174.323 117.871 175.477 117.935C176.048 117.963 176.619 117.958 177.092 117.871C177.202 117.854 177.329 117.831 177.415 117.802L177.56 117.761L177.663 117.715C177.762 117.681 177.71 117.698 177.727 117.686C177.733 117.686 177.727 117.675 177.727 117.669C177.738 117.669 177.727 117.663 177.733 117.658C177.733 117.652 177.733 117.669 177.733 117.6C177.733 117.479 177.71 117.346 177.64 117.19C177.513 116.879 177.225 116.492 176.833 116.146C176.042 115.436 174.958 114.848 173.838 114.352C171.565 113.365 169.05 112.731 166.512 112.315C163.967 111.9 161.371 111.715 158.787 111.761C154.956 111.836 151.108 112.385 147.623 113.758C144.144 115.096 141.075 117.352 139.373 120.473C137.637 123.386 138.127 127.258 139.437 130.679C139.61 131.111 139.783 131.538 139.979 131.96C140.071 132.179 140.175 132.363 140.273 132.554C140.371 132.744 140.469 132.935 140.59 133.119C141.035 133.869 141.606 134.596 142.206 135.3C143.423 136.702 144.837 137.994 146.342 139.177L146.319 139.24V139.217Z" fill="#3B2C7D"/>
<path d="M190.683 31.2983C185.797 29.4925 180.864 27.7906 175.874 26.3079C173.381 25.5752 170.872 24.8887 168.356 24.306C167.099 24.0175 165.841 23.7522 164.595 23.556C163.972 23.4579 163.354 23.3714 162.766 23.3368C162.472 23.3137 162.183 23.3079 161.935 23.3195C161.866 23.3195 161.82 23.3252 161.768 23.331C161.75 23.331 161.739 23.331 161.722 23.331C161.687 23.331 161.658 23.3425 161.629 23.3598C161.583 23.3945 161.583 23.3945 161.514 23.481C161.416 23.6079 161.306 23.7579 161.202 23.9252C160.989 24.2483 160.781 24.6118 160.579 24.9695C160.17 25.6964 159.783 26.4579 159.397 27.2252C158.635 28.7656 157.908 30.3348 157.193 31.9098C155.116 36.5368 153.218 41.256 151.279 45.9522C147.881 54.2425 144.552 62.5791 141.397 70.956L140.906 72.2887C140.872 72.3868 140.825 72.4849 140.808 72.5887C140.849 72.6868 140.952 72.7387 141.033 72.7964L141.172 72.8772L141.408 72.9983L142.135 73.3445C142.631 73.5695 143.139 73.7945 143.647 74.0079C145.695 74.8675 147.783 75.681 149.872 76.4887L162.443 81.3175C169.874 84.2022 177.339 87.1502 184.602 90.3175C189.264 92.3599 193.925 94.4599 198.443 96.8714C200.699 98.0772 202.943 99.3175 205.1 100.696C206.179 101.389 207.247 102.104 208.291 102.843C209.329 103.593 210.327 104.412 211.297 105.248C212.491 106.31 212.947 106.846 212.854 106.887C212.756 106.939 212.093 106.523 210.881 105.912C209.687 105.283 207.922 104.521 205.879 103.5C204.852 102.998 203.739 102.456 202.556 101.885C201.391 101.285 200.156 100.644 198.87 99.981C196.602 98.781 194.283 97.6675 191.975 96.5425C189.662 95.4175 187.325 94.3329 184.977 93.2714C180.275 91.1541 175.516 89.1464 170.716 87.1964C165.922 85.2464 161.087 83.3541 156.241 81.4733C153.812 80.5272 151.383 79.581 148.954 78.6349C146.52 77.6714 144.091 76.7195 141.656 75.6233C141.293 75.456 140.924 75.2829 140.554 75.0983L140.277 74.9541L139.856 74.7291C139.562 74.5618 139.274 74.3829 139.031 74.1752C138.789 73.9618 138.593 73.7368 138.477 73.4541C138.408 73.3041 138.414 73.1656 138.402 73.0272C138.425 72.8714 138.402 72.7329 138.46 72.5714C138.535 72.2541 138.656 71.931 138.766 71.6137L139.002 70.9618C139.562 69.4791 140.122 67.9964 140.687 66.5022C141.829 63.531 142.983 60.5425 144.137 57.5483C146.462 51.5598 148.833 45.5541 151.302 39.6406C152.583 36.5772 153.893 33.5252 155.26 30.4906C155.947 28.9733 156.65 27.4618 157.4 25.956C157.775 25.206 158.162 24.456 158.583 23.706C158.797 23.331 159.01 22.9618 159.264 22.581C159.391 22.3906 159.518 22.206 159.679 22.0041C159.864 21.7618 160.124 21.5137 160.383 21.3233C160.718 21.1618 161.07 21.0348 161.445 21.0002C161.779 20.9598 162.01 20.9656 162.287 20.9656C162.806 20.9772 163.297 21.0233 163.781 21.081C164.745 21.1964 165.679 21.3695 166.608 21.5541C168.466 21.9291 170.283 22.3906 172.089 22.8695C175.706 23.8502 179.272 24.9579 182.814 26.1291C191.058 28.8695 199.164 31.9964 207.12 35.4695C213.143 38.1002 219.085 40.956 224.866 44.1175C230.635 47.2848 236.266 50.7233 241.452 54.7445L242.208 55.3329L243.085 56.0425C243.166 56.1175 243.235 56.1983 243.31 56.2733C243.368 56.3599 243.483 56.4118 243.5 56.5272C243.61 56.7175 243.575 56.9483 243.57 57.1618C243.552 57.381 243.506 57.606 243.46 57.8252L243.391 58.1137L243.327 58.3502C242.987 59.6079 242.577 60.7964 242.162 61.9906C241.331 64.3733 240.443 66.7156 239.537 69.0522C237.72 73.7195 235.81 78.3291 233.785 82.9156C232.891 84.9349 232.02 86.9137 231.062 88.9272C227.508 96.3868 225.939 98.5733 224.537 99.8079C224.22 100.091 223.833 100.477 223.608 100.616C223.216 100.841 223.389 100.194 223.954 98.8099C224.52 97.4252 225.5 95.3079 226.804 92.6137C230.635 84.5887 234.247 76.1656 237.645 67.5522C238.487 65.3945 239.318 63.2252 240.085 61.0445C240.466 59.9598 240.841 58.8579 241.129 57.8022L241.222 57.4502V57.4329C241.406 57.5945 240.72 57.0233 240.316 56.7118C236.681 53.8733 232.775 51.306 228.743 48.9291C222.754 45.3983 216.5 42.2425 210.131 39.3291C203.756 36.4214 197.26 33.7618 190.683 31.3445V31.2868V31.2983Z" fill="#3B2C7D"/>
<path d="M158.159 52.0383C156.642 55.5114 155.159 59.0018 153.792 62.5152C153.452 63.3921 153.123 64.2748 152.823 65.146L152.581 65.8614C152.569 65.9075 152.552 65.9537 152.558 65.9998C152.592 66.0287 152.638 66.0344 152.684 66.0575L157.571 67.7768C160.19 68.7171 162.827 69.6229 165.417 70.6383C167.327 71.3883 169.225 72.1614 171.111 72.9691C172.992 73.7883 174.85 74.6479 176.702 75.5248C178.554 76.4018 180.388 77.296 182.223 78.2018L184.934 79.6094L186.14 80.1806C186.238 80.2268 186.342 80.2729 186.446 80.3075C186.469 80.3133 186.504 80.3306 186.527 80.3133L186.567 80.2441L186.648 80.0998C186.7 80.0248 186.729 79.9614 186.792 79.8575L187.086 79.3268L187.675 78.2652L188.834 76.1306C190.883 72.3229 192.792 68.4114 194.558 64.4998C196.842 59.4748 198.769 54.2941 201.319 49.3614C202.161 47.8383 202.011 48.0287 201.734 49.4825C201.515 50.9594 201.094 53.6883 199.986 56.6941L198.734 59.8671C198.29 60.9114 197.84 61.9556 197.379 62.9941C196.456 65.071 195.509 67.1421 194.517 69.1902C193.525 71.2383 192.509 73.2748 191.442 75.2941C190.911 76.3037 190.375 77.3075 189.827 78.3114C189.192 79.4537 188.563 80.6018 187.929 81.7441L187.45 82.1768C187.363 82.2402 187.311 82.3441 187.19 82.3614C187.086 82.3902 186.988 82.4018 186.879 82.4018C186.452 82.4191 185.95 82.1825 185.483 81.9806L184.975 81.7498L184.588 81.5652C184.329 81.4441 184.075 81.3114 183.815 81.196C182.783 80.7229 181.744 80.2671 180.734 79.7594C174.648 76.7248 168.14 74.0537 161.633 71.6306C159.844 70.9614 158.056 70.3037 156.256 69.6575L153.556 68.6998L152.206 68.2325L151.715 68.0652L151.179 67.8691C151 67.7998 150.804 67.7479 150.688 67.6441C150.561 67.5518 150.411 67.4594 150.325 67.3556C150.008 66.7844 150.25 66.0056 150.458 65.2787L150.596 64.846L150.711 64.4941L150.954 63.8018C151.283 62.8844 151.629 61.9844 151.981 61.0902C152.684 59.296 153.417 57.5191 154.161 55.7537C156.002 51.3979 157.923 47.0825 159.902 42.796C161.408 39.5479 162.959 36.3171 164.633 33.1383L165.279 31.9325C165.434 31.6787 165.538 31.396 165.74 31.171L166.011 30.8133C166.144 30.7441 166.277 30.6921 166.427 30.6921C166.727 30.6691 167.044 30.7152 167.361 30.7671L167.759 30.8364L168.094 30.9056C168.538 30.9979 168.983 31.096 169.421 31.1998C171.175 31.6037 172.883 32.1344 174.596 32.6248C179.904 34.1941 185.067 35.9075 190.109 38.1171C191.217 38.6075 192.308 39.0921 193.398 39.6518C195.423 40.6844 196.698 41.5037 197.529 42.1729C198.359 42.8364 198.74 43.3556 198.965 43.8806C199.063 44.1171 199.225 44.3998 199.248 44.5729C199.323 45.1787 197.679 44.3768 194.84 42.871C190.629 40.621 186.059 38.7171 181.352 37.0037C178.998 36.1498 176.598 35.3479 174.175 34.6152C172.969 34.2287 171.729 33.9518 170.5 33.6575L168.665 33.2191L167.759 33.0229L167.315 32.9364L167.206 32.9191L166.675 33.9171C166.236 34.7537 165.809 35.596 165.383 36.4498C164.534 38.1518 163.709 39.871 162.902 41.6018C161.281 45.0633 159.717 48.5537 158.206 52.0671L158.154 52.0556L158.159 52.0383Z" fill="#3B2C7D"/>
<path d="M183.311 58.0385C181.793 57.6174 180.536 56.4808 179.976 55.0731C179.878 54.8193 179.757 54.5654 179.699 54.3058C179.63 54.0404 179.543 53.7866 179.549 53.4981C179.468 52.5231 179.74 51.4789 180.316 50.6885C180.882 49.8808 181.713 49.327 182.595 49.0731C183.368 48.8308 184.193 48.7443 184.984 48.8712C185.491 48.9404 185.976 49.1481 186.409 49.4135C186.818 49.7193 187.13 50.1347 187.355 50.5558C187.499 50.8212 187.366 50.8674 187.043 50.8616C186.847 50.8616 186.64 50.8616 186.449 50.8558C186.218 50.8616 185.959 50.9077 185.751 50.8731C185.566 50.8558 185.405 50.8154 185.249 50.7808C185.082 50.775 184.92 50.7808 184.77 50.7577C184.465 50.7347 184.165 50.7174 183.859 50.7751C183.247 50.8674 182.705 51.1327 182.157 51.4731C181.863 51.7097 181.632 52.0501 181.545 52.4366C181.465 52.8231 181.459 53.2385 181.545 53.6712C181.69 54.6174 182.272 55.4943 183.155 55.9616C183.686 56.2501 184.32 56.4116 184.926 56.3135C185.849 56.2097 186.668 55.5751 187.078 54.7097C187.372 54.0462 187.286 53.2789 187.038 52.6674L186.876 52.2693C186.674 51.7962 186.807 51.5424 187.13 51.127C187.205 51.0347 187.274 50.9251 187.349 50.8385C187.482 50.6943 187.649 50.6308 187.874 50.6597C188.093 50.6885 188.37 50.8097 188.618 51.0635C188.93 51.4558 189.224 51.9174 189.345 52.4308C189.472 52.9443 189.513 53.4866 189.449 54.0347C189.386 54.5827 189.218 55.1251 188.953 55.6327C188.676 56.1116 188.365 56.5616 187.949 56.9539C187.332 57.5251 186.559 57.9635 185.734 58.1308C185.324 58.2001 184.909 58.2577 184.499 58.2231C184.09 58.2404 183.691 58.1597 183.299 58.0789L183.311 58.0327V58.0385Z" fill="#3B2C7D"/>
<path d="M216.33 60.5425L220.536 62.781C221.049 63.0521 221.586 63.2656 222.094 63.5483C223.876 64.5463 225.647 65.5675 227.39 66.6233C228.169 67.0848 228.971 67.5117 229.772 67.9156C230.274 68.204 230.788 68.4637 231.284 68.7637C231.526 68.9252 231.746 69.1213 231.953 69.3406C232.149 69.5713 232.351 69.8079 232.547 70.0444C232.79 70.3502 232.738 70.3387 232.369 70.3733C232.184 70.3906 231.913 70.4367 231.578 70.5117C231.411 70.5406 231.221 70.5925 231.047 70.6098C230.874 70.6098 230.696 70.6098 230.528 70.5752C229.963 70.3906 229.438 70.1425 228.896 69.9233C228.365 69.681 227.857 69.3983 227.344 69.1213C226.317 68.5675 225.307 67.979 224.332 67.2983C223.161 66.4963 221.799 65.9425 220.524 65.2733L216.301 63.0752C215.43 62.631 214.559 62.181 213.682 61.754C212.349 61.1079 211.022 60.4329 209.667 59.8675C208.611 59.429 207.521 59.1233 206.447 58.7656C206.211 58.6848 205.974 58.6156 205.744 58.5233C204.89 58.154 204.682 57.9002 204.734 57.2713C204.746 57.1329 204.74 56.9887 204.769 56.8617C204.855 56.4463 205.369 56.2098 206.055 56.3483C207.082 56.5213 208.086 56.8329 209.072 57.2021C210.065 57.5713 211.051 57.9925 212.026 58.431C213.48 59.0829 214.917 59.7983 216.353 60.4963L216.33 60.5483V60.5425Z" fill="#3B2C7D"/>
<path d="M209.002 70.8233C209.613 71.1752 210.225 71.5271 210.842 71.8675C211.067 71.9887 211.321 72.0464 211.546 72.1791C212.33 72.6521 213.086 73.1887 213.877 73.656C214.05 73.7598 214.223 73.8694 214.402 73.9618C214.586 74.0483 214.765 74.1406 214.932 74.256C215.152 74.3945 215.377 74.5214 215.59 74.6771C215.648 74.7002 215.677 74.7983 215.717 74.856L215.861 75.006C215.953 75.1041 216.04 75.2079 216.138 75.3175C216.248 75.456 216.178 75.5425 215.977 75.6521C215.873 75.7098 215.734 75.7733 215.573 75.8425C215.405 75.9291 215.25 75.9348 215.042 76.0444C214.736 76.0906 214.482 76.0329 214.205 76.0271C214.073 76.0156 213.934 76.0098 213.802 75.9868L213.438 75.8541C212.948 75.6925 212.527 75.3752 212.094 75.0637C211.586 74.6656 210.934 74.5445 210.363 74.2445L208.477 73.2579C208.09 73.056 207.703 72.8425 207.311 72.6521C206.717 72.3579 206.134 72.0291 205.517 71.7983C205.038 71.6137 204.507 71.5733 204.005 71.4233C203.896 71.3945 203.786 71.3598 203.688 71.3079C203.325 71.0944 203.284 70.8637 203.446 70.3387C203.48 70.2175 203.509 70.0964 203.555 69.9868C203.694 69.6175 204.011 69.3521 204.363 69.306C205.43 69.1041 206.25 69.5021 207.121 69.8598C207.755 70.1368 208.378 70.4714 209.013 70.7771L208.99 70.8348L209.002 70.8233Z" fill="#3B2C7D"/>
<path d="M207.218 81.9982L210.362 83.8155C210.749 84.0347 211.159 84.1905 211.539 84.4155C212.878 85.2116 214.222 85.9962 215.549 86.8097C216.143 87.1616 216.766 87.4616 217.389 87.7443C217.787 87.9289 218.174 88.1424 218.555 88.3616L218.837 88.5347L219.091 88.7597C219.259 88.9097 219.426 89.0712 219.587 89.2328C219.789 89.4462 219.674 89.5789 219.345 89.7232C219.178 89.7982 218.953 89.8789 218.693 89.9539C218.566 89.9885 218.428 90.0231 218.284 90.052C218.214 90.0693 218.145 90.0635 218.07 90.0866C218.007 90.0751 217.943 90.0693 217.88 90.052C217.441 89.9308 216.991 89.827 216.564 89.6828C216.155 89.4981 215.751 89.3078 215.353 89.1116C214.557 88.702 213.76 88.2866 213.022 87.7501C212.134 87.1155 211.078 86.7174 210.103 86.1982L206.907 84.4558L204.939 83.377C203.941 82.8462 202.949 82.2808 201.928 81.8193C201.132 81.4558 200.295 81.2251 199.482 80.9366C199.303 80.8731 199.118 80.8328 198.939 80.7578C198.605 80.6308 198.432 80.452 198.334 80.2789C198.23 80.1058 198.236 79.8808 198.282 79.5924C198.305 79.4597 198.316 79.3328 198.345 79.2174C198.437 78.8597 198.887 78.5712 199.43 78.6462C201.01 78.9116 202.499 79.5866 203.976 80.2847C205.072 80.8097 206.151 81.3808 207.235 81.952L207.212 82.0039L207.218 81.9982Z" fill="#3B2C7D"/>
<path d="M55.1018 243.387L59.3942 221.642C59.8903 218.989 60.3865 216.34 60.8768 213.692L62.7115 204.473L63.6576 199.864L64.1538 197.556L64.4192 196.396C64.4595 196.206 64.5115 196.004 64.5692 195.796C64.598 195.658 64.6557 195.508 64.7249 195.375C64.7538 195.3 64.8057 195.242 64.8115 195.156C64.8576 195.092 64.898 195.029 64.9499 194.971L65.4518 194.446L65.8845 194.008L66.7499 193.142L68.4865 191.435L71.9768 188.042C74.9999 185.1 78.0345 182.14 81.0345 179.215L82.4884 177.814L83.2845 177.046L84.4326 175.967C84.8134 175.615 85.2057 175.246 85.5749 174.94C85.9442 174.64 86.2499 174.514 86.5095 174.404C86.7692 174.312 86.948 174.271 87.173 174.254C87.3057 174.421 87.3749 174.623 87.4672 174.865C87.6115 175.385 87.4672 176.377 87.2365 177.404C87.1269 177.912 86.9884 178.442 86.8499 178.956L86.6711 179.614L86.5211 180.098L85.3441 183.906C85.0384 184.667 84.9057 184.996 84.7845 184.967C84.6749 184.939 84.5653 184.523 84.4499 183.762C84.323 183 84.3749 181.944 84.4903 180.71C84.5249 180.404 84.5653 180.081 84.6057 179.752C84.6288 179.59 84.6518 179.423 84.6749 179.256C84.6922 179.175 84.698 179.083 84.7095 179.002L84.7326 178.875C84.7326 178.875 84.7326 178.864 84.7326 178.858C84.6922 178.8 84.6518 178.829 84.6461 178.829C82.373 181.015 80.0999 183.208 77.8268 185.4C75.9461 187.212 74.0595 189.017 72.173 190.835L69.3461 193.558L67.9442 194.925L66.6692 196.194C66.6692 196.194 66.6288 196.235 66.6172 196.264L66.5942 196.333L66.548 196.506L66.3576 197.262C64.8634 203.665 63.7211 210.485 62.423 217.119C60.998 224.423 59.5672 231.733 58.1365 239.042C57.2422 243.537 56.3422 248.037 55.448 252.525C54.7672 255.929 54.0634 259.333 53.3365 262.737L52.7884 265.287L52.5057 266.556L52.4365 266.873L52.4018 267.035L52.3845 267.115V267.133C52.8807 267.248 51.7038 266.983 51.8134 267.006C51.8076 267.006 51.7961 267.006 51.7845 267.006C51.7615 267.006 51.773 267.017 51.7672 266.994C51.7672 266.971 51.7499 266.965 51.7326 266.942C51.7153 266.914 51.6922 266.885 51.6692 266.856L51.4788 266.654L51.3692 266.544L51.3865 266.521L51.4268 266.469L51.5192 266.354L51.7153 266.106C52.7768 264.767 53.8095 263.371 54.8134 261.975C57.9518 257.637 60.9345 253.315 64.0557 249.029C64.7422 248.083 65.4057 247.154 66.1211 246.214C68.7692 242.735 69.8076 241.754 70.823 241.39C71.0538 241.31 71.3307 241.177 71.5095 241.165C72.098 241.137 71.1749 242.648 69.2999 245.21C66.5192 249.012 63.7038 252.964 60.8307 256.956C59.3884 258.952 57.9403 260.965 56.4807 262.985C55.7538 263.994 54.998 264.992 54.3057 266.042C53.9422 266.562 53.6076 267.081 53.198 267.612L53.0192 267.831C52.9788 267.877 52.9499 267.912 52.8749 267.992L52.7942 268.073C52.7942 268.073 52.7249 268.137 52.6903 268.165L52.6211 268.217C52.6211 268.217 52.3903 268.362 52.2634 268.402C52.0442 268.339 52.3038 268.731 50.9826 268.246C50.0249 267.265 50.4692 267.358 50.3192 267.115C50.2903 266.971 50.3653 266.608 50.3538 266.694L50.3595 266.66L50.4576 266.204L50.6538 265.292C52.1999 258.046 53.6538 250.714 55.0788 243.404H55.1307L55.1018 243.387Z" fill="#3B2C7D"/>
<path d="M43.4499 226.304L47.5172 206.7C48.0133 204.317 48.4518 201.923 48.9653 199.54L50.3383 193.246C50.5749 192.196 50.8114 191.152 51.071 190.09C51.1345 189.825 51.2037 189.565 51.2845 189.265C51.3422 189.075 51.4287 188.856 51.5268 188.665C51.596 188.579 51.6537 188.487 51.7287 188.406L51.9249 188.198C52.3287 187.794 52.7153 187.425 53.1133 187.056C56.2691 184.119 59.471 181.269 62.6787 178.408C65.5287 175.881 68.3499 173.296 71.2114 170.798C71.673 170.394 72.1345 170.002 72.6307 169.598L72.8845 169.402C72.9826 169.333 73.0806 169.281 73.1845 169.223C73.2826 169.16 73.3864 169.113 73.496 169.067C73.6057 169.033 73.7268 169.056 73.8364 169.044C74.0672 169.033 74.2922 169.102 74.523 169.131L74.6903 169.16L74.8057 169.194L75.0422 169.258C76.2768 169.615 77.4076 170.054 78.5557 170.504C79.6922 170.965 80.823 171.415 81.9249 171.946C83.021 172.488 84.1114 173.025 85.1787 173.625C86.471 174.462 86.2056 174.525 84.8614 174.41C84.1864 174.363 83.2633 174.208 82.1672 173.988C81.6191 173.873 81.0249 173.758 80.4191 173.585C79.8133 173.4 79.1845 173.181 78.5383 172.933C77.396 172.494 76.248 172.056 75.1287 171.692C74.846 171.6 74.5691 171.513 74.3153 171.45L74.096 171.392L73.946 171.508L73.2537 172.073C71.3845 173.631 69.521 175.275 67.6576 176.896C63.9364 180.162 60.2037 183.438 56.4595 186.727C55.9057 187.223 55.3518 187.725 54.798 188.227L53.9787 188.994L53.5807 189.375L53.2864 189.669C53.2403 189.715 53.2345 189.75 53.2057 189.842L53.073 190.367L52.8133 191.463C52.6518 192.208 52.4903 192.952 52.323 193.696C51.7057 196.696 51.0826 199.713 50.471 202.702C49.1153 209.279 47.7537 215.862 46.398 222.444C45.5787 226.5 44.7537 230.556 43.9345 234.606C42.7114 240.744 41.4595 246.912 40.323 253.027C40.0749 254.429 39.8268 255.819 39.5787 257.204C39.3537 258.531 39.1345 259.858 38.9153 261.173C38.9326 261.231 38.8922 261.288 38.9037 261.34C38.9326 261.392 38.9787 261.427 39.0249 261.467L39.1576 261.577L39.3537 261.727C39.723 262.01 40.121 262.281 40.5191 262.54C41.3153 263.071 42.1518 263.544 42.9999 264C43.9056 264.485 44.823 264.906 45.7691 265.321C47.523 266.094 48.7056 266.504 49.5249 266.844C50.3441 267.185 50.7999 267.45 51.1518 267.802C51.3133 267.958 51.5383 268.125 51.6249 268.269C51.7749 268.506 51.4403 268.65 50.6903 268.638C49.9403 268.627 48.7806 268.448 47.3614 267.987C45.5153 267.387 43.721 266.602 41.973 265.673C41.096 265.212 40.248 264.698 39.3826 264.173C38.9557 263.902 38.5287 263.625 38.096 263.313C38.0326 263.267 38.0095 263.244 37.9114 263.187C37.8133 263.117 37.7268 263.037 37.6345 262.967C37.4614 262.817 37.2653 262.667 37.121 262.494C36.9653 262.327 36.8787 262.125 36.8557 261.912V261.871L36.8441 261.848C36.7114 261.883 36.8095 261.854 36.7749 261.86V261.842V261.762L36.7576 261.6C36.7576 261.49 36.723 261.381 36.7576 261.271C36.7403 261.127 36.798 260.977 36.8153 260.833L36.873 260.51L36.9537 260.054L37.1095 259.137C37.2191 258.525 37.323 257.908 37.4326 257.296C37.6576 256.067 37.8768 254.833 38.1018 253.592C38.5691 251.117 39.0364 248.631 39.5037 246.138C40.7672 239.538 42.0999 232.927 43.4095 226.321H43.4614L43.4499 226.304Z" fill="#3B2C7D"/>
<path d="M88.6544 264.173C88.7005 266.498 88.7525 268.823 88.8275 271.137C88.8621 272.296 88.914 273.45 88.9717 274.598L89.0236 275.452L89.0755 276.179L89.0871 276.335C89.0871 276.335 89.0871 276.392 89.1044 276.41L89.1794 276.427L89.2775 276.438H89.3294L89.4909 276.444C89.8371 276.444 90.189 276.444 90.5582 276.433C91.2794 276.421 92.0179 276.375 92.7505 276.34C94.2217 276.248 95.6986 276.138 97.1813 276.012C99.9448 275.775 102.708 275.423 105.472 275.146C115.227 274.148 124.995 273.046 134.751 271.904C139.077 271.385 143.427 270.825 147.714 270.265C153.224 269.544 158.745 268.685 164.335 268.662C165.212 268.708 165.599 268.76 165.581 268.835C165.564 268.91 165.149 269.025 164.445 269.313C163.741 269.585 162.749 270.058 161.52 270.392C160.297 270.75 158.86 271.125 157.279 271.402C156.581 271.523 155.883 271.656 155.179 271.765L153.074 272.054L148.856 272.619C146.041 272.983 143.231 273.352 140.41 273.721C134.768 274.379 129.102 274.996 123.402 275.544C116.589 276.196 109.527 277.183 102.552 277.898C100.204 278.135 97.8621 278.36 95.5025 278.544C94.3255 278.637 93.1429 278.723 91.9486 278.781C91.3544 278.815 90.7486 278.827 90.1486 278.844H89.1736C88.7121 278.815 88.2621 278.752 87.8063 278.7L87.4544 278.538L87.2755 278.458C87.2525 278.388 87.1775 278.365 87.1429 278.313C86.9929 278.112 86.9063 277.858 86.8429 277.575C86.7275 277.044 86.6871 276.294 86.664 276.012C86.6121 275.25 86.5717 274.494 86.5371 273.744L86.3813 269.244C86.2486 264.502 86.1679 259.76 86.0813 255.023C85.9486 247.852 85.8852 240.64 85.7121 233.521C85.5794 227.988 85.314 222.565 85.1005 217.096C85.0486 215.89 85.0025 214.713 84.9505 213.502C84.8236 209.002 84.9505 207.565 85.5794 206.585C85.7179 206.36 85.8563 206.065 85.9948 205.938C86.4448 205.494 86.9525 207.323 87.1544 210.617C87.789 220.39 88.0313 230.706 88.2448 241.056C88.4063 248.74 88.5102 256.465 88.7063 264.162L88.6486 264.173H88.6544Z" fill="#3B2C7D"/>
<g opacity="0.55">
<path d="M78.3051 62.1577C78.3916 62.5327 78.3859 62.902 78.3051 63.2597C78.2416 63.502 78.1493 63.7443 78.0224 63.9577C77.8897 64.1885 77.6993 64.3731 77.5493 64.5751C77.4109 64.7712 77.0243 64.9731 76.6436 65.0827C76.2628 65.1924 75.9224 65.2212 75.8763 65.2789C75.8532 65.3135 75.7436 65.3539 75.5763 65.4116C75.4782 65.4462 75.3801 65.4808 75.2416 65.5212C74.9763 65.5962 74.6359 65.6885 74.2897 65.7808C73.5974 65.9654 72.9051 66.1731 72.8128 66.2308C72.7263 66.2827 72.6339 66.3058 72.5474 66.3462C72.5013 66.3693 72.4609 66.3924 72.4147 66.4212L72.3513 66.4616V66.4731C72.3513 66.4731 72.3513 66.4731 72.3455 66.4616C72.3455 66.4558 72.3166 66.4212 72.3166 66.427C72.3224 66.4327 72.2705 66.4385 72.3339 66.4674C72.3455 66.4674 72.3109 66.4674 72.2878 66.4616C72.2243 66.4616 72.1897 66.4674 72.2474 66.5712L72.2763 66.6231L72.3916 66.7904C72.4724 66.9058 72.5474 67.0154 72.6166 67.1193C72.7551 67.3212 72.8763 67.4827 72.9339 67.5751C72.9686 67.6327 73.0147 67.6847 73.0724 67.7135C73.2051 67.7712 73.609 68.3539 74.0474 68.8962C74.4859 69.4385 74.9589 69.9231 75.0224 69.9001C75.057 69.8943 75.1205 69.9174 75.1378 69.9635C75.184 70.0327 75.2301 70.1077 75.2705 70.1827C75.3051 70.2462 75.3455 70.2924 75.3974 70.3327C75.5186 70.4366 75.5878 70.6097 75.6628 70.7712C75.6801 70.8058 75.6686 70.8751 75.6513 70.9097L75.282 71.6193C75.282 71.6193 75.2763 71.6251 75.2705 71.6308C75.1378 71.7866 74.8551 71.902 74.659 71.752C74.584 71.6827 74.2378 71.5327 73.9205 71.3654C73.632 71.1577 73.3551 70.9443 73.3205 70.8981C73.1878 70.7424 72.2243 70.0674 71.9359 69.8077C71.8955 69.7847 71.3763 69.2712 70.8801 68.6827C70.7589 68.5327 70.632 68.3885 70.5109 68.2443C70.3493 68.0424 70.1936 67.852 70.0551 67.6731C69.7436 67.252 69.4897 66.8943 69.432 66.7501C69.2993 66.5308 69.207 66.1501 69.2301 65.8039C69.2416 65.4577 69.4032 65.1751 69.4147 65.1347C69.4263 65.1116 69.5474 64.8347 69.8532 64.552C70.1532 64.2693 70.7301 63.9866 71.3243 63.7443C72.0224 63.4501 72.7551 63.1847 72.8589 63.1385C72.9109 63.1154 72.9743 63.1097 73.0263 63.0866C73.4763 62.8674 73.9493 62.7058 74.4397 62.6193C74.457 62.6193 74.4686 62.6193 74.4859 62.6135C74.5724 62.5674 74.6589 62.527 74.7455 62.4981L74.8609 62.4635H74.8724C74.8724 62.4635 74.9186 62.4635 74.9359 62.4577C74.9705 62.4289 74.9993 62.3885 74.9878 62.3424C74.9878 62.3308 74.982 62.3193 74.9763 62.3077C74.9705 62.2962 74.9993 62.2847 75.0109 62.2616C75.0109 62.2212 75.0686 62.2616 74.8782 62.0885C74.8493 62.0712 74.832 62.0424 74.832 62.0135C74.832 61.8404 74.6647 61.7481 74.5955 61.6097C74.509 61.4308 74.4051 61.2635 74.307 61.0962C74.2955 61.0731 74.284 61.0501 74.2724 61.0327C74.0993 60.8193 73.909 60.6231 73.7301 60.4212C73.6782 60.3635 73.6609 60.2827 73.6551 60.1904C73.6436 60.0635 73.5974 59.9654 73.4993 59.902C73.3666 59.8154 73.407 59.6827 73.6205 59.4347C73.7532 59.2789 73.8859 59.1404 74.0705 59.0193C74.2897 58.8751 74.5263 58.7193 74.7513 58.5693C75.0051 58.4077 75.7897 57.8827 75.9916 57.9462C76.0436 57.9635 76.0955 57.9866 76.1128 58.027C76.2397 58.3385 76.482 58.5635 76.6551 58.8404C76.8051 59.0885 76.9955 59.3193 77.0878 59.602C77.1513 59.7866 77.2551 59.9597 77.4109 60.0924C77.4801 60.1501 77.6763 60.4904 77.8436 60.8481L77.907 60.9808C77.9416 61.0443 77.9647 61.1308 77.9993 61.2058C78.057 61.3558 78.1263 61.5001 78.1666 61.627C78.2474 61.8866 78.3166 62.0885 78.3282 62.1635L78.3051 62.1577Z" fill="#3B2C7D"/>
</g>
<path d="M92.1511 124.638C92.3357 124.771 92.5146 124.933 92.7165 125.083C92.7973 125.146 92.878 125.227 92.9819 125.256C93.178 125.302 93.4492 125.804 93.5357 125.763C93.5819 125.746 93.7261 125.815 93.9165 125.942C93.9627 125.977 94.0204 126.011 94.0723 126.052C94.1588 126.11 94.2742 126.185 94.3665 126.271C94.5627 126.433 94.7646 126.606 94.9723 126.779C95.1511 126.958 95.2954 127.148 95.4511 127.321C95.5838 127.5 95.6473 127.673 95.6992 127.835C95.7857 128.169 95.7627 128.452 95.7627 128.515C95.7627 128.642 95.7338 128.758 95.705 128.873C95.6819 128.988 95.6473 129.098 95.6011 129.208C95.555 129.288 95.5088 129.369 95.4338 129.444C95.3646 129.519 95.2607 129.577 95.1973 129.652C95.1569 129.744 94.8338 129.929 94.5107 130.113C94.1877 130.298 93.8011 130.436 93.6915 130.517C93.6684 130.535 93.6338 130.54 93.5992 130.535C93.5704 130.535 93.5357 130.546 93.5242 130.54C93.2761 130.558 91.7877 131.129 91.4531 131.192C91.4011 131.204 91.3492 131.221 91.3088 131.261C91.1473 131.429 89.0934 131.879 89.0704 131.988C89.0646 132.029 89.0184 132.046 88.9838 132.058C88.9261 132.075 88.8569 132.086 88.7934 132.092C88.7415 132.092 88.6954 132.115 88.6492 132.144C88.5396 132.219 88.4011 132.208 88.2684 132.185C88.2396 132.185 88.1934 132.121 88.1761 132.081L87.778 131.123V131.1C87.703 130.829 87.7261 130.535 87.9165 130.558C88.0781 130.581 88.9031 130.246 88.9896 130.24C89.1396 130.235 89.8781 129.865 90.1204 129.75C90.1838 129.733 92.0184 129.011 92.255 128.833C92.3473 128.769 92.5088 128.683 92.6588 128.613C92.705 128.596 92.7281 128.59 92.7338 128.59C92.7338 128.585 92.8434 128.538 92.9069 128.463C92.9877 128.371 92.8434 128.279 92.8319 128.285C92.8204 128.285 92.8319 128.273 92.8146 128.273C92.7569 128.273 92.7223 128.267 92.6992 128.256C92.6877 128.256 92.6819 128.244 92.6646 128.244C92.6646 128.244 92.6588 128.233 92.6588 128.227L92.5607 128.158C92.5607 128.158 92.5492 128.14 92.5377 128.14C92.2723 128.094 92.0819 127.915 91.8454 127.8C91.4704 127.615 91.078 127.431 90.68 127.206C90.5704 127.148 90.4723 127.044 90.3684 126.969C90.2415 126.871 90.1204 126.756 89.9242 126.738C89.8896 126.738 89.8607 126.721 89.8434 126.698C89.7569 126.554 89.5665 126.536 89.4396 126.433C89.278 126.294 89.1107 126.167 88.9492 126.011C88.9319 125.994 88.9146 125.971 88.8915 125.954C88.6434 125.775 88.3954 125.561 88.1704 125.325C88.1069 125.256 88.0838 125.152 88.0665 125.054C88.0377 124.915 87.98 124.806 87.8704 124.713C87.7204 124.586 87.7665 124.442 88.0377 124.252C88.205 124.136 88.3781 124.033 88.5973 123.963C88.8627 123.877 89.1281 123.767 89.3877 123.669C89.6819 123.565 90.553 123.173 90.6742 123.179C90.703 123.179 90.7319 123.19 90.7261 123.213C90.6857 123.392 90.8242 123.467 90.8992 123.588C90.9569 123.704 91.0896 123.773 91.13 123.923C91.1704 124.021 91.2569 124.085 91.3665 124.096C91.4646 124.108 92.0531 124.581 92.1627 124.644L92.1511 124.638Z" fill="#3B2C7D"/>
<path d="M235.282 139.448C235.409 139.437 235.605 139.425 235.686 139.431C235.686 139.437 235.691 139.448 235.697 139.448C235.726 139.483 235.697 139.443 235.697 139.448C235.674 139.414 235.703 139.46 235.755 139.494C235.807 139.529 235.876 139.552 235.83 139.523C235.743 139.454 235.72 139.443 235.738 139.425C235.738 139.425 235.738 139.414 235.732 139.408C235.697 139.344 235.657 139.287 235.628 139.235C235.495 139.016 235.397 138.86 235.368 138.825C235.328 138.791 235.213 138.589 235.12 138.462C235.016 138.323 234.895 138.162 234.797 138.035C234.716 137.919 234.659 137.798 234.613 137.677C234.572 137.556 234.538 137.441 234.543 137.325C234.515 137.227 234.457 136.979 234.48 136.702C234.497 136.431 234.624 136.102 234.722 135.946C234.78 135.854 234.815 135.808 234.832 135.773C234.849 135.727 234.913 135.71 234.959 135.681C235.016 135.646 235.08 135.606 235.161 135.554C235.282 135.502 235.42 135.439 235.582 135.369C235.714 135.277 235.98 135.271 236.216 135.231C236.447 135.196 236.684 135.162 236.926 135.127C237.197 135.087 237.295 135.075 237.428 135.064C237.555 135.052 237.682 135.041 237.797 135.029C238.022 135.006 238.207 134.994 238.305 134.994C238.368 134.994 238.432 134.989 238.484 134.96C238.709 134.827 241.097 134.833 241.149 134.741C241.166 134.706 241.224 134.7 241.264 134.694C241.334 134.689 241.409 134.694 241.484 134.718C241.547 134.735 241.599 134.735 241.657 134.723C241.801 134.7 241.951 134.764 242.095 134.827C242.124 134.839 242.159 134.896 242.17 134.931L242.338 135.727C242.338 135.727 242.338 135.739 242.338 135.744C242.338 135.958 242.234 136.212 242.032 136.2C241.945 136.183 241.663 136.293 241.38 136.316C241.097 136.35 240.826 136.396 240.774 136.391C240.607 136.368 239.695 136.598 239.401 136.668C239.366 136.673 238.795 136.777 238.195 136.887C238.045 136.916 237.895 136.95 237.751 136.979C237.682 136.991 237.618 137.008 237.555 137.019C237.532 137.019 237.509 137.025 237.486 137.031C237.393 137.048 237.364 137.054 237.347 137.066C237.324 137.1 237.226 137.106 237.197 137.123C237.174 137.135 237.174 137.146 237.174 137.146C237.174 137.146 237.157 137.187 237.186 137.233C237.209 137.256 237.191 137.285 237.261 137.308C237.278 137.331 237.289 137.354 237.307 137.383C237.63 137.827 237.953 138.277 238.005 138.346C238.057 138.416 238.097 138.496 238.149 138.566C238.38 138.866 238.599 139.183 238.697 139.494C238.801 139.806 238.818 140.112 238.755 140.412C238.755 140.429 238.743 140.446 238.743 140.464C238.743 140.96 238.374 141.387 238.005 141.635C237.705 141.837 237.353 141.998 236.909 142.073C236.69 142.108 236.459 142.131 236.234 142.154L235.738 142.212C235.605 142.229 235.466 142.212 235.328 142.212C235.161 142.212 234.993 142.206 234.838 142.31C234.809 142.327 234.78 142.339 234.751 142.327C234.595 142.281 234.451 142.391 234.295 142.396C234.099 142.408 233.909 142.425 233.713 142.437C233.689 142.437 233.666 142.437 233.643 142.437C233.378 142.489 233.118 142.546 232.853 142.593C232.778 142.604 232.697 142.575 232.616 142.552C232.507 142.512 232.403 142.512 232.299 142.564C232.155 142.633 232.068 142.546 231.993 142.275C231.947 142.108 231.913 141.935 231.924 141.744C231.93 141.508 231.936 141.266 231.941 141.029C231.953 140.764 231.953 139.944 232.074 139.846C232.103 139.823 232.143 139.794 232.172 139.806C232.426 139.898 232.663 139.794 232.905 139.783C233.124 139.771 233.338 139.714 233.563 139.737C233.707 139.754 233.863 139.731 233.995 139.644C234.116 139.558 235.155 139.471 235.293 139.46L235.282 139.448Z" fill="#3B2C7D"/>
<g opacity="0.45">
<path d="M190.896 173.123C190.862 173.204 190.81 173.296 190.781 173.406C190.775 173.452 190.746 173.504 190.781 173.55C190.839 173.625 190.625 173.908 190.712 173.925C190.752 173.925 190.787 174.006 190.833 174.115C190.856 174.173 190.879 174.231 190.908 174.3C190.925 174.335 190.937 174.369 190.954 174.404C190.954 174.404 191 174.49 191.029 174.531C191.052 174.589 191.092 174.64 191.127 174.692C191.41 175.119 191.6 175.546 191.646 175.864C191.692 176.181 191.664 176.406 191.664 176.469C191.675 176.585 191.623 176.689 191.606 176.804C191.566 176.914 191.542 177.029 191.491 177.133C191.444 177.214 191.392 177.289 191.329 177.358C191.271 177.427 191.185 177.473 191.121 177.537C191.069 177.612 190.85 177.773 190.596 177.877C190.348 177.998 190.025 178.033 189.921 178.062C189.881 178.079 189.806 178.05 189.742 178.015C189.633 177.992 189.385 177.981 189.062 177.929C188.9 177.906 188.721 177.883 188.537 177.86C188.439 177.842 188.335 177.825 188.237 177.808C187.827 177.739 187.4 177.681 187.256 177.64C187.21 177.629 187.158 177.623 187.112 177.64C186.921 177.698 185.098 177.289 185.035 177.387C185.017 177.415 184.971 177.415 184.942 177.415C184.885 177.41 184.827 177.398 184.775 177.375C184.729 177.358 184.689 177.358 184.642 177.375C184.527 177.398 184.417 177.34 184.314 177.271C184.291 177.254 184.273 177.19 184.273 177.15L184.262 176.21V176.187C184.296 175.939 184.417 175.69 184.573 175.777C184.7 175.846 185.519 175.858 185.594 175.887C185.721 175.933 186.483 175.898 186.731 175.898C186.76 175.898 187.233 175.933 187.723 175.967C187.971 175.979 188.225 175.996 188.433 176.008C188.525 176.008 188.612 176.008 188.675 176.014C188.692 176.014 188.71 176.014 188.716 176.014C188.767 176.014 188.854 175.99 188.871 176.002C188.871 176.002 188.992 176.002 189.021 175.898C189.039 175.789 188.935 175.714 188.929 175.708C188.923 175.708 188.929 175.696 188.917 175.69C188.866 175.667 188.854 175.69 188.814 175.633C188.692 175.448 188.6 175.252 188.531 175.044C188.531 175.033 188.531 175.015 188.519 175.01C188.317 174.733 188.283 174.387 188.219 174.058C188.121 173.527 188.127 172.95 188.289 172.379C188.335 172.217 188.421 172.067 188.508 171.917C188.612 171.733 188.739 171.571 188.791 171.346C188.802 171.312 188.819 171.271 188.848 171.254C189.01 171.139 189.073 170.937 189.217 170.804C189.396 170.637 189.598 170.487 189.817 170.36C189.846 170.342 189.875 170.337 189.898 170.319C190.187 170.129 190.51 169.967 190.873 169.875C190.977 169.852 191.092 169.864 191.202 169.892C191.358 169.927 191.496 169.933 191.652 169.898C191.866 169.846 191.981 169.973 191.992 170.244C192.004 170.417 191.992 170.585 191.923 170.764C191.848 170.983 191.796 171.214 191.739 171.439C191.669 171.687 191.548 172.465 191.531 172.564C191.525 172.587 191.519 172.604 191.514 172.592C191.462 172.489 191.398 172.581 191.341 172.592C191.277 172.604 191.237 172.679 191.156 172.679C191.104 172.679 191.058 172.725 191.064 172.8C191.052 172.869 190.873 173.112 190.885 173.146L190.896 173.123Z" fill="#3B2C7D"/>
</g>
<path d="M98.8681 84.6634C98.8681 87.2653 95.1816 87.3807 94.5989 85.021C93.8546 82.0037 98.8623 81.646 98.8681 84.6634Z" fill="#3B2C7D"/>
<path d="M197.688 120.127C197.688 122.729 194.002 122.844 193.419 120.484C192.675 117.467 197.683 117.109 197.688 120.127Z" fill="#3B2C7D"/>
<path opacity="0.45" d="M262.36 118.061C262.36 120.663 258.674 120.779 258.091 118.419C257.347 115.402 262.355 115.044 262.36 118.061Z" fill="#3B2C7D"/>
<path d="M203.82 138.11C203.82 140.273 200.756 140.365 200.277 138.41C199.66 135.906 203.82 135.606 203.82 138.11Z" fill="#3B2C7D"/>
<path opacity="0.65" d="M122.015 119.775C122.015 121.939 118.951 122.031 118.473 120.075C117.855 117.571 122.015 117.271 122.015 119.775Z" fill="#3B2C7D"/>
<path d="M127.961 45.6403C128.013 47.2961 127.038 48.9403 124.794 48.9403C121.28 48.9403 120.357 43.4538 123.894 42.4557C126.409 41.7461 127.898 43.6961 127.961 45.6403Z" fill="#3B2C7D"/>
<path d="M235.879 189.992C235.931 191.648 234.956 193.292 232.712 193.292C229.198 193.292 228.275 187.806 231.812 186.808C234.327 186.098 235.816 188.048 235.879 189.992Z" fill="#3B2C7D"/>
<path d="M249.677 63.7271C249.44 63.7387 249.307 63.5194 249.227 63.1906C249.204 63.0867 249.284 62.8156 249.359 62.7867C249.504 62.7406 249.648 62.6887 249.786 62.6598C249.873 62.6483 251.131 62.7291 251.563 62.7233C251.984 62.7233 252.394 62.7637 252.792 62.8444L255.227 63.329C255.406 63.3637 255.579 63.4271 255.752 63.5021C256.329 63.7791 256.94 63.9291 257.563 64.0214C257.667 64.0387 257.771 64.0733 257.886 64.0214C258.082 63.9291 259.756 64.281 259.957 64.3964C260.448 64.6733 260.956 64.8983 261.457 65.1579C261.527 65.1925 261.619 65.181 261.659 65.3021C261.752 65.5848 261.931 65.5848 262.086 65.6425C262.306 65.7233 262.525 65.8214 262.732 65.9598C262.836 66.0291 262.906 66.2021 262.986 66.3521C263.056 66.4848 262.894 66.8598 262.848 66.8887C262.709 66.981 262.744 67.1887 262.709 67.3502C262.698 67.4079 262.681 67.4771 262.663 67.5175C262.623 67.6214 261.152 67.8694 261.013 67.8117C260.996 67.8117 260.506 67.7021 259.986 67.5925C259.473 67.4829 258.931 67.3675 258.821 67.356C258.706 67.3444 258.607 67.2521 258.504 67.1829C258.452 67.1541 256.9 66.8425 256.842 66.8137C256.536 66.6867 256.202 66.6579 255.942 66.3752C255.89 66.3175 255.827 66.306 255.763 66.2944C255.221 66.1502 254.702 65.9021 254.177 65.6887C253.911 65.5791 253.629 65.5098 253.357 65.4233C253.306 65.406 253.265 65.3656 253.219 65.3367C253.161 65.3021 253.104 65.2617 253.04 65.2444C252.711 65.1464 252.394 65.0252 252.071 64.9098C251.754 64.7829 251.431 64.6617 251.102 64.5752C250.952 64.5291 250.288 64.1137 250.109 64.0791C250.011 64.0502 249.757 63.7329 249.659 63.7444L249.677 63.7271Z" fill="#3B2C7D"/>
<path d="M251.762 58.5229C251.652 58.719 251.41 58.5748 251.069 58.2575C250.96 58.1537 250.752 57.7787 250.775 57.6979C250.816 57.5421 250.862 57.3806 250.925 57.2537C250.96 57.1614 251.871 56.4517 252.177 56.2037C252.471 55.9556 252.8 55.794 253.129 55.6325C253.798 55.3267 254.462 55.0094 255.125 54.7152C255.275 54.6517 255.431 54.6114 255.593 54.594C256.152 54.5364 256.666 54.3402 257.15 54.0864C257.231 54.046 257.323 54.0229 257.369 53.9075C257.462 53.7229 258.777 53.1287 258.973 53.1287C259.464 53.1229 259.931 53.0479 260.398 52.9844C260.468 52.9787 260.514 52.9152 260.612 52.9902C260.843 53.1633 260.946 53.0594 261.085 53.019C261.275 52.9671 261.46 52.8979 261.673 52.9037C261.783 52.9037 261.933 52.9902 262.077 53.0421C262.204 53.094 262.337 53.4229 262.331 53.469C262.302 53.6133 262.452 53.7229 262.533 53.8498C262.562 53.8902 262.596 53.9479 262.614 53.9825C262.625 54.0171 262.464 54.3633 262.244 54.6748C262.025 54.9748 261.777 55.269 261.714 55.2979C261.685 55.3152 260.133 56.1979 259.943 56.3075C259.85 56.3652 259.729 56.3479 259.619 56.3479C259.568 56.3537 258.31 56.9825 258.258 56.9883C257.975 57.0517 257.733 57.219 257.393 57.1152C257.323 57.0921 257.271 57.121 257.219 57.144C256.764 57.3229 256.273 57.3979 255.8 57.5017C255.558 57.5537 255.333 57.6575 255.096 57.7383C255.056 57.7498 255.004 57.7383 254.958 57.7383C254.9 57.7383 254.837 57.7383 254.785 57.7556C254.243 57.9633 253.66 58.0671 253.164 58.3498C253.048 58.4133 252.385 58.4537 252.264 58.546C252.194 58.5921 251.808 58.4364 251.768 58.5171L251.762 58.5229Z" fill="#3B2C7D"/>
<path d="M249.744 52.9098C249.836 53.0829 249.548 53.129 249.046 53.1117C248.884 53.1059 248.429 52.979 248.371 52.9213C248.261 52.8059 248.157 52.6963 248.088 52.5867C248.048 52.5232 247.984 51.6636 247.938 51.3579C247.892 51.0636 247.932 50.7925 247.984 50.5271C248.094 49.9848 248.18 49.4367 248.302 48.8944C248.325 48.7732 248.382 48.6636 248.463 48.5598C248.746 48.2136 248.896 47.8213 248.971 47.4059C248.982 47.3367 249.023 47.2732 248.954 47.1809C248.838 47.0252 249.202 45.9406 249.323 45.8309C249.611 45.5482 249.877 45.2598 250.159 44.9771C250.2 44.9367 250.188 44.8732 250.315 44.8732C250.604 44.8732 250.609 44.7521 250.673 44.654C250.759 44.5213 250.863 44.3944 251.002 44.2848C251.071 44.2329 251.238 44.2156 251.377 44.1925C251.504 44.1694 251.838 44.3482 251.867 44.3886C251.954 44.4982 252.138 44.5156 252.288 44.5732C252.34 44.5906 252.404 44.6136 252.444 44.6367C252.525 44.6829 252.848 45.7444 252.819 45.8309C252.819 45.854 252.611 47.1002 252.588 47.2617C252.588 47.3425 252.502 47.3886 252.438 47.4463C252.404 47.4752 252.265 48.4848 252.248 48.5194C252.15 48.704 252.173 48.929 251.884 49.0502C251.827 49.0732 251.827 49.1194 251.815 49.1598C251.746 49.5117 251.504 49.8117 251.325 50.129C251.232 50.2906 251.198 50.4694 251.129 50.6425C251.117 50.6713 251.071 50.6944 251.048 50.7232C251.013 50.7579 250.973 50.7867 250.961 50.8271C250.834 51.2425 250.575 51.6175 250.517 52.0559C250.5 52.154 250.119 52.5463 250.113 52.6617C250.113 52.7252 249.721 52.8406 249.755 52.9098H249.744Z" fill="#3B2C7D"/>
</svg>
