<svg width="300" height="300" viewBox="0 0 300 300" fill="none" xmlns="http://www.w3.org/2000/svg">
<path d="M39.2326 211.731C39.3018 185.608 39.3691 159.486 39.4345 133.367L68.1768 133.431H106.19L240.198 133.834L260.05 133.863C260.05 147.709 260.079 161.556 260.096 175.275C260.154 200.544 260.344 225.917 260.061 251.169C259.888 266.913 257.356 246.946 257.333 217.829V176.331C257.356 163.061 257.381 149.792 257.408 136.523L223.104 136.384L186.971 136.154C155.863 135.934 123.475 136.05 91.646 135.992L41.9787 135.894C41.9441 153.586 41.9076 171.296 41.8691 189.023C41.823 210.561 41.7806 232.1 41.7422 253.638V257.954L133.473 258.035C158.644 258.006 183.313 257.827 208.196 257.711L224.558 257.619C245.038 257.579 251.552 257.752 255.954 258.45C256.952 258.611 258.261 258.767 258.838 258.929C260.806 259.471 252.458 259.915 237.463 260.083C192.983 260.556 146.073 260.625 99.0018 260.631L39.1172 260.573C39.1172 244.319 39.1364 228.046 39.1749 211.754L39.2326 211.731Z" fill="#3B2C7D"/>
<path d="M68.1257 244.414L110.31 244.644H125.697L179.928 245.002C187.947 245.048 196.018 245.002 203.974 245.002C214.203 244.95 224.472 244.783 234.689 245.002C241.064 245.158 232.958 247.391 221.195 247.414C200.31 247.448 179.437 247.35 158.38 247.033C145.791 246.842 132.683 246.941 119.801 246.894L77.3104 246.727L53.0796 246.629V243.167C53.12 229.967 53.1892 216.704 53.1546 203.602C53.1546 193.414 52.97 183.41 52.8661 173.36C52.8661 171.144 52.8142 168.975 52.7911 166.737C52.7507 158.446 52.9065 155.81 53.5238 154.044C53.6354 153.65 53.7762 153.264 53.945 152.891C54.4181 152.094 54.8161 155.475 54.9546 161.544C55.37 179.55 55.4277 198.537 55.4334 217.592C55.4334 226.496 55.4161 235.417 55.3815 244.356L68.1142 244.396L68.1257 244.414Z" fill="#3B2C7D"/>
<path d="M235.916 149.192L193.356 148.956H177.831L123.11 148.598C115.033 148.558 106.881 148.598 98.8792 148.598C88.5638 148.644 78.2023 148.811 67.8926 148.563C61.46 148.413 69.6234 146.181 81.508 146.158C102.577 146.117 123.623 146.215 144.877 146.533C157.57 146.723 170.804 146.625 183.802 146.671L226.679 146.861L246.981 146.948C246.981 149.506 246.981 152.059 246.981 154.609C246.941 167.925 246.872 181.309 246.906 194.527C246.906 204.808 247.091 214.881 247.195 225.04C247.195 227.279 247.247 229.465 247.27 231.721C247.31 240.086 247.154 242.746 246.537 244.54C246.427 244.946 246.286 245.344 246.116 245.729C245.643 246.531 245.245 243.121 245.106 237C244.691 218.833 244.633 199.684 244.627 180.461C244.65 170.077 244.672 159.681 244.691 149.273H235.985L235.916 149.192Z" fill="#3B2C7D"/>
<path d="M228.652 178.269C228.612 178.889 228.523 179.504 228.387 180.11C227.366 189.617 219.439 195.317 213.173 195.317C205.148 195.317 198.641 187.915 198.641 178.783C198.641 169.65 205.148 162.248 213.173 162.248C220.91 162.231 228.208 169.54 228.652 178.269Z" fill="#3B2C7D"/>
<path d="M202.786 169.615C200.985 172.259 199.983 175.366 199.901 178.565C199.819 181.763 200.661 184.917 202.325 187.65C203.082 188.945 204.038 190.113 205.157 191.112C207.376 193.15 210.262 194.309 213.275 194.371C214.78 194.369 216.271 194.075 217.665 193.506C218.924 192.991 220.109 192.312 221.19 191.487C222.263 190.644 223.232 189.675 224.075 188.602C225.115 187.215 225.934 185.676 226.503 184.039C226.791 183.224 227.034 182.394 227.23 181.552L227.467 180.271L227.536 179.937C227.556 179.805 227.583 179.674 227.617 179.544C227.675 179.296 227.738 179.077 227.796 178.881C227.923 178.419 228.05 178.304 228.286 178.263C228.523 178.223 228.863 178.517 229.03 179.094C229.128 179.371 229.192 179.706 229.278 180C229.278 180.081 229.325 180.133 229.348 180.225L229.4 180.519C229.428 180.721 229.452 180.94 229.475 181.165C229.561 182.199 229.444 183.24 229.128 184.229C227.88 188.149 225.35 191.536 221.946 193.846C220.254 195.006 218.36 195.837 216.361 196.298C215.343 196.529 214.301 196.64 213.257 196.627C212.738 196.598 212.225 196.54 211.717 196.494C211.209 196.448 210.702 196.292 210.2 196.194C207.813 195.553 205.599 194.387 203.721 192.78C201.844 191.172 200.349 189.165 199.348 186.906C198.268 184.465 197.702 181.829 197.684 179.16C197.666 176.491 198.197 173.847 199.244 171.392C199.561 170.641 199.929 169.913 200.346 169.212C200.769 168.514 201.242 167.847 201.759 167.215C202.274 166.581 202.831 165.981 203.427 165.421L204.367 164.631C204.694 164.37 205.034 164.127 205.388 163.904C205.905 163.559 206.442 163.247 206.998 162.969C207.575 162.692 208.152 162.479 208.728 162.254C210.497 161.675 212.363 161.452 214.219 161.597C216.075 161.743 217.883 162.254 219.54 163.102C222.951 164.773 225.769 167.446 227.617 170.763C227.807 171.138 228.038 171.485 228.194 171.865C228.35 172.246 228.534 172.627 228.696 173.019C228.921 173.64 229.114 174.271 229.273 174.912C229.352 175.356 229.404 175.805 229.428 176.256C229.469 176.796 229.313 177.333 228.99 177.767C228.882 177.931 228.755 178.08 228.609 178.212C228.39 178.367 228.148 178.148 227.923 177.635C227.791 177.329 227.681 177.015 227.594 176.694C227.432 176.272 227.295 175.84 227.184 175.402C226.707 173.966 226.071 172.588 225.286 171.294C224.47 170.007 223.502 168.823 222.402 167.769C220.219 165.635 217.403 164.266 214.377 163.869C213.828 163.814 213.277 163.803 212.727 163.835C212.45 163.835 212.15 163.835 211.896 163.881L211.077 164.019L210.667 164.094L210.263 164.21L209.461 164.435L208.688 164.752L208.296 164.908L207.927 165.11L207.182 165.508C206.946 165.658 206.715 165.825 206.484 165.981C206.015 166.301 205.568 166.652 205.146 167.031C204.304 167.808 203.556 168.681 202.919 169.633L202.786 169.615Z" fill="#3B2C7D"/>
<path d="M211.7 153.081C211.584 153.029 211.746 152.948 212.069 152.781C212.219 152.708 212.378 152.658 212.542 152.631C212.64 152.647 212.735 152.677 212.825 152.717C212.973 152.901 213.109 153.094 213.234 153.294C213.317 153.418 213.372 153.557 213.396 153.704L213.598 154.569C213.615 154.636 213.615 154.705 213.598 154.771C213.549 154.994 213.565 155.226 213.644 155.44C213.644 155.481 213.644 155.515 213.713 155.544C213.782 155.573 213.927 156.179 213.898 156.265C213.844 156.469 213.802 156.675 213.771 156.883C213.771 156.883 213.771 156.94 213.73 156.975C213.69 157.01 213.638 157.114 213.638 157.177C213.64 157.265 213.628 157.352 213.604 157.437C213.604 157.483 213.517 157.535 213.459 157.587C213.37 157.632 213.271 157.654 213.171 157.65C213.096 157.621 213.004 157.65 212.917 157.69H212.825C212.631 157.571 212.457 157.421 212.311 157.246C212.311 157.246 212.242 157.073 212.179 156.894C212.13 156.761 212.074 156.63 212.011 156.502C212.011 156.462 212.011 156.415 212.011 156.369C212.011 156.323 211.786 155.827 211.78 155.792C211.78 155.677 211.694 155.579 211.78 155.44C211.786 155.43 211.789 155.418 211.789 155.406C211.789 155.394 211.786 155.382 211.78 155.371C211.733 155.183 211.709 154.989 211.711 154.794C211.696 154.695 211.675 154.597 211.648 154.5C211.648 154.5 211.648 154.46 211.648 154.442C211.653 154.418 211.653 154.392 211.648 154.367C211.616 154.131 211.56 153.899 211.48 153.675C211.48 153.623 211.55 153.34 211.515 153.283C211.48 153.225 211.734 153.098 211.7 153.081Z" fill="#3B2C7D"/>
<path d="M190.847 163.39C190.737 163.454 190.737 163.257 190.801 162.911C190.839 162.748 190.899 162.591 190.98 162.444C191.046 162.375 191.117 162.312 191.193 162.254C191.233 162.254 191.701 162.254 191.862 162.219C192.011 162.213 192.159 162.241 192.295 162.3C192.572 162.404 192.872 162.484 193.132 162.582C193.195 162.608 193.252 162.647 193.299 162.698C193.459 162.853 193.658 162.961 193.876 163.009C193.916 163.009 193.945 163.038 193.997 163.009C194.049 162.981 194.655 163.159 194.712 163.229C194.862 163.39 195.024 163.517 195.18 163.656C195.18 163.656 195.237 163.656 195.237 163.736C195.237 163.892 195.312 163.892 195.364 163.921C195.442 163.965 195.513 164.021 195.572 164.088C195.602 164.152 195.621 164.22 195.63 164.29C195.619 164.389 195.585 164.484 195.532 164.567C195.468 164.619 195.462 164.723 195.439 164.809L195.405 164.896C195.199 164.999 194.979 165.071 194.753 165.109C194.753 165.109 194.037 164.971 193.957 164.971C193.876 164.971 193.882 164.925 193.847 164.896C193.812 164.867 193.27 164.804 193.241 164.798C193.137 164.74 193.005 164.757 192.941 164.596C192.936 164.585 192.928 164.576 192.918 164.569C192.908 164.563 192.896 164.56 192.883 164.561C192.69 164.501 192.505 164.413 192.335 164.302C192.239 164.263 192.141 164.23 192.041 164.204C192.041 164.204 192.041 164.169 192.001 164.157C191.96 164.146 191.966 164.111 191.943 164.106C191.722 164.006 191.492 163.927 191.257 163.869C191.199 163.869 191.003 163.627 190.934 163.627C190.864 163.627 190.887 163.361 190.847 163.39Z" fill="#3B2C7D"/>
<path d="M188.037 183.127C187.985 183.242 187.875 183.081 187.748 182.746C187.691 182.588 187.656 182.423 187.645 182.256C187.661 182.166 187.684 182.077 187.714 181.99C187.872 181.85 188.037 181.719 188.21 181.598C188.321 181.512 188.449 181.451 188.585 181.419C188.85 181.35 189.116 181.258 189.381 181.177C189.446 181.162 189.513 181.162 189.577 181.177C189.793 181.214 190.015 181.182 190.212 181.085C190.246 181.085 190.287 181.085 190.304 181.01C190.321 180.935 190.881 180.75 190.973 180.767C191.176 180.803 191.38 180.828 191.585 180.842C191.614 180.842 191.631 180.842 191.671 180.871C191.712 180.9 191.816 180.952 191.879 180.946C191.963 180.932 192.049 180.932 192.133 180.946C192.179 180.946 192.237 181.027 192.295 181.079C192.349 181.162 192.38 181.257 192.387 181.356C192.387 181.431 192.427 181.517 192.456 181.604L192.485 181.69C192.392 181.902 192.266 182.097 192.11 182.267L191.787 182.435C191.62 182.515 191.452 182.608 191.418 182.631C191.383 182.654 191.331 182.631 191.291 182.631C191.25 182.631 190.783 182.908 190.76 182.908C190.645 182.908 190.552 183.011 190.408 182.908C190.379 182.908 190.362 182.908 190.339 182.908C190.153 182.973 189.959 183.01 189.762 183.017C189.663 183.038 189.567 183.067 189.473 183.104C189.473 183.104 189.433 183.104 189.416 183.104C189.391 183.095 189.365 183.095 189.341 183.104C189.108 183.145 188.88 183.209 188.66 183.294C188.608 183.329 188.314 183.236 188.256 183.294C188.198 183.352 188.077 183.081 188.037 183.127Z" fill="#3B2C7D"/>
<path d="M196.022 199.229C196.115 199.292 195.93 199.298 195.572 199.332C195.404 199.341 195.236 199.329 195.071 199.298C194.989 199.247 194.913 199.187 194.846 199.119C194.785 198.877 194.752 198.63 194.747 198.381C194.739 198.228 194.769 198.075 194.834 197.936C194.944 197.654 195.047 197.394 195.169 197.134C195.198 197.076 195.241 197.026 195.296 196.99C195.466 196.858 195.596 196.68 195.671 196.477C195.671 196.442 195.705 196.413 195.671 196.361C195.636 196.309 195.913 195.784 195.988 195.738C196.167 195.64 196.317 195.519 196.478 195.409C196.478 195.409 196.478 195.357 196.565 195.375C196.651 195.392 196.721 195.375 196.761 195.306C196.816 195.244 196.883 195.193 196.957 195.156C197.024 195.147 197.092 195.147 197.159 195.156C197.253 195.189 197.338 195.245 197.407 195.317C197.447 195.386 197.546 195.415 197.621 195.461L197.696 195.513C197.761 195.715 197.796 195.925 197.799 196.136L197.684 196.442C197.639 196.559 197.601 196.679 197.569 196.8C197.569 196.84 197.517 196.852 197.482 196.875C197.421 197.041 197.369 197.211 197.326 197.382C197.263 197.457 197.269 197.573 197.107 197.602C197.078 197.602 197.072 197.602 197.067 197.648C196.998 197.801 196.907 197.943 196.796 198.069C196.753 198.142 196.718 198.219 196.692 198.3C196.692 198.3 196.663 198.3 196.646 198.334C196.628 198.369 196.605 198.334 196.599 198.375C196.536 198.559 196.397 198.721 196.403 198.906C196.403 198.952 196.201 199.09 196.219 199.136C196.236 199.182 195.982 199.2 196.022 199.229Z" fill="#3B2C7D"/>
<path d="M212.65 203.371C212.753 203.406 212.58 203.469 212.246 203.584C212.084 203.632 211.918 203.663 211.75 203.677C211.661 203.661 211.574 203.636 211.49 203.602C211.367 203.435 211.255 203.259 211.155 203.077C211.096 202.967 211.064 202.844 211.063 202.719C211.063 202.477 211.063 202.24 211.063 202.009C211.059 201.954 211.076 201.899 211.109 201.854C211.202 201.695 211.236 201.51 211.207 201.329C211.207 201.3 211.207 201.265 211.161 201.236C211.115 201.208 211.098 200.711 211.161 200.659C211.225 200.608 211.34 200.365 211.426 200.221C211.426 200.221 211.426 200.175 211.484 200.158C211.542 200.14 211.605 200.071 211.623 200.025C211.64 199.956 211.674 199.893 211.721 199.84C211.721 199.806 211.83 199.783 211.894 199.754C211.991 199.735 212.091 199.735 212.188 199.754C212.272 199.769 212.358 199.769 212.442 199.754H212.534C212.691 199.871 212.826 200.016 212.932 200.181L212.984 200.463C213.013 200.608 213.042 200.752 213.053 200.781C213.065 200.809 213.053 200.844 213.013 200.873C212.973 200.902 213.117 201.311 213.111 201.329C213.105 201.346 213.151 201.502 213.024 201.583C212.996 201.583 213.024 201.617 213.024 201.634C213.031 201.785 213.012 201.935 212.967 202.079C212.961 202.154 212.961 202.229 212.967 202.304C212.967 202.304 212.967 202.304 212.967 202.344C212.967 202.384 212.967 202.379 212.967 202.396C212.967 202.569 212.926 202.748 213.001 202.909C213.001 202.95 212.875 203.14 212.903 203.175C212.932 203.209 212.603 203.359 212.65 203.371Z" fill="#3B2C7D"/>
<path d="M229.98 196.731C230.096 196.731 229.951 196.875 229.634 197.036C229.48 197.103 229.322 197.159 229.161 197.204H228.901C228.765 197.128 228.632 197.045 228.503 196.956C228.416 196.905 228.348 196.828 228.307 196.736C228.215 196.563 228.099 196.396 227.996 196.223C227.971 196.179 227.96 196.129 227.967 196.079C227.972 195.997 227.96 195.915 227.931 195.838C227.902 195.762 227.857 195.692 227.799 195.634C227.792 195.619 227.779 195.606 227.763 195.599C227.748 195.591 227.73 195.59 227.713 195.594C227.621 195.594 227.396 195.242 227.396 195.173C227.407 195.012 227.407 194.85 227.396 194.688C227.396 194.688 227.367 194.659 227.396 194.607C227.424 194.556 227.448 194.475 227.436 194.429C227.409 194.367 227.397 194.3 227.401 194.232C227.425 194.173 227.456 194.117 227.494 194.065C227.563 193.995 227.643 193.937 227.73 193.892C227.805 193.892 227.874 193.806 227.944 193.748L228.019 193.696C228.215 193.694 228.41 193.725 228.596 193.788L228.803 193.984C228.882 194.062 228.965 194.135 229.051 194.204C229.08 194.204 229.051 194.267 229.051 194.302C229.051 194.336 229.386 194.607 229.392 194.625C229.398 194.642 229.524 194.752 229.461 194.896C229.455 194.903 229.452 194.912 229.452 194.922C229.452 194.931 229.455 194.941 229.461 194.948C229.552 195.074 229.617 195.217 229.651 195.369C229.684 195.441 229.725 195.508 229.773 195.571C229.773 195.571 229.773 195.606 229.773 195.623C229.77 195.642 229.77 195.661 229.773 195.681C229.882 195.836 229.905 196.032 230.049 196.182C230.084 196.211 230.049 196.477 230.049 196.511C230.049 196.546 229.934 196.731 229.98 196.731Z" fill="#3B2C7D"/>
<path d="M232.923 161.988C232.93 161.976 232.94 161.966 232.952 161.959C232.964 161.952 232.978 161.948 232.992 161.948C233.039 161.953 233.082 161.976 233.113 162.011C233.204 162.117 233.25 162.254 233.24 162.392C233.24 162.502 233.153 162.836 233.153 162.888C233.139 162.975 233.16 163.065 233.211 163.136C233.211 163.136 233.211 163.217 233.165 163.281L233.021 163.506C232.959 163.597 232.876 163.673 232.778 163.725C232.582 163.84 232.386 163.985 232.202 164.123C232.153 164.153 232.097 164.171 232.04 164.175C231.846 164.196 231.666 164.286 231.532 164.429C231.532 164.429 231.475 164.463 231.48 164.521C231.486 164.579 231.077 164.919 231.002 164.931C230.817 164.955 230.634 164.99 230.453 165.035C230.425 165.035 230.419 165.075 230.367 165.035C230.315 164.994 230.211 165 230.165 165.035C230.095 165.071 230.019 165.092 229.94 165.098C229.873 165.088 229.809 165.067 229.75 165.035C229.674 164.97 229.612 164.892 229.565 164.804C229.565 164.729 229.467 164.671 229.409 164.602L229.352 164.527C229.352 164.314 229.391 164.103 229.467 163.904C229.467 163.904 229.571 163.777 229.686 163.65C229.775 163.557 229.858 163.459 229.934 163.356C229.934 163.321 230.003 163.327 230.05 163.321C230.096 163.315 230.396 162.917 230.419 162.906C230.442 162.894 230.563 162.75 230.719 162.79C230.753 162.79 230.765 162.79 230.782 162.79C230.928 162.68 231.09 162.59 231.261 162.525C231.343 162.48 231.42 162.428 231.492 162.369C231.492 162.369 231.532 162.369 231.55 162.369C231.572 162.376 231.596 162.376 231.619 162.369C231.819 162.261 232.012 162.139 232.196 162.006C232.23 161.965 232.571 162.006 232.623 161.936C232.675 161.867 232.9 162.035 232.923 161.988Z" fill="#3B2C7D"/>
<path d="M236.984 178.483C237.059 178.39 237.099 178.575 237.116 178.927C237.117 179.093 237.104 179.259 237.076 179.423C237.036 179.515 236.995 179.602 236.961 179.665C236.814 179.755 236.661 179.836 236.505 179.908C236.406 179.962 236.294 179.986 236.182 179.977C235.962 179.977 235.743 179.977 235.518 179.977C235.465 179.979 235.413 179.965 235.368 179.936C235.217 179.842 235.035 179.81 234.861 179.85C234.861 179.85 234.803 179.85 234.774 179.902C234.745 179.954 234.266 179.988 234.197 179.954C234.052 179.862 233.899 179.783 233.741 179.717C233.741 179.717 233.701 179.717 233.678 179.665C233.655 179.613 233.586 179.544 233.539 179.538C233.47 179.524 233.403 179.496 233.343 179.458C233.309 179.458 233.28 179.354 233.245 179.29C233.226 179.193 233.226 179.093 233.245 178.996C233.262 178.91 233.262 178.822 233.245 178.736V178.644C233.355 178.479 233.492 178.332 233.649 178.211L233.937 178.142L234.266 178.05C234.295 178.05 234.33 178.05 234.364 178.084C234.399 178.119 234.814 177.958 234.832 177.963C234.849 177.969 235.011 177.917 235.103 178.044C235.103 178.044 235.137 178.044 235.155 178.044C235.314 178.035 235.474 178.053 235.628 178.096C235.707 178.102 235.786 178.102 235.864 178.096C235.864 178.096 235.899 178.096 235.911 178.125C235.922 178.154 235.945 178.125 235.962 178.125C236.154 178.148 236.348 178.148 236.539 178.125C236.586 178.125 236.793 178.275 236.845 178.258C236.897 178.24 236.955 178.517 236.984 178.483Z" fill="#3B2C7D"/>
<path d="M168.878 46.8345C167.375 45.2558 165.552 44.0166 163.53 43.1999C162.514 42.8134 161.46 42.5312 160.386 42.3576C159.3 42.1911 158.201 42.1312 157.103 42.1788C154.87 42.2808 152.667 42.7404 150.578 43.5403C148.488 44.308 146.539 45.4152 144.809 46.8172C144.341 47.2047 143.905 47.6291 143.505 48.0865C143.318 48.3123 143.145 48.5492 142.986 48.7961L142.871 48.9865C142.819 49.0719 142.773 49.1605 142.732 49.2519L142.369 50.0365H141.682L141.105 50.0769L140.355 50.1576C139.859 50.2211 139.357 50.2903 138.861 50.3768C137.869 50.5499 136.882 50.7692 135.913 51.0403C133.124 51.7742 130.508 53.0547 128.217 54.8076C127.099 55.6828 126.106 56.7056 125.263 57.848C124.43 59.0017 123.769 60.2708 123.302 61.6153C122.395 64.3646 122.1 67.2786 122.436 70.1538C122.477 70.8807 122.615 71.6019 122.725 72.323L122.805 72.8653V73.0038V73.223C122.826 73.3626 122.826 73.5045 122.805 73.6442C122.712 74.1092 122.515 74.5471 122.228 74.9249C121.747 75.5485 121.21 76.1278 120.625 76.6557L118.986 78.1788C117.082 79.9615 115.311 81.9288 114.452 84.2999C114.025 85.4677 113.842 86.7107 113.915 87.9519C114.036 89.2136 114.32 90.4546 114.757 91.6442C115.842 94.7711 117.405 97.7826 118.738 100.921C119.438 102.5 120.017 104.129 120.469 105.796C120.884 107.475 121.167 109.333 120.584 111.15C120.465 111.574 120.257 111.967 119.973 112.304C119.782 112.506 119.667 112.558 119.603 112.494C119.54 112.431 119.644 111.808 119.696 110.948C119.733 109.793 119.573 108.64 119.223 107.538C118.836 106.16 118.196 104.556 117.492 102.79C116.228 99.6519 114.659 96.5711 113.419 93.2422C112.726 91.5272 112.302 89.7155 112.161 87.8711C112.103 85.9382 112.555 84.0242 113.471 82.3211C114.359 80.7081 115.487 79.2394 116.817 77.9653C118.063 76.7019 119.459 75.5769 120.532 74.423C120.759 74.1801 120.953 73.9086 121.109 73.6153C121.143 73.5409 121.17 73.4637 121.19 73.3845V73.3095L121.138 72.9749C121.017 72.0922 120.85 71.2442 120.803 70.3153C120.63 68.5173 120.665 66.7053 120.907 64.9153C121.192 62.7257 121.878 60.6075 122.932 58.6672C124.013 56.7041 125.481 54.9809 127.248 53.6019C128.995 52.2333 130.941 51.1382 133.017 50.3538C135.064 49.5704 137.193 49.0208 139.363 48.7153C139.761 48.6576 140.159 48.6057 140.557 48.5711L141.134 48.5192H141.33C141.33 48.4845 141.371 48.4384 141.394 48.4038C141.402 48.3755 141.414 48.3484 141.428 48.323L141.544 48.1384L141.775 47.7749L142.046 47.423C142.394 46.9684 142.78 46.5439 143.2 46.1538C144.026 45.3984 144.92 44.7206 145.871 44.1288C147.756 42.9629 149.792 42.0622 151.923 41.4518C154.056 40.8336 156.273 40.5514 158.494 40.6153C159.608 40.6498 160.717 40.7889 161.805 41.0307C162.342 41.1807 162.89 41.2903 163.415 41.4922L164.205 41.7692L164.973 42.1095C166.682 42.8921 168.243 43.9636 169.588 45.2769C169.933 45.5918 170.257 45.9291 170.557 46.2865C170.875 46.6257 171.172 46.9841 171.446 47.3595C171.735 47.7188 172.007 48.0923 172.259 48.4788L172.836 49.3384H173.309C173.588 49.3211 173.867 49.3211 174.146 49.3384C174.428 49.3384 174.723 49.3384 174.982 49.3384L175.819 49.4076C176.937 49.5274 178.038 49.7732 179.102 50.1403C181.231 50.8946 183.13 52.184 184.617 53.8845C186.071 55.6111 187.176 57.6038 187.871 59.7518C188.23 60.815 188.494 61.9077 188.661 63.0172C188.748 63.575 188.8 64.1376 188.817 64.7019C188.834 64.992 188.834 65.2829 188.817 65.573C188.817 65.8672 188.736 66.1499 188.702 66.4211C188.361 68.6711 187.369 70.7018 186.561 72.6692C185.877 74.1128 185.513 75.6872 185.494 77.2845C185.616 78.8557 186.164 80.3638 187.08 81.6461C189.032 84.5234 190.064 87.9253 190.04 91.4018C189.997 92.928 189.759 94.4423 189.33 95.9076C188.739 97.8258 187.856 99.6414 186.711 101.29C186.223 102.039 185.597 102.687 184.865 103.2C184.639 103.363 184.402 103.509 184.155 103.638C183.861 103.742 183.988 103.304 184.467 102.438C184.946 101.573 185.73 100.263 186.555 98.5095C187.831 95.9401 188.442 93.0916 188.332 90.2249C188.225 88.7964 187.916 87.3902 187.415 86.048L187.017 85.0442L186.532 84.0692C186.371 83.7394 186.19 83.4196 185.99 83.1115L185.413 82.1307C184.439 80.6627 183.892 78.953 183.832 77.1922C183.861 75.4717 184.242 73.7754 184.952 72.2076C185.563 70.7134 186.209 69.323 186.636 67.9211C186.858 67.2331 187.016 66.5263 187.109 65.8095C187.168 65.4803 187.193 65.1458 187.184 64.8115C187.184 64.4595 187.15 64.1076 187.103 63.7442C186.707 60.1059 185.102 56.7056 182.546 54.0865C181.265 52.8489 179.706 51.9369 178 51.4268C177.142 51.162 176.258 50.9956 175.363 50.9307C174.912 50.8901 174.46 50.8728 174.007 50.8788C173.779 50.8673 173.549 50.8673 173.321 50.8788L171.953 50.9595L170.967 49.4365C170.768 49.1198 170.55 48.8154 170.315 48.5249C169.872 47.9208 169.394 47.3429 168.884 46.7942L168.878 46.8345Z" fill="#3B2C7D"/>
<path d="M137.795 91.1536C137.341 88.8055 137.169 86.4117 137.282 84.0228C137.328 82.8689 137.42 81.6689 137.547 80.5036L137.767 78.7728L137.888 77.8843V77.7286L137.692 77.6247C137.409 77.4863 137.115 77.3305 136.855 77.1689C136.293 76.8349 135.764 76.4486 135.274 76.0151C134.221 75.1244 133.466 73.9325 133.111 72.5997C132.72 71.121 132.928 69.548 133.688 68.2209C134.098 67.5274 134.698 66.9666 135.419 66.6055C135.597 66.5247 135.782 66.4439 135.967 66.3747L136.544 66.2189C136.981 66.1327 137.432 66.1425 137.865 66.2478C138.447 66.4269 139.014 66.6526 139.561 66.9228C139.744 67.0028 139.939 67.0553 140.138 67.0786C140.345 67.1011 140.554 67.1011 140.761 67.0786C141.718 66.8328 142.604 66.3643 143.345 65.7113C145.036 64.367 146.697 62.7228 148.722 61.517C149.738 60.8996 150.83 60.4185 151.97 60.0863C153.116 59.7637 154.3 59.6025 155.49 59.6074C156.115 59.6 156.738 59.6796 157.342 59.8439C158.012 60.0252 158.614 60.4005 159.072 60.9228C159.519 61.4385 159.814 62.0674 159.926 62.7401C160.018 63.3675 159.998 64.006 159.869 64.6266C159.69 65.6593 159.338 66.6286 159.407 67.4132C159.414 67.5865 159.458 67.7564 159.535 67.9116C159.613 68.0668 159.722 68.2037 159.857 68.3132C160.187 68.576 160.565 68.7719 160.97 68.8901C161.188 68.96 161.41 69.0177 161.634 69.0632C161.842 69.0986 162.052 69.1178 162.263 69.1209C162.719 69.1209 163.215 69.0862 163.711 69.0574C164.228 69.0311 164.746 69.0311 165.263 69.0574C165.851 69.0668 166.43 69.1985 166.965 69.4439C167.365 69.6501 167.69 69.9771 167.894 70.3786C168.002 70.5828 168.078 70.8028 168.119 71.0305C168.143 71.2518 168.133 71.4756 168.09 71.6939C167.974 72.3459 167.859 72.9516 167.767 73.5689C167.674 74.1862 167.599 74.7978 167.57 75.392C167.523 75.924 167.576 76.4603 167.726 76.9728C168.107 77.8324 169.117 78.4728 170.23 78.8189C171.389 79.1717 172.586 79.3829 173.795 79.4478C174.563 79.4997 174.897 79.6036 174.88 79.7766C174.863 79.9497 174.482 80.1805 173.795 80.3536C172.842 80.6022 171.852 80.6861 170.87 80.6016C170.179 80.5536 169.498 80.4119 168.845 80.1805C168.018 79.8948 167.277 79.4023 166.694 78.7497L166.48 78.5016C166.417 78.4093 166.359 78.317 166.301 78.2189C166.167 78.0239 166.059 77.8126 165.978 77.5901C165.829 77.1743 165.742 76.7389 165.719 76.2978C165.689 75.5767 165.726 74.8545 165.828 74.1401C165.915 73.4536 166.036 72.7959 166.157 72.1497C166.22 71.8324 166.284 71.492 166.324 71.2439C166.318 71.1978 166.3 71.154 166.272 71.117C166.272 71.0189 165.944 70.8632 165.424 70.8112C164.837 70.765 164.246 70.765 163.659 70.8112C162.934 70.8823 162.203 70.8823 161.478 70.8112C161.283 70.7837 161.09 70.7412 160.901 70.6843C160.728 70.6439 160.544 70.5862 160.359 70.5228C159.97 70.3973 159.597 70.229 159.245 70.0209C158.827 69.7685 158.469 69.4279 158.195 69.0228C157.919 68.5954 157.754 68.1054 157.717 67.5978C157.694 66.8316 157.791 66.0666 158.005 65.3305C158.165 64.7652 158.267 64.1854 158.311 63.5997C158.346 63.1498 158.246 62.6995 158.022 62.3074C157.806 61.9337 157.465 61.6479 157.059 61.4997C156.548 61.3302 156.011 61.2502 155.472 61.2632C154.267 61.2496 153.067 61.4308 151.919 61.7997C150.508 62.2869 149.189 63.0085 148.019 63.9343C146.784 64.8574 145.647 65.9536 144.349 66.9978C143.674 67.5573 142.927 68.0248 142.128 68.3882C141.454 68.6851 140.717 68.8137 139.982 68.7632C139.724 68.736 139.47 68.6779 139.226 68.5901C138.326 68.267 137.697 67.8863 137.19 67.8978C137.056 67.899 136.924 67.9204 136.797 67.9613C136.642 67.9947 136.491 68.045 136.347 68.1112C136.063 68.231 135.804 68.4011 135.58 68.6132C134.467 69.6747 134.345 71.7459 135.124 73.2286C135.547 74.0067 136.139 74.6807 136.855 75.2016C137.22 75.4803 137.606 75.731 138.009 75.9516L138.315 76.1189L138.47 76.1997L138.551 76.2401L138.69 76.3036L139.78 76.7939L139.526 78.4613C139.469 78.8363 139.411 79.217 139.37 79.6151C139.272 80.3766 139.18 81.1324 139.122 81.8882C138.983 83.4012 138.933 84.9212 138.972 86.4401C138.997 88.5521 139.322 90.6499 139.936 92.6709C140.522 94.666 141.625 96.471 143.132 97.9036C144.312 98.944 145.684 99.7436 147.17 100.257C148.634 100.769 150.217 100.831 151.717 100.436C153.232 100.008 154.642 99.2718 155.859 98.2728C157.093 97.243 158.223 96.0952 159.234 94.8459C160.825 92.9358 162.301 90.9322 163.653 88.8459L164.692 87.2882L165.211 86.5093L165.886 85.5113L166.307 84.9343C166.533 85.0077 166.755 85.0944 166.97 85.1939C167.195 85.2862 167.426 85.3959 167.645 85.4766L168.061 85.6209C168.605 85.8074 169.168 85.9313 169.74 85.9901C170.671 86.1045 171.615 85.9013 172.417 85.4132C173.027 85.0106 173.523 84.4584 173.859 83.8093C174.105 83.3499 174.299 82.8641 174.436 82.3612C174.672 81.5362 174.77 81.0574 174.909 80.6305C174.961 80.4251 174.974 80.212 174.949 80.0016C174.949 79.8574 175.007 79.7997 175.209 79.9266C175.466 80.1488 175.644 80.4484 175.717 80.7805C176.007 82.0497 175.844 83.3807 175.255 84.542C174.693 85.7688 173.693 86.7418 172.451 87.2709C171.82 87.5274 171.148 87.67 170.467 87.692C169.815 87.7031 169.164 87.6373 168.528 87.4959C168.217 87.4266 167.917 87.3401 167.611 87.2478L167.167 87.0978L167.057 87.0574H167.005H166.976C166.947 87.0574 166.913 87.017 166.901 87.0574V87.1036C166.901 87.1036 166.93 87.0747 166.815 87.242L164.87 90.1266C163.55 92.1108 162.125 94.0231 160.601 95.8555C159.03 97.7957 157.149 99.4625 155.034 100.788C153.344 101.839 151.387 102.378 149.397 102.34C148.4 102.305 147.414 102.12 146.472 101.792C145.566 101.462 144.694 101.043 143.87 100.54C142.206 99.528 140.809 98.1312 139.797 96.467C138.845 94.8334 138.163 93.0567 137.778 91.2055L137.795 91.1536Z" fill="#3B2C7D"/>
<path d="M131.957 97.7422C129.834 96.0749 128.859 93.2595 128.599 90.6634C128.513 89.8384 127.214 89.8326 127.301 90.6634C127.589 93.548 128.645 96.7845 131.039 98.6595C131.686 99.1672 132.609 98.2557 131.957 97.7422Z" fill="#3B2C7D"/>
<path d="M133.438 96.5593C131.547 94.4274 130.377 91.7517 130.098 88.9151C130.023 88.0901 128.725 88.0785 128.8 88.9151C129.096 92.0995 130.4 95.1066 132.521 97.4997C133.098 98.117 133.998 97.1939 133.438 96.5766V96.5593Z" fill="#3B2C7D"/>
<path d="M135.891 95.769C133.768 93.7786 132.741 91.0382 132.285 88.217C132.152 87.3978 130.901 87.7439 131.033 88.5632C131.524 91.592 132.701 94.5574 134.974 96.6863C135.579 97.2632 136.502 96.3401 135.891 95.769Z" fill="#3B2C7D"/>
<path d="M125.651 93.7326C126.54 98.9249 130.001 101.919 134.951 103.24C135.112 103.27 135.277 103.238 135.416 103.152C135.554 103.065 135.655 102.93 135.698 102.773C135.741 102.616 135.724 102.448 135.65 102.303C135.576 102.158 135.45 102.045 135.297 101.988C130.757 100.777 127.717 98.1634 126.903 93.3923C126.765 92.5673 125.513 92.9192 125.651 93.7326Z" fill="#3B2C7D"/>
<path d="M168.516 99.2998C170.787 97.1484 172.219 94.2586 172.554 91.1478C172.641 90.3228 171.343 90.3286 171.256 91.1478C170.93 93.9146 169.637 96.4772 167.604 98.3825C167.027 98.9594 167.921 99.8824 168.521 99.2998H168.516Z" fill="#3B2C7D"/>
<path d="M166.519 98.2672C168.827 95.9134 170.656 92.8672 170.702 89.5038C170.687 89.3422 170.612 89.1921 170.492 89.0829C170.372 88.9736 170.215 88.9131 170.053 88.9131C169.891 88.9131 169.734 88.9736 169.614 89.0829C169.494 89.1921 169.419 89.3422 169.404 89.5038C169.364 92.5153 167.673 95.273 165.602 97.3499C165.025 97.9268 165.937 98.8672 166.519 98.2672Z" fill="#3B2C7D"/>
<path d="M164.862 97.4997C166.791 95.325 168.043 92.6339 168.462 89.7574C168.589 88.944 167.343 88.6036 167.211 89.417C166.841 92.0657 165.708 94.5495 163.951 96.5651C163.374 97.1824 164.309 98.1055 164.868 97.4824L164.862 97.4997Z" fill="#3B2C7D"/>
<path d="M165.202 103.742C169.298 102.161 173.077 99.369 173.942 94.8228C174.098 94.0036 172.852 93.669 172.69 94.4767C171.912 98.5613 168.548 101.065 164.856 102.49C164.089 102.784 164.423 104.042 165.202 103.742Z" fill="#3B2C7D"/>
<path d="M152.135 102.836C151.802 103.26 151.523 103.723 151.305 104.215" stroke="#3B2C7D" stroke-width="2" stroke-linecap="round" stroke-linejoin="round"/>
<path d="M138.171 96.8712C140.465 97.8417 142.531 99.2823 144.234 101.1C145.215 102.092 146.663 103.408 147.072 104.798C147.129 104.951 147.242 105.077 147.387 105.151C147.532 105.225 147.7 105.242 147.857 105.199C148.014 105.155 148.149 105.054 148.236 104.916C148.322 104.778 148.354 104.612 148.324 104.452C147.851 102.848 146.288 101.337 145.151 100.183C143.277 98.2107 141.009 96.6557 138.494 95.6193C137.715 95.3193 137.374 96.5712 138.147 96.8712H138.171Z" fill="#3B2C7D"/>
<path d="M157.656 113.221C157.648 113.244 157.636 113.266 157.621 113.285" stroke="black" stroke-width="1.52" stroke-miterlimit="10"/>
<path d="M156.975 105.727C158.902 103.373 163.114 103.812 165.543 103.114C166.512 102.837 172.541 110.308 175.927 114.929C178.812 118.898 182.037 123.41 180.785 128.585C180.216 130.921 179.019 133.058 177.324 134.764H119.164C117.208 132.819 115.656 130.627 115.656 128.256C115.656 123.554 124.668 106.581 133.541 102.26C135.762 102.837 138.024 103.021 139.841 103.327C140.18 103.379 140.501 103.511 140.779 103.711C141.057 103.912 141.283 104.176 141.439 104.481C142.074 105.767 141.324 110.983 140.06 114.808C141.635 115.869 143.441 117.491 146.175 116.902C146.175 116.902 148.362 106.039 147.445 104.21C148.725 104.331 149.833 104.094 151.31 104.014C150.474 105.641 151.05 115.616 151.05 115.616C152.879 115.783 156.324 115.846 157.627 113.308C156.595 111.058 156.491 106.321 156.975 105.727Z" fill="#3B2C7D"/>
<path d="M124.15 112.569C122.567 114.752 121.136 117.042 119.87 119.423L118.952 121.212C118.658 121.789 118.375 122.429 118.11 123.035C117.845 123.64 117.608 124.264 117.366 124.881C117.123 125.498 116.91 126.127 116.789 126.744C116.626 127.321 116.542 127.917 116.541 128.515C116.568 129.109 116.695 129.694 116.916 130.246C117.419 131.41 118.12 132.477 118.987 133.402L119.483 133.939C119.518 133.996 119.558 133.939 119.593 133.973H122.091H126.181H138.129L159.181 134.094L169.71 134.158H174.972H176.287H177.054C177.1 134.158 177.123 134.1 177.164 134.071L177.516 133.667C177.66 133.512 177.793 133.344 177.925 133.183C178.185 132.848 178.433 132.508 178.658 132.156C179.471 130.904 180.037 129.507 180.325 128.042C180.617 126.587 180.564 125.083 180.17 123.652C179.771 122.198 179.169 120.807 178.381 119.521C177.592 118.211 176.735 116.942 175.814 115.719C174.187 113.498 172.479 111.329 170.725 109.206C169.848 108.144 168.96 107.094 168.043 106.079C167.581 105.571 167.114 105.075 166.635 104.608C166.406 104.38 166.165 104.164 165.914 103.962L165.747 103.84C165.719 103.816 165.688 103.796 165.654 103.783C165.624 103.767 165.59 103.759 165.556 103.759C165.522 103.759 165.488 103.767 165.458 103.783C163.116 104.314 160.554 104.152 158.587 105.127C157.722 105.571 157.404 105.94 157.231 105.912C157.156 105.912 157.139 105.814 157.197 105.64C157.232 105.531 157.276 105.425 157.329 105.323C157.417 105.183 157.516 105.05 157.623 104.925C158.41 104.11 159.409 103.533 160.508 103.258C161.243 103.036 161.991 102.857 162.747 102.721L163.958 102.485C164.154 102.439 164.368 102.404 164.564 102.352L164.858 102.283L165.273 102.167C165.389 102.133 165.511 102.121 165.631 102.133C165.753 102.119 165.877 102.13 165.995 102.167C166.235 102.237 166.463 102.344 166.67 102.485C166.933 102.659 167.183 102.852 167.42 103.062C167.864 103.448 168.273 103.858 168.672 104.279C170.097 105.796 171.395 107.365 172.71 108.952C174.025 110.539 175.237 112.16 176.448 113.804C177.702 115.448 178.858 117.164 179.91 118.944C180.439 119.87 180.896 120.834 181.277 121.829C181.66 122.861 181.914 123.936 182.033 125.031C182.161 126.144 182.107 127.27 181.872 128.365C181.655 129.442 181.305 130.487 180.827 131.475C180.352 132.461 179.761 133.386 179.068 134.233C178.9 134.44 178.727 134.648 178.548 134.844L178.191 135.237L177.943 135.502C177.856 135.577 177.804 135.727 177.666 135.687H175.773L163.508 135.577C153.735 135.45 143.558 135.514 133.554 135.485H125.31H121.185H119.033C118.964 135.485 118.883 135.485 118.843 135.439L118.3 134.862L117.943 134.469C117.7 134.204 117.47 133.933 117.245 133.656C116.291 132.532 115.596 131.212 115.208 129.79C115.023 129.047 114.989 128.274 115.11 127.517C115.15 127.154 115.221 126.795 115.323 126.444C115.397 126.094 115.493 125.749 115.612 125.412C116.519 122.766 117.678 120.214 119.073 117.79C120.734 114.803 122.644 111.962 124.785 109.298C126.948 106.656 129.36 104.135 132.395 102.375L132.972 102.052C133.225 101.937 133.485 101.66 133.791 101.833L134.489 102L135.066 102.127C135.873 102.289 136.687 102.41 137.512 102.525C138.337 102.64 139.156 102.744 140.022 102.906C140.53 102.999 140.998 103.245 141.363 103.611C141.728 103.977 141.972 104.445 142.064 104.954C142.173 105.827 142.173 106.711 142.064 107.585C141.989 108.433 141.868 109.269 141.712 110.1C141.556 110.931 141.389 111.756 141.187 112.575C141.083 112.979 140.979 113.389 140.858 113.792L140.702 114.335L140.593 114.675L141.014 114.964L141.695 115.431C142.138 115.731 142.607 115.989 143.097 116.204C143.566 116.408 144.064 116.538 144.573 116.59C144.827 116.614 145.082 116.614 145.335 116.59C145.489 116.583 145.641 116.562 145.791 116.527C145.895 115.95 145.993 115.419 146.097 114.877C146.206 114.225 146.316 113.573 146.431 112.921C146.662 111.462 146.87 110.002 147.008 108.548C147.083 107.821 147.141 107.1 147.158 106.39C147.158 106.212 147.158 106.033 147.158 105.86V105.467C147.163 105.412 147.163 105.356 147.158 105.3L147.002 104.464C146.945 104.187 146.858 103.939 146.795 103.679C147.285 103.714 147.822 103.754 148.318 103.754H148.675H148.918L149.397 103.714L150.66 103.587L151.393 103.529H151.762H151.947C152.022 103.529 152.022 103.529 152.062 103.564L151.9 104.054L151.756 104.59C151.704 104.765 151.662 104.942 151.629 105.121C151.6 105.277 151.583 105.496 151.572 105.577C151.525 105.998 151.508 106.437 151.491 106.869C151.45 107.746 151.462 108.6 151.491 109.512C151.52 110.423 151.525 111.277 151.566 112.16L151.687 114.767V115.09H151.889H152.131C152.472 115.09 152.806 115.09 153.135 115.09C153.784 115.048 154.424 114.92 155.039 114.71C155.63 114.517 156.16 114.17 156.573 113.706C156.793 113.44 156.798 113.435 156.845 113.325L156.793 113.181L156.654 112.748C156.396 111.806 156.241 110.839 156.193 109.864C156.086 108.812 156.206 107.75 156.545 106.748C156.629 106.438 156.787 106.153 157.006 105.917C157.133 105.842 157.156 105.952 157.168 106.096C157.179 106.24 157.168 106.673 157.208 107.25C157.248 107.827 157.3 108.542 157.416 109.408C157.539 110.385 157.743 111.35 158.027 112.292L158.108 112.517C158.137 112.598 158.148 112.644 158.218 112.806L158.385 113.215L158.472 113.417C158.441 113.483 158.407 113.547 158.368 113.608C158.218 113.85 158.073 114.144 157.918 114.352C157.794 114.522 157.659 114.684 157.514 114.837C156.943 115.423 156.241 115.866 155.466 116.129C154.736 116.381 153.975 116.534 153.204 116.585C152.829 116.585 152.454 116.619 152.079 116.585H151.658L151.185 116.55L150.227 116.481C150.1 114.415 150.072 113.896 150.025 112.846C149.979 111.889 149.945 110.925 149.927 109.962C149.91 108.998 149.927 108.012 149.927 107.014C149.927 106.517 149.968 106.015 150.014 105.502L150.043 105.254C150.043 105.254 150.043 105.254 150.043 105.208C150.043 105.162 150.002 105.208 149.985 105.208L149.547 105.254L148.675 105.323C148.675 105.323 148.675 105.323 148.675 105.358V105.398V105.831C148.675 106.125 148.675 106.408 148.675 106.679C148.675 106.95 148.675 107.256 148.635 107.51C148.56 108.606 148.433 109.685 148.289 110.758C148.145 111.831 147.977 112.904 147.798 113.971L147.516 115.575L147.072 117.883L146.264 118.021C145.99 118.075 145.712 118.11 145.433 118.125C145.099 118.157 144.763 118.157 144.429 118.125C143.769 118.059 143.123 117.892 142.514 117.629C141.941 117.379 141.391 117.08 140.87 116.735L140.148 116.239L138.816 115.321L138.897 115.067L139.202 114.087L139.312 113.729L139.381 113.487C139.479 113.169 139.56 112.846 139.647 112.523C139.808 111.877 139.958 111.225 140.085 110.567C140.355 109.274 140.529 107.963 140.604 106.644C140.604 106.321 140.604 106.01 140.604 105.715C140.597 105.485 140.56 105.256 140.495 105.035C140.495 104.994 140.443 104.931 140.385 104.856C140.33 104.784 140.266 104.72 140.195 104.665C140.051 104.553 139.883 104.476 139.704 104.44C138.452 104.227 137.027 104.071 135.666 103.835C135.314 103.777 134.968 103.708 134.616 103.639L134.091 103.529L133.722 103.442C133.722 103.442 133.722 103.442 133.687 103.442L133.387 103.615L132.55 104.089C132.008 104.452 131.489 104.856 130.958 105.242C130.427 105.629 129.96 106.114 129.458 106.546C127.519 108.414 125.759 110.46 124.202 112.656L124.15 112.569Z" fill="#3B2C7D"/>
<path d="M160.25 94.9961C159.604 97.3846 158.767 99.8942 155.404 100.806C154.215 101.129 152.109 102.761 152.109 102.761C152.143 102.291 152.24 101.827 152.398 101.383C152.398 101.383 158.952 97.2057 160.25 94.9961Z" fill="#3B2C7D"/>
<path d="M159.417 95.1172C158.725 97.6442 157.813 99.5422 155.2 100.483C153.841 101.021 152.574 101.767 151.444 102.692L152.938 102.663C153.002 102.282 153.035 101.896 153.036 101.51C152.926 101.706 153.203 101.4 153.394 101.279C154.196 100.754 154.98 100.217 155.759 99.6634C157.588 98.3595 159.798 96.9288 161.021 95.0019C161.396 94.4249 159.74 94.6153 159.48 95.0019C158.188 97.0269 155.811 98.4634 153.884 99.8422C152.476 100.823 151.478 101.083 151.276 102.877C151.201 103.506 152.551 103.015 152.765 102.877C153.408 102.367 154.091 101.909 154.807 101.51C155.84 100.933 156.982 100.748 157.969 100.079C159.769 98.8442 160.525 96.9172 161.078 94.8865C161.223 94.3672 159.561 94.6153 159.417 95.1172Z" fill="#3B2C7D"/>
<path d="M145.108 76.0672C145.771 78.5711 148.691 79.0384 150.842 78.5653C151.858 78.3403 151.627 77.498 150.617 77.723C149.048 78.0691 147.214 77.273 146.775 75.6172C146.625 75.0403 144.952 75.4787 145.108 76.0672Z" fill="#3B2C7D"/>
<path d="M156.194 80.3882C157.019 83.0016 160.025 82.9439 162.125 82.1189C162.214 82.0899 162.296 82.0419 162.365 81.9783C162.434 81.9147 162.488 81.837 162.524 81.7505C162.56 81.6639 162.577 81.5706 162.574 81.4769C162.571 81.3832 162.548 81.2913 162.506 81.2074C162.269 80.8266 161.698 80.9189 161.352 81.0516C159.99 81.5997 158.323 81.4439 157.856 79.9555C157.596 79.142 155.929 79.5978 156.182 80.4055L156.194 80.3882Z" fill="#3B2C7D"/>
<path d="M155.037 76.7824C155.464 76.4096 155.926 76.0774 156.415 75.7901C156.658 75.6459 156.894 75.4901 157.142 75.3632L157.91 75.017C158.279 74.829 158.665 74.6764 159.063 74.5612C160.42 74.1665 161.836 74.0123 163.246 74.1055C163.863 74.1689 164.487 74.1747 165.098 74.2843C165.3 74.3189 165.502 74.3247 165.675 74.3709C165.848 74.417 166.067 74.4632 166.252 74.5209C166.655 74.6315 167.029 74.8284 167.348 75.0978C167.556 75.2651 167.29 75.617 166.915 75.9112C166.767 76.063 166.586 76.1797 166.386 76.2525C166.187 76.3254 165.973 76.3527 165.762 76.3324C164.449 75.9454 163.091 75.7377 161.723 75.7151C161.506 75.7037 161.288 75.7037 161.071 75.7151L160.437 75.8535C160.012 75.9618 159.594 76.0948 159.185 76.2516C158.955 76.324 158.731 76.4147 158.515 76.5228L157.858 76.817L157.24 77.192C157.035 77.307 156.842 77.4423 156.663 77.5959L155.965 78.1728C155.758 78.3862 155.556 78.6112 155.354 78.8305C154.742 79.5087 154.256 80.29 153.917 81.1382C153.781 81.4641 153.691 81.808 153.652 82.1593C153.585 82.5027 153.535 82.8493 153.502 83.1978C153.502 83.3536 153.502 83.5035 153.502 83.6593C153.444 84.2362 153.3 84.3862 152.833 84.467C152.723 84.467 152.619 84.5132 152.51 84.5247C152.158 84.5247 151.904 84.2709 151.875 83.792C151.875 83.4401 151.875 83.0766 151.875 82.7074C151.915 82.3398 151.981 81.9755 152.071 81.617C152.247 80.8715 152.514 80.1506 152.867 79.4709C153.167 78.9747 153.479 78.4843 153.825 78.0228L154.402 77.3766C154.585 77.1531 154.79 76.9483 155.013 76.7651L155.037 76.7824Z" fill="#3B2C7D"/>
<path d="M153.929 73.3326C153.968 73.3566 153.999 73.3922 154.018 73.4345C154.037 73.4768 154.042 73.5238 154.033 73.5691C154.027 73.626 154.009 73.681 153.981 73.7307C153.981 73.7884 153.911 73.898 153.842 73.9268C153.773 73.9557 153.496 73.8634 153.438 73.9268C153.381 73.9903 153.438 73.9961 153.398 74.0018H153.329L153.208 73.973C152.941 73.732 152.658 73.5103 152.36 73.3095C152.14 73.1711 151.938 73.0211 151.736 72.8653C151.317 72.5587 150.864 72.3013 150.386 72.098C150.283 72.0518 150.185 71.9826 150.081 71.9249C149.908 71.8197 149.726 71.729 149.538 71.6537C149.349 71.5959 149.156 71.5496 148.961 71.5153C148.895 71.4977 148.826 71.4977 148.76 71.5153C148.542 71.5347 148.322 71.523 148.108 71.4807C147.808 71.4461 147.496 71.4461 147.427 71.423C147.073 71.3346 146.712 71.2805 146.348 71.2614C146.296 71.2614 146.238 71.2614 146.186 71.2268C146.135 71.1922 145.956 71.1634 145.84 71.1749C145.681 71.1865 145.521 71.1865 145.361 71.1749C145.27 71.1567 145.182 71.1235 145.102 71.0768C145.021 71.0422 145.027 70.8691 145.044 70.8461C145.061 70.823 145.044 70.7134 145.01 70.6441C145.007 70.6211 145.007 70.5979 145.01 70.5749C145.336 70.3717 145.682 70.2016 146.042 70.0672L146.815 69.9691C147.202 69.8999 147.623 69.923 147.71 69.8999C147.798 69.9012 147.886 69.9168 147.969 69.9461C148.401 69.9492 148.833 69.9781 149.261 70.0326C149.512 70.0679 149.753 70.1522 149.971 70.2807C150.012 70.3105 150.06 70.3303 150.11 70.3384C150.317 70.4018 150.519 70.4768 150.715 70.5576L151.292 70.8576L151.869 71.1634C151.901 71.1852 151.93 71.2103 151.956 71.2384L152.071 71.3364C152.501 71.6248 152.913 71.9389 153.306 72.2768C153.487 72.4906 153.656 72.714 153.813 72.9461C153.854 72.9749 153.865 73.2691 153.929 73.3326Z" fill="#3B2C7D"/>
<path d="M147.076 90.3632C148.27 92.6997 150.589 93.3689 152.909 92.1574C153.762 91.7074 153.001 90.8535 152.257 91.2459C150.526 92.1632 149.199 91.3382 148.368 89.717C148.057 89.1401 146.718 89.6651 147.076 90.3632Z" fill="#3B2C7D"/>
<path d="M118.656 199.829C117.429 198.865 116.129 197.999 114.767 197.238C113.428 196.506 112.012 195.925 110.544 195.508C109.108 195.152 107.621 195.041 106.148 195.179C104.652 195.394 103.195 195.829 101.827 196.471C99.7388 197.467 97.7426 198.644 95.8614 199.99C92.4593 202.373 89.2265 204.989 86.1864 207.819C83.1114 210.635 80.1691 213.588 77.3422 216.692C74.8268 219.427 72.4441 222.306 70.1883 225.219C67.3037 228.969 64.6326 232.898 61.8979 236.758C61.0499 237.952 60.6403 237.485 60.8249 236.112C61.2336 233.968 62.1211 231.945 63.421 230.192C66.2553 226.194 69.2919 222.343 72.5191 218.654C75.744 214.934 79.1703 211.394 82.7826 208.05C84.9576 206.048 87.1845 204.012 89.5153 202.067C91.8372 200.077 94.3014 198.258 96.8883 196.627C98.3279 195.72 99.8363 194.927 101.4 194.256C103.003 193.535 104.715 193.087 106.465 192.929C108.217 192.811 109.975 193.006 111.658 193.506C113.31 193.992 114.895 194.682 116.377 195.56C116.821 195.831 117.288 196.073 117.715 196.373L119.008 197.25C119.838 197.873 120.669 198.49 121.448 199.171C123.014 200.506 124.502 201.932 125.902 203.44C130.066 208.013 133.808 212.952 137.083 218.198C139.656 222.208 142.084 226.2 144.306 230.36C144.784 231.283 145.286 232.171 145.736 233.117C147.433 236.613 147.733 237.842 147.467 238.84C147.431 239.069 147.371 239.293 147.288 239.51C146.977 240.029 146.048 238.719 144.779 236.233C140.892 228.561 136.478 221.168 131.567 214.108C129.69 211.467 127.678 208.925 125.538 206.492C123.449 204.069 121.13 201.853 118.615 199.875L118.656 199.829Z" fill="#3B2C7D"/>
<path d="M172.156 214.956C169.848 212.758 167.241 210.917 164.287 210.115C163.223 209.845 162.123 209.744 161.027 209.815C158.998 209.985 157.002 210.436 155.097 211.154C153.105 211.861 151.153 212.671 149.247 213.583C147.545 214.396 145.889 215.313 144.285 216.294C142.225 217.546 140.247 218.96 138.17 220.119C137.518 220.477 137.241 219.94 137.437 219.098C137.764 217.952 138.504 216.968 139.514 216.335C143.746 213.559 148.291 211.293 153.054 209.585C154.497 209.083 155.979 208.581 157.514 208.154L158.668 207.86C159.066 207.773 159.475 207.715 159.879 207.646C160.293 207.576 160.711 207.536 161.131 207.525C161.345 207.525 161.558 207.496 161.766 207.525L162.383 207.565C164.185 207.711 165.945 208.186 167.575 208.967C169.162 209.728 170.648 210.681 172 211.806C173.623 213.168 175.128 214.663 176.5 216.277C178.589 218.688 180.372 221.325 182.183 223.846C183.597 225.808 185.068 227.642 186.631 229.413L187.67 230.567C188.95 231.998 189.279 232.506 189.129 233.244C189.114 233.413 189.079 233.58 189.025 233.74C188.835 234.213 187.958 233.937 186.862 232.927C183.597 229.938 181.029 226.09 178.416 222.496C176.553 219.816 174.439 217.318 172.104 215.037L172.156 214.956Z" fill="#3B2C7D"/>
<path d="M93.9591 218.752C92.9987 219.68 92.097 220.666 91.2591 221.706C90.9475 222.092 90.6821 222.514 90.3879 222.912L87.1168 227.117C86.6206 227.741 86.1648 228.404 85.7091 229.056C85.4148 229.471 85.1321 229.91 84.8321 230.319C84.5201 230.732 84.1555 231.103 83.7475 231.421C83.2341 231.808 82.1898 229.812 82.8821 228.964C84.1168 227.4 85.3456 225.831 86.7533 224.29C87.5898 223.373 88.2418 222.242 89.0148 221.221C89.8759 220.085 90.8005 218.999 91.7841 217.967C92.0783 217.639 92.3956 217.333 92.7187 217.033C93.0418 216.733 93.3418 216.41 93.6879 216.133C94.1956 215.7 94.6918 215.25 95.2398 214.869L96.0302 214.264L96.8379 213.687C97.6571 213.064 98.4648 212.458 99.2956 211.858C99.486 211.737 99.6648 211.604 99.8725 211.489C100.605 211.079 100.911 211.09 101.315 211.529C101.411 211.625 101.502 211.727 101.586 211.835C101.84 212.198 101.701 212.683 101.246 213.058C99.8668 214.142 98.4187 215.135 97.011 216.196C96.4918 216.6 95.9668 216.998 95.4821 217.442C94.9975 217.887 94.5071 218.325 94.0341 218.792L93.9591 218.752Z" fill="#3B2C7D"/>
<path d="M166.659 225.715C166.33 225.196 165.978 224.688 165.603 224.204C165.465 224.025 165.274 223.904 165.136 223.73C164.652 223.098 164.119 222.504 163.544 221.954C163.28 221.721 162.985 221.527 162.667 221.377C162.465 221.279 162.245 221.209 162.049 221.105C161.835 221.023 161.65 220.878 161.519 220.69C161.334 220.43 162.574 218.729 163.134 219.005C164.077 219.483 164.888 220.187 165.494 221.054C165.901 221.527 166.337 221.976 166.797 222.398C167.244 222.909 167.662 223.444 168.049 224.002L168.747 225.029C169.105 225.542 169.405 226.09 169.774 226.586C170.057 226.973 170.432 227.29 170.755 227.659C170.836 227.731 170.909 227.81 170.974 227.896C171.199 228.219 171.136 228.404 170.669 228.75C170.565 228.825 170.461 228.911 170.351 228.98C170.211 229.095 170.04 229.167 169.86 229.187C169.68 229.207 169.498 229.176 169.336 229.096C168.67 228.59 168.103 227.966 167.663 227.255C167.305 226.759 166.982 226.234 166.613 225.744L166.659 225.715Z" fill="#3B2C7D"/>
<path d="M130.72 227.717C130.322 227.094 129.907 226.471 129.463 225.871C129.301 225.652 129.093 225.485 128.932 225.265C128.383 224.498 127.778 223.773 127.12 223.096C126.831 222.821 126.498 222.597 126.134 222.433C125.678 222.225 125.245 222.219 125.009 222.023C124.856 221.658 124.829 221.252 124.934 220.869C125.008 220.586 125.169 220.334 125.395 220.148C125.493 220.062 125.61 220 125.736 219.967C125.862 219.934 125.995 219.931 126.122 219.958C126.818 220.176 127.461 220.538 128.009 221.019C128.49 221.432 128.91 221.912 129.255 222.444C129.665 223.062 130.242 223.523 130.697 224.089C131.153 224.654 131.655 225.352 132.105 225.998L132.913 227.198C133.328 227.775 133.703 228.427 134.136 229.01C134.476 229.46 134.903 229.835 135.29 230.273C135.37 230.371 135.468 230.452 135.543 230.562C135.815 230.954 135.763 231.185 135.295 231.531C135.192 231.606 135.088 231.692 134.972 231.762C134.823 231.871 134.645 231.933 134.46 231.941C134.275 231.949 134.092 231.903 133.934 231.808C133.172 231.179 132.51 230.438 131.972 229.61C131.534 229.033 131.13 228.375 130.686 227.769L130.72 227.717Z" fill="#3B2C7D"/>
<path d="M129.43 126.785L133.566 130.154C133.649 130.23 133.749 130.284 133.857 130.311C133.966 130.339 134.08 130.338 134.188 130.309C134.297 130.28 134.396 130.224 134.477 130.147C134.558 130.069 134.618 129.972 134.651 129.866C136.601 124.962 138.436 120 140.103 114.987C140.368 114.196 139.116 113.833 138.851 114.646C137.184 119.654 135.349 124.616 133.399 129.519L134.484 129.237L130.347 125.867C129.701 125.342 128.778 126.26 129.43 126.785Z" fill="#3B2C7D"/>
<path d="M156.999 113.458C158.938 119.192 161.24 124.811 163.668 130.356C163.72 130.44 163.79 130.512 163.873 130.565C163.956 130.619 164.05 130.653 164.148 130.665C164.246 130.677 164.346 130.667 164.44 130.636C164.533 130.604 164.619 130.552 164.69 130.483L168.895 126.098C169.472 125.521 168.555 124.575 167.978 125.181L163.772 129.565L164.793 129.698C162.405 124.263 160.178 118.736 158.251 113.117C157.98 112.327 156.728 112.667 156.999 113.458Z" fill="#3B2C7D"/>
<path d="M151.122 129.692V115.621C151.107 115.459 151.032 115.309 150.912 115.2C150.792 115.091 150.636 115.03 150.473 115.03C150.311 115.03 150.155 115.091 150.034 115.2C149.914 115.309 149.839 115.459 149.824 115.621V129.692C149.839 129.854 149.914 130.004 150.034 130.113C150.155 130.222 150.311 130.283 150.473 130.283C150.636 130.283 150.792 130.222 150.912 130.113C151.032 130.004 151.107 129.854 151.122 129.692Z" fill="#3B2C7D"/>
<path d="M146.102 116.907L145.259 130.177C145.207 131.013 146.505 131.007 146.557 130.177L147.4 116.907C147.452 116.071 146.154 116.077 146.102 116.907Z" fill="#3B2C7D"/>
</svg>
