<svg width="300" height="300" viewBox="0 0 300 300" fill="none" xmlns="http://www.w3.org/2000/svg">
<path d="M201.058 118.027L200.21 117.958C199.933 117.918 199.633 117.86 199.373 117.808C198.822 117.703 198.278 117.56 197.746 117.381C197.215 117.202 196.708 116.971 196.194 116.752L195.444 116.343C195.192 116.215 194.951 116.066 194.723 115.898C192.869 114.593 191.438 112.774 190.604 110.666C189.987 109.189 189.57 107.637 189.364 106.05C189.025 103.325 189.01 100.569 189.317 97.8406C189.593 95.1438 190.031 92.466 190.627 89.8214C191.14 87.4791 191.7 85.1368 192.317 82.8406C193.056 79.877 193.983 76.9634 195.092 74.1176C195.819 72.3868 196.396 75.1156 195.346 78.4214C193.427 84.275 191.961 90.2677 190.962 96.3464C190.364 100.043 190.44 103.817 191.187 107.487C191.571 109.457 192.422 111.307 193.667 112.881C193.978 113.264 194.319 113.621 194.688 113.948C194.871 114.113 195.063 114.265 195.265 114.404C195.467 114.543 195.658 114.704 195.842 114.831C196.699 115.348 197.618 115.753 198.577 116.037C200.967 116.749 203.526 116.656 205.858 115.771C209.435 114.444 212.527 111.918 215.25 109.2C217.379 107.077 219.237 104.781 221.227 102.525C221.671 102.029 222.098 101.539 222.565 101.054C224.296 99.2599 225.167 98.8676 225.842 98.9426C225.991 98.9473 226.138 98.9706 226.281 99.0118C226.615 99.2195 225.889 99.7676 224.683 101.025C222.871 102.871 221.152 105.023 219.283 107.106C217.403 109.265 215.365 111.28 213.185 113.135C211.505 114.556 209.65 115.754 207.664 116.7C206.637 117.168 205.563 117.525 204.462 117.768C203.904 117.888 203.339 117.976 202.771 118.033C202.488 118.033 202.194 118.033 201.912 118.033C201.626 118.056 201.338 118.056 201.052 118.033L201.058 118.027Z" fill="#3B2C7D"/>
<path d="M235.705 94.9729C236.867 94.1695 237.799 93.078 238.411 91.8056C238.537 91.5705 238.643 91.3255 238.728 91.0729C238.815 90.8306 238.925 90.571 238.988 90.3575C239.134 89.9954 239.193 89.6038 239.159 89.2148C239.125 88.8257 238.999 88.4502 238.792 88.1191C238.275 87.4302 237.531 86.946 236.692 86.7518C235.932 86.5584 235.13 86.6255 234.413 86.9421C233.471 87.4049 232.581 87.9677 231.759 88.621C231.488 88.8114 231.228 88.5056 231.182 88.0152C231.162 87.7059 231.221 87.3966 231.355 87.1168C231.488 86.837 231.691 86.5961 231.944 86.4171C233.031 85.5997 234.341 85.1329 235.7 85.0787C236.062 85.0768 236.424 85.1155 236.778 85.1941C237.109 85.2726 237.433 85.3768 237.748 85.5056C238.4 85.7622 238.991 86.1556 239.478 86.6595C240.098 87.2867 240.502 88.0949 240.632 88.9671C240.712 89.797 240.577 90.6335 240.24 91.396C239.931 92.1679 239.545 92.9063 239.086 93.5998C238.622 94.2925 238.078 94.9277 237.465 95.4921C236.697 96.1754 235.82 96.7236 234.869 97.1133C233.446 97.6683 231.925 97.9293 230.398 97.8806C229.235 97.8921 228.074 97.776 226.936 97.5344C226.681 97.4833 226.428 97.4178 226.18 97.3383C225.257 97.0094 224.951 96.6518 225.026 96.1844C225.039 96.0778 225.083 95.9773 225.153 95.896C225.215 95.8505 225.283 95.8136 225.355 95.7864C225.43 95.7864 225.459 95.7114 225.546 95.7056C225.765 95.6882 225.985 95.7177 226.192 95.7921C228.017 96.2992 229.918 96.475 231.805 96.3114C233.192 96.1848 234.523 95.704 235.671 94.9152L235.705 94.9729Z" fill="#3B2C7D"/>
<path d="M232.154 70.777C174.231 81.4328 182.965 49.852 186.623 46.027C194.983 37.2866 204.606 44.8731 207.969 44.2962C209.902 43.9674 214.108 40.3443 219.115 42.2078C222.052 43.2981 226.212 49.4828 227.977 50.5674C229.835 51.7212 235.506 48.652 239.948 49.9904C247.679 52.3616 258.825 69.127 240.329 87.2308C238.967 83.4289 234.121 85.2347 232.719 86.2847C229.385 84.0174 232.985 71.3308 232.154 70.777Z" fill="#3B2C7D"/>
<path d="M233.377 51.127C232.121 51.4144 230.849 51.6282 229.569 51.7674C229.377 51.78 229.184 51.78 228.992 51.7674H228.703L228.392 51.7097L228.075 51.652L227.728 51.5078C227.614 51.468 227.506 51.4137 227.405 51.3462L227.157 51.1731C226.629 50.7447 226.139 50.2718 225.692 49.7597C223.961 47.8789 222.455 45.9231 220.678 44.3366C220.26 43.956 219.808 43.6142 219.328 43.3155C219.219 43.2498 219.105 43.192 218.988 43.1424C218.874 43.08 218.755 43.0297 218.63 42.9924C218.359 42.9174 218.1 42.8078 217.828 42.7501C216.736 42.4947 215.601 42.475 214.5 42.6924C213.341 42.9361 212.216 43.3238 211.153 43.8462L209.423 44.6366C209.104 44.7811 208.777 44.9044 208.442 45.0058C208.053 45.1183 207.646 45.1574 207.242 45.1212C206.282 44.9943 205.34 44.7601 204.432 44.4231C203.561 44.1404 202.702 43.8462 201.853 43.5924C200.191 43.0614 198.471 42.7322 196.73 42.6116C195.224 42.5177 193.714 42.7136 192.282 43.1885C190.851 43.6801 189.526 44.4376 188.377 45.4212C188.082 45.6635 187.8 45.9174 187.528 46.1885C187.396 46.3212 187.24 46.4597 187.13 46.5866C187.021 46.7135 186.917 46.8289 186.819 46.9789C186.401 47.5981 186.049 48.2594 185.769 48.952C185.214 50.3938 184.844 51.9 184.667 53.4347C184.476 54.9689 184.499 56.5223 184.736 58.0501C184.983 59.5661 185.462 61.0351 186.155 62.4058C186.876 63.7647 187.807 65.0011 188.913 66.0693C189.476 66.6015 190.078 67.0913 190.713 67.5347C191.03 67.7539 191.342 67.9847 191.671 68.1981L192.686 68.7751C195.169 70.0581 197.826 70.9716 200.573 71.4866L202.65 71.8443C203.342 71.9654 204.046 72.0001 204.744 72.0866C206.134 72.2654 207.536 72.2828 208.932 72.352C212.537 72.4211 216.142 72.265 219.727 71.8847C220.627 71.7924 221.527 71.7289 222.421 71.6135L225.109 71.2674C226.909 71.0712 228.686 70.7539 230.475 70.5058C232.702 70.1828 232.482 70.627 230.659 71.3193C229.406 71.7786 228.127 72.1638 226.828 72.4731C226.021 72.652 225.138 72.8308 224.198 72.9981C223.257 73.1654 222.265 73.3443 221.209 73.4251C219.352 73.5981 217.494 73.8058 215.625 73.8693C214.684 73.9039 213.755 73.9905 212.815 73.9847H210C206.216 73.9504 202.448 73.5054 198.761 72.6578L197.377 72.3058C196.915 72.1789 196.465 72.0058 196.009 71.8558C195.553 71.7058 195.098 71.5558 194.653 71.377L193.332 70.8001L192.669 70.5058L192.034 70.1481L190.765 69.427C189.954 68.8925 189.183 68.3006 188.457 67.6558C186.955 66.37 185.721 64.8019 184.823 63.0404C183.944 61.2744 183.399 59.3618 183.213 57.3981C182.992 55.0592 183.188 52.6997 183.79 50.4289C184.093 49.2742 184.516 48.1546 185.053 47.0885C185.336 46.5145 185.697 45.9826 186.127 45.5078C186.542 45.078 186.979 44.6698 187.436 44.2847C189.278 42.6863 191.53 41.6351 193.938 41.2501C196.316 40.9404 198.732 41.137 201.028 41.827C202.269 42.1558 203.475 42.5712 204.657 42.9808C205.234 43.177 205.811 43.3674 206.388 43.5116C206.887 43.6703 207.416 43.7137 207.934 43.6385C208.486 43.4639 209.023 43.2439 209.538 42.9808C210.115 42.7154 210.692 42.4385 211.269 42.1904C212.477 41.655 213.759 41.3012 215.071 41.1404C216.417 40.9918 217.779 41.1455 219.057 41.5904C219.227 41.6371 219.391 41.7009 219.548 41.7808C219.711 41.8511 219.869 41.9321 220.021 42.0231C220.315 42.1972 220.599 42.3899 220.869 42.6001C221.398 42.9841 221.903 43.4002 222.38 43.8462C224.221 45.6289 225.767 47.6654 227.469 49.4078C227.709 49.6543 227.97 49.8801 228.248 50.0828C228.505 50.2055 228.788 50.2667 229.073 50.2616C229.802 50.2501 230.529 50.1651 231.242 50.0078C232.766 49.6627 234.306 49.3969 235.857 49.2116C236.66 49.1423 237.466 49.1423 238.269 49.2116C239.09 49.2903 239.896 49.4846 240.663 49.7885C242.158 50.4057 243.526 51.2915 244.702 52.402C248.21 55.7478 250.371 60.2631 250.777 65.0943C251.203 69.8885 249.859 74.6828 247.563 78.7789C246.634 80.4435 245.571 82.0295 244.384 83.5212C243.807 84.2828 243.184 84.9751 242.573 85.6904C242.423 85.8693 242.267 86.0424 242.1 86.2097L241.58 86.752L240.853 87.5078L240.49 87.8885L240.311 88.0789L240.219 88.177C240.184 88.177 240.167 88.177 240.138 88.177L239.775 87.3924C239.653 87.1328 239.509 86.9251 239.371 86.6828C239.285 86.5138 239.163 86.3661 239.013 86.2501C238.912 86.1424 238.793 86.0527 238.661 85.9847C238.123 85.6734 237.505 85.5251 236.884 85.5578C236.22 85.5781 235.563 85.6987 234.934 85.9154C234.615 86.0264 234.301 86.1535 233.994 86.2962L233.769 86.4174C233.724 86.4338 233.682 86.4551 233.642 86.4808L233.457 86.5962C233.203 86.7501 232.955 86.9116 232.713 87.0808L232.609 87.0462L232.494 86.9597L232.269 86.7866C232.117 86.6703 231.977 86.5409 231.848 86.4001C231.609 86.1323 231.414 85.8286 231.271 85.5001C230.937 84.7112 230.732 83.8734 230.665 83.0193C230.584 82.2085 230.561 81.393 230.596 80.5789C230.688 78.4803 230.938 76.3916 231.346 74.3308C231.502 73.4154 231.745 72.5171 232.073 71.6481C232.188 71.381 232.256 71.0961 232.275 70.8058C232.275 70.7078 232.223 70.6385 232.275 70.6328C232.327 70.627 232.477 70.7424 232.54 70.8751C232.687 71.2714 232.754 71.6931 232.736 72.1154C232.736 73.2174 232.569 74.8904 232.35 77.0078C232.171 78.6013 232.092 80.2044 232.113 81.8078C232.128 82.5732 232.223 83.335 232.396 84.0808C232.476 84.4115 232.596 84.7312 232.753 85.0328C232.8 85.102 232.84 85.1539 232.892 85.1481L232.955 85.102L233.065 85.0443L233.33 84.9174C233.689 84.7427 234.059 84.5924 234.438 84.4674C235.216 84.1957 236.032 84.0477 236.855 84.0289C237.772 83.9932 238.68 84.2236 239.469 84.6924C239.68 84.8116 239.874 84.9592 240.046 85.1308C240.181 85.2493 240.308 85.3765 240.427 85.5116L240.502 85.6097C240.52 85.5954 240.536 85.5778 240.548 85.5578L240.646 85.4481L240.871 85.2174C241.015 85.0616 241.171 84.9174 241.309 84.7501C241.857 84.1039 242.463 83.4866 242.965 82.8058C243.467 82.1251 244.021 81.4674 244.494 80.7578C244.967 80.0481 245.428 79.3328 245.878 78.6116C246.738 77.1418 247.462 75.597 248.042 73.9962C248.606 72.4032 248.993 70.7529 249.196 69.0751C249.758 64.2909 248.463 59.4734 245.578 55.6155C244.205 53.715 242.368 52.1976 240.242 51.2078C238.217 50.3597 235.794 50.6308 233.388 51.1385L233.377 51.127Z" fill="#3B2C7D"/>
<path d="M201.605 117.692C202.332 120.577 206.123 122.919 209.89 122.036C216.496 120.49 215.048 113.688 214.702 112.275C208.269 118.113 206.198 117.692 201.605 117.692Z" fill="#3B2C7D"/>
<path d="M215.024 110.816L215.267 110.619C215.295 110.585 215.301 110.619 215.301 110.619V110.706L215.336 110.867L215.474 111.502L215.728 112.748C215.803 113.169 215.844 113.619 215.901 114.046L215.93 114.837C215.954 115.878 215.809 116.916 215.503 117.912C215.384 118.282 215.246 118.646 215.088 119.002L214.805 119.521L214.661 119.775L214.476 120.012C213.628 121.095 212.475 121.899 211.165 122.319L210.213 122.579C209.89 122.655 209.562 122.711 209.232 122.746C208.574 122.805 207.912 122.786 207.259 122.689C206.103 122.523 204.992 122.131 203.988 121.535C203.328 121.165 202.732 120.691 202.222 120.133C201.699 119.558 201.331 118.859 201.155 118.102C201.057 117.617 201.472 117.629 201.951 117.837C202.495 118.074 202.981 118.426 203.376 118.869C204.154 119.794 205.172 120.485 206.319 120.866C206.9 121.072 207.508 121.197 208.124 121.235C208.75 121.306 209.382 121.279 209.999 121.154C210.761 121.025 211.483 120.724 212.111 120.274C212.738 119.824 213.255 119.237 213.622 118.558C214.033 117.792 214.287 116.953 214.372 116.089C214.45 115.343 214.45 114.59 214.372 113.844C214.359 113.703 214.338 113.562 214.309 113.423C214.309 113.302 214.251 113.377 214.199 113.423L214.044 113.55L213.12 114.289C211.708 115.456 210.158 116.446 208.505 117.237C207.207 117.845 205.809 118.215 204.38 118.327C204.069 118.356 203.769 118.391 203.463 118.396C202.309 118.396 201.98 118.31 201.732 117.9C201.67 117.812 201.618 117.717 201.576 117.617C201.467 117.3 201.928 117.041 202.73 116.954C203.908 116.87 205.079 116.7 206.232 116.446C207.356 116.141 208.427 115.665 209.405 115.033C210.181 114.546 210.93 114.018 211.649 113.452C211.84 113.314 212.013 113.164 212.197 113.019L212.469 112.794L212.647 112.656L212.919 112.419L214.972 110.752L215.024 110.816Z" fill="#3B2C7D"/>
<path d="M181.78 134.562C183.944 132.182 186.352 130.035 188.963 128.158C189.659 127.685 190.397 127.278 191.167 126.94C191.375 126.865 191.565 126.773 191.784 126.71C191.911 126.675 192.119 126.594 192.28 126.565C192.442 126.537 192.609 126.508 192.777 126.473C192.944 126.438 193.117 126.415 193.273 126.404L193.677 126.473C193.811 126.485 193.941 126.526 194.057 126.594C194.173 126.676 194.27 126.783 194.34 126.906C194.459 127.189 194.52 127.493 194.52 127.8C194.52 128.107 194.459 128.411 194.34 128.694C194.294 128.85 194.225 129.058 194.19 129.167L194.086 129.456L193.867 130.033C193.567 130.783 193.25 131.504 192.938 132.225C192.482 133.281 192.038 134.325 191.657 135.381C191.467 135.906 191.288 136.431 191.144 136.95L191.052 137.336L191.017 137.481C191.017 137.55 191.017 137.619 190.988 137.694C190.98 137.783 191.007 137.872 191.063 137.942C191.213 137.942 191.323 137.786 191.45 137.688L192.027 137.111L192.661 136.454C193.509 135.565 194.334 134.654 195.165 133.736L197.675 130.99C198.102 130.535 198.528 130.085 198.967 129.635L199.302 129.3L199.74 128.873C200.077 128.543 200.44 128.24 200.825 127.967C200.918 127.91 201.014 127.858 201.113 127.811L201.384 127.708C201.556 127.652 201.738 127.64 201.915 127.673C202.009 127.706 202.096 127.758 202.168 127.827C202.241 127.895 202.298 127.979 202.336 128.071C202.423 128.253 202.478 128.448 202.498 128.648C202.541 129.15 202.51 129.655 202.405 130.148C202.29 130.771 202.227 131.025 202.146 131.383C201.817 132.767 201.442 134.111 201.078 135.461C200.848 136.327 200.623 137.192 200.421 138.058C200.323 138.485 200.23 138.917 200.15 139.35C200.115 139.563 200.075 139.788 200.052 139.985C200.034 140.092 200.023 140.199 200.017 140.308C200.002 140.415 200.002 140.524 200.017 140.631C200.017 140.735 200.132 140.85 200.242 140.786C200.444 140.7 200.637 140.594 200.819 140.469C201.534 140.002 202.261 139.471 202.959 138.946C204.765 137.573 206.519 136.108 208.215 134.596C209.057 133.84 209.888 133.067 210.69 132.288C211.507 131.533 212.26 130.711 212.94 129.831C213.327 129.288 213.448 129.063 213.563 129.11C213.678 129.156 213.707 129.536 213.494 130.148C213.181 130.963 212.773 131.738 212.277 132.456C211.568 133.447 210.762 134.365 209.871 135.196C208.221 136.748 206.507 138.213 204.73 139.61C203.842 140.313 202.942 141 201.978 141.64L201.534 141.923C201.298 142.073 201.061 142.194 200.825 142.333C200.6 142.442 200.369 142.537 200.132 142.615C199.941 142.642 199.747 142.642 199.555 142.615C198.678 142.436 198.35 141.571 198.442 140.469C198.442 140.331 198.442 140.198 198.477 140.06C198.511 139.921 198.517 139.748 198.523 139.702L198.592 139.263C198.65 138.969 198.707 138.686 198.765 138.404C198.892 137.827 199.025 137.285 199.169 136.736C199.452 135.64 199.746 134.561 200.052 133.483L200.484 131.873L200.686 131.071L200.848 130.379C200.881 130.279 200.904 130.177 200.917 130.073C200.917 130.021 200.917 129.929 200.842 129.958C200.793 129.978 200.747 130.003 200.703 130.033L200.6 130.108L200.542 130.154H200.513L200.444 130.223C198.88 131.74 197.386 133.442 195.869 135.127C195.107 135.975 194.34 136.829 193.561 137.671L192.984 138.294C192.765 138.513 192.627 138.663 192.217 139.038C191.901 139.352 191.547 139.624 191.161 139.846C190.847 139.987 190.507 140.064 190.163 140.071C189.87 139.808 189.656 139.468 189.546 139.09C189.436 138.645 189.414 138.182 189.482 137.729C189.517 137.475 189.563 137.221 189.615 137.002L189.73 136.529C189.817 136.223 189.915 135.917 190.013 135.623C190.544 134.077 191.167 132.617 191.819 131.163C192.13 130.442 192.442 129.715 192.713 129C192.875 128.55 192.886 128.515 192.932 128.348C192.941 128.273 192.941 128.198 192.932 128.123C192.932 128.104 192.926 128.085 192.917 128.069C192.908 128.052 192.895 128.038 192.879 128.027C192.864 128.017 192.846 128.01 192.827 128.007C192.808 128.005 192.789 128.007 192.771 128.013C192.62 128.026 192.47 128.057 192.327 128.106C191.98 128.219 191.643 128.358 191.317 128.521C190.639 128.864 189.989 129.259 189.373 129.704C188.105 130.618 186.901 131.617 185.767 132.692C182.984 135.397 180.342 138.243 177.852 141.219C174.021 145.696 170.294 150.311 166.55 154.835C163.63 158.337 160.809 161.821 157.59 165.046C156.88 165.756 156.177 166.442 155.403 167.106C152.519 169.558 151.117 169.892 150.24 169.794C150.043 169.775 149.85 169.732 149.663 169.667C149.265 169.408 150.621 169.015 152.692 167.4C154.258 166.166 155.729 164.816 157.094 163.361C158.507 161.902 159.88 160.362 161.248 158.787C163.977 155.637 166.659 152.348 169.359 149.054C173.369 144.161 177.378 139.2 181.757 134.521L181.78 134.562Z" fill="#3B2C7D"/>
<path d="M241.677 197.591C240.333 191.244 239.058 184.858 237.812 178.483C237.35 176.175 236.887 173.85 236.421 171.508L234.114 159.208C233.721 157.16 233.323 155.112 232.891 153.081C232.456 151.056 231.886 149.063 231.183 147.116C230.558 145.399 229.808 143.731 228.939 142.125C228.048 140.546 227.015 139.051 225.852 137.66C224.351 135.914 222.601 134.398 220.66 133.16C218.7 131.939 216.602 130.953 214.412 130.223C213.056 129.756 213.316 129.421 214.631 129.416C215.017 129.417 215.402 129.44 215.785 129.485C216.229 129.56 216.725 129.664 217.268 129.796C217.86 129.94 218.438 130.133 218.998 130.373C219.63 130.62 220.238 130.923 220.816 131.279C222.989 132.559 224.949 134.171 226.625 136.056C228.273 137.94 229.666 140.033 230.768 142.281C231.872 144.501 232.77 146.819 233.45 149.204C233.796 150.358 234.091 151.61 234.333 152.804C234.575 153.998 234.8 155.198 235.025 156.392C236.069 162.121 237.287 168.052 238.429 173.885C239.681 180.306 240.944 186.721 242.283 193.125C243.108 197.06 243.95 201 244.844 204.917C246.194 210.86 247.614 216.814 249.246 222.629C250.516 227.152 251.941 231.537 253.573 235.864C253.948 236.804 254.323 237.727 254.727 238.679C256.181 242.181 256.735 243.214 256.758 244.142C256.774 244.346 256.774 244.55 256.758 244.754C256.706 245.002 256.441 244.812 255.996 244.252C255.716 243.893 255.458 243.518 255.223 243.127C254.952 242.66 254.646 242.1 254.323 241.466C252.51 237.577 250.968 233.567 249.708 229.466C248.387 225.317 247.216 221.066 246.114 216.773C244.487 210.427 243.027 204.012 241.637 197.596L241.677 197.591Z" fill="#3B2C7D"/>
<path d="M231.922 215.192C230.549 211.408 229.205 207.612 228.063 203.723C227.642 202.298 227.261 200.839 226.909 199.448C225.669 194.464 224.301 189.49 222.715 184.598C222.022 182.423 221.209 180.277 220.355 178.189L219.49 176.192C219.178 175.54 218.861 174.889 218.561 174.231C217.965 172.943 217.274 171.701 216.495 170.515C216.017 169.806 216.305 169.633 217.072 170.031C217.586 170.301 218.044 170.665 218.422 171.104C218.683 171.374 218.926 171.661 219.149 171.964C219.384 172.306 219.602 172.661 219.801 173.025C221.158 175.729 222.315 178.529 223.263 181.402C224.249 184.246 225.115 187.125 225.894 190.056C226.822 193.517 227.919 197.123 228.778 200.729C229.736 204.583 231.086 208.414 232.43 212.21C233.265 214.548 234.132 216.877 235.032 219.196C236.394 222.704 237.772 226.229 239.244 229.667C240.397 232.339 241.603 234.917 242.838 237.502L243.663 239.198C244.672 241.327 244.92 242.014 244.817 242.66C244.801 242.806 244.772 242.951 244.73 243.092C244.58 243.462 243.836 242.717 242.999 241.171C240.553 236.602 238.384 231.617 236.324 226.581C234.784 222.837 233.307 219.046 231.882 215.239L231.922 215.192Z" fill="#3B2C7D"/>
<path d="M113.652 128.763C115.59 130.01 117.517 131.319 119.357 132.767C121.21 134.226 122.901 135.88 124.4 137.7C125.48 139.031 126.445 140.451 127.284 141.946C130.134 147.138 132.696 152.435 135.881 157.373C137.27 159.564 138.812 161.653 140.496 163.627C142.629 166.12 145.063 168.339 147.742 170.233C148.556 170.81 148.267 171.11 147.315 170.954C146.678 170.841 146.057 170.647 145.469 170.377C144.671 169.955 143.922 169.446 143.236 168.86C140.664 166.499 138.374 163.849 136.411 160.962C134.454 158.114 132.67 155.151 131.069 152.088L128.104 146.538C127.088 144.692 126.096 142.817 125 141.087C123.778 139.185 122.327 137.441 120.679 135.894C119.003 134.347 117.207 132.934 115.307 131.671C114.154 130.875 112.948 130.113 111.754 129.363C110.559 128.613 109.331 127.852 108.159 127.015C106.388 125.763 104.698 124.448 102.967 123.167C101.282 121.87 99.5103 120.688 97.6651 119.631L97.394 119.498L97.2267 119.417C97.1234 119.369 97.0174 119.327 96.9094 119.29C96.7053 119.205 96.4825 119.175 96.2632 119.204C96.2102 119.211 96.16 119.231 96.1174 119.264C96.0749 119.296 96.0416 119.339 96.0209 119.388C96.0134 119.501 96.0484 119.612 96.119 119.7C96.2476 119.875 96.3904 120.039 96.5459 120.19L97.2267 120.819C97.5267 121.09 97.8036 121.356 98.1382 121.621C98.7555 122.146 99.3844 122.665 100.013 123.185L101.692 124.546C103.775 126.277 104.363 126.969 104.49 127.679C104.535 127.833 104.558 127.992 104.559 128.152C104.49 128.544 103.613 127.956 102.05 126.75C100.896 125.85 99.7421 124.938 98.5478 123.981C97.9709 123.502 97.394 123.012 96.8171 122.504C96.5228 122.25 96.2401 121.985 95.9459 121.719L95.7325 121.512L95.5767 121.356L95.3863 121.16C95.1123 120.904 94.8542 120.633 94.6132 120.346C94.235 119.94 94.0123 119.412 93.9844 118.858C93.9845 118.749 94.0101 118.643 94.0594 118.546C94.1001 118.423 94.1502 118.304 94.2094 118.188C94.3674 117.984 94.5633 117.812 94.7863 117.681C95.2808 117.43 95.8529 117.378 96.3844 117.537C96.7324 117.611 97.0724 117.72 97.3998 117.86C97.577 117.927 97.7503 118.004 97.919 118.09L98.2478 118.252C99.6486 119.019 100.998 119.876 102.286 120.819C104.19 122.169 106.025 123.583 107.882 124.933C108.811 125.608 109.746 126.271 110.686 126.871L113.629 128.729L113.652 128.763Z" fill="#3B2C7D"/>
<path d="M91.9768 130.742C92.3817 129.771 92.9153 128.859 93.5633 128.031C93.7998 127.736 93.9902 127.413 94.2556 127.136C95.1687 126.101 96.3572 125.347 97.6825 124.961C98.2507 124.8 98.8289 124.677 99.4133 124.592C99.7825 124.535 100.146 124.483 100.515 124.454C100.882 124.442 101.248 124.477 101.606 124.558C101.831 124.609 101.796 124.921 101.606 125.238C101.512 125.416 101.382 125.572 101.226 125.697C101.069 125.822 100.888 125.913 100.694 125.965C99.3853 125.965 98.088 126.21 96.8691 126.686C96.1454 127.08 95.5218 127.635 95.046 128.308C94.7518 128.665 94.4691 129.052 94.1979 129.461C93.9337 129.845 93.7021 130.25 93.5056 130.673C93.2593 131.193 93.066 131.736 92.9287 132.294C92.6854 133.129 92.6147 134.004 92.721 134.867C92.8261 135.502 93.0945 136.098 93.4999 136.598C93.5791 136.704 93.6679 136.803 93.7652 136.892C93.8353 136.97 93.899 137.053 93.9556 137.14C94.0069 137.194 94.0446 137.259 94.0652 137.331C94.0978 137.482 94.0753 137.639 94.0018 137.775C93.9672 137.856 93.9441 137.948 93.9037 138.023C93.7652 138.288 93.4306 138.3 93.0152 138.023C92.4193 137.545 91.9597 136.918 91.6825 136.206C91.411 135.49 91.2835 134.727 91.3075 133.961C91.3366 132.869 91.5593 131.791 91.9652 130.777L91.9768 130.742Z" fill="#3B2C7D"/>
<path d="M103.235 135.237C102.756 135.104 102.271 134.948 101.792 134.769L101.44 134.625C101.304 134.572 101.171 134.51 101.042 134.441C100.81 134.314 100.585 134.175 100.367 134.025C99.5126 133.463 98.7282 132.8 98.0307 132.052C97.7598 131.756 97.5146 131.438 97.2981 131.1C97.0244 130.679 96.8911 130.182 96.9173 129.681C96.9461 129.427 97.0309 129.182 97.1656 128.965C97.3002 128.747 97.4814 128.562 97.6961 128.423C97.8644 128.31 98.0442 128.215 98.2327 128.141C98.4354 128.058 98.6492 128.005 98.8673 127.985C99.5685 127.969 100.267 128.083 100.927 128.319C102.15 128.712 103.275 129.225 104.388 129.6C104.884 129.764 105.397 129.864 105.917 129.9C106.478 129.974 107.034 130.076 107.585 130.206C108.312 130.369 109.014 130.627 109.673 130.973C110.351 131.337 110.93 131.862 111.358 132.502C111.617 132.912 111.265 133.039 110.781 132.981C110.188 132.905 109.616 132.709 109.102 132.404C107.973 131.781 106.732 131.389 105.45 131.25C105.283 131.221 105.121 131.204 104.873 131.158C104.625 131.112 104.463 131.054 104.267 131.002C103.898 130.887 103.546 130.754 103.206 130.621L101.262 129.808C100.887 129.649 100.501 129.518 100.108 129.416C99.7591 129.306 99.3935 129.261 99.0288 129.283C98.9704 129.29 98.9126 129.302 98.8558 129.317L98.6308 129.416C98.5213 129.472 98.4235 129.548 98.3423 129.641C98.3011 129.702 98.2808 129.775 98.2846 129.848C98.2973 129.981 98.3345 130.11 98.3942 130.229C98.8348 130.982 99.4236 131.637 100.125 132.156C100.482 132.449 100.856 132.72 101.244 132.969C101.43 133.09 101.623 133.2 101.821 133.298L102.444 133.546C103.506 133.944 104.677 134.123 105.86 134.585C106.764 134.931 107.575 135.482 108.231 136.194C108.865 136.892 109.385 137.556 110.031 138.191C110.959 139.149 112.022 139.967 113.187 140.619C113.435 140.758 113.694 140.873 113.954 141.006C114.917 141.479 115.212 141.652 115.298 142.096C115.33 142.192 115.351 142.29 115.362 142.391C115.362 142.691 114.842 142.771 114.012 142.489C112.752 142.04 111.58 141.374 110.55 140.521C109.535 139.659 108.591 138.715 107.729 137.7L107.492 137.423L107.273 137.192C107.135 137.031 106.973 136.904 106.829 136.754C106.52 136.495 106.183 136.271 105.825 136.085C104.992 135.727 104.127 135.453 103.24 135.266L103.235 135.237Z" fill="#3B2C7D"/>
<path d="M95.288 141.346C94.9185 141.16 94.5967 140.892 94.3476 140.562C94.1464 140.283 93.9834 139.978 93.863 139.656C93.6537 139.085 93.518 138.49 93.4591 137.885C93.3921 137.469 93.3536 137.048 93.3438 136.627C93.3418 135.172 93.5756 133.726 94.0361 132.346C94.2401 131.711 94.5169 131.101 94.8611 130.529C95.0973 130.116 95.4249 129.763 95.8188 129.496C96.0338 129.354 96.2762 129.258 96.5305 129.214C96.7848 129.17 97.0454 129.18 97.2957 129.242C97.613 129.323 97.4399 129.664 97.2207 129.992C97.1111 130.142 96.9957 130.321 96.9149 130.46C96.8619 130.579 96.7783 130.683 96.6726 130.76C96.1985 131.105 95.8339 131.58 95.6226 132.127C95.3175 132.802 95.0686 133.5 94.8784 134.216C94.6715 135.135 94.6111 136.081 94.6995 137.019C94.7223 137.526 94.7899 138.03 94.9015 138.525C94.9904 138.979 95.1732 139.409 95.438 139.789C95.5084 139.879 95.5921 139.959 95.6861 140.025C95.7687 140.085 95.8555 140.139 95.9457 140.187C96.0841 140.262 96.3034 140.337 96.413 140.187C96.482 140.074 96.5198 139.944 96.5226 139.812C96.5353 139.595 96.5353 139.377 96.5226 139.16C96.5226 138.646 96.4764 138.139 96.4476 137.631C96.3516 136.788 96.4063 135.934 96.6091 135.11C96.6675 134.908 96.7509 134.714 96.8572 134.533C96.9976 134.277 97.2186 134.074 97.4861 133.956C97.5708 133.926 97.6622 133.919 97.7505 133.936C97.8388 133.953 97.9208 133.994 97.988 134.054C98.0603 134.106 98.1278 134.164 98.1899 134.227C98.3745 134.464 98.2707 134.758 98.1207 135.035C97.6649 135.86 97.7803 137.204 97.8668 138.652C97.8668 138.929 97.9015 139.229 97.9015 139.512C97.9171 139.98 97.8487 140.447 97.6995 140.891C97.6103 141.111 97.4666 141.304 97.2819 141.454C97.0972 141.603 96.8777 141.703 96.6438 141.744H96.2918L95.9284 141.675C95.6923 141.605 95.4641 141.51 95.2476 141.392L95.288 141.346Z" fill="#3B2C7D"/>
<path d="M102.794 140.273C102.803 140.69 102.751 141.106 102.638 141.508L102.54 141.813L102.361 142.177C102.242 142.427 102.083 142.655 101.888 142.852C101.768 142.997 101.62 143.116 101.452 143.202C101.285 143.287 101.101 143.337 100.913 143.348C100.232 143.348 99.7592 142.673 99.4938 142.073C99.3164 141.638 99.1793 141.188 99.0842 140.729C98.9976 140.342 98.8938 139.961 98.8015 139.575C98.6147 139.078 98.5688 138.539 98.6688 138.017C98.7265 137.833 99.0784 137.919 99.4188 138.052C99.7592 138.184 100.1 138.346 100.134 138.583C100.25 139.442 100.411 140.371 100.573 141.242C100.642 141.531 100.642 141.554 100.711 141.652C100.738 141.692 100.778 141.722 100.824 141.737C100.87 141.751 100.92 141.75 100.965 141.733C101.076 141.676 101.164 141.582 101.213 141.467C101.269 141.369 101.311 141.265 101.34 141.156C101.374 141.023 101.399 140.888 101.415 140.752C101.44 140.38 101.423 140.006 101.363 139.638C101.265 139.061 101.126 138.438 100.982 137.809C100.832 137.304 100.741 136.784 100.711 136.258C100.694 136.131 100.694 136.003 100.711 135.877C100.713 135.789 100.733 135.703 100.77 135.624C100.807 135.545 100.859 135.474 100.925 135.415C100.986 135.376 101.054 135.351 101.126 135.342C101.198 135.333 101.271 135.34 101.34 135.363C101.424 135.375 101.507 135.392 101.588 135.415C101.711 135.455 101.818 135.532 101.895 135.636C101.973 135.739 102.016 135.863 102.021 135.992C102.055 136.338 102.107 136.65 102.176 137.008C102.246 137.365 102.344 137.758 102.448 138.161C102.632 138.855 102.756 139.563 102.817 140.279L102.794 140.273Z" fill="#3B2C7D"/>
<path d="M145.136 187.287C142.523 186.385 140.086 185.041 137.93 183.312C135.802 181.625 133.854 179.725 132.114 177.641C130.862 176.123 129.628 174.6 128.532 172.979C124.626 167.291 121.609 161.118 118.649 154.968C118.072 153.814 117.495 152.62 116.918 151.471C116.624 150.895 116.341 150.318 116.001 149.775L115.764 149.366C115.764 149.314 115.638 149.181 115.574 149.089L115.361 148.783C115.084 148.379 114.784 147.987 114.438 147.589C115.014 147.375 115.672 147.202 116.278 146.977L116.676 146.821C116.786 146.775 116.895 146.741 116.999 146.689L117.628 146.389C118.037 146.17 118.447 145.95 118.839 145.696C119.64 145.194 120.411 144.645 121.147 144.052C122.63 142.87 124.032 141.543 125.653 140.4C126.68 139.708 126.749 140.152 126.178 141.052C125.237 142.508 124.082 143.813 122.751 144.923C121.722 145.794 120.624 146.579 119.468 147.271C118.872 147.616 118.258 147.928 117.628 148.206L117.137 148.396H117.086C117.086 148.396 117.086 148.396 117.086 148.431L117.409 149.008C117.749 149.614 118.055 150.208 118.355 150.808C118.932 152.008 119.509 153.208 120.086 154.414C121.239 156.814 122.347 159.208 123.547 161.585C125.691 165.897 128.213 170.011 131.082 173.879C132.635 176.007 134.362 178.002 136.245 179.845C138.1 181.69 140.205 183.265 142.499 184.523C145.329 186.053 148.515 186.804 151.73 186.698C152.307 186.641 152.936 186.6 153.536 186.531C154.112 186.43 154.677 186.27 155.22 186.052C156.341 185.591 157.408 185.011 158.405 184.321C160.414 182.91 162.287 181.314 164.001 179.556C166.636 176.852 169.071 173.959 171.287 170.902C171.778 170.233 172.239 169.564 172.724 168.883C174.501 166.345 175.032 165.56 175.707 165.179C175.868 165.093 176.024 164.948 176.151 164.902C176.278 164.856 176.411 165.121 176.226 165.698C175.923 166.537 175.524 167.339 175.037 168.087C173.159 171.051 171.069 173.876 168.784 176.539C166.453 179.333 163.869 181.906 161.064 184.223C159.974 185.099 158.817 185.888 157.603 186.583C156.341 187.342 154.944 187.851 153.489 188.083C150.674 188.472 147.807 188.214 145.107 187.327L145.136 187.287Z" fill="#3B2C7D"/>
<path d="M172.554 191.013L173.783 184.667C173.933 183.894 174.042 183.115 174.204 182.36C174.781 179.642 175.358 176.931 175.975 174.225C176.235 173.025 176.483 171.808 176.708 170.608C176.864 169.84 176.996 169.061 177.164 168.3C177.337 167.53 177.562 166.772 177.839 166.033C178.023 165.571 178.317 165.715 178.565 166.2C178.893 166.881 178.992 167.65 178.848 168.392C178.202 171.508 177.481 174.606 176.679 177.733C176.194 179.596 175.9 181.581 175.525 183.502L174.302 189.888C174.06 191.204 173.819 192.517 173.581 193.829C173.229 195.819 172.854 197.821 172.548 199.806C172.312 201.346 172.167 202.875 171.971 204.421C171.925 204.756 171.902 205.09 171.85 205.431C171.66 206.688 171.487 207.069 171.037 207.265C170.94 207.319 170.837 207.361 170.731 207.392C170.396 207.461 170.223 206.902 170.292 205.973C170.489 203.215 170.921 200.342 171.389 197.458C171.74 195.323 172.127 193.177 172.502 191.036L172.554 191.013Z" fill="#3B2C7D"/>
<path d="M217.237 195.404L216.862 197.746C216.822 198.029 216.828 198.323 216.781 198.6C216.614 199.604 216.418 200.602 216.268 201.606C216.205 202.051 216.17 202.5 216.164 202.95C216.215 203.532 216.159 204.119 215.997 204.681C215.858 205.033 214.358 204.473 214.387 203.815C214.445 202.646 214.626 201.485 214.929 200.354C215.068 199.645 215.156 198.928 215.195 198.208L215.518 195.848L215.714 194.4C215.801 193.661 215.91 192.929 215.951 192.196C215.954 191.628 215.929 191.06 215.876 190.494C215.876 190.373 215.847 190.246 215.876 190.125C215.876 189.658 216.008 189.519 216.453 189.45L216.764 189.404C216.926 189.39 217.088 189.437 217.217 189.536C217.347 189.636 217.434 189.78 217.462 189.94C217.646 190.978 217.677 192.038 217.554 193.085C217.485 193.875 217.376 194.665 217.283 195.456L217.237 195.404Z" fill="#3B2C7D"/>
<path d="M221.882 246.86C220.676 244.292 218.812 210.727 215.414 204.167C186.96 211.212 174.522 210.035 170.778 206.746C168.557 218.862 167.028 245.129 167.316 249.744C171.839 249.744 213.591 246.889 221.882 246.86Z" fill="#3B2C7D"/>
<path d="M167.093 231.761C167.456 227.013 167.883 222.271 168.42 217.529C168.696 215.163 168.996 212.792 169.337 210.427C169.429 209.85 169.504 209.244 169.614 208.656L170.093 205.875L170.156 205.483V205.384C170.156 205.384 170.208 205.413 170.231 205.425L170.387 205.529L171.027 205.967L171.673 206.406L172.025 206.654C172.141 206.723 172.262 206.781 172.383 206.844C172.869 207.106 173.377 207.326 173.9 207.502C175.502 207.985 177.153 208.287 178.821 208.402C179.664 208.471 180.518 208.494 181.366 208.534H183.927C186.945 208.465 189.968 208.183 192.985 207.836C194.491 207.629 195.996 207.438 197.496 207.196C198.996 206.954 200.508 206.729 202.002 206.429C204.996 205.886 207.979 205.275 210.956 204.6L213.183 204.081L214.296 203.827L215.11 203.636L215.543 203.538C215.606 203.538 215.698 203.481 215.745 203.538L215.837 203.746C216.234 204.577 216.557 205.442 216.8 206.331C217.014 207.081 217.193 207.831 217.377 208.586C218.531 213.946 219.143 219.369 219.795 224.74C220.202 228.179 220.587 231.621 220.948 235.067C221.329 238.529 221.623 241.99 222.068 245.348C222.132 245.716 222.177 246.088 222.2 246.461C222.2 246.658 222.2 246.779 222.114 246.802C222.027 246.825 221.912 246.738 221.75 246.525C221.55 246.213 221.384 245.88 221.254 245.533C220.556 243.773 219.818 240.456 219.396 236.492C218.652 229.471 217.977 222.45 216.996 215.486C216.743 213.756 216.477 212.025 216.148 210.294C215.981 209.435 215.808 208.563 215.6 207.744C215.496 207.329 215.398 206.908 215.271 206.504C215.208 206.302 215.156 206.094 215.087 205.898L214.908 205.39C214.908 205.338 214.908 205.263 214.81 205.298H214.775L214.493 205.361L213.841 205.511L211.233 206.088C209.502 206.475 207.771 206.81 205.995 207.173C201.795 207.963 197.508 208.736 193.152 209.308C188.778 209.938 184.357 210.173 179.941 210.011C177.467 209.946 175.019 209.488 172.689 208.656C172.387 208.547 172.095 208.412 171.818 208.252L171.616 208.142C171.566 208.119 171.52 208.09 171.477 208.056L171.345 207.952L171.281 207.906C171.281 207.871 171.281 207.94 171.281 207.958L171.223 208.281L171.131 208.823C171.079 209.117 171.027 209.4 170.987 209.706L170.721 211.471C170.046 216.196 169.568 220.956 169.135 225.715C168.616 231.583 168.195 237.461 167.929 243.334C167.877 244.448 167.837 245.556 167.808 246.669C167.808 247.246 167.808 247.777 167.779 248.331V249.167C167.779 249.202 167.779 249.259 167.779 249.271H168.42L169.175 249.242L170.848 249.167L174.189 249C178.648 248.769 183.096 248.504 187.516 248.233L207.921 246.848L212.393 246.559C217.995 246.259 219.789 246.306 221.006 246.698C221.276 246.771 221.542 246.859 221.802 246.963C222.339 247.281 220.071 247.54 215.993 247.834C203.877 248.683 191.058 249.565 178.193 250.304L171.004 250.696C169.695 250.754 169.037 250.8 166.389 250.852C166.193 250.921 166.268 250.684 166.25 250.558V250.119V249.236V248.054C166.25 247.442 166.262 246.836 166.285 246.236C166.429 241.408 166.741 236.608 167.081 231.813L167.093 231.761Z" fill="#3B2C7D"/>
<path d="M195.944 152.995C195.64 153.118 195.315 153.178 194.987 153.17C194.659 153.162 194.337 153.087 194.04 152.948C193.477 152.65 193.051 152.146 192.851 151.541C192.695 151.149 192.625 150.728 192.644 150.306C192.666 149.891 192.806 149.491 193.048 149.152C193.3 148.802 193.675 148.559 194.098 148.471C194.516 148.38 194.954 148.452 195.321 148.673C195.652 148.88 195.912 149.185 196.065 149.544C196.216 149.873 196.26 150.24 196.192 150.595C196.149 150.814 196.04 151.015 195.88 151.171C195.807 151.248 195.718 151.309 195.621 151.35C195.536 151.404 195.442 151.441 195.344 151.46C195.076 151.539 194.789 151.518 194.536 151.402C194.303 151.294 194.104 151.124 193.959 150.912C193.813 150.695 193.734 150.44 193.734 150.179C193.733 150.048 193.762 149.918 193.817 149.799C193.873 149.68 193.955 149.576 194.057 149.493C194.34 149.291 194.496 149.637 194.605 149.845C194.67 149.966 194.768 150.066 194.888 150.133C194.909 150.142 194.931 150.147 194.954 150.147C194.977 150.147 195 150.142 195.021 150.133C195.055 150.133 195.078 150.133 195.084 150.133L195.136 150.191C195.095 150.247 195.064 150.309 195.044 150.375C195.04 150.396 195.04 150.418 195.044 150.439C195.044 150.698 195.015 150.087 195.044 150.15H195.084C195.084 150.15 195.084 150.179 195.084 150.196C195.102 150.244 195.127 150.289 195.159 150.329C195.188 150.358 195.159 150.329 195.159 150.329L195.101 150.3C195.101 150.3 195.032 150.271 195.003 150.271C195.009 150.126 194.971 149.982 194.895 149.858C194.819 149.734 194.708 149.635 194.576 149.573H194.438C194.392 149.573 194.328 149.573 194.276 149.614C194.177 149.655 194.091 149.723 194.028 149.81C193.894 150.054 193.844 150.336 193.884 150.612C193.914 150.961 194.042 151.295 194.253 151.575C194.345 151.691 194.461 151.786 194.594 151.852C194.743 151.91 194.901 151.939 195.061 151.939C195.507 151.907 195.922 151.699 196.215 151.362C196.463 151.093 196.647 150.772 196.751 150.421C196.851 150.085 196.833 149.725 196.699 149.4C196.575 149.168 196.396 148.969 196.178 148.821C195.96 148.672 195.709 148.578 195.448 148.546C195.332 148.546 195.217 148.546 195.101 148.512C194.669 148.471 194.524 148.443 194.386 148.119C194.357 148.05 194.311 147.975 194.282 147.906C194.184 147.67 194.386 147.398 194.859 147.329C195.62 147.237 196.388 147.444 196.999 147.906C197.345 148.172 197.62 148.519 197.801 148.916C197.98 149.322 198.052 149.767 198.009 150.208C197.959 150.817 197.737 151.399 197.369 151.887C197.016 152.393 196.531 152.792 195.967 153.041L195.944 152.995Z" fill="#3B2C7D"/>
<path d="M193.684 159.94C193.379 160.064 193.053 160.124 192.724 160.116C192.396 160.108 192.072 160.033 191.774 159.894C191.211 159.596 190.785 159.092 190.586 158.487C190.43 158.094 190.359 157.674 190.378 157.252C190.401 156.837 190.541 156.437 190.782 156.098C191.035 155.748 191.409 155.505 191.832 155.417C192.25 155.326 192.688 155.398 193.055 155.619C193.388 155.825 193.648 156.129 193.799 156.49C193.95 156.819 193.994 157.186 193.926 157.54C193.886 157.761 193.777 157.963 193.615 158.117C193.54 158.194 193.452 158.256 193.355 158.302C193.271 158.351 193.179 158.386 193.084 158.406C192.816 158.485 192.53 158.464 192.276 158.348C192.042 158.241 191.843 158.071 191.699 157.858C191.553 157.641 191.474 157.386 191.474 157.125C191.474 156.993 191.504 156.863 191.561 156.745C191.618 156.626 191.7 156.521 191.803 156.439C192.08 156.237 192.242 156.583 192.345 156.79C192.41 156.912 192.508 157.012 192.628 157.079C192.65 157.088 192.674 157.093 192.697 157.093C192.721 157.093 192.745 157.088 192.767 157.079C192.801 157.079 192.818 157.079 192.83 157.079C192.843 157.1 192.859 157.119 192.876 157.137C192.837 157.194 192.806 157.256 192.784 157.321C192.784 157.321 192.784 157.385 192.784 157.385C192.784 157.644 192.784 157.033 192.784 157.096H192.824C192.824 157.096 192.824 157.125 192.824 157.142C192.843 157.19 192.868 157.234 192.899 157.275L192.842 157.246C192.842 157.246 192.772 157.246 192.738 157.246C192.753 157.108 192.719 156.969 192.64 156.854C192.573 156.716 192.458 156.607 192.317 156.548H192.178C192.123 156.558 192.069 156.572 192.016 156.589C191.915 156.625 191.828 156.694 191.768 156.785C191.63 157.028 191.577 157.31 191.618 157.587C191.648 157.936 191.776 158.27 191.988 158.55C192.081 158.665 192.197 158.759 192.328 158.827C192.479 158.884 192.639 158.915 192.801 158.919C193.246 158.883 193.659 158.676 193.955 158.342C194.203 158.074 194.387 157.752 194.492 157.402C194.588 157.052 194.563 156.68 194.422 156.346C194.296 156.114 194.116 155.915 193.897 155.766C193.678 155.618 193.427 155.524 193.165 155.492C193.049 155.492 192.934 155.492 192.818 155.458C192.392 155.423 192.242 155.389 192.109 155.065C192.074 154.996 192.028 154.927 191.999 154.852C191.901 154.621 192.103 154.344 192.576 154.275C193.339 154.184 194.108 154.39 194.722 154.852C195.064 155.12 195.337 155.466 195.518 155.862C195.697 156.267 195.769 156.712 195.726 157.154C195.677 157.764 195.457 158.348 195.092 158.839C194.733 159.334 194.246 159.723 193.684 159.964V159.94Z" fill="#3B2C7D"/>
<path d="M68.9219 108.225C69.0315 108.762 70.1103 130.05 70.1103 130.05L87.2911 120.329L68.9219 108.225Z" fill="#3B2C7D"/>
<path d="M85.381 122.51L76.8484 127.16L73.7618 128.89L69.4349 131.25L69.0945 121.35C69.0253 119.504 68.9157 117.652 68.7887 115.823C68.6272 113.475 68.3964 111.115 68.408 108.773C68.3994 108.646 68.4232 108.519 68.4772 108.404C68.4995 108.369 68.5267 108.338 68.558 108.312L68.6099 108.283H68.7253C68.633 108.283 68.6734 108.283 68.6791 108.283H68.7426C68.7934 108.302 68.8419 108.327 68.8868 108.358C69.0074 108.455 69.1124 108.569 69.1984 108.698C69.7826 109.621 70.1129 110.682 70.156 111.773C70.4503 116.579 70.6291 121.379 70.6695 126.231C70.6695 127.09 70.7041 127.962 70.7214 128.838L74.183 126.911L82.7618 122.204L86.2637 120.288L85.7791 119.954L82.2137 117.554C80.9503 116.711 79.6868 115.869 78.4234 115.05C76.4561 113.769 74.4772 112.598 72.5041 111.375L71.2003 110.579C69.5964 109.552 69.1464 109.131 69.0311 108.565C68.9914 108.44 68.9663 108.31 68.956 108.179C68.956 107.815 69.7753 108.023 70.9926 108.715C74.6041 110.763 78.2734 113.135 81.9541 115.546L89.2349 120.392L85.3984 122.538L85.381 122.51Z" fill="#3B2C7D"/>
<path d="M48.3046 126.796L47.9469 108.179C47.8921 106.973 48.0067 105.765 48.2873 104.59C48.5759 103.346 49.1913 102.201 50.07 101.273C50.8676 100.479 51.8425 99.8858 52.9142 99.5422C53.9369 99.2248 54.9993 99.0539 56.07 99.0345C58.1065 98.9826 60.1084 99.0345 62.1046 99.1153C66.1026 99.2595 70.0892 99.4845 74.0757 99.6922L84.6796 100.24C89.1853 100.46 93.72 100.621 98.2084 101.042C101.012 101.302 97.3661 102.588 92.1738 102.3C82.943 101.798 73.7815 101.186 64.5219 100.644C61.7584 100.494 58.9084 100.385 56.1161 100.471C54.7958 100.478 53.4964 100.801 52.3257 101.411C51.2208 102.043 50.3824 103.053 49.9661 104.256C49.722 104.935 49.5631 105.643 49.493 106.361C49.4281 107.112 49.4127 107.865 49.4469 108.617L49.545 113.308L49.7411 122.688L49.8623 128.458V129.9V130.621V130.806C49.8623 130.863 49.8623 130.886 49.8623 130.95C49.8704 131.056 49.8839 131.162 49.9026 131.267C50.0581 132.144 50.394 132.979 50.8892 133.719C51.6782 134.844 52.7566 135.735 54.0103 136.298L54.4776 136.523L54.9738 136.696C55.301 136.822 55.6364 136.927 55.9776 137.008L57.0103 137.25L58.0661 137.394C59.4796 137.567 60.9507 137.631 62.3873 137.711C63.8238 137.792 65.2719 137.844 66.7257 137.885C71.2142 138.017 75.6219 137.977 80.0469 137.844L82.9315 137.723C84.7488 137.636 85.9373 137.579 86.7738 137.573C87.3589 137.549 87.9438 137.623 88.5046 137.792C88.7023 137.843 88.8954 137.91 89.0815 137.994C89.4969 138.242 88.02 138.796 85.32 139.05C81.3219 139.425 77.243 139.5 73.0719 139.5C68.9007 139.5 64.7123 139.373 60.4834 139.125C59.693 139.073 58.9142 139.033 58.1007 138.935L56.8719 138.773C56.4623 138.704 56.0526 138.594 55.643 138.502C53.9461 138.102 52.3658 137.312 51.0276 136.194C49.6981 135.005 48.7961 133.412 48.4603 131.66C48.4257 131.423 48.3911 131.215 48.3738 130.927V130.35V129.196L48.3161 126.848L48.3046 126.796Z" fill="#3B2C7D"/>
<path d="M102.24 111.173C102.31 110.544 102.367 109.909 102.385 109.292C102.385 109.061 102.356 108.836 102.385 108.611C102.423 107.838 102.368 107.064 102.223 106.304C102.147 105.982 102.012 105.677 101.825 105.404C101.553 105.102 101.304 104.78 101.081 104.44C101.029 104.313 101.289 104.013 101.658 103.811C102.027 103.609 102.494 103.529 102.708 103.811C103.091 104.258 103.383 104.776 103.567 105.334C103.731 105.859 103.809 106.406 103.798 106.956C103.798 107.59 103.914 108.202 103.925 108.819C103.937 109.436 103.885 110.152 103.839 110.809L103.735 112.021C103.694 112.598 103.614 113.238 103.608 113.838C103.62 114.307 103.659 114.775 103.723 115.24C103.741 115.341 103.752 115.443 103.758 115.546C103.758 115.927 103.648 116.042 103.233 116.123C103.14 116.123 103.048 116.123 102.95 116.158C102.807 116.179 102.661 116.145 102.542 116.064C102.422 115.983 102.337 115.86 102.304 115.719C102.11 114.878 102.047 114.012 102.119 113.152C102.165 112.511 102.206 111.871 102.246 111.231L102.24 111.173Z" fill="#3B2C7D"/>
<path d="M56.6866 150.791C53.8482 150.618 51.0097 150.427 48.1712 150.179C47.4616 150.127 46.752 150.046 46.0424 149.977L44.9982 149.873C44.6462 149.839 44.2482 149.758 43.8789 149.7C42.3769 149.405 40.9477 148.817 39.6732 147.969C37.8476 146.733 36.3426 145.08 35.2828 143.146C34.3626 141.48 33.703 139.682 33.327 137.816C32.975 135.978 32.8146 134.108 32.8482 132.237C32.802 128.579 32.8078 124.933 32.802 121.275C32.802 118.033 32.7616 114.779 32.7212 111.566C32.6693 107.441 32.5424 103.298 32.7212 99.1733C32.8193 96.6003 34.3078 99.8599 34.3366 104.614C34.3943 113.037 34.3366 121.46 34.2962 129.946C34.2962 131.216 34.2962 132.496 34.2962 133.777C34.3257 135.033 34.4744 136.283 34.7405 137.51C34.8501 138.127 35.0578 138.721 35.2251 139.327C35.4283 139.916 35.6613 140.493 35.9232 141.058C36.1774 141.628 36.4644 142.183 36.7828 142.719C37.1065 143.242 37.4589 143.747 37.8385 144.231C38.6739 145.293 39.6846 146.204 40.827 146.925C41.9671 147.637 43.2452 148.099 44.577 148.281C45.2347 148.396 45.9789 148.437 46.677 148.512C47.3751 148.587 48.0905 148.65 48.8058 148.702C50.2251 148.821 51.6462 148.927 53.0693 149.019C56.5712 149.25 60.0847 149.446 63.5924 149.596C68.9116 149.81 74.2597 149.971 79.5443 149.989C83.6462 149.989 87.6732 149.885 91.7232 149.706L94.3828 149.568C97.7116 149.406 98.7558 149.394 99.5116 149.746C99.684 149.812 99.85 149.893 100.008 149.989C100.187 150.133 99.9385 150.294 99.3385 150.462C98.4272 150.695 97.4964 150.844 96.5578 150.906C89.277 151.552 81.5924 151.552 73.8905 151.437C68.1674 151.341 62.4347 151.135 56.6924 150.819L56.6866 150.791Z" fill="#3B2C7D"/>
<path d="M97.704 94.4136C92.3694 94.079 87.0213 93.8425 81.6598 93.704C79.704 93.6463 77.754 93.6636 75.7983 93.6117C68.9098 93.4674 62.0213 93.3925 55.1329 93.4732C52.0752 93.4732 49.006 93.6232 45.9771 93.7617C44.0386 93.8828 42.0829 93.9809 40.1444 94.1367L34.329 94.5405C33.1233 94.604 33.2271 94.1944 34.2136 93.7098C35.8293 92.9984 37.5619 92.5897 39.3252 92.504C47.3156 91.9271 55.2886 91.8463 63.331 91.9905C68.1425 92.0944 73.1386 92.0251 78.0656 92.1348C83.4713 92.2386 88.8771 92.4175 94.2829 92.7117C97.6098 92.8732 100.935 93.1021 104.258 93.3982C104.887 93.4501 105.521 93.5367 106.15 93.6059C106.779 93.6751 107.408 93.7271 108.042 93.854C108.677 93.9809 109.312 94.0675 109.946 94.2175C110.585 94.3789 111.207 94.6011 111.804 94.8809C113.009 95.4451 114.077 96.2662 114.931 97.2867C115.35 97.7916 115.72 98.3343 116.039 98.9078C116.2 99.1963 116.344 99.4848 116.477 99.7848C116.606 100.1 116.712 100.424 116.794 100.754C117.144 102.687 117.336 104.646 117.371 106.61C117.441 108.537 117.452 110.458 117.441 112.379C117.441 113.227 117.441 114.058 117.441 114.912C117.36 118.073 117.221 119.066 116.8 119.735C116.717 119.891 116.621 120.04 116.512 120.179C116.194 120.491 115.935 119.169 115.935 116.856C115.935 113.423 115.935 109.898 115.848 106.367C115.832 104.627 115.677 102.891 115.387 101.175C115.356 100.998 115.308 100.824 115.242 100.656C115.189 100.472 115.118 100.295 115.029 100.125C114.859 99.7576 114.667 99.4011 114.452 99.0578C113.353 97.3605 111.642 96.1518 109.675 95.6828C109.069 95.5386 108.412 95.4521 107.783 95.3309C107.154 95.2098 106.467 95.1694 105.81 95.0828C103.162 94.7771 100.462 94.5982 97.7733 94.4367L97.704 94.4136Z" fill="#3B2C7D"/>
<path d="M250.41 240.502C250.924 240.323 251.443 240.162 251.962 239.994C252.147 239.937 252.326 239.839 252.539 239.787C253.214 239.602 253.906 239.469 254.599 239.342C254.905 239.279 255.21 239.192 255.516 239.1C255.907 238.925 256.344 238.88 256.762 238.973C256.901 239.014 256.866 239.412 256.762 239.804C256.658 240.196 256.555 240.577 256.376 240.606C255.662 240.736 254.942 240.827 254.218 240.877C253.753 240.948 253.299 241.08 252.868 241.269C252.372 241.431 251.87 241.587 251.38 241.765C251.074 241.869 250.768 241.985 250.468 242.106C250.012 242.279 249.569 242.483 249.141 242.717C248.826 242.925 248.533 243.163 248.264 243.427C248.201 243.479 248.155 243.542 248.085 243.594C247.849 243.767 247.728 243.733 247.439 243.427C247.376 243.358 247.306 243.294 247.243 243.219C247.142 243.126 247.078 243 247.062 242.863C247.047 242.727 247.08 242.589 247.156 242.475C247.621 241.899 248.214 241.438 248.887 241.131C249.372 240.877 249.885 240.675 250.387 240.467L250.41 240.502Z" fill="#3B2C7D"/>
<path d="M225.614 248.729L189.325 250.096L176.091 250.638L129.435 252.334C122.512 252.594 115.589 252.911 108.752 253.194C99.9485 253.575 91.1447 254.054 82.3178 254.192C79.4332 254.192 79.9812 253.806 82.2543 253.361C86.0938 252.684 89.9767 252.281 93.8735 252.156C111.839 251.423 129.793 250.748 147.908 250.211C158.743 249.888 170.01 249.352 181.093 248.925L217.647 247.5L240.147 246.617L265.837 245.567C266.068 245.559 266.299 245.582 266.524 245.636C266.74 245.682 266.93 245.811 267.054 245.994C267.16 246.198 267.214 246.425 267.214 246.655C267.214 246.884 267.16 247.111 267.054 247.315C266.863 247.771 266.524 248.149 266.091 248.388C265.987 248.447 265.879 248.497 265.768 248.538L265.514 248.636L265 248.827C263.626 249.297 262.207 249.625 260.766 249.808C258.568 250.108 256.387 250.263 254.206 250.384L250.952 250.569L250.168 250.609C250.099 250.607 250.031 250.629 249.977 250.673C249.882 250.722 249.793 250.782 249.712 250.852C249.331 251.14 249.233 251.377 249.325 251.642C249.355 251.712 249.394 251.778 249.441 251.838L249.654 252.069L249.966 252.3L250.041 252.363L250.179 252.438L250.462 252.594C250.641 252.692 250.86 252.802 251.004 252.9L251.374 253.194C251.489 253.292 251.639 253.396 251.725 253.483C251.811 253.569 251.872 253.677 251.904 253.794C251.915 253.869 251.908 253.945 251.885 254.017C251.862 254.089 251.824 254.155 251.772 254.209C251.683 254.317 251.58 254.412 251.466 254.492C251.18 254.685 250.864 254.829 250.531 254.919C250.156 255.029 249.724 255.121 249.377 255.196L248.529 255.346C246.366 255.704 244.214 255.923 242.05 256.165L236.379 256.742C234.608 256.921 233.143 257.071 231.931 257.227C231.418 257.281 230.909 257.37 230.408 257.492H230.362C230.356 257.47 230.346 257.448 230.333 257.429L230.281 257.325C230.24 257.257 230.192 257.193 230.137 257.134C230.122 257.095 230.093 257.062 230.056 257.042C229.993 257.042 230.056 257.042 230.016 257.042C229.975 257.042 230.045 257.042 230.074 257.008C230.086 256.997 230.096 256.983 230.102 256.967L230.397 256.621L230.431 256.656L230.535 256.725C230.691 256.823 230.855 256.908 231.025 256.979C231.612 257.226 232.213 257.438 232.825 257.613C233.327 257.769 233.737 257.902 234.1 258.029C234.464 258.156 234.891 258.259 235.099 258.352C235.439 258.502 234.885 258.698 233.541 258.681C232.672 258.663 231.81 258.535 230.974 258.3C230.697 258.223 230.425 258.128 230.16 258.017C230.006 257.947 229.855 257.868 229.71 257.781L229.583 257.694L229.525 257.648C229.508 257.64 229.492 257.628 229.479 257.613C229.433 257.569 229.39 257.521 229.352 257.469C229.318 257.415 229.287 257.359 229.26 257.302C229.227 257.205 229.213 257.103 229.22 257.002C229.222 256.9 229.246 256.8 229.289 256.708C229.314 256.656 229.345 256.608 229.381 256.563L229.491 256.442L229.56 256.39L229.681 256.309C229.866 256.219 230.059 256.148 230.258 256.096C230.425 256.05 230.581 256.015 230.743 255.981C231.06 255.911 231.383 255.859 231.712 255.802C235.324 255.271 238.941 254.959 242.599 254.544C244.416 254.336 246.25 254.129 248.05 253.84L248.72 253.731C248.831 253.717 248.941 253.694 249.049 253.661L249.152 253.627C249.152 253.627 249.187 253.627 249.152 253.586L249.1 253.558H249.049H249.02L248.87 253.442C248.766 253.356 248.679 253.298 248.57 253.194C248.46 253.09 248.339 252.946 248.229 252.819C248.108 252.65 248.001 252.471 247.912 252.283C247.83 252.071 247.778 251.85 247.756 251.625C247.739 251.168 247.873 250.718 248.137 250.344C248.341 250.059 248.593 249.811 248.881 249.611C248.945 249.559 249.008 249.525 249.072 249.479L249.32 249.334C249.418 249.277 249.522 249.236 249.625 249.184C249.734 249.152 249.847 249.136 249.96 249.138L250.75 249.098L252.158 249.029C254.027 248.931 255.908 248.815 257.772 248.648C259.608 248.515 261.433 248.245 263.229 247.84C263.662 247.736 264.083 247.604 264.504 247.459L265.139 247.223L265.266 247.171L262.249 247.309L225.637 248.809L225.614 248.729Z" fill="#3B2C7D"/>
<path d="M196.595 82.1192C194.864 81.9865 193.82 84.0922 195.51 84.5307C197.368 85.0038 197.882 81.6922 196.595 82.1192Z" fill="#3B2C7D"/>
<path d="M196.677 85.0616C196.379 85.1804 196.055 85.222 195.737 85.1827C195.45 85.1421 195.175 85.0482 194.923 84.9058C194.831 84.8423 194.733 84.7962 194.64 84.7269C194.549 84.6491 194.466 84.5621 194.392 84.4673C194.271 84.295 194.192 84.0966 194.162 83.888C194.132 83.6795 194.152 83.4669 194.219 83.2673C194.327 82.9339 194.527 82.6378 194.796 82.4135C195.009 82.223 195.246 82.0601 195.5 81.9289C195.654 81.8311 195.827 81.7662 196.008 81.7384C196.189 81.7106 196.373 81.7205 196.55 81.7673C196.665 81.8019 196.613 82.0558 196.55 82.3039C196.487 82.5519 196.365 82.7885 196.267 82.8289C195.89 82.9234 195.548 83.1235 195.281 83.4058C195.247 83.4409 195.222 83.4827 195.206 83.5285C195.19 83.5743 195.184 83.6229 195.188 83.6712C195.209 83.7488 195.251 83.8189 195.31 83.8731C195.31 83.9193 195.402 83.9481 195.448 83.9885L195.65 84.0866L195.863 84.1443C195.933 84.1443 195.996 84.1443 196.065 84.1443C196.245 84.116 196.412 84.0335 196.544 83.9077C196.783 83.6841 196.936 83.3841 196.977 83.0596C197.017 82.8173 196.885 82.5404 196.804 82.5289C196.723 82.5173 196.839 82.5289 196.844 82.4769C196.85 82.425 196.844 82.5404 196.844 82.5519L196.729 82.2808L196.642 82.1019C196.544 81.9116 196.59 81.6635 196.96 81.6C197.118 81.5895 197.276 81.6235 197.415 81.6981C197.488 81.7361 197.558 81.7805 197.623 81.8308C197.674 81.8804 197.72 81.9345 197.762 81.9923C197.806 82.0468 197.847 82.1047 197.883 82.1654L197.952 82.3269C197.996 82.4299 198.025 82.5387 198.038 82.65C198.097 83.0387 198.055 83.4358 197.917 83.8039C197.722 84.379 197.307 84.8537 196.763 85.125L196.677 85.0616Z" fill="#3B2C7D"/>
<path d="M207.529 84.2309C205.798 84.0924 204.754 86.2039 206.444 86.6366C208.296 87.1155 208.786 83.7809 207.529 84.2309Z" fill="#3B2C7D"/>
<path d="M207.602 87.1558C207.306 87.2758 206.984 87.3155 206.668 87.2712C206.381 87.2333 206.105 87.1392 205.854 86.9943C205.762 86.9366 205.664 86.8847 205.572 86.8154C205.478 86.7399 205.393 86.6548 205.318 86.5616C205.199 86.3869 205.122 86.1876 205.092 85.9787C205.062 85.7698 205.08 85.5568 205.145 85.3558C205.258 85.025 205.457 84.7303 205.722 84.502C205.933 84.3134 206.168 84.1525 206.42 84.0231C206.575 83.9242 206.749 83.8583 206.93 83.8295C207.112 83.8007 207.298 83.8097 207.476 83.8558C207.585 83.8905 207.539 84.1443 207.476 84.3981C207.412 84.652 207.291 84.8828 207.193 84.9174C206.816 85.0113 206.473 85.2115 206.206 85.4943C206.172 85.5287 206.146 85.5705 206.13 85.6164C206.114 85.6624 206.108 85.7113 206.114 85.7597C206.133 85.8395 206.175 85.9118 206.235 85.9674C206.235 86.0135 206.327 86.0366 206.368 86.0828L206.576 86.1808L206.783 86.2328C206.852 86.2328 206.922 86.2328 206.991 86.2328C207.172 86.2096 207.341 86.1263 207.47 85.9962C207.703 85.7711 207.855 85.4748 207.902 85.1539C207.937 84.9116 207.81 84.6289 207.729 84.6231C207.649 84.6174 207.758 84.6231 207.77 84.5654C207.764 84.592 207.764 84.6196 207.77 84.6462L207.654 84.3751L207.568 84.1904C207.464 84.0001 207.516 83.752 207.885 83.6943C208.041 83.6825 208.197 83.7144 208.335 83.7866C208.41 83.8273 208.481 83.8736 208.549 83.9251C208.599 83.9727 208.646 84.0248 208.687 84.0808C208.727 84.1385 208.774 84.202 208.808 84.2597L208.877 84.4212C208.921 84.5245 208.95 84.6332 208.964 84.7443C209.026 85.1333 208.982 85.5318 208.837 85.8981C208.742 86.184 208.591 86.448 208.393 86.6748C208.195 86.9017 207.954 87.0867 207.683 87.2193L207.602 87.1558Z" fill="#3B2C7D"/>
<path d="M194.173 80.9714C195.16 80.8791 195.327 80.8272 195.402 80.8907C195.619 81.06 195.858 81.1997 196.112 81.306C196.339 81.4432 196.586 81.5426 196.845 81.6003C197.083 81.6405 197.327 81.6405 197.566 81.6003C197.812 81.55 198.05 81.4686 198.275 81.358C198.418 81.3044 198.552 81.2306 198.673 81.1387C198.788 81.042 198.891 80.9315 198.979 80.8099C198.979 80.8099 198.979 80.7464 199.037 80.7637C199.273 80.9285 199.47 81.1432 199.614 81.3926C199.652 81.447 199.685 81.505 199.712 81.5657C199.614 81.6695 199.862 82.183 199.712 82.281C199.435 82.431 199.25 82.7368 198.962 82.9272C198.851 83.0063 198.722 83.0577 198.587 83.0772C198.41 83.0915 198.233 83.0915 198.056 83.0772C197.766 83.1231 197.473 83.152 197.179 83.1637C196.669 83.1732 196.162 83.0851 195.685 82.9041C195.202 82.7238 194.772 82.4264 194.433 82.0387C194.312 81.9016 194.207 81.7506 194.122 81.5887C194.078 81.521 194.045 81.4471 194.023 81.3695C194.045 81.2277 194.096 81.092 194.173 80.9714Z" fill="#3B2C7D"/>
<path d="M203.714 82.2405C204.481 82.0847 204.746 82.102 204.868 82.2116C205.071 82.357 205.264 82.517 205.445 82.6905C205.628 82.8373 205.821 82.9722 206.021 83.0943C206.347 83.3445 206.711 83.5394 207.1 83.6712C207.454 83.754 207.818 83.7794 208.179 83.7462C208.547 83.7164 208.909 83.6408 209.258 83.5212C209.471 83.4487 209.678 83.358 209.875 83.2501C210.061 83.1379 210.234 83.0043 210.389 82.852C210.418 82.852 210.429 82.7828 210.481 82.7943C210.727 82.9588 210.915 83.1972 211.018 83.4751C211.046 83.5443 211.098 83.6539 211.081 83.6655C210.931 83.7866 211.081 84.352 210.885 84.4558C210.693 84.5493 210.513 84.6655 210.348 84.802C210.164 84.9174 209.979 85.0501 209.771 85.1539C209.609 85.2246 209.439 85.2732 209.264 85.2981C209.035 85.3097 208.806 85.3097 208.577 85.2981C208.193 85.3186 207.808 85.3186 207.423 85.2981C206.76 85.2282 206.116 85.0324 205.525 84.7212C204.959 84.4196 204.459 84.0077 204.054 83.5097C203.868 83.2726 203.729 83.0025 203.645 82.7135C203.645 82.5534 203.668 82.3941 203.714 82.2405Z" fill="#3B2C7D"/>
<path d="M198.979 84.8423C199.12 85.171 199.212 85.5191 199.25 85.875C199.27 86.0816 199.21 86.2883 199.082 86.4519C198.402 87.4327 197.75 88.4884 197.092 89.5211C196.515 90.4154 195.892 91.2519 195.361 92.1865C195.131 92.5731 194.911 92.9711 194.698 93.3692C194.6 93.5654 194.49 93.7615 194.404 93.9461C194.317 94.1307 194.213 94.3615 194.167 94.4769C194.16 94.4892 194.156 94.5031 194.156 94.5173C194.156 94.5315 194.16 94.5454 194.167 94.5577C194.202 94.5865 194.167 94.5577 194.317 94.6615C194.639 94.8269 194.986 94.9399 195.344 94.9961C195.811 95.0802 196.287 95.0919 196.757 95.0307C197.194 94.9666 197.616 94.8321 198.009 94.6327C198.073 94.5981 198.119 94.5346 198.194 94.5404C198.338 94.5992 198.461 94.6999 198.548 94.8295C198.634 94.9591 198.68 95.1116 198.679 95.2673C198.679 95.3481 198.679 95.475 198.679 95.4923C198.332 95.6942 198.171 96.3288 197.681 96.4384C196.803 96.648 195.899 96.7277 194.998 96.675C194.615 96.6283 194.243 96.5192 193.896 96.3519C193.645 96.2342 193.413 96.0785 193.209 95.8904C193.146 95.8269 193.065 95.7577 193.002 95.6884C192.942 95.6157 192.888 95.5386 192.84 95.4577C192.736 95.305 192.66 95.135 192.615 94.9557C192.585 94.7805 192.575 94.6024 192.586 94.425C192.63 94.1884 192.702 93.958 192.8 93.7384C192.961 93.3577 193.181 92.9481 193.429 92.4807C193.936 91.5519 194.582 90.4384 195.263 89.3711C195.944 88.3038 196.636 87.2769 197.202 86.5154C197.53 86.0587 197.886 85.6232 198.269 85.2115C198.485 85.0516 198.724 84.927 198.979 84.8423Z" fill="#3B2C7D"/>
<path d="M193.407 103.881C194.359 103.633 194.561 103.581 194.624 103.644C194.859 103.806 195.124 103.917 195.403 103.973C195.668 104.058 195.944 104.103 196.222 104.106C196.481 104.079 196.735 104.011 196.972 103.904C197.213 103.8 197.437 103.66 197.636 103.489C197.74 103.379 197.884 103.298 197.959 103.166C198.034 103.033 198.034 103.039 198.069 102.975L198.138 102.768C198.138 102.768 198.138 102.704 198.172 102.704C198.456 102.775 198.721 102.905 198.951 103.085C199.009 103.131 199.107 103.2 199.101 103.218C199.044 103.35 199.453 103.794 199.32 103.921C199.206 104.058 199.107 104.207 199.026 104.366C198.933 104.526 198.829 104.681 198.715 104.827C198.61 104.93 198.492 105.017 198.363 105.087C198.19 105.168 197.988 105.191 197.82 105.254C197.653 105.318 197.382 105.439 196.938 105.548C196.415 105.677 195.872 105.703 195.34 105.623C194.786 105.544 194.266 105.306 193.845 104.937C193.635 104.76 193.462 104.542 193.338 104.296C193.329 104.154 193.353 104.012 193.407 103.881Z" fill="#3B2C7D"/>
<path d="M204.269 77.1289C207.656 75.7385 211.487 76.9731 214.175 79.1827C214.792 79.6904 216.587 78.7904 215.744 78.0981C214.059 76.6887 212.026 75.7582 209.858 75.404C207.691 75.0498 205.467 75.2849 203.421 76.0846C202.14 76.6096 203.283 77.5385 204.269 77.1289Z" fill="#3B2C7D"/>
<path d="M201.259 75.8886C199.529 73.6963 196.009 74.3193 193.829 75.2251C193.546 75.3405 192.836 75.6232 193.108 76.027C193.379 76.4309 194.475 76.027 194.734 75.9347C196.171 75.3578 197.884 75.4732 198.906 76.777C199.315 77.3078 201.715 76.4713 201.259 75.8886Z" fill="#3B2C7D"/>
</svg>
