<svg width="300" height="300" viewBox="0 0 300 300" fill="none" xmlns="http://www.w3.org/2000/svg">
<path d="M217.5 154.038C220.592 155.371 224.296 155.244 227.458 154.298C228.467 153.998 228.196 152.908 227.169 153.219C224.327 154.137 221.255 154.044 218.475 152.954C217.812 152.665 216.537 153.623 217.5 154.038Z" fill="#3B2C7D"/>
<path d="M161.352 62.4171C163.273 64.9787 166.192 66.2883 169.163 67.2575C169.625 67.4075 170.813 66.7325 170.744 66.6806C167.859 65.7345 164.911 64.4595 163.025 61.9498C162.742 61.5691 161.259 62.2671 161.352 62.3941V62.4171Z" fill="#3B2C7D"/>
<path d="M79.9739 244.875C78.4527 244.88 76.967 245.335 75.7044 246.183C74.4418 247.032 73.459 248.235 72.88 249.642C72.3011 251.049 72.1519 252.595 72.4515 254.087C72.751 255.578 73.4859 256.947 74.5631 258.021C75.6403 259.095 77.0117 259.826 78.504 260.121C79.9962 260.416 81.5425 260.262 82.9474 259.679C84.3524 259.096 85.553 258.11 86.3976 256.845C87.2423 255.579 87.6931 254.092 87.6931 252.571C87.6931 251.559 87.4933 250.556 87.1051 249.621C86.7168 248.685 86.1479 247.836 85.4308 247.121C84.7137 246.406 83.8625 245.84 82.9261 245.454C81.9897 245.069 80.9865 244.872 79.9739 244.875ZM77.2969 256.413C77.0269 256.529 76.7251 256.547 76.4431 256.465C76.3623 256.465 75.6642 256.079 75.6815 255.888C75.7162 255.537 75.52 249.629 75.6815 248.994C75.6815 248.902 75.82 248.815 75.9354 248.677C76.8931 248.821 77.0892 248.988 77.0892 249.162C77.1968 249.733 77.2605 250.311 77.2796 250.892C77.2796 251.377 77.245 251.867 77.2104 252.358C77.1642 253.056 77.3373 256.362 77.3085 256.396L77.2969 256.413ZM84.4854 256.356C84.4277 256.402 84.3296 256.488 84.3008 256.471C84.0239 256.304 83.4989 256.627 83.2277 256.431C82.7258 256.062 80.4469 254.7 80.1989 254.504C80.1181 254.44 78.5316 253.35 77.5623 252.733C78.5316 252.058 80.1585 250.91 81.5604 249.923C82.6623 249.15 83.5796 248.498 83.6489 248.463C83.8357 248.403 84.0296 248.366 84.2258 248.354C84.5604 249.283 84.4277 249.612 84.2258 249.808C83.47 250.46 82.7027 251.083 81.9181 251.665C81.5719 251.913 80.3142 252.692 80.3142 252.692L82.5412 254.152C82.9046 254.383 84.8489 255.525 84.8892 255.583C84.9758 255.756 84.7681 256.154 84.4854 256.338V256.356Z" fill="#3B2C7D"/>
<path d="M80.2828 245.158C82.2236 245.25 84.0513 246.098 85.3753 247.52C86.6992 248.943 87.4145 250.826 87.3681 252.769C87.3218 254.711 86.5176 256.559 85.1273 257.916C83.7371 259.274 81.871 260.034 79.9279 260.034C77.9849 260.034 76.1188 259.274 74.7286 257.916C73.3383 256.559 72.5341 254.711 72.4878 252.769C72.4414 250.826 73.1567 248.943 74.4806 247.52C75.8046 246.098 77.6323 245.25 79.5731 245.158C80.0924 245.158 80.1155 244.581 79.5443 244.615C77.4788 244.715 75.5341 245.618 74.1256 247.132C72.7171 248.646 71.9565 250.65 72.0062 252.718C72.0559 254.785 72.912 256.751 74.3917 258.195C75.8714 259.64 77.8572 260.448 79.9251 260.448C81.9929 260.448 83.9788 259.64 85.4584 258.195C86.9381 256.751 87.7942 254.785 87.8439 252.718C87.8936 250.65 87.133 248.646 85.7245 247.132C84.316 245.618 82.3713 244.715 80.3058 244.615C79.8501 244.615 79.8731 245.14 80.2828 245.158Z" fill="#3B2C7D"/>
<path d="M77.5708 256.281C77.5708 254.85 77.4323 253.431 77.5016 252.052L77.5535 250.967C77.5563 250.604 77.5331 250.242 77.4843 249.882C77.4843 249.704 77.4381 249.525 77.4092 249.346L77.3573 249.063C77.3377 248.986 77.3025 248.915 77.2538 248.852C77.2052 248.79 77.1442 248.738 77.0746 248.7C76.895 248.598 76.7002 248.526 76.4977 248.486C76.2958 248.44 76.2035 248.423 75.8054 248.359L75.5746 248.625C75.5418 248.656 75.5128 248.691 75.4881 248.729C75.4455 248.783 75.4159 248.846 75.4016 248.913C75.3613 249.217 75.342 249.524 75.3439 249.831V250.69V252.421C75.3439 253.575 75.3958 254.7 75.3958 255.854C75.3981 255.932 75.4173 256.008 75.4522 256.078C75.4871 256.148 75.5367 256.209 75.5977 256.257C75.6708 256.326 75.75 256.388 75.8343 256.442C75.9093 256.494 75.99 256.54 76.0708 256.586C76.1637 256.641 76.2624 256.686 76.365 256.719C76.6441 256.783 76.934 256.783 77.2131 256.719C77.2463 256.709 77.2762 256.691 77.2997 256.666C77.3231 256.64 77.3393 256.609 77.3464 256.575C77.3535 256.542 77.3513 256.506 77.34 256.474C77.3287 256.441 77.3088 256.412 77.2823 256.39C77.1669 256.309 77.1323 256.177 77.0804 256.194C76.8898 256.23 76.6941 256.23 76.5035 256.194L76.3419 256.113L76.14 255.992C76.081 255.952 76.0251 255.908 75.9727 255.859C75.9727 254.706 75.9381 253.552 75.9208 252.438V250.707V249.854C75.9209 249.59 75.9344 249.326 75.9612 249.063C75.9093 249.115 76.1054 248.902 76.0535 248.959L76.4054 249.034C76.5517 249.063 76.6934 249.111 76.8266 249.179L76.8669 249.207L76.9073 249.45L76.9823 249.963C77.0265 250.306 77.0477 250.651 77.0458 250.996L76.9939 252.034C76.9246 253.482 77.0458 254.919 77.0631 256.298C77.0458 256.257 77.5419 256.615 77.5708 256.281Z" fill="#3B2C7D"/>
<path d="M84.8084 256.402C84.9201 256.283 85.0117 256.147 85.0795 255.998C85.143 255.889 85.2353 255.496 85.016 255.352C84.9484 255.291 84.875 255.237 84.7968 255.191L84.6295 255.087L84.2891 254.885L82.9449 254.077C82.5122 253.818 82.0737 253.5 81.6353 253.229L80.793 252.652L81.8891 251.948C82.3276 251.648 82.7199 251.296 83.1353 250.973L84.3699 249.987C84.513 249.868 84.6175 249.709 84.6699 249.531C84.6981 249.369 84.6981 249.203 84.6699 249.041C84.6524 248.897 84.6254 248.754 84.5891 248.614C84.5891 248.533 84.5545 248.51 84.5199 248.383L84.393 248.014L83.9257 248.077C83.8324 248.086 83.7398 248.101 83.6487 248.123C83.5911 248.136 83.535 248.156 83.4814 248.181L83.3776 248.256L83.1699 248.4L82.3449 248.977L80.7064 250.131L77.2449 252.56L77.043 252.698C77.1002 252.75 77.162 252.796 77.2276 252.837L77.6372 253.114L78.0699 253.408L78.8891 253.956L79.7026 254.533L80.1295 254.821L80.5507 255.093L82.2295 256.137C82.518 256.321 82.7603 256.477 83.066 256.685C83.2744 256.779 83.5091 256.797 83.7295 256.737C83.9084 256.708 84.0295 256.668 84.1276 256.737C84.1637 256.745 84.2011 256.745 84.2372 256.737C84.2973 256.74 84.3567 256.722 84.4051 256.686C84.4535 256.65 84.488 256.599 84.5026 256.541C84.5024 256.473 84.4778 256.407 84.4334 256.356C84.394 256.303 84.3398 256.263 84.2776 256.241C84.2651 256.234 84.254 256.225 84.2451 256.214C84.2362 256.203 84.2296 256.191 84.2257 256.177C84.0356 256.136 83.8388 256.136 83.6487 256.177C83.5487 256.205 83.443 256.205 83.343 256.177C83.1064 256.016 82.7949 255.814 82.5237 255.641L80.8449 254.596L80.4353 254.331L80.043 254.066L79.2122 253.489L78.0411 252.693L81.0641 250.569L82.668 249.416L83.4641 248.839L83.6603 248.694L83.7584 248.625H83.8276L84.0353 248.591H84.0641L84.1103 248.735C84.1438 248.846 84.167 248.96 84.1795 249.075C84.1947 249.171 84.1947 249.268 84.1795 249.364C84.1581 249.44 84.1113 249.507 84.0468 249.554L82.8353 250.529C82.4257 250.846 82.0391 251.193 81.6064 251.481L80.066 252.473L79.8987 252.577C79.8987 252.577 79.8295 252.618 79.841 252.635L79.9218 252.687L80.2507 252.9L80.718 253.206L81.3757 253.639C81.8141 253.921 82.2353 254.216 82.6968 254.493L84.0468 255.3L84.6237 255.669V255.733C84.5843 255.824 84.5274 255.906 84.4564 255.975C84.3122 256.154 84.566 256.633 84.8084 256.402Z" fill="#3B2C7D"/>
<path d="M211.523 252.571C211.523 254.093 211.975 255.58 212.82 256.846C213.665 258.111 214.866 259.098 216.272 259.68C217.677 260.263 219.224 260.416 220.717 260.12C222.209 259.824 223.581 259.092 224.658 258.017C225.734 256.942 226.468 255.572 226.766 254.08C227.065 252.588 226.914 251.04 226.333 249.634C225.752 248.227 224.768 247.025 223.504 246.178C222.24 245.331 220.753 244.877 219.231 244.875C218.219 244.873 217.217 245.07 216.281 245.456C215.346 245.842 214.496 246.408 213.78 247.123C213.064 247.838 212.496 248.688 212.109 249.622C211.722 250.557 211.523 251.559 211.523 252.571ZM221.972 254.821C222.047 254.013 221.885 251.325 221.902 250.84C221.921 250.259 221.985 249.681 222.093 249.11C222.122 248.937 222.318 248.769 223.275 248.625C223.391 248.763 223.5 248.85 223.523 248.942C223.547 249.035 223.477 253.281 223.558 253.783C223.558 253.962 223.477 255.485 223.512 255.837C223.512 256.033 222.825 256.413 222.75 256.413C222.468 256.496 222.166 256.478 221.897 256.362C221.896 255.847 221.921 255.333 221.972 254.821ZM214.304 255.577C214.333 255.519 216.289 254.377 216.647 254.146L218.873 252.687C218.873 252.687 217.621 251.908 217.275 251.66C216.473 251.083 215.706 250.454 214.968 249.802C214.748 249.606 214.616 249.277 214.968 248.348C215.173 248.358 215.377 248.395 215.573 248.458C215.643 248.492 216.56 249.144 217.656 249.917L221.654 252.727C220.691 253.362 219.923 253.702 219.531 254.135C219.248 254.463 216.497 256.056 215.995 256.442C215.723 256.638 215.285 256.333 214.922 256.483C214.76 256.483 214.218 255.756 214.304 255.577Z" fill="#3B2C7D"/>
<path d="M211.806 252.259C211.898 250.314 212.748 248.482 214.174 247.155C215.599 245.827 217.487 245.11 219.434 245.157C221.381 245.203 223.233 246.009 224.594 247.403C225.955 248.796 226.716 250.667 226.716 252.614C226.716 254.562 225.955 256.432 224.594 257.826C223.233 259.219 221.381 260.025 219.434 260.072C217.487 260.118 215.599 259.401 214.174 258.074C212.748 256.747 211.898 254.915 211.806 252.969C211.806 252.45 211.229 252.392 211.263 252.969C211.363 255.041 212.268 256.991 213.786 258.404C215.305 259.817 217.315 260.58 219.389 260.53C221.462 260.481 223.434 259.622 224.883 258.138C226.331 256.654 227.143 254.662 227.143 252.588C227.143 250.514 226.331 248.523 224.883 247.039C223.434 245.555 221.462 244.696 219.389 244.646C217.315 244.597 215.305 245.36 213.786 246.773C212.268 248.185 211.363 250.136 211.263 252.208C211.24 252.692 211.788 252.692 211.806 252.259Z" fill="#3B2C7D"/>
<path d="M221.693 254.919L221.641 255.664V256.044V256.269C221.635 256.327 221.635 256.385 221.641 256.443L221.67 256.518C221.67 256.518 221.67 256.518 221.67 256.558V256.593C221.773 256.678 221.9 256.73 222.034 256.743C222.277 256.791 222.528 256.791 222.772 256.743C222.878 256.71 222.979 256.663 223.072 256.604C223.154 256.562 223.233 256.513 223.309 256.46C223.396 256.408 223.477 256.346 223.551 256.275C223.61 256.225 223.658 256.163 223.693 256.094C223.728 256.024 223.748 255.949 223.753 255.871C223.753 255.26 223.787 254.671 223.799 254.054C223.804 253.964 223.804 253.873 223.799 253.783C223.796 253.716 223.796 253.648 223.799 253.581V253.131V249.502C223.799 249.341 223.799 249.219 223.799 249.018C223.784 248.886 223.725 248.764 223.632 248.671L223.528 248.562L223.378 248.389L223.014 248.446L222.795 248.493C222.642 248.525 222.492 248.567 222.345 248.619C222.238 248.647 222.138 248.697 222.053 248.767C221.967 248.836 221.897 248.924 221.849 249.023C221.837 249.057 221.827 249.092 221.82 249.127V249.179V249.289L221.785 249.502C221.69 250.086 221.649 250.677 221.664 251.268C221.693 252.421 221.768 253.575 221.739 254.689C221.739 254.868 222.27 254.937 222.282 254.689C222.31 253.535 222.235 252.381 222.207 251.227C222.193 250.671 222.232 250.115 222.322 249.566L222.385 249.196C222.436 249.154 222.495 249.122 222.559 249.104C222.683 249.062 222.81 249.027 222.939 249L223.199 248.948L223.251 249.012C223.303 249.069 223.291 249.052 223.285 249.052V250.385V252.208V253.119V253.581C223.28 253.664 223.28 253.746 223.285 253.829C223.285 253.875 223.285 253.939 223.285 254.019C223.285 254.596 223.222 255.231 223.234 255.831L223.205 255.86C223.153 255.908 223.097 255.95 223.037 255.987L222.841 256.108C222.788 256.139 222.732 256.166 222.674 256.189C222.559 256.217 222.441 256.231 222.322 256.229H222.16L222.189 255.716L222.235 254.983C222.247 254.81 221.705 254.758 221.693 254.919Z" fill="#3B2C7D"/>
<path d="M214.072 255.854C214.15 256.041 214.255 256.216 214.384 256.373L214.482 256.489L214.54 256.546L214.632 256.627C214.699 256.679 214.779 256.712 214.863 256.725C214.929 256.718 214.994 256.706 215.059 256.691C215.206 256.684 215.354 256.698 215.497 256.731C215.612 256.749 215.729 256.749 215.843 256.731C215.971 256.708 216.09 256.652 216.19 256.569C216.766 256.194 217.343 255.831 217.966 255.462L218.861 254.885C219.18 254.697 219.478 254.475 219.749 254.221C219.994 253.999 220.263 253.806 220.551 253.644L221.001 253.373L221.491 253.073L221.924 252.796L222.034 252.727C222.063 252.727 222.143 252.681 222.074 252.652L221.861 252.502L221.226 252.052L220.366 251.475L218.636 250.264L216.905 249.046L216.022 248.435L215.803 248.279C215.724 248.216 215.634 248.167 215.538 248.135C215.438 248.106 215.335 248.087 215.232 248.077L214.753 248.014C214.678 248.239 214.586 248.504 214.568 248.591C214.531 248.717 214.502 248.846 214.482 248.977C214.448 249.134 214.449 249.296 214.483 249.452C214.518 249.609 214.587 249.756 214.684 249.883C214.775 249.979 214.876 250.066 214.984 250.143L215.272 250.373L215.849 250.829L217.003 251.741C217.39 252.035 217.816 252.277 218.22 252.548L218.399 252.658L218.059 252.883L216.847 253.673C216.057 254.198 215.209 254.666 214.384 255.185C214.078 255.381 214.436 255.808 214.672 255.641C215.48 255.133 216.328 254.671 217.147 254.129L218.359 253.333L219.23 252.756L219.38 252.658C219.38 252.623 219.293 252.594 219.259 252.56L218.953 252.364L218.52 252.087C218.122 251.821 217.707 251.585 217.326 251.296L216.172 250.402L215.595 249.952L215.318 249.727C215.232 249.662 215.149 249.593 215.07 249.519C215.025 249.451 214.994 249.373 214.981 249.291C214.968 249.209 214.973 249.126 214.995 249.046C214.995 248.948 215.036 248.839 215.065 248.729L215.099 248.614H215.191C215.264 248.617 215.335 248.628 215.405 248.648C215.472 248.677 215.534 248.716 215.59 248.764L215.803 248.914L216.645 249.491L218.376 250.685L220.107 251.896L220.966 252.502L221.18 252.652L220.315 253.166C219.987 253.345 219.683 253.564 219.409 253.818C219.164 254.037 218.898 254.231 218.613 254.394L217.724 254.971C217.147 255.346 216.53 255.693 215.93 256.125C215.82 256.2 215.855 256.177 215.809 256.189C215.75 256.199 215.689 256.199 215.63 256.189C215.431 256.146 215.227 256.132 215.024 256.148C215.024 256.281 214.718 255.866 214.626 255.652C214.626 255.571 214.47 255.652 214.349 255.56C214.317 255.542 214.278 255.537 214.242 255.545C214.206 255.554 214.174 255.575 214.153 255.606C214.119 255.637 214.093 255.676 214.079 255.719C214.065 255.763 214.063 255.809 214.072 255.854Z" fill="#3B2C7D"/>
<path d="M210.919 58.1538C210.754 58.2236 210.578 58.2596 210.399 58.2596C210.221 58.2596 210.044 58.2236 209.88 58.1538C209.88 58.1538 209.794 58.3211 209.713 58.5C209.632 58.6788 209.557 58.8461 209.563 58.8461C209.823 58.9588 210.104 59.017 210.388 59.017C210.672 59.017 210.952 58.9588 211.213 58.8461C211.173 58.7264 211.127 58.6089 211.074 58.4942C210.999 58.3269 210.919 58.1538 210.919 58.1538Z" fill="#3B2C7D"/>
<path d="M185.926 54.392C185.995 54.4625 186.07 54.5262 186.151 54.5824C186.225 54.634 186.31 54.6676 186.399 54.6805C186.474 54.6818 186.548 54.6701 186.618 54.6459C187.019 54.567 187.378 54.3457 187.628 54.0228C187.761 53.8557 187.877 53.676 187.974 53.4863C188.112 53.2326 188.262 52.9861 188.424 52.7478C188.424 52.6786 188.482 52.6728 188.424 52.7478C188.424 52.817 188.493 52.9901 188.505 53.169C188.557 53.4958 188.535 53.8301 188.441 54.1475C188.347 54.4648 188.184 54.7573 187.963 55.0036C187.662 55.3546 187.28 55.6261 186.849 55.794C186.422 55.9013 185.97 55.8417 185.585 55.6274C185.2 55.413 184.912 55.0599 184.778 54.6401C184.691 54.2204 184.723 53.785 184.87 53.3824C184.943 53.1029 185.045 52.832 185.176 52.5747L185.268 52.4132C185.333 52.3069 185.404 52.2048 185.482 52.1074C185.474 52.1938 185.474 52.2807 185.482 52.367C185.495 52.6394 185.522 52.911 185.563 53.1805C185.577 53.4202 185.604 53.6589 185.643 53.8959C185.66 54.0867 185.749 54.2641 185.892 54.392H185.926Z" fill="#3B2C7D"/>
<path d="M193.845 56.2906C193.908 56.364 193.982 56.4281 194.064 56.4809C194.139 56.532 194.223 56.5673 194.312 56.5848C194.388 56.5807 194.463 56.5691 194.537 56.5502C194.95 56.4791 195.321 56.2544 195.575 55.9213C195.709 55.7538 195.827 55.5742 195.927 55.3848C196.064 55.1325 196.214 54.8879 196.377 54.6521C196.377 54.5771 196.429 54.5771 196.377 54.6521C196.377 54.7271 196.441 54.8886 196.452 55.0675C196.507 55.3944 196.487 55.7295 196.393 56.0474C196.299 56.3653 196.134 56.6576 195.91 56.9021C195.612 57.2557 195.229 57.5276 194.797 57.6925C194.531 57.7645 194.252 57.7696 193.984 57.7071C193.716 57.6447 193.468 57.5168 193.262 57.3348C193.009 57.1291 192.824 56.8515 192.731 56.5386C192.645 56.119 192.677 55.6835 192.824 55.2809C192.893 55.0006 192.996 54.7294 193.129 54.4733L193.216 54.3117C193.337 54.1098 193.412 54.0579 193.429 54.0117C193.421 54.0961 193.421 54.1811 193.429 54.2656C193.429 54.5309 193.475 54.8425 193.51 55.0848C193.545 55.3271 193.568 55.5983 193.597 55.7944C193.614 55.984 193.7 56.1606 193.839 56.2906H193.845Z" fill="#3B2C7D"/>
<path d="M184.189 47.1865C184.426 48.3342 184.295 49.5274 183.814 50.5961C183.162 52.4134 182.487 54.225 181.997 56.0481C181.497 57.8674 181.201 59.7365 181.114 61.6211C181.033 63.2298 181.153 64.8422 181.472 66.4211C181.541 66.8192 181.657 67.2 181.749 67.575C181.841 67.95 181.974 68.3423 182.13 68.7288C182.381 69.4727 182.733 70.1791 183.174 70.8288C183.879 71.9343 184.955 72.7525 186.208 73.1365C187.492 73.4623 188.844 73.3898 190.085 72.9288C191.383 72.4744 192.608 71.833 193.72 71.025C194.854 70.2129 195.916 69.3037 196.893 68.3077C197.47 67.7308 198.047 67.1019 198.549 66.4615C199.063 65.8152 199.545 65.1432 199.991 64.4481C200.874 63.0981 201.722 61.7192 202.535 60.3346C202.661 60.0964 202.8 59.8652 202.951 59.6423C203.366 59.0942 203.718 59.1115 203.672 59.6711C203.676 59.8053 203.652 59.9387 203.603 60.0634C202.974 61.1481 202.789 62.2154 202.062 63.3346C201.335 64.4538 200.747 65.4 200.032 66.4442C199.31 67.468 198.507 68.4326 197.632 69.3288C196.933 70.0534 196.181 70.7245 195.382 71.3365C194.348 72.1205 193.237 72.7953 192.064 73.35C191.326 73.7127 190.553 73.9988 189.757 74.2038C188.314 74.6026 186.783 74.5401 185.378 74.025C184.519 73.6903 183.743 73.1725 183.105 72.5077C182.435 71.8054 181.887 70.9962 181.483 70.1134C180.67 68.303 180.169 66.368 180.001 64.3904C179.757 60.8087 180.268 57.2157 181.501 53.8442C182.464 51.1269 183.203 49.3327 183.266 49.1538C183.462 48.5884 183.774 48.0577 184.189 47.1865Z" fill="#3B2C7D"/>
<path d="M208.31 50.6885C207.156 48.1327 205.84 46.0731 202.863 45.1846C196.892 43.4539 191.902 46.7596 186.133 47.1923C184.684 47.2015 183.244 46.9735 181.869 46.5173C179.21 45.4731 177.433 43.0558 177.312 39.7616C176.988 30.7385 188.152 30.8308 190.079 30.7616C192.162 30.7522 194.241 30.9454 196.287 31.3385C198.323 31.6673 204.208 34.7539 205.737 36.3577C209.815 40.6039 209.51 45.375 208.31 50.6885Z" fill="#3B2C7D"/>
<path d="M188.205 31.6156C186.053 31.6972 183.936 32.1886 181.968 33.0637C181.034 33.5045 180.199 34.1284 179.511 34.8983C178.846 35.6711 178.379 36.5936 178.149 37.5867C177.83 39.0779 177.913 40.6271 178.391 42.0752C178.814 43.3353 179.621 44.4311 180.699 45.2079C181.236 45.5975 181.829 45.903 182.459 46.1137C183.113 46.3206 183.785 46.4674 184.466 46.5521C184.812 46.5983 185.159 46.6329 185.505 46.656H186.007C186.134 46.656 186.341 46.6271 186.509 46.6156C187.21 46.5604 187.908 46.4622 188.597 46.3214C189.987 46.0617 191.372 45.681 192.774 45.3175C195.243 44.6771 197.845 44.0194 200.488 44.2617C200.909 44.2617 201.33 44.3656 201.745 44.4175C202.161 44.4694 202.576 44.6021 202.991 44.6944C203.833 44.926 204.631 45.2964 205.351 45.7906C206.731 46.8221 207.793 48.2217 208.414 49.8291C208.495 50.0013 208.551 50.1838 208.582 50.3714C208.591 50.419 208.591 50.468 208.582 50.5156L208.334 50.6252L208.466 50.5617H208.414C208.36 50.5394 208.308 50.5123 208.259 50.481C208.107 50.3757 207.966 50.2559 207.837 50.1233C206.944 49.0952 205.998 48.1131 205.005 47.181C204.426 46.7312 203.774 46.3838 203.078 46.154C202.715 46.0278 202.345 45.9238 201.97 45.8425C201.59 45.7481 201.205 45.6769 200.816 45.629C199.244 45.4426 197.652 45.5128 196.103 45.8367C192.936 46.4137 189.711 47.6425 186.203 47.8329C185.661 47.8379 185.119 47.8032 184.582 47.7291C184.062 47.6656 183.538 47.579 183.018 47.4637C181.932 47.2418 180.905 46.7957 180.001 46.154C179.085 45.5072 178.327 44.661 177.786 43.679C177.251 42.7057 176.919 41.6342 176.811 40.529C176.681 39.3337 176.775 38.1246 177.088 36.9637C177.408 35.7828 178.023 34.7028 178.876 33.8252C179.716 32.9728 180.713 32.2911 181.813 31.8175C182.882 31.3452 184.003 30.9986 185.153 30.7848C186.546 30.5232 187.959 30.3785 189.376 30.3521C190.786 30.2926 192.198 30.3486 193.599 30.5194C194.13 30.5829 194.655 30.6579 195.18 30.7387L195.964 30.8656L196.357 30.9291L196.772 31.0214C197.806 31.3326 198.812 31.7322 199.778 32.2156C201.706 33.116 203.547 34.1937 205.276 35.4348C205.616 35.6928 205.931 35.9825 206.216 36.3002C206.493 36.6117 206.793 36.9117 207.024 37.2464L207.405 37.7425L207.745 38.2617C207.971 38.6115 208.177 38.9736 208.362 39.3464C209.1 40.8487 209.522 42.4862 209.603 44.1579C209.652 44.8821 209.652 45.6087 209.603 46.3329C209.548 47.2883 209.395 48.2356 209.147 49.1598C209.05 49.5852 208.852 49.9809 208.57 50.3137C208.48 50.4303 208.38 50.5384 208.27 50.6367C207.953 50.8271 208.028 49.731 208.27 47.8444C208.593 45.0637 208.495 42.1502 207.174 39.681L206.932 39.2194C206.845 39.0694 206.741 38.9252 206.649 38.781C206.464 38.4832 206.26 38.198 206.037 37.9271C205.823 37.644 205.594 37.3725 205.351 37.1137C205.133 36.8619 204.89 36.6337 204.624 36.4329C203.444 35.5641 202.196 34.7923 200.891 34.1252C199.915 33.6003 198.911 33.1266 197.886 32.706C197.405 32.5018 196.912 32.3302 196.409 32.1925C196.207 32.1406 195.913 32.0944 195.636 32.0541L194.805 31.9214C193.713 31.7518 192.614 31.6382 191.511 31.581C190.443 31.5406 189.295 31.581 188.205 31.6444V31.6156Z" fill="#3B2C7D"/>
<path d="M209.965 56.7518C210.323 56.3999 210.513 56.3999 210.663 56.4633L211.148 56.6826L211.038 56.6422C211.144 56.6641 211.244 56.709 211.331 56.7738C211.418 56.8386 211.489 56.9217 211.54 57.0172C211.605 57.1487 211.642 57.292 211.65 57.4383C211.669 57.6603 211.656 57.8839 211.609 58.1018C211.497 58.5959 211.321 59.0731 211.084 59.521C210.901 59.9107 210.687 60.285 210.444 60.6403C210.186 61.0423 209.836 61.3767 209.423 61.6153C209.256 61.7036 209.069 61.7455 208.88 61.7364C208.694 61.7204 208.513 61.659 208.355 61.5576C208.159 61.4422 207.952 61.3383 207.75 61.2345C207.715 61.2345 207.669 61.2345 207.652 61.171C207.634 61.1076 207.686 60.8768 207.83 60.7787C207.865 60.7787 207.911 60.7153 207.929 60.721C208.084 60.8076 208.35 60.646 208.505 60.721L208.73 60.8537L208.846 60.9114C208.886 60.9114 208.875 60.9114 208.886 60.9114C208.95 60.8919 209.01 60.8584 209.059 60.8133L209.302 60.6345C209.429 60.5446 209.549 60.4442 209.659 60.3345C210.036 59.862 210.334 59.3322 210.542 58.7653C210.686 58.4134 210.787 58.0453 210.842 57.6691C210.861 57.5623 210.861 57.4529 210.842 57.346L210.888 57.3057C210.917 57.2653 210.888 57.3057 210.888 57.3403L211.136 57.5595L210.767 57.3518L210.161 57.0172C210.088 56.935 210.022 56.8462 209.965 56.7518Z" fill="#3B2C7D"/>
<path d="M180.651 56.504C180.776 56.5747 180.877 56.68 180.942 56.8069C181.008 56.9339 181.035 57.0772 181.021 57.2194C180.996 57.3369 180.939 57.4449 180.855 57.5308C180.771 57.6167 180.665 57.6768 180.548 57.704C180.355 57.7414 180.155 57.7255 179.971 57.6578C179.788 57.5842 179.618 57.4809 179.469 57.3521C179.253 57.1678 179.059 56.9587 178.892 56.729C178.578 56.2786 178.362 55.7677 178.257 55.229C178.119 54.352 178.166 53.4558 178.396 52.5982C178.575 51.889 178.828 51.2006 179.151 50.5444C179.44 49.8982 179.728 49.2809 180.069 48.6636L180.646 47.579C180.825 47.2271 180.98 46.8694 181.142 46.5232C181.171 46.4597 181.176 46.3905 181.228 46.3501C181.373 46.2405 181.673 46.3501 181.805 46.5694C181.84 46.6155 181.903 46.6847 181.892 46.7136C181.765 46.9905 182.013 47.3944 181.851 47.6713C181.585 48.1954 181.35 48.7348 181.148 49.2867C181.053 49.5 180.947 49.708 180.83 49.9097C180.675 50.1694 180.496 50.4117 180.351 50.6655C180.117 51.1128 179.909 51.5732 179.728 52.0444C179.446 52.8037 179.316 53.6116 179.348 54.4213C179.353 55.1479 179.613 55.8498 180.08 56.4059C180.121 56.4578 180.173 56.504 180.201 56.5386L180.259 56.579C180.278 56.5861 180.298 56.5861 180.317 56.579C180.338 56.5839 180.359 56.5839 180.38 56.579H180.461H180.53L180.651 56.504Z" fill="#3B2C7D"/>
<path d="M179.115 52.2751C178.827 52.6732 178.659 52.7078 178.538 52.6674C178.417 52.6271 178.411 52.6386 178.273 52.5867C178.107 52.5264 177.97 52.4045 177.892 52.2463C177.851 52.1656 177.82 52.0804 177.8 51.9925C177.8 51.9175 177.8 51.854 177.771 51.7848C177.762 51.5443 177.796 51.3043 177.869 51.0751C177.984 50.6828 178.157 50.3078 178.307 49.9213C178.457 49.5348 178.567 49.2636 178.711 48.9405C178.859 48.5807 179.053 48.2413 179.288 47.9309C179.389 47.8122 179.51 47.7125 179.646 47.6367C179.821 47.5389 180.027 47.5101 180.223 47.5559L180.857 47.7694C180.892 47.7694 180.927 47.7694 180.95 47.804C180.973 47.8386 180.95 48.0924 180.823 48.2194C180.823 48.2194 180.759 48.2944 180.742 48.2944C180.598 48.2424 180.384 48.4501 180.234 48.3809C180.084 48.3117 180.061 48.3175 180.038 48.3463C180.015 48.3751 180.038 48.3463 180.038 48.3924L179.963 48.5078L179.825 48.7213C179.744 48.8424 179.646 48.9578 179.571 49.0848C179.289 49.6086 179.046 50.1524 178.844 50.7117C178.718 51.0321 178.625 51.3646 178.567 51.704C178.561 51.7538 178.561 51.8042 178.567 51.854C178.565 51.8674 178.565 51.881 178.567 51.8944C178.578 51.8971 178.59 51.8971 178.602 51.8944L178.919 52.0271C178.994 52.1017 179.06 52.185 179.115 52.2751Z" fill="#3B2C7D"/>
<path d="M210.761 53.925C210.577 53.925 210.652 53.925 210.64 53.925C210.64 53.925 210.64 53.9769 210.669 54.0057C210.698 54.0346 210.698 54.1211 210.709 54.1846C210.721 54.248 210.744 54.4327 210.755 54.5596C210.773 54.8208 210.773 55.0829 210.755 55.3442C210.727 55.8904 210.64 56.432 210.496 56.9596C210.189 58.065 209.698 59.1106 209.042 60.0519C208.767 60.4525 208.471 60.8377 208.154 61.2057C208.004 61.3961 207.819 61.5634 207.657 61.7423C207.481 61.9352 207.288 62.1128 207.08 62.273C206.219 62.9021 205.169 63.2176 204.104 63.1673C203.847 63.1629 203.59 63.1417 203.336 63.1038L203.129 63.0692L202.88 63C202.681 62.9342 202.5 62.8237 202.35 62.6769C202.198 62.5195 202.101 62.3171 202.073 62.1C202.051 61.9074 202.06 61.7125 202.102 61.523C202.161 61.2679 202.238 61.0173 202.332 60.773C202.655 59.8684 203.041 58.9874 203.486 58.1365C204.386 56.4519 205.454 54.9057 206.336 53.3134C206.778 52.5334 207.153 51.7169 207.455 50.873C207.727 50.0233 207.92 49.1504 208.032 48.2654C208.292 46.7318 208.377 45.1738 208.286 43.6211C208.192 42.1018 207.783 40.6186 207.086 39.2653C207.003 39.0969 206.911 38.9332 206.809 38.775L206.665 38.5327L206.515 38.3307C206.29 38.0365 206.03 37.7538 205.771 37.4653C204.161 35.7627 202.268 34.3532 200.175 33.3C198.981 32.6935 197.728 32.2102 196.436 31.8577C195.784 31.7134 195.132 31.5519 194.475 31.448L193.477 31.3327C193.145 31.2798 192.809 31.2527 192.473 31.2519H191.469H190.967L190.465 31.2923L189.461 31.3673L188.942 31.4019C188.717 31.4274 188.488 31.396 188.278 31.3105C188.068 31.225 187.883 31.0882 187.739 30.9125C187.596 30.7369 187.499 30.528 187.457 30.3051C187.415 30.0821 187.43 29.8523 187.5 29.6365C187.574 29.346 187.742 29.0884 187.979 28.9038C188.093 28.8113 188.222 28.7374 188.359 28.6846L188.555 28.6211H188.7C189.057 28.5634 189.415 28.4942 189.773 28.448L190.846 28.3557C193.688 28.2877 196.518 28.7454 199.194 29.7057C200.538 30.1485 201.844 30.6983 203.1 31.35C204.334 32.0641 205.486 32.9135 206.532 33.8827C207.155 34.4327 207.757 35.0096 208.338 35.6134C208.959 36.2077 209.507 36.8739 209.971 37.598C210.862 39.0766 211.418 40.733 211.598 42.45C211.769 44.0552 211.738 45.6756 211.505 47.273C211.312 48.8512 210.972 50.4079 210.49 51.923C210.659 52.0378 210.813 52.1713 210.952 52.3211C211.206 52.5912 211.374 52.9304 211.436 53.2961C211.473 53.4733 211.451 53.6578 211.373 53.8211C211.252 53.9769 211.159 53.7461 210.877 53.3192C210.721 53.1398 210.55 52.9756 210.363 52.8288C210.25 52.7244 210.126 52.6316 209.994 52.5519C209.83 52.4524 209.66 52.3619 209.486 52.2807C209.515 52.148 209.579 52.0038 209.619 51.8596L209.688 51.6404L209.734 51.4615C209.792 51.2307 209.85 50.9942 209.896 50.7634C209.994 50.2961 210.075 49.8288 210.144 49.3557C210.282 48.4154 210.392 47.4461 210.519 46.373C210.84 44.1113 210.592 41.8052 209.798 39.6634C209.385 38.6442 208.779 37.7139 208.015 36.923C207.207 36.098 206.348 35.2961 205.465 34.5461C204.772 33.9488 204.044 33.3939 203.284 32.8846C202.512 32.4084 201.704 31.9937 200.867 31.6442C198.704 30.6934 196.428 30.0245 194.094 29.6538C192.635 29.4436 191.154 29.432 189.692 29.6192L188.907 29.7519C188.855 29.7601 188.807 29.7821 188.766 29.8156C188.725 29.849 188.695 29.8928 188.677 29.9423C188.659 29.9929 188.655 30.0473 188.665 30.1C188.675 30.1526 188.699 30.2017 188.734 30.2423C188.764 30.2718 188.802 30.2902 188.844 30.2942H188.965H189.219C189.9 30.2596 190.609 30.1673 191.348 30.1673H192.502H193.079L193.655 30.2365L194.85 30.3807C195.254 30.45 195.652 30.548 196.061 30.6288L196.679 30.7615L197.284 30.9461C197.694 31.0788 198.109 31.1827 198.519 31.3384C200.208 31.9615 201.813 32.7929 203.296 33.8134C204.861 34.8717 206.27 36.1458 207.479 37.598C208.618 39.2102 209.318 41.0911 209.509 43.0557C209.689 44.9447 209.605 46.8493 209.261 48.7154C209.131 49.6391 208.909 50.5474 208.598 51.4269C208.28 52.274 207.894 53.094 207.444 53.8788C206.584 55.4134 205.65 56.7634 204.882 58.1307C204.502 58.8057 204.167 59.4692 203.873 60.1269C203.734 60.4615 203.602 60.7788 203.475 61.1134L203.307 61.5865C203.278 61.6831 203.255 61.7813 203.238 61.8807C203.238 61.8959 203.241 61.911 203.247 61.925C203.253 61.9389 203.261 61.9514 203.273 61.9615H203.313C203.361 61.9757 203.409 61.9872 203.457 61.9961C203.739 62.0465 204.025 62.0736 204.311 62.0769C204.837 62.083 205.359 61.9829 205.846 61.7827C206.051 61.6902 206.245 61.574 206.423 61.4365C206.515 61.3673 206.596 61.298 206.677 61.2288L206.925 60.9692C207.233 60.6588 207.524 60.3314 207.796 59.9884C208.357 59.259 208.846 58.4764 209.255 57.6519C209.504 57.1384 209.757 56.6307 209.994 56.025C210.109 55.7192 210.23 55.3961 210.34 55.0327C210.392 54.8538 210.45 54.6634 210.496 54.4557C210.525 54.3577 210.542 54.2538 210.565 54.15V54V53.9365V53.9423C210.565 53.9423 210.577 53.9423 210.761 53.925Z" fill="#3B2C7D"/>
<path d="M210.852 55.044C210.955 54.6632 211.175 52.644 209.669 52.2344L209.882 51.7382C211.838 47.0248 212.115 40.7363 208.417 36.444C206.81 34.659 204.934 33.1367 202.855 31.9325C209.409 31.1017 215.957 36.3113 216.177 44.3536C216.332 49.9498 213.425 52.3555 210.407 56.3305C210.586 55.913 210.735 55.483 210.852 55.044Z" fill="#3B2C7D"/>
<path d="M212.306 36.2884C211.316 35.1551 210.107 34.2329 208.753 33.5768C208.077 33.2478 207.369 32.9888 206.641 32.8037C206.453 32.7461 206.26 32.7075 206.064 32.6884L205.787 32.6422H205.695C205.601 32.6243 205.507 32.6127 205.412 32.6076C205.326 32.5989 205.239 32.5989 205.153 32.6076C205.116 32.6025 205.079 32.6025 205.043 32.6076L205.158 32.6653C205.253 32.7227 205.343 32.7863 205.429 32.8557L206.133 33.4326C206.531 33.773 206.924 34.1191 207.287 34.4826C208.078 35.1994 208.794 35.9959 209.422 36.8595C210.033 37.7551 210.53 38.7243 210.899 39.7441C211.246 40.7507 211.485 41.7911 211.614 42.848C211.814 44.7111 211.733 46.5938 211.372 48.4326C211.238 49.1361 211.065 49.8314 210.853 50.5153C210.754 50.8557 210.639 51.1961 210.512 51.5307L210.385 51.8595C210.385 51.9172 210.304 51.998 210.339 52.0326L210.466 52.0903L210.512 52.1191L210.674 52.2518C210.887 52.4669 211.055 52.7217 211.17 53.0018C211.36 53.5097 211.423 54.0562 211.354 54.5941C211.314 54.9807 211.17 55.171 211.06 55.1307C210.951 55.0903 210.847 54.9057 210.714 54.6287C210.573 54.2912 210.409 53.9635 210.224 53.648C210.129 53.4984 210.01 53.3658 209.872 53.2557C209.837 53.2557 209.814 53.2095 209.779 53.1922L209.537 53.071L208.545 52.748L208.747 52.2634L209.099 51.4384L209.289 50.9422C209.393 50.6768 209.485 50.4114 209.572 50.1403C209.751 49.6037 209.895 49.0557 210.022 48.5018C210.281 47.398 210.432 46.2715 210.472 45.1384C210.58 42.8737 210.111 40.6187 209.11 38.5845C208.462 37.351 207.59 36.2494 206.537 35.3364C206.006 34.8518 205.453 34.3845 204.881 33.946C204.375 33.5441 203.843 33.176 203.289 32.8441C203.001 32.6595 202.603 32.4576 202.268 32.2672L201.172 31.6903L201.039 31.6153C201.122 31.599 201.203 31.5758 201.281 31.546H201.351C201.392 31.5328 201.436 31.5328 201.478 31.546L202.395 31.4826L203.306 31.4307H205.078C205.233 31.4307 205.383 31.4307 205.545 31.471L206.001 31.5403L206.618 31.6441L207.224 31.8114C208.834 32.2554 210.336 33.0251 211.637 34.073C213.243 35.3621 214.519 37.0155 215.358 38.896C215.985 40.3134 216.374 41.8238 216.512 43.3672C216.68 44.9109 216.582 46.4718 216.224 47.9826C215.938 49.1374 215.491 50.2464 214.897 51.2768C214.305 52.2793 213.65 53.2428 212.935 54.1614L212.018 55.3614C211.51 56.0076 211.153 56.4576 210.864 56.7576L209.97 56.2441C210.063 55.8648 210.276 55.5252 210.576 55.2749C210.671 55.2051 210.772 55.1415 210.876 55.0845C211.135 54.9922 211.147 55.523 210.876 56.5384L209.999 56.0076C210.103 55.8403 210.224 55.6614 210.356 55.4653C211.51 53.7345 212.901 52.1537 213.893 50.3999C214.904 48.6493 215.408 46.6515 215.347 44.6307C215.367 41.5719 214.276 38.6098 212.278 36.2941L212.306 36.2884Z" fill="#3B2C7D"/>
<path d="M152.133 99.3574C151.999 98.9657 151.953 98.5496 151.996 98.1381C152.04 97.7265 152.173 97.3295 152.387 96.9747C153.54 94.667 154.737 92.3882 155.975 90.1382C157.037 88.194 158.179 86.2959 159.281 84.369C161.173 81.0574 163.065 77.7517 165.05 74.492C165.627 73.5344 166.25 72.5824 166.867 71.6074C167.485 70.6324 168.021 69.7786 168.737 68.8844C168.85 68.7235 168.979 68.5746 169.123 68.4401C169.602 68.0997 169.862 68.319 169.775 68.7401C169.775 68.8324 169.775 68.9594 169.7 69.0113C169.152 69.6344 169.123 70.4363 168.615 71.1344C167.681 72.444 166.913 73.8805 166.1 75.2882C165.777 75.8651 165.437 76.4074 165.085 76.9555C164.64 77.6536 164.167 78.3401 163.729 79.044C163.123 80.0074 160.435 84.6344 157.96 89.1228L152.998 98.1517C152.79 98.5209 152.519 98.8324 152.133 99.3574Z" fill="#3B2C7D"/>
<path d="M172.013 67.2173C170.063 67.1423 168.096 66.225 166.325 65.0884C165.579 64.6153 164.852 64.1038 164.144 63.5538C163.792 63.2826 163.446 62.9769 163.111 62.6942L162.863 62.475C162.834 62.475 162.805 62.4115 162.788 62.475L159.805 66.1326C157.63 68.8442 155.502 71.5903 153.459 74.3884C149.884 79.1551 146.707 84.2088 143.963 89.498C142.829 91.7844 141.824 94.1323 140.952 96.5307C140.161 98.9365 139.134 101.388 139.705 103.656C139.989 104.761 140.663 105.727 141.604 106.373C142.596 107.031 143.724 107.457 144.904 107.619C147.309 108.023 149.848 107.66 152.3 107.094C153.755 106.753 155.185 106.314 156.58 105.779C157.987 105.255 159.36 104.648 160.694 103.961C163.255 102.647 165.699 101.114 167.998 99.3807C168.379 99.0865 168.777 98.7692 169.152 98.5096C170.167 97.823 170.629 97.9327 170.075 98.6942C169.963 98.8954 169.821 99.0783 169.654 99.2365C167.871 100.627 166.642 102.052 164.559 103.275C160.729 105.536 156.65 107.515 152.242 108.56C150.465 108.992 148.642 109.205 146.813 109.194C145.618 109.182 144.431 109 143.288 108.652C142.103 108.296 141.015 107.672 140.109 106.829C139.911 106.658 139.733 106.464 139.579 106.252C139.351 105.976 139.157 105.674 139.002 105.352C138.552 104.502 138.302 103.561 138.269 102.6C138.239 101.398 138.407 100.2 138.765 99.0519C139.157 97.8519 139.544 96.5365 140.08 95.1865C141.208 92.2151 142.536 89.3238 144.055 86.5326C145.721 83.482 147.539 80.5167 149.502 77.648C153.43 71.8788 157.74 66.5596 161.04 62.5903L162.609 60.7038C162.649 60.6532 162.691 60.6051 162.736 60.5596L162.88 60.698L163.157 60.9807L163.705 61.5576C163.815 61.6673 163.827 61.673 163.884 61.725L164.034 61.8576L164.323 62.1173C165.102 62.7807 165.846 63.3173 166.475 63.7557C167.738 64.6211 168.569 65.0884 168.707 65.1865C169.613 65.7346 170.519 66.3461 172.013 67.2173Z" fill="#3B2C7D"/>
<path d="M163.928 62.6886C163.864 62.433 163.874 62.1644 163.957 61.9141C164.04 61.6638 164.192 61.4423 164.396 61.2752C165.442 60.4062 166.369 59.4034 167.153 58.2925C167.863 57.3059 168.63 56.3598 169.357 55.4079L169.813 54.7906L170.05 54.4733C170.138 54.3483 170.237 54.2306 170.344 54.1213C170.746 53.7081 171.207 53.3563 171.711 53.0771L171.844 53.0021H172.011L171.717 53.0771C172.695 52.5388 173.733 52.1167 174.809 51.8194C175.47 51.5879 176.17 51.4879 176.869 51.5252C177.221 51.5658 177.566 51.6531 177.896 51.7848L178.721 52.1194C178.808 52.1409 178.892 52.1759 178.969 52.2233C179.013 52.2679 179.046 52.3223 179.065 52.382C179.084 52.4417 179.088 52.5051 179.078 52.5669C179.068 52.6288 179.043 52.6874 179.006 52.7379C178.969 52.7885 178.921 52.8296 178.865 52.8579C178.807 52.8925 178.732 52.9617 178.686 52.9444C178.253 52.8002 177.723 52.9444 177.336 52.8059C176.632 52.4771 175.934 52.7483 175.092 53.0483C174.763 53.1636 174.434 53.2675 174.105 53.3713C173.682 53.4854 173.266 53.6241 172.859 53.7867C172.66 53.8666 172.467 53.961 172.282 54.0694L172.15 54.1386H172L172.277 54.0694C172.019 54.2026 171.773 54.359 171.544 54.5367C171.385 54.6572 171.238 54.7924 171.105 54.9406C171.03 55.0213 170.984 55.0906 170.903 55.1944L170.655 55.529L168.417 58.5809C168.047 59.1142 167.649 59.6265 167.223 60.1156C166.85 60.5379 166.451 60.9367 166.028 61.3098C165.6 61.6858 165.154 62.0401 164.69 62.3713C164.446 62.4985 164.191 62.6047 163.928 62.6886Z" fill="#3B2C7D"/>
<path d="M172.905 55.881C172.662 55.3444 172.697 55.1656 172.807 55.0675C173.159 54.7182 173.546 54.4051 173.961 54.1329C174.343 53.8867 174.756 53.6927 175.189 53.556C175.3 53.5209 175.414 53.4958 175.53 53.481H175.714H175.847H176.366C176.718 53.481 177.07 53.481 177.434 53.481H178.703C178.737 53.481 178.778 53.481 178.807 53.481C178.836 53.481 178.882 53.8098 178.807 54.0002C178.807 54.0406 178.766 54.1098 178.749 54.1098C178.599 54.1098 178.449 54.4329 178.299 54.4098C178.006 54.4043 177.714 54.4333 177.428 54.4963C177.311 54.5108 177.193 54.5108 177.076 54.4963C176.926 54.4963 176.77 54.4502 176.614 54.4387C176.459 54.4271 176.211 54.4387 175.812 54.4387C175.437 54.478 175.078 54.6109 174.768 54.8252C174.245 55.1477 173.739 55.4962 173.251 55.8694C173.137 55.8895 173.02 55.8934 172.905 55.881Z" fill="#3B2C7D"/>
<path d="M172.158 53.8556C171.829 53.3422 171.887 53.0825 172.019 52.8806C172.452 52.2172 172.908 51.5595 173.41 50.9306C173.855 50.392 174.332 49.8814 174.84 49.4018C175.693 48.4647 176.775 47.7649 177.979 47.371C178.168 47.322 178.361 47.2873 178.556 47.2672L179.133 47.221L180.067 47.1172C180.118 47.1029 180.172 47.1029 180.223 47.1172C180.302 47.172 180.36 47.2526 180.386 47.3452C180.413 47.4378 180.406 47.5366 180.367 47.6249C180.367 47.671 180.338 47.7402 180.31 47.746C180.056 47.746 179.877 48.121 179.588 48.1268C179.337 48.1312 179.086 48.1582 178.838 48.2075C178.625 48.2483 178.414 48.3062 178.21 48.3806C178.048 48.4478 177.882 48.5056 177.713 48.5537C177.493 48.6297 177.277 48.7183 177.067 48.8191C176.701 49.0222 176.36 49.2681 176.052 49.5518C175.51 50.0423 175.003 50.5705 174.535 51.1325C173.531 52.3268 172.631 53.5556 172.567 53.6018C172.441 53.7021 172.304 53.7873 172.158 53.8556Z" fill="#3B2C7D"/>
<path d="M174.86 52.8232C174.473 52.379 174.479 52.1943 174.548 52.079C174.791 51.6949 175.072 51.3356 175.385 51.0059C175.658 50.7279 175.947 50.4659 176.25 50.2213C176.753 49.7505 177.306 49.3364 177.9 48.9867C178.087 48.8833 178.279 48.7908 178.477 48.7097C178.687 48.6203 178.905 48.5526 179.129 48.5078C179.163 48.5078 179.21 48.5078 179.25 48.5078C179.29 48.5078 179.365 48.8194 179.308 49.0213C179.308 49.0674 179.308 49.1424 179.273 49.1424C179.129 49.177 179.094 49.4944 178.979 49.5347C178.749 49.6118 178.54 49.74 178.367 49.9097C178.288 49.9708 178.2 50.0212 178.108 50.0597C177.992 50.1232 177.854 50.1636 177.738 50.227C177.213 50.5905 176.728 51.0082 176.29 51.4732C175.713 52.0847 175.171 52.7194 175.136 52.7482C175.048 52.7855 174.955 52.8108 174.86 52.8232Z" fill="#3B2C7D"/>
<path d="M169.423 64.8116C169.03 64.1712 169.129 63.8366 169.319 63.5885C169.959 62.7177 170.78 61.9954 171.725 61.4712C172.541 61.0756 173.401 60.7755 174.286 60.577C174.967 60.4063 175.625 60.1565 176.248 59.8327C176.837 59.4963 177.361 59.0566 177.794 58.5347C178.071 58.2174 178.371 57.8943 178.619 57.5481C178.867 57.202 179.109 56.8674 179.357 56.527C179.398 56.4693 179.427 56.3943 179.49 56.3597C179.669 56.2674 179.94 56.4347 180.038 56.6885C180.038 56.7462 180.113 56.827 180.09 56.8501C179.9 57.1154 180.061 57.5712 179.836 57.8366C179.421 58.3212 179.104 58.8924 178.682 59.4174C178.511 59.6293 178.317 59.8226 178.105 59.9943C177.82 60.2108 177.517 60.4038 177.2 60.5712C176.68 60.8845 176.129 61.1417 175.555 61.3385C174.725 61.6327 173.732 61.8462 172.873 62.2154C171.722 62.7305 170.705 63.5045 169.902 64.477C169.752 64.6021 169.592 64.7141 169.423 64.8116Z" fill="#3B2C7D"/>
<path d="M172.019 58.4132C171.771 57.8767 171.892 57.6575 172.019 57.5478C172.532 57.1643 173.123 56.8984 173.75 56.769C174.314 56.6718 174.893 56.6993 175.446 56.8498C175.566 56.8764 175.683 56.9111 175.798 56.9536L176.075 57.0459C176.378 57.1214 176.699 57.0824 176.975 56.9363C177.085 56.8786 177.309 56.7171 177.488 56.6075C177.667 56.4978 177.938 56.3421 178.169 56.2094C178.4 56.0767 178.613 55.944 178.856 55.8228C178.89 55.8228 178.931 55.7651 178.977 55.7709C179.115 55.7709 179.219 56.0305 179.213 56.2382C179.213 56.2844 179.213 56.3594 179.213 56.3651C179.046 56.4459 179.052 56.8094 178.885 56.8844C178.571 57.053 178.281 57.2604 178.019 57.5017C177.905 57.5886 177.783 57.6657 177.656 57.7325C177.06 58.0166 176.384 58.08 175.746 57.9113C175.522 57.8254 175.29 57.7598 175.054 57.7151C174.804 57.6737 174.55 57.664 174.298 57.6863C173.824 57.7294 173.362 57.8543 172.931 58.0555C172.579 58.2171 172.354 58.3671 172.354 58.3728C172.244 58.3989 172.132 58.4124 172.019 58.4132Z" fill="#3B2C7D"/>
<path d="M177.512 78.6637C177.51 78.3797 177.594 78.1017 177.752 77.8661C177.911 77.6304 178.137 77.448 178.4 77.3425C179.848 76.6946 181.371 76.2314 182.935 75.9637C184.288 75.7618 185.659 75.698 187.025 75.7733C189.381 75.8733 191.7 76.393 193.873 77.3079C194.519 77.5733 195.137 77.8848 195.754 78.2079C196.371 78.531 196.908 78.831 197.485 79.1829C197.587 79.2307 197.682 79.2929 197.768 79.3675C197.958 79.5925 197.825 79.8867 197.519 79.9444C197.45 79.9444 197.358 80.0079 197.318 79.979C196.896 79.7079 196.343 79.8464 195.91 79.5694C195.086 79.0972 194.216 78.7106 193.314 78.4156C192.962 78.2829 192.604 78.156 192.252 78.0117C191.802 77.8387 191.358 77.6425 190.896 77.504C190.09 77.2737 189.266 77.1115 188.433 77.0194C187.02 76.8569 185.594 76.8569 184.181 77.0194C182.185 77.249 180.23 77.7517 178.371 78.5137C178.146 78.5714 177.893 78.5829 177.512 78.6637Z" fill="#3B2C7D"/>
<path d="M200.879 110.515C202.489 112.563 203.654 115.24 204.669 117.929C208.073 126.911 211.437 135.929 214.679 144.986L216.34 149.7L217.148 152.065L217.8 154.044L218.296 154.148L219.185 154.315C219.762 154.419 220.379 154.506 220.979 154.569C222.162 154.706 223.356 154.731 224.544 154.644C225.128 154.603 225.707 154.51 226.275 154.367C226.558 154.309 226.817 154.2 227.089 154.119L227.192 154.073L226.644 153.04L225.819 151.35C224.319 148.079 223.062 144.727 221.89 141.352C220.719 137.977 219.669 134.567 218.66 131.152C216.635 124.315 214.812 117.433 212.815 110.619C211.662 106.581 210.404 102.583 209.019 98.6248C208.685 97.6787 208.35 96.7325 208.004 95.7921C207.658 94.8517 207.317 93.9229 206.914 93.0229C206.126 91.2102 205.176 89.4723 204.075 87.8306C203.7 87.2825 203.273 86.7344 202.921 86.221C201.964 84.8479 201.946 84.3171 202.967 85.1133C203.223 85.2961 203.457 85.507 203.665 85.7421C204.617 86.9883 205.477 88.1075 206.29 89.3017C207.162 90.5646 207.893 91.9188 208.471 93.3402C210.617 99.1094 212.579 104.879 214.333 110.711C215.037 113.019 215.694 115.408 216.335 117.756L218.758 126.773C219.3 128.665 220.708 133.846 223.021 140.677C223.598 142.379 224.25 144.19 224.983 146.054C225.715 147.917 226.517 149.861 227.475 151.788C227.706 152.273 227.954 152.758 228.219 153.231C228.485 153.704 228.652 154.038 228.871 154.442C229.142 154.713 228.715 154.754 228.531 154.869L227.844 155.192C227.742 155.244 227.636 155.288 227.527 155.325L227.314 155.394L226.881 155.538C226.592 155.625 226.304 155.683 226.004 155.752C225.417 155.862 224.823 155.935 224.227 155.971C223.035 156.031 221.841 155.992 220.656 155.856C220.079 155.781 219.473 155.706 218.885 155.602L218.002 155.434L216.785 155.181C216.358 153.911 215.927 152.638 215.492 151.361C215.089 150.208 214.685 149.054 214.281 147.9L211.846 141.063L207.352 128.694C204.652 121.338 202.737 116.163 202.575 115.684C202.056 114.231 201.623 112.806 200.879 110.515Z" fill="#3B2C7D"/>
<path d="M154.852 96.4962C155.213 96.193 155.546 95.8591 155.85 95.4981C157.003 94.3442 158.1 93.1269 159.265 91.9846C160.257 91.0039 161.342 90.1154 162.398 89.1923C164.203 87.581 166.09 86.0636 168.052 84.6462C168.628 84.2308 169.24 83.8385 169.846 83.4519C170.426 83.0756 171.025 82.729 171.64 82.4135L171.957 82.2635C172.234 82.1481 172.275 82.0904 172.102 82.2173L171.986 82.3212C171.596 82.6497 171.239 83.0148 170.919 83.4116C170.163 84.1154 169.471 84.8943 168.767 85.6558C168.478 85.95 168.19 86.2327 167.878 86.5154C167.48 86.8616 167.059 87.1731 166.655 87.5077C166.078 87.9692 163.609 90.2654 161.053 92.3019C159.784 93.3173 158.492 94.2692 157.477 94.9385C156.461 95.6077 155.746 96.0173 155.671 96.0519C155.44 96.1789 155.192 96.2885 154.852 96.4962Z" fill="#3B2C7D"/>
<path d="M169.547 100.327C169.903 101.301 169.993 102.352 169.807 103.373C169.641 104.449 169.368 105.506 168.994 106.529C167.788 109.961 166.357 113.296 164.874 116.602C163.392 119.907 161.834 123.167 160.259 126.409C158.903 129.202 157.484 131.982 156.163 134.763C156.001 135.109 155.84 135.461 155.701 135.796L155.672 135.865L155.759 135.952C156.301 136.446 156.88 136.899 157.49 137.307C158.765 138.152 160.122 138.867 161.54 139.442C163.98 140.419 166.515 141.142 169.103 141.6C171.703 142.047 174.327 142.347 176.961 142.5C179.615 142.673 182.274 142.754 184.928 142.725H185.92H186.243C186.243 142.725 186.278 142.725 186.29 142.725L186.451 142.431C186.532 142.286 186.607 142.142 186.676 141.992L187.126 141.115C187.703 139.921 188.28 138.721 188.788 137.504C190.048 134.633 191.146 131.694 192.076 128.7C192.526 127.269 192.901 125.815 193.23 124.367C193.403 123.64 193.507 122.907 193.651 122.181C193.795 121.454 193.87 120.715 193.899 119.988C193.899 119.504 193.963 118.979 193.968 118.529C194.032 117.311 194.384 116.959 194.672 117.894C194.763 118.116 194.825 118.349 194.857 118.586C194.857 119.163 194.828 119.74 194.857 120.288C194.886 120.836 194.828 121.373 194.817 121.921C194.784 123.07 194.632 124.213 194.361 125.331C193.235 129.809 191.763 134.193 189.959 138.444C189.601 139.292 189.215 140.134 188.805 140.971C188.603 141.386 188.407 141.807 188.188 142.217L187.865 142.84L187.495 143.504L187.282 143.879L187.172 144.063C187.172 144.063 187.172 144.144 187.109 144.138H186.999H186.572H186.203H185.309H183.544C182.39 144.109 181.19 144.063 180.018 144.011C179.211 143.971 177.665 143.902 175.576 143.74C172.993 143.545 170.424 143.187 167.886 142.667C164.612 142.041 161.444 140.953 158.476 139.436C157.676 139.01 156.906 138.532 156.168 138.006C155.793 137.734 155.424 137.429 155.072 137.14C154.98 137.065 154.893 136.979 154.807 136.898C154.665 136.768 154.536 136.625 154.42 136.471C154.363 136.39 154.288 136.327 154.322 136.217C154.292 136.13 154.282 136.037 154.293 135.946C154.322 135.747 154.376 135.553 154.455 135.369C155.182 133.638 155.995 132.057 156.763 130.425C159.953 123.952 163.04 117.617 165.168 112.736C166.236 110.296 167.078 108.231 167.632 106.725C168.186 105.219 168.486 104.284 168.544 104.117C168.717 103.586 168.901 103.056 169.092 102.45C169.319 101.76 169.471 101.049 169.547 100.327Z" fill="#3B2C7D"/>
<path d="M177.442 161.988C169.141 167.031 144.835 168.231 134.641 169.661C133.575 169.778 132.516 169.949 131.467 170.175C130.746 170.36 112.366 194.723 102.044 209.094C100.689 208.99 92.4559 204.548 90.979 203.608C100.406 187.777 119.791 163.16 121.394 161.983C125.617 158.885 131.721 156.329 136.123 154.8C139.729 153.536 143.341 152.094 146.952 150.652L125.191 137.458C124.967 137.326 124.712 137.256 124.452 137.256C124.192 137.256 123.937 137.326 123.714 137.458L91.8444 159.548C85.9367 159.635 79.3078 156.386 79.0078 156.283C79.0078 156.283 115.158 122.111 124.071 122.613C132.985 123.115 153.414 138.19 153.414 138.19L154.994 136.24C155.992 137.394 162.691 143.931 186.581 143.308C186.823 149.66 183.085 158.556 177.442 161.988Z" fill="#3B2C7D"/>
<path d="M92.0949 158.527C100.633 152.546 109.18 146.594 117.733 140.671L120.947 138.45L122.556 137.342L122.955 137.065L123.156 136.927L123.266 136.852C123.329 136.807 123.394 136.767 123.462 136.731C123.914 136.499 124.43 136.426 124.928 136.523C125.175 136.573 125.413 136.663 125.631 136.789L126.053 137.048L126.895 137.562L128.585 138.589L131.966 140.648L145.478 148.887L147.491 150.11L148.576 150.773H148.604H148.564H148.489L148.345 150.831L148.045 150.946L147.468 151.171L143.897 152.539L138.491 154.615C136.691 155.331 134.885 155.931 133.12 156.64C131.355 157.35 129.601 158.1 127.893 158.948C126.389 159.677 124.926 160.486 123.508 161.371C123.162 161.596 122.81 161.815 122.476 162.058L121.968 162.41C121.825 162.519 121.692 162.641 121.57 162.773C121.045 163.321 120.468 163.985 119.937 164.625C117.768 167.204 115.674 169.864 113.591 172.535C109.445 177.877 105.406 183.308 101.476 188.827C99.5064 191.581 97.5833 194.367 95.7064 197.187C94.7833 198.6 93.8545 200.014 92.9603 201.444L91.841 203.262C91.841 203.302 91.7718 203.342 91.7891 203.371L91.9045 203.44L92.1353 203.579L93.2314 204.196C94.7084 205.021 96.1968 205.812 97.7026 206.579C98.4526 206.954 99.2083 207.335 99.9699 207.681C100.573 207.998 101.209 208.245 101.868 208.419L107.672 200.475C111.241 195.637 114.839 190.806 118.466 185.983C122.095 181.171 125.695 176.371 129.428 171.687C129.705 171.346 130.005 171 130.27 170.665C130.408 170.492 130.558 170.325 130.708 170.152C130.783 170.065 130.858 169.996 130.985 169.864C131.051 169.813 131.121 169.767 131.193 169.725L131.245 169.69L131.366 169.65L131.77 169.558L132.116 169.483L132.803 169.367L134.158 169.183L136.853 168.825C138.658 168.612 140.458 168.415 142.258 168.248C145.864 167.867 149.464 167.498 153.053 167.065C156.641 166.633 160.224 166.154 163.778 165.531C167.331 164.974 170.829 164.107 174.231 162.94C174.774 162.721 175.253 162.565 175.639 162.398C176.026 162.231 176.331 162.081 176.58 161.977C177.076 161.769 177.318 161.712 177.324 161.787C177.329 161.862 177.099 162.069 176.649 162.398C176.418 162.565 176.135 162.756 175.801 162.975C175.466 163.194 175.045 163.373 174.589 163.598C172.028 164.789 169.345 165.696 166.587 166.304C162.679 167.216 158.723 167.909 154.737 168.381C150.889 168.86 147.035 169.258 143.199 169.65C141.272 169.846 139.356 170.042 137.43 170.267C136.472 170.371 135.531 170.504 134.545 170.625L133.12 170.821L132.433 170.931L131.891 171.04L131.822 171.11L131.481 171.496L130.789 172.327L129.41 174.058L126.699 177.519L121.322 184.546C117.756 189.25 114.212 193.973 110.689 198.715L105.422 205.852L104.112 207.646L103.46 208.54L103.131 208.99L102.86 209.371C102.756 209.515 102.653 209.642 102.543 209.769L102.381 209.96C102.381 210.006 102.312 209.96 102.272 209.96H102.151C101.989 209.925 101.81 209.902 101.66 209.856L101.21 209.723L100.985 209.66C100.904 209.66 100.881 209.619 100.83 209.602C100.466 209.458 100.108 209.308 99.768 209.152C99.0757 208.84 98.4007 208.512 97.7314 208.177C96.393 207.508 95.0776 206.81 93.768 206.094C93.118 205.74 92.466 205.377 91.8122 205.004L91.2353 204.675L90.3757 204.156L89.9487 203.896C89.9487 203.896 89.9026 203.896 89.9141 203.856L89.943 203.804L90.0064 203.7L90.1391 203.481L90.6583 202.627L91.9045 200.619C92.291 199.979 92.7122 199.367 93.116 198.739C93.9199 197.481 94.743 196.239 95.5853 195.012C100.904 187.177 106.616 179.435 112.547 171.721C114.03 169.806 115.535 167.89 117.064 165.998C117.826 165.052 118.599 164.112 119.372 163.177C119.562 162.946 119.776 162.715 119.983 162.485C120.19 162.233 120.412 161.994 120.647 161.769C120.78 161.654 120.906 161.51 121.033 161.417L121.414 161.152C121.668 160.967 121.922 160.794 122.181 160.627C124.245 159.289 126.407 158.109 128.649 157.096C130.87 156.069 133.137 155.169 135.433 154.356L142.864 151.535L145.478 150.542H145.443L145.368 150.496L145.218 150.404L144.924 150.225L143.256 149.21L129.653 140.919L126.347 138.808L125.493 138.294L125.066 138.035L124.893 137.931C124.847 137.908 124.799 137.89 124.749 137.879C124.562 137.814 124.359 137.814 124.172 137.879L124.051 137.942L123.849 138.081L123.433 138.369L116.822 142.927L103.587 152.025L92.1641 159.865L91.9853 159.987C91.9276 160.021 91.8757 160.085 91.7949 160.067H91.3564C91.0622 160.067 90.7795 160.067 90.4737 160.033L89.5968 159.964L88.7257 159.848C87.5755 159.677 86.4369 159.436 85.316 159.127C84.1968 158.821 83.0949 158.464 82.0103 158.065C81.468 157.864 80.9314 157.656 80.3949 157.431L79.3218 156.969C78.9468 156.796 78.5314 156.617 78.168 156.444L80.8449 153.952L83.0199 151.962L87.393 148.015C91.0968 144.727 94.8526 141.479 98.6718 138.312C102.491 135.144 106.385 132.058 110.418 129.162C112.443 127.719 114.503 126.317 116.649 125.054C117.724 124.42 118.831 123.843 119.966 123.323C121.126 122.757 122.375 122.396 123.658 122.256C124.939 122.298 126.207 122.519 127.426 122.914C128.619 123.276 129.79 123.708 130.933 124.206C133.211 125.19 135.437 126.29 137.603 127.5C140.424 129.075 143.158 130.76 145.841 132.496C147.185 133.362 148.506 134.227 149.816 135.139L151.772 136.489L153.341 137.602L153.86 136.956L154.397 136.292C154.599 136.05 154.795 135.779 154.974 135.571C155.228 135.854 155.493 136.148 155.77 136.39L155.978 136.598L156.128 136.714L156.399 136.944C156.778 137.239 157.172 137.512 157.581 137.764L158.193 138.139L158.833 138.479C159.255 138.721 159.699 138.912 160.143 139.114C160.587 139.315 161.031 139.5 161.487 139.69C161.943 139.881 162.393 140.048 162.86 140.187L164.251 140.625L165.67 140.994C169.473 141.906 173.354 142.457 177.26 142.639L178.495 142.714L179.73 142.742L182.187 142.8L184.651 142.771H186.087H187.131H187.195C187.195 142.771 187.195 142.806 187.195 142.823V143.671C187.195 143.971 187.195 144.248 187.195 144.565C187.195 144.883 187.195 144.969 187.16 145.171C187.126 145.558 187.114 145.933 187.056 146.296C186.999 146.66 186.958 147.017 186.901 147.364C186.843 147.71 186.768 148.039 186.705 148.367C186.048 151.342 184.876 154.179 183.243 156.75C181.593 159.202 180.255 160.327 179.106 161.06C178.612 161.39 178.086 161.672 177.537 161.902C177.255 162.012 177.295 161.902 177.624 161.596C177.785 161.44 178.033 161.256 178.322 161.019C178.61 160.783 178.962 160.442 179.337 160.044C181.633 157.572 183.381 154.643 184.466 151.448C185.025 149.896 185.425 148.292 185.66 146.66C185.712 146.256 185.781 145.846 185.793 145.437C185.805 145.027 185.862 144.508 185.845 144.462V144.231C185.845 144.231 185.845 144.185 185.845 144.173H185.77H184.858L182.274 144.214L179.678 144.156L178.374 144.121L177.07 144.04C176.205 143.977 175.339 143.948 174.462 143.856C170.94 143.568 167.452 142.955 164.043 142.027C162.309 141.535 160.617 140.904 158.983 140.14C158.157 139.741 157.356 139.292 156.583 138.796C156.203 138.519 155.81 138.271 155.43 137.96L155.118 137.706L153.618 139.564L151.922 138.329L150.912 137.619L148.847 136.154C147.485 135.225 146.112 134.308 144.722 133.414C141.947 131.619 139.114 129.894 136.212 128.308C133.36 126.681 130.36 125.328 127.253 124.269C126.499 124.02 125.727 123.827 124.945 123.692C124.754 123.658 124.561 123.635 124.368 123.623C124.192 123.596 124.015 123.584 123.837 123.589C123.489 123.598 123.143 123.644 122.805 123.727C121.273 124.167 119.804 124.799 118.431 125.608C114.857 127.683 111.426 129.996 108.162 132.531C104.845 135.04 101.603 137.665 98.4007 140.342C95.1987 143.019 92.0545 145.754 88.916 148.529C87.3507 149.914 85.7968 151.31 84.2545 152.717L80.6487 156.029H80.6776L80.9026 156.127C81.416 156.34 81.9353 156.542 82.4545 156.733C83.4987 157.119 84.5603 157.46 85.6276 157.754C86.6903 158.045 87.7691 158.274 88.8584 158.44L89.6718 158.55L90.4795 158.619C90.7507 158.648 91.0218 158.619 91.2872 158.648C91.5526 158.677 91.8641 158.735 92.0603 158.498L92.0949 158.527Z" fill="#3B2C7D"/>
<path d="M156.346 146.637C156.346 147.49 156.115 147.756 155.833 147.889C154.886 148.346 153.925 148.769 152.948 149.158C152.117 149.487 151.252 149.735 150.41 150.058L146.083 151.708C145.656 151.875 145.223 152.025 144.802 152.198C144.381 152.371 144 152.55 143.602 152.723C143.533 152.758 143.475 152.81 143.394 152.804C143.186 152.804 143.013 152.469 143.042 152.169C143.042 152.1 143.042 151.996 143.077 151.979C143.388 151.846 143.475 151.315 143.815 151.2C144.432 150.949 145.034 150.666 145.621 150.352C145.863 150.242 146.112 150.148 146.365 150.069C146.688 149.971 147.029 149.908 147.352 149.81C148.24 149.539 155.51 146.7 155.706 146.648C155.918 146.622 156.133 146.618 156.346 146.637Z" fill="#3B2C7D"/>
<path d="M86.3811 158.181L85.608 160.806C85.5153 161.05 85.3669 161.27 85.1747 161.447C84.9824 161.625 84.7515 161.755 84.5003 161.827C84.3157 161.885 84.108 161.937 83.9234 161.983H64.9599C60.9215 160.339 76.9253 158.654 81.2291 158.591C81.5453 158.586 81.8549 158.499 82.1278 158.34C82.4008 158.18 82.6278 157.952 82.7868 157.679L83.0176 157.327L86.3811 158.181Z" fill="#3B2C7D"/>
<path d="M68.6194 160.8C68.0425 160.898 67.4656 161.002 66.8887 161.129C66.3421 161.24 65.8057 161.397 65.2848 161.596C65.1981 161.632 65.115 161.677 65.0367 161.729C64.9953 161.686 64.951 161.645 64.904 161.608C64.875 161.573 64.8398 161.544 64.8002 161.521C64.7079 161.469 64.6963 161.446 64.6329 161.435C64.5694 161.435 64.5694 161.423 64.6329 161.435C64.7577 161.394 64.868 161.318 64.9502 161.216L65.0367 161.129H65.0771C65.1752 161.181 65.1637 161.187 65.204 161.198L66.9348 161.227H69.606L79.0156 161.44C80.406 161.44 81.8021 161.44 83.1867 161.44H83.8502C83.9176 161.44 83.9842 161.426 84.0463 161.4L84.3521 161.314C84.5 161.276 84.6389 161.209 84.7607 161.116C84.8825 161.024 84.9848 160.909 85.0617 160.777C85.0954 160.72 85.1244 160.66 85.1483 160.598L85.2348 160.292L85.4367 159.658C85.5694 159.237 85.7194 158.816 85.881 158.4C86.0771 157.887 86.4002 158.054 86.6021 158.602C86.7212 158.943 86.7817 159.302 86.781 159.664C86.7863 159.887 86.7747 160.111 86.7463 160.333C86.7356 160.453 86.7163 160.573 86.6887 160.691L86.6483 160.869L86.5906 161.089C86.4691 161.428 86.2796 161.738 86.0335 162.001C85.7874 162.264 85.4901 162.474 85.1598 162.617C84.8982 162.716 84.6303 162.797 84.3579 162.86C84.2614 162.888 84.1631 162.909 84.0637 162.923H83.4521L80.7348 162.889C78.9233 162.854 77.1002 162.791 75.2771 162.692C73.0906 162.577 70.8175 162.64 68.5848 162.612L66.7387 162.583H65.8213H65.054C64.9301 162.582 64.8087 162.548 64.7021 162.485C64.6015 162.438 64.5033 162.386 64.4079 162.329C64.2776 162.271 64.1539 162.199 64.0387 162.116C63.9823 162.058 63.9302 161.996 63.8829 161.931C63.8225 161.84 63.7794 161.738 63.756 161.631C63.7272 161.508 63.7272 161.379 63.756 161.256C63.7831 161.157 63.826 161.064 63.8829 160.979C64.0337 160.777 64.2318 160.614 64.4598 160.506C64.6271 160.419 64.7887 160.35 64.9444 160.287C65.5489 160.071 66.1677 159.897 66.7963 159.767C68.3079 159.45 69.8137 159.237 71.3194 159.041C73.6271 158.746 75.906 158.55 78.179 158.348L80.8213 158.129C81.0348 158.129 81.2887 158.129 81.3983 158.077C81.5492 158.044 81.6936 157.985 81.8252 157.904C81.9554 157.822 82.0706 157.719 82.1656 157.598C82.1944 157.564 82.2925 157.408 82.3848 157.258L82.6675 156.808L82.731 156.71L82.7656 156.664H82.8233L83.0425 156.716L83.4983 156.814L84.1906 156.969C85.5867 157.298 86.0079 157.506 86.2156 157.939C86.27 158.033 86.3163 158.131 86.354 158.233C86.4117 158.544 85.7771 158.631 84.7502 158.452L83.5963 158.244C83.4637 158.216 83.4867 158.244 83.4579 158.244H83.406C83.3714 158.244 83.3713 158.302 83.354 158.325C83.3367 158.348 83.354 158.325 83.2675 158.469C83.1772 158.584 83.0788 158.692 82.9733 158.792C82.5301 159.198 81.9629 159.442 81.3637 159.485L80.7406 159.519C79.154 159.623 77.5156 159.767 75.8829 159.929C73.4656 160.171 71.0194 160.437 68.6367 160.852L68.6194 160.8Z" fill="#3B2C7D"/>
<path d="M190.609 83.706C190.805 83.5406 191.037 83.4232 191.287 83.3631C191.536 83.303 191.796 83.3019 192.046 83.3598C193.422 83.5965 194.829 83.5965 196.206 83.3598C197.415 83.1981 198.607 82.9219 199.765 82.5348C200.342 82.3329 200.919 82.1137 201.461 81.8656C201.738 81.7387 202.038 81.6175 202.286 81.4733L202.696 81.2713L203.365 80.8964L203.844 80.8213C203.884 80.8206 203.925 80.8278 203.962 80.8427C204 80.8575 204.034 80.8797 204.063 80.9079L204.196 81.1271C204.312 81.267 204.386 81.4371 204.409 81.6175C204.461 81.8057 204.49 81.9994 204.496 82.1944C204.469 82.7695 204.268 83.3229 203.919 83.781C203.498 84.3477 202.98 84.8359 202.39 85.2233C201.859 85.5978 201.295 85.9241 200.706 86.1983C200.611 86.2571 200.508 86.3 200.4 86.3252C200.111 86.354 199.967 86.1002 200.071 85.829C200.1 85.7714 200.117 85.679 200.157 85.656C200.596 85.4714 200.775 84.9867 201.184 84.7675C201.934 84.3754 202.566 83.7898 203.013 83.0714C203.161 82.8359 203.267 82.5761 203.325 82.304C203.325 82.2002 203.325 82.1887 203.325 82.1887C203.327 82.1753 203.327 82.1617 203.325 82.1483C203.328 82.1273 203.328 82.1058 203.325 82.0848C203.325 82.0848 203.325 82.0848 203.29 82.0848L202.713 82.3675C202.327 82.5579 201.831 82.7887 201.265 83.0194C199.962 83.5594 198.61 83.971 197.227 84.2483C195.899 84.5216 194.539 84.6032 193.188 84.4906C192.539 84.4286 191.897 84.303 191.273 84.1156C191.044 83.992 190.822 83.8552 190.609 83.706Z" fill="#3B2C7D"/>
<path d="M175.252 76.7307C175.167 76.9634 175.029 77.1729 174.849 77.3423C174.669 77.5117 174.451 77.6362 174.213 77.7057C173.605 77.9041 173.024 78.1773 172.483 78.5192C171.97 78.8199 171.542 79.2444 171.236 79.7538C171.181 79.8497 171.138 79.9525 171.109 80.0596L171.081 80.123C171.081 80.123 171.081 80.1576 171.081 80.1519L172.627 79.7942C173.657 79.5445 174.707 79.3824 175.765 79.3096C176.854 79.2368 177.948 79.3559 178.996 79.6615C179.613 79.8521 180.21 80.1013 180.779 80.4057C181.318 80.6914 181.841 81.0093 182.342 81.3576C182.431 81.408 182.511 81.4723 182.579 81.548C182.74 81.7615 182.579 82.0211 182.319 82.073C182.256 82.073 182.169 82.1192 182.134 82.073C181.771 81.8019 181.269 81.9 180.894 81.6461C180.189 81.1955 179.406 80.8786 178.586 80.7115C178.269 80.6365 177.952 80.5673 177.629 80.5038C177.217 80.412 176.798 80.3522 176.377 80.3249C175.626 80.3138 174.876 80.3776 174.138 80.5153C173.59 80.6076 172.984 80.7403 172.333 80.8961L171.334 81.1615C171.063 81.2634 170.766 81.2776 170.486 81.2019C170.348 81.1551 170.224 81.0756 170.123 80.9701C170.023 80.8646 169.949 80.7362 169.909 80.5961C169.89 80.4506 169.89 80.3031 169.909 80.1576C169.911 80.015 169.932 79.8732 169.973 79.7365L170.077 79.4365L170.221 79.1711C170.408 78.8386 170.648 78.5386 170.931 78.2826C171.404 77.8551 171.941 77.5046 172.523 77.2442C173.101 76.9791 173.709 76.7853 174.334 76.6673C174.642 76.6494 174.95 76.6707 175.252 76.7307Z" fill="#3B2C7D"/>
<path d="M195.047 81.9578C195.208 81.3174 195.353 81.1847 195.514 81.1617L197.089 80.8905C197.545 80.8213 198.001 80.7867 198.451 80.6944C199.215 80.5283 199.961 80.2867 200.678 79.9732C200.889 79.8899 201.095 79.7936 201.295 79.6847C201.486 79.5771 201.667 79.4536 201.837 79.3155C201.872 79.3155 201.889 79.2578 201.935 79.2636C201.981 79.2694 202.23 79.5059 202.281 79.7251C202.281 79.7771 202.316 79.852 202.281 79.8636C202.131 79.9674 202.195 80.3597 202.016 80.4405C201.682 80.5905 201.405 80.8559 201.076 81.0174C200.948 81.0892 200.812 81.1473 200.672 81.1905C200.487 81.2367 200.297 81.2482 200.095 81.2944C199.272 81.5327 198.436 81.7253 197.591 81.8713C196.844 82.0008 196.088 82.0741 195.33 82.0905C195.231 82.0565 195.136 82.012 195.047 81.9578Z" fill="#3B2C7D"/>
<path d="M173.344 79.1021C173.344 78.5251 173.494 78.3232 173.696 78.2425C174.037 78.0938 174.385 77.9628 174.74 77.8501C175.102 77.745 175.473 77.6717 175.848 77.6309C176.5 77.5731 177.158 77.6022 177.803 77.7175C178.906 77.893 179.969 78.2642 180.942 78.8136C181.225 78.9751 181.519 79.154 181.767 79.3271C182.015 79.5001 182.298 79.6559 182.546 79.8405C182.594 79.8612 182.638 79.8928 182.673 79.9328C182.736 80.0655 182.592 80.2848 182.396 80.3771C182.355 80.3771 182.292 80.4405 182.269 80.429C182.078 80.2963 181.738 80.429 181.553 80.3078C181.196 80.0566 180.808 79.8512 180.4 79.6963C180.243 79.6247 180.091 79.5438 179.944 79.454C179.753 79.3501 179.575 79.2175 179.367 79.1251C178.433 78.7169 177.42 78.5199 176.401 78.5482C175.494 78.6165 174.601 78.8107 173.748 79.1251C173.613 79.1316 173.477 79.1239 173.344 79.1021Z" fill="#3B2C7D"/>
<path d="M180.391 81.5654C180.968 82.0674 180.968 82.425 180.904 82.7193C180.627 83.7866 180.327 84.8423 180.045 85.8981C179.785 86.8039 179.468 87.6924 179.231 88.6039C178.81 90.1558 178.494 91.7344 178.285 93.3289C178.224 93.786 178.191 94.2465 178.187 94.7077C178.183 95.1206 178.235 95.5322 178.343 95.9308C178.343 96 178.4 96.0404 178.389 96.1039C178.338 96.2089 178.254 96.2939 178.149 96.3452C178.045 96.3965 177.926 96.411 177.812 96.3866C177.749 96.3866 177.656 96.3866 177.639 96.3289C177.518 95.9885 177.062 95.752 177.062 95.3193C177.062 94.5693 176.993 93.8423 177.062 93.1154C177.079 92.828 177.12 92.5425 177.183 92.2616C177.258 91.9039 177.374 91.552 177.466 91.2C177.575 90.7154 178.072 88.4424 178.695 86.3135C179.318 84.1847 179.975 82.1712 180.022 82.0731C180.13 81.8937 180.254 81.7238 180.391 81.5654Z" fill="#3B2C7D"/>
<path d="M190.385 84.0981C190.91 84.6347 190.922 84.9635 190.818 85.252C190.483 86.1981 190.143 87.1424 189.797 88.0847C189.491 88.8981 189.139 89.6828 188.856 90.4962C188.364 91.8887 187.959 93.3107 187.645 94.7539C187.576 95.1751 187.455 95.5962 187.42 96.0231C187.42 96.2251 187.38 96.427 187.362 96.6347V97.2116C187.377 97.2781 187.377 97.347 187.362 97.4135C187.282 97.5004 187.173 97.5553 187.055 97.568C186.937 97.5807 186.819 97.5505 186.722 97.4828C186.67 97.4481 186.583 97.4135 186.583 97.3789C186.583 97.0558 186.191 96.7501 186.243 96.3924C186.293 96.0636 186.326 95.7323 186.341 95.4001C186.376 95.0712 186.405 94.7424 186.445 94.4135C186.487 94.1541 186.547 93.8977 186.624 93.6462C186.716 93.3231 186.86 93.0174 186.97 92.7001C187.097 92.2616 187.714 90.2135 188.441 88.3097C189.168 86.4058 189.941 84.6116 189.993 84.5251C190.109 84.3699 190.241 84.2269 190.385 84.0981Z" fill="#3B2C7D"/>
<path d="M177.166 97.8751C177.209 98.0637 177.32 98.23 177.477 98.3424C177.609 98.4419 177.761 98.5119 177.922 98.5477C178.083 98.5836 178.25 98.5844 178.412 98.5501C178.954 98.4347 179.127 97.2289 178.879 97.0097C178.32 96.5135 177.033 97.0847 177.166 97.8751Z" fill="#3B2C7D"/>
<path d="M176.851 97.9329C177.514 97.9675 177.629 97.8406 177.681 97.8925C177.773 97.9475 177.875 97.9829 177.981 97.9964C178.033 98.0019 178.085 98.0019 178.137 97.9964H178.241C178.241 97.9964 178.241 98.0367 178.304 97.9387C178.37 97.8411 178.415 97.7312 178.437 97.6156C178.437 97.5579 178.437 97.506 178.437 97.4598C178.437 97.4137 178.437 97.4598 178.437 97.431C178.437 97.4218 178.433 97.413 178.427 97.4065C178.42 97.4 178.412 97.3964 178.402 97.3964C178.268 97.3784 178.132 97.4004 178.01 97.4598C177.916 97.4967 177.833 97.5561 177.768 97.6329C177.716 97.7021 177.727 97.7598 177.768 97.7714C177.808 97.7829 177.797 97.7714 177.768 97.7714C177.579 97.8206 177.386 97.8458 177.191 97.8464C177.139 97.8464 177.058 97.8464 177.058 97.8175C177.058 97.6906 176.701 97.4483 176.816 97.2406C176.994 96.8979 177.261 96.6091 177.589 96.404C177.723 96.3325 177.87 96.2893 178.022 96.2771C178.231 96.271 178.44 96.3022 178.639 96.3694C178.83 96.4164 179.008 96.5073 179.158 96.6348C179.28 96.7456 179.373 96.8844 179.429 97.0392C179.486 97.1939 179.504 97.3601 179.481 97.5233C179.468 97.8118 179.401 98.0954 179.285 98.3598C179.221 98.528 179.118 98.6787 178.984 98.7999C178.851 98.9212 178.691 99.0095 178.518 99.0579C178.294 99.1077 178.062 99.1098 177.838 99.064C177.613 99.0183 177.4 98.9258 177.214 98.7925C177.055 98.6832 176.923 98.5392 176.827 98.3713C176.785 98.2269 176.793 98.0721 176.851 97.9329Z" fill="#3B2C7D"/>
<path d="M185.393 99.6231C185.432 99.8136 185.544 99.9813 185.705 100.09C185.834 100.194 185.986 100.266 186.148 100.302C186.31 100.338 186.478 100.337 186.639 100.298C186.79 100.25 186.927 100.165 187.038 100.052C187.149 99.9395 187.23 99.8011 187.276 99.6495C187.321 99.4978 187.329 99.3373 187.299 99.182C187.268 99.0266 187.2 98.881 187.101 98.7577C186.541 98.2616 185.255 98.8327 185.393 99.6231Z" fill="#3B2C7D"/>
<path d="M185.07 99.6748C185.733 99.7209 185.849 99.5883 185.9 99.6459C185.991 99.7019 186.093 99.7371 186.198 99.7491C186.304 99.761 186.411 99.7495 186.512 99.7152C186.57 99.6969 186.624 99.6696 186.674 99.6344C186.701 99.6098 186.723 99.5795 186.738 99.5457C186.753 99.5119 186.76 99.4752 186.76 99.4383C186.771 99.3526 186.761 99.2654 186.731 99.1844C186.731 99.1498 186.731 99.144 186.702 99.1383C186.554 99.0998 186.396 99.1162 186.258 99.1844C186.157 99.2172 186.068 99.277 185.999 99.3575C185.947 99.4267 185.958 99.4902 185.999 99.5017C186.039 99.5133 186.027 99.5017 185.999 99.5017C185.81 99.5514 185.616 99.5766 185.422 99.5767C185.375 99.5767 185.295 99.5767 185.289 99.5421C185.289 99.4152 184.931 99.1613 185.052 98.9363C185.241 98.5908 185.52 98.3034 185.86 98.1056C185.994 98.0306 186.145 97.989 186.299 97.9844C186.51 97.9754 186.722 98.0068 186.922 98.0767C187.066 98.1208 187.202 98.187 187.325 98.2729C187.543 98.4232 187.695 98.6498 187.752 98.9075C187.814 99.1693 187.814 99.4419 187.752 99.7036C187.69 100.032 187.507 100.324 187.239 100.523C186.987 100.704 186.684 100.803 186.374 100.806C186.116 100.803 185.863 100.74 185.635 100.621C185.396 100.498 185.196 100.31 185.058 100.079C185.021 99.9459 185.025 99.8052 185.07 99.6748Z" fill="#3B2C7D"/>
<path d="M218.693 155.769C219.184 156.423 219.483 157.2 219.559 158.013C219.631 158.57 219.863 159.093 220.228 159.519C220.399 159.694 220.611 159.823 220.845 159.894C221.124 159.963 221.407 160.012 221.693 160.038C222.968 160.165 224.307 160.194 225.628 160.234L232.499 160.465C233.48 160.506 234.49 160.54 235.482 160.656H235.643H235.73C235.765 160.656 235.77 160.615 235.73 160.592C235.713 160.569 235.691 160.549 235.666 160.534L235.568 160.483L234.957 160.217C234.507 160.032 234.057 159.848 233.601 159.675C232.69 159.329 231.766 159.006 230.843 158.694C229.747 158.331 228.645 157.979 227.532 157.673C226.418 157.367 225.386 157.154 224.313 156.946C224.129 156.926 223.948 156.892 223.77 156.842C223.54 156.756 223.413 156.617 223.401 156.484H223.47C223.459 156.449 223.459 156.41 223.47 156.375H223.424C223.476 156.281 223.56 156.21 223.661 156.173C223.747 156.138 223.851 156.069 223.938 156.081C224.786 156.225 225.553 155.988 226.447 156.225C228.091 156.658 229.753 157.044 231.38 157.546C232.032 157.748 232.678 157.979 233.313 158.227C234.12 158.544 234.911 158.913 235.713 159.283L235.966 159.398L236.047 159.438L236.186 159.508L236.486 159.663L236.82 159.836L237.091 160.067C237.19 160.138 237.278 160.224 237.351 160.321C237.428 160.417 237.495 160.519 237.553 160.627C237.684 160.834 237.729 161.084 237.68 161.325C237.648 161.451 237.575 161.563 237.472 161.642C237.382 161.718 237.278 161.776 237.166 161.815C236.808 161.906 236.434 161.92 236.07 161.856L235.418 161.769L234.991 161.723C232.857 161.538 230.122 161.527 227.491 161.457C226.159 161.429 224.843 161.388 223.603 161.325C222.986 161.29 222.386 161.256 221.809 161.186C221.52 161.161 221.233 161.12 220.949 161.065C220.64 161.011 220.342 160.908 220.066 160.759C219.576 160.486 219.183 160.066 218.941 159.559C218.757 159.196 218.629 158.807 218.561 158.406C218.487 158.041 218.448 157.67 218.445 157.298C218.473 156.781 218.557 156.268 218.693 155.769Z" fill="#3B2C7D"/>
<path d="M98.1819 207.692C97.4758 209.815 96.2409 211.723 94.5935 213.237C92.3319 215.383 89.6896 217.062 86.8396 217.679C85.8588 217.898 80.0723 218.613 82.5762 215.988C85.2819 213.15 94.6108 207.629 95.5223 206.25C96.3728 206.795 97.2616 207.277 98.1819 207.692Z" fill="#3B2C7D"/>
<path d="M85.4587 214.644C84.6315 215.226 83.8468 215.866 83.1106 216.56C83.0231 216.642 82.9439 216.733 82.8741 216.831C82.8586 216.852 82.8503 216.877 82.8503 216.903C82.8503 216.929 82.8586 216.954 82.8741 216.975C82.9054 217.021 82.9526 217.054 83.0068 217.067L83.1106 217.096L83.2664 217.125L83.6125 217.171C84.3363 217.211 85.0621 217.188 85.7818 217.102C88.3794 216.772 90.8333 215.723 92.8664 214.073C93.7997 213.36 94.6494 212.543 95.3991 211.639C96.2847 210.455 97.0282 209.171 97.6145 207.814C97.8164 207.392 98.1337 207.566 98.3183 208.073C98.4297 208.439 98.4661 208.824 98.4255 209.205C98.3849 209.586 98.268 209.954 98.0818 210.289C97.2806 211.766 96.2125 213.083 94.9318 214.171C93.6992 215.265 92.323 216.185 90.8414 216.906C89.9342 217.343 88.9973 217.715 88.0375 218.019C87.5432 218.176 87.038 218.295 86.526 218.377C86.0271 218.455 85.5245 218.507 85.0202 218.533C84.4545 218.563 83.8873 218.548 83.3241 218.487L82.8799 218.417C82.6827 218.38 82.4895 218.324 82.3029 218.25C82.1033 218.197 81.92 218.095 81.7694 217.953C81.6188 217.811 81.5056 217.635 81.4399 217.439C81.3742 217.243 81.3581 217.034 81.3929 216.83C81.4277 216.626 81.5124 216.434 81.6395 216.271C81.736 216.109 81.846 215.954 81.9683 215.81C82.0722 215.7 82.1702 215.585 82.2741 215.492C82.6779 215.1 83.0991 214.748 83.5202 214.408C84.5702 213.577 85.6491 212.821 86.7337 212.071C88.3722 210.917 90.051 209.862 91.6549 208.725C92.2779 208.287 92.8837 207.831 93.4664 207.358C93.7606 207.127 94.0433 206.885 94.3145 206.642C94.3857 206.587 94.4531 206.528 94.5164 206.464L94.7299 206.256C94.9549 206.037 95.1452 205.794 95.3529 205.564L95.4279 205.477L96.6337 206.164C97.6952 206.741 98.001 206.966 98.0875 207.416C98.1141 207.516 98.1333 207.618 98.1452 207.721C98.1452 208.027 97.5683 208.05 96.6856 207.681L95.8895 207.317L95.7972 207.266H95.7452H95.6818L95.6472 207.341C95.6125 207.381 95.6875 207.341 95.526 207.473C95.3645 207.606 95.0933 207.86 94.8683 208.05C94.4241 208.414 93.9741 208.76 93.5183 209.1C92.6068 209.769 91.6664 210.421 90.7318 211.062C89.001 212.267 87.1952 213.439 85.5395 214.691L85.4587 214.644Z" fill="#3B2C7D"/>
<path d="M186.392 162.473C195.415 161.51 206.007 161.319 216.45 161.285L248.411 161.204C248.446 186.012 248.48 210.837 248.515 235.679C248.515 247.764 248.515 259.854 248.515 271.95L192.79 271.892H51.5534V210.387C51.5227 195.744 51.4957 181.106 51.4727 166.471C51.4727 164.689 51.4727 162.848 51.4727 161.065H53.8496H55.263C61.5111 161.169 62.965 161.602 58.3611 161.925C57.3169 162 56.1457 162.121 55.0034 162.121H52.563C52.563 163.333 52.5977 164.515 52.6092 165.687C52.6207 166.858 52.6611 168.127 52.69 169.333C52.7477 171.733 52.8111 174.098 52.8746 176.492C53.0015 181.281 53.1169 186.179 53.1111 191.7C53.0765 213.825 53.2265 235.996 53.2842 258.156C53.2842 262.137 53.2842 266.125 53.2842 270.121H66.0803L100.032 270.248L246.888 270.277C246.888 219.075 246.888 177.889 246.888 162.681H206.157C200.607 162.692 195.144 162.589 186.392 162.473Z" fill="#3B2C7D"/>
<path d="M117.486 161.625C117.29 161.9 117.03 162.123 116.728 162.275C116.427 162.427 116.093 162.503 115.755 162.496C113.724 162.571 111.717 162.623 109.663 162.635C107.932 162.635 106.167 162.583 104.418 162.583C101.407 162.583 98.4011 162.583 95.3954 162.583C94.5069 162.583 93.6184 162.583 92.73 162.583C91.8415 162.583 91.0281 162.623 90.18 162.641C90.0382 162.658 89.8948 162.658 89.7531 162.641C89.3896 162.566 89.3031 162.248 89.5684 162.012C89.6319 161.954 89.7011 161.868 89.7646 161.868C90.4281 161.868 90.9531 161.441 91.6454 161.452C92.9319 161.452 94.2184 161.366 95.5107 161.325C96.0242 161.325 96.5377 161.325 97.0569 161.325C97.7146 161.325 98.3665 161.4 99.03 161.418C100.824 161.475 115.951 161.418 116.338 161.418C116.655 161.458 116.978 161.539 117.486 161.625Z" fill="#3B2C7D"/>
<path d="M150.104 244.875C148.582 244.874 147.093 245.324 145.827 246.169C144.561 247.014 143.573 248.216 142.99 249.622C142.406 251.028 142.253 252.576 142.55 254.069C142.846 255.562 143.578 256.934 144.654 258.011C145.731 259.088 147.102 259.822 148.595 260.119C150.088 260.416 151.636 260.264 153.042 259.682C154.449 259.1 155.651 258.113 156.497 256.847C157.343 255.582 157.795 254.094 157.795 252.571C157.793 250.531 156.983 248.576 155.541 247.133C154.099 245.69 152.144 244.878 150.104 244.875ZM149.758 256.413C149.484 256.529 149.179 256.547 148.893 256.465C148.823 256.465 148.125 256.079 148.143 255.888C148.172 255.537 148.062 254.013 148.097 253.835C148.166 253.333 148.097 249.104 148.097 248.994C148.097 248.885 148.235 248.815 148.356 248.677C149.308 248.821 149.51 248.988 149.51 249.162C149.611 249.734 149.676 250.312 149.706 250.892C149.706 251.377 149.625 254.037 149.631 254.873C149.631 255.127 149.631 255.369 149.631 255.617C149.69 255.874 149.732 256.134 149.758 256.396V256.413ZM152.233 256.413C151.961 256.529 151.658 256.547 151.374 256.465C151.293 256.465 150.606 256.079 150.618 255.888C150.618 255.537 150.543 254.013 150.566 253.835C150.641 253.333 150.566 249.104 150.566 248.994C150.566 248.885 150.699 248.815 150.82 248.677C151.783 248.821 151.974 248.988 151.974 249.162C152.081 249.733 152.145 250.311 152.164 250.892C152.164 251.377 152.1 251.862 152.089 252.358C152.089 253.194 152.089 254.037 152.089 254.873C152.147 255.075 152.273 256.362 152.233 256.396V256.413Z" fill="#3B2C7D"/>
<path d="M150.416 245.158C152.361 245.25 154.193 246.1 155.52 247.526C156.848 248.951 157.565 250.839 157.518 252.786C157.472 254.733 156.666 256.585 155.272 257.946C153.879 259.307 152.008 260.068 150.061 260.068C148.113 260.068 146.243 259.307 144.849 257.946C143.456 256.585 142.65 254.733 142.603 252.786C142.557 250.839 143.274 248.951 144.601 247.526C145.928 246.1 147.76 245.25 149.706 245.158C150.225 245.158 150.248 244.581 149.677 244.615C147.612 244.715 145.667 245.618 144.258 247.132C142.85 248.646 142.089 250.65 142.139 252.718C142.189 254.785 143.045 256.751 144.525 258.195C146.004 259.64 147.99 260.448 150.058 260.448C152.126 260.448 154.112 259.64 155.591 258.195C157.071 256.751 157.927 254.785 157.977 252.718C158.026 250.65 157.266 248.646 155.857 247.132C154.449 245.618 152.504 244.715 150.439 244.615C150 244.615 150 245.14 150.416 245.158Z" fill="#3B2C7D"/>
<path d="M150.035 256.257C150.035 256.061 149.983 255.888 149.96 255.721C149.945 255.554 149.945 255.386 149.96 255.219V254.163L150 252.034V250.967C150 250.615 149.931 250.252 149.897 249.894L149.833 249.352L149.798 249.075C149.781 248.996 149.747 248.923 149.7 248.858C149.652 248.793 149.591 248.74 149.522 248.7C149.342 248.599 149.147 248.527 148.945 248.486C148.743 248.44 148.645 248.423 148.252 248.359L148.102 248.532L148.004 248.636C147.908 248.728 147.847 248.851 147.831 248.982C147.831 249.19 147.831 249.306 147.831 249.467V250.384V252.202C147.831 252.825 147.831 253.384 147.797 254.025C147.762 254.665 147.86 255.236 147.848 255.848C147.85 255.926 147.869 256.003 147.904 256.072C147.939 256.142 147.989 256.203 148.05 256.252C148.121 256.32 148.199 256.382 148.281 256.436L148.518 256.581C148.608 256.636 148.705 256.68 148.806 256.713C149.089 256.777 149.383 256.777 149.666 256.713C149.699 256.704 149.729 256.685 149.752 256.66C149.776 256.635 149.792 256.603 149.799 256.57C149.806 256.536 149.804 256.501 149.793 256.468C149.781 256.435 149.761 256.407 149.735 256.384C149.62 256.298 149.585 256.165 149.533 256.188C149.342 256.224 149.147 256.224 148.956 256.188L148.795 256.107L148.598 255.986C148.538 255.948 148.482 255.903 148.431 255.854H148.402C148.402 255.277 148.362 254.631 148.35 254.042C148.339 253.454 148.385 252.819 148.385 252.225V250.407V249.075L148.42 249.034L148.477 248.971L148.835 249.046C148.98 249.073 149.12 249.122 149.25 249.19L149.285 249.219L149.314 249.467L149.372 249.981C149.406 250.327 149.47 250.667 149.475 251.019V252.075L149.435 254.198V255.259C149.417 255.451 149.417 255.644 149.435 255.836C149.435 256.015 149.487 256.194 149.504 256.35C149.504 256.379 149.539 256.402 149.591 256.396C149.758 256.396 149.747 256.396 149.77 256.442C149.779 256.458 149.793 256.47 149.809 256.477C149.826 256.484 149.844 256.486 149.862 256.482C149.896 256.471 149.929 256.455 149.96 256.436C149.99 256.419 150.014 256.392 150.027 256.359C150.041 256.327 150.044 256.291 150.035 256.257Z" fill="#3B2C7D"/>
<path d="M152.517 256.275C152.517 255.9 152.47 255.554 152.442 255.202V254.942C152.442 254.856 152.442 254.786 152.442 254.688V254.157C152.442 253.459 152.442 252.732 152.442 252.052C152.442 251.711 152.511 251.348 152.505 250.973C152.501 250.608 152.476 250.244 152.43 249.882C152.43 249.704 152.384 249.525 152.355 249.346L152.303 249.063C152.284 248.985 152.249 248.912 152.201 248.849C152.152 248.785 152.091 248.733 152.02 248.694C151.84 248.596 151.645 248.526 151.444 248.486C151.242 248.44 151.144 248.423 150.751 248.359L150.601 248.532L150.503 248.642C150.409 248.735 150.35 248.857 150.336 248.988C150.336 249.19 150.336 249.311 150.336 249.473V253.107V253.552C150.339 253.619 150.339 253.686 150.336 253.754C150.331 253.844 150.331 253.934 150.336 254.025C150.336 254.642 150.405 255.231 150.394 255.842C150.398 255.92 150.419 255.995 150.453 256.065C150.488 256.134 150.536 256.196 150.595 256.246C150.668 256.313 150.745 256.375 150.826 256.431L151.063 256.575C151.155 256.631 151.254 256.675 151.357 256.707C151.638 256.771 151.93 256.771 152.211 256.707C152.244 256.698 152.274 256.679 152.297 256.654C152.321 256.629 152.337 256.598 152.344 256.564C152.351 256.53 152.349 256.495 152.338 256.462C152.326 256.43 152.307 256.401 152.28 256.379C152.17 256.292 152.13 256.159 152.078 256.182C151.888 256.221 151.692 256.221 151.501 256.182L151.444 256.154L151.34 256.102L151.144 255.981C151.085 255.942 151.029 255.9 150.976 255.854V255.825C150.976 255.248 150.93 254.602 150.919 254.013C150.913 253.95 150.913 253.886 150.919 253.823C150.924 253.74 150.924 253.657 150.919 253.575V253.113V249.046L150.953 249.006L151.011 248.942C150.965 248.942 151.219 248.977 151.363 249.017C151.509 249.046 151.651 249.094 151.784 249.161L151.824 249.19L151.865 249.432L151.94 249.946C151.98 250.289 152.003 250.633 152.009 250.979C152.009 251.307 151.969 251.654 151.945 252.017C151.945 252.75 151.945 253.442 151.945 254.157V254.688C151.945 254.769 151.945 254.879 151.945 254.971V255.242C151.945 255.594 152.003 255.952 152.015 256.286C151.969 256.373 152.505 256.506 152.517 256.275Z" fill="#3B2C7D"/>
<path d="M128.39 210.704C127.426 208.16 127.755 204.883 128.927 202.021C130.881 197.14 134.466 193.087 139.072 190.551C143.678 188.015 149.02 187.153 154.19 188.112C154.743 188.205 155.29 188.33 155.828 188.487C156.377 188.609 156.917 188.769 157.444 188.965C157.969 189.162 158.5 189.346 159.019 189.542L160.536 190.281C162.529 191.321 164.36 192.647 165.971 194.215C167.56 195.794 168.92 197.589 170.009 199.546C171.08 201.517 171.873 203.628 172.363 205.817C173.157 209.605 173.006 213.53 171.925 217.246C171.809 217.713 171.607 218.152 171.457 218.608C171.304 219.065 171.127 219.514 170.926 219.952C170.545 220.835 170.108 221.692 169.617 222.519C168.624 224.172 167.428 225.693 166.057 227.048C165.366 227.718 164.634 228.344 163.865 228.923C163.478 229.206 163.103 229.5 162.711 229.777L161.482 230.527C161.275 230.648 161.073 230.787 160.859 230.896L160.207 231.208L158.903 231.831L157.548 232.333L156.867 232.581L156.169 232.76C152.441 233.808 148.506 233.886 144.74 232.985C142.518 232.474 140.39 231.617 138.434 230.446C136.462 229.303 134.68 227.86 133.15 226.171C132.407 225.372 131.719 224.524 131.09 223.633C130.784 223.183 130.513 222.71 130.225 222.248C130.08 222.017 129.93 221.792 129.803 221.55L129.44 220.812C129.215 220.315 128.932 219.842 128.748 219.329L128.171 217.794C127.98 217.281 127.877 216.744 127.727 216.219L127.502 215.423C127.444 215.158 127.415 214.887 127.363 214.615C127.208 213.898 127.119 213.168 127.098 212.435C127.098 210.554 127.525 210.162 127.911 211.483C128.028 211.788 128.109 212.105 128.153 212.429C128.153 212.631 128.153 212.833 128.205 213.006L128.309 213.583C128.384 213.963 128.465 214.333 128.552 214.696C128.629 215.058 128.737 215.413 128.875 215.758L129.25 216.79C129.503 217.477 129.867 218.123 130.155 218.821C130.444 219.519 130.882 220.177 131.24 220.927C132.727 223.64 134.8 225.987 137.309 227.798C139.798 229.596 142.642 230.841 145.652 231.45C148.053 231.907 150.512 231.985 152.938 231.681C156.053 231.291 159.043 230.22 161.696 228.542C162.157 228.271 162.769 227.769 163.576 227.187L164.811 226.073C165.049 225.868 165.271 225.644 165.475 225.404L166.161 224.654C166.277 224.521 166.403 224.394 166.519 224.256C166.634 224.117 166.738 223.967 166.848 223.817L167.54 222.894C167.776 222.568 167.993 222.229 168.192 221.879C168.405 221.521 168.642 221.169 168.844 220.788L169.421 219.588C169.519 219.387 169.628 219.185 169.715 218.971L169.957 218.319C170.113 217.875 170.292 217.431 170.442 216.969C170.592 216.508 170.684 216.023 170.811 215.538C171.609 212.136 171.558 208.59 170.663 205.213C169.767 201.835 168.055 198.729 165.676 196.17C163.298 193.61 160.326 191.674 157.023 190.534C153.72 189.393 150.187 189.082 146.736 189.629C146.186 189.697 145.64 189.801 145.103 189.94C144.573 190.085 144.042 190.2 143.528 190.362L142.028 190.938C141.532 191.106 141.082 191.377 140.615 191.585L139.928 191.919C139.703 192.029 139.496 192.173 139.282 192.3C138.861 192.56 138.434 192.808 138.03 193.067C137.266 193.6 136.534 194.178 135.838 194.798C133.641 196.743 131.873 199.125 130.646 201.79C130.53 202.033 130.409 202.263 130.317 202.488L130.075 203.14L129.688 204.202C129.492 204.779 129.417 205.194 129.377 205.31C129.273 205.679 129.169 206.048 129.053 206.429C128.938 206.81 128.898 207.219 128.811 207.652C128.601 208.658 128.461 209.678 128.39 210.704Z" fill="#3B2C7D"/>
<path d="M134.516 212.573C136.281 211.771 138.358 211.61 140.4 211.587H141.687H142.327C142.438 211.584 142.547 211.554 142.644 211.5C142.734 211.445 142.808 211.368 142.86 211.276C142.911 211.184 142.939 211.08 142.939 210.975V209.694V209.054C142.925 208.8 142.934 208.545 142.968 208.292C143.025 207.966 143.169 207.66 143.384 207.408C143.599 207.155 143.877 206.965 144.191 206.856C144.506 206.746 144.844 206.722 145.171 206.786C145.499 206.85 145.803 206.999 146.054 207.219C146.308 207.44 146.497 207.725 146.602 208.044C146.656 208.203 146.687 208.368 146.694 208.535V208.846L146.729 213.981V214.944C146.72 214.998 146.72 215.052 146.729 215.106C146.749 215.189 146.791 215.266 146.849 215.329C146.908 215.392 146.982 215.438 147.064 215.463C147.106 215.467 147.148 215.467 147.191 215.463C147.242 215.468 147.295 215.468 147.346 215.463C147.43 215.447 147.507 215.409 147.571 215.354C147.623 215.309 147.664 215.254 147.693 215.192C147.699 215.15 147.699 215.108 147.693 215.065C147.696 215.027 147.696 214.988 147.693 214.95V214.788V205.95V203.74V202.615C147.683 202.493 147.683 202.369 147.693 202.246C147.715 202.102 147.752 201.961 147.802 201.825C147.906 201.552 148.07 201.306 148.283 201.106C148.496 200.906 148.752 200.757 149.031 200.671C149.17 200.629 149.313 200.604 149.458 200.596H149.643H149.856C150.143 200.63 150.419 200.73 150.662 200.887C150.905 201.044 151.109 201.254 151.258 201.502C151.41 201.748 151.501 202.027 151.523 202.315C151.523 202.483 151.523 202.563 151.523 202.656V218.931C151.521 218.965 151.521 219 151.523 219.035C151.568 219.169 151.66 219.282 151.783 219.352C151.846 219.384 151.914 219.406 151.985 219.415H152.118C152.152 219.422 152.187 219.422 152.221 219.415C152.29 219.398 152.354 219.367 152.411 219.325C152.467 219.282 152.515 219.229 152.55 219.167C152.59 219.111 152.614 219.046 152.619 218.977C152.625 218.931 152.625 218.885 152.619 218.838V206.077C152.617 205.637 152.767 205.21 153.043 204.869C153.32 204.527 153.706 204.291 154.137 204.202C154.274 204.18 154.413 204.169 154.552 204.167C154.696 204.166 154.839 204.182 154.979 204.213C155.264 204.278 155.531 204.407 155.758 204.591C155.985 204.776 156.167 205.009 156.289 205.275C156.404 205.535 156.461 205.816 156.456 206.1V210.958C156.453 210.979 156.453 211 156.456 211.021C156.467 211.098 156.495 211.172 156.538 211.237C156.581 211.301 156.638 211.356 156.704 211.396C156.769 211.436 156.842 211.46 156.918 211.465H158.452L162.75 211.425C163.235 211.425 163.743 211.39 164.193 211.425C165.421 211.512 165.704 211.875 164.798 212.14C164.589 212.225 164.37 212.281 164.146 212.308C161.919 212.308 160.148 212.787 157.8 212.775H156.993C156.585 212.777 156.188 212.642 155.866 212.392C155.544 212.142 155.315 211.792 155.216 211.396C155.175 211.216 155.155 211.032 155.158 210.848V210.444L155.118 207.19V206.377V206.025C155.107 205.965 155.09 205.907 155.066 205.852C155.013 205.744 154.925 205.657 154.818 205.604C154.7 205.557 154.573 205.543 154.448 205.563C154.337 205.584 154.237 205.641 154.162 205.726C154.088 205.811 154.045 205.918 154.039 206.031V207.594C154.039 209.325 154.039 211.056 154.039 212.787L153.987 216.115L153.952 217.777V218.608C153.952 218.758 153.952 218.844 153.952 219.092C153.919 219.374 153.822 219.644 153.669 219.883C153.516 220.122 153.311 220.323 153.069 220.471C152.662 220.713 152.179 220.797 151.714 220.708C151.42 220.653 151.145 220.528 150.911 220.343C150.676 220.158 150.491 219.919 150.369 219.646C150.303 219.495 150.256 219.336 150.231 219.173C150.225 219.089 150.225 219.004 150.231 218.919V218.74C150.231 218.51 150.231 218.267 150.231 218.025C150.231 216.046 150.231 213.548 150.231 210.721V202.5C150.234 202.473 150.234 202.446 150.231 202.419C150.226 202.37 150.214 202.321 150.196 202.275C150.158 202.179 150.096 202.094 150.018 202.027C149.937 201.962 149.842 201.918 149.741 201.9C149.681 201.894 149.621 201.894 149.562 201.9C149.512 201.894 149.462 201.894 149.412 201.9C149.313 201.932 149.223 201.988 149.151 202.064C149.08 202.139 149.028 202.232 149.002 202.333C148.995 202.39 148.995 202.448 149.002 202.506V204.733C149.002 206.435 149.002 208.154 149.002 209.862V214.938C149.008 215.249 148.936 215.557 148.793 215.833C148.65 216.109 148.44 216.345 148.183 216.519C147.926 216.691 147.631 216.798 147.324 216.828C147.016 216.859 146.706 216.813 146.421 216.695C146.135 216.577 145.883 216.39 145.688 216.151C145.492 215.912 145.358 215.628 145.298 215.325C145.293 215.25 145.293 215.175 145.298 215.1V214.038C145.171 211.206 145.789 206.637 144.191 208.304C144.11 208.454 144.11 208.523 144.116 208.881V210.923V211.079C144.101 211.278 144.052 211.473 143.971 211.656C143.817 212.009 143.555 212.304 143.221 212.498C142.921 212.675 142.578 212.765 142.229 212.758H138.323C137.308 212.769 136.229 212.671 134.516 212.573Z" fill="#3B2C7D"/>
<path d="M184.562 48.825C184.623 48.5844 184.76 48.3696 184.952 48.2127C185.144 48.0558 185.382 47.965 185.63 47.9539C186.319 47.8936 187.013 47.9227 187.695 48.0404C188.406 48.1492 189.09 48.3878 189.714 48.7443C190.285 49.0599 190.767 49.5143 191.116 50.0654C191.459 50.6276 191.657 51.2658 191.693 51.9231C191.719 52.9851 191.483 54.0372 191.007 54.9866C190.586 55.9105 190.04 56.7723 189.386 57.5481C188.994 58.0129 188.559 58.4398 188.087 58.8231C187.632 59.2125 187.125 59.5386 186.582 59.7923C186.494 59.8472 186.396 59.8844 186.293 59.902C186.016 59.902 185.895 59.6597 185.993 59.4C185.993 59.3366 186.028 59.25 186.068 59.2327C186.466 59.0827 186.582 58.5981 186.928 58.3962C187.569 57.9584 188.122 57.4023 188.555 56.7577L189.132 56.0135C189.383 55.6992 189.614 55.3697 189.824 55.027C190.165 54.4327 190.416 53.7911 190.568 53.1231C190.625 52.8729 190.658 52.6179 190.666 52.3616C190.666 52.2347 190.666 52.102 190.666 51.9635L190.597 51.5712C190.479 51.0322 190.204 50.5403 189.807 50.1577C188.972 49.4676 187.944 49.0524 186.864 48.9693C186.336 48.9136 185.803 48.8982 185.272 48.9231C185.034 48.9041 184.797 48.8713 184.562 48.825Z" fill="#3B2C7D"/>
<path d="M193.943 51.023C193.671 50.446 193.804 50.1979 193.943 50.1056C194.462 49.7594 195.054 49.5364 195.673 49.4537C196.223 49.3912 196.779 49.4463 197.306 49.6153C198.18 49.8676 198.975 50.3404 199.614 50.9883L200.139 51.5653C200.289 51.7556 200.456 51.9403 200.618 52.1422C200.618 52.1422 200.693 52.1941 200.693 52.2403C200.693 52.2864 200.462 52.5403 200.243 52.5979C200.191 52.5979 200.11 52.6441 200.098 52.6326C199.983 52.4941 199.602 52.598 199.521 52.448C199.36 52.1537 199.043 52.0037 198.806 51.7903C198.714 51.7037 198.61 51.6345 198.529 51.5422C198.429 51.413 198.319 51.2915 198.2 51.1787C197.609 50.738 196.889 50.5048 196.152 50.5153C195.711 50.5258 195.274 50.6096 194.86 50.7633C194.52 50.896 194.283 51.0229 194.283 51.0287C194.17 51.0397 194.055 51.0378 193.943 51.023Z" fill="#3B2C7D"/>
<path d="M187.966 66.444C187.502 66.5255 187.025 66.4775 186.587 66.3056C186.412 66.2508 186.246 66.169 186.097 66.0633C185.651 65.6775 185.374 65.1331 185.323 64.546C185.289 64.3152 185.277 64.096 185.266 63.8825C185.262 63.6071 185.309 63.3334 185.404 63.0748C185.404 62.9998 185.404 62.9883 185.404 63.0748C185.404 63.1498 185.543 63.2652 185.612 63.4094C185.871 63.8126 186.095 64.2372 186.281 64.6787C186.384 64.8764 186.554 65.0316 186.76 65.1171C187.003 65.2318 187.265 65.2984 187.533 65.3133C187.726 65.3157 187.919 65.3022 188.11 65.2729C188.429 65.2295 188.743 65.1502 189.045 65.0364C189.275 64.9325 189.495 64.8287 189.737 64.7421L189.898 64.6844C190.106 64.621 190.198 64.6383 190.239 64.6152H190.268C190.214 64.6729 190.168 64.7369 190.129 64.8056C189.973 64.996 189.841 65.244 189.668 65.446C189.504 65.6651 189.31 65.8594 189.091 66.0229C188.93 66.1485 188.751 66.2495 188.56 66.3229C188.366 66.4157 188.16 66.4817 187.948 66.519L187.966 66.444Z" fill="#3B2C7D"/>
<path d="M157.101 130.384C163.908 136.436 173.203 138.167 182.064 137.723C182.676 137.688 184.424 136.725 182.993 136.794C174.478 137.227 165.656 135.415 159.143 129.629C158.693 129.231 156.731 130.056 157.101 130.384Z" fill="#3B2C7D"/>
</svg>
