<svg width="300" height="300" viewBox="0 0 300 300" fill="none" xmlns="http://www.w3.org/2000/svg">
<path d="M143.769 150.987C145.967 153.614 148.011 156.367 149.89 159.231C151.798 162.099 153.482 165.11 154.927 168.237C155.663 169.84 156.243 171.512 156.657 173.227C156.876 174.143 156.978 175.083 156.963 176.025C156.967 177.137 156.581 178.215 155.873 179.071C155.475 179.508 154.984 179.849 154.436 180.069C153.937 180.254 153.415 180.37 152.884 180.416C152.615 180.436 152.345 180.436 152.077 180.416H151.84L151.65 180.375C151.523 180.375 151.384 180.323 151.269 180.289C150.823 180.167 150.384 180.021 149.954 179.85C148.315 179.204 146.804 178.489 145.257 177.831C140.78 175.887 136.154 174.312 131.411 173.862C129.335 173.654 127.24 173.718 125.18 174.052C124.667 174.116 124.165 174.26 123.657 174.364C123.15 174.468 122.665 174.646 122.169 174.796C121.673 174.946 121.188 175.131 120.715 175.373C120.248 175.566 119.792 175.784 119.348 176.025C118.511 176.475 117.796 177.133 117.744 177.693C117.721 178.016 117.808 178.337 117.992 178.604C118.238 178.962 118.542 179.276 118.892 179.533C119.704 180.101 120.602 180.536 121.552 180.819C122.555 181.154 123.577 181.45 124.615 181.708C126.686 182.233 128.809 182.643 130.961 183.064C133.123 183.473 135.262 183.991 137.371 184.616C141.585 185.903 145.647 187.644 149.486 189.808C152.873 191.733 156.107 193.914 159.161 196.333C162.203 198.623 165.429 200.657 168.807 202.414C173.116 204.661 177.716 206.302 182.475 207.289C184.845 207.769 187.248 208.066 189.663 208.177C192.089 208.271 194.519 208.215 196.938 208.01C197.534 207.94 198.137 207.961 198.727 208.073C199.304 208.206 199.304 208.506 199.252 208.558C199.2 208.61 199.159 208.558 199.038 208.558C198.88 208.557 198.723 208.579 198.571 208.621L197.088 209.06C195.332 209.564 193.531 209.898 191.711 210.058C189.086 210.283 186.442 210.18 183.842 209.752C178.751 208.886 173.817 207.27 169.2 204.958C164.622 202.678 160.298 199.92 156.3 196.731C152.388 193.713 148.145 191.15 143.654 189.093C141.405 188.063 139.092 187.179 136.73 186.444C134.346 185.718 131.923 185.125 129.473 184.668C126.421 184.099 123.411 183.328 120.461 182.36C119.651 182.079 118.876 181.703 118.154 181.241C117.356 180.751 116.696 180.066 116.238 179.25L116.065 178.898C116.019 178.777 115.99 178.639 115.95 178.506C115.878 178.233 115.847 177.951 115.857 177.669C115.878 177.386 115.929 177.106 116.007 176.833C116.108 176.584 116.228 176.343 116.365 176.112C116.9 175.345 117.618 174.725 118.454 174.306C119.9 173.543 121.426 172.943 123.005 172.518C124.577 172.117 126.185 171.875 127.805 171.796C131.012 171.683 134.217 172.064 137.307 172.927C140.636 173.849 143.885 175.038 147.023 176.481L149.33 177.502C150.073 177.836 150.834 178.127 151.609 178.373C151.778 178.425 151.949 178.465 152.123 178.494H152.319C152.394 178.494 152.492 178.494 152.584 178.494C152.928 178.482 153.269 178.417 153.594 178.304C153.881 178.213 154.142 178.053 154.354 177.839C154.566 177.625 154.723 177.363 154.811 177.075C155.014 176.375 155.063 175.639 154.955 174.918C154.855 174.121 154.686 173.336 154.448 172.569C153.952 170.986 153.335 169.443 152.602 167.954C151.119 164.93 149.424 162.016 147.53 159.231C145.224 155.779 142.638 152.522 139.8 149.493C139.09 148.743 138.34 148.056 137.561 147.335L135.254 145.194C133.719 143.752 132.202 142.31 130.719 140.804C128.454 138.542 126.316 136.155 124.315 133.656C122.28 131.145 120.538 128.41 119.123 125.504C117.677 122.564 116.987 119.31 117.115 116.037C117.132 115.619 117.176 115.203 117.248 114.791C117.322 114.349 117.452 113.919 117.634 113.51C117.835 113.027 118.187 112.622 118.638 112.356C119.115 112.105 119.666 112.035 120.19 112.16C121.039 112.382 121.834 112.774 122.527 113.314C123.181 113.795 123.809 114.311 124.407 114.86C125.315 115.708 126.176 116.606 126.986 117.548L129.427 120.271L134.302 125.654C137.532 129.231 140.832 132.693 144.23 136.154C145.725 137.66 147.219 139.102 148.771 140.573C151.655 143.296 153.617 144.964 155.013 146.106L157.857 148.414C158.165 148.651 158.496 148.858 158.844 149.031C159.034 149.152 158.988 149.25 158.642 149.308C158.074 149.338 157.506 149.242 156.98 149.025C155.504 148.506 153.519 147.225 151.211 145.35C147.839 142.497 144.612 139.475 141.542 136.298C138.421 133.125 135.357 129.837 132.311 126.491L127.771 121.431L125.504 118.893C124.748 118.068 123.986 117.162 123.254 116.504C122.497 115.777 121.672 115.124 120.79 114.554C120.461 114.336 120.095 114.178 119.711 114.087C119.652 114.075 119.591 114.075 119.532 114.087L119.475 114.15C119.291 114.449 119.175 114.783 119.134 115.131C119.061 115.628 119.017 116.129 119.002 116.631C118.988 117.677 119.075 118.723 119.261 119.752C119.971 122.913 121.271 125.911 123.092 128.591C124.929 131.374 126.996 133.998 129.271 136.437C131.544 138.918 133.967 141.283 136.442 143.608L140.204 147.104C141.458 148.326 142.65 149.61 143.775 150.952L143.769 150.987Z" fill="#3B2C7D"/>
<path d="M172.765 137.833C173.721 138.04 174.656 138.333 175.558 138.71C175.881 138.843 176.221 138.923 176.533 139.079C177.624 139.618 178.663 140.258 179.637 140.989L180.964 141.935C181.598 142.292 182.109 142.833 182.429 143.487C182.515 143.712 182.065 143.971 181.558 144.139C181.05 144.306 180.519 144.416 180.306 144.197C179.504 143.418 178.575 142.668 177.565 141.831C176.925 141.378 176.221 141.02 175.477 140.77C174.69 140.423 173.878 140.135 173.048 139.91C172.553 139.775 172.044 139.696 171.531 139.673C170.777 139.615 170.023 139.767 169.35 140.112C168.857 140.433 168.436 140.853 168.115 141.347C168.029 141.445 167.971 141.566 167.89 141.664C167.585 142.033 167.394 142.079 166.904 141.825C166.794 141.768 166.679 141.716 166.575 141.652C166.403 141.556 166.276 141.397 166.221 141.208C166.166 141.019 166.188 140.816 166.281 140.643C166.584 140.026 167.007 139.477 167.527 139.027C168.104 138.532 168.778 138.162 169.506 137.943C170.568 137.65 171.682 137.6 172.765 137.798V137.833Z" fill="#3B2C7D"/>
<path d="M157.758 138.168H158.531C158.791 138.168 159.045 138.22 159.299 138.248C159.805 138.301 160.307 138.379 160.805 138.485C161.168 138.543 161.531 138.606 161.889 138.698C163.119 139.074 164.3 139.593 165.408 140.245C165.905 140.504 166.395 140.793 166.897 141.041C167.208 141.225 167.531 141.387 167.843 141.577C168.146 141.787 168.411 142.047 168.628 142.345C168.76 142.541 168.385 142.921 167.924 143.17C167.462 143.418 166.914 143.631 166.637 143.418C165.599 142.696 164.531 142.027 163.401 141.306C163.057 141.091 162.681 140.932 162.287 140.833C161.901 140.7 161.497 140.643 161.105 140.539C160.712 140.435 160.233 140.36 159.795 140.268C159.356 140.175 158.906 140.152 158.462 140.129H157.631C157.36 140.129 157.055 140.17 156.812 140.193C156.396 140.233 155.984 140.302 155.578 140.4C155.174 140.501 154.779 140.633 154.395 140.793C154.118 140.949 153.851 141.12 153.593 141.306C153.345 141.496 153.126 141.733 152.889 141.929C152.791 142.022 152.699 142.12 152.612 142.223C152.255 142.575 152.035 142.57 151.591 142.258C151.487 142.189 151.378 142.12 151.28 142.045C151.2 141.986 151.134 141.912 151.085 141.826C151.036 141.741 151.004 141.647 150.993 141.549C150.982 141.451 150.991 141.352 151.019 141.257C151.047 141.163 151.095 141.076 151.158 141C152.014 139.842 153.232 139.003 154.62 138.618C155.13 138.457 155.65 138.334 156.178 138.248C156.7 138.176 157.226 138.131 157.753 138.116L157.758 138.168Z" fill="#3B2C7D"/>
<path d="M205.64 166.269C207.659 170.527 209.678 174.767 211.922 178.887L213.192 181.108L214.513 183.283C215.277 184.55 216.107 185.777 216.999 186.958C217.429 187.535 217.895 188.084 218.395 188.602C218.615 188.862 218.92 189.15 219.18 189.41L219.988 190.194C222.163 192.277 224.418 194.279 226.761 196.165C228.836 197.84 231.016 199.382 233.286 200.781C236.147 202.523 239.207 203.914 242.401 204.923C243.37 205.229 243.186 205.714 242.182 205.99C241.884 206.065 241.582 206.117 241.276 206.146C241.085 206.168 240.892 206.179 240.699 206.181L240.122 206.129C239.678 206.079 239.236 206.002 238.801 205.898C238.321 205.776 237.853 205.608 237.405 205.396C234.134 203.884 231.038 202.017 228.174 199.829C225.327 197.694 222.618 195.382 220.063 192.906L217.755 190.662C217.38 190.31 216.988 189.871 216.601 189.456L216.024 188.827C215.84 188.614 215.684 188.383 215.505 188.164L214.49 186.831L213.561 185.458C212.92 184.552 212.407 183.594 211.83 182.665C209.401 178.517 207.307 174.237 205.224 169.973C203.955 167.335 202.69 164.696 201.428 162.058C200.47 160.062 199.497 158.075 198.509 156.098C197.548 154.137 196.467 152.237 195.272 150.41C194.337 149.053 193.227 147.825 191.972 146.758C190.763 145.721 189.375 144.913 187.876 144.375C187.249 144.164 186.598 144.034 185.938 143.989C185.195 143.897 184.441 144.03 183.774 144.369C183.482 144.535 183.206 144.729 182.949 144.946C182.811 145.05 182.718 145.235 182.597 145.333C182.58 145.355 182.558 145.374 182.532 145.387C182.507 145.399 182.479 145.406 182.45 145.406C182.422 145.406 182.394 145.399 182.368 145.387C182.343 145.374 182.32 145.355 182.303 145.333C182.15 145.139 182.066 144.899 182.067 144.652C182.062 144.179 182.218 143.719 182.511 143.348C182.896 142.866 183.416 142.508 184.005 142.321C184.876 142.053 185.796 141.978 186.699 142.102C187.559 142.21 188.401 142.432 189.203 142.76C190.776 143.406 192.225 144.322 193.484 145.465C194.74 146.587 195.862 147.851 196.824 149.233C197.297 149.919 197.736 150.635 198.163 151.339C198.59 152.042 198.982 152.758 199.357 153.473C201.607 157.719 203.615 162.046 205.703 166.321L205.64 166.269Z" fill="#3B2C7D"/>
<path d="M214.767 225.393C213.036 224.204 211.305 222.987 209.615 221.758C208.998 221.314 208.346 220.916 207.728 220.46L201.284 215.619C200.326 214.916 199.334 214.246 198.336 213.629C197.69 213.231 197.038 212.845 196.392 212.475C196.075 212.285 195.757 212.077 195.446 211.898C195.131 211.703 194.827 211.491 194.534 211.264C194.171 210.981 194.448 210.548 195.042 210.306C195.41 210.16 195.807 210.099 196.202 210.13C196.597 210.162 196.98 210.283 197.321 210.485C199.984 212.145 202.525 213.994 204.925 216.018C206.361 217.218 208.005 218.256 209.54 219.369C211.271 220.587 212.955 221.81 214.686 222.993L216.284 224.083L217.905 225.127C219.533 226.194 221.214 227.176 222.942 228.07C223.602 228.406 224.282 228.703 224.978 228.958C225.325 229.091 225.659 229.235 226.005 229.35L227.049 229.685C227.355 229.783 227.655 229.864 227.961 229.973C229.115 230.273 229.403 230.504 229.53 231.098C229.566 231.231 229.595 231.366 229.617 231.502C229.617 231.941 229.069 232.131 228.123 231.975C225.33 231.479 222.688 230.204 220.167 228.825C219.244 228.289 218.315 227.758 217.415 227.193C216.515 226.627 215.609 226.039 214.726 225.462L214.767 225.393Z" fill="#3B2C7D"/>
<path d="M146.127 167.885C145.159 166.575 144.111 165.326 142.989 164.146C142.573 163.685 142.118 163.258 141.72 162.762C140.986 161.885 140.346 160.933 139.81 159.923C139.226 158.862 138.913 157.673 138.898 156.462C138.909 155.376 139.178 154.308 139.683 153.346C140.245 152.149 141.128 151.131 142.233 150.404C142.579 150.191 142.856 150.635 142.948 151.223C143.009 151.528 143.006 151.841 142.938 152.145C142.871 152.448 142.741 152.733 142.556 152.983C142.203 153.373 141.884 153.794 141.604 154.241C141.354 154.649 141.16 155.09 141.027 155.55C140.787 156.507 140.85 157.515 141.206 158.435C141.627 159.704 142.666 160.835 143.647 161.954C144.725 163.2 145.914 164.406 147.016 165.767C147.677 166.61 148.287 167.49 148.845 168.404C149.596 169.762 150.428 171.074 151.337 172.333C151.664 172.756 152.075 173.107 152.543 173.366C152.918 173.564 153.353 173.617 153.766 173.516C153.859 173.493 153.949 173.462 154.037 173.423L154.308 173.302C155.006 172.973 155.306 172.852 155.785 173.187C155.899 173.251 156.009 173.322 156.114 173.4C156.431 173.666 156.339 174.214 155.658 174.739C155.094 175.181 154.42 175.46 153.708 175.546C153.295 175.594 152.877 175.566 152.473 175.466C152.085 175.36 151.714 175.199 151.372 174.987C150.785 174.606 150.265 174.133 149.831 173.585C149.445 173.11 149.087 172.613 148.758 172.096C147.818 170.625 147.027 169.183 146.093 167.902L146.127 167.885Z" fill="#3B2C7D"/>
<path d="M219.866 205.76C218.955 207.098 217.98 208.39 216.982 209.654C216.612 210.11 216.289 210.606 215.903 211.05C214.544 212.617 213.099 214.108 211.576 215.515L209.568 217.419C208.755 218.297 207.789 219.02 206.718 219.554C206.366 219.704 206.141 219.231 206.141 218.642C206.113 218.337 206.155 218.029 206.264 217.742C206.373 217.455 206.546 217.197 206.77 216.987C208.501 215.614 210.232 214.102 211.962 212.539C212.989 211.547 213.933 210.472 214.783 209.325C215.77 208.108 216.733 206.856 217.639 205.564C218.187 204.762 218.735 203.96 219.232 203.129C220.011 201.889 220.69 200.589 221.262 199.24C221.66 198.229 221.912 197.167 222.012 196.085C222.041 195.854 222.012 195.64 222.012 195.427C221.999 195.167 222.024 194.906 222.087 194.654C222.19 194.468 222.334 194.308 222.508 194.187C222.607 194.106 222.699 194.002 222.803 193.921C222.883 193.851 222.985 193.813 223.091 193.813C223.197 193.813 223.3 193.851 223.38 193.921C223.655 194.157 223.836 194.485 223.887 194.844C224.057 196.02 223.959 197.22 223.599 198.352C223.282 199.434 222.871 200.486 222.37 201.496C221.637 202.97 220.815 204.398 219.907 205.771L219.866 205.76Z" fill="#3B2C7D"/>
<path d="M230.14 215.735C228.987 214.95 227.988 214.154 226.99 213.369C225.992 212.585 225.029 211.812 224.054 211.062C223.138 210.349 222.174 209.702 221.169 209.123C220.795 208.902 220.393 208.729 219.975 208.61C219.946 208.613 219.917 208.613 219.888 208.61C219.893 208.474 219.881 208.339 219.854 208.206L219.825 208.102V208.056C219.828 208.021 219.828 207.986 219.825 207.952C219.812 207.915 219.795 207.88 219.773 207.848C219.822 207.907 219.88 207.958 219.946 207.998C219.985 208.012 220.022 208.031 220.056 208.056C220.118 208.1 220.183 208.138 220.252 208.171C220.308 208.2 220.366 208.225 220.425 208.246C220.427 208.267 220.427 208.288 220.425 208.31C220.427 208.333 220.427 208.356 220.425 208.379L219.329 208.223H219.479C219.513 208.223 219.617 208.223 219.692 208.223C219.888 208.197 220.081 208.154 220.269 208.096C220.321 208.074 220.375 208.056 220.431 208.044L220.465 208.119L220.523 208.229C220.793 208.647 221.108 209.034 221.463 209.383C222.254 210.202 223.194 211.015 224.1 211.806L229.898 216.588C230.613 217.165 231.329 217.788 232.056 218.452C232.419 218.787 232.777 219.127 233.158 219.548C233.349 219.811 233.515 220.091 233.654 220.385C233.719 220.482 233.777 220.584 233.827 220.69C233.901 220.837 233.963 220.989 234.012 221.146C234.045 221.263 234.07 221.383 234.087 221.504V221.596V221.729C234.092 221.821 234.092 221.914 234.087 222.006C234.046 222.451 233.864 222.871 233.567 223.206C233.491 223.289 233.41 223.368 233.325 223.442C233.256 223.494 233.192 223.54 233.117 223.586L232.904 223.708L232.794 223.76L232.719 223.788C232.542 223.856 232.359 223.905 232.171 223.933H231.958H231.785H231.479C231.311 223.928 231.143 223.912 230.977 223.887C230.782 223.868 230.589 223.833 230.4 223.783C229.805 223.619 229.233 223.381 228.698 223.073C227.83 222.576 226.999 222.017 226.212 221.4C223.552 219.346 221.181 217.137 218.712 215.215C218.127 214.752 217.519 214.321 216.888 213.923C216.623 213.754 216.345 213.606 216.058 213.479C215.975 213.446 215.89 213.417 215.804 213.392C215.804 213.392 215.804 213.427 215.804 213.358C215.804 213.288 215.804 213.121 215.804 213.006C215.804 212.89 215.804 212.815 215.804 212.74C215.804 212.665 215.804 212.613 215.763 212.562C215.694 212.388 215.683 212.515 215.994 212.665C216.076 212.717 216.166 212.756 216.26 212.781L216.438 212.844L216.531 212.873V212.96C216.511 213.131 216.529 213.304 216.583 213.467C216.795 214.023 217.11 214.534 217.512 214.973C218.529 216.076 219.665 217.065 220.898 217.921C222.162 218.844 223.494 219.721 224.85 220.592C226.206 221.463 227.579 222.323 228.975 223.402C229.375 223.71 229.742 224.058 230.071 224.44C230.373 224.784 230.573 225.206 230.648 225.658C230.675 225.836 230.675 226.016 230.648 226.194L230.59 226.46C230.536 226.661 230.457 226.855 230.354 227.037C230.115 227.473 229.734 227.815 229.275 228.006C228.909 228.153 228.515 228.218 228.121 228.196C227.583 228.16 227.053 228.04 226.552 227.838C225.135 227.24 223.782 226.5 222.513 225.629C221.279 224.815 220.096 223.973 218.919 223.125L215.458 220.598C214.881 220.183 214.304 219.779 213.727 219.392C213.19 219.014 212.629 218.671 212.048 218.365C211.935 218.305 211.818 218.255 211.696 218.215C211.696 218.215 211.696 218.163 211.696 218.094C211.696 218.025 211.696 217.962 211.731 217.898C211.754 217.797 211.769 217.695 211.777 217.592C211.777 217.471 211.777 217.408 211.777 217.344C211.78 217.31 211.78 217.275 211.777 217.24C211.569 216.375 212.054 218.394 212.008 218.198C211.955 217.968 211.861 217.749 211.731 217.552C211.627 217.431 211.633 217.483 211.731 217.494C211.815 217.509 211.901 217.509 211.985 217.494C212.042 217.494 212.088 217.494 212.152 217.494L212.383 217.454H212.481C212.487 217.475 212.496 217.494 212.51 217.511C212.536 217.569 212.567 217.625 212.602 217.679C213.061 218.332 213.591 218.932 214.183 219.467C215.48 220.681 216.84 221.827 218.256 222.9C219.681 223.996 221.14 225.058 222.617 226.067C224.055 227.085 225.558 228.006 227.117 228.825C228.081 229.287 228.167 229.402 228.219 229.713C228.204 229.823 228.158 229.925 228.087 230.009C228.015 230.093 227.921 230.154 227.815 230.187C227.405 230.34 226.966 230.403 226.529 230.371C224.342 230.313 220.708 229.102 217.148 226.615C215.549 225.503 214.009 224.309 212.533 223.038C211.738 222.364 210.999 221.627 210.323 220.835C209.888 220.339 209.513 219.795 209.204 219.213C209.094 218.986 209.002 218.751 208.927 218.51C208.876 218.345 208.837 218.178 208.812 218.008C208.778 217.784 208.767 217.558 208.777 217.333C208.818 216.681 209.076 216.062 209.51 215.573C209.61 215.459 209.72 215.352 209.838 215.256C209.947 215.166 210.063 215.085 210.185 215.013C210.366 214.899 210.56 214.804 210.762 214.731L211.021 214.65L211.154 214.615L211.448 214.569C211.548 214.563 211.648 214.563 211.748 214.569H211.938C212.054 214.569 212.215 214.598 212.296 214.615C212.567 214.665 212.832 214.742 213.087 214.846C213.401 214.972 213.705 215.121 213.998 215.29C214.512 215.573 214.933 215.867 215.354 216.133C216.185 216.71 216.952 217.258 217.719 217.817C219.242 218.942 220.719 220.067 222.202 221.14C223.62 222.201 225.099 223.175 226.633 224.06C226.99 224.25 227.342 224.423 227.654 224.55C227.81 224.613 227.948 224.654 228.058 224.688L228.179 224.717V224.838C228.179 224.919 228.179 225.017 228.179 225.075C228.161 225.401 228.227 225.727 228.369 226.021C228.188 225.868 227.969 225.769 227.735 225.733L227.538 225.681H227.435H227.388C227.042 225.629 230.273 226.148 228.906 225.929H228.837C228.792 225.924 228.748 225.924 228.704 225.929C228.38 226.03 228.074 226.182 227.798 226.379C227.7 226.442 227.619 226.512 227.515 226.587L227.371 226.69C227.371 226.69 227.371 226.69 227.371 226.656L227.256 226.529C226.642 225.989 225.99 225.493 225.306 225.046L222.998 223.5C221.423 222.456 219.819 221.388 218.262 220.165C217.289 219.414 216.369 218.597 215.51 217.719C215.041 217.233 214.616 216.706 214.24 216.144C213.787 215.48 213.469 214.733 213.306 213.946C213.22 213.48 213.206 213.003 213.265 212.533C213.338 211.847 213.651 211.21 214.148 210.733C214.491 210.432 214.91 210.233 215.36 210.156C215.684 210.101 216.016 210.101 216.34 210.156C216.773 210.229 217.194 210.359 217.592 210.542C218.743 211.114 219.828 211.808 220.829 212.613C222.733 214.067 224.492 215.585 226.269 217.033C227.152 217.76 228.04 218.463 228.923 219.11C229.367 219.427 229.812 219.727 230.244 219.987C230.591 220.206 230.963 220.383 231.352 220.512L231.594 220.546C231.629 220.548 231.663 220.548 231.698 220.546C231.698 220.65 231.698 220.858 231.738 221.008C231.779 221.158 231.773 221.175 231.796 221.256C231.819 221.337 231.796 221.371 231.796 221.429C231.796 221.487 231.837 221.538 231.86 221.596C231.883 221.654 231.86 221.671 231.906 221.706C231.924 221.74 231.947 221.771 231.975 221.798C231.971 221.807 231.971 221.818 231.975 221.827C231.909 221.809 231.839 221.809 231.773 221.827C231.661 221.841 231.55 221.868 231.444 221.908C231.302 221.954 231.165 222.014 231.035 222.087L230.769 222.213H230.735C230.632 222.048 230.51 221.895 230.371 221.758C230.198 221.562 229.99 221.354 229.794 221.181C228.94 220.367 227.971 219.56 227.013 218.752C225.069 217.148 223.096 215.538 221.181 213.785C220.184 212.888 219.249 211.924 218.383 210.9C218.142 210.611 217.92 210.307 217.719 209.988C217.434 209.573 217.238 209.104 217.142 208.61L217.113 208.35C217.113 208.252 217.113 208.148 217.113 208.044C217.12 207.972 217.132 207.901 217.148 207.831L217.183 207.658L217.269 207.312C217.315 207.182 217.367 207.055 217.425 206.931C217.553 206.649 217.729 206.392 217.944 206.169C218.068 206.046 218.206 205.938 218.354 205.846C218.423 205.795 218.497 205.748 218.573 205.708L218.804 205.615C219.327 205.429 219.891 205.387 220.437 205.494C220.638 205.54 220.858 205.587 221.054 205.644L221.631 205.84C222.282 206.112 222.91 206.435 223.512 206.804C224.665 207.508 225.71 208.269 226.742 209.042L230.152 211.65C230.729 212.071 231.277 212.492 231.837 212.862C232.267 213.184 232.746 213.435 233.256 213.606C233.413 213.628 233.571 213.642 233.729 213.646H234C234 213.646 234 213.6 234 213.733C234.033 213.877 234.083 214.016 234.15 214.148C234.185 214.225 234.23 214.296 234.283 214.362C234.375 214.448 234.375 214.362 234.19 214.362H234.046L233.873 214.396C233.795 214.411 233.717 214.432 233.642 214.46L233.533 214.5C233.523 214.464 233.505 214.43 233.481 214.402C233.298 214.122 233.087 213.861 232.852 213.623C232.587 213.352 232.275 213.075 231.998 212.804C230.798 211.713 229.477 210.681 228.156 209.654C226.298 208.2 224.4 206.827 222.525 205.223C222.288 205.015 222.052 204.802 221.81 204.554C221.567 204.306 221.36 204.063 221.152 203.798C220.939 203.522 220.746 203.231 220.575 202.927C220.341 202.546 220.184 202.122 220.113 201.681C220.113 201.606 220.113 201.548 220.113 201.456C220.108 201.362 220.108 201.267 220.113 201.173C220.137 200.956 220.203 200.746 220.31 200.556C220.423 200.352 220.578 200.175 220.765 200.037C220.918 199.923 221.087 199.833 221.267 199.771C221.716 199.637 222.189 199.606 222.652 199.679C223.328 199.771 223.99 199.943 224.625 200.192C227.094 201.138 229.027 202.748 230.827 204.317C231.727 205.113 232.592 205.921 233.452 206.665C233.862 207.024 234.291 207.359 234.738 207.669C235.018 207.897 235.348 208.054 235.702 208.125C235.702 208.125 235.702 208.177 235.702 208.223L235.938 208.887C235.933 208.909 235.933 208.933 235.938 208.956L235.985 209.025C235.985 209.025 235.915 209.025 235.829 209.025C235.747 209.031 235.665 209.047 235.587 209.071C235.483 209.09 235.382 209.123 235.287 209.169L235.09 209.238C235.057 209.182 235.021 209.128 234.981 209.077C234.74 208.76 234.476 208.461 234.19 208.183C233.613 207.606 232.927 206.977 232.263 206.394C230.919 205.24 229.529 204.086 228.127 202.961L226.021 201.231C225.312 200.654 224.625 200.077 223.881 199.396L223.581 199.085L223.385 198.848L223.333 198.779L223.252 198.652L223.217 198.588V198.554L223.183 198.485C223.136 198.388 223.097 198.288 223.067 198.185C223.067 198.075 223.027 197.988 223.01 197.885C223.005 197.808 223.005 197.731 223.01 197.654C223.004 197.565 223.004 197.477 223.01 197.388C223.033 197.229 223.078 197.074 223.142 196.927C223.176 196.85 223.217 196.777 223.263 196.708C223.323 196.612 223.392 196.523 223.471 196.442C223.734 196.17 224.082 195.995 224.458 195.946C224.55 195.938 224.643 195.938 224.735 195.946C224.815 195.938 224.896 195.938 224.977 195.946C225.076 195.958 225.175 195.977 225.271 196.004C225.392 196.034 225.509 196.075 225.623 196.125C225.904 196.241 226.176 196.378 226.437 196.535L227.071 196.921C227.879 197.435 228.617 197.942 229.379 198.45C230.688 199.344 231.975 200.181 233.273 201.017C234.479 201.802 235.477 202.413 236.308 202.904L238.315 204.098C238.846 204.415 239.25 204.675 239.585 204.9C239.919 205.125 240.162 205.431 240.473 205.662C240.748 205.851 241.044 206.008 241.356 206.129C241.546 206.238 241.558 206.365 241.356 206.596C240.973 206.923 240.512 207.143 240.017 207.237C239.642 207.341 239.253 207.386 238.863 207.369C238.417 207.353 237.973 207.297 237.537 207.202C236.5 206.982 235.492 206.645 234.531 206.198C231.522 204.707 228.641 202.971 225.917 201.006L224.931 200.354C224.619 200.152 224.279 199.944 224.088 199.852H224.042L224.106 199.719C224.192 199.535 224.273 199.344 224.342 199.142C224.576 198.693 224.7 198.195 224.706 197.688C224.66 197.567 224.677 197.688 224.804 197.688C224.89 197.706 224.978 197.706 225.063 197.688C225.185 197.677 225.304 197.654 225.421 197.619C226.079 197.446 224.573 197.827 224.746 197.786H224.792L224.879 197.752L224.965 197.706L225.087 197.642C225.17 197.598 225.251 197.55 225.329 197.498L225.444 197.412L225.6 197.308C225.812 197.163 226.016 197.007 226.212 196.84L226.638 196.5L226.915 196.765L227.325 197.14C228.479 198.167 229.812 199.24 231.092 200.325C232.373 201.41 233.677 202.512 234.969 203.688C235.621 204.265 236.262 204.877 236.925 205.563C237.292 205.943 237.639 206.342 237.963 206.758C238.237 207.112 238.464 207.499 238.638 207.912C238.673 208.004 238.713 208.137 238.742 208.246C238.787 208.403 238.818 208.563 238.835 208.725C238.841 208.825 238.841 208.925 238.835 209.025C238.833 209.17 238.824 209.314 238.806 209.458C238.782 209.612 238.747 209.764 238.702 209.913C238.637 210.098 238.558 210.278 238.465 210.45C238.273 210.785 238.013 211.078 237.704 211.31C237.474 211.477 237.221 211.611 236.954 211.708C236.776 211.766 236.595 211.814 236.412 211.852C236.243 211.887 236.071 211.906 235.898 211.91C235.737 211.918 235.575 211.918 235.413 211.91C235.147 211.885 234.882 211.838 234.623 211.771C234.414 211.712 234.208 211.643 234.006 211.563C233.827 211.483 233.642 211.408 233.504 211.327C232.995 211.053 232.511 210.737 232.056 210.381C231.26 209.758 230.602 209.158 229.962 208.569C228.692 207.415 227.51 206.302 226.292 205.385C225.51 204.775 224.663 204.254 223.765 203.833C223.377 203.65 222.971 203.507 222.554 203.406C222.468 203.384 222.382 203.367 222.294 203.354C222.248 203.351 222.202 203.351 222.156 203.354V203.308C222.156 203.154 222.144 202.998 222.121 202.84V202.731V202.488C222.112 202.378 222.095 202.268 222.069 202.16C222.069 202.062 222 201.929 221.983 201.854C221.972 201.791 221.954 201.729 221.931 201.669C221.902 201.605 221.865 201.545 221.821 201.49C221.816 201.471 221.806 201.453 221.792 201.438C221.792 201.438 221.729 201.386 221.752 201.41C221.773 201.414 221.795 201.414 221.815 201.41H221.902C221.961 201.421 222.022 201.421 222.081 201.41H222.173H222.323C222.418 201.403 222.513 201.387 222.606 201.363C222.75 201.306 223.056 201.26 223.281 201.173L223.621 201.029H223.656C223.657 201.042 223.657 201.056 223.656 201.069C223.696 201.127 223.708 201.173 223.765 201.248C223.992 201.587 224.253 201.903 224.544 202.188C224.867 202.5 225.3 202.869 225.733 203.227L227.077 204.306C228.917 205.76 230.827 207.19 232.708 208.777C233.715 209.594 234.669 210.474 235.563 211.413C235.839 211.72 236.096 212.044 236.331 212.383C236.501 212.639 236.645 212.912 236.763 213.196C236.806 213.3 236.843 213.406 236.873 213.513L236.919 213.692C236.919 213.762 236.954 213.848 236.965 213.923C236.977 213.998 236.965 214.085 236.994 214.165C237 214.267 237 214.369 236.994 214.471C236.99 214.577 236.981 214.683 236.965 214.788C236.942 214.915 236.911 215.04 236.873 215.163C236.797 215.417 236.68 215.657 236.527 215.873C236.389 216.076 236.224 216.258 236.037 216.415C235.773 216.628 235.474 216.794 235.154 216.906C234.809 217.028 234.447 217.098 234.081 217.113C233.844 217.128 233.607 217.128 233.371 217.113H233.065L232.731 217.073C232.41 217.018 232.095 216.931 231.79 216.813C231.552 216.724 231.321 216.618 231.098 216.496C230.74 216.306 230.391 216.098 230.054 215.873L230.14 215.735Z" fill="#3B2C7D"/>
<path d="M118.847 109.818C118.893 111.306 117.116 111.6 116.233 113.21C115.754 114.075 115.91 116.625 115.189 117.248C112.056 120.064 107.66 120.22 104.02 117.895C99.2369 114.843 98.1292 107.458 102.098 103.304C107.625 97.5522 118.616 101.868 118.847 109.818Z" fill="#3B2C7D"/>
<path d="M100.131 96.433C96.9018 98.5593 94.4518 101.678 93.1498 105.318C92.723 106.648 92.4596 108.026 92.3652 109.42C92.193 111.888 92.6454 114.36 93.6805 116.608C93.8012 116.893 93.942 117.168 94.1017 117.433C94.2575 117.698 94.3902 117.975 94.5632 118.235C94.9039 118.755 95.2737 119.256 95.6709 119.735C96.4776 120.696 97.3869 121.567 98.3825 122.331C100.196 123.674 102.245 124.666 104.423 125.256C104.765 125.362 105.114 125.445 105.467 125.504C105.813 125.568 106.165 125.648 106.517 125.7C107.221 125.801 107.93 125.865 108.64 125.891C109.35 125.948 110.054 125.891 110.763 125.891C111.473 125.891 112.171 125.793 112.869 125.666C113.734 125.55 113.792 126.064 113.123 126.721C112.927 126.913 112.712 127.085 112.482 127.235C112.195 127.414 111.889 127.563 111.571 127.679C110.785 127.982 109.949 128.131 109.107 128.118C107.482 128.081 105.867 127.85 104.296 127.431C102.736 126.994 101.229 126.386 99.8017 125.62C98.3833 124.831 97.0627 123.878 95.8671 122.781C94.6789 121.658 93.6536 120.375 92.8209 118.968C90.7723 115.528 89.9792 111.486 90.5767 107.527C91.2127 104.103 92.751 100.91 95.0328 98.2779C97.3147 95.6462 100.257 93.6709 103.557 92.5561C104.036 92.4176 104.504 92.2388 104.994 92.1407L106.459 91.8523C106.956 91.7946 107.452 91.76 107.948 91.7138C108.446 91.6878 108.944 91.6878 109.442 91.7138C111.415 91.7854 113.363 92.1751 115.211 92.8676C118.073 93.9551 120.629 95.7164 122.665 98.0023L123.311 98.7753C123.536 99.0271 123.738 99.2973 123.917 99.583C124.257 100.108 124.534 100.552 124.748 100.939C124.92 101.259 125.059 101.595 125.163 101.943C125.322 102.355 125.322 102.811 125.163 103.223C125.111 103.383 125.039 103.536 124.95 103.679C124.638 104.043 124.032 103.241 123.127 101.845C121.765 99.7372 120.001 97.9196 117.934 96.4965C115.85 95.0464 113.444 94.1238 110.925 93.808C109.05 93.5719 107.147 93.6814 105.311 94.1311C103.459 94.6129 101.702 95.4091 100.119 96.485L100.131 96.433Z" fill="#3B2C7D"/>
<path d="M96.0007 89.7696C93.6418 91.4266 91.552 93.4366 89.8045 95.7292C88.0691 98.035 86.7063 100.599 85.766 103.327C85.1005 105.319 84.6914 107.388 84.5487 109.483C84.2651 113.183 84.9511 116.894 86.5391 120.248C86.7335 120.67 86.9511 121.08 87.191 121.477C87.4276 121.87 87.6237 122.296 87.9007 122.671C88.4137 123.448 88.9744 124.192 89.5795 124.898C90.7801 126.331 92.1343 127.627 93.618 128.764C96.3005 130.765 99.3219 132.266 102.537 133.195L103.305 133.425L104.083 133.598C104.603 133.702 105.116 133.829 105.641 133.916C106.688 134.083 107.743 134.191 108.803 134.239C109.33 134.286 109.86 134.301 110.389 134.285C110.92 134.285 111.445 134.285 111.976 134.25C113.02 134.141 114.076 134.089 115.114 133.875C116.401 133.668 116.406 134.193 115.374 134.931C115.064 135.145 114.74 135.338 114.405 135.508C113.972 135.707 113.524 135.873 113.066 136.004C111.914 136.347 110.714 136.507 109.512 136.477C107.171 136.398 104.847 136.044 102.589 135.421C100.349 134.774 98.1845 133.888 96.1334 132.779C94.0964 131.634 92.1942 130.264 90.4622 128.695C88.7487 127.089 87.255 125.263 86.0199 123.266C83.0061 118.331 81.8829 112.471 82.8583 106.771C83.1232 105.23 83.5208 103.715 84.0468 102.243C84.341 101.521 84.5891 100.777 84.941 100.079L85.4372 99.0234L86.0141 97.9965C87.5336 95.2828 89.462 92.8193 91.7314 90.6926C94.5261 88.0806 97.8323 86.0768 101.441 84.808C104.179 83.835 107.076 83.3867 109.98 83.4869C112.865 83.5928 115.711 84.1878 118.397 85.2465C122.572 86.8253 126.229 89.5266 128.966 93.0523C129.568 93.8267 130.111 94.6443 130.593 95.4984C131.259 96.6242 131.753 97.8435 132.058 99.1157C132.153 99.4552 132.192 99.8079 132.174 100.16C132.166 100.414 132.117 100.665 132.03 100.904C131.981 101.105 131.907 101.299 131.81 101.481C131.649 101.689 131.395 101.481 131.083 100.904C130.772 100.327 130.391 99.4446 129.878 98.3196C128.257 94.946 125.815 92.0338 122.776 89.8503C119.659 87.6151 116.042 86.1771 112.241 85.6619C106.503 84.9359 100.705 86.4324 96.0353 89.8446L96.0007 89.7696Z" fill="#3B2C7D"/>
<path d="M145.29 86.1981C148.134 84.7385 151.238 83.8097 153.852 81.9174C154.556 81.4097 152.173 79.927 151.481 80.4289C148.867 82.3212 145.763 83.2501 142.919 84.7097C142.238 85.0616 144.5 86.6077 145.29 86.1981Z" fill="#3B2C7D"/>
<path d="M134.504 74.0828C135.163 72.1287 136.005 70.2414 137.02 68.4463C137.21 68.0655 136.091 68.1982 135.952 68.2155C135.583 68.2559 134.458 68.354 134.222 68.7925C133.176 70.652 132.311 72.607 131.637 74.6309C131.608 74.729 134.256 74.8675 134.475 74.1117L134.504 74.0828Z" fill="#3B2C7D"/>
<path d="M65.29 117.814C62.1861 118.604 59.2496 119.937 56.0592 120.26C55.3842 120.329 55.9496 121.01 56.1688 121.217C56.6816 121.678 57.3557 121.916 58.0438 121.881C61.2573 121.558 64.1938 120.225 67.2746 119.435C68.3534 119.158 66.0631 117.617 65.29 117.814Z" fill="#3B2C7D"/>
<path d="M68.1695 98.977C66.3547 97.9253 64.4442 97.0483 62.4637 96.3578C61.872 96.2103 61.2499 96.2404 60.6752 96.4443C60.5714 96.4443 59.4175 96.8943 59.7579 97.0212C61.7384 97.7118 63.6489 98.5888 65.4637 99.6404C65.9021 99.9231 66.7964 99.6751 67.2521 99.5539C67.3733 99.5251 68.4983 99.1789 68.1695 98.977Z" fill="#3B2C7D"/>
</svg>
