<svg width="300" height="300" viewBox="0 0 300 300" fill="none" xmlns="http://www.w3.org/2000/svg">
<path d="M106.012 244.615L105.003 234.882L104.593 231.334L103.341 218.809C103.156 216.957 102.943 215.094 102.718 213.265C102.447 210.9 102.089 208.557 102.043 206.14C102.043 205.379 102.36 205.488 102.712 206.094C103.203 207.048 103.503 208.089 103.595 209.157C104.108 213.963 104.605 218.78 104.991 223.655C105.222 226.569 105.626 229.58 105.949 232.552L107.01 242.359C107.23 244.367 107.455 246.398 107.68 248.388C108.026 251.434 108.366 254.492 108.758 257.504C109.064 259.852 109.433 262.119 109.791 264.427L110.033 265.944C110.148 266.614 110.22 267.29 110.247 267.969C110.275 268.289 110.213 268.611 110.068 268.898C110.02 269.01 109.962 269.118 109.895 269.221C109.785 269.342 109.647 269.221 109.497 268.886C109.29 268.378 109.143 267.848 109.058 267.305C108.268 263.186 107.703 258.819 107.155 254.423C106.774 251.163 106.387 247.88 106.001 244.615H106.012Z" fill="#3B2C7D"/>
<path d="M111.688 245.233L111.619 235.333L111.556 231.721L111.481 218.988C111.481 217.108 111.417 215.209 111.354 213.346C111.279 210.946 111.14 208.54 111.227 206.134C111.279 204.634 112.502 206.515 112.571 209.279C112.692 214.177 112.744 219.086 112.675 224.019C112.634 226.979 112.75 230.054 112.784 233.077L112.883 243.052C112.883 245.1 112.923 247.148 112.94 249.19C112.975 252.288 112.998 255.404 113.061 258.479C113.113 260.873 113.24 263.215 113.321 265.581C113.321 266.1 113.373 266.608 113.379 267.133C113.407 267.823 113.39 268.515 113.327 269.204C113.305 269.538 113.187 269.858 112.986 270.127C112.923 270.225 112.847 270.314 112.761 270.392C112.496 270.548 112.323 269.815 112.231 268.367C111.983 264.156 111.873 259.713 111.792 255.225C111.746 251.902 111.7 248.567 111.654 245.238L111.688 245.233Z" fill="#3B2C7D"/>
<path d="M117.481 244.483L118.202 234.744L118.416 231.185L119.269 218.654C119.391 216.802 119.466 214.933 119.535 213.092C119.627 210.727 119.65 208.344 119.887 205.985C120.037 204.513 121.139 206.44 121.041 209.169C120.839 214.004 120.544 218.833 120.117 223.696C119.864 226.581 119.754 229.644 119.541 232.621L118.848 242.429C118.698 244.442 118.542 246.467 118.392 248.475C118.144 251.521 117.902 254.59 117.654 257.619C117.469 259.973 117.337 262.286 117.117 264.617C117.077 265.131 117.025 265.638 116.962 266.158C116.895 266.846 116.762 267.526 116.564 268.188C116.485 268.517 116.298 268.81 116.033 269.019C115.946 269.097 115.849 269.163 115.744 269.215C115.45 269.279 115.496 268.558 115.641 267.179C116.044 263.077 116.35 258.686 116.708 254.296C116.956 251.031 117.204 247.748 117.446 244.488L117.481 244.483Z" fill="#3B2C7D"/>
<path d="M88.5659 44.7575C88.1562 46.3672 88.1159 48.0287 87.7351 49.6383C87.2043 51.8652 85.6755 52.9383 83.5755 53.7229C82.5774 54.0922 83.512 54.3575 84.112 54.1325C85.9755 53.4345 87.9312 52.4998 88.8197 50.6133C89.7082 48.7268 89.5524 46.4825 90.0543 44.5095C90.1524 44.1345 88.6697 44.3479 88.5659 44.7575Z" fill="#3B2C7D"/>
<path d="M116.316 33.4036C117.378 31.2056 120.02 28.7479 122.576 28.6613C122.824 28.6613 123.978 28.1594 123.395 28.1767C121.658 28.2987 119.981 28.8646 118.526 29.8202C117.07 30.7758 115.884 32.0891 115.082 33.6344C115.007 33.7844 116.166 33.7152 116.316 33.4036Z" fill="#3B2C7D"/>
<path d="M136.156 82.8981C128.299 85.7192 125.258 81.4385 123.649 77.9019C124.924 74.9365 126.314 71.3654 126.689 67.6961C128.997 67.2058 131.599 66.3519 132.631 63.8308C133.358 62.0365 133.301 57.3577 130.497 57.4154C129.745 57.4288 129.011 57.652 128.379 58.0597C127.748 58.4674 127.242 59.0435 126.92 59.7231C126.81 53.4173 124.272 49.8692 121.762 47.0308C120.124 45.1904 117.274 43.5692 114.839 43.5692C106.727 43.5692 100.572 54.2942 100.416 59.7231C100.416 60.0058 96.0371 55.0269 94.1505 60.2481C92.8986 63.7096 96.5851 68.1808 100.595 68.1808C101.079 71.8154 103.572 76.1308 106.07 79.7827C91.6063 91.4423 75.9717 80.3192 74.8813 71.9135C74.0275 65.3654 78.0313 62.1058 82.5832 57.8308C85.7448 54.8654 86.9505 53.2961 87.5736 48.9231C88.3467 43.425 94.0409 26.3019 108.36 27.6923C112.843 28.1134 115.999 33.1211 116.154 32.8846C117.568 30.6461 127.981 25.3846 135.377 35.9077C138.556 40.4308 141.083 51.4846 137.252 60.8308C135.522 65.0711 140.322 67.7135 141.706 71.4461C143.235 75.5769 140.772 81.2538 136.156 82.8981Z" fill="#3B2C7D"/>
<path d="M87.8731 51.3459C87.6238 52.3561 87.2354 53.3269 86.7193 54.2305C86.1812 55.127 85.5404 55.9576 84.8097 56.7055C83.4135 58.1593 81.925 59.417 80.5577 60.7439C79.1606 62.0092 77.9331 63.45 76.9058 65.0305C75.9413 66.5898 75.4354 68.3893 75.4462 70.2228C75.2847 73.9324 77.6327 77.2612 80.4654 79.6612C81.9066 80.876 83.5179 81.8731 85.2481 82.6209C86.9724 83.3845 88.8031 83.8806 90.677 84.092C93.4145 84.405 96.1874 84.0954 98.7885 83.1862C100.091 82.735 101.345 82.1552 102.533 81.4555C103.144 81.1324 103.687 80.7112 104.264 80.3478L105.014 79.7709L105.117 79.6959H105.146V79.667L105.106 79.6036L104.148 78.1209C103.785 77.5439 103.421 76.967 103.075 76.3324C102.372 75.1209 101.746 73.8665 101.2 72.5766C100.923 71.9247 100.687 71.2612 100.473 70.5805C100.381 70.2343 100.271 69.8939 100.196 69.542L100.087 69.0343L100.058 68.8555C100.058 68.7747 99.9597 68.8093 99.902 68.792H99.7404H99.602C99.2291 68.7325 98.8622 68.6398 98.5058 68.5151C97.7972 68.2767 97.1298 67.9304 96.527 67.4882C95.9283 67.0548 95.3874 66.5469 94.9174 65.9766C94.4462 65.3965 94.0579 64.7539 93.7635 64.067C93.4664 63.3656 93.3077 62.6133 93.2962 61.8516C93.2968 61.0801 93.4662 60.3181 93.7924 59.6189C94.0961 58.8736 94.6141 58.2351 95.2808 57.7843C95.6525 57.5583 96.0751 57.4294 96.5097 57.4093C96.9199 57.3909 97.3301 57.4456 97.7212 57.5709C98.0845 57.6901 98.4345 57.8467 98.7654 58.0382C98.927 58.1247 99.0827 58.2228 99.2385 58.3266L99.4635 58.4766L99.5731 58.5574C99.6731 58.6343 99.7712 58.7151 99.8674 58.7997C99.8674 58.7997 99.925 58.8574 99.9423 58.8343V58.742V58.5516C99.9423 58.4997 99.9423 58.4478 99.9423 58.3959L99.9943 58.0959C100.064 57.8132 100.115 57.5189 100.196 57.242C100.34 56.6651 100.525 56.1286 100.721 55.5862C101.127 54.5064 101.611 53.4574 102.169 52.4478C103.279 50.4235 104.689 48.5794 106.352 46.9786C108.026 45.335 110.091 44.1439 112.352 43.517C113.526 43.1882 114.755 43.1037 115.964 43.2689C117.125 43.4834 118.24 43.8993 119.258 44.4978C119.941 44.89 120.584 45.3479 121.179 45.8651C121.48 46.1366 121.765 46.4256 122.033 46.7305C122.292 47.0247 122.54 47.3074 122.783 47.6016C123.79 48.7776 124.663 50.0625 125.385 51.4324C126.094 52.8015 126.612 54.2612 126.925 55.7709C127.006 56.1516 127.081 56.5266 127.127 56.9247L127.208 57.5016L127.242 57.8189C127.242 58.0382 127.242 58.217 127.277 58.3959V58.5286V58.592C127.314 58.5095 127.359 58.4303 127.41 58.3555C127.502 58.2113 127.615 58.0812 127.744 57.9689L127.842 57.8939L128.085 57.7209C128.252 57.617 128.425 57.5189 128.598 57.4324C128.953 57.2637 129.327 57.1379 129.712 57.0574C130.11 56.9748 130.52 56.9592 130.923 57.0112C131.138 57.0412 131.347 57.0994 131.546 57.1843C132.126 57.449 132.591 57.914 132.856 58.4939C133.188 59.1848 133.384 59.933 133.433 60.6978C133.492 61.4432 133.459 62.1931 133.335 62.9305C133.273 63.3133 133.17 63.6885 133.029 64.0497C132.869 64.4056 132.676 64.7456 132.452 65.0651C131.538 66.2935 130.251 67.1924 128.783 67.6266C128.437 67.7536 128.085 67.8516 127.733 67.9497L127.277 68.0651H127.173C127.173 68.0651 127.081 68.0651 127.092 68.1228L127.058 68.3882L126.989 68.8843C126.937 69.242 126.867 69.5997 126.798 69.9516C126.508 71.3626 126.122 72.7523 125.644 74.1112C125.408 74.792 125.154 75.4612 124.889 76.1247L124.167 77.8555C124.167 77.9016 124.375 78.3055 124.537 78.5939C124.698 78.8824 124.865 79.1709 125.044 79.4824C125.396 80.0576 125.806 80.5951 126.267 81.0862C126.722 81.5688 127.238 81.9897 127.802 82.3382C128.374 82.6683 128.989 82.9151 129.631 83.0709C130.952 83.3536 132.319 83.3536 133.64 83.0709C134.056 82.9786 134.425 82.9266 134.725 82.8459C135.025 82.7651 135.302 82.7016 135.469 82.6612C135.856 82.5805 136.046 82.5805 136.046 82.6612C136.046 82.742 135.85 82.8632 135.469 83.0536C135.29 83.1516 135.06 83.267 134.789 83.3882C134.517 83.5093 134.212 83.6074 133.831 83.7286C132.947 84.0113 132.029 84.1743 131.102 84.2132C129.1 84.2886 127.147 83.5784 125.662 82.2343C125.092 81.7171 124.582 81.1364 124.144 80.5035C123.914 80.1862 123.712 79.8459 123.504 79.4997C123.412 79.3209 123.314 79.1478 123.215 78.9689C123.117 78.7901 122.99 78.5189 122.881 78.2882L122.754 78.0286C122.73 77.9855 122.709 77.9412 122.69 77.8959L122.748 77.7632L122.973 77.2209L123.204 76.6439C123.354 76.2805 123.498 75.9112 123.648 75.5362C124.506 73.4667 125.152 71.3152 125.575 69.1151C125.633 68.8439 125.667 68.567 125.708 68.2959L125.794 67.5747L125.846 67.1824V66.9805C125.846 66.9286 125.973 66.9401 126.031 66.917L126.867 66.7266L127.335 66.6112C127.6 66.5478 127.86 66.467 128.114 66.392C129.099 66.1097 130.008 65.6088 130.773 64.9266C131.121 64.5935 131.41 64.2032 131.627 63.7728L131.783 63.4497C131.783 63.3401 131.852 63.242 131.887 63.1266C131.95 62.8853 132 62.6407 132.037 62.3939C132.191 61.3899 132.114 60.3637 131.812 59.3939C131.697 59.0064 131.467 58.6625 131.154 58.4074C131.001 58.307 130.828 58.2388 130.648 58.2071C130.467 58.1753 130.282 58.1807 130.104 58.2228C129.646 58.2846 129.207 58.4397 128.812 58.6786C128.761 58.7079 128.713 58.7407 128.667 58.7766L128.598 58.8228C128.557 58.8474 128.52 58.8786 128.489 58.9151L128.16 59.2036C128.056 59.3247 127.952 59.4805 127.848 59.6189C127.786 59.6963 127.732 59.7793 127.687 59.867L127.508 60.2362L127.121 61.0382L126.164 63.0228L126.054 60.5247C126.025 59.6074 125.962 58.7939 125.91 57.992V57.6862V57.5362V57.4612L125.864 57.1497L125.771 56.5324C125.685 56.1228 125.627 55.7074 125.512 55.3093C125.113 53.6936 124.461 52.1513 123.579 50.7401C123.136 50.0256 122.648 49.3397 122.119 48.6862C121.848 48.3574 121.577 48.0286 121.294 47.7112C121.032 47.3995 120.749 47.1065 120.446 46.8343C119.242 45.74 117.794 44.9488 116.223 44.5266C115.458 44.334 114.664 44.2851 113.881 44.3824C113.072 44.4654 112.278 44.6595 111.521 44.9593C109.977 45.5779 108.564 46.4822 107.356 47.6247C106.111 48.7809 105.014 50.087 104.09 51.5132C103.15 52.9373 102.376 54.4646 101.783 56.0651C101.61 56.5382 101.46 57.0228 101.333 57.5074C101.264 57.7555 101.212 58.0036 101.16 58.2516L101.119 58.4593C101.119 58.5747 101.079 58.6843 101.062 58.8055C101.027 59.0362 101.015 59.2843 100.992 59.5324C100.963 59.6794 100.922 59.824 100.871 59.9651L100.704 60.167L100.623 60.2709C100.623 60.317 100.525 60.3112 100.496 60.317C100.403 60.3238 100.308 60.312 100.219 60.2824C100.093 60.2547 99.9719 60.206 99.8616 60.1382C99.7176 60.0398 99.579 59.9338 99.4462 59.8209L99.0308 59.492L98.7135 59.2612C98.1491 58.8309 97.4836 58.5528 96.7808 58.4536C96.4715 58.4362 96.1633 58.5039 95.8897 58.6494C95.6161 58.7948 95.3875 59.0124 95.2289 59.2786C95.0245 59.5779 94.8543 59.8991 94.7212 60.2362C94.6559 60.4055 94.6019 60.579 94.5597 60.7555L94.4904 61.0093V61.2747C94.4218 62.0018 94.5245 62.7349 94.7904 63.4151C95.0776 64.1151 95.4792 64.7624 95.9789 65.3305C96.9692 66.4987 98.3364 67.2843 99.8443 67.5516C99.9115 67.5569 99.979 67.5569 100.046 67.5516H100.289L100.767 67.5862H101.01C101.062 67.5862 101.062 67.6209 101.067 67.6612V67.7882L101.148 68.2843C101.177 68.4401 101.206 68.6478 101.229 68.7516L101.292 69.0401C101.333 69.2362 101.379 69.4266 101.437 69.617C101.645 70.404 101.909 71.1752 102.227 71.9247C102.864 73.4244 103.608 74.8762 104.454 76.2689C104.875 76.9728 105.314 77.6651 105.764 78.3516L106.727 79.7882C106.727 79.8228 106.785 79.8574 106.79 79.892L106.687 79.9728L106.479 80.1286L106.064 80.4401L105.423 80.9247C104.068 81.9377 102.607 82.8022 101.067 83.5036C99.2362 84.3398 97.2925 84.9035 95.2981 85.1766C93.2943 85.4337 91.2629 85.3812 89.275 85.0209C87.2902 84.6651 85.3705 84.0116 83.5808 83.0824C81.786 82.177 80.1354 81.0104 78.6827 79.6209C77.2013 78.2273 76.0008 76.5626 75.1462 74.717C74.7228 73.7764 74.4465 72.7762 74.327 71.7516C74.2712 71.2459 74.2442 70.7374 74.2462 70.2286C74.2462 69.9747 74.2462 69.7151 74.2462 69.4612L74.3212 68.6997C74.6294 66.6786 75.4607 64.7733 76.7327 63.1728C77.9717 61.6176 79.3421 60.1719 80.8289 58.8516C81.7116 58.0266 82.6116 57.2189 83.4481 56.3766C84.2947 55.5698 85.0352 54.6587 85.652 53.6651C86.2211 52.6511 86.6243 51.5526 86.8462 50.4112C86.9673 49.8343 87.0597 49.2574 87.152 48.6805C87.2443 48.1036 87.377 47.4689 87.5212 46.8747C88.118 44.4928 88.949 42.1757 90.002 39.9574C91.0321 37.7363 92.3302 35.6496 93.8673 33.7439C94.58 32.8842 95.3511 32.0746 96.175 31.3209C97.0242 30.5809 97.9353 29.915 98.8981 29.3305C99.8753 28.7654 100.908 28.3015 101.979 27.9459C103.054 27.5971 104.165 27.3726 105.29 27.2766C105.85 27.2248 106.413 27.2017 106.975 27.2074C107.552 27.2362 108.089 27.2478 108.665 27.317C109.807 27.4887 110.901 27.8932 111.879 28.5055C112.836 29.1009 113.721 29.8057 114.515 30.6055C114.908 30.9978 115.289 31.4074 115.669 31.8228L116.021 32.2151C116.137 32.4286 116.229 32.1689 116.333 32.0824L116.442 31.9728L116.656 31.7882C116.806 31.6612 116.956 31.5459 117.112 31.4362C117.422 31.2163 117.744 31.0122 118.075 30.8247C118.734 30.4612 119.423 30.1562 120.135 29.9132C121.553 29.425 123.043 29.1793 124.542 29.1862C126.036 29.1879 127.516 29.4636 128.91 29.9997C130.291 30.5556 131.572 31.3353 132.7 32.3074C134.889 34.1868 136.567 36.5905 137.575 39.2939C138.584 41.9396 139.223 44.712 139.473 47.5324C139.76 50.3437 139.647 53.1815 139.139 55.9612C139.02 56.6596 138.864 57.351 138.671 58.0324L138.394 59.0593C138.285 59.3997 138.158 59.7286 138.037 60.0632C137.915 60.3978 137.789 60.7439 137.69 61.0555C137.578 61.3476 137.499 61.6514 137.454 61.9612C137.349 62.5734 137.399 63.202 137.598 63.7901C137.998 64.8735 138.584 65.879 139.329 66.7612C140.122 67.7249 140.858 68.7344 141.533 69.7843C142.119 70.7532 142.497 71.834 142.64 72.9574C142.736 73.8889 142.697 74.8293 142.525 75.7497C142.259 77.1133 141.72 78.4087 140.939 79.5574C140.432 80.3094 139.807 80.9739 139.087 81.5247L138.671 81.8305L138.262 82.0612L137.887 82.2689L137.517 82.4074C137.108 82.5787 136.68 82.7008 136.242 82.7709C136.017 82.7709 136.064 82.7132 136.34 82.5343C136.473 82.442 136.675 82.3382 136.917 82.1882C137.16 82.0382 137.448 81.8593 137.754 81.6112C138.559 81.0001 139.257 80.2592 139.819 79.4189C140.614 78.2569 141.153 76.9394 141.4 75.5536C141.619 74.4034 141.566 73.2179 141.244 72.092C140.874 70.9696 140.297 69.9265 139.542 69.017C138.798 68.0305 137.956 67.067 137.235 65.9189C136.861 65.3291 136.566 64.6929 136.358 64.0266C136.149 63.3176 136.094 62.5721 136.196 61.8401C136.196 61.6555 136.242 61.4709 136.289 61.2632L136.456 60.7439C136.571 60.3747 136.669 60.1266 136.773 59.8209C136.997 59.2433 137.19 58.654 137.35 58.0555C137.517 57.4786 137.685 56.8555 137.794 56.2382L137.973 55.3209C138.031 55.0093 138.06 54.6978 138.106 54.392C138.427 51.8897 138.443 49.3577 138.152 46.8516C137.868 44.3323 137.262 41.8601 136.346 39.4959C135.895 38.338 135.314 37.2349 134.615 36.2074C133.893 35.1853 133.061 34.2451 132.135 33.4036C131.223 32.5733 130.195 31.8813 129.083 31.3497C127.972 30.836 126.786 30.5067 125.569 30.3747C123.103 30.1488 120.626 30.6844 118.473 31.9093C118.212 32.0599 117.959 32.2256 117.717 32.4055C117.597 32.4898 117.482 32.5803 117.371 32.6766C117.342 32.6966 117.315 32.7198 117.29 32.7459L117.175 32.8497C117.052 32.968 116.94 33.0974 116.84 33.2362L116.592 33.4612C116.556 33.5009 116.513 33.5341 116.465 33.5593L116.362 33.5882L116.148 33.6343C116.066 33.6466 115.982 33.6466 115.9 33.6343C115.565 33.5709 115.237 33.167 114.931 32.8209L114.417 32.2439L113.956 31.7536C113.344 31.1178 112.676 30.5385 111.96 30.0228C111.268 29.5123 110.506 29.1043 109.698 28.8112C109.307 28.6746 108.903 28.5761 108.492 28.517C108.094 28.4651 107.615 28.4593 107.177 28.4305C103.585 28.3188 100.083 29.5651 97.3693 31.9209C94.6 34.2286 92.5462 37.367 90.9943 40.6843C90.2202 42.3633 89.576 44.0992 89.0674 45.8766C88.8135 46.7593 88.5943 47.6478 88.4327 48.5362L88.2077 49.9266C88.1212 50.4112 88.0231 50.8901 87.902 51.3689L87.8731 51.3459Z" fill="#3B2C7D"/>
<path d="M111.348 82.7996C112.193 83.14 113.083 83.352 113.991 83.4284C114.885 83.5111 115.787 83.417 116.644 83.1515C118.388 82.5419 119.899 81.4072 120.971 79.9034C121.796 78.7856 122.491 77.5779 123.043 76.3034C124.042 74.0269 124.765 71.6387 125.194 69.1899C125.645 66.7156 125.867 64.205 125.858 61.6899C125.853 59.4773 125.631 57.2706 125.194 55.1015C124.739 52.3322 123.037 50.0303 121.277 47.8265C120.7 47.1342 121.035 47.0072 121.773 47.3765C122.939 48.026 123.918 48.9636 124.618 50.0995C125.471 51.4141 126.073 52.8752 126.394 54.4092C126.696 55.8787 126.9 57.3666 127.006 58.863C127.218 61.8526 127.088 64.8566 126.619 67.8169C126.043 71.3476 125.171 75.0284 123.418 78.3169C122.927 79.2172 122.364 80.0758 121.733 80.8842C121.08 81.6959 120.326 82.421 119.489 83.0419C118.642 83.6762 117.68 84.1387 116.656 84.4034C115.632 84.657 114.57 84.7196 113.523 84.588C110.989 84.2279 108.64 83.0535 106.831 81.2419C104.167 78.5678 102.188 75.2904 101.062 71.688C100.595 70.32 100.274 68.9063 100.104 67.4707C99.9368 66.0515 99.8272 64.638 99.781 63.213C99.781 62.5842 99.7464 61.9669 99.781 61.3322C99.856 58.9784 100.069 58.2342 100.45 57.7784C100.527 57.6685 100.616 57.5678 100.716 57.4784C101.004 57.2996 101.05 58.2515 101.004 59.9246C100.956 62.4684 101.08 65.0126 101.373 67.5399C101.712 70.0756 102.493 72.5321 103.681 74.7976C104.537 76.5097 105.622 78.0974 106.906 79.5169C108.145 80.9255 109.685 82.0376 111.412 82.7707L111.348 82.7996Z" fill="#3B2C7D"/>
<path d="M121.046 97.9442C120.729 98.0711 120.4 98.1519 120.077 98.25C119.754 98.348 119.413 98.4057 119.09 98.4461C118.437 98.5561 117.778 98.6254 117.117 98.6538C115.83 98.6967 114.541 98.6349 113.263 98.4692C112.332 98.3654 111.408 98.2094 110.494 98.0019C108.888 97.6255 107.336 97.0438 105.879 96.2711C104.375 95.4918 103.077 94.3691 102.088 92.9942C101.22 91.7373 100.743 90.2522 100.715 88.725C100.679 87.7315 100.877 86.7434 101.292 85.8403C101.719 84.9223 102.434 84.1688 103.329 83.6942C103.906 83.4173 103.906 83.7634 103.686 84.2711C103.467 84.7788 103.052 85.4596 102.636 86.2096C102.265 86.9267 102.049 87.7136 102.001 88.5196C101.954 89.3256 102.076 90.1326 102.359 90.8884C103.006 92.4796 104.131 93.8304 105.579 94.7538C107.466 95.9261 109.569 96.7106 111.763 97.0615C114.175 97.5529 116.654 97.6251 119.09 97.275C120.551 97.0327 121.916 96.3918 123.036 95.423C123.876 94.6803 124.533 93.753 124.954 92.714C125.375 91.675 125.55 90.5525 125.465 89.4346C125.415 88.5994 125.182 87.7855 124.783 87.0499C124.385 86.3143 123.83 85.675 123.157 85.1769C122.87 84.9801 122.562 84.8138 122.24 84.6807C121.811 84.515 121.369 84.3857 120.919 84.2942C120.681 84.2405 120.459 84.1296 120.273 83.9711C120.189 83.9074 120.112 83.836 120.042 83.7576C119.956 83.6365 120.042 83.5153 120.342 83.4057C120.524 83.3266 120.72 83.2835 120.919 83.2788C121.034 83.2788 121.156 83.2788 121.294 83.2788L121.721 83.3192C122.638 83.4604 123.501 83.8449 124.219 84.4327C124.946 85.0271 125.536 85.7708 125.95 86.6134C126.367 87.4615 126.616 88.3823 126.682 89.325C126.74 90.254 126.664 91.1866 126.457 92.0942C126.131 93.466 125.455 94.73 124.496 95.7634C123.547 96.79 122.372 97.5803 121.063 98.0711L121.046 97.9442Z" fill="#3B2C7D"/>
<path d="M114.175 90.675C113.229 90.6883 112.286 90.55 111.383 90.2654C109.872 89.8683 108.544 88.9639 107.621 87.7038C107.287 87.282 106.999 86.8256 106.762 86.3423C106.41 85.7009 106.321 84.948 106.514 84.2423C106.583 84.0173 106.889 84.1442 107.171 84.3462C107.311 84.4426 107.439 84.5549 107.552 84.6808C107.664 84.7748 107.737 84.9059 107.76 85.05C107.985 86.1139 108.526 87.0851 109.312 87.8365C109.849 88.3316 110.487 88.7054 111.181 88.9327C111.94 89.239 112.746 89.4146 113.564 89.4519C114.066 89.4858 114.57 89.4528 115.064 89.3538C115.801 89.2352 116.484 88.8928 117.019 88.3731C117.387 87.9621 117.62 87.4489 117.689 86.9019C117.709 86.7837 117.72 86.6641 117.723 86.5442C117.787 86.1058 117.833 85.9673 118.179 85.8577L118.41 85.7885C118.664 85.7365 118.866 85.9558 118.918 86.3654C118.963 87.04 118.823 87.7141 118.514 88.3154C118.18 88.9555 117.677 89.4921 117.06 89.8673C116.183 90.381 115.191 90.6648 114.175 90.6923V90.675Z" fill="#3B2C7D"/>
<path d="M77.7195 128.198C77.9645 126.371 78.3877 124.572 78.983 122.827C79.5599 121.096 80.1887 119.411 80.8753 117.738C81.3772 116.521 81.8734 115.304 82.4272 114.115C84.3787 109.914 86.6107 105.849 89.108 101.948C90.2214 100.217 91.3811 98.4863 92.6503 96.8883C93.457 95.8258 94.3588 94.8391 95.3445 93.9402C95.868 93.473 96.4498 93.0754 97.0753 92.7575C97.7469 92.3753 98.5378 92.2599 99.2907 92.4344C99.4712 92.4774 99.6355 92.5715 99.7637 92.7056C99.8445 92.7921 99.8561 92.8613 99.8157 92.9133C99.7753 92.9652 99.4753 93.0056 99.1407 93.0863C98.7423 93.1853 98.3651 93.3553 98.0272 93.5883C97.6061 93.8652 97.133 94.2517 96.5964 94.6844C95.6219 95.5018 94.731 96.4139 93.9368 97.4075C93.1118 98.4056 92.3272 99.4556 91.5714 100.529C90.0657 102.686 88.6868 104.931 87.3022 107.227C85.6777 110.053 84.2157 112.969 82.9234 115.961C81.4321 119.214 80.2276 122.59 79.3234 126.052C79.0605 127.096 78.9115 128.166 78.8791 129.242C78.8683 129.758 78.9565 130.271 79.1387 130.754L79.3868 131.521L79.7099 132.259C81.0714 135.254 83.2464 137.884 85.4791 140.307C87.2445 142.188 89.1368 143.884 91.0234 145.615L92.2753 146.769C93.8157 148.211 94.2368 148.765 94.3176 149.319C94.3502 149.439 94.3677 149.563 94.3695 149.688C94.3234 150.011 93.5907 149.538 92.4311 148.534C89.0041 145.517 85.3522 142.281 82.208 138.444C81.0088 137.017 79.9591 135.47 79.0753 133.829C78.8495 133.413 78.6454 132.985 78.4637 132.548C78.2631 132.111 78.0954 131.66 77.9618 131.198C77.8926 130.961 77.8061 130.759 77.7484 130.488C77.6932 130.226 77.6566 129.96 77.6387 129.692C77.6124 129.198 77.624 128.702 77.6734 128.209L77.7195 128.198Z" fill="#3B2C7D"/>
<path d="M136.443 114.669C136.051 112.696 135.641 110.723 135.174 108.767C135.001 108.057 134.793 107.353 134.597 106.65C133.997 104.153 133.166 101.718 132.116 99.3746C131.648 98.3637 131.032 97.4284 130.288 96.5996C129.832 96.113 129.285 95.7209 128.678 95.4458C128.095 95.1965 127.456 95.1049 126.826 95.1804C126.428 95.2266 126.347 94.9208 126.682 94.5285C126.776 94.4157 126.889 94.32 127.016 94.2458C127.174 94.1443 127.348 94.0702 127.53 94.0266C127.992 93.9017 128.482 93.9238 128.932 94.09C129.755 94.4074 130.492 94.9132 131.084 95.5669C131.632 96.1635 132.112 96.8195 132.514 97.5227C133.281 98.8792 133.895 100.317 134.343 101.809C134.92 103.54 135.497 105.357 135.97 107.163C136.484 109.142 136.922 111.138 137.338 113.14L138.088 116.827C138.468 118.684 138.82 120.553 139.241 122.382C139.582 123.777 139.998 125.152 140.487 126.502C140.597 126.796 140.713 127.078 140.834 127.355C141.278 128.411 141.411 128.619 141.313 129.011C141.313 129.092 141.313 129.202 141.313 129.288C141.313 129.375 141.139 129.478 140.874 129.352C140.539 129.148 140.266 128.856 140.084 128.509C139.445 127.296 138.95 126.012 138.607 124.684C138.238 123.369 137.926 122.03 137.632 120.686L136.386 114.703L136.443 114.669Z" fill="#3B2C7D"/>
<path d="M161.173 108.813L155.98 114.865C155.351 115.604 154.746 116.359 154.105 117.092C151.85 119.665 149.536 122.204 147.101 124.627C146.023 125.7 144.926 126.779 143.784 127.788C143.046 128.449 142.264 129.058 141.442 129.611C141.011 129.895 140.553 130.135 140.075 130.327C139.559 130.543 138.998 130.629 138.442 130.575C138.061 130.523 137.94 130.344 137.992 130.246C138.044 130.148 138.251 130.044 138.488 129.906C138.961 129.646 139.561 129.173 140.444 128.636C142.039 127.589 143.529 126.389 144.892 125.054C146.311 123.721 147.701 122.325 149.086 120.911C150.748 119.221 152.317 117.311 153.898 115.465L159.09 109.35C160.163 108.092 161.23 106.834 162.373 105.623C162.811 105.167 163.261 104.717 163.751 104.296C164.259 103.857 164.839 103.51 165.465 103.269C166.1 103.032 166.78 102.94 167.455 102.998C168.114 103.051 168.759 103.213 169.365 103.477C170.304 103.816 171.192 104.279 172.007 104.856C172.25 105.034 172.46 105.253 172.63 105.502C172.733 105.647 172.8 105.815 172.827 105.991C172.854 106.167 172.84 106.347 172.786 106.517C172.719 106.688 172.614 106.842 172.48 106.967C172.361 107.08 172.234 107.185 172.1 107.279C171.867 107.449 171.608 107.577 171.332 107.659C170.859 107.82 170.356 107.868 169.861 107.798C169.213 107.725 168.605 107.444 168.13 106.996C168.017 106.894 167.927 106.768 167.866 106.628C167.805 106.487 167.775 106.335 167.778 106.183C167.783 106.076 167.802 105.972 167.836 105.871C168.003 105.606 168.413 106.079 169.267 106.419C169.574 106.55 169.906 106.614 170.24 106.608C170.574 106.602 170.903 106.526 171.205 106.384C171.274 106.35 171.34 106.309 171.401 106.263L171.494 106.2L171.54 106.148C171.54 106.148 171.54 106.113 171.54 106.096C171.533 106.076 171.519 106.059 171.5 106.05C171.39 105.936 171.27 105.831 171.142 105.738C170.469 105.279 169.742 104.903 168.978 104.619C168.604 104.469 168.218 104.347 167.825 104.256C167.751 104.237 167.675 104.223 167.6 104.215H167.3C167.103 104.215 166.913 104.215 166.723 104.215C166.194 104.265 165.686 104.448 165.246 104.746C164.742 105.097 164.272 105.495 163.844 105.934C162.926 106.84 162.055 107.85 161.184 108.865L161.173 108.813Z" fill="#3B2C7D"/>
<path d="M154.393 130.344C152.367 133.051 150.193 135.643 147.88 138.109C147.031 139.023 146.127 139.884 145.174 140.688C144.311 141.411 143.37 142.036 142.37 142.552C142.114 142.686 141.848 142.8 141.574 142.892L141.159 143.042C141.014 143.082 140.864 143.111 140.72 143.146C140.135 143.272 139.532 143.301 138.937 143.232C137.778 143.088 136.673 142.66 135.718 141.986C134.793 141.336 133.981 140.539 133.312 139.627C132.163 138.052 131.196 136.353 130.428 134.561C129.42 132.316 128.572 130.002 127.889 127.638C127.67 126.917 127.999 126.9 128.512 127.402C129.25 128.229 129.81 129.199 130.157 130.252C130.936 132.562 131.9 134.806 133.041 136.961C133.616 137.998 134.307 138.966 135.101 139.846C135.861 140.711 136.816 141.384 137.887 141.807C138.528 142.041 139.209 142.144 139.889 142.107C140.577 142.056 141.245 141.859 141.851 141.53C143.155 140.811 144.357 139.918 145.422 138.877C147.834 136.553 150.062 134.045 152.085 131.377C153.366 129.744 154.607 128.082 155.835 126.409L158.645 122.602L160.07 120.715L160.797 119.78L161.172 119.319L161.489 118.938L161.599 118.811L161.755 118.632C161.755 118.598 161.824 118.575 161.812 118.534C161.789 118.501 161.754 118.476 161.714 118.465C161.566 118.406 161.414 118.358 161.259 118.321L159.666 117.9C158.533 117.604 157.421 117.234 156.337 116.792C155.831 116.58 155.337 116.337 154.86 116.065C154.189 115.708 153.599 115.215 153.13 114.617C152.896 114.337 152.778 113.977 152.801 113.613C152.803 113.493 152.827 113.374 152.87 113.261C153.049 112.984 153.447 113.636 154.491 114.415C155.76 115.258 157.151 115.898 158.616 116.313C159.372 116.55 160.145 116.763 160.924 116.977L161.57 117.155C161.951 117.253 162.322 117.386 162.678 117.553C162.813 117.616 162.932 117.709 163.026 117.825C163.12 117.941 163.187 118.077 163.22 118.223C163.16 118.495 163.083 118.763 162.989 119.025C162.793 119.244 162.58 119.469 162.412 119.7L162.084 120.098L161.507 120.79L160.41 122.221C158.409 124.909 156.43 127.678 154.387 130.384L154.393 130.344Z" fill="#3B2C7D"/>
<path d="M167.152 110.602C166.803 110.543 166.465 110.428 166.154 110.261C165.99 110.174 165.834 110.073 165.686 109.961C165.498 109.822 165.334 109.652 165.202 109.459C165.104 109.324 165.038 109.17 165.006 109.007C164.974 108.843 164.978 108.675 165.017 108.513C165.105 108.231 165.274 107.981 165.502 107.792C165.675 107.637 165.869 107.507 166.079 107.406C166.425 107.239 166.786 107.104 167.157 107.002L168.098 106.707C168.504 106.525 168.957 106.469 169.396 106.546C169.557 106.592 169.488 106.909 169.396 107.215C169.304 107.521 169.177 107.827 168.992 107.856C168.311 107.982 167.561 108.156 166.857 108.329C166.685 108.375 166.522 108.453 166.379 108.559C166.316 108.614 166.277 108.69 166.269 108.773C166.269 108.871 166.321 108.934 166.419 109.021C166.595 109.149 166.79 109.25 166.996 109.321C167.272 109.413 167.564 109.453 167.855 109.436C168.347 109.404 168.833 109.315 169.304 109.171C169.684 109.061 170.054 108.877 170.457 108.767C170.549 108.734 170.644 108.709 170.74 108.692C171.109 108.64 171.242 108.75 171.288 109.079C171.303 109.153 171.313 109.228 171.317 109.304C171.326 109.414 171.301 109.525 171.244 109.62C171.187 109.715 171.101 109.79 171 109.834C170.368 110.097 169.718 110.315 169.055 110.486C168.428 110.654 167.775 110.704 167.129 110.636L167.152 110.602Z" fill="#3B2C7D"/>
<path d="M168.208 112.961C167.923 112.969 167.638 112.959 167.354 112.933C167.216 112.933 167.071 112.904 166.893 112.869L166.645 112.823L166.327 112.736C166.039 112.673 165.768 112.545 165.537 112.361C165.357 112.211 165.24 111.998 165.208 111.766C165.176 111.534 165.232 111.298 165.364 111.104C165.494 110.896 165.663 110.714 165.86 110.567C165.957 110.487 166.059 110.414 166.166 110.348L166.321 110.256L166.443 110.192L167.262 109.76C167.603 109.533 168.006 109.418 168.416 109.431C168.56 109.431 168.554 109.777 168.508 110.094C168.462 110.411 168.398 110.729 168.237 110.781C167.948 110.879 167.66 110.994 167.348 111.115L167.123 111.208C167.066 111.208 166.945 111.294 166.95 111.271C166.893 111.26 166.834 111.26 166.777 111.271C166.679 111.271 166.598 111.363 166.61 111.438C166.621 111.513 166.708 111.548 166.766 111.583C166.865 111.639 166.975 111.674 167.089 111.686C167.31 111.724 167.534 111.745 167.758 111.75C168.051 111.755 168.344 111.738 168.635 111.698C169.087 111.645 169.532 111.542 169.962 111.392C170.287 111.255 170.597 111.083 170.885 110.879C170.946 110.833 171.01 110.791 171.075 110.752C171.323 110.613 171.433 110.648 171.652 110.913L171.796 111.098C171.866 111.19 171.9 111.304 171.89 111.419C171.88 111.535 171.829 111.642 171.745 111.721C171.199 112.193 170.551 112.531 169.852 112.708C169.315 112.853 168.764 112.946 168.208 112.985V112.961Z" fill="#3B2C7D"/>
<path d="M167.561 115.534C166.963 115.525 166.378 115.351 165.871 115.032C165.762 114.963 165.658 114.885 165.56 114.802C165.45 114.715 165.356 114.609 165.283 114.49C165.14 114.293 165.062 114.056 165.062 113.812C165.062 113.569 165.14 113.331 165.283 113.134C165.527 112.798 165.866 112.542 166.258 112.402C166.54 112.286 166.835 112.182 167.094 112.096C167.279 112.012 167.479 111.965 167.681 111.958C167.884 111.951 168.087 111.984 168.277 112.055C168.404 112.113 168.277 112.419 168.156 112.713C168.035 113.007 167.919 113.29 167.792 113.29C167.539 113.317 167.289 113.361 167.042 113.423C166.838 113.485 166.63 113.535 166.419 113.573C166.402 113.573 166.385 113.578 166.369 113.585C166.353 113.592 166.339 113.603 166.327 113.616C166.315 113.628 166.306 113.644 166.3 113.66C166.294 113.676 166.291 113.694 166.292 113.711C166.306 113.782 166.342 113.847 166.396 113.896C166.641 114.121 166.953 114.259 167.285 114.288C167.541 114.317 167.801 114.317 168.058 114.288C168.468 114.261 168.873 114.182 169.263 114.052C169.561 113.926 169.844 113.767 170.106 113.578C170.163 113.544 170.215 113.498 170.279 113.463C170.504 113.342 170.602 113.377 170.804 113.648C170.85 113.705 170.896 113.763 170.942 113.832C171.011 113.921 171.045 114.032 171.039 114.145C171.033 114.257 170.986 114.363 170.908 114.444C170.408 114.891 169.802 115.203 169.148 115.35C168.637 115.478 168.112 115.544 167.585 115.546L167.561 115.534Z" fill="#3B2C7D"/>
<path d="M88.7274 131.844C88.6409 131.671 88.5428 131.515 88.4447 131.354C88.3467 131.192 88.3524 131.192 88.3005 131.117L88.0871 130.806C88.0582 130.731 87.9947 130.673 87.9947 130.586C87.9947 130.5 87.914 130.448 87.914 130.367C87.888 130.211 87.888 130.051 87.914 129.894C87.9221 129.818 87.9375 129.742 87.9601 129.669C87.9601 129.617 87.989 129.554 88.0063 129.508L88.1101 129.225C88.2544 128.861 88.4101 128.538 88.5774 128.209C88.7447 127.881 88.9236 127.465 89.1255 127.108C89.8351 125.861 90.6082 124.667 91.3697 123.467C91.7044 122.936 92.0159 122.388 92.3217 121.84C92.6683 121.118 93.0857 120.432 93.5678 119.792C93.8851 119.406 94.6005 120.554 94.1447 121.356C93.3197 122.769 92.4428 124.131 91.4909 125.469C90.9407 126.306 90.4436 127.177 90.0024 128.077C89.7832 128.486 89.5697 128.902 89.3851 129.317C89.2961 129.504 89.219 129.697 89.1544 129.894C89.1082 130.033 89.0794 130.113 89.1544 130.206L89.3909 130.563C89.7774 131.14 90.0948 131.781 90.4121 132.386C90.8557 133.303 91.3627 134.188 91.9294 135.034C92.3819 135.643 92.918 136.185 93.5217 136.644C93.6486 136.748 93.7871 136.834 93.9197 136.927C94.3986 137.302 94.5313 137.434 94.4621 137.804C94.4621 137.884 94.4621 137.971 94.4159 138.046C94.3351 138.294 94.0005 138.323 93.5332 138.098C92.1791 137.297 91.0667 136.145 90.314 134.763C89.7371 133.783 89.2467 132.761 88.7101 131.85L88.7274 131.844Z" fill="#3B2C7D"/>
<path d="M134.066 200.434C124.138 214.281 87.578 202.436 86.5453 201.104C85.7203 199.615 92.1241 164.648 95.6895 140.988C104.291 146.579 119.839 144.45 127.23 141.259C129.549 163.096 134.424 193.875 134.066 200.434Z" fill="#3B2C7D"/>
<path d="M108.168 145.16C105.52 145.053 102.895 144.622 100.351 143.879C99.0662 143.491 97.8221 142.981 96.6352 142.356L96.3756 142.206L96.3064 142.165L96.2429 142.125C96.2429 142.125 96.2429 142.171 96.2429 142.194L96.041 143.469C95.2333 148.581 94.3852 153.687 93.5314 158.787C92.916 162.513 92.3006 166.237 91.6852 169.956C90.5775 176.538 89.4237 183.069 88.3737 189.629C87.8717 192.906 87.3237 196.2 87.0121 199.471C87.0121 199.673 86.9775 199.875 86.9717 200.077C86.966 200.279 86.9717 200.492 86.9717 200.654C86.9717 200.815 86.9718 200.844 87.0641 200.89C87.1088 200.92 87.155 200.947 87.2025 200.971C87.2833 201.012 87.3583 201.058 87.4564 201.098C88.1775 201.433 88.9564 201.715 89.7294 201.992C91.2814 202.569 92.8679 203.025 94.4602 203.463C100.112 205.056 105.911 206.072 111.768 206.498C115.488 206.786 119.228 206.621 122.908 206.008C124.725 205.695 126.497 205.164 128.187 204.427C129.87 203.718 131.403 202.696 132.704 201.415C134.164 199.725 134.279 200.077 133.218 201.842C132.848 202.335 132.447 202.803 132.018 203.244L131.164 204C130.835 204.267 130.49 204.513 130.131 204.738C128.411 205.826 126.516 206.606 124.529 207.046C122.608 207.469 120.655 207.739 118.691 207.854C116.74 207.955 114.786 207.955 112.835 207.854C108.958 207.625 105.102 207.12 101.297 206.342C97.4724 205.589 93.6995 204.595 90.0006 203.365C89.0775 203.048 88.1602 202.713 87.2371 202.31C86.9948 202.2 86.7987 202.119 86.4987 201.952C86.313 201.841 86.1407 201.71 85.9852 201.56C85.8814 201.502 85.8929 201.375 85.8525 201.277L85.7717 200.965C85.7636 200.862 85.7636 200.758 85.7717 200.654V200.44V200.054C85.7717 199.794 85.8064 199.552 85.8294 199.304C86.0141 197.342 86.3083 195.433 86.5968 193.535C88.0448 184.367 89.6198 174.86 91.1775 165.508L93.7448 150.092L94.9737 142.379L95.1929 140.983C95.221 140.736 95.2634 140.492 95.3198 140.25L95.9891 140.631L97.1891 141.312L97.6044 141.548L98.0371 141.738C99.1985 142.267 100.403 142.695 101.637 143.019C104.717 143.768 107.884 144.102 111.053 144.012C114.232 143.95 117.399 143.583 120.508 142.915L122.268 142.506L123.999 142.021C124.576 141.831 125.153 141.646 125.729 141.444L126.808 141.023L127.431 140.781C127.478 140.781 127.541 140.723 127.576 140.74V140.902L127.61 141.237L128.043 145.206L128.453 148.829C129.026 153.652 129.628 158.46 130.258 163.252C131.268 170.677 132.26 177.958 133.258 185.296C133.466 186.917 133.685 188.504 133.87 190.142C134.568 196.206 134.545 198.219 134.233 199.517C134.175 199.808 134.1 200.095 134.008 200.377C133.881 200.66 133.766 200.181 133.674 199.102C133.581 198.023 133.362 196.287 133.097 194.083C132.341 187.523 131.366 180.813 130.46 173.954C129.554 167.094 128.597 160.183 127.737 153.219C127.426 150.631 127.116 148.04 126.808 145.448L126.485 142.471L126.295 142.546C126.139 142.604 125.983 142.667 125.822 142.719C125.187 142.915 124.558 143.158 123.918 143.296C121.362 144.029 118.752 144.558 116.112 144.877C113.476 145.208 110.816 145.314 108.162 145.194L108.168 145.16Z" fill="#3B2C7D"/>
<path d="M127.109 132.808L127.219 135.565C127.219 135.9 127.282 136.235 127.294 136.569C127.346 137.752 127.381 138.94 127.444 140.123C127.479 140.648 127.536 141.173 127.606 141.687C127.738 142.345 127.802 143.016 127.796 143.688C127.796 144.115 126.677 143.688 126.59 142.927C126.422 141.559 126.347 140.18 126.365 138.802C126.365 137.971 126.261 137.117 126.209 136.275L126.077 133.488L126.002 131.758C125.961 130.892 125.938 130.027 125.875 129.167C125.823 128.498 125.713 127.846 125.638 127.183C125.638 127.038 125.598 126.9 125.586 126.75C125.552 126.202 125.621 126.029 125.904 125.902C125.966 125.869 126.032 125.842 126.1 125.821C126.319 125.763 126.509 125.983 126.584 126.398C126.797 127.602 126.932 128.818 126.988 130.038C127.04 130.962 127.086 131.89 127.138 132.813L127.109 132.808Z" fill="#3B2C7D"/>
<path d="M96.4918 133.056C96.6879 131.954 96.861 130.857 97.011 129.75L97.1437 128.538C97.3283 127.119 97.5014 125.7 97.6052 124.269C97.6398 123.639 97.6398 123.007 97.6052 122.377C97.5648 121.586 97.4841 120.744 97.4321 120.069C97.4321 119.873 97.6687 119.746 98.0091 119.89C98.1965 119.981 98.356 120.12 98.4706 120.294C98.6125 120.488 98.6965 120.718 98.7129 120.957C98.8248 122.658 98.7416 124.365 98.4648 126.046C98.3091 127.05 98.2687 128.094 98.1475 129.121C98.0091 130.275 97.8418 131.365 97.6687 132.484L97.3225 134.544C97.1552 135.588 96.9418 136.627 96.7802 137.659C96.6418 138.461 96.5783 139.257 96.4629 140.059C96.4629 140.232 96.4225 140.406 96.3937 140.584C96.2783 141.236 96.1629 141.427 95.8571 141.507C95.7874 141.53 95.7161 141.548 95.6437 141.559C95.4129 141.559 95.2918 141.271 95.3206 140.786C95.4187 139.35 95.6783 137.902 95.8975 136.384C96.0821 135.282 96.2783 134.175 96.4744 133.061L96.4918 133.056Z" fill="#3B2C7D"/>
<path d="M121.731 142.563C122.083 142.488 122.435 142.402 122.787 142.31C123.139 142.217 123.485 142.142 123.837 142.044C124.091 141.969 124.339 141.877 124.593 141.802C125.498 141.565 126.404 141.306 127.298 141C127.696 140.862 128.083 140.694 128.452 140.533C128.937 140.313 129.439 140.112 129.946 139.915C130.108 139.858 130.073 139.846 129.946 139.915C129.82 139.985 129.67 140.233 129.433 140.452C128.607 141.223 127.637 141.823 126.577 142.217C125.943 142.442 125.32 142.76 124.668 142.985C123.946 143.217 123.212 143.409 122.47 143.562C122.008 143.642 121.552 143.74 121.091 143.804L120.041 143.942L118.996 144.04C118.464 144.099 117.928 144.126 117.393 144.121H117.041C116.602 144.075 116.464 144.023 116.366 144.017H116.308C116.262 144.017 116.441 144.017 116.758 143.913C117.225 143.798 117.698 143.665 118.171 143.51L119.591 143.094L121.691 142.517L121.731 142.563Z" fill="#3B2C7D"/>
<path d="M109.905 268.898C110.955 268.898 112.501 268.857 112.905 269.896C113.205 270.657 113.303 273.282 113.003 274.038C112.812 274.511 112.034 274.967 111.584 274.494C111.261 274.159 111.457 273.115 111.278 272.682C110.701 271.28 108.797 272.602 107.816 273.202C103.812 275.607 97.5586 275.169 97.5586 273.698C97.5413 271.932 105.97 269.63 109.905 268.898Z" fill="#3B2C7D"/>
<path d="M99.1727 273.94C100.09 274.147 101.032 274.224 101.971 274.171C102.935 274.132 103.892 273.991 104.827 273.75C105.501 273.567 106.158 273.324 106.788 273.023C107.463 272.723 108.121 272.261 108.923 271.869C109.357 271.655 109.83 271.53 110.313 271.5C110.461 271.498 110.608 271.514 110.752 271.546C110.911 271.586 111.061 271.654 111.196 271.748C111.329 271.839 111.446 271.953 111.542 272.082C111.621 272.205 111.692 272.332 111.755 272.463C111.844 272.758 111.881 273.067 111.865 273.375C111.849 273.592 111.849 273.81 111.865 274.027C111.865 274.067 111.865 274.107 111.865 274.13L111.813 274.171L111.882 274.107H111.917C112.037 274.126 112.159 274.097 112.257 274.027C112.369 273.964 112.459 273.87 112.517 273.755C112.579 273.569 112.616 273.375 112.627 273.178C112.652 272.958 112.665 272.737 112.667 272.515C112.672 272.064 112.651 271.613 112.603 271.165C112.574 270.825 112.518 270.487 112.436 270.155C112.412 270.032 112.361 269.916 112.286 269.815C112.218 269.723 112.132 269.646 112.032 269.59C111.432 269.351 110.792 269.225 110.146 269.221C109.69 269.175 109.753 268.857 110.146 268.552C110.604 268.208 111.174 268.047 111.745 268.1C112.315 268.154 112.845 268.417 113.232 268.84C113.469 269.106 113.636 269.428 113.717 269.775C113.828 270.254 113.896 270.743 113.919 271.234C113.945 271.701 113.945 272.169 113.919 272.636C113.919 272.867 113.919 273.109 113.861 273.357C113.827 273.649 113.759 273.935 113.659 274.211C113.553 274.446 113.399 274.658 113.209 274.832C113.019 275.007 112.795 275.141 112.552 275.227C112.277 275.33 111.979 275.354 111.692 275.296C111.529 275.264 111.373 275.199 111.236 275.105C111.088 275.017 110.962 274.897 110.867 274.753C110.717 274.528 110.629 274.268 110.613 273.998C110.613 273.802 110.613 273.634 110.613 273.473V273.046C110.62 272.965 110.62 272.884 110.613 272.803C110.615 272.782 110.615 272.761 110.613 272.74C110.573 272.63 110.544 272.602 110.48 272.573C110.36 272.537 110.232 272.537 110.111 272.573C109.719 272.667 109.344 272.821 108.998 273.028C108.611 273.242 108.236 273.496 107.798 273.744C107.372 273.983 106.928 274.19 106.471 274.361C104.482 275.102 102.356 275.401 100.24 275.238C99.6691 275.197 99.1042 275.095 98.5554 274.932C98.4124 274.89 98.2718 274.84 98.1343 274.782C97.9751 274.716 97.8225 274.635 97.6785 274.54C97.511 274.439 97.3709 274.298 97.2704 274.13C97.1698 273.962 97.1119 273.772 97.1016 273.577C97.1274 273.322 97.221 273.079 97.3727 272.873C97.4246 272.803 97.4939 272.734 97.5516 272.671C97.6093 272.607 97.6554 272.573 97.7016 272.527C97.802 272.439 97.908 272.358 98.0189 272.284C98.2248 272.138 98.4386 272.003 98.6593 271.88C99.0977 271.644 99.5419 271.448 99.9862 271.257C100.88 270.882 101.78 270.571 102.68 270.265C104.082 269.798 105.45 269.325 106.852 268.927C107.163 268.834 107.463 268.742 107.775 268.661C108.928 268.373 109.344 268.384 109.655 268.661C109.731 268.717 109.803 268.779 109.869 268.846C110.025 269.077 109.592 269.365 108.761 269.625C106.315 270.392 103.702 271.125 101.209 272.077C100.587 272.311 99.978 272.58 99.3862 272.884C99.128 273.058 98.8831 273.251 98.6535 273.461C98.5554 273.542 98.4343 273.663 98.4804 273.611C98.4774 273.616 98.4758 273.622 98.4758 273.628C98.4758 273.635 98.4774 273.641 98.4804 273.646C98.7018 273.757 98.9363 273.841 99.1785 273.894L99.1727 273.94Z" fill="#3B2C7D"/>
<path d="M115.814 268.898C114.758 268.898 113.218 268.857 112.808 269.896C112.514 270.657 112.41 273.282 112.716 274.038C112.901 274.511 113.679 274.967 114.135 274.494C114.453 274.159 114.256 273.115 114.435 272.682C115.012 271.28 116.916 272.602 117.897 273.202C121.901 275.607 128.154 275.169 128.16 273.698C128.178 271.932 119.743 269.63 115.814 268.898Z" fill="#3B2C7D"/>
<path d="M126.891 275.44C125.824 275.64 124.734 275.687 123.654 275.579C122.599 275.494 121.555 275.3 120.539 275.002C119.789 274.798 119.06 274.522 118.364 274.177C117.579 273.779 116.933 273.271 116.281 272.936C116.001 272.772 115.691 272.665 115.37 272.619C115.314 272.613 115.258 272.613 115.202 272.619C115.174 272.619 115.127 272.619 115.099 272.659C115.07 272.7 114.977 272.781 114.914 272.879C114.865 273.057 114.842 273.242 114.845 273.427C114.836 273.7 114.807 273.972 114.758 274.24C114.727 274.452 114.639 274.651 114.504 274.817C114.358 274.979 114.168 275.093 113.956 275.146C113.774 275.187 113.585 275.188 113.402 275.15C113.219 275.112 113.046 275.036 112.895 274.927C112.73 274.816 112.585 274.678 112.468 274.517C112.347 274.344 112.265 274.147 112.226 273.94C112.161 273.633 112.122 273.32 112.11 273.006C112.073 272.41 112.073 271.813 112.11 271.217C112.127 270.83 112.174 270.444 112.249 270.063C112.292 269.823 112.382 269.594 112.514 269.388C112.664 269.172 112.861 268.992 113.091 268.863C113.473 268.64 113.901 268.508 114.343 268.477C114.726 268.437 115.113 268.437 115.497 268.477C115.958 268.511 115.895 268.834 115.497 269.14C115.002 269.476 114.467 269.749 113.904 269.954C113.837 269.974 113.774 270.009 113.722 270.055C113.669 270.102 113.627 270.16 113.599 270.225C113.517 270.509 113.463 270.801 113.437 271.096C113.364 271.78 113.343 272.468 113.374 273.156C113.375 273.369 113.406 273.58 113.466 273.784C113.502 273.84 113.552 273.885 113.61 273.917C113.61 273.917 113.656 273.917 113.662 273.952C113.668 273.986 113.662 274.061 113.662 274.079C113.662 274.079 113.662 274.079 113.627 274.033L113.593 273.992C113.708 274.096 113.339 273.744 113.847 274.234L113.806 274.206C113.729 274.157 113.648 274.114 113.564 274.079C113.604 273.977 113.627 273.87 113.633 273.761L113.679 273.219C113.692 272.958 113.747 272.701 113.841 272.458L113.951 272.261C114.047 272.103 114.166 271.96 114.302 271.834C114.454 271.711 114.628 271.619 114.816 271.563C115.14 271.471 115.484 271.471 115.808 271.563C116.314 271.695 116.798 271.899 117.245 272.169C117.672 272.406 118.07 272.677 118.445 272.884C118.831 273.098 119.227 273.29 119.633 273.461C121.464 274.199 123.43 274.539 125.402 274.459C125.99 274.44 126.571 274.343 127.133 274.171C127.251 274.135 127.366 274.087 127.474 274.027C127.546 273.994 127.609 273.945 127.658 273.883C127.707 273.818 127.731 273.739 127.726 273.658C127.721 273.577 127.686 273.501 127.629 273.444L127.572 273.381C127.54 273.345 127.505 273.312 127.468 273.283C127.394 273.208 127.313 273.14 127.226 273.081C127.041 272.948 126.848 272.826 126.649 272.717C126.249 272.487 125.837 272.279 125.414 272.094C124.557 271.721 123.681 271.394 122.789 271.113C121.399 270.681 119.997 270.381 118.595 270.086L117.666 269.908C116.512 269.665 116.16 269.521 115.97 269.146C115.92 269.068 115.88 268.985 115.849 268.898C115.779 268.627 116.304 268.506 117.181 268.615C119.881 268.971 122.532 269.629 125.085 270.577C126.119 270.948 127.101 271.452 128.004 272.077C128.133 272.176 128.256 272.282 128.374 272.394C128.42 272.44 128.524 272.556 128.61 272.659C128.68 272.761 128.744 272.867 128.801 272.977C128.917 273.185 128.978 273.419 128.978 273.658C128.978 273.896 128.917 274.13 128.801 274.338C128.682 274.549 128.516 274.728 128.316 274.863C128.221 274.943 128.116 275.011 128.004 275.065C127.93 275.106 127.853 275.143 127.774 275.175C127.493 275.294 127.201 275.385 126.902 275.446L126.891 275.44Z" fill="#3B2C7D"/>
<path d="M179.481 67.1941L169.529 104.342C169.397 104.769 171.526 105.334 171.629 104.919L181.581 67.771C181.674 67.4191 179.568 66.8595 179.481 67.1941Z" fill="#3B2C7D"/>
<path d="M166.421 114.946L157.45 149.1C157.329 149.486 159.464 150.04 159.55 149.642L168.516 115.506C168.602 115.194 166.496 114.634 166.421 114.946Z" fill="#3B2C7D"/>
<path d="M163.094 39.2306L161.496 44.671L160.965 46.673C160.284 48.9806 159.58 51.3287 158.917 53.6653C158.622 54.7037 158.369 55.7537 158.126 56.7922C157.82 58.1307 157.549 59.4922 157.163 60.7845C157.036 61.1941 156.73 61.0787 156.505 60.6633C156.215 60.064 156.146 59.3818 156.309 58.7364C156.949 55.9845 157.717 53.2845 158.617 50.5903C159.147 48.9749 159.551 47.2614 160.024 45.5941L161.611 40.1018L162.586 36.7268C163.065 34.996 163.572 33.3056 164.011 31.6037C164.357 30.2768 164.628 28.9614 164.922 27.6403C164.986 27.346 165.038 27.0633 165.113 26.7691C165.378 25.6845 165.546 25.3672 165.926 25.2172C166.009 25.1772 166.096 25.1462 166.186 25.1249C166.457 25.0845 166.544 25.5749 166.405 26.3826C166.001 28.7826 165.361 31.2576 164.674 33.7326C164.159 35.5633 163.646 37.3999 163.134 39.2422L163.094 39.2306Z" fill="#3B2C7D"/>
<path d="M195.003 31.3325C192.753 30.6575 190.497 29.9882 188.23 29.3767C187.405 29.1459 186.569 28.9786 185.738 28.7594C182.819 28.0094 179.882 27.294 176.917 26.7517C175.601 26.5094 174.263 26.3132 172.947 26.1748L170.397 25.9094C169.549 25.8344 168.701 25.7421 167.859 25.5921C166.803 25.4017 168.251 24.3517 170.236 24.5363C173.749 24.8975 177.233 25.5048 180.661 26.3536C181.694 26.6075 182.749 26.8382 183.805 27.0863C184.861 27.3344 185.928 27.5709 186.978 27.8363C189.286 28.4132 191.594 29.0767 193.855 29.7459L198.061 30.9921C200.178 31.6267 202.301 32.2844 204.407 32.8729C206.051 33.3286 207.684 33.7036 209.322 34.1017L210.401 34.3556C211.74 34.6959 212.132 34.8921 212.351 35.2902C212.404 35.3744 212.448 35.4632 212.484 35.5556C212.547 35.8382 211.942 35.8902 210.944 35.6998C207.967 35.1229 204.892 34.2806 201.828 33.3921L195.003 31.3613V31.3325Z" fill="#3B2C7D"/>
<path d="M189.366 66.975C191.322 67.5519 193.272 68.0538 195.228 68.5096C196.203 68.7403 197.184 68.948 198.164 69.0865C199.116 69.2629 200.081 69.3479 201.049 69.3403H201.551C201.695 69.3403 201.88 69.2653 201.978 69.248C202.002 69.25 202.026 69.2444 202.047 69.232C202.067 69.2196 202.084 69.201 202.093 69.1788L202.168 69.0403L202.278 68.8096C202.56 68.1692 202.814 67.4711 203.074 66.7903C204.868 61.9269 206.466 56.948 208.035 51.9807C208.728 49.7711 209.38 47.5384 210.009 45.3288C210.816 42.4903 211.555 39.623 212.472 36.825C213.049 35.0942 213.574 37.6384 212.645 40.9211C210.995 46.725 209.224 52.4596 207.251 58.2288C206.674 59.9596 206.097 61.6903 205.491 63.4846C204.885 65.2788 204.337 67.0384 203.593 68.798C203.489 69.0403 203.385 69.2769 203.259 69.525L203.155 69.7269C203.103 69.8134 203.051 69.9057 202.987 69.9923C202.87 70.1607 202.696 70.2814 202.497 70.3326L202.007 70.448C201.867 70.4828 201.724 70.5041 201.58 70.5115L200.76 70.5576C199.707 70.527 198.658 70.4132 197.622 70.2173C195.58 69.8596 193.584 69.3519 191.605 68.8326C189.17 68.1865 186.747 67.4942 184.324 66.825C180.655 65.8153 176.968 64.8115 173.276 64.0096C170.391 63.3807 167.57 62.8903 164.709 62.4288L162.828 62.1346C160.474 61.7596 159.741 61.5576 159.28 61.1884C159.169 61.1102 159.063 61.0255 158.962 60.9346C158.83 60.7961 159.066 60.6923 159.539 60.6576C160.212 60.6275 160.886 60.6584 161.553 60.75C166.923 61.4342 172.247 62.436 177.499 63.75C181.491 64.7192 185.437 65.8615 189.384 66.9346L189.366 66.975Z" fill="#3B2C7D"/>
<path d="M175.046 65.3131L181.843 67.0092L184.323 67.5861L193.058 69.8073C194.35 70.1304 195.654 70.4304 196.941 70.7188C198.596 71.0881 200.275 71.4169 201.902 71.9015C202.918 72.2015 201.406 72.7669 199.502 72.3227C196.121 71.5438 192.758 70.7131 189.389 69.7842C187.369 69.2073 185.241 68.7688 183.164 68.2611L176.316 66.5707C174.908 66.2188 173.512 65.8669 172.104 65.5554C169.969 65.0765 167.812 64.6438 165.671 64.3207C163.998 64.0611 162.354 63.8996 160.693 63.7438L159.602 63.6573C158.241 63.5361 157.814 63.4496 157.537 63.1842C157.467 63.132 157.403 63.072 157.346 63.0054C157.214 62.8092 157.814 62.6707 158.823 62.7111C161.938 62.8613 165.04 63.2217 168.106 63.79C170.414 64.2054 172.756 64.7188 175.029 65.2842L175.046 65.3131Z" fill="#3B2C7D"/>
<path d="M157.829 46.5054L159.341 41.8496L159.854 40.1189C160.489 38.1227 161.129 36.1208 161.718 34.1189C161.973 33.2305 162.181 32.3293 162.341 31.4189C162.543 30.265 162.67 29.1112 162.848 27.9573C162.857 27.8913 162.881 27.8282 162.918 27.7727C162.918 27.7727 162.952 27.7727 162.97 27.7727L163.16 27.7266H163.114H163.073H163.108C163.138 27.729 163.166 27.7412 163.189 27.7612C163.252 27.818 163.307 27.8841 163.35 27.9573C163.626 28.4563 163.727 29.0328 163.639 29.5958C163.47 30.8182 163.232 32.0298 162.923 33.2246C162.612 34.4189 162.225 35.5785 161.833 36.7381C161.36 38.1227 160.973 39.6227 160.523 41.0246L159.029 45.7323L158.095 48.6169C157.627 50.0766 157.143 51.5362 156.698 52.99C156.352 54.1439 156.07 55.2458 155.752 56.3766L155.55 57.115C155.273 58.0381 155.118 58.315 154.823 58.4362C154.758 58.4669 154.691 58.492 154.622 58.5112C154.408 58.5112 154.379 58.1189 154.541 57.4323C155.014 55.3958 155.654 53.2843 156.312 51.1727C156.808 49.6093 157.31 48.04 157.806 46.4708L157.829 46.5054Z" fill="#3B2C7D"/>
<path d="M107.367 59.4227C107.604 61.4534 108.665 65.3938 111.406 64.6727C113.84 64.038 113.136 60.6342 112.981 58.7534C112.981 58.5919 111.792 58.7534 111.827 59.0707C111.896 59.988 112.542 64.0092 111.25 64.263C110.361 64.4303 109.594 62.6996 109.329 62.0707C108.924 61.1312 108.655 60.1384 108.533 59.1227C108.533 58.9438 107.333 59.163 107.379 59.4342L107.367 59.4227Z" fill="#3B2C7D"/>
<path d="M119.642 58.321C119.642 59.0883 119.931 63.4325 118.898 63.2363C118.142 63.0921 117.709 61.5575 117.525 60.9287C117.278 60.0771 117.114 59.2039 117.034 58.321C117.006 58.0498 115.829 58.2748 115.881 58.6325C116.054 60.3633 116.584 64.3037 119.129 63.8248C121.436 63.369 120.859 59.694 120.831 57.9921C120.831 57.744 119.677 57.9287 119.677 58.3037L119.642 58.321Z" fill="#3B2C7D"/>
<path d="M114.811 60.5767C114.547 59.3233 114.487 58.0358 114.632 56.7632C114.666 56.3007 114.726 55.8404 114.811 55.3844C115.021 54.5573 115.403 53.7837 115.932 53.1138C116.46 52.4439 117.124 51.8927 117.88 51.4959C118.542 51.1368 119.27 50.9132 120.02 50.8382C120.997 50.7017 121.988 50.9568 122.778 51.5479C123.02 51.7325 122.778 51.9632 122.437 52.1248C122.256 52.2107 122.061 52.2653 121.861 52.2863C121.672 52.3381 121.472 52.3381 121.284 52.2863C120.552 52.1259 119.791 52.1534 119.073 52.3663C118.355 52.5791 117.702 52.9704 117.176 53.5036C116.826 53.8327 116.54 54.2239 116.334 54.6575C116.138 55.1087 116.014 55.5874 115.964 56.0767C115.76 57.2197 115.735 58.3875 115.889 59.5382C115.989 60.2474 116.165 60.9437 116.414 61.6152C116.799 62.6382 117.342 63.5942 118.024 64.4479C118.57 65.0869 119.181 65.667 119.847 66.1786C119.991 66.2882 120.147 66.3921 120.286 66.5075C120.822 66.9344 120.955 67.1248 120.862 67.4825C120.849 67.5646 120.83 67.6456 120.805 67.7248C120.707 67.9671 120.355 67.9555 119.887 67.6786C118.451 66.7914 117.234 65.5902 116.328 64.1652C115.622 63.0637 115.109 61.8502 114.811 60.5767Z" fill="#3B2C7D"/>
<path d="M113.033 53.1401C112.37 53.4863 112.151 53.4978 112.024 53.3997C111.598 53.1467 111.14 52.9526 110.662 52.8228C110.267 52.7013 109.85 52.664 109.439 52.7132C109.06 52.7739 108.693 52.8905 108.349 53.0594C107.983 53.232 107.635 53.4407 107.31 53.6824C107.108 53.8187 106.915 53.9691 106.733 54.1324C106.566 54.294 106.433 54.4901 106.272 54.6574C106.272 54.692 106.231 54.7267 106.162 54.7151C106.052 54.6858 105.948 54.6344 105.858 54.564C105.768 54.4936 105.692 54.4057 105.637 54.3055C105.637 54.2536 105.556 54.1786 105.568 54.1613C105.683 54.0055 105.453 53.5844 105.626 53.4113C105.937 53.1517 106.162 52.794 106.474 52.5055C106.598 52.3916 106.738 52.2963 106.889 52.2228C107.088 52.134 107.292 52.0569 107.501 51.992C107.839 51.8329 108.188 51.698 108.545 51.5882C109.173 51.3814 109.839 51.3183 110.495 51.4036C111.132 51.4963 111.738 51.7418 112.26 52.119C112.456 52.2863 112.618 52.4247 112.728 52.5344L112.895 52.7305C112.958 52.8605 113.005 52.9982 113.033 53.1401Z" fill="#3B2C7D"/>
<path d="M117.254 74.4864C117.205 74.5423 117.168 74.6069 117.144 74.6768H117.081H117.029C117.031 74.6615 117.031 74.646 117.029 74.6307V74.5903V74.7172C117.029 74.7172 117.029 74.7518 117.029 74.7576C117.029 74.7634 117.029 74.7576 116.994 74.7057C116.96 74.6537 116.914 74.6364 116.914 74.6307V74.5672C116.956 74.436 116.956 74.2946 116.914 74.1634C116.885 74.0653 116.758 74.0422 116.654 74.0941C116.608 74.1156 116.572 74.1536 116.552 74.2007C116.533 74.2478 116.532 74.3003 116.55 74.348C116.561 74.3758 116.578 74.4007 116.6 74.4208C116.622 74.4408 116.648 74.4554 116.677 74.4634C116.731 74.4818 116.787 74.4934 116.844 74.498C116.9 74.5456 116.944 74.6063 116.971 74.6747C116.998 74.7431 117.008 74.8171 117 74.8903C116.998 74.9483 116.984 75.0053 116.959 75.0578C116.934 75.1104 116.899 75.1574 116.856 75.196C116.797 75.2425 116.728 75.2737 116.655 75.2868C116.581 75.2999 116.506 75.2945 116.435 75.271C116.227 75.2004 116.049 75.062 115.929 74.878C115.809 74.694 115.754 74.4751 115.773 74.2563C115.793 74.0376 115.885 73.8316 116.035 73.6715C116.185 73.5113 116.385 73.4062 116.602 73.373C116.728 73.3396 116.86 73.338 116.987 73.3682C117.114 73.3984 117.231 73.4595 117.329 73.546C117.437 73.6457 117.521 73.7678 117.577 73.9037C117.621 74.0186 117.651 74.1389 117.664 74.2614C117.702 74.5086 117.66 74.7617 117.542 74.9826C117.497 75.0725 117.429 75.1499 117.347 75.2082C117.265 75.2665 117.169 75.3039 117.069 75.3172C117.014 75.323 116.958 75.323 116.902 75.3172L116.781 75.2826C116.694 75.2554 116.613 75.2102 116.544 75.1499C116.414 75.0217 116.34 74.8477 116.337 74.6653C116.34 74.4305 116.421 74.2036 116.567 74.0198C116.713 73.8361 116.916 73.706 117.144 73.6499C117.226 73.6454 117.308 73.6585 117.385 73.6884C117.462 73.7182 117.531 73.7641 117.589 73.823C117.638 73.8806 117.676 73.9474 117.7 74.0197C117.724 74.092 117.733 74.1683 117.727 74.2441C117.719 74.3663 117.686 74.4856 117.631 74.5947C117.575 74.7039 117.498 74.8005 117.404 74.8787C117.314 74.9542 117.203 75.0005 117.087 75.0114C116.963 75.0276 116.838 75.0033 116.729 74.9422C116.612 74.8634 116.528 74.7443 116.492 74.6076C116.476 74.5025 116.476 74.3954 116.492 74.2903C116.501 74.206 116.518 74.1228 116.544 74.0422C116.654 73.7595 116.815 73.7018 116.994 73.823L117.104 73.9153C117.186 74.0106 117.235 74.1301 117.242 74.2557C117.23 74.3224 117.23 74.3908 117.242 74.4576C117.2 74.4534 117.158 74.4534 117.115 74.4576C117.017 74.4576 117 74.521 117.017 74.4922C117.055 74.407 117.069 74.3134 117.058 74.221C117.058 74.3307 117.058 73.973 117.058 74.4691V74.4345C117.043 74.404 117.026 74.3749 117.006 74.348C116.985 74.319 116.962 74.2919 116.937 74.2672V74.2326C116.994 74.2413 117.052 74.2413 117.11 74.2326C117.135 74.2259 117.158 74.2141 117.179 74.198V74.2441C117.189 74.2971 117.209 74.3479 117.237 74.3941C117.237 74.3941 117.237 74.3941 117.196 74.4518L117.254 74.4864Z" fill="#3B2C7D"/>
<path d="M107.523 81.3457C107.523 81.3457 108.452 86.1861 112.716 86.9303C116.979 87.6745 116.922 84.1899 116.922 84.1899C116.922 84.1899 109.479 83.8669 107.523 81.3457Z" fill="#3B2C7D"/>
<path d="M115.241 107.671C115.62 107.671 115.928 107.364 115.928 106.984C115.928 106.605 115.62 106.298 115.241 106.298C114.862 106.298 114.555 106.605 114.555 106.984C114.555 107.364 114.862 107.671 115.241 107.671Z" fill="#3B2C7D"/>
<path d="M116.809 106.119C117.019 106.465 117.102 106.873 117.046 107.273C116.97 107.667 116.748 108.018 116.423 108.254C116.248 108.396 116.054 108.513 115.846 108.6C115.426 108.771 114.956 108.771 114.536 108.6C114.332 108.502 114.153 108.358 114.015 108.179C113.877 107.999 113.783 107.79 113.74 107.567C113.659 107.226 113.659 106.87 113.74 106.529C113.797 106.297 113.908 106.081 114.063 105.9C114.223 105.713 114.448 105.596 114.692 105.571C114.842 105.571 114.888 105.871 114.929 106.194C114.929 106.35 114.981 106.506 115.004 106.615C115.027 106.725 115.061 106.811 115.05 106.823C114.986 106.909 114.94 107.007 114.917 107.111C114.909 107.179 114.909 107.246 114.917 107.313C114.917 107.383 114.917 107.411 114.917 107.475C114.917 107.538 115.154 107.579 115.494 107.423C115.613 107.374 115.723 107.304 115.817 107.215C115.849 107.176 115.871 107.131 115.882 107.081C115.893 107.032 115.893 106.981 115.881 106.933C115.827 106.741 115.716 106.57 115.563 106.442C115.475 106.36 115.373 106.291 115.263 106.24C115.21 106.209 115.149 106.192 115.087 106.192C115.025 106.192 114.965 106.209 114.911 106.24C114.756 106.379 114.877 106.65 114.952 106.754C114.975 106.787 114.997 106.821 115.015 106.858C115.031 106.892 115.039 106.929 115.039 106.967C115.039 107.005 115.031 107.042 115.015 107.077C114.946 107.173 114.852 107.248 114.744 107.296L114.548 107.406C114.454 107.458 114.345 107.476 114.239 107.456C114.134 107.436 114.039 107.379 113.971 107.296C113.697 106.854 113.604 106.323 113.711 105.813C113.788 105.558 113.941 105.333 114.15 105.167C114.37 105.01 114.63 104.918 114.9 104.902C115.338 104.905 115.765 105.042 116.123 105.294C116.43 105.488 116.69 105.749 116.884 106.056L116.809 106.119Z" fill="#3B2C7D"/>
<path d="M186.492 36.8076C186.977 35.2614 191.944 36.7268 191.592 37.8403C190.681 40.7249 186.688 51.6288 185.569 54.8538C185.396 55.3672 183.031 55.0788 183.14 54.548C184.358 48.8018 186.481 36.923 186.492 36.8076Z" fill="#3B2C7D"/>
<path d="M182.308 54.1785C182.337 54.1785 182.273 54.1785 182.441 54.2535C182.608 54.3285 182.695 54.3631 182.827 54.415C183.107 54.5209 183.392 54.6114 183.681 54.6861C183.962 54.7608 184.247 54.8166 184.535 54.8535H184.743C184.743 54.8535 184.8 54.8535 184.812 54.8535L186.041 51.5419L186.987 48.8823L190.483 39.5477L190.939 38.2727C191.083 37.8688 191.227 37.4592 191.366 37.0554C191.389 36.9894 191.39 36.9173 191.367 36.8512C191.344 36.785 191.298 36.7288 191.239 36.6919C191.063 36.5314 190.87 36.392 190.662 36.2765C189.865 35.8723 189.014 35.5848 188.135 35.4227C187.707 35.3377 187.273 35.2857 186.837 35.2669C186.48 35.2319 186.121 35.2958 185.798 35.4515C185.755 35.4886 185.704 35.5143 185.649 35.5264C185.593 35.5385 185.536 35.5366 185.481 35.5208C185.377 35.5208 185.221 35.3073 185.343 34.9438C185.446 34.7482 185.588 34.576 185.761 34.438C185.934 34.3 186.133 34.1992 186.346 34.1419C186.885 33.9698 187.457 33.9321 188.014 34.0323C188.885 34.178 189.736 34.4299 190.546 34.7823C190.978 34.9666 191.388 35.1967 191.77 35.4688C191.879 35.5464 191.983 35.6312 192.081 35.7227C192.221 35.8522 192.343 35.9996 192.445 36.1611C192.554 36.337 192.627 36.5333 192.658 36.7381C192.678 36.8351 192.678 36.9353 192.658 37.0323C192.651 37.1296 192.636 37.2261 192.612 37.3208L192 38.9765L191.423 40.5342C191.02 41.5688 190.612 42.6054 190.2 43.6438C189.335 45.7958 188.585 48.0919 187.771 50.3131L186.427 53.9881L186.087 54.9054L185.891 55.4535C185.844 55.5664 185.79 55.6762 185.729 55.7823C185.657 55.8826 185.557 55.959 185.441 56.0015C185.207 56.0886 184.957 56.124 184.708 56.1054C184.515 56.0965 184.322 56.0753 184.131 56.0419C183.792 55.9881 183.457 55.9129 183.127 55.8169C182.728 55.7031 182.339 55.5585 181.962 55.3842L181.812 55.315C181.748 55.315 181.679 55.24 181.616 55.2054C181.485 55.1335 181.365 55.0443 181.258 54.94C181.152 54.841 181.077 54.7124 181.045 54.5708C181.032 54.4278 181.041 54.2837 181.073 54.1438L181.593 51.6977C182.089 49.3208 182.608 46.9381 183.064 44.5785C183.421 42.7381 183.698 40.9208 184.01 39.0977C184.073 38.6938 184.143 38.3015 184.206 37.8919C184.489 36.3977 184.668 35.9361 185.054 35.6823C185.135 35.6178 185.222 35.5617 185.314 35.515C185.591 35.4227 185.677 36.0919 185.527 37.1765C185.095 40.465 184.437 43.8919 183.75 47.3304C183.283 49.5977 182.81 51.8765 182.337 54.1496V54.1842L182.308 54.1785Z" fill="#3B2C7D"/>
<path d="M182.357 62.5324C183.329 62.5324 184.117 61.7446 184.117 60.7728C184.117 59.801 183.329 59.0132 182.357 59.0132C181.385 59.0132 180.598 59.801 180.598 60.7728C180.598 61.7446 181.385 62.5324 182.357 62.5324Z" fill="#3B2C7D"/>
<path d="M181 58.9153C180.778 59.0326 180.588 59.2029 180.447 59.4112C180.306 59.6195 180.219 59.8594 180.193 60.1095C180.185 60.3043 180.208 60.4991 180.262 60.6864C180.345 61.0328 180.534 61.345 180.801 61.5804C181.068 61.8159 181.402 61.963 181.756 62.0018C182.091 62.0314 182.425 61.9437 182.702 61.7537C183.025 61.4925 183.298 61.1761 183.51 60.8191C183.597 60.7153 183.902 60.8191 184.139 61.0441C184.279 61.1773 184.368 61.3553 184.39 61.5472C184.412 61.739 184.366 61.9326 184.26 62.0941C183.81 62.6877 183.149 63.0861 182.414 63.2076C181.695 63.3199 180.961 63.1437 180.372 62.7172C179.672 62.2471 179.186 61.5191 179.022 60.6922C178.916 59.9726 179.099 59.2403 179.531 58.6554C179.964 58.0706 180.61 57.6807 181.329 57.571C181.722 57.5135 182.123 57.5403 182.505 57.6497C182.887 57.7591 183.242 57.9486 183.545 58.2057C184.035 58.5949 184.392 59.1272 184.566 59.7287C184.605 59.8646 184.632 60.0036 184.647 60.1441C184.647 60.6807 184.497 60.8422 184.168 60.848C184.091 60.8538 184.014 60.8538 183.937 60.848C183.822 60.8234 183.717 60.7644 183.637 60.6789C183.557 60.5933 183.504 60.4852 183.487 60.3691C183.432 60.0527 183.303 59.754 183.109 59.4981C182.915 59.2421 182.663 59.0363 182.373 58.898C182.16 58.8045 181.928 58.7625 181.695 58.7756C181.463 58.7886 181.237 58.8562 181.035 58.973L181 58.9153Z" fill="#3B2C7D"/>
<path d="M102.527 207.115C102.527 207.115 115.595 209.613 120.677 207.894" stroke="#3B2C7D" stroke-width="2" stroke-miterlimit="10"/>
<path d="M112.275 44.4227C105.606 40.3266 105.9 53.3016 102.813 55.6093C102.283 56.0073 103.535 55.915 103.794 55.7189C105.438 54.49 105.894 51.9343 106.465 50.0939C107.1 48.0227 108.121 43.0497 111.081 44.9016C111.415 45.1035 112.5 44.5958 112.235 44.4458L112.275 44.4227Z" fill="#3B2C7D"/>
<path d="M115.963 101.919C114.455 101.842 112.956 101.629 111.486 101.285C110.95 101.175 110.413 101.048 109.888 100.904C108.035 100.348 106.256 99.5729 104.586 98.5961C103.833 98.1719 103.117 97.6856 102.446 97.1423C101.994 96.7939 101.588 96.3887 101.24 95.9365C100.861 95.4611 100.635 94.8816 100.594 94.275C100.594 93.8769 100.859 93.9634 101.171 94.1884C101.321 94.298 101.471 94.4365 101.65 94.5807C101.82 94.7406 101.973 94.9186 102.105 95.1115C102.705 95.9061 103.442 96.5878 104.28 97.125C105.155 97.7218 106.071 98.2558 107.021 98.723C108.215 99.2821 109.464 99.7152 110.748 100.015C112.154 100.392 113.59 100.648 115.04 100.783C115.93 100.866 116.825 100.878 117.717 100.817C119.059 100.765 120.378 100.458 121.605 99.9115C122.506 99.4815 123.276 98.8206 123.838 97.9961C123.963 97.8244 124.072 97.6409 124.161 97.448C124.253 97.275 124.328 97.1307 124.403 97.0154C124.453 96.9092 124.511 96.807 124.576 96.7096C124.671 96.5701 124.815 96.4728 124.98 96.4384C125.056 96.4138 125.133 96.3945 125.211 96.3807C125.448 96.3807 125.505 96.7615 125.321 97.4307C124.949 98.4376 124.306 99.3221 123.463 99.9865C122.607 100.654 121.626 101.144 120.578 101.429C119.075 101.832 117.518 102 115.963 101.925V101.919Z" fill="#3B2C7D"/>
<path d="M78.6117 35.5614C76.5232 36.3402 74.2559 38.7691 74.8502 41.1575C74.9829 41.6825 76.2406 41.3537 76.1079 40.8229C75.6175 38.8729 77.429 36.8595 79.1483 36.2075C79.9559 35.9018 79.2348 35.3191 78.6117 35.5498V35.5614Z" fill="#3B2C7D"/>
<path d="M74.4938 34.3326C73.2188 35.423 72.0534 36.7037 72.1861 38.4864C72.1861 38.8903 73.4784 38.6307 73.4438 38.1518C73.3284 36.5941 74.4015 35.4807 75.5034 34.5345C75.7284 34.3384 75.6015 34.1826 75.3823 34.096C75.2269 34.0651 75.0664 34.0703 74.9133 34.1114C74.7603 34.1524 74.6187 34.2281 74.4996 34.3326H74.4938Z" fill="#3B2C7D"/>
<path d="M218.482 32.6308C220.639 33.3577 222.682 35.475 221.095 37.7423C220.83 38.1173 222.047 37.9558 222.249 37.6846C223.98 35.2154 221.955 32.9308 219.514 32.1058C219.203 32.0019 218.078 32.4865 218.493 32.6308H218.482Z" fill="#3B2C7D"/>
<path d="M223.606 30.7495C226.249 32.4226 227.403 35.0938 225.695 37.9207C225.366 38.4572 226.629 38.388 226.849 37.9899C228.724 34.8976 227.478 31.938 224.541 30.0976C224.154 29.8495 223.012 30.4034 223.56 30.7495H223.606Z" fill="#3B2C7D"/>
</svg>
