<svg width="300" height="300" viewBox="0 0 300 300" fill="none" xmlns="http://www.w3.org/2000/svg">
<path d="M68.684 173.077C68.6878 172.963 68.7185 172.851 68.7736 172.751C68.8287 172.651 68.9068 172.565 69.0013 172.5C69.2013 172.351 69.4318 172.249 69.6763 172.2C69.8436 172.166 70.2186 172.362 70.2532 172.489C70.2994 172.754 70.3456 173.014 70.3859 173.227C70.3859 173.302 70.4263 173.868 70.484 174.433C70.4883 174.576 70.5037 174.719 70.5302 174.86C70.5302 174.998 70.5648 175.137 70.5994 175.27C70.6859 175.523 70.7263 175.748 70.7956 175.893C71.018 176.463 71.2742 177.02 71.5629 177.56C71.8863 178.118 72.2736 178.637 72.7167 179.106C73.1909 179.58 73.7086 180.009 74.2629 180.387C74.5153 180.552 74.758 180.731 74.9898 180.923C75.8286 181.573 76.8234 181.991 77.8744 182.135C78.0452 182.174 78.2228 182.174 78.3936 182.135C78.585 182.108 78.7792 182.108 78.9706 182.135C79.1206 182.135 79.2821 182.135 79.4609 182.135C79.6415 182.146 79.8227 182.146 80.0032 182.135C80.549 182.092 81.0908 182.009 81.6244 181.887C82.4871 181.77 83.3119 181.459 84.0359 180.975C84.1456 180.906 84.2205 180.796 84.3821 180.791C84.734 180.762 84.8956 180.508 85.109 180.312L85.5129 179.85C85.6513 179.7 85.7955 179.55 85.9225 179.389C86.0923 179.226 86.2871 179.092 86.4994 178.991C86.6898 178.881 86.9148 179.112 86.9148 179.193C86.9148 179.418 87.1282 179.348 87.2552 179.395C87.3029 179.407 87.3479 179.429 87.3879 179.458C87.3898 179.616 87.3604 179.773 87.3013 179.92C87.2191 180.249 87.1051 180.57 86.9609 180.877C86.7345 181.418 86.4398 181.928 86.084 182.395L85.559 182.902C85.3788 183.074 85.186 183.232 84.9821 183.375C84.7611 183.554 84.53 183.72 84.2898 183.871C84.0359 184.016 83.7879 184.183 83.5282 184.31L82.8013 184.645C82.3456 184.823 81.9879 184.927 81.8667 184.979C81.61 185.041 81.3461 185.068 81.0821 185.06C81.0532 185.06 80.8167 185.123 80.4705 185.158L79.8936 185.233L79.2302 185.262C78.7744 185.291 78.3302 185.233 77.984 185.227C77.6379 185.221 77.4071 185.152 77.3667 185.146C76.6568 185.058 75.9742 184.818 75.3648 184.443C75.2447 184.371 75.117 184.313 74.984 184.27C73.8684 183.828 72.8363 183.2 71.9321 182.412C71.7071 182.204 71.4706 182.008 71.234 181.835L70.5648 181.2C70.4929 181.114 70.4291 181.021 70.3744 180.923C70.3004 180.802 70.2174 180.686 70.1263 180.577C69.1708 179.421 68.4744 178.073 68.084 176.625C68.0088 176.226 67.9817 175.819 68.0032 175.414C68.0436 174.895 68.0956 174.381 68.1244 174.179C68.1653 173.969 68.2541 173.772 68.384 173.602C68.5186 173.449 68.6207 173.271 68.684 173.077Z" fill="#3B2C7D"/>
<path d="M210.888 240.271C210.801 240.583 210.449 240.704 210.057 240.739C209.93 240.739 209.682 240.583 209.676 240.479C209.676 240.277 209.647 240.081 209.647 239.902C209.647 239.723 210.045 238.096 210.224 237.531C210.384 236.983 210.589 236.448 210.836 235.933C211.316 234.836 211.853 233.765 212.445 232.725C212.599 232.475 212.783 232.244 212.994 232.039C213.184 231.837 213.42 231.618 213.657 231.393L215.169 229.95L215.936 231.756C216.293 232.648 216.373 233.627 216.167 234.566C216.115 234.754 216.088 234.948 216.086 235.143C216.061 235.36 216.008 235.573 215.93 235.777C215.794 236.118 215.636 236.449 215.457 236.769C215.189 237.26 214.866 237.719 214.494 238.137C213.865 238.714 213.265 239.239 212.636 239.723C212.544 239.793 212.486 239.902 212.342 239.902C212.001 239.902 211.869 240.104 211.69 240.26C211.446 240.473 211.186 240.666 210.911 240.837C210.737 240.913 210.552 240.957 210.363 240.969C210.19 240.998 209.994 240.727 209.994 240.664C209.994 240.479 209.809 240.456 209.694 240.375C209.65 240.349 209.611 240.316 209.578 240.277C209.583 240.155 209.608 240.034 209.653 239.919C209.728 239.729 209.832 239.493 209.942 239.244C210.094 238.889 210.269 238.544 210.467 238.212L211.338 237.11C211.653 236.708 211.943 236.288 212.209 235.852C212.292 235.729 212.398 235.623 212.52 235.541C212.585 235.45 212.641 235.353 212.688 235.252C212.792 235.066 212.885 234.873 212.965 234.675C213.078 234.419 213.16 234.15 213.207 233.873C213.334 233.585 213.207 233.429 213.415 233.227C213.455 233.181 213.415 233.158 213.415 233.129C213.397 233.093 213.385 233.054 213.38 233.014L215.688 233.383C215.303 233.797 214.945 234.234 214.615 234.693C214.406 235.007 214.213 235.333 214.038 235.668C213.993 235.724 213.945 235.778 213.894 235.829C213.83 235.894 213.774 235.965 213.726 236.043C213.288 236.856 212.757 237.635 212.394 238.506C212.324 238.714 211.592 239.516 211.482 239.746C211.419 239.879 210.922 240.144 210.888 240.271Z" fill="#3B2C7D"/>
<path d="M112.553 269.7C112.385 269.527 112.553 269.181 112.91 268.962C113.085 268.914 113.267 268.898 113.447 268.915L113.833 268.996C113.833 268.996 114.087 269.135 114.318 269.29C114.421 269.366 114.531 269.432 114.647 269.487C114.681 269.482 114.714 269.472 114.745 269.458C114.82 269.4 114.82 269.377 114.831 269.383C114.843 269.388 114.831 269.342 114.831 269.342C114.853 269.361 114.879 269.375 114.906 269.383C114.944 269.395 114.984 269.395 115.022 269.383H115.056L115.097 269.244C115.126 269.14 115.126 269.169 115.126 269.14C115.126 269.112 115.126 269.14 115.085 269.065C115.081 269.038 115.067 269.013 115.046 268.995C115.025 268.977 114.998 268.967 114.97 268.967C114.924 268.967 114.878 268.915 114.831 268.852C114.785 268.789 114.71 268.748 114.751 268.719C115.106 268.489 115.392 268.166 115.576 267.785C115.616 267.612 115.212 269.29 115.385 268.581V268.546V268.477C115.388 268.431 115.388 268.385 115.385 268.339C115.385 268.252 115.385 268.264 115.385 268.235C115.385 268.056 115.345 268.235 115.622 268.465C115.658 268.503 115.696 268.538 115.737 268.569L115.789 268.61H115.731C115.674 268.63 115.621 268.661 115.576 268.702C115.541 268.702 115.576 268.771 115.449 268.783C115.172 268.783 115.183 268.921 115.143 269.025C115.085 269.185 115.014 269.339 114.93 269.487C114.836 269.578 114.731 269.658 114.618 269.723C114.445 269.777 114.26 269.777 114.087 269.723C113.966 269.637 113.787 269.723 113.626 269.723C113.57 269.729 113.514 269.729 113.458 269.723C113.282 269.502 113.155 269.247 113.083 268.973C112.971 268.669 112.92 268.345 112.933 268.021C112.933 268.021 112.968 267.86 113.043 267.617C113.148 267.263 113.317 266.931 113.539 266.637C113.882 266.184 114.368 265.861 114.918 265.719C115.246 265.65 115.582 265.63 115.916 265.662C116.095 265.684 116.267 265.74 116.424 265.829C116.571 265.916 116.708 266.018 116.833 266.135C116.991 266.255 117.141 266.384 117.283 266.521C117.488 266.731 117.672 266.961 117.831 267.208C118.042 267.524 118.212 267.865 118.339 268.223L118.414 268.604C118.443 268.741 118.46 268.88 118.466 269.019C118.489 269.287 118.417 269.554 118.264 269.775C118.218 269.836 118.196 269.912 118.201 269.989C118.201 270.167 118.114 270.427 118.068 270.64C118.003 270.854 117.922 271.062 117.826 271.264C117.645 271.635 117.398 271.971 117.099 272.256C116.822 272.553 116.481 272.782 116.101 272.925C116.027 272.943 115.95 272.943 115.876 272.925C115.783 272.919 115.691 272.919 115.599 272.925C115.132 272.975 114.663 272.872 114.26 272.631C114.041 272.512 113.831 272.377 113.631 272.227C113.435 272.048 113.256 271.84 113.055 271.65C112.911 271.403 112.78 271.149 112.662 270.889C112.623 270.689 112.559 270.495 112.472 270.312C112.443 270.237 112.628 269.758 112.553 269.7Z" fill="#3B2C7D"/>
<path d="M149.071 281.319C149.129 281.567 148.771 281.781 148.309 281.763C148.118 281.701 147.939 281.607 147.779 281.487C147.675 281.4 147.559 281.29 147.461 281.198C147.355 281.029 147.259 280.853 147.173 280.673C147.151 280.624 147.124 280.578 147.092 280.535C147.073 280.518 147.051 280.505 147.029 280.494C146.995 280.484 146.959 280.484 146.925 280.494C146.821 280.494 146.804 280.535 146.804 280.523C146.804 280.512 146.769 280.523 146.775 280.563C146.767 280.531 146.753 280.499 146.734 280.471C146.677 280.379 146.613 280.362 146.573 280.373H146.544L146.059 280.062L146.111 280.096L146.313 280.217L146.521 280.327V280.408C146.521 280.442 146.486 280.488 146.573 280.558C146.594 280.58 146.611 280.606 146.622 280.635C146.633 280.664 146.638 280.694 146.636 280.725V280.823C146.635 280.835 146.635 280.846 146.636 280.858H146.538C146.095 280.861 145.662 280.987 145.286 281.221C145.154 281.348 146.44 280.096 145.898 280.644L145.84 280.702C145.808 280.736 145.779 280.772 145.754 280.812C145.736 280.843 145.714 280.872 145.69 280.898C145.609 281.071 145.719 280.938 145.615 280.569C145.593 280.468 145.56 280.369 145.517 280.275L145.563 280.315C145.622 280.329 145.683 280.329 145.742 280.315C145.782 280.315 145.788 280.263 145.898 280.315C146.157 280.477 146.215 280.356 146.307 280.287C146.45 280.18 146.603 280.087 146.763 280.01C146.903 279.993 147.044 279.993 147.184 280.01C147.378 280.057 147.554 280.159 147.692 280.304C147.756 280.46 147.969 280.5 148.125 280.581L148.286 280.673C148.324 280.975 148.298 281.281 148.211 281.573C148.144 281.912 148.008 282.234 147.813 282.519C147.71 282.628 147.6 282.73 147.484 282.825C147.186 283.088 146.842 283.293 146.469 283.431C145.89 283.645 145.256 283.657 144.669 283.465C144.443 283.386 144.226 283.281 144.023 283.154L143.723 282.94C143.57 282.817 143.445 282.664 143.354 282.49C143.25 282.374 143.158 282.248 143.077 282.115C142.887 281.618 142.787 281.09 142.782 280.558C142.773 280.15 142.816 279.743 142.909 279.346C142.995 279.086 143.101 278.834 143.227 278.59C143.376 278.311 143.616 278.091 143.907 277.967C144.005 277.911 144.088 277.832 144.15 277.737C144.721 277.037 145.527 276.568 146.417 276.415C146.826 276.332 147.248 276.332 147.657 276.415C147.734 276.441 147.805 276.482 147.865 276.537C147.941 276.592 148.02 276.644 148.102 276.692C148.533 276.902 148.887 277.241 149.117 277.662C149.248 277.881 149.361 278.111 149.457 278.348C149.509 278.469 149.544 278.602 149.596 278.723C149.648 278.844 149.636 279.006 149.665 279.144C149.674 279.263 149.674 279.383 149.665 279.502C149.649 279.696 149.62 279.889 149.579 280.079C149.55 280.471 149.423 280.765 149.434 280.846C149.446 280.927 149.036 281.221 149.071 281.319Z" fill="#3B2C7D"/>
<path d="M192.295 160.189C184.495 168.877 177.024 164.879 169.714 160.893C164.551 158.077 161.378 161.723 154.668 160.668C148.172 159.641 145.708 156.369 144.456 152.994C156.249 148.823 159.676 133.696 161.187 132.802C168.353 134.533 171.081 125.337 169.356 123.064C167.187 120.219 164.891 121.546 163.31 122.089C162.762 122.273 161.245 101.96 147.341 101.977C142.991 101.977 138.278 104.781 135.433 107.169C114.618 95.0945 141.883 65.5502 163.195 90.8368C166.287 86.3368 203.228 87.7329 191.643 127.454C189.843 133.696 205.178 145.841 192.295 160.189Z" fill="#3B2C7D"/>
<path d="M144.734 81.7791C141.067 81.7965 137.505 83.012 134.592 85.2406C133.146 86.3406 131.896 87.6766 130.894 89.1926C129.903 90.7008 129.243 92.4014 128.956 94.1829C128.674 95.9463 128.843 97.7521 129.446 99.4329L129.671 100.062C129.757 100.261 129.857 100.454 129.971 100.639L130.288 101.216L130.444 101.51L130.64 101.787L131.436 102.877L132.365 103.864C132.684 104.188 133.025 104.489 133.386 104.764C133.726 105.07 134.088 105.35 134.471 105.6L135.359 106.177C135.4 106.235 135.452 106.177 135.498 106.137L135.925 105.808C137.488 104.615 139.179 103.599 140.967 102.779C142.284 102.164 143.671 101.713 145.098 101.435C145.824 101.293 146.562 101.218 147.302 101.21C148.037 101.204 148.772 101.256 149.5 101.366C150.966 101.583 152.381 102.063 153.677 102.785C154.958 103.507 156.115 104.43 157.104 105.519C159.156 107.873 160.724 110.608 161.719 113.568C162.232 115.013 162.669 116.484 163.029 117.975C163.207 118.719 163.375 119.464 163.531 120.202L163.698 120.998C163.698 121.056 163.727 121.114 163.75 121.171C163.773 121.229 163.859 121.171 163.911 121.137L164.188 121.039C164.396 120.964 164.615 120.894 164.834 120.831C165.298 120.696 165.777 120.622 166.259 120.612C167.276 120.612 168.256 120.988 169.011 121.668C169.179 121.835 169.357 121.996 169.513 122.175C169.669 122.354 169.807 122.504 169.963 122.752C170.242 123.198 170.416 123.701 170.471 124.223C170.567 125.146 170.495 126.078 170.257 126.975C169.841 128.755 168.926 130.38 167.621 131.66C166.952 132.31 166.155 132.813 165.281 133.137C164.407 133.46 163.475 133.598 162.544 133.541C162.313 133.541 162.088 133.494 161.863 133.471C161.638 133.448 161.621 133.425 161.494 133.402C161.367 133.379 161.356 133.494 161.298 133.552L161.269 133.604C161.241 133.644 161.216 133.687 161.194 133.731L161.05 133.991C160.681 134.718 160.334 135.496 159.982 136.269C159.284 137.827 158.552 139.379 157.732 140.885C156.135 143.959 154.05 146.755 151.559 149.164C149.929 150.699 148.055 151.955 146.015 152.879C145.715 153.023 145.617 153.052 145.438 153.116L145.219 153.202L145.104 153.243C145.104 153.243 145.104 153.306 145.104 153.335C145.156 153.456 145.202 153.577 145.259 153.698C145.363 153.941 145.479 154.177 145.606 154.408C146.081 155.334 146.703 156.177 147.446 156.906C148.984 158.344 150.881 159.34 152.938 159.791C153.96 160.053 155.002 160.225 156.054 160.304C157.102 160.37 158.155 160.337 159.198 160.206C160.542 160.044 161.881 159.721 163.277 159.479C164.713 159.173 166.197 159.173 167.632 159.479C168.351 159.654 169.046 159.913 169.704 160.252C170.35 160.569 170.932 160.91 171.556 161.233C172.779 161.879 174.007 162.496 175.259 163.05C177.757 164.123 180.411 164.943 183.059 164.718L183.556 164.689L184.04 164.596C184.363 164.527 184.692 164.487 185.009 164.4C185.666 164.234 186.307 164.01 186.925 163.731C187.219 163.581 187.531 163.46 187.813 163.287L188.661 162.75L189.082 162.479L189.481 162.162L190.265 161.527C191.506 160.373 192.071 159.9 192.146 160.039C192.221 160.177 191.777 160.904 190.813 162.046C190.214 162.722 189.547 163.335 188.823 163.875C188.609 164.031 188.402 164.216 188.159 164.36L187.404 164.798C186.854 165.117 186.274 165.382 185.673 165.589C183.152 166.558 179.765 166.396 176.656 165.248C175.286 164.756 173.948 164.178 172.652 163.518C172 163.2 171.377 162.86 170.736 162.525L169.802 162.018L169.329 161.764L168.896 161.55C167.76 160.986 166.499 160.719 165.232 160.777C163.874 160.903 162.525 161.117 161.194 161.418C159.737 161.706 158.254 161.837 156.769 161.81C155.274 161.758 153.791 161.53 152.35 161.129C150.876 160.745 149.475 160.123 148.202 159.289C147.558 158.86 146.958 158.367 146.413 157.818C145.877 157.259 145.396 156.651 144.977 156C144.781 155.671 144.573 155.348 144.4 155.002C144.184 154.577 143.991 154.139 143.823 153.693L143.442 152.735C143.406 152.662 143.381 152.584 143.367 152.504L143.586 152.418L144.019 152.244L144.89 151.898L145.109 151.812L145.294 151.737L145.519 151.633C146.758 151.081 147.931 150.39 149.015 149.573C151.197 147.89 153.084 145.857 154.6 143.556C156.151 141.214 157.502 138.746 158.638 136.177L159.538 134.221C159.694 133.893 159.85 133.564 160.04 133.223C160.092 133.137 160.132 133.056 160.19 132.964C160.271 132.83 160.359 132.701 160.456 132.577L160.784 132.254L160.963 132.11C160.963 132.11 161.015 132.041 161.05 132.052H161.154L161.984 132.162L162.498 132.225C162.813 132.251 163.129 132.251 163.444 132.225C164.072 132.181 164.687 132.027 165.261 131.769C167.569 130.714 169.069 128.002 169.3 125.377C169.369 124.774 169.286 124.163 169.057 123.6L168.965 123.45L168.815 123.266C168.715 123.138 168.607 123.017 168.492 122.902C168.276 122.681 168.034 122.488 167.771 122.325C167.262 122.013 166.662 121.882 166.069 121.956C165.747 121.987 165.43 122.053 165.123 122.152C164.961 122.198 164.794 122.262 164.632 122.319L163.79 122.625C163.699 122.652 163.607 122.671 163.513 122.683H163.277H163.156C163.156 122.729 163.156 122.625 163.156 122.637H163.104H163.046C162.965 122.637 162.925 122.544 162.873 122.475C162.672 122.119 162.541 121.727 162.486 121.321L162.152 119.787C161.932 118.8 161.696 117.825 161.419 116.856C160.887 114.921 160.185 113.036 159.319 111.225C158.476 109.432 157.361 107.78 156.013 106.327C154.732 104.938 153.127 103.887 151.341 103.267C149.556 102.647 147.645 102.478 145.779 102.773C143.947 103.097 142.179 103.711 140.54 104.591C139.707 105.026 138.898 105.505 138.117 106.027C137.725 106.287 137.344 106.564 136.963 106.841L136.386 107.308L135.942 107.671L135.717 107.85L135.607 107.943C135.564 107.92 135.522 107.895 135.481 107.868L133.848 106.823C133.646 106.679 133.432 106.558 133.236 106.408L132.659 105.929C132.284 105.6 131.875 105.318 131.534 104.954L130.49 103.846C129.181 102.304 128.253 100.476 127.779 98.5099C127.333 96.5364 127.381 94.4837 127.917 92.5329C128.445 90.6015 129.364 88.799 130.617 87.2368C131.851 85.6785 133.335 84.3353 135.007 83.2618C137.07 81.9513 139.372 81.0648 141.781 80.6541C144.186 80.2572 146.646 80.3238 149.027 80.8502C151.383 81.4243 153.636 82.3583 155.707 83.6195L157.225 84.6002C157.715 84.9464 158.171 85.3387 158.65 85.7022L159.359 86.2791C159.596 86.4637 159.804 86.6829 160.023 86.856L161.338 88.0849C161.748 88.4714 162.1 88.9099 162.492 89.3195L162.994 89.8964L163.138 90.0579L163.207 90.1387C163.236 90.1387 163.259 90.2079 163.282 90.1387C163.351 90.0477 163.435 89.9696 163.531 89.9079C163.698 89.7937 163.873 89.6915 164.056 89.6022C164.453 89.412 164.866 89.2556 165.29 89.1349C166.116 88.9115 166.959 88.7609 167.811 88.6849C169.495 88.5413 171.189 88.5741 172.865 88.7829C176.214 89.18 179.461 90.1932 182.442 91.7714C185.428 93.3569 188.01 95.6071 189.988 98.3483C191.917 101.111 193.22 104.261 193.807 107.579C194.84 113.123 194.252 118.748 193.052 124.102C192.884 124.771 192.74 125.441 192.561 126.104L192.29 127.102L192.157 127.598L192.071 128.031C192.012 129.31 192.263 130.585 192.804 131.746C193.796 134.221 195.111 136.633 196.161 139.206C197.136 141.466 197.775 143.857 198.059 146.302C198.247 148.268 198.081 150.251 197.569 152.158C197.222 153.447 196.711 154.686 196.046 155.844C195.353 157.126 194.441 158.276 193.352 159.243C193.006 159.525 192.567 159.918 192.336 160.056C191.95 160.287 192.336 159.675 193.242 158.36C194.644 156.379 195.687 154.166 196.323 151.823C196.886 149.526 196.931 147.131 196.456 144.814C195.947 142.436 195.157 140.127 194.102 137.937C193.588 136.783 193.04 135.693 192.498 134.539C191.925 133.37 191.437 132.161 191.038 130.921C190.832 130.25 190.704 129.557 190.657 128.856C190.642 128.664 190.642 128.471 190.657 128.279C190.656 128.085 190.676 127.892 190.715 127.702C190.75 127.512 190.79 127.304 190.831 127.125L190.952 126.669C191.292 125.464 191.598 124.246 191.857 123.023C192.913 118.137 193.392 113.037 192.527 108.121C192.116 105.673 191.305 103.309 190.127 101.123C188.938 98.9539 187.353 97.0264 185.454 95.4406C182.398 92.9553 178.778 91.2594 174.913 90.5022C172.982 90.102 171.011 89.9335 169.04 90.0002C168.07 90.0236 167.104 90.1376 166.156 90.3406C165.713 90.4397 165.278 90.5748 164.857 90.7445L164.569 90.8829L164.442 90.9522L164.379 90.9926C164.346 91.0087 164.317 91.0302 164.292 91.056L164.038 91.2868L163.911 91.4022L163.767 91.5752L163.19 92.2329L160.721 89.5099C160.115 88.8695 159.446 88.2983 158.811 87.6868C158.489 87.3872 158.15 87.106 157.796 86.8445L156.763 86.031C156.059 85.506 155.304 85.0676 154.577 84.5772C151.583 82.8 148.175 81.841 144.694 81.7964L144.734 81.7791Z" fill="#3B2C7D"/>
<path d="M135.38 150.883C131.307 154.31 125.134 157.806 121.026 151.823C116.987 145.968 125.064 142.281 129.184 136.991C130.384 142.5 132.114 148.333 135.38 150.883Z" fill="#3B2C7D"/>
<path d="M126.881 140.706C125.918 141.589 124.937 142.437 123.996 143.296C123.074 144.118 122.248 145.041 121.533 146.048C121.057 146.736 120.752 147.527 120.644 148.356C120.58 149.067 120.693 149.782 120.973 150.439C121.043 150.612 121.135 150.779 121.216 150.946L121.504 151.437L122.196 152.377C122.665 152.977 123.249 153.477 123.914 153.849C124.579 154.22 125.311 154.456 126.068 154.541C127.463 154.639 128.859 154.356 130.106 153.721C131.724 152.871 133.268 151.887 134.721 150.779C135.194 150.45 135.373 150.779 135.206 151.356C134.914 152.212 134.343 152.946 133.585 153.439C132.754 154.012 131.876 154.514 130.96 154.939C130.017 155.387 129.014 155.698 127.983 155.862C126.911 156.053 125.808 155.992 124.764 155.683C124.498 155.609 124.238 155.516 123.985 155.406L123.258 155.031C123.025 154.892 122.804 154.736 122.594 154.564C122.386 154.409 122.193 154.236 122.018 154.044L121.354 153.358C121.158 153.116 120.979 152.862 120.777 152.614C120.38 152.11 120.047 151.56 119.785 150.975C119.505 150.362 119.339 149.703 119.294 149.031C119.254 148.357 119.344 147.681 119.56 147.041C120.063 145.739 120.835 144.56 121.827 143.579C122.739 142.598 123.725 141.727 124.712 140.856C125.289 140.319 125.9 139.789 126.477 139.246C127.148 138.625 127.784 137.966 128.381 137.273L129.425 136.01C129.872 138.31 130.45 140.583 131.156 142.817C131.713 144.542 132.489 146.188 133.464 147.716C133.666 148.056 133.914 148.344 134.139 148.662C134.364 148.979 134.554 149.169 134.716 149.377C134.852 149.529 134.978 149.691 135.091 149.862C135.251 150.073 135.341 150.329 135.35 150.594C135.359 150.706 135.359 150.818 135.35 150.929C135.316 151.091 135.148 151.114 134.86 151.004C134.679 150.934 134.506 150.843 134.346 150.733C134.134 150.574 133.93 150.405 133.735 150.225C132.514 148.93 131.537 147.425 130.85 145.783C130.14 144.149 129.561 142.461 129.119 140.735C129.039 140.435 128.964 140.158 128.894 139.846L128.739 139.217V139.114C128.74 139.091 128.74 139.067 128.739 139.044H128.704L128.519 139.235C128.018 139.754 127.498 140.25 126.979 140.729L126.881 140.706Z" fill="#3B2C7D"/>
<path d="M130.961 120.681C130.345 124.39 130.099 128.151 130.228 131.908C130.303 135.652 130.886 139.368 131.959 142.956C132.694 145.532 134.017 147.902 135.824 149.879C136.6 150.702 137.551 151.34 138.606 151.748C139.662 152.155 140.795 152.321 141.922 152.233C144.24 152.011 146.444 151.123 148.268 149.677C150.168 148.214 151.854 146.491 153.276 144.56C154.742 142.619 156.075 140.581 157.268 138.462C157.805 137.527 158.324 136.575 158.843 135.618L159.634 134.181C159.772 133.939 159.905 133.696 160.055 133.46C160.136 133.339 160.199 133.218 160.292 133.096C160.391 132.94 160.507 132.795 160.638 132.664C160.756 132.506 160.913 132.38 161.093 132.3L161.636 132.381L161.907 132.421H162.103L162.484 132.462C162.982 132.495 163.482 132.464 163.972 132.37C164.946 132.17 165.844 131.7 166.563 131.014C167.471 130.086 168.166 128.972 168.599 127.748C169.032 126.525 169.194 125.221 169.072 123.929C169.039 123.663 168.94 123.409 168.784 123.191C168.719 123.076 168.633 122.974 168.53 122.891C168.441 122.796 168.338 122.717 168.224 122.654C167.711 122.384 167.127 122.276 166.551 122.343C165.273 122.47 164.053 122.941 163.02 123.704C162.403 124.183 162.218 124.414 162.086 124.321C161.953 124.229 162.028 123.745 162.518 123.168C163.22 122.322 164.134 121.679 165.167 121.304C165.9 121.017 166.687 120.891 167.474 120.935C167.708 120.947 167.94 120.984 168.167 121.045C168.413 121.101 168.65 121.192 168.87 121.316C168.992 121.379 169.107 121.437 169.222 121.512L169.54 121.771C169.747 121.955 169.928 122.167 170.076 122.4C170.225 122.608 170.34 122.838 170.417 123.081C170.489 123.298 170.545 123.519 170.584 123.745C170.645 124.155 170.67 124.57 170.659 124.985C170.568 127.34 169.711 129.6 168.218 131.423C167.166 132.697 165.693 133.553 164.065 133.835C163.863 133.872 163.658 133.896 163.453 133.904C163.251 133.919 163.049 133.919 162.847 133.904C162.655 133.915 162.463 133.915 162.27 133.904L161.734 133.841L161.584 133.806C161.538 133.806 161.584 133.806 161.549 133.806L161.515 133.858C161.468 133.919 161.426 133.982 161.388 134.048C161.301 134.187 161.209 134.32 161.122 134.47C158.411 139.321 155.682 144.571 151.47 148.685C150.204 149.944 148.778 151.032 147.23 151.921C145.64 152.839 143.867 153.394 142.038 153.548C140.137 153.705 138.237 153.237 136.626 152.216C135.09 151.168 133.81 149.788 132.882 148.177C130.834 144.716 129.893 140.873 129.351 137.037C129.084 135.113 128.932 133.175 128.895 131.233C128.848 129.297 128.902 127.36 129.057 125.429C129.376 120.66 130.373 115.961 132.017 111.473C132.334 110.625 132.709 109.8 133.101 108.975C133.305 108.56 133.534 108.157 133.788 107.77C133.915 107.573 134.036 107.377 134.174 107.193L134.607 106.616C135.796 105.18 137.306 104.044 139.015 103.298C140.693 102.578 142.461 102.089 144.27 101.845C145.165 101.706 146.065 101.608 146.959 101.545C147.397 101.498 147.87 101.498 148.332 101.487C148.796 101.504 149.258 101.55 149.717 101.625C151.132 101.853 152.486 102.365 153.697 103.131C154.895 103.878 155.982 104.789 156.928 105.837C158.774 107.94 160.214 110.368 161.174 112.996C161.59 114.152 161.924 115.336 162.172 116.539C162.54 118.13 162.696 119.764 162.634 121.396C162.626 122.135 162.465 122.864 162.161 123.537C162.068 123.737 161.96 123.93 161.838 124.114C161.451 124.489 161.676 122.683 161.318 119.498C161.024 117.114 160.394 114.784 159.449 112.575C158.525 110.337 157.217 108.277 155.584 106.489C154.014 104.704 151.91 103.473 149.584 102.981C149.298 102.927 149.009 102.891 148.718 102.871C148.43 102.851 148.141 102.851 147.853 102.871H147.415L146.942 102.906C146.63 102.935 146.313 102.952 146.001 102.993C144.761 103.111 143.532 103.315 142.32 103.604C141.438 103.816 140.576 104.102 139.742 104.458C138.921 104.798 138.146 105.238 137.434 105.768C137.079 106.028 136.74 106.309 136.418 106.61C136.105 106.917 135.812 107.245 135.542 107.591C134.984 108.285 134.514 109.044 134.14 109.852C133.349 111.55 132.699 113.31 132.195 115.114C131.675 116.929 131.266 118.775 130.972 120.641L130.961 120.681Z" fill="#3B2C7D"/>
<path d="M109.488 168.912C111.559 168.254 113.624 167.55 115.701 166.846C116.457 166.587 117.201 166.269 117.963 166.044C120.65 165.14 123.387 164.391 126.161 163.8C127.41 163.531 128.676 163.352 129.951 163.264L130.568 163.229H131.197C131.624 163.24 132.048 163.289 132.466 163.373C133.331 163.528 134.132 163.928 134.774 164.527C135.184 164.919 134.838 165.104 134.301 165.104C134.036 165.104 133.724 165.075 133.401 165.069C133.234 165.069 133.084 165.012 132.899 165C132.715 164.984 132.533 164.947 132.357 164.891C130.884 164.622 129.375 164.622 127.903 164.891C126.351 165.104 124.782 165.467 123.207 165.808C121.315 166.252 119.411 166.962 117.518 167.614L111.265 169.742C109.972 170.169 108.68 170.591 107.376 170.983C105.403 171.589 103.395 172.137 101.376 172.552C99.8163 172.923 98.2279 173.16 96.628 173.262C96.2703 173.262 95.9184 173.262 95.5549 173.262C94.1934 173.146 93.778 172.887 93.6049 172.471C93.5561 172.383 93.5211 172.288 93.5011 172.189C93.4722 171.871 94.0203 171.808 94.8972 171.871C97.528 172.016 100.361 171.427 103.176 170.717C105.265 170.181 107.365 169.535 109.441 168.842L109.488 168.912Z" fill="#3B2C7D"/>
<path d="M124.351 124.039C123.763 125.065 123.119 126.059 122.424 127.016C122.164 127.368 121.928 127.737 121.645 128.071C120.647 129.283 119.415 130.279 118.022 131.002C117.394 131.328 116.727 131.572 116.037 131.729C115.152 131.982 114.211 131.962 113.337 131.671C113.072 131.573 113.21 131.233 113.493 130.933C113.636 130.778 113.804 130.647 113.989 130.546C114.162 130.438 114.362 130.382 114.566 130.385C116.075 130.379 117.545 129.899 118.766 129.012C119.57 128.412 120.273 127.687 120.849 126.866C121.544 125.968 122.18 125.026 122.753 124.045C123.116 123.468 123.462 122.821 123.803 122.193C124.059 121.68 124.354 121.188 124.685 120.721C125.1 120.29 125.593 119.941 126.139 119.695C126.918 119.302 127.668 118.95 128.331 118.541C128.47 118.454 128.603 118.356 128.73 118.264C129.208 117.929 129.306 117.877 129.71 118.01C129.797 118.045 129.889 118.062 129.97 118.102C130.038 118.131 130.093 118.182 130.128 118.248C130.163 118.313 130.174 118.388 130.16 118.46C130.121 118.699 130.003 118.918 129.826 119.083C129.217 119.645 128.517 120.098 127.755 120.421C127.12 120.676 126.517 121.002 125.955 121.391C125.874 121.454 125.81 121.529 125.753 121.581C125.695 121.633 125.666 121.702 125.603 121.8C125.476 122.008 125.337 122.262 125.199 122.51L124.379 124.039H124.351Z" fill="#3B2C7D"/>
<path d="M128.347 116.095C128.008 116.152 127.673 116.229 127.343 116.325C127.222 116.36 127.118 116.435 126.997 116.47C126.564 116.582 126.138 116.721 125.722 116.885C125.544 116.966 125.379 117.073 125.232 117.202C125.047 117.37 124.926 117.589 124.655 117.629C124.574 117.629 124.32 117.381 124.136 117.081C123.951 116.781 123.847 116.418 123.986 116.297C124.445 115.902 125.004 115.643 125.601 115.547C125.935 115.449 126.259 115.321 126.57 115.166C126.928 115.045 127.291 114.947 127.661 114.854L128.341 114.698C128.688 114.623 129.045 114.577 129.397 114.497C129.691 114.402 129.992 114.331 130.297 114.283C130.383 114.272 130.471 114.272 130.557 114.283C130.632 114.292 130.705 114.317 130.769 114.358C130.833 114.399 130.887 114.455 130.926 114.52C130.947 114.59 130.949 114.664 130.932 114.735C130.915 114.806 130.879 114.871 130.828 114.923C130.775 114.989 130.717 115.051 130.655 115.108C130.602 115.152 130.546 115.192 130.488 115.229L130.418 115.281C130.364 115.345 130.321 115.417 130.291 115.495C130.251 115.616 130.211 115.61 130.147 115.656C130.073 115.693 129.996 115.722 129.916 115.743C129.743 115.795 129.541 115.841 129.34 115.887C129.034 115.956 128.705 116.02 128.376 116.106L128.347 116.095Z" fill="#3B2C7D"/>
<path d="M100.681 131.625C104.09 126.162 107.211 120.531 110.488 114.929C111.1 113.908 111.7 112.887 112.369 111.883C112.712 111.363 113.086 110.864 113.488 110.389C113.934 109.935 114.418 109.522 114.936 109.154C116.636 107.883 118.452 106.774 120.359 105.842C120.852 105.607 121.359 105.4 121.877 105.225C122.149 105.132 122.426 105.057 122.708 105C123.015 104.939 123.329 104.917 123.642 104.937C124.752 105.073 125.829 105.401 126.827 105.906C127.802 106.359 128.734 106.897 129.613 107.516C130.06 107.827 130.486 108.169 130.888 108.537C131.094 108.734 131.286 108.944 131.465 109.166C131.584 109.309 131.688 109.464 131.777 109.627C131.873 109.798 131.943 109.983 131.984 110.175C132.03 110.361 132.025 110.556 131.97 110.739C131.915 110.923 131.813 111.089 131.673 111.219C131.378 111.479 131.009 111.639 130.617 111.675C130.441 111.696 130.263 111.696 130.086 111.675C129.939 111.663 129.793 111.642 129.648 111.612C129.369 111.553 129.096 111.474 128.829 111.375C128.316 111.189 127.818 110.963 127.34 110.7C127.109 110.579 126.85 110.417 126.654 110.308C126.461 110.195 126.256 110.106 126.042 110.042C124.738 109.633 123.238 110.256 122.004 111.11C121.385 111.551 120.806 112.045 120.273 112.587C119.996 112.852 119.736 113.164 119.488 113.423C119.361 113.569 119.24 113.714 119.125 113.856C119.029 113.976 118.94 114.101 118.859 114.231C118.817 114.437 118.789 114.645 118.773 114.854L118.675 115.627C118.393 118.037 117.694 120.38 116.609 122.55C115.503 124.79 113.633 126.562 111.336 127.546C110.621 127.829 110.269 127.812 110.252 127.685C110.234 127.558 110.529 127.269 111.008 126.871C111.653 126.36 112.264 125.807 112.836 125.216C113.604 124.388 114.287 123.486 114.873 122.521C115.638 121.243 116.22 119.864 116.604 118.425C116.808 117.698 116.975 116.96 117.106 116.21C117.169 115.835 117.227 115.46 117.279 115.056L117.354 114.479L117.394 114.173C117.394 114.133 117.423 114.006 117.446 113.919C117.467 113.824 117.494 113.729 117.527 113.637C117.665 113.389 117.827 113.155 118.011 112.939C118.15 112.766 118.288 112.604 118.427 112.442C118.715 112.125 119.004 111.814 119.315 111.519C119.927 110.915 120.593 110.369 121.306 109.887C122.049 109.373 122.871 108.983 123.74 108.733C124.695 108.447 125.716 108.467 126.659 108.791C126.895 108.879 127.122 108.988 127.34 109.114L127.854 109.414C128.179 109.601 128.514 109.771 128.858 109.921C129.179 110.066 129.513 110.181 129.856 110.267C130.006 110.302 130.158 110.327 130.311 110.342H130.438C130.502 110.342 130.571 110.273 130.542 110.204C130.537 110.17 130.523 110.138 130.502 110.112C130.408 109.973 130.302 109.844 130.184 109.725C129.658 109.192 129.078 108.714 128.454 108.3C127.299 107.516 126.041 106.896 124.715 106.46C124.4 106.364 124.078 106.295 123.752 106.252C123.457 106.211 123.156 106.231 122.869 106.31C122.201 106.489 121.554 106.737 120.936 107.048C119.632 107.695 118.375 108.434 117.175 109.258C116.598 109.667 115.981 110.094 115.409 110.539L114.983 110.879C114.838 110.994 114.752 111.098 114.636 111.208C114.516 111.327 114.404 111.454 114.302 111.589C114.198 111.721 114.083 111.848 113.979 111.998C113.061 113.267 112.248 114.669 111.411 116.037L108.983 120.26C107.373 123.087 105.752 125.914 104.079 128.712C102.029 132.173 99.896 135.571 97.6806 138.906C94.3229 143.971 90.6999 148.898 86.8864 153.571C83.921 157.206 80.9152 160.696 77.6556 164.002L75.4287 166.154C72.6306 168.767 71.6037 169.448 70.7498 169.708C70.5626 169.777 70.3695 169.829 70.1729 169.864C69.7056 169.864 70.7498 168.71 72.7691 166.812C78.9376 160.916 84.6088 154.521 89.7248 147.692C93.6248 142.535 97.2248 137.135 100.646 131.596L100.681 131.625Z" fill="#3B2C7D"/>
<path d="M126.346 101.902C127.908 102.423 129.412 103.103 130.834 103.933C131.367 104.22 131.883 104.536 132.381 104.879C132.834 105.205 133.254 105.576 133.633 105.987C133.852 106.223 134.035 106.492 134.175 106.783C134.264 106.964 134.318 107.159 134.336 107.36C134.349 107.565 134.33 107.772 134.279 107.971C134.236 108.167 134.147 108.35 134.02 108.504C133.893 108.659 133.73 108.781 133.546 108.86C133.186 108.991 132.796 109.019 132.421 108.941C131.882 108.82 131.357 108.64 130.858 108.404L128.365 107.25C127.846 107.019 127.315 106.812 126.796 106.627C126.554 106.536 126.308 106.457 126.058 106.391C125.888 106.343 125.714 106.314 125.538 106.304C125.439 106.291 125.348 106.244 125.279 106.171C125.216 106.097 125.176 106.007 125.163 105.911C125.15 105.815 125.164 105.717 125.204 105.629C125.288 105.478 125.404 105.348 125.545 105.248C125.686 105.148 125.847 105.081 126.017 105.052C126.38 104.968 126.76 104.986 127.113 105.104C128.245 105.539 129.347 106.045 130.413 106.621C130.927 106.881 131.434 107.135 131.931 107.343C132.16 107.439 132.395 107.52 132.634 107.585C132.802 107.625 132.813 107.648 132.906 107.631C132.998 107.614 133.165 107.354 132.675 106.829C132.191 106.36 131.655 105.947 131.077 105.6C129.764 104.762 128.37 104.056 126.917 103.494C126.476 103.32 126.025 103.17 125.567 103.044C125.166 102.901 124.739 102.848 124.315 102.889C123.659 103.075 123.043 103.38 122.498 103.789C121.893 104.206 121.315 104.66 120.767 105.15C119.944 105.924 119.16 106.738 118.419 107.591C118.252 107.775 118.096 107.966 117.923 108.168C117.283 108.843 116.994 108.993 116.596 108.866C116.502 108.845 116.411 108.814 116.325 108.773C116.065 108.629 116.169 108.196 116.59 107.666C117.912 105.967 119.435 104.435 121.125 103.102C121.826 102.537 122.603 102.073 123.433 101.723C123.687 101.621 123.952 101.549 124.223 101.51C124.499 101.471 124.778 101.471 125.054 101.51C125.497 101.58 125.935 101.682 126.363 101.816L126.346 101.902Z" fill="#3B2C7D"/>
<path d="M86.5731 177.496C88.8058 174.196 90.7673 170.643 92.7 167.112L94.7539 163.195C97.2058 158.579 99.6346 153.964 102.179 149.429C103.333 147.404 104.44 145.391 105.64 143.383C107.169 140.856 108.681 138.237 110.954 136.171C111.687 135.543 111.802 135.923 111.485 136.702C111.277 137.204 111.036 137.692 110.763 138.162C110.406 138.819 110.007 139.453 109.569 140.06C107.838 142.448 106.338 145.033 104.827 147.618C103.315 150.202 101.862 152.845 100.373 155.487C98.5962 158.648 96.9404 162.041 95.1808 165.295C93.2596 168.9 91.3212 172.506 89.1693 176.002C88.5 177.075 87.8135 178.143 87.0693 179.175C86.3373 180.241 85.4941 181.225 84.5539 182.112C83.7911 182.789 82.8832 183.282 81.9 183.554C80.9433 183.836 79.9492 183.97 78.952 183.952C76.9735 183.928 75.0345 183.396 73.3212 182.406C71.9721 181.653 70.8503 180.551 70.0731 179.216C69.3037 177.843 68.9962 176.259 69.1962 174.698C69.2742 174.025 69.4231 173.362 69.6404 172.72C69.9166 171.874 70.3255 171.077 70.8519 170.36C71.0802 170.017 71.4056 169.75 71.7866 169.593C71.9139 169.534 72.0474 169.489 72.1846 169.46C72.3635 169.46 72.3635 169.679 72.1846 170.089C72.0058 170.498 71.7404 171.093 71.4 171.848C70.3731 174.075 70.0846 176.689 71.3423 178.714C72.6 180.739 74.9539 182.06 77.4173 182.458C79.2335 182.793 81.1093 182.525 82.7596 181.696C83.5236 181.202 84.1985 180.581 84.7558 179.862C85.3851 179.095 85.9743 178.296 86.5212 177.468L86.5731 177.496Z" fill="#3B2C7D"/>
<path d="M78.5423 195C76.7635 195.23 74.9612 195.209 73.1884 194.937C71.4071 194.655 69.6818 194.092 68.0769 193.27C67.5 192.958 66.923 192.595 66.3865 192.254C65.85 191.914 65.3307 191.464 64.8634 190.997C63.182 189.384 61.9442 187.365 61.2692 185.135C60.6557 182.93 60.4948 180.625 60.7961 178.356C61.0179 176.333 61.6626 174.379 62.6884 172.622C63.0305 172.056 63.4287 171.527 63.8769 171.041C64.3361 170.551 64.8534 170.119 65.4173 169.754C66.5603 169.037 67.8815 168.656 69.2307 168.652C70.0615 168.652 69.9115 169.033 69.2884 169.402C68.6653 169.772 67.6384 170.25 66.5653 170.856C64.6038 171.906 63.3 174.006 62.6423 176.291C61.9713 178.63 61.8275 181.089 62.2211 183.491C62.6307 186.375 64.4884 189.07 66.8365 190.881C68.1535 191.884 69.6409 192.64 71.2269 193.114C72.8325 193.584 74.4981 193.817 76.1711 193.806C78.2451 193.777 80.2991 193.396 82.2461 192.681C82.9842 192.415 83.7049 192.103 84.4038 191.747C84.7557 191.568 85.0846 191.348 85.425 191.17C85.7666 190.978 86.0979 190.768 86.4173 190.541C87.6906 189.621 88.8523 188.556 89.8788 187.368C90.6658 186.465 91.3293 185.462 91.8519 184.385C92.3654 183.369 92.6173 182.241 92.5846 181.102C92.5437 180.634 92.4308 180.175 92.25 179.741C91.983 179.167 91.65 178.627 91.2576 178.131C91.0461 177.881 90.896 177.584 90.8192 177.266C90.7853 177.143 90.7603 177.017 90.7442 176.891C90.7442 176.712 90.9519 176.7 91.3211 176.856C91.8815 177.124 92.3715 177.519 92.7519 178.01C93.5752 179.009 94.0132 180.27 93.9865 181.564C93.935 182.828 93.5998 184.064 93.0057 185.181C91.8457 187.321 90.2777 189.212 88.3903 190.749C87.7004 191.338 86.9612 191.867 86.1807 192.329C85.7827 192.56 85.4077 192.814 84.998 193.016L83.7692 193.593C82.0995 194.31 80.3417 194.8 78.5423 195.052V195Z" fill="#3B2C7D"/>
<path d="M181.902 179.55C180.767 177.091 179.415 174.738 177.864 172.517C176.344 170.312 174.457 168.384 172.285 166.817C170.709 165.717 168.928 164.945 167.047 164.55C165.391 164.2 163.685 164.161 162.016 164.435C160.33 164.74 158.698 165.288 157.17 166.062C154.054 167.59 151.216 169.719 148.291 171.739C146.997 172.663 145.648 173.508 144.252 174.271C142.79 175.096 141.114 175.462 139.441 175.321C138.327 175.23 137.267 174.808 136.395 174.11C135.526 173.372 134.948 172.349 134.762 171.225C134.595 170.153 134.66 169.057 134.952 168.012C135.225 167.009 135.612 166.041 136.106 165.127C136.729 164.002 136.954 164.348 136.793 165.433C136.729 165.981 136.574 166.713 136.435 167.573C136.264 168.5 136.187 169.441 136.204 170.383C136.187 171.211 136.469 172.017 136.999 172.653C137.529 173.289 138.271 173.712 139.089 173.844C139.962 174.012 140.861 173.993 141.725 173.787C142.17 173.684 142.605 173.542 143.024 173.36C143.433 173.192 143.883 172.921 144.31 172.708C147.772 170.729 150.979 168.092 154.643 166.004C155.752 165.373 156.899 164.808 158.075 164.314C158.652 164.042 159.299 163.864 159.916 163.644C160.227 163.552 160.55 163.477 160.868 163.396L161.347 163.275L161.843 163.2C164.468 162.736 167.171 162.995 169.66 163.95C172.331 165.037 174.716 166.725 176.629 168.883C178.521 170.991 180.157 173.315 181.504 175.806C183.157 178.829 184.58 181.973 185.762 185.21C187.526 190.092 189.03 195.064 190.268 200.106C191.26 203.989 192.2 207.796 193.095 211.644C193.297 212.492 193.499 213.317 193.7 214.171C194.427 217.333 194.629 218.314 194.479 219.081C194.464 219.256 194.434 219.43 194.387 219.6C194.231 220.004 193.516 218.781 192.893 216.462C191.964 213.029 191.162 209.498 190.308 205.927C189.454 202.356 188.577 198.756 187.539 195.185C186.095 189.861 184.212 184.666 181.908 179.654L181.902 179.55Z" fill="#3B2C7D"/>
<path d="M176.971 226.731C176.434 225.271 175.881 223.846 175.292 222.375C175.079 221.85 174.819 221.342 174.606 220.817C173.833 218.971 173.042 217.131 172.154 215.348C171.756 214.555 171.315 213.785 170.833 213.04C170.221 212.1 169.529 211.217 168.929 210.317C168.744 210.046 169.021 209.815 169.506 209.815C169.803 209.822 170.095 209.898 170.359 210.038C170.622 210.177 170.849 210.375 171.023 210.617C172.38 212.574 173.502 214.685 174.363 216.906C174.888 218.215 175.563 219.519 176.134 220.846C176.752 222.3 177.334 223.771 177.9 225.248L178.921 227.983C179.434 229.367 179.908 230.769 180.398 232.148C180.779 233.221 181.217 234.254 181.552 235.344C181.627 235.587 181.713 235.817 181.777 236.071C182.008 236.989 181.933 237.427 181.517 237.646C181.476 237.673 181.429 237.69 181.381 237.698C181.332 237.706 181.282 237.704 181.234 237.692C181.205 237.678 181.178 237.661 181.154 237.64C181.135 237.622 181.114 237.606 181.09 237.594C181.022 237.575 180.959 237.542 180.906 237.496C180.77 237.317 180.673 237.11 180.623 236.89C180.011 235.102 179.267 233.112 178.575 231.121C178.044 229.65 177.508 228.173 176.942 226.708L176.971 226.731Z" fill="#3B2C7D"/>
<path d="M236.86 194.908C238.527 193.679 240.944 192.531 243.062 192.704C244.51 192.825 243.933 193.247 243.102 193.777C242.525 194.152 241.902 194.475 241.319 194.862C240.379 195.491 241.798 195.848 242.387 195.439C243.148 194.925 247.498 192.773 244.931 191.862C242.046 190.841 238.088 192.606 235.792 194.297C234.881 194.966 236.283 195.312 236.86 194.873V194.908Z" fill="#3B2C7D"/>
<path d="M197.146 237.271C198.792 238.816 200.802 239.917 202.99 240.473C203.786 240.683 204.598 240.82 205.419 240.883C206.843 241.035 208.283 240.853 209.625 240.352C210.975 239.824 212.167 238.958 213.086 237.837C213.906 236.826 214.523 235.666 214.903 234.421C215.144 233.638 215.289 232.828 215.336 232.01C215.37 231.626 215.37 231.24 215.336 230.856C215.324 230.577 215.23 230.308 215.065 230.083C215.015 230.06 214.974 230.022 214.947 229.974C214.92 229.927 214.909 229.872 214.915 229.817C214.952 229.708 215.02 229.613 215.112 229.543C215.203 229.473 215.313 229.432 215.428 229.425C215.639 229.429 215.843 229.504 216.005 229.639C216.207 229.795 216.374 229.992 216.496 230.215C216.766 230.691 216.9 231.232 216.882 231.779C216.799 233.71 216.229 235.589 215.226 237.242C214.256 238.919 212.821 240.279 211.096 241.16C208.996 242.186 206.628 242.53 204.323 242.146C203.098 241.94 201.899 241.603 200.746 241.142C199.584 240.688 198.488 240.081 197.486 239.337C196.867 238.875 196.288 238.362 195.755 237.802C195.237 237.236 194.768 236.626 194.353 235.979C193.112 234.005 192.478 231.71 192.53 229.379C192.532 227.576 193.003 225.804 193.898 224.239C194.1 223.892 194.327 223.56 194.578 223.246C194.894 222.822 195.285 222.461 195.732 222.179C195.845 222.106 195.973 222.057 196.106 222.035C196.239 222.013 196.375 222.019 196.505 222.052C196.61 222.072 196.713 222.102 196.811 222.144C196.944 222.225 196.926 222.398 196.811 222.623C196.602 222.93 196.371 223.221 196.119 223.494C195.184 224.567 194.518 225.846 194.175 227.227C193.821 228.646 193.783 230.125 194.065 231.56C194.485 233.741 195.576 235.736 197.186 237.265L197.146 237.271Z" fill="#3B2C7D"/>
<path d="M245.574 202.777C246.503 202.869 247.426 202.979 248.343 203.094L249.705 203.262L250.362 203.331H250.68H250.899C252.617 203.118 254.277 202.571 255.785 201.721C256.147 201.512 256.491 201.273 256.812 201.006C256.966 200.882 257.111 200.747 257.245 200.602L257.418 200.406L257.47 200.337C257.516 200.273 257.545 200.146 257.47 200.112C257.426 200.103 257.381 200.103 257.337 200.112H256.697C255.77 200.142 254.841 200.121 253.916 200.048L252.508 199.916L251.112 199.714C248.435 199.265 245.784 198.666 243.174 197.919C240.933 197.243 238.656 196.69 236.355 196.264C235.803 196.175 235.246 196.13 234.687 196.131L233.885 196.189L233.072 196.356C231.97 196.648 230.903 197.056 229.887 197.573C227.808 198.641 225.819 199.876 223.939 201.266C222.035 202.644 220.184 204.11 218.372 205.621C215.153 208.31 212.026 211.166 208.997 214.016C207.041 215.844 205.103 217.702 203.124 219.525C202.126 220.437 201.128 221.337 200.095 222.208C199.065 223.103 197.973 223.926 196.83 224.671C196.645 224.781 196.484 224.879 196.339 224.948C196.215 225.001 196.088 225.045 195.959 225.081C195.757 225.133 195.653 225.121 195.635 225.052C195.618 224.983 195.687 224.856 195.826 224.694L196.403 224.06C197.378 223.027 199.108 221.123 201.382 219.052C205.42 215.383 209.383 211.593 213.497 207.964C215.562 206.152 217.668 204.364 219.843 202.656C222.018 200.925 224.3 199.331 226.674 197.885C228.125 196.977 229.657 196.205 231.249 195.577C231.664 195.427 232.091 195.306 232.507 195.173C232.922 195.041 233.383 194.966 233.833 194.908C234.736 194.819 235.645 194.85 236.539 195C238.24 195.276 239.924 195.65 241.582 196.119C243.226 196.558 244.859 197.008 246.48 197.418C248.258 197.874 250.058 198.238 251.874 198.508C252.324 198.571 252.78 198.641 253.23 198.669C253.68 198.698 254.135 198.773 254.591 198.779C255.047 198.785 255.491 198.825 255.959 198.819L257.395 198.779C257.745 198.762 258.094 198.825 258.416 198.964C258.564 199.04 258.693 199.148 258.793 199.281C258.893 199.414 258.961 199.568 258.993 199.731C259.039 200.074 258.976 200.423 258.814 200.729C258.657 201.017 258.463 201.282 258.237 201.519C257.539 202.228 256.726 202.814 255.832 203.25C254.969 203.689 254.062 204.035 253.126 204.283C252.664 204.416 252.197 204.514 251.724 204.606C251.482 204.655 251.237 204.69 250.991 204.71C250.853 204.71 250.697 204.71 250.57 204.71L250.207 204.681C247.899 204.439 245.666 204.104 243.393 203.971C241.153 203.78 238.898 203.861 236.678 204.214C236.47 204.254 236.262 204.283 236.055 204.329L235.449 204.491L234.872 204.652L234.295 204.883C234.105 204.964 233.903 205.027 233.718 205.114L233.187 205.419C232.82 205.621 232.469 205.851 232.137 206.106C230.75 207.105 229.45 208.218 228.249 209.435C225.864 211.898 223.724 214.585 221.857 217.46C219.004 221.889 216.413 226.482 214.097 231.214C213.566 232.241 213.087 233.273 212.574 234.323C211.61 236.262 210.982 237.548 210.491 238.425C210.176 239.049 209.766 239.619 209.274 240.116C209.121 240.279 208.955 240.43 208.778 240.566C208.339 240.819 208.893 239.118 210.191 236.204C212.158 231.906 214.316 227.55 216.751 223.229C219.17 218.823 221.988 214.648 225.168 210.756C226.404 209.306 227.742 207.947 229.172 206.689C229.893 206.06 230.649 205.466 231.428 204.912C231.624 204.773 231.809 204.629 232.005 204.496L232.68 204.104C233.125 203.85 233.592 203.638 234.076 203.469C235.937 202.85 237.884 202.525 239.845 202.506C241.744 202.466 243.644 202.545 245.533 202.743L245.574 202.777Z" fill="#3B2C7D"/>
<path d="M196.374 252.889C194.845 252.47 193.398 251.795 192.094 250.893C191.442 250.46 190.859 249.964 190.259 249.485C189.67 248.986 189.11 248.454 188.58 247.893C187.782 247.085 187.073 246.196 186.463 245.239C185.41 243.514 184.768 241.569 184.588 239.556C184.441 237.569 184.69 235.573 185.321 233.683C185.859 232.034 186.567 230.444 187.432 228.941C188.482 226.993 189.82 225.215 191.401 223.668C191.915 223.2 192.094 223.529 191.978 224.175C191.734 225.118 191.294 225.999 190.686 226.76C189.382 228.449 188.276 230.282 187.392 232.223C186.493 234.134 185.976 236.201 185.869 238.31C185.823 239.589 186.018 240.865 186.446 242.071C186.895 243.295 187.519 244.447 188.298 245.493C189.183 246.639 190.195 247.683 191.315 248.602C192.415 249.549 193.642 250.337 194.961 250.944C196.573 251.681 198.346 251.996 200.113 251.862C202.822 251.552 205.388 250.477 207.509 248.764C209.161 247.455 210.678 245.984 212.038 244.373L212.949 243.323C214.103 242.025 214.646 241.593 215.257 241.714C215.384 241.714 215.574 241.806 215.551 241.916C215.542 241.947 215.526 241.977 215.505 242.002C215.5 242.029 215.5 242.056 215.505 242.083C215.507 242.106 215.507 242.129 215.505 242.152V242.187C215.505 242.216 215.505 242.256 215.459 242.308C215.326 242.51 215.038 242.885 214.64 243.387C212.286 246.318 209.447 249.479 205.721 251.516C204.316 252.295 202.791 252.833 201.209 253.108C199.599 253.378 197.951 253.311 196.369 252.912L196.374 252.889Z" fill="#3B2C7D"/>
<path d="M98.7214 194.516C100.539 194.262 102.356 193.939 104.185 193.616C104.854 193.5 105.506 193.333 106.175 193.223C108.537 192.819 110.906 192.466 113.283 192.162C114.333 192.006 115.395 191.873 116.433 191.706C117.766 191.459 119.116 191.32 120.471 191.291C121.32 191.291 120.368 192.739 118.845 192.906L110.681 193.846C109.031 194.025 107.352 194.423 105.685 194.723C103.845 195.058 102.01 195.404 100.146 195.698C99.5695 195.791 98.9926 195.883 98.4157 195.946C97.8387 196.01 97.2618 196.119 96.6849 196.154C94.9208 196.344 93.1413 196.344 91.3772 196.154L90.3503 195.998C90.183 195.969 90.0099 195.952 89.8426 195.917L89.3464 195.785L88.3426 195.525C88.008 195.433 87.6964 195.271 87.3733 195.15C87.0503 195.029 86.7964 194.925 86.5253 194.798C85.5503 194.221 85.2964 193.921 85.3137 193.494C85.3017 193.399 85.3017 193.302 85.3137 193.206C85.3945 192.917 85.8907 192.964 86.5887 193.304C88.6671 194.337 90.9491 194.894 93.2695 194.937C95.0838 194.939 96.8953 194.796 98.6868 194.51L98.7214 194.516Z" fill="#3B2C7D"/>
<path d="M117.785 214.425C118.149 212.764 118.472 211.085 118.737 209.4C118.829 208.783 118.881 208.16 118.968 207.549C119.294 205.381 119.5 203.197 119.585 201.006C119.607 200.043 119.563 199.079 119.452 198.122C119.377 197.525 119.265 196.933 119.118 196.35C118.994 195.806 118.814 195.277 118.581 194.77C118.454 194.504 118.697 194.239 119.193 194.331C119.525 194.427 119.824 194.611 120.061 194.863C120.297 195.114 120.462 195.425 120.537 195.762C120.852 197.075 121.003 198.422 120.987 199.772C120.986 201.08 120.902 202.386 120.733 203.683C120.537 205.235 120.451 206.85 120.231 208.42C119.995 210.15 119.695 211.881 119.354 213.583C119.147 214.633 118.91 215.683 118.674 216.727C118.304 218.308 117.877 219.883 117.451 221.441C117.11 222.652 116.827 223.852 116.429 225.047C116.343 225.312 116.262 225.572 116.164 225.831C115.772 226.8 115.518 227.06 115.091 227.083C114.995 227.092 114.898 227.092 114.802 227.083C114.508 227.031 114.491 226.564 114.716 225.883C115.374 223.841 115.997 221.654 116.579 219.427C117.006 217.777 117.41 216.104 117.733 214.42L117.785 214.425Z" fill="#3B2C7D"/>
<path d="M171.44 241.639C171.44 239.867 171.44 238.096 171.382 236.319C171.382 235.673 171.301 235.027 171.284 234.381C171.226 232.073 171.19 229.779 171.174 227.498C171.174 226.477 171.14 225.45 171.105 224.44C171.025 223.133 171.069 221.822 171.238 220.523C171.365 219.721 172.651 220.829 172.599 222.289C172.547 224.89 172.565 227.51 172.501 230.169C172.466 231.767 172.622 233.417 172.68 235.05C172.749 236.844 172.784 238.644 172.801 240.444C172.801 241.552 172.801 242.66 172.801 243.767C172.801 245.446 172.715 247.131 172.64 248.798C172.605 250.09 172.576 251.365 172.541 252.652C172.541 252.935 172.541 253.229 172.495 253.494C172.397 254.55 172.27 254.873 171.878 255.052C171.79 255.097 171.7 255.135 171.607 255.167C171.313 255.231 171.128 254.775 171.128 254.014C171.128 251.746 171.272 249.398 171.347 246.987C171.399 245.215 171.44 243.433 171.416 241.644L171.44 241.639Z" fill="#3B2C7D"/>
<path d="M92.0367 98.6538C91.3444 98.1231 90.6983 97.5461 90.0637 96.9634C89.8271 96.75 89.5733 96.5654 89.354 96.3404C88.5749 95.547 87.8447 94.707 87.1675 93.825C86.856 93.4442 86.5387 93.0634 86.2213 92.6711C85.7503 92.2088 85.4031 91.6355 85.2117 91.0038C85.1598 90.7904 85.5463 90.675 85.9675 90.6519C86.1489 90.6143 86.3365 90.6193 86.5157 90.6663C86.6948 90.7133 86.8607 90.8012 87.0002 90.9231C87.6117 91.8519 88.3387 92.8038 89.0367 93.8077C89.5044 94.3938 90.0302 94.9311 90.606 95.4115C91.206 95.9769 91.829 96.5231 92.4752 97.05C92.8848 97.3557 93.2713 97.6904 93.704 97.9615C94.3306 98.4134 94.9945 98.811 95.6887 99.15C96.2299 99.3805 96.7921 99.5582 97.3675 99.6807C97.4887 99.7211 97.6156 99.7211 97.7367 99.7557C98.1925 99.8769 98.3137 100.027 98.3137 100.454C98.3137 100.552 98.3137 100.65 98.3137 100.742C98.2733 101.065 98.0021 101.25 97.6098 101.221C96.4284 101.095 95.2885 100.713 94.2694 100.102C93.8829 99.8884 93.4963 99.6634 93.1156 99.4154C92.7348 99.1673 92.3829 98.9192 92.031 98.6596L92.0367 98.6538Z" fill="#3B2C7D"/>
<path d="M106.027 22.5002C104.752 21.7265 103.42 21.0533 102.04 20.4868L99.9577 19.6733C99.6104 19.5347 99.2537 19.421 98.8904 19.3329L97.8115 19.0271C96.3682 18.6246 94.9021 18.3086 93.4211 18.081C92.6827 17.9425 91.9269 17.9137 91.1827 17.8271C90.4361 17.7329 89.685 17.679 88.9327 17.6656C82.8862 17.4537 76.853 18.3673 71.1404 20.3598C66.9822 21.7826 63.0395 23.7705 59.4231 26.2675C52.9442 30.5771 48.1211 37.0618 45.1615 44.2329C43.664 47.8245 42.7037 51.6172 42.3115 55.4887C41.8915 59.3473 42.2166 63.2508 43.2692 66.9868C43.7515 68.6353 44.397 70.2317 45.1961 71.7521C46.0187 73.2607 46.9847 74.6866 48.0807 76.0098C49.1986 77.3095 50.4304 78.5066 51.7615 79.5868C53.1104 80.6428 54.5398 81.5919 56.0365 82.4252C56.9827 83.0021 57.9865 83.4291 58.9788 83.8964C59.9711 84.3637 61.0154 84.7387 62.0654 85.0502C64.156 85.7564 66.2941 86.3135 68.4634 86.7175C72.8278 87.4972 77.2479 87.9236 81.6807 87.9925C84.4442 88.0387 84.0923 88.4368 81.7269 88.8291C77.7564 89.3727 73.7268 89.3163 69.7731 88.6618C65.1473 87.9689 60.6572 86.5617 56.4634 84.4906C54.3728 83.4055 52.3957 82.1145 50.5615 80.6368C47.7951 78.3886 45.5081 75.6078 43.8363 72.4594C42.1645 69.311 41.1418 65.8589 40.8288 62.3079C40.3819 57.6171 40.8462 52.884 42.1961 48.3694C42.9792 45.6567 44.0165 43.0239 45.2942 40.506C46.5719 37.9494 48.0944 35.5227 49.8404 33.2598C53.3964 28.7265 57.8662 24.9918 62.9596 22.2983L65.0481 21.2194C65.7461 20.856 66.4846 20.5848 67.2 20.2618C68.6192 19.5983 70.1192 19.1079 71.5961 18.606C72.3288 18.3348 73.0961 18.1733 73.8461 17.9483L75 17.6425L75.5769 17.4868L76.1538 17.3656C77.6884 17.0598 79.2173 16.7079 80.7692 16.5521C83.877 16.1272 87.0189 16.0074 90.15 16.1944C91.7131 16.3029 93.2692 16.4955 94.8115 16.7714L95.9654 16.9848C96.3547 17.044 96.74 17.1268 97.1192 17.2329L99.3923 17.8675L100.09 18.0694L100.765 18.3291L102.121 18.8541C102.565 19.0329 103.027 19.1887 103.465 19.3964L104.769 20.031C105.208 20.2329 105.629 20.4752 106.05 20.7175L107.308 21.4387L108.513 22.2406C108.917 22.5118 109.321 22.7714 109.667 23.0771C110.45 23.6443 111.202 24.2508 111.923 24.8944C112.281 25.2233 112.662 25.5233 113.002 25.8637L114.023 26.8906C114.368 27.2295 114.695 27.5857 115.004 27.9579L115.956 29.0541L116.821 30.2079C117.122 30.5758 117.402 30.9611 117.658 31.3618C119.299 33.8052 120.531 36.5003 121.304 39.3406C122.08 42.1912 122.298 45.1651 121.944 48.0983C121.591 50.9975 120.888 53.8432 119.85 56.5733C118.802 59.2854 117.434 61.8632 115.777 64.2521C114.502 66.0867 113.117 67.8418 111.629 69.5079C110.152 71.1695 108.617 72.756 107.094 74.3368C105.571 75.9175 104.06 77.4868 102.663 79.1425C101.256 80.7618 100.047 82.5437 99.0634 84.4502C98.2278 86.103 97.6981 87.8934 97.5 89.7348C97.4538 90.1618 97.4538 90.5771 97.4307 90.9752C97.4307 91.1714 97.4307 91.3675 97.4307 91.5521C97.4307 91.7368 97.4307 91.9271 97.4654 92.1291C97.4654 92.4925 97.5 92.8444 97.5173 93.1733C97.5346 93.5021 97.6096 93.8194 97.6557 94.1194C97.7019 94.4194 97.7365 94.6964 97.7769 94.9791C97.8173 95.2618 97.8923 95.5041 97.95 95.7464C98.0654 96.2368 98.1461 96.681 98.2442 97.0733C98.475 97.8637 98.6365 98.4925 98.7461 99.0233C98.869 99.4656 98.9672 99.9144 99.0404 100.368C99.0923 100.731 99.1846 101.198 99.1846 101.423C99.1846 101.81 98.8211 101.354 98.1923 100.177C97.2483 98.3393 96.5889 96.3687 96.2365 94.3329C95.8556 92.2928 95.8556 90.1999 96.2365 88.1598C96.6525 86.0947 97.4236 84.1173 98.5154 82.3156C100.679 78.7156 103.633 75.7791 106.465 72.8425C109.367 69.9879 112.029 66.9007 114.427 63.6118C115.584 61.9683 116.603 60.2316 117.473 58.4194C118.329 56.5964 119.026 54.7028 119.556 52.7598L120.058 50.5675L120.421 48.3464C120.519 47.6021 120.537 46.8752 120.6 46.1368C120.663 45.3983 120.6 44.6656 120.565 43.9271C120.352 40.9627 119.569 38.0674 118.258 35.4002C115.508 30.0104 111.258 25.5305 106.021 22.5002H106.027Z" fill="#3B2C7D"/>
<path d="M58.2693 52.7598L62.3078 47.2444L64.477 44.1291L64.5981 43.956C64.8116 43.8521 65.0193 43.7367 65.227 43.6271L65.5443 43.4483L65.7001 43.356H65.7347C65.9481 42.7271 65.4404 44.2156 65.4924 44.0598C65.4924 44.0598 65.452 44.1175 65.4578 44.1291C65.5203 44.5452 65.6804 44.9406 65.9251 45.2829C66.0462 45.2829 65.9885 45.5137 65.9885 45.6637V46.1714C65.9885 46.506 65.9885 46.8117 65.9885 47.1233V48.4617C65.9885 49.2233 65.9885 49.9848 66.0289 50.7694C66.0635 52.0617 66.1558 53.354 66.2654 54.6348C66.4615 56.276 66.5713 57.9264 66.5943 59.579C66.5943 60.6117 64.9789 59.429 64.8289 57.5194C64.6962 55.8348 64.5981 54.1502 64.5404 52.4541C64.5404 51.606 64.4943 50.7579 64.4943 49.9041V48.6233V47.9771V47.8156C64.4943 47.7637 64.4943 47.7002 64.4943 47.706V47.6252C64.5194 47.5131 64.5367 47.3993 64.5462 47.2848C64.5559 47.0546 64.581 46.8252 64.6212 46.5983C64.6674 46.506 64.6212 46.5983 64.5808 46.6329L64.4885 46.7714L64.3039 47.0367L64.102 47.3079L60.3924 52.4483L58.1251 55.5983L57.5481 56.3714L58.7885 56.2041L61.0212 55.8637C62.6481 55.5983 64.2231 55.2464 65.8212 54.9291C66.1731 54.8598 66.5135 54.7791 66.8712 54.7214C68.1866 54.4906 68.602 54.5252 68.9712 54.8887C69.0557 54.964 69.133 55.047 69.202 55.1367C69.3751 55.431 68.8789 55.7771 67.9212 56.0137C66.5078 56.3714 65.0366 56.6771 63.5539 56.9541L61.3039 57.3464L58.9616 57.7156L54.2539 58.4252L58.2289 52.7714L58.2693 52.7598Z" fill="#3B2C7D"/>
<path d="M87.8811 52.1658L91.8849 46.6561L94.0541 43.5408L94.1811 43.3619C94.3888 43.2581 94.6022 43.1484 94.8099 43.0331L95.1215 42.8542L95.2772 42.7677H95.3176C95.5368 42.1331 95.0291 43.6215 95.0811 43.4715C95.0811 43.4715 95.0349 43.535 95.0407 43.5408C95.1034 43.9578 95.2657 44.3536 95.5138 44.6946C95.6349 44.6946 95.5715 44.9254 95.5772 45.0811L95.5484 45.5831C95.5484 45.9177 95.5484 46.2234 95.5484 46.5408V47.885C95.5484 48.6465 95.5484 49.4081 95.5888 50.1927C95.6234 51.485 95.7157 52.7831 95.8195 54.0638C96.0187 55.7028 96.1285 57.3514 96.1484 59.0023C96.1484 60.035 94.5388 58.8523 94.3888 56.9484C94.2561 55.2638 94.1522 53.5734 94.0945 51.8773C94.0945 51.0292 94.0542 50.1811 94.0484 49.3273V48.0465V47.4061V47.2446C94.043 47.2063 94.043 47.1675 94.0484 47.1292V47.0484C94.0714 46.9361 94.0868 46.8224 94.0945 46.7081C94.1234 46.4831 94.1234 46.2407 94.1695 46.0215C94.2157 45.9292 94.1695 46.0215 94.1349 46.0619L94.0426 46.1946L93.8522 46.46L93.6561 46.7369L89.9984 51.8254L87.7311 54.9754L87.1542 55.7484L88.4003 55.5869L90.633 55.2408C92.2542 54.9754 93.8349 54.6234 95.433 54.3119C95.7791 54.2427 96.1253 54.1619 96.4772 54.0984C97.7984 53.8677 98.2368 53.9081 98.583 54.2715C98.6674 54.3469 98.7446 54.43 98.8138 54.5196C98.9868 54.8138 98.4849 55.1542 97.533 55.3965C96.1195 55.7542 94.6484 56.06 93.1657 56.3311L90.9099 56.7234L88.6022 57.0927L83.8945 57.8081L87.8638 52.1484L87.8811 52.1658Z" fill="#3B2C7D"/>
<path d="M73.9342 47.3716C73.3875 48.022 72.9989 48.7902 72.7987 49.616C72.5985 50.4417 72.5922 51.3026 72.7803 52.1312C72.9239 52.7438 73.1676 53.3286 73.5015 53.862C73.7816 54.3332 74.1362 54.756 74.5515 55.1139C74.7765 55.2812 74.99 55.4716 75.2207 55.6331C75.4515 55.7947 75.6996 55.9216 75.9534 56.0427C76.965 56.5183 78.1188 56.5946 79.1842 56.2562C80.1423 55.9286 80.9682 55.299 81.538 54.462C82.2352 53.3467 82.6546 52.0805 82.7611 50.7697C82.8246 50.3658 83.2226 50.3773 83.5976 50.7697C83.8252 51.0149 83.9895 51.312 84.0765 51.635C84.1889 52.0526 84.1889 52.4925 84.0765 52.91L83.8976 53.5158L83.6438 54.0927C83.4702 54.4783 83.2616 54.8471 83.0207 55.1947C82.5339 55.8979 81.9146 56.4995 81.1977 56.9658C80.4777 57.4459 79.659 57.758 78.8022 57.8788C77.9453 57.9997 77.0723 57.9262 76.2477 57.6639C75.308 57.3297 74.432 56.8381 73.6573 56.21C72.8686 55.5797 72.2384 54.7736 71.8169 53.8562C71.3703 52.8645 71.1519 51.7851 71.1779 50.6978C71.2038 49.6105 71.4734 48.5428 71.9669 47.5735C72.6049 46.4337 73.4973 45.4564 74.5746 44.7177C75.3822 44.1301 76.3137 43.7354 77.2976 43.5639C78.3153 43.4234 79.3507 43.6264 80.24 44.1408C81.569 44.9015 82.6308 46.054 83.2803 47.4408C83.4332 47.7366 83.5643 48.0432 83.6726 48.3581C84.0361 49.5581 83.915 50.0081 83.5342 50.2793C83.4507 50.3487 83.3598 50.4087 83.263 50.4581C82.94 50.5735 82.6861 50.135 82.4553 49.4139C82.1053 48.3288 81.5358 47.3272 80.7823 46.4716C80.4222 46.0752 80.0016 45.7383 79.5361 45.4735C79.1077 45.2274 78.6275 45.0851 78.1342 45.0581C76.7034 45.0062 75.0188 46.0447 73.9688 47.3658L73.9342 47.3716Z" fill="#3B2C7D"/>
<path d="M139.963 187.5C139.805 187.557 139.661 187.648 139.542 187.766C139.542 187.806 139.49 187.823 139.542 187.904C139.576 188.028 139.635 188.144 139.715 188.245C139.82 188.384 139.959 188.493 140.119 188.562C140.29 188.624 140.473 188.651 140.655 188.641C140.838 188.632 141.016 188.585 141.18 188.504C141.637 188.319 142.06 188.059 142.432 187.737C142.782 187.44 143.087 187.094 143.338 186.71C143.661 186.22 143.875 185.677 144.163 185.256C144.244 185.135 144.619 185.198 144.925 185.47C145.089 185.606 145.207 185.791 145.262 185.998C145.317 186.204 145.306 186.423 145.23 186.623C144.895 187.264 144.461 187.849 143.944 188.354C143.077 189.209 141.977 189.789 140.782 190.021C140.226 190.118 139.654 190.002 139.178 189.698C138.938 189.53 138.729 189.321 138.561 189.081C138.48 188.974 138.409 188.86 138.348 188.741C138.275 188.603 138.213 188.461 138.163 188.314C138.119 188.148 138.096 187.978 138.094 187.806C138.1 187.635 138.133 187.465 138.192 187.304C138.311 187.002 138.511 186.739 138.769 186.543C139.297 186.14 139.951 185.935 140.615 185.966C141.142 185.973 141.647 186.179 142.028 186.543C142.225 186.728 142.378 186.955 142.478 187.206C142.578 187.457 142.621 187.727 142.605 187.996C142.557 188.414 142.377 188.806 142.092 189.116C141.795 189.455 141.385 189.675 140.938 189.733H140.598C140.476 189.712 140.356 189.682 140.24 189.641C140.092 189.585 139.96 189.496 139.852 189.381C139.744 189.266 139.663 189.128 139.617 188.977C139.612 188.888 139.63 188.8 139.67 188.72C139.709 188.64 139.768 188.572 139.842 188.521C139.912 188.462 139.987 188.41 140.067 188.366C140.198 188.311 140.341 188.291 140.482 188.308C140.541 188.313 140.599 188.324 140.655 188.343C140.698 188.339 140.74 188.339 140.782 188.343C140.875 188.343 140.851 188.262 140.903 188.221C140.975 188.16 141.039 188.091 141.094 188.014C141.137 187.955 141.161 187.885 141.163 187.812C141.163 187.783 141.163 187.766 141.105 187.679C141.048 187.593 141.053 187.598 141.036 187.587C141.019 187.575 141.036 187.552 140.978 187.541C140.952 187.521 140.923 187.505 140.892 187.495C140.85 187.476 140.805 187.465 140.759 187.46C140.514 187.416 140.262 187.444 140.032 187.541L139.963 187.5Z" fill="#3B2C7D"/>
<path d="M137.791 196.627C137.633 196.684 137.489 196.774 137.37 196.892C137.37 196.933 137.318 196.956 137.37 197.031C137.407 197.156 137.465 197.273 137.543 197.377C137.649 197.513 137.788 197.62 137.947 197.689C138.118 197.751 138.301 197.778 138.483 197.768C138.666 197.758 138.844 197.712 139.008 197.631C139.465 197.445 139.887 197.186 140.26 196.864C140.609 196.566 140.914 196.221 141.166 195.837C141.489 195.352 141.702 194.804 141.991 194.383C142.072 194.262 142.447 194.325 142.758 194.602C142.922 194.739 143.039 194.924 143.093 195.131C143.146 195.338 143.134 195.556 143.058 195.756C142.723 196.397 142.289 196.981 141.772 197.487C141.257 198.004 140.65 198.421 139.983 198.716C139.545 198.918 139.084 199.065 138.61 199.154C138.054 199.25 137.482 199.135 137.006 198.831C136.766 198.663 136.557 198.454 136.389 198.214C136.301 198.111 136.222 198.001 136.152 197.885C136.08 197.748 136.018 197.605 135.968 197.458C135.924 197.292 135.901 197.122 135.898 196.95C135.907 196.778 135.942 196.609 136.002 196.448C136.123 196.147 136.322 195.884 136.579 195.687C137.108 195.283 137.761 195.079 138.425 195.11C138.953 195.115 139.459 195.321 139.839 195.687C140.035 195.872 140.189 196.099 140.288 196.35C140.388 196.601 140.431 196.871 140.416 197.141C140.367 197.559 140.187 197.95 139.902 198.26C139.609 198.603 139.197 198.823 138.748 198.877H138.408C138.288 198.857 138.17 198.826 138.056 198.785C137.908 198.73 137.775 198.641 137.667 198.526C137.558 198.411 137.479 198.273 137.433 198.121C137.426 198.034 137.442 197.945 137.481 197.866C137.52 197.787 137.579 197.72 137.652 197.671C137.721 197.609 137.796 197.554 137.877 197.51C138.008 197.455 138.152 197.435 138.293 197.452C138.352 197.457 138.41 197.469 138.466 197.487C138.518 197.487 138.564 197.487 138.593 197.487C138.622 197.487 138.662 197.4 138.714 197.36C138.788 197.299 138.853 197.229 138.91 197.152C138.948 197.091 138.972 197.022 138.979 196.95C138.979 196.921 138.979 196.904 138.916 196.817C138.852 196.731 138.87 196.737 138.847 196.725C138.823 196.714 138.847 196.691 138.795 196.679C138.766 196.66 138.735 196.645 138.702 196.633C138.66 196.614 138.615 196.602 138.57 196.598C138.325 196.555 138.072 196.583 137.843 196.679L137.791 196.627Z" fill="#3B2C7D"/>
<path d="M104.867 237.041C102.992 236.827 101.983 236.591 101.723 234.543C101.463 232.494 105.386 224.198 115.119 222.243C119.925 221.273 135.069 225.629 121.823 244.079C118.529 248.666 116.054 253.166 116.4 258.675C115.131 258.877 111.554 259.529 111.208 258.289C107.786 246.877 118.667 239.637 119.446 234.375C120.156 229.408 113.89 223.846 104.867 237.041Z" fill="#3B2C7D"/>
<path d="M112.014 257.995C112.014 257.995 112.014 257.995 112.06 257.995L112.215 258.046L112.423 258.093L112.66 258.121C113.013 258.148 113.368 258.148 113.721 258.121C114.085 258.121 114.46 258.07 114.84 258.023L115.515 257.937C115.515 257.937 115.515 257.937 115.55 257.937V257.66L115.596 256.506C115.661 255.679 115.784 254.858 115.965 254.048C116.675 250.8 118.302 247.904 120.09 245.262L122.058 242.418C122.387 241.956 122.675 241.466 122.975 240.987C123.275 240.508 123.552 240.023 123.835 239.533C124.824 237.828 125.586 236.001 126.102 234.098C126.246 233.625 126.287 233.146 126.385 232.673L126.448 231.958C126.471 231.72 126.471 231.481 126.448 231.243C126.472 230.295 126.324 229.351 126.01 228.456C125.349 226.659 124.065 225.159 122.392 224.227C120.702 223.251 118.804 222.691 116.854 222.595C116.431 222.574 116.006 222.586 115.585 222.629C115.158 222.696 114.736 222.788 114.321 222.906C113.466 223.112 112.628 223.38 111.812 223.708C110.196 224.379 108.691 225.289 107.346 226.408C105.622 227.827 104.201 229.579 103.169 231.56C103.048 231.808 102.921 232.05 102.812 232.304C102.702 232.558 102.604 232.806 102.523 233.06C102.348 233.518 102.26 234.006 102.264 234.496C102.286 234.961 102.44 235.409 102.708 235.789C103.041 236.117 103.469 236.331 103.931 236.4C104.589 236.55 104.9 236.666 104.86 236.793C104.819 236.92 104.467 237.046 103.827 237.11C103.414 237.15 102.997 237.111 102.598 236.995C102.318 236.903 102.059 236.756 101.837 236.562C101.598 236.336 101.402 236.068 101.26 235.771C101.116 235.477 101.006 235.167 100.931 234.848L100.879 234.612V234.306V233.995C100.879 233.896 100.879 233.816 100.908 233.723C100.997 233.014 101.191 232.322 101.485 231.67C102.528 229.408 104.033 227.389 105.904 225.745C107.76 224.116 109.915 222.866 112.25 222.064L113.121 221.77L114.021 221.55L114.915 221.337C115.243 221.276 115.575 221.238 115.908 221.221C117.176 221.168 118.445 221.31 119.669 221.643C122.159 222.223 124.381 223.625 125.975 225.623C126.444 226.243 126.832 226.919 127.129 227.637C127.412 228.359 127.606 229.112 127.706 229.881C127.878 231.401 127.772 232.939 127.394 234.421C127.214 235.152 126.994 235.872 126.737 236.579C126.454 237.271 126.194 237.975 125.854 238.639C125.208 239.969 124.478 241.256 123.667 242.493C123.223 243.168 122.75 243.825 122.294 244.483C121.839 245.141 121.383 245.77 120.95 246.421C120.077 247.716 119.306 249.075 118.642 250.489C117.983 251.885 117.501 253.358 117.206 254.873C117.065 255.635 116.982 256.407 116.958 257.181V257.47V257.816V258.675C116.958 258.82 116.958 258.964 116.958 259.102L116.496 259.171L115.608 259.31C114.817 259.433 114.019 259.501 113.219 259.512C112.79 259.52 112.362 259.476 111.944 259.379C111.691 259.325 111.45 259.224 111.235 259.079C111.115 258.993 111.006 258.892 110.912 258.779C110.842 258.652 110.773 258.52 110.715 258.387C110.021 256.027 109.889 253.538 110.329 251.118C110.982 248.161 112.213 245.363 113.952 242.885C114.771 241.633 115.648 240.433 116.49 239.221C117.354 238.063 118.088 236.814 118.677 235.495C119.514 233.545 118.902 231.035 117.206 229.939C116.779 229.676 116.304 229.5 115.809 229.421C115.314 229.342 114.809 229.361 114.321 229.477C113.295 229.728 112.325 230.173 111.465 230.787C110.691 231.346 109.962 231.965 109.285 232.639C108.01 233.92 107.254 234.866 106.683 235.495C106.303 235.954 105.856 236.353 105.356 236.677C105.192 236.787 105.021 236.883 104.842 236.966C104.623 237.029 104.681 236.718 104.992 236.1C105.479 235.169 106.059 234.289 106.723 233.475C108.023 231.774 109.613 230.315 111.419 229.166C112.411 228.553 113.523 228.16 114.679 228.012C115.306 227.959 115.938 228.009 116.548 228.162C117.178 228.325 117.767 228.615 118.279 229.016C119.276 229.812 119.967 230.929 120.235 232.177C120.373 232.784 120.425 233.408 120.39 234.029C120.345 234.65 120.209 235.26 119.987 235.841C119.563 236.898 119.025 237.906 118.383 238.846C117.777 239.764 117.154 240.635 116.542 241.512C114.777 244.021 113.115 246.566 112.198 249.375C111.724 250.758 111.469 252.206 111.442 253.668C111.424 254.395 111.467 255.122 111.569 255.843C111.61 256.206 111.696 256.564 111.76 256.921C111.789 257.1 111.846 257.279 111.892 257.458L112.019 257.943L112.014 257.995Z" fill="#3B2C7D"/>
<path d="M118.643 270.79C118.381 271.464 117.989 272.079 117.49 272.602C116.923 273.177 116.161 273.518 115.355 273.56C114.799 273.58 114.246 273.471 113.74 273.242C113.525 273.151 113.32 273.039 113.128 272.908C112.918 272.779 112.724 272.626 112.551 272.452L112.309 272.204L112.101 271.927C111.962 271.748 111.842 271.554 111.743 271.35C111.351 270.57 111.135 269.713 111.109 268.84C111.075 268.082 111.16 267.322 111.363 266.59C111.501 266.107 111.724 265.652 112.02 265.246C112.183 265.039 112.377 264.86 112.597 264.715C112.796 264.556 113.02 264.431 113.261 264.346C113.555 264.231 113.601 264.479 113.543 264.825C113.482 265.221 113.376 265.608 113.226 265.979C112.847 266.632 112.608 267.358 112.524 268.108C112.439 268.859 112.512 269.619 112.736 270.34C112.866 270.785 113.117 271.185 113.463 271.494C113.537 271.579 113.625 271.651 113.722 271.708C113.82 271.76 113.901 271.835 114.005 271.881C114.214 271.984 114.433 272.069 114.657 272.135C115.101 272.284 115.586 272.253 116.007 272.048C116.455 271.796 116.823 271.422 117.068 270.969C117.423 270.368 117.656 269.704 117.755 269.014C117.799 268.766 117.813 268.514 117.795 268.263C117.765 268.002 117.713 267.743 117.64 267.49C117.499 266.971 117.283 266.476 116.999 266.019C116.788 265.687 116.518 265.396 116.203 265.16C115.917 264.968 115.588 264.85 115.245 264.819C115.107 264.819 114.963 264.854 114.824 264.819C114.288 264.923 114.092 264.969 113.797 264.675C113.724 264.616 113.655 264.552 113.59 264.485C113.399 264.271 113.561 263.908 114.167 263.631C114.399 263.534 114.644 263.47 114.893 263.44H115.292C115.429 263.447 115.566 263.463 115.701 263.487C116.237 263.583 116.74 263.815 117.161 264.162C117.902 264.807 118.463 265.634 118.788 266.562C118.912 266.89 119.012 267.228 119.088 267.571C119.129 267.762 119.16 267.954 119.18 268.148C119.2 268.355 119.2 268.564 119.18 268.771C119.123 269.481 118.964 270.178 118.707 270.842L118.643 270.79Z" fill="#3B2C7D"/>
<path d="M145.292 244.177C143.458 243.433 142.488 242.908 142.817 240.767C143.146 238.627 149.423 231.346 159.808 232.119C164.931 232.494 178.996 241.154 160.431 256.05C155.815 259.754 151.488 263.55 150.277 269.215C148.938 269.06 146.296 268.794 146.238 267.444C146.002 254.96 158.446 250.679 160.708 245.585C162.871 240.773 158.106 233.406 145.292 244.177Z" fill="#3B2C7D"/>
<path d="M147.145 267.468C147.145 267.508 147.347 267.693 147.635 267.814C147.958 267.95 148.295 268.052 148.639 268.12L149.216 268.229L149.579 268.287C149.608 268.287 149.631 268.287 149.66 268.287L149.712 268.085V267.981V267.912L149.764 267.756L149.972 267.145C150.104 266.729 150.295 266.337 150.456 265.939C150.82 265.158 151.238 264.404 151.708 263.683C153.6 260.798 156.15 258.554 158.7 256.471C159.652 255.716 160.564 254.96 161.458 254.198L162.762 253.01C163.195 252.612 163.593 252.185 164.014 251.775C165.458 250.324 166.702 248.687 167.712 246.906C168.7 245.17 169.162 243.183 169.039 241.189C168.786 239.205 167.855 237.371 166.402 235.996C164.946 234.577 163.178 233.518 161.239 232.904C160.818 232.779 160.388 232.686 159.952 232.627C159.525 232.57 159.047 232.587 158.597 232.564H157.91L157.224 232.604C156.774 232.645 156.312 232.639 155.862 232.72C151.732 233.267 147.92 235.228 145.074 238.27C144.688 238.686 144.335 239.131 144.018 239.602C143.714 240.015 143.492 240.484 143.366 240.981C143.263 241.457 143.301 241.952 143.475 242.406C143.723 242.829 144.096 243.164 144.543 243.364C145.166 243.693 145.449 243.895 145.374 244.004C145.299 244.114 144.912 244.137 144.254 244.004C143.846 243.919 143.456 243.765 143.1 243.548C142.845 243.384 142.626 243.168 142.46 242.914C142.275 242.625 142.146 242.304 142.079 241.968C142.014 241.635 141.989 241.296 142.004 240.958C142.012 240.562 142.093 240.171 142.241 239.804C142.31 239.637 142.385 239.458 142.466 239.285L142.737 238.812C142.933 238.498 143.147 238.195 143.377 237.906C145.046 235.946 147.094 234.344 149.399 233.196C151.703 232.048 154.215 231.377 156.785 231.225L157.743 231.168C158.06 231.168 158.383 231.168 158.7 231.168C159.359 231.165 160.017 231.217 160.668 231.323C161.956 231.595 163.194 232.066 164.337 232.72C166.672 233.959 168.544 235.92 169.674 238.31C170.299 239.793 170.543 241.41 170.383 243.012C170.181 244.59 169.69 246.117 168.935 247.518C167.398 250.21 165.409 252.618 163.056 254.637C161.81 255.791 160.483 256.789 159.22 257.821C157.953 258.849 156.744 259.945 155.597 261.104C154.456 262.245 153.453 263.515 152.608 264.889C152.406 265.235 152.199 265.575 152.031 265.939C151.844 266.29 151.678 266.652 151.535 267.023C151.368 267.387 151.258 267.773 151.125 268.148L151.079 268.287L151.022 268.495L150.912 268.916L150.699 269.764L149.545 269.625L149.1 269.562L148.714 269.493C148.171 269.404 147.641 269.253 147.133 269.043C146.847 268.925 146.582 268.762 146.349 268.558C146.064 268.316 145.879 267.977 145.829 267.606C145.813 267.458 145.813 267.309 145.829 267.162V266.77C145.829 266.504 145.829 266.245 145.864 265.985C145.927 264.939 146.089 263.902 146.349 262.887C146.611 261.874 146.967 260.887 147.41 259.939C148.837 257.128 150.808 254.627 153.208 252.583C154.362 251.533 155.55 250.546 156.71 249.548C157.863 248.604 158.902 247.53 159.808 246.346C160.458 245.449 160.804 244.368 160.795 243.26C160.798 242.195 160.405 241.167 159.693 240.375C159.334 240.001 158.902 239.704 158.424 239.504C157.931 239.313 157.411 239.202 156.883 239.175C155.779 239.153 154.682 239.339 153.647 239.723C152.715 240.071 151.812 240.492 150.947 240.981C149.314 241.916 148.293 242.648 147.549 243.121C147.042 243.476 146.486 243.754 145.899 243.946C145.71 244.01 145.517 244.06 145.322 244.096C145.085 244.096 145.235 243.814 145.72 243.289C146.025 242.95 146.355 242.634 146.706 242.343C147.116 241.973 147.624 241.581 148.206 241.154C149.966 239.825 151.938 238.805 154.039 238.137C155.193 237.794 156.405 237.698 157.599 237.854C158.236 237.955 158.852 238.161 159.422 238.466C160.004 238.788 160.518 239.221 160.933 239.741C161.74 240.784 162.16 242.074 162.122 243.393C162.099 244.685 161.697 245.943 160.968 247.01C160.278 247.973 159.483 248.855 158.597 249.641C157.754 250.408 156.895 251.129 156.058 251.85C153.566 253.979 151.16 256.171 149.504 258.86C148.667 260.185 148.036 261.631 147.635 263.146C147.525 263.521 147.468 263.908 147.381 264.3C147.295 264.693 147.254 265.073 147.22 265.454C147.185 265.835 147.139 266.233 147.145 266.608V267.185V267.329V267.393V267.468Z" fill="#3B2C7D"/>
<path d="M149.423 282.427C148.931 283.016 148.309 283.482 147.605 283.789C146.834 284.113 145.967 284.123 145.188 283.818C144.663 283.621 144.182 283.321 143.775 282.935C143.598 282.754 143.434 282.561 143.284 282.358C143.158 282.136 143.045 281.906 142.944 281.671C142.868 281.437 142.808 281.198 142.765 280.956C142.732 280.719 142.717 280.48 142.719 280.241C142.746 279.338 142.968 278.452 143.371 277.644C143.711 276.943 144.14 276.288 144.646 275.694C144.809 275.504 144.984 275.325 145.171 275.158C145.349 274.974 145.553 274.816 145.777 274.691L146.111 274.5L146.475 274.362C146.716 274.273 146.968 274.219 147.225 274.2C147.548 274.166 147.53 274.414 147.375 274.731C147.282 274.909 147.178 275.08 147.063 275.244C146.953 275.436 146.812 275.61 146.648 275.758C145.35 276.771 144.435 278.195 144.052 279.796C143.945 280.257 143.983 280.739 144.159 281.178C144.336 281.616 144.642 281.99 145.038 282.248C145.429 282.562 145.916 282.732 146.417 282.727C146.945 282.682 147.443 282.465 147.836 282.11C148.389 281.639 148.842 281.062 149.169 280.414C149.438 279.92 149.632 279.389 149.746 278.839C149.872 278.284 149.93 277.717 149.919 277.148C149.919 276.734 149.837 276.324 149.677 275.943C149.566 275.626 149.336 275.365 149.036 275.216C148.938 275.141 148.782 275.152 148.661 275.112C148.13 275.048 147.9 275.054 147.692 274.691C147.646 274.61 147.582 274.535 147.542 274.454C147.409 274.2 147.669 273.877 148.344 273.779C148.613 273.744 148.887 273.758 149.152 273.819C149.298 273.843 149.441 273.884 149.579 273.941C149.717 274.01 149.85 274.085 149.988 274.166C150.474 274.516 150.834 275.014 151.015 275.585C151.302 276.541 151.361 277.55 151.188 278.533C151.092 279.25 150.898 279.951 150.611 280.616C150.321 281.291 149.932 281.919 149.457 282.479L149.423 282.427Z" fill="#3B2C7D"/>
<path d="M152.702 117.952C152.292 118.887 152.009 120.485 151.173 121.137C149.863 122.158 148.404 119.493 148.109 118.5C147.919 117.877 146.5 118.264 146.684 118.881C147.209 120.612 148.819 122.741 150.884 122.343C152.95 121.944 153.359 119.66 154.058 118.091C154.375 117.369 152.944 117.41 152.702 117.952Z" fill="#3B2C7D"/>
<path d="M140.896 117.525C140.411 118.379 139.84 120.317 138.813 120.6C137.463 120.981 136.454 118.454 136.263 117.473C136.142 116.85 134.717 117.214 134.844 117.854C135.184 119.614 136.575 121.892 138.652 121.65C140.729 121.408 141.392 119.175 142.252 117.658C142.627 116.989 141.19 117.012 140.896 117.525Z" fill="#3B2C7D"/>
<path d="M142.431 116.989C142.573 115.939 142.542 114.873 142.339 113.833C142.255 113.457 142.145 113.087 142.01 112.725C141.83 112.102 141.541 111.516 141.156 110.994C140.739 110.498 140.214 110.104 139.621 109.841C139.077 109.599 138.485 109.487 137.891 109.512C137.172 109.581 136.471 109.777 135.819 110.089C135.612 110.175 135.392 109.893 135.387 109.477C135.386 109.218 135.467 108.964 135.617 108.753C135.766 108.541 135.978 108.381 136.223 108.294C137.19 107.987 138.224 107.961 139.205 108.219C140.185 108.478 141.072 109.01 141.762 109.754C142.167 110.189 142.512 110.676 142.789 111.202C143.057 111.7 143.273 112.224 143.435 112.766C143.769 113.939 143.907 115.159 143.844 116.377C143.829 116.748 143.79 117.118 143.729 117.485C143.679 117.851 143.606 118.213 143.51 118.569C143.226 119.646 142.813 120.684 142.281 121.662C142.062 122.031 141.877 122.412 141.704 122.787L141.023 123.866C140.924 124.023 140.814 124.173 140.694 124.316C140.239 124.846 140.019 124.95 139.662 124.8C139.576 124.771 139.493 124.734 139.414 124.691C139.171 124.535 139.183 124.171 139.414 123.768C139.817 123.191 140.164 122.556 140.567 121.962C140.733 121.65 140.906 121.339 141.087 121.027C141.266 120.721 141.387 120.381 141.548 120.064C141.975 119.098 142.258 118.076 142.391 117.029L142.431 116.989Z" fill="#3B2C7D"/>
<path d="M143.694 126.877C141.715 125.296 139.927 122.319 137.065 124.31C134.412 126.156 138.15 129.819 139.771 130.858C140.146 131.1 141.392 130.523 141.098 130.339C139.633 129.404 137.267 127.31 137.637 125.319C138.127 122.568 141.629 126.796 142.385 127.402C142.731 127.673 144.017 127.125 143.712 126.877H143.694Z" fill="#3B2C7D"/>
<path d="M148.217 110.562C147.64 110.019 147.64 109.696 147.795 109.506C148.045 109.158 148.368 108.869 148.742 108.659C149.116 108.45 149.531 108.325 149.959 108.294C150.642 108.28 151.319 108.416 151.943 108.693C152.96 109.091 153.892 109.678 154.69 110.423C154.926 110.655 155.149 110.9 155.359 111.156C155.602 111.431 155.797 111.745 155.936 112.085C155.936 112.166 156.017 112.223 155.993 112.327C155.907 112.604 155.555 112.581 155.29 112.5C155.226 112.5 155.128 112.5 155.122 112.46C155.065 112.258 154.545 112.333 154.499 112.183C154.275 111.879 153.99 111.626 153.663 111.439C153.539 111.346 153.424 111.244 153.317 111.133C153.178 110.989 153.057 110.821 152.901 110.683C152.627 110.461 152.331 110.268 152.018 110.106C151.52 109.842 150.976 109.675 150.415 109.616C149.938 109.558 149.457 109.668 149.053 109.927C148.871 110.057 148.704 110.208 148.557 110.377C148.45 110.45 148.336 110.511 148.217 110.562Z" fill="#3B2C7D"/>
<path d="M141.377 140.389C142.052 139.973 143.056 140.844 143.656 141.162C143.96 141.247 144.286 141.214 144.567 141.069C144.631 141.069 145.202 140.798 144.994 140.689C144.345 140.237 143.617 139.91 142.848 139.725C141.948 139.653 141.05 139.88 140.292 140.371C140.038 140.527 140.142 140.614 140.373 140.66C140.728 140.674 141.078 140.58 141.377 140.389Z" fill="#3B2C7D"/>
<path d="M199.81 85.0562C203.526 85.6735 206.734 88.1485 206.52 92.1928C206.485 92.9312 208.17 92.6197 208.199 92.0081C208.412 87.5543 204.939 84.7678 200.82 84.087C200.243 83.9889 198.847 84.8947 199.81 85.0562Z" fill="#3B2C7D"/>
<path d="M202.552 81.554C206.152 79.3502 213.358 84.7906 211.321 88.9156C210.888 89.7925 212.579 89.8675 212.931 89.1521C214.269 86.4406 212.152 83.4752 210.104 81.7963C207.796 79.9098 204.508 78.8194 201.784 80.4809C200.827 81.0579 201.704 82.0675 202.552 81.554Z" fill="#3B2C7D"/>
<path d="M141.53 140.25C141.582 140.17 141.865 139.673 141.599 140.014C141.438 140.21 141.432 140.014 141.657 140.129C141.882 140.245 142.199 140.337 142.465 140.475C142.869 140.695 143.249 140.948 143.653 141.162C143.958 141.247 144.283 141.214 144.565 141.07C144.628 141.07 145.199 140.798 144.992 140.689C144.201 140.268 143.451 139.668 142.54 139.535C142.088 139.453 141.623 139.501 141.197 139.672C140.771 139.844 140.403 140.132 140.134 140.504C140.007 140.718 140.636 140.631 140.711 140.62C140.959 140.579 141.403 140.487 141.548 140.245L141.53 140.25Z" fill="#3B2C7D"/>
</svg>
