<svg width="102" height="35" viewBox="0 0 102 35" fill="none" xmlns="http://www.w3.org/2000/svg">
<path d="M10.3196 29.3946C4.5385 29.3946 0.888351 27.4807 0.888351 24.9552C0.888351 22.9033 2.50626 21.5419 4.85419 21.5419C6.59048 21.5419 8.74111 21.8575 10.4577 22.5678C10.7931 22.706 11.2272 22.9822 11.681 22.9822C12.2137 22.9822 12.6478 22.5678 12.6478 22.0154C12.6478 21.5813 12.3913 21.3051 11.9967 21.1078C9.01734 19.6083 4.93311 19.3123 3.51251 19.7464C2.52599 18.7598 1.42108 17.1419 1.42108 14.3599C1.42108 9.90083 4.83446 6.90178 10.5563 6.90178C16.0414 6.90178 19.218 8.63807 19.218 11.0057C19.218 13.1366 17.6001 14.4191 15.2522 14.4191C13.2199 14.4191 11.2469 14.1232 9.5106 13.255C9.33303 13.1761 9.13572 13.0774 8.87922 13.0774C8.36623 13.0774 7.91243 13.4918 7.91243 14.064C7.91243 14.5967 8.28731 14.8927 8.78057 15.1097C10.9707 16.0765 14.6405 16.8263 16.9687 16.1554C18.0145 17.063 19.514 18.6612 19.514 21.5419C19.514 26.1391 16.1993 29.3946 10.3196 29.3946ZM28.4993 29.3946C24.5729 29.3946 21.5936 26.435 21.5936 22.114C21.5936 20.654 21.9093 19.6872 22.5209 18.7204C23.3891 19.115 24.5137 19.2926 25.52 19.2926C28.6571 19.2926 31.084 16.7079 31.084 14.2021C31.084 13.3931 30.6894 12.9985 30.1369 12.9985C29.545 12.9985 29.2293 13.2748 29.1307 14.0837C28.9136 16.0173 27.4141 17.3195 25.5002 17.3195C23.2707 17.3195 21.2582 16.2541 21.2582 13.7877C21.2582 9.90083 25.9343 6.90178 31.9719 6.90178C38.0489 6.90178 41.9752 10.6309 41.9752 16.3724V24.5014C41.9752 27.3624 39.943 29.3946 36.865 29.3946C35.8785 29.3946 34.7539 29.0395 34.2409 28.6646C35.0893 27.6978 36.1745 25.9615 36.4704 24.9552C36.5099 24.7579 36.5493 24.6198 36.5493 24.5014C36.5493 23.9292 36.0758 23.5938 35.6023 23.5938C35.2274 23.5938 34.8722 23.6925 34.5763 24.3831C33.4122 27.1453 31.3799 29.3946 28.4993 29.3946ZM31.1629 21.9365C31.1629 22.5481 31.4589 23.0019 32.1494 23.0019C32.84 23.0019 33.136 22.5481 33.136 21.9365V19.9239C33.136 19.3123 32.84 18.8585 32.1494 18.8585C31.4589 18.8585 31.1629 19.3123 31.1629 19.9239V21.9365ZM54.512 29.296C51.3551 29.296 49.3426 27.0664 49.3426 23.8306V17.4379C51.8681 17.3392 54.9264 14.9321 54.9264 11.6568C54.9264 10.256 54.1963 8.93403 53.2296 7.96723C53.0322 7.76993 52.756 7.63182 52.4798 7.63182C51.9668 7.63182 51.513 8.04616 51.513 8.59861C51.513 8.89457 51.6708 9.1708 51.8879 9.38783C52.6376 10.1573 52.9533 10.986 52.9533 11.6568C52.9533 13.7483 51.2565 15.5438 48.4548 15.5438C44.9822 15.5438 44.0154 12.7223 44.0154 10.8282C44.0154 8.83538 45.0019 7.13855 47.409 4.29735C49.3426 2.02834 51.3946 0.292051 54.3542 0.292051C57.4914 0.292051 59.6814 2.50187 59.6814 5.73768V23.8306C59.6814 27.0664 57.6689 29.296 54.512 29.296ZM72.5142 29.296C69.3573 29.296 67.3448 27.0664 67.3448 23.8306V17.4379C69.8703 17.3392 72.9285 14.9321 72.9285 11.6568C72.9285 10.256 72.1985 8.93403 71.2317 7.96723C71.0344 7.76993 70.7582 7.63182 70.4819 7.63182C69.9689 7.63182 69.5151 8.04616 69.5151 8.59861C69.5151 8.89457 69.673 9.1708 69.89 9.38783C70.6398 10.1573 70.9555 10.986 70.9555 11.6568C70.9555 13.7483 69.2586 15.5438 66.4569 15.5438C62.9843 15.5438 62.0175 12.7223 62.0175 10.8282C62.0175 8.83538 63.0041 7.13855 65.4112 4.29735C67.3448 2.02834 69.3968 0.292051 72.3563 0.292051C75.4935 0.292051 77.6836 2.50187 77.6836 5.73768V23.8306C77.6836 27.0664 75.6711 29.296 72.5142 29.296ZM86.8267 34.1299C82.6636 34.1299 79.6448 31.6439 79.6448 28.5265C79.6448 25.8234 81.46 23.8109 84.6761 23.8109C86.1953 23.8109 87.024 24.4225 87.8922 25.5472C88.1092 25.8234 88.3657 26.0404 88.7406 26.0404C89.2733 26.0404 89.7074 25.6261 89.7074 25.1131C89.7074 24.8369 89.6087 24.5606 89.372 24.2449C88.563 23.1795 87.0832 21.8378 84.6958 21.8378C83.8671 21.8378 83.2358 21.9562 82.6636 22.1338L80.5919 15.5635C80.217 14.3599 80 12.9591 80 12.1106C80 8.69726 81.6771 7.00044 84.8339 7.00044C87.9908 7.00044 89.4114 8.57888 90.0625 11.6766L91.3056 17.6352C91.5226 18.6612 91.858 19.8648 92.1145 20.3975C92.3513 20.871 92.667 21.0683 93.0616 21.0683C93.614 21.0683 94.0284 20.654 94.0284 20.1015C94.0284 19.8056 93.8705 19.4899 93.7916 19.2728C93.614 18.7598 93.3773 17.9509 93.1208 16.7079L91.8186 10.3152C92.4894 8.44077 93.4957 7.00044 96.2777 7.00044C99.4148 7.00044 101.112 8.69726 101.112 12.1501C101.112 13.5904 100.914 15.3267 100.559 16.7473L98.448 24.975C97.0472 30.4601 93.614 34.1299 86.8267 34.1299Z" fill="#3B2C7D"/>
</svg>
